<svg width="18" height="21" viewBox="0 0 18 21" fill="none" xmlns="http://www.w3.org/2000/svg">
<path d="M15.8334 0.279053H9.40479V1.70762H15.8334C16.2278 1.70762 16.5476 2.02742 16.5476 2.42191V18.1362C16.5476 18.5307 16.2278 18.8505 15.8334 18.8505H9.40479V20.2791H15.8334C17.0168 20.2791 17.9762 19.3197 17.9762 18.1362V2.42191C17.9762 1.23844 17.0168 0.279053 15.8334 0.279053V0.279053Z" fill="#8491A3"/>
<path d="M9.40493 14.8505L12.9764 11.2791C13.5302 10.7219 13.5302 9.82198 12.9764 9.26479L9.40493 5.69336L8.36921 6.70765L11.2264 9.56479H0.833496V10.9934H11.2549L8.39778 13.8505L9.40493 14.8505Z" fill="#8491A3"/>
</svg>
