<svg width="20" height="20" viewBox="0 0 20 20" fill="none" xmlns="http://www.w3.org/2000/svg">
<mask id="mask0_471_2385" style="mask-type:luminance" maskUnits="userSpaceOnUse" x="0" y="0" width="20" height="20">
<path d="M19.9805 19.9805V0.0195312H0.0195312V19.9805H19.9805Z" fill="white" stroke="white" stroke-width="0.0390625"/>
</mask>
<g mask="url(#mask0_471_2385)">
<path d="M9.99967 6.92707C8.30256 6.92707 6.92674 8.30285 6.92674 10C6.92674 11.6971 8.30256 13.0729 9.99967 13.0729C11.6968 13.0729 13.0726 11.6971 13.0726 10C13.0726 8.30285 11.6968 6.92707 9.99967 6.92707ZM18.6247 7.80715L17.7928 8.49207C16.8437 9.27336 16.8437 10.7266 17.7928 11.5079L18.6247 12.1928C18.9196 12.4355 18.9957 12.8559 18.8048 13.1866L17.1619 16.0321C16.971 16.3629 16.5689 16.5071 16.2113 16.3731L15.2021 15.995C14.051 15.5638 12.7924 16.2904 12.5903 17.5029L12.4131 18.5659C12.3504 18.9426 12.0244 19.2188 11.6426 19.2188H8.35677C7.9749 19.2188 7.64896 18.9426 7.58619 18.5659L7.409 17.5029C7.20693 16.2904 5.94838 15.5638 4.79724 15.995L3.7881 16.3731C3.43045 16.5071 3.02838 16.3629 2.8374 16.0321L1.19455 13.1866C1.00361 12.8559 1.07974 12.4355 1.37459 12.1928L2.20662 11.5079C3.15564 10.7266 3.15564 9.27336 2.20662 8.49207L1.37459 7.80715C1.07974 7.56441 1.00361 7.1441 1.19455 6.81336L2.8374 3.96785C3.02838 3.63711 3.43045 3.49289 3.7881 3.62688L4.79724 4.00492C5.94838 4.43617 7.20693 3.70957 7.409 2.49703L7.58619 1.43402C7.64896 1.05734 7.9749 0.78125 8.35677 0.78125H11.6426C12.0244 0.78125 12.3504 1.05734 12.4131 1.43402L12.5903 2.49703C12.7924 3.70957 14.051 4.43617 15.2021 4.00492L16.2113 3.62688C16.5689 3.49289 16.971 3.63711 17.1619 3.96785L18.8048 6.81336C18.9957 7.1441 18.9196 7.56441 18.6247 7.80715Z" stroke="#8491A3" stroke-width="1.5625" stroke-miterlimit="10" stroke-linecap="round" stroke-linejoin="round"/>
</g>
</svg>
