<svg width="20" height="19" viewBox="0 0 20 19" fill="none" xmlns="http://www.w3.org/2000/svg">
<path d="M15.5814 4.55825H16.2791C16.2791 4.37322 16.2056 4.19576 16.0747 4.06492C15.9439 3.93409 15.7664 3.86058 15.5814 3.86058V4.55825ZM4.4186 4.55825V3.86058C4.23357 3.86058 4.05611 3.93409 3.92527 4.06492C3.79444 4.19576 3.72093 4.37322 3.72093 4.55825H4.4186ZM14.8837 4.55825V8.27918H16.2791V4.55825H14.8837ZM14.8837 8.27918V15.721H16.2791V8.27918H14.8837ZM13.7209 16.8838H6.27907V18.2792H13.7209V16.8838ZM5.11628 15.721V4.55825H3.72093V15.721H5.11628ZM4.4186 5.25593H15.5814V3.86058H4.4186V5.25593ZM4.4186 1.535H15.5814V0.139648H4.4186V1.535ZM1.39535 4.55825C1.39535 2.88856 2.7489 1.535 4.4186 1.535V0.139648C1.97828 0.139648 0 2.11793 0 4.55825H1.39535ZM4.4186 7.58151C2.7489 7.58151 1.39535 6.22796 1.39535 4.55825H0C0 6.99858 1.97828 8.97686 4.4186 8.97686V7.58151ZM18.6047 4.55825C18.6047 6.22796 17.2511 7.58151 15.5814 7.58151V8.97686C18.0218 8.97686 20 6.99858 20 4.55825H18.6047ZM20 4.55825C20 2.11793 18.0218 0.139648 15.5814 0.139648V1.535C17.2511 1.535 18.6047 2.88856 18.6047 4.55825H20ZM14.8837 15.721C14.8837 16.3633 14.3632 16.8838 13.7209 16.8838V18.2792C15.1338 18.2792 16.2791 17.1339 16.2791 15.721H14.8837ZM6.27907 16.8838C5.63687 16.8838 5.11628 16.3633 5.11628 15.721H3.72093C3.72093 17.1339 4.86625 18.2792 6.27907 18.2792V16.8838Z" fill="#8491A3"/>
<path d="M12.3538 12.4934C12.6263 12.221 12.6263 11.7793 12.3538 11.5068C12.0813 11.2344 11.6397 11.2344 11.3672 11.5068L12.3538 12.4934ZM8.63287 11.5068C8.3604 11.2344 7.91869 11.2344 7.64624 11.5068C7.37378 11.7793 7.37378 12.221 7.64624 12.4934L8.63287 11.5068ZM10.6977 8.27922C10.6977 7.89392 10.3853 7.58154 10 7.58154C9.61473 7.58154 9.30236 7.89392 9.30236 8.27922H10.6977ZM9.30236 12.9304C9.30236 13.3157 9.61473 13.6281 10 13.6281C10.3853 13.6281 10.6977 13.3157 10.6977 12.9304H9.30236ZM11.3672 11.5068L10.1645 12.7095L11.1511 13.6961L12.3538 12.4934L11.3672 11.5068ZM9.83557 12.7095L8.63287 11.5068L7.64624 12.4934L8.84896 13.6961L9.83557 12.7095ZM10.1645 12.7095C10.0736 12.8003 9.92645 12.8003 9.83557 12.7095L8.84896 13.6961C9.48468 14.3319 10.5154 14.3319 11.1511 13.6961L10.1645 12.7095ZM9.30236 8.27922V12.9304H10.6977V8.27922H9.30236Z" fill="#8491A3"/>
</svg>
