<svg width="20" height="21" viewBox="0 0 20 21" fill="none" xmlns="http://www.w3.org/2000/svg">
<path fill-rule="evenodd" clip-rule="evenodd" d="M0 10.2791C0 4.75621 4.47715 0.279053 10 0.279053C12.6522 0.279053 15.1957 1.33262 17.0711 3.20798C18.9464 5.08335 20 7.62689 20 10.2791C20 15.8019 15.5228 20.2791 10 20.2791C4.47715 20.2791 0 15.8019 0 10.2791ZM1.42857 10.2791C1.42857 15.0129 5.26613 18.8505 10 18.8505C12.2733 18.8505 14.4535 17.9474 16.0609 16.34C17.6684 14.7325 18.5714 12.5523 18.5714 10.2791C18.5714 5.54518 14.7339 1.70762 10 1.70762C5.26613 1.70762 1.42857 5.54518 1.42857 10.2791Z" fill="#8491A3"/>
<path d="M7.85693 10.2792H9.28551V15.9934H10.7141V8.85059H7.85693V10.2792Z" fill="#8491A3"/>
<ellipse cx="9.99986" cy="5.99327" rx="1.42857" ry="1.42857" fill="#8491A3"/>
</svg>
