<svg width="48" height="48" viewBox="0 0 61 61" fill="none"
  xmlns="http://www.w3.org/2000/svg">
  <path fill="current" stroke="current" d="M8.30134 35.9161C8.49857 36.1412 8.77719 36.2788 9.07586 36.2984C9.37452 36.318 9.66875 36.2181 9.89374 36.0207L35.235 10.6794L35.8163 20.1702C35.8665 20.802 36.3682 21.3037 37 21.3539C37.285 21.381 37.5672 21.2795 37.7696 21.0771C37.9721 20.8746 38.0736 20.5924 38.0465 20.3074L37.2941 8.11407C37.2439 7.4823 36.7422 6.9806 36.1104 6.93037L23.9227 6.18649C23.6361 6.16052 23.3528 6.26315 23.1493 6.46664C22.9458 6.67013 22.8432 6.95348 22.8692 7.24008C22.9194 7.87185 23.4211 8.37355 24.0529 8.42378L33.5465 9.00219L8.19952 34.3491C7.79811 34.811 7.84353 35.51 8.30134 35.9161Z" />
  <path fill="current" stroke="current" d="M23.9852 53.1638L36.163 53.9035C36.4478 53.9298 36.7296 53.828 36.9318 53.6258C37.1341 53.4235 37.2358 53.1418 37.2095 52.8569C37.1593 52.2252 36.6576 51.7235 36.0258 51.6733L26.535 51.092L51.8848 25.7422C52.0822 25.5172 52.1821 25.223 52.1624 24.9243C52.1428 24.6257 52.0053 24.3471 51.7801 24.1498C51.5829 23.9247 51.3043 23.7872 51.0056 23.7675C50.707 23.7479 50.4127 23.8478 50.1877 24.0452L24.8394 49.3935L24.2864 39.931C24.2362 39.2993 23.7345 38.7976 23.1027 38.7473C22.8161 38.7214 22.5328 38.824 22.3293 39.0275C22.1258 39.231 22.0232 39.5143 22.0491 39.8009L22.7958 51.9858C22.8539 52.6151 23.3554 53.1118 23.9852 53.1638Z" />
</svg>
