<svg xmlns="http://www.w3.org/2000/svg" width="24" height="25" viewBox="0 0 24 25">
  <g fill="none" fillRule="evenodd">
    <g fill="#FFF" fillRule="nonzero">
      <g>
        <path d="M1.89 20.278l8.912-9.2 1.163 1.43-8.911 9.2 5.325.167-.108 1.966-7.436-.238c-.506-.049-.878-.496-.829-.999l.002-.015.444-8.354 1.75.06-.311 5.983zM22.121 14.653l-8.923 9.188-1.163-1.43 8.911-9.2-5.325-.167.108-1.966 7.436.238c.506.048.878.495.829.999l-.002.015-.444 8.354-1.75-.06.323-5.971zM.415.007H23.992V1.9609999999999999H.415zM.415 3.721H21.848V5.734999999999999H.415z" transform="translate(-331 -115) translate(331 115.261)" />
      </g>
    </g>
  </g>
</svg>