<svg width="16" height="16" viewBox="0 0 16 16" fill="none"
  xmlns="http://www.w3.org/2000/svg">
  <path fill-rule="evenodd" clip-rule="evenodd" d="M7.02081 8.3277L9.07788 8.75249C10.0379 8.95073 10.4771 9.7087 10.2655 10.6182C10.1286 11.281 9.70867 11.814 9.11295 11.9292C8.88839 11.9782 8.58653 11.9396 8.33515 11.8877L6.36949 11.4818L7.02081 8.3277ZM10.4397 4.69652C10.8039 5.01003 10.9152 5.50963 10.8067 6.03528C10.6368 6.85813 10.0388 7.33041 9.21598 7.1605L7.34172 6.77347L7.91283 4.00785L9.55852 4.34768C9.92419 4.42319 10.2348 4.53504 10.4397 4.69652ZM8.19234 13.5026C7.97207 14.5692 7.86194 15.1026 7.86194 15.1026C7.86194 15.1026 7.50384 15.0286 6.78765 14.8807L7.11805 13.2807L5.99811 13.0495C5.77785 14.1161 5.66771 14.6495 5.66771 14.6495C5.66771 14.6495 5.30964 14.5755 4.59348 14.4276L4.92388 12.8276C3.49153 12.5319 2.77536 12.384 2.77536 12.384C2.77536 12.384 2.87604 11.8964 3.07741 10.9213L3.74028 11.0581C4.08306 11.1289 4.39115 10.9065 4.45723 10.5866L5.79294 4.11824C5.86374 3.7754 5.64138 3.46738 5.32142 3.40131C4.87951 3.31005 4.65855 3.26443 4.65855 3.26443C4.65855 3.26443 4.75924 2.77682 4.96063 1.80159L7.10915 2.24527C7.32941 1.17864 7.43954 0.645332 7.43954 0.645332C7.43954 0.645332 7.79762 0.719275 8.51377 0.867162L8.18338 2.4671L9.30332 2.69836C9.52358 1.63174 9.63371 1.09843 9.63371 1.09843C9.63371 1.09843 9.9918 1.17238 10.708 1.32027L10.3729 2.94303C10.9167 3.07918 11.3368 3.23743 11.7333 3.50997C12.6178 4.07387 13.0966 5.10212 12.8511 6.29069C12.6434 7.2964 12.0164 8.02478 11.081 8.28439C12.1893 8.91842 12.5026 10.0555 12.2713 11.1754C11.9512 12.6106 10.774 13.4638 9.55571 13.5935C9.07032 13.6362 8.64946 13.597 8.19234 13.5026Z" fill="current"/>
</svg>
