<svg width="16" height="16" viewBox="0 0 16 16" fill="none"
  xmlns="http://www.w3.org/2000/svg">
  <path fill-rule="evenodd" clip-rule="evenodd" d="M8.5 15C10.9853 15 13 12.9853 13 10.5C13 8.01472 10.9853 6 8.5 6C6.01472 6 4 8.01472 4 10.5C4 12.9853 6.01472 15 8.5 15ZM8.81641 10.8662C8.89128 10.9443 8.92871 11.0501 8.92871 11.1836C8.92871 11.3122 8.88721 11.4147 8.8042 11.4912C8.72119 11.5661 8.60807 11.6035 8.46484 11.6035C8.29232 11.6035 8.15967 11.5522 8.06689 11.4497C7.97575 11.3455 7.93018 11.1966 7.93018 11.0029H7.22461C7.22461 11.3366 7.31576 11.6043 7.49805 11.8062C7.68197 12.0063 7.94076 12.1243 8.27441 12.1602V12.6436H8.6626V12.1577C8.96533 12.1268 9.20296 12.0251 9.37549 11.8525C9.54801 11.68 9.63428 11.4554 9.63428 11.1787C9.63428 11.0306 9.61149 10.9012 9.56592 10.7905C9.52035 10.6782 9.45443 10.5789 9.36816 10.4927C9.2819 10.4048 9.17611 10.3267 9.05078 10.2583C8.92546 10.1883 8.76514 10.1143 8.56982 10.0361C8.37614 9.95801 8.24349 9.88151 8.17188 9.80664C8.10026 9.73177 8.06445 9.63249 8.06445 9.50879C8.06445 9.37533 8.10107 9.27116 8.17432 9.19629C8.24756 9.11979 8.35091 9.08154 8.48438 9.08154C8.61947 9.08154 8.72689 9.13037 8.80664 9.22803C8.88802 9.32406 8.92871 9.46973 8.92871 9.66504H9.63428C9.63428 9.34766 9.5529 9.08968 9.39014 8.89111C9.22738 8.69092 9.00195 8.57048 8.71387 8.52979V8H8.32324V8.52246C8.0319 8.55176 7.79834 8.6543 7.62256 8.83008C7.44678 9.00586 7.35889 9.23128 7.35889 9.50635C7.35889 9.66585 7.38411 9.80339 7.43457 9.91895C7.48665 10.0345 7.55827 10.1354 7.64941 10.2217C7.74219 10.3063 7.85286 10.382 7.98145 10.4487C8.11003 10.5138 8.26302 10.5798 8.44043 10.6465C8.61784 10.7132 8.74316 10.7865 8.81641 10.8662Z" fill="current"/>
  <path fill-rule="evenodd" clip-rule="evenodd" d="M7.96072 5.0261C7.98659 4.8545 8 4.67882 8 4.5C8 2.567 6.433 1 4.5 1C2.567 1 1 2.567 1 4.5C1 6.14119 2.12961 7.51855 3.65375 7.897C4.50145 6.32205 6.09448 5.20772 7.96072 5.0261Z" fill="current"/>
  <path fill-rule="evenodd" clip-rule="evenodd" d="M13.5559 8.33247C14.4308 7.69622 14.9995 6.66453 14.9995 5.5C14.9995 3.567 13.4325 2 11.4995 2C9.72951 2 8.26638 3.31389 8.03223 5.01957C8.18627 5.00661 8.34213 5 8.49953 5C10.7674 5 12.7147 6.37265 13.5559 8.33247Z" fill="current"/>
</svg>
