<svg width="16" height="16" viewBox="0 0 16 16" fill="none"
  xmlns="http://www.w3.org/2000/svg">
  <path fill-rule="evenodd" clip-rule="evenodd" d="M12.2596 9.61248L15.75 6.26654C15.9167 6.10271 16 5.95148 16 5.81285C16 5.57971 15.8205 5.43478 15.4615 5.37807L10.6346 4.68809L8.47116 0.387524C8.34936 0.129175 8.19231 0 8 0C7.80769 0 7.65064 0.129175 7.52885 0.387524L5.36538 4.68809L0.538462 5.37807C0.179487 5.43478 0 5.57971 0 5.81285C0 5.94518 0.0801282 6.09641 0.240385 6.26654L3.74038 9.61248L2.91346 14.3384C2.90064 14.4266 2.89423 14.4896 2.89423 14.5274C2.89423 14.6597 2.92788 14.7716 2.99519 14.8629C3.0625 14.9543 3.16346 15 3.29808 15C3.41346 15 3.54167 14.9622 3.68269 14.8866L8 12.656L12.3173 14.8866C12.4519 14.9622 12.5801 15 12.7019 15C12.9647 15 13.0962 14.8425 13.0962 14.5274C13.0962 14.4455 13.0929 14.3825 13.0865 14.3384L12.2596 9.61248ZM11.4916 12.9592L10.8237 9.14196L13.6197 6.46168L9.7565 5.90946L8 2.41786L6.2435 5.90946L2.37484 6.46246L5.17651 9.1408L4.50838 12.9592L8 11.1552L11.4916 12.9592ZM3.05264 13.7115C3.04951 13.713 3.04951 13.7132 3.05264 13.7115V13.7115ZM0.727252 6.69892C0.727095 6.6988 0.730418 6.6979 0.737692 6.69657C0.731046 6.69837 0.727408 6.69904 0.727252 6.69892ZM8.73488 0.956089C8.73678 0.95247 8.73652 0.952601 8.73488 0.956089V0.956089ZM7.26537 0.956614C7.26373 0.953125 7.26346 0.952993 7.26537 0.956614V0.956614ZM15.2727 6.69892C15.2726 6.69904 15.269 6.69837 15.2623 6.69657C15.2696 6.6979 15.2729 6.6988 15.2727 6.69892Z" fill="current"/>
</svg>
