<svg width="16" height="16" viewBox="0 0 16 16" fill="none"
  xmlns="http://www.w3.org/2000/svg">
  <path d="M1.92722 11.6054L7.86802 5.43262L8.64362 6.39222L2.70282 12.565L6.25282 12.677L6.18082 13.9962L1.22362 13.8362C0.886019 13.8038 0.638419 13.5038 0.670819 13.1662C0.671219 13.163 0.671619 13.1598 0.672019 13.1562L0.968019 7.55102L2.13522 7.59102L1.92722 11.6054Z" fill="current"/>
  <path d="M14.0808 4.49792L8.13205 10.6627L7.35645 9.70312L13.2972 3.53032L9.74725 3.41832L9.81925 2.09912L14.7764 2.25912C15.114 2.29152 15.3616 2.59152 15.3292 2.92912C15.3288 2.93232 15.3284 2.93552 15.328 2.93912L15.032 8.54432L13.8648 8.50432L14.0808 4.49792Z" fill="current"/>
</svg>
