<svg width="16" height="16" viewBox="0 0 16 16" fill="none"
  xmlns="http://www.w3.org/2000/svg">
  <path d="M1 10H4V14H1V10Z" fill="current"/>
  <path d="M5 8H8V14H5V8Z" fill="current"/>
  <path d="M9 9H12V14H9V9Z" fill="current"/>
  <path d="M13 7H16V14H13V7Z" fill="current"/>
  <path d="M15.8438 2.16145C15.7318 2.04825 15.5762 1.98985 15.4174 2.00145L12.9202 2.18545C12.619 2.21425 12.3982 2.48185 12.427 2.78305C12.455 3.07465 12.7074 3.29265 13.0002 3.27785L14.0402 3.19785L10.385 6.87705L6.13135 3.25865C5.91575 3.07425 5.59415 3.08785 5.39455 3.28985L0.160953 8.55505C-0.0510469 8.76985 -0.0510469 9.11465 0.160953 9.32945C0.370953 9.54185 0.712953 9.54425 0.925753 9.33425C0.927353 9.33265 0.928953 9.33105 0.930553 9.32945L5.80975 4.42065L10.061 8.04385C10.277 8.22825 10.5982 8.21425 10.7978 8.01265L14.7922 3.98705L14.7122 4.99025C14.6862 5.29105 14.909 5.55545 15.2098 5.58145H15.2554C15.539 5.58025 15.7746 5.36185 15.797 5.07905L15.9986 2.59065C16.0106 2.43185 15.9542 2.27585 15.8438 2.16145Z" fill="current"/>
</svg>
