<svg width="16" height="16" viewBox="0 0 16 16" fill="none"
  xmlns="http://www.w3.org/2000/svg">
  <path d="M15.8428 4.16145C15.7308 4.04825 15.5752 3.98985 15.4164 4.00145L12.9192 4.18545C12.618 4.21425 12.3972 4.48185 12.426 4.78305C12.454 5.07465 12.7064 5.29265 12.9992 5.27785L14.0392 5.19785L10.384 8.87705L6.13038 5.25865C5.91478 5.07425 5.59318 5.08785 5.39358 5.28985L0.159977 10.5551C-0.0520234 10.7699 -0.0520234 11.1147 0.159977 11.3295C0.369977 11.5419 0.711977 11.5443 0.924777 11.3343C0.926377 11.3327 0.927977 11.3311 0.929577 11.3295L5.80878 6.42065L10.06 10.0439C10.276 10.2283 10.5972 10.2142 10.7968 10.0127L14.7912 5.98705L14.7112 6.99025C14.6852 7.29105 14.908 7.55545 15.2088 7.58145H15.2544C15.538 7.58025 15.7736 7.36185 15.796 7.07905L15.9976 4.59065C16.0096 4.43185 15.9532 4.27585 15.8428 4.16145Z" fill="current"/>
</svg>
