<svg width="16" height="16" viewBox="0 0 16 16" fill="none"
  xmlns="http://www.w3.org/2000/svg">
  <path fill-rule="evenodd" clip-rule="evenodd" d="M1.33301 8.66667C1.33301 4.96514 4.29815 2 7.99967 2C11.7012 2 14.6663 4.96514 14.6663 8.66667C14.6663 12.3682 11.7012 15.3333 7.99967 15.3333C4.29815 15.3333 1.33301 12.3682 1.33301 8.66667ZM13.333 8.66667C13.333 5.70152 10.9648 3.33333 7.99967 3.33333C5.03453 3.33333 2.66634 5.70152 2.66634 8.66667C2.66634 11.6318 5.03453 14 7.99967 14C10.9648 14 13.333 11.6318 13.333 8.66667Z" fill="current"/>
  <path d="M10 0V1.33333H6V0H10Z" fill="current"/>
  <path d="M8.66634 4.6665V9.99984H7.33301V4.6665H8.66634Z" fill="current"/>
  <path d="M13.1949 2.52881L14.1377 3.47162L12.7377 4.87162L11.7949 3.92881L13.1949 2.52881Z" fill="current"/>
</svg>
