<svg xmlns="http://www.w3.org/2000/svg" width="20" height="20" viewBox="0 0 20 20">
    <g fill="none" fill-rule="evenodd">
        <g fill="#8491A3" fill-rule="nonzero">
            <g>
                <g>
                    <path d="M11.413.587c-.792-.752-2.034-.752-2.826 0L.193 8.973l.947.947 1.527-1.527v8.274c0 1.104.895 2 2 2h10.666c1.105 0 2-.896 2-2V8.393L18.86 9.92l.947-.947L11.413.587zM8.667 17.333v-4.666h2.666v4.666H8.667zM16 16.667c0 .368-.298.666-.667.666h-2.666v-6H7.333v6H4.667c-.369 0-.667-.298-.667-.666V7.06l5.527-5.533c.125-.127.295-.198.473-.198s.348.071.473.198L16 7.06v9.607z" transform="translate(-20 -86) translate(20 86) translate(0 .833)"/>
                </g>
            </g>
        </g>
    </g>
</svg>
