<svg xmlns="http://www.w3.org/2000/svg" width="20" height="20" viewBox="0 0 20 20">
    <g fill="none" fill-rule="evenodd">
        <g fill="#8491A3" fill-rule="nonzero">
            <g>
                <g>
                    <path d="M17.857 2.857h-4.286V1.43c0-.79-.64-1.429-1.428-1.429H7.857C7.068 0 6.43.64 6.43 1.429v1.428H2.143C.959 2.857 0 3.817 0 5v12.857h20V5c0-1.183-.96-2.143-2.143-2.143zm-10-1.428h4.286v1.428H7.857V1.43zm10.714 15H1.43V8.57h1.428v2.858h4.286V8.57h5.714v2.858h4.286V8.57h1.428v7.858zM4.286 8.57h1.428V10H4.286V8.571zm10 0h1.428V10h-1.428V8.571zm2.857-1.428H1.429V5c0-.394.32-.714.714-.714h15.714c.395 0 .714.32.714.714v2.143h-1.428z" transform="translate(-20 -186) translate(20 186) translate(0 .833)"/>
                </g>
            </g>
        </g>
    </g>
</svg>
