<svg xmlns="http://www.w3.org/2000/svg" width="20" height="20" viewBox="0 0 20 20">
    <g fill="none" fill-rule="evenodd">
        <g fill="#8491A3" fill-rule="nonzero">
            <g transform="translate(-20 -666) translate(20 666)">
                <path d="M10 0C4.477 0 0 4.477 0 10s4.477 10 10 10 10-4.477 10-10c0-2.652-1.054-5.196-2.929-7.071C15.196 1.054 12.652 0 10 0zm0 18.571c-4.734 0-8.571-3.837-8.571-8.571S5.266 1.429 10 1.429 18.571 5.266 18.571 10c0 2.273-.903 4.453-2.51 6.06-1.608 1.608-3.788 2.511-6.061 2.511z"/>
                <path d="M7.857 10L9.286 10 9.286 15.714 10.714 15.714 10.714 8.571 7.857 8.571z"/>
                <circle cx="10" cy="5.714" r="1.429"/>
            </g>
        </g>
    </g>
</svg>
