<svg xmlns="http://www.w3.org/2000/svg" width="20" height="20" viewBox="0 0 20 20">
    <g fill="none" fill-rule="evenodd">
        <g fill="#8491A3" fill-rule="nonzero">
            <g>
                <g>
                    <path d="M19.333 18.667H.667C.298 18.667 0 18.368 0 18V.667C0 .298.298 0 .667 0h18.666c.369 0 .667.298.667.667V18c0 .368-.298.667-.667.667zm-18-1.334h17.334v-16H1.333v16z" transform="translate(-20 -616) translate(20 616) translate(0 .833)"/>
                    <path d="M7.333 14c-.114 0-.227-.03-.326-.087-.21-.118-.34-.34-.34-.58v-8c0-.24.128-.46.336-.579.209-.118.464-.116.67.006l6.667 4c.202.12.326.338.326.573 0 .236-.124.454-.326.574l-6.667 4c-.103.06-.22.093-.34.093zM8 6.513v5.64l4.707-2.82L8 6.513z" transform="translate(-20 -616) translate(20 616) translate(0 .833)"/>
                </g>
            </g>
        </g>
    </g>
</svg>
