<svg xmlns="http://www.w3.org/2000/svg" width="20" height="20" viewBox="0 0 20 20">
    <g fill="none" fill-rule="evenodd">
        <g fill="#8491A3" fill-rule="nonzero">
            <g>
                <path d="M16.154 10.77H3.846C1.722 10.77 0 12.49 0 14.614V20h1.538v-5.385c0-1.274 1.034-2.307 2.308-2.307h12.308c1.274 0 2.308 1.033 2.308 2.307V20H20v-5.385c0-2.124-1.722-3.846-3.846-3.846zM10 9.23c2.549 0 4.615-2.066 4.615-4.615C14.615 2.066 12.55 0 10 0 7.451 0 5.385 2.066 5.385 4.615c0 2.55 2.066 4.616 4.615 4.616zm0-7.692c1.7 0 3.077 1.378 3.077 3.077 0 1.7-1.378 3.077-3.077 3.077-1.7 0-3.077-1.377-3.077-3.077 0-1.699 1.378-3.077 3.077-3.077z" transform="translate(-20 -136) translate(20 136)"/>
            </g>
        </g>
    </g>
</svg>
