<svg xmlns="http://www.w3.org/2000/svg" width="20" height="20" viewBox="0 0 20 20">
    <g fill="none" fill-rule="evenodd">
        <g fill="#8491A3" fill-rule="nonzero">
            <g>
                <g>
                    <path d="M5.833 5.556c0-1.292-.933-2.375-2.187-2.681V.695c0-.39-.321-.695-.73-.695-.408 0-.728.306-.728.694v2.181C.933 3.181 0 4.264 0 5.555c0 1.292.933 2.376 2.188 2.681v7.736c0 .39.32.695.729.695.408 0 .729-.306.729-.695V8.236c1.254-.305 2.187-1.389 2.187-2.68zM2.917 6.944c-.802 0-1.459-.625-1.459-1.388 0-.764.657-1.39 1.459-1.39s1.458.626 1.458 1.39c0 .763-.656 1.388-1.458 1.388zM9.48 9.82V.693C9.48.306 9.157 0 8.75 0s-.73.306-.73.694V9.82c-1.253.306-2.187 1.39-2.187 2.681 0 1.292.934 2.375 2.188 2.68v.792c0 .39.32.695.729.695.408 0 .73-.306.73-.695v-.791c1.253-.306 2.187-1.39 2.187-2.681 0-1.292-.934-2.375-2.188-2.68zm-.73 4.069c-.802 0-1.458-.625-1.458-1.389s.656-1.389 1.458-1.389c.802 0 1.458.625 1.458 1.389s-.656 1.389-1.458 1.389zM16.667 4.167c0-1.292-.934-2.375-2.188-2.68V.693c0-.388-.32-.694-.729-.694-.408 0-.73.306-.73.694v.792c-1.253.306-2.187 1.389-2.187 2.68 0 1.292.934 2.376 2.188 2.681v9.125c0 .39.32.695.729.695.408 0 .73-.306.73-.695V6.847c1.253-.305 2.187-1.389 2.187-2.68zM13.75 5.556c-.802 0-1.458-.625-1.458-1.39 0-.763.656-1.388 1.458-1.388.802 0 1.458.625 1.458 1.389s-.656 1.389-1.458 1.389z" transform="translate(-20 -566) translate(20 566) translate(1.667 1.667)"/>
                </g>
            </g>
        </g>
    </g>
</svg>
