<?xml version="1.0" encoding="iso-8859-1"?>
<!-- Generator: Adobe Illustrator 22.0.1, SVG Export Plug-In . SVG Version: 6.00 Build 0)  -->
<svg version="1.1" id="Layer_1" xmlns="http://www.w3.org/2000/svg" xmlns:xlink="http://www.w3.org/1999/xlink" x="0px" y="0px"
	 viewBox="0 0 438.53 438.53" style="enable-background:new 0 0 438.53 438.53;" xml:space="preserve">
<g id="_x31_03">
	<g>
		<polygon style="fill:#F4F4F4;" points="171.174,178.294 171.174,191.502 171.174,204.71 185.398,204.71 199.622,204.71 
			199.622,191.502 199.622,178.294 185.398,178.294 		"/>
		<polygon style="fill:#F4F4F4;" points="171.174,233.835 171.174,247.043 171.174,260.251 185.398,260.251 199.622,260.251 
			199.622,247.043 199.622,233.835 185.398,233.835 		"/>
		<path style="fill:#F4F4F4;" d="M407.603,110.087c-19.45-33.321-45.833-59.704-79.155-79.153
			c-33.328-19.448-69.711-29.17-109.176-29.17c-39.461,0-75.854,9.722-109.177,29.17C76.771,50.38,50.388,76.763,30.938,110.087
			c-19.451,33.326-29.173,69.72-29.173,109.178c0,39.46,9.725,75.847,29.17,109.175c19.449,33.321,45.832,59.704,79.156,79.155
			c33.326,19.447,69.717,29.17,109.177,29.17s75.854-9.723,109.179-29.17c33.322-19.444,59.704-45.834,79.152-79.155
			c19.445-33.325,29.166-69.718,29.166-109.175C436.766,179.803,427.044,143.409,407.603,110.087z M112.923,164.07v14.224h-9.483
			h-9.483v40.979v40.979h9.483h9.483v14.224V288.7H78.718H44.513v-14.224v-14.224h9.821h9.821v-40.979v-40.979h-9.821h-9.821V164.07
			v-14.224h34.205h34.205C112.923,149.846,112.923,164.07,112.923,164.07z M210.65,285.23c-6.524,3.294-8.745,3.448-49.827,3.459
			c-30.623,0.008-38.528-0.167-38.793-0.857c-0.183-0.477-0.25-6.801-0.148-14.055l0.184-13.188l9.652-0.188l9.652-0.188v-40.942
			v-40.942l-9.652-0.188l-9.652-0.188l0.186-13.885l0.186-13.885l37.067-0.197c41.625-0.221,41.739-0.211,52.167,4.637
			c17.286,8.036,24.297,29.764,15.323,47.487c-2.164,4.273-8.332,10.805-13.222,13.999l-4.015,2.623l2.745,1.902
			c3.742,2.593,10.466,9.89,13.642,14.804C237.075,252.348,229.859,275.532,210.65,285.23z M394.017,164.062v14.232h-9.821h-9.821
			v40.979v40.979h9.821h9.821v14.224V288.7h-24.723h-24.723l-0.032-39.455l-0.032-39.455l-2.355,6.773
			c-19.036,54.757-25.216,71.818-26.071,71.983c-0.721,0.139-4.491-9.922-14.468-38.607c-7.421-21.337-13.669-39.008-13.885-39.269
			c-0.215-0.261-0.311,17.189-0.212,38.777l0.18,39.252h-24.733H238.23v-14.224l0,0v-14.224h9.821h9.821v-40.979v-40.979h-9.821
			h-9.821V164.07v-14.224h28.035H294.3l3.376,9.652c1.857,5.309,6.682,19.16,10.723,30.782c4.04,11.621,7.467,21.009,7.614,20.861
			s5.233-13.923,11.301-30.612l11.032-30.344l27.835-0.177l27.835-0.177L394.017,164.062L394.017,164.062z"/>
		<polygon style="fill:#4E74B5;" points="44.513,149.846 44.513,164.07 44.513,178.294 54.334,178.294 64.155,178.294 
			64.155,219.273 64.155,260.251 54.334,260.251 44.513,260.251 44.513,274.475 44.513,288.699 78.718,288.699 112.923,288.699 
			112.923,274.475 112.923,260.251 103.441,260.251 93.958,260.251 93.958,219.273 93.958,178.294 103.441,178.294 112.923,178.294 
			112.923,164.07 112.923,149.846 78.718,149.846 		"/>
		<path style="fill:#4E74B5;" d="M338.348,150.184l-11.032,30.344c-6.068,16.689-11.153,30.465-11.301,30.612
			s-3.574-9.24-7.614-20.861s-8.866-25.473-10.723-30.782l-3.376-9.652h-28.035H238.23v14.224v14.224h9.821h9.821v40.979v40.979
			h-9.821h-9.821v14.224l0,0v14.224h24.734h24.733l-0.18-39.252c-0.099-21.589-0.004-39.038,0.212-38.777
			c0.215,0.261,6.464,17.932,13.885,39.269c9.977,28.684,13.747,38.746,14.468,38.607c0.856-0.165,7.035-17.226,26.071-71.983
			l2.355-6.773l0.032,39.455l0.032,39.455h24.723h24.723v-14.224v-14.224h-9.821h-9.821v-40.979v-40.979h9.821h9.821v-14.232V149.83
			l-27.835,0.177L338.348,150.184z"/>
		<path style="fill:#4E74B5;" d="M212.505,220.636l-2.745-1.902l4.015-2.623c4.89-3.195,11.058-9.726,13.222-13.999
			c8.975-17.723,1.964-39.451-15.323-47.487c-10.428-4.848-10.543-4.858-52.167-4.637l-37.067,0.197l-0.186,13.885l-0.186,13.885
			l9.652,0.188l9.652,0.188v40.942v40.942l-9.652,0.188l-9.652,0.188l-0.184,13.188c-0.102,7.253-0.035,13.578,0.148,14.055
			c0.265,0.69,8.17,0.865,38.793,0.857c41.081-0.011,43.302-0.165,49.827-3.459c19.209-9.698,26.425-32.882,15.497-49.79
			C222.971,230.526,216.247,223.23,212.505,220.636z M199.622,247.043v13.208h-14.224h-14.224v-13.208v-13.208h14.224h14.224
			V247.043z M199.622,191.502v13.208h-14.224h-14.224v-13.208v-13.208h14.224h14.224V191.502z"/>
	</g>
</g>
</svg>
