<?xml version="1.0" encoding="iso-8859-1"?>
<!-- Generator: Adobe Illustrator 22.0.1, SVG Export Plug-In . SVG Version: 6.00 Build 0)  -->
<svg version="1.1" id="Layer_1" xmlns="http://www.w3.org/2000/svg" xmlns:xlink="http://www.w3.org/1999/xlink" x="0px" y="0px"
	 viewBox="0 0 438.53 438.53" style="enable-background:new 0 0 438.53 438.53;" xml:space="preserve">
<g id="_x31_04">
	<g>
		<path style="fill:#F4F4F4;" d="M238.774,197.346c-25.333,0-52.131,5.462-52.131,35.308c0,15.16,7.877,25.412,21.296,25.412
			c9.856,0,18.723-6.056,24.304-15.912c6.848-12.152,6.531-23.552,6.531-37.208L238.774,197.346L238.774,197.346z"/>
		<path style="fill:#F4F4F4;" d="M407.603,110.087c-19.45-33.321-45.833-59.704-79.155-79.153
			c-33.328-19.448-69.711-29.17-109.176-29.17c-39.461,0-75.854,9.722-109.177,29.17C76.771,50.38,50.388,76.763,30.938,110.087
			c-19.451,33.326-29.173,69.72-29.173,109.178c0,39.46,9.725,75.847,29.17,109.175c19.449,33.322,45.832,59.704,79.156,79.155
			c33.326,19.447,69.717,29.17,109.177,29.17s75.854-9.723,109.179-29.17c33.322-19.444,59.704-45.834,79.152-79.155
			c19.445-33.325,29.166-69.718,29.166-109.175C436.766,179.803,427.044,143.409,407.603,110.087z M234.499,139.317
			c-4.275-6.452-12.469-9.104-19.673-9.104c-13.379,0-25.254,6.848-28.183,21.019c-0.594,3.167-2.89,6.294-6.096,6.452
			l-33.962-3.681c-2.85-0.633-6.056-2.929-5.225-7.323c7.798-41.206,45.046-53.675,78.375-53.675
			c17.06,0,39.346,4.552,52.804,17.456c17.06,15.952,15.438,37.208,15.438,60.325v54.625c0,16.427,6.808,23.631,13.221,32.498
			c2.256,3.206,2.731,6.967-0.119,9.302c-7.125,6.017-19.871,17.06-26.877,23.275l-0.079-0.079c-2.335,2.098-5.66,2.217-8.273,0.831
			c-11.638-9.698-13.735-14.171-20.108-23.354c-19.237,19.594-32.854,25.492-57.792,25.492c-29.529,0-52.487-18.248-52.487-54.664
			c0-28.46,15.437-47.816,37.406-57.277c19-8.352,45.56-9.856,65.906-12.152v-4.552
			C238.774,156.377,239.447,146.521,234.499,139.317z M321.739,314.138c-27.787,20.504-68.044,31.39-102.719,31.39
			c-48.608,0-92.387-17.971-125.518-47.856c-2.573-2.375-0.277-5.581,2.85-3.76c35.744,20.821,79.919,33.329,125.558,33.329
			c30.796,0,64.639-6.373,95.791-19.594C322.412,305.628,326.331,310.734,321.739,314.138z M329.458,334.247
			c-2.296,1.9-4.473,0.871-3.444-1.623c3.325-8.392,10.846-27.154,7.283-31.706c-3.563-4.552-23.473-2.138-32.419-1.069
			c-2.731,0.317-3.167-2.058-0.712-3.76c15.912-11.162,41.958-7.956,45.006-4.196C348.22,295.653,344.341,321.778,329.458,334.247z"
			/>
		<path d="M238.774,169.281c-20.346,2.296-46.906,3.8-65.906,12.152c-21.969,9.46-37.406,28.817-37.406,57.277
			c0,36.417,22.958,54.664,52.487,54.664c24.937,0,38.554-5.898,57.792-25.492c6.373,9.183,8.471,13.656,20.108,23.354
			c2.613,1.385,5.938,1.267,8.273-0.831l0.079,0.079c7.006-6.215,19.752-17.258,26.877-23.275c2.85-2.335,2.375-6.096,0.119-9.302
			c-6.412-8.867-13.221-16.071-13.221-32.498v-54.625c0-23.117,1.623-44.373-15.438-60.325
			c-13.458-12.904-35.744-17.456-52.804-17.456c-33.329,0-70.577,12.469-78.375,53.675c-0.831,4.394,2.375,6.69,5.225,7.323
			l33.962,3.681c3.206-0.158,5.502-3.285,6.096-6.452c2.929-14.171,14.804-21.019,28.183-21.019c7.204,0,15.398,2.652,19.673,9.104
			c4.948,7.204,4.275,17.06,4.275,25.412L238.774,169.281L238.774,169.281z M232.242,242.154
			c-5.581,9.856-14.448,15.912-24.304,15.912c-13.419,0-21.296-10.252-21.296-25.412c0-29.846,26.798-35.308,52.131-35.308v7.6
			C238.774,218.602,239.09,230.002,232.242,242.154z"/>
		<path style="fill:#F89820;" d="M317.701,307.647c-31.152,13.221-64.996,19.594-95.791,19.594
			c-45.639,0-89.814-12.508-125.558-33.329c-3.127-1.821-5.423,1.385-2.85,3.76c33.131,29.885,76.91,47.856,125.518,47.856
			c34.675,0,74.931-10.885,102.719-31.39C326.331,310.734,322.412,305.628,317.701,307.647z"/>
		<path style="fill:#F89820;" d="M300.166,296.088c-2.454,1.702-2.019,4.077,0.712,3.76c8.946-1.069,28.856-3.483,32.419,1.069
			c3.562,4.552-3.958,23.315-7.283,31.706c-1.029,2.494,1.148,3.523,3.444,1.623c14.883-12.469,18.762-38.594,15.715-42.354
			C342.124,288.132,316.078,284.926,300.166,296.088z"/>
	</g>
</g>
</svg>
