<?xml version="1.0" encoding="iso-8859-1"?>
<!-- Generator: Adobe Illustrator 22.0.1, SVG Export Plug-In . SVG Version: 6.00 Build 0)  -->
<svg version="1.1" id="Layer_1" xmlns="http://www.w3.org/2000/svg" xmlns:xlink="http://www.w3.org/1999/xlink" x="0px" y="0px"
	 viewBox="0 0 438.53 438.53" style="enable-background:new 0 0 438.53 438.53;" xml:space="preserve">
<g id="_x31_05">
	<g>
		<path style="fill:#F4F4F4;" d="M286.531,223.28c-3.186,0.035-6.373,0.016-9.56,0.017c-6.514,0.14-13.034,0.196-19.508,1.061
			c-3.684,0.492-7.322,1.185-10.708,2.807c-2.99,1.432-5.362,3.486-6.222,6.825c-1.04,4.04-0.414,7.846,2.064,11.239
			c2.285,3.13,5.55,4.791,9.235,5.605c6.261,1.384,12.514,1.06,18.628-0.747c8.108-2.396,13.596-7.577,16.043-15.802
			c0.994-3.342,0.809-6.764,0.853-10.178C287.364,223.45,287.19,223.272,286.531,223.28z"/>
		<path style="fill:#F4F4F4;" d="M101.685,194.562c-9.044-4.291-18.22-3.971-27.086,0.566c-7.171,3.669-11.421,9.55-12.068,17.77
			c-0.114,1.448-0.146,1.446,1.254,1.446c8.069,0,16.138,0,24.207,0c8.157,0,16.313,0,24.47,0c0.205,0,0.411-0.015,0.614,0.003
			c0.383,0.034,0.514-0.13,0.497-0.507c-0.043-0.934-0.068-1.865-0.196-2.796C112.34,203.516,108.547,197.818,101.685,194.562z"/>
		<path style="fill:#F4F4F4;" d="M197.345,200.351c-5.366-5.708-12.128-8.093-19.832-8.104c-0.731,0-1.462-0.016-2.192,0.006
			c-0.466,0.014-0.932,0.078-1.396,0.132c-9.777,1.131-16.784,6.155-20.932,15.065c-2.922,6.276-3.591,12.904-2.552,19.698
			c0.86,5.624,2.972,10.742,6.749,15.066c4.699,5.38,10.718,8.059,17.78,8.713c11.391,1.055,21.957-4.841,26.841-15.152
			c3.173-6.698,3.805-13.734,2.535-20.966C203.385,209.342,201.178,204.429,197.345,200.351z"/>
		<path style="fill:#F4F4F4;" d="M407.603,110.087c-19.45-33.321-45.833-59.704-79.155-79.153
			c-33.328-19.448-69.711-29.17-109.176-29.17c-39.461,0-75.854,9.722-109.177,29.17C76.771,50.38,50.388,76.763,30.938,110.087
			c-19.451,33.326-29.173,69.72-29.173,109.178c0,39.46,9.725,75.847,29.17,109.175c19.449,33.321,45.832,59.704,79.156,79.155
			c33.326,19.447,69.717,29.17,109.177,29.17s75.854-9.723,109.179-29.17c33.322-19.444,59.704-45.834,79.152-79.155
			c19.445-33.325,29.166-69.718,29.166-109.175C436.766,179.803,427.044,143.409,407.603,110.087z M394.474,184.034
			c-2.625,5.257-5.315,10.482-8.01,15.704c-0.094,0.182-0.196,0.36-0.286,0.543c-2.74,5.593-5.629,11.111-8.444,16.666
			c-3.158,6.233-6.336,12.456-9.512,18.68c-3.109,6.094-6.219,12.188-9.321,18.285c-3.155,6.202-6.314,12.401-9.474,18.6
			c-2.708,5.313-5.447,10.611-8.13,15.937c-0.184,0.364-0.337,0.749-0.665,1.019c-6.611,0-13.222,0-19.833,0
			c0.712-1.402,1.405-2.814,2.138-4.205c4.302-8.164,8.606-16.327,12.933-24.478c0.309-0.581,0.307-1.011-0.004-1.593
			c-10.592-19.837-21.164-39.684-31.744-59.527c-0.148-0.277-0.23-0.605-0.526-0.787c0.29,1.191,0.606,2.376,0.865,3.573
			c0.602,2.785,0.771,5.61,0.768,8.454c-0.011,12.051-0.002,24.103-0.006,36.154c-0.001,4.185,0.222,8.359,0.623,12.523
			c0.063,0.649-0.128,0.772-0.735,0.769c-4.973-0.023-9.945-0.027-14.918,0.004c-0.662,0.004-0.808-0.191-0.846-0.826
			c-0.207-3.407-0.36-6.815-0.35-10.393c-0.746,0.896-1.354,1.701-2.036,2.434c-4.641,4.986-10.434,8.048-16.924,9.789
			c-9.368,2.513-18.818,2.819-28.251,0.358c-6.075-1.585-11.408-4.481-15.38-9.508c-2.997-3.792-4.438-8.172-4.8-12.947l0,0
			c-0.322-0.779-0.075-1.594-0.154-2.389c-0.037-0.366,0.113-0.752-0.116-1.099c-2.068,6.401-5.402,12.022-10.335,16.635
			c-5.894,5.511-12.916,8.725-20.833,10.029c-7.789,1.283-15.499,0.877-23.062-1.413c-6.77-2.049-12.654-5.526-17.228-11.245
			c-0.055,1.157-0.094,2.214-0.159,3.269c-0.132,2.129-0.299,4.256-0.409,6.386c-0.035,0.684-0.247,0.925-0.979,0.92
			c-5.233-0.034-10.467-0.034-15.7,0c-0.73,0.005-0.925-0.164-0.886-0.908c0.575-10.838,0.317-21.687,0.37-32.532
			c0.001-0.262-0.02-0.525-0.031-0.787c-22.986,0-45.972,0.005-68.958-0.02c-0.829-0.001-1.065,0.165-1.049,1.036
			c0.196,10.508,7.152,19.768,17.289,22.805c7.414,2.221,14.781,2.076,21.934-1.038c4.793-2.086,8.326-5.55,10.379-10.418
			c0.167-0.397,0.369-0.514,0.773-0.513c5.703,0.01,11.405,0.015,17.108-0.005c0.615-0.002,0.64,0.199,0.531,0.724
			c-1.194,5.762-4.138,10.5-8.462,14.407c-5.232,4.727-11.524,7.301-18.347,8.551c-11.106,2.033-22.176,1.753-33.075-1.347
			c-7.428-2.112-13.83-5.922-18.614-12.139c-3.776-4.907-5.83-10.536-6.869-16.581c-0.411-2.394-0.613-4.81-0.739-7.234
			l-0.073,0.003l-0.072-0.009c0-0.351,0-0.702,0-1.053c0-1.112,0-2.223,0-3.335c0.047-0.018,0.095-0.021,0.144-0.011
			c0.185-5.878,1.058-11.628,3.262-17.117c3.791-9.442,10.621-15.756,20.042-19.378c5.026-1.932,10.255-2.93,15.607-3.354
			c5.232-0.414,10.453-0.382,15.655,0.369c8.516,1.23,16.283,4.169,22.606,10.212c6.104,5.834,9.469,13.071,10.625,21.385
			c0.072,0.521,0.133,1.043,0.199,1.564c0.27-0.302,0.127-0.667,0.128-0.998c0.008-20.779,0.007-41.557,0.008-62.336
			c0-0.35,0.013-0.701,0.02-1.051c-0.004-0.064-0.009-0.128-0.013-0.192c5.967,0,11.935,0,17.902,0
			c-0.01,0.07-0.02,0.14-0.029,0.209c0.004,14.241,0.008,28.482,0.013,42.723c0,0.317,0,0.634,0,1.101
			c0.656-0.788,1.193-1.494,1.793-2.143c3.552-3.845,7.91-6.479,12.83-8.106c10.825-3.581,21.788-3.986,32.627-0.306
			c12.507,4.246,20.499,13.049,24.338,25.625c1.922,6.294,2.255,12.746,1.494,19.267c-0.044,0.377-0.062,0.757-0.092,1.136
			c0.057-0.015,0.114-0.015,0.17,0c2.44-5.789,6.969-9.401,12.524-11.89c5.082-2.277,10.475-3.395,15.972-4.093
			c8.326-1.057,16.694-0.768,25.052-0.81c3.246-0.016,6.492-0.019,9.738,0.011c0.655,0.006,0.918-0.124,0.901-0.854
			c-0.061-2.567,0.134-5.15-0.672-7.651c-1.596-4.953-5.149-7.966-9.834-9.778c-4.957-1.916-10.12-2.236-15.361-1.696
			c-2.867,0.295-5.646,0.937-8.231,2.254c-3.753,1.912-6.409,4.75-7.35,8.961c-0.135,0.606-0.502,0.449-0.839,0.45
			c-5.235,0.007-10.469,0.005-15.704,0.005c-0.409,0-0.823-0.038-1.227,0.008c-0.695,0.08-0.89-0.136-0.807-0.865
			c0.557-4.905,2.707-9.021,6.146-12.491c4.131-4.169,9.261-6.535,14.828-8.081c4.497-1.249,9.098-1.84,13.746-2.081
			c4.972-0.258,9.938-0.171,14.877,0.516c6.919,0.964,13.469,2.896,19.012,7.408c1.275,1.038,2.382,2.241,3.473,3.462
			c0.049-0.054,0.097-0.108,0.145-0.161c-1.39-2.659-2.78-5.319-4.226-8.084c0.375-0.019,0.677-0.047,0.979-0.047
			c6.288-0.003,12.577,0.012,18.865-0.021c0.724-0.004,1.073,0.239,1.385,0.865c9.647,19.368,19.312,38.728,28.974,58.088
			c0.141,0.283,0.29,0.562,0.441,0.854c0.298-0.232,0.376-0.557,0.517-0.84c9.647-19.366,19.295-38.731,28.924-58.106
			c0.314-0.632,0.668-0.865,1.387-0.861c5.645,0.033,11.29,0.015,16.935,0.028c0.315,0.001,0.709-0.192,0.944,0.217
			C394.7,183.558,394.592,183.797,394.474,184.034z"/>
		<path style="fill:#85B717;" d="M393.741,183.067c-5.645-0.013-11.29,0.005-16.935-0.028c-0.719-0.004-1.073,0.229-1.387,0.861
			c-9.629,19.375-19.276,38.741-28.924,58.106c-0.141,0.283-0.219,0.607-0.517,0.84c-0.151-0.292-0.3-0.571-0.441-0.854
			c-9.663-19.361-19.327-38.72-28.974-58.088c-0.312-0.626-0.662-0.869-1.385-0.865c-6.288,0.033-12.577,0.018-18.865,0.021
			c-0.302,0-0.604,0.028-0.979,0.047c1.446,2.766,2.836,5.425,4.226,8.084c0.221,0.242,0.39,0.506,0.362,0.853
			c1.408,2.18,2.569,4.494,3.676,6.837c0.295,0.181,0.378,0.51,0.526,0.787c10.579,19.844,21.152,39.691,31.744,59.527
			c0.311,0.582,0.313,1.011,0.004,1.593c-4.327,8.151-8.632,16.314-12.933,24.478c-0.733,1.391-1.426,2.803-2.138,4.205
			c6.611,0,13.222,0,19.833,0c0.328-0.27,0.482-0.655,0.665-1.019c2.683-5.326,5.422-10.624,8.13-15.937
			c3.16-6.199,6.319-12.399,9.474-18.6c3.102-6.098,6.211-12.191,9.321-18.285c3.176-6.224,6.354-12.447,9.512-18.68
			c2.815-5.555,5.704-11.073,8.444-16.666c0.09-0.184,0.192-0.362,0.286-0.543c2.695-5.222,5.385-10.446,8.01-15.704
			c0.118-0.237,0.226-0.476,0.211-0.751C394.451,182.875,394.056,183.068,393.741,183.067z"/>
		<path style="fill:#A9CAEF;" d="M150.028,149.06c-5.967,0-11.935,0-17.902,0c0.004,0.064,0.009,0.128,0.013,0.192
			c5.953,0.006,11.907,0.011,17.86,0.017C150.008,149.2,150.018,149.13,150.028,149.06z"/>
		<path style="fill:#F7C6C7;" d="M43.987,219.956c-0.049-0.011-0.097-0.007-0.144,0.011c0,1.112,0,2.223,0,3.335
			c0.049,0.006,0.098,0.007,0.147,0.005C43.989,222.19,43.988,221.073,43.987,219.956z"/>
		<path style="fill:#FADFDF;" d="M43.843,223.302c0,0.351,0,0.702,0,1.053l0.072,0.009l0.073-0.003
			c0.001-0.348,0.002-0.696,0.003-1.043C43.946,223.327,43.898,223.325,43.843,223.302z"/>
		<path style="fill:#FADFDF;" d="M43.99,223.307c-0.049,0.003-0.098,0.001-0.147-0.005c0.055,0.024,0.103,0.026,0.147,0.015
			C43.99,223.313,43.99,223.31,43.99,223.307z"/>
		<path style="fill:#FCFAEE;" d="M299.643,191.543c-0.022-0.119-0.045-0.238-0.082-0.353c-0.048,0.054-0.097,0.108-0.145,0.161l0,0
			C299.515,191.398,299.584,191.467,299.643,191.543z"/>
		<path style="fill:#FCFAEE;" d="M299.923,192.043c0.027-0.347-0.141-0.611-0.362-0.853c0.037,0.115,0.06,0.234,0.082,0.353
			C299.759,191.693,299.825,191.88,299.923,192.043z"/>
		<path style="fill:#D9D6BC;" d="M223.029,228.714c0.029-0.057,0.073-0.108,0.142-0.148c-0.057-0.015-0.114-0.015-0.17,0l0,0
			C223.018,228.614,223.018,228.664,223.029,228.714z"/>
		<path style="fill:#E5E6DC;" d="M221.59,235.507c-0.063,0.103-0.138,0.198-0.253,0.27l0,0c0.228,0.346,0.079,0.732,0.116,1.099
			c0.079,0.794-0.167,1.61,0.154,2.389l0,0l0,0C221.542,238.012,221.503,236.759,221.59,235.507z"/>
		<path style="fill:#0064D1;" d="M221.627,234.971c0.224-1.945,0.623-3.851,1.252-5.707c-0.022-0.244-0.047-0.488,0.122-0.698l0,0
			c0.03-0.379,0.048-0.759,0.092-1.136c0.761-6.52,0.427-12.972-1.494-19.267c-3.839-12.575-11.832-21.378-24.338-25.625
			c-10.839-3.68-21.802-3.274-32.627,0.306c-4.919,1.627-9.278,4.261-12.83,8.106c-0.599,0.649-1.136,1.355-1.793,2.143
			c0-0.467,0-0.784,0-1.101c-0.004-14.241-0.008-28.482-0.013-42.723c-0.346,0.294-0.769,0.247-1.172,0.248
			c-5.173,0.007-10.347,0.007-15.52,0c-0.405-0.001-0.827,0.036-1.167-0.265c-0.007,0.35-0.02,0.701-0.02,1.051
			c-0.001,20.779,0,41.557-0.008,62.336c0,0.331,0.142,0.696-0.128,0.998c-0.114,0.209,0.096,0.349,0.114,0.53l0,0
			c-0.002,0.354-0.003,0.709-0.005,1.064l0,0c-0.002,3.633-0.004,7.266-0.005,10.899c0.011,0.263,0.032,0.525,0.031,0.787
			c-0.053,10.845,0.205,21.694-0.37,32.532c-0.039,0.743,0.155,0.912,0.886,0.908c5.233-0.033,10.467-0.034,15.7,0
			c0.732,0.005,0.944-0.237,0.979-0.92c0.11-2.13,0.276-4.257,0.409-6.386c0.066-1.055,0.104-2.112,0.159-3.269
			c4.573,5.719,10.458,9.195,17.228,11.245c7.563,2.289,15.273,2.696,23.062,1.413c7.918-1.304,14.94-4.519,20.833-10.029
			c4.933-4.613,8.267-10.234,10.335-16.635l0,0C221.41,235.5,221.414,235.198,221.627,234.971z M201.811,235.776
			c-4.884,10.311-15.451,16.206-26.841,15.152c-7.062-0.654-13.081-3.333-17.78-8.713c-3.777-4.324-5.889-9.442-6.749-15.066
			c-1.039-6.795-0.37-13.422,2.552-19.698c4.148-8.91,11.155-13.934,20.932-15.065c0.464-0.054,0.93-0.118,1.396-0.132
			c0.73-0.022,1.461-0.006,2.192-0.006c7.703,0.011,14.466,2.396,19.832,8.104c3.834,4.078,6.041,8.991,7.001,14.459
			C205.615,222.042,204.984,229.078,201.811,235.776z"/>
		<path style="fill:#0064D1;" d="M133.306,149.518c5.173,0.007,10.347,0.006,15.52,0c0.404,0,0.827,0.046,1.172-0.248
			c-5.953-0.006-11.907-0.011-17.86-0.017C132.479,149.554,132.901,149.517,133.306,149.518z"/>
		<path style="fill:#0064D1;" d="M222.879,229.264L222.879,229.264c0.103-0.161,0.064-0.382,0.151-0.55
			c-0.011-0.049-0.011-0.099-0.029-0.148l0,0l0,0C222.832,228.776,222.857,229.02,222.879,229.264z"/>
		<path style="fill:#0064D1;" d="M221.59,235.507c0.012-0.179,0.019-0.358,0.037-0.536c-0.212,0.227-0.216,0.529-0.29,0.807l0,0l0,0
			C221.452,235.705,221.527,235.61,221.59,235.507z"/>
		<path style="fill:#DE98A4;" d="M132.091,215.232L132.091,215.232L132.091,215.232c0.002-0.354,0.004-0.709,0.005-1.063
			C131.996,214.522,132.004,214.877,132.091,215.232z"/>
		<path style="fill:#F4AE02;" d="M299.812,192.132c-0.049-0.095-0.08-0.195-0.106-0.296c-0.111-0.151-0.185-0.329-0.291-0.484l0,0
			c-1.091-1.221-2.198-2.424-3.473-3.462c-5.543-4.512-12.093-6.444-19.012-7.408c-4.938-0.688-9.905-0.774-14.877-0.516
			c-4.648,0.241-9.249,0.832-13.746,2.081c-5.567,1.546-10.697,3.912-14.828,8.081c-3.439,3.47-5.589,7.586-6.146,12.491
			c-0.083,0.729,0.112,0.945,0.807,0.865c0.404-0.047,0.818-0.008,1.227-0.008c5.234,0,10.469,0.002,15.704-0.005
			c0.337,0,0.703,0.156,0.839-0.45c0.941-4.211,3.597-7.049,7.35-8.961c2.585-1.317,5.364-1.959,8.231-2.254
			c5.241-0.54,10.404-0.22,15.361,1.696c4.685,1.811,8.239,4.825,9.834,9.778c0.806,2.502,0.612,5.085,0.672,7.651
			c0.017,0.73-0.246,0.86-0.901,0.854c-3.246-0.029-6.492-0.027-9.738-0.011c-8.358,0.042-16.726-0.247-25.052,0.81
			c-5.498,0.698-10.89,1.816-15.972,4.093c-5.555,2.489-10.083,6.1-12.524,11.89c-0.039,0.121-0.061,0.25-0.099,0.372
			c0.011,0.148,0.007,0.298-0.013,0.449c-0.549,1.828-0.922,3.695-1.247,5.573c-0.056,0.167-0.106,0.338-0.187,0.492
			c-0.006,1.271-0.012,2.543-0.018,3.814c0.362,4.775,1.804,9.155,4.8,12.947c3.973,5.027,9.305,7.923,15.38,9.508
			c9.434,2.462,18.883,2.155,28.251-0.358c6.49-1.741,12.283-4.803,16.924-9.789c0.683-0.734,1.29-1.538,2.036-2.434
			c-0.01,3.578,0.144,6.986,0.35,10.393c0.038,0.634,0.184,0.83,0.846,0.826c4.972-0.03,9.945-0.026,14.918-0.004
			c0.607,0.003,0.797-0.121,0.735-0.769c-0.401-4.164-0.625-8.338-0.623-12.523c0.004-12.051-0.005-24.103,0.006-36.154
			c0.003-2.844-0.166-5.669-0.768-8.454c-0.259-1.197-0.575-2.383-0.865-3.573c-0.747-0.731-1.048-1.732-1.53-2.616
			C301.318,194.887,300.568,193.507,299.812,192.132z M286.503,234.285c-2.447,8.225-7.935,13.406-16.043,15.802
			c-6.115,1.807-12.367,2.131-18.628,0.747c-3.685-0.815-6.95-2.475-9.235-5.605c-2.478-3.393-3.104-7.199-2.064-11.239
			c0.86-3.34,3.231-5.393,6.222-6.825c3.387-1.622,7.025-2.315,10.708-2.807c6.474-0.865,12.993-0.921,19.508-1.061
			c3.187-0.001,6.374,0.018,9.56-0.017c0.659-0.007,0.834,0.171,0.825,0.827C287.312,227.521,287.497,230.943,286.503,234.285z"/>
		<path style="fill:#F4AE02;" d="M299.706,191.836c0.026,0.101,0.057,0.201,0.106,0.296c0.756,1.375,1.506,2.754,2.257,4.132
			c0.482,0.884,0.783,1.884,1.53,2.616c-1.107-2.343-2.268-4.656-3.676-6.837C299.83,191.989,299.765,191.915,299.706,191.836z"/>
		<path style="fill:#F4AE02;" d="M299.706,191.836c-0.025-0.097-0.045-0.195-0.063-0.293c-0.059-0.076-0.128-0.145-0.228-0.191l0,0
			l0,0C299.521,191.507,299.595,191.685,299.706,191.836z"/>
		<path style="fill:#F4AE02;" d="M299.706,191.836c0.058,0.079,0.124,0.153,0.217,0.207c-0.098-0.163-0.164-0.35-0.28-0.5
			C299.661,191.641,299.682,191.739,299.706,191.836z"/>
		<path style="fill:#F4AE02;" d="M223.073,228.937c0.038-0.122,0.06-0.25,0.099-0.372c-0.069,0.04-0.112,0.091-0.142,0.148
			C223.047,228.788,223.067,228.862,223.073,228.937z"/>
		<path style="fill:#F4AE02;" d="M221.59,235.507c-0.086,1.252-0.047,2.505,0.017,3.758l0,0c0.006-1.271,0.012-2.543,0.018-3.814
			C221.614,235.47,221.601,235.488,221.59,235.507z"/>
		<path style="fill:#F4AE02;" d="M222.879,229.264c-0.629,1.856-1.028,3.762-1.252,5.707c-0.001,0.16-0.001,0.32-0.002,0.48
			c0.081-0.153,0.131-0.324,0.187-0.492c0.326-1.878,0.699-3.745,1.247-5.573c0.02-0.151,0.025-0.301,0.013-0.449
			C223.035,229.058,222.982,229.171,222.879,229.264L222.879,229.264z"/>
		<path style="fill:#F4AE02;" d="M222.879,229.264L222.879,229.264L222.879,229.264c0.103-0.093,0.156-0.207,0.194-0.327
			c-0.006-0.075-0.026-0.149-0.043-0.224C222.942,228.882,222.982,229.103,222.879,229.264z"/>
		<path style="fill:#F4AE02;" d="M221.59,235.507c0.011-0.019,0.025-0.037,0.035-0.056c0.001-0.16,0.001-0.32,0.002-0.48
			C221.609,235.15,221.602,235.328,221.59,235.507z"/>
		<path style="fill:#E43238;" d="M131.848,215.417c0.035-0.36,0.045-0.721,0.02-1.083c-0.029-0.243-0.113-0.496,0.114-0.697
			c-0.066-0.521-0.126-1.044-0.199-1.564c-1.156-8.314-4.52-15.551-10.625-21.385c-6.323-6.043-14.091-8.982-22.606-10.212
			c-5.202-0.751-10.423-0.783-15.655-0.369c-5.352,0.424-10.581,1.421-15.607,3.354c-9.421,3.622-16.251,9.936-20.042,19.378
			c-2.204,5.489-3.076,11.24-3.262,17.117c0.528,1.065,0.343,2.16,0.139,3.256c-0.036,0.058-0.079,0.091-0.129,0.105
			c0.313,0.348,0.314,0.696-0.011,1.043c0.126,2.424,0.327,4.84,0.739,7.234c1.039,6.045,3.093,11.674,6.869,16.581
			c4.784,6.217,11.186,10.027,18.614,12.139c10.899,3.1,21.968,3.38,33.075,1.347c6.823-1.249,13.115-3.824,18.347-8.551
			c4.325-3.907,7.268-8.646,8.462-14.407c0.109-0.525,0.084-0.726-0.531-0.724c-5.703,0.019-11.405,0.015-17.108,0.005
			c-0.403-0.001-0.605,0.116-0.773,0.513c-2.053,4.868-5.586,8.332-10.379,10.418c-7.153,3.114-14.519,3.259-21.934,1.038
			c-10.137-3.037-17.093-12.297-17.289-22.805c-0.016-0.871,0.22-1.036,1.049-1.036c22.986,0.024,45.972,0.02,68.958,0.02
			c-0.26-0.356-0.241-0.771-0.241-1.178C131.846,221.774,131.832,218.595,131.848,215.417z M113.075,214.347
			c-0.203-0.018-0.409-0.003-0.614-0.003c-8.157,0-16.313,0-24.47,0c-8.069,0-16.138,0-24.207,0c-1.401,0-1.368,0.003-1.254-1.446
			c0.647-8.22,4.897-14.101,12.068-17.77c8.866-4.537,18.042-4.857,27.086-0.566c6.863,3.256,10.655,8.954,11.691,16.482
			c0.128,0.931,0.153,1.862,0.196,2.796C113.589,214.217,113.458,214.381,113.075,214.347z"/>
		<path style="fill:#E43238;" d="M43.998,223.318c0.05-0.014,0.093-0.047,0.129-0.105c0.204-1.096,0.388-2.192-0.139-3.256
			c0.001,1.117,0.002,2.233,0.003,3.35C43.994,223.31,43.995,223.314,43.998,223.318z"/>
		<path style="fill:#E43238;" d="M43.998,223.318c-0.002,0.001-0.005-0.001-0.008-0.001c-0.001,0.348-0.002,0.696-0.003,1.043
			C44.312,224.014,44.311,223.666,43.998,223.318z"/>
		<polygon style="fill:#E43238;" points="43.99,223.317 43.998,223.318 43.99,223.307 		"/>
		<path style="fill:#E43238;" d="M132.097,214.168L132.097,214.168L132.097,214.168c-0.018-0.181-0.227-0.321-0.114-0.53
			c-0.227,0.201-0.144,0.454-0.114,0.697c0.025,0.362,0.015,0.723-0.02,1.083c-0.017,3.178-0.003,6.357-0.003,9.536
			c0,0.407-0.019,0.822,0.241,1.178c0.002-3.633,0.004-7.266,0.005-10.899C131.937,214.876,131.835,214.521,132.097,214.168z"/>
		<path style="fill:#E43238;" d="M132.091,215.232L132.091,215.232c-0.087-0.355-0.095-0.71,0.005-1.064l0,0
			C131.835,214.521,131.937,214.876,132.091,215.232z"/>
	</g>
</g>
</svg>
