<?xml version="1.0" encoding="iso-8859-1"?>
<!-- Generator: Adobe Illustrator 22.0.1, SVG Export Plug-In . SVG Version: 6.00 Build 0)  -->
<svg version="1.1" id="Layer_1" xmlns="http://www.w3.org/2000/svg" xmlns:xlink="http://www.w3.org/1999/xlink" x="0px" y="0px"
	 viewBox="0 0 438.53 438.53" style="enable-background:new 0 0 438.53 438.53;" xml:space="preserve">
<g id="_x31_14">
	<g>
		<path style="fill:#F4F4F4;" d="M407.603,110.087c-19.45-33.321-45.833-59.704-79.155-79.153
			c-33.328-19.448-69.711-29.17-109.176-29.17c-39.461,0-75.854,9.722-109.177,29.17C76.771,50.38,50.388,76.763,30.938,110.087
			c-19.451,33.326-29.173,69.72-29.173,109.178c0,39.46,9.725,75.847,29.17,109.175c19.449,33.321,45.832,59.704,79.156,79.155
			c33.326,19.447,69.717,29.17,109.177,29.17s75.854-9.723,109.179-29.17c33.322-19.444,59.704-45.834,79.152-79.155
			c19.445-33.325,29.166-69.718,29.166-109.175C436.766,179.803,427.044,143.409,407.603,110.087z M100.724,155.959
			c0,0,93.784-23.681,118.626-53.604c7.213-8.688-4.579-13.017-4.579-13.017s33.748-7.34,18.504,18.067
			c-15.244,25.406-130.292,52.507-132.55,52.507v-3.953H100.724z M83.786,199.432c0,0,153.442-33.311,188.509-85.641
			c6.286-9.38-4.579-13.017-4.579-13.017s30.244-9.137,18.504,18.067c-18.943,43.893-200.175,84.543-202.434,84.543
			C83.786,203.384,83.786,199.432,83.786,199.432z M89.432,242.905c0,0,188.572-39.521,219.561-97.497
			c5.323-9.958-4.579-13.017-4.579-13.017s31.59-8.515,18.504,18.067c-29.67,60.266-231.228,96.4-233.486,96.4
			C89.432,246.858,89.432,242.905,89.432,242.905z M107.499,288.355v-3.952c0,0,194.783-41.497,225.771-99.473
			c5.323-9.958-4.579-13.017-4.579-13.017s30.278-9.122,18.504,18.067C319.637,253.614,109.757,288.355,107.499,288.355z
			 M330.383,306.349c-15.244,25.406-127.469,43.828-129.727,43.828v-3.952c0,0,90.961-15.003,115.803-44.926
			c7.213-8.688-4.579-13.017-4.579-13.017S345.627,280.942,330.383,306.349z M352.841,238.533
			c-16.12,48.764-210.338,86.519-212.596,86.519V321.1c0,0,165.424-33.803,198.671-87.617c5.935-9.606-4.579-13.017-4.579-13.017
			S362.14,210.402,352.841,238.533z"/>
		<path style="fill:#F59034;stroke:#F59034;stroke-width:5;stroke-miterlimit:10;" d="M233.274,107.404
			c15.244-25.406-18.504-18.067-18.504-18.067s11.792,4.329,4.579,13.017c-24.842,29.923-118.626,53.604-118.626,53.604v3.952
			C102.982,159.911,218.03,132.811,233.274,107.404z"/>
		<path style="fill:#F59034;stroke:#F59034;stroke-width:5;stroke-miterlimit:10;" d="M311.879,288.282
			c0,0,11.792,4.329,4.579,13.017c-24.842,29.923-115.803,44.926-115.803,44.926v3.952c2.258,0,114.484-18.422,129.727-43.828
			C345.627,280.942,311.879,288.282,311.879,288.282z"/>
		<path style="fill:#F59034;stroke:#F59034;stroke-width:5;stroke-miterlimit:10;" d="M286.22,118.841
			c11.74-27.204-18.504-18.067-18.504-18.067s10.865,3.637,4.579,13.017c-35.067,52.33-188.509,85.641-188.509,85.641v3.952
			C86.044,203.384,267.277,162.734,286.22,118.841z"/>
		<path style="fill:#F59034;stroke:#F59034;stroke-width:5;stroke-miterlimit:10;" d="M334.337,220.467
			c0,0,10.514,3.411,4.579,13.017c-33.247,53.814-198.671,87.617-198.671,87.617v3.952c2.258,0,196.477-37.755,212.596-86.519
			C362.14,210.402,334.337,220.467,334.337,220.467z"/>
		<path style="fill:#F59034;stroke:#F59034;stroke-width:5;stroke-miterlimit:10;" d="M322.918,150.458
			c13.087-26.582-18.504-18.067-18.504-18.067s9.902,3.059,4.579,13.017c-30.989,57.976-219.561,97.497-219.561,97.497v3.952
			C91.69,246.857,293.248,210.724,322.918,150.458z"/>
		<path style="fill:#F59034;stroke:#F59034;stroke-width:5;stroke-miterlimit:10;" d="M347.195,189.979
			c11.774-27.189-18.504-18.067-18.504-18.067s9.902,3.059,4.579,13.017c-30.989,57.976-225.771,99.473-225.771,99.473v3.952
			C109.757,288.355,319.637,253.614,347.195,189.979z"/>
	</g>
</g>
</svg>
