<?xml version="1.0" encoding="iso-8859-1"?>
<!-- Generator: Adobe Illustrator 22.0.1, SVG Export Plug-In . SVG Version: 6.00 Build 0)  -->
<svg version="1.1" id="Layer_1" xmlns="http://www.w3.org/2000/svg" xmlns:xlink="http://www.w3.org/1999/xlink" x="0px" y="0px"
	 viewBox="0 0 438.53 438.53" style="enable-background:new 0 0 438.53 438.53;" xml:space="preserve">
<g id="_x31_18">
	<g>
		<path style="fill:#F4F4F4;" d="M301.768,216.029c3.522,0,6.911,0,10.393,0c-1.727-3.757-3.413-7.426-5.188-11.289
			C305.178,208.635,303.479,212.318,301.768,216.029z"/>
		<path style="fill:#F4F4F4;" d="M132.88,216.03c3.532,0,6.919,0,10.399,0c-1.732-3.763-3.422-7.438-5.191-11.282
			C136.297,208.626,134.605,212.292,132.88,216.03z"/>
		<path style="fill:#F4F4F4;" d="M369.979,203.231c-5,0.021-10,0.028-14.999-0.005c-0.731-0.005-0.843,0.262-0.84,0.902
			c0.022,4.939,0.028,9.878-0.005,14.816c-0.005,0.718,0.238,0.854,0.892,0.845c2.469-0.035,4.939-0.014,7.408-0.014
			c2.53,0,5.061-0.014,7.591,0.011c0.545,0.005,0.733-0.127,0.73-0.707c-0.023-5.03-0.023-10.061,0-15.091
			C370.759,203.375,370.564,203.229,369.979,203.231z"/>
		<path style="fill:#F4F4F4;" d="M258.931,203.282c-4.997,0.023-9.994,0.026-14.99-0.002c-0.673-0.004-0.798,0.234-0.79,0.84
			c0.03,2.468,0.012,4.936,0.012,7.404c0,2.529,0.016,5.058-0.012,7.587c-0.006,0.581,0.136,0.792,0.756,0.79
			c4.997-0.023,9.994-0.02,14.991-0.003c0.566,0.002,0.798-0.116,0.795-0.753c-0.026-5.027-0.024-10.055-0.003-15.082
			C259.691,203.475,259.544,203.279,258.931,203.282z"/>
		<path style="fill:#F4F4F4;" d="M407.603,110.087c-19.45-33.321-45.833-59.704-79.155-79.153
			c-33.328-19.448-69.711-29.17-109.176-29.17c-39.461,0-75.854,9.722-109.177,29.17C76.771,50.38,50.388,76.763,30.938,110.087
			c-19.451,33.326-29.173,69.72-29.173,109.178c0,39.46,9.725,75.847,29.17,109.175c19.449,33.321,45.832,59.704,79.156,79.155
			c33.326,19.447,69.717,29.17,109.177,29.17s75.854-9.723,109.179-29.17c33.322-19.444,59.704-45.834,79.152-79.155
			c19.445-33.325,29.166-69.718,29.166-109.175C436.766,179.803,427.044,143.409,407.603,110.087z M104.275,235.326
			c-4.789-0.032-9.578-0.029-14.366-0.002c-0.61,0.003-1.013-0.206-1.426-0.62c-6.943-6.947-13.897-13.883-20.853-20.817
			c-0.226-0.226-0.396-0.537-0.852-0.642c0,0.356,0,0.678,0,0.999c0,6.711-0.013,13.421,0.018,20.132
			c0.004,0.765-0.202,0.956-0.958,0.951c-5.063-0.035-10.127-0.032-15.19-0.002c-0.688,0.004-0.867-0.179-0.866-0.864
			c0.019-15.251,0.02-30.503-0.002-45.754c-0.001-0.776,0.237-0.964,0.984-0.959c4.758,0.032,9.517,0.026,14.275,0.003
			c0.604-0.003,1.018,0.194,1.436,0.612c6.945,6.945,13.904,13.876,20.864,20.806c0.225,0.224,0.398,0.528,0.839,0.645
			c0-0.367,0-0.69,0-1.012c0.005-6.711,0.019-13.421-0.002-20.132c-0.002-0.709,0.168-0.929,0.906-0.924
			c5.063,0.033,10.127,0.033,15.19,0.001c0.728-0.005,0.912,0.199,0.911,0.917c-0.021,15.251-0.021,30.503,0.001,45.754
			C105.185,235.143,104.993,235.331,104.275,235.326z M168.672,235.305c-5.703,0.005-11.406-0.007-17.108,0.02
			c-0.614,0.003-0.923-0.179-1.169-0.736c-0.626-1.421-1.338-2.804-1.975-4.22c-0.193-0.429-0.435-0.567-0.896-0.566
			c-6.282,0.014-12.565,0.018-18.847-0.005c-0.564-0.002-0.793,0.226-1.004,0.692c-0.638,1.416-1.331,2.807-1.979,4.218
			c-0.181,0.395-0.371,0.615-0.866,0.613c-5.916-0.02-11.833-0.013-17.749-0.016c-0.084,0-0.168-0.036-0.336-0.074
			c0.907-1.957,1.795-3.886,2.694-5.81c6.352-13.603,12.71-27.204,19.047-40.814c0.279-0.6,0.583-0.863,1.283-0.859
			c5.55,0.031,11.101,0.028,16.651,0.002c0.61-0.003,0.911,0.182,1.169,0.734c7.167,15.374,14.352,30.739,21.533,46.107
			c0.088,0.189,0.167,0.383,0.261,0.603C169.142,235.378,168.894,235.305,168.672,235.305z M220.181,227.402
			c-0.741,4.343-3.52,6.773-7.971,7.538c-1.415,0.243-2.839,0.36-4.276,0.359c-5.825-0.005-11.65-0.002-17.475-0.002
			c-6.283,0-12.565-0.013-18.848,0.017c-0.736,0.004-0.909-0.21-0.904-0.919c0.033-4.086,0.037-8.174-0.003-12.26
			c-0.008-0.775,0.223-0.948,0.967-0.946c10.766,0.024,21.531,0.018,32.297,0.014c1.327,0,1.188,0.161,1.194-1.148
			c0.009-2.119,0.004-2.119-2.146-2.119c-7.258,0-14.517-0.003-21.776,0.002c-1.869,0.002-3.707-0.187-5.504-0.726
			c-3.397-1.019-5.597-3.243-6.282-6.705c-0.966-4.887-0.92-9.845-0.112-14.735c0.727-4.398,3.423-6.822,7.869-7.654
			c1.26-0.236,2.535-0.375,3.816-0.374c11.681,0.001,23.361,0.02,35.042,0.001c0.814-0.001,1.018,0.22,1.009,1.02
			c-0.042,3.873-0.046,7.747,0.002,11.619c0.011,0.861-0.18,1.121-1.088,1.118c-10.491-0.035-20.982-0.024-31.474-0.02
			c-1.351,0.001-1.183-0.166-1.189,1.144c-0.01,2.099-0.003,2.099,2.062,2.1c7.929,0.004,15.859,0.004,23.788,0.02
			c1.591,0.003,3.154,0.26,4.678,0.726c3.35,1.025,5.554,3.227,6.223,6.653C221.071,217.192,221.047,222.332,220.181,227.402z
			 M271.613,233.629c-1.704,0.794-3.534,1.124-5.388,1.314c-3.129,0.32-6.269,0.353-9.41,0.354
			c-10.157,0.001-20.314-0.011-30.471,0.021c-0.862,0.003-1.055-0.254-1.052-1.072c0.029-7.594,0.017-15.188,0.017-22.782
			c0.029,0,0.058,0,0.087,0c0-7.564,0.013-15.129-0.018-22.693c-0.003-0.833,0.219-1.053,1.058-1.051
			c10.889,0.035,21.778,0.01,32.667,0.05c2.679,0.01,5.358,0.127,8.027,0.477c5.824,0.765,8.676,3.454,9.731,9.326
			c0.922,5.13,0.903,10.317,0.872,15.499c-0.026,4.206-0.08,8.418-0.878,12.57C276.206,229.014,275,232.051,271.613,233.629z
			 M337.504,235.308c-5.672,0.002-11.343-0.01-17.015,0.017c-0.65,0.003-0.969-0.201-1.225-0.79
			c-0.594-1.368-1.299-2.687-1.895-4.054c-0.235-0.538-0.54-0.683-1.102-0.681c-6.221,0.02-12.441,0.019-18.662,0.001
			c-0.53-0.002-0.81,0.153-1.029,0.647c-0.643,1.446-1.352,2.864-2.019,4.299c-0.167,0.36-0.351,0.574-0.807,0.572
			c-6.005-0.016-12.011-0.01-18.14-0.01c0.321-0.71,0.598-1.342,0.89-1.967c6.943-14.871,13.894-29.739,20.811-44.622
			c0.355-0.764,0.762-0.98,1.571-0.975c5.458,0.038,10.916,0.026,16.375,0.01c0.573-0.002,0.927,0.104,1.202,0.694
			c7.173,15.402,14.371,30.793,21.562,46.187c0.088,0.187,0.159,0.382,0.263,0.637C337.971,235.288,337.737,235.308,337.504,235.308
			z M388.476,220.972c-0.163,2.279-0.464,4.542-1.1,6.748c-1.042,3.61-3.305,5.963-7.006,6.85c-0.236,0.057-0.469,0.129-0.701,0.203
			c-0.045,0.015-0.077,0.07-0.161,0.15c2.171,0,4.294,0.027,6.416-0.015c0.7-0.014,0.93,0.155,0.925,0.898
			c-0.035,4.787-0.031,9.575-0.003,14.363c0.004,0.674-0.158,0.88-0.857,0.875c-4.818-0.031-9.636-0.028-14.454-0.002
			c-0.642,0.003-0.819-0.178-0.816-0.817c0.026-4.574-0.012-9.149,0.037-13.722c0.009-0.875-0.268-1.025-1.068-1.022
			c-5.733,0.022-11.466,0.019-17.199-0.03c-2.162-0.018-4.328-0.16-6.459-0.556c-5.375-0.997-7.875-3.508-8.95-8.977
			c-0.809-4.118-0.913-8.292-0.925-12.47c-0.015-5.121-0.091-10.245,0.73-15.325c0.292-1.81,0.745-3.573,1.604-5.213
			c1.598-3.051,4.363-4.266,7.552-4.823c4.049-0.707,8.142-0.581,12.223-0.596c4.97-0.019,9.941,0.013,14.911,0.068
			c2.133,0.024,4.249,0.263,6.355,0.65c4.434,0.815,7.021,3.474,8.057,7.794c0.715,2.981,0.983,6.016,1.056,9.06
			C388.77,210.366,388.856,215.674,388.476,220.972z"/>
		<path style="fill:#339CC6;" d="M104.272,187.748c-5.063,0.032-10.127,0.033-15.19-0.001c-0.739-0.005-0.909,0.216-0.906,0.924
			c0.021,6.71,0.006,13.421,0.002,20.132c0,0.322,0,0.645,0,1.012c-0.441-0.117-0.614-0.421-0.839-0.645
			c-6.96-6.93-13.919-13.861-20.864-20.806c-0.418-0.418-0.832-0.615-1.436-0.612c-4.758,0.023-9.517,0.029-14.275-0.003
			c-0.747-0.005-0.985,0.183-0.984,0.959c0.022,15.251,0.021,30.503,0.002,45.754c-0.001,0.685,0.178,0.868,0.866,0.864
			c5.063-0.03,10.127-0.033,15.19,0.002c0.756,0.005,0.961-0.186,0.958-0.951c-0.031-6.71-0.018-13.421-0.018-20.132
			c0-0.322,0-0.643,0-0.999c0.456,0.105,0.625,0.417,0.852,0.642c6.957,6.933,13.911,13.869,20.853,20.817
			c0.413,0.413,0.816,0.623,1.426,0.62c4.789-0.027,9.578-0.03,14.366,0.002c0.718,0.005,0.91-0.183,0.909-0.907
			c-0.022-15.251-0.021-30.503-0.001-45.754C105.184,187.947,105,187.744,104.272,187.748z"/>
		<path style="fill:#339CC6;" d="M213.859,205.472c-1.525-0.466-3.087-0.723-4.678-0.726c-7.929-0.016-15.859-0.015-23.788-0.02
			c-2.066-0.001-2.072,0-2.062-2.1c0.006-1.31-0.162-1.143,1.189-1.144c10.491-0.005,20.983-0.015,31.474,0.02
			c0.908,0.003,1.098-0.257,1.088-1.118c-0.047-3.873-0.044-7.746-0.002-11.619c0.009-0.8-0.195-1.022-1.009-1.02
			c-11.681,0.019-23.361,0-35.042-0.001c-1.282,0-2.557,0.139-3.816,0.374c-4.446,0.832-7.142,3.256-7.869,7.654
			c-0.808,4.89-0.854,9.848,0.112,14.735c0.684,3.461,2.885,5.686,6.282,6.705c1.797,0.539,3.636,0.728,5.504,0.726
			c7.259-0.006,14.517-0.002,21.776-0.002c2.15,0,2.155,0,2.146,2.119c-0.006,1.309,0.133,1.148-1.194,1.148
			c-10.766,0.004-21.531,0.01-32.297-0.014c-0.745-0.002-0.975,0.172-0.967,0.946c0.04,4.086,0.035,8.173,0.003,12.26
			c-0.006,0.709,0.168,0.923,0.904,0.919c6.282-0.03,12.565-0.017,18.848-0.017c5.825,0,11.65-0.003,17.475,0.002
			c1.436,0.001,2.861-0.115,4.276-0.359c4.451-0.765,7.23-3.195,7.971-7.538c0.866-5.071,0.89-10.21-0.099-15.277
			C219.413,208.699,217.21,206.497,213.859,205.472z"/>
		<path style="fill:#339CC6;" d="M387.588,196.003c-1.036-4.32-3.623-6.979-8.057-7.794c-2.106-0.387-4.222-0.626-6.355-0.65
			c-4.97-0.055-9.941-0.087-14.911-0.068c-4.081,0.016-8.173-0.111-12.223,0.596c-3.189,0.557-5.954,1.772-7.552,4.823
			c-0.859,1.639-1.312,3.402-1.604,5.213c-0.821,5.08-0.745,10.205-0.73,15.325c0.012,4.178,0.116,8.352,0.925,12.47
			c1.075,5.469,3.575,7.979,8.95,8.977c2.131,0.396,4.297,0.538,6.459,0.556c5.733,0.048,11.466,0.052,17.199,0.03
			c0.8-0.003,1.077,0.147,1.068,1.022c-0.049,4.574-0.011,9.148-0.037,13.722c-0.004,0.639,0.174,0.82,0.816,0.817
			c4.818-0.026,9.636-0.029,14.454,0.002c0.699,0.005,0.861-0.202,0.857-0.875c-0.029-4.788-0.032-9.575,0.003-14.363
			c0.005-0.744-0.225-0.912-0.925-0.898c-2.122,0.043-4.245,0.015-6.416,0.015c0.083-0.08,0.115-0.136,0.161-0.15
			c0.232-0.074,0.464-0.147,0.701-0.203c3.701-0.887,5.964-3.239,7.006-6.85c0.637-2.206,0.937-4.47,1.1-6.748
			c0.38-5.298,0.294-10.606,0.167-15.909C388.571,202.019,388.303,198.984,387.588,196.003z M370.756,219.078
			c0.003,0.58-0.185,0.713-0.73,0.707c-2.53-0.025-5.061-0.011-7.591-0.011c-2.469,0-4.939-0.021-7.408,0.014
			c-0.654,0.009-0.897-0.127-0.892-0.845c0.032-4.939,0.027-9.878,0.005-14.816c-0.003-0.639,0.11-0.907,0.84-0.902
			c5,0.033,9.999,0.026,14.999,0.005c0.585-0.002,0.78,0.144,0.777,0.757C370.733,209.018,370.734,214.048,370.756,219.078z"/>
		<path style="fill:#339CC6;" d="M277.733,213.072c0.031-5.183,0.05-10.37-0.872-15.499c-1.055-5.872-3.907-8.561-9.731-9.326
			c-2.669-0.351-5.348-0.468-8.027-0.477c-10.889-0.04-21.778-0.015-32.667-0.05c-0.839-0.003-1.061,0.217-1.058,1.051
			c0.031,7.564,0.018,15.129,0.018,22.693c-0.029,0-0.058,0-0.087,0c0,7.594,0.012,15.188-0.017,22.782
			c-0.003,0.818,0.189,1.075,1.052,1.072c10.157-0.032,20.314-0.02,30.471-0.021c3.141,0,6.282-0.034,9.41-0.354
			c1.855-0.19,3.684-0.52,5.388-1.314c3.387-1.578,4.593-4.615,5.242-7.986C277.653,221.49,277.707,217.278,277.733,213.072z
			 M258.897,219.896c-4.997-0.017-9.994-0.02-14.991,0.003c-0.62,0.003-0.762-0.208-0.756-0.79c0.028-2.529,0.012-5.058,0.012-7.587
			c0-2.468,0.017-4.936-0.012-7.404c-0.007-0.606,0.117-0.844,0.79-0.84c4.997,0.028,9.994,0.026,14.99,0.002
			c0.613-0.003,0.76,0.193,0.758,0.78c-0.021,5.027-0.024,10.055,0.003,15.082C259.695,219.78,259.463,219.898,258.897,219.896z"/>
		<path style="fill:#339CC6;" d="M147.587,188.484c-0.258-0.553-0.559-0.737-1.169-0.734c-5.55,0.026-11.101,0.029-16.651-0.002
			c-0.7-0.004-1.003,0.259-1.283,0.859c-6.337,13.61-12.695,27.211-19.047,40.814c-0.899,1.924-1.787,3.853-2.694,5.81
			c0.168,0.038,0.252,0.074,0.336,0.074c5.916,0.003,11.833-0.003,17.749,0.016c0.495,0.002,0.685-0.219,0.866-0.613
			c0.648-1.412,1.341-2.802,1.979-4.218c0.21-0.466,0.44-0.694,1.004-0.692c6.282,0.023,12.565,0.019,18.847,0.005
			c0.461-0.001,0.703,0.138,0.896,0.566c0.637,1.416,1.348,2.799,1.975,4.22c0.246,0.557,0.555,0.739,1.169,0.736
			c5.703-0.027,11.406-0.015,17.108-0.02c0.222,0,0.471,0.073,0.71-0.111c-0.095-0.22-0.173-0.414-0.261-0.603
			C161.939,219.224,154.754,203.858,147.587,188.484z M132.88,216.03c1.726-3.738,3.417-7.403,5.208-11.282
			c1.769,3.844,3.459,7.519,5.191,11.282C139.799,216.03,136.412,216.03,132.88,216.03z"/>
		<path style="fill:#339CC6;" d="M316.457,188.45c-0.275-0.59-0.629-0.696-1.202-0.694c-5.458,0.016-10.917,0.028-16.375-0.01
			c-0.81-0.006-1.216,0.211-1.571,0.975c-6.917,14.883-13.868,29.751-20.811,44.622c-0.292,0.625-0.569,1.257-0.89,1.967
			c6.13,0,12.135-0.005,18.14,0.01c0.457,0.001,0.64-0.213,0.807-0.572c0.668-1.436,1.376-2.853,2.019-4.299
			c0.22-0.494,0.499-0.648,1.029-0.647c6.221,0.018,12.441,0.019,18.662-0.001c0.562-0.002,0.867,0.143,1.102,0.681
			c0.597,1.367,1.301,2.687,1.895,4.054c0.256,0.589,0.575,0.793,1.225,0.79c5.672-0.028,11.343-0.016,17.015-0.017
			c0.234,0,0.468-0.02,0.779-0.035c-0.105-0.255-0.176-0.45-0.263-0.637C330.827,219.243,323.63,203.852,316.457,188.45z
			 M301.768,216.029c1.711-3.711,3.409-7.394,5.205-11.289c1.775,3.862,3.461,7.531,5.188,11.289
			C308.679,216.029,305.291,216.029,301.768,216.029z"/>
	</g>
</g>
</svg>
