<?xml version="1.0" encoding="iso-8859-1"?>
<!-- Generator: Adobe Illustrator 22.0.1, SVG Export Plug-In . SVG Version: 6.00 Build 0)  -->
<svg version="1.1" id="Layer_1" xmlns="http://www.w3.org/2000/svg" xmlns:xlink="http://www.w3.org/1999/xlink" x="0px" y="0px"
	 viewBox="0 0 438.53 438.53" style="enable-background:new 0 0 438.53 438.53;" xml:space="preserve">
<g id="_x31_19">
	<g>
		<path style="fill:#F4F4F4;" d="M407.603,110.087c-19.45-33.321-45.833-59.704-79.155-79.153
			c-33.328-19.448-69.711-29.17-109.176-29.17c-39.461,0-75.854,9.722-109.177,29.17C76.771,50.38,50.388,76.763,30.938,110.087
			c-19.451,33.326-29.173,69.72-29.173,109.178c0,39.46,9.725,75.847,29.17,109.175c19.449,33.321,45.832,59.704,79.156,79.155
			c33.326,19.447,69.717,29.17,109.177,29.17s75.854-9.723,109.179-29.17c33.322-19.444,59.704-45.834,79.152-79.155
			c19.445-33.325,29.166-69.718,29.166-109.175C436.766,179.803,427.044,143.409,407.603,110.087z M107.492,255.898H84.847
			l-10.239-53.219L58.31,255.898H41.435l22.79-73.266h23.942l9.663,50.621l15.72-50.621h16.729L107.492,255.898z M118.452,255.898
			l22.788-73.266h20.193l-22.788,73.266L118.452,255.898L118.452,255.898z M347.622,242.918l-4.036,12.98h-47.305h-6.201h-15.146
			l-14.421-40.671h-7.935l-12.689,40.671h-13.701h-6.49h-14.855l-14.423-40.671h-7.933l-12.691,40.671h-20.193l22.788-73.266h20.191
			l-9.95,31.875l32.162-31.875h23.075l-33.025,32.595h6.922l10.965,30.92l19.753-63.515h20.191l-9.95,31.875l32.16-31.875h23.077
			l-33.027,32.595h6.925l11.118,31.354l19.888-63.949h53.508l-4.04,12.402h-33.171l-5.192,16.731h31.008l-4.036,12.982h-31.011
			l-5.625,18.17h33.315V242.918z M374.305,255.898h-20.193l22.788-73.266h20.195L374.305,255.898z"/>
		<polygon points="211.765,215.227 204.844,215.227 237.868,182.632 214.794,182.632 182.632,214.507 192.582,182.632 
			172.391,182.632 149.604,255.898 169.796,255.898 182.488,215.227 190.421,215.227 204.844,255.898 219.698,255.898 
			222.731,246.148 		"/>
		<polygon points="281.86,215.227 274.935,215.227 307.961,182.632 284.885,182.632 252.725,214.507 262.675,182.632 
			242.484,182.632 222.731,246.148 226.189,255.898 239.889,255.898 252.579,215.227 260.514,215.227 274.935,255.898 
			290.08,255.898 292.978,246.581 		"/>
		<polygon points="141.239,182.632 118.452,255.898 138.644,255.898 161.432,182.632 		"/>
		<polygon points="354.113,255.898 374.305,255.898 397.095,182.632 376.9,182.632 		"/>
		<polygon points="219.698,255.898 226.189,255.898 222.731,246.148 		"/>
		<polygon points="113.549,182.632 97.829,233.253 88.166,182.632 64.225,182.632 41.435,255.898 58.311,255.898 74.608,202.679 
			84.847,255.898 107.492,255.898 130.278,182.632 		"/>
		<polygon points="350.944,224.748 354.979,211.765 323.972,211.765 329.164,195.034 362.335,195.034 366.374,182.632 
			312.866,182.632 292.978,246.581 296.281,255.898 343.587,255.898 347.622,242.918 314.307,242.918 319.932,224.748 		"/>
		<polygon points="290.08,255.898 296.281,255.898 292.978,246.581 		"/>
	</g>
</g>
</svg>
