<?xml version="1.0" encoding="iso-8859-1"?>
<!-- Generator: Adobe Illustrator 22.0.1, SVG Export Plug-In . SVG Version: 6.00 Build 0)  -->
<svg version="1.1" id="Layer_1" xmlns="http://www.w3.org/2000/svg" xmlns:xlink="http://www.w3.org/1999/xlink" x="0px" y="0px"
	 viewBox="0 0 438.53 438.53" style="enable-background:new 0 0 438.53 438.53;" xml:space="preserve">
<g id="_x31_20">
	<g>
		<path style="fill:#ED1C24;" d="M241.415,201.298l12.411,24.186v35.023c0,2.095,1.666,3.734,3.669,3.734
			c2.081,0,3.786-1.639,3.786-3.734v-35.101l12.333-24.108l-16.145-31.419L241.415,201.298z M257.47,216.663l-7.872-15.365
			l7.872-15.365l7.909,15.365L257.47,216.663z"/>
		<path style="fill:#ED1C24;" d="M219.245,65.642c-84.838,0-153.518,68.706-153.518,153.479s68.68,153.519,153.518,153.519
			c84.722,0,153.454-68.745,153.454-153.519S303.967,65.642,219.245,65.642z M203.725,137.861h11.787l-0.014,59.508h-8.885
			c-2.264,0-4.033,1.795-4.033,4.059c0,2.121,1.769,3.929,4.033,3.929h8.899l-0.014,33.241h-8.794c0,0,3.071,8.847-24.472,83.199
			c0,0-28.726,0.091-52.561,0c39.954-80.753,25.122-177.535,25.122-177.535h39.42l-6.856-50.011h28.154l-0.014,35.687h-11.773
			c-2.173,0-3.916,1.743-3.916,3.994C199.809,136.092,201.552,137.861,203.725,137.861z M256.468,321.797
			c-27.66-74.352-24.525-83.199-24.525-83.199h-8.469v-33.241h8.677c2.225,0,3.995-1.808,3.995-3.929
			c0-2.264-1.769-4.059-3.995-4.059h-8.183l-0.494-59.508h11.475c2.212,0,3.941-1.769,3.941-3.929c0-2.251-1.73-3.994-3.941-3.994
			h-11.475V94.251h27.907l-6.818,50.011h39.538c0,0-15.001,96.782,25.005,177.535C285.233,321.888,256.468,321.797,256.468,321.797z
			"/>
		<path style="fill:#ED1C24;" d="M181.66,169.202c-7.442-0.026-13.531,6.011-13.531,13.335v53.888
			c-0.012,3.591,1.353,6.973,4.71,10.174l-3.526,12.997c-0.519,1.952,0.625,4.085,2.707,4.554c1.99,0.572,3.968-0.598,4.526-2.628
			l3.214-11.813h3.499l3.24,11.813c0.546,2.03,2.576,3.201,4.514,2.628c2.081-0.468,3.227-2.602,2.707-4.554l-2.85-13.674
			c2.616-2.524,4.007-5.841,4.007-9.419v-53.875C194.878,175.265,188.959,169.241,181.66,169.202z M187.41,236.503
			c0,1.509-0.637,2.966-1.704,4.059c-1.236,1.145-2.733,1.834-4.346,1.795c-1.471,0-2.941-0.612-4.099-1.704
			c-1.08-1.093-1.653-2.615-1.653-4.228v-31.341h11.8v31.419H187.41z M187.41,197.603h-11.8v-15.066
			c0.013-3.253,2.707-5.881,6.024-5.881c3.188,0,5.776,2.628,5.776,5.933V197.603z"/>
		<path style="fill:#ED1C24;" d="M407.603,110.087c-19.45-33.321-45.833-59.704-79.155-79.153
			c-33.328-19.448-69.711-29.17-109.176-29.17c-39.461,0-75.854,9.722-109.177,29.17C76.771,50.38,50.388,76.763,30.938,110.087
			c-19.451,33.326-29.173,69.72-29.173,109.178c0,39.46,9.725,75.847,29.17,109.175c19.449,33.321,45.832,59.704,79.156,79.155
			c33.326,19.447,69.717,29.17,109.177,29.17s75.854-9.723,109.179-29.17c33.322-19.444,59.704-45.834,79.152-79.155
			c19.445-33.325,29.166-69.718,29.166-109.175C436.766,179.803,427.044,143.409,407.603,110.087z M219.259,380.03
			c-88.924,0-160.908-72.063-160.908-160.869c0-88.859,71.984-160.882,160.908-160.882c88.807,0,160.856,72.024,160.856,160.882
			C380.115,307.967,308.065,380.03,219.259,380.03z"/>
		<path style="fill:#FFFFFF;" d="M175.61,236.425c0,1.613,0.572,3.135,1.653,4.228c1.157,1.093,2.628,1.704,4.099,1.704
			c1.612,0.039,3.109-0.651,4.346-1.795c1.067-1.093,1.704-2.55,1.704-4.059v-31.419h-11.8v31.341H175.61z"/>
		<path style="fill:#FFFFFF;" d="M181.634,176.657c-3.317,0-6.011,2.628-6.024,5.881v15.066h11.8V182.59
			C187.41,179.285,184.822,176.657,181.634,176.657z"/>
		<path style="fill:#FFFFFF;" d="M203.725,129.938h11.773l0.014-35.687h-28.154l6.856,50.011h-39.42
			c0,0,14.833,96.782-25.122,177.535c23.835,0.091,52.561,0,52.561,0c27.543-74.352,24.472-83.199,24.472-83.199h8.794l0.014-33.241
			h-8.899c-2.264,0-4.033-1.808-4.033-3.929c0-2.264,1.769-4.059,4.033-4.059h8.885l0.014-59.508h-11.787
			c-2.173,0-3.916-1.769-3.916-3.929C199.809,131.681,201.552,129.938,203.725,129.938z M194.878,236.503
			c0,3.578-1.391,6.895-4.007,9.419l2.85,13.674c0.52,1.952-0.626,4.085-2.707,4.554c-1.938,0.572-3.968-0.598-4.514-2.628
			l-3.24-11.813h-3.499l-3.214,11.813c-0.559,2.03-2.536,3.201-4.526,2.628c-2.083-0.468-3.226-2.602-2.707-4.554l3.526-12.997
			c-3.356-3.201-4.722-6.583-4.71-10.174v-53.888c0-7.325,6.089-13.361,13.531-13.335c7.299,0.039,13.218,6.063,13.218,13.426
			L194.878,236.503L194.878,236.503z"/>
		<path style="fill:#FFFFFF;" d="M284.101,144.262h-39.538l6.818-50.011h-27.907v35.687h11.475c2.212,0,3.941,1.743,3.941,3.994
			c0,2.16-1.73,3.929-3.941,3.929h-11.475l0.494,59.508h8.183c2.225,0,3.995,1.795,3.995,4.059c0,2.121-1.769,3.929-3.995,3.929
			h-8.677v33.241h8.469c0,0-3.135,8.847,24.525,83.199c0,0,28.766,0.091,52.639,0C269.1,241.044,284.101,144.262,284.101,144.262z
			 M261.281,225.406v35.101c0,2.095-1.705,3.734-3.786,3.734c-2.003,0-3.669-1.639-3.669-3.734v-35.023l-12.411-24.186
			l16.055-31.419l16.145,31.419L261.281,225.406z"/>
		<path style="fill:#FFFFFF;" d="M219.259,58.279c-88.924,0-160.908,72.024-160.908,160.882
			c0,88.807,71.984,160.869,160.908,160.869c88.807,0,160.856-72.063,160.856-160.869
			C380.115,130.302,308.065,58.279,219.259,58.279z M219.245,372.64c-84.838,0-153.518-68.745-153.518-153.519
			s68.68-153.479,153.518-153.479c84.722,0,153.454,68.706,153.454,153.479S303.967,372.64,219.245,372.64z"/>
		<polygon style="fill:#FFFFFF;" points="249.598,201.298 257.47,216.663 265.379,201.298 257.47,185.933 		"/>
	</g>
</g>
</svg>
