<?xml version="1.0" encoding="iso-8859-1"?>
<!-- Generator: Adobe Illustrator 22.0.1, SVG Export Plug-In . SVG Version: 6.00 Build 0)  -->
<svg version="1.1" id="Layer_1" xmlns="http://www.w3.org/2000/svg" xmlns:xlink="http://www.w3.org/1999/xlink" x="0px" y="0px"
	 viewBox="0 0 438.53 438.53" style="enable-background:new 0 0 438.53 438.53;" xml:space="preserve">
<g id="_x31_21">
	<g>
		<path style="fill:#F4F4F4;" d="M407.603,110.087c-19.45-33.321-45.833-59.704-79.155-79.153
			c-33.328-19.448-69.711-29.17-109.176-29.17c-39.461,0-75.854,9.722-109.177,29.17C76.771,50.38,50.388,76.763,30.938,110.087
			c-19.451,33.326-29.173,69.72-29.173,109.178c0,39.46,9.725,75.847,29.17,109.175c19.449,33.321,45.832,59.704,79.156,79.155
			c33.326,19.447,69.717,29.17,109.177,29.17s75.854-9.723,109.179-29.17c33.322-19.444,59.704-45.834,79.152-79.155
			c19.445-33.325,29.166-69.718,29.166-109.175C436.766,179.803,427.044,143.409,407.603,110.087z M328.831,155.818
			c0.115-0.175,0.292-0.31,0.44-0.464c0.827-0.345,1.7-0.292,2.566-0.292c13.012-0.003,26.024-0.012,39.036,0.017
			c1.054,0.002,2.457-0.484,2.756,1.27c-0.964,1.61-1.852,3.273-2.91,4.819c-1.686,2.462-4.117,3.503-7.085,3.494
			c-8.915-0.027-17.83-0.003-26.745-0.017c-1.031-0.002-1.88,0.005-2.577,1.079c-5.914,9.114-11.899,18.182-17.857,27.267
			c-0.073,0.111-0.07,0.272-0.141,0.568c1.837,0.504,3.701,0.944,5.52,1.526c27.782,8.881,40.127,41.495,25.191,66.517
			c-1.305,2.186-1.319,2.198-2.956,0.17c-0.636-0.787-1.2-1.633-1.785-2.461c-1.875-2.653-2.319-5.065-1.041-8.517
			c4.848-13.1,2.683-25.394-6.537-35.908c-9.223-10.518-21.085-14.023-34.789-11.307c-0.696,0.138-1.387,0.299-2.089,0.452
			c-0.405-0.358-0.08-0.641,0.1-0.917C308.225,187.346,318.526,171.581,328.831,155.818z M83.461,211.648
			c-0.807-0.089-1.136-0.851-1.605-1.375c-9.568-10.685-19.125-21.38-28.684-32.073c-0.366-0.41-0.737-0.816-1.163-1.287
			c-0.566,0.811-0.334,1.544-0.336,2.222c-0.02,7.751-0.008,15.503-0.021,23.254c-0.001,0.785,0.171,1.597-0.221,2.349l0,0
			c0.085,0.125,0.073,0.24-0.035,0.345c-0.481,3.453-2.945,6.128-6.285,6.481c-2.428,0.256-5.353,0.978-7.183-0.286
			c-1.364-0.942-0.388-3.935-0.395-6.008c-0.041-13.763-0.026-27.525-0.011-41.288c0.001-0.997-0.211-2.033,0.312-2.982l0,0l0,0
			c-0.073-0.117-0.052-0.214,0.063-0.29c0.589-3.142,2.656-4.873,5.584-5.672c2.053-0.56,4.181-0.248,6.276-0.282
			c1.116-0.018,1.553,0.975,2.161,1.642c9.022,9.909,18.024,19.837,27.033,29.758c0.528,0.581,1.075,1.145,1.639,1.744
			c0.67-0.594,0.348-1.283,0.35-1.868c0.027-7.606,0.005-15.213,0.023-22.82c0.012-5.225,3.147-8.376,8.365-8.465
			c5.621-0.096,5.621-0.096,5.621,5.581c0,14.199-0.039,28.398,0.016,42.597C94.994,210.723,89.296,212.289,83.461,211.648z
			 M121.463,166.663c0,12.097,0.006,24.194-0.003,36.291c-0.004,5.716-2.992,8.734-8.691,8.718
			c-1.794-0.005-4.088,0.769-5.253-0.315c-1.19-1.108-0.373-3.43-0.377-5.214c-0.037-14.125-0.025-28.25-0.012-42.376
			c0.001-0.926-0.197-1.889,0.303-2.766l0,0c-0.074-0.117-0.053-0.214,0.063-0.289c0.842-3.547,3.463-5.721,7.297-5.936
			c1.733-0.097,3.478,0.031,5.214-0.046c1.148-0.051,1.499,0.378,1.48,1.502C121.427,159.708,121.463,163.186,121.463,166.663z
			 M178.936,165.526c-9.64,0.01-19.28,0.033-28.92-0.029c-1.479-0.009-2.041,0.333-1.968,1.904c0.126,2.676,0.126,5.366,0,8.042
			c-0.078,1.666,0.354,2.24,2.141,2.211c6.884-0.112,13.772,0.021,20.656-0.088c1.843-0.029,2.3,0.534,2.238,2.31
			c-0.184,5.284-3.194,8.39-8.437,8.414c-4.856,0.022-9.714,0.078-14.568-0.032c-1.679-0.038-2.072,0.511-2.032,2.105
			c0.107,4.346,0.058,8.697,0.031,13.046c-0.032,5.161-3.105,8.254-8.264,8.264c-1.941,0.004-4.448,0.821-5.673-0.339
			c-1.246-1.179-0.375-3.71-0.39-5.643c-0.051-6.45-0.019-12.902-0.019-19.352c0-7.538-0.009-15.076,0.003-22.614
			c0.01-5.888,3.093-8.966,9.007-8.971c14.206-0.012,28.413,0.03,42.619-0.047c1.797-0.01,2.335,0.442,2.291,2.263
			C187.515,162.463,184.506,165.521,178.936,165.526z M240.646,165.463c-3.333,0.02-6.671,0.117-9.996-0.042
			c-1.816-0.087-2.124,0.586-2.115,2.217c0.063,11.737,0.038,23.475,0.032,35.212c-0.003,5.881-2.94,8.851-8.792,8.823
			c-1.793-0.009-4.093,0.774-5.247-0.326c-1.172-1.116-0.362-3.436-0.367-5.222c-0.037-12.824-0.061-25.649,0.026-38.472
			c0.013-1.855-0.522-2.267-2.294-2.228c-5.504,0.119-11.012,0-16.518,0.071c-1.389,0.018-1.843-0.332-1.847-1.794
			c-0.015-5.741,3.014-8.928,8.774-8.948c7.39-0.026,14.78-0.006,22.171-0.007c7.535,0,15.071,0.06,22.605-0.044
			c1.78-0.025,2.181,0.543,2.143,2.21C249.1,162.206,245.951,165.432,240.646,165.463z M259.524,209.858
			c5.007-7.631,9.997-15.274,15.091-22.846c0.848-1.261,0.745-2.03-0.11-3.203c-6.487-8.899-12.902-17.85-19.323-26.798
			c-0.449-0.626-1.097-1.154-1.245-2.257c4.292,0,8.419-0.032,12.546,0.011c2.882,0.03,5.124,1.298,6.777,3.679
			c3.099,4.463,6.274,8.874,9.335,13.362c0.829,1.215,1.209,1.269,2.025-0.017c2.794-4.403,5.727-8.718,8.55-13.103
			c1.623-2.523,3.886-3.871,6.854-3.915c4.051-0.06,8.103-0.015,12.117-0.015c0.472,0.762-0.15,1.158-0.432,1.588
			c-11.299,17.191-22.618,34.369-33.928,51.554c-1.638,2.489-3.887,3.81-6.902,3.798c-4.047-0.017-8.093-0.004-12.136-0.004
			C258.601,210.802,259.187,210.372,259.524,209.858z M333.223,276.389c-7.324,4.812-16.02,7.437-25.029,7.439
			c-24.251,0.005-44.513-19.645-45.155-43.746c-0.031-1.177,0.146-1.808,1.466-1.628c0.427,0.058,0.868,0.009,1.302,0.009
			c5.69-0.003,6.531,0.708,7.494,6.342c4.181,24.451,32.332,37.125,53.513,24.03c1.633-1.01,2.408-1.025,3.41,0.69
			c0.902,1.544,2.097,2.978,3.401,4.207C334.982,275.01,334.512,275.543,333.223,276.389z M399.306,258.135
			c-5.46,16.142-21.185,26.874-38.334,25.564c-15.262-1.166-26.405-8.991-32.378-23.07c-5.985-14.106-3.554-27.361,6.047-39.291
			c0.134-0.166,0.313-0.295,0.654-0.611c1.956,2.919,3.195,5.977,4.148,9.186c0.303,1.019-0.199,1.662-0.603,2.403
			c-9.276,17.027,0.608,37.802,19.663,41.32c15.78,2.914,30.512-8.067,32.833-24.472c2.126-15.027-9.542-29.58-24.903-31.139
			c-4.189-0.425-8.25,0.001-12.194,1.407c-1.048,0.374-1.465,0.204-1.938-0.815c-0.943-2.031-1.939-4.069-3.193-5.914
			c-0.993-1.462-0.327-1.734,0.883-2.165c12.149-4.325,23.725-3.146,34.468,3.98C398.849,224.065,404.805,241.881,399.306,258.135z"
			/>
		<path style="fill:#ED7100;" d="M38.387,210.089c0.147-0.116,0.041,0.023-0.086-0.071c-0.003,0.013-0.008,0.026-0.011,0.04
			C38.315,210.104,38.341,210.124,38.387,210.089z"/>
		<path style="fill:#ED7100;" d="M94.949,160.332c0-5.677,0-5.677-5.621-5.581c-5.218,0.089-8.352,3.239-8.365,8.465
			c-0.018,7.607,0.004,15.213-0.023,22.82c-0.002,0.585,0.319,1.274-0.35,1.868c-0.564-0.599-1.111-1.163-1.639-1.744
			c-9.009-9.921-18.011-19.849-27.033-29.758c-0.608-0.667-1.045-1.66-2.161-1.642c-2.095,0.034-4.223-0.278-6.276,0.282
			c-2.928,0.798-4.995,2.529-5.584,5.672c0.618,0.491,0.435,1.187,0.436,1.817c0.008,15.725,0.007,31.451,0.001,47.176
			c0,0.104-0.012,0.209-0.033,0.313c0.126,0.094,0.232-0.045,0.086,0.071c-0.045,0.036-0.072,0.015-0.097-0.031
			c-0.053,0.224-0.172,0.447-0.457,0.665c0-16.573,0-33.146,0-49.719l0,0c-0.523,0.949-0.311,1.984-0.312,2.982
			c-0.015,13.763-0.03,27.525,0.011,41.288c0.006,2.073-0.969,5.066,0.395,6.008c1.831,1.264,4.755,0.542,7.183,0.286
			c3.34-0.352,5.804-3.028,6.285-6.481c-0.551-0.42-0.439-1.03-0.439-1.597c-0.004-8.467-0.003-16.933,0.002-25.4
			c0-0.274,0.068-0.548,0.472-0.812c0,9.154,0,18.309,0,27.463l0,0l0,0c0.392-0.752,0.22-1.565,0.221-2.349
			c0.013-7.751,0.001-15.503,0.021-23.254c0.002-0.678-0.23-1.411,0.336-2.222c0.426,0.471,0.797,0.877,1.163,1.287
			c9.559,10.693,19.116,21.388,28.684,32.073c0.469,0.524,0.798,1.286,1.605,1.375c5.836,0.641,11.534-0.926,11.504-8.72
			C94.91,188.73,94.949,174.531,94.949,160.332z"/>
		<path style="fill:#004799;" d="M384.458,214.52c-10.743-7.126-22.319-8.305-34.468-3.98c-1.209,0.431-1.876,0.703-0.883,2.165
			c1.254,1.845,2.251,3.883,3.193,5.914c0.473,1.019,0.89,1.189,1.938,0.815c3.944-1.406,8.005-1.832,12.194-1.407
			c15.361,1.559,27.029,16.111,24.903,31.139c-2.321,16.405-17.054,27.386-32.833,24.472c-19.055-3.519-28.939-24.293-19.663-41.32
			c0.404-0.742,0.906-1.384,0.603-2.403c-0.953-3.209-2.192-6.268-4.148-9.186c-0.341,0.316-0.52,0.445-0.654,0.611
			c-9.601,11.93-12.031,25.185-6.047,39.291c5.973,14.078,17.116,21.904,32.378,23.07c17.149,1.31,32.873-9.423,38.334-25.564
			C404.805,241.881,398.849,224.065,384.458,214.52z"/>
		<path style="fill:#004799;" d="M297.828,204.03c0.703-0.153,1.394-0.314,2.089-0.452c13.705-2.716,25.566,0.79,34.789,11.307
			c9.22,10.514,11.385,22.808,6.537,35.908c-1.277,3.452-0.834,5.865,1.041,8.517c0.585,0.828,1.149,1.674,1.785,2.461
			c1.637,2.028,1.651,2.016,2.956-0.17c14.936-25.022,2.591-57.636-25.191-66.517c-1.819-0.581-3.683-1.021-5.52-1.526
			c0.07-0.297,0.068-0.457,0.141-0.568c5.958-9.085,11.944-18.153,17.857-27.267c0.697-1.074,1.546-1.081,2.577-1.079
			c8.915,0.013,17.83-0.01,26.745,0.017c2.968,0.009,5.399-1.032,7.085-3.494c1.058-1.546,1.946-3.208,2.91-4.819
			c-0.299-1.754-1.702-1.268-2.756-1.27c-13.012-0.029-26.024-0.02-39.036-0.017c-0.866,0-1.739-0.053-2.566,0.292
			c-0.148,0.154-0.325,0.288-0.44,0.464c-10.305,15.762-20.606,31.527-30.903,47.294
			C297.747,203.389,297.423,203.673,297.828,204.03z"/>
		<path style="fill:#ED7100;" d="M185.358,154.706c-14.206,0.076-28.412,0.035-42.619,0.047c-5.914,0.005-8.997,3.083-9.007,8.971
			c-0.012,7.538-0.003,15.076-0.003,22.614c0,6.451-0.032,12.902,0.019,19.352c0.015,1.934-0.855,4.464,0.39,5.643
			c1.225,1.16,3.733,0.343,5.673,0.339c5.159-0.011,8.232-3.104,8.264-8.264c0.027-4.349,0.076-8.699-0.031-13.046
			c-0.039-1.594,0.354-2.143,2.032-2.105c4.854,0.111,9.712,0.054,14.568,0.032c5.243-0.023,8.253-3.13,8.437-8.414
			c0.062-1.776-0.395-2.339-2.238-2.31c-6.884,0.109-13.772-0.023-20.656,0.088c-1.787,0.029-2.219-0.545-2.141-2.211
			c0.126-2.676,0.126-5.366,0-8.042c-0.074-1.571,0.488-1.914,1.968-1.904c9.64,0.062,19.28,0.038,28.92,0.029
			c5.57-0.006,8.579-3.063,8.714-8.557C187.694,155.148,187.155,154.696,185.358,154.706z"/>
		<path style="fill:#ED7000;" d="M277.782,207.896c11.309-17.185,22.628-34.363,33.928-51.554c0.283-0.43,0.905-0.826,0.432-1.588
			c-4.014,0-8.067-0.045-12.117,0.015c-2.968,0.044-5.231,1.392-6.854,3.915c-2.822,4.386-5.755,8.7-8.55,13.103
			c-0.816,1.286-1.196,1.232-2.025,0.017c-3.061-4.488-6.236-8.899-9.335-13.362c-1.653-2.381-3.895-3.649-6.777-3.679
			c-4.127-0.043-8.255-0.011-12.546-0.011c0.148,1.103,0.796,1.631,1.245,2.257c6.42,8.947,12.835,17.899,19.323,26.798
			c0.855,1.173,0.958,1.942,0.11,3.203c-5.094,7.573-10.084,15.215-15.091,22.846c-0.337,0.514-0.923,0.945-0.78,1.832
			c4.043,0,8.09-0.013,12.136,0.004C273.895,211.707,276.144,210.386,277.782,207.896z"/>
		<path style="fill:#ED7100;" d="M247.079,154.703c-7.534,0.104-15.07,0.044-22.605,0.044c-7.39,0-14.781-0.02-22.171,0.007
			c-5.761,0.021-8.789,3.207-8.774,8.948c0.004,1.463,0.458,1.812,1.847,1.794c5.505-0.071,11.014,0.048,16.518-0.071
			c1.772-0.038,2.307,0.373,2.294,2.228c-0.087,12.824-0.063,25.648-0.026,38.472c0.005,1.786-0.805,4.105,0.367,5.222
			c1.154,1.099,3.453,0.317,5.247,0.326c5.852,0.029,8.789-2.942,8.792-8.823c0.006-11.737,0.031-23.475-0.032-35.212
			c-0.009-1.631,0.299-2.303,2.115-2.217c3.325,0.159,6.664,0.062,9.996,0.042c5.304-0.032,8.453-3.258,8.576-8.551
			C249.261,155.245,248.859,154.678,247.079,154.703z"/>
		<path style="fill:#004799;" d="M330.225,269.524c-1.002-1.714-1.777-1.699-3.41-0.69c-21.181,13.095-49.332,0.422-53.513-24.03
			c-0.963-5.634-1.804-6.345-7.494-6.342c-0.435,0-0.876,0.05-1.302-0.009c-1.32-0.18-1.497,0.451-1.466,1.628
			c0.642,24.101,20.904,43.751,45.155,43.746c9.009-0.002,17.705-2.627,25.029-7.439c1.289-0.847,1.759-1.38,0.403-2.658
			C332.322,272.501,331.127,271.067,330.225,269.524z"/>
		<path style="fill:#ED7100;" d="M120.004,154.73c-1.735,0.077-3.48-0.051-5.214,0.046c-3.834,0.215-6.454,2.389-7.297,5.936
			c0.619,0.49,0.436,1.186,0.437,1.816c0.008,15.725,0.007,31.451,0.002,47.176c0,0.105-0.012,0.21-0.033,0.314
			c0.127,0.094,0.234-0.045,0.086,0.071c-0.045,0.036-0.072,0.014-0.097-0.032c-0.053,0.224-0.172,0.447-0.458,0.665
			c0-16.573,0-33.147,0-49.72l0,0l0,0c-0.5,0.877-0.302,1.84-0.303,2.766c-0.013,14.125-0.025,28.25,0.012,42.376
			c0.005,1.783-0.813,4.105,0.377,5.214c1.164,1.084,3.458,0.31,5.253,0.315c5.699,0.016,8.687-3.002,8.691-8.718
			c0.008-12.097,0.003-24.194,0.003-36.291c0-3.477-0.036-6.955,0.021-10.431C121.503,155.109,121.152,154.679,120.004,154.73z"/>
		<path style="fill:#ED7100;" d="M107.985,210.09c0.147-0.116,0.04,0.023-0.086-0.071c-0.003,0.013-0.008,0.026-0.011,0.039
			C107.913,210.104,107.94,210.126,107.985,210.09z"/>
		<path style="fill:#EC6C01;" d="M37.897,160.712c-0.115,0.076-0.137,0.173-0.063,0.29l0,0c0.251,0.335,0.322,0.695,0.33,1.061
			C38.18,161.603,38.149,161.146,37.897,160.712z"/>
		<path style="fill:#EC6C01;" d="M38.113,209.296c0,0.091,0,0.183,0,0.273c0.033,0.214,0.086,0.331,0.14,0.4
			c-0.006-0.016-0.01-0.021-0.017-0.04C38.163,209.72,38.131,209.508,38.113,209.296z"/>
		<path style="fill:#EC6C01;" d="M38.117,163.051c0-0.053,0.003-0.106,0.004-0.16c-0.011,0.142-0.021,0.283-0.021,0.422
			c0.017,15.195,0.016,30.383,0.013,45.121c0.012-0.213,0.023-0.426,0.023-0.638C38.125,192.881,38.131,177.966,38.117,163.051z"/>
		<path style="fill:#EC6C01;" d="M38.164,162.064c0.006,0.275-0.021,0.552-0.043,0.828c-0.002,0.053-0.004,0.107-0.004,0.16
			c0.015,14.915,0.008,29.83,0.02,44.745c0,0.212-0.011,0.425-0.023,0.638c0,0.285,0,0.576,0,0.862
			c0.018,0.212,0.05,0.424,0.123,0.633c0.007,0.019,0.011,0.023,0.017,0.04c0.016,0.02,0.032,0.037,0.048,0.049
			c0.021-0.104,0.033-0.208,0.033-0.313c0.005-15.725,0.006-31.451-0.001-47.176c0-0.63,0.182-1.325-0.436-1.817
			C38.149,161.146,38.18,161.603,38.164,162.064z"/>
		<path style="fill:#EC6C01;" d="M38.29,210.057c0.003-0.013,0.008-0.026,0.011-0.04c-0.016-0.012-0.032-0.028-0.048-0.049
			C38.266,210.005,38.279,210.036,38.29,210.057z"/>
		<path style="fill:#EC6C01;" d="M38.164,162.064c-0.01,0.276-0.034,0.554-0.043,0.828C38.143,162.616,38.17,162.338,38.164,162.064
			z"/>
		<path style="fill:#EC6C01;" d="M38.29,210.057c-0.011-0.021-0.024-0.052-0.037-0.088c-0.054-0.068-0.107-0.186-0.14-0.4
			c0-0.09,0-0.183,0-0.273c-0.024-0.286-0.016-0.574,0-0.862c0.003-14.737,0.005-29.925-0.013-45.121
			c0-0.139,0.009-0.28,0.021-0.422c0.009-0.274,0.033-0.551,0.043-0.828c-0.008-0.366-0.08-0.726-0.33-1.061
			c0,16.573,0,33.146,0,49.719C38.118,210.504,38.237,210.282,38.29,210.057z"/>
		<path style="fill:#EC6C01;" d="M38.113,209.296c0-0.285,0-0.576,0-0.862C38.098,208.722,38.089,209.01,38.113,209.296z"/>
		<path style="fill:#EC6B00;" d="M107.494,160.713c-0.116,0.076-0.137,0.172-0.063,0.289c0.252,0.335,0.323,0.695,0.332,1.061
			C107.779,161.603,107.747,161.146,107.494,160.713z"/>
		<path style="fill:#EC6B00;" d="M107.715,163.051c0-0.053,0.003-0.106,0.004-0.16c-0.011,0.142-0.021,0.283-0.021,0.422
			c0.018,15.186,0.014,30.364,0.014,45.098c0.011-0.205,0.022-0.409,0.022-0.613C107.723,192.882,107.729,177.966,107.715,163.051z"
			/>
		<path style="fill:#EC6B00;" d="M107.712,209.325c0,0.083,0,0.168,0,0.25c0.033,0.213,0.086,0.329,0.14,0.397
			c-0.006-0.017-0.01-0.021-0.018-0.042C107.765,209.73,107.731,209.528,107.712,209.325z"/>
		<path style="fill:#EC6B00;" d="M107.762,162.063c0.006,0.275-0.021,0.553-0.043,0.828c-0.002,0.053-0.004,0.107-0.004,0.16
			c0.015,14.916,0.008,29.831,0.02,44.747c0,0.203-0.011,0.408-0.022,0.613c0,0.303,0,0.612,0,0.915
			c0.019,0.203,0.052,0.405,0.122,0.605c0.007,0.02,0.011,0.025,0.018,0.042c0.016,0.019,0.031,0.035,0.047,0.047
			c0.021-0.105,0.033-0.209,0.033-0.314c0.005-15.725,0.006-31.451-0.002-47.176c0-0.63,0.182-1.326-0.437-1.816
			C107.747,161.146,107.779,161.603,107.762,162.063z"/>
		<path style="fill:#EC6B00;" d="M107.431,210.722c0.285-0.218,0.404-0.441,0.458-0.665c-0.011-0.021-0.023-0.051-0.036-0.085
			c-0.054-0.068-0.107-0.184-0.14-0.397c0-0.083,0-0.168,0-0.25c-0.028-0.304-0.017-0.61,0-0.915
			c0.001-14.734,0.004-29.912-0.014-45.098c0-0.139,0.009-0.28,0.021-0.422c0.009-0.274,0.033-0.551,0.043-0.828
			c-0.008-0.366-0.08-0.726-0.332-1.061l0,0C107.431,177.576,107.431,194.149,107.431,210.722z"/>
		<path style="fill:#EC6B00;" d="M107.888,210.058c0.003-0.013,0.008-0.026,0.011-0.039c-0.015-0.011-0.031-0.027-0.047-0.047
			C107.865,210.007,107.877,210.037,107.888,210.058z"/>
		<path style="fill:#EC6B00;" d="M107.712,209.325c0-0.303,0-0.612,0-0.915C107.696,208.715,107.684,209.021,107.712,209.325z"/>
		<path style="fill:#EC6B00;" d="M107.762,162.063c-0.01,0.277-0.034,0.554-0.043,0.828
			C107.741,162.616,107.768,162.338,107.762,162.063z"/>
		<path style="fill:#EC6B00;" d="M51.164,177.982c0,8.256-0.007,16.512,0.011,24.768c0.002,0.777-0.218,1.592,0.22,2.334
			c0.108-0.105,0.12-0.22,0.035-0.345c-0.106-0.185-0.24-0.348-0.241-0.587C51.159,195.43,51.19,186.706,51.164,177.982z"/>
		<path style="fill:#EC6B00;" d="M51.43,177.277c-0.403,0.264-0.472,0.538-0.472,0.812c-0.006,8.467-0.006,16.933-0.002,25.4
			c0,0.567-0.112,1.176,0.439,1.597c-0.438-0.742-0.218-1.557-0.22-2.334c-0.018-8.256-0.011-16.512-0.011-24.768
			c0.026,8.724-0.005,17.447,0.026,26.171c0.001,0.239,0.135,0.402,0.241,0.587l0,0C51.43,195.585,51.43,186.431,51.43,177.277z"/>
	</g>
</g>
</svg>
