<?xml version="1.0" encoding="iso-8859-1"?>
<!-- Generator: Adobe Illustrator 22.0.1, SVG Export Plug-In . SVG Version: 6.00 Build 0)  -->
<svg version="1.1" id="Layer_1" xmlns="http://www.w3.org/2000/svg" xmlns:xlink="http://www.w3.org/1999/xlink" x="0px" y="0px"
	 viewBox="0 0 438.53 438.53" style="enable-background:new 0 0 438.53 438.53;" xml:space="preserve">
<g id="_x31_27">
	<g>
		<path style="fill:#3B5998;" d="M407.603,110.087c-19.45-33.321-45.833-59.704-79.155-79.153
			c-33.328-19.448-69.711-29.17-109.176-29.17c-39.461,0-75.854,9.722-109.177,29.17C76.771,50.38,50.388,76.763,30.938,110.087
			c-19.451,33.326-29.173,69.72-29.173,109.178c0,39.46,9.725,75.847,29.17,109.175c19.449,33.321,45.832,59.704,79.156,79.155
			c33.326,19.447,69.717,29.17,109.177,29.17s75.854-9.723,109.179-29.17c33.322-19.444,59.704-45.834,79.152-79.155
			c19.445-33.325,29.166-69.718,29.166-109.175C436.766,179.803,427.044,143.409,407.603,110.087z M281.058,131.213h-29.849
			c-4.896,0-11.781,2.446-11.781,12.865v27.776h41.506l-4.852,47.152h-36.657V353.3h-55.538V219.007h-26.414V171.81h26.414v-30.541
			c0-21.84,10.375-56.04,56.033-56.04l41.139,0.172v45.812H281.058z"/>
		<path style="fill:#FFFFFF;" d="M183.886,141.269v30.541h-26.414v47.196h26.414V353.3h55.538V219.007h36.657l4.852-47.152h-41.506
			v-27.776c0-10.419,6.885-12.865,11.781-12.865h29.849V85.401l-41.139-0.172C194.261,85.229,183.886,119.429,183.886,141.269z"/>
	</g>
</g>
</svg>
