<?xml version="1.0" encoding="iso-8859-1"?>
<!-- Generator: Adobe Illustrator 22.0.1, SVG Export Plug-In . SVG Version: 6.00 Build 0)  -->
<svg version="1.1" id="Layer_1" xmlns="http://www.w3.org/2000/svg" xmlns:xlink="http://www.w3.org/1999/xlink" x="0px" y="0px"
	 viewBox="0 0 438.53 438.53" style="enable-background:new 0 0 438.53 438.53;" xml:space="preserve">
<g id="_x31_38">
	<g>
		<path style="fill:#F37022;" d="M125.113,199.44l-5.969-15.091c52.645-18.248,73.875-25.267,116.689-32.464l-7.716-7.019
			l7.542,7.019c-42.639,7.193-63.874,14.212-116.518,32.464l5.969,15.091l-17.897,17.897c0,0.001,0.002,0.001,0.002,0.002
			L125.113,199.44z"/>
		<path style="fill:#F37022;" d="M291.868,173.342c0.995-5.094,0.461-9.223-1.247-12.651
			C292.279,164.111,292.784,168.239,291.868,173.342z"/>
		<path style="fill:#F37022;" d="M407.603,110.087c-19.45-33.321-45.833-59.704-79.155-79.153
			c-33.328-19.448-69.711-29.17-109.176-29.17c-39.461,0-75.854,9.722-109.177,29.17C76.771,50.38,50.388,76.763,30.938,110.087
			c-19.451,33.326-29.173,69.72-29.173,109.178c0,39.46,9.725,75.847,29.17,109.175c19.449,33.321,45.832,59.704,79.156,79.155
			c33.326,19.447,69.717,29.17,109.177,29.17s75.854-9.723,109.179-29.17c33.322-19.444,59.704-45.834,79.152-79.155
			c19.445-33.325,29.166-69.718,29.166-109.175C436.766,179.803,427.044,143.409,407.603,110.087z M214.432,287.706
			c0.174-6.666,3.509-13.863,8.595-21.409c5.09-7.546,12.112-15.618,19.305-23.865c10.706-12.283,37.371-41.764,46.323-59.485
			c1.565-3.458,2.596-6.571,3.168-9.395c1.133-16.071-19.029-22.382-50.192-31.138l-5.795,3.684l11.407,9.475
			c-51.239,8.952-82.823,18.779-120.202,31.763l4.915,13.333l-18.604,18.426c3.161,0.879,35.799,11.934,70.017-11.93
			c0.174-0.174,0.701-0.353,0.701-0.705c-1.228-1.755-3.335-3.335-6.14-5.969c9.827,0.705,16.319,9.475,15.091,18.601h-4.563
			c0.527-2.808-0.174-6.139-1.402-8.247c-26.146,19.302-56.855,22.11-83.001,12.988v22.811
			c-12.814,4.385-35.446,18.426-35.272,31.937c0.875,6.492,4.211,8.777,7.371,10.532l0,0c-1.58-0.356-3.862-1.58-5.617-2.987
			c-15.97-15.265,4.385-33.165,27.901-43.515v-29.479c-0.001-0.001-0.003-0.001-0.004-0.002v29.481
			c-23.512,10.35-43.871,28.249-27.901,43.515c1.755,1.406,4.036,2.634,5.617,2.986h-0.178
			c28.958,16.319,107.218-5.969,107.044-5.969l0,0c-28.253,14.564-55.279,25.972-97.391,27.552
			c-54.225-1.057-62.646-37.205-36.852-74.933c24.213-38.076,62.824-72.647,124.413-94.23c17.547-6.143,44.049-13.511,69.142-13.689
			c36.322-0.349,71.59,11.055,69.316,45.626c-1.232,26.673-39.657,64.401-59.842,91.426c-8.777,11.76-10.176,19.302,4.563,18.771
			c53.524-3.502,102.481-22.106,147.406-41.408C373.586,262.788,215.311,341.222,214.432,287.706z"/>
		<path style="fill:#F37022;" d="M290.007,159.571c0.209,0.357,0.417,0.714,0.598,1.087
			C290.419,160.287,290.219,159.925,290.007,159.571z"/>
		<polygon style="fill:#F37022;" points="240.755,137.5 240.752,137.499 228.117,144.867 240.752,137.499 		"/>
		<path d="M290.621,160.691c-0.005-0.011-0.01-0.022-0.016-0.033c-0.182-0.373-0.39-0.73-0.598-1.087
			c-7.152-11.924-29.312-14.985-49.252-22.07c-0.001,0-0.002-0.001-0.003-0.001l-12.635,7.367l7.716,7.019
			c-42.814,7.197-64.044,14.216-116.689,32.464l5.969,15.091l-17.899,17.899c0-0.001-0.002-0.001-0.002-0.002l-0.002,0.002
			c-0.352-0.527-3.156-0.875-8.77-4.208v29.479c-23.516,10.35-43.871,28.249-27.901,43.515c1.755,1.406,4.036,2.63,5.617,2.987l0,0
			c-3.161-1.755-6.496-4.04-7.371-10.532c-0.174-13.511,22.458-27.552,35.272-31.937v-22.811
			c26.146,9.122,56.855,6.314,83.001-12.988c1.228,2.107,1.929,5.438,1.402,8.247h4.563c1.228-9.126-5.264-17.896-15.091-18.601
			c2.804,2.634,4.912,4.214,6.14,5.969c0,0.352-0.527,0.531-0.701,0.705c-34.218,23.865-66.856,12.81-70.017,11.93l18.604-18.426
			l-4.915-13.333c37.379-12.984,68.964-22.811,120.202-31.763l-11.407-9.475l5.795-3.684c31.164,8.755,51.326,15.067,50.192,31.138
			c0.014-0.07,0.03-0.141,0.044-0.211C292.784,168.239,292.279,164.111,290.621,160.691z"/>
		<path style="fill:#FFFFFF;" d="M251.803,264.895c20.185-27.025,58.61-64.753,59.842-91.426
			c2.274-34.571-32.994-45.974-69.316-45.626c-25.092,0.178-51.595,7.546-69.142,13.689
			c-61.589,21.583-100.199,56.154-124.413,94.23c-25.794,37.728-17.373,73.875,36.852,74.933
			c42.113-1.58,69.138-12.988,97.391-27.552l0,0c0.174,0-78.086,22.288-107.044,5.969h0.178c-1.58-0.352-3.862-1.58-5.617-2.986
			c-15.97-15.265,4.389-33.165,27.901-43.515V213.13c0.001,0.001,0.003,0.001,0.004,0.002v-0.002
			c5.609,3.331,8.413,3.683,8.771,4.208l17.897-17.897l-5.969-15.091c52.645-18.252,73.879-25.271,116.518-32.464l-7.542-7.019
			l12.635-7.367c0.001,0,0.002,0.001,0.003,0.001c21.803,7.312,42.483,10.503,49.252,22.07c0.213,0.354,0.413,0.716,0.598,1.087
			c0.005,0.011,0.01,0.022,0.016,0.033c1.708,3.429,2.242,7.557,1.247,12.651c-0.019,0.105-0.027,0.203-0.047,0.309
			c0.003-0.033,0.001-0.065,0.003-0.098c-0.572,2.823-1.603,5.937-3.168,9.395c-8.952,17.721-35.617,47.202-46.323,59.485
			c-7.193,8.247-14.216,16.319-19.305,23.865c-5.086,7.546-8.421,14.743-8.595,21.409c0.879,53.516,159.154-24.918,189.34-45.448
			c-44.925,19.302-93.882,37.906-147.406,41.408C241.628,284.196,243.026,276.655,251.803,264.895z"/>
		<path style="fill:#FFFFFF;" d="M290.007,159.571c-6.768-11.568-27.448-14.758-49.252-22.07
			C260.695,144.586,282.854,147.647,290.007,159.571z"/>
		<path style="fill:#FFFFFF;" d="M290.605,160.657c0.005,0.011,0.01,0.022,0.016,0.033
			C290.615,160.68,290.61,160.668,290.605,160.657z"/>
		<path style="fill:#FFFFFF;" d="M107.21,217.34l0.002-0.002c-0.358-0.526-3.162-0.878-8.771-4.208v0.002
			C104.054,216.464,106.857,216.813,107.21,217.34z"/>
		<path style="fill:#FFFFFF;" d="M291.868,173.342c-0.014,0.07-0.03,0.141-0.044,0.211c-0.002,0.033-0.001,0.065-0.003,0.098
			C291.84,173.545,291.849,173.447,291.868,173.342z"/>
	</g>
</g>
</svg>
