<?xml version="1.0" encoding="iso-8859-1"?>
<!-- Generator: Adobe Illustrator 22.0.1, SVG Export Plug-In . SVG Version: 6.00 Build 0)  -->
<svg version="1.1" id="Layer_1" xmlns="http://www.w3.org/2000/svg" xmlns:xlink="http://www.w3.org/1999/xlink" x="0px" y="0px"
	 viewBox="0 0 438.53 438.53" style="enable-background:new 0 0 438.53 438.53;" xml:space="preserve">
<g id="_x31_41">
	<g>
		<path style="fill:#0052B4;" d="M86.953,309.624l-27.127-6.114l21.788-17.277L69.48,261.211l27.094,6.262l11.997-25.087
			l11.998,25.087l27.092-6.262l-2.004,4.133l88.265-88.265l-5.247-10.822l13.051,3.018l1.054-1.054l5.44-11.376l1.92,4.016
			l43.067-43.067l0.009-3.366l-13.563-3.058l10.893-8.638l-6.065-12.511l13.546,3.131l5.999-12.544l5.999,12.544l9.917-2.292
			l39.042-39.042C311.617,12.583,251.331-3.646,193.333,3.345c0,2.368,0,4.673,0,6.933c0,21.9,0,39.045,0,57.027
			c0,9.051,0,18.315,0,28.514h-64.225l64.226,64.226c0,11.87,0,25.011,0,39.738l-0.001,0.001c0,0.197,0,0.386,0,0.584h-0.001h-0.583
			h-0.001h-39.74l-64.225-64.225v64.225H60.27H3.242H2.63c-0.564,6.408-0.86,12.835-0.861,19.263
			c0,49.563,16.766,99.107,50.259,139.341l34.886-34.885L86.953,309.624z"/>
		<path style="fill:#F0F0F0;" d="M192.749,200.368h0.583l-0.292-0.292C192.944,200.174,192.847,200.271,192.749,200.368z"/>
		<path style="fill:#F0F0F0;" d="M90.047,97.083l-1.263-1.263h2.525c9.622-9.623,19.209-19.211,28.512-28.515H63.754
			c-1.178,1.205-2.34,2.419-3.484,3.644v55.911C70.031,117.1,80.05,107.08,90.047,97.083z"/>
		<path style="fill:#F0F0F0;" d="M182.114,5c-7.731,1.34-15.402,3.102-22.979,5.278h17.703C178.666,8.449,180.425,6.69,182.114,5z"
			/>
		<path style="fill:#F0F0F0;" d="M90.047,97.083C80.05,107.08,70.031,117.1,60.27,126.861v73.508h28.513v-64.225l64.225,64.225
			h39.74c0.098-0.097,0.195-0.195,0.292-0.292L90.047,97.083z"/>
		<path style="fill:#F0F0F0;" d="M91.309,95.82h24.357l77.667,77.666c0,7.475,0,23.109,0,26.297v0.001l0.001-0.001
			c0-14.728,0-27.869,0-39.738l-64.226-64.226h64.225c0-10.199,0-19.463,0-28.514h-73.512
			C110.519,76.609,100.931,86.198,91.309,95.82z"/>
		<path style="fill:#F0F0F0;" d="M193.333,10.278c0-2.26,0-4.565,0-6.933c-3.751,0.452-7.491,1.009-11.219,1.655
			c-1.689,1.69-3.448,3.449-5.276,5.278H193.333z"/>
		<path style="fill:#F0F0F0;" d="M3.242,194.312c-0.234,2.016-0.435,4.035-0.612,6.056h0.612V194.312z"/>
		<path style="fill:#F0F0F0;" d="M193.04,200.076c-0.097,0.097-0.194,0.195-0.292,0.292h0.001
			C192.847,200.271,192.944,200.174,193.04,200.076L193.04,200.076z"/>
		<path style="fill:#D80027;" d="M60.27,70.949c-29.83,31.942-48.254,70.749-55.262,111.169
			c15.556-15.553,34.839-34.834,55.262-55.258V70.949z"/>
		<path style="fill:#D80027;" d="M176.838,10.278h-17.703C124.827,20.13,92.479,38.531,65.504,65.51
			c-0.593,0.593-1.166,1.198-1.751,1.796h56.067C141.424,45.7,161.484,25.636,176.838,10.278z"/>
		<path style="fill:#D80027;" d="M119.822,67.305h73.512c0-17.983,0-35.128,0-57.027h-16.495
			C161.484,25.636,141.424,45.7,119.822,67.305z"/>
		<path style="fill:#D80027;" d="M60.27,200.368V126.86c-20.424,20.424-39.706,39.705-55.262,55.258
			c-0.702,4.051-1.292,8.117-1.765,12.194v6.056H60.27z"/>
		<path style="fill:#D80027;" d="M193.332,200.368L193.332,200.368c0.001-0.198,0.001-0.387,0.001-0.584
			c-0.097,0.098-0.195,0.195-0.292,0.292L193.332,200.368z"/>
		<path style="fill:#D80027;" d="M88.784,95.82l1.263,1.263c0.421-0.421,0.842-0.842,1.263-1.263H88.784z"/>
		<path style="fill:#D80027;" d="M193.333,199.784c0-3.189,0-18.822,0-26.297L115.666,95.82H91.309
			c-0.421,0.421-0.842,0.842-1.263,1.263L193.04,200.076C193.138,199.979,193.236,199.881,193.333,199.784z"/>
		<path style="fill:#D80027;" d="M193.04,200.076L193.04,200.076c0.098-0.097,0.196-0.194,0.293-0.292v-0.001
			C193.236,199.881,193.138,199.979,193.04,200.076z"/>
		<polygon style="fill:#F0F0F0;" points="147.66,261.211 120.568,267.473 108.57,242.387 96.574,267.473 69.479,261.211 
			81.614,286.233 59.826,303.51 86.953,309.624 86.914,324.087 145.656,265.344 		"/>
		<polygon style="fill:#F0F0F0;" points="228.674,166.258 233.921,177.08 241.725,169.275 		"/>
		<polygon style="fill:#F0F0F0;" points="248.219,156.846 242.779,168.222 250.139,160.861 		"/>
		<polygon style="fill:#F0F0F0;" points="310.023,93.353 304.024,80.809 298.025,93.353 284.479,90.222 290.545,102.733 
			279.652,111.371 293.215,114.429 293.206,117.795 319.94,91.061 		"/>
		<path style="fill:#D80027;" d="M386.548,79.605L284.084,182.07v27.594h81.13v81.13h-81.13v81.13h-81.131v-81.13H175.36
			l-95.752,95.752c40.225,33.466,89.749,50.219,139.292,50.219c55.812-0.007,111.645-21.252,154.122-63.736
			C453.235,292.828,457.734,165.154,386.548,79.605z"/>
		<polygon style="fill:#F0F0F0;" points="202.953,290.793 202.953,371.923 284.084,371.923 284.084,290.793 365.214,290.793 
			365.214,209.663 284.084,209.663 284.084,182.07 175.361,290.793 		"/>
		<path style="fill:#FFFFFF;" d="M373.023,64.764c0.134,0.134,0.262,0.271,0.395,0.405c0.116,0.115,0.235,0.225,0.351,0.341
			l-0.009,0.009c4.506,4.549,8.766,9.252,12.788,14.086l0.248-0.248c-8.418-9.926-17.705-19.101-27.755-27.398l-0.059,0.059
			c4.817,4.011,9.497,8.265,14.031,12.756L373.023,64.764z"/>
		<path style="fill:#FFFFFF;" d="M64.766,373.021l0.746,0.746c-0.125-0.125-0.244-0.253-0.368-0.378
			C65.018,373.265,64.89,373.146,64.766,373.021z"/>
		<path style="fill:#FFFFFF;" d="M52.028,358.972l-0.248,0.248c2.054,2.421,4.158,4.8,6.315,7.129l6.671,6.671l0.01-0.01
			C60.284,368.477,56.039,363.79,52.028,358.972z"/>
		<path style="fill:#FFFFFF;" d="M65.512,373.767l4.476,4.476c3.104,2.877,6.286,5.672,9.555,8.368l0.067-0.067
			c-4.835-4.023-9.538-8.281-14.088-12.787L65.512,373.767z"/>
		<polygon style="fill:#FFFFFF;" points="314.833,114.429 314.856,122.931 325.839,111.947 		"/>
		<polygon style="fill:#FFFFFF;" points="242.779,168.222 241.725,169.275 242.22,169.39 		"/>
		<path style="fill:#FFFFFF;" d="M323.569,90.222l-6.066,12.511l9.789,7.763l36.418-36.418l9.303-9.303
			c-4.533-4.491-9.214-8.745-14.031-12.756L319.94,91.061L323.569,90.222z"/>
		<polygon style="fill:#FFFFFF;" points="267.764,166.258 264.219,173.568 284.084,153.703 311.865,125.922 304.024,119.634 
			293.177,128.333 293.206,117.795 250.139,160.861 254.217,169.39 		"/>
		<path style="fill:#FFFFFF;" d="M74.093,363.694L74.093,363.694l39.573-39.573l-5.096-4.086l-21.693,17.397l0.036-13.345
			l-34.886,34.885c4.011,4.818,8.256,9.505,12.747,14.039L74.093,363.694z"/>
		<polygon style="fill:#FFFFFF;" points="144.466,293.321 146.994,290.793 237.383,200.404 237.409,190.465 223.846,187.408 
			234.74,178.769 233.921,177.08 145.656,265.344 135.528,286.233 		"/>
		<path style="fill:#FFFFFF;" d="M373.769,65.51c-0.116-0.116-0.235-0.225-0.351-0.341c0.115,0.116,0.226,0.234,0.341,0.35
			L373.769,65.51z"/>
		<path style="fill:#FFFFFF;" d="M65.143,373.389c0.124,0.125,0.243,0.253,0.368,0.378l0.01-0.01
			C65.396,373.634,65.268,373.514,65.143,373.389z"/>
		<polygon style="fill:#FFFFFF;" points="135.528,286.233 145.656,265.344 86.914,324.087 86.877,337.432 108.57,320.035 
			113.666,324.121 144.466,293.321 		"/>
		<polygon style="fill:#FFFFFF;" points="223.846,187.408 237.409,190.465 237.383,200.404 264.219,173.568 267.764,166.258 
			254.217,169.39 250.139,160.861 242.779,168.222 242.22,169.39 241.725,169.275 233.921,177.08 234.74,178.769 		"/>
		<polygon style="fill:#FFFFFF;" points="304.024,119.634 311.865,125.922 314.856,122.931 314.833,114.429 325.839,111.947 
			327.291,110.495 317.503,102.733 323.569,90.222 319.94,91.061 293.206,117.795 293.177,128.333 		"/>
		<path style="fill:#FFFFFF;" d="M364.455,74.824l-36.331,36.332l-0.358,0.358L314.86,124.42l-2.167,2.167l-28.609,28.609v26.875
			L386.548,79.605c-4.023-4.835-8.282-9.537-12.788-14.086L364.455,74.824z"/>
		<path style="fill:#FFFFFF;" d="M373.023,64.764l-0.011,0.011c0.134,0.133,0.272,0.261,0.406,0.394
			C373.285,65.035,373.157,64.897,373.023,64.764z"/>
		<path style="fill:#FFFFFF;" d="M148.486,290.793l-3.188,3.188l-30.804,30.804L74.839,364.44l0,0l-9.318,9.318
			c4.55,4.506,9.253,8.765,14.088,12.787l95.752-95.752L148.486,290.793L148.486,290.793z"/>
		<path style="fill:#FFFFFF;" d="M64.775,373.012l-0.01,0.01c0.125,0.125,0.253,0.244,0.378,0.368
			C65.019,373.264,64.899,373.137,64.775,373.012z"/>
		<polygon style="fill:#FFFFFF;" points="314.856,122.931 314.86,124.419 327.766,111.513 325.839,111.947 		"/>
		<path style="fill:#FFFFFF;" d="M74.093,363.694L74.093,363.694l-9.318,9.318c0.124,0.125,0.244,0.253,0.368,0.378
			c0.125,0.124,0.253,0.244,0.378,0.368l9.318-9.318l0,0l39.655-39.655l-0.828-0.664L74.093,363.694z"/>
		<path style="fill:#FFFFFF;" d="M364.455,74.824l9.305-9.305c-0.115-0.116-0.226-0.234-0.341-0.35
			c-0.134-0.134-0.272-0.261-0.406-0.394l-9.303,9.303l-36.418,36.418l0.832,0.66L364.455,74.824z"/>
		<polygon style="fill:#FFFFFF;" points="284.084,153.703 284.084,155.195 312.693,126.586 311.865,125.922 		"/>
		<polygon style="fill:#FFFFFF;" points="144.466,293.321 145.298,293.981 148.486,290.793 146.994,290.793 		"/>
		<polygon style="fill:#FFFFFF;" points="113.666,324.121 114.494,324.785 145.298,293.981 144.466,293.321 		"/>
		<polygon style="fill:#FFFFFF;" points="327.766,111.513 328.124,111.155 327.291,110.495 325.839,111.947 		"/>
		<polygon style="fill:#FFFFFF;" points="311.865,125.922 312.693,126.586 314.86,124.419 314.856,122.931 		"/>
		<polygon style="fill:#FFFFFF;" points="262.815,176.464 237.379,201.9 148.486,290.793 175.361,290.793 284.084,182.07 
			284.084,155.195 		"/>
		<polygon style="fill:#FFFFFF;" points="237.383,200.404 146.994,290.793 148.486,290.793 237.379,201.9 		"/>
		<polygon style="fill:#FFFFFF;" points="264.219,173.568 262.815,176.464 284.084,155.195 284.084,153.703 		"/>
		<polygon style="fill:#FFFFFF;" points="237.383,200.404 237.379,201.9 262.815,176.464 264.219,173.568 		"/>
	</g>
</g>
</svg>
