<?xml version="1.0" encoding="iso-8859-1"?>
<!-- Generator: Adobe Illustrator 22.0.1, SVG Export Plug-In . SVG Version: 6.00 Build 0)  -->
<svg version="1.1" id="Layer_1" xmlns="http://www.w3.org/2000/svg" xmlns:xlink="http://www.w3.org/1999/xlink" x="0px" y="0px"
	 viewBox="0 0 438.53 438.53" style="enable-background:new 0 0 438.53 438.53;" xml:space="preserve">
<g id="_x31_42">
	<g>
		<path style="fill:#0052B4;" d="M58.615,365.531c-2.157-2.33-4.26-4.708-6.315-7.13l34.615-34.615l0.039-14.162l-27.127-6.114
			l21.788-17.277L69.48,261.211l27.094,6.262l11.997-25.087l11.998,25.087l27.092-6.262l-1.722,3.551l87.885-87.885l-5.149-10.62
			l12.808,2.961l1.572-1.572l5.165-10.801l1.823,3.813l43.164-43.164l0.008-3.065l-13.563-3.058l10.893-8.638l-6.065-12.511
			l13.546,3.131l5.999-12.544l5.999,12.544l9.527-2.202l39.266-39.266c-47.34-39.337-107.553-55.523-165.484-48.54
			c0,2.368,0,4.672,0,6.933c0,21.9,0,39.045,0,57.028c0,9.051,0,18.315,0,28.514l0,0h-64.225l64.226,64.226
			c0,11.87,0,25.011,0,39.738l-0.001,0.001c0,0.197,0,0.386,0,0.584h-0.001h-0.583h-0.001h-39.74l-64.225-64.225v64.225H60.27H3.242
			H2.63c-0.564,6.408-0.86,12.835-0.861,19.263c0,55.498,21.013,110.977,63.006,153.38l0.66-0.66L58.615,365.531z"/>
		<path style="fill:#0052B4;" d="M65.512,373.767l0.01-0.01c-0.126-0.124-0.254-0.245-0.379-0.369
			C65.267,373.513,65.387,373.642,65.512,373.767z"/>
		<path style="fill:#F0F0F0;" d="M192.749,200.368h0.583l-0.292-0.292C192.944,200.174,192.847,200.271,192.749,200.368z"/>
		<path style="fill:#F0F0F0;" d="M182.114,5c-7.731,1.34-15.402,3.102-22.978,5.278c7.661,0,13.121,0,17.702,0
			C178.666,8.449,180.425,6.69,182.114,5z"/>
		<path style="fill:#F0F0F0;" d="M90.047,97.083l-1.263-1.263h2.525c9.622-9.623,19.209-19.211,28.512-28.515H63.754
			c-1.178,1.205-2.34,2.419-3.484,3.644v55.911C70.031,117.1,80.05,107.08,90.047,97.083z"/>
		<path style="fill:#F0F0F0;" d="M193.333,10.278c0-2.26,0-4.565,0-6.933c-3.751,0.452-7.491,1.009-11.219,1.655
			c-1.689,1.69-3.448,3.449-5.276,5.278C181.107,10.278,193.333,10.278,193.333,10.278z"/>
		<path style="fill:#F0F0F0;" d="M90.047,97.083C80.05,107.08,70.031,117.1,60.27,126.861v73.508h28.513v-64.225l64.225,64.225
			h39.74c0.098-0.097,0.195-0.195,0.292-0.292L90.047,97.083z"/>
		<path style="fill:#F0F0F0;" d="M3.242,194.312c-0.234,2.016-0.435,4.035-0.612,6.056h0.612V194.312z"/>
		<path style="fill:#F0F0F0;" d="M91.309,95.82h24.357l77.667,77.666c0,7.475,0,23.109,0,26.297v0.001l0.001-0.001
			c0-14.728,0-27.869,0-39.738l-64.226-64.226h64.225l0,0c0-10.199,0-19.463,0-28.514h-73.512
			C110.519,76.609,100.931,86.198,91.309,95.82z"/>
		<path style="fill:#F0F0F0;" d="M193.04,200.076c-0.097,0.097-0.194,0.195-0.292,0.292h0.001
			C192.847,200.271,192.944,200.174,193.04,200.076L193.04,200.076z"/>
		<path style="fill:#D80027;" d="M60.27,70.949c-29.83,31.942-48.254,70.749-55.262,111.169
			c15.556-15.553,34.839-34.834,55.262-55.258V70.949z"/>
		<path style="fill:#D80027;" d="M176.838,10.278c-4.581,0-10.042,0-17.702,0C124.828,20.13,92.48,38.531,65.505,65.51
			c-0.593,0.593-1.166,1.198-1.751,1.796h56.067C141.425,45.699,161.484,25.636,176.838,10.278z"/>
		<path style="fill:#D80027;" d="M60.27,200.368V126.86c-20.424,20.424-39.707,39.705-55.262,55.258
			c-0.702,4.051-1.292,8.117-1.765,12.194v6.056H60.27z"/>
		<path style="fill:#D80027;" d="M119.822,67.305h73.512c0-17.983,0-35.128,0-57.028c0,0-12.226,0-16.495,0
			C161.484,25.636,141.425,45.699,119.822,67.305z"/>
		<path style="fill:#D80027;" d="M193.332,200.368L193.332,200.368c0.001-0.198,0.001-0.387,0.001-0.584
			c-0.097,0.098-0.195,0.195-0.292,0.292L193.332,200.368z"/>
		<path style="fill:#D80027;" d="M88.784,95.82l1.263,1.263c0.421-0.421,0.842-0.842,1.263-1.263H88.784z"/>
		<path style="fill:#D80027;" d="M193.333,199.783c0-3.189,0-18.822,0-26.297L115.666,95.82H91.309
			c-0.421,0.421-0.842,0.842-1.263,1.263L193.04,200.076C193.138,199.979,193.236,199.881,193.333,199.783z"/>
		<path style="fill:#D80027;" d="M193.04,200.076L193.04,200.076c0.098-0.097,0.196-0.194,0.293-0.292v-0.001
			C193.236,199.881,193.138,199.979,193.04,200.076z"/>
		<polygon style="fill:#F0F0F0;" points="147.66,261.211 120.568,267.473 108.57,242.387 96.574,267.473 69.48,261.211 
			81.614,286.233 59.826,303.51 86.953,309.624 86.915,323.786 145.939,264.762 		"/>
		<polygon style="fill:#F0F0F0;" points="228.674,166.258 233.823,176.878 241.482,169.219 		"/>
		<polygon style="fill:#F0F0F0;" points="248.219,156.846 243.054,167.647 250.042,160.659 		"/>
		<polygon style="fill:#F0F0F0;" points="310.023,93.353 304.024,80.809 298.025,93.353 284.479,90.222 290.545,102.733 
			279.652,111.371 293.215,114.429 293.207,117.494 319.55,91.151 		"/>
		<path style="fill:#F0F0F0;" d="M64.766,373.021c0.124,0.124,0.252,0.243,0.377,0.367c-0.124-0.125-0.243-0.252-0.367-0.377
			L64.766,373.021z"/>
		<path style="fill:#F0F0F0;" d="M386.412,79.442l-80.597,80.597c15.424,19.102,24.664,43.404,24.664,69.868
			c0,61.47-49.831,111.301-111.301,111.301c-26.463,0-50.766-9.24-69.868-24.664l-69.248,69.248
			c-3.268-2.696-6.45-5.491-9.555-8.368l-4.326-4.326l-0.66,0.66c42.403,41.993,97.882,63.006,153.38,63.006
			c55.812-0.007,111.645-21.252,154.122-63.736C453.286,292.777,457.739,164.991,386.412,79.442z"/>
		<path style="fill:#F0F0F0;" d="M65.435,372.351l-0.66,0.66c0.124,0.125,0.243,0.252,0.367,0.377
			c0.125,0.125,0.253,0.245,0.379,0.369l0.66-0.66L65.435,372.351z"/>
		<path style="fill:#D80027;" d="M219.178,341.208c61.47,0,111.301-49.831,111.301-111.301c0-26.463-9.24-50.766-24.664-69.868
			L149.311,316.543C168.412,331.967,192.715,341.208,219.178,341.208z"/>
		<path style="fill:#FFFFFF;" d="M373.023,64.764c0.134,0.134,0.262,0.272,0.396,0.406c0.115,0.115,0.234,0.224,0.35,0.34
			l-0.009,0.009c4.456,4.498,8.669,9.146,12.652,13.923l0.904-0.904c-8.418-9.926-17.705-19.101-27.755-27.398l-0.744,0.744
			c4.875,4.051,9.611,8.348,14.196,12.89L373.023,64.764z"/>
		<polygon style="fill:#FFFFFF;" points="314.833,114.429 314.856,122.931 325.84,111.947 		"/>
		<path style="fill:#FFFFFF;" d="M323.569,90.222l-6.066,12.511l9.788,7.763l36.418-36.418l9.303-9.303
			c-4.585-4.542-9.321-8.84-14.196-12.89L319.55,91.151L323.569,90.222z"/>
		<polygon style="fill:#FFFFFF;" points="267.764,166.258 264.219,173.567 292.029,145.758 311.865,125.922 304.024,119.634 
			293.177,128.333 293.207,117.494 250.042,160.659 254.217,169.39 		"/>
		<polygon style="fill:#FFFFFF;" points="144.466,293.321 237.383,200.404 237.409,190.465 223.846,187.408 234.74,178.769 
			233.823,176.878 145.939,264.762 135.528,286.233 		"/>
		<polygon style="fill:#FFFFFF;" points="243.054,167.647 241.482,169.219 242.22,169.39 		"/>
		<path style="fill:#FFFFFF;" d="M74.093,363.694l39.573-39.573l-5.096-4.086l-21.693,17.397l0.037-13.645L52.3,358.401
			c2.054,2.421,4.158,4.8,6.315,7.13l6.821,6.821L74.093,363.694L74.093,363.694z"/>
		<path style="fill:#FFFFFF;" d="M373.769,65.51c-0.115-0.115-0.234-0.225-0.35-0.34c0.115,0.115,0.226,0.233,0.34,0.349
			L373.769,65.51z"/>
		<polygon style="fill:#FFFFFF;" points="108.57,320.035 113.666,324.121 135.029,302.758 144.466,293.321 135.528,286.233 
			145.939,264.762 86.915,323.786 86.877,337.432 		"/>
		<polygon style="fill:#FFFFFF;" points="223.846,187.408 237.409,190.465 237.383,200.404 264.219,173.567 267.764,166.258 
			254.217,169.39 250.042,160.659 243.054,167.647 242.22,169.39 241.482,169.219 233.823,176.878 234.74,178.769 		"/>
		<polygon style="fill:#FFFFFF;" points="304.024,119.634 311.865,125.922 314.856,122.931 314.833,114.429 325.84,111.947 
			327.292,110.495 317.503,102.733 323.569,90.222 319.55,91.151 293.207,117.494 293.177,128.333 		"/>
		<path style="fill:#FFFFFF;" d="M373.023,64.764l-0.011,0.011c0.135,0.133,0.273,0.262,0.407,0.395
			C373.286,65.036,373.157,64.898,373.023,64.764z"/>
		<path style="fill:#FFFFFF;" d="M364.455,74.824l-36.331,36.332l-0.358,0.358L314.86,124.42l-2.167,2.167l-19.874,19.874
			c4.702,4.153,9.052,8.694,12.996,13.579l80.597-80.597c-3.983-4.777-8.196-9.425-12.652-13.923L364.455,74.824z"/>
		<path style="fill:#FFFFFF;" d="M135.732,303.547l-21.238,21.238L74.839,364.44l0,0l-8.658,8.658l4.326,4.326
			c3.104,2.877,6.286,5.672,9.555,8.368l69.248-69.248C144.426,312.599,139.885,308.249,135.732,303.547z"/>
		<polygon style="fill:#FFFFFF;" points="314.856,122.931 314.86,124.419 327.766,111.513 325.84,111.947 		"/>
		<path style="fill:#FFFFFF;" d="M292.029,145.758c0.266,0.231,0.526,0.469,0.79,0.702l19.874-19.874l-0.828-0.664L292.029,145.758z
			"/>
		<polygon style="fill:#FFFFFF;" points="74.839,364.44 114.494,324.785 113.666,324.121 74.093,363.694 74.093,363.694 
			65.435,372.351 66.181,373.097 		"/>
		<path style="fill:#FFFFFF;" d="M364.455,74.824l9.305-9.305c-0.115-0.116-0.225-0.234-0.34-0.349
			c-0.134-0.134-0.272-0.262-0.407-0.395l-9.303,9.303l-36.418,36.418l0.832,0.66L364.455,74.824z"/>
		<path style="fill:#FFFFFF;" d="M113.666,324.121l0.828,0.664l21.238-21.238c-0.233-0.264-0.472-0.523-0.702-0.79L113.666,324.121z
			"/>
		<polygon style="fill:#FFFFFF;" points="311.865,125.922 312.693,126.586 314.86,124.419 314.856,122.931 		"/>
		<polygon style="fill:#FFFFFF;" points="327.766,111.513 328.124,111.155 327.292,110.495 325.84,111.947 		"/>
		<path style="fill:#FFFFFF;" d="M292.818,146.46l-30.003,30.003L237.379,201.9l-92.081,92.081l-9.566,9.566
			c4.153,4.702,8.694,9.052,13.579,12.996l156.504-156.504C301.871,155.155,297.521,150.613,292.818,146.46z"/>
		<path style="fill:#FFFFFF;" d="M264.219,173.567l-1.404,2.896l30.003-30.003c-0.264-0.233-0.523-0.472-0.79-0.702L264.219,173.567
			z"/>
		<polygon style="fill:#FFFFFF;" points="144.466,293.321 145.298,293.981 237.379,201.9 237.383,200.404 		"/>
		<path style="fill:#FFFFFF;" d="M135.029,302.758c0.231,0.266,0.469,0.526,0.702,0.79l9.566-9.566l-0.832-0.66L135.029,302.758z"/>
		<polygon style="fill:#FFFFFF;" points="237.383,200.404 237.379,201.9 262.815,176.464 264.219,173.567 		"/>
	</g>
</g>
</svg>
