<?xml version="1.0" encoding="iso-8859-1"?>
<!-- Generator: Adobe Illustrator 22.0.1, SVG Export Plug-In . SVG Version: 6.00 Build 0)  -->
<svg version="1.1" id="Layer_1" xmlns="http://www.w3.org/2000/svg" xmlns:xlink="http://www.w3.org/1999/xlink" x="0px" y="0px"
	 viewBox="0 0 438.53 438.53" style="enable-background:new 0 0 438.53 438.53;" xml:space="preserve">
<g id="_x31_44">
	<g>
		<path style="fill:#F0F0F0;" d="M386.548,79.606l-80.599,80.599c15.344,19.076,24.529,43.316,24.529,69.703
			c0,61.47-49.831,111.301-111.301,111.301c-26.387,0-50.626-9.186-69.703-24.529l-69.866,69.866
			c40.225,33.466,89.749,50.219,139.292,50.219c55.812-0.007,111.645-21.252,154.122-63.736
			C453.235,292.829,457.734,165.154,386.548,79.606z"/>
		<path style="fill:#D80027;" d="M219.178,341.208c61.47,0,111.301-49.831,111.301-111.301c0-26.387-9.186-50.626-24.529-69.703
			L149.475,316.679C168.552,332.023,192.791,341.208,219.178,341.208z"/>
		<path style="fill:#F0F0F0;" d="M162.051,248.95h-2.928v-33.39h-44.521l11.13-22.26l-44.52-22.26l22.259-11.13v-22.26l44.521,22.26
			l-22.26-44.521h22.26l22.26-33.39l22.26,33.39h22.26l-22.26,44.521l44.521-22.26v22.26l9.372,4.686l35.148-35.148V10.679
			C207.421-11.153,123.884,7.122,65.505,65.51c-2.248,2.248-4.423,4.541-6.552,6.861v279.677L162.051,248.95z"/>
		<polygon style="fill:#F0F0F0;" points="214.774,193.299 215.75,195.251 220.629,190.372 		"/>
		<polygon style="fill:#F0F0F0;" points="181.383,229.618 195.441,215.56 181.383,215.56 		"/>
		<path style="fill:#D80027;" d="M358.979,52.022c-23.288-19.389-49.695-33.177-77.424-41.344v118.768L358.979,52.022z"/>
		<path style="fill:#D80027;" d="M58.953,72.371C20.845,113.904,1.775,166.773,1.769,219.632c0,49.563,16.763,99.109,50.258,139.342
			l6.926-6.926V72.371z"/>
		<polygon style="fill:#D80027;" points="181.383,215.56 195.441,215.56 215.75,195.251 214.774,193.299 220.629,190.372 
			246.406,164.595 237.035,159.909 237.035,137.649 192.514,159.909 214.774,115.388 192.514,115.388 170.253,81.998 
			147.993,115.388 125.733,115.388 147.993,159.909 103.472,137.649 103.472,159.909 81.213,171.039 125.733,193.299 
			114.603,215.56 159.124,215.56 159.124,248.95 162.051,248.95 181.383,229.618 		"/>
		<path style="fill:#FFFFFF;" d="M373.023,64.764c0.139,0.139,0.271,0.281,0.41,0.42c0.111,0.11,0.226,0.215,0.336,0.326
			l-0.009,0.009c4.506,4.549,8.766,9.252,12.788,14.086l0.248-0.248c-8.418-9.926-17.705-19.101-27.755-27.398l-0.062,0.062
			c4.817,4.011,9.499,8.263,14.033,12.753L373.023,64.764z"/>
		<path style="fill:#FFFFFF;" d="M65.512,373.768l4.476,4.476c3.104,2.877,6.286,5.672,9.555,8.368l0.067-0.067
			c-4.835-4.023-9.538-8.281-14.088-12.787L65.512,373.768z"/>
		<path style="fill:#FFFFFF;" d="M58.953,366.898c-2.383-2.598-4.692-5.24-6.926-7.924l-0.247,0.247
			c2.054,2.421,4.158,4.8,6.315,7.129l6.671,6.671l0.009-0.009C62.788,371.002,60.848,368.964,58.953,366.898z"/>
		<path style="fill:#FFFFFF;" d="M64.766,373.022l0.746,0.746c-0.126-0.127-0.248-0.256-0.374-0.383
			C65.015,373.262,64.889,373.145,64.766,373.022z"/>
		<path style="fill:#FFFFFF;" d="M373.023,64.764l-0.012,0.012c0.139,0.138,0.282,0.27,0.421,0.408
			C373.295,65.045,373.162,64.903,373.023,64.764z"/>
		<path style="fill:#FFFFFF;" d="M135.732,303.548L74.839,364.44l0,0l-9.318,9.318c4.55,4.506,9.253,8.765,14.088,12.787
			l69.866-69.866C144.528,312.699,139.931,308.303,135.732,303.548z"/>
		<path style="fill:#FFFFFF;" d="M364.455,74.824l-71.637,71.637c4.755,4.2,9.152,8.796,13.131,13.743l80.599-80.599
			c-4.023-4.835-8.282-9.537-12.788-14.086L364.455,74.824z"/>
		<path style="fill:#FFFFFF;" d="M64.775,373.012l-0.009,0.009c0.123,0.123,0.249,0.24,0.372,0.363
			C65.015,373.261,64.897,373.136,64.775,373.012z"/>
		<path style="fill:#FFFFFF;" d="M292.818,146.461l-11.264,11.264l-56.378,56.378l-1.456,1.456l-87.988,87.988
			c4.2,4.755,8.796,9.152,13.743,13.131L305.95,160.204C301.97,155.257,297.574,150.661,292.818,146.461z"/>
		<polygon style="fill:#FFFFFF;" points="220.629,190.372 215.75,195.251 224.678,213.109 281.554,156.233 281.554,129.447 
			246.406,164.595 259.294,171.039 		"/>
		<path style="fill:#FFFFFF;" d="M74.093,363.694l60.936-60.936l87.198-87.198h-26.786l-14.058,14.058v19.332h-19.332
			L58.953,352.048v14.849c1.895,2.066,3.836,4.105,5.822,6.115L74.093,363.694L74.093,363.694z"/>
		<path style="fill:#FFFFFF;" d="M65.138,373.385c0.126,0.127,0.247,0.257,0.374,0.383l0.01-0.01
			C65.394,373.632,65.265,373.511,65.138,373.385z"/>
		<path style="fill:#FFFFFF;" d="M74.093,363.694L74.093,363.694l-9.318,9.318c0.122,0.123,0.241,0.249,0.363,0.372
			c0.127,0.126,0.256,0.248,0.383,0.374l9.318-9.318l0,0l60.893-60.893c-0.233-0.264-0.472-0.523-0.702-0.79L74.093,363.694z"/>
		<polygon style="fill:#FFFFFF;" points="225.176,214.103 281.554,157.725 281.554,156.233 224.678,213.109 		"/>
		<path style="fill:#FFFFFF;" d="M222.228,215.56l-87.198,87.198c0.231,0.266,0.469,0.526,0.702,0.79l87.988-87.988H222.228z"/>
		<path style="fill:#FFFFFF;" d="M281.554,156.233l10.475-10.475l71.68-71.68l9.302-9.302c-4.534-4.491-9.216-8.743-14.033-12.753
			l-77.424,77.424V156.233z"/>
		<path style="fill:#FFFFFF;" d="M373.769,65.51c-0.111-0.111-0.225-0.215-0.336-0.326c0.11,0.111,0.217,0.224,0.327,0.335
			L373.769,65.51z"/>
		<path style="fill:#FFFFFF;" d="M364.455,74.824l9.305-9.305c-0.11-0.111-0.217-0.224-0.327-0.335
			c-0.139-0.138-0.282-0.27-0.421-0.408l-9.302,9.302l-71.68,71.68c0.266,0.231,0.525,0.469,0.789,0.702L364.455,74.824z"/>
		<path style="fill:#FFFFFF;" d="M292.818,146.461c-0.264-0.233-0.523-0.472-0.789-0.702l-10.475,10.475v1.492L292.818,146.461z"/>
		<path style="fill:#FFFFFF;" d="M58.953,352.048l-6.926,6.926c2.234,2.684,4.543,5.326,6.926,7.924V352.048z"/>
		<polygon style="fill:#FFFFFF;" points="215.75,195.251 195.441,215.56 222.228,215.56 224.678,213.109 		"/>
		<polygon style="fill:#FFFFFF;" points="259.294,171.039 246.406,164.595 220.629,190.372 		"/>
		<polygon style="fill:#FFFFFF;" points="181.383,229.618 162.051,248.95 181.383,248.95 		"/>
		<polygon style="fill:#FFFFFF;" points="222.228,215.56 223.72,215.56 225.176,214.103 224.678,213.109 		"/>
	</g>
</g>
</svg>
