<?xml version="1.0" encoding="iso-8859-1"?>
<!-- Generator: Adobe Illustrator 22.0.1, SVG Export Plug-In . SVG Version: 6.00 Build 0)  -->
<svg version="1.1" id="Layer_1" xmlns="http://www.w3.org/2000/svg" xmlns:xlink="http://www.w3.org/1999/xlink" x="0px" y="0px"
	 viewBox="0 0 438.53 438.53" style="enable-background:new 0 0 438.53 438.53;" xml:space="preserve">
<g id="_x31_45">
	<g>
		<path style="fill:#F0F0F0;" d="M64.766,373.022c0.124,0.124,0.252,0.243,0.377,0.367c-0.124-0.125-0.243-0.252-0.367-0.377
			L64.766,373.022z"/>
		<path style="fill:#F0F0F0;" d="M386.412,79.436l-80.597,80.599c15.424,19.102,24.664,43.405,24.664,69.869
			c0,61.471-49.831,111.303-111.301,111.303c-26.463,0-50.766-9.241-69.868-24.665l-69.248,69.25
			c-3.268-2.696-6.45-5.491-9.555-8.369l-4.326-4.326l-0.66,0.66c42.403,41.994,97.882,63.008,153.38,63.008
			c55.812-0.007,111.645-21.252,154.122-63.737C453.286,292.776,457.739,164.987,386.412,79.436z"/>
		<path style="fill:#D80027;" d="M219.178,341.208c61.47,0,111.301-49.832,111.301-111.303c0-26.464-9.24-50.767-24.664-69.869
			L149.311,316.543C168.412,331.967,192.715,341.208,219.178,341.208z"/>
		<path style="fill:#D80027;" d="M65.512,373.768l0.01-0.01c-0.126-0.124-0.254-0.245-0.379-0.369
			C65.267,373.514,65.387,373.643,65.512,373.768z"/>
		<path style="fill:#D80027;" d="M58.615,365.531c-2.157-2.33-4.26-4.708-6.315-7.13l89.879-89.881v-28.766h-81.13v-81.132h81.13
			V77.49h81.131v81.133h28.764L358.813,51.882C273.265-19.205,145.669-14.675,65.505,65.503
			C23.021,107.982,1.776,163.815,1.769,219.629c0,55.499,21.013,110.98,63.006,153.383l0.66-0.66L58.615,365.531z"/>
		<path style="fill:#D80027;" d="M65.435,372.352l-0.66,0.66c0.124,0.125,0.243,0.252,0.367,0.377
			c0.125,0.125,0.253,0.245,0.379,0.369l0.66-0.66L65.435,372.352z"/>
		<polygon style="fill:#F0F0F0;" points="223.31,158.623 223.31,77.49 142.179,77.49 142.179,158.623 61.049,158.623 
			61.049,239.754 142.179,239.754 142.179,268.52 252.074,158.623 		"/>
		<path style="fill:#FFFFFF;" d="M373.023,64.757c0.125,0.125,0.245,0.254,0.369,0.379c0.125,0.124,0.252,0.243,0.376,0.367
			l-0.009,0.009c4.456,4.498,8.669,9.146,12.652,13.923l0.904-0.904c-8.418-9.927-17.705-19.102-27.755-27.398l-0.748,0.748
			c4.875,4.051,9.616,8.343,14.201,12.885L373.023,64.757z"/>
		<path style="fill:#FFFFFF;" d="M373.023,64.757l-0.009,0.009c0.126,0.124,0.254,0.245,0.379,0.369
			C373.268,65.011,373.148,64.882,373.023,64.757z"/>
		<path style="fill:#FFFFFF;" d="M364.455,74.818l-71.637,71.638c4.702,4.153,9.052,8.695,12.996,13.579l80.597-80.599
			c-3.983-4.777-8.196-9.425-12.652-13.923L364.455,74.818z"/>
		<path style="fill:#FFFFFF;" d="M135.732,303.546L74.839,364.44l0,0l-8.658,8.658l4.326,4.326c3.104,2.877,6.286,5.672,9.555,8.369
			l69.248-69.25C144.426,312.599,139.885,308.249,135.732,303.546z"/>
		<path style="fill:#FFFFFF;" d="M292.818,146.456l-12.166,12.167L142.179,297.099l-6.447,6.447
			c4.153,4.702,8.694,9.052,13.579,12.996l156.504-156.508C301.871,155.151,297.521,150.609,292.818,146.456z"/>
		<path style="fill:#FFFFFF;" d="M373.769,65.503c-0.124-0.124-0.252-0.243-0.376-0.367c0.124,0.125,0.244,0.252,0.367,0.376
			L373.769,65.503z"/>
		<path style="fill:#FFFFFF;" d="M74.093,363.694l60.936-60.938l7.15-7.15V268.52L52.3,358.402c2.054,2.421,4.158,4.8,6.315,7.13
			l6.821,6.821L74.093,363.694L74.093,363.694z"/>
		<path style="fill:#FFFFFF;" d="M279.16,158.623l12.869-12.869l71.68-71.682l9.305-9.305c-4.585-4.542-9.326-8.834-14.201-12.885
			L252.074,158.623H279.16z"/>
		<path style="fill:#FFFFFF;" d="M364.455,74.818l9.305-9.305c-0.124-0.125-0.243-0.252-0.367-0.376
			c-0.125-0.125-0.253-0.245-0.379-0.369l-9.305,9.305l-71.68,71.682c0.266,0.231,0.526,0.469,0.79,0.702L364.455,74.818z"/>
		<path style="fill:#FFFFFF;" d="M74.839,364.441l60.893-60.894c-0.233-0.264-0.472-0.523-0.702-0.79l-60.936,60.938l0,0
			l-8.658,8.658l0.746,0.746L74.839,364.441L74.839,364.441z"/>
		<path style="fill:#FFFFFF;" d="M135.029,302.757c0.231,0.266,0.469,0.526,0.702,0.79l6.447-6.447v-1.492L135.029,302.757z"/>
		<path style="fill:#FFFFFF;" d="M292.818,146.456c-0.264-0.233-0.523-0.472-0.79-0.702l-12.869,12.869h1.492L292.818,146.456z"/>
		<polygon style="fill:#FFFFFF;" points="279.16,158.623 252.074,158.623 142.179,268.52 142.179,295.607 		"/>
		<polygon style="fill:#FFFFFF;" points="142.179,297.099 280.652,158.623 279.16,158.623 142.179,295.607 		"/>
	</g>
</g>
</svg>
