<?xml version="1.0" encoding="iso-8859-1"?>
<!-- Generator: Adobe Illustrator 22.0.1, SVG Export Plug-In . SVG Version: 6.00 Build 0)  -->
<svg version="1.1" id="Layer_1" xmlns="http://www.w3.org/2000/svg" xmlns:xlink="http://www.w3.org/1999/xlink" x="0px" y="0px"
	 viewBox="0 0 438.53 438.53" style="enable-background:new 0 0 438.53 438.53;" xml:space="preserve">
<g id="_x31_47">
	<g>
		<path style="fill:#0052B4;" d="M78.384,331.662l13.43-26.359l-20.915-20.916l29.216,4.63l13.427-26.358l4.629,29.217l0.823,0.13
			l162.777-162.78l-0.13-0.823l-29.215-4.629l26.355-13.429l-4.629-29.215l20.918,20.915l26.356-13.43l-0.99,1.944l38.539-38.54
			c-85.548-71.23-213.255-66.745-293.47,13.484C23.021,107.981,1.776,163.815,1.769,219.629c0,49.564,16.766,99.11,50.259,139.344
			L80.33,330.67L78.384,331.662z M190.764,66.412l9.142-28.134l9.142,28.134h29.579l-23.931,17.387l9.142,28.134l-23.931-17.388
			l-23.932,17.388l9.142-28.134l-23.931-17.387H190.764z M78.384,88.614l26.359,13.429l20.916-20.915l-4.629,29.216l26.357,13.43
			l-29.216,4.628l-4.628,29.218l-13.43-26.358l-29.215,4.629l20.916-20.916L78.384,88.614z M28.05,210.138l28.133-9.142v-29.581
			l17.386,23.933l28.134-9.142l-17.389,23.932l17.389,23.932l-28.134-9.141l-17.386,23.932V219.28L28.05,210.138z"/>
		<polygon style="fill:#FFDA44;" points="175.974,111.933 199.906,94.545 223.837,111.933 214.695,83.799 238.627,66.412 
			209.048,66.412 199.906,38.278 190.764,66.412 161.184,66.412 185.115,83.799 		"/>
		<polygon style="fill:#FFDA44;" points="100.114,131.261 113.544,157.619 118.171,128.401 147.387,123.774 121.03,110.344 
			125.659,81.128 104.743,102.043 78.384,88.614 91.815,114.974 70.899,135.89 		"/>
		<polygon style="fill:#FFDA44;" points="73.569,224.929 101.703,234.07 84.314,210.138 101.703,186.206 73.569,195.348 
			56.183,171.415 56.183,200.996 28.05,210.138 56.183,219.28 56.183,248.861 		"/>
		<polygon style="fill:#FFDA44;" points="118.171,291.875 113.543,262.658 100.115,289.016 70.899,284.386 91.814,305.302 
			78.384,331.662 80.33,330.67 118.994,292.005 		"/>
		<polygon style="fill:#FFDA44;" points="321.427,88.614 295.07,102.044 274.152,81.129 278.781,110.344 252.426,123.773 
			281.641,128.401 281.771,129.225 320.436,90.559 		"/>
		<polygon style="fill:#F0F0F0;" points="216.41,249.741 201.829,264.323 230.991,278.904 		"/>
		<path style="fill:#F0F0F0;" d="M258.014,208.136l17.497,26.246h22.26l-22.26,44.522l44.521-22.261v22.261l22.259,11.13
			l-44.52,22.261l11.13,22.261H264.38v33.391h-22.259v-33.391H197.6l11.13-22.261l-36.581-18.292l-30.199,30.199v98.619
			c24.741,9.294,50.844,13.944,76.951,13.944c52.176-0.006,104.367-18.579,145.651-55.709v-279.46L258.014,208.136z"/>
		<path style="fill:#D80027;" d="M386.548,79.599l-21.996,21.997v279.461c2.877-2.588,5.704-5.26,8.471-8.028
			C453.235,292.827,457.734,165.15,386.548,79.599z"/>
		<path style="fill:#D80027;" d="M79.61,386.544c19.028,15.831,40.13,27.934,62.34,36.277v-98.619L79.61,386.544z"/>
		<polygon style="fill:#D80027;" points="230.991,278.904 201.829,264.323 172.149,294.003 208.73,312.295 197.601,334.556 
			242.121,334.556 242.121,367.947 264.381,367.947 264.381,334.556 308.902,334.556 297.772,312.295 342.292,290.034 
			320.032,278.904 320.032,256.643 275.511,278.904 297.772,234.382 275.511,234.382 258.014,208.136 216.41,249.741 		"/>
		<path style="fill:#FFFFFF;" d="M373.023,64.757c0.125,0.125,0.244,0.253,0.368,0.378c0.125,0.124,0.253,0.244,0.378,0.368
			l-0.009,0.009c4.506,4.549,8.766,9.252,12.788,14.087l0.248-0.248c-8.418-9.927-17.705-19.102-27.755-27.398l-0.065,0.065
			c4.818,4.011,9.504,8.257,14.038,12.749L373.023,64.757z"/>
		<path style="fill:#FFFFFF;" d="M65.512,373.768l4.476,4.476c3.104,2.877,6.286,5.672,9.555,8.369l0.068-0.068
			c-4.835-4.023-9.539-8.28-14.088-12.787L65.512,373.768z"/>
		<path style="fill:#FFFFFF;" d="M52.028,358.973l-0.248,0.248c2.054,2.421,4.158,4.8,6.315,7.13l6.671,6.671l0.01-0.01
			C60.284,368.478,56.039,363.791,52.028,358.973z"/>
		<path style="fill:#FFFFFF;" d="M64.766,373.022l0.746,0.746c-0.129-0.129-0.252-0.261-0.38-0.39
			C65.011,373.258,64.886,373.143,64.766,373.022z"/>
		<polygon style="fill:#FFFFFF;" points="121.965,315.822 134.942,302.844 121.032,309.932 		"/>
		<polygon style="fill:#FFFFFF;" points="299.696,131.26 292.607,145.175 305.588,132.194 		"/>
		<polygon style="fill:#FFFFFF;" points="285.434,152.349 281.771,129.225 118.994,292.005 142.118,295.668 		"/>
		<path style="fill:#FFFFFF;" d="M373.769,65.503c-0.125-0.125-0.253-0.244-0.378-0.368c0.124,0.125,0.244,0.253,0.368,0.378
			L373.769,65.503z"/>
		<path style="fill:#FFFFFF;" d="M65.132,373.378c0.128,0.129,0.251,0.261,0.38,0.39l0.01-0.01
			C65.393,373.63,65.261,373.507,65.132,373.378z"/>
		<path style="fill:#FFFFFF;" d="M74.093,363.694L74.093,363.694l38.056-38.057l-7.406-7.406L80.33,330.67l-28.302,28.303
			c4.011,4.818,8.256,9.505,12.747,14.04L74.093,363.694z"/>
		<path style="fill:#FFFFFF;" d="M307.997,114.974l7.405,7.406l48.307-48.308l0.843-0.843l8.462-8.462
			c-4.534-4.491-9.221-8.737-14.038-12.749l-38.539,38.54L307.997,114.974z"/>
		<polygon style="fill:#FFFFFF;" points="121.032,309.932 134.942,302.844 141.95,295.836 142.118,295.668 118.994,292.005 
			80.33,330.67 104.743,318.232 112.149,325.638 121.965,315.822 		"/>
		<polygon style="fill:#FFFFFF;" points="292.607,145.175 299.696,131.26 305.588,132.194 315.402,122.379 307.997,114.974 
			320.436,90.559 281.771,129.225 285.434,152.349 		"/>
		<polygon style="fill:#FFFFFF;" points="364.455,74.818 316.148,123.125 306.876,132.398 291.058,148.217 285.638,153.637 
			143.406,295.872 141.95,297.328 141.95,324.203 172.149,294.003 164.211,290.034 186.47,278.904 186.47,256.643 201.829,264.323 
			216.41,249.741 208.73,234.382 230.991,234.382 253.251,200.991 258.014,208.136 364.552,101.596 364.552,74.721 		"/>
		<polygon style="fill:#FFFFFF;" points="292.607,145.175 291.058,148.217 306.876,132.398 305.588,132.194 		"/>
		<polygon style="fill:#FFFFFF;" points="364.455,74.818 364.552,74.721 364.552,73.229 363.709,74.072 315.402,122.379 
			316.148,123.125 		"/>
		<polygon style="fill:#FFFFFF;" points="142.118,295.668 143.406,295.872 285.638,153.637 285.434,152.349 		"/>
		<polygon style="fill:#FFFFFF;" points="142.118,295.668 141.95,295.836 141.95,297.328 143.406,295.872 		"/>
		<polygon style="fill:#FFFFFF;" points="306.876,132.398 316.148,123.125 315.402,122.379 305.588,132.194 		"/>
		<polygon style="fill:#FFFFFF;" points="285.434,152.349 285.638,153.637 291.058,148.217 292.607,145.175 		"/>
		<path style="fill:#FFFFFF;" d="M373.023,64.757l-0.009,0.009c0.125,0.124,0.253,0.244,0.378,0.368
			C373.267,65.01,373.148,64.882,373.023,64.757z"/>
		<path style="fill:#FFFFFF;" d="M364.552,74.721v26.875l21.996-21.997c-4.023-4.835-8.282-9.537-12.788-14.087L364.552,74.721z"/>
		<path style="fill:#FFFFFF;" d="M373.76,65.513c-0.124-0.125-0.244-0.253-0.368-0.378c-0.125-0.124-0.253-0.244-0.378-0.368
			l-8.462,8.462v1.492L373.76,65.513z"/>
		<path style="fill:#FFFFFF;" d="M141.95,297.328l-3.966,3.966l-15.816,15.816l-9.274,9.274L74.839,364.44l0,0l-9.317,9.317
			c4.55,4.506,9.253,8.764,14.088,12.787l62.34-62.342V297.328z"/>
		<path style="fill:#FFFFFF;" d="M64.775,373.012l-0.01,0.01c0.121,0.121,0.245,0.236,0.366,0.356
			C65.011,373.257,64.895,373.134,64.775,373.012z"/>
		<polygon style="fill:#FFFFFF;" points="121.965,315.822 122.169,317.11 137.984,301.294 134.942,302.844 		"/>
		<path style="fill:#FFFFFF;" d="M74.093,363.694L74.093,363.694l-9.318,9.318c0.12,0.121,0.236,0.245,0.357,0.366
			c0.129,0.128,0.261,0.252,0.39,0.379l9.317-9.317l0,0l38.056-38.057l-0.746-0.746L74.093,363.694z"/>
		<polygon style="fill:#FFFFFF;" points="134.942,302.844 137.984,301.294 141.95,297.328 141.95,295.836 		"/>
		<polygon style="fill:#FFFFFF;" points="112.149,325.638 112.895,326.384 122.169,317.11 121.965,315.822 		"/>
		<polygon style="fill:#FFFFFF;" points="186.47,256.643 186.47,278.904 164.211,290.034 172.149,294.003 201.829,264.323 		"/>
		<polygon style="fill:#FFFFFF;" points="230.991,234.382 208.73,234.382 216.41,249.741 258.014,208.136 253.251,200.991 		"/>
	</g>
</g>
</svg>
