<?xml version="1.0" encoding="iso-8859-1"?>
<!-- Generator: Adobe Illustrator 22.0.1, SVG Export Plug-In . SVG Version: 6.00 Build 0)  -->
<svg version="1.1" id="Layer_1" xmlns="http://www.w3.org/2000/svg" xmlns:xlink="http://www.w3.org/1999/xlink" x="0px" y="0px"
	 viewBox="0 0 438.53 438.53" style="enable-background:new 0 0 438.53 438.53;" xml:space="preserve">
<g id="_x31_49">
	<g>
		<path style="fill:#F0F0F0;" d="M187.764,191.412V4.082c-10.292,1.509-20.497,3.75-30.527,6.729v106.904L86.523,47.002
			c-7.303,5.64-14.328,11.805-21.021,18.499c-0.61,0.61-1.2,1.232-1.802,1.848l93.537,93.537v0.001v0.001v-0.001h-28.78
			L50.138,82.569c-2.161,2.668-4.256,5.373-6.272,8.118l70.202,70.202H9.785C6.992,170.93,4.931,181.132,3.6,191.413
			L187.764,191.412L187.764,191.412z"/>
		<path style="fill:#F0F0F0;" d="M359.037,52.068c-2.571-2.142-5.177-4.218-7.822-6.223l-71.873,71.872V10.043
			c-10.039-2.842-20.241-4.952-30.525-6.329v158.574L359.037,52.068z"/>
		<path style="fill:#F0F0F0;" d="M58.557,365.993c-2.157-2.33-4.26-4.708-6.315-7.13l106.397-106.397H4.244
			c1.556,10.296,3.848,20.5,6.877,30.528h102.944l-68.212,68.213c5.746,7.58,12.047,14.871,18.916,21.808l0.405-0.405
			L58.557,365.993z"/>
		<path style="fill:#F0F0F0;" d="M65.508,373.767l0.009-0.009c-0.147-0.145-0.296-0.286-0.443-0.432
			C65.22,373.473,65.362,373.621,65.508,373.767z"/>
		<path style="fill:#0052B4;" d="M43.866,90.686c-15.827,21.549-27.179,45.381-34.081,70.202h104.283L43.866,90.686z"/>
		<path style="fill:#0052B4;" d="M11.121,282.994c7.3,24.167,18.88,47.302,34.733,68.213l68.212-68.213L11.121,282.994
			L11.121,282.994z"/>
		<path style="fill:#0052B4;" d="M351.216,45.844c-21.963-16.653-46.383-28.586-71.873-35.801v107.673L351.216,45.844z"/>
		<path style="fill:#0052B4;" d="M157.237,10.812c-25.109,7.457-49.128,19.52-70.714,36.191l70.714,70.714V10.812z"/>
		<path style="fill:#D80027;" d="M248.817,162.288V3.714C228.559,1,207.993,1.117,187.764,4.082v187.33v0.001H3.6
			c-1.213,9.363-1.835,18.788-1.836,28.215c0,10.981,0.835,21.96,2.48,32.839h154.395L248.817,162.288z"/>
		<path style="fill:#D80027;" d="M157.237,160.887L157.237,160.887L63.7,67.349c-4.796,4.909-9.323,9.985-13.562,15.22
			l78.319,78.319h28.78V160.887z"/>
		<path style="fill:#0052B4;" d="M386.602,79.658l-53.268,53.268c0,2.506,0,4.955,0,7.342c0,21.9,0,39.046,0,57.029
			c0,9.051,0,18.316,0,28.515h-64.227l64.228,64.228c0,11.87,0,25.011,0,39.739l-0.001,0.001c0,0.197,0,0.386,0,0.584h-0.001h-0.583
			h-0.001h-39.741l-64.227-64.227v64.227h-28.514h-57.029h-7.342l-55.891,55.891c-3.268-2.696-6.451-5.491-9.555-8.369l-4.53-4.53
			l-0.402,0.402c41.159,40.762,94.639,61.753,148.498,62.949l-14.193-3.199l21.788-17.278l-12.135-25.022l27.095,6.262
			l11.997-25.087l11.998,25.087l27.093-6.262l-12.133,25.022l11.996,9.513c31.283-10.32,60.677-27.884,85.506-52.716
			c32.45-32.445,52.496-72.662,60.168-114.715l-0.016,0.013l0.038-13.904l-13.563-3.058l10.893-8.638l-6.066-12.511l12.245,2.831
			C437.687,172.153,420.973,120.996,386.602,79.658z M399.067,334.364l-10.846-8.699l-10.847,8.699l0.037-13.904l-13.563-3.057
			l10.894-8.639l-6.066-12.511l13.547,3.132l5.999-12.544l5.998,12.544l13.547-3.132l-6.066,12.511l10.894,8.639l-13.563,3.057
			L399.067,334.364z"/>
		<path style="fill:#0052B4;" d="M64.762,373.021c0.103,0.103,0.209,0.202,0.312,0.305c-0.103-0.103-0.203-0.208-0.306-0.311
			L64.762,373.021z"/>
		<path style="fill:#0052B4;" d="M65.174,372.61l-0.405,0.405c0.102,0.103,0.203,0.208,0.306,0.311
			c0.146,0.146,0.296,0.287,0.443,0.432l0.402-0.402L65.174,372.61z"/>
		<path style="fill:#F0F0F0;" d="M332.749,330.364h0.583l-0.292-0.292C332.944,330.169,332.847,330.267,332.749,330.364z"/>
		<path style="fill:#F0F0F0;" d="M234.614,231.645l-34.348,34.348v64.371h28.514v-64.227l64.227,64.227h39.741
			c0.098-0.097,0.195-0.195,0.292-0.292L234.614,231.645z"/>
		<path style="fill:#F0F0F0;" d="M240.447,225.813h15.218l77.669,77.668c0,7.476,0,23.109,0,26.298v0.001l0.001-0.001
			c0-14.728,0-27.869,0-39.739l-64.228-64.228h64.227c0-10.199,0-19.464,0-28.515h-64.371L240.447,225.813z"/>
		<path style="fill:#F0F0F0;" d="M333.333,140.268c0-2.387,0-4.836,0-7.342l-7.342,7.342
			C330.443,140.268,333.333,140.268,333.333,140.268z"/>
		<polygon style="fill:#F0F0F0;" points="135.896,330.364 143.237,330.364 143.237,323.022 		"/>
		<path style="fill:#F0F0F0;" d="M333.041,330.072c-0.097,0.097-0.194,0.195-0.292,0.292h0.001
			C332.847,330.267,332.944,330.169,333.041,330.072L333.041,330.072z"/>
		<path style="fill:#D80027;" d="M268.963,197.297h64.371c0-17.983,0-35.129,0-57.029c0,0-2.891,0-7.342,0L268.963,197.297z"/>
		<polygon style="fill:#D80027;" points="143.237,323.022 143.237,330.364 200.266,330.364 200.266,265.993 		"/>
		<path style="fill:#D80027;" d="M333.333,330.364L333.333,330.364c0.001-0.198,0.001-0.387,0.001-0.584
			c-0.097,0.098-0.195,0.195-0.292,0.292L333.333,330.364z"/>
		<path style="fill:#D80027;" d="M333.041,330.072c0.098-0.098,0.195-0.195,0.293-0.293c0-3.189,0-18.823,0-26.298l-77.669-77.668
			h-15.218l-5.833,5.833L333.041,330.072z"/>
		<path style="fill:#D80027;" d="M333.041,330.072L333.041,330.072c0.098-0.097,0.196-0.194,0.293-0.292v-0.001
			C333.236,329.877,333.138,329.974,333.041,330.072z"/>
		<path style="fill:#F0F0F0;" d="M287.659,391.208l-27.093,6.262l-11.998-25.087l-11.997,25.087l-27.095-6.262l12.135,25.022
			l-21.788,17.278l14.193,3.199c1.629,0.036,3.258,0.058,4.887,0.058c23.191-0.003,46.382-3.685,68.621-11.022l-11.996-9.513
			L287.659,391.208z"/>
		<polygon style="fill:#F0F0F0;" points="401.7,308.763 407.766,296.252 394.219,299.384 388.221,286.84 382.222,299.384 
			368.675,296.252 374.741,308.763 363.848,317.403 377.411,320.46 377.374,334.364 388.221,325.665 399.067,334.364 399.03,320.46 
			412.593,317.403 		"/>
		<path style="fill:#F0F0F0;" d="M430.548,232.725l-10.893,8.638l13.563,3.058l-0.038,13.904l0.016-0.013
			c2.127-11.658,3.307-23.454,3.53-35.268l-12.245-2.831L430.548,232.725z"/>
		<path style="fill:#FFFFFF;" d="M373.02,64.764l0.009-0.009c0.119,0.119,0.232,0.241,0.351,0.36
			c0.131,0.13,0.265,0.256,0.395,0.386l-0.01,0.01c4.525,4.568,8.8,9.291,12.837,14.147l0.665-0.665
			c-8.418-9.927-17.705-19.102-27.756-27.399l-0.474,0.474c0.063,0.052,0.127,0.102,0.19,0.155
			C363.958,56.173,368.562,60.351,373.02,64.764z"/>
		<path style="fill:#FFFFFF;" d="M248.817,188.966l30.526-30.526v-26.333l79.884-79.885c-0.063-0.053-0.127-0.103-0.19-0.155
			l-110.22,110.22L248.817,188.966L248.817,188.966z"/>
		<path style="fill:#FFFFFF;" d="M74.09,363.694l40.773-40.773l28.374-28.374l42.08-42.08h-26.679L52.242,358.863
			c2.055,2.421,4.158,4.8,6.315,7.13l6.617,6.617L74.09,363.694L74.09,363.694z"/>
		<polygon style="fill:#FFFFFF;" points="200.266,237.517 240.487,197.297 248.817,188.966 248.817,162.288 158.639,252.466 
			185.317,252.466 		"/>
		<path style="fill:#FFFFFF;" d="M373.775,65.501c-0.131-0.131-0.264-0.256-0.395-0.386c0.13,0.131,0.256,0.265,0.386,0.396
			L373.775,65.501z"/>
		<path style="fill:#FFFFFF;" d="M325.89,111.894l37.825-37.824l9.306-9.306c-4.458-4.413-9.061-8.591-13.792-12.541l-79.884,79.885
			v26.333l18.173-18.173L325.89,111.894z"/>
		<path style="fill:#FFFFFF;" d="M373.029,64.755l-0.009,0.009c0.119,0.118,0.24,0.233,0.359,0.351
			C373.261,64.996,373.147,64.874,373.029,64.755z"/>
		<path style="fill:#FFFFFF;" d="M364.46,74.816l-37.037,37.037c1.952-0.056,3.908-0.098,5.873-0.098
			c0.012,0,0.025-0.001,0.037-0.001c-0.012,0-0.025,0.001-0.037,0.001h0.037c0,7.59,0,14.596,0,21.172l53.268-53.268
			c-4.037-4.856-8.312-9.579-12.837-14.147L364.46,74.816z"/>
		<path style="fill:#FFFFFF;" d="M114.821,324.454L74.836,364.44l0,0l-8.916,8.916l4.53,4.53c3.104,2.877,6.287,5.672,9.555,8.369
			l55.891-55.891h-21.172C114.723,328.386,114.765,326.418,114.821,324.454z"/>
		<path style="fill:#FFFFFF;" d="M74.836,364.44l39.985-39.985c0.015-0.511,0.025-1.023,0.042-1.534L74.09,363.694l0,0l-8.916,8.916
			l0.746,0.746L74.836,364.44L74.836,364.44z"/>
		<path style="fill:#FFFFFF;" d="M325.89,111.894c0.51-0.017,1.023-0.027,1.534-0.042l37.037-37.037l9.305-9.305
			c-0.13-0.131-0.255-0.265-0.386-0.396c-0.119-0.118-0.24-0.233-0.359-0.351l-9.306,9.306L325.89,111.894z"/>
		<polygon style="fill:#FFFFFF;" points="200.266,239.009 200.266,265.993 234.614,231.645 228.781,225.813 240.447,225.813 
			268.963,197.297 241.979,197.297 		"/>
		<polygon style="fill:#FFFFFF;" points="241.979,197.297 240.487,197.297 200.266,237.517 200.266,239.009 		"/>
		<path style="fill:#FFFFFF;" d="M333.297,111.754c-1.966,0-3.921,0.042-5.873,0.098l-28.415,28.415c9.478,0,20.1,0,26.984,0
			l7.342-7.342c0-6.575,0-13.581,0-21.172L333.297,111.754L333.297,111.754z"/>
		<path style="fill:#FFFFFF;" d="M297.516,140.268c0.494,0,0.991,0,1.492,0l28.415-28.415c-0.511,0.015-1.023,0.025-1.534,0.042
			L297.516,140.268z"/>
		<path style="fill:#FFFFFF;" d="M143.237,296.038l-28.416,28.416c-0.056,1.964-0.098,3.932-0.098,5.909h21.172l7.342-7.342V296.038
			z"/>
		<path style="fill:#FFFFFF;" d="M114.863,322.921c-0.017,0.51-0.027,1.023-0.042,1.534l28.416-28.416v-1.492L114.863,322.921z"/>
		<path style="fill:#FFFFFF;" d="M248.817,190.458l-6.838,6.838h26.984l57.029-57.029c-6.884,0-17.506,0-26.984,0l-19.665,19.665
			L248.817,190.458z"/>
		<polygon style="fill:#FFFFFF;" points="279.344,159.932 279.344,158.44 248.817,188.966 248.817,190.458 		"/>
		<polygon style="fill:#FFFFFF;" points="241.979,197.297 248.817,190.458 248.817,188.966 240.487,197.297 		"/>
		<path style="fill:#FFFFFF;" d="M299.008,140.268c-0.501,0-0.998,0-1.492,0l-18.173,18.173v1.492L299.008,140.268z"/>
		<polygon style="fill:#FFFFFF;" points="186.81,252.466 143.237,296.038 143.237,323.022 200.266,265.993 200.266,239.009 		"/>
		<polygon style="fill:#FFFFFF;" points="185.317,252.466 143.237,294.546 143.237,296.038 186.81,252.466 		"/>
		<polygon style="fill:#FFFFFF;" points="200.266,239.009 200.266,237.517 185.317,252.466 186.81,252.466 		"/>
		<polygon style="fill:#FFFFFF;" points="234.614,231.645 240.447,225.813 228.781,225.813 		"/>
	</g>
</g>
</svg>
