<?xml version="1.0" encoding="iso-8859-1"?>
<!-- Generator: Adobe Illustrator 22.0.1, SVG Export Plug-In . SVG Version: 6.00 Build 0)  -->
<svg version="1.1" id="Layer_1" xmlns="http://www.w3.org/2000/svg" xmlns:xlink="http://www.w3.org/1999/xlink" x="0px" y="0px"
	 viewBox="0 0 438.53 438.53" style="enable-background:new 0 0 438.53 438.53;" xml:space="preserve">
<g id="_x31_51">
	<g>
		<path style="fill:#F0F0F0;" d="M4.249,252.466c1.556,10.296,3.848,20.5,6.877,30.528h102.941l-68.21,68.213
			c1.989,2.624,4.051,5.211,6.173,7.764l106.501-106.505L4.249,252.466L4.249,252.466z"/>
		<path style="fill:#F0F0F0;" d="M358.973,52.019c-2.551-2.124-5.138-4.185-7.762-6.175l-71.871,71.873V10.043
			c-10.038-2.842-20.24-4.952-30.525-6.329V162.18L358.973,52.019z"/>
		<path style="fill:#F0F0F0;" d="M187.764,191.412V4.082c-10.292,1.509-20.496,3.75-30.526,6.729v106.904L86.526,47.002
			c-7.302,5.64-14.328,11.805-21.021,18.499c-0.61,0.61-1.2,1.232-1.802,1.848l93.534,93.538v0.001v0.001v-0.001h-28.779
			L50.142,82.569c-2.161,2.668-4.256,5.373-6.272,8.118l70.2,70.202H9.79c-2.792,10.041-4.853,20.244-6.185,30.525L187.764,191.412
			L187.764,191.412z"/>
		<path style="fill:#0052B4;" d="M43.87,90.686c-15.827,21.549-27.178,45.381-34.08,70.202h104.28L43.87,90.686z"/>
		<path style="fill:#0052B4;" d="M11.125,282.994c7.3,24.167,18.88,47.302,34.732,68.213l68.21-68.213L11.125,282.994
			L11.125,282.994z"/>
		<path style="fill:#0052B4;" d="M351.211,45.844c-21.963-16.653-46.382-28.586-71.871-35.801v107.674L351.211,45.844z"/>
		<path style="fill:#0052B4;" d="M157.237,10.811c-25.108,7.457-49.127,19.52-70.712,36.191l70.712,70.714V10.811z"/>
		<path style="fill:#D80027;" d="M248.815,162.179V3.714C228.558,1,207.992,1.116,187.764,4.082v187.33v0.001H3.605
			c-1.213,9.363-1.835,18.788-1.836,28.215c0,10.981,0.835,21.96,2.479,32.839h154.283L248.815,162.179z"/>
		<path style="fill:#D80027;" d="M157.237,160.887L157.237,160.887L63.703,67.349c-4.796,4.909-9.323,9.985-13.562,15.22
			l78.316,78.319h28.78V160.887z"/>
		<path style="fill:#D80027;" d="M386.548,79.597L284.084,182.064v27.594h81.13v81.132h-81.13v81.132h-81.131V290.79H175.36
			l-95.752,95.755c40.225,33.467,89.749,50.22,139.292,50.22c55.812-0.007,111.645-21.253,154.122-63.738
			C453.235,292.826,457.734,165.148,386.548,79.597z"/>
		<polygon style="fill:#F0F0F0;" points="202.953,290.791 202.953,371.923 284.084,371.923 284.084,290.791 365.214,290.791 
			365.214,209.659 284.084,209.659 284.084,182.064 175.361,290.791 		"/>
		<path style="fill:#FFFFFF;" d="M65.512,373.768l4.476,4.476c3.104,2.877,6.286,5.672,9.555,8.369l0.067-0.067
			c-4.835-4.023-9.538-8.282-14.088-12.788L65.512,373.768z"/>
		<path style="fill:#FFFFFF;" d="M52.03,358.971l-0.25,0.25c2.054,2.421,4.158,4.8,6.315,7.13l6.671,6.671l0.007-0.007
			C60.281,368.479,56.037,363.792,52.03,358.971z"/>
		<path style="fill:#FFFFFF;" d="M373.014,64.764l0.009-0.009c0.12,0.12,0.234,0.243,0.354,0.363
			c0.13,0.129,0.263,0.253,0.392,0.383l-0.009,0.009c4.506,4.549,8.766,9.252,12.788,14.087l0.248-0.248
			c-8.418-9.927-17.705-19.102-27.755-27.399l-0.068,0.068c0.083,0.069,0.167,0.135,0.25,0.204
			C363.953,56.173,368.557,60.35,373.014,64.764z"/>
		<path style="fill:#FFFFFF;" d="M64.766,373.022l0.746,0.746c-0.147-0.147-0.291-0.297-0.437-0.445
			C64.972,373.221,64.868,373.124,64.766,373.022z"/>
		<path style="fill:#FFFFFF;" d="M65.074,373.322c0.147,0.148,0.29,0.298,0.437,0.445l0.01-0.01
			C65.373,373.611,65.222,373.47,65.074,373.322z"/>
		<path style="fill:#FFFFFF;" d="M74.093,363.694L74.093,363.694l72.901-72.903l38.323-38.325h-26.786L52.03,358.971
			c4.007,4.821,8.252,9.509,12.743,14.044L74.093,363.694z"/>
		<path style="fill:#FFFFFF;" d="M248.815,188.966l30.525-30.526v-26.333l79.882-79.885c-0.083-0.069-0.167-0.135-0.25-0.204
			L248.815,162.179V188.966z"/>
		<polygon style="fill:#FFFFFF;" points="248.815,162.179 158.531,252.466 185.317,252.466 248.815,188.966 		"/>
		<path style="fill:#FFFFFF;" d="M373.769,65.501c-0.13-0.13-0.262-0.254-0.392-0.383c0.129,0.13,0.254,0.262,0.383,0.392
			L373.769,65.501z"/>
		<path style="fill:#FFFFFF;" d="M363.709,74.069l9.305-9.306c-4.457-4.413-9.061-8.591-13.792-12.541l-79.882,79.885v26.333
			l4.743-4.743L363.709,74.069z"/>
		<path style="fill:#FFFFFF;" d="M373.023,64.755l-0.009,0.009c0.12,0.119,0.243,0.235,0.363,0.354
			C373.258,64.998,373.143,64.875,373.023,64.755z"/>
		<path style="fill:#FFFFFF;" d="M64.772,373.015l-0.007,0.007c0.102,0.102,0.207,0.199,0.309,0.301
			C64.973,373.22,64.873,373.117,64.772,373.015z"/>
		<path style="fill:#FFFFFF;" d="M148.486,290.791L74.839,364.44l0,0l-9.318,9.318c4.55,4.506,9.253,8.765,14.088,12.788
			l95.752-95.755H148.486z"/>
		<path style="fill:#FFFFFF;" d="M364.455,74.815l-80.371,80.373v26.875L386.548,79.597c-4.023-4.835-8.282-9.537-12.788-14.087
			L364.455,74.815z"/>
		<path style="fill:#FFFFFF;" d="M74.093,363.694L74.093,363.694l-9.321,9.321c0.101,0.102,0.201,0.205,0.302,0.307
			c0.148,0.147,0.299,0.289,0.447,0.436l9.318-9.318l0,0l73.647-73.649h-1.492L74.093,363.694z"/>
		<path style="fill:#FFFFFF;" d="M284.084,153.697v1.492l80.371-80.373l9.305-9.305c-0.129-0.13-0.253-0.263-0.383-0.392
			c-0.12-0.119-0.242-0.235-0.363-0.354l-9.305,9.306L284.084,153.697z"/>
		<polygon style="fill:#FFFFFF;" points="279.341,159.932 248.815,190.458 186.809,252.466 148.486,290.791 175.361,290.791 
			284.084,182.064 284.084,155.189 		"/>
		<polygon style="fill:#FFFFFF;" points="185.317,252.466 146.994,290.791 148.486,290.791 186.809,252.466 		"/>
		<polygon style="fill:#FFFFFF;" points="279.341,159.932 279.341,158.44 248.815,188.966 248.815,190.458 		"/>
		<polygon style="fill:#FFFFFF;" points="248.815,190.458 248.815,188.966 185.317,252.466 186.809,252.466 		"/>
		<polygon style="fill:#FFFFFF;" points="284.084,155.189 284.084,153.697 279.341,158.44 279.341,159.932 		"/>
	</g>
</g>
</svg>
