<?xml version="1.0" encoding="iso-8859-1"?>
<!-- Generator: Adobe Illustrator 22.0.1, SVG Export Plug-In . SVG Version: 6.00 Build 0)  -->
<svg version="1.1" id="Layer_1" xmlns="http://www.w3.org/2000/svg" xmlns:xlink="http://www.w3.org/1999/xlink" x="0px" y="0px"
	 viewBox="0 0 438.53 438.53" style="enable-background:new 0 0 438.53 438.53;" xml:space="preserve">
<g id="_x31_52">
	<g>
		<path style="fill:#0052B4;" d="M78.384,331.662l13.43-26.359l-20.915-20.916l29.216,4.63l13.427-26.358l4.629,29.217l0.823,0.13
			l162.777-162.78l-0.13-0.823l-29.215-4.629l26.355-13.429l-4.629-29.215l20.918,20.915l26.356-13.43l-0.99,1.944l38.539-38.54
			c-85.548-71.23-213.255-66.745-293.47,13.484C23.021,107.981,1.776,163.815,1.769,219.629c0,49.564,16.766,99.11,50.259,139.344
			L80.33,330.67L78.384,331.662z M190.764,66.412l9.142-28.134l9.142,28.134h29.579l-23.931,17.387l9.142,28.134l-23.931-17.388
			l-23.932,17.388l9.142-28.134l-23.931-17.387H190.764z M78.384,88.614l26.359,13.429l20.916-20.915l-4.629,29.216l26.357,13.43
			l-29.216,4.628l-4.628,29.218l-13.43-26.358l-29.215,4.629l20.916-20.916L78.384,88.614z M28.05,210.138l28.133-9.142v-29.581
			l17.386,23.933l28.134-9.142l-17.389,23.932l17.389,23.932l-28.134-9.141l-17.386,23.932V219.28L28.05,210.138z"/>
		<polygon style="fill:#FFDA44;" points="175.974,111.933 199.906,94.545 223.837,111.933 214.695,83.799 238.627,66.412 
			209.048,66.412 199.906,38.278 190.764,66.412 161.184,66.412 185.115,83.799 		"/>
		<polygon style="fill:#FFDA44;" points="100.114,131.261 113.544,157.619 118.171,128.401 147.387,123.774 121.03,110.344 
			125.659,81.128 104.743,102.043 78.384,88.614 91.815,114.974 70.899,135.89 		"/>
		<polygon style="fill:#FFDA44;" points="73.569,224.929 101.703,234.07 84.314,210.138 101.703,186.206 73.569,195.348 
			56.183,171.415 56.183,200.996 28.05,210.138 56.183,219.28 56.183,248.861 		"/>
		<polygon style="fill:#FFDA44;" points="118.171,291.875 113.543,262.658 100.115,289.016 70.899,284.386 91.814,305.302 
			78.384,331.662 80.33,330.67 118.994,292.005 		"/>
		<polygon style="fill:#FFDA44;" points="321.427,88.614 295.07,102.044 274.152,81.129 278.781,110.344 252.426,123.773 
			281.641,128.401 281.771,129.225 320.436,90.559 		"/>
		<path style="fill:#F0F0F0;" d="M386.548,79.599l-80.599,80.6c15.344,19.077,24.529,43.317,24.529,69.705
			c0,61.471-49.831,111.303-111.301,111.303c-26.387,0-50.626-9.186-69.703-24.53l-69.866,69.868
			c40.225,33.467,89.749,50.22,139.292,50.22c55.812-0.007,111.645-21.252,154.122-63.737
			C453.235,292.827,457.734,165.15,386.548,79.599z"/>
		<path style="fill:#D80027;" d="M219.178,341.208c61.47,0,111.301-49.832,111.301-111.303c0-26.388-9.186-50.628-24.529-69.705
			L149.475,316.678C168.552,332.022,192.791,341.208,219.178,341.208z"/>
		<path style="fill:#FFFFFF;" d="M373.023,64.757c0.125,0.125,0.244,0.253,0.368,0.378c0.125,0.124,0.253,0.244,0.378,0.368
			l-0.009,0.009c4.506,4.549,8.766,9.252,12.788,14.087l0.248-0.248c-8.418-9.927-17.705-19.102-27.755-27.398l-0.065,0.065
			c4.818,4.011,9.504,8.257,14.038,12.749L373.023,64.757z"/>
		<path style="fill:#FFFFFF;" d="M64.766,373.022l0.746,0.746c-0.125-0.125-0.244-0.253-0.368-0.378
			C65.018,373.266,64.89,373.147,64.766,373.022z"/>
		<path style="fill:#FFFFFF;" d="M65.512,373.768l4.476,4.476c3.104,2.877,6.286,5.672,9.555,8.369l0.067-0.067
			c-4.835-4.023-9.538-8.282-14.088-12.787L65.512,373.768z"/>
		<path style="fill:#FFFFFF;" d="M52.028,358.973l-0.248,0.248c2.054,2.421,4.158,4.8,6.315,7.13l6.671,6.671l0.01-0.01
			C60.284,368.478,56.039,363.791,52.028,358.973z"/>
		<polygon style="fill:#FFFFFF;" points="299.696,131.26 292.607,145.175 305.588,132.194 		"/>
		<polygon style="fill:#FFFFFF;" points="121.965,315.822 134.942,302.844 121.032,309.932 		"/>
		<path style="fill:#FFFFFF;" d="M373.769,65.503c-0.125-0.125-0.253-0.244-0.378-0.368c0.124,0.125,0.244,0.253,0.368,0.378
			L373.769,65.503z"/>
		<polygon style="fill:#FFFFFF;" points="285.434,152.349 281.771,129.225 118.994,292.005 142.118,295.668 		"/>
		<path style="fill:#FFFFFF;" d="M65.143,373.39c0.124,0.125,0.243,0.253,0.368,0.378l0.01-0.01
			C65.396,373.634,65.268,373.514,65.143,373.39z"/>
		<path style="fill:#FFFFFF;" d="M74.093,363.694L74.093,363.694l38.056-38.057l-7.406-7.406L80.33,330.67l-28.302,28.303
			c4.011,4.818,8.256,9.505,12.747,14.04L74.093,363.694z"/>
		<path style="fill:#FFFFFF;" d="M307.997,114.974l7.405,7.406l48.307-48.308l9.305-9.305c-4.534-4.491-9.221-8.737-14.038-12.749
			l-38.539,38.54L307.997,114.974z"/>
		<polygon style="fill:#FFFFFF;" points="121.032,309.932 134.942,302.844 135.029,302.757 142.118,295.668 118.994,292.005 
			80.33,330.67 104.743,318.232 112.149,325.638 121.965,315.822 		"/>
		<polygon style="fill:#FFFFFF;" points="292.029,145.754 292.607,145.175 299.696,131.26 305.588,132.194 315.402,122.379 
			307.997,114.974 320.436,90.559 281.771,129.225 285.434,152.349 		"/>
		<path style="fill:#FFFFFF;" d="M373.023,64.757l-0.009,0.009c0.125,0.124,0.253,0.244,0.378,0.368
			C373.267,65.01,373.148,64.882,373.023,64.757z"/>
		<path style="fill:#FFFFFF;" d="M64.775,373.012l-0.01,0.01c0.125,0.125,0.253,0.244,0.378,0.368
			C65.019,373.265,64.899,373.138,64.775,373.012z"/>
		<path style="fill:#FFFFFF;" d="M364.455,74.818l-48.307,48.308l-9.272,9.273l-14.058,14.058c4.755,4.2,9.152,8.796,13.131,13.744
			l80.599-80.6c-4.023-4.835-8.282-9.537-12.788-14.087L364.455,74.818z"/>
		<path style="fill:#FFFFFF;" d="M135.732,303.546l-13.563,13.563l-9.274,9.274L74.839,364.44l0,0l-9.318,9.318
			c4.55,4.506,9.253,8.765,14.088,12.787l69.866-69.868C144.528,312.698,139.931,308.302,135.732,303.546z"/>
		<path style="fill:#FFFFFF;" d="M292.607,145.175l-0.383,0.752c0.2,0.174,0.396,0.353,0.594,0.529l14.058-14.058l-1.288-0.204
			L292.607,145.175z"/>
		<path style="fill:#FFFFFF;" d="M134.942,302.844l-12.978,12.978l0.204,1.288l13.563-13.563c-0.225-0.254-0.454-0.504-0.676-0.76
			L134.942,302.844z"/>
		<path style="fill:#FFFFFF;" d="M364.455,74.818l9.305-9.305c-0.124-0.125-0.244-0.253-0.368-0.378
			c-0.125-0.124-0.253-0.244-0.378-0.368l-9.305,9.305l-48.307,48.308l0.746,0.746L364.455,74.818z"/>
		<path style="fill:#FFFFFF;" d="M74.093,363.694L74.093,363.694l-9.318,9.318c0.124,0.125,0.244,0.253,0.368,0.378
			c0.125,0.124,0.253,0.244,0.378,0.368l9.318-9.318l0,0l38.056-38.057l-0.746-0.746L74.093,363.694z"/>
		<path style="fill:#FFFFFF;" d="M134.942,302.844l0.113-0.058c-0.009-0.01-0.018-0.02-0.026-0.029L134.942,302.844z"/>
		<polygon style="fill:#FFFFFF;" points="112.149,325.638 112.895,326.384 122.169,317.11 121.965,315.822 		"/>
		<path style="fill:#FFFFFF;" d="M292.607,145.175l-0.578,0.578c0.066,0.057,0.13,0.116,0.195,0.174L292.607,145.175z"/>
		<polygon style="fill:#FFFFFF;" points="306.876,132.398 316.148,123.125 315.402,122.379 305.588,132.194 		"/>
		<path style="fill:#FFFFFF;" d="M292.818,146.456l-1.761,1.761l-5.42,5.42L143.406,295.872l-5.422,5.422l-2.253,2.253
			c4.2,4.756,8.796,9.152,13.743,13.132L305.95,160.2C301.97,155.252,297.574,150.656,292.818,146.456z"/>
		<path style="fill:#FFFFFF;" d="M291.058,148.217l1.761-1.761c-0.199-0.176-0.394-0.355-0.594-0.529L291.058,148.217z"/>
		<path style="fill:#FFFFFF;" d="M135.055,302.786c0.222,0.256,0.452,0.506,0.676,0.76l2.253-2.253L135.055,302.786z"/>
		<polygon style="fill:#FFFFFF;" points="142.118,295.668 143.406,295.872 285.638,153.637 285.434,152.349 		"/>
		<path style="fill:#FFFFFF;" d="M135.029,302.757c0.009,0.01,0.018,0.02,0.026,0.029l2.929-1.493l5.422-5.422l-1.288-0.204
			L135.029,302.757z"/>
		<path style="fill:#FFFFFF;" d="M292.029,145.754l-6.595,6.595l0.204,1.288l5.42-5.42l1.166-2.289
			C292.158,145.87,292.095,145.811,292.029,145.754z"/>
	</g>
</g>
</svg>
