<?xml version="1.0" encoding="iso-8859-1"?>
<!-- Generator: Adobe Illustrator 22.0.1, SVG Export Plug-In . SVG Version: 6.00 Build 0)  -->
<svg version="1.1" id="Layer_1" xmlns="http://www.w3.org/2000/svg" xmlns:xlink="http://www.w3.org/1999/xlink" x="0px" y="0px"
	 viewBox="0 0 438.53 438.53" style="enable-background:new 0 0 438.53 438.53;" xml:space="preserve">
<g id="_x31_59">
	<g>
		<path style="fill:#F0F0F0;" d="M258.182,324.916H141.235l-31.259,31.259h72.746l-58.874,58.875
			c10.324,4.992,20.962,9.125,31.808,12.395l71.269-71.269h0.002v29.467L179.4,433.17c4.243,0.776,8.503,1.434,12.777,1.958
			l34.75-34.75v36.223c10.471-0.383,20.918-1.515,31.256-3.395L258.182,324.916L258.182,324.916z"/>
		<polygon style="fill:#F0F0F0;" points="258.184,262.401 258.184,262.4 258.184,207.967 203.749,262.401 		"/>
		<path style="fill:#F0F0F0;" d="M320.698,324.918v86.736c17.995-9.488,34.922-21.676,50.194-36.543l-18.936-18.936v-0.001h29.47
			l3.709,3.709c9.349-11.005,17.436-22.722,24.246-34.966L320.698,324.918L320.698,324.918z"/>
		<path style="fill:#F0F0F0;" d="M435.14,192.165c-1.51-12.328-4.074-24.549-7.683-36.521l-75.501,75.502v-29.47l67.693-67.694
			c-1.439-3.413-2.967-6.797-4.587-10.148l-63.107,63.107v-72.746l-31.256,31.256v116.95h0.001h111.712
			c2.088-10.326,3.424-20.773,4.01-31.256H396.16L435.14,192.165z"/>
		<path style="fill:#0052B4;" d="M435.14,192.165l-38.981,38.981h40.262C437.147,218.149,436.725,205.1,435.14,192.165z"/>
		<path style="fill:#0052B4;" d="M109.976,356.175l-30.372,30.372c13.782,11.461,28.652,20.965,44.243,28.503l58.874-58.875H109.976
			z"/>
		<path style="fill:#0052B4;" d="M351.955,186.941l63.107-63.107c-7.538-15.59-17.047-30.456-28.512-44.234l-34.595,34.595V186.941z
			"/>
		<path style="fill:#0052B4;" d="M192.177,435.127c8.872,1.087,17.799,1.637,26.726,1.637c2.675,0,5.35-0.065,8.024-0.163v-36.223
			L192.177,435.127z"/>
		<path style="fill:#D80027;" d="M320.699,262.402v-116.95l-62.515,62.515V262.4v0.001h-54.435l-62.515,62.515h116.948h0.001v108.29
			c21.588-3.925,42.694-11.103,62.515-21.553v-86.736v-0.001h88.683c10.985-19.752,18.653-40.863,23.031-62.515H320.699V262.402z"/>
		<path style="fill:#D80027;" d="M351.956,356.174L351.956,356.174l18.936,18.937c0.713-0.694,1.432-1.379,2.138-2.084
			c4.251-4.25,8.279-8.64,12.105-13.143l-3.709-3.709L351.956,356.174L351.956,356.174z"/>
		<path style="fill:#D80027;" d="M226.926,356.175h-0.002l-71.269,71.269c7.821,2.358,15.749,4.263,23.745,5.725l47.527-47.528
			v-29.466H226.926z"/>
		<path style="fill:#D80027;" d="M351.956,231.146l75.501-75.502c-2.208-7.327-4.814-14.557-7.809-21.661l-67.693,67.694
			L351.956,231.146L351.956,231.146z"/>
		<polygon style="fill:#CCA237;" points="70.835,171.616 53.387,210.526 114.975,242.864 112.975,189.725 		"/>
		<polygon style="fill:#CCA237;" points="181.885,133.215 120.383,188.829 122.342,240.838 254.208,116.934 235.233,84.975 		"/>
		<path style="fill:#CCA237;" d="M65.503,65.5C23.018,107.978,1.772,163.812,1.765,219.626c0,49.564,16.769,99.108,50.263,139.342
			L358.973,52.024C273.422-19.205,145.719-14.729,65.503,65.5z M121.758,251.581c-0.398,0.446-0.885,0.792-1.457,1.007
			c-0.074,0.03-0.156,0.026-0.23,0.048c-0.342,0.104-0.688,0.216-1.063,0.216c-0.019,0-0.048,0.004-0.074,0
			c-0.427,0-0.844-0.1-1.253-0.245c-0.052-0.019-0.108-0.007-0.16-0.03c-0.052-0.022-0.089-0.059-0.138-0.082
			c-0.06-0.026-0.123-0.037-0.178-0.067l-70.367-36.947c-1.74-0.911-2.468-3.018-1.661-4.81l20.373-45.437
			c0.022-0.048,0.067-0.078,0.093-0.126c0.175-0.346,0.398-0.665,0.677-0.948c0.045-0.048,0.082-0.1,0.13-0.145
			c0.026-0.022,0.045-0.056,0.071-0.078L193.877,54.599c1.178-1.007,2.851-1.182,4.204-0.442l39.802,21.752
			c0.074,0.041,0.13,0.097,0.197,0.141c0.067,0.045,0.126,0.089,0.19,0.138c0.394,0.286,0.729,0.632,0.981,1.041
			c0.011,0.019,0.033,0.03,0.045,0.048l22.823,38.431c0.896,1.498,0.621,3.412-0.647,4.598L121.758,251.581z"/>
		<path style="fill:#FFFFFF;" d="M262.118,115.708l-22.823-38.431c-0.011-0.019-0.033-0.03-0.045-0.048
			c-0.253-0.409-0.587-0.755-0.981-1.041c-0.063-0.048-0.123-0.093-0.19-0.138s-0.123-0.1-0.197-0.141L198.08,54.157
			c-1.353-0.74-3.026-0.565-4.204,0.442L66.519,163.936c-0.026,0.022-0.045,0.056-0.071,0.078c-0.048,0.045-0.086,0.097-0.13,0.145
			c-0.279,0.283-0.502,0.602-0.677,0.948c-0.026,0.048-0.071,0.078-0.093,0.126L45.175,210.67c-0.807,1.792-0.078,3.899,1.661,4.81
			l70.367,36.947c0.056,0.03,0.119,0.041,0.178,0.067c0.048,0.022,0.085,0.06,0.138,0.082c0.052,0.022,0.108,0.011,0.16,0.03
			c0.409,0.145,0.825,0.245,1.253,0.245c0.026,0.004,0.056,0,0.074,0c0.375,0,0.721-0.112,1.063-0.216
			c0.074-0.022,0.156-0.019,0.23-0.048c0.572-0.216,1.059-0.561,1.457-1.007l139.713-131.275
			C262.739,119.12,263.014,117.206,262.118,115.708z M53.387,210.526l17.448-38.91l42.14,18.109l2,53.139L53.387,210.526z
			 M122.342,240.838l-1.959-52.009l61.502-55.615l53.347-48.24l18.976,31.959L122.342,240.838z"/>
		<path style="fill:#FFFFFF;" d="M373.021,64.762l0.008-0.008c0.117,0.117,0.23,0.238,0.347,0.355
			c0.132,0.131,0.267,0.259,0.399,0.391l-0.009,0.009c1.962,1.984,3.878,3.997,5.75,6.035c0.004,0.004,0.007,0.008,0.011,0.012
			c2.42,2.636,4.756,5.321,7.023,8.045l0.253-0.253c-8.418-9.927-17.705-19.102-27.756-27.399l-0.074,0.074
			c3.126,2.603,6.202,5.295,9.211,8.099C369.813,61.642,371.427,63.187,373.021,64.762z"/>
		<path style="fill:#FFFFFF;" d="M64.763,373.02l0.746,0.746c-0.109-0.109-0.212-0.22-0.32-0.329
			C65.048,373.297,64.904,373.161,64.763,373.02z"/>
		<path style="fill:#FFFFFF;" d="M65.509,373.766l4.476,4.476c3.104,2.877,6.287,5.672,9.555,8.369l0.064-0.064
			c-4.836-4.021-9.537-8.283-14.087-12.789L65.509,373.766z"/>
		<path style="fill:#FFFFFF;" d="M57.443,365.25c-1.856-2.065-3.652-4.164-5.415-6.282l-0.251,0.251
			c2.055,2.421,4.158,4.8,6.315,7.13l6.671,6.671l0.01-0.01C62.257,370.467,59.81,367.883,57.443,365.25z"/>
		<path style="fill:#FFFFFF;" d="M370.993,68.283c2.866,1.037,5.71,2.119,8.524,3.261c-1.872-2.039-3.788-4.051-5.75-6.035
			l-0.949,0.949L370.993,68.283z"/>
		<path style="fill:#FFFFFF;" d="M373.03,64.754l-0.008,0.008c0.118,0.116,0.237,0.23,0.355,0.347
			C373.259,64.991,373.147,64.871,373.03,64.754z"/>
		<polygon style="fill:#FFFFFF;" points="83.1,356.175 109.976,356.175 141.235,324.916 114.359,324.916 		"/>
		<polygon style="fill:#FFFFFF;" points="217.529,221.747 226.926,231.144 226.926,231.145 226.926,231.146 226.926,231.145 
			208.13,231.145 176.874,262.401 203.749,262.401 258.184,207.967 258.184,181.091 		"/>
		<polygon style="fill:#FFFFFF;" points="320.699,118.576 320.699,145.452 351.955,114.196 351.955,87.32 		"/>
		<path style="fill:#FFFFFF;" d="M370.983,68.292c2.872,1.038,5.725,2.119,8.544,3.264c-0.004-0.004-0.007-0.008-0.011-0.012
			c-2.814-1.142-5.658-2.224-8.524-3.261L370.983,68.292z"/>
		<path style="fill:#FFFFFF;" d="M64.774,373.01l-0.01,0.01c0.141,0.141,0.285,0.277,0.426,0.417
			C65.049,373.296,64.914,373.151,64.774,373.01z"/>
		<path style="fill:#FFFFFF;" d="M83.1,356.175l-8.263,8.263l0,0l-7.907,7.907l-1.413,1.413c4.55,4.506,9.251,8.767,14.087,12.789
			l30.372-30.372H83.1z"/>
		<path style="fill:#FFFFFF;" d="M370.983,68.292l-6.522,6.522L351.955,87.32v26.875L386.55,79.6
			c-2.267-2.724-4.602-5.409-7.023-8.045C376.708,70.411,373.855,69.331,370.983,68.292z"/>
		<polygon style="fill:#FFFFFF;" points="114.359,324.916 141.235,324.916 203.749,262.401 176.874,262.401 		"/>
		<polygon style="fill:#FFFFFF;" points="258.184,181.091 258.184,207.967 320.699,145.452 320.699,118.576 		"/>
		<polygon style="fill:#FFFFFF;" points="226.926,231.145 226.926,231.144 217.529,221.747 208.13,231.145 		"/>
		<path style="fill:#FFFFFF;" d="M65.189,373.437c0.108,0.109,0.211,0.22,0.32,0.329l0.008-0.008
			C65.408,373.65,65.298,373.545,65.189,373.437z"/>
		<path style="fill:#FFFFFF;" d="M57.443,365.25c2.366,2.633,4.814,5.218,7.33,7.76l1.293-1.293
			C63.132,369.622,60.254,367.469,57.443,365.25z"/>
		<path style="fill:#FFFFFF;" d="M64.774,373.01c0.14,0.141,0.275,0.286,0.416,0.427c0.109,0.108,0.219,0.213,0.328,0.321
			l1.413-1.413c-0.291-0.206-0.573-0.421-0.864-0.628L64.774,373.01z"/>
		<path style="fill:#FFFFFF;" d="M373.776,65.5c-0.132-0.132-0.267-0.259-0.399-0.391c0.132,0.132,0.259,0.267,0.39,0.4
			L373.776,65.5z"/>
		<path style="fill:#FFFFFF;" d="M368.183,60.123c1.365,1.794,2.697,3.622,4.011,5.466l0.827-0.827
			C371.427,63.187,369.813,61.642,368.183,60.123z"/>
		<path style="fill:#FFFFFF;" d="M373.766,65.509c-0.131-0.133-0.258-0.267-0.39-0.4c-0.118-0.117-0.237-0.231-0.355-0.347
			l-0.827,0.827c0.207,0.29,0.418,0.577,0.624,0.868L373.766,65.509z"/>
		<path style="fill:#FFFFFF;" d="M66.066,371.717l8.025-8.025l0,0l7.517-7.517l31.259-31.259l62.515-62.515l31.256-31.256
			L216.783,221l41.401-41.401l62.515-62.515l31.256-31.256l11.76-11.76l6.177-6.177l0.01-0.01l2.291-2.291
			c-1.314-1.845-2.646-3.672-4.011-5.466c-3.009-2.805-6.085-5.497-9.211-8.099L52.028,358.968c1.763,2.118,3.559,4.217,5.415,6.282
			C60.254,367.469,63.132,369.622,66.066,371.717z"/>
		<path style="fill:#FFFFFF;" d="M372.818,66.457c-0.206-0.291-0.417-0.578-0.624-0.868l-2.291,2.291
			c0.365,0.13,0.726,0.27,1.09,0.402L372.818,66.457z"/>
		<polygon style="fill:#FFFFFF;" points="112.867,324.916 81.608,356.175 83.1,356.175 114.359,324.916 		"/>
		<polygon style="fill:#FFFFFF;" points="258.184,181.091 258.184,179.599 216.783,221.001 217.529,221.747 		"/>
		<polygon style="fill:#FFFFFF;" points="208.13,231.145 206.638,231.145 175.382,262.401 176.874,262.401 		"/>
		<polygon style="fill:#FFFFFF;" points="351.955,87.32 351.955,85.828 320.699,117.084 320.699,118.576 		"/>
		<path style="fill:#FFFFFF;" d="M370.993,68.283c-0.364-0.132-0.725-0.272-1.09-0.402l-0.01,0.01
			c0.365,0.13,0.726,0.27,1.091,0.401L370.993,68.283z"/>
		<path style="fill:#FFFFFF;" d="M74.091,363.692L74.091,363.692l-8.025,8.025c0.29,0.207,0.572,0.422,0.864,0.628l7.907-7.907l0,0
			l8.263-8.263h-1.492L74.091,363.692z"/>
		<path style="fill:#FFFFFF;" d="M364.461,74.814l6.522-6.522c-0.365-0.132-0.725-0.271-1.091-0.401l-6.177,6.177l-11.76,11.76
			v1.492L364.461,74.814z"/>
		<polygon style="fill:#FFFFFF;" points="176.874,262.401 175.382,262.401 112.867,324.916 114.359,324.916 		"/>
		<polygon style="fill:#FFFFFF;" points="320.699,118.576 320.699,117.084 258.184,179.599 258.184,181.091 		"/>
		<polygon style="fill:#FFFFFF;" points="217.529,221.747 216.783,221.001 206.638,231.145 208.13,231.145 		"/>
	</g>
</g>
</svg>
