<?xml version="1.0" encoding="iso-8859-1"?>
<!-- Generator: Adobe Illustrator 22.0.1, SVG Export Plug-In . SVG Version: 6.00 Build 0)  -->
<svg version="1.1" id="Layer_1" xmlns="http://www.w3.org/2000/svg" xmlns:xlink="http://www.w3.org/1999/xlink" x="0px" y="0px"
	 viewBox="0 0 438.53 438.53" style="enable-background:new 0 0 438.53 438.53;" xml:space="preserve">
<g id="_x31_60">
	<g>
		<polygon style="fill:#919394;" points="324.802,266.409 263.302,322.023 265.261,374.033 397.123,250.128 378.148,218.168 		"/>
		<polygon style="fill:#919394;" points="213.755,304.81 196.308,343.72 257.894,376.058 255.894,322.919 		"/>
		<path style="fill:#919394;" d="M386.548,79.595L79.609,386.545c40.225,33.467,89.749,50.221,139.292,50.221
			c55.812-0.007,111.645-21.253,154.122-63.738C453.235,292.825,457.734,165.146,386.548,79.595z M264.677,384.775
			c-0.398,0.446-0.885,0.792-1.457,1.007c-0.074,0.03-0.156,0.026-0.23,0.048c-0.342,0.104-0.688,0.216-1.063,0.216
			c-0.019,0-0.048,0.004-0.074,0c-0.427,0-0.844-0.1-1.253-0.245c-0.052-0.019-0.108-0.007-0.16-0.03
			c-0.052-0.022-0.089-0.06-0.138-0.082c-0.06-0.026-0.123-0.037-0.178-0.067l-70.365-36.948c-1.74-0.911-2.468-3.018-1.661-4.81
			l20.373-45.438c0.022-0.048,0.067-0.078,0.093-0.126c0.175-0.346,0.398-0.665,0.677-0.948c0.045-0.048,0.082-0.1,0.13-0.145
			c0.026-0.022,0.045-0.056,0.071-0.078l127.353-109.338c1.178-1.007,2.851-1.182,4.204-0.442l39.801,21.752
			c0.074,0.041,0.13,0.097,0.197,0.141c0.067,0.045,0.126,0.089,0.19,0.138c0.394,0.286,0.729,0.632,0.981,1.041
			c0.011,0.019,0.033,0.03,0.045,0.048l22.822,38.431c0.896,1.498,0.621,3.412-0.647,4.598L264.677,384.775z"/>
		<path style="fill:#FFFFFF;" d="M405.033,248.901l-22.822-38.431c-0.011-0.019-0.033-0.03-0.045-0.048
			c-0.253-0.409-0.587-0.755-0.981-1.041c-0.063-0.048-0.123-0.093-0.19-0.138c-0.067-0.045-0.123-0.1-0.197-0.141l-39.801-21.752
			c-1.353-0.74-3.026-0.565-4.204,0.442L209.44,297.13c-0.026,0.022-0.045,0.056-0.071,0.078c-0.048,0.045-0.086,0.097-0.13,0.145
			c-0.279,0.282-0.502,0.602-0.677,0.948c-0.026,0.048-0.071,0.078-0.093,0.126l-20.373,45.438c-0.807,1.792-0.078,3.899,1.661,4.81
			l70.365,36.948c0.056,0.03,0.119,0.041,0.178,0.067c0.048,0.022,0.086,0.059,0.138,0.082c0.052,0.022,0.108,0.011,0.16,0.03
			c0.409,0.145,0.825,0.245,1.253,0.245c0.026,0.004,0.056,0,0.074,0c0.375,0,0.721-0.112,1.063-0.216
			c0.074-0.022,0.156-0.019,0.23-0.048c0.572-0.216,1.059-0.561,1.457-1.007L404.384,253.5
			C405.653,252.313,405.928,250.399,405.033,248.901z M196.308,343.72l17.447-38.91l42.139,18.11l2,53.139L196.308,343.72z
			 M265.261,374.033l-1.959-52.009l61.5-55.615l53.346-48.24l18.975,31.959L265.261,374.033z"/>
		<polygon style="fill:#CCA237;" points="181.884,133.214 120.384,188.829 122.343,240.839 254.205,116.933 235.23,84.974 		"/>
		<path style="fill:#CCA237;" d="M65.505,65.498C23.021,107.977,1.776,163.812,1.769,219.626c0,49.565,16.769,99.109,50.262,139.343
			L358.967,52.022C273.419-19.207,145.719-14.731,65.505,65.498z M121.759,251.581c-0.398,0.446-0.885,0.792-1.457,1.007
			c-0.074,0.03-0.156,0.026-0.23,0.048c-0.342,0.104-0.688,0.216-1.063,0.216c-0.019,0-0.048,0.004-0.074,0
			c-0.427,0-0.844-0.1-1.253-0.245c-0.052-0.019-0.108-0.007-0.16-0.03c-0.052-0.022-0.089-0.059-0.138-0.082
			c-0.06-0.026-0.123-0.037-0.178-0.067L46.84,215.481c-1.74-0.911-2.468-3.018-1.661-4.81l20.373-45.438
			c0.022-0.048,0.067-0.078,0.093-0.126c0.175-0.346,0.398-0.665,0.676-0.948c0.045-0.048,0.082-0.1,0.13-0.145
			c0.026-0.022,0.045-0.056,0.071-0.078L193.875,54.598c1.178-1.007,2.851-1.182,4.204-0.442l39.801,21.752
			c0.074,0.041,0.13,0.097,0.197,0.141c0.067,0.045,0.126,0.089,0.19,0.138c0.394,0.286,0.729,0.632,0.981,1.041
			c0.011,0.019,0.033,0.03,0.045,0.048l22.822,38.431c0.896,1.498,0.621,3.412-0.647,4.598L121.759,251.581z"/>
		<polygon style="fill:#CCA237;" points="70.837,171.615 53.39,210.526 114.976,242.864 112.976,189.725 		"/>
		<path style="fill:#FFFFFF;" d="M262.115,115.707l-22.822-38.431c-0.011-0.019-0.033-0.03-0.045-0.048
			c-0.253-0.409-0.587-0.755-0.981-1.041c-0.063-0.048-0.123-0.093-0.19-0.138s-0.123-0.1-0.197-0.141l-39.801-21.752
			c-1.353-0.74-3.026-0.565-4.204,0.442L66.522,163.936c-0.026,0.022-0.045,0.056-0.071,0.078c-0.048,0.045-0.086,0.097-0.13,0.145
			c-0.279,0.283-0.502,0.602-0.676,0.948c-0.026,0.048-0.071,0.078-0.093,0.126l-20.373,45.438c-0.807,1.792-0.078,3.899,1.661,4.81
			l70.365,36.948c0.056,0.03,0.119,0.041,0.178,0.067c0.048,0.022,0.085,0.06,0.138,0.082c0.052,0.022,0.108,0.011,0.16,0.03
			c0.409,0.145,0.825,0.245,1.253,0.245c0.026,0.004,0.056,0,0.074,0c0.375,0,0.721-0.112,1.063-0.216
			c0.074-0.022,0.156-0.019,0.23-0.048c0.572-0.216,1.059-0.561,1.457-1.007l139.709-131.276
			C262.735,119.119,263.01,117.205,262.115,115.707z M53.39,210.526l17.447-38.91l42.139,18.11l2,53.139L53.39,210.526z
			 M122.343,240.839l-1.959-52.009l61.501-55.615l53.346-48.24l18.975,31.959L122.343,240.839z"/>
		<path style="fill:#FFFFFF;" d="M373.015,64.761l0.008-0.008c0.115,0.115,0.225,0.234,0.34,0.349
			c0.134,0.133,0.271,0.263,0.405,0.397l-0.009,0.009c4.506,4.549,8.766,9.252,12.788,14.087l0.248-0.248
			c-8.418-9.927-17.705-19.102-27.755-27.399l-0.074,0.074c3.126,2.603,6.201,5.295,9.21,8.1
			C369.806,61.641,371.42,63.185,373.015,64.761z"/>
		<path style="fill:#FFFFFF;" d="M65.512,373.767l4.476,4.476c3.104,2.877,6.286,5.672,9.555,8.369l0.067-0.067
			c-4.835-4.023-9.538-8.282-14.088-12.788L65.512,373.767z"/>
		<path style="fill:#FFFFFF;" d="M64.766,373.021l0.746,0.746c-0.12-0.12-0.233-0.243-0.352-0.362
			C65.029,373.275,64.896,373.151,64.766,373.021z"/>
		<path style="fill:#FFFFFF;" d="M57.446,365.251c-1.856-2.065-3.652-4.164-5.415-6.282l-0.251,0.251
			c2.054,2.421,4.158,4.8,6.315,7.13l6.671,6.671l0.01-0.01C62.26,370.469,59.812,367.884,57.446,365.251z"/>
		<path style="fill:#FFFFFF;" d="M373.76,65.508l-0.948,0.948l-8.356,8.357L74.839,364.44l0,0l-7.907,7.907l-1.411,1.411
			c4.55,4.506,9.253,8.765,14.088,12.788l306.94-306.951C382.525,74.76,378.266,70.057,373.76,65.508z"/>
		<path style="fill:#FFFFFF;" d="M373.023,64.752l-0.008,0.008c0.116,0.114,0.233,0.226,0.349,0.341
			C373.249,64.986,373.139,64.868,373.023,64.752z"/>
		<path style="fill:#FFFFFF;" d="M64.776,373.011l-0.01,0.01c0.13,0.13,0.263,0.254,0.393,0.383
			C65.03,373.275,64.905,373.141,64.776,373.011z"/>
		<path style="fill:#FFFFFF;" d="M368.177,60.122c1.365,1.794,2.696,3.622,4.011,5.466l0.827-0.827
			C371.42,63.185,369.806,61.641,368.177,60.122z"/>
		<path style="fill:#FFFFFF;" d="M373.364,65.102c0.134,0.134,0.263,0.272,0.396,0.406l0.009-0.009
			C373.635,65.364,373.498,65.235,373.364,65.102z"/>
		<path style="fill:#FFFFFF;" d="M373.015,64.761l-0.827,0.827c0.207,0.29,0.418,0.577,0.624,0.868l0.948-0.948
			c-0.133-0.135-0.262-0.272-0.396-0.406C373.248,64.987,373.131,64.875,373.015,64.761z"/>
		<path style="fill:#FFFFFF;" d="M65.159,373.405c0.119,0.12,0.233,0.243,0.352,0.362l0.01-0.01
			C65.401,373.639,65.279,373.524,65.159,373.405z"/>
		<path style="fill:#FFFFFF;" d="M57.446,365.251c2.366,2.633,4.814,5.218,7.33,7.76l1.293-1.293
			C63.134,369.623,60.256,367.471,57.446,365.251z"/>
		<path style="fill:#FFFFFF;" d="M64.776,373.011c0.129,0.13,0.254,0.264,0.383,0.394c0.12,0.119,0.242,0.234,0.362,0.353
			l1.411-1.411c-0.291-0.206-0.573-0.421-0.864-0.628L64.776,373.011z"/>
		<path style="fill:#FFFFFF;" d="M66.069,371.718l8.024-8.025l0,0L363.709,74.067l8.479-8.479c-1.314-1.845-2.646-3.672-4.011-5.466
			c-3.009-2.805-6.085-5.497-9.21-8.1L52.031,358.969c1.763,2.118,3.559,4.217,5.415,6.282
			C60.256,367.471,63.134,369.623,66.069,371.718z"/>
		<path style="fill:#FFFFFF;" d="M363.709,74.067L74.093,363.694l0,0l-8.024,8.025c0.29,0.207,0.572,0.422,0.864,0.628l7.907-7.907
			l0,0L364.455,74.813l8.356-8.357c-0.206-0.291-0.417-0.578-0.624-0.868L363.709,74.067z"/>
	</g>
</g>
</svg>
