<?xml version="1.0" encoding="iso-8859-1"?>
<!-- Generator: Adobe Illustrator 22.0.1, SVG Export Plug-In . SVG Version: 6.00 Build 0)  -->
<svg version="1.1" id="Layer_1" xmlns="http://www.w3.org/2000/svg" xmlns:xlink="http://www.w3.org/1999/xlink" x="0px" y="0px"
	 viewBox="0 0 438.53 438.53" style="enable-background:new 0 0 438.53 438.53;" xml:space="preserve">
<g id="_x31_63">
	<g>
		<path style="fill:#F37022;" d="M341.575,240.504c0.509-2.974,0.303-5.497-0.488-7.667
			C341.852,235.002,342.043,237.528,341.575,240.504z"/>
		<path style="fill:#F37022;" d="M303.458,214.328l-9.404,5.483L303.458,214.328z"/>
		<path style="fill:#F37022;" d="M299.797,225.035l-5.742-5.223l5.613,5.223c-29.975,5.057-45.747,10.002-80.423,21.982
			l-0.002,0.002C253.922,235.04,269.698,230.094,299.797,225.035z"/>
		<polygon style="fill:#F37022;" points="204.076,273.745 204.077,273.746 217.398,260.425 214.121,252.14 214.119,252.142 
			217.395,260.425 		"/>
		<path style="fill:#F37022;" d="M386.615,79.646L246.447,219.814c2.205-0.85,4.439-1.682,6.728-2.485
			c13.059-4.572,32.782-10.055,51.456-10.187c27.031-0.259,53.278,8.227,51.586,33.955c-0.917,19.85-29.513,47.927-44.534,68.04
			c-6.532,8.752-7.573,14.364,3.396,13.969c39.526-2.586,75.703-16.239,108.924-30.484
			C449.376,221.692,436.92,140.144,386.615,79.646z"/>
		<path style="fill:#F37022;" d="M64.762,373.023c0.124,0.124,0.252,0.243,0.377,0.367c-0.124-0.125-0.243-0.252-0.367-0.377
			L64.762,373.023z"/>
		<path style="fill:#F37022;" d="M283.87,326.113c0.13-4.961,2.612-10.317,6.397-15.933c3.788-5.615,9.014-11.623,14.367-17.76
			c7.968-9.141,27.812-31.081,34.474-44.269c1.183-2.613,1.94-4.952,2.361-7.079c0.763-11.895-14.222-16.586-37.356-23.086
			l-4.313,2.741l8.49,7.051c-38.132,6.662-61.637,13.975-89.455,23.638l3.658,9.922l-13.845,13.713
			c2.352,0.654,26.642,8.882,52.107-8.879c0.13-0.13,0.522-0.262,0.522-0.525c-0.914-1.306-2.482-2.482-4.569-4.442
			c7.313,0.525,12.145,7.051,11.231,13.843h-3.396c0.392-2.09-0.13-4.569-1.044-6.137c-19.458,14.364-42.312,16.454-61.77,9.666
			v16.976c-9.536,3.263-26.379,13.713-26.25,23.768c0.651,4.831,3.133,6.532,5.486,7.838l0,0c-1.176-0.265-2.874-1.176-4.18-2.223
			c-11.885-11.361,3.263-24.682,20.764-32.384v-21.938c-0.001-0.001-0.002-0.001-0.003-0.002v21.94
			c-17.498,7.703-32.649,21.023-20.764,32.384c1.306,1.046,3.004,1.96,4.18,2.223h-0.133c21.551,12.145,79.793-4.442,79.663-4.442
			l0,0c-21.026,10.839-41.139,19.328-72.479,20.504c-25.865-0.504-37.706-11.744-37.835-27.138l-70.173,70.173
			c-3.268-2.696-6.451-5.491-9.555-8.369l-4.53-4.53l-0.402,0.402c42.404,41.994,97.885,63.008,153.384,63.008
			c55.814-0.007,111.648-21.253,154.126-63.738c23.419-23.416,40.371-50.883,50.885-80.163
			C399.483,308.965,284.516,365.461,283.87,326.113z"/>
		<path d="M219.242,247.019l-5.121,5.121l3.277,8.286l-13.321,13.321c0,0-0.001-0.001-0.002-0.001l-0.001,0.001
			c-0.262-0.392-2.348-0.651-6.526-3.132v21.938c-17.501,7.703-32.649,21.023-20.764,32.384c1.306,1.046,3.004,1.957,4.18,2.223l0,0
			c-2.352-1.306-4.834-3.007-5.486-7.838c-0.13-10.055,16.714-20.505,26.25-23.768v-16.976c19.458,6.789,42.312,4.699,61.77-9.666
			c0.914,1.568,1.436,4.047,1.044,6.137h3.396c0.914-6.792-3.918-13.318-11.231-13.843c2.087,1.96,3.655,3.136,4.569,4.442
			c0,0.262-0.392,0.395-0.522,0.525c-25.466,17.76-49.755,9.533-52.107,8.879l13.845-13.713l-3.658-9.922
			c27.818-9.663,51.323-16.976,89.455-23.638l-8.49-7.051l4.313-2.741c23.135,6.5,38.12,11.191,37.356,23.086
			c0.038-0.191,0.074-0.381,0.106-0.568c0.468-2.976,0.277-5.502-0.488-7.667c-0.029-0.08-0.057-0.16-0.088-0.239
			c-0.1-0.266-0.213-0.524-0.331-0.779c-0.121-0.257-0.248-0.511-0.386-0.758c-0.049-0.09-0.097-0.18-0.148-0.269
			c-5.299-8.905-21.816-11.183-36.676-16.464l-9.403,5.483l5.742,5.223C269.698,230.094,253.922,235.04,219.242,247.019z"/>
		<path style="fill:#FFFFFF;" d="M311.682,309.137c15.022-20.112,43.618-48.19,44.534-68.04
			c1.692-25.728-24.555-34.214-51.586-33.955c-18.674,0.133-38.397,5.615-51.456,10.187c-2.289,0.802-4.524,1.635-6.728,2.485
			l-27.203,27.203c34.676-11.981,50.448-16.926,80.423-21.982l-5.613-5.223l9.403-5.483l0,0c16.25,5.45,31.662,7.824,36.676,16.464
			c0.051,0.088,0.099,0.179,0.148,0.269c0.139,0.247,0.265,0.501,0.386,0.758c0.117,0.255,0.23,0.514,0.331,0.779
			c0.031,0.079,0.059,0.159,0.088,0.239c0.791,2.17,0.998,4.693,0.488,7.667c-0.038,0.243-0.064,0.479-0.112,0.728
			c0.004-0.054,0.002-0.106,0.006-0.16c-0.421,2.127-1.178,4.465-2.361,7.079c-6.662,13.188-26.506,35.128-34.474,44.269
			c-5.353,6.137-10.579,12.145-14.367,17.76c-3.785,5.615-6.267,10.971-6.397,15.933c0.646,39.348,115.613-17.148,140.044-33.247
			c0.029-0.081,0.059-0.162,0.088-0.244c-33.221,14.245-69.399,27.898-108.924,30.484
			C304.109,323.501,305.15,317.889,311.682,309.137z"/>
		<path style="fill:#FFFFFF;" d="M204.076,273.745l13.32-13.32l-3.276-8.284l-63.941,63.941
			c0.129,15.394,11.969,26.634,37.835,27.138c31.34-1.176,51.453-9.666,72.479-20.504l0,0c0.13,0-58.112,16.587-79.663,4.442h0.133
			c-1.176-0.262-2.874-1.176-4.18-2.223c-11.885-11.361,3.266-24.681,20.764-32.384v-21.94c0.001,0.001,0.002,0.001,0.003,0.002
			v-0.002C201.723,273.092,203.81,273.353,204.076,273.745z"/>
		<path style="fill:#FFFFFF;" d="M340.134,230.792c-5.014-8.64-20.426-11.013-36.676-16.464
			C318.318,219.609,334.835,221.887,340.134,230.792z"/>
		<path style="fill:#FFFFFF;" d="M204.076,273.745c-0.266-0.391-2.352-0.653-6.528-3.132v0.002c4.178,2.48,6.264,2.74,6.526,3.132
			L204.076,273.745z"/>
		<path style="fill:#FFFFFF;" d="M341.463,241.232c0.047-0.25,0.073-0.485,0.112-0.728c-0.032,0.187-0.068,0.377-0.106,0.568
			C341.465,241.126,341.467,241.178,341.463,241.232z"/>
		<path style="fill:#F4F4F4;" d="M183.643,156.005c-21.083,0-43.385,4.546-43.385,29.385c0,12.617,6.556,21.149,17.723,21.149
			c8.203,0,15.582-5.04,20.227-13.243c5.699-10.113,5.435-19.601,5.435-30.966L183.643,156.005L183.643,156.005z"/>
		<path style="fill:#F4F4F4;" d="M58.557,365.994c-2.157-2.33-4.26-4.708-6.315-7.13l82.797-82.797
			c-27.538-5.666-52.259-18.494-72.296-36.568c-2.141-1.977-0.231-4.645,2.372-3.13c24.089,14.032,52.779,23.525,82.992,26.629
			l44.154-44.154c-0.861-1.27-1.77-2.625-2.819-4.137c-16.01,16.307-27.342,21.215-48.096,21.215
			c-24.575,0-43.682-15.186-43.682-45.494c0-23.686,12.848-39.795,31.131-47.668c15.812-6.951,37.917-8.203,54.849-10.113v-3.788
			c0-6.951,0.56-15.153-3.558-21.149c-3.558-5.37-10.377-7.577-16.372-7.577c-11.135,0-21.017,5.699-23.455,17.492
			c-0.494,2.635-2.405,5.238-5.073,5.37l-28.265-3.064c-2.372-0.527-5.04-2.438-4.348-6.094c6.49-34.293,37.489-44.67,65.226-44.67
			c14.198,0,32.745,3.788,43.945,14.528c14.198,13.276,12.848,30.966,12.848,50.204v45.461c0,2.443,0.184,4.637,0.512,6.642
			L359.04,52.067C273.488-19.214,145.737-14.745,65.502,65.502C23.017,107.981,1.771,163.815,1.764,219.629
			c0,55.5,21.013,110.98,63.008,153.384l0.402-0.402L58.557,365.994z"/>
		<path style="fill:#F4F4F4;" d="M65.508,373.769l0.01-0.01c-0.126-0.124-0.254-0.245-0.379-0.369
			C65.264,373.515,65.383,373.644,65.508,373.769z"/>
		<path style="fill:#F4F4F4;" d="M65.174,372.611l-0.402,0.402c0.124,0.125,0.243,0.252,0.367,0.377
			c0.125,0.125,0.253,0.245,0.379,0.369l0.402-0.402L65.174,372.611z"/>
		<path d="M224.591,179.361V133.9c0-19.238,1.351-36.929-12.848-50.204c-11.2-10.739-29.747-14.528-43.945-14.528
			c-27.738,0-58.737,10.377-65.226,44.67c-0.692,3.657,1.977,5.567,4.348,6.094l28.265,3.064c2.668-0.132,4.579-2.734,5.073-5.37
			c2.438-11.793,12.32-17.492,23.455-17.492c5.995,0,12.815,2.207,16.372,7.577c4.118,5.996,3.558,14.198,3.558,21.149v3.788
			c-16.932,1.911-39.037,3.163-54.849,10.113c-18.283,7.873-31.131,23.982-31.131,47.668c0,30.307,19.107,45.494,43.682,45.494
			c20.754,0,32.086-4.908,48.096-21.215c1.049,1.512,1.958,2.867,2.819,4.137l32.842-32.842
			C224.775,183.998,224.591,181.805,224.591,179.361z M178.208,193.296c-4.645,8.203-12.024,13.243-20.227,13.243
			c-11.168,0-17.723-8.532-17.723-21.149c0-24.839,22.302-29.385,43.385-29.385v6.325
			C183.643,173.695,183.907,183.183,178.208,193.296z"/>
		<path style="fill:#F89820;" d="M65.115,236.37c-2.602-1.515-4.513,1.153-2.372,3.13c20.037,18.074,44.757,30.902,72.296,36.568
			L148.107,263C117.895,259.895,89.204,250.402,65.115,236.37z"/>
		<path style="fill:#FFFFFF;" d="M373.029,64.756c0.145,0.145,0.286,0.293,0.43,0.438c0.104,0.104,0.211,0.204,0.316,0.308
			l-0.007,0.007c4.524,4.567,8.81,9.282,12.847,14.137l0.652-0.652c-8.418-9.927-17.705-19.102-27.756-27.399l-0.472,0.472
			c4.797,3.997,9.464,8.226,13.98,12.699L373.029,64.756z"/>
		<path style="fill:#FFFFFF;" d="M214.119,252.142l0.002-0.002l-1.165-2.945c2.168-0.752,4.254-1.473,6.286-2.175l0.002-0.002
			c-2.033,0.703-4.121,1.425-6.291,2.177L214.119,252.142z"/>
		<path style="fill:#FFFFFF;" d="M364.46,74.817L234.441,204.836l-28.83,28.83l-30.348,30.348l-15.154,15.154l-85.273,85.273l0,0
			l-8.916,8.916l4.53,4.53c3.104,2.877,6.287,5.672,9.555,8.369l70.173-70.173c-0.072-8.624,3.517-18.546,10.409-28.627
			c17.12-26.922,43.923-51.482,85.86-67.642L386.615,79.646c-4.037-4.854-8.323-9.57-12.847-14.137L364.46,74.817z"/>
		<path style="fill:#FFFFFF;" d="M373.029,64.756l-0.009,0.009c0.146,0.144,0.294,0.284,0.44,0.429
			C373.314,65.049,373.174,64.901,373.029,64.756z"/>
		<path style="fill:#FFFFFF;" d="M212.956,249.194l1.165,2.945l5.121-5.121C217.21,247.721,215.124,248.443,212.956,249.194z"/>
		<path style="fill:#FFFFFF;" d="M160.586,287.456c-6.892,10.081-10.481,20.003-10.409,28.627l63.941-63.941l-1.166-2.947
			c2.17-0.752,4.257-1.475,6.291-2.177l27.203-27.203C204.509,235.975,177.706,260.535,160.586,287.456z"/>
		<path style="fill:#FFFFFF;" d="M173.746,264.039l31.063-31.063c-6.7-5.753-9.277-9.306-12.548-14.131l-44.154,44.154
			c7.097,0.729,14.277,1.108,21.502,1.108C170.978,264.108,172.362,264.072,173.746,264.039z"/>
		<path style="fill:#FFFFFF;" d="M233.806,203.98L363.714,74.071l9.305-9.305c-4.516-4.473-9.183-8.702-13.98-12.699
			L225.103,186.003C226.405,193.965,230.018,198.881,233.806,203.98z"/>
		<path style="fill:#FFFFFF;" d="M74.09,363.695l84.604-84.604c-8.077-0.423-15.976-1.444-23.655-3.024l-82.797,82.797
			c2.055,2.421,4.158,4.8,6.315,7.13l6.617,6.617L74.09,363.695L74.09,363.695z"/>
		<path style="fill:#FFFFFF;" d="M373.775,65.502c-0.104-0.104-0.211-0.204-0.316-0.308c0.104,0.104,0.205,0.21,0.309,0.315
			L373.775,65.502z"/>
		<path style="fill:#FFFFFF;" d="M364.46,74.817l9.308-9.308c-0.104-0.104-0.205-0.21-0.309-0.315
			c-0.145-0.145-0.294-0.284-0.44-0.429l-9.305,9.305L233.806,203.98c0.212,0.285,0.423,0.57,0.636,0.856L364.46,74.817z"/>
		<path style="fill:#FFFFFF;" d="M74.836,364.441l85.273-85.273c-0.473-0.021-0.943-0.052-1.415-0.077L74.09,363.695l0,0
			l-8.916,8.916l0.746,0.746L74.836,364.441L74.836,364.441z"/>
		<path style="fill:#FFFFFF;" d="M173.746,264.039c0.507-0.012,1.008-0.01,1.517-0.025l30.348-30.348
			c-0.281-0.237-0.535-0.459-0.803-0.689L173.746,264.039z"/>
		<path style="fill:#FFFFFF;" d="M204.809,232.976l28.997-28.997c-3.787-5.098-7.401-10.015-8.702-17.976l-32.842,32.842
			C195.532,223.67,198.109,227.223,204.809,232.976z"/>
		<path style="fill:#FFFFFF;" d="M205.612,233.666l28.83-28.83c-0.212-0.287-0.424-0.571-0.636-0.856l-28.997,28.997
			C205.077,233.206,205.33,233.428,205.612,233.666z"/>
		<path style="fill:#FFFFFF;" d="M173.746,264.039c-1.384,0.033-2.768,0.069-4.137,0.069c-7.225,0-14.405-0.379-21.502-1.108
			l-13.068,13.068c7.679,1.58,15.577,2.601,23.655,3.024L173.746,264.039z"/>
		<path style="fill:#FFFFFF;" d="M158.694,279.091c0.472,0.025,0.942,0.057,1.415,0.077l15.154-15.154
			c-0.509,0.015-1.01,0.013-1.517,0.025L158.694,279.091z"/>
	</g>
</g>
</svg>
