<?xml version="1.0" encoding="iso-8859-1"?>
<!-- Generator: Adobe Illustrator 22.0.1, SVG Export Plug-In . SVG Version: 6.00 Build 0)  -->
<svg version="1.1" id="Layer_1" xmlns="http://www.w3.org/2000/svg" xmlns:xlink="http://www.w3.org/1999/xlink" x="0px" y="0px"
	 viewBox="0 0 438.53 438.53" style="enable-background:new 0 0 438.53 438.53;" xml:space="preserve">
<g id="_x31_69">
	<g>
		<path style="fill:#F4F4F4;" d="M407.603,110.087c-19.45-33.321-45.833-59.704-79.155-79.153
			c-33.328-19.448-69.711-29.17-109.176-29.17c-39.461,0-75.854,9.722-109.177,29.17C76.771,50.38,50.388,76.763,30.938,110.087
			c-19.451,33.326-29.173,69.72-29.173,109.178c0,39.46,9.725,75.847,29.17,109.175c19.449,33.321,45.832,59.704,79.156,79.155
			c33.326,19.447,69.717,29.17,109.177,29.17s75.854-9.723,109.179-29.17c33.322-19.444,59.704-45.834,79.152-79.155
			c19.445-33.325,29.166-69.718,29.166-109.175C436.766,179.803,427.044,143.409,407.603,110.087z M283.86,95.345
			c-0.281-2.916,0.726-5.21,3.266-6.765c0.593-0.443,1.186-0.887,1.779-1.33c3.406-2.323,6.625-0.996,8,3.298
			c0.264,1.193,0.529,2.386,0.793,3.579c0.431,3.841,1.612,7.584,0.708,11.577c-0.517,2.282-1.423,4.023-3.326,5.291
			c-1.218,0.283-2.433,0.329-3.645-0.03c-1.27,0.035-1.807-1.518-3.102-1.43c-0.5-0.883-0.797-1.916-1.799-2.426
			c-3.344-2.642-3.097-6.224-2.586-9.876C283.919,96.604,283.89,95.975,283.86,95.345z M187.922,108.452
			c0.622-0.716,1.048-1.525,1.187-2.473c0.132-1.149,0.948-1.608,1.922-1.911c0.954-0.27,1.91-0.037,2.866-0.003
			c1.721,0.178,3.057,0.908,3.717,2.603c0.259,0.578,0.518,1.156,0.777,1.734c0.558,0.401,1.052,0.85,1.189,1.57
			c0.241,1.341,0.18,2.691,0.113,4.043c-0.239,1.34-0.461,2.689-1.58,3.649c-0.319,0.843-0.638,1.687-0.957,2.53
			c-1.098,4.59-3.484,6.114-7.921,4.887c-2.398-0.663-2.441-2.938-2.594-4.791C186.309,116.29,186.393,112.278,187.922,108.452z
			 M115.228,126.556c0.069-1.762,0.724-3.152,2.455-3.856c0.602-0.209,1.204-0.419,1.806-0.628c0.224-0.239,0.486-0.426,0.785-0.562
			c1.11-0.336,2.243-0.25,3.376-0.186c1.878,0.372,3.313,1.269,3.817,3.255c0.438,1.229,0.875,2.459,1.313,3.688
			c0.534,0.5,0.735,1.143,0.805,1.845c0.054,1.02,0.027,2.042,0.046,3.064c-0.038,1.232-0.167,2.427-1.367,3.155
			c-0.258,1.205-0.515,2.41-0.773,3.615c-0.418,3.573-2.855,5.664-5.733,7.126c-3.373,1.714-6.242-0.245-7.208-4.588
			c0.491-1.782-0.586-3.362-0.643-5.105C113.786,133.683,114.233,130.096,115.228,126.556z M72.859,316.732
			c-2.731,1.696-4.936,1.536-7.31-0.531c-0.041-0.38-0.081-0.761-0.122-1.141c-0.832-1.368-0.546-2.646,0.574-3.616
			c2.246-1.943,4.494-3.939,7.609-4.405c0.396-0.225,0.792-0.451,1.188-0.676c1.213-1.694,2.283-0.862,3.19,0.275
			c0.78,0.978,1.151,2.165,1.079,3.449c-0.302,1.284-0.469,2.569,0.039,3.847C77.538,316.018,74.92,315.753,72.859,316.732z
			 M178.417,351.003c-0.25,0.386-0.385,0.86-0.836,1.094c-1.393,0.504-2.732,0.414-4.009-0.362
			c-0.587-0.412-1.113-0.907-1.711-1.308c-1.488-0.984-2.57-2.466-4.138-3.356c-0.891-0.685-1.668-1.488-2.414-2.325
			c-0.274-0.343-0.445-0.724-0.422-1.174c-0.502-0.711-0.848-1.467-0.696-2.37c1.307-1.784,3.355-2.87,4.111-5.256
			c0.485-1.529,2.154-0.913,3.083,0.014c1.828,1.823,3.43,3.837,3.916,6.494c0.871,1.839,1.742,3.678,2.613,5.517
			C178.314,348.944,178.576,349.939,178.417,351.003z M182.16,310.607c-1.747,3.677-3.844,7.122-6.857,9.928
			c-1.028,0.174-1.902,1.028-3.046,0.685c-1.574-4.177,0.679-7.771,1.842-11.504c0.294-0.943,7.329-1.907,8.149-1.278
			C183.217,309.182,182.475,309.944,182.16,310.607z M248.453,326.403c-3.778-2.07-7.255-4.629-10.205-7.77
			c-1.829-1.946-0.845-4.505,2.474-7.145c2.216-1.762,3.234-0.118,4.334,1.516c1.604,2.383,3.364,4.663,4.938,7.064
			c0.836,1.275,1.668,2.618,1.688,4.246C251.683,326.397,250.297,327.413,248.453,326.403z M307.638,339.864
			c-2.471,7.087-6.319,9.208-12.281,6.608c3.471-4.822,5.394-10.327,7.209-15.879c0.319-0.585,0.772-1.122,0.648-1.861
			c3.254-0.088,3.385,2.713,4.246,4.736c0.338,0.793-0.01,1.846,0.663,2.614C307.456,337.278,308.179,338.652,307.638,339.864z
			 M352.823,322.092c-2.362-1.365-4.169-3.392-5.904-5.406c-8.411-9.763-15.332-20.408-19.484-32.75
			c-1.673-4.974-3.394-9.95-5.37-14.821c-2.579-6.359-6.401-11.991-10.477-17.455c-4.802-6.437-7.765-13.79-10.716-21.154
			c-2.793,3.527-4.966,7.492-7.711,11.055c-0.131,0.189-0.268,0.372-0.4,0.56c3.176,18.712,6.002,37.481,12.805,55.394
			c2.766,7.284,4.555,14.949,4.451,22.883c-0.02,1.54-0.046,1.539-1.407,2.137c-0.747-0.439-1.603-0.669-2.301-1.201
			c-13.667-10.193-22.423-23.837-27.973-39.747c-1.775-5.089-3.612-10.155-5.424-15.231c-6.725,6.295-13.697,12.289-21.478,17.262
			c-0.97,0.62-1.881,2.12-3.4,0.882c0.636-2.904,2.321-5.141,4.43-7.146c4.971-4.723,10.079-9.318,14.815-14.268
			c5.738-5.996,11.405-12.084,16.255-18.862c1.523-2.128,3.153-4.179,4.733-6.266c0.291-0.641,0.555-1.3,1.188-1.702
			c4.969-6.752,9.26-13.93,13.335-21.243c2.889-5.186,5.516-10.495,7.674-16.035c0.243-0.624,0.183-1.176,0.252-1.763l0,0
			c0.602-3.73,1.203-7.459,1.804-11.189c0.68-0.952-0.009-2.124,0.498-3.104c0.566-11.993-1.469-23.28-8.898-33.136
			c-6.089-8.078-14.212-12.846-24.058-14.693c-3.601-0.675-7.227-1.421-10.939-1.266c-2.536-0.497-5.072-0.469-7.609-0.013
			c-1.847,0.057-3.694,0.115-5.541,0.172c-0.978,0.456-2.131-0.208-3.074,0.477c-0.854-0.047-1.708-0.093-2.563-0.14
			c-8.987,3.733-16.181,10.058-23.26,16.446c-5.442,4.911-10.478,10.273-15.694,15.435l0,0l0,0c0.021,1.021,0.042,2.043,0.063,3.064
			c0.509,0.979-0.182,2.151,0.499,3.103c0.037,0.826,0.075,1.653,0.112,2.479c0.53,0.973-0.182,2.152,0.512,3.098
			c0.277,7.719,1.859,15.27,3.235,22.821c2.001,10.986,4.462,21.887,6.743,32.821c0.146,0.701,0.428,1.375,0.647,2.061
			c0.363,0.567,0.552,1.183,0.528,1.86c1.061,7.099,2.877,14.032,4.897,20.895c3.27,11.109,6.661,22.189,8.56,33.628
			c0.647,3.895,1.65,7.902,0.318,11.903c-0.298,3.123-2.308,4.411-4.943,3.173c-1.856-0.872-3.038-2.392-4.139-4.061
			c-2.999-4.545-4.414-9.779-6.532-14.706c-3.634-8.456-7.981-16.584-11.684-24.999c-4.791-10.886-7.579-22.503-11.664-33.657
			c-1.347-3.677-3.201-7.187-4.035-11.03c-1.066-4.911-2.82-9.67-3.249-14.721c-0.07-0.825-0.268-1.635-0.577-2.406
			c-0.269-0.671-0.526-1.473-1.373-1.509c-0.839-0.036-1.181,0.733-1.509,1.373c-1.423,2.777-2.19,5.796-3.178,8.733
			c-0.39,1.161-0.513,2.464-1.735,3.166c-1.013,6.227-3.91,12.06-3.858,18.509c-0.597,0.991-0.012,2.148-0.445,3.161
			c-0.053,3.511-0.106,7.023-0.159,10.534c-0.492,2.951-0.47,5.903-0.01,8.856c0.02,0.588,0.041,1.176,0.061,1.765
			c1.148,1.416,0.812,3.106,0.885,4.721c-0.077,1.565-0.187,3.132,0.33,4.657c0.279,1.378,0.263,2.776,0.271,4.172
			c-0.06,1.713-0.157,3.428,0.247,5.12c0.397,3.974,0.73,7.95-0.037,11.92c-0.093,0.17-0.201,0.296-0.317,0.398
			c1.098-0.236,1.774,0.634,2.587,1.103c7.988,4.613,15.546,10.069,24.646,12.489c0.506,0.135,0.94,0.409,1.066,0.984
			c1.651,0.711,3.366,0.266,5.055,0.282c1.674,0.716,1.079,1.671,0.183,2.512c-0.691,0.649-1.639,0.817-2.574,0.892
			c-1.746,0.014-3.495,0.003-5.242,0.011c-7.08-0.365-13.011-3.957-19.162-6.902c-1.649-0.789-3.219-1.777-4.775-2.756
			c-0.044-0.037-0.09-0.071-0.134-0.107c-0.288,2.583-1.79,4.688-3.093,6.776c-1.293,2.072-2.03,0.16-2.322-0.887
			c-1.076-3.855-2.019-7.747-2.998-11.628c-0.167-0.116-0.337-0.229-0.502-0.348c-4.685-3.161-9.18-6.579-13.628-10.062
			c0.92,3.301,1.62,6.67,2.72,9.901c3.731,10.962,4.231,22.217,3.495,33.618c-0.167,2.586-0.227,5.159,0.358,7.708
			c-0.195,1.993,1.265,4.59-1.981,5.475c-0.797-0.25-1.595-0.5-2.392-0.75c-1.105-0.474-1.604-1.399-1.863-2.502
			c-0.246-0.567-0.492-1.134-0.738-1.701c-2.74-2.036-3.78-4.958-4.256-8.173c-0.086-0.958-0.481-1.773-1.15-2.459
			c-2.661-2.53-3.245-6.055-4.445-9.284l0.029-0.004c-2.512-2.818-3.758-6.215-4.491-9.845
			c-5.387-10.347-7.804-21.793-12.042-32.566c-2.213-5.626-4.173-11.352-6.42-16.964c-0.524-1.308-0.63-2.559-0.718-3.878
			c-2.084-3.296-4.169-6.593-6.253-9.889l0,0c-3.53,1.192-4.591,4.561-6.073,7.346c-5.377,10.103-8.987,20.935-12.426,31.808
			c-1.797,5.681-4.077,11.163-6.269,16.686c-0.517,0.775-0.534,1.821-1.322,2.449c-1.961,3.114-3.595,6.395-4.971,9.806
			c-0.227,1.012-0.496,1.995-1.28,2.758c-1.461,1.421-3.153,1.338-4.074-0.471c-1.118-2.197-2.032-4.524-1.489-7.109
			c0.032-0.828,0.064-1.656,0.095-2.484c-0.83-1.336-0.698-2.761-0.393-4.202c0.247-1.052-0.103-2.154,0.272-3.195
			c0.016-1.058,0.032-2.116,0.049-3.174c-0.427-0.756-0.577-1.563-0.449-2.421c0.334-1.141,0.323-2.311,0.275-3.485
			c0.369-4.738,0.594-9.504,2.763-13.883c0.591-2.298,1.181-4.596,1.772-6.895c-1.102-1.61-0.031-3.23,0.147-4.772
			c0.512-4.444,0.432-9.022,2.365-13.219c0.766-4.926,1.949-9.799,1.914-14.829c0.709-1.176-0.064-2.554,0.511-3.748
			c0.95-1.094,0.737-2.421,0.74-3.705c0.462-5.178,0.77-10.395,3.727-14.95c-0.001-0.395-0.003-0.791-0.004-1.186
			c1.092-6.158,2.179-12.318,4.884-18.04c0.035-0.19,0.06-0.382,0.075-0.574c0.226-4.019,0.982-7.957,1.794-11.881
			c-0.064-1.092,1.491-2.325-0.29-3.257c-2.95,1.736-5.935,3.361-9.146,4.543c-0.984,0.362-1.938,0.708-3.002,0.482
			c-0.192,0.033-0.376,0.091-0.552,0.175c-0.126,0.16-0.217,0.413-0.378,0.472c-6.316,2.345-11.272,7.26-17.709,9.372
			c-0.385,0.036-0.769,0.073-1.154,0.109c-0.957,1.31-2.596,2.094-3.597,0.999c-1.012-1.105-0.855-3.142,0.21-4.512
			c1.566-2.014,3.387-3.805,5.94-4.591c1.191-0.6,2.389-1.193,3.062-2.443c0.958-0.929,1.637-2.205,3.108-2.495
			c0.843-0.596,1.687-1.191,2.53-1.787c0.673-1.943,1.858-3.459,3.686-4.442c0.972-1.668,1.886-3.386,3.736-4.291
			c0.615-0.631,1.23-1.262,1.845-1.893c0.58-1.487,1.462-2.673,3.094-3.115c0.828-0.828,1.656-1.656,2.484-2.484
			c0.463-1.191,1.092-2.217,2.482-2.48c0.413-0.408,0.826-0.815,1.239-1.223c1.216-1.801,2.95-2.54,5.077-2.471
			c1.609-0.061,3.219-0.121,4.828-0.182c1.949-1.176,3.753,0.001,5.587,0.388c1.191,0.251,2.358,0.644,3.543,0.938
			c1.678,0.534,3.357,0.657,5.035-0.008c2.744-0.89,5.289-2.22,7.858-3.5c1.944-0.969,3.966-1.676,6.179-1.667
			c1.521,0.015,3.042-0.034,4.563,0.043c2.642,0.595,5.425,0.82,7.534,2.833c0.222,0.122,0.444,0.245,0.666,0.367
			c1.172-0.728,2.177,0.04,3.209,0.388c4.869,1.644,9.547,3.773,14.302,5.706c4.208,1.711,4.212,1.7,6.682-1.67
			c0.022-1.026,0.044-2.051,0.067-3.077c-0.064-0.68,0.149-1.288,0.477-1.867c-0.033-1.937-0.417-3.803-1.118-5.607
			c-2.908-4.136-6.785-7.306-10.555-10.583c-4.846-2.409-9.537-5.064-13.689-8.579c-0.844-0.412-1.331-1.461-2.454-1.375
			c-2.951-0.66-5.284-2.373-7.442-4.381c-0.404-0.735-0.967-1.228-1.859-1.221c-3.125-0.727-4.914-3.288-6.99-5.345
			c-1.034-1.025-0.925-2.772,0.136-4.009c1.125-1.312,2.624-1.043,4.015-0.477c5.186,2.11,10.031,4.905,14.846,7.716
			c12.093,7.061,24.988,11.824,38.793,14.195c4.305,0.739,7.911-0.713,11.395-2.948c2.864-1.837,5.663-3.84,9.185-4.281
			c1.158-0.014,2.316-0.047,3.474,0.053c0.906,0.08,1.582,0.534,2.073,1.283c2.895,0.003,5.79,0.006,8.685,0.008
			c0.548-0.433,1.173-0.662,1.867-0.711c1.325-0.041,2.661,0.005,3.942-0.45c1.512-0.302,3.043-0.241,4.569-0.258
			c1.338,0.063,2.674,0.11,3.969-0.34c1.166-0.245,2.349-0.262,3.533-0.269c1.326,0.052,2.651,0.096,3.935-0.35
			c3.986-0.198,7.972-0.393,11.758-1.86c0.601-0.234,1.202-0.468,1.802-0.702c2.834-3.137,6.724-3.094,10.471-3.438
			c0.498-0.046,1.014,0.102,1.492-0.16c2.476,0.013,4.83-0.777,7.251-1.102c3.373-0.453,6.745-0.467,9.957,0.953
			c1.786-0.475,3.325,0.626,5.014,0.777c1.678,0.505,3.351,0.466,5.022-0.042c0.637-0.15,1.281-0.23,1.934-0.252
			c1.799,0.009,3.598-0.018,5.395,0.018c4.598,0.013,7.298,3.092,9.788,6.297c3.541,4.558,7.578,8.671,11.33,13.036
			c8.511,9.899,18.344,18.467,27.618,27.598c1.105,1.088,2.262,2.138,2.724,3.699c0.725,0.951,0.723,1.91,0.027,2.875
			c-1.235,1.181-2.452,1.47-3.63-0.076c-4.328-2.129-9.081-2.993-13.626-4.458c-5.687-1.833-10.899-4.601-16.218-7.188
			c0.24,2.489,0.481,4.977,0.721,7.466c0.322,1.225,0.278,2.453,0.03,3.682c-0.344,6.073-1.555,12.011-2.771,17.949l0,0
			c0,0,0,0,0-0.001c2.397,15.67,5.813,31.086,11.892,45.788c3.508,8.484,5.533,17.406,8.094,26.169
			c3.941,13.488,7.792,27.003,11.682,40.507c1.852,3.474,2.982,7.124,2.717,11.115c0.412,1.234,0.824,2.468,1.237,3.702
			c2.138,1.465,2.619,3.676,2.381,6.001C358.732,321.586,356.295,322.874,352.823,322.092z M372.123,330.662
			c-2.087,0.9-4.166,0.577-6.241-0.059c-0.409-0.024-0.819-0.048-1.228-0.072c-1.038-0.982-2.35-1.123-3.683-1.201
			c-1.478-1.02-3.237-1.313-4.889-1.882c-0.483-1.305,0.938-0.633,1.205-1.161c3.018-0.295,6.029-0.6,6.892-4.328
			c1.617-0.968,2.347,0.872,3.577,1.129c1.932-0.12,2.882,1.141,3.681,2.616c0.662,0.794,1.323,1.588,1.985,2.383
			C374.021,329.467,372.944,329.997,372.123,330.662z"/>
		<path style="fill:#F4F4F4;" d="M167.589,177.91c0.32-2.045,0.945-4.02,1.48-6.017c0.708-2.646,0.201-3.345-2.544-3.613
			c-4.978-0.487-9.649,0.862-14.207,2.601c-10.196,3.89-18.74,9.939-24.809,19.204c-5.218,7.966-6.369,16.75-4.878,25.879
			c2.076,12.714,8.733,23.292,16.423,33.289c2.708,3.521,5.554,6.936,8.314,10.418c0.881,1.112,2.003,2.131,2.062,3.715
			c-0.106,0.109-0.209,0.185-0.312,0.258c0.014,0.01,0.028,0.021,0.043,0.031c2.768,1.042,4.592,3.353,6.844,5.089
			c4.236,3.267,8.289,6.768,12.616,9.92c0.56,0.408,1.07,0.859,1.531,1.357c-3.651-17.323-6.845-34.665-6.937-52.516
			C163.13,210.812,165.021,194.349,167.589,177.91z"/>
		<path style="fill:#F4F4F4;" d="M219.56,145.853c3.367-5.197,8.184-8.926,13.01-12.721c-5.633,1.098-11.228,2.503-17.038,2.201
			c-1.709-0.089-2.646,0.808-3.039,2.452c-1.257,5.257-1.148,10.619-1.167,15.957c-0.005,1.535,0.247,3.073,0.123,4.614
			c2.09-2.871,4.323-5.593,7.683-7.138C217.206,149.317,218.475,147.529,219.56,145.853z"/>
		<polygon style="fill:#80CBF4;" points="84.159,167.404 84.15,167.409 84.146,167.415 		"/>
		<path style="fill:#80CBF4;" d="M117.156,182.734c4.779-11.737,13.103-19.511,25.682-22.479
			c12.625-2.979,25.071-3.787,37.124,2.229c5.067,2.529,9.395,5.994,12.702,10.611c1.23,1.717,2.244,2.03,3.855,0.467
			c4.808-4.664,9.776-9.166,14.208-14.205c0.24-0.335,0.481-0.668,0.723-1c0.124-1.542-0.129-3.079-0.123-4.614
			c0.019-5.338-0.09-10.699,1.167-15.957c0.393-1.645,1.33-2.541,3.039-2.452c5.81,0.302,11.405-1.103,17.038-2.201
			c-4.826,3.794-9.643,7.523-13.01,12.721c-1.085,1.676-2.354,3.464-0.427,5.366c0.069-0.032,0.131-0.072,0.201-0.103
			c7.293-6.832,14.763-13.437,23.406-18.573c19.999-11.884,40.391-12.293,60.993-1.827c9.904,5.031,16.191,13.156,18.789,24.036
			c0.118,0.494,0.355,0.96,0.537,1.439c5.319,2.587,10.531,5.355,16.218,7.188c4.545,1.464,9.298,2.329,13.626,4.458
			c1.178,1.546,2.395,1.257,3.63,0.076c0.696-0.965,0.698-1.923-0.027-2.875c-0.462-1.561-1.618-2.61-2.724-3.699
			c-9.274-9.131-19.107-17.699-27.618-27.598c-3.753-4.365-7.789-8.478-11.33-13.036c-2.49-3.205-5.19-6.284-9.788-6.297
			c-1.796-0.035-3.596-0.009-5.395-0.018c-0.652,0.022-1.297,0.102-1.934,0.252c-1.671,0.508-3.344,0.547-5.022,0.042
			c-1.689-0.15-3.228-1.251-5.014-0.777c-3.213-1.42-6.585-1.406-9.957-0.953c-2.421,0.325-4.774,1.115-7.251,1.102
			c-0.478,0.262-0.994,0.114-1.492,0.16c-3.747,0.344-7.637,0.3-10.471,3.438c-0.601,0.234-1.202,0.468-1.802,0.702
			c-3.786,1.467-7.772,1.663-11.758,1.86c-1.284,0.446-2.609,0.402-3.935,0.35c-1.184,0.007-2.367,0.024-3.533,0.269
			c-1.295,0.449-2.631,0.402-3.969,0.34c-1.527,0.017-3.058-0.044-4.569,0.258c-1.281,0.455-2.617,0.409-3.942,0.45
			c-0.694,0.049-1.319,0.278-1.867,0.711c-2.895-0.003-5.79-0.006-8.685-0.008c-0.492-0.749-1.168-1.203-2.073-1.283
			c-1.158-0.1-2.316-0.067-3.474-0.053c-3.522,0.441-6.322,2.444-9.185,4.281c-3.484,2.235-7.09,3.687-11.395,2.948
			c-13.804-2.371-26.7-7.134-38.793-14.195c-4.815-2.811-9.66-5.606-14.846-7.716c-1.391-0.566-2.89-0.834-4.015,0.477
			c-1.061,1.237-1.17,2.984-0.136,4.009c2.076,2.057,3.865,4.618,6.99,5.345c0.892-0.008,1.455,0.486,1.859,1.221
			c2.159,2.008,4.491,3.72,7.442,4.381c1.123-0.085,1.61,0.963,2.454,1.375c4.152,3.515,8.844,6.17,13.689,8.579
			c-0.006-0.005-0.013-0.011-0.019-0.016l0.025,0.02c-0.002-0.001-0.004-0.002-0.006-0.003c3.77,3.277,7.646,6.447,10.555,10.583
			c0.701,1.804,1.084,3.67,1.118,5.607c-0.329,0.579-0.542,1.188-0.477,1.867c-0.022,1.026-0.044,2.051-0.067,3.077
			c-2.471,3.37-2.475,3.381-6.682,1.67c-4.755-1.933-9.432-4.062-14.302-5.706c-1.031-0.348-2.037-1.117-3.209-0.388
			c-0.222-0.122-0.444-0.245-0.666-0.367c-2.109-2.013-4.892-2.239-7.534-2.833c-1.52-0.077-3.041-0.029-4.563-0.043
			c-2.213-0.009-4.234,0.698-6.179,1.667c-2.569,1.28-5.114,2.61-7.858,3.5c-1.678,0.665-3.357,0.541-5.035,0.008
			c-1.185-0.294-2.352-0.686-3.543-0.938c-1.833-0.387-3.638-1.564-5.587-0.388c-1.609,0.06-3.219,0.121-4.828,0.182
			c-2.127-0.069-3.86,0.67-5.077,2.471c-0.413,0.408-0.826,0.815-1.239,1.223c-1.39,0.264-2.019,1.289-2.482,2.48
			c-0.828,0.828-1.656,1.656-2.484,2.484c-1.632,0.442-2.514,1.629-3.094,3.115c-0.615,0.631-1.23,1.262-1.845,1.893
			c-1.85,0.904-2.764,2.623-3.736,4.291c0.003-0.002,0.006-0.004,0.009-0.005l-0.012,0.012c0.001-0.002,0.003-0.004,0.004-0.006
			c-1.828,0.983-3.013,2.499-3.686,4.442c-0.843,0.596-1.687,1.192-2.53,1.787c-1.471,0.29-2.15,1.566-3.108,2.495
			c-0.673,1.25-1.87,1.843-3.062,2.443c-2.553,0.787-4.374,2.578-5.94,4.591c-1.065,1.37-1.221,3.407-0.21,4.512
			c1.002,1.094,2.64,0.311,3.597-0.999c0.385-0.036,0.769-0.073,1.154-0.109c6.437-2.112,11.393-7.027,17.709-9.372
			c0.161-0.06,0.251-0.312,0.378-0.472c0.176-0.084,0.36-0.142,0.552-0.175c1.064,0.226,2.017-0.12,3.002-0.482
			c3.211-1.182,6.196-2.807,9.146-4.543c1.781,0.932,0.226,2.165,0.29,3.257c-0.812,3.924-1.568,7.862-1.794,11.881
			c-0.015,0.193-0.04,0.384-0.075,0.574c-2.705,5.722-3.792,11.881-4.884,18.04c0.001,0.395,0.003,0.791,0.004,1.186
			c-2.957,4.556-3.265,9.772-3.727,14.95c-0.002,1.284,0.21,2.61-0.74,3.705c-0.575,1.194,0.199,2.572-0.511,3.748
			c0.035,5.03-1.148,9.902-1.914,14.829c-1.933,4.196-1.853,8.775-2.365,13.219c-0.178,1.542-1.249,3.162-0.147,4.772
			c-0.591,2.298-1.181,4.596-1.772,6.895c-2.169,4.378-2.394,9.144-2.763,13.883c0.048,1.174,0.059,2.344-0.275,3.485
			c-0.127,0.859,0.022,1.666,0.449,2.421c-0.016,1.058-0.032,2.116-0.049,3.174c-0.375,1.041-0.025,2.144-0.272,3.195
			c-0.304,1.441-0.437,2.866,0.393,4.202c-0.032,0.828-0.064,1.656-0.095,2.484c-0.544,2.585,0.37,4.912,1.489,7.109
			c0.921,1.809,2.613,1.892,4.074,0.471c0.784-0.763,1.053-1.747,1.28-2.758c1.376-3.411,3.009-6.691,4.971-9.806
			c0.789-0.629,0.805-1.674,1.322-2.449c2.191-5.523,4.472-11.005,6.269-16.686c3.438-10.872,7.049-21.705,12.426-31.808
			c1.482-2.785,2.543-6.154,6.073-7.346c-2.285-5.848-4.399-11.735-5.26-18.01C111.799,207.378,112.238,194.814,117.156,182.734z"/>
		<path style="fill:#80CBF4;" d="M162.945,131.939c0.006,0.005,0.013,0.011,0.019,0.016c0.002,0.001,0.004,0.002,0.006,0.003
			L162.945,131.939z"/>
		<path style="fill:#80CBF4;" d="M198.186,182.099c0.501,0.761,0.74,1.697,1.086,2.558c0.481,1.197,1.443,2.47-0.735,3.094
			c-1.673,0.48-3.065,1.394-4.088-1.255c-4.48-11.592-12.311-19.766-24.793-22.483c-11.017-2.399-21.873-1.11-32.11,3.394
			c-9.916,4.362-15.069,12.942-17.691,23.029c-3.799,14.616-2.975,29.069,2.802,43.074c2.669,6.471,6.975,11.928,11.844,16.913
			c4.598,4.706,9.192,9.427,14.618,13.221c0.103-0.073,0.206-0.149,0.312-0.258c-0.059-1.584-1.181-2.603-2.062-3.715
			c-2.76-3.482-5.606-6.897-8.314-10.418c-7.691-9.998-14.347-20.575-16.423-33.289c-1.491-9.129-0.34-17.913,4.878-25.879
			c6.069-9.265,14.614-15.314,24.809-19.204c4.558-1.739,9.229-3.088,14.207-2.601c2.744,0.268,3.252,0.967,2.544,3.613
			c-0.535,1.997-1.16,3.972-1.48,6.017c-2.568,16.439-4.459,32.902-4.373,49.615c0.092,17.851,3.285,35.194,6.937,52.516
			c0.302,0.326,0.586,0.669,0.836,1.047c2.668,2.352,5.606,4.315,8.707,6.044c0.054-0.016,0.102-0.017,0.154-0.028
			c0.115-0.102,0.224-0.229,0.317-0.398c0.767-3.971,0.434-7.946,0.037-11.92c-0.404-1.692-0.307-3.407-0.247-5.12
			c-0.008-1.396,0.007-2.793-0.271-4.172c-0.517-1.525-0.408-3.092-0.33-4.657c-0.073-1.615,0.264-3.306-0.885-4.721
			c-0.02-0.588-0.041-1.176-0.061-1.765c-0.459-2.952-0.482-5.904,0.01-8.856c0.053-3.511,0.106-7.023,0.159-10.534
			c0.433-1.014-0.152-2.171,0.445-3.161c-0.053-6.449,2.845-12.282,3.858-18.509c1.223-0.703,1.345-2.006,1.735-3.166
			c0.988-2.937,1.755-5.955,3.178-8.733c0.328-0.64,0.67-1.409,1.509-1.373c0.847,0.036,1.104,0.838,1.373,1.509
			c0.309,0.771,0.507,1.581,0.577,2.406c0.429,5.051,2.183,9.81,3.249,14.721c0.834,3.843,2.688,7.353,4.035,11.03
			c4.085,11.154,6.873,22.771,11.664,33.657c3.703,8.415,8.05,16.543,11.684,24.999c2.118,4.928,3.533,10.161,6.532,14.706
			c1.101,1.669,2.283,3.189,4.139,4.061c2.634,1.238,4.644-0.049,4.943-3.173c1.332-4.001,0.328-8.008-0.318-11.903
			c-1.9-11.439-5.29-22.52-8.56-33.628c-2.02-6.863-3.836-13.796-4.897-20.895c0.024-0.677-0.165-1.293-0.528-1.86
			c-0.219-0.686-0.5-1.359-0.647-2.061c-2.281-10.934-4.742-21.836-6.743-32.821c-1.376-7.551-2.958-15.102-3.235-22.821
			c-0.695-0.946,0.018-2.125-0.512-3.098c-0.037-0.826-0.075-1.653-0.112-2.479c-0.682-0.951,0.01-2.124-0.499-3.103
			c-0.021-1.021-0.042-2.043-0.063-3.064l0,0c-4.164,4.007-8.267,8.079-12.525,11.982
			C197.459,179.465,197.146,180.519,198.186,182.099z"/>
		<path style="fill:#007DBD;" d="M305.551,221.107c6.463-11.382,11.9-23.197,15.487-35.818l0,0
			c1.216-5.938,2.427-11.877,2.771-17.949c0.248-1.229,0.293-2.457-0.03-3.682c-0.24-2.489-0.48-4.977-0.721-7.466
			c-0.918-0.292-1.203-1.08-1.425-1.882c-4.413-15.927-16.038-23.742-31.073-27.924c-19.237-5.351-36.495-0.95-52.51,10.158
			c-5.784,4.011-11.088,8.593-16.227,13.381c-0.725,0.676-1.311,1.675-2.568,1.419c-0.045-0.042-0.08-0.083-0.122-0.124
			c-3.36,1.545-5.593,4.267-7.683,7.138c-0.025,0.308-0.059,0.616-0.119,0.924c-0.995,2.51-3.195,4.011-4.988,5.831
			c-2.896,2.941-5.658,6.034-8.859,8.652c-2.427,1.984-3.689,1.932-5.525-0.341c-9.688-11.992-22.632-15.678-37.328-14.372
			c-8.355,0.742-16.558,2.412-23.739,7.275c-7.77,5.261-12.199,12.89-14.663,21.592c-4.496,15.879-3.677,31.632,2.298,47.069
			c0.392,1.013,1.201,2.022,0.283,3.166l0,0l0,0c2.085,3.297,4.169,6.593,6.253,9.889c2.524,1.536,3.893,4.175,5.886,6.224
			c8.562,8.805,18.289,16.252,27.695,24.073c0.112,0.373,0.207,0.751,0.311,1.126c4.447,3.483,8.943,6.901,13.628,10.062
			c0.166,0.119,0.335,0.232,0.502,0.348c-0.073-0.289-0.144-0.578-0.218-0.866c2.896,2.049,6.386,3.259,8.685,6.151
			c-0.008,0.155-0.037,0.303-0.054,0.455c0.044,0.037,0.09,0.07,0.134,0.107c1.556,0.979,3.126,1.967,4.775,2.756
			c6.15,2.944,12.082,6.537,19.162,6.902c1.747-0.007,3.496,0.003,5.242-0.011c0.935-0.075,1.884-0.243,2.574-0.892
			c0.895-0.842,1.49-1.796-0.183-2.512c-1.689-0.016-3.404,0.428-5.055-0.282c-0.126-0.576-0.56-0.85-1.066-0.984
			c-9.1-2.42-16.658-7.876-24.646-12.489c-0.813-0.47-1.489-1.339-2.587-1.103c-0.439,0.39-1.013,0.332-1.512,0.04
			c-2.956-1.725-6.121-3.203-8.014-6.292c-0.057-0.27-0.113-0.541-0.17-0.811c-0.461-0.499-0.971-0.949-1.531-1.357
			c-4.327-3.151-8.38-6.653-12.616-9.92c-2.252-1.737-4.076-4.047-6.844-5.089c-0.015-0.01-0.028-0.021-0.043-0.031
			c-0.922,0.651-1.699-0.065-2.359-0.644c-8.797-7.701-17.518-15.49-23.286-25.904c-3.091-5.581-4.692-11.659-5.708-17.925
			c-1.784-11.001-1.322-21.85,2.402-32.404c4.256-12.061,12.261-20.059,25.104-22.846c6.418-1.392,12.846-2.186,19.375-1.559
			c14.293,1.372,24.009,9.081,29.887,21.958c0.342,0.75,0.541,1.577,1.105,2.206c0.645,0.719,1.432,0.751,2.25,0.327
			c0.803-0.416,0.809-1.1,0.597-1.863c-0.032-0.116-0.036-0.157-0.032-0.171c-0.015-0.015-0.039-0.045-0.085-0.112
			c-3.065-4.454-0.267-7.177,2.811-9.909c2.933-2.603,6.009-5.056,8.619-8.012c0.389-0.441,0.85-0.949,1.582-0.585l0,0
			c5.216-5.162,10.252-10.524,15.694-15.435c7.079-6.388,14.273-12.712,23.26-16.446c12.537-6.768,25.667-7.622,39.237-3.884
			c9.257,2.55,17.585,6.624,23.254,14.791c5.133,7.395,6.425,15.796,5.736,24.511c-0.686,8.677-2.966,17.035-6.145,25.133
			c-0.346,0.882-0.354,2.138-1.703,2.341l0,0l0,0c-0.069,0.587-0.009,1.138-0.252,1.763c-2.158,5.54-4.784,10.849-7.674,16.035
			c-4.075,7.314-8.366,14.491-13.335,21.243c-0.633,0.402-0.897,1.062-1.188,1.702c-1.581,2.087-3.211,4.138-4.733,6.266
			c-4.851,6.778-10.518,12.866-16.255,18.862c-4.736,4.95-9.844,9.545-14.815,14.268c-2.109,2.004-3.794,4.242-4.43,7.146
			c1.519,1.238,2.43-0.262,3.4-0.882c7.782-4.972,14.754-10.966,21.478-17.262c-0.049-0.137-0.098-0.273-0.147-0.41
			c0.564-2.489,2.795-3.731,4.306-5.443c5.475-6.202,10.615-12.657,15.537-19.296c0.052,0.305,0.103,0.61,0.155,0.916
			c0.132-0.188,0.269-0.371,0.4-0.56c2.745-3.563,4.918-7.528,7.711-11.055c-0.074-0.185-0.149-0.37-0.223-0.555
			C301.791,226.732,303.887,224.037,305.551,221.107z"/>
		<path style="fill:#007DBD;" d="M118.527,234.985c-5.975-15.437-6.794-31.191-2.298-47.069c2.464-8.702,6.893-16.331,14.663-21.592
			c7.181-4.862,15.383-6.532,23.739-7.275c14.696-1.306,27.64,2.38,37.328,14.372c1.836,2.273,3.098,2.326,5.525,0.341
			c3.202-2.617,5.964-5.711,8.859-8.652c1.793-1.821,3.992-3.321,4.988-5.831c0.06-0.308,0.095-0.616,0.119-0.924
			c-0.242,0.332-0.483,0.666-0.723,1c-4.432,5.04-9.399,9.541-14.208,14.205c-1.611,1.563-2.626,1.249-3.855-0.467
			c-3.307-4.617-7.636-8.082-12.702-10.611c-12.053-6.016-24.498-5.209-37.124-2.229c-12.579,2.969-20.903,10.742-25.682,22.479
			c-4.918,12.08-5.357,24.644-3.606,37.407c0.861,6.275,2.975,12.162,5.26,18.01l0,0
			C119.729,237.007,118.919,235.999,118.527,234.985z"/>
		<path style="fill:#007DBD;" d="M303.732,130.716c-20.601-10.466-40.994-10.057-60.993,1.827
			c-8.644,5.136-16.113,11.741-23.406,18.573c-0.07,0.031-0.132,0.071-0.201,0.103c0.042,0.042,0.077,0.083,0.122,0.124
			c1.257,0.256,1.843-0.743,2.568-1.419c5.139-4.789,10.444-9.37,16.227-13.381c16.015-11.108,33.273-15.508,52.51-10.158
			c15.035,4.182,26.66,11.996,31.073,27.924c0.222,0.802,0.508,1.59,1.425,1.882c-0.182-0.479-0.419-0.945-0.537-1.439
			C319.924,143.872,313.637,135.748,303.732,130.716z"/>
		<path style="fill:#007DBD;" d="M198.455,184.82C198.491,184.857,198.463,184.796,198.455,184.82L198.455,184.82z"/>
		<path style="fill:#007DBD;" d="M170.988,281.089c-0.25-0.378-0.534-0.721-0.836-1.047c0.057,0.27,0.113,0.541,0.17,0.811
			c1.893,3.089,5.058,4.567,8.014,6.292c0.499,0.291,1.072,0.349,1.512-0.04c-0.052,0.011-0.1,0.012-0.154,0.028
			C176.594,285.403,173.656,283.441,170.988,281.089z"/>
		<path style="fill:#007DBD;" d="M209.8,166.787c-2.61,2.956-5.686,5.409-8.619,8.012c-3.078,2.733-5.876,5.456-2.811,9.909
			c0.046,0.067,0.07,0.096,0.085,0.112c0.007-0.024,0.036,0.037,0,0c-0.004,0.014,0,0.055,0.032,0.171
			c0.212,0.763,0.206,1.447-0.597,1.863c-0.818,0.424-1.606,0.392-2.25-0.327c-0.564-0.629-0.762-1.457-1.105-2.206
			c-5.878-12.878-15.594-20.586-29.887-21.958c-6.529-0.627-12.957,0.167-19.375,1.559c-12.844,2.786-20.848,10.785-25.104,22.846
			c-3.724,10.554-4.187,21.403-2.402,32.404c1.016,6.266,2.617,12.344,5.708,17.925c5.767,10.414,14.488,18.203,23.286,25.904
			c0.66,0.578,1.438,1.295,2.359,0.644c-5.427-3.794-10.021-8.514-14.618-13.221c-4.869-4.985-9.175-10.443-11.844-16.913
			c-5.777-14.006-6.601-28.458-2.802-43.074c2.622-10.087,7.775-18.667,17.691-23.029c10.237-4.504,21.093-5.793,32.11-3.394
			c12.482,2.718,20.313,10.891,24.793,22.483c1.024,2.649,2.415,1.735,4.088,1.255c2.178-0.624,1.216-1.897,0.735-3.094
			c-0.346-0.861-0.585-1.797-1.086-2.558c-1.04-1.58-0.727-2.634,0.67-3.915c4.258-3.903,8.362-7.976,12.525-11.982
			C210.65,165.838,210.189,166.346,209.8,166.787z"/>
		<path style="fill:#80CBF4;" d="M359.041,318.57c0.238-2.324-0.244-4.536-2.381-6.001c-0.412-1.234-0.824-2.468-1.237-3.702
			c0.265-3.991-0.865-7.641-2.717-11.115c-3.889-13.504-7.74-27.019-11.682-40.507c-2.561-8.764-4.586-17.685-8.094-26.169
			c-6.079-14.702-9.496-30.118-11.892-45.788c0,0,0,0,0,0.001c-0.703,7.33-3.74,13.918-6.733,20.475
			c-3.818,8.365-8.358,16.364-13.059,24.265c-0.128,0.157-0.248,0.319-0.373,0.478c2.951,7.364,5.913,14.717,10.716,21.154
			c4.076,5.464,7.898,11.096,10.477,17.455c1.975,4.871,3.696,9.846,5.37,14.821c4.152,12.342,11.073,22.987,19.484,32.75
			c1.735,2.014,3.543,4.041,5.904,5.406C356.295,322.874,358.732,321.586,359.041,318.57z"/>
		<path style="fill:#80CBF4;" d="M314.305,205.764c2.993-6.558,6.03-13.145,6.733-20.475c-3.587,12.621-9.024,24.436-15.487,35.818
			c-1.663,2.93-3.76,5.625-4.901,8.844c0.074,0.185,0.149,0.37,0.223,0.555c0.125-0.158,0.245-0.321,0.373-0.478
			C305.947,222.129,310.487,214.13,314.305,205.764z"/>
		<path style="fill:#81CBF4;" d="M130.221,254.571c-1.932-2.017-3.727-4.125-5.157-6.531c0.087,1.32,0.194,2.57,0.718,3.878
			c2.248,5.611,4.207,11.338,6.42,16.964c4.238,10.774,6.655,22.219,12.042,32.566c0.733,3.63,1.979,7.026,4.491,9.845l-0.029,0.004
			c1.201,3.229,1.785,6.754,4.445,9.284c0.669,0.686,1.064,1.5,1.15,2.459c0.476,3.215,1.516,6.137,4.256,8.173
			c0.246,0.567,0.492,1.134,0.738,1.701c0.26,1.103,0.758,2.029,1.863,2.502c0.797,0.25,1.595,0.5,2.392,0.75
			c3.246-0.886,1.786-3.482,1.981-5.475c-0.586-2.55-0.525-5.122-0.358-7.708c0.736-11.401,0.236-22.656-3.495-33.618
			c-1.1-3.231-1.799-6.6-2.72-9.901c-0.242-0.19-0.486-0.377-0.728-0.567C148.685,271.029,138.811,263.542,130.221,254.571z"/>
		<path style="fill:#81CBF4;" d="M130.95,254.264c-1.993-2.049-3.362-4.687-5.886-6.224c1.43,2.405,3.226,4.513,5.157,6.531
			c8.589,8.97,18.463,16.457,28.008,24.326c0.242,0.19,0.486,0.377,0.728,0.567c-0.105-0.375-0.2-0.753-0.311-1.126
			C149.239,270.516,139.512,263.069,130.95,254.264z"/>
		<path style="fill:#81CBF4;" d="M317.149,158c-1.956-10.114-7.42-17.652-16.557-22.3c-14.834-7.546-30.127-8.932-45.811-2.69
			c-1.449,0.577-2.936,0.969-4.445,1.311c0.854,0.047,1.708,0.093,2.563,0.14c0.943-0.685,2.095-0.02,3.074-0.477
			c1.847-0.057,3.694-0.115,5.541-0.172c2.537-0.456,5.074-0.484,7.609,0.013c3.712-0.155,7.338,0.591,10.939,1.266
			c9.846,1.847,17.969,6.615,24.058,14.693c7.429,9.856,9.463,21.143,8.898,33.136c-0.507,0.98,0.182,2.152-0.498,3.104
			c-0.601,3.73-1.203,7.459-1.804,11.189c3.009-7.601,5.295-15.404,6.513-23.5C318.017,168.474,318.165,163.255,317.149,158z"/>
		<path style="fill:#81CBF4;" d="M312.418,194.872c3.179-8.098,5.459-16.457,6.145-25.133c0.689-8.716-0.603-17.117-5.736-24.511
			c-5.669-8.167-13.997-12.241-23.254-14.791c-13.57-3.738-26.7-2.883-39.237,3.884c1.51-0.342,2.996-0.734,4.445-1.311
			c15.684-6.242,30.977-4.856,45.811,2.69c9.136,4.648,14.601,12.186,16.557,22.3c1.016,5.254,0.868,10.474,0.08,15.713
			c-1.218,8.096-3.505,15.899-6.513,23.5l0,0C312.065,197.01,312.072,195.754,312.418,194.872z"/>
		<path style="fill:#81CBF4;" d="M114.549,142.484c0.966,4.343,3.835,6.303,7.208,4.588c2.877-1.462,5.315-3.553,5.733-7.126
			c0.258-1.205,0.515-2.41,0.773-3.615c1.2-0.728,1.329-1.923,1.367-3.155c-0.019-1.022,0.008-2.044-0.046-3.064
			c-0.07-0.702-0.271-1.345-0.805-1.845c-0.438-1.229-0.875-2.459-1.313-3.688c-0.504-1.985-1.939-2.883-3.817-3.255
			c-1.133-0.064-2.266-0.15-3.376,0.186c-0.299,0.137-0.561,0.323-0.785,0.562c-0.602,0.209-1.204,0.419-1.806,0.628
			c-1.731,0.704-2.385,2.094-2.455,3.856c-0.995,3.54-1.442,7.127-1.322,10.823C113.963,139.123,115.04,140.702,114.549,142.484z"/>
		<path style="fill:#81CBF4;" d="M286.534,107.109c1.002,0.51,1.3,1.543,1.799,2.426c1.295-0.089,1.832,1.465,3.102,1.43
			c1.212,0.359,2.428,0.313,3.645,0.03c1.902-1.268,2.809-3.008,3.326-5.291c0.904-3.993-0.277-7.736-0.708-11.577
			c-0.264-1.193-0.529-2.386-0.793-3.579c-1.375-4.294-4.594-5.621-8-3.298c-0.593,0.443-1.186,0.887-1.779,1.33
			c-2.54,1.554-3.547,3.848-3.266,6.765c0.029,0.629,0.058,1.259,0.088,1.888C283.437,100.885,283.19,104.467,286.534,107.109z"/>
		<path style="fill:#81CBF4;" d="M189.234,125.082c4.437,1.226,6.823-0.298,7.921-4.887c0.319-0.843,0.638-1.687,0.957-2.53
			c1.118-0.959,1.341-2.309,1.58-3.649c0.067-1.352,0.129-2.702-0.113-4.043c-0.137-0.721-0.631-1.17-1.189-1.57
			c-0.259-0.578-0.518-1.156-0.777-1.734c-0.66-1.695-1.995-2.424-3.717-2.603c-0.956-0.034-1.912-0.267-2.866,0.003
			c-0.974,0.303-1.789,0.762-1.922,1.911c-0.139,0.947-0.564,1.757-1.187,2.473c-1.529,3.825-1.613,7.838-1.282,11.838
			C186.793,122.144,186.836,124.419,189.234,125.082z"/>
		<path style="fill:#81CBF4;" d="M307.459,333.468c-0.861-2.023-0.992-4.823-4.246-4.736c0.125,0.739-0.329,1.277-0.648,1.861
			c-1.815,5.552-3.738,11.057-7.209,15.879c5.963,2.6,9.81,0.479,12.281-6.608c0.541-1.212-0.182-2.586,0.485-3.782
			C307.449,335.314,307.797,334.261,307.459,333.468z"/>
		<path style="fill:#81CBF4;" d="M175.303,342.454c-0.486-2.657-2.089-4.671-3.916-6.494c-0.93-0.927-2.599-1.544-3.083-0.014
			c-0.756,2.386-2.804,3.472-4.111,5.256c-0.153,0.903,0.194,1.659,0.696,2.37c-0.024,0.45,0.147,0.831,0.422,1.174
			c0.746,0.837,1.523,1.64,2.414,2.325c1.567,0.89,2.65,2.372,4.138,3.356c0.598,0.401,1.124,0.896,1.711,1.308
			c1.277,0.776,2.617,0.866,4.009,0.362c0.451-0.234,0.586-0.708,0.836-1.094c0.16-1.064-0.103-2.059-0.501-3.031
			C177.045,346.132,176.174,344.293,175.303,342.454z"/>
		<path style="fill:#81CCF4;" d="M79.066,310.087c0.072-1.284-0.299-2.471-1.079-3.449c-0.906-1.136-1.976-1.968-3.19-0.275
			c-0.396,0.225-0.792,0.451-1.188,0.676c-3.115,0.466-5.363,2.462-7.609,4.405c-1.121,0.97-1.406,2.248-0.574,3.616
			c0.041,0.38,0.081,0.761,0.122,1.141c2.374,2.066,4.579,2.226,7.31,0.531c2.061-0.979,4.68-0.713,6.246-2.798
			C78.596,312.656,78.764,311.371,79.066,310.087z"/>
		<path style="fill:#81CCF4;" d="M182.248,308.439c-0.82-0.629-7.856,0.335-8.149,1.278c-1.163,3.733-3.416,7.326-1.842,11.504
			c1.144,0.343,2.018-0.512,3.046-0.685c3.014-2.806,5.111-6.251,6.857-9.928C182.475,309.944,183.217,309.182,182.248,308.439z"/>
		<path style="fill:#81CCF4;" d="M371.437,325.704c-0.798-1.475-1.749-2.736-3.681-2.616c-1.23-0.256-1.959-2.097-3.577-1.129
			c-0.863,3.727-3.875,4.032-6.892,4.328c-0.266,0.528-1.687-0.144-1.205,1.161c1.652,0.569,3.411,0.862,4.889,1.882
			c1.333,0.078,2.645,0.219,3.683,1.201c0.409,0.024,0.819,0.048,1.228,0.072c2.075,0.636,4.153,0.959,6.241,0.059
			c0.82-0.665,1.897-1.195,1.298-2.575C372.76,327.292,372.098,326.498,371.437,325.704z"/>
		<path style="fill:#81CBF4;" d="M272.912,266.355c1.812,5.076,3.649,10.143,5.424,15.231c5.55,15.909,14.306,29.554,27.973,39.747
			c0.698,0.532,1.554,0.762,2.301,1.201c1.361-0.597,1.387-0.597,1.407-2.137c0.104-7.934-1.684-15.598-4.451-22.883
			c-6.803-17.913-9.628-36.681-12.805-55.394c-5.99,8.555-12.956,16.312-19.791,24.178
			C272.952,266.319,272.932,266.337,272.912,266.355z"/>
		<path style="fill:#81CBF4;" d="M277.07,260.503c-1.511,1.712-3.742,2.953-4.306,5.443c0.049,0.137,0.098,0.273,0.147,0.41
			c0.02-0.019,0.04-0.037,0.06-0.055c6.835-7.867,13.801-15.624,19.791-24.178c-0.052-0.305-0.103-0.61-0.155-0.916
			C287.685,247.845,282.545,254.3,277.07,260.503z"/>
		<path style="fill:#81CBF4;" d="M176.085,301.502c0.292,1.047,1.029,2.959,2.322,0.887c1.303-2.088,2.805-4.193,3.093-6.776
			c-2.617-2.183-5.625-3.802-8.414-5.739C174.065,293.756,175.008,297.648,176.085,301.502z"/>
		<path style="fill:#81CBF4;" d="M172.869,289.008c0.073,0.289,0.145,0.578,0.218,0.866c2.789,1.937,5.796,3.556,8.414,5.739
			c0.017-0.152,0.045-0.299,0.054-0.455C179.255,292.267,175.765,291.057,172.869,289.008z"/>
		<path style="fill:#81CBF4;" d="M245.056,313.004c-1.1-1.634-2.118-3.278-4.334-1.516c-3.319,2.639-4.303,5.198-2.474,7.145
			c2.951,3.141,6.427,5.7,10.205,7.77c1.844,1.01,3.23-0.005,3.229-2.089c-0.02-1.628-0.852-2.971-1.688-4.246
			C248.42,317.666,246.66,315.387,245.056,313.004z"/>
	</g>
</g>
</svg>
