<?xml version="1.0" encoding="iso-8859-1"?>
<!-- Generator: Adobe Illustrator 22.0.1, SVG Export Plug-In . SVG Version: 6.00 Build 0)  -->
<svg version="1.1" id="Layer_1" xmlns="http://www.w3.org/2000/svg" xmlns:xlink="http://www.w3.org/1999/xlink" x="0px" y="0px"
	 viewBox="0 0 438.53 438.53" style="enable-background:new 0 0 438.53 438.53;" xml:space="preserve">
<g id="_x31_70">
	<g>
		<path style="fill:#00925C;" d="M407.603,110.087c-19.45-33.321-45.833-59.704-79.155-79.153
			c-33.328-19.448-69.711-29.17-109.176-29.17c-39.461,0-75.854,9.722-109.177,29.17C76.771,50.38,50.388,76.763,30.938,110.087
			c-19.451,33.326-29.173,69.72-29.173,109.178c0,39.46,9.725,75.847,29.17,109.175c19.449,33.321,45.832,59.704,79.156,79.155
			c33.326,19.447,69.717,29.17,109.177,29.17s75.854-9.723,109.179-29.17c33.322-19.444,59.704-45.834,79.152-79.155
			c19.445-33.325,29.166-69.718,29.166-109.175C436.766,179.803,427.044,143.409,407.603,110.087z M118.898,357.8
			c-10.178-9.986-16.341-18.637-22.335-31.665c-11.422-5.225-19.791-10.144-29.969-16.398c7.238-3.223,13.514-5.236,22.335-7.634
			c-2.714-15.459-1.979-29.562,0.283-48.911c3.958,18.275,7.464,31.541,15.267,45.236c9.613-1.877,17.755-3.223,28.838-4.806
			c-5.994,8.878-9.726,15.991-13.005,24.88c10.857,10.144,20.695,16.115,34.492,21.204c-14.476-0.464-25.106-2.499-37.885-6.22
			C116.014,342.454,116.523,349.285,118.898,357.8z M157.631,238.208c-5.654-13.48-13.571-40.712-13.571-40.712
			c-15.493,8.346-51.456,41.843-51.456,41.843c19.565-39.355,39.582-57.393,39.582-57.393c-6.898-6.853-24.767-10.133-37.885-10.744
			c6.785-2.805,24.427-6.197,37.885-6.785c13.458-0.418,21.487,0.565,21.487,0.565c12.101-9.545,30.308-17.71,36.754-18.66
			c-4.411,5.485-9.386,15.821-10.744,20.639c35.171,4.84,63.613,22.901,63.613,22.901c-30.987-5.428-47.102-4.693-58.524-3.675
			c-11.535,1.108-13.854,2.544-13.854,2.544C162.663,206.802,157.631,238.208,157.631,238.208z M230.009,339.14
			c1.018,4.659,1.809,7.385,2.827,11.026c-4.184,0.78-10.291,1.052-16.398,0.848c-11.761,6.91-27.481,12.112-39.581,14.984
			c7.125-4.569,13.571-9.386,20.922-16.115c-7.351-1.482-14.476-3.698-21.487-7.351c11.535-0.045,20.922-1.289,32.796-4.524
			c7.012-7.747,12.327-14.204,18.66-22.618c0.226,5.881,0.565,10.303,1.131,15.55c11.196-5.349,19.678-10.687,29.403-17.529
			C249.121,322.765,241.204,330.512,230.009,339.14z M353.842,115.505c3.958,10.574-5.485,68.77-13.288,84.252
			c-0.339-24.371-2.658-55.12-11.592-68.419c-23.862,13.978-31.043,15.052-56.828,30.534c15.041-16.319,20.13-23.331,29.403-37.037
			c-23.862,1.255-58.524,4.162-83.404,9.613c21.713-11.433,64.574-24.156,87.079-27.142c-5.315-7.226-47.724-30.41-58.241-34.775
			c33.475,2.601,74.526,15.188,94.43,27.424c7.916-2.431,16.059-2.669,30.534-3.958
			C368.205,102.364,368.205,106.096,353.842,115.505z"/>
		<path style="fill:#FFFFFF;" d="M154.804,339.706c-13.797-5.089-23.636-11.06-34.492-21.204c3.28-8.889,7.012-16.002,13.005-24.88
			c-11.083,1.583-19.225,2.929-28.838,4.806c-7.803-13.695-11.309-26.961-15.267-45.236c-2.262,19.35-2.997,33.452-0.283,48.911
			c-8.821,2.398-15.098,4.411-22.335,7.634c10.178,6.254,18.547,11.173,29.969,16.398c5.994,13.028,12.157,21.679,22.335,31.665
			c-2.375-8.516-2.884-15.346-1.979-24.314C129.698,337.207,140.328,339.242,154.804,339.706z"/>
		<path style="fill:#FFFFFF;" d="M243.297,189.862c0,0-28.442-18.06-63.613-22.901c1.357-4.818,6.333-15.154,10.744-20.639
			c-6.446,0.95-24.654,9.115-36.754,18.66c0,0-8.029-0.984-21.487-0.565c-13.458,0.588-31.1,3.981-37.885,6.785
			c13.118,0.611,30.987,3.89,37.885,10.744c0,0-20.017,18.038-39.582,57.393c0,0,35.963-33.497,51.456-41.843
			c0,0,7.916,27.232,13.571,40.712c0,0,5.033-31.405,13.288-49.477c0,0,2.318-1.436,13.854-2.544
			C196.195,185.168,212.31,184.433,243.297,189.862z"/>
		<path style="fill:#FFFFFF;" d="M227.747,315.392c-6.333,8.414-11.648,14.871-18.66,22.618
			c-11.874,3.234-21.261,4.478-32.796,4.524c7.012,3.653,14.136,5.869,21.487,7.351c-7.351,6.729-13.797,11.546-20.922,16.115
			c12.101-2.872,27.82-8.075,39.581-14.984c6.107,0.204,12.214-0.068,16.398-0.848c-1.018-3.642-1.809-6.367-2.827-11.026
			c11.196-8.629,19.112-16.375,28.273-25.728c-9.726,6.842-18.208,12.18-29.403,17.529
			C228.312,325.694,227.973,321.272,227.747,315.392z"/>
		<path style="fill:#FFFFFF;" d="M246.972,72.531c10.517,4.365,52.926,27.549,58.241,34.775
			c-22.505,2.986-65.366,15.708-87.079,27.142c24.88-5.451,59.542-8.357,83.404-9.613c-9.273,13.707-14.362,20.718-29.403,37.037
			c25.785-15.482,32.966-16.556,56.828-30.534c8.934,13.299,11.253,44.049,11.592,68.419c7.803-15.482,17.246-73.678,13.288-84.252
			c14.362-9.409,14.362-13.141,18.094-19.508c-14.476,1.289-22.618,1.527-30.534,3.958
			C321.498,87.719,280.447,75.132,246.972,72.531z"/>
	</g>
</g>
</svg>
