<?xml version="1.0" encoding="iso-8859-1"?>
<!-- Generator: Adobe Illustrator 22.0.1, SVG Export Plug-In . SVG Version: 6.00 Build 0)  -->
<svg version="1.1" id="Layer_1" xmlns="http://www.w3.org/2000/svg" xmlns:xlink="http://www.w3.org/1999/xlink" x="0px" y="0px"
	 viewBox="0 0 438.53 438.53" style="enable-background:new 0 0 438.53 438.53;" xml:space="preserve">
<g id="_x31_71">
	<g>
		<path style="fill:#1969C2;" d="M348.498,179.103c-3.909-2.199-8.192-3.074-12.603-3.454c-4.843-0.417-9.698-0.133-14.546-0.257
			c-1-0.026-1.112,0.345-1.108,1.197c0.033,6.167,0.018,12.335,0.018,18.503s0.018,12.335-0.021,18.503
			c-0.005,0.863,0.213,1.114,1.084,1.09c2.301-0.063,4.605-0.04,6.907-0.017c4.694,0.047,9.372-0.074,13.956-1.24
			c4.009-1.02,7.682-2.681,10.498-5.828c3.672-4.104,4.582-9.085,4.275-14.361C356.601,187.087,354.003,182.199,348.498,179.103z"/>
		<path style="fill:#1969C2;" d="M226.152,223.701c-3.397-10.716-6.793-21.431-10.192-32.155c-0.46,0.246-0.428,0.715-0.546,1.083
			c-4.897,15.364-9.768,30.736-14.691,46.092c-0.329,1.025-0.029,1.315,0.868,1.608c9.615,3.142,19.219,3.07,28.841,0.029
			c0.816-0.258,0.823-0.612,0.605-1.292C229.394,233.95,227.777,228.824,226.152,223.701z"/>
		<path style="fill:#1969C2;" d="M407.603,110.087c-19.45-33.321-45.833-59.704-79.155-79.153
			c-33.328-19.448-69.711-29.17-109.176-29.17c-39.461,0-75.854,9.722-109.177,29.17C76.771,50.38,50.388,76.763,30.938,110.087
			c-19.451,33.326-29.173,69.72-29.173,109.178c0,39.46,9.725,75.847,29.17,109.175c19.449,33.321,45.832,59.704,79.156,79.155
			c33.326,19.447,69.717,29.17,109.177,29.17s75.854-9.723,109.179-29.17c33.322-19.444,59.704-45.834,79.152-79.155
			c19.445-33.325,29.166-69.718,29.166-109.175C436.766,179.803,427.044,143.409,407.603,110.087z M394.617,212.079
			c-3.771,13.892-12.444,23.659-25.382,29.716c-7.564,3.541-15.606,5.277-23.897,5.97c-7.888,0.659-15.791,0.327-23.688,0.369
			c-1.111,0.006-1.423,0.264-1.419,1.409c0.042,14.649,0.013,29.299,0.056,43.948c0.003,1.15-0.317,1.398-1.423,1.397
			c-22.92-0.033-45.841-0.031-68.761-0.003c-1.004,0.001-1.474-0.247-1.814-1.255c-2.255-6.688-4.612-13.342-6.881-20.025
			c-0.317-0.934-0.667-1.054-1.579-0.77c-10.667,3.318-21.562,4.246-32.668,3.141c-5.543-0.552-10.968-1.612-16.263-3.317
			c-0.942-0.303-1.244-0.108-1.514,0.806c-2.01,6.81-4.082,13.601-6.101,20.408c-0.203,0.684-0.411,1.012-1.22,1.011
			c-14.361-0.03-28.722-0.024-43.084-0.027c-0.081,0-0.162-0.023-0.433-0.065c1.565-4.228,3.118-8.421,4.785-12.922
			c-0.98,0.755-1.715,1.297-2.425,1.872c-8.208,6.651-17.671,10.497-27.975,12.376c-10.588,1.931-21.207,1.667-31.813,0.104
			c-13.417-1.978-26.043-6.33-37.995-12.714c-1.087-0.581-1.222-0.987-0.645-2.087c4.813-9.158,9.57-18.346,14.292-27.552
			c0.455-0.888,0.8-0.836,1.53-0.411c5.937,3.457,12.061,6.507,18.656,8.531c6.683,2.051,13.536,2.623,20.482,2.413
			c3.751-0.113,7.482-0.402,10.998-1.865c2.536-1.056,4.922-2.397,6.296-4.908c2.472-4.516,2.327-9.344-2.56-12.995
			c-3.469-2.592-7.464-4.104-11.494-5.538c-7.036-2.503-14.287-4.354-21.249-7.089c-7.245-2.846-14.35-6.039-20.659-10.597
			c-8.47-6.119-14.005-14.335-16.048-24.727c-2.714-13.804,0.778-25.982,9.708-36.678c4.564-5.466,10.393-9.295,16.809-12.242
			c10.809-4.966,22.253-6.88,34.065-6.703c18.381,0.275,35.857,4.594,52.59,12.088c1.971,0.883,1.953,0.913,0.852,2.776
			c-5.202,8.807-10.418,17.606-15.58,26.437c-0.548,0.938-0.962,1.088-1.95,0.616c-7.432-3.547-15.06-6.576-23.239-7.905
			c-6.92-1.124-13.881-1.765-20.875-0.658c-2.821,0.446-5.522,1.313-7.881,2.99c-2.331,1.657-3.78,3.806-3.835,6.803
			c-0.035,1.918,0.74,3.425,1.961,4.765c2.483,2.725,5.644,4.5,8.885,6.116c6.261,3.122,12.853,5.391,19.512,7.498
			c8.856,2.802,17.582,5.936,25.563,10.814c6.599,4.033,12.212,9.051,15.887,15.987c1.606,3.031,2.735,6.234,3.357,9.612
			c0.059,0.322,0.158,0.636,0.308,1.224c2.668-7.022,5.234-13.768,7.795-20.515c9.482-24.977,18.968-49.953,28.425-74.939
			c0.339-0.897,0.732-1.227,1.742-1.224c13.003,0.044,26.007,0.04,39.01,0.006c0.968-0.003,1.397,0.243,1.748,1.198
			c13.78,37.565,27.596,75.117,41.414,112.668c0.147,0.4,0.171,0.877,0.697,1.27c0-0.54,0-0.968,0-1.396
			c0-37.405,0.007-74.81-0.03-112.215c-0.001-1.246,0.294-1.537,1.537-1.533c16.789,0.061,33.579-0.039,50.366,0.109
			c10.716,0.095,21.344,1.183,31.655,4.353c7.223,2.221,13.896,5.482,19.53,10.636c6.741,6.167,10.664,13.915,12.436,22.756
			C397.234,191.643,397.378,201.911,394.617,212.079z"/>
		<path style="fill:#FDFDFD;" d="M382.745,158.643c-5.634-5.154-12.307-8.415-19.53-10.636c-10.311-3.171-20.938-4.258-31.655-4.353
			c-16.788-0.149-33.578-0.049-50.366-0.109c-1.243-0.004-1.538,0.287-1.537,1.533c0.037,37.405,0.03,74.81,0.03,112.215
			c0,0.428,0,0.856,0,1.396c-0.526-0.393-0.55-0.87-0.697-1.27c-13.818-37.551-27.635-75.103-41.414-112.668
			c-0.35-0.955-0.779-1.201-1.748-1.198c-13.003,0.034-26.007,0.038-39.01-0.006c-1.01-0.003-1.402,0.327-1.742,1.224
			c-9.457,24.987-18.943,49.962-28.425,74.939c-2.562,6.747-5.127,13.494-7.795,20.515c-0.15-0.589-0.249-0.903-0.308-1.224
			c-0.621-3.378-1.75-6.581-3.357-9.612c-3.675-6.936-9.288-11.954-15.887-15.987c-7.982-4.878-16.708-8.012-25.563-10.814
			c-6.659-2.107-13.251-4.375-19.512-7.498c-3.241-1.616-6.402-3.391-8.885-6.116c-1.221-1.34-1.996-2.847-1.961-4.765
			c0.055-2.997,1.504-5.146,3.835-6.803c2.36-1.678,5.061-2.544,7.881-2.99c6.994-1.107,13.955-0.467,20.875,0.658
			c8.179,1.329,15.806,4.358,23.239,7.905c0.988,0.472,1.402,0.322,1.95-0.616c5.161-8.831,10.377-17.63,15.58-26.437
			c1.101-1.863,1.119-1.894-0.852-2.776c-16.732-7.495-34.209-11.813-52.59-12.088c-11.812-0.177-23.255,1.737-34.065,6.703
			c-6.416,2.947-12.245,6.776-16.809,12.242c-8.931,10.696-12.422,22.874-9.708,36.678c2.043,10.392,7.578,18.608,16.048,24.727
			c6.309,4.558,13.414,7.751,20.659,10.597c6.961,2.735,14.213,4.586,21.249,7.089c4.03,1.434,8.025,2.946,11.494,5.538
			c4.887,3.651,5.032,8.479,2.56,12.995c-1.374,2.511-3.76,3.852-6.296,4.908c-3.515,1.464-7.247,1.752-10.998,1.865
			c-6.946,0.21-13.799-0.362-20.482-2.413c-6.595-2.024-12.719-5.075-18.656-8.531c-0.73-0.425-1.075-0.477-1.53,0.411
			c-4.722,9.206-9.479,18.394-14.292,27.552c-0.578,1.1-0.443,1.506,0.645,2.087c11.952,6.383,24.578,10.736,37.995,12.714
			c10.605,1.564,21.225,1.827,31.813-0.104c10.303-1.879,19.766-5.726,27.975-12.376c0.709-0.575,1.445-1.117,2.425-1.872
			c-1.666,4.5-3.219,8.694-4.785,12.922c0.271,0.042,0.352,0.065,0.433,0.065c14.361,0.003,28.722-0.003,43.084,0.027
			c0.81,0.002,1.017-0.327,1.22-1.011c2.018-6.807,4.091-13.599,6.101-20.408c0.27-0.915,0.572-1.109,1.514-0.806
			c5.295,1.704,10.72,2.765,16.263,3.317c11.105,1.106,22.001,0.177,32.668-3.141c0.912-0.284,1.262-0.164,1.579,0.77
			c2.27,6.683,4.626,13.337,6.881,20.025c0.34,1.009,0.811,1.257,1.814,1.255c22.92-0.028,45.841-0.03,68.761,0.003
			c1.105,0.002,1.426-0.247,1.423-1.397c-0.042-14.649-0.014-29.299-0.056-43.948c-0.003-1.145,0.308-1.403,1.419-1.409
			c7.897-0.042,15.801,0.29,23.688-0.369c8.291-0.692,16.333-2.428,23.897-5.97c12.938-6.057,21.611-15.824,25.382-29.716
			c2.76-10.168,2.616-20.436,0.563-30.681C393.409,172.557,389.486,164.81,382.745,158.643z M230.433,240.359
			c-9.622,3.041-19.226,3.113-28.841-0.029c-0.897-0.293-1.197-0.583-0.868-1.608c4.922-15.356,9.794-30.728,14.691-46.092
			c0.117-0.368,0.086-0.837,0.546-1.083c3.399,10.724,6.795,21.439,10.192,32.155c1.624,5.123,3.242,10.249,4.886,15.366
			C231.257,239.746,231.249,240.101,230.433,240.359z M352.683,207.599c-2.816,3.147-6.489,4.808-10.498,5.828
			c-4.584,1.166-9.262,1.288-13.956,1.24c-2.302-0.023-4.606-0.045-6.907,0.017c-0.871,0.024-1.09-0.228-1.084-1.09
			c0.038-6.167,0.021-12.335,0.021-18.503s0.015-12.335-0.018-18.503c-0.005-0.853,0.108-1.223,1.108-1.197
			c4.848,0.124,9.703-0.16,14.546,0.257c4.412,0.38,8.694,1.255,12.603,3.454c5.505,3.096,8.103,7.985,8.46,14.135
			C357.264,198.514,356.355,203.495,352.683,207.599z"/>
	</g>
</g>
</svg>
