<?xml version="1.0" encoding="iso-8859-1"?>
<!-- Generator: Adobe Illustrator 22.0.1, SVG Export Plug-In . SVG Version: 6.00 Build 0)  -->
<svg version="1.1" id="Layer_1" xmlns="http://www.w3.org/2000/svg" xmlns:xlink="http://www.w3.org/1999/xlink" x="0px" y="0px"
	 viewBox="0 0 438.53 438.53" style="enable-background:new 0 0 438.53 438.53;" xml:space="preserve">
<g id="_x31_73">
	<g>
		<path style="fill:#1A559A;" d="M350.025,209.332c-2.568-8.447-5.127-16.896-7.9-26.038c-5.198,17.325-10.183,33.942-15.333,51.106
			c9.953,0,19.6-0.012,29.247,0.01c1.909,0.004,1.307-1.066,0.999-2.075C354.698,224.668,352.357,217.001,350.025,209.332z"/>
		<path style="fill:#1A559A;" d="M175.222,212.05c3.239-4.866,6.475-9.693,9.674-14.544c2.737-4.151,3.335-8.507,0.892-12.99
			c-2.569-4.713-6.71-6.906-11.988-7.005c-3.728-0.07-7.467,0.13-11.186-0.07c-2.287-0.123-2.833,0.599-2.826,2.84
			c0.083,23.525,0.028,47.05,0.08,70.575c0.007,3.015-1.374,7.256,0.594,8.728c2.034,1.522,6.048,0.623,9.173,0.419
			c8.77-0.572,15.948-3.833,19.614-12.477C195.491,232.811,189.833,218.373,175.222,212.05z"/>
		<path style="fill:#1A559A;" d="M80.012,212.192c3.185-4.765,6.221-9.387,9.339-13.953c2.978-4.36,3.938-8.956,1.329-13.738
			c-2.668-4.891-7.052-7.046-12.573-7.009c-3.441,0.023-6.897,0.196-10.32-0.058c-2.63-0.196-3.127,0.739-3.118,3.191
			c0.093,23.421,0.029,46.842,0.088,70.264c0.008,3.016-1.411,7.245,0.638,8.734c2.076,1.508,6.074,0.586,9.206,0.379
			c8.901-0.588,16.076-4.006,19.693-12.784c1.826-4.431,2.038-9.093,1.838-13.806C95.669,222.515,90.711,215.859,80.012,212.192z"/>
		<path style="fill:#1A559A;" d="M407.603,110.087c-19.45-33.321-45.833-59.704-79.155-79.153
			c-33.328-19.448-69.711-29.17-109.176-29.17c-39.461,0-75.854,9.722-109.177,29.17C76.771,50.38,50.388,76.763,30.938,110.087
			c-19.451,33.326-29.173,69.72-29.173,109.178c0,39.46,9.725,75.847,29.17,109.175c19.449,33.321,45.832,59.704,79.156,79.155
			c33.326,19.447,69.717,29.17,109.177,29.17s75.854-9.723,109.179-29.17c33.322-19.444,59.704-45.834,79.152-79.155
			c19.445-33.325,29.166-69.718,29.166-109.175C436.766,179.803,427.044,143.409,407.603,110.087z M100.389,272.766
			c-4.566,1.551-9.283,2.177-14.072,2.402c-0.003,0.16-0.006,0.319-0.007,0.479c-16.079,0-32.158,0-48.237,0
			c0.038-0.261,0.075-0.522,0.113-0.784c0.027-15.109,0.067-30.217,0.077-45.326c0.013-21.135,0.041-42.27-0.049-63.405
			c-0.01-2.393,0.399-3.272,3.072-3.247c15.109,0.145,30.22,0.072,45.33,0.069c3.355-0.001,6.668,0.223,9.927,1.155
			c12.326,3.526,17.968,14.056,14.132,26.317c-1.661,5.31-4.94,9.675-8.053,14.125c-1.244,1.778-1.251,2.551,0.797,3.732
			c10.379,5.986,17.97,14.338,20.163,26.459C126.646,251.687,117.068,267.103,100.389,272.766z M194.075,273.236
			c-4.053,1.214-8.222,1.713-12.432,1.928c-0.005,0.161-0.007,0.322-0.007,0.484c-16.079,0-32.158,0-48.237,0
			c0.012-0.218,0.023-0.435,0.035-0.653l0,0c-0.007-36.551-0.003-73.102-0.058-109.652c-0.003-1.816,0.407-2.44,2.346-2.43
			c15.787,0.083,31.575,0.056,47.363,0.056c3.079,0,6.099,0.388,9.054,1.268c11.597,3.454,17.181,13.665,13.918,25.316
			c-1.558,5.562-4.866,10.141-8.146,14.713c-1.418,1.976-1.48,2.841,0.867,4.189c9.645,5.542,16.777,13.319,19.524,24.365
			C222.716,250.572,212.322,267.77,194.075,273.236z M276.652,272.538c-0.614,2.044-1.487,2.621-3.539,2.584
			c-7.364-0.131-14.732-0.113-22.097-0.029c-1.6,0.018-2.318-0.43-2.829-1.993c-11.767-36.015-23.593-72.01-35.399-108.012
			c-0.199-0.608-0.284-1.254-0.441-1.97c7.792,0,15.435-0.155,23.067,0.067c3.646,0.106,5.673,2.824,7.095,5.93
			c2.235,4.879,3.624,10.048,5.168,15.162c6.15,20.374,12.284,40.754,18.428,61.13c0.192,0.636,0.434,1.258,0.858,2.479
			c2.092-6.957,4.035-13.372,5.949-19.795c6.186-20.763,12.394-41.52,18.491-62.31c0.654-2.229,1.612-3.019,3.959-2.885
			c3.909,0.223,7.845,0.174,11.762,0.019c2.356-0.093,2.903,0.388,2.143,2.827c-5.308,17.04-10.458,34.129-15.671,51.198
			C287.936,235.469,282.222,253.982,276.652,272.538z M371.565,275.113c-1.723,0.015-1.746-1.157-2.057-2.167
			c-2.056-6.655-4.116-13.31-6.068-19.996c-0.445-1.525-1.084-2.093-2.75-2.082c-12.242,0.08-24.484,0.079-36.726,0.001
			c-1.639-0.01-2.332,0.49-2.784,2.039c-1.949,6.687-4.086,13.32-5.998,20.017c-0.488,1.708-1.232,2.232-2.969,2.191
			c-4.964-0.118-9.934-0.042-15.233-0.042c1.828-6.031,3.571-11.842,5.349-17.642c9.368-30.561,18.77-61.111,28.065-91.694
			c0.685-2.253,1.687-2.905,3.983-2.839c6.594,0.19,13.198,0.206,19.795,0.091c5.393-0.094,8.95,2.274,10.701,7.313
			c3.725,10.723,7.429,21.454,11.083,32.202c7.892,23.215,15.749,46.442,23.615,69.666c0.3,0.886,0.548,1.789,0.886,2.902
			C390.669,275.072,381.117,275.029,371.565,275.113z"/>
		<path style="fill:#FFFFFF;" d="M38.186,274.864c-0.038,0.261-0.075,0.522-0.113,0.784c16.079,0,32.158,0,48.237,0
			c0.001-0.16,0.004-0.319,0.007-0.479c-14.904-0.032-29.808-0.059-44.712-0.104C40.466,275.062,39.326,274.934,38.186,274.864z"/>
		<path style="fill:#FFFFFF;" d="M133.434,274.995c-0.012,0.218-0.023,0.435-0.035,0.653c16.079,0,32.158,0,48.237,0
			c0-0.161,0.002-0.323,0.007-0.484c-14.349-0.03-28.698-0.058-43.047-0.094C136.876,275.066,135.155,275.021,133.434,274.995z"/>
		<path style="fill:#FFFFFF;" d="M307.123,162.915c-3.916,0.155-7.852,0.205-11.762-0.019c-2.347-0.134-3.305,0.655-3.959,2.885
			c-6.097,20.79-12.305,41.547-18.491,62.31c-1.914,6.423-3.857,12.838-5.949,19.795c-0.425-1.221-0.666-1.843-0.858-2.479
			c-6.144-20.376-12.278-40.756-18.428-61.13c-1.544-5.114-2.933-10.284-5.168-15.162c-1.422-3.105-3.45-5.824-7.095-5.93
			c-7.632-0.222-15.275-0.067-23.067-0.067c0.158,0.716,0.242,1.362,0.441,1.97c11.806,36.002,23.632,71.998,35.399,108.012
			c0.511,1.563,1.229,2.011,2.829,1.993c7.365-0.084,14.733-0.102,22.097,0.029c2.052,0.037,2.926-0.54,3.539-2.584
			c5.571-18.556,11.284-37.069,16.944-55.599c5.213-17.069,10.363-34.158,15.671-51.198
			C310.026,163.303,309.479,162.822,307.123,162.915z"/>
		<path style="fill:#FFFFFF;" d="M103.418,208.285c-2.047-1.181-2.04-1.954-0.797-3.732c3.113-4.45,6.392-8.815,8.053-14.125
			c3.836-12.26-1.807-22.79-14.132-26.317c-3.259-0.932-6.572-1.156-9.927-1.155c-15.11,0.003-30.221,0.076-45.33-0.069
			c-2.673-0.026-3.082,0.854-3.072,3.247c0.09,21.135,0.062,42.27,0.049,63.405c-0.009,15.109-0.05,30.217-0.077,45.326
			c0.983-0.753,2.15-0.707,3.285-0.709c13.709-0.028,27.418-0.029,41.127,0.005c1.305,0.003,2.706-0.155,3.72,1.009
			c4.789-0.225,9.506-0.852,14.072-2.402c16.678-5.664,26.256-21.079,23.191-38.022C121.388,222.622,113.797,214.27,103.418,208.285
			z M94.295,247.216c-3.617,8.778-10.793,12.196-19.693,12.784c-3.133,0.207-7.131,1.129-9.206-0.379
			c-2.049-1.488-0.63-5.718-0.638-8.734c-0.06-23.421,0.004-46.843-0.088-70.264c-0.01-2.452,0.488-3.387,3.118-3.191
			c3.422,0.255,6.878,0.081,10.32,0.058c5.522-0.036,9.905,2.118,12.573,7.009c2.609,4.782,1.649,9.379-1.329,13.738
			c-3.119,4.565-6.155,9.187-9.339,13.953c10.699,3.668,15.657,10.323,16.121,21.218C96.333,238.124,96.121,242.785,94.295,247.216z
			"/>
		<path style="fill:#FFFFFF;" d="M82.598,274.16c-13.709-0.033-27.418-0.032-41.127-0.005c-1.135,0.002-2.302-0.043-3.285,0.709
			c1.14,0.07,2.279,0.197,3.419,0.201c14.904,0.045,29.808,0.072,44.712,0.104C85.304,274.004,83.903,274.163,82.598,274.16z"/>
		<path style="fill:#FFFFFF;" d="M198.777,208.455c-2.347-1.349-2.285-2.213-0.867-4.189c3.28-4.571,6.589-9.151,8.146-14.713
			c3.263-11.651-2.321-21.861-13.918-25.316c-2.955-0.88-5.975-1.268-9.054-1.268c-15.788,0-31.575,0.027-47.363-0.056
			c-1.939-0.01-2.349,0.614-2.346,2.43c0.056,36.551,0.051,73.101,0.058,109.652l0,0l0,0c1.122-0.961,2.498-0.843,3.821-0.845
			c13.457-0.021,26.913-0.026,40.37,0.006c1.398,0.003,2.905-0.223,4.018,1.008c4.21-0.215,8.379-0.714,12.432-1.928
			c18.247-5.466,28.641-22.665,24.227-40.416C215.554,221.774,208.422,213.997,198.777,208.455z M189.25,247.527
			c-3.666,8.643-10.844,11.904-19.614,12.477c-3.124,0.204-7.138,1.102-9.173-0.419c-1.968-1.472-0.587-5.712-0.594-8.728
			c-0.052-23.525,0.003-47.05-0.08-70.575c-0.008-2.241,0.539-2.962,2.826-2.84c3.719,0.199,7.457,0,11.186,0.07
			c5.278,0.099,9.419,2.292,11.988,7.005c2.443,4.483,1.845,8.839-0.892,12.99c-3.199,4.851-6.435,9.677-9.674,14.544
			C189.833,218.373,195.491,232.811,189.25,247.527z"/>
		<path style="fill:#FFFFFF;" d="M177.625,274.156c-13.456-0.032-26.913-0.028-40.37-0.006c-1.323,0.002-2.698-0.117-3.821,0.845
			l0,0c1.721,0.026,3.442,0.071,5.162,0.076c14.349,0.035,28.698,0.063,43.047,0.094C180.53,273.934,179.023,274.16,177.625,274.156
			z"/>
		<path style="fill:#FFFFFF;" d="M375.955,202.504c-3.654-10.748-7.357-21.479-11.083-32.202c-1.751-5.039-5.308-7.407-10.701-7.313
			c-6.597,0.115-13.201,0.099-19.795-0.091c-2.296-0.066-3.298,0.586-3.983,2.839c-9.295,30.583-18.697,61.133-28.065,91.694
			c-1.778,5.8-3.522,11.612-5.349,17.642c5.299,0,10.268-0.077,15.233,0.042c1.737,0.041,2.481-0.482,2.969-2.191
			c1.912-6.697,4.05-13.33,5.998-20.017c0.451-1.549,1.145-2.049,2.784-2.039c12.242,0.078,24.484,0.079,36.726-0.001
			c1.667-0.011,2.305,0.557,2.75,2.082c1.952,6.686,4.012,13.341,6.068,19.996c0.312,1.009,0.334,2.182,2.057,2.167
			c9.552-0.084,19.104-0.04,28.892-0.04c-0.338-1.113-0.586-2.017-0.886-2.902C391.704,248.946,383.848,225.719,375.955,202.504z
			 M356.04,234.41c-9.647-0.022-19.294-0.01-29.247-0.01c5.149-17.164,10.135-33.781,15.333-51.106
			c2.773,9.142,5.331,17.591,7.9,26.038c2.332,7.67,4.673,15.336,7.014,23.003C357.347,233.344,357.949,234.414,356.04,234.41z"/>
	</g>
</g>
</svg>
