<?xml version="1.0" encoding="iso-8859-1"?>
<!-- Generator: Adobe Illustrator 22.0.1, SVG Export Plug-In . SVG Version: 6.00 Build 0)  -->
<svg version="1.1" id="Layer_1" xmlns="http://www.w3.org/2000/svg" xmlns:xlink="http://www.w3.org/1999/xlink" x="0px" y="0px"
	 viewBox="0 0 438.53 438.53" style="enable-background:new 0 0 438.53 438.53;" xml:space="preserve">
<g id="_x31_78">
	<g>
		<path style="fill:#E31937;" d="M407.603,110.087c-19.45-33.321-45.833-59.704-79.155-79.153
			c-33.328-19.448-69.711-29.17-109.176-29.17c-39.461,0-75.854,9.722-109.177,29.17C76.771,50.38,50.388,76.763,30.938,110.087
			c-19.451,33.326-29.173,69.72-29.173,109.178c0,39.46,9.725,75.847,29.17,109.175c19.449,33.321,45.832,59.704,79.156,79.155
			c33.326,19.447,69.717,29.17,109.177,29.17s75.854-9.723,109.179-29.17c33.322-19.444,59.704-45.834,79.152-79.155
			c19.445-33.325,29.166-69.718,29.166-109.175C436.766,179.803,427.044,143.409,407.603,110.087z M304.051,162.654
			c-1.603-15.743-12.697-19.6-47.869-19.6L219.28,350.586l-37.198-207.562c-34.937,0.025-46.018,3.882-47.629,19.626
			c0,0-23.604-8.798-35.494-26.666c46.433-21.519,93.094-22.49,93.094-22.49l27.199,33.128l27.195-33.123
			c0,0,46.661,0.97,93.1,22.489C327.647,153.857,304.051,162.654,304.051,162.654z M343.759,128.899
			c-43.987-19.171-86.954-25.266-124.494-24.978h-0.004c-37.54-0.287-80.517,5.807-124.495,24.978
			c-5.24-9.498-7.385-15.258-7.385-15.258c48.077-19.022,93.105-25.534,131.879-25.697c38.775,0.163,83.805,6.674,131.889,25.697
			C351.149,113.641,349.638,118.317,343.759,128.899z"/>
		<polygon style="fill:#FFFFFF;" points="219.281,146.658 219.252,146.622 219.219,146.662 		"/>
		<path style="fill:#FFFFFF;" d="M219.252,146.622l0.029,0.035l-0.061,0.004L219.252,146.622l-27.199-33.128
			c0,0-46.662,0.971-93.094,22.49c11.89,17.868,35.494,26.666,35.494,26.666c1.611-15.744,12.692-19.601,47.629-19.626
			l37.198,207.562l36.902-207.532c35.172,0,46.266,3.857,47.869,19.6c0,0,23.596-8.798,35.495-26.666
			c-46.439-21.519-93.1-22.489-93.1-22.489L219.252,146.622z"/>
		<path style="fill:#FFFFFF;" d="M87.381,113.641c0,0,2.145,5.76,7.385,15.258c43.978-19.171,86.954-25.266,124.495-24.978h0.004
			c37.539-0.287,80.506,5.807,124.494,24.978c5.879-10.582,7.39-15.258,7.39-15.258c-48.085-19.023-93.114-25.534-131.889-25.697
			C180.486,88.107,135.458,94.618,87.381,113.641z"/>
	</g>
</g>
</svg>
