<?xml version="1.0" encoding="iso-8859-1"?>
<!-- Generator: Adobe Illustrator 22.0.1, SVG Export Plug-In . SVG Version: 6.00 Build 0)  -->
<svg version="1.1" id="Layer_1" xmlns="http://www.w3.org/2000/svg" xmlns:xlink="http://www.w3.org/1999/xlink" x="0px" y="0px"
	 viewBox="0 0 438.53 438.53" style="enable-background:new 0 0 438.53 438.53;" xml:space="preserve">
<g id="_x31_8">
	<g>
		<path style="fill:#0052B4;" d="M86.953,309.627l-27.128-6.114l21.788-17.278l-12.135-25.022l27.095,6.262l11.997-25.087
			l11.998,25.087l27.093-6.262l-2.004,4.133l88.267-88.267l-5.247-10.822l13.052,3.018l1.054-1.054l5.44-11.376l1.92,4.016
			l43.068-43.068l0.009-3.366l-13.563-3.058l10.893-8.639l-6.066-12.511l13.546,3.131l5.999-12.544l5.999,12.544l9.917-2.292
			l39.043-39.043C311.623,12.577,251.335-3.652,193.335,3.339c0,2.368,0,4.673,0,6.933c0,21.9,0,39.046,0,57.029
			c0,9.051,0,18.316,0,28.515h-64.227l64.228,64.228c0,11.87,0,25.011,0,39.739l-0.001,0.001c0,0.197,0,0.386,0,0.584h-0.001h-0.583
			h-0.001h-39.74l-64.227-64.227v64.227H60.268H3.239H2.627c-0.564,6.408-0.86,12.836-0.861,19.264
			c0,49.564,16.767,99.11,50.261,139.345l34.886-34.886L86.953,309.627z"/>
		<path style="fill:#F0F0F0;" d="M192.751,200.368h0.583l-0.292-0.292C192.946,200.173,192.849,200.271,192.751,200.368z"/>
		<path style="fill:#F0F0F0;" d="M182.116,4.994c-7.731,1.34-15.402,3.102-22.979,5.278h17.703
			C178.668,8.443,180.427,6.684,182.116,4.994z"/>
		<path style="fill:#F0F0F0;" d="M90.046,97.079l-1.263-1.263h2.525c9.622-9.623,19.21-19.211,28.513-28.516H63.753
			c-1.178,1.205-2.34,2.419-3.484,3.644v55.913C70.029,117.097,80.049,107.077,90.046,97.079z"/>
		<path style="fill:#F0F0F0;" d="M90.046,97.079c-9.997,9.997-20.017,20.018-29.778,29.779v73.51h28.514v-64.227l64.227,64.227
			h39.741c0.098-0.097,0.195-0.195,0.292-0.292L90.046,97.079z"/>
		<path style="fill:#F0F0F0;" d="M91.309,95.817h24.358l77.669,77.668c0,7.476,0,23.109,0,26.298v0.001l0.001-0.001
			c0-14.728,0-27.869,0-39.739l-64.228-64.228h64.227c0-10.199,0-19.464,0-28.515h-73.514
			C110.518,76.605,100.931,86.194,91.309,95.817z"/>
		<path style="fill:#F0F0F0;" d="M193.335,10.272c0-2.261,0-4.565,0-6.933c-3.751,0.452-7.492,1.009-11.219,1.655
			c-1.689,1.69-3.448,3.449-5.276,5.278H193.335z"/>
		<path style="fill:#F0F0F0;" d="M3.239,194.312c-0.234,2.016-0.435,4.035-0.612,6.056h0.612V194.312z"/>
		<path style="fill:#F0F0F0;" d="M193.043,200.076c-0.097,0.097-0.194,0.195-0.292,0.292h0.001
			C192.849,200.271,192.946,200.173,193.043,200.076L193.043,200.076z"/>
		<path style="fill:#D80027;" d="M60.268,70.945c-29.831,31.942-48.255,70.751-55.264,111.172
			c15.556-15.553,34.84-34.835,55.264-55.259V70.945z"/>
		<path style="fill:#D80027;" d="M176.84,10.272h-17.703c-34.308,9.852-66.658,28.254-93.633,55.233
			c-0.593,0.593-1.166,1.198-1.751,1.796h56.069C141.425,45.695,161.485,25.631,176.84,10.272z"/>
		<path style="fill:#D80027;" d="M60.268,200.368v-73.51c-20.424,20.424-39.708,39.706-55.264,55.259
			c-0.702,4.051-1.292,8.117-1.765,12.195v6.056L60.268,200.368L60.268,200.368z"/>
		<path style="fill:#D80027;" d="M119.822,67.301h73.514c0-17.983,0-35.129,0-57.029H176.84
			C161.485,25.631,141.425,45.695,119.822,67.301z"/>
		<path style="fill:#D80027;" d="M193.335,200.368L193.335,200.368c0.001-0.198,0.001-0.387,0.001-0.584
			c-0.097,0.098-0.195,0.195-0.292,0.292L193.335,200.368z"/>
		<path style="fill:#D80027;" d="M88.783,95.817l1.263,1.263c0.421-0.421,0.842-0.842,1.263-1.263H88.783z"/>
		<path style="fill:#D80027;" d="M193.335,199.783c0-3.189,0-18.823,0-26.298l-77.669-77.668H91.309
			c-0.421,0.421-0.842,0.842-1.263,1.263l102.997,102.997C193.14,199.978,193.238,199.881,193.335,199.783z"/>
		<path style="fill:#D80027;" d="M193.043,200.076L193.043,200.076c0.098-0.097,0.196-0.194,0.293-0.292v-0.001
			C193.238,199.881,193.14,199.978,193.043,200.076z"/>
		<polygon style="fill:#F0F0F0;" points="147.661,261.213 120.568,267.475 108.57,242.387 96.573,267.475 69.478,261.213 
			81.613,286.235 59.824,303.513 86.953,309.627 86.913,324.09 145.657,265.346 		"/>
		<polygon style="fill:#F0F0F0;" points="248.223,156.844 242.783,168.22 250.143,160.86 		"/>
		<polygon style="fill:#F0F0F0;" points="228.677,166.256 233.924,177.078 241.729,169.274 		"/>
		<polygon style="fill:#F0F0F0;" points="310.028,93.35 304.029,80.805 298.03,93.35 284.484,90.218 290.55,102.73 279.657,111.368 
			293.22,114.426 293.211,117.792 319.945,91.057 		"/>
		<path style="fill:#F0F0F0;" d="M387.506,322.693H143.464l-36.42,36.42h278.741c13.642-16.211,24.554-33.952,32.72-52.619h-30.999
			V322.693z"/>
		<path style="fill:#F0F0F0;" d="M387.506,96.006v52.619h37.7c-8.354-24.656-21.238-48.1-38.647-69.026l-16.408,16.408h17.355
			V96.006z"/>
		<path style="fill:#F0F0F0;" d="M436.054,201.243h-48.548v52.632h46.459C436.772,236.469,437.467,218.788,436.054,201.243z"/>
		<path style="fill:#F0F0F0;" d="M218.904,436.77c34.977-0.004,69.96-8.352,101.66-25.038H117.24
			C148.94,428.421,183.919,436.77,218.904,436.77z"/>
		<path style="fill:#D80027;" d="M387.506,201.243h48.548c-1.436-17.831-5.052-35.514-10.848-52.619h-37.7V201.243z"/>
		<path style="fill:#D80027;" d="M387.506,306.494h30.999c7.409-16.936,12.559-34.629,15.46-52.619h-46.459L387.506,306.494
			L387.506,306.494z"/>
		<path style="fill:#D80027;" d="M79.625,386.532c11.818,9.835,24.423,18.256,37.614,25.2h203.325
			c18.886-9.941,36.607-22.838,52.466-38.7c4.494-4.493,8.735-9.144,12.754-13.919h-278.74L79.625,386.532z"/>
		<polygon style="fill:#2E52B2;" points="143.464,322.693 387.506,322.693 387.506,306.494 159.663,306.494 		"/>
		<polygon style="fill:#2E52B2;" points="328.826,148.058 333.911,132.413 338.989,148.058 355.437,148.058 354.658,148.624 
			387.506,148.624 387.506,96.006 370.152,96.006 318.099,148.058 		"/>
		<polygon style="fill:#2E52B2;" points="338.989,204.513 355.437,204.513 342.128,214.176 347.213,229.819 333.911,220.156 
			320.602,229.819 325.686,214.176 312.379,204.513 328.826,204.513 329.889,201.243 268.413,201.243 269.475,204.513 
			285.923,204.513 272.614,214.176 277.699,229.819 264.396,220.156 251.089,229.819 256.172,214.176 253.744,212.413 
			212.282,253.876 261.616,253.876 264.396,245.323 267.172,253.876 331.131,253.876 333.911,245.323 336.688,253.876 
			387.506,253.876 387.506,201.243 337.928,201.243 		"/>
		<polygon style="fill:#2E52B2;" points="354.658,148.624 342.128,157.723 347.213,173.366 333.911,163.701 320.602,173.366 
			325.686,157.723 315.693,150.465 267.555,198.602 268.413,201.243 329.889,201.243 333.911,188.869 337.928,201.243 
			387.506,201.243 387.506,148.624 		"/>
		<polygon style="fill:#2E52B2;" points="338.989,260.966 355.437,260.966 342.128,270.631 347.213,286.273 333.911,276.609 
			320.602,286.273 325.686,270.631 312.379,260.966 328.826,260.966 331.131,253.876 267.172,253.876 269.475,260.966 
			285.923,260.966 272.614,270.631 277.699,286.273 264.396,276.609 251.089,286.273 256.172,270.631 242.864,260.966 
			259.312,260.966 261.616,253.876 212.282,253.876 205.191,260.966 216.408,260.966 203.099,270.631 208.183,286.273 
			194.882,276.609 181.573,286.273 182.387,283.77 159.663,306.494 387.506,306.494 387.506,253.876 336.688,253.876 		"/>
		<polygon style="fill:#F0F0F0;" points="181.573,286.273 194.882,276.609 208.183,286.273 203.099,270.631 216.408,260.966 
			205.191,260.966 182.387,283.77 		"/>
		<polygon style="fill:#F0F0F0;" points="253.744,212.413 256.172,214.176 251.089,229.819 264.396,220.156 277.699,229.819 
			272.614,214.176 285.923,204.513 269.475,204.513 268.413,201.243 264.914,201.243 		"/>
		<polygon style="fill:#F0F0F0;" points="268.413,201.243 267.555,198.602 264.914,201.243 		"/>
		<polygon style="fill:#F0F0F0;" points="264.396,245.323 261.616,253.876 267.172,253.876 		"/>
		<polygon style="fill:#F0F0F0;" points="242.864,260.966 256.172,270.631 251.089,286.273 264.396,276.609 277.699,286.273 
			272.614,270.631 285.923,260.966 269.475,260.966 267.172,253.876 261.616,253.876 259.312,260.966 		"/>
		<polygon style="fill:#F0F0F0;" points="333.911,245.323 331.131,253.876 336.688,253.876 		"/>
		<polygon style="fill:#F0F0F0;" points="312.379,260.966 325.686,270.631 320.602,286.273 333.911,276.609 347.213,286.273 
			342.128,270.631 355.437,260.966 338.989,260.966 336.688,253.876 331.131,253.876 328.826,260.966 		"/>
		<polygon style="fill:#F0F0F0;" points="312.379,204.513 325.686,214.176 320.602,229.819 333.911,220.156 347.213,229.819 
			342.128,214.176 355.437,204.513 338.989,204.513 337.928,201.243 329.889,201.243 328.826,204.513 		"/>
		<polygon style="fill:#F0F0F0;" points="333.911,188.869 329.889,201.243 337.928,201.243 		"/>
		<polygon style="fill:#F0F0F0;" points="338.989,148.058 333.911,132.413 328.826,148.058 318.099,148.058 317.533,148.624 
			354.658,148.624 355.437,148.058 		"/>
		<polygon style="fill:#F0F0F0;" points="315.693,150.465 325.686,157.723 320.602,173.366 333.911,163.701 347.213,173.366 
			342.128,157.723 354.658,148.624 317.533,148.624 		"/>
		<path style="fill:#FFFFFF;" d="M52.027,358.976l-0.248,0.248c2.055,2.421,4.158,4.8,6.315,7.13l6.671,6.671l0.01-0.01
			C60.283,368.481,56.037,363.794,52.027,358.976z"/>
		<path style="fill:#FFFFFF;" d="M373.031,64.759c0.125,0.125,0.244,0.254,0.369,0.38c0.125,0.124,0.253,0.242,0.377,0.366
			l-0.011,0.011c4.506,4.549,8.772,9.247,12.794,14.082l0.244-0.244c-8.418-9.927-17.705-19.102-27.756-27.399l-0.059,0.059
			c4.817,4.011,9.498,8.265,14.031,12.756L373.031,64.759z"/>
		<path style="fill:#FFFFFF;" d="M64.764,373.026l0.746,0.746c-0.123-0.123-0.241-0.25-0.364-0.373
			C65.02,373.272,64.89,373.152,64.764,373.026z"/>
		<path style="fill:#FFFFFF;" d="M65.52,373.762l-0.009,0.009l4.476,4.476c3.104,2.877,6.287,5.672,9.555,8.369l0.084-0.084
			c-2.656-2.211-5.286-4.469-7.859-6.825C69.655,377.773,67.572,375.792,65.52,373.762z"/>
		<polygon style="fill:#FFFFFF;" points="314.838,114.426 314.861,122.928 325.846,111.944 		"/>
		<path style="fill:#FFFFFF;" d="M65.146,373.398c0.123,0.124,0.241,0.25,0.364,0.373l0.009-0.009
			C65.396,373.64,65.27,373.521,65.146,373.398z"/>
		<path style="fill:#FFFFFF;" d="M71.766,366.024l2.326-2.326l0,0l4.585-4.585l34.989-34.989l-5.096-4.086l-21.694,17.397
			l0.036-13.345l-34.886,34.886c4.011,4.818,8.256,9.505,12.747,14.04L71.766,366.024z"/>
		<path style="fill:#FFFFFF;" d="M373.776,65.505c-0.124-0.124-0.253-0.242-0.377-0.366c0.124,0.125,0.243,0.252,0.366,0.377
			L373.776,65.505z"/>
		<path style="fill:#FFFFFF;" d="M323.575,90.218l-6.066,12.511l9.789,7.763l14.487-14.487l21.932-21.932l9.304-9.303
			c-4.534-4.491-9.214-8.745-14.031-12.756l-39.043,39.043L323.575,90.218z"/>
		<polygon style="fill:#FFFFFF;" points="144.467,293.323 175.362,262.428 176.824,260.966 183.914,253.876 208.06,229.73 
			208.131,229.659 236.547,201.243 237.387,200.403 237.413,190.464 223.85,187.407 234.743,178.767 233.924,177.078 
			145.657,265.346 135.528,286.235 		"/>
		<polygon style="fill:#FFFFFF;" points="242.783,168.22 241.729,169.274 242.224,169.389 		"/>
		<polygon style="fill:#FFFFFF;" points="267.768,166.256 264.224,173.566 270.01,167.78 274.442,163.348 289.165,148.624 
			311.87,125.92 304.029,119.631 293.182,128.33 293.211,117.792 250.143,160.86 254.221,169.389 		"/>
		<polygon style="fill:#FFFFFF;" points="131.296,306.494 144.467,293.323 135.528,286.235 145.657,265.346 86.913,324.09 
			86.877,337.435 108.57,320.038 113.666,324.124 115.097,322.693 		"/>
		<polygon style="fill:#FFFFFF;" points="223.85,187.407 237.413,190.464 237.387,200.403 264.224,173.566 267.768,166.256 
			254.221,169.389 250.143,160.86 242.783,168.22 242.224,169.389 241.729,169.274 233.924,177.078 234.743,178.767 		"/>
		<polygon style="fill:#FFFFFF;" points="304.029,119.631 311.87,125.92 314.861,122.928 314.838,114.426 325.846,111.944 
			327.297,110.492 317.509,102.73 323.575,90.218 319.945,91.057 293.211,117.792 293.182,128.33 		"/>
		<polygon style="fill:#FFFFFF;" points="114.494,324.788 80.169,359.113 107.044,359.113 143.464,322.693 116.589,322.693 		"/>
		<polygon style="fill:#FFFFFF;" points="113.666,324.124 78.677,359.113 80.169,359.113 114.494,324.788 		"/>
		<polygon style="fill:#FFFFFF;" points="116.589,322.693 115.097,322.693 113.666,324.124 114.494,324.788 		"/>
		<path style="fill:#FFFFFF;" d="M373.031,64.759l-0.011,0.011c0.126,0.124,0.254,0.244,0.38,0.369
			C373.275,65.014,373.156,64.884,373.031,64.759z"/>
		<path style="fill:#FFFFFF;" d="M364.462,74.82l-21.186,21.186h26.875l16.408-16.408c-4.022-4.835-8.287-9.533-12.794-14.082
			L364.462,74.82z"/>
		<path style="fill:#FFFFFF;" d="M364.462,74.82l9.304-9.304c-0.124-0.125-0.242-0.253-0.366-0.377
			c-0.125-0.125-0.254-0.244-0.38-0.369l-9.304,9.303l-21.932,21.932h1.492L364.462,74.82z"/>
		<path style="fill:#FFFFFF;" d="M64.774,373.016l-0.01,0.01c0.126,0.126,0.255,0.247,0.382,0.372
			C65.02,373.272,64.899,373.143,64.774,373.016z"/>
		<path style="fill:#FFFFFF;" d="M71.766,379.707v-12.191l-6.246,6.246C67.572,375.792,69.655,377.773,71.766,379.707z"/>
		<path style="fill:#FFFFFF;" d="M64.774,373.016c0.125,0.127,0.247,0.256,0.372,0.382c0.124,0.123,0.25,0.242,0.373,0.364
			l6.246-6.246v-1.492L64.774,373.016z"/>
		<path style="fill:#FFFFFF;" d="M80.169,359.113l-5.331,5.331l0,0l-3.072,3.072v12.191c2.573,2.356,5.203,4.615,7.859,6.825
			l27.419-27.419H80.169z"/>
		<polygon style="fill:#FFFFFF;" points="74.092,363.698 74.092,363.698 71.766,366.024 71.766,367.516 74.838,364.444 
			74.838,364.444 80.169,359.113 78.677,359.113 		"/>
		<polygon style="fill:#FFFFFF;" points="132.788,306.494 116.589,322.693 143.464,322.693 159.663,306.494 		"/>
		<polygon style="fill:#FFFFFF;" points="115.097,322.693 116.589,322.693 132.788,306.494 131.296,306.494 		"/>
		<polygon style="fill:#FFFFFF;" points="327.772,111.51 314.865,124.416 312.698,126.584 290.657,148.624 313.159,148.624 
			312.379,148.058 318.099,148.058 370.152,96.006 343.276,96.006 328.13,111.152 		"/>
		<polygon style="fill:#FFFFFF;" points="327.772,111.51 325.846,111.944 314.861,122.928 314.865,124.416 		"/>
		<polygon style="fill:#FFFFFF;" points="312.698,126.584 311.87,125.92 289.165,148.624 290.657,148.624 		"/>
		<polygon style="fill:#FFFFFF;" points="343.276,96.006 341.784,96.006 327.297,110.492 328.13,111.152 		"/>
		<polygon style="fill:#FFFFFF;" points="314.865,124.416 314.861,122.928 311.87,125.92 312.698,126.584 		"/>
		<polygon style="fill:#FFFFFF;" points="327.772,111.51 328.13,111.152 327.297,110.492 325.846,111.944 		"/>
		<polygon style="fill:#FFFFFF;" points="259.312,204.513 260.374,201.243 238.039,201.243 237.383,201.899 185.406,253.876 
			192.102,253.876 194.882,245.323 197.658,253.876 212.282,253.876 253.744,212.413 242.864,204.513 		"/>
		<polygon style="fill:#FFFFFF;" points="237.383,201.899 237.384,201.243 236.547,201.243 208.131,229.659 208.183,229.819 
			208.06,229.73 183.914,253.876 185.406,253.876 		"/>
		<polygon style="fill:#FFFFFF;" points="237.383,201.899 238.039,201.243 237.384,201.243 		"/>
		<polygon style="fill:#FFFFFF;" points="290.657,148.624 274.808,164.474 277.699,173.366 270.874,168.408 262.819,176.463 
			238.039,201.243 260.374,201.243 264.396,188.869 267.555,198.602 315.693,150.465 313.159,148.624 		"/>
		<polygon style="fill:#FFFFFF;" points="237.387,200.403 236.547,201.243 237.384,201.243 		"/>
		<polygon style="fill:#FFFFFF;" points="270.874,168.408 270.01,167.78 264.224,173.566 262.819,176.463 		"/>
		<polygon style="fill:#FFFFFF;" points="290.657,148.624 289.165,148.624 274.442,163.348 274.808,164.474 		"/>
		<polygon style="fill:#FFFFFF;" points="238.039,201.243 262.819,176.463 264.224,173.566 237.387,200.403 237.384,201.243 		"/>
		<polygon style="fill:#FFFFFF;" points="189.797,260.966 192.102,253.876 185.406,253.876 178.316,260.966 		"/>
		<polygon style="fill:#FFFFFF;" points="185.406,253.876 183.914,253.876 176.824,260.966 178.316,260.966 		"/>
		<polygon style="fill:#FFFFFF;" points="199.959,260.966 205.191,260.966 212.282,253.876 197.658,253.876 		"/>
		<polygon style="fill:#FFFFFF;" points="176.226,263.056 145.299,293.983 132.788,306.494 159.663,306.494 182.387,283.77 
			186.658,270.631 		"/>
		<polygon style="fill:#FFFFFF;" points="176.226,263.056 175.362,262.428 144.467,293.323 145.299,293.983 		"/>
		<polygon style="fill:#FFFFFF;" points="144.467,293.323 131.296,306.494 132.788,306.494 145.299,293.983 		"/>
		<polygon style="fill:#FFFFFF;" points="208.131,229.659 208.06,229.73 208.183,229.819 		"/>
		<polygon style="fill:#FFFFFF;" points="194.882,245.323 192.102,253.876 197.658,253.876 		"/>
		<polygon style="fill:#FFFFFF;" points="197.658,253.876 192.102,253.876 189.797,260.966 178.316,260.966 176.226,263.056 
			186.658,270.631 182.387,283.77 205.191,260.966 199.959,260.966 		"/>
		<polygon style="fill:#FFFFFF;" points="178.316,260.966 176.824,260.966 175.362,262.428 176.226,263.056 		"/>
		<polygon style="fill:#FFFFFF;" points="260.374,201.243 259.312,204.513 242.864,204.513 253.744,212.413 264.914,201.243 		"/>
		<polygon style="fill:#FFFFFF;" points="260.374,201.243 264.914,201.243 267.555,198.602 264.396,188.869 		"/>
		<polygon style="fill:#FFFFFF;" points="277.699,173.366 274.808,164.474 270.874,168.408 		"/>
		<polygon style="fill:#FFFFFF;" points="274.808,164.474 274.442,163.348 270.01,167.78 270.874,168.408 		"/>
		<polygon style="fill:#FFFFFF;" points="318.099,148.058 312.379,148.058 313.159,148.624 317.533,148.624 		"/>
		<polygon style="fill:#FFFFFF;" points="313.159,148.624 315.693,150.465 317.533,148.624 		"/>
	</g>
</g>
</svg>
