<?xml version="1.0" encoding="iso-8859-1"?>
<!-- Generator: Adobe Illustrator 22.0.1, SVG Export Plug-In . SVG Version: 6.00 Build 0)  -->
<svg version="1.1" id="Layer_1" xmlns="http://www.w3.org/2000/svg" xmlns:xlink="http://www.w3.org/1999/xlink" x="0px" y="0px"
	 viewBox="0 0 438.53 438.53" style="enable-background:new 0 0 438.53 438.53;" xml:space="preserve">
<g id="_x31_80">
	<g>
		<path style="fill:#6A0091;" d="M407.603,110.087c-19.45-33.321-45.833-59.704-79.155-79.153
			c-33.328-19.448-69.711-29.17-109.176-29.17c-39.461,0-75.854,9.722-109.177,29.17C76.771,50.38,50.388,76.763,30.938,110.087
			c-19.451,33.326-29.173,69.72-29.173,109.178c0,39.46,9.725,75.847,29.17,109.175c19.449,33.321,45.832,59.704,79.156,79.155
			c33.326,19.447,69.717,29.17,109.177,29.17s75.854-9.723,109.179-29.17c33.322-19.444,59.704-45.834,79.152-79.155
			c19.445-33.325,29.166-69.718,29.166-109.175C436.766,179.803,427.044,143.409,407.603,110.087z M385.115,161.453
			c0.006,1.066-0.229,1.424-1.377,1.509c-7.063,0.521-14.115,1.185-21.177,1.729c-7.442,0.573-14.889,1.079-22.336,1.571
			c-0.864,0.057-1.5,0.336-2.135,0.904c-22.115,19.781-44.237,39.555-66.374,59.312c-6.776,6.047-13.59,12.052-20.408,18.052
			c-0.616,0.542-0.921,1.073-0.941,1.923c-0.458,19.492-0.927,38.985-1.472,58.475c-0.042,1.516,0.417,1.776,1.788,1.807
			c15.689,0.349,31.369,0.956,47.041,1.767c2.818,0.146,2.818,0.137,2.818,2.996c0,4.803-0.026,9.607,0.02,14.41
			c0.01,1.042-0.155,1.473-1.369,1.472c-52.123-0.034-104.247-0.032-156.37-0.007c-1.041,0-1.382-0.227-1.369-1.328
			c0.06-5.326,0.064-10.653-0.003-15.979c-0.014-1.131,0.372-1.454,1.415-1.532c7.585-0.566,15.166-1.174,22.748-1.771
			c8.151-0.641,16.303-1.261,24.451-1.936c3.072-0.254,3.068-0.313,3.068-3.442c0-17.454-0.01-34.908,0.022-52.361
			c0.002-1.164-0.297-2.053-1.042-2.958c-29.954-36.367-59.888-72.75-89.802-109.149c-0.574-0.698-1.186-0.975-2.043-1.037
			c-14.888-1.074-29.775-2.167-44.662-3.256c-0.332-0.024-0.666-0.097-0.994-0.078c-1.016,0.057-1.216-0.438-1.209-1.381
			c0.043-6.23,0.051-12.46-0.005-18.69c-0.01-1.096,0.321-1.323,1.36-1.323c52.789,0.025,105.578,0.025,158.368,0.001
			c1.087,0,1.319,0.212,1.157,1.348c-0.878,6.166-1.352,12.377-1.751,18.59c-0.071,1.1-0.42,1.419-1.455,1.487
			c-7.258,0.48-14.516,0.964-21.766,1.537c-6.681,0.528-13.352,1.169-20.028,1.767c-0.225,0.02-0.444,0.105-0.851,0.205
			c2.508,3.092,4.925,6.067,7.336,9.047c19.384,23.943,38.767,47.887,58.151,71.831c1.273,1.572,1.266,1.566,2.788,0.268
			c20.477-17.46,40.957-34.918,61.434-52.378c0.674-0.575,1.332-1.167,2.059-1.805c-0.718-0.399-1.344-0.297-1.936-0.314
			c-13.737-0.39-27.47-0.901-41.197-1.542c-1.9-0.089-3.797-0.235-5.697-0.299c-0.718-0.024-0.984-0.248-0.981-1.002
			c0.026-6.325,0.039-12.651-0.008-18.975c-0.008-1.134,0.695-0.901,1.305-0.914c7.416-0.164,14.833-0.332,22.25-0.47
			c36.467-0.676,72.938-1.113,109.409-1.514c1.414-0.016,1.808,0.277,1.79,1.748C385.044,146.995,385.071,154.224,385.115,161.453z"
			/>
		<path style="fill:#FEFEFE;" d="M383.342,138.019c-36.471,0.401-72.942,0.838-109.409,1.514c-7.417,0.138-14.833,0.306-22.25,0.47
			c-0.61,0.013-1.313-0.219-1.305,0.914c0.046,6.325,0.033,12.65,0.008,18.975c-0.003,0.754,0.263,0.977,0.981,1.002
			c1.9,0.064,3.798,0.21,5.697,0.299c13.728,0.641,27.46,1.152,41.197,1.542c0.592,0.017,1.218-0.085,1.936,0.314
			c-0.727,0.638-1.385,1.231-2.059,1.805c-20.477,17.46-40.957,34.918-61.434,52.378c-1.522,1.298-1.515,1.304-2.788-0.268
			c-19.383-23.944-38.767-47.888-58.151-71.831c-2.412-2.979-4.828-5.954-7.336-9.047c0.407-0.1,0.626-0.185,0.851-0.205
			c6.675-0.597,13.347-1.238,20.028-1.767c7.251-0.573,14.509-1.057,21.766-1.537c1.035-0.068,1.384-0.388,1.455-1.487
			c0.4-6.213,0.873-12.423,1.751-18.59c0.162-1.136-0.07-1.348-1.157-1.348c-52.789,0.023-105.578,0.024-158.368-0.001
			c-1.039,0-1.37,0.226-1.36,1.323c0.056,6.23,0.048,12.46,0.005,18.69c-0.006,0.943,0.193,1.438,1.209,1.381
			c0.329-0.019,0.662,0.054,0.994,0.078c14.887,1.089,29.774,2.182,44.662,3.256c0.857,0.062,1.47,0.339,2.043,1.037
			c29.915,36.399,59.848,72.783,89.802,109.149c0.745,0.904,1.044,1.794,1.042,2.958c-0.032,17.454-0.022,34.907-0.022,52.361
			c0,3.129,0.005,3.187-3.068,3.442c-8.148,0.675-16.3,1.295-24.451,1.936c-7.582,0.596-15.164,1.204-22.748,1.771
			c-1.044,0.078-1.43,0.401-1.415,1.532c0.067,5.326,0.063,10.653,0.003,15.979c-0.012,1.102,0.328,1.329,1.369,1.328
			c52.123-0.025,104.247-0.027,156.37,0.007c1.214,0.001,1.379-0.431,1.369-1.472c-0.046-4.803-0.02-9.606-0.02-14.41
			c0-2.858,0-2.85-2.818-2.996c-15.672-0.811-31.352-1.419-47.041-1.767c-1.372-0.03-1.831-0.291-1.788-1.807
			c0.544-19.49,1.013-38.982,1.472-58.475c0.02-0.85,0.324-1.38,0.941-1.923c6.818-6,13.633-12.004,20.408-18.052
			c22.137-19.757,44.259-39.531,66.374-59.312c0.635-0.568,1.272-0.847,2.135-0.904c7.448-0.491,14.895-0.998,22.336-1.571
			c7.061-0.544,14.114-1.207,21.177-1.729c1.147-0.085,1.383-0.442,1.377-1.509c-0.044-7.229-0.071-14.458,0.017-21.686
			C385.15,138.296,384.756,138.003,383.342,138.019z"/>
	</g>
</g>
</svg>
