<?xml version="1.0" encoding="iso-8859-1"?>
<!-- Generator: Adobe Illustrator 22.0.1, SVG Export Plug-In . SVG Version: 6.00 Build 0)  -->
<svg version="1.1" id="Layer_1" xmlns="http://www.w3.org/2000/svg" xmlns:xlink="http://www.w3.org/1999/xlink" x="0px" y="0px"
	 viewBox="0 0 438.53 438.53" style="enable-background:new 0 0 438.53 438.53;" xml:space="preserve">
<g id="_x31_81">
	<g>
		<path style="fill:#B10708;" d="M407.603,110.087c-19.45-33.321-45.833-59.704-79.155-79.153
			c-33.328-19.448-69.711-29.17-109.176-29.17c-39.461,0-75.854,9.722-109.177,29.17C76.771,50.38,50.388,76.763,30.938,110.087
			c-19.451,33.326-29.173,69.72-29.173,109.178c0,39.46,9.725,75.847,29.17,109.175c19.449,33.321,45.832,59.704,79.156,79.155
			c33.326,19.447,69.717,29.17,109.177,29.17s75.854-9.723,109.179-29.17c33.322-19.444,59.704-45.834,79.152-79.155
			c19.445-33.325,29.166-69.718,29.166-109.175C436.766,179.803,427.044,143.409,407.603,110.087z M77.351,265.157
			c-4.033,0.598-8.092,0.963-12.141,1.411c-1.286,0.142-2.581,0.226-3.853,0.442c-0.689,0.117-0.948-0.068-1.165-0.713
			c-2.123-6.303-4.279-12.595-6.427-18.889c-3.88-11.366-7.762-22.732-11.644-34.098c-0.08-0.235-0.166-0.468-0.396-0.691
			c0,0.331,0,0.661,0,0.992c0,18.223-0.011,36.446,0.029,54.668c0.002,1.022-0.339,1.281-1.248,1.365
			c-5.024,0.461-9.998,1.315-14.994,1.994c-0.132,0.018-0.252,0.038-0.301,0.183c-0.06-0.042-0.203,0.098-0.196-0.097
			c0.008-0.259,0.002-0.518,0.002-0.777c0-34.447,0.003-68.894-0.018-103.34c0-0.728,0.163-0.899,0.892-0.894
			c4.888,0.037,9.777,0.019,14.666,0.019c0.506,0.277,0.636,0.803,0.807,1.282c1.991,5.576,3.985,11.151,5.984,16.724
			c2.611,7.279,5.21,14.562,7.82,21.84c2.064,5.756,4.126,11.513,6.185,17.271c0.174,0.486,0.319,0.979,0.388,1.405
			c0.05,0.209,0.228,0.007,0.116,0.072c-0.013,0.008-0.019-0.015-0.041-0.055c-0.21-0.389-0.174-0.814-0.174-1.231
			c-0.002-18.639-0.002-37.279,0.002-55.918c0-0.478-0.074-0.98,0.281-1.391c5.504,0,11.007,0,16.511,0
			c0,32.367-0.005,64.735,0.025,97.102C78.459,264.738,78.223,265.028,77.351,265.157z M110.697,204.125
			c-0.004,0.805,0.117,1.102,1.035,1.081c6.471-0.15,12.943-0.231,19.415-0.335c1.51-0.024,1.51-0.027,1.51,1.438
			c0,4.661-0.019,9.322,0.019,13.983c0.006,0.792-0.178,1.025-1.001,1.022c-6.635-0.031-13.27-0.026-19.903,0.197
			c-0.828,0.028-1.085,0.217-1.081,1.09c0.039,7.444,0.043,14.889-0.003,22.334c-0.006,0.969,0.312,1.073,1.148,1.013
			c8.94-0.641,17.878-1.297,26.834-1.695c0.891-0.04,1.127,0.181,1.117,1.081c-0.048,4.563-0.041,9.128-0.004,13.691
			c0.006,0.772-0.184,1.06-0.988,1.12c-7.775,0.576-15.548,1.187-23.32,1.797c-6.805,0.534-13.61,1.074-20.412,1.637
			c-0.543,0.045-0.805-0.021-0.724-0.614c0.017-0.127,0.002-0.259,0.002-0.388c0-31.656,0-63.312,0.001-94.968
			c0-0.291,0.013-0.582,0.02-0.873c15.151,0,30.303,0,45.454,0c-0.017,4.692-0.036,9.383-0.049,14.075
			c-0.006,2.321-0.001,2.321-2.309,2.321c-8.545,0-17.09,0.012-25.635-0.019c-0.868-0.003-1.137,0.194-1.131,1.108
			C110.734,190.854,110.727,197.49,110.697,204.125z M200.794,182.075c0.005,0.851-0.203,1.084-1.067,1.076
			c-4.985-0.044-9.97,0-14.955-0.042c-0.852-0.007-1.067,0.202-1.067,1.066c0.026,24.408,0.013,48.816,0.047,73.224
			c0.001,1.045-0.302,1.237-1.273,1.232c-4.66-0.027-9.324-0.092-13.98,0.173c-0.919,0.052-1.177-0.147-1.176-1.116
			c0.031-24.408,0.025-48.816,0.021-73.224c0-1.496,0.213-1.33-1.35-1.332c-4.92-0.007-9.841-0.022-14.761,0.017
			c-0.788,0.006-0.947-0.238-0.942-0.975c0.03-5.147,0.014-10.294,0.013-15.441c16.835,0,33.67,0,50.505,0
			C200.797,171.847,200.764,176.961,200.794,182.075z M256.123,183.153c-9.194-0.038-18.388-0.007-27.582-0.048
			c-0.959-0.004-1.153,0.258-1.147,1.175c0.043,6.28,0.038,12.561,0.003,18.841c-0.004,0.783,0.225,0.943,0.964,0.94
			c6.798-0.028,13.597,0.006,20.395-0.042c0.976-0.007,1.154,0.285,1.146,1.189c-0.046,4.758-0.042,9.518-0.002,14.276
			c0.007,0.825-0.244,1.015-1.036,1.011c-6.766-0.03-13.532,0.001-20.298-0.039c-0.905-0.005-1.178,0.171-1.175,1.138
			c0.039,11.654,0.011,23.309,0.051,34.963c0.003,0.974-0.278,1.141-1.177,1.132c-4.661-0.048-9.323-0.045-13.985-0.001
			c-0.829,0.008-0.992-0.233-0.991-1.021c0.021-29.589,0.018-59.178,0.018-88.767c0-0.388-0.006-0.777-0.009-1.165
			c15.281,0,30.562,0,45.843,0c0.001,5.115-0.017,10.23,0.023,15.345C257.171,182.903,257.008,183.157,256.123,183.153z
			 M310.757,260.924c-14.176-0.941-28.357-1.781-42.563-2.083c-0.897-0.019-0.78-0.476-0.78-1.025
			c0.002-23.402,0.001-46.804,0.003-70.206c0.001-6.959,0.013-13.918,0.02-20.876c5.439,0,10.878,0,16.317,0
			c0.012,0.388,0.034,0.775,0.034,1.163c0.002,24.729,0.006,49.458-0.017,74.187c-0.001,0.901,0.121,1.267,1.166,1.29
			c8.478,0.189,16.934,0.824,25.399,1.287c1.372,0.075,1.372,0.075,1.372,1.476c0,4.629-0.02,9.257,0.02,13.886
			C311.735,260.813,311.51,260.974,310.757,260.924z M341.638,262.108c0,1.254,0.002,1.23-1.262,1.085
			c-4.599-0.526-9.22-0.786-13.84-1.036c-0.894-0.048-1.023-0.321-1.023-1.118c0.02-31.014,0.017-62.029,0.016-93.044
			c0-0.421-0.007-0.842-0.011-1.262c5.374,0,10.748,0,16.123,0C341.639,198.525,341.638,230.317,341.638,262.108z M413.124,271.822
			c-0.771-0.47-1.666-0.383-2.503-0.523c-4.941-0.829-9.887-1.629-14.838-2.396c-0.688-0.107-0.88-0.517-1.085-1.046
			c-3.689-9.513-7.385-19.024-11.08-28.534c-0.091-0.235-0.19-0.468-0.289-0.712c-0.347,0.194-0.382,0.544-0.505,0.83
			c-3.718,8.631-7.438,17.26-11.124,25.904c-0.307,0.719-0.635,0.956-1.425,0.817c-4.686-0.825-9.438-1.134-14.155-1.718
			c-0.545-0.068-1.091-0.187-1.637-0.186c-0.802,0.001-0.792-0.288-0.51-0.92c2.1-4.721,4.17-9.455,6.249-14.185
			c4.728-10.762,9.454-21.525,14.185-32.286c0.212-0.482,0.326-0.908,0.108-1.468c-6.248-16.104-12.472-32.218-18.703-48.33
			c-0.046-0.118-0.123-0.224-0.186-0.335c5.892,0,11.784,0,17.677,0c0.507,0.283,0.602,0.825,0.786,1.296
			c3.12,7.987,6.258,15.967,9.354,23.964c0.184,0.476,0.346,0.965,0.652,1.508c0.733-1.478,1.278-2.923,1.867-4.345
			c2.895-6.996,5.856-13.965,8.717-20.975c0.207-0.506,0.381-1.036,0.769-1.449c5.763,0,11.525-0.004,17.288,0.012
			c0.252,0.001,0.602-0.219,0.777,0.182c-0.71,2.7-1.979,5.184-3.039,7.746c-2.771,6.697-5.565,13.384-8.353,20.073
			c-2.912,6.988-5.85,13.966-8.756,20.957c-0.268,0.645-0.297,1.2-0.052,1.856c3.416,9.12,6.891,18.218,10.328,27.33
			c3.14,8.325,6.278,16.651,9.45,24.964c0.198,0.518,0.162,1.086,0.423,1.58C413.59,271.77,413.46,271.9,413.124,271.822z"/>
		<path style="fill:#FFFFFF;" d="M61.922,166.734c-0.355,0.411-0.281,0.913-0.281,1.391c-0.004,18.639-0.004,37.279-0.002,55.918
			c0,0.417-0.036,0.842,0.174,1.231c0.022,0.04,0.028,0.063,0.041,0.055c0.112-0.066-0.067,0.136-0.116-0.072
			c-0.069-0.426-0.214-0.919-0.388-1.405c-2.059-5.758-4.121-11.515-6.185-17.271c-2.61-7.279-5.209-14.562-7.82-21.84
			c-1.999-5.573-3.993-11.148-5.984-16.724c-0.171-0.479-0.301-1.005-0.807-1.282c-4.889,0-9.777,0.018-14.666-0.019
			c-0.729-0.006-0.893,0.165-0.892,0.894c0.021,34.447,0.018,68.894,0.018,103.34c0,0.259,0.006,0.518-0.002,0.777
			c-0.006,0.195,0.137,0.055,0.196,0.097c0.049-0.145,0.168-0.165,0.301-0.183c4.996-0.679,9.97-1.533,14.994-1.994
			c0.91-0.083,1.251-0.343,1.248-1.365c-0.04-18.223-0.029-36.446-0.029-54.668c0-0.331,0-0.661,0-0.992
			c0.23,0.224,0.316,0.457,0.396,0.691c3.882,11.366,7.764,22.732,11.644,34.098c2.149,6.294,4.304,12.586,6.427,18.889
			c0.217,0.645,0.476,0.83,1.165,0.713c1.273-0.216,2.568-0.3,3.853-0.442c4.05-0.448,8.108-0.813,12.141-1.411
			c0.872-0.129,1.108-0.419,1.107-1.321c-0.03-32.367-0.025-64.735-0.025-97.102C72.929,166.734,67.425,166.734,61.922,166.734z"/>
		<path style="fill:#FFFFFF;" d="M413.512,271.434c-0.261-0.493-0.226-1.062-0.423-1.58c-3.172-8.313-6.31-16.639-9.45-24.964
			c-3.437-9.112-6.912-18.21-10.328-27.33c-0.246-0.656-0.217-1.211,0.052-1.856c2.906-6.991,5.844-13.969,8.756-20.957
			c2.788-6.69,5.582-13.377,8.353-20.073c1.06-2.561,2.329-5.045,3.039-7.746c-0.175-0.402-0.525-0.182-0.777-0.182
			c-5.763-0.015-11.525-0.012-17.288-0.012c-0.388,0.413-0.562,0.943-0.769,1.449c-2.862,7.01-5.823,13.979-8.717,20.975
			c-0.588,1.422-1.133,2.867-1.867,4.345c-0.305-0.544-0.467-1.032-0.652-1.508c-3.095-7.997-6.234-15.977-9.354-23.964
			c-0.184-0.472-0.279-1.014-0.786-1.296c-5.892,0-11.784,0-17.677,0c0.063,0.111,0.14,0.217,0.186,0.335
			c6.23,16.111,12.455,32.225,18.703,48.33c0.217,0.56,0.104,0.986-0.108,1.468c-4.73,10.761-9.457,21.524-14.185,32.286
			c-2.078,4.731-4.148,9.465-6.249,14.185c-0.281,0.632-0.292,0.921,0.51,0.92c0.545-0.001,1.091,0.119,1.637,0.186
			c4.717,0.584,9.468,0.893,14.155,1.718c0.79,0.139,1.118-0.098,1.425-0.817c3.686-8.644,7.407-17.274,11.124-25.904
			c0.123-0.286,0.157-0.636,0.505-0.83c0.099,0.244,0.197,0.476,0.289,0.712c3.695,9.511,7.391,19.021,11.08,28.534
			c0.205,0.529,0.397,0.94,1.085,1.046c4.951,0.767,9.897,1.566,14.838,2.396c0.837,0.141,1.732,0.053,2.503,0.523
			C413.46,271.9,413.59,271.77,413.512,271.434z"/>
		<path style="fill:#FFFFFF;" d="M111.822,183.111c8.545,0.031,17.09,0.019,25.635,0.019c2.308,0,2.302,0,2.309-2.321
			c0.013-4.692,0.032-9.383,0.049-14.075c-15.151,0-30.303,0-45.454,0c-0.007,0.291-0.02,0.582-0.02,0.873
			c-0.001,31.656-0.001,63.312-0.001,94.968c0,0.13,0.015,0.261-0.002,0.388c-0.08,0.593,0.182,0.659,0.724,0.614
			c6.803-0.563,13.607-1.102,20.412-1.637c7.772-0.61,15.545-1.221,23.32-1.797c0.805-0.06,0.995-0.347,0.988-1.12
			c-0.037-4.564-0.044-9.128,0.004-13.691c0.009-0.9-0.226-1.12-1.117-1.081c-8.955,0.398-17.894,1.055-26.834,1.695
			c-0.836,0.06-1.154-0.044-1.148-1.013c0.046-7.444,0.042-14.889,0.003-22.334c-0.005-0.873,0.253-1.062,1.081-1.09
			c6.633-0.222,13.268-0.227,19.903-0.197c0.823,0.004,1.007-0.23,1.001-1.022c-0.038-4.661-0.019-9.322-0.019-13.983
			c0-1.465,0-1.462-1.51-1.438c-6.472,0.104-12.944,0.185-19.415,0.335c-0.919,0.021-1.039-0.276-1.035-1.081
			c0.031-6.635,0.037-13.271-0.005-19.906C110.685,183.305,110.954,183.108,111.822,183.111z"/>
		<path style="fill:#FFFFFF;" d="M257.142,166.734c-15.281,0-30.562,0-45.843,0c0.003,0.388,0.009,0.777,0.009,1.165
			c0,29.589,0.004,59.178-0.018,88.767c-0.001,0.788,0.162,1.029,0.991,1.021c4.661-0.044,9.323-0.047,13.985,0.001
			c0.899,0.009,1.18-0.158,1.177-1.132c-0.04-11.654-0.012-23.309-0.051-34.963c-0.003-0.967,0.27-1.143,1.175-1.138
			c6.766,0.04,13.532,0.009,20.298,0.039c0.792,0.004,1.043-0.186,1.036-1.011c-0.04-4.759-0.044-9.518,0.002-14.276
			c0.009-0.904-0.17-1.196-1.146-1.189c-6.798,0.048-13.597,0.014-20.395,0.042c-0.739,0.003-0.969-0.157-0.964-0.94
			c0.035-6.28,0.04-12.561-0.003-18.841c-0.006-0.917,0.188-1.179,1.147-1.175c9.194,0.041,18.388,0.01,27.582,0.048
			c0.885,0.004,1.048-0.25,1.041-1.075C257.125,176.964,257.143,171.848,257.142,166.734z"/>
		<path style="fill:#FFFFFF;" d="M150.305,166.734c0.001,5.147,0.017,10.294-0.013,15.441c-0.004,0.737,0.154,0.981,0.942,0.975
			c4.92-0.039,9.841-0.024,14.761-0.017c1.563,0.002,1.35-0.164,1.35,1.332c0.004,24.408,0.009,48.816-0.021,73.224
			c-0.001,0.969,0.257,1.168,1.176,1.116c4.656-0.265,9.319-0.2,13.98-0.173c0.971,0.006,1.274-0.186,1.273-1.232
			c-0.034-24.408-0.021-48.816-0.047-73.224c-0.001-0.863,0.215-1.073,1.067-1.066c4.985,0.042,9.97-0.002,14.955,0.042
			c0.864,0.008,1.072-0.225,1.067-1.076c-0.03-5.114,0.003-10.227,0.016-15.341C183.975,166.734,167.14,166.734,150.305,166.734z"/>
		<path style="fill:#FFFFFF;" d="M311.708,246.137c0-1.401,0-1.401-1.372-1.476c-8.465-0.463-16.922-1.099-25.399-1.287
			c-1.045-0.023-1.167-0.389-1.166-1.29c0.023-24.729,0.019-49.458,0.017-74.187c0-0.388-0.022-0.775-0.034-1.163
			c-5.439,0-10.878,0-16.317,0c-0.007,6.959-0.019,13.918-0.02,20.876c-0.003,23.402-0.001,46.804-0.003,70.206
			c0,0.548-0.117,1.006,0.78,1.025c14.206,0.302,28.387,1.142,42.563,2.083c0.752,0.05,0.977-0.11,0.97-0.902
			C311.688,255.394,311.708,250.765,311.708,246.137z"/>
		<path style="fill:#FFFFFF;" d="M325.529,167.996c0.001,31.015,0.003,62.029-0.016,93.044c0,0.797,0.129,1.07,1.023,1.118
			c4.619,0.249,9.241,0.509,13.84,1.036c1.265,0.145,1.262,0.169,1.262-1.085c0.001-31.791,0.002-63.583,0.003-95.374
			c-5.374,0-10.748,0-16.123,0C325.521,167.154,325.529,167.575,325.529,167.996z"/>
	</g>
</g>
</svg>
