<?xml version="1.0" encoding="iso-8859-1"?>
<!-- Generator: Adobe Illustrator 22.0.1, SVG Export Plug-In . SVG Version: 6.00 Build 0)  -->
<svg version="1.1" id="Layer_1" xmlns="http://www.w3.org/2000/svg" xmlns:xlink="http://www.w3.org/1999/xlink" x="0px" y="0px"
	 viewBox="0 0 438.53 438.53" style="enable-background:new 0 0 438.53 438.53;" xml:space="preserve">
<g id="_x31_95">
	<g>
		<path style="fill:#00A3E3;" d="M407.603,110.087c-19.45-33.321-45.833-59.704-79.155-79.153
			c-33.328-19.448-69.711-29.17-109.176-29.17c-39.461,0-75.854,9.722-109.177,29.17C76.771,50.38,50.388,76.763,30.938,110.087
			c-19.451,33.326-29.173,69.72-29.173,109.178c0,39.46,9.725,75.847,29.17,109.175c19.449,33.321,45.832,59.704,79.156,79.155
			c33.326,19.447,69.717,29.17,109.177,29.17s75.854-9.723,109.179-29.17c33.322-19.444,59.704-45.834,79.152-79.155
			c19.445-33.325,29.166-69.718,29.166-109.175C436.766,179.803,427.044,143.409,407.603,110.087z M163.124,289.248
			c-3.312,0.17-4.713-0.964-5.935-3.982c-3.845-9.492-8.117-18.812-12.162-28.225c-0.49-1.141-1.054-1.562-2.326-1.558
			c-18.523,0.051-37.045,0.056-55.568,0.018c-1.257-0.003-1.846,0.396-2.354,1.536c-4.557,10.218-9.204,20.395-13.754,30.615
			c-0.516,1.16-1.119,1.53-2.358,1.52c-6.37-0.051-12.741-0.004-19.112,0.008c-0.643,0.001-1.286,0-1.917,0
			c-0.185-0.846,0.292-1.363,0.555-1.922c21.235-45.132,42.487-90.256,63.693-135.401c0.575-1.225,1.229-1.59,2.518-1.542
			c6.644,0.249,4.836-1.089,7.533,4.903c19.719,43.815,39.357,87.667,59.017,131.509c0.309,0.689,0.581,1.393,1.011,2.43
			C175.492,289.157,169.294,288.931,163.124,289.248z M226.78,287.485c0.001,1.234-0.331,1.593-1.573,1.58
			c-5.897-0.062-11.796-0.082-17.692,0.009c-1.55,0.024-1.821-0.531-1.819-1.927c0.038-22.175,0.027-44.35,0.027-66.525
			c0-22.116,0.02-44.232-0.039-66.348c-0.005-1.729,0.485-2.153,2.168-2.122c5.778,0.106,11.559,0.074,17.338,0.014
			c1.22-0.013,1.592,0.301,1.591,1.561C226.749,198.313,226.749,242.899,226.78,287.485z M387.78,245.602
			c-6.803,21.278-20.094,36.673-41.935,42.758c-22.756,6.34-44.4,3.131-63.334-11.846c-15.073-11.923-24.312-27.563-26.502-46.757
			c-2.367-20.74,1.7-40.037,15.024-56.729c11.473-14.373,26.463-22.669,44.606-25.107c14.832-1.993,29.286-0.558,42.989,5.956
			c9.908,4.71,18.333,11.282,25.161,19.898c0.899,1.134,1.024,1.78-0.157,2.863c-4.26,3.906-8.436,7.907-12.543,11.973
			c-1.09,1.08-1.527,0.792-2.299-0.257c-7.46-10.138-17.053-17.363-29.469-20.011c-30.472-6.499-55.379,11.251-60.558,39.523
			c-2.656,14.503-0.775,28.305,7.119,40.992c11.39,18.305,34.145,26.961,54.688,20.344c13.098-4.218,21.561-13.495,25.975-26.478
			c0.511-1.503,0.825-3.071,1.304-4.586c0.415-1.315,0.181-1.843-1.369-1.884c-10.204-0.271-20.41-0.171-30.614-0.123
			c-1.88,0.009-2.317-0.516-2.273-2.322c0.124-5.188,0.108-10.383,0.004-15.572c-0.031-1.533,0.461-1.82,1.884-1.81
			c8.967,0.065,17.934,0.033,26.901,0.033s17.934-0.004,26.901,0.007c0.766,0.001,1.691-0.301,1.649,1.116
			C390.653,227.012,390.695,236.483,387.78,245.602z"/>
		<path style="fill:#00A3E3;" d="M114.867,190.499c-6.471,14.059-12.93,28.124-19.428,42.172c-0.558,1.207-0.328,1.485,0.965,1.481
			c6.425-0.017,12.851,0.05,19.277,0.065c6.412,0.015,12.824,0.003,19.626,0.003c-6.628-15.05-13.139-29.833-19.801-44.959
			C115.187,189.879,115.013,190.183,114.867,190.499z"/>
		<path style="fill:#FEFEFE;" d="M389.284,216.467c-8.967-0.01-17.934-0.007-26.901-0.007s-17.934,0.032-26.901-0.033
			c-1.424-0.01-1.915,0.277-1.884,1.81c0.103,5.189,0.12,10.384-0.004,15.572c-0.043,1.806,0.394,2.331,2.273,2.322
			c10.204-0.048,20.41-0.148,30.614,0.123c1.55,0.041,1.784,0.569,1.369,1.884c-0.479,1.515-0.793,3.083-1.304,4.586
			c-4.415,12.983-12.877,22.26-25.975,26.478c-20.544,6.616-43.298-2.039-54.688-20.344c-7.894-12.687-9.776-26.489-7.119-40.992
			c5.178-28.272,30.086-46.022,60.558-39.523c12.416,2.648,22.008,9.873,29.469,20.011c0.772,1.049,1.209,1.337,2.299,0.257
			c4.107-4.067,8.283-8.068,12.543-11.973c1.181-1.083,1.055-1.728,0.157-2.863c-6.828-8.617-15.252-15.188-25.161-19.898
			c-13.702-6.513-28.157-7.948-42.989-5.956c-18.143,2.438-33.134,10.734-44.606,25.107c-13.324,16.692-17.391,35.989-15.024,56.729
			c2.19,19.194,11.429,34.834,26.502,46.757c18.934,14.977,40.578,18.186,63.334,11.846c21.841-6.085,35.132-21.48,41.935-42.758
			c2.915-9.119,2.873-18.59,3.153-28.019C390.975,216.167,390.05,216.468,389.284,216.467z"/>
		<path style="fill:#FEFEFE;" d="M225.189,152.166c-5.779,0.061-11.56,0.092-17.338-0.014c-1.683-0.031-2.173,0.394-2.168,2.122
			c0.059,22.116,0.039,44.232,0.039,66.348c0,22.175,0.011,44.35-0.027,66.525c-0.002,1.396,0.269,1.951,1.819,1.927
			c5.896-0.092,11.795-0.071,17.692-0.009c1.242,0.013,1.574-0.347,1.573-1.58c-0.03-44.586-0.031-89.172,0.001-133.758
			C226.782,152.467,226.409,152.153,225.189,152.166z"/>
		<path style="fill:#FEFEFE;" d="M121.936,155.218c-2.697-5.992-0.889-4.653-7.533-4.903c-1.29-0.048-1.943,0.317-2.518,1.542
			c-21.206,45.146-42.458,90.269-63.693,135.401c-0.263,0.559-0.74,1.076-0.555,1.922c0.631,0,1.274,0.001,1.917,0
			c6.371-0.012,12.742-0.058,19.112-0.008c1.239,0.01,1.842-0.36,2.358-1.52c4.55-10.22,9.197-20.398,13.754-30.615
			c0.508-1.14,1.097-1.538,2.354-1.536c18.523,0.038,37.045,0.033,55.568-0.018c1.272-0.004,1.836,0.417,2.326,1.558
			c4.045,9.413,8.316,18.732,12.162,28.225c1.223,3.018,2.623,4.152,5.935,3.982c6.17-0.317,12.369-0.091,18.841-0.091
			c-0.43-1.037-0.702-1.742-1.011-2.43C161.293,242.885,141.655,199.033,121.936,155.218z M115.681,234.217
			c-6.426-0.015-12.851-0.083-19.277-0.065c-1.293,0.004-1.523-0.274-0.965-1.481c6.498-14.047,12.957-28.112,19.428-42.172
			c0.146-0.317,0.319-0.621,0.638-1.238c6.662,15.126,13.172,29.909,19.801,44.959C128.504,234.221,122.093,234.232,115.681,234.217
			z"/>
	</g>
</g>
</svg>
