<?xml version="1.0" encoding="iso-8859-1"?>
<!-- Generator: Adobe Illustrator 22.0.1, SVG Export Plug-In . SVG Version: 6.00 Build 0)  -->
<svg version="1.1" id="Layer_1" xmlns="http://www.w3.org/2000/svg" xmlns:xlink="http://www.w3.org/1999/xlink" x="0px" y="0px"
	 viewBox="0 0 438.53 438.53" style="enable-background:new 0 0 438.53 438.53;" xml:space="preserve">
<g id="_x31_96">
	<g>
		<path style="fill:#ED1B2D;" d="M282.121,185.375c-3.567-1.494-7.301-1.603-11.069-1.11c-6.959,0.911-12.14,4.331-15.009,10.879
			c-1.703,3.886-2.242,8-2.18,12.211c0,3.346,0.294,6.663,1.092,9.92c1.162,4.744,3.265,8.932,7.289,11.917
			c3.017,2.239,6.506,3.163,10.187,3.571c7.897,0.875,14.597-2.291,18.125-9.168c4.434-8.645,5.164-17.73,1.866-26.94
			C290.586,191.528,287.287,187.539,282.121,185.375z"/>
		<path style="fill:#ED1B2D;" d="M407.603,110.087c-19.45-33.321-45.833-59.704-79.155-79.153
			c-33.328-19.448-69.711-29.17-109.176-29.17c-39.461,0-75.854,9.722-109.177,29.17C76.771,50.38,50.388,76.763,30.938,110.087
			c-19.451,33.326-29.173,69.72-29.173,109.178c0,39.46,9.725,75.847,29.17,109.175c19.449,33.321,45.832,59.704,79.156,79.155
			c33.326,19.447,69.717,29.17,109.177,29.17s75.854-9.723,109.179-29.17c33.322-19.444,59.704-45.834,79.152-79.155
			c19.445-33.325,29.166-69.718,29.166-109.175C436.766,179.803,427.044,143.409,407.603,110.087z M104.687,186.361
			c0.001,0.59,0.061,1.133-0.842,0.995c-5.242-0.799-10.529-0.825-15.811-0.846c-7.823-0.031-15.646-0.008-23.47-0.008
			c-1.414,0-1.433,0.018-1.431,1.477c0.004,3.268,0.011,6.537,0.021,9.805c0.004,1.38,0.086,1.459,1.5,1.459
			c12.9,0.001,25.799,0,38.699,0.001c1.345,0,1.346,0.001,1.345,1.37c-0.005,5.355-0.032,10.709,0.005,16.064
			c0.006,0.926-0.267,1.167-1.18,1.165c-12.9-0.029-25.799-0.02-38.699-0.019c-1.695,0-1.696,0.001-1.69,1.673
			c0.012,3.268,0.048,6.537,0.021,9.805c-0.008,0.909,0.209,1.293,1.221,1.289c8.797-0.038,17.594,0.021,26.39-0.048
			c4.409-0.034,8.832-0.102,13.164-1.122c0.931-0.219,0.746,0.455,0.747,0.938c0.009,4.624,0.007,9.249,0.008,13.873
			c0,1.252-0.059,2.507,0.016,3.754c0.056,0.925-0.249,1.169-1.169,1.167c-10.848-0.032-21.696-0.021-32.544-0.021
			c-10.813,0-21.627-0.013-32.44,0.021c-0.978,0.003-1.087-0.166-0.834-1.115c0.961-3.614,1.245-7.338,1.253-11.054
			c0.047-19.61,0.049-39.22-0.001-58.83c-0.009-3.396-0.197-6.811-1.401-10.062c-0.268-0.725,0.31-0.53,0.627-0.532
			c2.642-0.015,5.285-0.013,7.927-0.014c19.089-0.007,38.177-0.003,57.266-0.044c1.077-0.002,1.332,0.285,1.323,1.335
			C104.656,174.679,104.681,180.52,104.687,186.361z M255.481,286.224c-9.91,0.008-19.821-0.002-29.731,0.022
			c-0.795,0.002-1.346-0.228-1.904-0.804c-12.873-13.284-25.767-26.549-38.657-39.818c-0.121-0.125-0.259-0.237-0.362-0.374
			c-0.54-0.717-0.897-0.572-1.381,0.134c-3.376,4.93-6.793,9.831-10.196,14.742c-3.344,4.825-6.692,9.648-10.025,14.48
			c-0.331,0.48-0.636,0.794-1.312,0.792c-7.928-0.029-15.857-0.018-23.785-0.022c-0.265,0-0.559,0.081-0.85-0.224
			c0.494-0.532,0.984-1.056,1.469-1.585c4.027-4.402,7.264-9.395,10.648-14.277c6.589-9.507,13.169-19.022,19.786-28.51
			c0.531-0.761,0.477-1.185-0.159-1.83c-3.733-3.79-7.42-7.625-11.125-11.443c-0.894-0.922-0.897-0.918-1.661,0.181
			c-7.059,10.154-14.125,20.304-21.164,30.473c-0.468,0.676-0.955,0.932-1.779,0.928c-7.685-0.032-15.37-0.017-23.055-0.026
			c-0.362,0-0.763,0.142-1.14-0.207c3.225-3.427,6.013-7.203,8.736-11.005c5.622-7.851,11.062-15.832,16.571-23.763
			c2.635-3.795,5.249-7.605,7.892-11.394c0.366-0.524,0.476-0.879-0.051-1.408c-9.912-9.952-19.41-20.317-29.776-29.815
			c-1.426-1.307-2.902-2.56-4.364-3.847c0.348-0.295,0.712-0.182,1.047-0.182c10.258-0.006,20.516,0.002,30.774-0.021
			c0.731-0.002,1.219,0.243,1.712,0.755c4.462,4.633,8.948,9.244,13.426,13.862c0.895,0.923,0.896,0.926,1.602-0.095
			c6.618-9.573,13.241-19.141,19.837-28.728c0.439-0.638,0.874-0.911,1.676-0.907c7.65,0.033,15.3,0.014,22.95,0.023
			c0.317,0,0.783-0.215,0.929,0.19c0.11,0.306-0.322,0.485-0.528,0.704c-2.608,2.769-4.734,5.906-6.892,9.019
			c-7.973,11.507-15.944,23.016-23.945,34.503c-0.491,0.705-0.378,1.055,0.18,1.62c3.758,3.815,7.476,7.668,11.206,11.51
			c0.884,0.911,0.885,0.913,1.593-0.108c9.563-13.786,19.132-27.569,28.673-41.371c0.491-0.71,0.992-0.986,1.858-0.982
			c7.511,0.035,15.023,0.019,22.534,0.024c0.408,0,0.837-0.095,1.305,0.214c-2.151,2.114-3.876,4.549-5.575,6.993
			c-9.717,13.975-19.403,27.973-29.099,41.963c-1.84,2.655-3.653,5.33-5.538,7.953c-0.506,0.704-0.479,1.091,0.138,1.725
			c14.775,15.17,29.555,30.335,44.258,45.574c4.493,4.657,9.003,9.285,13.868,13.556c0.194,0.17,0.498,0.284,0.477,0.637
			C256.249,286.363,255.845,286.224,255.481,286.224z M311.579,231.697c-6.064,10.001-15.065,16.008-26.369,18.68
			c-3.633,0.859-7.332,1.182-10.671,1.227c-10.384-0.105-19.591-2.735-27.696-8.714c-8.682-6.404-14.056-14.97-16.114-25.54
			c-2.014-10.343-0.919-20.351,3.961-29.778c5.178-10.002,13.22-16.86,23.86-20.38c13.181-4.36,26.093-3.3,38.249,3.488
			c11.449,6.393,18.315,16.305,20.53,29.221C319.255,211.138,317.538,221.869,311.579,231.697z M400.973,168.014
			c-1.072,2.717-0.988,5.591-1.162,8.424c-0.104,1.698-0.058,3.407-0.058,5.111c-0.003,22.082-0.002,44.164-0.002,66.246
			c0,1.339-0.001,1.339-1.361,1.339c-7.059,0-14.119-0.015-21.178,0.02c-0.827,0.004-1.293-0.25-1.737-0.951
			c-9.293-14.667-18.612-29.318-27.927-43.971c-0.201-0.316-0.415-0.624-0.774-1.162c-0.023,0.445-0.04,0.611-0.04,0.778
			c0.012,11.128-0.001,22.255,0.053,33.383c0.016,3.336,0.145,6.675,0.462,10c0.058,0.611,0.504,1.489,0.253,1.755
			c-0.396,0.42-1.245,0.14-1.899,0.141c-6.155,0.01-12.31,0.006-18.465,0.006c-0.379,0-0.758,0-1.249,0
			c1.524-3.125,1.069-6.392,1.074-9.582c0.03-21.317,0.003-42.633-0.023-63.95c-0.002-1.737-0.119-3.474-0.219-5.209
			c-0.054-0.936-0.209-1.86-0.81-2.629c0.255-0.367,0.596-0.217,0.875-0.218c7.998-0.01,15.996,0.007,23.994-0.031
			c0.777-0.004,1.086,0.357,1.436,0.916c8.958,14.302,17.929,28.596,26.898,42.892c0.27,0.43,0.545,0.857,1.009,1.237
			c0-0.292,0-0.584,0-0.877c0.005-10.224,0.019-20.448,0.012-30.671c-0.002-3.477-0.028-6.954-0.565-10.403
			c-0.129-0.828-0.298-1.65-0.728-2.375c-0.356-0.6-0.114-0.701,0.448-0.7c7.024,0.007,14.049,0.002,21.073,0.012
			C400.645,167.547,401.222,167.382,400.973,168.014z"/>
		<path style="fill:#FCFCFC;" d="M256.095,285.42c-4.865-4.271-9.374-8.899-13.868-13.556
			c-14.704-15.239-29.484-30.404-44.258-45.574c-0.617-0.634-0.644-1.021-0.138-1.725c1.885-2.623,3.698-5.298,5.538-7.953
			c9.696-13.99,19.381-27.987,29.099-41.963c1.699-2.444,3.424-4.879,5.575-6.993c-0.468-0.309-0.897-0.214-1.305-0.214
			c-7.511-0.005-15.023,0.011-22.534-0.024c-0.866-0.004-1.367,0.272-1.858,0.982c-9.541,13.802-19.11,27.585-28.673,41.371
			c-0.708,1.021-0.708,1.019-1.593,0.108c-3.73-3.842-7.448-7.696-11.206-11.51c-0.557-0.566-0.67-0.916-0.18-1.62
			c8.002-11.487,15.972-22.996,23.945-34.503c2.157-3.114,4.283-6.25,6.892-9.019c0.206-0.219,0.638-0.398,0.528-0.704
			c-0.146-0.404-0.612-0.189-0.929-0.19c-7.65-0.01-15.3,0.01-22.95-0.023c-0.803-0.003-1.237,0.27-1.676,0.907
			c-6.597,9.587-13.22,19.155-19.837,28.728c-0.706,1.021-0.707,1.018-1.602,0.095c-4.478-4.618-8.964-9.229-13.426-13.862
			c-0.493-0.512-0.981-0.757-1.712-0.755c-10.258,0.023-20.516,0.015-30.774,0.021c-0.335,0-0.699-0.113-1.047,0.182
			c1.462,1.286,2.937,2.54,4.364,3.847c10.366,9.498,19.864,19.863,29.776,29.815c0.527,0.529,0.417,0.884,0.051,1.408
			c-2.643,3.789-5.257,7.599-7.892,11.394c-5.509,7.932-10.949,15.913-16.571,23.763c-2.723,3.802-5.511,7.578-8.736,11.005
			c0.377,0.349,0.778,0.207,1.14,0.207c7.685,0.009,15.37-0.006,23.055,0.026c0.824,0.003,1.311-0.252,1.779-0.928
			c7.038-10.169,14.104-20.319,21.164-30.473c0.764-1.099,0.767-1.103,1.661-0.181c3.705,3.818,7.392,7.654,11.125,11.443
			c0.636,0.645,0.69,1.069,0.159,1.83c-6.618,9.488-13.197,19.002-19.786,28.51c-3.384,4.882-6.62,9.875-10.648,14.277
			c-0.484,0.529-0.975,1.053-1.469,1.585c0.292,0.305,0.585,0.224,0.85,0.224c7.928,0.004,15.857-0.007,23.785,0.022
			c0.676,0.003,0.98-0.312,1.312-0.792c3.334-4.832,6.681-9.655,10.025-14.48c3.403-4.911,6.82-9.813,10.196-14.742
			c0.484-0.706,0.841-0.851,1.381-0.134c0.104,0.138,0.241,0.25,0.362,0.374c12.89,13.268,25.783,26.533,38.657,39.818
			c0.558,0.576,1.109,0.806,1.904,0.804c9.91-0.024,19.821-0.014,29.731-0.022c0.364,0,0.768,0.139,1.091-0.167
			C256.593,285.704,256.289,285.59,256.095,285.42z"/>
		<path style="fill:#FCFCFC;" d="M400.363,167.546c-7.024-0.01-14.049-0.006-21.073-0.012c-0.562-0.001-0.804,0.1-0.448,0.7
			c0.431,0.726,0.599,1.547,0.728,2.375c0.536,3.449,0.562,6.927,0.565,10.403c0.007,10.224-0.006,20.447-0.012,30.671
			c0,0.292,0,0.584,0,0.877c-0.465-0.381-0.739-0.808-1.009-1.237c-8.969-14.295-17.939-28.59-26.898-42.892
			c-0.35-0.559-0.659-0.92-1.436-0.916c-7.998,0.038-15.996,0.021-23.994,0.031c-0.279,0-0.62-0.149-0.875,0.218
			c0.6,0.769,0.756,1.693,0.81,2.629c0.1,1.735,0.217,3.472,0.219,5.209c0.026,21.317,0.053,42.633,0.023,63.95
			c-0.005,3.19,0.451,6.457-1.074,9.582c0.492,0,0.87,0,1.249,0c6.155,0,12.31,0.004,18.465-0.006
			c0.655-0.001,1.503,0.278,1.899-0.141c0.251-0.266-0.195-1.144-0.253-1.755c-0.317-3.325-0.446-6.664-0.462-10
			c-0.054-11.127-0.041-22.255-0.053-33.383c0-0.167,0.016-0.333,0.04-0.778c0.359,0.538,0.573,0.846,0.774,1.162
			c9.315,14.653,18.634,29.303,27.927,43.971c0.444,0.701,0.909,0.955,1.737,0.951c7.059-0.034,14.118-0.02,21.178-0.02
			c1.36,0,1.361,0,1.361-1.339c0-22.082-0.001-44.164,0.002-66.246c0-1.704-0.046-3.412,0.058-5.111
			c0.174-2.833,0.091-5.707,1.162-8.424C401.222,167.382,400.645,167.547,400.363,167.546z"/>
		<path style="fill:#FCFCFC;" d="M103.386,167.503c-19.089,0.042-38.177,0.038-57.266,0.044c-2.643,0.001-5.285-0.001-7.927,0.014
			c-0.317,0.002-0.895-0.193-0.627,0.532c1.204,3.251,1.392,6.666,1.401,10.062c0.05,19.61,0.048,39.22,0.001,58.83
			c-0.009,3.716-0.292,7.44-1.253,11.054c-0.252,0.949-0.144,1.118,0.834,1.115c10.813-0.034,21.627-0.021,32.44-0.021
			c10.848,0,21.696-0.011,32.544,0.021c0.921,0.003,1.225-0.242,1.169-1.167c-0.075-1.247-0.016-2.502-0.016-3.754
			c0-4.624,0.002-9.249-0.008-13.873c-0.001-0.483,0.184-1.157-0.747-0.938c-4.332,1.02-8.755,1.087-13.164,1.122
			c-8.796,0.069-17.593,0.009-26.39,0.048c-1.012,0.004-1.229-0.379-1.221-1.289c0.027-3.268-0.009-6.537-0.021-9.805
			c-0.006-1.672-0.006-1.673,1.69-1.673c12.9,0,25.799-0.009,38.699,0.019c0.913,0.002,1.186-0.24,1.18-1.165
			c-0.036-5.354-0.01-10.709-0.005-16.064c0.001-1.369,0-1.37-1.345-1.37c-12.9,0-25.799,0-38.699-0.001
			c-1.414,0-1.496-0.079-1.5-1.459c-0.01-3.268-0.017-6.537-0.021-9.805c-0.002-1.459,0.017-1.477,1.431-1.477
			c7.823-0.001,15.647-0.023,23.47,0.008c5.283,0.021,10.57,0.047,15.811,0.846c0.902,0.138,0.842-0.405,0.842-0.995
			c-0.006-5.841-0.031-11.683,0.021-17.524C104.718,167.787,104.462,167.5,103.386,167.503z"/>
		<path style="fill:#FCFCFC;" d="M296.799,170.681c-12.156-6.788-25.068-7.847-38.249-3.488c-10.64,3.519-18.681,10.378-23.86,20.38
			c-4.881,9.427-5.976,19.434-3.961,29.778c2.058,10.57,7.432,19.135,16.114,25.54c8.105,5.979,17.312,8.609,27.696,8.714
			c3.339-0.045,7.038-0.369,10.671-1.227c11.304-2.672,20.305-8.679,26.369-18.68c5.959-9.828,7.676-20.559,5.75-31.795
			C315.113,186.986,308.248,177.074,296.799,170.681z M290.556,223.595c-3.528,6.878-10.228,10.044-18.125,9.168
			c-3.681-0.408-7.17-1.332-10.187-3.571c-4.024-2.985-6.127-7.174-7.289-11.917c-0.798-3.257-1.092-6.574-1.092-9.92
			c-0.062-4.211,0.477-8.325,2.18-12.211c2.87-6.548,8.05-9.968,15.009-10.879c3.768-0.493,7.502-0.385,11.069,1.11
			c5.166,2.164,8.465,6.153,10.301,11.28C295.72,205.865,294.99,214.95,290.556,223.595z"/>
	</g>
</g>
</svg>
