<?xml version="1.0" encoding="iso-8859-1"?>
<!-- Generator: Adobe Illustrator 22.0.1, SVG Export Plug-In . SVG Version: 6.00 Build 0)  -->
<svg version="1.1" id="Layer_1" xmlns="http://www.w3.org/2000/svg" xmlns:xlink="http://www.w3.org/1999/xlink" x="0px" y="0px"
	 viewBox="0 0 438.53 438.53" style="enable-background:new 0 0 438.53 438.53;" xml:space="preserve">
<g id="_x31_97">
	<g>
		<path style="fill:#F4F4F4;" d="M69.982,272.768c0.475-0.884,0.857-1.814,1.141-2.777c0.336-1.138,0.617-2.291,0.84-3.456
			c0.217-1.106,0.404-2.218,0.56-3.334c0.124-0.913,0.177-1.526,0.21-2.139c0.077-1.545,0.067-2.963-0.22-4.556
			c-0.151-0.583-0.408-1.121-0.797-1.657c-0.32-0.443-0.866-0.664-1.404-0.568l0.096,0.041c-0.564-0.057-0.833,0.216-1.21,0.52
			c-0.151,0.145-0.281,0.314-0.385,0.497c-0.726,1.296-1.279,2.683-1.642,4.124c-0.238,0.882-0.573,2.229-0.862,3.584
			c-0.289,1.359-0.528,2.726-0.691,3.961c-0.319,2.238-0.34,4.508-0.063,6.752c0.136,1.096,0.344,2.183,0.622,3.252
			c0.786-0.552,1.505-1.193,2.144-1.909C68.964,274.391,69.521,273.607,69.982,272.768z M70.458,254.326
			c0.449,0.094,0.877,0.272,1.259,0.526l-1.308-0.528L70.458,254.326z"/>
		<path style="fill:#F4F4F4;" d="M117.75,275.892c0.672,0.854,1.54,1.019,2.476,0.32l0,0c0.14-0.126,0.257-0.275,0.348-0.44
			l-0.86-3.794L117.75,275.892z"/>
		<path style="fill:#F4F4F4;" d="M195.748,271.303c-0.943,0.056-1.885,0.124-2.826,0.206c-0.703,0.063-1.051,0.1-1.652,0.19
			c-3.005,0.447-5.953,1.221-8.79,2.307c-0.646,0.249-0.791,0.336-0.913,0.448c-0.384,0.342-0.535,0.876-0.387,1.369
			c0.045,0.161,0.122,0.314,0.515,0.774c1.272,1.466,2.672,2.815,4.183,4.032c0.815,0.652,1.659,1.265,2.63,1.903
			c0.97,0.638,2.07,1.302,3.213,1.879c2.28,1.147,4.71,1.966,7.219,2.433l-0.002-15.646
			C197.874,271.208,196.81,271.244,195.748,271.303z"/>
		<path style="fill:#F4F4F4;" d="M278.017,248.739c0.986-0.558,1.934-1.18,2.885-1.801c1.154-0.787,1.943-2.006,2.188-3.382
			c0.002-0.009,0.003-0.017,0.004-0.026c0.146-0.889-0.456-1.729-1.346-1.875c-1.235-0.203-2.501-0.111-3.694,0.271
			c-4.953,1.615-9.24,4.811-12.203,9.096c2.014,0.556,4.129,0.634,6.178,0.226C274.113,250.869,276.057,249.791,278.017,248.739z"/>
		<path style="fill:#F4F4F4;" d="M266.858,240.397c-2.977,1.692-5.125,4.535-5.94,7.861c1.201-1.432,2.497-2.782,3.878-4.04l0,0
			c2.768-2.515,5.864-4.643,9.204-6.325C271.489,238.293,269.07,239.141,266.858,240.397z"/>
		<path style="fill:#F4F4F4;" d="M114.574,328.987c-1.1-1.121-2.431-1.367-3.723-1.373h-3.857v8.988h4
			c1.043-0.024,2.119-0.088,3.234-0.994c1.329-1.182,1.763-2.663,1.542-4.226C115.631,330.479,115.213,329.642,114.574,328.987z"/>
		<path style="fill:#F4F4F4;" d="M395.503,271.621c-0.454-0.139-0.937-0.181-1.508,0.352c-3.506,3.391-6.323,7.428-8.297,11.889
			c1.068,0.48,2.306,0.383,3.287-0.255c1.414-0.919,2.778-1.914,4.085-2.981c0.74-0.634,1.38-1.379,1.899-2.203l0,0
			c1.04-1.662,1.55-3.601,1.463-5.56C396.453,272.43,395.962,271.735,395.503,271.621z"/>
		<path style="fill:#F4F4F4;" d="M407.603,110.087c-19.45-33.321-45.833-59.704-79.155-79.153
			c-33.328-19.448-69.711-29.17-109.176-29.17c-39.461,0-75.854,9.722-109.177,29.17C76.771,50.38,50.388,76.763,30.938,110.087
			c-19.451,33.326-29.173,69.72-29.173,109.178c0,39.46,9.725,75.847,29.17,109.175c19.449,33.321,45.832,59.704,79.156,79.155
			c33.326,19.447,69.717,29.17,109.177,29.17s75.854-9.723,109.179-29.17c33.322-19.444,59.704-45.834,79.152-79.155
			c19.445-33.325,29.166-69.718,29.166-109.175C436.766,179.803,427.044,143.409,407.603,110.087z M256.162,122.247
			c15.268,2.855,30.028,8.48,43.292,16.565c13.263,8.085,25.031,18.627,34.535,30.92c9.501,12.293,16.743,26.336,21.227,41.208
			c4.483,14.872,6.209,30.574,5.127,46.071h-1.972c0.8-15.239-1.1-30.5-5.615-45.077c-4.542-14.57-11.643-28.215-20.969-40.295
			c-9.335-12.073-20.746-22.387-33.699-30.458c-12.967-8.045-27.254-13.734-42.202-16.804c0.138-0.088,0.259-0.2,0.357-0.33
			C256.7,123.368,256.598,122.771,256.162,122.247z M279.804,257.016c1.485-0.785,2.886-1.721,4.181-2.792
			c2.594-2.153,4.717-4.817,6.237-7.826l28.41-0.01l2.873,10.61l0,0l0,0L279.804,257.016z M267.94,257.906
			c-0.648,0-1.051-0.039-1.445-0.12c-0.399-0.079-0.787-0.198-1.166-0.405c-0.379-0.206-0.748-0.505-1.059-0.41
			c-0.306,0.094-0.556,0.575-0.874,0.954c-0.318,0.377-0.709,0.652-1.131,0.86c-0.422,0.212-0.88,0.355-1.343,0.426
			c-0.823,0.112-1.63,0.057-2.089-0.23c-0.212-0.118-0.399-0.275-0.552-0.463c-0.149-0.187-0.265-0.403-0.487-0.823l-0.901-1.665
			c-0.623-1.159-1.21-2.221-1.581-3.146c-0.355-0.911-0.617-1.689-0.793-2.8c-0.088-0.583-0.153-1.296-0.133-2.005
			c0.033-2.677,1.392-5.461,3.674-7.987c0.533-0.578,1.106-1.119,1.714-1.616c1.485-1.176,3.085-2.215,4.764-3.091
			c1.685-0.878,3.448-1.595,5.267-2.121s3.69-0.862,4.978-1.047c0.893-0.143,1.796-0.211,2.7-0.204
			c1.412,0.013,2.817,0.197,4.185,0.548c1.251,0.296,2.278,1.188,2.745,2.386c1.602-0.361,3.277,0.104,4.464,1.239
			c0.39,0.371,0.719,0.802,0.974,1.276c0.291,0.547,0.47,1.147,0.526,1.763l0,0c0.097,0.946,0.085,1.9-0.035,2.844
			c-0.249,1.981-0.99,3.847-2.321,5.762c-1.351,1.97-2.985,3.73-4.849,5.224c-1.877,1.485-3.706,2.529-5.275,3.138
			c-1.545,0.65-3.484,1.078-4.587,1.273c-0.536,0.102-0.784,0.149-1.223,0.198c-0.44,0.049-1.08,0.106-1.844,0.153
			C269.474,257.864,268.585,257.906,267.94,257.906z M270.059,284.747c-0.01,2.229-0.084,4.458-0.214,6.685
			c-0.081,0.823-0.403,1.636-1.316,2.315c-0.7,0.5-1.499,0.843-2.343,1.005c-1.452,0.229-2.921-0.292-3.904-1.384
			c-0.65-0.717-1.044-1.629-1.121-2.594c-0.44-4.223-0.344-8.484,0.289-12.682c0.287-2.121,0.452-4.413,0.548-6.323
			c0.049-0.945,0.088-1.752,0.145-2.557c0.055-0.807,0.124-1.612,0.189-2.205c0.073-0.832,0.232-1.654,0.473-2.453
			c0.214-0.642,0.387-1.363,0.958-1.862c1.015-0.931,2.591-0.868,3.529,0.141c0.685,0.657,1.192,1.479,1.473,2.386
			c0.26,0.804,0.453,1.629,0.579,2.465c0.086,0.607,0.146,1.218,0.181,1.83c0.065,0.972,0.155,2.488,0.234,4s0.147,3.028,0.204,4.9
			C270.02,280.287,270.069,282.518,270.059,284.747z M253.564,246.396c-0.288,3.609,0.235,7.237,1.53,10.618l-5.208-10.722
			L253.564,246.396z M248.686,241.901c-1.418-3.841-3.505-7.4-6.164-10.512l28.371,0.026l0,0l0,0l0,0
			c-4.253,1.113-8.226,3.108-11.659,5.854c-1.71,1.369-3.28,2.914-4.672,4.605L248.686,241.901z M283.17,231.416l35.474-0.026h0.002
			v10.512l-26.189-0.028c-0.26-3.833-2.427-7.28-5.77-9.175C285.597,232.084,284.401,231.648,283.17,231.416z M239.905,228.535
			c-1.682-1.434-3.527-2.665-5.497-3.668c-1.972-0.998-4.059-1.765-6.206-2.254c-2.146-0.489-4.356-0.701-6.013-0.762
			c-1.657-0.061-2.761,0.029-3.859,0.173c-1.096,0.142-2.184,0.344-3.258,0.605c-3.093,0.672-6.221,2.302-9.242,4.259
			c-8.634-2.749-17.794-3.423-26.737-1.968l0,0c-4.456,0.724-8.813,1.966-12.981,3.702l-47.3-0.037l8.55-11.795l187.809,0.261
			l10.241,11.484H239.905z M164.963,238.6c2.158,0.874,4.338,0.497,6.07-0.941c1.105-0.945,1.819-2.267,2.001-3.71
			c8.618-0.983,17.346-0.142,25.618,2.469c-0.768,1.815-1.302,3.637-1.644,5.453h-72.753l-0.026-10.412h37.442
			C160.767,234.332,162.191,237.422,164.963,238.6z M197.028,256.61l-72.022-0.047c-0.192-0.373-0.452-0.709-0.768-0.986
			c-0.637-0.559-1.464-0.852-2.311-0.819l2.496-8.668l72.568-0.039L197.028,256.61z M136.404,199.188l1.866-3.554l1.345,3.588
			L136.404,199.188z M140.429,201.865l5.512,12.189l-16.789,0.004l6.624-12.168L140.429,201.865z M128.988,188.951l8.977-2.394
			l0.002,4.102L128.988,188.951z M160.711,158.133l8.977-2.396l0.004,4.1L160.711,158.133z M171.876,169.661h-4.703l2.463-4.552
			L171.876,169.661z M166.426,170.857l5.832,0.016l8.071,15.62l-23.265-0.057L166.426,170.857z M183.965,188.248l-3.069,6.962
			l5.76-0.018l2.818-6.946l72.66,0.014l1.714,1.438l1.047-1.438h9.293c0.874,4.192,2.699,8.128,5.336,11.502l-122.352,0.057
			c0.263-1.273,0.424-2.567,0.479-3.865l0,0c0.11-2.602-0.205-5.205-0.933-7.706L183.965,188.248L183.965,188.248z M190.013,186.457
			l4.627-13.809l4.366,13.815l0,0l0,0L190.013,186.457z M219.162,164.952l5.516-12.268l3.03,4.97l1.139-3.492h3.372v-4.782
			l20.3,0.02v4.737h3.814v14.935l-53.417-0.014l-1.471-4.106h2.268l-0.691-3.187l5.797-12.421l2.924-0.024l5.273,12.382l-0.858,3.25
			L219.162,164.952L219.162,164.952z M266.554,169.072l2.474-6.826l2.781,6.826H266.554z M272.394,170.976l3.969,8.277l-1.936,2.325
			v4.792h-9.534c0.008-1.599-0.008-3.199-0.012-4.799l-2.017-2.325l3.044-8.27H272.394z M259.962,156.093l8.978-2.394l0.004,4.1
			L259.962,156.093z M261.358,186.506h-57.683c1.526-5.062,1.582-10.454,0.161-15.547l52.488,0.02
			C257.053,176.415,258.758,181.676,261.358,186.506z M209.231,147.234l1.017-2.474l1.066,2.474H209.231z M201.046,137.737
			l8.977-2.394l0.004,4.1L201.046,137.737z M156.835,201.649l141.872,0.016l3.317,3.464l2.969-3.464h4.711l4.529,12.735
			l-159.839-0.041L156.835,201.649z M286.491,186.351l4.036-10.031l3.329,10.031H286.491z M294.33,188.268L294.33,188.268
			l3.894,11.494h-16.343l3.892-11.494H294.33z M281.489,169.464l8.976-2.396l0.004,4.1L281.489,169.464z M305.465,199.762
			l1.919-4.968l1.856,4.968H305.465z M252.519,140.273v7.453h-20.3v-7.478l-2.41-5.787l2.588-2.861l0.02-6.636h20.101v6.643
			l2.716,2.832L252.519,140.273z M255.036,123.384c-0.344,0.485-0.589,0.46-0.866,0.479h-23.373
			c-0.218,0.008-0.444-0.061-0.628-0.208c-0.483-0.461-0.403-0.868-0.226-1.221l12.712-25.52l12.374,25.48
			C255.216,122.697,255.219,123.078,255.036,123.384z M242.655,88.66l0.004,4.1l-8.982-1.705L242.655,88.66z M92.996,215.875
			c0.931-2.366,1.673-4.67,2.588-6.926c0.913-2.256,1.999-4.472,3.808-8.393s4.34-9.558,7.313-14.954
			c2.973-5.398,6.388-10.555,10.098-15.506c3.712-4.949,7.718-9.691,14.622-15.869c6.905-6.18,16.708-13.798,27.446-19.793
			c10.736-5.993,22.411-10.363,34.457-13.036c12.046-2.673,24.471-3.653,36.788-2.916l-1.066,2.054
			c-12.079-0.479-24.168,0.685-35.933,3.462c-11.745,2.779-23.108,7.176-33.567,13.12s-20.011,13.436-26.745,19.5
			c-6.734,6.064-10.652,10.701-14.287,15.536c-3.637,4.837-6.987,9.874-9.941,15.129c-2.954,5.257-5.508,10.732-7.221,14.65
			c-1.711,3.916-2.578,6.272-3.378,8.652c-1.605,4.756-2.892,9.613-3.853,14.54l-4.393-2.072
			C90.935,220.714,92.024,218.318,92.996,215.875z M117.469,337.528c-2.115,2.225-4.106,2.423-6.056,2.466h-4.43v6.043h2.914v3.17
			h-9.538v-3.17h2.914v-18.735h-2.914v-3.168h10.43c0.812,0.007,1.621,0.09,2.417,0.247c1.489,0.279,2.987,0.841,4.265,2.168
			c0.423,0.438,0.787,0.929,1.084,1.461c0.481,0.869,0.801,1.818,0.947,2.8C119.854,333.241,119.109,335.701,117.469,337.528z
			 M129.64,288.494c-0.004,0.758-0.02,1.108-0.053,1.457c-0.063,0.679-0.216,1.43-0.391,2.007c-0.145,0.471-0.291,0.811-0.628,1.3
			c-1.137,1.522-2.201,1.212-3.258,0.642c-0.497-0.31-0.89-0.613-1.392-1.404c-0.23-0.359-0.491-0.831-0.736-1.31
			c-0.244-0.481-0.469-0.968-0.609-1.284c-0.158-0.332-0.273-0.682-0.344-1.043c-0.029-0.147-0.051-0.297-0.112-0.882
			c-0.063-0.583-0.163-1.6-0.259-2.62l-8.501,0.159c-0.077,0.277-0.155,0.554-0.243,0.829c-0.725,2.025-1.557,4.077-2.335,6.115
			c-0.422,0.978-0.668,1.968-1.669,2.844c-0.214,0.19-0.444,0.361-0.811,0.522s-0.87,0.312-1.384,0.355
			c-1,0.086-2.07-0.242-2.879-0.933c-0.393-0.336-0.719-0.75-0.99-1.239c-0.862-1.591-1.038-3.464-0.489-5.188l2.046-6.594
			l-2.099-0.617c-0.226,0.513-0.471,1.015-0.738,1.506c-0.55,0.998-0.998,1.748-1.97,3.003c-1.228,1.579-2.554,3.08-3.971,4.493
			c-0.732,0.742-1.483,1.469-2.836,2.514s-3.313,2.41-5.422,3.492c-2.117,1.083-4.365,1.886-6.689,2.39
			c-2.323,0.505-4.707,0.719-6.592,0.699s-3.27-0.269-4.605-0.683c-1.333-0.414-2.616-0.994-3.788-1.736
			c-1.172-0.744-2.239-1.654-3.067-2.433c-0.829-0.78-1.422-1.428-2.011-2.08c-0.589-0.652-1.172-1.306-1.746-1.972
			c-0.499,0.084-0.992,0.187-1.483,0.306c-1.504,0.316-2.979,1.084-4.756,1.435c-2.027,0.395-4.032-0.002-6.217-0.756
			c-0.772-0.267-1.53-0.571-2.27-0.915c-1.453-0.666-2.995-1.561-4.371-2.883c-0.674-0.65-1.269-1.384-1.767-2.178
			c-0.499-0.793-0.901-1.646-1.229-2.529c-1.353-3.835-1.585-7.51-1.31-11.247c0.14-2.03,0.43-4.046,0.87-6.033
			c0.314-1.441,0.663-2.875,1.047-4.299c0.896-3.385,2.066-6.691,3.499-9.886c0.789-1.752,1.667-3.464,2.635-5.125
			c0.875-1.495,1.806-2.957,2.791-4.383c0.77-1.115,1.255-1.732,1.762-2.331c1.036-1.227,2.169-2.369,3.39-3.413
			c0.73-0.629,1.477-1.239,2.239-1.83c1.373-1.039,2.726-2.105,4.199-2.987c1.169-0.677,2.412-1.214,3.706-1.602
			c0.438-0.124,0.628-0.139,0.817-0.132c0.518,0.039,1.064,0.147,1.463,0.711c0.617,1.005,0.263,1.712-0.609,2.804
			c-0.423,0.537-0.89,1.039-1.394,1.5l-1.418,1.359c-0.52,0.505-1.039,1.009-2.105,2.207c-1.457,1.631-2.832,3.333-4.118,5.102
			c-1.441,2.015-2.714,4.153-3.806,6.378s-2.005,4.534-2.718,6.608c-0.715,2.074-1.231,3.91-1.697,5.758
			c-0.465,1.848-0.878,3.708-1.163,5.208c-0.287,1.5-0.446,2.639-0.548,3.782c-0.103,1.145-0.152,2.293-0.145,3.443
			c0.057,2.213,0.053,4.536,1.076,6.575c0.473,0.987,1.111,1.886,1.885,2.659c0.774,0.77,1.679,1.408,2.667,1.864
			c0.988,0.456,2.054,0.725,2.83,0.844c0.774,0.116,1.255,0.082,1.716-0.022c0.932-0.203,1.777-0.694,2.414-1.404
			c-0.35-2.588-0.709-5.175-0.972-6.934c-0.263-1.763-0.428-2.698-0.528-3.641c-0.1-0.941-0.134-1.891-0.11-2.838
			c0.069-2.914,0.727-6.009,1.546-8.865c0.283-0.992,0.591-1.979,1.202-3.289c0.722-1.56,1.62-3.033,2.677-4.389
			c1.157-1.451,2.541-2.706,4.098-3.715c1.553-1.005,3.268-1.75,4.479-2.192c1.212-0.438,1.919-0.573,2.631-0.642
			c2.082-0.188,4.232,0.067,6.056,1.229c0.561,0.368,1.066,0.815,1.5,1.328c0.432,0.511,0.793,1.084,1.239,2.19
			c0.567,1.432,0.988,2.918,1.257,4.434c0.285,1.685,0.33,3.413,0.13,5.11c-0.2,1.697-0.642,3.36-1.09,4.652
			c-0.448,1.288-0.899,2.205-1.377,3.107c-0.475,0.899-0.978,1.787-1.516,2.649c-1.096,1.767-2.537,3.668-4.236,5.616
			c-1.754,2.004-3.662,3.867-5.707,5.573c0,1.522,0.774,2.94,2.054,3.763c0.393,0.253,0.809,0.467,1.243,0.64
			c0.906,0.368,1.878,0.546,2.855,0.522c2.09-0.023,4.141-0.566,5.968-1.581c5.343-2.898,9.691-7.336,12.48-12.737
			c1.813-3.622,3.052-7.504,3.672-11.506c0.621-3.93,0.813-8.079,0.626-11.81c-0.065-1.212-0.179-2.307-0.355-3.395
			s-0.416-2.164-0.721-3.225c-0.619-2.176-1.604-4.464-2.671-6.877c-0.552-1.243-1.113-2.482-1.591-3.476
			c-0.479-0.998-0.872-1.748-1.296-2.482c-0.86-1.53-2.123-3.183-3.584-4.931c-0.762-0.913-1.538-1.813-1.958-2.325
			c-0.42-0.511-0.489-0.632-0.534-0.76c-0.196-0.593,0.008-1.159,0.652-1.597c0.446-0.247,0.662-0.363,1.453-0.263
			c0.608,0.082,1.208,0.219,1.793,0.406c0.66,0.216,1.29,0.514,1.877,0.882c0.587,0.367,1.129,0.807,1.897,1.553
			c0.768,0.746,1.762,1.801,2.749,2.861c0.988,1.06,1.97,2.127,2.777,3.05c1.395,1.552,2.635,3.237,3.702,5.031
			c0.618,1.038,1.166,2.117,1.64,3.229c0.644,1.477,1.455,3.547,2.095,5.667s1.112,4.295,1.412,6.49
			c0.575,4.316,0.566,8.56,0.141,12.564c-0.419,3.944-1.268,7.83-2.533,11.588l2.292,0.192c0.843-1.742,1.744-3.456,2.7-5.139
			c0.958-1.685,1.972-3.334,2.736-4.532s1.276-1.946,1.826-2.663c0.536-0.689,1.09-1.365,1.661-2.025
			c0.524-0.613,0.986-1.155,1.422-1.716c0.809-0.956,1.296-2.15,2.156-2.875c0.37-0.324,0.792-0.581,1.249-0.762
			c0.86-0.32,1.716-0.42,2.296-0.275c0.282,0.073,0.548,0.197,0.786,0.365c0.236,0.172,0.437,0.385,0.595,0.63
			c0.796,1.617,1.453,3.299,1.964,5.027c0.255,0.864,0.475,1.738,1.058,4.658c0.695,3.51,1.374,7.023,2.036,10.54
			c0.501,2.659,0.554,3.008,0.593,3.362c0.05,0.487,0.081,0.976,0.092,1.465c0.035,1.029,0.06,2.058,0.077,3.087l0,0
			C129.632,286.563,129.644,287.728,129.64,288.494z M89.557,256.643c-0.065-7.242,0.218-14.479,0.846-21.71
			c0.518,1.057,1.06,2.102,1.626,3.134c-0.448,6.188-0.748,12.382-0.905,18.575L89.557,256.643L89.557,256.643z M141.299,327.302
			h-2.904l-0.01,18.735h2.914v3.17h-9.534v-3.17h2.912v-18.735h-2.912v-3.17h9.534V327.302z M152.764,300.171
			c-0.695-1.07-1.102-2.06-1.453-3.234c-0.161-0.556-0.283-1.119-0.42-2.152c-0.137-1.035-0.289-2.535-0.371-4.042
			c-0.08-1.507-0.093-3.017-0.037-4.525c-1.553,1.413-3.152,2.775-4.794,4.085c-0.642,0.509-1.076,0.829-1.524,1.135
			c-1.93,1.298-3.794,2.327-5.73,2.533c-1.445,0.161-2.681,0.069-4.069-0.585c-0.813-0.381-1.805-1.131-2.671-2.182
			c-0.45-0.56-0.811-1.192-1.072-1.862s-0.42-1.377-0.505-2.205c-0.086-0.829-0.1-1.777-0.11-2.724
			c-0.027-1.966-0.012-4.042,0.2-6.186c0.112-1.112,0.273-2.219,0.485-3.319c0.683-3.34,1.703-6.96,3.077-10.208
			c0.473-1.125,0.99-2.231,1.347-2.944c0.223-0.464,0.477-0.912,0.76-1.341c0.206-0.311,0.422-0.615,0.648-0.911
			c0.564-0.746,1.235-1.494,2.08-1.626c1.102-0.147,2.203,0.018,3.052,1.204c0.377,0.56,0.464,1.161,0.477,1.714
			c0.006,0.674,0.026,0.976-0.232,2.113c-0.135,0.603-0.361,1.502-0.611,2.394c-0.251,0.894-0.526,1.779-0.833,2.787
			s-0.638,2.135-0.919,3.278c-0.542,2.225-0.899,4.464-1.186,6.424l0,0c-0.137,0.956-0.257,1.86-0.359,2.769l-0.102,0.32
			c-0.456,0.642-0.348,1.247,0.302,1.695c0.939,0.452,1.875,0.408,2.7,0.037l7.262-2.435l3.115,0.295
			c0.434-2.742,1.034-5.455,1.797-8.124c-1.082-0.571-2.148-1.17-3.205-1.789c-1.055-0.623-2.101-1.263-2.91-1.836
			c-1.618-1.129-2.427-2.225-2.893-3.678c-0.222-0.721-0.3-1.483-0.357-2.034c-0.057-0.55-0.088-0.894,0.055-1.408
			c0.143-0.514,0.461-1.198,0.742-1.644c0.511-0.819,1.053-0.988,1.565-1.194c0.346-0.128,0.726-0.134,1.076-0.018
			c0.306,0.13,0.589,0.151,0.88,0.701c0.135,0.275,0.273,0.715,0.489,1.109c0.222,0.394,0.511,0.745,0.854,1.039
			c0.398,0.331,0.843,0.6,1.322,0.797c2.276,0.948,4.686,1.537,7.142,1.746c1.275-1.154,2.605-2.246,3.985-3.272
			c1.092-0.797,1.791-1.188,2.531-1.473c1.52-0.619,3.317-0.619,4.519-0.414c0.498,0.069,0.983,0.209,1.441,0.414
			c0.404,0.181,0.781,0.417,1.119,0.701c0.34,0.288,0.645,0.616,0.907,0.976c0.54,0.755,0.984,1.574,1.322,2.439
			c1.202,2.81,0.636,5.503-1.718,7.965c-0.605,0.615-1.19,1.096-1.536,1.286c-0.169,0.098-0.344,0.183-0.524,0.259
			s-0.365,0.139-1.518,0.448c-1.151,0.312-3.27,0.87-5.391,1.416c-0.992,4.047-1.624,8.134-1.87,12.193
			c-0.122,2.054-0.141,4.114-0.141,5.638c0,1.526,0.02,2.518,0.022,3.511c0.004,0.99-0.008,1.983,0.002,2.659
			s0.043,1.033,0.028,1.39c-0.028,0.685-0.265,1.434-0.593,1.999c-0.377,0.636-0.784,0.878-1.223,1.066
			c-0.251,0.098-0.518,0.161-1.037,0.126c-0.518-0.035-1.286-0.165-2.007-0.432s-1.39-0.668-1.964-1.176
			C153.608,301.353,153.133,300.736,152.764,300.171z M175.399,346.783c-0.825,0.697-1.738,1.29-2.71,1.758
			c-1.966,0.935-3.939,1.324-5.662,1.276c-1.744-0.051-3.372-0.352-5.194-1.218c-1.815-0.852-3.796-2.337-5.11-4.236
			c-0.66-0.931-1.196-1.95-1.589-3.022c-1.371-3.867-1.066-7.822,0.854-11.245c1.411-2.495,3.605-4.456,6.243-5.577
			c0.772-0.33,1.579-0.581,2.402-0.75c2.427-0.495,4.9-0.234,6.914,0.575c1.237,0.504,2.365,1.241,3.325,2.17
			c0.132,0.124,0.261,0.251,0.389,0.379v-2.761h3.117v7.168h-3.58c-0.762-1.228-1.835-2.232-3.111-2.91
			c-3.03-1.637-6.712-1.486-9.597,0.395c-1.061,0.705-1.961,1.627-2.641,2.704c-0.34,0.534-0.622,1.108-0.858,1.793
			c-0.254,0.743-0.423,1.511-0.505,2.292c-0.247,2.551,0.452,5.228,2.36,7.36c1.387,1.53,3.25,2.549,5.286,2.893
			c2.657,0.412,5.3-0.189,7.698-2.274c0.568-0.511,1.065-1.096,1.477-1.74h4.073C178.344,343.521,177.068,345.391,175.399,346.783z
			 M210.629,331.507h-3.01v-3.99h-4.43v18.521h2.914v3.17h-9.538v-3.17h2.916v-18.521h-4.43v3.99h-3.022v-7.374h18.601v7.374
			H210.629z M247.122,327.306h-2.914v13.911c0,1.663-0.33,3.429-1.267,4.888c-0.979,1.563-2.482,2.726-4.24,3.283
			c-1.738,0.532-3.586,0.593-5.355,0.179c-1.463-0.321-2.8-1.066-3.843-2.141c-0.375-0.389-0.713-0.819-0.982-1.239
			c-0.941-1.463-1.28-3.05-1.32-4.548c-0.016-4.78-0.004-9.554-0.008-14.334h-2.914l0.012-3.168h9.206v3.168h-2.596v13.301
			c-0.004,1.269,0.149,2.641,0.982,3.757c0.291,0.399,0.643,0.749,1.043,1.037c0.81,0.578,1.782,0.884,2.777,0.874
			c1.402,0.03,2.74-0.589,3.625-1.677c0.291-0.355,0.528-0.756,0.701-1.18c0.334-0.837,0.44-1.777,0.464-2.4
			c0.016-4.572,0.004-9.143,0.008-13.715h-2.592v-3.168h9.202l0.012,3.168L247.122,327.306L247.122,327.306z M255.647,286.316
			c-0.617,0.723-1.273,1.412-1.964,2.062c-3.82,3.518-8.283,6.265-13.144,8.091c-3.708,1.422-7.743,2.188-11.429,2.602
			c-2.746,0.296-5.511,0.376-8.27,0.24c-3.763-0.172-7.516-0.52-11.247-1.043c-0.145,0.589-0.387,1.153-0.715,1.661
			c-0.328,0.509-0.742,0.962-1.22,1.331c-0.477,0.371-1.017,0.658-1.534,0.844c-1.402,0.509-2.95,0.314-4.226-0.658
			c-0.778-0.61-1.331-1.461-1.573-2.419c-0.183-0.772-0.365-1.542-0.503-2.141l-0.32-1.412l-0.242-1.084
			c-2.958-1.708-5.896-3.45-8.814-5.226c-1.102-0.679-1.769-1.117-2.423-1.575c-0.652-0.46-1.29-0.941-1.909-1.445
			c-1.284-1.039-2.667-2.345-4.136-3.79c-0.764-0.754-1.518-1.52-2.029-2.058c-0.511-0.54-0.78-0.856-1.027-1.186
			c-0.901-1.255-1.514-2.423-1.711-3.737c-0.239-1.679,0.31-3.374,1.489-4.593c1.294-1.261,2.757-2.335,4.348-3.191
			c2.118-1.153,4.352-2.077,6.665-2.757c3.254-0.935,6.581-1.598,9.945-1.983c0.412-2.439,0.736-5.092,1.011-7.272
			c0.139-1.076,0.273-1.981,0.454-2.879c0.364-1.796,0.898-3.554,1.595-5.249c0.082-0.185,0.194-0.356,0.332-0.505
			c0.823-0.786,1.563-0.695,2.223-0.403c0.66,0.279,1.381,0.998,1.652,1.549c0.226,0.428,0.383,0.717,0.628,1.302
			c0.375,0.877,0.668,1.788,0.874,2.72c0.711,3.019,1.123,6.101,1.229,9.2c3.715,0.045,7.422,0.338,11.097,0.878
			c1.589,0.219,3.165,0.523,4.721,0.911c3.003,0.774,5.889,1.944,8.584,3.478c0.504,0.306,0.979,0.657,1.42,1.049
			c0.439,0.395,0.841,0.83,1.2,1.298c1.999,2.592,2.036,5.302,0.933,7.57c-0.314,0.625-0.725,1.2-1.216,1.701
			c-1.728,1.673-3.344,2.575-5.124,2.739c-1.167,0.063-2.298-0.161-3.115-0.632c-0.3-0.185-0.583-0.399-0.772-0.571
			c-0.189-0.173-0.277-0.308-0.342-0.45c-0.184-0.428-0.126-0.923,0.153-1.296c0.469-0.463,0.945-0.878,1.432-1.255
			c0.68-0.513,1.226-1.182,1.593-1.95c-6.8-2.312-13.859-3.781-21.016-4.375l0.189,19.534c3.591,0.522,7.206,0.853,10.832,0.992
			c5.526,0.168,11.034-0.706,16.237-2.576c2.596-0.933,5.108-2.109,6.93-3.203c1.824-1.098,2.963-2.111,3.892-3.295
			c0.93-1.187,1.643-2.529,2.105-3.965c0.93-2.895,0.787-6.029-0.403-8.827c-1.354-3.356-3.294-6.444-5.73-9.12
			c-1.526-1.606-3.054-3.215-4.672-4.725c-1.618-1.506-3.329-2.918-5.039-4.33c-2.757-2.178-5.696-4.116-8.784-5.791
			c-1.545-0.837-3.122-1.608-5.885-2.802c-3.531-1.525-7.103-2.952-10.713-4.281c-4.004-1.466-8.06-2.786-12.16-3.955
			c-4.683-1.225-9.488-1.919-14.326-2.07c-2.417-0.071-4.837,0.006-6.359,0.094c-1.522,0.088-2.15,0.187-2.763,0.34
			c-1.231,0.302-2.399,0.818-3.452,1.522c0.566-0.222,1.187-0.262,1.777-0.114c0.342,0.047,0.67,0.456,0.693,0.689
			c0.173,0.522-0.438,1.082-0.823,1.351c-1.703,1.021-3.448,1.528-4.972,1.428c-0.599-0.065-1.121-0.206-1.481-0.381
			c-0.709-0.328-1.424-0.848-1.644-1.459c-0.416-1.106-0.234-2.127,0.882-2.952c1.821-1.451,3.805-2.686,5.911-3.678
			c1.051-0.497,2.131-0.933,3.248-1.298c3.401-1.082,6.945-1.647,10.514-1.677c10.066-0.311,20.114,1.062,29.728,4.063
			c4.798,1.502,9.463,3.399,13.947,5.673c1.835,0.949,3.636,1.961,5.4,3.034c3.531,2.148,6.905,4.545,10.096,7.172
			c4.677,3.461,8.798,7.617,12.219,12.323c2.881,3.543,4.527,7.213,5.726,10.775l0,0c1.284,4.387,0.748,8.812-1.467,12.733
			C257.958,283.301,256.88,284.871,255.647,286.316z M281.736,349.21h-5.361l-7.936-11.296l2.628,0.018
			c1.331-0.006,2.769-0.139,3.928-0.921c1.089-0.717,1.86-1.826,2.152-3.097c0.389-1.566,0.049-3.224-0.925-4.511
			c-1.267-1.585-2.474-1.716-3.553-1.822c-1.767-0.071-3.525-0.024-5.288-0.033v18.489h2.49v3.17h-9.094v-3.17h2.93v-18.735h-2.93
			v-3.168h11.327c1.538,0.002,3.156,0.198,4.56,0.943c0.705,0.362,1.348,0.831,1.907,1.392c0.552,0.554,1.019,1.186,1.388,1.875
			c0.349,0.656,0.61,1.355,0.776,2.08c0.515,2.382,0.245,4.731-1.316,6.911c-1.781,2.343-3.529,2.698-5.182,2.847l4.468,5.854v0.004
			h3.032v3.17H281.736z M291.626,293.788c-1.657-0.045-3.315-0.245-4.937-0.593c-1.626-0.348-3.219-0.842-4.422-1.316
			c-0.984-0.37-1.917-0.863-2.777-1.469c-0.756-0.54-1.455-1.164-2.068-1.86c-0.611-0.697-1.139-1.465-1.477-2.048
			c-0.342-0.583-0.495-0.978-0.587-1.388c-0.094-0.409-0.126-0.83-0.096-1.249c0.165-1.41,0.693-2.71,2.504-4.004
			c0.403-0.268,0.827-0.504,1.267-0.707c0.453-0.213,0.923-0.389,1.404-0.528c0.479-0.141,0.97-0.244,1.815-0.348
			c2.266-0.276,4.549-0.372,6.83-0.289c1.073,0.043,2.143,0.121,3.211,0.234c0.567,0.051,1.129,0.142,1.683,0.273
			c1.167,0.295,2.362,0.754,3.28,1.481c0.876,0.736,1.324,1.475,1.42,1.966c0.06,0.344,0.009,0.698-0.145,1.011
			c-0.155,0.313-0.412,0.565-0.729,0.713c-1.163,0.525-2.393,0.885-3.655,1.07c-2.536,0.367-5.125,0.016-7.472-1.013
			c-1.445-0.678-2.995-0.962-4.142-0.909c-0.628,0.043-1.273,0.169-1.856,0.467c-0.611,0.513-0.514,0.958-0.369,1.351
			c0.181,0.35,0.35,0.432,0.526,0.528c5.94,1.981,11.952,1.854,17.602-0.642c0.365-0.175,0.72-0.37,1.062-0.585
			c0.854-0.534,1.985-1.432,2.19-1.921c0.261-0.666,0.151-1.278-0.532-1.767c-1.928-1.138-4.032-1.947-6.225-2.394
			c-2.441-0.505-4.898-0.463-7.311-0.485c-2.63-0.01-5.292,0.548-7.908,0.075c-1.328-0.242-2.743-0.485-3.882-1.322
			c-0.587-0.42-1.09-0.958-1.477-1.567c-0.779-1.236-1.051-2.726-0.758-4.157c0.389-1.428,0.99-2.718,2.559-4.094
			c0.51-0.44,1.048-0.846,1.61-1.216c1.171-0.775,2.432-1.406,3.755-1.877c3.798-1.283,7.736-2.106,11.73-2.451
			c1.782-0.138,3.568-0.204,5.355-0.198c2.285-0.029,4.564,0.22,6.789,0.742c0.457,0.106,0.901,0.262,1.324,0.465
			c0.379,0.188,0.734,0.42,1.058,0.691c0.648,0.552,1.07,1.096,1.192,1.494c0.299,0.945,0.088,1.76-0.925,2.724
			c-0.947,0.862-1.871,1.072-2.612,1.225c-7.488,0.937-14.954,1.762-22.434,2.641l0,0c1.551,0.338,3.109,0.64,4.674,0.903
			c3.9,0.646,7.8,0.913,11.683,1.341c1.799,0.151,3.518,0.816,4.951,1.915c0.722,0.56,1.357,1.224,1.883,1.972
			c0.563,0.796,1.018,1.664,1.353,2.58c0.74,1.877,0.791,4.163,0.607,5.567c-0.084,0.705-0.204,1.119-0.353,1.522
			c-0.414,1.123-1.1,2.203-2.362,3.37c-0.391,0.357-0.805,0.687-1.239,0.988c-0.432,0.304-0.886,0.573-1.445,0.86
			c-1.281,0.635-2.62,1.146-3.998,1.524c-0.705,0.196-1.418,0.361-2.608,0.499C294.947,293.721,293.287,293.831,291.626,293.788z
			 M313.393,331.196h-3.719v-3.664h-7.629v7.517h8.313v2.985h-8.313v7.853h7.629v-3.745h3.719v7.064h-17.969v-3.17h2.914v-18.735
			h-2.914v-3.17h17.969V331.196z M325.818,288.315c-3.045-3.796-5.625-7.942-7.686-12.35c-0.548,4.507-1.058,9.022-1.646,13.525
			c-0.177,1.053-0.452,2.135-1.534,2.961c-1.402,1.076-3.372,0.996-4.682-0.19c-0.338-0.32-0.56-0.66-0.721-0.998
			c-1.151-3.342-1.208-6.7-0.483-9.905l1.108-6.282c0.437-3.405,1.403-6.721,2.865-9.827c0.161-0.359,0.383-0.687,0.656-0.97
			c0.275-0.281,0.601-0.511,0.954-0.677c1.092-0.517,2.38-0.384,3.344,0.344c0.875,0.717,1.697,1.496,2.459,2.331
			c0.379,0.418,0.744,0.85,1.86,2.26c1.113,1.414,2.981,3.806,4.189,5.338c0.755,0.971,1.528,1.928,2.317,2.871
			c0.778,1.09,1.559,2.178,1.76,1.907s-0.185-1.899-0.564-3.527l-0.829-3.515c-0.889-3.206-1.757-6.419-2.604-9.636
			c0.847,3.218,1.715,6.43,2.604,9.636l0,0l-2.604-9.638c-0.269-1.053-0.469-2.109-0.595-3.174
			c-0.069-0.809,0.169-1.628,1.119-2.225c0.253-0.149,0.534-0.245,0.825-0.285c1.176-0.094,2.294,0.442,3.333,1.571
			c1.194,1.374,2.274,2.844,3.23,4.393c0.961,1.547,1.795,3.169,2.494,4.851c0.699,1.682,1.263,3.417,1.687,5.188
			c0.461,1.951,0.732,3.941,0.809,5.944c0.114,2.961-0.135,5.988-1.738,8.737c-0.499,0.874-1.096,1.691-1.775,2.431
			c-0.342,0.369-0.721,0.703-1.131,0.994c-1.968,1.312-3.763,1.61-5.512,0.911C328.156,290.84,326.992,289.629,325.818,288.315z
			 M344.96,343.398c-0.218,1.544-0.914,2.982-1.991,4.11c-1.279,1.343-3.005,2.171-4.853,2.327
			c-1.706,0.141-3.429-0.114-4.962-1.371c-0.391-0.324-0.74-0.699-1.039-1.11v1.848l0,0v0.004l0,0v-0.004h-2.987V342.1h3.409
			c0.061,1.273,0.326,2.586,1.775,3.69c1.981,1.214,3.985,1.076,5.618-0.22c0.387-0.336,0.707-0.742,0.943-1.198
			c0.54-1.08,0.583-2.233,0.249-3.215c-0.2-0.727-0.917-1.542-1.469-1.879c-2.178-1.227-4.254-1.239-6.302-2.194
			c-1.07-0.501-2.125-1.11-3.058-2.304c-0.766-0.99-1.127-1.978-1.292-3.003c-0.287-2.123,0.196-4.201,2.08-6.06
			c0.34-0.315,0.709-0.595,1.104-0.839c1.3-0.79,2.797-1.197,4.318-1.174c0.86,0.022,1.708,0.206,2.5,0.542
			c0.717,0.291,1.602,1.035,2.029,1.744v-1.86h2.889v6.49h-3.352c-0.027-0.858-0.265-1.705-0.994-2.498
			c-1.514-1.506-2.889-1.357-4.242-1.057c-0.797,0.261-1.663,0.699-2.266,1.799c-0.699,1.398-0.546,2.663,0.214,3.884
			c0.501,0.768,1.457,1.194,2.093,1.432c0.966,0.35,2.017,0.564,3.067,0.842c1.875,0.538,3.9,1.143,5.53,3.425
			c0.268,0.404,0.482,0.842,0.636,1.302C345.015,340.921,345.135,342.171,344.96,343.398z M358.088,292.549
			c-1.925,0.933-3.888,1.785-5.884,2.555c-2.741,0.929-5.522,1.143-7.928,0.12c-1.123-0.534-2.053-1.404-2.661-2.488
			c-0.367-0.697-0.736-1.396-1.051-2.117c-0.744-1.775-1.424-3.651-1.147-5.396c0.342-2.172,1.453-4.393,2.7-6.569
			c-0.194-0.251-0.352-0.536-0.459-0.837c-0.385-1.249-0.161-2.431,1.119-3.393c0.266-0.179,0.56-0.313,0.87-0.397l1.86-4.091
			c-1.477-0.237-2.825-0.985-3.808-2.113c-0.96-1.174-1.041-2.313-0.685-3.248c0.208-0.472,0.584-0.851,1.055-1.062
			c1.159-0.491,2.349-0.919,3.556-1.278c5.035-1.506,9.833-1.542,14.781-1.799c2.812-0.189,5.556,0.922,7.445,3.014
			c0.601,0.726,1.14,1.499,1.614,2.313c0.528,1.057,0.306,1.932-0.664,2.824c-0.515,0.446-1.062,0.677-1.593,0.787
			c-2.459,0.475-4.909,1.009-7.533,1.28c-1.822,0.187-3.651,0.22-5.469,0.116l-0.214,2.313c2.276,0.12,4.55,0.179,6.816,0.361
			c0.941,0.155,1.923,0.381,2.651,1.337c0.725,0.949,0.862,2.224,0.353,3.305c-0.242,0.516-0.956,1.088-1.489,1.216
			c-1.009,0.312-2.325,0.679-2.954,0.848c-0.285,0.079-0.326,0.086-0.365,0.094c-2.121,0.039-4.238,0.006-6.355,0.008
			c-0.642,0.002-1.282-0.059-1.919-0.159c-1.167,2.221-2.331,4.444-1.948,5.208c0.379,0.762,2.313,0.065,4.246-0.63
			c1.86-0.45,3.686-0.952,5.581-1.349c1.762-0.208,3.625-0.57,5.182,0.774c0.309,0.269,0.574,0.584,0.786,0.935
			c0.776,1.438,0.825,2.806-0.126,3.963c-0.2,0.222-0.434,0.409-1.496,1.007C361.9,290.603,360.013,291.616,358.088,292.549z
			 M400.104,282.966c-1.025,1.495-2.222,2.865-3.566,4.081c-0.842,0.77-1.71,1.511-2.604,2.221
			c-0.935,0.742-1.895,1.455-2.661,1.985c-0.766,0.53-1.345,0.882-1.94,1.198c-1.237,0.657-2.546,1.168-3.9,1.524
			c-1.848,0.492-3.713,0.914-5.593,1.267c-0.844,2.068-1.685,4.134-2.309,5.681c-0.622,1.547-1.106,2.551-1.428,3.607l-0.954,3.175
			c-0.947,3.971-1.991,7.934-3.022,11.912c-1.942,1.624-3.863,1.673-5.42,0.222c-2.284-2.415-3.407-4.815-3.552-7.164
			c-0.037-0.538-0.026-1.078,0.196-2.649c0.328-2.26,0.741-4.506,1.239-6.734c0.584-2.567,1.308-5.099,2.17-7.586
			c0.861-2.489,1.852-4.93,2.969-7.315c-0.297-0.774-0.55-1.565-0.76-2.366c-0.426-1.593-0.676-3.393-0.744-4.748
			c-0.067-1.087,0.014-2.179,0.242-3.244c0.108-0.507,0.245-1.007,0.579-1.917c0.334-0.911,0.862-2.229,1.473-3.507
			c1.236-2.558,2.785-4.953,4.611-7.129c1.117-1.303,2.275-2.571,3.472-3.802c0.236-0.257,0.497-0.491,0.778-0.699
			c0.962-0.621,2.017-0.974,2.757-0.059c0.112,0.145,0.189,0.314,0.253,0.554c0.065,0.24,0.114,0.55,0.13,0.864
			c0.014,0.67,0.004,1.084-0.365,2.064c-0.192,0.509-0.491,1.227-0.833,1.925s-0.721,1.377-1.284,2.423
			c-0.568,1.047-1.32,2.461-1.987,3.912c-0.672,1.453-1.261,2.944-1.779,4.458c2.303-2.34,4.695-4.59,7.172-6.746
			c2.474-2.158,5.031-4.22,6.62-5.408s2.205-1.504,2.857-1.708c2.034-0.607,4.089-0.206,5.766,1.227
			c1.74,1.642,3.017,3.712,3.706,6.003c0.338,1.143,0.528,2.324,0.564,3.515l0,0C403.099,277.043,402.236,279.898,400.104,282.966z"
			/>
		<polygon points="281.489,169.464 290.469,171.169 290.465,167.069 		"/>
		<polygon points="314.233,214.4 309.704,201.665 304.993,201.665 302.024,205.129 298.707,201.665 156.835,201.649 
			154.394,214.359 		"/>
		<polygon points="201.046,137.737 210.026,139.444 210.022,135.343 		"/>
		<polygon points="259.962,156.093 268.944,157.799 268.94,153.699 		"/>
		<polygon points="209.231,147.234 211.314,147.234 210.248,144.76 		"/>
		<polygon points="281.881,199.762 298.224,199.762 294.33,188.268 294.33,188.268 285.774,188.268 		"/>
		<polygon points="211.743,149.32 208.819,149.343 203.021,161.764 203.713,164.952 201.445,164.952 202.915,169.058 
			256.333,169.072 256.333,154.137 252.519,154.137 252.519,149.4 232.219,149.381 232.219,154.163 228.847,154.163 
			227.708,157.654 224.678,152.684 219.162,164.952 216.157,164.952 217.015,161.702 		"/>
		<polygon points="286.491,186.351 293.855,186.351 290.526,176.32 		"/>
		<polygon points="129.153,214.058 145.942,214.054 140.429,201.865 135.777,201.891 		"/>
		<polygon points="136.404,199.188 139.614,199.222 138.269,195.634 		"/>
		<path d="M290.222,246.398c-1.52,3.009-3.643,5.673-6.237,7.826c-1.295,1.071-2.695,2.007-4.181,2.792l41.701-0.018l-2.873-10.61
			L290.222,246.398z"/>
		<polygon points="252.519,124.963 232.417,124.963 232.398,131.598 229.809,134.46 232.219,140.247 232.219,147.725 
			252.519,147.725 252.519,140.273 255.235,134.438 252.519,131.606 		"/>
		<polygon points="171.876,169.661 169.635,165.109 167.172,169.661 		"/>
		<path d="M157.65,195.954L157.65,195.954c-0.055,1.298-0.216,2.592-0.479,3.865l122.352-0.057
			c-2.637-3.374-4.462-7.31-5.336-11.502h-9.293l-1.047,1.438l-1.714-1.438l-72.66-0.014l-2.818,6.946l-5.76,0.018l3.069-6.962
			h-27.248C157.445,190.749,157.76,193.352,157.65,195.954z"/>
		<polygon points="128.988,188.951 137.967,190.66 137.965,186.557 		"/>
		<polygon points="180.33,186.492 172.259,170.872 166.426,170.857 157.065,186.435 		"/>
		<polygon points="160.711,158.133 169.692,159.838 169.688,155.737 		"/>
		<polygon points="305.465,199.762 309.239,199.762 307.383,194.793 		"/>
		<polygon points="192.028,331.507 195.05,331.507 195.05,327.516 199.481,327.516 199.481,346.037 196.564,346.037 
			196.564,349.206 206.103,349.206 206.103,346.037 203.188,346.037 203.188,327.516 207.619,327.516 207.619,331.507 
			210.629,331.507 210.629,324.133 192.028,324.133 		"/>
		<path d="M173.431,343.553c-2.398,2.086-5.041,2.686-7.698,2.274c-2.037-0.343-3.899-1.362-5.286-2.893
			c-1.909-2.133-2.608-4.809-2.36-7.36c0.082-0.78,0.251-1.549,0.505-2.292c0.236-0.685,0.518-1.259,0.858-1.793
			c0.68-1.078,1.58-1.999,2.641-2.704c2.885-1.881,6.567-2.032,9.597-0.395c1.276,0.678,2.349,1.683,3.111,2.91h3.58v-7.168h-3.117
			v2.761c-0.128-0.128-0.257-0.255-0.389-0.379c-0.959-0.929-2.088-1.666-3.325-2.17c-2.015-0.809-4.487-1.07-6.914-0.575
			c-0.823,0.169-1.63,0.42-2.402,0.75c-2.638,1.122-4.832,3.082-6.243,5.577c-1.921,3.423-2.225,7.378-0.854,11.245
			c0.393,1.072,0.929,2.091,1.589,3.022c1.314,1.899,3.295,3.384,5.11,4.236c1.822,0.866,3.45,1.166,5.194,1.218
			c1.722,0.047,3.696-0.342,5.662-1.276c0.972-0.467,1.885-1.06,2.71-1.758c1.669-1.392,2.946-3.262,3.582-4.97h-4.073
			C174.496,342.456,173.999,343.042,173.431,343.553z"/>
		<path d="M343.973,338.449c-1.63-2.282-3.655-2.887-5.53-3.425c-1.051-0.279-2.101-0.493-3.067-0.842
			c-0.636-0.238-1.593-0.664-2.093-1.432c-0.76-1.221-0.913-2.486-0.214-3.884c0.603-1.1,1.469-1.538,2.266-1.799
			c1.353-0.3,2.728-0.45,4.242,1.057c0.729,0.793,0.966,1.64,0.994,2.498h3.352v-6.49h-2.889v1.86
			c-0.426-0.709-1.312-1.453-2.029-1.744c-0.792-0.336-1.64-0.52-2.5-0.542c-1.521-0.023-3.018,0.384-4.318,1.174
			c-0.394,0.243-0.764,0.524-1.104,0.839c-1.883,1.86-2.366,3.937-2.08,6.06c0.165,1.025,0.526,2.013,1.292,3.003
			c0.933,1.194,1.987,1.803,3.058,2.304c2.048,0.954,4.124,0.966,6.302,2.194c0.552,0.338,1.269,1.153,1.469,1.879
			c0.334,0.982,0.291,2.135-0.249,3.215c-0.235,0.455-0.555,0.862-0.943,1.198c-1.634,1.296-3.637,1.434-5.618,0.22
			c-1.449-1.104-1.714-2.417-1.775-3.69h-3.409v7.103h2.987v-1.848c0.298,0.41,0.648,0.786,1.039,1.11
			c1.534,1.257,3.256,1.512,4.962,1.371c1.848-0.156,3.574-0.984,4.853-2.327c1.077-1.128,1.773-2.566,1.991-4.11
			c0.175-1.226,0.054-2.477-0.352-3.647C344.455,339.291,344.241,338.853,343.973,338.449z"/>
		<path d="M237.908,324.135v3.168h2.592c-0.004,4.572,0.008,9.143-0.008,13.715c-0.024,0.622-0.13,1.563-0.464,2.4
			c-0.173,0.424-0.41,0.825-0.701,1.18c-0.885,1.088-2.223,1.707-3.625,1.677c-0.995,0.01-1.967-0.296-2.777-0.874
			c-0.4-0.288-0.752-0.638-1.043-1.037c-0.833-1.115-0.986-2.488-0.982-3.757v-13.301h2.596v-3.168h-9.206l-0.012,3.168h2.914
			c0.004,4.78-0.008,9.554,0.008,14.334c0.039,1.498,0.379,3.085,1.32,4.548c0.269,0.42,0.607,0.85,0.982,1.239
			c1.043,1.075,2.38,1.819,3.843,2.141c1.77,0.414,3.617,0.353,5.355-0.179c1.758-0.557,3.261-1.721,4.24-3.283
			c0.937-1.459,1.267-3.225,1.267-4.888v-13.911h2.914v-0.004l-0.012-3.168L237.908,324.135L237.908,324.135z"/>
		<rect x="332.115" y="349.203" width="0" height="0.004"/>
		<polygon points="295.424,327.302 298.338,327.302 298.338,346.037 295.424,346.037 295.424,349.206 313.393,349.206 
			313.393,342.143 309.673,342.143 309.673,345.888 302.044,345.888 302.044,338.034 310.357,338.034 310.357,335.049 
			302.044,335.049 302.044,327.532 309.673,327.532 309.673,331.196 313.393,331.196 313.393,324.133 295.424,324.133 		"/>
		<path d="M278.704,346.037l-4.468-5.854c1.654-0.149,3.401-0.505,5.182-2.847c1.561-2.18,1.83-4.529,1.316-6.911
			c-0.166-0.724-0.427-1.424-0.776-2.08c-0.369-0.689-0.837-1.321-1.388-1.875c-0.559-0.561-1.202-1.031-1.907-1.392
			c-1.404-0.744-3.022-0.941-4.56-0.943h-11.327v3.168h2.93v18.735h-2.93v3.17h9.094v-3.17h-2.49v-18.489
			c1.763,0.01,3.521-0.037,5.288,0.033c1.078,0.106,2.286,0.238,3.553,1.822c0.974,1.287,1.314,2.945,0.925,4.511
			c-0.292,1.271-1.063,2.38-2.152,3.097c-1.159,0.782-2.596,0.915-3.928,0.921l-2.628-0.018l7.936,11.296h5.361v-3.17h-3.032v-0.004
			H278.704z"/>
		<polygon points="131.765,327.302 134.677,327.302 134.677,346.037 131.765,346.037 131.765,349.206 141.299,349.206 
			141.299,346.037 138.385,346.037 138.395,327.302 141.299,327.302 141.299,324.133 131.765,324.133 		"/>
		<path d="M315.174,217.051l-187.809-0.261l-8.55,11.795l47.3,0.037c4.168-1.735,8.524-2.978,12.981-3.702l0,0
			c8.943-1.456,18.103-0.781,26.737,1.968c3.02-1.958,6.149-3.588,9.242-4.259c1.074-0.261,2.162-0.462,3.258-0.605
			c1.098-0.143,2.201-0.234,3.859-0.173c1.657,0.061,3.867,0.273,6.013,0.762s4.234,1.257,6.206,2.254
			c1.969,1.004,3.814,2.235,5.497,3.668h85.509L315.174,217.051z"/>
		<polygon points="242.655,88.66 233.676,91.056 242.659,92.761 		"/>
		<path d="M124.23,231.459l0.026,10.412h72.753c0.342-1.817,0.876-3.639,1.644-5.453c-8.272-2.611-17-3.452-25.618-2.469
			c-0.183,1.442-0.896,2.765-2.001,3.71c-1.732,1.438-3.912,1.815-6.07,0.941c-2.772-1.178-4.197-4.268-3.291-7.14H124.23V231.459z"
			/>
		<path d="M124.423,246.09l-2.496,8.668c0.847-0.034,1.674,0.26,2.311,0.819c0.316,0.277,0.575,0.613,0.768,0.986l72.022,0.047
			l-0.037-10.559L124.423,246.09z"/>
		<path d="M292.456,241.875l26.189,0.028v-10.512h-0.002l-35.474,0.026c1.231,0.232,2.427,0.668,3.517,1.284
			C290.029,234.596,292.196,238.042,292.456,241.875z"/>
		<path d="M255.887,124.376c14.948,3.07,29.235,8.759,42.202,16.804c12.953,8.071,24.364,18.385,33.699,30.458
			c9.326,12.08,16.427,25.725,20.969,40.295c4.514,14.577,6.415,29.838,5.615,45.077h1.972c1.082-15.496-0.644-31.199-5.127-46.071
			s-11.726-28.915-21.227-41.208c-9.505-12.293-21.272-22.835-34.535-30.92s-28.023-13.709-43.292-16.565
			c0.436,0.524,0.538,1.121,0.083,1.799C256.145,124.176,256.024,124.288,255.887,124.376z"/>
		<path d="M97.978,210.584c0.799-2.38,1.667-4.737,3.378-8.652c1.712-3.918,4.267-9.393,7.221-14.65
			c2.954-5.255,6.304-10.292,9.941-15.129c3.635-4.835,7.553-9.471,14.287-15.536c6.734-6.064,16.286-13.556,26.745-19.5
			s21.822-10.341,33.567-13.12c11.766-2.777,23.854-3.942,35.933-3.462l1.066-2.054c-12.317-0.736-24.742,0.243-36.788,2.916
			c-12.046,2.673-23.721,7.042-34.457,13.036c-10.738,5.995-20.541,13.613-27.446,19.793c-6.905,6.178-10.911,10.921-14.622,15.869
			c-3.71,4.951-7.125,10.108-10.098,15.506c-2.973,5.396-5.505,11.033-7.313,14.954s-2.895,6.137-3.808,8.393
			c-0.915,2.256-1.657,4.56-2.588,6.926c-0.972,2.444-2.061,4.839-3.264,7.178l4.393,2.072
			C95.086,220.198,96.373,215.34,97.978,210.584z"/>
		<path d="M203.836,170.959c1.421,5.093,1.365,10.485-0.161,15.547h57.683c-2.599-4.83-4.305-10.091-5.033-15.528L203.836,170.959z"
			/>
		<path d="M259.233,237.268c3.433-2.746,7.405-4.741,11.659-5.854l-28.371-0.026c2.659,3.113,4.746,6.672,6.164,10.512l5.876-0.028
			C255.953,240.183,257.523,238.637,259.233,237.268z"/>
		<path d="M270.892,231.414L270.892,231.414L270.892,231.414z"/>
		<path d="M269.525,269.514c-0.034-0.612-0.095-1.223-0.181-1.83c-0.126-0.836-0.32-1.66-0.579-2.465
			c-0.281-0.907-0.787-1.729-1.473-2.386c-0.938-1.009-2.514-1.072-3.529-0.141c-0.571,0.499-0.744,1.219-0.958,1.862
			c-0.241,0.799-0.4,1.621-0.473,2.453c-0.065,0.593-0.134,1.398-0.189,2.205c-0.057,0.805-0.096,1.612-0.145,2.557
			c-0.096,1.911-0.261,4.203-0.548,6.323c-0.632,4.198-0.729,8.46-0.289,12.682c0.077,0.965,0.471,1.877,1.121,2.594
			c0.983,1.093,2.452,1.614,3.904,1.384c0.844-0.163,1.643-0.506,2.343-1.005c0.913-0.679,1.235-1.492,1.316-2.315
			c0.13-2.227,0.204-4.456,0.214-6.685c0.01-2.229-0.039-4.46-0.096-6.333c-0.057-1.872-0.126-3.388-0.204-4.9
			C269.68,272.002,269.59,270.486,269.525,269.514z"/>
		<polygon points="190.013,186.457 199.005,186.463 194.64,172.648 		"/>
		<path d="M229.943,122.434c-0.177,0.353-0.257,0.76,0.226,1.221c0.185,0.147,0.41,0.216,0.628,0.208h23.373
			c0.277-0.02,0.522,0.006,0.866-0.479c0.182-0.305,0.179-0.687-0.008-0.99l-12.374-25.48L229.943,122.434z"/>
		<path d="M262.864,179.246l2.017,2.325c0.004,1.601,0.02,3.201,0.012,4.799h9.534v-4.792l1.936-2.325l-3.969-8.277h-6.486
			L262.864,179.246z"/>
		<polygon points="266.554,169.072 271.809,169.072 269.028,162.245 		"/>
		<path d="M298.745,293.085c1.379-0.378,2.718-0.889,3.998-1.524c0.56-0.287,1.013-0.556,1.445-0.86
			c0.434-0.3,0.848-0.63,1.239-0.988c1.263-1.167,1.948-2.247,2.362-3.37c0.149-0.403,0.269-0.817,0.353-1.522
			c0.185-1.404,0.134-3.69-0.607-5.567c-0.335-0.916-0.79-1.784-1.353-2.58c-0.526-0.747-1.161-1.412-1.883-1.972
			c-1.433-1.099-3.151-1.763-4.951-1.915c-3.882-0.428-7.782-0.695-11.683-1.341c-1.565-0.264-3.123-0.565-4.674-0.903l0,0
			c7.48-0.88,14.946-1.705,22.434-2.641c0.74-0.153,1.665-0.363,2.612-1.225c1.013-0.964,1.223-1.779,0.925-2.724
			c-0.122-0.399-0.544-0.943-1.192-1.494c-0.324-0.272-0.68-0.504-1.058-0.691c-0.423-0.204-0.867-0.36-1.324-0.465
			c-2.224-0.522-4.504-0.771-6.789-0.742c-1.787-0.006-3.574,0.06-5.355,0.198c-3.994,0.345-7.932,1.168-11.73,2.451
			c-1.323,0.472-2.584,1.102-3.755,1.877c-0.563,0.37-1.101,0.776-1.61,1.216c-1.569,1.377-2.17,2.667-2.559,4.094
			c-0.293,1.432-0.021,2.921,0.758,4.157c0.387,0.609,0.89,1.147,1.477,1.567c1.139,0.837,2.555,1.08,3.882,1.322
			c2.616,0.473,5.279-0.084,7.908-0.075c2.414,0.022,4.87-0.02,7.311,0.485c2.193,0.447,4.297,1.256,6.225,2.394
			c0.683,0.489,0.793,1.102,0.532,1.767c-0.204,0.489-1.335,1.386-2.19,1.921c-0.343,0.215-0.698,0.41-1.062,0.585
			c-5.65,2.496-11.661,2.624-17.602,0.642c-0.177-0.096-0.346-0.179-0.526-0.528c-0.145-0.393-0.242-0.839,0.369-1.351
			c0.583-0.299,1.227-0.424,1.856-0.467c1.147-0.053,2.696,0.232,4.142,0.909c2.347,1.03,4.936,1.381,7.472,1.013
			c1.262-0.185,2.492-0.546,3.655-1.07c0.316-0.148,0.573-0.4,0.729-0.713c0.154-0.313,0.205-0.667,0.145-1.011
			c-0.096-0.491-0.544-1.229-1.42-1.966c-0.917-0.727-2.113-1.186-3.28-1.481c-0.554-0.131-1.116-0.222-1.683-0.273
			c-1.067-0.113-2.138-0.191-3.211-0.234c-2.281-0.083-4.565,0.013-6.83,0.289c-0.844,0.104-1.335,0.206-1.815,0.348
			c-0.481,0.139-0.951,0.316-1.404,0.528c-0.44,0.203-0.863,0.439-1.267,0.707c-1.811,1.294-2.339,2.594-2.504,4.004
			c-0.03,0.419,0.003,0.84,0.096,1.249c0.092,0.41,0.245,0.805,0.587,1.388c0.338,0.583,0.866,1.351,1.477,2.048
			c0.613,0.695,1.312,1.32,2.068,1.86c0.859,0.606,1.793,1.099,2.777,1.469c1.204,0.473,2.796,0.968,4.422,1.316
			c1.622,0.348,3.28,0.548,4.937,0.593c1.661,0.043,3.321-0.067,4.511-0.204C297.327,293.446,298.04,293.281,298.745,293.085z"/>
		<path d="M334.839,290.397c0.41-0.291,0.789-0.624,1.131-0.994c0.679-0.74,1.276-1.557,1.775-2.431
			c1.602-2.749,1.852-5.776,1.738-8.737c-0.077-2.003-0.348-3.994-0.809-5.944c-0.424-1.771-0.988-3.506-1.687-5.188
			c-0.699-1.682-1.533-3.304-2.494-4.851c-0.956-1.549-2.036-3.019-3.23-4.393c-1.039-1.129-2.156-1.665-3.333-1.571
			c-0.291,0.039-0.571,0.135-0.825,0.285c-0.951,0.597-1.188,1.416-1.119,2.225c0.126,1.064,0.326,2.121,0.595,3.174l2.604,9.638
			l0,0l0.829,3.515c0.379,1.628,0.764,3.256,0.564,3.527s-0.982-0.817-1.76-1.907c-0.79-0.943-1.562-1.9-2.317-2.871
			c-1.208-1.532-3.075-3.924-4.189-5.338c-1.115-1.41-1.481-1.842-1.86-2.26c-0.762-0.835-1.584-1.614-2.459-2.331
			c-0.964-0.728-2.252-0.86-3.344-0.344c-0.353,0.167-0.679,0.397-0.954,0.677c-0.273,0.283-0.495,0.612-0.656,0.97
			c-1.462,3.106-2.429,6.422-2.865,9.827l-1.108,6.282c-0.725,3.205-0.668,6.563,0.483,9.905c0.161,0.338,0.383,0.678,0.721,0.998
			c1.31,1.186,3.28,1.267,4.682,0.19c1.082-0.827,1.357-1.909,1.534-2.961c0.587-4.503,1.098-9.018,1.646-13.525
			c2.061,4.408,4.641,8.554,7.686,12.35c1.174,1.314,2.339,2.525,3.509,2.993C331.077,292.007,332.871,291.709,334.839,290.397z"/>
		<path d="M70.458,254.326l-0.049-0.002l1.308,0.528C71.334,254.598,70.907,254.42,70.458,254.326z"/>
		<path d="M158.153,303.468c0.518,0.035,0.786-0.027,1.037-0.126c0.44-0.188,0.846-0.43,1.223-1.066
			c0.328-0.566,0.566-1.314,0.593-1.999c0.016-0.357-0.018-0.715-0.028-1.39s0.002-1.669-0.002-2.659
			c-0.002-0.994-0.022-1.985-0.022-3.511c0-1.524,0.02-3.584,0.141-5.638c0.245-4.059,0.878-8.146,1.87-12.193
			c2.121-0.546,4.24-1.104,5.391-1.416c1.153-0.308,1.337-0.371,1.518-0.448s0.355-0.161,0.524-0.259
			c0.346-0.19,0.931-0.672,1.536-1.286c2.355-2.463,2.92-5.155,1.718-7.965c-0.338-0.865-0.782-1.684-1.322-2.439
			c-0.262-0.36-0.567-0.688-0.907-0.976c-0.339-0.284-0.716-0.52-1.119-0.701c-0.458-0.206-0.944-0.345-1.441-0.414
			c-1.202-0.204-2.999-0.204-4.519,0.414c-0.74,0.285-1.439,0.676-2.531,1.473c-1.38,1.026-2.71,2.118-3.985,3.272
			c-2.457-0.209-4.866-0.798-7.142-1.746c-0.478-0.198-0.924-0.466-1.322-0.797c-0.344-0.293-0.633-0.645-0.854-1.039
			c-0.216-0.395-0.354-0.835-0.489-1.109c-0.291-0.55-0.573-0.571-0.88-0.701c-0.35-0.116-0.73-0.11-1.076,0.018
			c-0.513,0.206-1.055,0.375-1.565,1.194c-0.281,0.446-0.599,1.129-0.742,1.644s-0.112,0.858-0.055,1.408
			c0.057,0.552,0.135,1.314,0.357,2.034c0.465,1.453,1.275,2.549,2.893,3.678c0.809,0.573,1.856,1.214,2.91,1.836
			c1.057,0.619,2.123,1.218,3.205,1.789c-0.763,2.669-1.363,5.382-1.797,8.124l-3.115-0.295l-7.262,2.435
			c-0.825,0.371-1.762,0.414-2.7-0.037c-0.65-0.448-0.758-1.053-0.302-1.695l0.102-0.32c0.102-0.909,0.222-1.813,0.359-2.769l0,0
			c0.287-1.96,0.644-4.199,1.186-6.424c0.281-1.143,0.613-2.27,0.919-3.278s0.581-1.893,0.833-2.787
			c0.249-0.892,0.475-1.791,0.611-2.394c0.257-1.137,0.238-1.439,0.232-2.113c-0.014-0.554-0.1-1.155-0.477-1.714
			c-0.848-1.186-1.95-1.351-3.052-1.204c-0.844,0.132-1.516,0.88-2.08,1.626c-0.226,0.296-0.443,0.6-0.648,0.911
			c-0.283,0.429-0.537,0.877-0.76,1.341c-0.357,0.713-0.874,1.818-1.347,2.944c-1.375,3.248-2.394,6.867-3.077,10.208
			c-0.212,1.1-0.373,2.207-0.485,3.319c-0.212,2.144-0.228,4.22-0.2,6.186c0.01,0.947,0.024,1.895,0.11,2.724
			c0.084,0.829,0.244,1.536,0.505,2.205c0.261,0.67,0.622,1.302,1.072,1.862c0.866,1.051,1.858,1.801,2.671,2.182
			c1.388,0.654,2.624,0.746,4.069,0.585c1.936-0.206,3.8-1.235,5.73-2.533c0.448-0.306,0.882-0.626,1.524-1.135
			c1.642-1.309,3.24-2.672,4.794-4.085c-0.055,1.508-0.043,3.018,0.037,4.525c0.082,1.506,0.234,3.007,0.371,4.042
			c0.137,1.033,0.259,1.597,0.42,2.152c0.352,1.174,0.758,2.164,1.453,3.234c0.369,0.566,0.844,1.182,1.418,1.689
			c0.573,0.509,1.243,0.909,1.964,1.176S157.634,303.432,158.153,303.468z"/>
		<path d="M364.455,288.995c0.95-1.157,0.901-2.525,0.126-3.963c-0.211-0.351-0.476-0.666-0.786-0.935
			c-1.557-1.343-3.421-0.982-5.182-0.774c-1.895,0.397-3.721,0.899-5.581,1.349c-1.932,0.695-3.867,1.392-4.246,0.63
			c-0.383-0.764,0.782-2.987,1.948-5.208c0.636,0.1,1.276,0.161,1.919,0.159c2.117-0.002,4.234,0.031,6.355-0.008
			c0.039-0.008,0.081-0.016,0.365-0.094c0.628-0.169,1.944-0.536,2.954-0.848c0.532-0.128,1.247-0.699,1.489-1.216
			c0.508-1.081,0.372-2.356-0.353-3.305c-0.729-0.956-1.711-1.182-2.651-1.337c-2.266-0.183-4.54-0.242-6.816-0.361l0.214-2.313
			c1.818,0.104,3.647,0.071,5.469-0.116c2.624-0.271,5.074-0.805,7.533-1.28c0.53-0.11,1.078-0.342,1.593-0.787
			c0.97-0.892,1.192-1.767,0.664-2.824c-0.474-0.814-1.014-1.588-1.614-2.313c-1.888-2.093-4.632-3.204-7.445-3.014
			c-4.949,0.257-9.746,0.293-14.781,1.799c-1.208,0.359-2.398,0.788-3.556,1.278c-0.471,0.212-0.846,0.59-1.055,1.062
			c-0.355,0.935-0.275,2.074,0.685,3.248c0.983,1.128,2.33,1.876,3.808,2.113l-1.86,4.091c-0.31,0.083-0.604,0.217-0.87,0.397
			c-1.28,0.962-1.504,2.144-1.119,3.393c0.108,0.3,0.265,0.585,0.459,0.837c-1.247,2.176-2.359,4.397-2.7,6.569
			c-0.277,1.746,0.403,3.621,1.147,5.396c0.314,0.721,0.683,1.42,1.051,2.117c0.608,1.085,1.538,1.954,2.661,2.488
			c2.406,1.023,5.186,0.809,7.928-0.12c1.996-0.77,3.959-1.622,5.884-2.555c1.924-0.933,3.812-1.946,4.87-2.547
			C364.021,289.403,364.255,289.216,364.455,288.995z"/>
		<path d="M129.611,285.399c-0.016-1.029-0.042-2.058-0.077-3.087c-0.011-0.489-0.042-0.978-0.092-1.465
			c-0.039-0.354-0.092-0.703-0.593-3.362c-0.662-3.516-1.341-7.03-2.036-10.54c-0.583-2.92-0.803-3.794-1.058-4.658
			c-0.511-1.728-1.168-3.41-1.964-5.027c-0.158-0.245-0.359-0.459-0.595-0.63c-0.237-0.169-0.504-0.292-0.786-0.365
			c-0.579-0.145-1.436-0.045-2.296,0.275c-0.457,0.181-0.879,0.438-1.249,0.762c-0.86,0.725-1.347,1.919-2.156,2.875
			c-0.436,0.562-0.897,1.104-1.422,1.716c-0.572,0.66-1.126,1.335-1.661,2.025c-0.55,0.717-1.062,1.465-1.826,2.663
			s-1.777,2.847-2.736,4.532c-0.957,1.683-1.857,3.397-2.7,5.139l-2.292-0.192c1.265-3.759,2.114-7.645,2.533-11.588
			c0.424-4.004,0.434-8.248-0.141-12.564c-0.3-2.195-0.772-4.369-1.412-6.49s-1.451-4.191-2.095-5.667
			c-0.473-1.112-1.021-2.19-1.64-3.229c-1.067-1.794-2.307-3.479-3.702-5.031c-0.807-0.923-1.789-1.989-2.777-3.05
			c-0.988-1.06-1.981-2.115-2.749-2.861s-1.31-1.186-1.897-1.553c-0.587-0.367-1.218-0.666-1.877-0.882
			c-0.585-0.188-1.185-0.324-1.793-0.406c-0.791-0.1-1.007,0.016-1.453,0.263c-0.644,0.438-0.848,1.004-0.652,1.597
			c0.045,0.128,0.114,0.249,0.534,0.76c0.42,0.513,1.196,1.412,1.958,2.325c1.461,1.748,2.724,3.401,3.584,4.931
			c0.424,0.734,0.817,1.485,1.296,2.482c0.477,0.994,1.039,2.233,1.591,3.476c1.066,2.414,2.052,4.701,2.671,6.877
			c0.304,1.06,0.544,2.137,0.721,3.225s0.291,2.184,0.355,3.395c0.187,3.731-0.006,7.881-0.626,11.81
			c-0.621,4.002-1.86,7.884-3.672,11.506c-2.789,5.401-7.137,9.839-12.48,12.737c-1.827,1.015-3.878,1.558-5.968,1.581
			c-0.978,0.023-1.949-0.154-2.855-0.522c-0.434-0.173-0.85-0.387-1.243-0.64c-1.28-0.823-2.054-2.241-2.054-3.763
			c2.045-1.706,3.953-3.569,5.707-5.573c1.699-1.948,3.14-3.849,4.236-5.616c0.538-0.862,1.041-1.75,1.516-2.649
			c0.477-0.901,0.929-1.818,1.377-3.107c0.448-1.292,0.89-2.956,1.09-4.652c0.2-1.697,0.155-3.425-0.13-5.11
			c-0.269-1.517-0.69-3.002-1.257-4.434c-0.446-1.106-0.807-1.679-1.239-2.19c-0.434-0.512-0.939-0.959-1.5-1.328
			c-1.824-1.163-3.975-1.418-6.056-1.229c-0.713,0.069-1.42,0.204-2.631,0.642c-1.212,0.442-2.926,1.186-4.479,2.192
			c-1.557,1.009-2.942,2.264-4.098,3.715c-1.057,1.356-1.955,2.829-2.677,4.389c-0.611,1.31-0.919,2.298-1.202,3.289
			c-0.819,2.855-1.477,5.95-1.546,8.865c-0.024,0.947,0.01,1.897,0.11,2.838c0.1,0.943,0.265,1.877,0.528,3.641
			c0.263,1.76,0.623,4.346,0.972,6.934c-0.637,0.71-1.481,1.201-2.414,1.404c-0.461,0.104-0.943,0.138-1.716,0.022
			c-0.776-0.12-1.842-0.389-2.83-0.844c-0.988-0.456-1.893-1.094-2.667-1.864c-0.775-0.773-1.412-1.672-1.885-2.659
			c-1.023-2.038-1.019-4.362-1.076-6.575c-0.007-1.149,0.042-2.298,0.145-3.443c0.102-1.143,0.261-2.282,0.548-3.782
			c0.285-1.5,0.697-3.36,1.163-5.208c0.465-1.848,0.982-3.684,1.697-5.758c0.713-2.074,1.626-4.383,2.718-6.608
			s2.364-4.364,3.806-6.378c1.286-1.768,2.661-3.471,4.118-5.102c1.066-1.198,1.585-1.703,2.105-2.207l1.418-1.359
			c0.505-0.462,0.971-0.963,1.394-1.5c0.872-1.092,1.225-1.799,0.609-2.804c-0.399-0.564-0.945-0.672-1.463-0.711
			c-0.189-0.008-0.379,0.008-0.817,0.132c-1.293,0.388-2.537,0.926-3.706,1.602c-1.473,0.882-2.826,1.948-4.199,2.987
			c-0.762,0.591-1.508,1.201-2.239,1.83c-1.22,1.044-2.354,2.186-3.39,3.413c-0.507,0.599-0.992,1.216-1.762,2.331
			c-0.984,1.426-1.915,2.888-2.791,4.383c-0.968,1.661-1.846,3.374-2.635,5.125c-1.433,3.195-2.604,6.501-3.499,9.886
			c-0.384,1.424-0.733,2.857-1.047,4.299c-0.44,1.987-0.73,4.003-0.87,6.033c-0.275,3.737-0.043,7.411,1.31,11.247
			c0.328,0.884,0.731,1.736,1.229,2.529c0.499,0.793,1.094,1.528,1.767,2.178c1.377,1.322,2.918,2.217,4.371,2.883
			c0.74,0.344,1.498,0.648,2.27,0.915c2.186,0.754,4.191,1.151,6.217,0.756c1.777-0.352,3.252-1.119,4.756-1.435
			c0.491-0.12,0.984-0.222,1.483-0.306c0.573,0.666,1.157,1.32,1.746,1.972c0.589,0.652,1.182,1.3,2.011,2.08
			c0.829,0.78,1.895,1.689,3.067,2.433c1.172,0.742,2.455,1.322,3.788,1.736c1.335,0.414,2.72,0.664,4.605,0.683
			s4.269-0.194,6.592-0.699c2.324-0.504,4.572-1.307,6.689-2.39c2.109-1.082,4.069-2.447,5.422-3.492s2.103-1.771,2.836-2.514
			c1.416-1.413,2.742-2.914,3.971-4.493c0.972-1.255,1.42-2.005,1.97-3.003c0.267-0.491,0.513-0.994,0.738-1.506l2.099,0.617
			l-2.046,6.594c-0.549,1.724-0.373,3.597,0.489,5.188c0.271,0.489,0.597,0.903,0.99,1.239c0.809,0.691,1.879,1.019,2.879,0.933
			c0.515-0.043,1.017-0.194,1.384-0.355c0.367-0.161,0.597-0.332,0.811-0.522c1.002-0.876,1.247-1.866,1.669-2.844
			c0.778-2.038,1.61-4.091,2.335-6.115c0.088-0.275,0.167-0.552,0.243-0.829l8.501-0.159c0.096,1.019,0.196,2.036,0.259,2.62
			c0.061,0.585,0.082,0.734,0.112,0.882c0.07,0.361,0.186,0.711,0.344,1.043c0.139,0.316,0.365,0.803,0.609,1.284
			c0.245,0.479,0.507,0.951,0.736,1.31c0.503,0.791,0.896,1.094,1.392,1.404c1.057,0.57,2.121,0.88,3.258-0.642
			c0.338-0.489,0.483-0.829,0.628-1.3c0.175-0.577,0.328-1.328,0.391-2.007c0.033-0.35,0.049-0.699,0.053-1.457
			C129.644,287.728,129.632,286.563,129.611,285.399L129.611,285.399z M65.556,273.759c-0.277-2.243-0.256-4.514,0.063-6.752
			c0.163-1.235,0.403-2.602,0.691-3.961c0.289-1.355,0.625-2.702,0.862-3.584c0.363-1.441,0.915-2.828,1.642-4.124
			c0.104-0.183,0.234-0.352,0.385-0.497c0.377-0.304,0.646-0.577,1.21-0.52l-0.096-0.041c0.538-0.096,1.084,0.124,1.404,0.568
			c0.389,0.536,0.646,1.074,0.797,1.657c0.287,1.593,0.297,3.01,0.22,4.556c-0.033,0.613-0.086,1.225-0.21,2.139
			c-0.156,1.116-0.342,2.228-0.56,3.334c-0.223,1.165-0.504,2.319-0.84,3.456c-0.284,0.962-0.666,1.893-1.141,2.777
			c-0.462,0.839-1.018,1.623-1.659,2.335c-0.639,0.716-1.359,1.357-2.144,1.909C65.9,275.942,65.692,274.856,65.556,273.759z
			 M120.226,276.212L120.226,276.212c-0.937,0.699-1.805,0.534-2.476-0.32l1.964-3.914l0.86,3.794
			C120.483,275.938,120.366,276.086,120.226,276.212z"/>
		<path d="M402.953,274.003c-0.036-1.191-0.225-2.373-0.564-3.515c-0.688-2.291-1.966-4.361-3.706-6.003
			c-1.677-1.434-3.731-1.834-5.766-1.227c-0.652,0.204-1.269,0.52-2.857,1.708c-1.589,1.188-4.146,3.25-6.62,5.408
			c-2.476,2.156-4.869,4.406-7.172,6.746c0.518-1.514,1.108-3.005,1.779-4.458c0.668-1.451,1.42-2.865,1.987-3.912
			c0.564-1.047,0.943-1.726,1.284-2.423s0.64-1.416,0.833-1.925c0.369-0.98,0.379-1.394,0.365-2.064
			c-0.016-0.314-0.065-0.625-0.13-0.864c-0.065-0.24-0.141-0.409-0.253-0.554c-0.74-0.915-1.795-0.562-2.757,0.059
			c-0.281,0.208-0.541,0.442-0.778,0.699c-1.197,1.231-2.355,2.499-3.472,3.802c-1.826,2.176-3.375,4.571-4.611,7.129
			c-0.611,1.278-1.139,2.596-1.473,3.507c-0.334,0.909-0.471,1.41-0.579,1.917c-0.227,1.065-0.309,2.157-0.242,3.244
			c0.069,1.355,0.318,3.156,0.744,4.748c0.21,0.801,0.463,1.593,0.76,2.366c-1.117,2.385-2.108,4.826-2.969,7.315
			c-0.862,2.487-1.586,5.02-2.17,7.586c-0.498,2.228-0.911,4.474-1.239,6.734c-0.222,1.571-0.234,2.111-0.196,2.649
			c0.145,2.349,1.269,4.748,3.552,7.164c1.557,1.451,3.478,1.402,5.42-0.222c1.031-3.979,2.076-7.942,3.022-11.912l0.954-3.175
			c0.322-1.057,0.805-2.06,1.428-3.607c0.625-1.547,1.465-3.613,2.309-5.681c1.879-0.352,3.745-0.775,5.593-1.267
			c1.354-0.356,2.663-0.867,3.9-1.524c0.595-0.316,1.174-0.668,1.94-1.198s1.726-1.243,2.661-1.985
			c0.894-0.71,1.762-1.451,2.604-2.221c1.345-1.216,2.542-2.585,3.566-4.081C402.236,279.898,403.099,277.043,402.953,274.003
			L402.953,274.003z M394.969,278.422L394.969,278.422c-0.519,0.825-1.159,1.569-1.899,2.203c-1.307,1.067-2.67,2.062-4.085,2.981
			c-0.981,0.639-2.219,0.735-3.287,0.255c1.974-4.46,4.791-8.497,8.297-11.889c0.571-0.532,1.055-0.491,1.508-0.352
			c0.46,0.114,0.95,0.809,0.929,1.241C396.519,274.821,396.009,276.76,394.969,278.422z"/>
		<path d="M272.086,257.664c0.44-0.049,0.687-0.096,1.223-0.198c1.104-0.194,3.042-0.623,4.587-1.273
			c1.569-0.609,3.397-1.653,5.275-3.138c1.864-1.494,3.497-3.254,4.849-5.224c1.331-1.915,2.072-3.78,2.321-5.762
			c0.121-0.943,0.133-1.897,0.035-2.844l0,0c-0.057-0.617-0.236-1.216-0.526-1.763c-0.255-0.474-0.584-0.905-0.974-1.276
			c-1.186-1.135-2.862-1.6-4.464-1.239c-0.468-1.198-1.494-2.09-2.745-2.386c-1.368-0.351-2.773-0.534-4.185-0.548
			c-0.904-0.007-1.807,0.061-2.7,0.204c-1.288,0.185-3.16,0.52-4.978,1.047s-3.582,1.243-5.267,2.121
			c-1.679,0.876-3.279,1.915-4.764,3.091c-0.609,0.498-1.182,1.038-1.714,1.616c-2.282,2.525-3.641,5.31-3.674,7.987
			c-0.02,0.709,0.045,1.422,0.133,2.005c0.177,1.112,0.438,1.889,0.793,2.8c0.371,0.925,0.958,1.987,1.581,3.146l0.901,1.665
			c0.222,0.42,0.338,0.636,0.487,0.823c0.153,0.188,0.34,0.345,0.552,0.463c0.46,0.287,1.267,0.342,2.089,0.23
			c0.464-0.071,0.921-0.214,1.343-0.426c0.422-0.208,0.813-0.483,1.131-0.86c0.318-0.379,0.568-0.86,0.874-0.954
			c0.31-0.094,0.68,0.204,1.059,0.41s0.768,0.326,1.166,0.405c0.395,0.081,0.797,0.12,1.445,0.12c0.644,0,1.534-0.041,2.302-0.088
			C271.006,257.77,271.646,257.713,272.086,257.664z M264.797,244.218L264.797,244.218c-1.382,1.258-2.678,2.607-3.879,4.04
			c0.815-3.326,2.964-6.169,5.94-7.861c2.212-1.255,4.631-2.104,7.142-2.504C270.661,239.575,267.564,241.703,264.797,244.218z
			 M265.851,251.023c2.963-4.286,7.25-7.481,12.203-9.096c1.193-0.382,2.459-0.474,3.694-0.271c0.889,0.146,1.492,0.986,1.346,1.875
			c-0.001,0.009-0.003,0.017-0.004,0.026c-0.245,1.375-1.034,2.594-2.188,3.382c-0.951,0.621-1.899,1.243-2.885,1.801
			c-1.96,1.053-3.904,2.131-5.988,2.51C269.98,251.656,267.865,251.579,265.851,251.023z"/>
		<path d="M90.404,234.933c-0.628,7.231-0.911,14.467-0.846,21.71h1.567c0.157-6.194,0.458-12.388,0.905-18.575
			C91.464,237.035,90.922,235.99,90.404,234.933z"/>
		<path d="M260.329,268.897L260.329,268.897c-1.2-3.562-2.846-7.233-5.726-10.775c-3.421-4.706-7.542-8.862-12.219-12.323
			c-3.191-2.627-6.565-5.024-10.096-7.172c-1.765-1.073-3.566-2.085-5.4-3.034c-4.484-2.274-9.149-4.172-13.947-5.673
			c-9.614-3.001-19.661-4.375-29.728-4.063c-3.569,0.03-7.113,0.595-10.514,1.677c-1.117,0.365-2.197,0.801-3.248,1.298
			c-2.106,0.992-4.09,2.227-5.911,3.678c-1.115,0.825-1.298,1.846-0.882,2.952c0.22,0.611,0.935,1.131,1.644,1.459
			c0.359,0.175,0.882,0.316,1.481,0.381c1.524,0.1,3.27-0.406,4.972-1.428c0.385-0.269,0.996-0.829,0.823-1.351
			c-0.024-0.234-0.352-0.642-0.693-0.689c-0.59-0.148-1.211-0.108-1.777,0.114c1.053-0.704,2.222-1.219,3.452-1.522
			c0.613-0.153,1.241-0.251,2.763-0.34c1.522-0.088,3.941-0.165,6.359-0.094c4.838,0.15,9.643,0.845,14.326,2.07
			c4.1,1.169,8.156,2.489,12.16,3.955c3.609,1.329,7.182,2.756,10.713,4.281c2.763,1.194,4.34,1.966,5.885,2.802
			c3.088,1.676,6.027,3.613,8.784,5.791c1.711,1.412,3.421,2.824,5.039,4.33c1.618,1.51,3.146,3.118,4.672,4.725
			c2.436,2.676,4.377,5.764,5.73,9.12c1.19,2.799,1.333,5.932,0.403,8.827c-0.462,1.436-1.175,2.778-2.105,3.965
			c-0.929,1.184-2.068,2.198-3.892,3.295c-1.822,1.094-4.334,2.27-6.93,3.203c-5.203,1.87-10.711,2.744-16.237,2.576
			c-3.626-0.139-7.242-0.47-10.832-0.992l-0.189-19.534c7.158,0.594,14.216,2.064,21.016,4.375c-0.367,0.768-0.913,1.437-1.593,1.95
			c-0.487,0.377-0.962,0.791-1.432,1.255c-0.279,0.374-0.338,0.868-0.153,1.296c0.065,0.141,0.153,0.277,0.342,0.45
			s0.471,0.387,0.772,0.571c0.817,0.471,1.948,0.695,3.115,0.632c1.779-0.165,3.395-1.066,5.124-2.739
			c0.491-0.501,0.901-1.076,1.216-1.701c1.104-2.268,1.066-4.978-0.933-7.57c-0.359-0.469-0.761-0.903-1.2-1.298
			c-0.44-0.392-0.916-0.743-1.42-1.049c-2.695-1.534-5.581-2.704-8.584-3.478c-1.556-0.388-3.132-0.692-4.721-0.911
			c-3.675-0.54-7.383-0.833-11.097-0.878c-0.107-3.1-0.518-6.181-1.229-9.2c-0.206-0.932-0.498-1.842-0.874-2.72
			c-0.245-0.585-0.403-0.874-0.628-1.302c-0.271-0.552-0.992-1.271-1.652-1.549c-0.66-0.293-1.4-0.383-2.223,0.403
			c-0.138,0.149-0.25,0.319-0.332,0.505c-0.697,1.695-1.231,3.453-1.595,5.249c-0.181,0.897-0.314,1.803-0.454,2.879
			c-0.275,2.18-0.599,4.833-1.011,7.272c-3.364,0.385-6.69,1.049-9.945,1.983c-2.313,0.68-4.547,1.605-6.665,2.757
			c-1.591,0.856-3.054,1.93-4.348,3.191c-1.179,1.219-1.728,2.914-1.489,4.593c0.196,1.314,0.809,2.482,1.711,3.737
			c0.247,0.33,0.516,0.646,1.027,1.186c0.511,0.538,1.265,1.304,2.029,2.058c1.469,1.445,2.851,2.751,4.136,3.79
			c0.619,0.505,1.257,0.986,1.909,1.445c0.654,0.458,1.322,0.896,2.423,1.575c2.917,1.776,5.855,3.518,8.814,5.226l0.242,1.084
			l0.32,1.412c0.137,0.599,0.32,1.369,0.503,2.141c0.242,0.958,0.795,1.809,1.573,2.419c1.276,0.972,2.824,1.167,4.226,0.658
			c0.516-0.187,1.057-0.473,1.534-0.844c0.477-0.369,0.892-0.823,1.22-1.331c0.328-0.509,0.57-1.072,0.715-1.661
			c3.731,0.523,7.484,0.871,11.247,1.043c2.759,0.136,5.524,0.056,8.27-0.24c3.686-0.414,7.722-1.18,11.429-2.602
			c4.861-1.826,9.324-4.573,13.144-8.091c0.691-0.65,1.347-1.339,1.964-2.062c1.233-1.445,2.311-3.015,3.215-4.686
			C261.077,277.709,261.613,273.284,260.329,268.897z M191.72,284.411c-1.143-0.577-2.243-1.241-3.213-1.879
			s-1.815-1.251-2.63-1.903c-1.511-1.217-2.911-2.566-4.183-4.032c-0.393-0.46-0.469-0.613-0.515-0.774
			c-0.148-0.493,0.003-1.027,0.387-1.369c0.122-0.112,0.267-0.198,0.913-0.448c2.837-1.086,5.785-1.86,8.79-2.307
			c0.601-0.09,0.949-0.128,1.652-0.19c0.941-0.082,1.883-0.15,2.826-0.206c1.062-0.059,2.127-0.094,3.189-0.104l0.002,15.646
			C196.43,286.377,193.999,285.558,191.72,284.411z"/>
		<path d="M253.564,246.396l-3.678-0.104l5.208,10.722C253.798,253.633,253.276,250.005,253.564,246.396z"/>
		<path d="M118.555,328.011c-0.297-0.532-0.661-1.023-1.084-1.461c-1.278-1.328-2.777-1.889-4.265-2.168
			c-0.796-0.158-1.606-0.241-2.417-0.247h-10.43v3.168h2.914v18.735h-2.914v3.17h9.538v-3.17h-2.914v-6.043h4.43
			c1.95-0.043,3.941-0.242,6.056-2.466c1.64-1.826,2.385-4.287,2.033-6.716C119.356,329.829,119.035,328.88,118.555,328.011z
			 M114.229,335.609c-1.115,0.905-2.192,0.97-3.234,0.994h-4v-8.988h3.857c1.292,0.006,2.624,0.251,3.723,1.373
			c0.638,0.654,1.057,1.492,1.196,2.396C115.992,332.946,115.558,334.427,114.229,335.609z"/>
	</g>
</g>
</svg>
