<?xml version="1.0" encoding="iso-8859-1"?>
<!-- Generator: Adobe Illustrator 22.0.1, SVG Export Plug-In . SVG Version: 6.00 Build 0)  -->
<svg version="1.1" id="Layer_1" xmlns="http://www.w3.org/2000/svg" xmlns:xlink="http://www.w3.org/1999/xlink" x="0px" y="0px"
	 viewBox="0 0 438.53 438.53" style="enable-background:new 0 0 438.53 438.53;" xml:space="preserve">
<g id="_x31_99">
	<g>
		<path style="fill:#003B6F;" d="M407.603,110.087c-19.45-33.321-45.833-59.704-79.155-79.153
			c-33.328-19.448-69.711-29.17-109.176-29.17c-39.461,0-75.854,9.722-109.177,29.17C76.771,50.38,50.388,76.763,30.938,110.087
			c-19.451,33.326-29.173,69.72-29.173,109.178c0,39.46,9.725,75.847,29.17,109.175c19.449,33.321,45.832,59.704,79.156,79.155
			c33.326,19.447,69.717,29.17,109.177,29.17s75.854-9.723,109.179-29.17c33.322-19.444,59.704-45.834,79.152-79.155
			c19.445-33.325,29.166-69.718,29.166-109.175C436.766,179.803,427.044,143.409,407.603,110.087z M145.819,230.995
			c-3.028-3.306-6.533-6.041-10.3-8.434c-4.499-2.857-9.283-5.074-14.514-6.286c-1.544-0.358-3.084-0.682-4.649-0.909
			c-0.302-0.182-0.659,0.003-0.966-0.141c-0.344-0.017-0.688-0.034-1.032-0.051c-0.515-0.186-1.063,0.022-1.58-0.136
			c-1.247-0.079-2.493-0.072-3.74,0.003c-0.568,0.162-1.167-0.065-1.732,0.134c-0.356,0.018-0.711,0.035-1.067,0.053
			c-0.311,0.136-0.666-0.039-0.971,0.136c-2.566,0.219-5.076,0.713-7.546,1.451c-2.539,0.758-5.026,1.623-7.396,2.827
			c-3.729,1.895-7.244,4.088-10.226,7.059c-0.146,0.319-0.237,0.701-0.722,0.633c-6.931,6.725-11.045,14.94-12.891,24.357
			c-0.266,1.355-0.584,2.701-0.566,4.095c-0.152,0.322,0.003,0.686-0.136,1.01c-0.015,0.294-0.031,0.588-0.046,0.882
			c-0.196,0.501,0.025,1.039-0.136,1.543c-0.11,1.931-0.11,3.862,0,5.792c0.161,0.506-0.058,1.045,0.135,1.548
			c0.015,0.292,0.031,0.584,0.046,0.877c0.138,0.329-0.011,0.696,0.138,1.023c0.175,3.118,0.914,6.126,1.789,9.105
			c1.627,5.534,4.222,10.587,7.767,15.124c3.283,4.201,7.267,7.65,11.854,10.372c4.734,2.808,9.852,4.615,15.264,5.562
			c1.42,0.248,2.856,0.527,4.319,0.437c0.445,0.179,0.927-0.018,1.375,0.133c1.744,0.138,3.488,0.126,5.232,0.004
			c0.455-0.156,0.944,0.039,1.397-0.138c3.457-0.127,6.774-0.99,10.013-2.098c3.975-1.359,7.712-3.266,11.213-5.581
			c3.746-2.476,7.198-5.334,10.301-8.587c0.625-0.655,0.967-0.601,1.512,0.062c4.961,6.041,9.949,12.062,14.925,18.091
			c0.45,0.546,1.164,1.082,1.228,1.68c0.065,0.602-0.764,1.085-1.213,1.612c-5.116,6.004-11.025,11.077-17.806,15.112
			c-4.593,2.733-9.475,4.78-14.634,6.216c-2.881,0.802-5.793,1.383-8.735,1.859c-0.309,0.154-0.669-0.033-0.975,0.145
			c-0.235,0.016-0.47,0.032-0.705,0.048c-0.317,0.137-0.675-0.028-0.988,0.135c-0.292,0.016-0.585,0.033-0.877,0.049
			c-0.452,0.155-0.939-0.042-1.388,0.137c-0.657,0.018-1.314,0.036-1.971,0.054c-2.05,0.089-4.099,0.096-6.149-0.003
			c-0.66-0.017-1.319-0.034-1.979-0.051c-0.51-0.188-1.054,0.026-1.566-0.136c-0.358-0.016-0.716-0.031-1.075-0.047
			c-0.371-0.187-0.79,0.018-1.165-0.142c-0.236-0.014-0.473-0.028-0.709-0.042c-0.304-0.181-0.662,0.007-0.97-0.144
			c-2.505-0.216-4.979-0.644-7.432-1.179c-2.359-0.514-4.687-1.148-7.015-1.801c-3.524-0.989-6.929-2.285-10.235-3.807
			C71.345,328.26,66.48,325.304,62,321.76c-2.927-2.315-5.65-4.869-8.171-7.622c-2.579-2.816-4.841-5.885-6.988-9.039
			c-0.443-0.651-0.814-1.351-1.218-2.028c0.026-0.344-0.229-0.563-0.379-0.825c-4.676-8.168-7.582-16.94-8.986-26.23
			c-1.058-7.001-1.307-14.028-0.755-21.085c0.014-0.185-0.001-0.371-0.003-0.557c0.017-0.342,0.033-0.685,0.05-1.027
			c0.15-0.326,0.001-0.693,0.138-1.021c0.015-0.235,0.029-0.471,0.043-0.706c0.18-0.305-0.01-0.665,0.146-0.974
			c0.528-4.66,1.495-9.227,2.845-13.718c0.988-3.287,2.19-6.5,3.655-9.589c2.239-4.721,4.88-9.223,8.204-13.289
			c0.07-0.086,0.083-0.217,0.123-0.328c1.9-2.102,3.66-4.33,5.732-6.275c0.497-0.466,0.989-0.937,1.484-1.405
			c0.143-0.235,0.317-0.438,0.581-0.544c5.212-4.665,10.989-8.481,17.318-11.45c6.299-2.955,12.887-5.025,19.733-6.259
			c2.125-0.383,4.269-0.661,6.405-0.987c0.322-0.139,0.685,0.018,1.005-0.136c0.287-0.017,0.574-0.034,0.86-0.051
			c0.389-0.147,0.815,0.03,1.203-0.137c0.408-0.017,0.815-0.035,1.223-0.052c0.638-0.168,1.303,0.062,1.938-0.135
			c2.374,0,4.748,0,7.122,0.001c0.573,0.194,1.178-0.032,1.753,0.137c0.356,0.016,0.712,0.032,1.068,0.047
			c0.375,0.18,0.792-0.011,1.171,0.136c6.228,0.746,12.303,2.093,18.117,4.511c5.268,2.19,10.107,5.091,14.628,8.563
			c3.307,2.54,6.248,5.463,9.142,8.44c0.991,1.019,1.881,2.135,2.835,3.19c0.238,0.263,0.227,0.409-0.003,0.686
			c-2.943,3.538-5.864,7.095-8.8,10.639c-2.637,3.182-5.285,6.355-7.928,9.532c-0.378,0.107-0.43-0.173-0.507-0.423l-0.045,0.037
			l0.04-0.041C146.343,231.644,146.051,231.357,145.819,230.995z M211.576,334.309c0,0.676-0.091,0.968-0.893,0.965
			c-9.483-0.032-18.965-0.019-28.448-0.027c-0.263,0-0.564,0.124-0.787-0.139c0.01-0.31,0.03-0.62,0.03-0.931
			c0.001-48.163,0.001-96.326,0-144.489c0-0.31-0.018-0.621-0.027-0.931c0.252-0.281,0.584-0.143,0.876-0.144
			c9.42-0.008,18.841,0.002,28.261-0.023c0.749-0.002,0.994,0.16,0.993,0.959C211.562,237.804,211.563,286.056,211.576,334.309z
			 M329.544,307.585c-1.913,7.468-3.836,14.932-5.739,22.402c-0.1,0.394-0.254,0.66-0.606,0.868
			c-2.246,1.323-4.559,2.552-6.979,3.474c-3.508,1.336-7.161,2.239-10.899,2.726c-0.314,0.151-0.675-0.027-0.986,0.142
			c-0.294,0.018-0.588,0.036-0.882,0.054c-0.384,0.138-0.803-0.039-1.184,0.131c-0.538,0.018-1.076,0.036-1.614,0.055
			c-1.738,0.091-3.477,0.091-5.215,0c-0.418-0.017-0.837-0.035-1.255-0.052c-0.374-0.182-0.794,0.015-1.171-0.139
			c-4.171-0.445-8.123-1.631-11.807-3.627c-4.714-2.554-8.512-6.128-11.391-10.648c-1.686-2.647-3.008-5.465-4.031-8.449
			c-0.824-2.404-1.308-4.874-1.851-7.335c-0.201-0.912-0.173-1.874-0.249-2.813c-0.131-0.326,0.017-0.688-0.133-1.011
			c-0.018-0.534-0.037-1.067-0.055-1.601c-0.108-0.366-0.053-0.741-0.053-1.112c-0.003-27.68-0.002-55.36-0.008-83.04
			c0-0.364,0.105-0.745-0.099-1.094l-0.01-0.008c-0.316-0.199-0.668-0.1-1.001-0.1c-7.711-0.006-15.421-0.004-23.132-0.006
			c-1.279,0-1.126,0.11-1.126-1.165c-0.003-8.426-0.003-16.851,0-25.277c0-1.275-0.153-1.164,1.126-1.165
			c7.711-0.002,15.421,0,23.132-0.006c0.333,0,0.685,0.099,1.001-0.1l0.01-0.008c0.198-0.316,0.099-0.666,0.1-0.998
			c0.006-9.271,0.004-18.542,0.007-27.813c0-0.339-0.047-0.682,0.049-1.017c3.37-1.803,6.742-3.604,10.11-5.41
			c6.285-3.369,12.568-6.74,18.852-10.11c0.264-0.097,0.426-0.014,0.45,0.273c0.024,0.279,0.01,0.559,0.01,0.838
			c0,14.384,0,28.767,0.006,43.151c0,0.365-0.1,0.745,0.095,1.096l0.004,0.003c0.319,0.189,0.669,0.096,1.003,0.096
			c9.475,0.006,18.949,0.005,28.424,0.005c1.067,0,1.068,0.001,1.068,1.036c0,8.512,0,17.023,0,25.535
			c0,1.035-0.001,1.036-1.068,1.036c-9.475,0-18.949-0.001-28.424,0.005c-0.334,0-0.684-0.094-1.003,0.096l-0.004,0.003
			c-0.188,0.319-0.095,0.669-0.095,1.003c-0.005,25.723-0.005,51.447-0.002,77.17c0,0.338-0.064,0.684,0.075,1.013
			c-0.108,0.537-0.004,1.067,0.048,1.599c0.137,0.324-0.017,0.687,0.135,1.009c0.224,3.373,1.233,6.459,3.582,8.954
			c1.644,1.747,3.797,2.631,6.128,3.1c0.728,0.146,1.454,0.249,2.197,0.198c1.282,0.13,2.564,0.129,3.846,0.001
			c0.292-0.015,0.585-0.03,0.878-0.045c0.313-0.149,0.674,0.028,0.984-0.141c2.777-0.205,5.4-1.042,7.989-1.993
			c4.052-1.488,7.847-3.49,11.47-5.827c0.141-0.091,0.317-0.13,0.611-0.247C330.406,304.12,329.987,305.856,329.544,307.585z
			 M383.15,335.249c-9.419,0.006-18.838-0.004-28.257,0.021c-0.766,0.002-0.98-0.192-0.98-0.973c0.019-48.245,0.019-96.49,0-144.736
			c0-0.785,0.221-0.972,0.982-0.97c9.419,0.025,18.838,0.015,28.257,0.022c0.299,0,0.624-0.107,0.899,0.115
			c-0.002,35.688-0.005,71.375-0.005,107.063c0,13.118,0.006,26.237,0.01,39.356C383.773,335.343,383.452,335.249,383.15,335.249z
			 M402.724,164.715c-11.259,0.002-22.518,0.013-33.778-0.003c-0.06,0-0.12-0.03-0.18-0.045c-1.306-1.285-2.593-2.589-3.922-3.851
			c-1.428-1.356-2.853-2.719-4.353-3.992c-1.925-1.635-3.897-3.218-5.895-4.763c-2.898-2.241-5.899-4.335-8.991-6.309
			c-4.253-2.717-8.657-5.145-13.202-7.325c-3.281-1.574-6.633-2.996-10.053-4.226c-5.333-1.918-10.764-3.54-16.326-4.652
			c-2.31-0.462-4.632-0.885-6.982-1.164c-1.243-0.147-2.496-0.318-3.737-0.53c-0.312-0.165-0.671,0.004-0.987-0.138
			c-0.297-0.015-0.593-0.03-0.89-0.046c-0.37-0.187-0.787,0.013-1.162-0.138c-0.351-0.017-0.703-0.035-1.054-0.052
			c-0.507-0.189-1.049,0.026-1.558-0.136c-0.533-0.017-1.065-0.033-1.598-0.05c-0.764-0.202-1.554,0.034-2.32-0.134
			c-2.18-0.085-4.361-0.085-6.541-0.001c-0.824,0.166-1.669-0.064-2.491,0.134c-0.476,0.016-0.951,0.033-1.427,0.049
			c-0.511,0.163-1.055-0.051-1.563,0.136c-0.35,0.017-0.699,0.034-1.049,0.052c-0.377,0.151-0.794-0.045-1.167,0.138
			c-2.006,0.102-3.977,0.492-5.965,0.717c-3.848,0.435-7.604,1.281-11.347,2.211c-5.513,1.369-10.889,3.159-16.154,5.302
			c-3.687,1.501-7.281,3.197-10.784,5.067c-6.749,3.604-13.129,7.787-19.058,12.637c-2.607,2.132-5.164,4.312-7.581,6.672
			c-1.478,1.443-3.006,2.843-4.441,4.336c-0.282,0.197-0.603,0.103-0.905,0.103c-10.895,0.005-21.791,0.007-32.686-0.009
			c-0.317,0-0.764,0.26-0.968-0.256c1.567-2.33,3.196-4.617,4.935-6.82c1.875-2.376,3.749-4.762,5.764-7.017
			c3.109-3.479,6.249-6.93,9.748-10.042c1.398-1.243,2.76-2.531,4.161-3.775c2.867-2.549,5.873-4.926,8.953-7.207
			c4.055-3.002,8.242-5.809,12.597-8.359c4.839-2.834,9.786-5.449,14.915-7.736c4.044-1.804,8.141-3.46,12.315-4.918
			c6.584-2.3,13.316-4.089,20.159-5.434c3.884-0.764,7.805-1.318,11.735-1.796c0.312-0.139,0.668,0.036,0.975-0.138
			c0.234-0.015,0.469-0.029,0.704-0.044c0.326-0.138,0.692,0.014,1.016-0.138c0.346-0.017,0.691-0.034,1.037-0.05
			c0.386-0.147,0.81,0.033,1.194-0.136c0.473-0.018,0.946-0.037,1.419-0.055c0.51-0.152,1.051,0.055,1.559-0.132
			c0.662-0.017,1.324-0.035,1.985-0.052c1.011-0.171,2.041,0.069,3.051-0.135c1.756,0,3.512,0,5.267,0
			c1.01,0.203,2.04-0.036,3.052,0.135c0.66,0.017,1.319,0.034,1.979,0.051c0.51,0.187,1.053-0.02,1.566,0.133
			c0.471,0.018,0.942,0.036,1.414,0.054c0.386,0.169,0.811-0.011,1.199,0.138c0.296,0.015,0.592,0.03,0.888,0.045
			c0.371,0.189,0.791-0.019,1.165,0.144c0.232,0.015,0.464,0.029,0.696,0.044c0.31,0.168,0.668-0.002,0.983,0.137
			c8.857,1.101,17.582,2.818,26.13,5.429c8.749,2.672,17.194,6.075,25.306,10.294c7.196,3.742,14.067,8.008,20.552,12.895
			c4.327,3.261,8.492,6.699,12.457,10.395c4.52,4.212,8.742,8.688,12.685,13.442c2.699,3.254,5.276,6.595,7.651,10.092
			c0.138,0.203,0.325,0.372,0.489,0.557C403.251,164.835,402.943,164.715,402.724,164.715z"/>
		<polygon style="fill:#003B6F;" points="146.783,231.746 146.784,231.75 146.786,231.747 		"/>
		<polygon style="fill:#003B6F;" points="146.781,231.742 146.779,231.745 146.783,231.746 		"/>
		<path style="fill:#FFFFFF;" d="M146.783,231.746c0.001,0,0.002,0.001,0.004,0.001l-0.003,0.002c0.077,0.25,0.129,0.53,0.507,0.423
			c2.643-3.177,5.291-6.35,7.928-9.532c2.936-3.544,5.857-7.101,8.8-10.639c0.23-0.277,0.241-0.423,0.003-0.686
			c-0.955-1.055-1.845-2.171-2.835-3.19c-2.894-2.977-5.835-5.9-9.142-8.44c-4.521-3.472-9.36-6.372-14.628-8.563
			c-5.815-2.418-11.89-3.765-18.117-4.511c-0.378-0.147-0.796,0.044-1.171-0.136c-0.356-0.016-0.712-0.032-1.068-0.047
			c-0.575-0.169-1.18,0.057-1.753-0.137c-2.374,0-4.748,0-7.122-0.001c-0.635,0.198-1.301-0.032-1.938,0.135
			c-0.408,0.017-0.815,0.035-1.223,0.052c-0.387,0.167-0.813-0.011-1.203,0.137c-0.287,0.017-0.574,0.034-0.86,0.051
			c-0.32,0.154-0.683-0.003-1.005,0.136c-2.135,0.326-4.28,0.604-6.405,0.987c-6.846,1.234-13.434,3.304-19.733,6.259
			c-6.329,2.969-12.106,6.785-17.318,11.45c-0.264,0.107-0.438,0.309-0.581,0.544c-0.494,0.468-0.987,0.939-1.484,1.405
			c-2.072,1.944-3.832,4.173-5.732,6.275c-0.04,0.11-0.053,0.242-0.123,0.328c-3.323,4.066-5.965,8.567-8.204,13.289
			c-1.465,3.089-2.667,6.302-3.655,9.589c-1.35,4.492-2.317,9.058-2.845,13.718c-0.156,0.308,0.034,0.669-0.146,0.974
			c-0.014,0.235-0.029,0.471-0.043,0.706c-0.137,0.328,0.012,0.695-0.138,1.021c-0.017,0.342-0.033,0.685-0.05,1.027
			c0.002,0.186,0.017,0.373,0.003,0.557c-0.552,7.057-0.303,14.084,0.755,21.085c1.405,9.29,4.31,18.062,8.986,26.23
			c0.15,0.261,0.405,0.48,0.379,0.825c0.404,0.677,0.775,1.377,1.218,2.028c2.147,3.153,4.409,6.223,6.988,9.039
			c2.521,2.753,5.244,5.307,8.171,7.622c4.48,3.544,9.345,6.5,14.528,8.885c3.306,1.521,6.711,2.817,10.235,3.807
			c2.327,0.653,4.655,1.287,7.015,1.801c2.453,0.535,4.927,0.963,7.432,1.179c0.308,0.15,0.666-0.037,0.97,0.144
			c0.236,0.014,0.473,0.028,0.709,0.042c0.374,0.16,0.794-0.045,1.165,0.142c0.358,0.016,0.716,0.031,1.075,0.047
			c0.512,0.162,1.057-0.052,1.566,0.136c0.66,0.017,1.319,0.034,1.979,0.051c2.049,0.099,4.099,0.093,6.149,0.003
			c0.657-0.018,1.314-0.036,1.971-0.054c0.45-0.179,0.936,0.018,1.388-0.137c0.292-0.016,0.585-0.033,0.877-0.049
			c0.313-0.164,0.672,0.002,0.988-0.135c0.235-0.016,0.47-0.032,0.705-0.048c0.306-0.178,0.666,0.009,0.975-0.145
			c2.942-0.476,5.854-1.057,8.735-1.859c5.159-1.436,10.041-3.484,14.634-6.216c6.781-4.035,12.691-9.107,17.806-15.112
			c0.449-0.527,1.278-1.01,1.213-1.612c-0.064-0.597-0.778-1.134-1.228-1.68c-4.976-6.03-9.963-12.05-14.925-18.091
			c-0.545-0.663-0.888-0.717-1.512-0.062c-3.103,3.253-6.555,6.111-10.301,8.587c-3.502,2.314-7.239,4.222-11.213,5.581
			c-3.239,1.107-6.556,1.971-10.013,2.098c-0.453,0.177-0.942-0.018-1.397,0.138c-1.744,0.123-3.488,0.134-5.232-0.004
			c-0.448-0.152-0.93,0.045-1.375-0.133c-1.463,0.09-2.899-0.189-4.319-0.437c-5.412-0.947-10.53-2.754-15.264-5.562
			c-4.588-2.722-8.571-6.171-11.854-10.372c-3.545-4.536-6.14-9.59-7.767-15.124c-0.876-2.979-1.614-5.987-1.789-9.105
			c-0.149-0.327-0.001-0.695-0.138-1.023c-0.015-0.292-0.031-0.585-0.046-0.877c-0.193-0.503,0.025-1.042-0.135-1.548
			c-0.11-1.931-0.109-3.862,0-5.792c0.161-0.504-0.06-1.042,0.136-1.543c0.015-0.294,0.031-0.588,0.046-0.882
			c0.139-0.324-0.016-0.688,0.136-1.01c-0.017-1.393,0.301-2.74,0.566-4.095c1.846-9.417,5.959-17.632,12.891-24.357
			c0.485,0.068,0.576-0.314,0.722-0.633c2.982-2.971,6.496-5.164,10.226-7.059c2.37-1.204,4.857-2.069,7.396-2.827
			c2.47-0.737,4.98-1.232,7.546-1.451c0.305-0.176,0.66,0,0.971-0.136c0.356-0.018,0.711-0.035,1.067-0.053
			c0.565-0.199,1.164,0.028,1.732-0.134c1.247-0.074,2.493-0.082,3.74-0.003c0.517,0.158,1.066-0.05,1.58,0.136
			c0.344,0.017,0.688,0.034,1.032,0.051c0.308,0.145,0.664-0.041,0.966,0.141c1.565,0.226,3.105,0.551,4.649,0.909
			c5.231,1.212,10.015,3.429,14.514,6.286c3.767,2.393,7.273,5.127,10.3,8.434C146.055,231.36,146.347,231.646,146.783,231.746
			l0.002-0.002C146.782,231.744,146.782,231.745,146.783,231.746z"/>
		<polygon style="fill:#FFFFFF;" points="146.784,231.75 146.783,231.746 146.779,231.745 146.739,231.786 		"/>
		<path style="fill:#FFFFFF;" d="M318.777,308.372c-2.589,0.951-5.211,1.789-7.989,1.993c-0.31,0.169-0.671-0.008-0.984,0.141
			c-0.292,0.015-0.585,0.03-0.878,0.045c-1.282,0.128-2.564,0.129-3.846-0.001c-0.743,0.051-1.469-0.051-2.197-0.198
			c-2.331-0.469-4.484-1.353-6.128-3.1c-2.348-2.495-3.357-5.581-3.582-8.954c-0.152-0.322,0.002-0.685-0.135-1.009
			c-0.052-0.532-0.156-1.062-0.048-1.599c-0.139-0.329-0.075-0.675-0.075-1.013c-0.003-25.724-0.003-51.447,0.002-77.17
			c0-0.334-0.093-0.684,0.095-1.003l0.004-0.003c0.319-0.189,0.669-0.095,1.003-0.096c9.475-0.006,18.949-0.005,28.424-0.005
			c1.067,0,1.068-0.001,1.068-1.036c0-8.512,0-17.023,0-25.535c0-1.035-0.002-1.036-1.068-1.036c-9.475,0-18.949,0.001-28.424-0.005
			c-0.334,0-0.684,0.094-1.003-0.096l-0.004-0.003c-0.194-0.351-0.094-0.731-0.095-1.096c-0.006-14.384-0.005-28.767-0.006-43.151
			c0-0.279,0.014-0.56-0.01-0.838c-0.025-0.287-0.186-0.37-0.45-0.273c-6.284,3.37-12.567,6.741-18.852,10.11
			c-3.369,1.806-6.74,3.607-10.11,5.41c-0.096,0.335-0.049,0.678-0.049,1.017c-0.003,9.271-0.001,18.542-0.007,27.813
			c0,0.332,0.099,0.683-0.1,0.998l-0.01,0.008c-0.316,0.199-0.668,0.1-1.001,0.1c-7.711,0.006-15.421,0.004-23.132,0.006
			c-1.279,0-1.125-0.11-1.126,1.165c-0.003,8.426-0.003,16.851,0,25.277c0,1.275-0.152,1.164,1.126,1.165
			c7.711,0.002,15.421-0.001,23.132,0.006c0.333,0,0.685-0.099,1.001,0.1l0.01,0.008c0.204,0.348,0.099,0.73,0.099,1.094
			c0.006,27.68,0.005,55.36,0.008,83.04c0,0.37-0.055,0.746,0.053,1.112c0.018,0.534,0.037,1.067,0.055,1.601
			c0.15,0.323,0.002,0.685,0.133,1.011c0.076,0.939,0.048,1.901,0.249,2.813c0.543,2.461,1.027,4.931,1.851,7.335
			c1.023,2.984,2.345,5.802,4.031,8.449c2.879,4.521,6.677,8.095,11.391,10.648c3.684,1.996,7.637,3.183,11.807,3.627
			c0.378,0.154,0.797-0.043,1.171,0.139c0.418,0.017,0.837,0.035,1.255,0.052c1.738,0.091,3.477,0.091,5.215,0
			c0.538-0.018,1.076-0.036,1.614-0.055c0.381-0.17,0.8,0.008,1.184-0.131c0.294-0.018,0.588-0.036,0.882-0.054
			c0.311-0.169,0.672,0.009,0.986-0.142c3.739-0.487,7.391-1.39,10.899-2.726c2.42-0.922,4.734-2.151,6.979-3.474
			c0.352-0.208,0.506-0.474,0.606-0.868c1.903-7.47,3.826-14.935,5.739-22.402c0.443-1.729,0.862-3.465,1.314-5.286
			c-0.294,0.117-0.469,0.156-0.611,0.247C326.624,304.882,322.829,306.884,318.777,308.372z"/>
		<path style="fill:#D8261C;" d="M395.172,153.8c-3.943-4.754-8.166-9.23-12.685-13.442c-3.966-3.696-8.13-7.134-12.457-10.395
			c-6.486-4.887-13.356-9.153-20.552-12.895c-8.112-4.218-16.558-7.622-25.306-10.294c-8.548-2.611-17.273-4.328-26.13-5.429
			c-0.315-0.139-0.672,0.031-0.983-0.137c-0.232-0.015-0.464-0.029-0.696-0.044c-0.374-0.163-0.794,0.044-1.165-0.144
			c-0.296-0.015-0.592-0.03-0.888-0.045c-0.388-0.149-0.814,0.031-1.199-0.138c-0.471-0.018-0.942-0.036-1.414-0.054
			c-0.513-0.153-1.056,0.054-1.566-0.133c-0.66-0.017-1.319-0.034-1.979-0.051c-1.012-0.172-2.042,0.068-3.052-0.135
			c-1.756,0-3.511,0-5.267,0c-1.01,0.204-2.04-0.036-3.051,0.135c-0.662,0.017-1.324,0.035-1.985,0.052
			c-0.508,0.187-1.049-0.02-1.559,0.132c-0.473,0.018-0.946,0.037-1.419,0.055c-0.384,0.17-0.808-0.011-1.194,0.136
			c-0.346,0.017-0.691,0.034-1.037,0.05c-0.324,0.153-0.69,0-1.016,0.138c-0.234,0.015-0.469,0.029-0.704,0.044
			c-0.307,0.174-0.663-0.001-0.975,0.138c-3.93,0.478-7.851,1.033-11.735,1.796c-6.843,1.345-13.575,3.134-20.159,5.434
			c-4.174,1.458-8.271,3.115-12.315,4.918c-5.129,2.288-10.076,4.902-14.915,7.736c-4.355,2.551-8.542,5.357-12.597,8.359
			c-3.081,2.281-6.086,4.658-8.953,7.207c-1.4,1.245-2.763,2.532-4.161,3.775c-3.499,3.112-6.64,6.563-9.748,10.042
			c-2.015,2.255-3.889,4.641-5.764,7.017c-1.738,2.203-3.368,4.49-4.935,6.82c0.204,0.516,0.651,0.255,0.968,0.256
			c10.895,0.017,21.791,0.015,32.686,0.009c0.302,0,0.622,0.094,0.905-0.103c1.435-1.493,2.962-2.892,4.441-4.336
			c2.418-2.36,4.974-4.54,7.581-6.672c5.929-4.85,12.308-9.033,19.058-12.637c3.503-1.87,7.097-3.566,10.784-5.067
			c5.265-2.143,10.64-3.933,16.154-5.302c3.743-0.929,7.499-1.776,11.347-2.211c1.988-0.225,3.96-0.615,5.965-0.717
			c0.373-0.183,0.791,0.013,1.167-0.138c0.35-0.017,0.699-0.034,1.049-0.052c0.509-0.188,1.052,0.027,1.563-0.136
			c0.476-0.016,0.951-0.033,1.427-0.049c0.822-0.198,1.667,0.032,2.491-0.134c2.18-0.084,4.361-0.084,6.541,0.001
			c0.766,0.167,1.556-0.068,2.32,0.134c0.533,0.017,1.065,0.033,1.598,0.05c0.509,0.162,1.051-0.053,1.558,0.136
			c0.351,0.017,0.703,0.035,1.054,0.052c0.375,0.151,0.791-0.048,1.162,0.138c0.297,0.015,0.593,0.03,0.89,0.046
			c0.316,0.142,0.675-0.028,0.987,0.138c1.241,0.211,2.494,0.382,3.737,0.53c2.35,0.279,4.672,0.702,6.982,1.164
			c5.562,1.112,10.993,2.734,16.326,4.652c3.421,1.23,6.772,2.652,10.053,4.226c4.545,2.181,8.949,4.609,13.202,7.325
			c3.092,1.975,6.092,4.068,8.991,6.309c1.998,1.545,3.97,3.128,5.895,4.763c1.499,1.274,2.925,2.637,4.353,3.992
			c1.328,1.261,2.616,2.565,3.922,3.851c0.06,0.016,0.12,0.045,0.18,0.045c11.259,0.015,22.518,0.005,33.778,0.003
			c0.219,0,0.527,0.12,0.588-0.265c-0.164-0.185-0.351-0.355-0.489-0.557C400.448,160.396,397.872,157.055,395.172,153.8z"/>
		<path style="fill:#FFFFFF;" d="M210.589,188.592c-9.42,0.024-18.841,0.015-28.261,0.023c-0.292,0-0.624-0.138-0.876,0.144
			c0.009,0.31,0.027,0.621,0.027,0.931c0.001,48.163,0.001,96.326,0,144.489c0,0.31-0.02,0.62-0.03,0.931
			c0.223,0.263,0.525,0.139,0.787,0.139c9.483,0.007,18.965-0.005,28.448,0.027c0.801,0.003,0.893-0.289,0.893-0.965
			c-0.013-48.253-0.014-96.505,0.006-144.758C211.583,188.752,211.338,188.59,210.589,188.592z"/>
		<path style="fill:#FFFFFF;" d="M384.051,188.728c-0.275-0.222-0.6-0.115-0.899-0.115c-9.419-0.006-18.838,0.004-28.257-0.022
			c-0.762-0.002-0.983,0.185-0.982,0.97c0.019,48.245,0.019,96.49,0,144.736c0,0.781,0.214,0.975,0.98,0.973
			c9.419-0.026,18.838-0.016,28.257-0.021c0.302,0,0.623,0.094,0.906-0.103c-0.003-13.119-0.01-26.237-0.01-39.356
			C384.047,260.103,384.049,224.416,384.051,188.728z"/>
	</g>
</g>
</svg>
