<?xml version="1.0" encoding="iso-8859-1"?>
<!-- Generator: Adobe Illustrator 22.0.1, SVG Export Plug-In . SVG Version: 6.00 Build 0)  -->
<svg version="1.1" id="Layer_1" xmlns="http://www.w3.org/2000/svg" xmlns:xlink="http://www.w3.org/1999/xlink" x="0px" y="0px"
	 viewBox="0 0 438.53 438.53" style="enable-background:new 0 0 438.53 438.53;" xml:space="preserve">
<g id="_x32_">
	<g>
		<path style="fill:#F0F0F0;" d="M28.409,196.727l-7.233-22.259l18.935-13.756H16.707l-3.528-10.858
			c-4.056,12.068-7.032,24.42-8.923,36.908l5.218-3.791L28.409,196.727z"/>
		<path style="fill:#F0F0F0;" d="M308.483,102.518h-88.694c0,16.352,0,34.675,0,58.273h30.421L308.483,102.518z"/>
		<polygon style="fill:#F0F0F0;" points="96.833,160.712 89.601,138.453 82.369,160.712 58.965,160.712 77.9,174.468 
			70.667,196.727 89.601,182.97 108.536,196.727 101.303,174.468 120.238,160.712 		"/>
		<path style="fill:#F0F0F0;" d="M25.069,121.373c-0.969,1.924-1.916,3.856-2.825,5.802l6.165,4.479L25.069,121.373z"/>
		<polygon style="fill:#F0F0F0;" points="89.601,73.38 82.369,95.639 58.965,95.639 77.9,109.396 70.667,131.654 89.601,117.898 
			108.536,131.654 101.303,109.396 120.238,95.639 96.833,95.639 		"/>
		<path style="fill:#F0F0F0;" d="M349.076,44.244C310.803,15.96,265.301,1.798,219.789,1.766c0,16.313,0,30.008,0,42.478H349.076z"
			/>
		<path style="fill:#F0F0F0;" d="M89.601,52.826l18.934,13.756l-7.233-22.259l18.935-13.756h-9.085
			C97.876,38.18,85.231,47.291,73.48,57.925l-2.813,8.657L89.601,52.826z"/>
		<path style="fill:#F0F0F0;" d="M191.936,219.065H1.776c0,0.189-0.007,0.378-0.007,0.567c0,19.424,2.58,38.845,7.725,57.706
			h124.168L191.936,219.065z"/>
		<polygon style="fill:#F0F0F0;" points="181.429,174.468 200.364,160.712 176.96,160.712 169.728,138.453 162.496,160.712 
			139.091,160.712 158.026,174.468 150.793,196.727 169.728,182.97 188.662,196.727 		"/>
		<path style="fill:#F0F0F0;" d="M35.063,335.612c5.072,8.071,10.736,15.873,16.966,23.359l23.36-23.359H35.063z"/>
		<polygon style="fill:#F0F0F0;" points="150.793,66.582 169.728,52.826 188.662,66.582 181.429,44.323 200.364,30.567 
			176.96,30.567 169.728,8.308 162.496,30.567 139.091,30.567 158.026,44.323 		"/>
		<polygon style="fill:#F0F0F0;" points="150.793,131.654 169.728,117.898 188.662,131.654 181.429,109.396 200.364,95.639 
			176.96,95.639 169.728,73.38 162.496,95.639 139.091,95.639 158.026,109.396 		"/>
		<path style="fill:#D80027;" d="M250.21,160.791h-30.421c0,9.262,0,19.335,0,30.421L250.21,160.791z"/>
		<path style="fill:#D80027;" d="M219.789,102.518h88.694l50.498-50.498c-3.244-2.699-6.546-5.293-9.906-7.776H219.789
			C219.789,64.872,219.789,82.177,219.789,102.518z"/>
		<path style="fill:#D80027;" d="M133.663,277.338H9.494c5.541,20.31,14.063,39.967,25.569,58.274h40.325L133.663,277.338z"/>
		<path style="fill:#0052B4;" d="M210.077,200.924v-40.133h9.712c0-23.598,0-41.922,0-58.273h-9.712V44.244h9.712
			c0-12.47,0-26.165,0-42.478c-37.563-0.026-75.124,9.583-108.636,28.801h9.085l-18.935,13.756l7.233,22.259L89.601,52.826
			L70.667,66.582l2.813-8.657c-2.706,2.449-5.366,4.976-7.975,7.585c-16.808,16.805-30.277,35.706-40.436,55.863l3.341,10.282
			l-6.165-4.479c-3.464,7.416-6.48,14.99-9.065,22.679l3.528,10.858h23.405l-18.935,13.756l7.233,22.259L9.475,182.97l-5.218,3.791
			c-1.62,10.703-2.452,21.502-2.481,32.303h190.16L210.077,200.924z M108.536,196.727L89.601,182.97l-18.934,13.756l7.233-22.259
			l-18.935-13.756H82.37l7.232-22.259l7.232,22.259h23.405l-18.935,13.756L108.536,196.727z M101.303,109.396l7.233,22.259
			l-18.934-13.756l-18.934,13.756l7.233-22.259L58.965,95.639H82.37l7.232-22.259l7.232,22.259h23.405L101.303,109.396z
			 M162.496,30.567l7.232-22.259l7.232,22.259h23.405L181.43,44.323l7.233,22.259l-18.934-13.756l-18.934,13.756l7.233-22.259
			l-18.935-13.756C139.093,30.567,162.496,30.567,162.496,30.567z M162.496,95.639l7.232-22.259l7.232,22.259h23.405l-18.935,13.756
			l7.233,22.259l-18.934-13.756l-18.934,13.756l7.233-22.259l-18.935-13.756C139.093,95.639,162.496,95.639,162.496,95.639z
			 M150.793,196.727l7.233-22.259l-18.935-13.756h23.405l7.232-22.259l7.232,22.259h23.405l-18.935,13.756l7.233,22.259
			l-18.934-13.756L150.793,196.727z"/>
		<path style="fill:#0052B4;" d="M219.789,160.791h-9.712v40.133l9.712-9.712C219.789,180.126,219.789,170.053,219.789,160.791z"/>
		<path style="fill:#0052B4;" d="M210.077,44.244v58.274h9.712c0-20.34,0-37.646,0-58.274H210.077z"/>
		<path style="fill:#F0F0F0;" d="M386.548,79.606l-80.599,80.599c15.344,19.076,24.529,43.316,24.529,69.703
			c0,61.47-49.831,111.301-111.301,111.301c-26.387,0-50.626-9.186-69.703-24.529l-69.866,69.866
			c40.225,33.466,89.749,50.219,139.292,50.219c55.812-0.007,111.645-21.252,154.122-63.736
			C453.235,292.829,457.734,165.154,386.548,79.606z"/>
		<path style="fill:#D80027;" d="M219.178,341.208c61.47,0,111.301-49.831,111.301-111.301c0-26.387-9.186-50.626-24.529-69.703
			L149.475,316.679C168.552,332.022,192.791,341.208,219.178,341.208z"/>
		<path style="fill:#FFFFFF;" d="M373.023,64.764c0.106,0.106,0.207,0.215,0.313,0.321c0.144,0.143,0.29,0.282,0.433,0.425
			l-0.009,0.009c4.506,4.549,8.766,9.252,12.788,14.086l0.248-0.248c-8.418-9.926-17.705-19.101-27.755-27.398l-0.059,0.059
			c4.818,4.009,9.501,8.261,14.035,12.752L373.023,64.764z"/>
		<path style="fill:#FFFFFF;" d="M64.766,373.022l0.746,0.746c-0.118-0.118-0.23-0.24-0.348-0.358
			C65.032,373.278,64.897,373.153,64.766,373.022z"/>
		<path style="fill:#FFFFFF;" d="M52.029,358.972l-0.249,0.249c2.054,2.421,4.158,4.8,6.315,7.129l6.671,6.671l0.011-0.011
			C60.285,368.476,56.039,363.791,52.029,358.972z"/>
		<path style="fill:#FFFFFF;" d="M65.512,373.768l4.476,4.476c3.104,2.877,6.286,5.672,9.555,8.368l0.067-0.067
			c-4.835-4.023-9.538-8.281-14.088-12.787L65.512,373.768z"/>
		<polygon style="fill:#FFFFFF;" points="276.996,160.791 292.029,145.758 335.27,102.518 308.483,102.518 250.21,160.791 		"/>
		<polygon style="fill:#FFFFFF;" points="218.722,219.065 210.077,219.065 191.936,219.065 133.663,277.338 160.449,277.338 		"/>
		<path style="fill:#FFFFFF;" d="M65.163,373.409c0.118,0.118,0.23,0.24,0.348,0.358l0.01-0.01
			C65.403,373.641,65.282,373.527,65.163,373.409z"/>
		<path style="fill:#FFFFFF;" d="M74.093,363.694L74.093,363.694l28.082-28.082H75.389l-23.36,23.359
			c4.01,4.819,8.256,9.504,12.747,14.039L74.093,363.694z"/>
		<path style="fill:#FFFFFF;" d="M250.21,160.791l-30.421,30.421c0,8.326,0,17.231,0,26.786l57.207-57.207H250.21z"/>
		<path style="fill:#FFFFFF;" d="M335.27,102.518l28.44-28.44l9.307-9.307c-4.534-4.491-9.217-8.742-14.035-12.752l-50.498,50.498
			L335.27,102.518L335.27,102.518z"/>
		<path style="fill:#FFFFFF;" d="M373.769,65.51c-0.143-0.143-0.289-0.282-0.433-0.425c0.143,0.144,0.281,0.29,0.423,0.434
			L373.769,65.51z"/>
		<polygon style="fill:#FFFFFF;" points="160.449,277.338 133.663,277.338 75.389,335.612 102.175,335.612 135.029,302.758 		"/>
		<polygon style="fill:#FFFFFF;" points="210.077,200.924 191.936,219.065 210.077,219.065 		"/>
		<path style="fill:#FFFFFF;" d="M218.722,219.065l1.067-1.067c0-9.555,0-18.461,0-26.786l-9.712,9.712v18.141L218.722,219.065
			L218.722,219.065z"/>
		<path style="fill:#FFFFFF;" d="M64.776,373.011l-0.011,0.011c0.131,0.131,0.266,0.257,0.398,0.388
			C65.032,373.278,64.907,373.143,64.776,373.011z"/>
		<path style="fill:#FFFFFF;" d="M135.732,303.547l-32.065,32.065L74.839,364.44l0,0l-9.318,9.318
			c4.55,4.506,9.253,8.765,14.088,12.787l69.866-69.866C144.528,312.699,139.931,308.303,135.732,303.547z"/>
		<path style="fill:#FFFFFF;" d="M364.455,74.824l-27.694,27.694l-43.943,43.943c4.755,4.2,9.152,8.796,13.131,13.743l80.599-80.599
			c-4.023-4.835-8.282-9.537-12.788-14.086L364.455,74.824z"/>
		<path style="fill:#FFFFFF;" d="M373.023,64.764l-0.007,0.007c0.106,0.105,0.214,0.209,0.32,0.314
			C373.23,64.979,373.129,64.87,373.023,64.764z"/>
		<path style="fill:#FFFFFF;" d="M292.818,146.461l43.943-43.943h-1.492l-43.241,43.241
			C292.295,145.989,292.554,146.228,292.818,146.461z"/>
		<path style="fill:#FFFFFF;" d="M74.093,363.694L74.093,363.694l-9.317,9.317c0.131,0.132,0.256,0.267,0.387,0.398
			c0.118,0.118,0.239,0.231,0.358,0.349l9.318-9.318l0,0l28.828-28.828h-1.492L74.093,363.694z"/>
		<path style="fill:#FFFFFF;" d="M364.455,74.824l9.305-9.305c-0.143-0.144-0.28-0.291-0.423-0.434
			c-0.106-0.106-0.214-0.209-0.32-0.314l-9.307,9.307l-28.44,28.44h1.492L364.455,74.824z"/>
		<path style="fill:#FFFFFF;" d="M102.175,335.612h1.492l32.065-32.065c-0.233-0.264-0.472-0.523-0.702-0.79L102.175,335.612z"/>
		<path style="fill:#FFFFFF;" d="M292.818,146.461l-14.33,14.33l-58.274,58.274l-58.273,58.273l-26.209,26.209
			c4.2,4.755,8.796,9.152,13.743,13.131L305.95,160.204C301.97,155.257,297.574,150.661,292.818,146.461z"/>
		<path style="fill:#FFFFFF;" d="M276.996,160.791h1.492l14.33-14.33c-0.264-0.233-0.523-0.472-0.79-0.702L276.996,160.791z"/>
		<polygon style="fill:#FFFFFF;" points="218.722,219.065 160.449,277.338 161.941,277.338 220.214,219.065 219.789,219.065 		"/>
		<path style="fill:#FFFFFF;" d="M219.789,217.998c0,0.357,0,0.708,0,1.067h0.425l58.274-58.274h-1.492L219.789,217.998z"/>
		<path style="fill:#FFFFFF;" d="M160.449,277.338l-25.42,25.42c0.231,0.266,0.469,0.526,0.702,0.79l26.209-26.209h-1.491V277.338z"
			/>
		<path style="fill:#FFFFFF;" d="M219.789,217.998l-1.067,1.067h1.067C219.789,218.706,219.789,218.356,219.789,217.998z"/>
	</g>
</g>
</svg>
