<?xml version="1.0" encoding="iso-8859-1"?>
<!-- Generator: Adobe Illustrator 22.0.1, SVG Export Plug-In . SVG Version: 6.00 Build 0)  -->
<svg version="1.1" id="Layer_1" xmlns="http://www.w3.org/2000/svg" xmlns:xlink="http://www.w3.org/1999/xlink" x="0px" y="0px"
	 viewBox="0 0 438.53 438.53" style="enable-background:new 0 0 438.53 438.53;" xml:space="preserve">
<g id="_x32_00">
	<g>
		<path style="fill:#64A7EF;" d="M407.603,110.087c-19.45-33.321-45.833-59.704-79.155-79.153
			c-33.328-19.448-69.711-29.17-109.176-29.17c-39.461,0-75.854,9.722-109.177,29.17C76.771,50.38,50.388,76.763,30.938,110.087
			c-19.451,33.326-29.173,69.72-29.173,109.178c0,39.46,9.725,75.847,29.17,109.175c19.449,33.321,45.832,59.704,79.156,79.155
			c33.326,19.447,69.717,29.17,109.177,29.17s75.854-9.723,109.179-29.17c33.322-19.444,59.704-45.834,79.152-79.155
			c19.445-33.325,29.166-69.718,29.166-109.175C436.766,179.803,427.044,143.409,407.603,110.087z M178.013,172.268
			c1.664-5.14,4.302-9.65,8.868-12.784c3-2.059,6.34-2.931,9.959-2.52c2.976,0.339,5.262,1.826,6.9,4.404
			c0-4.735,0.026-9.471-0.022-14.206c-0.01-0.961,0.196-1.3,1.229-1.284c4.083,0.061,8.168,0.046,12.252,0.008
			c0.89-0.008,1.241,0.171,1.24,1.173c-0.03,21.932-0.028,43.863-0.006,65.795c0.001,0.868-0.177,1.185-1.124,1.172
			c-3.878-0.056-7.757-0.057-11.634,0c-0.944,0.014-1.167-0.287-1.12-1.165c0.07-1.292,0.018-2.591,0.018-4.087
			c-0.531,0.772-0.903,1.415-1.372,1.978c-2.806,3.365-6.518,4.4-10.713,3.987c-5.241-0.516-8.917-3.439-11.568-7.809
			c-2.554-4.212-3.811-8.867-4.459-13.697C175.512,186.143,175.795,179.122,178.013,172.268z M151.622,146.841
			c0-0.703,0.19-0.955,0.92-0.95c4.222,0.028,8.444,0.042,12.666-0.008c0.951-0.011,1.125,0.328,1.123,1.191
			c-0.026,10.984-0.017,21.968-0.017,32.953c0,10.881,0,21.762,0,32.644c0,1.332-0.002,1.333-1.337,1.334
			c-4.119,0.001-8.238-0.017-12.357,0.016c-0.744,0.006-1.002-0.168-1.002-0.964C151.639,190.984,151.638,168.912,151.622,146.841z
			 M91.779,272.692c-1.107,9.91-8.498,16.911-18.276,19.374c-2.576,0.649-5.198,0.905-7.854,0.901
			c-6.935-0.011-13.87-0.022-20.804,0.018c-0.959,0.005-1.2-0.286-1.196-1.218c0.033-8.857,0.034-17.714-0.002-26.571
			c-0.004-0.961,0.285-1.314,1.214-1.181c0.236,0.034,0.485,0.036,0.719,0c0.85-0.13,1.091,0.302,1.229,1.074
			c0.806,4.505,1.987,8.906,3.943,13.064c1.489,3.167,3.357,6.074,6.144,8.276c4.083,3.227,8.687,4.003,13.591,2.49
			c4.319-1.333,6.401-4.638,6.993-8.946c0.877-6.375-1.672-11.211-6.829-14.838c-3.747-2.636-7.94-4.493-11.858-6.829
			c-2.889-1.723-5.738-3.489-8.451-5.494c-8.682-6.416-9.014-20.496-0.461-27.9c2.873-2.487,6.122-4.268,9.706-5.478
			c0.278-0.094,0.626-0.062,0.828-0.44c-3.127-0.466-6.128-1.264-8.903-2.762c-5.675-3.065-9.158-7.933-11.344-13.856
			c-1.764-4.78-2.499-9.755-2.759-14.815c-0.38-7.398,0.153-14.682,2.816-21.684c2.574-6.768,6.465-12.549,12.577-16.64
			c4.803-3.215,10.16-4.564,15.883-4.588c6.008-0.025,12.016,0.011,18.023-0.025c0.874-0.005,1.085,0.27,1.082,1.11
			c-0.03,7.278-0.032,14.556,0.002,21.834c0.004,0.872-0.263,1.114-1.107,1.085c-2.283-0.077-1.754,0.213-2.254-1.753
			c-1.157-4.546-2.688-8.942-5.37-12.846c-2.052-2.987-4.557-5.435-8.258-6.219c-3.806-0.807-7.02,0.226-9.658,3.155
			c-2.587,2.872-3.745,6.341-4.458,10.022c-1.403,7.245-1.682,14.576-1.68,21.93c0.001,7.005,0.088,14.007,0.862,20.977
			c0.291,2.618,0.506,5.263,1.629,7.717c1.999,4.367,5.75,6.168,10.391,4.981c2.539-0.65,4.015-2.37,4.854-4.747
			c0.857-2.427,1.112-4.958,1.14-7.5c0.051-4.633,0.164-9.268-0.079-13.899c-0.062-1.177-0.332-2.306-0.796-3.388
			c-0.83-1.94-2.241-3.168-4.351-3.53c-0.879-0.15-1.756-0.319-2.641-0.428c-0.65-0.08-0.955-0.324-0.934-1.044
			c0.075-2.534-0.304-2.085,2.029-2.093c6.729-0.023,13.458,0.01,20.186-0.028c0.979-0.005,1.341,0.164,1.338,1.273
			c-0.04,19.19-0.037,38.381-0.006,57.572c0.002,1.007-0.277,1.292-1.263,1.244c-2.068-0.1-1.626,0.229-2.152-1.673
			c-0.962-3.476-1.969-6.932-3.76-10.098c-1.878-3.321-4.322-6.037-8.051-7.285c-2.765-0.925-5.606-1.006-8.423-0.266
			c-5.184,1.363-8.011,5.88-7.415,11.392c0.45,4.162,2.699,7.013,6.077,9.164c4.201,2.676,8.679,4.863,13.012,7.305
			c2.933,1.653,5.836,3.341,8.392,5.565C90.722,259.088,92.59,265.436,91.779,272.692z M139.043,291.637
			c0,1.323-0.002,1.325-1.36,1.326c-3.707,0.001-7.415-0.018-11.122,0.015c-0.752,0.007-1.039-0.202-1.014-0.984
			c0.05-1.538,0.015-3.079,0.015-4.89c-4.367,5.967-10.376,8.027-17.288,6.117c-4.254-1.176-7.029-3.91-8.285-8.109
			c-1.186-3.965-1.239-7.995-0.177-11.996c1.217-4.585,4.441-7.446,8.478-9.56c3.438-1.8,7.058-3.203,10.558-4.868
			c1.363-0.648,2.736-1.275,4.018-2.081c1.227-0.771,1.874-1.826,1.856-3.325c-0.04-3.261,0.03-6.523-0.029-9.783
			c-0.066-3.667-1.748-5.24-5.397-5.186c-1.138,0.017-2.261,0.116-3.333,0.542c-2.339,0.929-2.934,3.073-1.352,5.041
			c0.929,1.156,1.858,2.269,2.1,3.819c0.394,2.534-0.643,5.059-2.827,6.391c-1.926,1.174-4.034,1.785-6.293,1.318
			c-4.532-0.937-6.88-4.826-5.677-9.301c0.729-2.713,2.425-4.74,4.635-6.366c3.865-2.844,8.311-4.017,13.013-4.277
			c3.644-0.202,7.279-0.033,10.779,1.193c5.213,1.825,8.024,5.518,8.521,10.999c0.14,1.539,0.188,3.081,0.187,4.627
			C139.04,265.41,139.044,278.524,139.043,291.637z M139.68,199.543c-1.921,5.433-5.329,9.749-10.223,12.772
			c-6.639,4.1-13.282,3.925-19.853-0.3c-5.685-3.655-8.833-9.049-10.706-15.346c-0.45-1.514-0.776-3.059-1.004-4.621
			c-0.303-2.073-0.496-4.157-0.457-6.261c0.119-7.508,1.821-14.542,6.333-20.703c2.761-3.771,6.414-6.443,10.836-7.833
			c6.176-1.941,11.754-0.429,16.807,3.477c5.075,3.923,7.952,9.183,9.386,15.299C142.659,183.959,142.41,191.823,139.68,199.543z
			 M233.625,292.98c-4.119-0.04-8.239-0.049-12.358,0.006c-0.985,0.013-1.189-0.325-1.188-1.235
			c0.023-14.075,0.017-28.15,0.007-42.225c-0.001-1.646,0.035-3.299-0.266-4.929c-0.328-1.782-0.863-3.461-2.848-4.041
			c-2.1-0.613-3.96,0.012-5.496,1.463c-1.679,1.585-2.329,3.69-2.554,5.923c-0.124,1.227-0.164,2.467-0.165,3.701
			c-0.011,13.32-0.007,26.639-0.007,39.959c0,1.357-0.003,1.359-1.329,1.36c-3.913,0.001-7.827-0.024-11.74,0.019
			c-0.909,0.01-1.232-0.201-1.22-1.184c0.056-4.461,0.024-8.923,0.024-13.384c-1.559,3.28-3.631,6.154-6.238,8.634
			c-3.451,3.284-7.387,5.769-12.17,6.473c-8.843,1.303-20.779-1.93-25.116-14.46c-3.543-10.235-3.409-20.568,1.374-30.452
			c3.3-6.819,8.802-11.243,16.32-12.835c3.63-0.769,7.262-0.472,10.729,0.894c5.4,2.127,8.256,8.249,6.686,13.789
			c-1.729,6.097-9.842,6.586-13.115,3.533c-2.221-2.072-2.597-5.931-0.751-8.717c0.661-0.997,1.464-1.902,2.224-2.831
			c1.503-1.836,0.899-3.526-1.44-3.958c-2.433-0.449-4.404,0.323-5.846,2.337c-1.5,2.095-2.149,4.535-2.484,7.019
			c-1.197,8.876-1.308,17.783-0.528,26.703c0.251,2.873,0.585,5.733,1.313,8.532c0.286,1.099,0.679,2.159,1.226,3.158
			c1.462,2.673,3.766,3.975,6.759,4.199c4.282,0.32,7.875-1.275,10.987-4.045c5.459-4.858,8.391-11.091,9.65-18.19
			c0.342-1.93,0.428-3.883,0.426-5.844c-0.012-12.221,0.004-24.442-0.026-36.663c-0.002-0.927,0.223-1.216,1.183-1.203
			c3.981,0.055,7.965,0.059,11.946-0.002c0.998-0.015,1.181,0.335,1.174,1.23c-0.037,4.6-0.017,9.2-0.017,13.8
			c0,0.334,0,0.667,0,0.956c0.254,0.133,0.336,0.001,0.418-0.1c4.047-5.042,12.166-6.08,17.168-4.06
			c4.563,1.843,6.81,5.544,7.882,10.122c0.448,1.911,0.616,3.861,0.617,5.823c0.004,13.182-0.009,26.365,0.026,39.547
			C234.863,292.798,234.525,292.989,233.625,292.98z M276.141,288.338c-3.372,2.81-7.324,4.403-11.694,4.536
			c-5.796,0.177-11.601,0.059-17.401,0.102c-0.781,0.006-0.885-0.34-0.881-0.993c0.023-3.192,0.011-6.385,0.01-9.577
			c0-3.158,0.024-6.316-0.017-9.474c-0.01-0.771,0.219-1.003,0.987-0.997c1.943,0.015,1.924-0.017,2.344,1.874
			c0.85,3.829,1.847,7.614,4.03,10.946c2.493,3.804,6.015,5.73,10.575,5.156c5.285-0.665,8.097-4.843,7.128-10.177
			c-0.519-2.858-2.137-4.999-4.266-6.842c-2.848-2.466-6.185-4.194-9.335-6.203c-2.228-1.421-4.39-2.929-6.515-4.506
			c-8.987-6.668-5.705-20.135,2.332-24.278c3.024-1.559,6.218-2.389,9.583-2.445c5.01-0.083,10.023-0.02,15.034-0.046
			c0.647-0.003,0.899,0.156,0.895,0.854c-0.028,4.462-0.027,8.925-0.001,13.387c0.004,0.685-0.232,0.867-0.89,0.874
			c-2.026,0.022-2.019,0.046-2.618-1.898c-0.669-2.173-1.503-4.271-2.844-6.133c-2.409-3.345-6.577-4.94-10.542-3.922
			c-5.964,1.532-6.362,7.227-4.482,10.655c0.999,1.821,2.548,3.132,4.22,4.298c3.076,2.146,6.473,3.74,9.716,5.598
			c1.758,1.007,3.479,2.066,5.08,3.317c3.188,2.492,5.089,5.718,5.539,9.745C282.841,278.568,281.204,284.118,276.141,288.338z
			 M297.446,212.669c0,1.332-0.002,1.333-1.332,1.334c-3.845,0.001-7.689,0.006-11.534-0.003c-1.579-0.004-1.46,0.22-1.461-1.514
			c-0.009-14.074-0.014-28.149-0.02-42.223c-0.001-1.651-0.075-3.298-0.482-4.905c-0.448-1.771-1.233-3.313-3.168-3.846
			c-2.05-0.565-3.729,0.245-5.104,1.671c-1.981,2.056-2.453,4.688-2.55,7.416c-0.037,1.029-0.02,2.059-0.02,3.089
			c-0.001,12.976-0.001,25.952-0.001,38.928c0,1.386-0.001,1.387-1.386,1.387c-3.879,0-7.758-0.033-11.637,0.023
			c-0.971,0.014-1.267-0.21-1.264-1.231c0.036-13.868,0.023-27.737,0.024-41.605c0-2.025,0.017-4.053-0.396-6.049
			c-0.736-3.557-3.49-4.807-6.648-3.021c-2.797,1.582-3.664,4.209-3.829,7.192c-0.055,0.993-0.047,1.99-0.047,2.985
			c-0.003,13.491-0.013,26.982,0.021,40.472c0.002,0.984-0.231,1.274-1.24,1.258c-3.912-0.062-7.826-0.024-11.74-0.025
			c-1.308,0-1.31-0.002-1.31-1.365c0-17.336,0-34.671,0-52.006c0-0.687,0.024-1.374-0.006-2.059
			c-0.026-0.595,0.164-0.868,0.812-0.864c3.81,0.02,7.621,0.021,11.431-0.001c0.672-0.004,0.795,0.306,0.787,0.883
			c-0.024,1.628-0.008,3.256-0.008,4.884c1.02-1.415,1.996-2.769,3.33-3.812c4.733-3.699,9.938-4.201,15.426-2.088
			c2.658,1.023,4.375,3.122,5.545,5.678c0.139,0.305,0.275,0.611,0.453,1.008c0.572-0.837,1.055-1.608,1.6-2.334
			c5.87-7.817,17.236-6.548,21.782-1.282c2.367,2.742,3.392,5.991,3.783,9.5c0.175,1.57,0.191,3.149,0.19,4.73
			C297.442,187.473,297.446,200.071,297.446,212.669z M346.023,214.003c-3.707,0.001-7.414,0.001-11.121,0
			c-1.356,0-1.356-0.001-1.357-1.408c-0.001-1.429,0-2.859,0-4.288c-3.889,8.564-18.125,9.185-23.422,2.011
			c-1.076-1.457-1.85-3.05-2.312-4.79c-0.868-3.269-0.935-6.586-0.368-9.902c0.797-4.655,3.501-7.946,7.524-10.261
			c3.612-2.078,7.529-3.481,11.321-5.161c1.442-0.639,2.895-1.25,4.264-2.046c1.47-0.855,2.188-2.075,2.165-3.801
			c-0.043-3.226,0.012-6.453-0.019-9.679c-0.036-3.724-3.061-6.045-6.727-5.189c-0.802,0.187-1.581,0.462-2.316,0.842
			c-2.186,1.13-2.602,3.105-0.877,4.858c1.794,1.823,2.294,3.935,1.778,6.334c-0.706,3.277-3.744,5.337-7.46,5.126
			c-0.753-0.043-1.517-0.063-2.252-0.211c-3.716-0.746-5.86-4.21-5.125-8.229c0.618-3.382,2.591-5.845,5.328-7.767
			c3.226-2.265,6.878-3.398,10.752-3.801c4.882-0.507,9.623-0.097,14.161,2.076c4.832,2.314,7.055,6.189,7.36,11.359
			c0.073,1.232,0.081,2.47,0.081,3.705c0.005,12.94,0.004,25.881,0.003,38.821C347.405,214.002,347.403,214.003,346.023,214.003z
			 M399.915,214.003c-4.085,0.001-8.17-0.029-12.255,0.022c-0.949,0.012-1.198-0.258-1.197-1.2
			c0.028-14.211,0.017-28.423,0.017-42.634c0-1.615-0.012-3.23-0.321-4.82c-0.342-1.76-0.988-3.341-2.932-3.858
			c-2.076-0.552-3.912,0.099-5.386,1.534c-2.169,2.112-2.653,4.914-2.669,7.776c-0.049,8.65-0.025,17.301-0.028,25.951
			c-0.002,5.389-0.02,10.779,0.019,16.168c0.006,0.87-0.257,1.088-1.101,1.08c-4.05-0.042-8.101-0.041-12.151,0
			c-0.818,0.008-1.039-0.238-1.038-1.042c0.02-18.056,0.021-36.112-0.001-54.168c-0.001-0.839,0.216-1.124,1.087-1.114
			c3.776,0.043,7.552,0.039,11.328,0.002c0.807-0.008,1.072,0.229,1.041,1.045c-0.06,1.575-0.018,3.154-0.018,4.731
			c1.673-2.654,3.844-4.631,6.661-5.873c9.076-4.001,18.532,1.373,19.909,11.294c0.232,1.67,0.341,3.346,0.342,5.028
			c0.007,12.907,0.004,25.814,0.004,38.721C401.228,214.002,401.227,214.003,399.915,214.003z"/>
		<path style="fill:#FEFEFE;" d="M85.046,254.149c-2.556-2.224-5.458-3.911-8.392-5.565c-4.333-2.442-8.811-4.629-13.012-7.305
			c-3.378-2.151-5.627-5.002-6.077-9.164c-0.596-5.512,2.23-10.029,7.415-11.392c2.817-0.74,5.657-0.659,8.423,0.266
			c3.729,1.247,6.173,3.964,8.051,7.285c1.791,3.167,2.798,6.622,3.76,10.098c0.526,1.901,0.084,1.572,2.152,1.673
			c0.986,0.048,1.265-0.237,1.263-1.244c-0.031-19.191-0.034-38.381,0.006-57.572c0.002-1.109-0.359-1.278-1.338-1.273
			c-6.729,0.038-13.457,0.005-20.186,0.028c-2.333,0.008-1.954-0.441-2.029,2.093c-0.021,0.72,0.284,0.964,0.934,1.044
			c0.884,0.109,1.762,0.277,2.641,0.428c2.11,0.361,3.521,1.589,4.351,3.53c0.463,1.083,0.734,2.212,0.796,3.388
			c0.244,4.632,0.13,9.266,0.079,13.899c-0.028,2.541-0.284,5.073-1.14,7.5c-0.839,2.376-2.314,4.097-4.854,4.747
			c-4.642,1.187-8.392-0.614-10.391-4.981c-1.124-2.454-1.339-5.099-1.629-7.717c-0.774-6.97-0.86-13.972-0.862-20.977
			c-0.002-7.354,0.277-14.685,1.68-21.93c0.713-3.681,1.871-7.15,4.458-10.022c2.638-2.929,5.853-3.962,9.658-3.155
			c3.701,0.785,6.206,3.232,8.258,6.219c2.682,3.903,4.213,8.299,5.37,12.846c0.5,1.966-0.029,1.676,2.254,1.753
			c0.844,0.028,1.111-0.213,1.107-1.085c-0.034-7.278-0.032-14.556-0.002-21.834c0.004-0.84-0.207-1.115-1.082-1.11
			c-6.008,0.036-12.016,0-18.023,0.025c-5.723,0.024-11.079,1.374-15.883,4.588c-6.113,4.091-10.004,9.873-12.577,16.64
			c-2.663,7.002-3.196,14.287-2.816,21.684c0.26,5.059,0.994,10.035,2.759,14.815c2.186,5.922,5.669,10.79,11.344,13.856
			c2.775,1.499,5.776,2.297,8.903,2.762c-0.202,0.378-0.55,0.346-0.828,0.44c-3.583,1.21-6.833,2.991-9.706,5.478
			c-8.553,7.405-8.22,21.485,0.461,27.9c2.713,2.005,5.562,3.771,8.451,5.494c3.918,2.337,8.111,4.194,11.858,6.829
			c5.157,3.627,7.706,8.463,6.829,14.838c-0.593,4.308-2.675,7.613-6.993,8.946c-4.905,1.514-9.508,0.737-13.591-2.49
			c-2.787-2.202-4.655-5.109-6.144-8.276c-1.955-4.158-3.136-8.559-3.943-13.064c-0.138-0.772-0.38-1.204-1.229-1.074
			c-0.235,0.036-0.484,0.034-0.719,0c-0.929-0.133-1.218,0.221-1.214,1.181c0.036,8.857,0.035,17.714,0.002,26.571
			c-0.003,0.931,0.237,1.223,1.196,1.218c6.934-0.039,13.869-0.029,20.804-0.018c2.655,0.004,5.277-0.252,7.854-0.901
			c9.778-2.463,17.169-9.464,18.276-19.374C92.59,265.436,90.722,259.088,85.046,254.149z"/>
		<path style="fill:#FEFEFE;" d="M234.217,246.431c-1.072-4.578-3.319-8.279-7.882-10.122c-5.002-2.02-13.121-0.983-17.168,4.06
			c-0.082,0.102-0.164,0.233-0.418,0.1c0-0.288,0-0.622,0-0.956c0-4.6-0.02-9.2,0.017-13.8c0.007-0.895-0.176-1.245-1.174-1.23
			c-3.981,0.061-7.964,0.057-11.946,0.002c-0.96-0.013-1.185,0.276-1.183,1.203c0.03,12.221,0.014,24.442,0.026,36.663
			c0.002,1.961-0.083,3.914-0.426,5.844c-1.259,7.099-4.191,13.333-9.65,18.19c-3.113,2.77-6.705,4.365-10.987,4.045
			c-2.993-0.224-5.297-1.526-6.759-4.199c-0.547-0.999-0.939-2.059-1.226-3.158c-0.729-2.799-1.062-5.659-1.313-8.532
			c-0.78-8.92-0.669-17.827,0.528-26.703c0.335-2.485,0.984-4.924,2.484-7.019c1.442-2.014,3.413-2.786,5.846-2.337
			c2.339,0.432,2.943,2.123,1.44,3.958c-0.76,0.929-1.564,1.834-2.224,2.831c-1.846,2.786-1.47,6.646,0.751,8.717
			c3.272,3.052,11.386,2.564,13.115-3.533c1.571-5.541-1.286-11.662-6.686-13.789c-3.467-1.366-7.099-1.662-10.729-0.894
			c-7.517,1.592-13.02,6.016-16.32,12.835c-4.782,9.884-4.916,20.217-1.374,30.452c4.337,12.53,16.273,15.763,25.116,14.46
			c4.783-0.705,8.718-3.189,12.17-6.473c2.607-2.481,4.678-5.354,6.238-8.634c0,4.461,0.031,8.923-0.024,13.384
			c-0.012,0.983,0.312,1.194,1.22,1.184c3.913-0.043,7.827-0.017,11.74-0.019c1.326,0,1.329-0.003,1.329-1.36
			c0.001-13.32-0.004-26.639,0.007-39.959c0.001-1.234,0.041-2.474,0.165-3.701c0.225-2.233,0.876-4.338,2.554-5.923
			c1.536-1.451,3.396-2.077,5.496-1.463c1.985,0.58,2.52,2.259,2.848,4.041c0.3,1.63,0.264,3.283,0.266,4.929
			c0.01,14.075,0.016,28.15-0.007,42.225c-0.001,0.91,0.203,1.248,1.188,1.235c4.119-0.055,8.239-0.045,12.358-0.006
			c0.9,0.009,1.238-0.182,1.235-1.18c-0.035-13.182-0.022-26.365-0.026-39.547C234.833,250.292,234.665,248.342,234.217,246.431z"/>
		<path style="fill:#FEFEFE;" d="M293.478,160.645c-4.547-5.266-15.912-6.535-21.782,1.282c-0.545,0.725-1.029,1.497-1.6,2.334
			c-0.179-0.397-0.314-0.704-0.453-1.008c-1.17-2.556-2.887-4.655-5.545-5.678c-5.489-2.113-10.694-1.611-15.426,2.088
			c-1.334,1.043-2.31,2.397-3.33,3.812c0-1.628-0.015-3.256,0.008-4.884c0.008-0.576-0.114-0.886-0.787-0.883
			c-3.81,0.022-7.621,0.021-11.431,0.001c-0.648-0.003-0.838,0.269-0.812,0.864c0.03,0.685,0.006,1.373,0.006,2.059
			c0,17.335,0,34.671,0,52.006c0,1.363,0.002,1.364,1.31,1.365c3.913,0.001,7.827-0.036,11.74,0.025
			c1.009,0.016,1.243-0.274,1.24-1.258c-0.033-13.491-0.023-26.982-0.021-40.472c0-0.995-0.008-1.992,0.047-2.985
			c0.164-2.983,1.032-5.61,3.829-7.192c3.158-1.786,5.912-0.536,6.648,3.021c0.413,1.996,0.396,4.023,0.396,6.049
			c-0.001,13.868,0.012,27.737-0.024,41.605c-0.003,1.022,0.293,1.245,1.264,1.231c3.878-0.056,7.758-0.023,11.637-0.023
			c1.384,0,1.386-0.001,1.386-1.387c0-12.976,0-25.952,0.001-38.928c0-1.03-0.016-2.06,0.02-3.089
			c0.097-2.728,0.569-5.361,2.55-7.416c1.375-1.427,3.054-2.236,5.104-1.671c1.935,0.533,2.72,2.075,3.168,3.846
			c0.406,1.607,0.481,3.255,0.482,4.905c0.006,14.074,0.011,28.149,0.02,42.223c0.001,1.735-0.118,1.511,1.461,1.514
			c3.845,0.009,7.689,0.003,11.534,0.003c1.33,0,1.332-0.001,1.332-1.334c0-12.598-0.004-25.197,0.005-37.795
			c0.001-1.58-0.014-3.16-0.19-4.73C296.87,166.636,295.846,163.387,293.478,160.645z"/>
		<path style="fill:#FEFEFE;" d="M180.921,206.931c2.651,4.371,6.327,7.294,11.568,7.809c4.195,0.413,7.907-0.622,10.713-3.987
			c0.469-0.563,0.842-1.206,1.372-1.978c0,1.497,0.052,2.795-0.018,4.087c-0.048,0.877,0.176,1.179,1.12,1.165
			c3.878-0.057,7.757-0.057,11.634,0c0.946,0.014,1.125-0.304,1.124-1.172c-0.022-21.932-0.024-43.863,0.006-65.795
			c0.001-1.003-0.35-1.181-1.24-1.173c-4.084,0.038-8.169,0.053-12.252-0.008c-1.033-0.015-1.239,0.324-1.229,1.284
			c0.048,4.735,0.022,9.47,0.022,14.206c-1.638-2.578-3.923-4.065-6.9-4.404c-3.619-0.412-6.959,0.461-9.959,2.52
			c-4.567,3.134-7.204,7.644-8.868,12.784c-2.219,6.853-2.501,13.875-1.551,20.965C177.11,198.064,178.367,202.719,180.921,206.931z
			 M191.186,172.321c0.246-2.426,0.608-4.831,1.317-7.171c0.329-1.087,0.758-2.134,1.406-3.076c1.404-2.04,3.815-2.468,5.86-1.054
			c1.265,0.874,2.049,2.082,2.554,3.514c1.108,3.143,1.424,6.419,1.619,9.708c0.232,3.906,0.256,7.818,0.215,10.946
			c0.005,5.45,0.104,10.118-0.402,14.769c-0.246,2.257-0.597,4.499-1.489,6.6c-0.899,2.116-2.148,3.919-4.64,4.391
			c-1.878,0.355-3.3-0.316-4.31-1.892c-1.329-2.072-1.873-4.417-2.144-6.811c-0.435-3.858-0.422-7.74-0.422-11.617
			C190.748,184.523,190.569,178.412,191.186,172.321z"/>
		<path style="fill:#FEFEFE;" d="M400.883,168.897c-1.377-9.921-10.834-15.295-19.909-11.294c-2.817,1.242-4.988,3.219-6.661,5.873
			c0-1.577-0.043-3.156,0.018-4.731c0.031-0.816-0.234-1.053-1.041-1.045c-3.776,0.037-7.552,0.041-11.328-0.002
			c-0.871-0.01-1.088,0.275-1.087,1.114c0.021,18.056,0.021,36.112,0.001,54.168c-0.001,0.804,0.22,1.05,1.038,1.042
			c4.05-0.04,8.101-0.041,12.151,0c0.844,0.009,1.107-0.209,1.101-1.08c-0.039-5.389-0.021-10.779-0.019-16.168
			c0.003-8.65-0.021-17.301,0.028-25.951c0.016-2.862,0.499-5.664,2.669-7.776c1.474-1.435,3.31-2.086,5.386-1.534
			c1.945,0.517,2.591,2.098,2.932,3.858c0.309,1.591,0.321,3.206,0.321,4.82c-0.001,14.211,0.011,28.423-0.017,42.634
			c-0.002,0.942,0.248,1.212,1.197,1.2c4.084-0.052,8.17-0.022,12.255-0.022c1.311,0,1.313-0.001,1.313-1.357
			c0-12.907,0.003-25.814-0.004-38.721C401.224,172.243,401.115,170.567,400.883,168.897z"/>
		<path style="fill:#FEFEFE;" d="M347.321,170.075c-0.306-5.171-2.528-9.045-7.36-11.359c-4.538-2.173-9.279-2.583-14.161-2.076
			c-3.873,0.402-7.525,1.535-10.752,3.801c-2.737,1.922-4.71,4.385-5.328,7.767c-0.735,4.02,1.409,7.484,5.125,8.229
			c0.735,0.148,1.499,0.168,2.252,0.211c3.717,0.211,6.755-1.849,7.46-5.126c0.517-2.399,0.016-4.511-1.778-6.334
			c-1.725-1.752-1.309-3.727,0.877-4.858c0.736-0.38,1.514-0.655,2.316-0.842c3.666-0.856,6.691,1.466,6.727,5.189
			c0.031,3.226-0.024,6.453,0.019,9.679c0.023,1.726-0.695,2.947-2.165,3.801c-1.369,0.796-2.822,1.407-4.264,2.046
			c-3.792,1.68-7.709,3.083-11.321,5.161c-4.023,2.315-6.727,5.606-7.524,10.261c-0.568,3.316-0.5,6.633,0.368,9.902
			c0.462,1.74,1.236,3.333,2.312,4.79c5.297,7.174,19.532,6.553,23.422-2.011c0,1.429,0,2.859,0,4.288
			c0,1.407,0.001,1.408,1.357,1.408c3.707,0.001,7.414,0.001,11.121,0c1.38,0,1.382-0.001,1.382-1.401
			c0-12.94,0.002-25.881-0.003-38.821C347.402,172.545,347.394,171.308,347.321,170.075z M332.69,198.466
			c-0.018,2.655-0.44,5.255-1.404,7.748c-0.398,1.031-0.911,1.997-1.65,2.827c-2.16,2.426-5.723,1.795-6.924-1.218
			c-0.506-1.27-0.513-2.615-0.613-3.945c-0.331-4.429-0.268-8.841,0.689-13.2c0.647-2.948,2.245-5.278,4.745-6.96
			c1.639-1.103,3.32-2.141,4.973-3.202c0.292,0.329,0.198,0.614,0.198,0.871C332.709,187.08,332.728,192.774,332.69,198.466z"/>
		<path style="fill:#FEFEFE;" d="M130.34,236.671c-3.499-1.225-7.134-1.394-10.779-1.193c-4.702,0.26-9.148,1.432-13.013,4.277
			c-2.21,1.626-3.906,3.653-4.635,6.366c-1.203,4.475,1.145,8.364,5.677,9.301c2.26,0.467,4.367-0.144,6.293-1.318
			c2.185-1.332,3.222-3.857,2.827-6.391c-0.241-1.55-1.171-2.663-2.1-3.819c-1.581-1.969-0.987-4.112,1.352-5.041
			c1.071-0.426,2.195-0.525,3.333-0.542c3.649-0.053,5.331,1.52,5.397,5.186c0.059,3.26-0.011,6.522,0.029,9.783
			c0.019,1.499-0.629,2.554-1.856,3.325c-1.282,0.806-2.655,1.433-4.018,2.081c-3.5,1.665-7.12,3.068-10.558,4.868
			c-4.037,2.114-7.261,4.974-8.478,9.56c-1.061,4.001-1.009,8.031,0.177,11.996c1.256,4.199,4.031,6.933,8.285,8.109
			c6.911,1.91,12.921-0.15,17.288-6.117c0,1.811,0.035,3.352-0.015,4.89c-0.025,0.782,0.262,0.991,1.014,0.984
			c3.707-0.032,7.415-0.014,11.122-0.015c1.357,0,1.36-0.002,1.36-1.326c0.001-13.113-0.003-26.227,0.005-39.34
			c0.001-1.546-0.047-3.088-0.187-4.627C138.364,242.189,135.552,238.496,130.34,236.671z M124.644,278.274
			c-0.027,2.345-0.51,4.634-1.466,6.796c-0.793,1.792-1.99,3.18-3.886,3.892c-2.26,0.849-4.063-0.004-4.728-2.322
			c-0.469-1.632-0.391-3.334-0.514-5.006c-0.3-4.089-0.118-8.16,0.711-12.185c0.624-3.032,2.238-5.433,4.798-7.166
			c1.611-1.091,3.273-2.107,5.071-3.259c0.044,0.421,0.084,0.622,0.084,0.824C124.698,265.99,124.715,272.132,124.644,278.274z"/>
		<path style="fill:#FEFEFE;" d="M131.413,160.727c-5.053-3.906-10.631-5.418-16.807-3.477c-4.422,1.39-8.075,4.062-10.836,7.833
			c-4.512,6.161-6.213,13.195-6.333,20.703c-0.039,2.105,0.154,4.188,0.457,6.261c0.228,1.562,0.554,3.107,1.004,4.621
			c1.872,6.297,5.021,11.692,10.706,15.346c6.571,4.225,13.214,4.4,19.853,0.3c4.894-3.023,8.302-7.339,10.223-12.772
			c2.73-7.72,2.979-15.584,1.119-23.516C139.365,169.91,136.488,164.65,131.413,160.727z M126.864,185.733
			c-0.043,4.524,0.024,10.153-0.36,15.772c-0.145,2.124-0.374,4.237-0.973,6.29c-0.984,3.373-3.643,5.014-7.084,4.384
			c-1.727-0.316-2.877-1.345-3.636-2.886c-1.254-2.545-1.7-5.294-1.867-8.069c-0.613-10.216-0.607-20.438,0-30.655
			c0.151-2.532,0.555-5.039,1.523-7.426c0.958-2.362,2.544-3.714,5.203-3.763c2.824-0.051,4.595,1.385,5.667,3.808
			c1.044,2.358,1.224,4.91,1.372,7.446C126.981,175.296,126.881,179.964,126.864,185.733z"/>
		<path style="fill:#FEFEFE;" d="M276.589,262.445c-1.601-1.251-3.321-2.31-5.08-3.317c-3.243-1.858-6.64-3.452-9.716-5.598
			c-1.671-1.166-3.221-2.477-4.22-4.298c-1.88-3.428-1.482-9.123,4.482-10.655c3.965-1.018,8.134,0.577,10.542,3.922
			c1.341,1.862,2.175,3.961,2.844,6.133c0.599,1.944,0.593,1.92,2.618,1.898c0.658-0.007,0.894-0.19,0.89-0.874
			c-0.025-4.462-0.027-8.925,0.001-13.387c0.004-0.698-0.247-0.858-0.895-0.854c-5.012,0.026-10.024-0.038-15.034,0.046
			c-3.365,0.056-6.559,0.886-9.583,2.445c-8.037,4.144-11.319,17.61-2.332,24.278c2.125,1.577,4.287,3.085,6.515,4.506
			c3.15,2.009,6.487,3.737,9.335,6.203c2.129,1.843,3.747,3.984,4.266,6.842c0.968,5.334-1.843,9.512-7.128,10.177
			c-4.56,0.573-8.082-1.352-10.575-5.156c-2.184-3.332-3.18-7.117-4.03-10.946c-0.42-1.891-0.401-1.86-2.344-1.874
			c-0.768-0.006-0.997,0.227-0.987,0.997c0.041,3.158,0.017,6.316,0.017,9.474c0,3.192,0.013,6.385-0.01,9.577
			c-0.005,0.653,0.099,0.999,0.881,0.993c5.801-0.042,11.605,0.075,17.401-0.102c4.37-0.133,8.323-1.726,11.694-4.536
			c5.063-4.22,6.701-9.771,5.987-16.149C281.678,268.162,279.777,264.936,276.589,262.445z"/>
		<path style="fill:#FEFEFE;" d="M152.62,214.019c4.119-0.032,8.238-0.015,12.357-0.016c1.335,0,1.337-0.002,1.337-1.334
			c0.001-10.881,0-21.762,0-32.644c0-10.984-0.009-21.969,0.017-32.953c0.002-0.863-0.173-1.202-1.123-1.191
			c-4.221,0.05-8.444,0.036-12.666,0.008c-0.73-0.005-0.92,0.247-0.92,0.95c0.016,22.071,0.017,44.143-0.004,66.214
			C151.617,213.851,151.876,214.024,152.62,214.019z"/>
		<path style="fill:#64A7EF;" d="M191.171,202.246c0.27,2.394,0.815,4.739,2.144,6.811c1.01,1.575,2.432,2.247,4.31,1.892
			c2.492-0.471,3.741-2.274,4.64-4.391c0.892-2.101,1.243-4.343,1.489-6.6c0.506-4.651,0.407-9.319,0.402-14.769
			c0.041-3.128,0.017-7.04-0.215-10.946c-0.195-3.289-0.511-6.565-1.619-9.708c-0.505-1.432-1.289-2.64-2.554-3.514
			c-2.045-1.413-4.456-0.986-5.86,1.054c-0.648,0.942-1.077,1.989-1.406,3.076c-0.709,2.34-1.071,4.745-1.317,7.171
			c-0.617,6.091-0.438,12.202-0.437,18.307C190.749,194.505,190.735,198.388,191.171,202.246z"/>
		<path style="fill:#64A7EF;" d="M332.507,180.516c-1.652,1.061-3.334,2.099-4.973,3.202c-2.5,1.683-4.098,4.013-4.745,6.96
			c-0.957,4.36-1.02,8.772-0.689,13.2c0.099,1.33,0.106,2.674,0.613,3.945c1.201,3.012,4.764,3.644,6.924,1.218
			c0.739-0.83,1.252-1.796,1.65-2.827c0.964-2.493,1.386-5.094,1.404-7.748c0.038-5.693,0.019-11.386,0.015-17.079
			C332.705,181.13,332.799,180.845,332.507,180.516z"/>
		<path style="fill:#64A7EF;" d="M119.558,262.282c-2.559,1.733-4.173,4.134-4.798,7.166c-0.829,4.025-1.01,8.096-0.711,12.185
			c0.122,1.672,0.045,3.374,0.514,5.006c0.666,2.318,2.468,3.171,4.728,2.322c1.896-0.712,3.093-2.1,3.886-3.892
			c0.956-2.162,1.439-4.452,1.466-6.796c0.071-6.142,0.055-12.284,0.069-18.426c0-0.202-0.04-0.404-0.084-0.824
			C122.831,260.175,121.169,261.191,119.558,262.282z"/>
		<path style="fill:#64A7EF;" d="M125.336,163.188c-1.072-2.423-2.843-3.859-5.667-3.808c-2.659,0.048-4.245,1.4-5.203,3.763
			c-0.968,2.388-1.372,4.894-1.523,7.426c-0.607,10.216-0.613,20.438,0,30.655c0.167,2.776,0.613,5.524,1.867,8.069
			c0.759,1.541,1.909,2.57,3.636,2.886c3.441,0.63,6.101-1.011,7.084-4.384c0.599-2.053,0.828-4.167,0.973-6.29
			c0.384-5.619,0.317-11.248,0.36-15.772c0.016-5.769,0.117-10.437-0.156-15.099C126.56,168.097,126.38,165.546,125.336,163.188z"/>
	</g>
</g>
</svg>
