<?xml version="1.0" encoding="iso-8859-1"?>
<!-- Generator: Adobe Illustrator 22.0.1, SVG Export Plug-In . SVG Version: 6.00 Build 0)  -->
<svg version="1.1" id="Layer_1" xmlns="http://www.w3.org/2000/svg" xmlns:xlink="http://www.w3.org/1999/xlink" x="0px" y="0px"
	 viewBox="0 0 438.53 438.53" style="enable-background:new 0 0 438.53 438.53;" xml:space="preserve">
<g id="_x32_13">
	<g>
		<path style="fill:#919394;" d="M295.197,198.008l-89.504,33.564c-3.356,1.119-4.475,3.356-3.356,6.713
			c1.119,2.238,3.356,3.356,5.594,3.356c1.119,0,1.119,0,2.238,0l89.504-33.564c2.238-1.119,4.476-4.475,2.237-6.713
			C300.791,198.008,298.554,196.889,295.197,198.008z"/>
		<path style="fill:#919394;" d="M195.624,250.591c-3.356-12.307-14.544-20.138-26.851-20.138h-5.594
			c-3.356,0-5.594,2.238-5.594,5.594s2.238,5.594,5.594,5.594h5.594c7.832,0,14.545,4.476,15.663,12.307l12.307,39.158
			c1.119,3.356,3.356,4.475,5.594,4.475h1.119c3.356-1.119,5.594-4.476,4.475-7.832L195.624,250.591z"/>
		<path style="fill:#919394;" d="M407.603,110.087c-19.45-33.321-45.833-59.704-79.155-79.153
			c-33.328-19.448-69.711-29.17-109.176-29.17c-39.461,0-75.854,9.722-109.177,29.17C76.771,50.38,50.388,76.763,30.938,110.087
			c-19.451,33.326-29.173,69.72-29.173,109.178c0,39.46,9.725,75.847,29.17,109.175c19.449,33.321,45.832,59.704,79.156,79.155
			c33.326,19.447,69.717,29.17,109.177,29.17s75.854-9.723,109.179-29.17c33.322-19.444,59.704-45.834,79.152-79.155
			c19.445-33.325,29.166-69.718,29.166-109.175C436.766,179.803,427.044,143.409,407.603,110.087z M343.306,264.017l-134.256,55.94
			c-1.119,0-1.119,0-2.238,0H94.933h-1.119c-1.119,0-2.238-1.119-3.356-2.238c0-1.119,0-3.356,0-4.475l14.109-49.38l-0.306,0.153
			c-1.119,0-1.119,0-2.238,0c-1.119,0-2.237,0-4.475-2.238c-1.119-1.119-2.237-3.356-1.119-5.594l19.02-67.128
			c3.356-7.831,8.95-14.544,17.901-17.901l127.543-49.227c5.594-2.238,11.188-3.356,17.901-3.356H309
			c12.307,0,23.495,7.832,26.851,19.02l5.594,19.02c1.119,1.119,1.119,2.237,1.119,3.355c0,3.356-2.238,5.594-5.594,5.594
			c-1.119,0-1.119,0-2.238,0c-5.594-2.238-10.069-3.356-14.544-3.356h-31.326c-7.832,0-15.663,2.237-22.376,4.475l-66.009,25.732
			c-3.356-10.069-14.545-17.901-25.733-17.901h-5.594c-3.356,0-5.594,2.238-5.594,5.594s2.238,5.594,5.594,5.594h5.594
			c6.713,0,13.426,4.475,15.663,11.188l-50.346,19.02c-7.096,2.839-13.286,7.483-17.725,13.637c1.551-0.94,3.224-1.767,5.042-2.449
			l127.543-49.227c5.594-2.238,11.188-3.356,17.901-3.356h30.208c12.307,0,23.495,7.831,26.851,21.257l17.901,61.534
			C348.9,259.542,346.662,262.898,343.306,264.017z"/>
		<path style="fill:#FFFFFF;" d="M109.477,244.997c2.674-6.24,6.776-11.764,12.859-15.452c4.439-6.154,10.629-10.798,17.725-13.637
			l50.346-19.02c-2.238-6.713-8.951-11.188-15.663-11.188h-5.594c-3.356,0-5.594-2.238-5.594-5.594s2.238-5.594,5.594-5.594h5.594
			c11.188,0,22.376,7.831,25.733,17.901l66.009-25.732c6.713-2.238,14.544-4.475,22.376-4.475h31.326
			c4.475,0,8.951,1.119,14.544,3.356c1.119,0,1.119,0,2.238,0c3.356,0,5.594-2.238,5.594-5.594c0-1.118,0-2.237-1.119-3.355
			l-5.594-19.02c-3.356-11.188-14.544-19.02-26.851-19.02h-30.208c-6.713,0-12.307,1.119-17.901,3.356l-127.543,49.227
			c-8.951,3.356-14.544,10.069-17.901,17.901l-19.02,67.128c-1.119,2.238,0,4.475,1.119,5.594c2.238,2.238,3.356,2.238,4.475,2.238
			c1.119,0,1.119,0,2.238,0l0.306-0.153l3.792-13.272L109.477,244.997z"/>
		<path style="fill:#FFFFFF;" d="M329.88,195.77c-3.356-13.426-14.544-21.257-26.851-21.257h-30.208
			c-6.713,0-12.307,1.119-17.901,3.356l-127.543,49.227c-1.818,0.682-3.491,1.509-5.042,2.449c-2.56,3.548-4.542,7.595-5.769,12.095
			l-4.475,16.782c-1.119,1.119-2.238,2.238-3.356,3.356l-4.169,2.085l-14.109,49.38c0,1.119,0,3.356,0,4.475
			c1.119,1.119,2.238,2.238,3.356,2.238h1.119h111.88c1.119,0,1.119,0,2.238,0l134.256-55.94c3.356-1.119,5.594-4.475,4.476-6.712
			L329.88,195.77z M203.456,297.581h-1.119c-2.238,0-4.475-1.119-5.594-4.475l-12.307-39.158
			c-1.119-7.831-7.831-12.307-15.663-12.307h-5.594c-3.356,0-5.594-2.238-5.594-5.594s2.238-5.594,5.594-5.594h5.594
			c12.307,0,23.495,7.831,26.851,20.138l12.307,39.158C209.05,293.106,206.813,296.462,203.456,297.581z M299.673,208.077
			l-89.504,33.564c-1.119,0-1.119,0-2.238,0c-2.238,0-4.475-1.119-5.594-3.356c-1.119-3.356,0-5.594,3.356-6.713l89.504-33.564
			c3.356-1.119,5.594,0,6.713,3.356C304.148,203.602,301.91,206.959,299.673,208.077z"/>
		<path style="fill:#FFFFFF;" d="M112.092,258.423l4.475-16.782c1.227-4.501,3.21-8.547,5.769-12.095
			c-6.082,3.688-10.184,9.211-12.859,15.452l-1.119,5.594l-3.792,13.272l4.169-2.085
			C109.854,260.661,110.973,259.542,112.092,258.423z"/>
	</g>
</g>
</svg>
