<?xml version="1.0" encoding="iso-8859-1"?>
<!-- Generator: Adobe Illustrator 22.0.1, SVG Export Plug-In . SVG Version: 6.00 Build 0)  -->
<svg version="1.1" id="Layer_1" xmlns="http://www.w3.org/2000/svg" xmlns:xlink="http://www.w3.org/1999/xlink" x="0px" y="0px"
	 viewBox="0 0 438.53 438.53" style="enable-background:new 0 0 438.53 438.53;" xml:space="preserve">
<g id="_x32_14">
	<g>
		<path style="fill:#FFDA44;" d="M274.037,290.809v-99.006l-51.329,51.446v47.559v0.001h-47.452l-51.329,51.445h98.78v94.49
			c17.257-0.146,34.5-2.346,51.33-6.601v-87.889v-0.001H399.41c10.985-16.151,19.55-33.468,25.689-51.445H274.038h-0.001V290.809z"
			/>
		<path style="fill:#0052B4;" d="M344.419,121.261c29.833,4.201,57.52,15.102,81.495,31.144
			c-10.22-31.131-27.646-60.384-52.304-85.096l-0.143,0.143c4.102,4.13,8.047,8.415,11.808,12.86L344.419,121.261z"/>
		<path style="fill:#0052B4;" d="M425.914,152.405c-23.975-16.042-51.662-26.943-81.495-31.144l-70.382,70.542v99.006h0.001h151.061
			C440.377,246.072,440.648,197.287,425.914,152.405z"/>
		<polygon style="fill:#0052B4;" points="222.708,290.809 222.708,290.808 222.708,243.249 175.255,290.809 		"/>
		<path style="fill:#0052B4;" d="M80.98,385.298c21.713,18.525,46.239,32.06,72.072,40.58
			c-16.005-24.031-26.868-51.785-31.057-81.688L80.98,385.298z"/>
		<path style="fill:#0052B4;" d="M123.927,342.254l-1.931,1.936c4.189,29.903,15.052,57.657,31.057,81.688
			c21.985,7.251,44.907,10.888,67.835,10.888c0.606,0,1.213-0.017,1.819-0.022v-94.49H123.927z"/>
		<path style="fill:#0052B4;" d="M274.037,342.255v87.889c36.514-9.23,71.077-28.113,99.573-56.678
			c9.729-9.749,18.319-20.212,25.8-31.212L274.037,342.255L274.037,342.255z"/>
		<path style="fill:#0052B4;" d="M53.303,358.262l33.377-33.453l-8.996,4.594l13.308-26.178l-20.725-20.773l28.951,4.598
			l13.305-26.177l4.587,29.016l3.808,0.605l158.779-159.14l-0.603-3.817l-28.95-4.597l26.116-13.337l-4.587-29.014l20.728,20.772
			l26.117-13.338l-4.583,9.015l43.678-43.777C272.843-19.133,144.999-15.201,64.922,65.07
			c-42.098,42.187-63.15,97.638-63.157,153.069c0,55.444,21.059,110.875,63.163,153.082l0.248-0.249l-5.616-5.629
			C57.423,363.029,55.339,360.667,53.303,358.262z M189.043,65.973l9.059-27.941l9.059,27.941h29.31l-23.714,17.268l9.059,27.941
			l-23.714-17.269l-23.715,17.269l9.059-27.941l-23.714-17.268H189.043z M77.684,88.023l26.119,13.337l20.726-20.772l-4.587,29.015
			l26.118,13.338l-28.951,4.596l-4.586,29.018l-13.308-26.177l-28.95,4.597l20.726-20.773L77.684,88.023z M55.685,199.634v-29.378
			l17.228,23.769l27.879-9.079L83.56,208.713l17.231,23.768l-27.879-9.078L55.685,247.17v-29.378l-27.878-9.079L55.685,199.634z"/>
		<polygon style="fill:#FFDA44;" points="174.387,111.182 198.102,93.913 221.816,111.182 212.757,83.241 236.471,65.973 
			207.161,65.973 198.102,38.032 189.043,65.973 159.732,65.973 183.446,83.241 		"/>
		<polygon style="fill:#FFDA44;" points="99.216,130.377 112.524,156.554 117.11,127.537 146.06,122.941 119.942,109.603 
			124.529,80.588 103.803,101.36 77.684,88.023 90.993,114.201 70.267,134.974 		"/>
		<polygon style="fill:#FFDA44;" points="55.685,247.17 72.913,223.403 100.791,232.481 83.56,208.713 100.791,184.945 
			72.913,194.025 55.685,170.256 55.685,199.634 27.807,208.713 55.685,217.792 		"/>
		<polygon style="fill:#FFDA44;" points="117.11,289.889 112.523,260.873 99.218,287.05 70.267,282.452 90.992,303.225 
			77.684,329.403 86.68,324.809 120.918,290.494 		"/>
		<polygon style="fill:#FFDA44;" points="318.519,88.023 292.402,101.361 271.674,80.589 276.26,109.603 250.144,122.94 
			279.094,127.537 279.697,131.354 313.936,97.038 		"/>
		<path style="fill:#FFFFFF;" d="M77.396,364.196L77.396,364.196l21.892-21.942l20.824-20.871l30.505-30.574l72.092-72.256
			l51.329-51.446l47.615-47.723l42.729-42.826l9.087-9.107c-4.995-5.03-10.226-9.826-15.695-14.35l-0.159,0.159
			c4.375,3.736,8.639,7.667,12.771,11.81l-9.23,9.251l-47.868,47.976l-9.188,9.209l-15.675,15.71l-5.371,5.383l-140.94,141.26
			l-5.372,5.384l-15.672,15.708l-9.19,9.211l-37.71,37.796l0,0l-8.994,9.015l6.169,6.183c3.076,2.857,6.229,5.633,9.468,8.311
			l0.167-0.168c-4.392-3.747-8.679-7.681-12.828-11.839L77.396,364.196z"/>
		<path style="fill:#FFFFFF;" d="M99.287,342.254h22.428c-0.891-6.853-1.434-13.816-1.604-20.871L99.287,342.254z"/>
		<polygon style="fill:#FFFFFF;" points="222.708,218.553 222.708,243.249 274.037,191.803 274.037,167.107 		"/>
		<path style="fill:#FFFFFF;" d="M120.111,321.383c0.17,7.056,0.713,14.018,1.604,20.871h2.212l51.329-51.445h-24.64
			L120.111,321.383z"/>
		<path style="fill:#FFFFFF;" d="M321.652,119.385c7.708,0.187,15.304,0.825,22.768,1.876l40.856-40.949
			c-3.761-4.445-7.707-8.73-11.808-12.86l-9.087,9.107L321.652,119.385z"/>
		<path style="fill:#FFFFFF;" d="M274.037,167.107v24.696l70.382-70.542c-7.464-1.051-15.06-1.689-22.768-1.876L274.037,167.107z"/>
		<polygon style="fill:#FFFFFF;" points="150.616,290.809 175.255,290.809 222.708,243.249 222.708,218.553 		"/>
		<path style="fill:#FFFFFF;" d="M121.715,342.254H99.287l-21.892,21.942l0,0l-9.243,9.264c4.148,4.157,8.435,8.091,12.828,11.839
			l41.015-41.108C121.905,343.543,121.799,342.902,121.715,342.254z"/>
		<path style="fill:#FFFFFF;" d="M121.996,344.19l1.931-1.936h-2.212C121.799,342.902,121.905,343.543,121.996,344.19z"/>
		<polygon style="fill:#FFFFFF;" points="121.071,314.951 136.743,299.243 119.945,307.823 		"/>
		<polygon style="fill:#FFFFFF;" points="288.426,147.216 304.1,131.506 296.985,130.376 		"/>
		<path style="fill:#FFFFFF;" d="M74.171,361.957l37.71-37.796l-8.078-8.096l-17.123,8.744l-33.377,33.453
			c2.036,2.405,4.12,4.767,6.257,7.081l5.616,5.629L74.171,361.957L74.171,361.957z"/>
		<path style="fill:#FFFFFF;" d="M305.211,114.201l8.077,8.096l47.868-47.976l9.23-9.251c-4.133-4.142-8.397-8.074-12.771-11.81
			l-43.678,43.777L305.211,114.201z"/>
		<polygon style="fill:#FFFFFF;" points="120.918,290.494 142.115,293.859 283.055,152.599 279.697,131.354 		"/>
		<polygon style="fill:#FFFFFF;" points="86.68,324.809 103.803,316.065 111.881,324.162 121.071,314.951 119.945,307.823 
			136.743,299.243 142.115,293.859 120.918,290.494 		"/>
		<polygon style="fill:#FFFFFF;" points="313.936,97.038 279.697,131.354 283.055,152.599 288.426,147.216 296.985,130.376 
			304.1,131.506 313.288,122.297 305.211,114.201 		"/>
	</g>
</g>
</svg>
