<?xml version="1.0" encoding="iso-8859-1"?>
<!-- Generator: Adobe Illustrator 22.0.1, SVG Export Plug-In . SVG Version: 6.00 Build 0)  -->
<svg version="1.1" id="Layer_1" xmlns="http://www.w3.org/2000/svg" xmlns:xlink="http://www.w3.org/1999/xlink" x="0px" y="0px"
	 viewBox="0 0 438.53 438.53" style="enable-background:new 0 0 438.53 438.53;" xml:space="preserve">
<g id="_x32_18">
	<g>
		<path style="fill:#0018A5;" d="M314.097,125.322c-62.626,0-125.251,0-187.877,0.002c-1.02,0-0.897-0.129-0.898,0.865
			c-0.002,62.648,0,125.296-0.019,187.943c0,0.706,0.193,0.849,0.867,0.849c62.648-0.016,125.296-0.015,187.943-0.015
			c0.851,0,0.851,0,0.851-0.885c0-31.302,0-62.604,0-93.905c0-31.324,0-62.648,0-93.972
			C314.965,125.322,314.965,125.322,314.097,125.322z M293.264,152.507c-27.491,37.807-54.986,75.611-82.48,113.415
			c-5.324,7.321-10.649,14.642-15.968,21.967c-0.232,0.32-0.451,0.506-0.9,0.505c-15.595-0.016-31.19-0.014-46.785-0.014
			c-0.129,0-0.259,0-0.528,0c1.812-2.491,3.54-4.868,5.269-7.245c31.139-42.816,62.28-85.631,93.403-128.46
			c0.429-0.59,0.86-0.785,1.57-0.784c15.329,0.021,30.658,0.016,45.987,0.016c0.239,0,0.477,0,0.722,0
			C293.592,152.203,293.386,152.34,293.264,152.507z"/>
		<path style="fill:#0018A5;" d="M407.603,110.087c-19.45-33.321-45.833-59.704-79.155-79.153
			c-33.328-19.448-69.711-29.17-109.176-29.17c-39.461,0-75.854,9.722-109.177,29.17C76.771,50.38,50.388,76.763,30.938,110.087
			c-19.451,33.326-29.173,69.72-29.173,109.178c0,39.46,9.725,75.847,29.17,109.175c19.449,33.321,45.832,59.704,79.156,79.155
			c33.326,19.447,69.717,29.17,109.177,29.17s75.854-9.723,109.179-29.17c33.322-19.444,59.704-45.834,79.152-79.155
			c19.445-33.325,29.166-69.718,29.166-109.175C436.766,179.803,427.044,143.409,407.603,110.087z M350.434,349.622
			c0,0.617-0.114,0.815-0.78,0.815c-86.927-0.017-173.855-0.017-260.783,0c-0.668,0-0.78-0.2-0.779-0.816
			c0.015-43.464,0.014-86.927,0.014-130.391c0-43.419,0-86.839,0.001-130.258c0-0.975-0.117-0.864,0.832-0.864
			c86.883-0.001,173.766-0.001,260.649-0.015c0.637,0,0.851,0.105,0.851,0.813C350.419,175.812,350.419,262.717,350.434,349.622z"/>
		<path style="fill:#FFFFFF;" d="M349.588,88.093c-86.883,0.014-173.766,0.013-260.649,0.015c-0.948,0-0.832-0.111-0.832,0.864
			c-0.002,43.419-0.001,86.839-0.001,130.258c0,43.464,0.001,86.927-0.014,130.391c0,0.616,0.111,0.816,0.779,0.816
			c86.927-0.017,173.855-0.017,260.783,0c0.666,0,0.78-0.198,0.78-0.815c-0.014-86.905-0.015-173.811,0.005-260.716
			C350.439,88.198,350.225,88.093,349.588,88.093z M314.965,314.081c0,0.885,0,0.885-0.851,0.885
			c-62.648,0-125.296-0.001-187.943,0.015c-0.674,0-0.867-0.143-0.867-0.849c0.018-62.648,0.017-125.296,0.019-187.943
			c0-0.994-0.122-0.865,0.898-0.865c62.626-0.002,125.251-0.002,187.877-0.002c0.868,0,0.868,0,0.868,0.882
			c0,31.324,0,62.648,0,93.972C314.965,251.477,314.965,282.779,314.965,314.081z"/>
		<path style="fill:#FFFFFF;" d="M246.845,151.892c-0.71-0.001-1.141,0.194-1.57,0.784c-31.123,42.828-62.264,85.643-93.403,128.46
			c-1.729,2.377-3.457,4.754-5.269,7.245c0.269,0,0.398,0,0.528,0c15.595,0,31.19-0.003,46.785,0.014c0.449,0,0.668-0.185,0.9-0.505
			c5.319-7.325,10.643-14.646,15.968-21.967c27.494-37.804,54.989-75.608,82.48-113.415c0.122-0.168,0.328-0.305,0.29-0.599
			c-0.244,0-0.483,0-0.722,0C277.503,151.908,262.174,151.913,246.845,151.892z"/>
	</g>
</g>
</svg>
