<?xml version="1.0" encoding="iso-8859-1"?>
<!-- Generator: Adobe Illustrator 22.0.1, SVG Export Plug-In . SVG Version: 6.00 Build 0)  -->
<svg version="1.1" id="Layer_1" xmlns="http://www.w3.org/2000/svg" xmlns:xlink="http://www.w3.org/1999/xlink" x="0px" y="0px"
	 viewBox="0 0 438.53 438.53" style="enable-background:new 0 0 438.53 438.53;" xml:space="preserve">
<g id="_x32_19">
	<g>
		<path style="fill:#3D2618;" d="M407.603,110.087c-19.45-33.321-45.833-59.704-79.155-79.153
			c-33.328-19.448-69.711-29.17-109.176-29.17c-39.461,0-75.854,9.722-109.177,29.17C76.771,50.38,50.388,76.763,30.938,110.087
			c-19.451,33.326-29.173,69.72-29.173,109.178c0,39.46,9.725,75.847,29.17,109.175c19.449,33.321,45.832,59.704,79.156,79.155
			c33.326,19.447,69.717,29.17,109.177,29.17s75.854-9.723,109.179-29.17c33.322-19.444,59.704-45.834,79.152-79.155
			c19.445-33.325,29.166-69.718,29.166-109.175C436.766,179.803,427.044,143.409,407.603,110.087z M133.106,116.612
			c41.239-15.56,83.572-4.575,94.555,24.534c0.012,0.035,0.024,0.08,0.04,0.119c-9.288,9.859-33.295,28.923-77.672,25.034
			c-40.657-3.556-63.041,9.899-74.138,20.523C73.443,160.036,96.788,130.317,133.106,116.612z M78.32,197.489
			c-0.07-0.19-0.125-0.388-0.202-0.59c7.628-9.094,27.808-25.858,71.169-22.057c21.367,1.871,38.457-1.245,51.761-6.264
			c13.233-4.994,22.71-11.868,28.956-17.585c3.008,26.999-20.425,57.195-57.124,71.038C131.64,237.595,89.305,226.606,78.32,197.489
			z M151.717,248.308c31.172-31.167,74.269-38.596,96.273-16.595c0.023,0.028,0.051,0.059,0.084,0.088
			c-4.404,12.814-18.431,40.072-60.466,54.811c-38.512,13.507-53.364,34.988-59.097,49.243
			C115.245,312.454,124.269,275.758,151.717,248.308z M231.387,327.978c-31.164,31.166-74.267,38.597-96.268,16.594
			c-0.146-0.143-0.271-0.305-0.426-0.46c3.203-11.421,14.68-35.007,55.758-49.409c20.241-7.103,34.53-16.977,44.583-27.039
			c10.002-10.002,15.806-20.166,19.143-27.947C268.042,263.077,259.121,300.245,231.387,327.978z M250.141,149.623
			c8.425-43.261,40.011-73.516,70.553-67.57c0.038,0.009,0.078,0.024,0.118,0.028c3.511,13.081,7.124,43.526-19.501,79.248
			c-24.38,32.728-24.693,58.84-21.483,73.865C255.752,223.203,242.722,187.734,250.141,149.623z M360.734,171.16
			c-8.423,43.266-40.006,73.516-70.55,67.569c-0.197-0.043-0.396-0.098-0.609-0.142c-3.732-11.267-7.394-37.24,18.618-72.14
			c12.813-17.201,19.145-33.379,21.86-47.341c2.703-13.879,1.834-25.553,0.248-33.874C354.852,96.851,368.236,132.66,360.734,171.16
			z"/>
		<path style="fill:#FFFFFF;" d="M172.88,222.032c36.699-13.843,60.132-44.038,57.124-71.038
			c-6.246,5.717-15.723,12.59-28.956,17.585c-13.304,5.019-30.394,8.135-51.761,6.264c-43.361-3.802-63.541,12.963-71.169,22.057
			c0.078,0.202,0.132,0.401,0.202,0.59C89.305,226.606,131.64,237.595,172.88,222.032z"/>
		<path style="fill:#FFFFFF;" d="M187.608,286.612c42.035-14.739,56.062-41.997,60.466-54.811c-0.033-0.03-0.061-0.061-0.084-0.088
			c-22.004-22.001-65.1-14.572-96.273,16.595c-27.448,27.451-36.472,64.147-23.206,87.547
			C134.243,321.6,149.096,300.119,187.608,286.612z"/>
		<path style="fill:#FFFFFF;" d="M150.029,166.299c44.377,3.889,68.384-15.175,77.672-25.034c-0.016-0.039-0.028-0.083-0.04-0.119
			c-10.983-29.109-53.316-40.094-94.555-24.534c-36.318,13.704-59.663,43.423-57.215,70.21
			C86.988,176.198,109.372,162.743,150.029,166.299z"/>
		<path style="fill:#FFFFFF;" d="M301.311,161.329c26.625-35.722,23.012-66.167,19.501-79.248c-0.041-0.004-0.08-0.02-0.118-0.028
			c-30.541-5.946-62.128,24.309-70.553,67.57c-7.419,38.111,5.611,73.58,29.687,85.571
			C276.618,220.169,276.931,194.057,301.311,161.329z"/>
		<path style="fill:#FFFFFF;" d="M235.034,267.663c-10.053,10.062-24.342,19.936-44.583,27.039
			c-41.078,14.403-52.555,37.989-55.758,49.409c0.155,0.155,0.28,0.317,0.426,0.46c22.002,22.003,65.104,14.572,96.268-16.594
			c27.733-27.733,36.654-64.901,22.79-88.262C250.84,247.497,245.036,257.661,235.034,267.663z"/>
		<path style="fill:#FFFFFF;" d="M330.301,85.232c1.585,8.321,2.454,19.995-0.248,33.874c-2.715,13.962-9.048,30.139-21.86,47.341
			c-26.013,34.9-22.35,60.873-18.618,72.14c0.213,0.044,0.412,0.099,0.609,0.142c30.544,5.946,62.127-24.304,70.55-67.569
			C368.236,132.66,354.852,96.851,330.301,85.232z"/>
	</g>
</g>
</svg>
