<?xml version="1.0" encoding="iso-8859-1"?>
<!-- Generator: Adobe Illustrator 22.0.1, SVG Export Plug-In . SVG Version: 6.00 Build 0)  -->
<svg version="1.1" id="Layer_1" xmlns="http://www.w3.org/2000/svg" xmlns:xlink="http://www.w3.org/1999/xlink" x="0px" y="0px"
	 viewBox="0 0 438.53 438.53" style="enable-background:new 0 0 438.53 438.53;" xml:space="preserve">
<g id="_x32_22">
	<g>
		<path style="fill:none;" d="M108.493,406.866c0.79,0.464,1.586,0.912,2.38,1.364l19.435-20.038L108.493,406.866z"/>
		<path style="fill:none;" d="M233.287,411.197l-22.799,25.397c2.802,0.107,5.606,0.176,8.41,0.176
			c5.685-0.001,11.369-0.234,17.041-0.675l24.898-24.898H233.287z"/>
		<path style="fill:#F0F0F0;" d="M436.715,214.008h-89.608l-47.631-47.631l-19.608,19.608l55.753,55.753h99.948
			C436.532,232.525,436.921,223.262,436.715,214.008z"/>
		<path style="fill:#F0F0F0;" d="M233.287,411.197h27.551l86.269-86.268h62.267c4.999-8.987,9.303-18.258,12.934-27.731h-86.687
			L233.287,411.197z"/>
		<path d="M150.76,367.104v-52.011l-70.703,70.703c-3.268-2.696-6.451-5.491-9.555-8.369l-4.326-4.326l-0.658,0.658
			c13.192,13.064,27.644,24.105,42.975,33.106l21.815-18.674L150.76,367.104z"/>
		<path d="M64.76,373.026c0.117,0.117,0.237,0.227,0.354,0.343c-0.116-0.117-0.228-0.237-0.344-0.354L64.76,373.026z"/>
		<polygon points="220.923,244.93 150.76,315.094 150.76,367.104 245.452,269.47 		"/>
		<path style="fill:#FFDA44;" d="M150.76,403.367v-32.683l-20.452,17.508l-19.435,20.038c7.728,4.406,15.668,8.301,23.775,11.687
			l0.042-0.475L150.76,403.367z"/>
		<polygon style="fill:#FFDA44;" points="269.176,269.316 150.76,370.684 150.76,403.367 284.623,269.469 240.518,225.335 
			230.037,235.817 		"/>
		<polygon style="fill:#FFDA44;" points="130.307,388.192 150.76,370.684 150.76,367.104 		"/>
		<polygon style="fill:#FFDA44;" points="230.037,235.817 220.923,244.93 245.452,269.47 150.76,367.104 150.76,370.684 
			269.176,269.316 		"/>
		<path style="fill:#6DA544;" d="M150.76,411.197v-4.616l-13.918,14.256c23.605,9.555,48.557,14.798,73.647,15.758l22.799-25.397
			H150.76V411.197z"/>
		<path style="fill:#6DA544;" d="M279.867,185.986l-39.349,39.349l44.104,44.134L150.76,406.581v4.616h82.528l102.333-113.998
			h86.687c6.872-17.929,11.29-36.588,13.262-55.46h-99.948L279.867,185.986z"/>
		<path style="fill:#6DA544;" d="M150.76,403.367l-16.071,16.075l-0.042,0.475c0.732,0.306,1.46,0.622,2.194,0.92l13.918-14.256
			v-3.214H150.76z"/>
		<polygon style="fill:#6DA544;" points="150.76,406.581 284.623,269.469 150.76,403.367 		"/>
		<path style="fill:#0052B4;" d="M235.94,436.095c29.586-2.303,58.788-10.602,85.609-24.898h-60.711L235.94,436.095z"/>
		<path style="fill:#0052B4;" d="M260.838,411.197h60.711c18.514-9.868,35.896-22.582,51.476-38.165
			c14.637-14.635,26.752-30.851,36.348-48.103h-62.267L260.838,411.197z"/>
		<path style="fill:#D80027;" d="M416.904,127.741c-7.84-17.076-18.003-33.338-30.484-48.307l-48.307,48.307H416.904z"/>
		<path style="fill:#D80027;" d="M299.476,166.378l47.631,47.631h89.608c-0.656-29.523-7.263-58.935-19.812-86.268h-78.791
			L299.476,166.378z"/>
		<path style="fill:#F0F0F0;" d="M25.062,121.37c-0.97,1.924-1.916,3.856-2.825,5.802l6.165,4.479L25.062,121.37z"/>
		<path style="fill:#F0F0F0;" d="M28.402,196.726l-7.233-22.259l18.936-13.757H16.7l-3.528-10.858
			c-4.057,12.068-7.033,24.421-8.923,36.909l5.218-3.792L28.402,196.726z"/>
		<polygon style="fill:#F0F0F0;" points="89.596,73.376 82.364,95.636 58.959,95.636 77.894,109.392 70.661,131.652 89.596,117.895 
			108.531,131.652 101.298,109.392 120.233,95.636 96.828,95.636 		"/>
		<polygon style="fill:#F0F0F0;" points="96.828,160.71 89.596,138.45 82.364,160.71 58.959,160.71 77.894,174.467 70.661,196.726 
			89.596,182.969 108.531,196.726 101.298,174.467 120.233,160.71 		"/>
		<path style="fill:#F0F0F0;" d="M349.078,44.239C310.803,15.955,265.301,1.792,219.787,1.76c0,16.313,0,30.009,0,42.479H349.078z"
			/>
		<path style="fill:#F0F0F0;" d="M89.596,52.821l18.935,13.757l-7.233-22.26l18.936-13.757h-9.085
			C97.872,38.175,85.226,47.286,73.475,57.92l-2.813,8.657L89.596,52.821z"/>
		<path style="fill:#F0F0F0;" d="M308.184,102.515h-88.397c0,16.352,0,34.676,0,58.275h30.122L308.184,102.515z"/>
		<path style="fill:#F0F0F0;" d="M65.505,373.772l0.012-0.012c-0.133-0.132-0.271-0.258-0.404-0.391
			C65.246,373.502,65.373,373.639,65.505,373.772z"/>
		<path style="fill:#F0F0F0;" d="M58.608,365.535c-2.157-2.33-4.26-4.708-6.315-7.13l22.79-22.79H35.057
			c8.337,13.266,18.245,25.819,29.714,37.4l0.659-0.659L58.608,365.535z"/>
		<path style="fill:#F0F0F0;" d="M65.429,372.356l-0.659,0.659c0.116,0.117,0.227,0.237,0.344,0.354
			c0.133,0.133,0.27,0.259,0.404,0.391l0.658-0.658L65.429,372.356z"/>
		<path style="fill:#F0F0F0;" d="M191.634,219.065H1.768c0,0.189-0.007,0.378-0.007,0.567c0,19.425,2.58,38.847,7.726,57.708
			h123.872L191.634,219.065z"/>
		<polygon style="fill:#F0F0F0;" points="150.79,66.578 169.725,52.821 188.659,66.578 181.426,44.318 200.362,30.561 
			176.957,30.561 169.725,8.302 162.492,30.561 139.087,30.561 158.023,44.318 		"/>
		<polygon style="fill:#F0F0F0;" points="150.79,131.652 169.725,117.895 188.659,131.652 181.426,109.392 200.362,95.636 
			176.957,95.636 169.725,73.376 162.492,95.636 139.087,95.636 158.023,109.392 		"/>
		<polygon style="fill:#F0F0F0;" points="181.426,174.467 200.362,160.71 176.957,160.71 169.725,138.45 162.492,160.71 
			139.087,160.71 158.023,174.467 150.79,196.726 169.725,182.969 188.659,196.726 		"/>
		<path style="fill:#D80027;" d="M249.909,160.789h-30.122c0,9.178,0,19.155,0,30.122L249.909,160.789z"/>
		<path style="fill:#D80027;" d="M219.787,102.515h88.397l50.637-50.637c-3.192-2.65-6.44-5.198-9.744-7.639h-129.29
			C219.787,64.868,219.787,82.173,219.787,102.515z"/>
		<path style="fill:#D80027;" d="M133.359,277.34H9.487c5.541,20.311,14.064,39.968,25.57,58.276h40.027L133.359,277.34z"/>
		<path style="fill:#0052B4;" d="M210.075,200.624V160.79h9.712c0-23.599,0-41.923,0-58.275h-9.712V44.239h9.712
			c0-12.47,0-26.165,0-42.479c-37.564-0.026-75.126,9.583-108.639,28.802h9.085l-18.936,13.757l7.233,22.26L89.596,52.821
			L70.661,66.578l2.813-8.657c-2.706,2.449-5.366,4.976-7.975,7.585c-16.808,16.805-30.278,35.707-40.437,55.865l3.341,10.282
			l-6.165-4.479c-3.464,7.416-6.48,14.99-9.065,22.679L16.7,160.71h23.405l-18.936,13.757l7.233,22.259L9.467,182.969l-5.218,3.792
			c-1.62,10.703-2.452,21.502-2.481,32.304h189.866L210.075,200.624z M108.531,196.726l-18.935-13.757l-18.935,13.757l7.233-22.259
			L58.959,160.71h23.405l7.232-22.259l7.232,22.259h23.405l-18.936,13.757L108.531,196.726z M101.298,109.392l7.233,22.26
			l-18.935-13.757l-18.935,13.757l7.233-22.26L58.959,95.636h23.405l7.232-22.26l7.232,22.26h23.405L101.298,109.392z
			 M162.492,30.561l7.232-22.26l7.232,22.26h23.405l-18.936,13.757l7.233,22.26l-18.935-13.757L150.79,66.578l7.233-22.26
			l-18.936-13.757H162.492z M162.492,95.636l7.232-22.26l7.232,22.26h23.405l-18.936,13.757l7.233,22.26l-18.935-13.757
			l-18.935,13.757l7.233-22.26l-18.936-13.757H162.492z M150.79,196.726l7.233-22.259l-18.936-13.757h23.405l7.232-22.259
			l7.232,22.259h23.405l-18.936,13.757l7.233,22.259l-18.935-13.757L150.79,196.726z"/>
		<path style="fill:#0052B4;" d="M219.787,160.789h-9.712v39.834l9.712-9.712C219.787,179.944,219.787,169.967,219.787,160.789z"/>
		<path style="fill:#0052B4;" d="M210.075,44.239v58.276h9.712c0-20.341,0-37.647,0-58.276H210.075z"/>
		<path style="fill:#FFFFFF;" d="M373.026,64.76c0.107,0.107,0.211,0.216,0.316,0.324c0.143,0.142,0.288,0.28,0.43,0.422l-0.01,0.01
			c4.455,4.498,8.675,9.141,12.658,13.918l0.899-0.899c-8.418-9.927-17.705-19.102-27.756-27.399l-0.742,0.742
			c4.876,4.049,9.612,8.347,14.198,12.889L373.026,64.76z"/>
		<path style="fill:#FFFFFF;" d="M373.026,64.76l-0.007,0.007c0.107,0.106,0.216,0.21,0.323,0.317
			C373.237,64.975,373.133,64.867,373.026,64.76z"/>
		<polygon style="fill:#FFFFFF;" points="278.488,160.789 266.58,172.698 279.867,185.986 299.476,166.378 286.188,153.09 		"/>
		<path style="fill:#FFFFFF;" d="M103.662,335.616l-28.829,28.829l0,0l-8.658,8.658l4.326,4.326
			c3.104,2.877,6.287,5.672,9.555,8.369l70.703-70.703v-26.576L103.662,335.616z"/>
		<polygon style="fill:#FFFFFF;" points="207.638,231.639 161.938,277.34 150.76,288.518 150.76,315.094 220.923,244.93 		"/>
		<polygon style="fill:#FFFFFF;" points="220.212,219.065 215.717,223.561 230.037,235.817 240.518,225.335 227.235,212.043 		"/>
		<polygon style="fill:#FFFFFF;" points="220.923,244.93 230.037,235.817 215.717,223.561 207.638,231.639 		"/>
		
			<rect x="225.722" y="189.604" transform="matrix(0.7073 -0.7069 0.7069 0.7073 -66.4635 237.4782)" style="fill:#FFFFFF;" width="55.644" height="18.792"/>
		<path style="fill:#FFFFFF;" d="M364.457,74.82l-27.694,27.694l-25.226,25.226h26.576l48.307-48.307
			c-3.982-4.776-8.203-9.42-12.658-13.918L364.457,74.82z"/>
		<polygon style="fill:#FFFFFF;" points="311.537,127.741 286.188,153.09 299.476,166.378 338.113,127.741 		"/>
		<polygon style="fill:#FFFFFF;" points="276.996,160.789 285.442,152.344 310.045,127.741 335.271,102.515 308.184,102.515 
			249.909,160.789 		"/>
		<polygon style="fill:#FFFFFF;" points="276.996,160.789 278.488,160.789 286.188,153.09 285.442,152.344 		"/>
		<polygon style="fill:#FFFFFF;" points="311.537,127.741 336.763,102.515 335.271,102.515 310.045,127.741 		"/>
		<polygon style="fill:#FFFFFF;" points="285.442,152.344 286.188,153.09 311.537,127.741 310.045,127.741 		"/>
		<path style="fill:#FFFFFF;" d="M74.087,363.698l28.083-28.083H75.083l-22.79,22.79c2.055,2.421,4.158,4.8,6.315,7.13l6.821,6.821
			L74.087,363.698L74.087,363.698z"/>
		<polygon style="fill:#FFFFFF;" points="74.833,364.444 103.662,335.616 102.17,335.616 74.087,363.698 74.087,363.698 
			65.429,372.356 66.175,373.102 		"/>
		<polygon style="fill:#FFFFFF;" points="206.892,230.893 214.913,222.873 218.72,219.065 210.075,219.065 191.634,219.065 
			133.359,277.34 160.445,277.34 		"/>
		<polygon style="fill:#FFFFFF;" points="160.445,277.34 161.938,277.34 207.638,231.639 206.892,230.893 		"/>
		<polygon style="fill:#FFFFFF;" points="218.72,219.065 214.913,222.873 215.717,223.561 220.212,219.065 219.787,219.065 		"/>
		<polygon style="fill:#FFFFFF;" points="206.892,230.893 207.638,231.639 215.717,223.561 214.913,222.873 		"/>
		<path style="fill:#FFFFFF;" d="M265.834,171.952l11.162-11.162h-27.087l-30.122,30.122c0,8.413,0,17.415,0,27.087l6.702-6.702
			L265.834,171.952z"/>
		<polygon style="fill:#FFFFFF;" points="265.834,171.952 266.58,172.698 278.488,160.789 276.996,160.789 		"/>
		<path style="fill:#FFFFFF;" d="M219.787,217.998c0,0.357,0,0.708,0,1.067h0.425l7.022-7.022l-0.746-0.746L219.787,217.998z"/>
		
			<rect x="218.713" y="191.488" transform="matrix(0.7074 -0.7068 0.7068 0.7074 -63.5837 230.4339)" style="fill:#FFFFFF;" width="55.641" height="1.055"/>
		<path style="fill:#FFFFFF;" d="M335.271,102.515l28.44-28.44l7.825-7.825l1.483-1.483c-4.585-4.542-9.322-8.84-14.198-12.889
			l-50.637,50.637H335.271z"/>
		<path style="fill:#FFFFFF;" d="M373.762,65.515l0.01-0.01c-0.142-0.142-0.288-0.28-0.43-0.422
			c0.034,0.035,0.068,0.071,0.103,0.106C373.552,65.297,373.655,65.407,373.762,65.515z"/>
		<path style="fill:#FFFFFF;" d="M373.341,65.083c-0.107-0.106-0.216-0.21-0.323-0.317l-1.483,1.483l1.909-1.06
			C373.41,65.154,373.376,65.119,373.341,65.083z"/>
		<path style="fill:#FFFFFF;" d="M364.457,74.82l9.305-9.305c-0.107-0.108-0.21-0.218-0.317-0.326l-1.909,1.06l-7.825,7.825
			l-28.44,28.44h1.492L364.457,74.82z"/>
		<polygon style="fill:#FFFFFF;" points="150.76,287.026 160.445,277.34 133.359,277.34 75.083,335.616 102.17,335.616 		"/>
		<polygon style="fill:#FFFFFF;" points="102.17,335.616 103.662,335.616 150.76,288.518 150.76,287.026 		"/>
		<polygon style="fill:#FFFFFF;" points="150.76,287.026 150.76,288.518 161.938,277.34 160.445,277.34 		"/>
		<polygon style="fill:#FFFFFF;" points="210.075,200.624 191.634,219.065 210.075,219.065 		"/>
		<path style="fill:#FFFFFF;" d="M218.72,219.065l1.067-1.067c0-9.671,0-18.674,0-27.087l-9.712,9.712v18.441h8.645V219.065z"/>
		<path style="fill:#FFFFFF;" d="M219.787,217.998l-1.067,1.067h1.067C219.787,218.706,219.787,218.356,219.787,217.998z"/>
	</g>
</g>
</svg>
