<?xml version="1.0" encoding="iso-8859-1"?>
<!-- Generator: Adobe Illustrator 22.0.1, SVG Export Plug-In . SVG Version: 6.00 Build 0)  -->
<svg version="1.1" id="Layer_1" xmlns="http://www.w3.org/2000/svg" xmlns:xlink="http://www.w3.org/1999/xlink" x="0px" y="0px"
	 viewBox="0 0 438.53 438.53" style="enable-background:new 0 0 438.53 438.53;" xml:space="preserve">
<g id="_x32_31">
	<g>
		<path style="fill:#D80027;" d="M386.548,79.606l-93.771,93.771c-2.137,19.769,2.885,24.925-0.715,39.894
			c-5.086,21.153-14.122,17.119-18.556,35.566c-14.135-3.399-25.32-12.655-31.62-24.569l-10.134,10.134
			c9.472,8.474,7.181,14.943,20.618,23.183c-13.127,21.405-40.145,29.072-62.321,18.519l-110.44,110.44
			c40.225,33.466,89.749,50.219,139.292,50.219c55.812-0.007,111.645-21.252,154.122-63.736
			C453.235,292.829,457.734,165.154,386.548,79.606z M248.741,348.975c-20.435,17.443-51.141,15.014-68.582-5.419
			c28.858-24.635,23.281-32.668,38.082-45.3c16.548-14.124,21.486-5.549,35.917-17.865
			C271.601,300.826,269.174,331.532,248.741,348.975z M313.604,375.637c-14.508-35.06-23.869-32.238-31.311-50.218
			c-8.322-20.102,1.36-22.151-5.894-39.68c24.824-10.274,53.279,1.522,63.553,26.346
			C350.225,336.909,338.428,365.362,313.604,375.637z M327.919,272.893c-21.69,1.702-20.648-8.141-39.56-6.656
			c-2.101-26.782,17.912-50.201,44.696-52.303c26.783-2.097,50.201,17.913,52.301,44.698
			C347.525,261.598,347.316,271.373,327.919,272.893z"/>
		<path style="fill:#F0F0F0;" d="M273.506,248.837c4.434-18.448,13.47-14.413,18.556-35.566c3.6-14.969-1.422-20.125,0.715-39.894
			l-50.891,50.891C248.186,236.183,259.371,245.439,273.506,248.837z"/>
		<path style="fill:#F0F0F0;" d="M252.37,257.585c-13.437-8.241-11.146-14.709-20.618-23.183l-41.703,41.703
			C212.225,286.657,239.243,278.99,252.37,257.585z"/>
		<path style="fill:#F0F0F0;" d="M218.241,298.257c-14.802,12.632-9.224,20.664-38.082,45.3
			c17.441,20.433,48.147,22.862,68.582,5.419c20.434-17.443,22.86-48.149,5.417-68.584
			C239.727,292.708,234.789,284.133,218.241,298.257z"/>
		<path style="fill:#F0F0F0;" d="M276.399,285.738c7.254,17.529-2.427,19.578,5.894,39.68c7.442,17.981,16.803,15.158,31.311,50.218
			c24.824-10.274,36.621-38.728,26.348-63.552C329.677,287.26,301.223,275.465,276.399,285.738z"/>
		<path style="fill:#F0F0F0;" d="M333.054,213.933c-26.784,2.102-46.796,25.521-44.696,52.303
			c18.912-1.484,17.871,8.358,39.56,6.656c19.398-1.52,19.607-11.295,57.436-14.261
			C383.255,231.847,359.837,211.836,333.054,213.933z"/>
		<path style="fill:#F0F0F0;" d="M28.409,196.727l-7.233-22.259l18.935-13.756H16.707l-3.528-10.858
			c-4.056,12.068-7.032,24.42-8.923,36.908l5.218-3.791L28.409,196.727z"/>
		<polygon style="fill:#F0F0F0;" points="96.833,160.712 89.601,138.453 82.369,160.712 58.965,160.712 77.9,174.468 
			70.667,196.727 89.601,182.97 108.536,196.727 101.303,174.468 120.238,160.712 		"/>
		<path style="fill:#F0F0F0;" d="M25.069,121.373c-0.969,1.924-1.916,3.856-2.825,5.802l6.165,4.479L25.069,121.373z"/>
		<polygon style="fill:#F0F0F0;" points="89.601,73.38 82.369,95.639 58.965,95.639 77.9,109.396 70.667,131.654 89.601,117.898 
			108.536,131.654 101.303,109.396 120.238,95.639 96.833,95.639 		"/>
		<path style="fill:#F0F0F0;" d="M308.483,102.518h-88.694c0,16.352,0,34.675,0,58.273h30.421L308.483,102.518z"/>
		<path style="fill:#F0F0F0;" d="M89.601,52.826l18.934,13.756l-7.233-22.259l18.935-13.756h-9.085
			C97.876,38.18,85.231,47.291,73.48,57.925l-2.813,8.657L89.601,52.826z"/>
		<path style="fill:#F0F0F0;" d="M349.076,44.244C310.803,15.96,265.301,1.798,219.789,1.766c0,16.313,0,30.008,0,42.478H349.076z"
			/>
		<path style="fill:#F0F0F0;" d="M35.063,335.612c5.072,8.071,10.736,15.873,16.966,23.359l23.36-23.359H35.063z"/>
		<polygon style="fill:#F0F0F0;" points="150.793,66.582 169.728,52.826 188.662,66.582 181.429,44.323 200.364,30.567 
			176.96,30.567 169.728,8.308 162.496,30.567 139.091,30.567 158.026,44.323 		"/>
		<polygon style="fill:#F0F0F0;" points="181.429,174.468 200.364,160.712 176.96,160.712 169.728,138.453 162.496,160.712 
			139.091,160.712 158.026,174.468 150.793,196.727 169.728,182.97 188.662,196.727 		"/>
		<path style="fill:#F0F0F0;" d="M191.936,219.065H1.776c0,0.189-0.007,0.378-0.007,0.567c0,19.424,2.58,38.845,7.725,57.706
			h124.168L191.936,219.065z"/>
		<polygon style="fill:#F0F0F0;" points="150.793,131.654 169.728,117.898 188.662,131.654 181.429,109.396 200.364,95.639 
			176.96,95.639 169.728,73.38 162.496,95.639 139.091,95.639 158.026,109.396 		"/>
		<path style="fill:#D80027;" d="M250.21,160.791h-30.421c0,9.262,0,19.335,0,30.421L250.21,160.791z"/>
		<path style="fill:#D80027;" d="M219.789,102.518h88.694l50.498-50.498c-3.244-2.699-6.546-5.293-9.906-7.776H219.789
			C219.789,64.872,219.789,82.177,219.789,102.518z"/>
		<path style="fill:#D80027;" d="M133.663,277.338H9.494c5.541,20.31,14.063,39.967,25.569,58.274h40.325L133.663,277.338z"/>
		<path style="fill:#0052B4;" d="M210.077,200.924v-40.133h9.712c0-23.598,0-41.922,0-58.273h-9.712V44.244h9.712
			c0-12.47,0-26.165,0-42.478c-37.563-0.026-75.124,9.583-108.636,28.801h9.085l-18.935,13.756l7.233,22.259L89.601,52.826
			L70.667,66.582l2.813-8.657c-2.706,2.449-5.366,4.976-7.975,7.585c-16.808,16.805-30.277,35.706-40.436,55.863l3.341,10.282
			l-6.165-4.479c-3.464,7.416-6.48,14.99-9.065,22.679l3.528,10.858h23.405l-18.935,13.756l7.233,22.259L9.475,182.97l-5.218,3.791
			c-1.62,10.703-2.452,21.502-2.481,32.303h190.16L210.077,200.924z M108.536,196.727L89.601,182.97l-18.934,13.756l7.233-22.259
			l-18.935-13.756H82.37l7.232-22.259l7.232,22.259h23.405l-18.935,13.756L108.536,196.727z M101.303,109.396l7.233,22.259
			l-18.934-13.756l-18.934,13.756l7.233-22.259L58.965,95.639H82.37l7.232-22.259l7.232,22.259h23.405L101.303,109.396z
			 M162.496,30.567l7.232-22.259l7.232,22.259h23.405L181.43,44.323l7.233,22.259l-18.934-13.756l-18.934,13.756l7.233-22.259
			l-18.935-13.756C139.093,30.567,162.496,30.567,162.496,30.567z M162.496,95.639l7.232-22.259l7.232,22.259h23.405l-18.935,13.756
			l7.233,22.259l-18.934-13.756l-18.934,13.756l7.233-22.259l-18.935-13.756C139.093,95.639,162.496,95.639,162.496,95.639z
			 M150.793,196.727l7.233-22.259l-18.935-13.756h23.405l7.232-22.259l7.232,22.259h23.405l-18.935,13.756l7.233,22.259
			l-18.934-13.756L150.793,196.727z"/>
		<path style="fill:#0052B4;" d="M219.789,160.791h-9.712v40.133l9.712-9.712C219.789,180.126,219.789,170.053,219.789,160.791z"/>
		<path style="fill:#0052B4;" d="M210.077,44.244v58.274h9.712c0-20.34,0-37.646,0-58.274H210.077z"/>
		<path style="fill:#FFFFFF;" d="M373.023,64.764c0.106,0.106,0.207,0.215,0.313,0.321c0.144,0.143,0.29,0.282,0.433,0.425
			l-0.009,0.009c4.506,4.549,8.766,9.252,12.788,14.086l0.248-0.248c-8.418-9.926-17.705-19.101-27.755-27.398l-0.059,0.059
			c4.818,4.009,9.501,8.261,14.035,12.752L373.023,64.764z"/>
		<path style="fill:#FFFFFF;" d="M64.766,373.022l0.746,0.746c-0.118-0.118-0.23-0.24-0.348-0.358
			C65.032,373.278,64.897,373.153,64.766,373.022z"/>
		<path style="fill:#FFFFFF;" d="M65.512,373.768l4.476,4.476c3.104,2.877,6.286,5.672,9.555,8.368l0.067-0.067
			c-4.835-4.023-9.538-8.281-14.088-12.787L65.512,373.768z"/>
		<path style="fill:#FFFFFF;" d="M52.029,358.972l-0.249,0.249c2.054,2.421,4.158,4.8,6.315,7.129l6.671,6.671l0.011-0.011
			C60.285,368.476,56.039,363.791,52.029,358.972z"/>
		<path style="fill:#FFFFFF;" d="M364.455,74.824l-27.694,27.694l-50.418,50.418c3.277,0.099,6.59,0.506,9.904,1.302
			c-1.852,7.703-2.907,13.922-3.471,19.139l93.771-93.771c-4.023-4.835-8.282-9.537-12.788-14.086L364.455,74.824z"/>
		<path style="fill:#FFFFFF;" d="M64.776,373.011l-0.011,0.011c0.131,0.131,0.266,0.257,0.398,0.388
			C65.032,373.278,64.907,373.143,64.776,373.011z"/>
		<path style="fill:#FFFFFF;" d="M373.023,64.764l-0.007,0.007c0.106,0.105,0.214,0.209,0.32,0.314
			C373.23,64.979,373.129,64.87,373.023,64.764z"/>
		<path style="fill:#FFFFFF;" d="M220.214,219.065l-5.403,5.403c2.912,0.976,5.949,2.32,9.468,4.478
			c3.138,1.924,5.543,3.731,7.472,5.456l10.134-10.134c-3.421-6.47-5.398-13.722-5.623-21.252L220.214,219.065z"/>
		<path style="fill:#FFFFFF;" d="M185.469,273.625c-4.126-2.53-7.727-5.586-10.8-9.015l-12.728,12.728l-58.274,58.274L74.839,364.44
			l0,0l-9.318,9.318c4.55,4.506,9.253,8.765,14.088,12.787l110.44-110.44C188.497,275.366,186.967,274.543,185.469,273.625z"/>
		<path style="fill:#FFFFFF;" d="M286.344,152.935l-7.856,7.856l-42.225,42.225c0.225,7.529,2.202,14.782,5.623,21.252
			l50.891-50.891c0.564-5.216,1.619-11.436,3.471-19.139C292.934,153.441,289.621,153.035,286.344,152.935z"/>
		<path style="fill:#FFFFFF;" d="M214.812,224.468L174.67,264.61c3.072,3.429,6.674,6.485,10.8,9.015
			c1.498,0.919,3.028,1.741,4.58,2.48l41.703-41.703c-1.929-1.726-4.334-3.532-7.472-5.456
			C220.761,226.788,217.724,225.443,214.812,224.468z"/>
		<polygon style="fill:#FFFFFF;" points="276.996,160.791 284.895,152.892 335.27,102.518 308.483,102.518 250.21,160.791 		"/>
		<path style="fill:#FFFFFF;" d="M286.344,152.935l50.418-50.418h-1.492l-50.375,50.375
			C285.376,152.893,285.861,152.921,286.344,152.935z"/>
		<path style="fill:#FFFFFF;" d="M276.996,160.791h1.492l7.856-7.856c-0.483-0.015-0.968-0.042-1.449-0.043L276.996,160.791z"/>
		<path style="fill:#FFFFFF;" d="M74.093,363.694L74.093,363.694l28.082-28.082H75.389l-23.36,23.359
			c4.01,4.819,8.256,9.504,12.747,14.039L74.093,363.694z"/>
		<path style="fill:#FFFFFF;" d="M65.163,373.409c0.118,0.118,0.23,0.24,0.348,0.358l0.01-0.01
			C65.403,373.641,65.282,373.527,65.163,373.409z"/>
		<path style="fill:#FFFFFF;" d="M74.093,363.694L74.093,363.694l-9.317,9.317c0.131,0.132,0.256,0.267,0.387,0.398
			c0.118,0.118,0.239,0.231,0.358,0.349l9.318-9.318l0,0l28.828-28.828h-1.492L74.093,363.694z"/>
		<polygon style="fill:#FFFFFF;" points="173.966,263.821 213.683,224.104 218.722,219.065 210.077,219.065 191.936,219.065 
			133.663,277.338 160.449,277.338 		"/>
		<path style="fill:#FFFFFF;" d="M218.722,219.065l-5.039,5.039c0.374,0.115,0.751,0.237,1.128,0.364l5.403-5.403h-0.425H218.722z"
			/>
		<path style="fill:#FFFFFF;" d="M160.449,277.338h1.492l12.728-12.728c-0.235-0.262-0.474-0.522-0.703-0.789L160.449,277.338z"/>
		<path style="fill:#FFFFFF;" d="M213.683,224.104l-39.717,39.717c0.229,0.267,0.468,0.526,0.703,0.789l40.142-40.142
			C214.434,224.341,214.058,224.219,213.683,224.104z"/>
		<path style="fill:#FFFFFF;" d="M276.996,160.791H250.21l-30.421,30.421c0,8.326,0,17.231,0,26.786l16.443-16.443L276.996,160.791z
			"/>
		<path style="fill:#FFFFFF;" d="M219.789,217.998c0,0.357,0,0.708,0,1.067h0.425l16.049-16.049
			c-0.015-0.487-0.031-0.973-0.03-1.461L219.789,217.998z"/>
		<path style="fill:#FFFFFF;" d="M236.232,201.555c0,0.489,0.016,0.975,0.03,1.461l42.225-42.225h-1.492L236.232,201.555z"/>
		<path style="fill:#FFFFFF;" d="M373.769,65.51c-0.143-0.143-0.289-0.282-0.433-0.425c0.143,0.144,0.281,0.29,0.423,0.434
			L373.769,65.51z"/>
		<path style="fill:#FFFFFF;" d="M335.27,102.518l28.44-28.44l9.307-9.307c-4.534-4.491-9.217-8.742-14.035-12.752l-50.498,50.498
			L335.27,102.518L335.27,102.518z"/>
		<path style="fill:#FFFFFF;" d="M364.455,74.824l9.305-9.305c-0.143-0.144-0.28-0.291-0.423-0.434
			c-0.106-0.106-0.214-0.209-0.32-0.314l-9.307,9.307l-28.44,28.44h1.492L364.455,74.824z"/>
		<polygon style="fill:#FFFFFF;" points="133.663,277.338 75.389,335.612 102.175,335.612 160.449,277.338 		"/>
		<polygon style="fill:#FFFFFF;" points="102.175,335.612 103.667,335.612 161.941,277.338 160.449,277.338 		"/>
		<polygon style="fill:#FFFFFF;" points="210.077,200.924 191.936,219.065 210.077,219.065 		"/>
		<path style="fill:#FFFFFF;" d="M218.722,219.065l1.067-1.067c0-9.555,0-18.461,0-26.786l-9.712,9.712v18.141L218.722,219.065
			L218.722,219.065z"/>
		<path style="fill:#FFFFFF;" d="M219.789,217.998l-1.067,1.067h1.067C219.789,218.706,219.789,218.356,219.789,217.998z"/>
	</g>
</g>
</svg>
