<?xml version="1.0" encoding="iso-8859-1"?>
<!-- Generator: Adobe Illustrator 22.0.1, SVG Export Plug-In . SVG Version: 6.00 Build 0)  -->
<svg version="1.1" id="Layer_1" xmlns="http://www.w3.org/2000/svg" xmlns:xlink="http://www.w3.org/1999/xlink" x="0px" y="0px"
	 viewBox="0 0 438.53 438.53" style="enable-background:new 0 0 438.53 438.53;" xml:space="preserve">
<g id="_x32_32">
	<g>
		<path style="fill:#F0F0F0;" d="M347.912,147.89l-25.597-4.056l-7.975,7.975l-5.906,11.593c8.363,11.207,14.66,24.044,18.34,37.945
			l18.467,6.001l17.386-23.933v29.582l28.133,9.141l-28.133,9.142v29.581l-17.387-23.933l-15.41,5.008
			c-1.881,17.494-7.809,33.775-16.838,47.884l5.704,11.197l29.215-4.63l-20.916,20.919l13.431,26.357l-26.358-13.429l-20.917,20.916
			l4.629-29.218l-9.45-4.815c-14.711,11.681-32.443,19.719-51.837,22.748l-2.799,8.612l23.931,17.387h-29.58l-9.141,28.134
			l-9.143-28.134h-29.579l23.932-17.387l-2.83-8.708c-19.261-3.113-36.865-11.167-51.471-22.822l-1.241,0.633l-7.969,7.969
			l4.054,25.599l-14.826-14.827l-50.223,50.224c40.225,33.467,89.749,50.22,139.292,50.22
			c55.812-0.007,111.645-21.252,154.122-63.737c80.212-80.201,84.71-207.879,13.525-293.429l-53.463,53.464L347.912,147.89z"/>
		<path style="fill:#F0F0F0;" d="M329.524,215.294c0.534,4.072,0.846,8.213,0.927,12.411l4.045-5.568L329.524,215.294z"/>
		<polygon style="fill:#F0F0F0;" points="144.658,351.148 140.604,325.549 129.832,336.321 		"/>
		<path style="fill:#F0F0F0;" d="M148.574,317.579l1.241-0.633c-0.113-0.09-0.225-0.181-0.337-0.272L148.574,317.579z"/>
		<path style="fill:#F0F0F0;" d="M201.286,339.769l2.83,8.708l-23.932,17.387h29.579l9.143,28.134l9.141-28.134h29.58
			l-23.931-17.387l2.799-8.612c-5.643,0.882-11.425,1.343-17.315,1.343C213.086,341.208,207.112,340.711,201.286,339.769z"/>
		<path style="fill:#F0F0F0;" d="M288.331,317.116l9.45,4.815l-4.629,29.218l20.917-20.916l26.358,13.429l-13.431-26.357
			l20.916-20.919l-29.215,4.63l-5.704-11.197C306.33,300.23,297.979,309.455,288.331,317.116z"/>
		<path style="fill:#F0F0F0;" d="M334.496,222.138l-4.045,5.568c0.014,0.732,0.028,1.464,0.028,2.199
			c0,4.066-0.224,8.079-0.649,12.032l15.41-5.008l17.387,23.933V231.28l28.133-9.142l-28.133-9.141v-29.582l-17.386,23.933
			l-18.467-6.001c1.202,4.542,2.127,9.197,2.75,13.947L334.496,222.138z"/>
		<polygon style="fill:#F0F0F0;" points="347.912,147.89 333.086,133.063 322.315,143.834 		"/>
		<path style="fill:#F0F0F0;" d="M308.435,163.402l5.906-11.593l-8.393,8.394C306.793,161.255,307.626,162.318,308.435,163.402z"/>
		<path style="fill:#D80027;" d="M304.073,162.076L158.845,307.308l7.541,1.194l-16.571,8.444
			c14.607,11.656,32.21,19.709,51.471,22.822l-6.313-19.424l23.932,17.386l23.931-17.386l-6.343,19.519
			c19.394-3.03,37.126-11.067,51.837-22.748l-16.906-8.614l29.215-4.628l4.628-29.217l7.724,15.162
			c9.029-14.109,14.957-30.39,16.838-47.884l-12.721,4.134l13.342-18.364c-0.081-4.198-0.393-8.339-0.927-12.411l-12.415-17.088
			l9.665,3.141c-3.68-13.902-9.977-26.738-18.34-37.945l-3.167,6.216L304.073,162.076z"/>
		<path style="fill:#D80027;" d="M158.845,307.308l-9.367,9.367c0.112,0.09,0.224,0.182,0.337,0.272l16.571-8.444L158.845,307.308z"
			/>
		<path style="fill:#D80027;" d="M218.905,337.731l-23.932-17.386l6.313,19.424c5.826,0.942,11.8,1.439,17.892,1.439
			c5.89,0,11.672-0.461,17.315-1.343l6.343-19.519L218.905,337.731z"/>
		<path style="fill:#D80027;" d="M300.64,303.875l-29.215,4.628l16.906,8.614c9.648-7.661,17.999-16.886,24.661-27.297
			l-7.724-15.162L300.64,303.875z"/>
		<path style="fill:#D80027;" d="M329.524,215.294c-0.623-4.75-1.547-9.405-2.75-13.947l-9.665-3.141L329.524,215.294z"/>
		<path style="fill:#D80027;" d="M330.451,227.706l-13.342,18.364l12.721-4.134c0.425-3.953,0.649-7.966,0.649-12.032
			C330.479,229.169,330.465,228.437,330.451,227.706z"/>
		<path style="fill:#D80027;" d="M304.073,162.076l1.195,7.542l3.167-6.216c-0.808-1.083-1.641-2.147-2.488-3.2L304.073,162.076z"/>
		<path style="fill:#D80027;" d="M188.867,222.131c-4.672-15.738,2.779-19.187-4.05-35.688c13.193-5.46,27.356-4.976,39.53,0.207
			l13.638-13.638c-21.795,1.427-21.027-8.588-40.607-7.052c-2.206-28.128,18.812-52.724,46.941-54.932
			c15.68-1.228,30.254,4.765,40.469,15.179l74.187-74.189c-85.548-71.229-213.256-66.744-293.47,13.485
			C23.021,107.981,1.776,163.815,1.769,219.629c0,49.564,16.766,99.11,50.259,139.344L188.867,222.131z M205.664,48.332
			c-9.315,38.749,0.382,42.131-4.396,62c-5.341,22.216-14.831,17.979-19.488,37.354c-27.434-6.596-44.329-34.184-37.733-61.62
			C150.639,58.632,178.229,41.736,205.664,48.332z M72.473,103.456c33.973,20.833,40.184,12.655,57.607,23.339
			c19.478,11.944,12.516,19.662,29.501,30.079c-14.751,24.054-46.208,31.596-70.262,16.845
			C65.265,158.97,57.722,127.511,72.473,103.456z M83.742,247.167c30.308-25.874,24.45-34.31,39.995-47.577
			c17.379-14.834,22.565-5.828,37.721-18.763c18.319,21.462,15.771,53.711-5.689,72.031
			C134.307,271.178,102.058,268.627,83.742,247.167z"/>
		<path style="fill:#F0F0F0;" d="M181.779,147.687c4.657-19.375,14.147-15.138,19.488-37.354c4.778-19.87-4.919-23.252,4.396-62
			c-27.435-6.596-55.025,10.3-61.618,37.734C137.45,113.503,154.345,141.091,181.779,147.687z"/>
		<path style="fill:#F0F0F0;" d="M89.319,173.72c24.055,14.751,55.511,7.209,70.262-16.845
			c-16.986-10.417-10.023-18.135-29.501-30.079c-17.423-10.684-23.634-2.506-57.607-23.339
			C57.722,127.511,65.265,158.97,89.319,173.72z"/>
		<path style="fill:#F0F0F0;" d="M155.769,252.858c21.46-18.32,24.009-50.57,5.689-72.031
			c-15.156,12.935-20.342,3.929-37.721,18.763c-15.545,13.267-9.687,21.703-39.995,47.577
			C102.058,268.627,134.307,271.178,155.769,252.858z"/>
		<path style="fill:#F0F0F0;" d="M184.817,186.443c6.829,16.501-0.622,19.95,4.05,35.688l35.48-35.481
			C212.173,181.467,198.01,180.983,184.817,186.443z"/>
		<path style="fill:#F0F0F0;" d="M284.788,126.207c-10.215-10.414-24.79-16.406-40.469-15.179
			c-28.13,2.208-49.147,26.804-46.941,54.932c19.579-1.537,18.812,8.478,40.607,7.052L284.788,126.207z"/>
		<path style="fill:#FFFFFF;" d="M58.095,366.351l6.671,6.671l0.01-0.01c-4.491-4.535-8.736-9.222-12.747-14.04l-0.248,0.248
			C53.834,361.643,55.938,364.021,58.095,366.351z"/>
		<path style="fill:#FFFFFF;" d="M65.512,373.768c-0.124-0.124-0.243-0.252-0.367-0.377c-0.125-0.125-0.254-0.244-0.379-0.369
			l5.222,5.222c3.104,2.877,6.286,5.672,9.555,8.369l0.067-0.067c-4.835-4.023-9.538-8.281-14.088-12.787L65.512,373.768z"/>
		<path style="fill:#FFFFFF;" d="M373.023,64.757c0.125,0.125,0.245,0.254,0.369,0.379c0.125,0.124,0.252,0.243,0.376,0.367
			l-0.009,0.009c4.506,4.549,8.766,9.252,12.788,14.087l0.248-0.248c-8.418-9.927-17.705-19.102-27.755-27.398l-0.065,0.065
			c4.818,4.011,9.504,8.257,14.038,12.748L373.023,64.757z"/>
		<path style="fill:#FFFFFF;" d="M364.455,74.818l-27.632,27.633l3.604-1.836l-13.43,26.359l6.089,6.089l53.463-53.464
			c-4.023-4.835-8.282-9.537-12.788-14.087L364.455,74.818z"/>
		<path style="fill:#FFFFFF;" d="M123.742,330.232l-26.359,13.43l1.835-3.601l-24.379,24.38l0,0l-9.318,9.318
			c4.55,4.506,9.253,8.765,14.088,12.787l50.223-50.224L123.742,330.232z"/>
		<path style="fill:#FFFFFF;" d="M64.775,373.012l-0.01,0.01c0.125,0.125,0.254,0.245,0.379,0.369
			C65.02,373.266,64.9,373.138,64.775,373.012z"/>
		<polygon style="fill:#FFFFFF;" points="140.604,325.549 148.574,317.579 140.032,321.932 		"/>
		<path style="fill:#FFFFFF;" d="M303.267,156.984l-2.627-16.583l-1.526-0.242l-3.21,3.21l-3.085,3.085
			C296.529,149.731,300.022,153.246,303.267,156.984z"/>
		<path style="fill:#FFFFFF;" d="M373.023,64.757l-0.009,0.009c0.126,0.124,0.254,0.245,0.379,0.369
			C373.268,65.011,373.148,64.882,373.023,64.757z"/>
		<polygon style="fill:#FFFFFF;" points="314.34,151.809 322.315,143.834 318.695,143.26 		"/>
		<path style="fill:#FFFFFF;" d="M135.731,303.547L99.218,340.06l-1.835,3.601l26.359-13.43l6.09,6.09l10.772-10.773l-0.573-3.617
			l8.542-4.353l0.904-0.904C144.53,312.696,139.931,308.303,135.731,303.547z"/>
		<path style="fill:#FFFFFF;" d="M300.64,140.401l2.627,16.583c0.915,1.054,1.805,2.13,2.68,3.218l8.393-8.394l4.355-8.549
			l3.62,0.574l10.771-10.771l-6.089-6.089l13.43-26.359l-3.604,1.836l-37.708,37.709L300.64,140.401z"/>
		<path style="fill:#FFFFFF;" d="M158.845,307.308l145.228-145.232l-0.807-5.092c-3.244-3.738-6.738-7.253-10.447-10.529
			l-14.377,14.377l-37.332,37.333l-42.558,42.559l-61.623,61.624l0.242,1.526L158.845,307.308z"/>
		<path style="fill:#FFFFFF;" d="M149.478,316.675l9.367-9.367l-21.674-3.433l-0.242-1.526l-1.198,1.198
			C139.931,308.303,144.53,312.696,149.478,316.675z"/>
		<path style="fill:#FFFFFF;" d="M305.947,160.202c-0.875-1.088-1.765-2.164-2.68-3.218l0.807,5.092L305.947,160.202z"/>
		<path style="fill:#FFFFFF;" d="M373.769,65.503c-0.124-0.124-0.252-0.243-0.376-0.367c0.124,0.125,0.244,0.252,0.367,0.376
			L373.769,65.503z"/>
		<path style="fill:#FFFFFF;" d="M74.093,363.694L74.093,363.694l26.675-26.676l34.261-34.262l1.696-1.696l61.164-61.166
			c-2.487-3.139-4.76-6.651-6.882-11.778c-0.906-2.19-1.6-4.165-2.14-5.986L52.028,358.973c4.011,4.818,8.256,9.505,12.747,14.04
			L74.093,363.694z"/>
		<path style="fill:#FFFFFF;" d="M276.517,161.265c-18.28,4.283-22.146,10.476-37.592,11.687c-0.324,0.025-0.627,0.04-0.941,0.06
			l-13.638,13.638c5.925,2.523,11.375,6.162,16.016,10.77L276.517,161.265z"/>
		<path style="fill:#FFFFFF;" d="M284.788,126.207c4.502,4.589,8.151,10.038,10.679,16.107l2.359-2.359L333.78,104l29.928-29.929
			l9.305-9.305c-4.534-4.492-9.221-8.737-14.038-12.748L284.788,126.207z"/>
		<path style="fill:#FFFFFF;" d="M65.512,373.768l0.01-0.01c-0.125-0.124-0.252-0.243-0.377-0.367
			C65.268,373.516,65.387,373.644,65.512,373.768z"/>
		<path style="fill:#FFFFFF;" d="M299.115,140.16l-1.288-0.204l-2.359,2.359c0.146,0.351,0.298,0.7,0.437,1.055L299.115,140.16z"/>
		<path style="fill:#FFFFFF;" d="M65.521,373.758l9.318-9.318l0,0l24.379-24.38l1.55-3.042l-26.675,26.676l0,0l-9.318,9.318
			c0.124,0.126,0.245,0.254,0.369,0.379C65.269,373.515,65.396,373.635,65.521,373.758z"/>
		<path style="fill:#FFFFFF;" d="M364.455,74.818l9.305-9.305c-0.124-0.125-0.243-0.252-0.367-0.376
			c-0.125-0.125-0.253-0.245-0.379-0.369l-9.305,9.305l-29.928,29.929l3.042-1.55L364.455,74.818z"/>
		<path style="fill:#FFFFFF;" d="M135.731,303.547c-0.233-0.264-0.471-0.524-0.701-0.791l-34.261,34.262l-1.55,3.042
			L135.731,303.547z"/>
		<polygon style="fill:#FFFFFF;" points="336.823,102.451 333.781,104.001 297.827,139.956 299.115,140.16 		"/>
		<path style="fill:#FFFFFF;" d="M198.552,240.725c-0.223-0.273-0.442-0.552-0.662-0.83l-61.164,61.166l0.204,1.288L198.552,240.725
			z"/>
		<path style="fill:#FFFFFF;" d="M276.517,161.265l-36.155,36.155c0.25,0.248,0.502,0.492,0.747,0.745l37.332-37.333
			C277.782,160.974,277.143,161.119,276.517,161.265z"/>
		<path style="fill:#FFFFFF;" d="M136.929,302.349l-0.204-1.288l-1.696,1.696c0.231,0.266,0.468,0.527,0.701,0.791L136.929,302.349z
			"/>
		<path style="fill:#FFFFFF;" d="M224.347,186.65l-35.48,35.481c0.541,1.821,1.234,3.797,2.14,5.986
			c2.122,5.127,4.395,8.638,6.882,11.778l42.473-42.474C235.722,192.812,230.272,189.173,224.347,186.65z"/>
		<path style="fill:#FFFFFF;" d="M241.11,198.166c-0.245-0.253-0.498-0.497-0.747-0.745l-42.473,42.474
			c0.22,0.278,0.439,0.557,0.662,0.83L241.11,198.166z"/>
		<path style="fill:#FFFFFF;" d="M276.517,161.265l15.511-15.512l3.439-3.439c-2.528-6.069-6.177-11.518-10.679-16.107
			l-46.804,46.805c0.315-0.021,0.617-0.035,0.941-0.06C254.371,171.741,258.238,165.548,276.517,161.265z"/>
		<path style="fill:#FFFFFF;" d="M292.819,146.455l3.085-3.085c-0.139-0.355-0.29-0.704-0.437-1.055l-3.439,3.439
			C292.295,145.984,292.555,146.222,292.819,146.455z"/>
		<path style="fill:#FFFFFF;" d="M292.819,146.455c-0.264-0.233-0.524-0.471-0.791-0.701l-15.511,15.512
			c0.625-0.146,1.265-0.291,1.925-0.433L292.819,146.455z"/>
	</g>
</g>
</svg>
