<?xml version="1.0" encoding="iso-8859-1"?>
<!-- Generator: Adobe Illustrator 22.0.1, SVG Export Plug-In . SVG Version: 6.00 Build 0)  -->
<svg version="1.1" id="Layer_1" xmlns="http://www.w3.org/2000/svg" xmlns:xlink="http://www.w3.org/1999/xlink" x="0px" y="0px"
	 viewBox="0 0 438.53 438.53" style="enable-background:new 0 0 438.53 438.53;" xml:space="preserve">
<g id="_x32_33">
	<g>
		<path style="fill:#F0F0F0;" d="M79.604,386.553c2.943,2.445,5.935,4.804,8.973,7.073h260.65
			c8.302-6.2,16.266-13.056,23.802-20.593c12.607-12.605,23.329-26.39,32.196-40.993H134.118L79.604,386.553z"/>
		<path style="fill:#F0F0F0;" d="M274.87,191.287h160.154c-2.671-21.091-8.418-41.86-17.235-61.581h-81.338L274.87,191.287z"/>
		<path style="fill:#0052B4;" d="M435.024,191.287H274.87L134.118,332.039h271.108C431.189,289.281,441.124,239.458,435.024,191.287
			z"/>
		<path style="fill:#D80027;" d="M417.789,129.706c-7.927-17.729-18.346-34.602-31.24-50.099l-50.099,50.099H417.789z"/>
		<path style="fill:#D80027;" d="M218.904,436.77c45.912-0.005,91.83-14.396,130.324-43.144H88.577
			C127.077,422.377,172.982,436.77,218.904,436.77z"/>
		<polygon style="fill:#F0F0F0;" points="96.832,160.71 89.6,138.45 82.368,160.71 58.963,160.71 77.898,174.467 70.665,196.726 
			89.6,182.969 108.535,196.726 101.302,174.467 120.238,160.71 		"/>
		<path style="fill:#F0F0F0;" d="M28.406,196.726l-7.233-22.26l18.936-13.757H16.704l-3.528-10.858
			c-4.057,12.068-7.033,24.421-8.923,36.909l5.218-3.792L28.406,196.726z"/>
		<polygon style="fill:#F0F0F0;" points="89.6,73.376 82.368,95.636 58.963,95.636 77.898,109.392 70.665,131.652 89.6,117.895 
			108.535,131.652 101.302,109.392 120.238,95.636 96.832,95.636 		"/>
		<path style="fill:#F0F0F0;" d="M25.066,121.37c-0.97,1.924-1.916,3.856-2.825,5.802l6.165,4.479L25.066,121.37z"/>
		<path style="fill:#F0F0F0;" d="M89.6,52.821l18.935,13.757l-7.233-22.259l18.936-13.757h-9.085
			C97.876,38.176,85.23,47.287,73.479,57.921l-2.813,8.657L89.6,52.821z"/>
		<path style="fill:#F0F0F0;" d="M349.082,44.239C310.808,15.955,265.305,1.792,219.791,1.76c0,16.314,0,30.009,0,42.479H349.082z"
			/>
		<polygon style="fill:#F0F0F0;" points="150.794,131.652 169.729,117.895 188.664,131.652 181.431,109.392 200.366,95.636 
			176.961,95.636 169.729,73.376 162.497,95.636 139.091,95.636 158.027,109.392 		"/>
		<path style="fill:#F0F0F0;" d="M35.061,335.616c5.073,8.071,10.736,15.873,16.966,23.36l23.36-23.36L35.061,335.616
			L35.061,335.616z"/>
		<path style="fill:#F0F0F0;" d="M191.938,219.065H1.772c0,0.189-0.007,0.378-0.007,0.567c0,19.425,2.58,38.847,7.726,57.708
			h124.172L191.938,219.065z"/>
		<path style="fill:#F0F0F0;" d="M308.488,102.514h-88.697c0,16.352,0,34.676,0,58.275h30.422L308.488,102.514z"/>
		<polygon style="fill:#F0F0F0;" points="181.431,174.467 200.366,160.71 176.961,160.71 169.729,138.45 162.497,160.71 
			139.091,160.71 158.027,174.467 150.794,196.726 169.729,182.969 188.664,196.726 		"/>
		<polygon style="fill:#F0F0F0;" points="150.794,66.578 169.729,52.821 188.664,66.578 181.431,44.318 200.366,30.561 
			176.961,30.561 169.729,8.302 162.497,30.561 139.091,30.561 158.027,44.318 		"/>
		<path style="fill:#D80027;" d="M250.213,160.789h-30.422c0,9.262,0,19.335,0,30.422L250.213,160.789z"/>
		<path style="fill:#D80027;" d="M219.791,102.514h88.697l50.5-50.5c-3.244-2.699-6.546-5.293-9.906-7.776h-129.29
			C219.791,64.868,219.791,82.173,219.791,102.514z"/>
		<path style="fill:#D80027;" d="M133.663,277.34H9.491c5.541,20.311,14.064,39.968,25.57,58.276h40.326L133.663,277.34z"/>
		<path style="fill:#0052B4;" d="M210.079,200.923v-40.134h9.712c0-23.599,0-41.923,0-58.275h-9.712V44.239h9.712
			c0-12.47,0-26.165,0-42.479c-37.564-0.026-75.126,9.583-108.639,28.802h9.085l-18.936,13.757l7.233,22.259L89.6,52.821
			L70.665,66.578l2.813-8.657c-2.706,2.449-5.366,4.976-7.975,7.585c-16.808,16.805-30.278,35.707-40.437,55.865l3.341,10.282
			l-6.165-4.479c-3.464,7.416-6.48,14.99-9.065,22.679l3.528,10.858H40.11l-18.936,13.757l7.233,22.26L9.472,182.969l-5.218,3.792
			c-1.62,10.703-2.452,21.502-2.481,32.304h190.165L210.079,200.923z M108.535,196.726L89.6,182.969l-18.935,13.757l7.233-22.259
			L58.963,160.71h23.405l7.232-22.26l7.232,22.259h23.405l-18.936,13.757L108.535,196.726z M101.302,109.392l7.233,22.26
			L89.6,117.895l-18.935,13.757l7.233-22.26L58.963,95.636h23.405l7.232-22.26l7.232,22.26h23.405L101.302,109.392z M162.497,30.561
			l7.232-22.26l7.232,22.26h23.405L181.43,44.318l7.233,22.259L169.728,52.82l-18.935,13.757l7.233-22.26L139.09,30.56
			L162.497,30.561L162.497,30.561z M162.497,95.636l7.232-22.26l7.232,22.26h23.405l-18.936,13.757l7.233,22.26l-18.935-13.757
			l-18.935,13.757l7.233-22.26L139.09,95.636H162.497z M150.794,196.726l7.233-22.259l-18.936-13.757h23.405l7.232-22.259
			l7.232,22.259h23.405l-18.936,13.757l7.233,22.259l-18.935-13.757L150.794,196.726z"/>
		<path style="fill:#0052B4;" d="M219.791,160.789h-9.712v40.134l9.712-9.712C219.791,180.125,219.791,170.052,219.791,160.789z"/>
		<path style="fill:#0052B4;" d="M210.079,44.239v58.276h9.712c0-20.341,0-37.647,0-58.276H210.079z"/>
		<path style="fill:#FFFFFF;" d="M65.51,373.772l4.476,4.476c3.104,2.877,6.287,5.672,9.555,8.369l0.064-0.064
			c-4.837-4.019-9.537-8.282-14.088-12.788L65.51,373.772z"/>
		<path style="fill:#FFFFFF;" d="M52.027,358.976l-0.249,0.249c2.055,2.421,4.158,4.8,6.315,7.13l6.671,6.671l0.011-0.011
			C60.283,368.48,56.036,363.795,52.027,358.976z"/>
		<path style="fill:#FFFFFF;" d="M64.764,373.026l0.746,0.746c-0.098-0.098-0.192-0.2-0.29-0.298
			C65.068,373.323,64.915,373.177,64.764,373.026z"/>
		<path style="fill:#FFFFFF;" d="M373.03,64.76c0.106,0.106,0.208,0.215,0.313,0.321c0.143,0.143,0.289,0.281,0.433,0.424
			l-0.009,0.009c0.733,0.746,1.465,1.493,2.189,2.245c3.704,3.847,7.229,7.803,10.594,11.848l0.254-0.254
			c-8.418-9.927-17.705-19.102-27.756-27.399l-0.059,0.059c4.818,4.009,9.501,8.261,14.035,12.752L373.03,64.76z"/>
		<path style="fill:#FFFFFF;" d="M375.955,67.76c-0.724-0.752-1.455-1.499-2.189-2.245l-2.245,2.245H375.955z"/>
		<path style="fill:#FFFFFF;" d="M373.03,64.76l-0.007,0.007c0.106,0.105,0.214,0.209,0.32,0.314
			C373.238,64.975,373.136,64.866,373.03,64.76z"/>
		<path style="fill:#FFFFFF;" d="M107.242,332.039l-3.576,3.576l-28.829,28.829l0,0l-9.321,9.321
			c4.55,4.506,9.251,8.769,14.088,12.788l54.514-54.514H107.242z"/>
		<path style="fill:#FFFFFF;" d="M64.774,373.015l-0.011,0.011c0.151,0.151,0.305,0.297,0.456,0.448
			C65.069,373.322,64.925,373.167,64.774,373.015z"/>
		<polygon style="fill:#FFFFFF;" points="309.575,129.706 278.492,160.789 247.994,191.287 274.87,191.287 336.451,129.706 		"/>
		<polygon style="fill:#FFFFFF;" points="220.217,219.065 161.942,277.34 107.242,332.039 134.118,332.039 274.87,191.287 
			247.994,191.287 		"/>
		<path style="fill:#FFFFFF;" d="M371.522,67.76l-7.06,7.06l-27.694,27.694l-27.192,27.192h26.875l50.099-50.099
			c-3.365-4.045-6.89-8.001-10.594-11.848h-4.434V67.76z"/>
		<path style="fill:#FFFFFF;" d="M74.091,363.698L74.091,363.698l28.083-28.083H75.387l-23.36,23.36
			c4.01,4.819,8.257,9.505,12.748,14.039L74.091,363.698z"/>
		<path style="fill:#FFFFFF;" d="M65.22,373.474c0.098,0.099,0.192,0.2,0.29,0.298l0.007-0.007
			C65.418,373.667,65.318,373.571,65.22,373.474z"/>
		<path style="fill:#FFFFFF;" d="M74.091,363.698L74.091,363.698l-9.317,9.317c0.15,0.152,0.295,0.307,0.445,0.458
			c0.099,0.098,0.198,0.194,0.297,0.291l9.321-9.321l0,0l28.829-28.829h-1.492L74.091,363.698z"/>
		<polygon style="fill:#FFFFFF;" points="218.725,219.065 210.079,219.065 191.938,219.065 133.663,277.34 160.45,277.34 		"/>
		<polygon style="fill:#FFFFFF;" points="218.725,219.065 160.45,277.34 161.942,277.34 220.217,219.065 219.791,219.065 		"/>
		<polygon style="fill:#FFFFFF;" points="277,160.789 308.083,129.706 335.275,102.514 308.488,102.514 250.213,160.789 		"/>
		<polygon style="fill:#FFFFFF;" points="277,160.789 278.492,160.789 309.575,129.706 308.083,129.706 		"/>
		<polygon style="fill:#FFFFFF;" points="309.575,129.706 336.767,102.514 335.275,102.514 308.083,129.706 		"/>
		<path style="fill:#FFFFFF;" d="M277,160.789h-26.787l-30.422,30.422c0,8.326,0,17.231,0,26.787l26.711-26.711L277,160.789z"/>
		<polygon style="fill:#FFFFFF;" points="246.502,191.287 247.994,191.287 278.492,160.789 277,160.789 		"/>
		<path style="fill:#FFFFFF;" d="M219.791,217.998c0,0.357,0,0.708,0,1.067h0.425l27.778-27.778h-1.492L219.791,217.998z"/>
		<path style="fill:#FFFFFF;" d="M335.275,102.514l28.44-28.44l6.314-6.314l2.993-2.993c-4.534-4.491-9.217-8.743-14.035-12.752
			l-50.5,50.5L335.275,102.514L335.275,102.514z"/>
		<path style="fill:#FFFFFF;" d="M373.776,65.506c-0.143-0.143-0.289-0.282-0.433-0.424c0.143,0.144,0.281,0.29,0.423,0.434
			L373.776,65.506z"/>
		<path style="fill:#FFFFFF;" d="M373.766,65.515c-0.142-0.144-0.28-0.29-0.423-0.434c-0.106-0.106-0.214-0.209-0.32-0.314
			l-2.993,2.993h1.492L373.766,65.515z"/>
		<polygon style="fill:#FFFFFF;" points="364.462,74.82 371.522,67.76 370.03,67.76 363.716,74.074 335.275,102.514 
			336.767,102.514 		"/>
		<polygon style="fill:#FFFFFF;" points="160.45,277.34 133.663,277.34 75.387,335.616 102.174,335.616 105.75,332.039 		"/>
		<polygon style="fill:#FFFFFF;" points="102.174,335.616 103.666,335.616 107.242,332.039 105.75,332.039 		"/>
		<polygon style="fill:#FFFFFF;" points="160.45,277.34 105.75,332.039 107.242,332.039 161.942,277.34 		"/>
		<polygon style="fill:#FFFFFF;" points="210.079,200.923 191.938,219.065 210.079,219.065 		"/>
		<path style="fill:#FFFFFF;" d="M218.725,219.065l1.067-1.067c0-9.556,0-18.461,0-26.787l-9.712,9.712v18.142H218.725z"/>
		<path style="fill:#FFFFFF;" d="M219.791,217.998l-1.067,1.067h1.067C219.791,218.706,219.791,218.356,219.791,217.998z"/>
	</g>
</g>
</svg>
