<?xml version="1.0" encoding="iso-8859-1"?>
<!-- Generator: Adobe Illustrator 22.0.1, SVG Export Plug-In . SVG Version: 6.00 Build 0)  -->
<svg version="1.1" id="Layer_1" xmlns="http://www.w3.org/2000/svg" xmlns:xlink="http://www.w3.org/1999/xlink" x="0px" y="0px"
	 viewBox="0 0 438.53 438.53" style="enable-background:new 0 0 438.53 438.53;" xml:space="preserve">
<g id="_x32_34">
	<g>
		<path style="fill:#F0F0F0;" d="M274.87,191.284h160.154c-2.671-21.091-8.418-41.86-17.235-61.581h-81.338L274.87,191.284z"/>
		<path style="fill:#F0F0F0;" d="M79.604,386.55c2.943,2.445,5.935,4.804,8.973,7.073h260.65c8.302-6.2,16.266-13.056,23.802-20.593
			c12.607-12.605,23.329-26.39,32.196-40.993H134.118L79.604,386.55z"/>
		<path style="fill:#0052B4;" d="M435.024,191.284H274.87L134.118,332.036h271.108C431.189,289.278,441.124,239.454,435.024,191.284
			z"/>
		<path style="fill:#D80027;" d="M417.789,129.703c-7.927-17.729-18.346-34.602-31.24-50.099l-50.099,50.099H417.789z"/>
		<path style="fill:#D80027;" d="M218.904,436.767c45.912-0.005,91.83-14.396,130.324-43.144H88.577
			C127.077,422.374,172.982,436.767,218.904,436.767z"/>
		<path style="fill:#0052B4;" d="M78.383,331.662l13.43-26.359l-20.915-20.917l29.217,4.63l13.428-26.358l4.629,29.217l0.823,0.13
			l162.781-162.781l-0.13-0.823l-29.216-4.629l26.356-13.429l-4.629-29.215l20.919,20.915l26.357-13.43l-0.99,1.944l38.541-38.541
			C273.431-19.212,145.72-14.727,65.503,65.502C23.018,107.981,1.772,163.815,1.765,219.629c0,49.564,16.767,99.11,50.261,139.345
			l28.303-28.303L78.383,331.662z M190.766,66.411l9.142-28.134l9.142,28.134h29.58l-23.932,17.387l9.142,28.134l-23.932-17.388
			l-23.933,17.388l9.142-28.134l-23.932-17.387H190.766z M78.383,88.614l26.359,13.429l20.917-20.915l-4.629,29.216l26.358,13.43
			l-29.217,4.628l-4.628,29.218l-13.43-26.358l-29.216,4.629l20.917-20.917L78.383,88.614z M28.047,210.138l28.134-9.142v-29.581
			l17.386,23.933l28.135-9.142l-17.389,23.932l17.389,23.932l-28.135-9.141l-17.386,23.932V219.28L28.047,210.138z"/>
		<polygon style="fill:#FFDA44;" points="175.975,111.932 199.908,94.544 223.84,111.932 214.698,83.799 238.63,66.411 
			209.05,66.411 199.908,38.278 190.766,66.411 161.185,66.411 185.117,83.799 		"/>
		<polygon style="fill:#FFDA44;" points="100.113,131.261 113.543,157.619 118.171,128.401 147.388,123.773 121.03,110.343 
			125.658,81.127 104.742,102.043 78.383,88.614 91.814,114.973 70.897,135.89 		"/>
		<polygon style="fill:#FFDA44;" points="73.567,224.929 101.702,234.07 84.313,210.138 101.702,186.206 73.567,195.348 
			56.181,171.415 56.181,200.996 28.047,210.138 56.181,219.28 56.181,248.861 		"/>
		<polygon style="fill:#FFDA44;" points="118.171,291.875 113.542,262.658 100.114,289.016 70.897,284.386 91.813,305.303 
			78.383,331.662 80.329,330.671 118.994,292.005 		"/>
		<polygon style="fill:#FFDA44;" points="321.432,88.614 295.075,102.044 274.156,81.128 278.785,110.343 252.429,123.772 
			281.645,128.401 281.775,129.224 320.441,90.558 		"/>
		<path style="fill:#FFFFFF;" d="M52.026,358.973l-0.248,0.248c2.055,2.421,4.158,4.8,6.315,7.13l6.671,6.671l0.01-0.01
			C60.282,368.478,56.037,363.791,52.026,358.973z"/>
		<path style="fill:#FFFFFF;" d="M373.03,64.757c0.125,0.125,0.244,0.253,0.368,0.378c0.125,0.124,0.253,0.243,0.378,0.368
			l-0.009,0.009c0.733,0.746,1.465,1.493,2.189,2.245c3.704,3.847,7.229,7.803,10.594,11.848l0.254-0.254
			c-8.418-9.927-17.705-19.102-27.756-27.399l-0.065,0.065c4.818,4.011,9.504,8.257,14.039,12.749L373.03,64.757z"/>
		<path style="fill:#FFFFFF;" d="M65.51,373.769l4.476,4.476c3.104,2.877,6.287,5.672,9.555,8.369l0.064-0.064
			c-4.837-4.019-9.537-8.282-14.088-12.788L65.51,373.769z"/>
		<path style="fill:#FFFFFF;" d="M64.764,373.023l0.746,0.746c-0.105-0.105-0.205-0.212-0.309-0.317
			C65.056,373.307,64.908,373.167,64.764,373.023z"/>
		<path style="fill:#FFFFFF;" d="M375.955,67.757c-0.724-0.752-1.455-1.499-2.189-2.245l-2.245,2.245H375.955z"/>
		<path style="fill:#FFFFFF;" d="M373.03,64.757l-0.009,0.009c0.125,0.124,0.253,0.244,0.378,0.368
			C373.274,65.009,373.155,64.881,373.03,64.757z"/>
		<polygon style="fill:#FFFFFF;" points="309.575,129.703 306.881,132.398 291.062,148.216 285.642,153.636 247.994,191.284 
			274.87,191.284 336.451,129.703 		"/>
		<path style="fill:#FFFFFF;" d="M64.773,373.013l-0.01,0.01c0.145,0.145,0.292,0.285,0.437,0.429
			C65.056,373.306,64.917,373.158,64.773,373.013z"/>
		<path style="fill:#FFFFFF;" d="M107.242,332.036l-32.405,32.405l0,0l-9.321,9.321c4.55,4.506,9.251,8.769,14.088,12.788
			l54.514-54.514H107.242z"/>
		<polygon style="fill:#FFFFFF;" points="143.406,295.872 137.984,301.294 122.168,317.11 112.894,326.384 107.242,332.036 
			134.118,332.036 274.87,191.284 247.994,191.284 		"/>
		<path style="fill:#FFFFFF;" d="M371.522,67.757l-7.06,7.06l-48.308,48.308l-6.578,6.578h26.875l50.099-50.099
			c-3.365-4.045-6.89-8.001-10.594-11.848L371.522,67.757L371.522,67.757z"/>
		<polygon style="fill:#FFFFFF;" points="299.7,131.26 292.611,145.175 305.593,132.193 		"/>
		<polygon style="fill:#FFFFFF;" points="292.611,145.175 291.062,148.216 306.881,132.398 305.593,132.193 		"/>
		<polygon style="fill:#FFFFFF;" points="121.032,309.933 121.964,315.822 134.942,302.844 		"/>
		<polygon style="fill:#FFFFFF;" points="121.964,315.822 122.168,317.11 137.984,301.294 134.942,302.844 		"/>
		<polygon style="fill:#FFFFFF;" points="246.502,191.284 285.438,152.348 281.775,129.224 118.994,292.005 142.118,295.668 		"/>
		<path style="fill:#FFFFFF;" d="M308.002,114.973l7.406,7.406l48.308-48.308l6.314-6.314l2.991-2.991
			c-4.534-4.492-9.221-8.737-14.039-12.749l-38.541,38.541L308.002,114.973z"/>
		<path style="fill:#FFFFFF;" d="M373.776,65.502c-0.125-0.125-0.253-0.244-0.378-0.368c0.124,0.125,0.245,0.252,0.368,0.378
			L373.776,65.502z"/>
		<path style="fill:#FFFFFF;" d="M74.091,363.695L74.091,363.695l31.659-31.659l6.398-6.398l-7.406-7.406L80.329,330.67
			l-28.303,28.303c4.011,4.818,8.256,9.505,12.747,14.04L74.091,363.695z"/>
		<path style="fill:#FFFFFF;" d="M65.2,373.451c0.104,0.105,0.205,0.213,0.309,0.317l0.007-0.007
			C65.412,373.658,65.305,373.556,65.2,373.451z"/>
		<path style="fill:#FFFFFF;" d="M373.766,65.512c-0.123-0.125-0.244-0.253-0.368-0.378c-0.125-0.124-0.253-0.244-0.378-0.368
			l-2.991,2.991h1.492L373.766,65.512z"/>
		<polygon style="fill:#FFFFFF;" points="246.502,191.284 247.994,191.284 285.642,153.636 285.438,152.348 		"/>
		<path style="fill:#FFFFFF;" d="M74.091,363.695L74.091,363.695l-9.318,9.318c0.144,0.145,0.283,0.293,0.427,0.438
			c0.105,0.104,0.211,0.206,0.316,0.31l9.321-9.321l0,0l32.405-32.405h-1.492L74.091,363.695z"/>
		<polygon style="fill:#FFFFFF;" points="142.118,295.668 143.406,295.872 247.994,191.284 246.502,191.284 		"/>
		<polygon style="fill:#FFFFFF;" points="112.148,325.638 105.75,332.036 107.242,332.036 112.894,326.384 		"/>
		<polygon style="fill:#FFFFFF;" points="364.462,74.817 371.522,67.757 370.03,67.757 363.716,74.071 315.408,122.379 
			316.154,123.125 		"/>
		<polygon style="fill:#FFFFFF;" points="121.032,309.933 134.942,302.844 142.118,295.668 118.994,292.005 80.329,330.671 
			104.742,318.232 112.148,325.638 121.964,315.822 		"/>
		<polygon style="fill:#FFFFFF;" points="134.942,302.844 137.984,301.294 143.406,295.872 142.118,295.668 		"/>
		<polygon style="fill:#FFFFFF;" points="122.168,317.11 121.964,315.822 112.148,325.638 112.894,326.384 		"/>
		<polygon style="fill:#FFFFFF;" points="292.611,145.175 299.7,131.26 305.593,132.193 308.083,129.703 315.408,122.379 
			308.002,114.973 320.441,90.558 281.775,129.224 285.438,152.348 		"/>
		<polygon style="fill:#FFFFFF;" points="285.438,152.348 285.642,153.636 291.062,148.216 292.611,145.175 		"/>
		<polygon style="fill:#FFFFFF;" points="305.593,132.193 306.881,132.398 309.575,129.703 308.083,129.703 		"/>
		<polygon style="fill:#FFFFFF;" points="309.575,129.703 316.154,123.125 315.408,122.379 308.083,129.703 		"/>
	</g>
</g>
</svg>
