<?xml version="1.0" encoding="iso-8859-1"?>
<!-- Generator: Adobe Illustrator 22.0.1, SVG Export Plug-In . SVG Version: 6.00 Build 0)  -->
<svg version="1.1" id="Layer_1" xmlns="http://www.w3.org/2000/svg" xmlns:xlink="http://www.w3.org/1999/xlink" x="0px" y="0px"
	 viewBox="0 0 438.53 438.53" style="enable-background:new 0 0 438.53 438.53;" xml:space="preserve">
<g id="_x32_38">
	<g>
		<polygon style="fill:#1C1C1C;" points="229.682,152.043 217.805,212.674 241.465,212.674 		"/>
		<path style="fill:#1C1C1C;" d="M407.603,110.087c-19.45-33.321-45.833-59.704-79.155-79.153
			c-33.328-19.448-69.711-29.17-109.176-29.17c-39.461,0-75.854,9.722-109.177,29.17C76.771,50.38,50.388,76.763,30.938,110.087
			c-19.451,33.326-29.173,69.72-29.173,109.178c0,39.46,9.725,75.847,29.17,109.175c19.449,33.321,45.832,59.704,79.156,79.155
			c33.326,19.447,69.717,29.17,109.177,29.17s75.854-9.723,109.179-29.17c33.322-19.444,59.704-45.834,79.152-79.155
			c19.445-33.325,29.166-69.718,29.166-109.175C436.766,179.803,427.044,143.409,407.603,110.087z M198.856,116.265h61.38
			l38.869,164.862l-69.423-58.168l-66.583,53.729L198.856,116.265z M99.749,326.583H86.103
			c-24.837,0.007-44.265-18.514-44.265-42.987V156.989c0-24.688,15.252-45.1,55.606-45.1c39.304,0.057,55.435,20.37,55.442,45.057
			v44.679H108.9v-43.073c0-6.124-4.975-11.077-11.077-11.077c-6.124,0-10.67,4.96-10.67,11.077v121.275
			c0,6.124,4.546,11.084,10.67,11.084c6.109,0,11.077-4.967,11.077-11.084v-42.809h44.036v31.553c0,7.487-1.399,15.866-9.5,22.618
			l0,0L99.749,326.583z M118.641,326.64l111.012-89.75l107.136,89.75H118.641z M396.692,157.025h-30.554v169.322h-13.025
			l-36.043-30.19V157.025h-30.383v-40.989h110.005L396.692,157.025L396.692,157.025z"/>
		<path style="fill:#FFFFFF;" d="M143.436,291.19c8.101-6.752,9.5-15.131,9.5-22.618v-31.553H108.9v42.809
			c0,6.117-4.968,11.084-11.077,11.084c-6.124,0-10.67-4.96-10.67-11.084V158.553c0-6.117,4.546-11.077,10.67-11.077
			c6.102,0,11.077,4.953,11.077,11.077v43.073h43.986v-44.679c-0.007-24.688-16.137-45-55.442-45.057
			c-40.354,0-55.606,20.412-55.606,45.1v126.606c0,24.473,19.427,42.994,44.265,42.987h13.646L143.436,291.19L143.436,291.19z"/>
		<polygon style="fill:#FFFFFF;" points="286.686,157.025 317.069,157.025 317.069,296.157 353.112,326.348 366.138,326.348 
			366.138,157.025 396.692,157.025 396.692,116.036 286.686,116.036 		"/>
		<polygon style="fill:#F6D33C;" points="118.641,326.64 336.789,326.64 229.653,236.89 		"/>
		<path style="fill:#FFFFFF;" d="M299.105,281.126l-38.869-164.862h-61.38l-35.757,160.422l66.583-53.729L299.105,281.126z
			 M229.682,152.043l11.784,60.63h-23.66L229.682,152.043z"/>
	</g>
</g>
</svg>
