<?xml version="1.0" encoding="iso-8859-1"?>
<!-- Generator: Adobe Illustrator 22.0.1, SVG Export Plug-In . SVG Version: 6.00 Build 0)  -->
<svg version="1.1" id="Layer_1" xmlns="http://www.w3.org/2000/svg" xmlns:xlink="http://www.w3.org/1999/xlink" x="0px" y="0px"
	 viewBox="0 0 438.53 438.53" style="enable-background:new 0 0 438.53 438.53;" xml:space="preserve">
<g id="_x32_39">
	<g>
		<path style="fill:#F7931A;" d="M279.173,346.092c1.579,0.349,3.797,0.772,6.649,1.273c2.855,0.499,5.322,0.87,7.404,1.111
			c2.085,0.241,4.53,0.413,7.345,0.511c2.809,0.095,5.245,0.026,7.305-0.219c2.057-0.243,4.226-0.678,6.5-1.311
			c2.274-0.63,4.192-1.515,5.752-2.65c1.558-1.139,2.942-2.578,4.156-4.316c1.213-1.739,2.075-3.768,2.59-6.098
			c0.661-2.993,0.625-5.792-0.11-8.394c-0.732-2.603-1.848-4.852-3.346-6.754c-1.499-1.9-3.61-3.696-6.331-5.385
			c-2.723-1.692-5.274-3.061-7.657-4.111c-2.386-1.05-5.379-2.102-8.98-3.156c-3.603-1.059-6.445-1.815-8.523-2.274
			c-2.078-0.459-4.766-1.012-8.069-1.653c-3.303-0.64-5.286-1.036-5.95-1.183l-9.306,42.147c0.666,0.147,2.197,0.507,4.601,1.079
			C275.603,345.28,277.593,345.743,279.173,346.092z"/>
		<path style="fill:#F7931A;" d="M292.236,284.573c1.421,0.271,3.519,0.645,6.29,1.127c2.771,0.482,5.107,0.757,7.009,0.828
			c1.901,0.072,4.142,0.087,6.722,0.046c2.58-0.04,4.767-0.364,6.556-0.971c1.791-0.606,3.579-1.389,5.359-2.348
			c1.779-0.958,3.257-2.311,4.425-4.057c1.17-1.748,2.011-3.786,2.525-6.113c0.606-2.743,0.623-5.289,0.05-7.638
			c-0.569-2.349-1.451-4.375-2.646-6.077c-1.192-1.701-2.928-3.306-5.213-4.812c-2.28-1.506-4.417-2.697-6.403-3.571
			c-1.986-0.874-4.468-1.771-7.447-2.69c-2.98-0.92-5.368-1.556-7.164-1.909s-4.049-0.807-6.761-1.361
			c-2.709-0.554-4.355-0.896-4.938-1.024l-8.452,38.279c0.417,0.092,1.844,0.43,4.288,1.013
			C288.881,283.875,290.813,284.302,292.236,284.573z"/>
		<path style="fill:#F7931A;" d="M386.548,79.599l-133.34,133.343l10.511,2.373c5.32,1.175,9.36,2.022,12.122,2.545l6.938-31.422
			l19.203,4.24l-6.8,30.798c6.852,1.339,11.941,2.375,15.266,3.109l6.745-30.549l19.2,4.24l-6.938,31.422
			c6.439,2.031,12.052,4.252,16.837,6.66c4.784,2.407,9.071,5.314,12.851,8.723c3.784,3.407,6.493,7.404,8.141,11.996
			c1.647,4.591,2.113,9.681,1.401,15.277c-1.846,15.46-9.657,24.982-23.439,28.565c9.213,4.475,15.541,10.362,18.985,17.659
			c3.444,7.3,3.351,16.609-0.284,27.921c-1.883,5.775-4.383,10.672-7.491,14.694c-3.115,4.021-6.61,7.13-10.495,9.321
			c-3.884,2.194-8.452,3.737-13.703,4.625c-5.252,0.891-10.619,1.207-16.1,0.959c-5.479-0.247-11.662-0.962-18.553-2.136
			l-7.02,31.795l-19.2-4.24l6.91-31.296c-6.65-1.468-11.711-2.629-15.183-3.484l-6.938,31.421l-19.206-4.241l7.02-31.795
			c-1.497-0.33-3.735-0.847-6.718-1.549c-2.985-0.699-5.265-1.224-6.845-1.573l-24.938-5.507l8.904-21.965l13.838,3.056
			c4.157,0.918,7.035-0.671,8.635-4.763l11.067-50.123l1.996,0.441c-0.481-0.193-1.136-0.383-1.968-0.566l7.902-35.786
			c0.167-5.89-2.907-9.534-9.225-10.929l-10.931-2.414L79.609,386.546c40.225,33.467,89.749,50.22,139.292,50.22
			c55.812-0.007,111.645-21.252,154.122-63.737C453.235,292.827,457.734,165.15,386.548,79.599z"/>
		<path style="fill:#FFFFFF;" d="M246.637,232.859c6.318,1.395,9.392,5.039,9.225,10.929l-7.902,35.786
			c0.832,0.184,1.487,0.373,1.968,0.566l-1.996-0.441l-11.067,50.123c-1.6,4.092-4.479,5.681-8.635,4.763l-13.838-3.056
			l-8.904,21.965l24.938,5.507c1.58,0.349,3.859,0.874,6.845,1.573c2.983,0.703,5.221,1.219,6.718,1.549l-7.02,31.795l19.206,4.241
			l6.938-31.421c3.471,0.856,8.533,2.016,15.183,3.484l-6.91,31.296l19.2,4.24l7.02-31.795c6.891,1.173,13.075,1.889,18.553,2.136
			c5.481,0.248,10.848-0.068,16.1-0.959c5.251-0.888,9.819-2.431,13.703-4.625c3.885-2.191,7.38-5.3,10.495-9.321
			c3.108-4.022,5.607-8.919,7.491-14.694c3.636-11.312,3.729-20.62,0.284-27.921c-3.444-7.297-9.772-13.185-18.985-17.659
			c13.781-3.583,21.592-13.105,23.439-28.565c0.712-5.597,0.246-10.687-1.401-15.277c-1.648-4.592-4.358-8.589-8.141-11.996
			c-3.78-3.409-8.068-6.316-12.851-8.723c-4.785-2.408-10.399-4.628-16.837-6.66l6.938-31.422l-19.2-4.24l-6.745,30.549
			c-3.325-0.734-8.413-1.771-15.266-3.109l6.8-30.798l-19.203-4.24l-6.938,31.422c-2.762-0.522-6.803-1.37-12.122-2.545
			l-10.511-2.373l-17.502,17.502L246.637,232.859z M290.601,244.001H290.6l0,0H290.601L290.601,244.001
			c0.583,0.129,2.229,0.47,4.938,1.024c2.712,0.554,4.965,1.008,6.761,1.361c1.797,0.354,4.184,0.99,7.164,1.909
			c2.979,0.919,5.461,1.817,7.447,2.69c1.986,0.874,4.122,2.065,6.403,3.571c2.285,1.506,4.021,3.111,5.213,4.812
			c1.195,1.702,2.076,3.728,2.646,6.077c0.572,2.349,0.555,4.895-0.05,7.638c-0.514,2.328-1.356,4.366-2.525,6.113
			c-1.168,1.747-2.646,3.099-4.425,4.057c-1.779,0.959-3.568,1.742-5.359,2.348c-1.789,0.607-3.976,0.931-6.556,0.971
			c-2.579,0.041-4.821,0.026-6.722-0.046c-1.902-0.071-4.238-0.346-7.009-0.828s-4.869-0.856-6.29-1.127
			c-1.423-0.271-3.355-0.698-5.799-1.28c-2.444-0.583-3.872-0.921-4.288-1.013L290.601,244.001z M277.907,301.481
			c0.664,0.147,2.648,0.542,5.95,1.183c3.303,0.641,5.991,1.194,8.069,1.653s4.92,1.215,8.523,2.274
			c3.601,1.055,6.594,2.106,8.98,3.156c2.382,1.05,4.933,2.419,7.657,4.111c2.721,1.69,4.832,3.485,6.331,5.385
			c1.498,1.903,2.613,4.151,3.346,6.754c0.736,2.603,0.771,5.401,0.11,8.394c-0.515,2.33-1.377,4.359-2.59,6.098
			c-1.214,1.738-2.598,3.177-4.156,4.316c-1.56,1.135-3.478,2.02-5.752,2.65c-2.274,0.633-4.443,1.068-6.5,1.311
			c-2.06,0.245-4.496,0.315-7.305,0.219c-2.815-0.098-5.26-0.27-7.345-0.511c-2.082-0.241-4.548-0.612-7.404-1.111
			c-2.852-0.502-5.07-0.925-6.649-1.273c-1.58-0.349-3.57-0.812-5.972-1.385c-2.403-0.571-3.935-0.932-4.601-1.079L277.907,301.481z
			"/>
		<polygon style="fill:#FFFFFF;" points="290.6,244 290.599,244.001 290.601,244.001 290.601,244.001 		"/>
		<path style="fill:#F7931A;" d="M182.693,189.755c0.881-1.717,1.472-3.625,1.776-5.723s0.163-4.299-0.423-6.612
			c-0.753-2.971-2.041-5.456-3.867-7.451c-1.823-1.998-3.829-3.506-6.022-4.533c-2.193-1.025-4.885-1.681-8.075-1.97
			c-3.193-0.289-6.087-0.367-8.687-0.236c-2.603,0.133-5.75,0.537-9.441,1.211c-3.695,0.672-6.574,1.272-8.637,1.794
			c-2.063,0.523-4.713,1.236-7.953,2.146c-3.239,0.911-5.189,1.448-5.848,1.615l10.606,41.838c0.661-0.167,2.191-0.533,4.595-1.102
			c2.403-0.566,4.39-1.046,5.958-1.443c1.567-0.397,3.739-1.015,6.513-1.847c2.775-0.836,5.146-1.612,7.114-2.331
			c1.971-0.721,4.233-1.665,6.792-2.841c2.553-1.176,4.698-2.331,6.429-3.475c1.729-1.141,3.471-2.503,5.219-4.09
			C180.493,193.122,181.809,191.47,182.693,189.755z"/>
		<path style="fill:#F7931A;" d="M136.856,146.638c2.692-0.813,4.903-1.616,6.635-2.407c1.731-0.789,3.74-1.782,6.027-2.977
			c2.287-1.194,4.096-2.466,5.422-3.811c1.328-1.346,2.575-2.848,3.734-4.504c1.159-1.655,1.873-3.527,2.133-5.612
			c0.26-2.087,0.097-4.286-0.488-6.596c-0.69-2.723-1.818-5.005-3.384-6.848c-1.563-1.843-3.261-3.258-5.092-4.243
			c-1.829-0.985-4.101-1.639-6.819-1.959c-2.714-0.322-5.158-0.427-7.324-0.316c-2.167,0.111-4.788,0.423-7.862,0.939
			c-3.076,0.516-5.495,1.02-7.259,1.51c-1.763,0.491-3.98,1.097-6.652,1.819c-2.67,0.721-4.294,1.155-4.872,1.302l9.632,37.999
			c0.414-0.105,1.841-0.443,4.286-1.02c2.445-0.577,4.363-1.063,5.756-1.459C132.121,148.059,134.164,147.452,136.856,146.638z"/>
		<path style="fill:#F7931A;" d="M141.593,234.951l6.968,27.488l12.82-12.82l-4.657-18.37
			C150.122,232.921,145.079,234.157,141.593,234.951z"/>
		<path style="fill:#F7931A;" d="M177.563,233.435l12.668-12.668c-4.311,1.781-9.163,3.498-14.573,5.153L177.563,233.435z"/>
		<path style="fill:#F7931A;" d="M130.434,270.975l-8.001-31.563c-1.486,0.377-3.718,0.92-6.699,1.632
			c-2.981,0.716-5.254,1.27-6.822,1.668l-24.755,6.276l-1.905-23.625l13.737-3.482c4.126-1.046,5.985-3.758,5.578-8.133
			l-12.613-49.757l1.981-0.502c-0.516,0.043-1.187,0.168-2.013,0.377l-9.005-35.525c-2.495-5.338-6.878-7.214-13.149-5.624
			L53.03,126.2l-5.146-20.3l26.271-6.527c5.281-1.339,9.271-2.395,11.974-3.168l-7.907-31.192l19.062-4.832l7.75,30.573
			c6.724-1.88,11.736-3.239,15.036-4.075l-7.687-30.325l19.06-4.832l7.907,31.192c6.665-1.076,12.678-1.612,18.035-1.608
			c5.355,0.004,10.492,0.676,15.399,2.025c4.911,1.345,9.126,3.701,12.66,7.064c3.532,3.363,6.234,7.702,8.111,13.022
			c5.291,14.644,2.586,26.659-8.12,36.048c10.241-0.138,18.539,2.282,24.892,7.256c6.355,4.977,10.451,13.336,12.28,25.076
			c0.91,6.006,0.875,11.504-0.096,16.493c-0.034,0.171-0.075,0.336-0.11,0.506L358.976,52.018
			C273.427-19.211,145.72-14.726,65.505,65.503C23.021,107.981,1.776,163.815,1.769,219.629c0,49.564,16.766,99.11,50.259,139.344
			l91.252-91.254L130.434,270.975z"/>
		<polygon style="fill:#FFFFFF;" points="111.053,112.936 111.053,112.936 111.054,112.936 111.054,112.935 		"/>
		<path style="fill:#FFFFFF;" d="M175.658,225.92c5.41-1.655,10.262-3.372,14.573-5.153l32.171-32.172
			c0.035-0.17,0.077-0.335,0.11-0.506c0.971-4.989,1.006-10.487,0.096-16.493c-1.829-11.74-5.926-20.099-12.28-25.076
			c-6.353-4.974-14.651-7.394-24.892-7.256c10.706-9.389,13.411-21.404,8.12-36.048c-1.877-5.321-4.578-9.66-8.111-13.022
			c-3.534-3.363-7.75-5.719-12.66-7.064c-4.908-1.349-10.044-2.022-15.399-2.025c-5.357-0.003-11.37,0.533-18.035,1.608
			l-7.907-31.192l-19.06,4.832l7.687,30.325c-3.3,0.837-8.313,2.195-15.036,4.075l-7.75-30.573l-19.062,4.832l7.907,31.192
			c-2.703,0.773-6.694,1.83-11.974,3.168L47.884,105.9l5.146,20.3l13.738-3.483c6.271-1.59,10.655,0.286,13.149,5.624l9.005,35.525
			c0.826-0.209,1.496-0.334,2.013-0.377l-1.981,0.502l12.613,49.757c0.407,4.375-1.452,7.087-5.578,8.133l-13.737,3.482
			l1.905,23.625l24.755-6.276c1.568-0.398,3.841-0.952,6.822-1.668c2.981-0.711,5.213-1.255,6.699-1.632l8.001,31.563l12.846-3.256
			l5.281-5.281l-6.968-27.488c3.486-0.794,8.53-2.029,15.131-3.703l4.657,18.37l16.183-16.183L175.658,225.92z M120.687,150.935
			l-9.632-37.999h-0.001l0,0h0.001l0,0c0.579-0.147,2.203-0.581,4.872-1.302c2.672-0.723,4.889-1.328,6.652-1.819
			c1.764-0.491,4.183-0.994,7.259-1.51c3.075-0.516,5.695-0.828,7.862-0.939c2.167-0.111,4.611-0.006,7.324,0.316
			c2.718,0.32,4.99,0.974,6.819,1.959c1.832,0.984,3.529,2.399,5.092,4.243c1.566,1.842,2.694,4.125,3.384,6.848
			c0.586,2.311,0.749,4.509,0.488,6.596c-0.259,2.085-0.973,3.957-2.133,5.612c-1.16,1.656-2.406,3.158-3.734,4.504
			c-1.326,1.345-3.135,2.617-5.422,3.811c-2.286,1.195-4.296,2.187-6.027,2.977c-1.732,0.791-3.943,1.593-6.635,2.407
			c-2.693,0.814-4.735,1.421-6.127,1.817c-1.393,0.396-3.311,0.883-5.756,1.459C122.527,150.491,121.1,150.83,120.687,150.935z
			 M167.095,202.271c-2.56,1.176-4.821,2.121-6.792,2.841c-1.968,0.719-4.339,1.495-7.114,2.331
			c-2.774,0.832-4.946,1.45-6.513,1.847c-1.568,0.397-3.555,0.877-5.958,1.443c-2.404,0.568-3.935,0.934-4.595,1.102l-10.606-41.838
			c0.659-0.167,2.609-0.704,5.848-1.615c3.239-0.91,5.889-1.623,7.953-2.146c2.063-0.523,4.941-1.123,8.637-1.794
			c3.691-0.674,6.838-1.078,9.441-1.211c2.6-0.131,5.494-0.054,8.687,0.236c3.19,0.289,5.882,0.945,8.075,1.97
			c2.193,1.028,4.199,2.536,6.022,4.533c1.826,1.995,3.114,4.48,3.867,7.451c0.586,2.313,0.727,4.513,0.423,6.612
			c-0.305,2.098-0.895,4.005-1.776,5.723c-0.884,1.714-2.2,3.367-3.95,4.95c-1.748,1.587-3.49,2.949-5.219,4.09
			C171.794,199.939,169.648,201.094,167.095,202.271z"/>
		<path style="fill:#FFFFFF;" d="M52.028,358.973l-0.248,0.248c2.054,2.421,4.158,4.8,6.315,7.13l6.671,6.671l0.01-0.01
			C60.284,368.478,56.039,363.791,52.028,358.973z"/>
		<path style="fill:#FFFFFF;" d="M65.512,373.768l4.476,4.476c3.104,2.877,6.286,5.672,9.555,8.369l0.067-0.067
			c-4.835-4.023-9.538-8.282-14.088-12.787L65.512,373.768z"/>
		<path style="fill:#FFFFFF;" d="M64.766,373.022l0.746,0.746c-0.125-0.125-0.244-0.253-0.368-0.378
			C65.018,373.266,64.89,373.147,64.766,373.022z"/>
		<path style="fill:#FFFFFF;" d="M373.023,64.757c0.125,0.125,0.244,0.253,0.368,0.378c0.125,0.124,0.253,0.244,0.378,0.368
			l-0.009,0.009c4.506,4.549,8.766,9.252,12.788,14.087l0.248-0.248c-8.418-9.927-17.705-19.102-27.755-27.398l-0.065,0.065
			c4.818,4.011,9.504,8.257,14.038,12.749L373.023,64.757z"/>
		<path style="fill:#FFFFFF;" d="M232.798,229.803l4.515-20.449l15.894,3.589L386.547,79.6c-4.023-4.835-8.282-9.537-12.788-14.087
			l-9.305,9.305L183.282,255.995l-2.121,2.121L74.839,364.44l0,0l-9.318,9.318c4.55,4.506,9.253,8.765,14.088,12.787
			l156.097-156.101L232.798,229.803z"/>
		<path style="fill:#FFFFFF;" d="M373.023,64.757l-0.009,0.009c0.125,0.124,0.253,0.244,0.378,0.368
			C373.267,65.01,373.148,64.882,373.023,64.757z"/>
		<path style="fill:#FFFFFF;" d="M64.775,373.012l-0.01,0.01c0.125,0.125,0.253,0.244,0.378,0.368
			C65.019,373.265,64.899,373.138,64.775,373.012z"/>
		<polygon style="fill:#FFFFFF;" points="232.798,229.803 235.706,230.445 253.208,212.943 237.313,209.354 		"/>
		<path style="fill:#FFFFFF;" d="M373.391,65.135c0.124,0.125,0.244,0.253,0.368,0.378l0.009-0.009
			C373.644,65.378,373.516,65.259,373.391,65.135z"/>
		<path style="fill:#FFFFFF;" d="M74.093,363.694L74.093,363.694l105.069-105.072l-14.564,3.692l-3.218-12.696l-12.82,12.82
			l0.939,3.704l-6.219,1.577l-91.252,91.254c4.011,4.818,8.256,9.505,12.747,14.04L74.093,363.694z"/>
		<path style="fill:#FFFFFF;" d="M65.143,373.39c0.124,0.125,0.243,0.253,0.368,0.378l0.01-0.01
			C65.396,373.634,65.268,373.514,65.143,373.39z"/>
		<path style="fill:#FFFFFF;" d="M217.319,201.13c-2.486,3.704-5.875,7.134-10.168,10.284c-4.293,3.153-8.947,5.846-13.956,8.085
			c-0.954,0.427-1.949,0.849-2.964,1.268l-12.668,12.668l5.417,21.37L363.709,74.072l9.305-9.305
			c-4.534-4.491-9.221-8.737-14.038-12.749L222.402,188.595C221.408,193.372,219.721,197.555,217.319,201.13z"/>
		<path style="fill:#FFFFFF;" d="M373.014,64.767l-9.305,9.305L182.98,254.805l0.302,1.19L364.455,74.818l9.305-9.305
			c-0.124-0.125-0.244-0.253-0.368-0.378C373.267,65.011,373.139,64.891,373.014,64.767z"/>
		<path style="fill:#FFFFFF;" d="M74.093,363.694L74.093,363.694l-9.318,9.318c0.124,0.125,0.244,0.253,0.368,0.378
			c0.125,0.124,0.253,0.244,0.378,0.368l9.318-9.318l0,0l106.322-106.325l-1.999,0.507L74.093,363.694z"/>
		<path style="fill:#FFFFFF;" d="M193.195,219.499c5.009-2.239,9.663-4.932,13.956-8.085c4.293-3.151,7.682-6.58,10.168-10.284
			c2.402-3.575,4.089-7.758,5.083-12.535l-32.171,32.172C191.246,220.348,192.241,219.926,193.195,219.499z"/>
		<polygon style="fill:#FFFFFF;" points="177.563,233.435 161.38,249.618 164.599,262.315 179.162,258.623 182.98,254.805 		"/>
		<polygon style="fill:#FFFFFF;" points="149.499,266.142 148.561,262.438 143.28,267.719 		"/>
		<polygon style="fill:#FFFFFF;" points="179.162,258.623 181.161,258.116 183.282,255.995 182.98,254.805 		"/>
	</g>
</g>
</svg>
