<?xml version="1.0" encoding="iso-8859-1"?>
<!-- Generator: Adobe Illustrator 22.0.1, SVG Export Plug-In . SVG Version: 6.00 Build 0)  -->
<svg version="1.1" id="Layer_1" xmlns="http://www.w3.org/2000/svg" xmlns:xlink="http://www.w3.org/1999/xlink" x="0px" y="0px"
	 viewBox="0 0 438.53 438.53" style="enable-background:new 0 0 438.53 438.53;" xml:space="preserve">
<g id="_x32_40">
	<g>
		<path style="fill:#F7931A;" d="M196.692,184.768c-1.493-1.893-3.596-3.681-6.306-5.364c-2.713-1.686-5.253-3.049-7.627-4.095
			c-2.376-1.046-5.358-2.093-8.945-3.144c-3.589-1.055-6.42-1.808-8.489-2.265c-2.07-0.457-4.747-1.008-8.038-1.647
			c-3.29-0.638-5.265-1.032-5.927-1.178l-9.269,41.981c0.663,0.146,2.189,0.505,4.583,1.074c2.392,0.571,4.375,1.032,5.948,1.38
			c1.573,0.347,3.782,0.769,6.623,1.268c2.844,0.497,5.301,0.866,7.374,1.106c2.077,0.24,4.512,0.411,7.316,0.509
			c2.798,0.095,5.224,0.026,7.276-0.218c2.049-0.242,4.209-0.676,6.474-1.306c2.265-0.627,4.175-1.509,5.729-2.64
			c1.552-1.135,2.931-2.568,4.14-4.299c1.209-1.732,2.067-3.753,2.58-6.074c0.658-2.982,0.623-5.769-0.11-8.361
			C199.295,188.903,198.184,186.663,196.692,184.768z"/>
		<path style="fill:#F7931A;" d="M151.746,235.548c-6.624-1.463-11.665-2.618-15.123-3.471l-6.911,31.298l-19.13-4.224l6.993-31.671
			c-1.491-0.329-3.721-0.843-6.692-1.543c-2.974-0.696-5.245-1.219-6.818-1.567l-24.84-5.485l8.869-21.879l13.784,3.044
			c4.14,0.914,7.008-0.669,8.602-4.744l11.024-49.927l1.988,0.439c-0.479-0.192-1.131-0.381-1.96-0.564l7.871-35.646
			c0.167-5.867-2.896-9.497-9.189-10.886l-13.785-3.044l4.497-20.369l26.301,5.939c5.299,1.17,9.323,2.014,12.075,2.535
			l6.911-31.299l19.127,4.223l-6.774,30.678c6.825,1.333,11.894,2.366,15.206,3.097l6.719-30.429l19.124,4.223l-6.911,31.299
			c6.413,2.023,12.005,4.235,16.771,6.634c4.765,2.398,9.036,5.293,12.801,8.689c3.769,3.393,6.468,7.375,8.109,11.949
			c1.64,4.573,2.105,9.643,1.396,15.218c-1.839,15.4-9.619,24.884-23.347,28.453c6.309,3.065,11.261,6.794,14.853,11.188
			l125.68-125.684C273.418-19.206,145.719-14.731,65.505,65.498C23.021,107.977,1.776,163.812,1.769,219.626
			c0,49.564,16.775,99.103,50.268,139.337l92.992-92.996L151.746,235.548z"/>
		<path style="fill:#F7931A;" d="M170.771,240.225l0.847-0.848c-0.214-0.036-0.422-0.068-0.637-0.105L170.771,240.225z"/>
		<path style="fill:#F7931A;" d="M201.781,125.128c-1.187-1.695-2.917-3.293-5.193-4.793c-2.271-1.5-4.4-2.687-6.378-3.557
			c-1.978-0.87-4.45-1.764-7.417-2.68c-2.968-0.916-5.347-1.55-7.136-1.902c-1.789-0.351-4.033-0.804-6.734-1.356
			c-2.699-0.552-4.338-0.892-4.919-1.02l-8.419,38.129c0.415,0.092,1.837,0.428,4.271,1.009c2.434,0.58,4.359,1.005,5.776,1.275
			c1.416,0.27,3.505,0.643,6.266,1.123c2.76,0.48,5.087,0.754,6.982,0.825c1.893,0.071,4.126,0.087,6.695,0.046
			c2.57-0.04,4.748-0.363,6.53-0.967c1.784-0.604,3.565-1.384,5.338-2.339c1.772-0.955,3.245-2.302,4.408-4.042
			c1.165-1.741,2.003-3.771,2.515-6.09c0.603-2.732,0.62-5.268,0.05-7.608C203.85,128.842,202.971,126.824,201.781,125.128z"/>
		<path style="fill:#FFFFFF;" d="M218.435,166.517c13.727-3.569,21.507-13.053,23.347-28.453c0.709-5.575,0.245-10.645-1.396-15.218
			c-1.642-4.574-4.341-8.556-8.109-11.949c-3.765-3.396-8.036-6.291-12.801-8.689c-4.766-2.398-10.358-4.61-16.771-6.634
			l6.911-31.299l-19.124-4.223l-6.719,30.429c-3.312-0.731-8.38-1.764-15.206-3.097l6.774-30.678l-19.127-4.223l-6.911,31.299
			c-2.752-0.52-6.776-1.365-12.075-2.535l-26.301-5.939l-4.497,20.369l13.785,3.044c6.293,1.39,9.355,5.019,9.189,10.886
			l-7.871,35.646c0.829,0.183,1.481,0.372,1.96,0.564l-1.988-0.439l-11.024,49.927c-1.594,4.076-4.461,5.658-8.602,4.744
			l-13.784-3.044l-8.869,21.879l24.84,5.485c1.573,0.347,3.844,0.871,6.818,1.567c2.971,0.7,5.201,1.214,6.692,1.543l-6.993,31.671
			l19.13,4.224l6.911-31.298c3.458,0.853,8.499,2.008,15.123,3.471l-6.717,30.419l25.741-25.742l0.21-0.952
			c0.215,0.037,0.423,0.069,0.637,0.105l61.67-61.672C229.695,173.311,224.744,169.581,218.435,166.517z M200.134,199.857
			c-0.513,2.321-1.371,4.342-2.58,6.074c-1.209,1.731-2.588,3.165-4.14,4.299c-1.553,1.131-3.464,2.013-5.729,2.64
			c-2.265,0.63-4.425,1.064-6.474,1.306c-2.052,0.244-4.478,0.313-7.276,0.218c-2.804-0.098-5.24-0.269-7.316-0.509
			c-2.073-0.24-4.531-0.61-7.374-1.106c-2.841-0.5-5.05-0.921-6.623-1.268s-3.556-0.809-5.948-1.38
			c-2.394-0.569-3.92-0.928-4.583-1.074l9.269-41.981c0.662,0.146,2.637,0.54,5.927,1.178c3.29,0.639,5.967,1.189,8.038,1.647
			c2.07,0.457,4.9,1.21,8.489,2.265c3.586,1.051,6.568,2.098,8.945,3.144c2.373,1.046,4.914,2.409,7.627,4.095
			c2.71,1.683,4.813,3.472,6.306,5.364c1.492,1.895,2.603,4.135,3.333,6.728C200.757,194.089,200.793,196.876,200.134,199.857z
			 M204.366,138.79c-0.512,2.319-1.35,4.348-2.515,6.09c-1.163,1.74-2.636,3.087-4.408,4.042s-3.554,1.735-5.338,2.339
			c-1.782,0.604-3.961,0.927-6.53,0.967c-2.569,0.041-4.802,0.026-6.695-0.046c-1.895-0.071-4.222-0.345-6.982-0.825
			s-4.85-0.853-6.266-1.123c-1.417-0.27-3.342-0.695-5.776-1.275c-2.435-0.58-3.856-0.917-4.271-1.009l8.419-38.129h-0.001l0,0
			h0.001l0,0c0.581,0.128,2.22,0.468,4.919,1.02c2.702,0.552,4.945,1.004,6.734,1.356c1.789,0.352,4.168,0.986,7.136,1.902
			c2.967,0.916,5.439,1.81,7.417,2.68s4.106,2.057,6.378,3.557c2.276,1.5,4.006,3.099,5.193,4.793
			c1.19,1.695,2.068,3.714,2.635,6.053C204.987,133.522,204.97,136.058,204.366,138.79z"/>
		<polygon style="fill:#FFFFFF;" points="164.003,109.819 164.003,109.82 164.004,109.82 164.004,109.82 		"/>
		<path style="fill:#0052B4;" d="M386.548,79.594l-53.462,53.464l14.827,14.827l-25.597-4.056l-7.975,7.975l-9.073,17.81
			l-1.195-7.542L158.845,307.306l7.541,1.195l-17.812,9.077l-7.969,7.97l4.054,25.599l-14.826-14.827L79.61,386.545
			c40.225,33.468,89.749,50.221,139.292,50.221c55.812-0.007,111.645-21.253,154.122-63.738
			C453.235,292.825,457.734,165.146,386.548,79.594z M228.046,365.863l-9.141,28.134l-9.143-28.134h-29.579l23.932-17.387
			l-9.143-28.132l23.932,17.386l23.931-17.386l-9.142,28.132l23.931,17.387H228.046z M340.426,343.66l-26.357-13.429l-20.917,20.917
			l4.629-29.218l-26.355-13.429l29.215-4.628l4.628-29.217l13.429,26.358l29.215-4.63l-20.916,20.919L340.426,343.66z
			 M362.627,231.277v29.581l-17.387-23.933l-28.131,9.142l17.387-23.932l-17.387-23.932l28.132,9.142l17.386-23.933v29.582
			l28.133,9.141L362.627,231.277z"/>
		<polygon style="fill:#FFDA44;" points="144.658,351.147 140.604,325.547 129.832,336.32 		"/>
		<polygon style="fill:#FFDA44;" points="166.386,308.501 158.845,307.306 148.574,317.578 		"/>
		<polygon style="fill:#FFDA44;" points="242.837,320.344 218.905,337.73 194.973,320.344 204.116,348.476 180.184,365.863 
			209.763,365.863 218.905,393.997 228.046,365.863 257.626,365.863 233.695,348.476 		"/>
		<polygon style="fill:#FFDA44;" points="318.696,301.014 305.268,274.656 300.64,303.873 271.425,308.501 297.78,321.93 
			293.152,351.148 314.069,330.231 340.426,343.66 326.995,317.303 347.911,296.384 		"/>
		<polygon style="fill:#FFDA44;" points="362.627,212.994 362.627,183.412 345.241,207.345 317.109,198.203 334.496,222.135 
			317.109,246.067 345.24,236.925 362.627,260.858 362.627,231.277 390.76,222.135 		"/>
		<polygon style="fill:#FFDA44;" points="305.268,169.615 314.34,151.805 304.073,162.072 		"/>
		<polygon style="fill:#FFDA44;" points="347.912,147.886 333.086,133.059 322.315,143.83 		"/>
		<path style="fill:#FFFFFF;" d="M65.512,373.767l4.476,4.476c3.104,2.877,6.286,5.672,9.555,8.369l0.067-0.067
			c-4.835-4.023-9.538-8.282-14.088-12.788L65.512,373.767z"/>
		<path style="fill:#FFFFFF;" d="M64.766,373.021l0.746,0.746c-0.111-0.111-0.215-0.225-0.325-0.336
			C65.047,373.293,64.904,373.16,64.766,373.021z"/>
		<path style="fill:#FFFFFF;" d="M56.585,364.273c-1.553-1.749-3.061-3.524-4.548-5.31l-0.257,0.257
			c2.054,2.421,4.158,4.8,6.315,7.13l6.671,6.671l0.012-0.012C61.953,370.154,59.221,367.242,56.585,364.273z"/>
		<path style="fill:#FFFFFF;" d="M373.011,64.764l0.012-0.012c0.139,0.139,0.271,0.281,0.41,0.42
			c0.111,0.11,0.225,0.215,0.336,0.326l-0.009,0.009c4.506,4.549,8.766,9.252,12.788,14.087l0.248-0.248
			c-8.418-9.927-17.705-19.102-27.755-27.399l-0.074,0.074c1.794,1.493,3.576,3.008,5.331,4.568
			C367.259,59.22,370.164,61.946,373.011,64.764z"/>
		<path style="fill:#FFFFFF;" d="M364.298,56.589c2.439,3.19,4.788,6.47,7.07,9.818l1.643-1.643
			C370.164,61.946,367.259,59.22,364.298,56.589z"/>
		<path style="fill:#FFFFFF;" d="M373.769,65.498c-0.111-0.111-0.225-0.215-0.336-0.326c0.11,0.111,0.217,0.224,0.327,0.335
			L373.769,65.498z"/>
		<path style="fill:#FFFFFF;" d="M65.186,373.431c0.11,0.111,0.215,0.225,0.325,0.336l0.01-0.01
			C65.41,373.648,65.297,373.541,65.186,373.431z"/>
		<path style="fill:#FFFFFF;" d="M56.585,364.273c2.636,2.969,5.368,5.881,8.193,8.736l1.648-1.649
			C63.071,369.073,59.783,366.718,56.585,364.273z"/>
		<path style="fill:#FFFFFF;" d="M66.426,371.361l7.667-7.667l0,0l26.675-26.676l35.957-35.958l59.662-59.664
			c-2.288,0.102-4.595,0.111-6.926,0.006c-5.286-0.239-11.237-0.919-17.843-2.023l-0.847,0.848l-6.783,30.719l-19.125-4.223
			l0.166-0.753l-92.992,92.996c1.487,1.786,2.995,3.561,4.548,5.31C59.783,366.718,63.071,369.073,66.426,371.361z"/>
		<path style="fill:#FFFFFF;" d="M237.345,184.107c1.895,4.016,2.696,8.653,2.439,13.889l58.042-58.045l35.954-35.955l29.928-29.929
			l7.659-7.659c-2.282-3.347-4.631-6.627-7.07-9.818c-1.756-1.56-3.538-3.074-5.331-4.568L233.288,177.705
			C234.921,179.702,236.273,181.836,237.345,184.107z"/>
		<polygon style="fill:#FFFFFF;" points="144.863,266.721 163.988,270.944 170.771,240.225 145.029,265.967 		"/>
		<path style="fill:#FFFFFF;" d="M237.345,184.107c-1.072-2.271-2.424-4.405-4.057-6.402l-61.67,61.672
			c6.606,1.104,12.557,1.784,17.843,2.023c2.33,0.105,4.637,0.097,6.926-0.006l43.397-43.399
			C240.041,192.76,239.24,188.123,237.345,184.107z"/>
		<path style="fill:#FFFFFF;" d="M373.023,64.752l-0.012,0.012c0.139,0.138,0.282,0.27,0.422,0.408
			C373.295,65.033,373.162,64.891,373.023,64.752z"/>
		<path style="fill:#FFFFFF;" d="M123.742,330.23l-26.359,13.43l1.835-3.601l-24.379,24.38l0,0l-7.533,7.534l-1.785,1.785
			c4.55,4.506,9.253,8.765,14.088,12.788l50.223-50.225L123.742,330.23z"/>
		<path style="fill:#FFFFFF;" d="M64.778,373.009l-0.012,0.012c0.139,0.139,0.281,0.272,0.42,0.41
			C65.048,373.292,64.916,373.149,64.778,373.009z"/>
		<polygon style="fill:#FFFFFF;" points="314.34,151.805 322.315,143.83 318.695,143.256 		"/>
		<polygon style="fill:#FFFFFF;" points="140.604,325.547 148.574,317.578 140.032,321.931 		"/>
		<polygon style="fill:#FFFFFF;" points="299.114,140.156 239.686,199.586 197.96,241.314 136.929,302.347 137.171,303.873 
			158.845,307.306 304.073,162.072 300.64,140.397 		"/>
		<path style="fill:#FFFFFF;" d="M371.981,67.287l-7.526,7.526l-27.632,27.633l3.604-1.836l-13.43,26.359l6.089,6.089l53.462-53.464
			c-4.023-4.835-8.282-9.537-12.788-14.087L371.981,67.287z"/>
		<path style="fill:#FFFFFF;" d="M373.76,65.508c-0.11-0.111-0.216-0.224-0.327-0.335c-0.139-0.138-0.282-0.27-0.422-0.408
			l-1.643,1.643c0.202,0.296,0.412,0.583,0.612,0.88L373.76,65.508z"/>
		<path style="fill:#FFFFFF;" d="M64.778,373.009c0.138,0.14,0.27,0.283,0.409,0.422c0.111,0.11,0.224,0.217,0.335,0.326
			l1.785-1.785c-0.297-0.2-0.584-0.411-0.88-0.612L64.778,373.009z"/>
		<path style="fill:#FFFFFF;" d="M74.093,363.693L74.093,363.693l-7.667,7.667c0.296,0.202,0.583,0.412,0.88,0.612l7.533-7.534l0,0
			l24.379-24.38l1.55-3.042L74.093,363.693z"/>
		<path style="fill:#FFFFFF;" d="M364.455,74.813l7.526-7.526c-0.2-0.297-0.411-0.584-0.612-0.88l-7.659,7.659l-29.928,29.929
			l3.042-1.55L364.455,74.813z"/>
		<path style="fill:#FFFFFF;" d="M299.114,140.156l-1.288-0.204l-58.042,58.045c-0.026,0.526-0.05,1.051-0.098,1.59L299.114,140.156
			z"/>
		<path style="fill:#FFFFFF;" d="M197.96,241.314c-0.523,0.034-1.048,0.057-1.573,0.081l-59.662,59.664l0.204,1.288L197.96,241.314z
			"/>
		<path style="fill:#FFFFFF;" d="M239.686,199.586c0.047-0.538,0.072-1.064,0.098-1.59l-43.397,43.399
			c0.525-0.023,1.05-0.047,1.573-0.081L239.686,199.586z"/>
		<polygon style="fill:#FFFFFF;" points="136.929,302.347 99.218,340.059 97.384,343.66 123.742,330.23 129.832,336.32 
			140.604,325.547 140.032,321.931 148.574,317.578 158.845,307.306 137.171,303.873 		"/>
		<polygon style="fill:#FFFFFF;" points="136.725,301.059 100.768,337.017 99.218,340.059 136.929,302.347 		"/>
		<polygon style="fill:#FFFFFF;" points="340.426,100.61 336.823,102.446 299.114,140.156 300.64,140.397 304.073,162.072 
			314.34,151.805 318.695,143.256 322.315,143.83 333.086,133.059 326.996,126.969 		"/>
		<polygon style="fill:#FFFFFF;" points="336.823,102.446 333.781,103.996 297.827,139.952 299.114,140.156 		"/>
	</g>
</g>
</svg>
