<?xml version="1.0" encoding="iso-8859-1"?>
<!-- Generator: Adobe Illustrator 22.0.1, SVG Export Plug-In . SVG Version: 6.00 Build 0)  -->
<svg version="1.1" id="Layer_1" xmlns="http://www.w3.org/2000/svg" xmlns:xlink="http://www.w3.org/1999/xlink" x="0px" y="0px"
	 viewBox="0 0 438.53 438.53" style="enable-background:new 0 0 438.53 438.53;" xml:space="preserve">
<g id="_x32_49">
	<path style="fill:#FFFFFF;" d="M407.603,110.086c-19.45-33.321-45.833-59.704-79.155-79.153
		c-33.328-19.448-69.711-29.17-109.176-29.17c-39.461,0-75.854,9.722-109.177,29.17c-33.324,19.446-59.707,45.829-79.157,79.153
		c-19.451,33.326-29.173,69.72-29.173,109.178c0,39.46,9.725,75.847,29.17,109.176c19.449,33.321,45.832,59.704,79.156,79.155
		c33.326,19.447,69.717,29.17,109.177,29.17s75.854-9.723,109.179-29.17c33.322-19.444,59.704-45.834,79.152-79.155
		c19.445-33.325,29.166-69.718,29.166-109.176C436.766,179.802,427.044,143.408,407.603,110.086z"/>
	<g>
		<g>
			<path style="fill:#00206B;" d="M199.602,97.829c37.644-6.305,78.029,6.036,105.096,33.058
				c24.032,22.683,38.059,55.666,37.362,88.724c0.465,32.878-13.625,65.601-37.544,88.105
				c-26.035,25.883-64.354,38.246-100.658,33.472c-34.208-4.114-66.238-23.562-85.667-52.026
				c-21.493-30.495-27.427-71.072-16.262-106.607c13.081-43.717,52.561-77.912,97.666-84.723 M207.104,105.316
				c0.026,10.762,0.035,21.524,0.026,32.285c5.366,0,10.734,0.009,16.102,0.026c0.026-11.042,0.052-22.084,0-33.11
				c-5.367,0.18-10.76,0.433-16.127,0.801 M245.834,138.119c14.144,1.903,29.345,4.068,40.621,13.62
				c17.21,15.458,14.991,47.923-6.09,59.123c12.618,2.942,25.115,11.356,28.228,24.619c4.051,17.394,0.825,38.246-13.133,50.504
				c-13.83,11.382-32.565,12.878-49.671,14.506c0.078,10.065,0.052,20.135,0.026,30.22c35.996-8.801,67.063-35.613,80.274-70.297
				c12.54-31.999,9.574-69.652-8.128-99.125c-15.636-26.58-42.219-46.116-72.068-53.6c-0.078,10.141-0.078,20.284-0.052,30.425
				 M138.396,137.681c15.588,0.749,31.196,0.593,46.806,0.567c0-9.496,0.026-18.994-0.052-28.49
				c-17.47,5.677-33.028,15.846-46.765,27.929 M136.371,138.337c-4.49,8.541-11.637,15.303-16.179,23.816
				c-18.347,31.253-20.41,71.33-5.11,104.208c13.207,29.471,39.404,52.394,70.081,62.271c0.052-9.472,0.026-18.968,0.026-28.438
				c-15.662-0.156-31.35,0.414-46.982-0.433c0.18-8.723,2.219-17.264,5.196-25.472c7.664-0.156,15.662,1.186,23.069-1.316
				c4.33-3.639,3.096-9.652,3.328-14.631c-0.232-28.464,0.104-56.93-0.156-85.394c0.284-4.594-2.598-9.548-7.361-10.451
				c-7.87-1.574-15.946-0.955-23.894-1.007c-0.929-6.4-1.033-12.878-1.134-19.356l2.734,0.955c-1.186-1.574-2.399-3.174-3.613-4.748
				 M207.781,163.404v41.963c14.01-0.258,29.544,1.299,41.801-6.839c10.176-6.658,9.526-23.536-0.981-29.523
				C236.345,161.729,221.378,163.792,207.781,163.404 M207.781,227.947v46.549c17.288-1.394,36.691,1.516,51.745-8.929
				c10.76-7.145,9.47-24.827-1.626-31.019c-15.069-9.007-33.389-6.142-50.11-6.606 M207.141,300.82
				c0,10.762-0.017,21.531-0.052,32.309c5.599,0.362,11.198,0.593,16.799,0.749c0.052-11.02,0.026-22.038,0.026-33.058H207.141z"/>
		</g>
		<path style="fill:#EBA809;" d="M195.627,23.791c37.932-4.077,77.204,1.704,111.284,19.2
			c43.84,21.497,78.905,60.156,96.169,105.808c17.624,45.73,17.236,98.04-1.007,143.543
			c-27.765,71.717-101.045,123.304-178.197,123.408c-45.31,1.652-90.904-13.601-126.385-41.786
			c-37.854-29.419-64.018-73.395-72.096-120.648c-8.249-46.813,0.989-96.544,26.02-137.009
			C81.99,65.572,136.787,30.5,195.627,23.791 M189.021,87.329c-30.835,6.941-59.011,25.16-77.925,50.502
			c-20.858,27.459-30.421,63.15-26.165,97.345c3.999,36.589,23.997,71.098,53.721,92.775c27.817,20.904,63.967,30.094,98.412,25.368
			c42.55-5.196,81.668-32.285,101.511-70.271c14.863-27.098,18.94-59.322,13.495-89.575c-6.941-36.672-29.854-69.988-61.721-89.447
			C260.496,85.463,223.264,79.509,189.021,87.329z"/>
	</g>
</g>
</svg>
