<?xml version="1.0" encoding="iso-8859-1"?>
<!-- Generator: Adobe Illustrator 22.0.1, SVG Export Plug-In . SVG Version: 6.00 Build 0)  -->
<svg version="1.1" id="Layer_1" xmlns="http://www.w3.org/2000/svg" xmlns:xlink="http://www.w3.org/1999/xlink" x="0px" y="0px"
	 viewBox="0 0 438.53 438.53" style="enable-background:new 0 0 438.53 438.53;" xml:space="preserve">
<g id="_x32_50">
	<g>
		<path style="fill:#548D1D;" d="M208.319,225.538l-12.591,50.469c15.549,3.865,63.469,19.249,70.573-9.218l0.008-0.004
			C273.694,237.097,223.86,229.416,208.319,225.538z"/>
		<path style="fill:#548D1D;" d="M225.498,156.654l-11.4,45.787c12.95,3.23,52.851,16.393,59.315-9.515l-0.017-0.002
			C280.138,165.91,238.452,159.888,225.498,156.654z"/>
		<path style="fill:#548D1D;" d="M407.603,110.087c-19.45-33.321-45.833-59.704-79.155-79.153
			c-33.328-19.448-69.711-29.17-109.176-29.17c-39.461,0-75.854,9.722-109.177,29.17C76.771,50.38,50.388,76.763,30.938,110.087
			c-19.451,33.326-29.173,69.72-29.173,109.178c0,39.46,9.725,75.847,29.17,109.175c19.449,33.321,45.832,59.704,79.156,79.155
			c33.326,19.447,69.717,29.17,109.177,29.17s75.854-9.723,109.179-29.17c33.322-19.444,59.704-45.834,79.152-79.155
			c19.445-33.325,29.166-69.718,29.166-109.175C436.766,179.803,427.044,143.409,407.603,110.087z M318.703,193.329l-0.019,0.015
			c-3.011,20.357-14.293,30.206-29.274,33.674c20.572,10.714,31.031,27.137,21.061,55.605
			c-12.359,35.336-41.76,38.319-80.859,30.923l-9.49,38.027l-22.929-5.712l9.365-37.515c-5.938-1.475-11.997-3.042-18.265-4.739
			l-9.402,37.69l-22.9-5.712l9.49-38.1l-46.175-11.659l11.383-26.282c0,0,16.895,4.513,16.665,4.179
			c6.49,1.617,9.369-2.612,10.505-5.432l25.729-103.173c0.284-4.872-1.4-11.015-10.685-13.334
			c0.359-0.242-16.652-4.141-16.652-4.141l6.101-24.49l46.242,11.454l9.375-37.646l22.91,5.712l-9.193,36.913
			c6.151,1.396,12.34,2.821,18.361,4.321l9.16-36.671l22.933,5.712l-9.402,37.661C301.687,150.578,322.857,165.525,318.703,193.329z
			"/>
		<path style="fill:#FFFFFF;" d="M272.737,140.607l9.402-37.661l-22.933-5.712l-9.16,36.671c-6.022-1.5-12.21-2.925-18.361-4.321
			l9.193-36.913l-22.91-5.712l-9.375,37.646l-46.242-11.454l-6.101,24.49c0,0,17.012,3.899,16.652,4.141
			c9.285,2.319,10.969,8.462,10.685,13.334l-25.729,103.173c-1.137,2.821-4.016,7.05-10.505,5.432
			c0.23,0.334-16.665-4.179-16.665-4.179l-11.383,26.282l46.175,11.659l-9.49,38.1l22.9,5.712l9.402-37.69
			c6.268,1.697,12.327,3.264,18.265,4.739l-9.365,37.515l22.929,5.712l9.49-38.027c39.099,7.396,68.5,4.413,80.859-30.923
			c9.971-28.468-0.489-44.89-21.061-55.605c14.981-3.468,26.263-13.318,29.274-33.674l0.019-0.015
			C322.857,165.525,301.687,150.578,272.737,140.607z M266.31,266.785l-0.008,0.004c-7.104,28.468-55.024,13.084-70.573,9.218
			l12.591-50.469C223.86,229.416,273.694,237.097,266.31,266.785z M273.414,192.925c-6.464,25.908-46.365,12.745-59.315,9.515
			l11.4-45.787c12.954,3.234,54.639,9.256,47.899,36.269L273.414,192.925z"/>
	</g>
</g>
</svg>
