<?xml version="1.0" encoding="iso-8859-1"?>
<!-- Generator: Adobe Illustrator 22.0.1, SVG Export Plug-In . SVG Version: 6.00 Build 0)  -->
<svg version="1.1" id="Layer_1" xmlns="http://www.w3.org/2000/svg" xmlns:xlink="http://www.w3.org/1999/xlink" x="0px" y="0px"
	 viewBox="0 0 438.53 438.53" style="enable-background:new 0 0 438.53 438.53;" xml:space="preserve">
<g id="_x32_52">
	<g>
		<path style="fill:#F4F4F4;" d="M407.603,110.087c-19.45-33.321-45.833-59.704-79.155-79.153
			c-33.328-19.448-69.711-29.17-109.176-29.17c-39.461,0-75.854,9.722-109.177,29.17C76.771,50.38,50.388,76.763,30.938,110.087
			c-19.451,33.326-29.173,69.72-29.173,109.178c0,39.46,9.725,75.847,29.17,109.175c19.449,33.321,45.832,59.704,79.156,79.155
			c33.326,19.447,69.717,29.17,109.177,29.17s75.854-9.723,109.179-29.17c33.322-19.444,59.704-45.834,79.152-79.155
			c19.445-33.325,29.166-69.718,29.166-109.175C436.766,179.803,427.044,143.409,407.603,110.087z M219.264,415.08
			c-70.865,0-132.947-37.66-167.322-94.054h82.51V217.357L190,272.907v-0.002h0.003l29.263,29.263l29.266-29.264l55.548-55.548
			v103.67h82.508C352.217,377.42,290.129,415.08,219.264,415.08z M405.108,281.116h-58.565V116.361L219.264,243.643L91.983,116.361
			v164.756H33.418c-6.468-19.45-9.971-40.239-9.971-61.851c0-108.131,87.687-195.816,195.815-195.816
			c108.133,0,195.821,87.681,195.822,195.815C415.084,240.877,411.58,261.666,405.108,281.116z"/>
		<path style="fill:#FF6600;" d="M219.261,23.45c-108.128,0-195.815,87.685-195.815,195.816c0,21.612,3.503,42.401,9.971,61.851
			h58.565V116.361l127.282,127.282l127.279-127.282v164.755h58.565c6.473-19.45,9.976-40.239,9.976-61.851
			C415.082,111.131,327.394,23.45,219.261,23.45z"/>
		<path style="fill:#4C4C4C;" d="M304.079,217.356l-55.548,55.548l-29.266,29.264l-29.263-29.263H190v0.002l-55.548-55.55v103.669
			h-82.51C86.318,377.42,148.4,415.08,219.264,415.08c70.865,0,132.953-37.66,167.323-94.054h-82.508V217.356z"/>
	</g>
</g>
</svg>
