<?xml version="1.0" encoding="iso-8859-1"?>
<!-- Generator: Adobe Illustrator 22.0.1, SVG Export Plug-In . SVG Version: 6.00 Build 0)  -->
<svg version="1.1" id="Layer_1" xmlns="http://www.w3.org/2000/svg" xmlns:xlink="http://www.w3.org/1999/xlink" x="0px" y="0px"
	 viewBox="0 0 438.53 438.53" style="enable-background:new 0 0 438.53 438.53;" xml:space="preserve">
<g id="_x32_53">
	<g>
		<path style="fill:#BEEA2E;" d="M407.603,110.087c-19.45-33.321-45.833-59.704-79.155-79.153
			c-33.328-19.448-69.711-29.17-109.176-29.17c-39.461,0-75.854,9.722-109.177,29.17C76.771,50.38,50.388,76.763,30.938,110.087
			c-19.451,33.326-29.173,69.72-29.173,109.178c0,39.46,9.725,75.847,29.17,109.175c19.449,33.321,45.832,59.704,79.156,79.155
			c33.326,19.447,69.717,29.17,109.177,29.17s75.854-9.723,109.179-29.17c33.322-19.444,59.704-45.834,79.152-79.155
			c19.445-33.325,29.166-69.718,29.166-109.175C436.766,179.803,427.044,143.409,407.603,110.087z M194.417,360.072l-94.296-44.599
			V131.977l94.296,44.599V360.072z M198.099,172.472l-93.451-44.881l138.191-49.133l93.023,44.599L198.099,172.472z
			 M338.409,312.924l-98.119-38.228V162.42l98.119-35.258V312.924z"/>
		<polygon style="fill:#FFFFFF;" points="100.121,315.473 194.417,360.072 194.417,176.576 100.121,131.977 		"/>
		<polygon style="fill:#FFFFFF;" points="240.29,274.697 338.409,312.924 338.409,127.162 240.29,162.42 		"/>
		<polygon style="fill:#FFFFFF;" points="242.839,78.458 104.648,127.591 198.099,172.472 335.862,123.057 		"/>
	</g>
</g>
</svg>
