<?xml version="1.0" encoding="iso-8859-1"?>
<!-- Generator: Adobe Illustrator 22.1.0, SVG Export Plug-In . SVG Version: 6.00 Build 0)  -->
<svg version="1.1" id="Layer_1" xmlns="http://www.w3.org/2000/svg" xmlns:xlink="http://www.w3.org/1999/xlink" x="0px" y="0px"
	 viewBox="0 0 436.683 436.77" style="enable-background:new 0 0 436.683 436.77;" xml:space="preserve">
<g>
	<path style="fill:#FDC82E;" d="M219.449,0.001C96.802-0.371-0.67,99.975,0.003,218.342
		c-0.27,119.849,97.302,217.657,217.093,218.424c118.913,0.761,218.872-95.698,219.583-216.819
		C437.388,99.163,339.451,0.365,219.449,0.001z M216.881,404.411c-101.936-0.754-185.82-84.83-184.604-188.499
		c1.185-101.093,85.458-184.386,186.477-183.215c101.733-0.691,185.991,84.583,185.512,186.685
		C403.796,319.819,320.737,405.179,216.881,404.411z"/>
	<path style="fill:#B74813;" d="M218.754,32.697c-101.02-1.171-185.292,82.121-186.477,183.215
		c-1.215,103.669,82.669,187.745,184.604,188.499c103.855,0.768,186.914-84.592,187.385-185.028
		C404.745,117.281,320.487,32.006,218.754,32.697z M378.153,285.316c-10.056,23.964-24.811,44.564-44.006,61.889
		c-15.711,14.181-33.453,25.318-53.34,32.88c-14.926,5.676-30.293,9.333-46.204,10.784c-28.257,2.577-55.544-1.146-81.848-12.003
		c-22.94-9.468-43.02-23.142-60.055-41.085c-16.181-17.043-28.747-36.497-36.735-58.737c-1.244-3.463-2.355-6.977-3.709-10.396
		c-0.934-2.358-0.12-3.049,2.143-2.882c0.829,0.061,1.666,0.009,2.5,0.009c46.798,0,93.597,0.15,140.394-0.119
		c10.184-0.058,20.315-1.665,29.121-7.746c9.997-6.904,13.978-21.232,8.803-32.3c-0.605-1.293-1.126-2.668-1.961-3.803
		c-2.295-3.117-0.56-3.301,2.09-3.213c3.331,0.111,6.672-0.083,10,0.061c2.504,0.108,3.625-1.081,3.47-3.362
		c-0.219-3.237,0.941-6.268,1.485-9.309c0,10.944-0.05,21.889,0.046,32.832c0.017,1.99-0.856,2.876-2.563,3.122
		c-1.52,0.219-3.076,0.263-4.615,0.255c-1.886-0.01-2.827,0.719-2.907,2.719c-0.253,6.284,0.555,12.584-0.479,18.868
		c-0.336,2.039,1.588,1.985,3.027,1.988c6.668,0.013,13.337,0.007,20.005,0.007c10.717,0,21.435-0.067,32.151,0.049
		c2.5,0.027,3.324-0.741,3.252-3.253c-0.161-5.592-0.137-11.194-0.011-16.788c0.058-2.579-0.807-3.588-3.482-3.628
		c-7.269-0.109-7.267-0.208-7.267-7.493c0-9.615,0-19.231,0-28.846c1.807,2.982,1.838,6.309,2.051,9.522
		c0.164,2.468,1.026,3.359,3.454,3.326c2.475-0.033,5.454-1.004,7.31,0.441c1.867,1.453,0.397,4.491,0.799,6.791
		c2.696,15.417,9.267,28.138,23.58,36.171c14.885,8.354,37.314,6.797,49.782-4.444c6.507-5.866,10.062-13.657,12.316-22.039
		c0.153-0.569,0.112-1.199,0.316-1.743c2.747-7.304,0.348-6.224-4.528-7.893c-4.478-1.533-9.188-2.391-13.653-3.954
		c-2.768-0.969-3.428,0.195-4.255,2.417c-1.525,4.099-2.653,8.379-5.241,12.047c-2.398,3.398-4.987,6.717-9.623,6.07
		c-5.464-0.762-7.749-5.33-8.498-9.872c-1.567-9.496-1.713-19.126,0.46-28.628c0.393-1.719,0.967-3.435,1.723-5.026
		c2.257-4.752,7.575-5.637,11.425-1.884c4.265,4.157,5.805,9.75,7.452,15.183c1.774,5.851,1.573,5.683,7.584,5.056
		c4.125-0.43,8.331-0.288,12.49-0.121c3.185,0.128,4.124-1.35,3.53-4.126c-1.327-6.201-0.668-12.53-1.081-18.782
		c-0.475-7.196-1.157-14.443-0.913-21.69c0.07-2.067-0.797-2.669-2.748-2.641c-5.834,0.083-11.669,0.03-17.504,0.031
		c-0.238,0-0.572-0.097-0.7,0.023c-4.491,4.2-9.051,0.242-13.379-0.249c-11.344-1.289-20.954,2.287-30.043,8.449
		c-2.671,1.811-4.702,4.314-7.839,6.845c0-3.357,0.121-6.13-0.027-8.888c-0.245-4.557-0.516-4.742-5.06-4.742
		c-25.007-0.002-50.013-0.002-75.02,0c-4.852,0-4.813,0.008-4.929,4.978c-0.026,1.097,0.686,2.632-0.69,3.202
		c-0.995,0.412-1.905-0.678-2.791-1.258c-7.493-4.911-16.006-6.629-24.681-6.817c-16.187-0.351-32.388-0.03-48.582-0.167
		c-3.239-0.027-4.139,1.17-4,4.196c0.196,4.278,0.05,8.571,0.05,12.858c0,5.631-0.027,5.982,5.33,6.393
		c3.475,0.267,4.022,1.68,3.993,4.678c-0.124,12.859-0.051,25.721-0.056,38.581c0,0.831,0.033,1.678-0.112,2.488
		c-0.07,0.392-0.462,0.931-0.81,1.026c-0.737,0.199-1.042-0.469-1.109-1.046c-0.11-0.941-0.067-1.899-0.098-2.85
		c-0.267-8.186,0.426-16.376-0.672-24.566c-2.015-15.033-13.333-23.41-27.906-20.379c-3.389,0.705-6.697,1.679-9.586,3.666
		c-1.025,0.705-1.842,0.803-2.898,0.067c-6.23-4.341-13.093-5.265-20.352-3.465c-1.588,0.394-2.227,0.456-3.199-1.317
		c-1.185-2.162-3.931-1.055-5.885-0.811c-7.991,0.996-15.977,2.021-24.042,1.933c-2.301-0.025-4.443,0.752-6.699,0.783
		c-1.496,0.021-1.628,1.038-1.67,2.201c-0.231,6.29,0.423,12.591-0.374,18.884c-0.247,1.947,1.6,1.846,2.83,1.705
		c2.836-0.325,3.373,1.018,3.316,3.539c-0.146,6.546-0.095,13.098-0.022,19.647c0.023,2.017-0.152,3.41-2.741,3.469
		c-2.2,0.05-3.186,1.375-3.052,3.796c0.215,3.891,0.058,7.802-0.207,11.741c-1.876-4.736-2.346-9.779-3.252-14.702
		c-2.01-10.928-1.558-22-1.475-33.035c0.084-11.18,2.063-22.091,4.543-32.974c2.625-11.518,6.645-22.505,11.67-33.122
		c6.623-13.992,14.83-26.972,25.094-38.664c10.316-11.751,21.734-22.164,34.61-31.059c14.897-10.292,31.101-17.669,48.363-22.96
		c10.231-3.136,20.685-5.304,31.271-6.175c9.286-0.763,18.611-1.384,28.054-0.444c9.914,0.986,19.721,2.19,29.438,4.38
		c9.172,2.067,18.052,5.016,26.698,8.619c11.207,4.669,21.833,10.452,31.755,17.502c12.717,9.036,24.252,19.282,34.272,31.327
		c9.403,11.303,17.418,23.426,23.738,36.653c7.401,15.489,12.512,31.712,14.911,48.757c1.356,9.635,2.335,19.319,2.034,29.029
		C391.017,243.73,386.702,264.944,378.153,285.316z M80.117,211.469c10.651-13.701,27.899-13.331,31.726-0.261
		c3.654-4.279,7.673-7.786,13.162-9.307c9.541-2.643,16.127,1.378,18.218,11.057c2.217,10.26,0.923,20.628,1.245,30.944
		c0.099,3.175-0.147,6.187,3.981,7.287c1.942,0.517,1.06,2.666,1.009,4.095c-0.057,1.592-1.483,1.238-2.481,1.242
		c-7.38,0.026-14.76,0.014-22.14,0.015c-1.223,0-2.513,0.078-2.452-1.716c0.05-1.459-0.586-3.298,1.627-3.762
		c2.778-0.583,3.493-2.429,3.477-4.984c-0.059-9.521,0.026-19.044-0.107-28.564c-0.037-2.652,0.14-5.849-3.357-6.704
		c-3.485-0.852-6.323,0.527-8.288,3.521c-1.744,2.657-2.51,5.718-2.589,8.793c-0.196,7.612-0.109,15.232-0.103,22.849
		c0.002,2.442,0.669,4.457,3.457,5.086c2.2,0.497,1.548,2.336,1.596,3.791c0.059,1.803-1.262,1.692-2.473,1.692
		c-7.38,0-14.76,0.009-22.139-0.014c-1.134-0.004-2.601,0.293-2.606-1.548c-0.004-1.445-0.691-3.284,1.471-3.864
		c3.208-0.86,3.742-3.247,3.727-6.07c-0.047-9.164-0.016-18.33-0.109-27.494c-0.028-2.754-0.224-5.823-3.455-6.715
		c-3.453-0.953-6.26,0.567-8.273,3.524c-1.948,2.862-2.523,6.138-2.786,9.469c-0.61,7.707-0.727,15.417,0.083,23.127
		c0.208,1.982,0.895,3.502,2.975,3.896c2.543,0.482,2.291,2.332,2.145,4.117c-0.192,2.343-2.07,1.523-3.299,1.536
		c-6.903,0.074-13.807,0.065-20.711,0.008c-1.265-0.01-3.13,0.675-3.202-1.664c-0.049-1.594-0.557-3.442,1.813-4.026
		c2.38-0.586,3.183-2.507,3.199-4.613c0.084-11.425,0.071-22.852,0.041-34.278c-0.006-2.245-0.954-3.977-3.408-4.294
		c-2.296-0.296-2.276-1.806-2.308-3.587c-0.041-2.28,1.67-2.066,2.937-2.183c5.442-0.503,10.904-0.795,16.344-1.317
		c1.742-0.167,2.065,0.597,2.055,2.007C80.103,205.294,80.117,208.026,80.117,211.469z M157.46,186.576
		c-2.643-0.369-2.13-1.943-2.221-3.539c-0.091-1.578,0.391-2.464,2.177-2.421c16.279,0.391,32.591-0.902,48.841,0.862
		c3.69,0.401,7.112,1.814,10.424,3.496c9.773,4.962,9.896,20.48,0.324,25.662c-3.771,2.042-7.864,3.16-12.465,4.737
		c5.893,1.475,11.128,2.831,15.774,5.834c6.459,4.175,8.461,10.266,7.825,17.541c-0.59,6.735-4.542,11.107-10.362,13.864
		c-5.315,2.517-11.033,3.769-16.907,3.821c-14.158,0.125-28.318,0.086-42.477,0.103c-1.509,0.002-3.209,0.373-3.175-2.133
		c0.027-1.988-0.104-3.482,2.654-4.002c5.713-1.079,6.095-1.806,6.101-7.653c0.017-16.182,0.022-32.364,0.002-48.546
		C163.967,188.305,163.339,187.396,157.46,186.576z M278.85,243.955c0.015,4.057,1.525,5.398,6.244,6.263
		c2.392,0.438,5.168,0.335,4.428,4.237c-0.275,1.451-0.662,2.099-2.174,2.096c-12.144-0.028-24.289-0.028-36.433,0
		c-1.598,0.004-2.171-0.797-1.984-2.213c0.177-1.344-0.815-3.02,1.628-3.663c8.941-2.354,8.918-2.436,8.917-11.586
		c-0.001-16.312-0.103-32.624,0.082-48.934c0.038-3.373-1.125-4.034-4.115-3.731c-5.852,0.592-10.836,4.815-12.803,11.373
		c-0.885,2.952-1.87,5.953-2.137,8.991c-0.265,3.007-2.043,2.595-3.939,2.628c-2.613,0.044-1.988-1.867-1.948-3.276
		c0.211-7.609,0.574-15.215,0.706-22.825c0.04-2.309,1.033-2.737,3.052-2.723c10.239,0.07,20.479,0.032,30.718,0.03
		c9.882-0.002,19.767,0.122,29.645-0.079c2.931-0.06,3.994,0.849,4.082,3.691c0.235,7.603,0.598,15.204,0.989,22.801
		c0.101,1.961-0.779,2.547-2.539,2.38c-1.632-0.155-3.638,0.706-3.846-2.263c-0.342-4.894-1.453-9.633-4.068-13.897
		c-2.706-4.414-6.698-6.553-11.818-6.853c-1.944-0.114-2.767,0.433-2.76,2.548C278.842,207.284,278.783,225.62,278.85,243.955z
		 M333.943,239.211c2.723,6.859,7.491,11.297,14.932,12.197c7.54,0.912,13.057-2.684,17.204-8.669
		c1.761-2.542,3.396-5.21,4.288-8.195c1.154-3.862,3.446-1.439,5.348-1.092c2.462,0.45,1.643,1.952,1.16,3.503
		c-7.859,25.234-37.086,25.917-51.535,14.856c-14.259-10.916-17.593-25.944-14.547-42.727c2.891-15.929,12.438-26.081,28.285-29.951
		c7.647-1.867,14.856,0.245,21.881,3.065c5.223,2.096,5.282,2.13,8.079-2.589c1.126-1.9,3.01-0.79,4.543-0.942
		c1.771-0.175,1.672,1.235,1.729,2.446c0.396,8.428,0.793,16.855,1.224,25.281c0.067,1.31-0.391,2.242-1.73,2.088
		c-1.58-0.182-3.688,1.229-4.615-1.31c-0.612-1.675-1.204-3.359-1.864-5.015c-2.05-5.142-4.639-9.933-9.3-13.222
		c-8.966-6.327-20.42-2.777-24.3,7.475c-2.869,7.58-3.256,15.529-3.61,23.932C331.704,226.396,331.471,232.987,333.943,239.211z"/>
	<path style="fill:#D9571A;" d="M389.663,192.727c-2.4-17.046-7.511-33.268-14.911-48.757c-6.32-13.227-14.335-25.35-23.738-36.653
		c-10.02-12.046-21.555-22.291-34.272-31.327c-9.922-7.05-20.548-12.833-31.755-17.502c-8.646-3.602-17.526-6.552-26.698-8.619
		c-9.717-2.19-19.524-3.393-29.438-4.38c-9.443-0.939-18.768-0.319-28.054,0.444c-10.586,0.87-21.04,3.039-31.271,6.175
		c-17.262,5.291-33.466,12.668-48.363,22.96c-12.876,8.896-24.294,19.308-34.61,31.059c-10.263,11.692-18.47,24.672-25.094,38.664
		c-5.026,10.617-9.045,21.604-11.67,33.122c-2.479,10.883-4.459,21.793-4.543,32.974c-0.082,11.035-0.534,22.107,1.475,33.035
		c0.905,4.922,1.375,9.966,3.252,14.702c0.265-3.939,0.422-7.85,0.207-11.741c-0.134-2.422,0.852-3.746,3.052-3.796
		c2.589-0.059,2.763-1.452,2.741-3.469c-0.073-6.549-0.125-13.101,0.022-19.647c0.056-2.521-0.48-3.864-3.316-3.539
		c-1.23,0.141-3.076,0.242-2.83-1.705c0.797-6.292,0.143-12.593,0.374-18.884c0.043-1.163,0.174-2.18,1.67-2.201
		c2.256-0.031,4.398-0.809,6.699-0.783c8.065,0.089,16.05-0.937,24.042-1.933c1.954-0.244,4.699-1.351,5.885,0.811
		c0.972,1.774,1.611,1.711,3.199,1.317c7.259-1.8,14.122-0.877,20.352,3.465c1.056,0.736,1.873,0.638,2.898-0.067
		c2.889-1.986,6.197-2.961,9.586-3.666c14.573-3.032,25.891,5.346,27.906,20.379c1.098,8.191,0.405,16.38,0.672,24.566
		c0.031,0.951-0.011,1.909,0.098,2.85c0.067,0.578,0.373,1.245,1.109,1.046c0.348-0.094,0.74-0.634,0.81-1.026
		c0.146-0.81,0.112-1.656,0.112-2.488c0.005-12.861-0.067-25.722,0.056-38.581c0.029-2.998-0.518-4.412-3.993-4.678
		c-5.357-0.411-5.33-0.762-5.33-6.393c0-4.287,0.146-8.581-0.05-12.858c-0.139-3.026,0.761-4.223,4-4.196
		c16.194,0.137,32.394-0.183,48.582,0.167c8.674,0.188,17.188,1.906,24.681,6.817c0.886,0.581,1.796,1.671,2.791,1.258
		c1.376-0.57,0.664-2.105,0.69-3.202c0.116-4.97,0.077-4.977,4.929-4.978c25.007-0.002,50.013-0.002,75.02,0
		c4.544,0,4.815,0.185,5.06,4.742c0.148,2.758,0.027,5.531,0.027,8.888c3.137-2.531,5.168-5.034,7.839-6.845
		c9.089-6.162,18.699-9.739,30.043-8.449c4.328,0.492,8.888,4.449,13.379,0.249c0.128-0.12,0.462-0.023,0.7-0.023
		c5.835-0.001,11.67,0.052,17.504-0.031c1.951-0.028,2.818,0.574,2.748,2.641c-0.244,7.247,0.439,14.494,0.913,21.69
		c0.412,6.252-0.246,12.581,1.081,18.782c0.594,2.776-0.344,4.254-3.53,4.126c-4.159-0.167-8.365-0.31-12.49,0.121
		c-6.011,0.627-5.81,0.795-7.584-5.056c-1.647-5.433-3.187-11.027-7.452-15.183c-3.85-3.752-9.168-2.868-11.425,1.884
		c-0.756,1.591-1.33,3.307-1.723,5.026c-2.173,9.501-2.027,19.132-0.46,28.628c0.749,4.541,3.034,9.109,8.498,9.872
		c4.636,0.647,7.225-2.672,9.623-6.07c2.589-3.667,3.716-7.947,5.241-12.047c0.827-2.222,1.487-3.386,4.255-2.417
		c4.465,1.563,9.176,2.421,13.653,3.954c4.875,1.669,7.275,0.589,4.528,7.893c-0.204,0.543-0.163,1.174-0.316,1.743
		c-2.255,8.381-5.81,16.172-12.316,22.039c-12.468,11.241-34.897,12.798-49.782,4.444c-14.313-8.033-20.884-20.754-23.58-36.171
		c-0.402-2.3,1.067-5.338-0.799-6.791c-1.857-1.445-4.835-0.475-7.31-0.441c-2.428,0.033-3.29-0.859-3.454-3.326
		c-0.214-3.213-0.245-6.54-2.051-9.522c0,9.615,0,19.231,0,28.846c0,7.285-0.002,7.384,7.267,7.493
		c2.675,0.04,3.54,1.049,3.482,3.628c-0.126,5.594-0.149,11.196,0.011,16.788c0.072,2.511-0.753,3.28-3.252,3.253
		c-10.716-0.116-21.434-0.048-32.151-0.049c-6.668,0-13.337,0.005-20.005-0.007c-1.439-0.003-3.363,0.052-3.027-1.988
		c1.034-6.285,0.226-12.584,0.479-18.868c0.08-2,1.021-2.729,2.907-2.719c1.539,0.008,3.095-0.036,4.615-0.255
		c1.707-0.246,2.58-1.132,2.563-3.122c-0.095-10.943-0.046-21.888-0.046-32.832c-0.544,3.041-1.705,6.072-1.485,9.309
		c0.155,2.28-0.967,3.47-3.47,3.362c-3.328-0.144-6.67,0.05-10-0.061c-2.65-0.088-4.385,0.096-2.09,3.213
		c0.835,1.135,1.357,2.51,1.961,3.803c5.176,11.068,1.195,25.396-8.803,32.3c-8.806,6.081-18.937,7.688-29.121,7.746
		c-46.797,0.269-93.596,0.119-140.394,0.119c-0.834,0-1.671,0.052-2.5-0.009c-2.263-0.167-3.077,0.524-2.143,2.882
		c1.355,3.418,2.465,6.933,3.709,10.396c7.988,22.24,20.555,41.694,36.735,58.737c17.035,17.943,37.115,31.617,60.055,41.085
		c26.304,10.856,53.591,14.579,81.848,12.003c15.912-1.451,31.278-5.108,46.204-10.784c19.887-7.562,37.629-18.699,53.34-32.88
		c19.194-17.325,33.949-37.925,44.006-61.889c8.549-20.372,12.864-41.586,13.544-63.56
		C391.998,212.046,391.019,202.361,389.663,192.727z"/>
	<path style="fill:#FDC82E;" d="M157.87,250.399c-2.758,0.521-2.627,2.014-2.654,4.002c-0.034,2.506,1.666,2.135,3.175,2.133
		c14.159-0.017,28.319,0.023,42.477-0.103c5.874-0.052,11.592-1.303,16.907-3.821c5.821-2.757,9.773-7.129,10.362-13.864
		c0.637-7.274-1.365-13.365-7.825-17.541c-4.646-3.003-9.881-4.359-15.774-5.834c4.6-1.578,8.693-2.696,12.465-4.737
		c9.572-5.182,9.45-20.7-0.324-25.662c-3.312-1.682-6.734-3.095-10.424-3.496c-16.25-1.764-32.561-0.471-48.841-0.862
		c-1.786-0.043-2.268,0.843-2.177,2.421c0.092,1.596-0.421,3.17,2.221,3.539c5.878,0.821,6.506,1.729,6.513,7.624
		c0.02,16.182,0.014,32.364-0.002,48.546C163.965,248.593,163.583,249.32,157.87,250.399z M183.72,200.426c0.01,0,0.019,0,0.029,0
		c0-2.734-0.067-5.469,0.016-8.201c0.125-4.115,1.309-5.429,5.363-6.21c5.695-1.097,11.223,1.062,13.656,5.332
		c2.958,5.192,2.65,12.909-0.735,16.798c-2.901,3.334-6.848,4.004-10.974,4.101c-7.353,0.174-7.353,0.164-7.354-7.185
		C183.72,203.516,183.72,201.971,183.72,200.426z M187.099,218.153c3.18,0.343,6.465,0.185,9.541,0.926
		c8.472,2.041,11.931,9.048,11.038,17.495c-1.058,10.016-5.876,14.208-15.278,14.192c-7.18-0.013-8.642-1.421-8.672-8.483
		c-0.028-6.906,0.12-13.815-0.07-20.716C183.583,218.847,184.467,217.869,187.099,218.153z"/>
	<path style="fill:#FDC82E;" d="M78.068,200.555c-5.44,0.522-10.901,0.814-16.344,1.317c-1.267,0.117-2.978-0.097-2.937,2.183
		c0.032,1.781,0.011,3.291,2.308,3.587c2.454,0.316,3.402,2.049,3.408,4.294c0.03,11.426,0.043,22.852-0.041,34.278
		c-0.016,2.106-0.819,4.027-3.199,4.613c-2.37,0.584-1.863,2.432-1.813,4.026c0.072,2.339,1.936,1.654,3.202,1.664
		c6.903,0.057,13.807,0.066,20.711-0.008c1.23-0.013,3.107,0.807,3.299-1.536c0.146-1.785,0.398-3.635-2.145-4.117
		c-2.081-0.394-2.767-1.914-2.975-3.896c-0.81-7.71-0.693-15.42-0.083-23.127c0.264-3.331,0.839-6.607,2.786-9.469
		c2.013-2.957,4.82-4.477,8.273-3.524c3.231,0.891,3.427,3.961,3.455,6.715c0.093,9.164,0.062,18.329,0.109,27.494
		c0.014,2.823-0.519,5.211-3.727,6.07c-2.162,0.58-1.475,2.419-1.471,3.864c0.005,1.841,1.472,1.544,2.606,1.548
		c7.38,0.023,14.76,0.013,22.139,0.014c1.211,0,2.532,0.111,2.473-1.692c-0.048-1.454,0.604-3.294-1.596-3.791
		c-2.787-0.629-3.455-2.644-3.457-5.086c-0.006-7.617-0.093-15.237,0.103-22.849c0.079-3.075,0.846-6.136,2.589-8.793
		c1.965-2.995,4.803-4.373,8.288-3.521c3.497,0.855,3.32,4.053,3.357,6.704c0.133,9.52,0.048,19.043,0.107,28.564
		c0.016,2.555-0.7,4.401-3.477,4.984c-2.213,0.464-1.577,2.303-1.627,3.762c-0.061,1.794,1.229,1.716,2.452,1.716
		c7.38-0.002,14.76,0.011,22.14-0.015c0.998-0.004,2.424,0.35,2.481-1.242c0.051-1.429,0.933-3.578-1.009-4.095
		c-4.128-1.1-3.882-4.111-3.981-7.287c-0.322-10.316,0.971-20.684-1.245-30.944c-2.091-9.679-8.678-13.7-18.218-11.057
		c-5.489,1.521-9.508,5.028-13.162,9.307c-3.827-13.07-21.076-13.44-31.726,0.261c0-3.443-0.014-6.175,0.006-8.907
		C80.133,201.152,79.81,200.388,78.068,200.555z"/>
	<path style="fill:#FDC82E;" d="M281.537,186.401c5.119,0.301,9.111,2.439,11.818,6.853c2.614,4.264,3.725,9.003,4.068,13.897
		c0.208,2.969,2.214,2.109,3.846,2.263c1.76,0.167,2.64-0.419,2.539-2.38c-0.391-7.597-0.754-15.198-0.989-22.801
		c-0.088-2.841-1.151-3.75-4.082-3.691c-9.878,0.201-19.763,0.076-29.645,0.079c-10.239,0.002-20.479,0.04-30.718-0.03
		c-2.019-0.014-3.011,0.414-3.052,2.723c-0.132,7.61-0.495,15.216-0.706,22.825c-0.039,1.409-0.664,3.32,1.948,3.276
		c1.896-0.032,3.674,0.38,3.939-2.628c0.268-3.038,1.252-6.038,2.137-8.991c1.966-6.558,6.95-10.781,12.803-11.373
		c2.99-0.303,4.154,0.358,4.115,3.731c-0.185,16.31-0.084,32.622-0.082,48.934c0,9.149,0.023,9.232-8.917,11.586
		c-2.443,0.643-1.451,2.319-1.628,3.663c-0.187,1.416,0.386,2.217,1.984,2.213c12.144-0.027,24.289-0.027,36.433,0
		c1.512,0.003,1.899-0.645,2.174-2.096c0.74-3.902-2.036-3.799-4.428-4.237c-4.719-0.865-6.229-2.206-6.244-6.263
		c-0.068-18.335-0.008-36.671-0.073-55.007C278.77,186.834,279.594,186.287,281.537,186.401z"/>
	<path style="fill:#FDC82E;" d="M359.023,188.936c4.661,3.289,7.25,8.08,9.3,13.222c0.66,1.656,1.253,3.34,1.864,5.015
		c0.927,2.539,3.035,1.128,4.615,1.31c1.339,0.154,1.797-0.778,1.73-2.088c-0.431-8.426-0.827-16.854-1.224-25.281
		c-0.057-1.21,0.043-2.621-1.729-2.446c-1.533,0.152-3.417-0.958-4.543,0.942c-2.798,4.719-2.856,4.685-8.079,2.589
		c-7.026-2.82-14.234-4.933-21.881-3.065c-15.848,3.87-25.394,14.022-28.285,29.951c-3.046,16.783,0.288,31.811,14.547,42.727
		c14.449,11.061,43.676,10.378,51.535-14.856c0.483-1.551,1.302-3.053-1.16-3.503c-1.901-0.348-4.194-2.77-5.348,1.092
		c-0.892,2.984-2.526,5.653-4.288,8.195c-4.147,5.985-9.664,9.581-17.204,8.669c-7.44-0.9-12.208-5.337-14.932-12.197
		c-2.471-6.224-2.239-12.815-2.83-18.868c0.354-8.404,0.742-16.352,3.61-23.932C338.603,186.159,350.056,182.609,359.023,188.936z"
		/>
	<path style="fill:#B74813;" d="M183.729,242.283c0.029,7.062,1.492,8.47,8.672,8.483c9.402,0.016,14.22-4.175,15.278-14.192
		c0.893-8.447-2.566-15.454-11.038-17.495c-3.075-0.741-6.361-0.583-9.541-0.926c-2.632-0.284-3.516,0.695-3.441,3.414
		C183.849,228.467,183.7,235.377,183.729,242.283z"/>
	<path style="fill:#B74813;" d="M191.074,212.247c4.127-0.098,8.073-0.768,10.974-4.101c3.385-3.89,3.693-11.606,0.735-16.798
		c-2.433-4.27-7.961-6.429-13.656-5.332c-4.054,0.781-5.238,2.096-5.363,6.21c-0.083,2.731-0.016,5.467-0.016,8.201
		c-0.01,0-0.019,0-0.029,0c0,1.545,0,3.09,0,4.636C183.721,212.411,183.722,212.421,191.074,212.247z"/>
</g>
</svg>
