<?xml version="1.0" encoding="iso-8859-1"?>
<!-- Generator: Adobe Illustrator 22.1.0, SVG Export Plug-In . SVG Version: 6.00 Build 0)  -->
<svg version="1.1" id="Layer_1" xmlns="http://www.w3.org/2000/svg" xmlns:xlink="http://www.w3.org/1999/xlink" x="0px" y="0px"
	 viewBox="0 0 435 435.002" style="enable-background:new 0 0 435 435.002;" xml:space="preserve">
<g>
	<path style="fill:#541832;" d="M405.838,108.323c-19.45-33.321-45.833-59.704-79.155-79.153C293.354,9.722,256.971,0,217.507,0
		c-39.461,0-75.854,9.722-109.177,29.17c-33.324,19.446-59.707,45.829-79.157,79.153C9.722,141.65,0,178.043,0,217.501
		c0,39.46,9.725,75.847,29.17,109.175c19.449,33.321,45.832,59.704,79.156,79.155c33.326,19.447,69.717,29.17,109.177,29.17
		s75.854-9.723,109.179-29.17c33.322-19.444,59.704-45.834,79.152-79.155C425.279,293.351,435,256.959,435,217.501
		C435.001,178.039,425.279,141.645,405.838,108.323z M282.37,167.586c0-11.359,0.09-22.719-0.066-34.075
		c-0.036-2.657,0.777-3.24,3.308-3.219c13.907,0.12,27.816,0.14,41.722-0.011c2.835-0.031,3.506,0.791,3.477,3.531
		c-0.095,9.222,0.018,9.223-9.222,9.223c-7.285,0-14.573,0.127-21.853-0.066c-2.656-0.07-3.064,0.967-2.963,3.226
		c0.16,3.559,0.229,7.143-0.016,10.692c-0.198,2.874,0.542,3.898,3.648,3.803c7.807-0.24,15.629-0.004,23.442-0.126
		c2.288-0.036,3.222,0.379,3.257,2.979c0.133,9.755,0.242,9.754-9.467,9.754c-5.961,0-11.923,0.081-17.881-0.042
		c-2.181-0.045-3.074,0.518-2.988,2.855c0.164,4.485,0.185,8.985-0.007,13.468c-0.104,2.438,0.936,2.804,3.029,2.784
		c9.139-0.085,18.28,0.06,27.417-0.096c2.706-0.046,3.627,0.605,3.608,3.469c-0.062,9.276,0.063,9.277-9.213,9.277
		c-11.921,0-23.843-0.085-35.762,0.064c-2.703,0.034-3.586-0.56-3.542-3.416C282.473,190.305,282.37,178.945,282.37,167.586z
		 M99.77,304.434c-2.184,0.07-2.575-1.565-3.283-2.869c-4.34-7.994-8.607-16.026-12.922-24.033
		c-1.081-2.005-8.941-3.722-10.623-2.278c-0.903,0.775-0.473,1.992-0.477,3.011c-0.029,7.528-0.122,15.058,0.042,22.582
		c0.057,2.619-0.447,3.637-3.388,3.625c-10.32-0.041-10.32,0.083-10.32-10.17c0-20.338,0.059-40.676-0.067-61.014
		c-0.018-2.892,0.589-3.928,3.681-3.762c8.978,0.481,18.016-0.688,26.964,0.647c10.164,1.516,17.202,7.979,19.307,17.367
		c2.076,9.262-1.548,18.643-9.723,24.149c-2.207,1.486-1.819,2.515-0.783,4.351c5.181,9.183,10.248,18.43,15.742,28.351
		C108.713,304.391,104.238,304.291,99.77,304.434z M117.627,205.063c-3.534-0.292-8.167,1.094-10.356-0.672
		c-2.316-1.868-0.682-6.667-0.726-10.177c-0.109-8.846-0.036-17.694-0.036-26.54c0-11.356,0.071-22.712-0.055-34.067
		c-0.028-2.502,0.528-3.353,3.22-3.325c13.77,0.144,27.543,0.104,41.315,0.027c2.093-0.012,2.976,0.348,3.039,2.751
		c0.261,9.977,0.356,9.975-9.663,9.975c-6.886,0-13.773,0.075-20.657-0.044c-2.151-0.037-3.029,0.448-2.937,2.791
		c0.18,4.615,0.169,9.245,0.004,13.861c-0.082,2.299,0.723,2.888,2.933,2.856c8.076-0.116,16.156,0.025,24.232-0.088
		c2.416-0.034,3.45,0.394,3.446,3.204c-0.012,9.538,0.121,9.538-9.366,9.538c-5.827,0-11.659,0.151-17.477-0.064
		c-2.859-0.106-3.905,0.516-3.803,3.63c0.252,7.65-0.008,15.316,0.134,22.972C120.921,204.182,120.368,205.29,117.627,205.063z
		 M164.759,304.428c-1.568-0.184-3.188-0.161-4.763-0.007c-3.585,0.348-6.346-0.015-4.723-5.233
		c-6.47,5.596-13.212,7.438-20.851,5.899c-8.613-1.735-14.143-7.418-14.986-16.16c-1.129-11.718-0.251-23.496-0.489-35.245
		c-0.032-1.552,0.566-2.198,2.092-2.022c0.131,0.015,0.265,0.008,0.397,0c11.055-0.619,11.055-0.62,11.055,10.51
		c0,6.606-0.005,13.212,0.001,19.817c0.007,7.581,2.742,11.376,8.632,11.995c6.26,0.659,12.094-3.87,13.259-10.53
		c0.847-4.84,0.258-9.756,0.34-14.636c0.082-4.887,0.079-9.777-0.012-14.664c-0.034-1.817,0.457-2.451,2.428-2.55
		c11.136-0.564,11.133-0.627,11.133,10.493c0,12.947-0.081,25.895,0.064,38.841C168.368,303.749,167.524,304.753,164.759,304.428z
		 M163.333,143.08c-2.059,0.06-2.626-0.549-2.679-2.629c-0.254-10.103-0.324-10.101,9.832-10.101c13.63,0,27.261,0.065,40.89-0.057
		c2.593-0.023,3.656,0.36,3.622,3.334c-0.108,9.408,0.034,9.391-9.379,9.42c-3.42,0.011-7.996-1.173-9.956,0.55
		c-2.284,2.008-0.706,6.679-0.724,10.185c-0.082,15.834-0.096,31.669,0.021,47.503c0.02,2.718-0.305,4.208-3.544,3.779
		c-3.486-0.462-8.186,1.461-10.211-0.789c-1.738-1.932-0.583-6.504-0.603-9.909c-0.041-6.861-0.012-13.723-0.012-20.585
		c0-9.237-0.082-18.475,0.056-27.709c0.036-2.379-0.49-3.216-3.026-3.097C172.867,143.194,168.093,142.941,163.333,143.08z
		 M219.101,295.571c-3.413,7.617-10.323,9.835-17.835,10.523c-7.782,0.712-15.258-0.703-22.324-4.201
		c-2.151-1.065-3.178-2.036-1.537-4.4c1.422-2.048,2.01-5.136,3.88-6.286c2.065-1.269,4.383,1.426,6.682,2.152
		c4.481,1.415,8.958,2.432,13.618,1.023c2.105-0.636,4.048-1.697,4.3-4.125c0.242-2.336-1.49-3.644-3.36-4.411
		c-4.144-1.7-8.386-3.161-12.568-4.772c-8.411-3.241-12.22-8.29-11.682-15.41c0.546-7.232,5.807-12.789,13.938-14.747
		c2.977-0.717,5.996-0.989,10.221-0.921c4.331-0.04,9.585,1.093,14.631,3.282c1.86,0.807,2.919,1.753,1.306,3.71
		c-0.083,0.101-0.141,0.223-0.205,0.338c-1.152,2.074-1.827,4.838-3.579,6.041c-2.021,1.387-4.135-1.349-6.374-1.85
		c-4.035-0.903-8.02-1.875-12.085-0.292c-1.795,0.699-3.431,1.728-3.521,3.849c-0.082,1.922,1.321,3.083,2.856,3.971
		c3.706,2.145,7.921,2.872,11.919,4.212C218.633,277.031,223.392,285.994,219.101,295.571z M271.357,289.731
		c-0.253,6.413-3.329,11.187-9.15,13.713c-11.366,4.932-22.474,3.214-33.283-2.068c-0.236-0.115-0.565-0.238-0.646-0.44
		c-1.572-3.881,2.317-5.843,3.183-8.883c0.528-1.856,1.637-1.385,3.026-0.708c5.404,2.638,10.96,4.676,17.162,3.243
		c2.435-0.563,4.794-1.469,5.154-4.207c0.352-2.677-1.799-3.956-3.945-4.813c-3.919-1.565-7.899-2.978-11.853-4.457
		c-8.343-3.121-12.211-8.17-11.775-15.365c0.426-7.025,5.588-12.715,13.458-14.729c3.087-0.789,6.244-1.139,9.809-1.016
		c5.264-0.017,10.645,1.101,15.803,3.41c1.909,0.855,2.246,1.793,1.107,3.565c-1.352,2.104-1.986,5.06-3.839,6.345
		c-2.114,1.466-4.311-1.457-6.677-1.914c-3.78-0.731-7.502-1.686-11.339-0.357c-1.986,0.688-3.742,1.748-3.972,3.951
		c-0.221,2.119,1.452,3.266,3.1,4.2c3.605,2.045,7.686,2.743,11.568,4.008C267.47,276.215,271.68,281.536,271.357,289.731z
		 M261.898,203.365c-5.319,3.007-11.12,4.087-17.179,4.03c-8.105-0.089-15.663-1.962-22.531-6.468
		c-2.172-1.425-2.943-2.525-1.084-4.815c1.905-2.345,2.929-6.007,5.297-7.201c2.32-1.169,4.873,2.191,7.528,3.169
		c5.758,2.12,11.529,2.87,17.458,0.906c3.797-1.257,6.601-3.62,6.918-7.788c0.301-3.962-2.3-6.353-5.591-7.867
		c-3.832-1.762-7.801-3.227-11.7-4.848c-2.922-1.215-5.89-2.341-8.728-3.731c-15.156-7.421-13.785-27.555-1.456-35.538
		c10.559-6.837,29.709-5.915,39.373,2.056c1.421,1.172,1.63,2.003,0.412,3.481c-1.927,2.34-3.139,5.688-5.544,7.099
		c-2.568,1.506-4.91-1.961-7.567-2.796c-5.16-1.62-10.277-2.661-15.534-0.768c-2.999,1.081-5.336,2.946-5.79,6.386
		c-0.462,3.506,1.512,5.772,4.157,7.525c3.436,2.277,7.318,3.644,11.192,4.969c3.628,1.241,7.214,2.561,10.607,4.368
		c7.402,3.942,11.531,9.876,11.352,18.446C273.309,192.63,269.43,199.106,261.898,203.365z M331.021,280.464
		c-0.118,2.141-1.593,1.708-2.825,1.715c-5.562,0.03-11.124,0.013-16.686,0.015c-5.695,0.001-11.391,0.1-17.082-0.043
		c-2.592-0.065-2.892,1.019-2.274,3.11c1.433,4.846,6.962,8.912,12.684,9.321c5.735,0.41,11.055-1.003,15.927-3.889
		c2.278-1.35,3.38-1.398,4.669,1.287c3.723,7.753,3.838,7.745-4.085,11.153c-13.356,5.746-27.63,3.596-36.059-5.43
		c-8.372-8.965-9.543-25.559-2.552-36.17c6.697-10.165,19.79-14.186,31.946-9.976C326.909,255.792,331.631,269.428,331.021,280.464z
		 M349.109,304.456c-10.285,0.035-10.284,0.123-10.284-10.115c0-9.231,0-18.462,0-27.693c0-11.341,0.069-22.683-0.055-34.023
		c-0.027-2.425,0.612-3.296,3.095-3.08c2.494,0.217,5.039,0.232,7.529-0.003c2.617-0.247,3.001,0.89,2.994,3.173
		c-0.074,22.814-0.09,45.628,0.018,68.442C352.418,303.778,351.682,304.447,349.109,304.456z M372.743,304.462
		c-9.931-0.049-9.931,0.056-9.931-9.753c0-20.439,0.08-40.879-0.082-61.318c-0.026-3.24,0.983-3.915,4.007-3.87
		c9.459,0.14,9.461,0.02,9.461,9.351c0,9.494,0,18.989,0,28.483c0,11.209-0.097,22.419,0.068,33.625
		C376.307,303.785,375.483,304.476,372.743,304.462z"/>
	<path style="fill:#FEFEFE;" d="M98.962,271.689c8.175-5.507,11.799-14.887,9.723-24.149c-2.104-9.388-9.142-15.85-19.307-17.367
		c-8.948-1.335-17.986-0.166-26.964-0.647c-3.092-0.166-3.699,0.87-3.681,3.762c0.126,20.337,0.067,40.676,0.067,61.014
		c0,10.253,0,10.129,10.32,10.17c2.941,0.012,3.445-1.006,3.388-3.625c-0.164-7.524-0.071-15.054-0.042-22.582
		c0.004-1.019-0.427-2.236,0.477-3.011c1.682-1.444,9.542,0.273,10.623,2.278c4.315,8.007,8.582,16.039,12.922,24.033
		c0.708,1.304,1.098,2.938,3.283,2.869c4.468-0.143,8.943-0.043,14.15-0.043c-5.493-9.921-10.561-19.168-15.742-28.351
		C97.143,274.204,96.755,273.176,98.962,271.689z M83.371,263.146c-10.92,0.518-10.92,0.518-10.92-10.586
		c0-0.66-0.255-1.478,0.042-1.953c1.705-2.732-3.825-8.453,3.126-8.755c13.455-0.584,18.586,2.41,18.959,10.129
		C94.887,258.388,90.448,262.81,83.371,263.146z"/>
	<path style="fill:#FEFEFE;" d="M285.84,205.078c11.919-0.149,23.841-0.064,35.762-0.064c9.276,0,9.151-0.001,9.213-9.277
		c0.019-2.864-0.901-3.515-3.608-3.469c-9.137,0.156-18.278,0.01-27.417,0.096c-2.093,0.02-3.133-0.347-3.029-2.784
		c0.191-4.483,0.171-8.983,0.007-13.468c-0.086-2.337,0.807-2.9,2.988-2.855c5.958,0.123,11.92,0.042,17.881,0.042
		c9.709,0,9.6,0.002,9.467-9.754c-0.035-2.6-0.969-3.015-3.257-2.979c-7.813,0.122-15.634-0.114-23.442,0.126
		c-3.107,0.095-3.847-0.929-3.648-3.803c0.245-3.549,0.176-7.133,0.016-10.692c-0.101-2.259,0.307-3.296,2.963-3.226
		c7.28,0.193,14.568,0.066,21.853,0.066c9.24,0,9.127-0.001,9.222-9.223c0.028-2.74-0.642-3.562-3.477-3.531
		c-13.906,0.151-27.815,0.131-41.722,0.011c-2.531-0.022-3.345,0.561-3.308,3.219c0.156,11.357,0.066,22.716,0.066,34.075
		s0.103,22.719-0.072,34.075C282.253,204.518,283.136,205.111,285.84,205.078z"/>
	<path style="fill:#FEFEFE;" d="M262.137,165.536c-3.393-1.807-6.979-3.126-10.607-4.368c-3.874-1.325-7.756-2.693-11.192-4.969
		c-2.645-1.753-4.62-4.019-4.157-7.525c0.454-3.44,2.79-5.305,5.79-6.386c5.257-1.894,10.375-0.852,15.534,0.768
		c2.657,0.834,4.999,4.302,7.567,2.796c2.406-1.411,3.617-4.76,5.544-7.099c1.218-1.478,1.009-2.309-0.412-3.481
		c-9.664-7.971-28.814-8.894-39.373-2.056c-12.329,7.984-13.699,28.117,1.456,35.538c2.838,1.389,5.806,2.516,8.728,3.731
		c3.898,1.62,7.867,3.086,11.7,4.848c3.291,1.514,5.893,3.904,5.591,7.867c-0.317,4.167-3.122,6.53-6.918,7.788
		c-5.929,1.964-11.7,1.214-17.458-0.906c-2.655-0.978-5.208-4.338-7.528-3.169c-2.368,1.193-3.392,4.855-5.297,7.201
		c-1.859,2.289-1.088,3.389,1.084,4.815c6.868,4.506,14.426,6.379,22.531,6.468c6.059,0.057,11.86-1.023,17.179-4.03
		c7.533-4.259,11.411-10.734,11.591-19.382C273.668,175.412,269.539,169.478,262.137,165.536z"/>
	<path style="fill:#FEFEFE;" d="M120.874,201.692c-0.143-7.656,0.118-15.322-0.134-22.972c-0.103-3.115,0.944-3.736,3.803-3.63
		c5.819,0.216,11.651,0.064,17.477,0.064c9.487,0,9.354,0,9.366-9.538c0.004-2.809-1.03-3.238-3.446-3.204
		c-8.076,0.113-16.156-0.028-24.232,0.088c-2.211,0.032-3.016-0.557-2.933-2.856c0.165-4.616,0.176-9.246-0.004-13.861
		c-0.091-2.343,0.787-2.828,2.937-2.791c6.884,0.12,13.771,0.044,20.657,0.044c10.019,0,9.924,0.003,9.663-9.975
		c-0.063-2.403-0.946-2.763-3.039-2.751c-13.771,0.076-27.544,0.117-41.315-0.027c-2.692-0.028-3.248,0.823-3.22,3.325
		c0.127,11.354,0.056,22.711,0.055,34.067c0,8.847-0.073,17.695,0.036,26.54c0.043,3.51-1.591,8.309,0.726,10.177
		c2.189,1.766,6.822,0.379,10.356,0.672C120.368,205.29,120.921,204.182,120.874,201.692z"/>
	<path style="fill:#FEFEFE;" d="M314.683,251.556c-12.155-4.211-25.249-0.19-31.946,9.976c-6.991,10.612-5.82,27.205,2.552,36.17
		c8.43,9.027,22.704,11.176,36.059,5.43c7.922-3.408,7.808-3.401,4.085-11.153c-1.289-2.685-2.391-2.636-4.669-1.287
		c-4.872,2.886-10.192,4.299-15.927,3.889c-5.722-0.409-11.251-4.475-12.684-9.321c-0.618-2.091-0.318-3.175,2.274-3.11
		c5.691,0.142,11.388,0.044,17.082,0.043c5.562-0.001,11.124,0.016,16.686-0.015c1.232-0.007,2.706,0.426,2.825-1.715
		C331.631,269.428,326.909,255.792,314.683,251.556z M314.937,272.433c-3.562-0.088-7.128-0.025-10.692-0.025
		c-3.432,0-6.868-0.095-10.296,0.034c-2.236,0.084-2.365-0.965-1.91-2.674c1.271-4.773,7.065-8.626,12.968-8.583
		c5.756,0.041,10.408,3.578,11.83,8.696C317.392,271.875,316.957,272.483,314.937,272.433z"/>
	<path style="fill:#FEFEFE;" d="M168.273,262.095c0-11.119,0.003-11.057-11.133-10.493c-1.971,0.1-2.462,0.733-2.428,2.55
		c0.091,4.887,0.094,9.777,0.012,14.664c-0.082,4.881,0.507,9.797-0.34,14.636c-1.165,6.66-6.999,11.188-13.259,10.53
		c-5.89-0.62-8.625-4.415-8.632-11.995c-0.006-6.606-0.001-13.211-0.001-19.817c0-11.13,0-11.13-11.055-10.51
		c-0.132,0.007-0.266,0.015-0.397,0c-1.526-0.176-2.123,0.47-2.092,2.022c0.238,11.749-0.64,23.527,0.489,35.245
		c0.842,8.742,6.372,14.425,14.986,16.16c7.638,1.539,14.381-0.303,20.851-5.899c-1.623,5.218,1.139,5.582,4.723,5.233
		c1.575-0.153,3.195-0.177,4.763,0.007c2.766,0.325,3.61-0.679,3.578-3.491C168.192,287.99,168.273,275.042,168.273,262.095z"/>
	<path style="fill:#FEFEFE;" d="M180.647,146.07c-0.139,9.235-0.057,18.473-0.056,27.709c0,6.862-0.029,13.723,0.012,20.585
		c0.021,3.405-1.135,7.978,0.603,9.909c2.024,2.25,6.724,0.326,10.211,0.789c3.239,0.43,3.564-1.061,3.544-3.779
		c-0.117-15.834-0.104-31.669-0.021-47.503c0.018-3.505-1.561-8.177,0.724-10.185c1.961-1.723,6.537-0.539,9.956-0.55
		c9.413-0.029,9.271-0.012,9.379-9.42c0.034-2.973-1.029-3.357-3.622-3.334c-13.629,0.122-27.26,0.057-40.89,0.057
		c-10.156,0-10.086-0.002-9.832,10.101c0.052,2.081,0.62,2.69,2.679,2.629c4.76-0.139,9.534,0.114,14.287-0.108
		C180.157,142.854,180.683,143.69,180.647,146.07z"/>
	<path style="fill:#FEFEFE;" d="M258.248,273.209c-3.882-1.265-7.963-1.963-11.568-4.008c-1.648-0.935-3.322-2.082-3.1-4.2
		c0.23-2.203,1.985-3.263,3.972-3.951c3.837-1.33,7.56-0.374,11.339,0.357c2.365,0.457,4.562,3.38,6.677,1.914
		c1.853-1.285,2.487-4.241,3.839-6.345c1.139-1.772,0.802-2.71-1.107-3.565c-5.158-2.309-10.539-3.427-15.803-3.41
		c-3.565-0.122-6.722,0.227-9.809,1.016c-7.87,2.013-13.031,7.703-13.458,14.729c-0.437,7.195,3.432,12.244,11.775,15.365
		c3.954,1.479,7.934,2.892,11.853,4.457c2.146,0.857,4.297,2.136,3.945,4.813c-0.36,2.739-2.719,3.645-5.154,4.207
		c-6.201,1.433-11.758-0.605-17.162-3.243c-1.388-0.678-2.497-1.148-3.026,0.708c-0.866,3.041-4.755,5.002-3.183,8.883
		c0.082,0.201,0.411,0.325,0.646,0.44c10.808,5.282,21.917,6.999,33.283,2.068c5.821-2.525,8.897-7.299,9.15-13.713
		C271.68,281.536,267.47,276.215,258.248,273.209z"/>
	<path style="fill:#FEFEFE;" d="M207.382,273.259c-3.997-1.34-8.212-2.068-11.919-4.212c-1.535-0.888-2.938-2.05-2.856-3.971
		c0.09-2.121,1.726-3.149,3.521-3.849c4.065-1.584,8.051-0.612,12.085,0.292c2.24,0.501,4.353,3.237,6.374,1.85
		c1.753-1.203,2.427-3.967,3.579-6.041c0.064-0.115,0.122-0.237,0.205-0.338c1.613-1.957,0.554-2.904-1.306-3.71
		c-5.046-2.189-10.3-3.322-14.631-3.282c-4.226-0.068-7.245,0.204-10.221,0.921c-8.13,1.958-13.392,7.515-13.938,14.747
		c-0.537,7.12,3.271,12.169,11.682,15.41c4.182,1.611,8.424,3.072,12.568,4.772c1.871,0.768,3.602,2.075,3.36,4.411
		c-0.251,2.428-2.194,3.488-4.3,4.125c-4.66,1.409-9.137,0.392-13.618-1.023c-2.299-0.726-4.616-3.421-6.682-2.152
		c-1.871,1.149-2.459,4.237-3.88,6.286c-1.641,2.364-0.614,3.335,1.537,4.4c7.066,3.498,14.542,4.914,22.324,4.201
		c7.512-0.688,14.423-2.906,17.835-10.523C223.392,285.994,218.633,277.031,207.382,273.259z"/>
	<path style="fill:#FEFEFE;" d="M352.388,232.715c0.007-2.283-0.377-3.42-2.994-3.173c-2.49,0.235-5.036,0.22-7.529,0.003
		c-2.482-0.216-3.121,0.655-3.095,3.08c0.124,11.34,0.055,22.682,0.055,34.023c0,9.231,0,18.462,0,27.693
		c0,10.238,0,10.15,10.284,10.115c2.573-0.009,3.308-0.678,3.296-3.299C352.297,278.343,352.314,255.529,352.388,232.715z"/>
	<path style="fill:#FEFEFE;" d="M376.198,267.356c0-9.494,0-18.989,0-28.483c0-9.331-0.002-9.211-9.461-9.351
		c-3.025-0.045-4.033,0.63-4.007,3.87c0.161,20.438,0.082,40.878,0.082,61.318c0,9.809,0.001,9.704,9.931,9.753
		c2.74,0.013,3.564-0.677,3.523-3.481C376.101,289.775,376.198,278.565,376.198,267.356z"/>
	<path style="fill:#541832;" d="M75.618,241.852c-6.951,0.302-1.421,6.022-3.126,8.755c-0.297,0.476-0.042,1.294-0.042,1.953
		c0,11.104,0,11.104,10.92,10.586c7.078-0.336,11.517-4.758,11.207-11.165C94.205,244.261,89.074,241.268,75.618,241.852z"/>
	<path style="fill:#541932;" d="M305.008,261.183c-5.903-0.042-11.697,3.811-12.968,8.583c-0.455,1.71-0.326,2.758,1.91,2.674
		c3.427-0.129,6.863-0.034,10.296-0.034c3.564,0,7.13-0.063,10.692,0.025c2.02,0.05,2.455-0.558,1.901-2.553
		C315.416,264.762,310.764,261.225,305.008,261.183z"/>
</g>
</svg>
