<?xml version="1.0" encoding="iso-8859-1"?>
<!-- Generator: Adobe Illustrator 22.1.0, SVG Export Plug-In . SVG Version: 6.00 Build 0)  -->
<svg version="1.1" id="Layer_1" xmlns="http://www.w3.org/2000/svg" xmlns:xlink="http://www.w3.org/1999/xlink" x="0px" y="0px"
	 viewBox="0 0 435.61 436.77" style="enable-background:new 0 0 435.61 436.77;" xml:space="preserve">
<g id="Layer_2_1_">
	<g id="_265">
		<g id="Dash_copy_3">
			<g id="dash_dashcoin">
				<g id="dash_dash">
					
						<ellipse id="&#x42D;&#x43B;&#x43B;&#x438;&#x43F;&#x441;_7" style="fill:#3AB73A;" cx="217.62" cy="218.38" rx="217.63" ry="218.38"/>
				</g>
			</g>
			<g>
				<path style="fill:#FFFFFF;" d="M61.72,150.93c1.6-0.75,3.23-1.43,4.78-2.25c23.213-12.247,46.42-24.497,69.62-36.75
					c1.65-0.87,3.17-2.26,5.27-2c-0.748-1.432-1.054-3.054-0.88-4.66c0-9.66,0-19.327,0-29l0,0c0-12.667-0.023-25.307-0.07-37.92
					c0-1.27-0.4-2.69,0.85-3.69l0,0c-0.26-0.6-0.52-1.2-0.79-1.8h-0.88c-0.409,0.924-0.873,1.822-1.39,2.69
					c-13.267,19.5-26.547,38.997-39.84,58.49c-12.26,18-24.51,36-36.75,54c0,0.95,0,1.9,0,2.85L61.72,150.93z"/>
				<path style="fill:#FFFFFF;" d="M140.54,292.82c0-22.42,0-44.847,0-67.28c0-1.63-0.06-3.26,0.89-4.69l0,0
					c-1.93,0.26-3.35-1-4.88-1.77c-22.913-12.2-45.82-24.403-68.72-36.61c-2.52-1.34-5-2.85-7.89-3.36c-0.26,1,0.45,1.59,1,2.32
					c16.34,23.96,32.673,47.927,49,71.9c9.53,14,19,28,28.63,42c0.57,0.82,0.64,3.58,3,1.66C140,295.82,140.54,294.23,140.54,292.82
					z"/>
				<path style="fill:#FFFFFF;" d="M219.89,178.49c-26.167,14.107-52.33,28.227-78.49,42.36l0,0c0.75,1.36,0.56,2.85,0.56,4.31
					c-0.04,21.6-0.04,43.197,0,64.79c0,2.36-0.37,4.67-0.55,7c0.7-0.95,1.43-1.87,2.08-2.84
					c23.227-34.447,46.437-68.903,69.63-103.37c2.78-4.13,6-8,8-12.58C220.698,178.219,220.285,178.33,219.89,178.49z"/>
				<path style="fill:#FFFFFF;" d="M142,225.16c0-1.46,0.19-2.95-0.56-4.31c-1,1.43-0.89,3.06-0.89,4.69c0,22.433,0,44.86,0,67.28
					c0,1.41-0.5,3,0.88,4.14c0.18-2.34,0.56-4.65,0.55-7C141.947,268.353,141.953,246.753,142,225.16z"/>
				<path style="fill:#FFFFFF;" d="M61.72,150.93c-0.748-0.803-0.748-2.047,0-2.85c-1.65,0.57-1.69,2.35-2.62,3.47
					C60.05,151.82,61,152,61.72,150.93z"/>
				<path style="fill:#FFFFFF;" d="M61.72,150.93L61.72,150.93c0-1,0-1.9,0-2.85C60.972,148.883,60.972,150.127,61.72,150.93z"/>
				<path style="fill:#FFFFFF;" d="M141.86,76.22c0.17,10.25,0,20.51,0.11,30.77c0.105,1.035-0.096,2.079-0.58,3
					c5.16,2.83,10.3,5.7,15.49,8.46c20.26,10.793,40.527,21.557,60.8,32.29c0.734,0.037,1.423-0.353,1.77-1
					c-0.76-1.25-1.46-2.54-2.28-3.74c-14.3-21.047-28.613-42.087-42.94-63.12c-10.86-15.92-21.757-31.79-32.69-47.61c0,1,0,2,0,3
					C142.19,51,141.47,63.59,141.86,76.22z"/>
				<path style="fill:#FFFFFF;" d="M141.86,76.22c-0.39-12.63,0.33-25.27-0.33-37.9c0,11.153-0.047,22.297-0.14,33.43
					c0,1.54,0.58,3.27-0.85,4.56c0,9.667,0,19.333,0,29c-0.174,1.606,0.132,3.228,0.88,4.66c0.484-0.921,0.685-1.965,0.58-3
					C141.83,96.73,142,86.47,141.86,76.22z"/>
				<path style="fill:#FFFFFF;" d="M141.54,35.27c0.087-0.218-0.009-0.467-0.22-0.57l0,0c0,0.28,0,0.56,0.05,0.84
					C141.43,35.45,141.47,35.36,141.54,35.27z"/>
				<path style="fill:#FFFFFF;" d="M140.47,38.39c0,12.667,0.023,25.307,0.07,37.92l0,0c1-4.33,0.35-8.72,0.41-13.08
					c0.12-7.9,0-15.81,0.06-23.72c0-1.32-0.4-2.73,0.36-4c0-0.28,0-0.56-0.05-0.84C140.07,35.7,140.47,37.12,140.47,38.39z"/>
				<path style="fill:#FFFFFF;" d="M141.53,38.32c0-1,0-2,0-3c-0.07,0.09-0.11,0.18-0.17,0.27
					C141.44,36.47,141.49,37.4,141.53,38.32z"/>
				<path style="fill:#FFFFFF;" d="M141.39,71.75c0.08-11.14,0.127-22.283,0.14-33.43c0-0.92-0.09-1.85-0.16-2.78
					c-0.76,1.24-0.35,2.65-0.36,4c0,7.91,0.06,15.82-0.06,23.72c-0.06,4.36,0.56,8.75-0.41,13.08C142,75,141.38,73.29,141.39,71.75z
					"/>
				<path style="fill:#FFFFFF;" d="M217.68,150.71c0.894,0.992,2.115,1.627,3.44,1.79c-0.082-1.134-0.703-2.161-1.67-2.76
					C219.57,151.36,218.8,151.35,217.68,150.71z"/>
				<path style="fill:#FFFFFF;" d="M217.68,150.71c1.12,0.64,1.89,0.65,1.77-1C219.103,150.357,218.414,150.747,217.68,150.71z"/>
				<polygon style="fill:#FFFFFF;" points="140.58,123.44 140.58,123.44 140.58,123.44 				"/>
				<path style="fill:#FFFFFF;" d="M81.79,167c8.76,0.22,17.49,1.55,26.25,2.31c10.8,0.93,21.61,1.76,32.42,2.63l0.1,0.1l0,0
					l-0.11-0.1l0.12-48.49c-0.828,0.257-1.636,0.571-2.42,0.94c-24.433,13.073-48.863,26.147-73.29,39.22
					c-0.83,0.304-1.604,0.743-2.29,1.3c-1.07,1.18,0.26,1.25,0.94,1.56C69.65,164.55,75.7,166.84,81.79,167z"/>
				<path style="fill:#FFFFFF;" d="M215.51,163.43c-16.62-9.1-33.287-18.1-50-27c-8.27-4.38-16.24-9.35-24.9-13
					c1.34,1.42,1.34,3.23,1.35,5c0.047,12.84,0.047,25.683,0,38.53c0.127,1.63-0.198,3.263-0.94,4.72l-0.33,0.33
					c10-0.89,20-1.74,30-2.69c11.64-1.1,23.26-2.37,34.9-3.37c3.75-0.33,7.56-0.07,11.34-0.07l0,0
					C219.62,163.37,215.94,163.67,215.51,163.43z"/>
				<path style="fill:#FFFFFF;" d="M140.57,172h0.09l0.33-0.33c0.742-1.457,1.067-3.09,0.94-4.72c0.047-12.84,0.047-25.683,0-38.53
					c0-1.77,0-3.58-1.35-5l0,0l-0.12,48.49L140.57,172z"/>
				<path style="fill:#FFFFFF;" d="M140.56,202.31c0-10.06,0-20.12,0-30.19c-1.056,0.728-2.363,0.995-3.62,0.74
					c-14.52-1.11-29-2.4-43.55-3.6c-10-0.82-20-1.28-29.88-2.79c24.913,13.26,49.827,26.503,74.74,39.73c1,0.52,2.06,2.05,3.45,0.52
					C140,205.59,140.56,203.84,140.56,202.31z"/>
				<path style="fill:#FFFFFF;" d="M136.94,172.86c1.257,0.255,2.564-0.012,3.62-0.74V172l-0.1-0.1
					c-10.81-0.87-21.62-1.7-32.42-2.63c-8.76-0.76-17.49-2.09-26.25-2.31c-6.09-0.15-12.14-2.44-18.28-0.52
					c9.91,1.51,19.91,2,29.88,2.79C107.91,170.46,122.42,171.75,136.94,172.86z"/>
				<path style="fill:#FFFFFF;" d="M145,172.63c-1.32,0.08-2.64,0.4-3.92-0.17l-0.45-0.39l0,0c0.848,0.996,1.294,2.273,1.25,3.58
					c0,10.36,0.36,20.71-0.15,31.06c6.76-3.57,13.56-7.06,20.27-10.72c18.34-10,36.657-20.037,54.95-30.11l0,0
					c-8,2-16.31,2.1-24.49,2.78C176.61,170,160.83,171.7,145,172.63z"/>
				<path style="fill:#FFFFFF;" d="M140.56,172L140.56,172v0.05l0,0l0,0V172z"/>
				<path style="fill:#FFFFFF;" d="M205.58,166c-11.64,1-23.26,2.27-34.9,3.37c-10,0.95-20,1.8-30,2.69l0,0l0.45,0.39
					c1.28,0.57,2.6,0.25,3.92,0.17c15.85-0.93,31.63-2.67,47.45-4c8.18-0.68,16.46-0.78,24.49-2.78
					C213.14,165.89,209.33,165.63,205.58,166z"/>
				<path style="fill:#FFFFFF;" d="M140.61,172.07L140.61,172.07h-0.09H140.61z"/>
				<path style="fill:#FFFFFF;" d="M141.85,175.66c0.044-1.307-0.402-2.584-1.25-3.58l0,0c0,10.07,0,20.13,0,30.19
					c0,1.53-0.54,3.28,1.14,4.41C142.21,196.37,141.89,186,141.85,175.66z"/>
				<path style="fill:#FFFFFF;" d="M140.56,172v0.09l0,0v-0.05V172z"/>
			</g>
		</g>
		<g>
			<path style="fill:#F7931A;" d="M291.08,284.57c1.42,0.267,3.517,0.643,6.29,1.13c2.313,0.429,4.651,0.706,7,0.83
				c1.9,0.07,4.14,0.09,6.72,0c2.225,0.007,4.438-0.33,6.56-1c1.849-0.63,3.641-1.413,5.36-2.34c1.785-0.969,3.303-2.364,4.42-4.06
				c1.216-1.865,2.074-3.94,2.53-6.12c0.584-2.51,0.584-5.12,0-7.63c-0.491-2.176-1.39-4.239-2.65-6.08
				c-1.419-1.916-3.187-3.548-5.21-4.81c-2.029-1.369-4.17-2.563-6.4-3.57c-2.43-1.038-4.918-1.936-7.45-2.69
				c-2.353-0.756-4.743-1.394-7.16-1.91l-6.71-1.32l-4.93-1L281,282.28l4.29,1C287.73,283.88,289.66,284.3,291.08,284.57z"/>
			<path style="fill:#F7931A;" d="M278,346.09c1.58,0.35,3.8,0.77,6.65,1.28s5.32,0.86,7.4,1.11s4.53,0.41,7.35,0.51
				c2.435,0.104,4.875,0.03,7.3-0.22c2.196-0.274,4.369-0.712,6.5-1.31c2.06-0.532,4.007-1.43,5.75-2.65
				c1.618-1.198,3.024-2.658,4.16-4.32c2.828-4.266,3.735-9.523,2.5-14.49c-0.657-2.453-1.796-4.751-3.35-6.76
				c-1.785-2.144-3.926-3.964-6.33-5.38c-2.451-1.546-5.008-2.92-7.65-4.11c-2.931-1.24-5.937-2.295-9-3.16
				c-3.61-1.06-6.45-1.81-8.53-2.27s-4.76-1-8.07-1.66s-5.28-1-5.95-1.18l-9.3,42.15c0.66,0.14,2.19,0.51,4.6,1.08
				S276.44,345.74,278,346.09z"/>
			<path style="fill:#F7931A;" d="M385.39,79.6L252.05,212.94l10.51,2.38c5.333,1.173,9.377,2.02,12.13,2.54l6.93-31.42l19.21,4.24
				l-6.8,30.8c6.853,1.333,11.94,2.37,15.26,3.11L316,194l19.2,4.24l-6.9,31.46c5.782,1.769,11.413,3.996,16.84,6.66
				c4.658,2.318,8.983,5.251,12.86,8.72c3.674,3.256,6.473,7.382,8.14,12c1.678,4.909,2.158,10.148,1.4,15.28
				c-1.847,15.46-9.66,24.98-23.44,28.56c9.213,4.48,15.547,10.367,19,17.66c3.453,7.293,3.357,16.6-0.29,27.92
				c-1.632,5.291-4.166,10.261-7.49,14.69c-2.836,3.781-6.403,6.954-10.49,9.33c-4.269,2.32-8.908,3.883-13.71,4.62
				c-5.316,0.908-10.713,1.243-16.1,1c-6.228-0.332-12.43-1.047-18.57-2.14l-7,31.8l-19.2-4.24l6.91-31.3
				c-6.667-1.473-11.727-2.633-15.18-3.48L255,398.16l-19.21-4.24l7-31.8c-1.49-0.33-3.73-0.84-6.71-1.55s-5.27-1.22-6.85-1.57
				l-24.94-5.5l8.91-22l13.84,3.06c4.147,0.913,7.023-0.677,8.63-4.77l11.07-50.12l2,0.44c-0.652-0.239-1.32-0.43-2-0.57l7.9-35.78
				c0.167-5.887-2.91-9.53-9.23-10.93l-10.93-2.42L78.45,386.55c86.667,71.823,213.741,65.955,293.42-13.55
				C452.08,292.83,456.58,165.15,385.39,79.6z"/>
			<polygon style="fill:#FFFFFF;" points="289.45,244 289.44,244 289.45,244 289.45,244 			"/>
			<path style="fill:#FFFFFF;" d="M245.48,232.86c6.32,1.387,9.397,5.03,9.23,10.93l-7.9,35.78c0.68,0.14,1.348,0.331,2,0.57
				l-2-0.44l-11.07,50.12c-1.6,4.093-4.477,5.683-8.63,4.77l-13.84-3.06l-8.91,22l24.94,5.5c1.58,0.35,3.86,0.88,6.85,1.57
				s5.22,1.22,6.71,1.55l-7,31.8l19.14,4.21l7-31.42c3.473,0.847,8.533,2.007,15.18,3.48l-6.91,31.3l19.2,4.24l7-31.8
				c6.127,1.091,12.315,1.806,18.53,2.14c5.387,0.243,10.784-0.092,16.1-1c4.802-0.737,9.441-2.3,13.71-4.62
				c4.087-2.376,7.654-5.548,10.49-9.33c3.324-4.429,5.858-9.399,7.49-14.69c3.64-11.333,3.737-20.64,0.29-27.92
				c-3.447-7.28-9.78-13.167-19-17.66c13.78-3.58,21.593-13.1,23.44-28.56c0.758-5.132,0.278-10.371-1.4-15.28
				c-1.667-4.618-4.466-8.744-8.14-12c-3.874-3.468-8.196-6.401-12.85-8.72c-5.427-2.664-11.058-4.891-16.84-6.66l6.94-31.42
				L316,194l-6.75,30.55c-3.333-0.74-8.42-1.777-15.26-3.11l6.8-30.8l-19.21-4.24l-6.93,31.42c-2.767-0.52-6.81-1.367-12.13-2.54
				l-10.51-2.38l-17.5,17.5L245.48,232.86z M289.48,244L289.48,244l4.93,1l6.77,1.36c2.417,0.516,4.807,1.154,7.16,1.91
				c2.532,0.754,5.02,1.652,7.45,2.69c2.23,1.007,4.371,2.201,6.4,3.57c2.023,1.262,3.791,2.894,5.21,4.81
				c1.26,1.841,2.159,3.904,2.65,6.08c0.584,2.51,0.584,5.12,0,7.63c-0.456,2.18-1.314,4.255-2.53,6.12
				c-1.117,1.696-2.635,3.091-4.42,4.06c-1.719,0.927-3.511,1.71-5.36,2.34c-2.122,0.67-4.335,1.007-6.56,1
				c-2.58,0.05-4.82,0-6.72,0c-2.349-0.124-4.687-0.401-7-0.83c-2.767-0.48-4.863-0.857-6.29-1.13c-1.42-0.27-3.35-0.69-5.8-1.28
				l-4.29-1L289.48,244z M276.78,301.48c0.667,0.147,2.65,0.54,5.95,1.18c3.31,0.65,6,1.2,8.07,1.66s4.92,1.21,8.53,2.27
				c3.063,0.865,6.069,1.92,9,3.16c2.642,1.19,5.199,2.564,7.65,4.11c2.404,1.416,4.545,3.236,6.33,5.38
				c1.554,2.009,2.693,4.307,3.35,6.76c1.241,4.964,0.341,10.221-2.48,14.49c-1.136,1.662-2.542,3.122-4.16,4.32
				c-1.743,1.22-3.69,2.118-5.75,2.65c-2.131,0.598-4.304,1.036-6.5,1.31c-2.425,0.25-4.865,0.324-7.3,0.22
				c-2.82-0.1-5.26-0.27-7.35-0.51s-4.55-0.62-7.4-1.11s-5.07-0.93-6.65-1.28s-3.57-0.81-6-1.38s-3.94-0.94-4.6-1.08L276.78,301.48z
				"/>
			<path style="fill:#FFFFFF;" d="M371.87,64.76c0.12,0.12,0.24,0.25,0.37,0.37s0.25,0.25,0.38,0.37l0,0
				c4.5,4.553,8.76,9.25,12.78,14.09l0.25-0.25c-8.428-9.915-17.717-19.064-27.76-27.34l-0.07,0.07c4.82,4,9.487,8.25,14,12.75
				L371.87,64.76z"/>
			<path style="fill:#FFFFFF;" d="M50.87,359l-0.24,0.25c2.047,2.42,4.15,4.797,6.31,7.13l6.67,6.62l0,0
				C59.13,368.48,54.883,363.813,50.87,359z"/>
			<path style="fill:#FFFFFF;" d="M63.61,373l0.75,0.75l-0.37-0.38L63.61,373z"/>
			<path style="fill:#FFFFFF;" d="M371.87,64.76L371.87,64.76l0.38,0.36C372.11,65,372,64.88,371.87,64.76z"/>
			<path style="fill:#FFFFFF;" d="M231.64,229.8l4.52-20.45l15.89,3.59L385.39,79.6c-4-4.84-8.26-9.537-12.78-14.09l-9.31,9.31
				L73.68,364.44l0,0l-9.31,9.32c4.547,4.5,9.24,8.763,14.08,12.79l156.1-156.11L231.64,229.8z"/>
			<path style="fill:#FFFFFF;" d="M63.62,373L63.62,373l0.38,0.37L63.62,373z"/>
			<polygon style="fill:#FFFFFF;" points="231.64,229.8 234.55,230.44 252.05,212.94 236.16,209.35 			"/>
			<path style="fill:#FFFFFF;" d="M64,373.39l0.37,0.38l0,0L64,373.39z"/>
			<path style="fill:#FFFFFF;" d="M72.94,363.69L72.94,363.69L362.56,74.07l9.3-9.3c-4.533-4.487-9.2-8.737-14-12.75L194.5,215.34
				l-27.78,39.29v-11.5l-3.41,3.41v8.09l-3.31-4.74L50.87,359c4,4.82,8.25,9.487,12.75,14L72.94,363.69z"/>
			<path style="fill:#FFFFFF;" d="M372.24,65.13c0.12,0.13,0.24,0.26,0.37,0.38l0,0C372.49,65.38,372.36,65.26,372.24,65.13z"/>
			<path style="fill:#FFFFFF;" d="M371.86,64.77l-9.3,9.3L72.94,363.69l0,0L63.62,373l0.37,0.38l0.38,0.37l9.31-9.32l0,0
				L363.3,74.82l9.31-9.31c-0.13-0.12-0.25-0.25-0.37-0.38L371.86,64.77z"/>
			<polygon style="fill:#FFFFFF;" points="163.31,254.63 163.31,246.54 159.95,249.89 			"/>
			<polygon style="fill:#FFFFFF;" points="166.72,254.63 194.5,215.34 166.72,243.13 			"/>
		</g>
	</g>
</g>
</svg>
