<?xml version="1.0" encoding="iso-8859-1"?>
<!-- Generator: Adobe Illustrator 22.0.1, SVG Export Plug-In . SVG Version: 6.00 Build 0)  -->
<svg version="1.1" id="Layer_1" xmlns="http://www.w3.org/2000/svg" xmlns:xlink="http://www.w3.org/1999/xlink" x="0px" y="0px"
	 viewBox="0 0 438.53 438.53" style="enable-background:new 0 0 438.53 438.53;" xml:space="preserve">
<g id="_x32_7">
	<g>
		<path style="fill:#0052B4;" d="M238.092,157.532l-19.604,14.242l7.489-23.045l-19.604-14.241h24.23l7.488-23.046l7.487,23.046
			h24.231l-19.604,14.241l2.958,9.103L358.991,52.006C310.712,11.81,249.007-4.263,189.984,3.775c0,21.701,0,39.06,0,57.226
			c0,9.575,0,19.376,0,30.165h-67.946l67.947,67.947c0,12.558,0,26.46,0,42.041l-0.001,0.001c0,0.208,0,0.41,0,0.618h-0.001h-0.617
			h-0.001h-42.042l-67.946-67.945v67.945H49.212H2.509c-0.484,5.941-0.742,11.896-0.743,17.853
			c0,49.564,16.767,99.11,50.261,139.345l194.97-194.97L238.092,157.532z M287.414,60.932l6.24-19.205l6.241,19.205h20.192
			L303.75,72.798l6.241,19.204l-16.336-11.87l-16.335,11.87l6.24-19.204l-16.335-11.866
			C267.225,60.932,287.414,60.932,287.414,60.932z"/>
		<path style="fill:#F0F0F0;" d="M189.366,201.774h0.617l-0.309-0.309C189.572,201.568,189.469,201.671,189.366,201.774z"/>
		<path style="fill:#F0F0F0;" d="M99.515,61.001H70.148c-1.563,1.475-3.115,2.969-4.645,4.499
			c-5.836,5.836-11.257,11.931-16.292,18.236v27.572C65.741,94.779,82.987,77.531,99.515,61.001z"/>
		<path style="fill:#F0F0F0;" d="M49.212,111.308v90.466h30.165v-67.945l67.946,67.945h42.042c0.103-0.103,0.206-0.206,0.309-0.309
			L79.378,91.169v-0.002c0,0.002,28.44,0,28.44,0l82.167,82.166c0,7.907,0,24.448,0,27.821v0.001l0.001-0.001
			c0-15.581,0-29.483,0-42.041l-67.947-67.947h67.946c0-10.789,0-20.59,0-30.165h-90.47C82.987,77.531,65.741,94.779,49.212,111.308
			z"/>
		<path style="fill:#F0F0F0;" d="M189.674,201.465c-0.103,0.103-0.206,0.206-0.309,0.309h0.001
			C189.469,201.671,189.572,201.568,189.674,201.465L189.674,201.465z"/>
		<path style="fill:#D80027;" d="M49.212,83.736c-15.244,19.09-26.816,40.168-34.711,62.281
			c10.799-10.798,22.561-22.559,34.711-34.709V83.736z"/>
		<path style="fill:#D80027;" d="M146.023,14.486c-27.501,9.82-53.407,25.322-75.875,46.516h29.367
			C116.258,44.257,132.258,28.254,146.023,14.486z"/>
		<path style="fill:#D80027;" d="M49.212,111.308c-12.15,12.15-23.911,23.911-34.711,34.709
			C8.048,164.091,4.052,182.85,2.509,201.774h46.703C49.212,201.774,49.212,111.308,49.212,111.308z"/>
		<path style="fill:#D80027;" d="M189.984,61.001c0-18.166,0-35.526,0-57.226c-14.912,2.031-29.651,5.601-43.961,10.711
			c-13.765,13.768-29.766,29.771-46.508,46.516L189.984,61.001L189.984,61.001z"/>
		<path style="fill:#D80027;" d="M189.983,201.774L189.983,201.774c0.001-0.207,0.001-0.41,0.001-0.618
			c-0.103,0.103-0.206,0.206-0.309,0.309L189.983,201.774z"/>
		<path style="fill:#D80027;" d="M189.984,173.334l-82.167-82.166c0,0-28.44,0.002-28.44,0v0.002l110.296,110.296
			c0.103-0.103,0.207-0.206,0.31-0.31C189.984,197.782,189.984,181.241,189.984,173.334z"/>
		<path style="fill:#D80027;" d="M189.674,201.465L189.674,201.465c0.104-0.103,0.207-0.206,0.31-0.309v-0.001
			C189.881,201.259,189.777,201.362,189.674,201.465z"/>
		<polygon style="fill:#D80027;" points="277.319,92.002 293.654,80.133 309.99,92.002 303.749,72.798 320.086,60.932 
			299.894,60.932 293.654,41.727 287.414,60.932 267.223,60.932 283.558,72.798 		"/>
		<polygon style="fill:#D80027;" points="269.81,134.488 245.58,134.488 238.092,111.442 230.604,134.488 206.374,134.488 
			225.978,148.729 218.489,171.774 238.092,157.532 246.997,164.001 253.165,157.832 250.207,148.729 		"/>
		<path style="fill:#F0F0F0;" d="M436.054,201.238h-48.548v52.632h46.459C436.772,236.464,437.467,218.782,436.054,201.238z"/>
		<path style="fill:#F0F0F0;" d="M387.506,322.688H143.464l-36.42,36.42h278.741c13.642-16.211,24.554-33.952,32.72-52.619h-30.999
			V322.688z"/>
		<path style="fill:#F0F0F0;" d="M387.506,96v52.619h37.7c-8.354-24.656-21.238-48.1-38.647-69.026L370.152,96H387.506z"/>
		<path style="fill:#F0F0F0;" d="M218.904,436.765c34.977-0.004,69.96-8.352,101.66-25.038H117.24
			C148.94,428.415,183.919,436.765,218.904,436.765z"/>
		<path style="fill:#D80027;" d="M387.506,201.238h48.548c-1.436-17.831-5.052-35.514-10.848-52.619h-37.7V201.238z"/>
		<path style="fill:#D80027;" d="M387.506,306.489h30.999c7.409-16.936,12.559-34.629,15.46-52.619h-46.459L387.506,306.489
			L387.506,306.489z"/>
		<path style="fill:#D80027;" d="M79.625,386.527c11.818,9.835,24.423,18.256,37.614,25.2h203.325
			c18.886-9.941,36.607-22.838,52.466-38.7c4.494-4.493,8.735-9.144,12.754-13.919h-278.74L79.625,386.527z"/>
		<polygon style="fill:#2E52B2;" points="328.826,148.053 333.911,132.408 338.989,148.053 355.437,148.053 354.658,148.619 
			387.506,148.619 387.506,96 370.152,96 318.099,148.053 		"/>
		<polygon style="fill:#2E52B2;" points="338.989,204.508 355.437,204.508 342.128,214.171 347.213,229.814 333.911,220.15 
			320.602,229.814 325.686,214.171 312.379,204.508 328.826,204.508 329.889,201.238 268.413,201.238 269.475,204.508 
			285.923,204.508 272.614,214.171 277.699,229.814 264.396,220.15 251.089,229.814 256.172,214.171 253.744,212.408 
			212.282,253.87 261.616,253.87 264.396,245.318 267.172,253.87 331.131,253.87 333.911,245.318 336.688,253.87 387.506,253.87 
			387.506,201.238 337.928,201.238 		"/>
		<polygon style="fill:#2E52B2;" points="143.464,322.688 387.506,322.688 387.506,306.489 159.663,306.489 		"/>
		<polygon style="fill:#2E52B2;" points="354.658,148.619 342.128,157.718 347.213,173.36 333.911,163.696 320.602,173.36 
			325.686,157.718 315.693,150.459 267.555,198.597 268.413,201.238 329.889,201.238 333.911,188.864 337.928,201.238 
			387.506,201.238 387.506,148.619 		"/>
		<polygon style="fill:#2E52B2;" points="338.989,260.961 355.437,260.961 342.128,270.625 347.213,286.268 333.911,276.604 
			320.602,286.268 325.686,270.625 312.379,260.961 328.826,260.961 331.131,253.87 267.172,253.87 269.475,260.961 
			285.923,260.961 272.614,270.625 277.699,286.268 264.396,276.604 251.089,286.268 256.172,270.625 242.864,260.961 
			259.312,260.961 261.616,253.87 212.282,253.87 205.191,260.961 216.408,260.961 203.099,270.625 208.183,286.268 
			194.882,276.604 181.573,286.268 182.387,283.765 159.663,306.489 387.506,306.489 387.506,253.87 336.688,253.87 		"/>
		<polygon style="fill:#F0F0F0;" points="181.573,286.268 194.882,276.604 208.183,286.268 203.099,270.625 216.408,260.961 
			205.191,260.961 182.387,283.765 		"/>
		<polygon style="fill:#F0F0F0;" points="253.744,212.408 256.172,214.171 251.089,229.814 264.396,220.15 277.699,229.814 
			272.614,214.171 285.923,204.508 269.475,204.508 268.413,201.238 264.914,201.238 		"/>
		<polygon style="fill:#F0F0F0;" points="268.413,201.238 267.555,198.597 264.914,201.238 		"/>
		<polygon style="fill:#F0F0F0;" points="264.396,245.318 261.616,253.87 267.172,253.87 		"/>
		<polygon style="fill:#F0F0F0;" points="242.864,260.961 256.172,270.625 251.089,286.268 264.396,276.604 277.699,286.268 
			272.614,270.625 285.923,260.961 269.475,260.961 267.172,253.87 261.616,253.87 259.312,260.961 		"/>
		<polygon style="fill:#F0F0F0;" points="333.911,245.318 331.131,253.87 336.688,253.87 		"/>
		<polygon style="fill:#F0F0F0;" points="312.379,260.961 325.686,270.625 320.602,286.268 333.911,276.604 347.213,286.268 
			342.128,270.625 355.437,260.961 338.989,260.961 336.688,253.87 331.131,253.87 328.826,260.961 		"/>
		<polygon style="fill:#F0F0F0;" points="312.379,204.508 325.686,214.171 320.602,229.814 333.911,220.15 347.213,229.814 
			342.128,214.171 355.437,204.508 338.989,204.508 337.928,201.238 329.889,201.238 328.826,204.508 		"/>
		<polygon style="fill:#F0F0F0;" points="333.911,188.864 329.889,201.238 337.928,201.238 		"/>
		<polygon style="fill:#F0F0F0;" points="338.989,148.053 333.911,132.408 328.826,148.053 318.099,148.053 317.533,148.619 
			354.658,148.619 355.437,148.053 		"/>
		<polygon style="fill:#F0F0F0;" points="315.693,150.459 325.686,157.718 320.602,173.36 333.911,163.696 347.213,173.36 
			342.128,157.718 354.658,148.619 317.533,148.619 		"/>
		<path style="fill:#FFFFFF;" d="M65.52,373.757l-0.009,0.009l4.476,4.476c3.104,2.877,6.287,5.672,9.555,8.369l0.084-0.084
			c-2.656-2.211-5.286-4.469-7.859-6.825C69.655,377.768,67.572,375.786,65.52,373.757z"/>
		<path style="fill:#FFFFFF;" d="M64.764,373.02l0.746,0.746c-0.123-0.123-0.241-0.25-0.364-0.373
			C65.02,373.267,64.89,373.146,64.764,373.02z"/>
		<path style="fill:#FFFFFF;" d="M373.031,64.754c0.126,0.126,0.246,0.256,0.372,0.383c0.123,0.123,0.251,0.24,0.374,0.363
			l-0.011,0.011c4.506,4.549,8.772,9.247,12.794,14.082l0.244-0.244c-8.418-9.927-17.705-19.102-27.756-27.399l-0.056,0.056
			c4.817,4.01,9.495,8.268,14.028,12.759L373.031,64.754z"/>
		<path style="fill:#FFFFFF;" d="M52.027,358.971l-0.248,0.248c2.055,2.421,4.158,4.8,6.315,7.13l6.671,6.671l0.01-0.01
			C60.283,368.476,56.037,363.789,52.027,358.971z"/>
		<path style="fill:#FFFFFF;" d="M65.146,373.393c0.123,0.124,0.241,0.25,0.364,0.373l0.009-0.009
			C65.396,373.634,65.27,373.516,65.146,373.393z"/>
		<path style="fill:#FFFFFF;" d="M71.766,366.019l2.326-2.326l0,0l4.585-4.585l36.42-36.42l16.199-16.199l44.066-44.066l1.462-1.462
			l7.091-7.091l24.146-24.146l0.071-0.071l28.416-28.416l33.463-33.463l4.432-4.432l14.723-14.723L341.784,96l21.932-21.932
			l9.303-9.303c-4.533-4.491-9.211-8.749-14.028-12.759L253.165,157.832l4.531,13.941L246.997,164L52.027,358.97
			c4.011,4.818,8.256,9.505,12.747,14.04L71.766,366.019z"/>
		<path style="fill:#FFFFFF;" d="M373.776,65.5c-0.123-0.123-0.251-0.24-0.374-0.363c0.123,0.123,0.241,0.25,0.363,0.374
			L373.776,65.5z"/>
		<polygon style="fill:#FFFFFF;" points="257.696,171.774 253.165,157.832 246.997,164.001 		"/>
		<polygon style="fill:#FFFFFF;" points="80.169,359.108 107.044,359.108 143.464,322.688 116.589,322.688 		"/>
		<polygon style="fill:#FFFFFF;" points="115.097,322.688 78.677,359.108 80.169,359.108 116.589,322.688 		"/>
		<path style="fill:#FFFFFF;" d="M364.462,74.814L343.276,96h26.875l16.408-16.408c-4.022-4.835-8.287-9.533-12.794-14.082
			L364.462,74.814z"/>
		<path style="fill:#FFFFFF;" d="M373.031,64.754l-0.011,0.011c0.127,0.125,0.257,0.246,0.383,0.372
			C373.277,65.011,373.157,64.88,373.031,64.754z"/>
		<path style="fill:#FFFFFF;" d="M364.462,74.814l9.304-9.304c-0.123-0.124-0.24-0.25-0.363-0.374
			c-0.126-0.126-0.256-0.246-0.383-0.372l-9.303,9.303L341.784,96h1.492L364.462,74.814z"/>
		<path style="fill:#FFFFFF;" d="M64.774,373.011l-0.01,0.01c0.126,0.126,0.255,0.247,0.382,0.372
			C65.02,373.266,64.899,373.137,64.774,373.011z"/>
		<path style="fill:#FFFFFF;" d="M71.766,379.701V367.51l-6.246,6.246C67.572,375.786,69.655,377.768,71.766,379.701z"/>
		<path style="fill:#FFFFFF;" d="M64.774,373.011c0.125,0.127,0.247,0.256,0.372,0.382c0.124,0.123,0.25,0.242,0.373,0.364
			l6.246-6.246v-1.492L64.774,373.011z"/>
		<path style="fill:#FFFFFF;" d="M80.169,359.108l-5.331,5.331l0,0l-3.072,3.072v12.191c2.573,2.356,5.203,4.615,7.859,6.825
			l27.419-27.419H80.169z"/>
		<polygon style="fill:#FFFFFF;" points="74.092,363.693 74.092,363.693 71.766,366.019 71.766,367.511 74.838,364.439 
			74.838,364.439 80.169,359.108 78.677,359.108 		"/>
		<polygon style="fill:#FFFFFF;" points="313.159,148.619 312.379,148.053 318.099,148.053 370.152,96 343.276,96 290.657,148.619 
					"/>
		<polygon style="fill:#FFFFFF;" points="343.276,96 341.784,96 289.165,148.619 290.657,148.619 		"/>
		<polygon style="fill:#FFFFFF;" points="259.312,204.508 260.374,201.238 238.039,201.238 185.406,253.87 192.102,253.87 
			194.882,245.318 197.658,253.87 212.282,253.87 253.744,212.408 242.864,204.508 		"/>
		<polygon style="fill:#FFFFFF;" points="238.039,201.238 236.547,201.238 208.131,229.654 208.183,229.814 208.06,229.724 
			183.914,253.87 185.406,253.87 		"/>
		<polygon style="fill:#FFFFFF;" points="132.788,306.489 116.589,322.688 143.464,322.688 159.663,306.489 		"/>
		<polygon style="fill:#FFFFFF;" points="132.788,306.489 131.296,306.489 115.097,322.688 116.589,322.688 		"/>
		<polygon style="fill:#FFFFFF;" points="290.657,148.619 274.808,164.469 277.699,173.36 270.874,168.402 238.039,201.238 
			260.374,201.238 264.396,188.864 267.555,198.597 315.693,150.459 313.159,148.619 		"/>
		<polygon style="fill:#FFFFFF;" points="270.874,168.402 270.01,167.775 236.547,201.238 238.039,201.238 		"/>
		<polygon style="fill:#FFFFFF;" points="290.657,148.619 289.165,148.619 274.442,163.343 274.808,164.469 		"/>
		<polygon style="fill:#FFFFFF;" points="199.959,260.961 205.191,260.961 212.282,253.87 197.658,253.87 		"/>
		<polygon style="fill:#FFFFFF;" points="176.226,263.05 132.788,306.489 159.663,306.489 182.387,283.765 186.658,270.625 		"/>
		<polygon style="fill:#FFFFFF;" points="176.226,263.05 175.362,262.423 131.296,306.489 132.788,306.489 		"/>
		<polygon style="fill:#FFFFFF;" points="192.102,253.87 185.406,253.87 178.316,260.961 189.797,260.961 		"/>
		<polygon style="fill:#FFFFFF;" points="185.406,253.87 183.914,253.87 176.824,260.961 178.316,260.961 		"/>
		<polygon style="fill:#FFFFFF;" points="208.131,229.654 208.06,229.724 208.183,229.814 		"/>
		<polygon style="fill:#FFFFFF;" points="194.882,245.318 192.102,253.87 197.658,253.87 		"/>
		<polygon style="fill:#FFFFFF;" points="197.658,253.87 192.102,253.87 189.797,260.961 178.316,260.961 176.226,263.05 
			186.658,270.625 182.387,283.765 205.191,260.961 199.959,260.961 		"/>
		<polygon style="fill:#FFFFFF;" points="178.316,260.961 176.824,260.961 175.362,262.423 176.226,263.05 		"/>
		<polygon style="fill:#FFFFFF;" points="260.374,201.238 259.312,204.508 242.864,204.508 253.744,212.408 264.914,201.238 		"/>
		<polygon style="fill:#FFFFFF;" points="260.374,201.238 264.914,201.238 267.555,198.597 264.396,188.864 		"/>
		<polygon style="fill:#FFFFFF;" points="274.808,164.469 270.874,168.402 277.699,173.36 		"/>
		<polygon style="fill:#FFFFFF;" points="274.808,164.469 274.442,163.343 270.01,167.775 270.874,168.402 		"/>
		<polygon style="fill:#FFFFFF;" points="318.099,148.053 312.379,148.053 313.159,148.619 317.533,148.619 		"/>
		<polygon style="fill:#FFFFFF;" points="313.159,148.619 315.693,150.459 317.533,148.619 		"/>
	</g>
</g>
</svg>
