<?xml version="1.0" encoding="iso-8859-1"?>
<!-- Generator: Adobe Illustrator 22.1.0, SVG Export Plug-In . SVG Version: 6.00 Build 0)  -->
<svg version="1.1" id="Layer_1" xmlns="http://www.w3.org/2000/svg" xmlns:xlink="http://www.w3.org/1999/xlink" x="0px" y="0px"
	 viewBox="0 0 435.61 436.77" style="enable-background:new 0 0 435.61 436.77;" xml:space="preserve">
<g id="Layer_2_1_">
	<g id="_271">
		<g id="Layer_170">
			<g>
				<path style="fill:#FF6600;" d="M217.63,0C97.43,0,0,97.77,0,218.38s97.43,218.39,217.63,218.39S435.25,339,435.25,218.38
					S337.82,0,217.63,0z M273.26,203.6H219v-68.13L182.54,172l-19.23,19.2L144.08,172l0,0l-36.5-36.51v68.11H53.36v-26.23h26.31
					V69.11l83.64,83.64l83.63-83.64v108.26h26.32V203.6z"/>
				<polygon style="fill:#F4F4F4;" points="246.94,69.11 163.31,152.75 79.67,69.11 79.67,177.37 53.36,177.37 53.36,203.6 
					107.58,203.6 107.58,135.47 144.08,171.98 144.08,171.97 144.08,171.97 163.31,191.2 182.54,171.97 219.04,135.47 219.04,203.6 
					273.25,203.6 273.25,177.37 246.94,177.37 				"/>
			</g>
		</g>
		<g>
			<path style="fill:#F7931A;" d="M291.08,284.57c1.42,0.267,3.517,0.643,6.29,1.13c2.313,0.429,4.651,0.706,7,0.83
				c1.9,0.07,4.14,0.09,6.72,0c2.225,0.007,4.438-0.33,6.56-1c1.849-0.63,3.641-1.413,5.36-2.34c1.785-0.969,3.303-2.364,4.42-4.06
				c1.216-1.865,2.074-3.94,2.53-6.12c0.584-2.51,0.584-5.12,0-7.63c-0.491-2.176-1.39-4.239-2.65-6.08
				c-1.419-1.916-3.187-3.548-5.21-4.81c-2.029-1.369-4.17-2.563-6.4-3.57c-2.43-1.038-4.918-1.936-7.45-2.69
				c-2.353-0.756-4.743-1.394-7.16-1.91l-6.71-1.32l-4.93-1L281,282.28l4.29,1C287.73,283.88,289.66,284.3,291.08,284.57z"/>
			<path style="fill:#F7931A;" d="M278,346.09c1.58,0.35,3.8,0.77,6.65,1.28s5.32,0.86,7.4,1.11s4.53,0.41,7.35,0.51
				c2.435,0.104,4.875,0.03,7.3-0.22c2.196-0.274,4.369-0.712,6.5-1.31c2.06-0.532,4.007-1.43,5.75-2.65
				c1.618-1.198,3.024-2.658,4.16-4.32c2.828-4.266,3.735-9.523,2.5-14.49c-0.657-2.453-1.796-4.751-3.35-6.76
				c-1.785-2.144-3.926-3.964-6.33-5.38c-2.451-1.546-5.008-2.92-7.65-4.11c-2.931-1.24-5.937-2.295-9-3.16
				c-3.61-1.06-6.45-1.81-8.53-2.27s-4.76-1-8.07-1.66s-5.28-1-5.95-1.18l-9.3,42.15c0.66,0.14,2.19,0.51,4.6,1.08
				S276.44,345.74,278,346.09z"/>
			<path style="fill:#F7931A;" d="M385.39,79.6L252.05,212.94l10.51,2.38c5.333,1.173,9.377,2.02,12.13,2.54l6.93-31.42l19.21,4.24
				l-6.8,30.8c6.853,1.333,11.94,2.37,15.26,3.11L316,194l19.2,4.24l-6.9,31.46c5.782,1.769,11.413,3.996,16.84,6.66
				c4.658,2.318,8.983,5.251,12.86,8.72c3.674,3.256,6.473,7.382,8.14,12c1.678,4.909,2.158,10.148,1.4,15.28
				c-1.847,15.46-9.66,24.98-23.44,28.56c9.213,4.48,15.547,10.367,19,17.66c3.453,7.293,3.357,16.6-0.29,27.92
				c-1.632,5.291-4.166,10.261-7.49,14.69c-2.836,3.781-6.403,6.954-10.49,9.33c-4.269,2.32-8.908,3.883-13.71,4.62
				c-5.316,0.908-10.713,1.243-16.1,1c-6.228-0.332-12.43-1.047-18.57-2.14l-7,31.8l-19.2-4.24l6.91-31.3
				c-6.667-1.473-11.727-2.633-15.18-3.48L255,398.16l-19.21-4.24l7-31.8c-1.49-0.33-3.73-0.84-6.71-1.55s-5.27-1.22-6.85-1.57
				l-24.94-5.5l8.91-22l13.84,3.06c4.147,0.913,7.023-0.677,8.63-4.77l11.07-50.12l2,0.44c-0.652-0.239-1.32-0.43-2-0.57l7.9-35.78
				c0.167-5.887-2.91-9.53-9.23-10.93l-10.93-2.42L78.45,386.55c86.667,71.823,213.741,65.955,293.42-13.55
				C452.08,292.83,456.58,165.15,385.39,79.6z"/>
			<polygon style="fill:#FFFFFF;" points="289.45,244 289.44,244 289.45,244 289.45,244 			"/>
			<path style="fill:#FFFFFF;" d="M245.48,232.86c6.32,1.387,9.397,5.03,9.23,10.93l-7.9,35.78c0.68,0.14,1.348,0.331,2,0.57
				l-2-0.44l-11.07,50.12c-1.6,4.093-4.477,5.683-8.63,4.77l-13.84-3.06l-8.91,22l24.94,5.5c1.58,0.35,3.86,0.88,6.85,1.57
				s5.22,1.22,6.71,1.55l-7,31.8l19.14,4.21l7-31.42c3.473,0.847,8.533,2.007,15.18,3.48l-6.91,31.3l19.2,4.24l7-31.8
				c6.127,1.091,12.315,1.806,18.53,2.14c5.387,0.243,10.784-0.092,16.1-1c4.802-0.737,9.441-2.3,13.71-4.62
				c4.087-2.376,7.654-5.548,10.49-9.33c3.324-4.429,5.858-9.399,7.49-14.69c3.64-11.333,3.737-20.64,0.29-27.92
				c-3.447-7.28-9.78-13.167-19-17.66c13.78-3.58,21.593-13.1,23.44-28.56c0.758-5.132,0.278-10.371-1.4-15.28
				c-1.667-4.618-4.466-8.744-8.14-12c-3.874-3.468-8.196-6.401-12.85-8.72c-5.427-2.664-11.058-4.891-16.84-6.66l6.94-31.42
				L316,194l-6.75,30.55c-3.333-0.74-8.42-1.777-15.26-3.11l6.8-30.8l-19.21-4.24l-6.93,31.42c-2.767-0.52-6.81-1.367-12.13-2.54
				l-10.51-2.38l-17.5,17.5L245.48,232.86z M289.48,244L289.48,244l4.93,1l6.77,1.36c2.417,0.516,4.807,1.154,7.16,1.91
				c2.532,0.754,5.02,1.652,7.45,2.69c2.23,1.007,4.371,2.201,6.4,3.57c2.023,1.262,3.791,2.894,5.21,4.81
				c1.26,1.841,2.159,3.904,2.65,6.08c0.584,2.51,0.584,5.12,0,7.63c-0.456,2.18-1.314,4.255-2.53,6.12
				c-1.117,1.696-2.635,3.091-4.42,4.06c-1.719,0.927-3.511,1.71-5.36,2.34c-2.122,0.67-4.335,1.007-6.56,1
				c-2.58,0.05-4.82,0-6.72,0c-2.349-0.124-4.687-0.401-7-0.83c-2.767-0.48-4.863-0.857-6.29-1.13c-1.42-0.27-3.35-0.69-5.8-1.28
				l-4.29-1L289.48,244z M276.78,301.48c0.667,0.147,2.65,0.54,5.95,1.18c3.31,0.65,6,1.2,8.07,1.66s4.92,1.21,8.53,2.27
				c3.063,0.865,6.069,1.92,9,3.16c2.642,1.19,5.199,2.564,7.65,4.11c2.404,1.416,4.545,3.236,6.33,5.38
				c1.554,2.009,2.693,4.307,3.35,6.76c1.241,4.964,0.341,10.221-2.48,14.49c-1.136,1.662-2.542,3.122-4.16,4.32
				c-1.743,1.22-3.69,2.118-5.75,2.65c-2.131,0.598-4.304,1.036-6.5,1.31c-2.425,0.25-4.865,0.324-7.3,0.22
				c-2.82-0.1-5.26-0.27-7.35-0.51s-4.55-0.62-7.4-1.11s-5.07-0.93-6.65-1.28s-3.57-0.81-6-1.38s-3.94-0.94-4.6-1.08L276.78,301.48z
				"/>
			<path style="fill:#FFFFFF;" d="M371.87,64.76c0.12,0.12,0.24,0.25,0.37,0.37s0.25,0.25,0.38,0.37l0,0
				c4.5,4.553,8.76,9.25,12.78,14.09l0.25-0.25c-8.428-9.915-17.717-19.064-27.76-27.34l-0.07,0.07c4.82,4,9.487,8.25,14,12.75
				L371.87,64.76z"/>
			<path style="fill:#FFFFFF;" d="M50.87,359l-0.24,0.25c2.047,2.42,4.15,4.797,6.31,7.13l6.67,6.62l0,0
				C59.13,368.48,54.883,363.813,50.87,359z"/>
			<path style="fill:#FFFFFF;" d="M63.61,373l0.75,0.75l-0.37-0.38L63.61,373z"/>
			<path style="fill:#FFFFFF;" d="M371.87,64.76L371.87,64.76l0.38,0.36C372.11,65,372,64.88,371.87,64.76z"/>
			<path style="fill:#FFFFFF;" d="M231.64,229.8l4.52-20.45l15.89,3.59L385.39,79.6c-4-4.84-8.26-9.537-12.78-14.09l-9.31,9.31
				L73.68,364.44l0,0l-9.31,9.32c4.547,4.5,9.24,8.763,14.08,12.79l156.1-156.11L231.64,229.8z"/>
			<path style="fill:#FFFFFF;" d="M63.62,373L63.62,373l0.38,0.37L63.62,373z"/>
			<polygon style="fill:#FFFFFF;" points="231.64,229.8 234.55,230.44 252.05,212.94 236.16,209.35 			"/>
			<path style="fill:#FFFFFF;" d="M64,373.39l0.37,0.38l0,0L64,373.39z"/>
			<path style="fill:#FFFFFF;" d="M72.94,363.69L72.94,363.69L362.56,74.07l9.3-9.3c-4.533-4.487-9.2-8.737-14-12.75L194.5,215.34
				l-27.78,39.29v-11.5l-3.41,3.41v8.09l-3.31-4.74L50.87,359c4,4.82,8.25,9.487,12.75,14L72.94,363.69z"/>
			<path style="fill:#FFFFFF;" d="M372.24,65.13c0.12,0.13,0.24,0.26,0.37,0.38l0,0C372.49,65.38,372.36,65.26,372.24,65.13z"/>
			<path style="fill:#FFFFFF;" d="M371.86,64.77l-9.3,9.3L72.94,363.69l0,0L63.62,373l0.37,0.38l0.38,0.37l9.31-9.32l0,0
				L363.3,74.82l9.31-9.31c-0.13-0.12-0.25-0.25-0.37-0.38L371.86,64.77z"/>
			<polygon style="fill:#FFFFFF;" points="163.31,254.63 163.31,246.54 159.95,249.89 			"/>
			<polygon style="fill:#FFFFFF;" points="166.72,254.63 194.5,215.34 166.72,243.13 			"/>
		</g>
	</g>
</g>
</svg>
