<?xml version="1.0" encoding="utf-8"?>
<!-- Generator: Adobe Illustrator 23.0.1, SVG Export Plug-In . SVG Version: 6.00 Build 0)  -->
<svg version="1.1" id="Layer_1" xmlns="http://www.w3.org/2000/svg" xmlns:xlink="http://www.w3.org/1999/xlink" x="0px" y="0px"
	 viewBox="0 0 435 435" style="enable-background:new 0 0 435 435;" xml:space="preserve">
<style type="text/css">
	.st0{fill:#F4F4F4;}
</style>
<path class="st0" d="M312.2,222.4c0,1.9,0.7,5.7,5.2,5.7c1.8,0,4.2-1,7.4-3.9l0.1-0.1l0.1-0.3v-10.4
	C320.4,213.4,312.2,216.4,312.2,222.4z"/>
<path class="st0" d="M118.9,187h-3.4v22.8h3.7c8.7,0,12.9-3.7,12.9-11.1S129.8,187,118.9,187z"/>
<path class="st0" d="M284.3,199.1c-4.5,0-6.6,4.5-6.6,10.5c0,8.5,2.4,10.1,6.6,10.1c3.9,0,6.8-1.2,6.8-10.2
	C291.1,203.2,289.6,199.1,284.3,199.1z"/>
<path class="st0" d="M220.7,199.4c-7.7,0-8.3,6.6-8.3,15.5c0,11.5,1.1,15,8.3,15c6.4,0,8.4-4,8.4-15.6
	C229.1,206.2,229,199.4,220.7,199.4z"/>
<path class="st0" d="M405.8,108.3c-19-32.9-46.3-60.2-79.2-79.2C293.4,9.7,257,0,217.5,0s-75.8,9.7-109.2,29.2
	c-32.9,19-60.2,46.3-79.2,79.2C9.7,141.7,0,178,0,217.5s9.7,75.8,29.2,109.2c19,32.9,46.3,60.2,79.2,79.1
	C141.7,425.3,178,435,217.5,435s75.9-9.7,109.2-29.2c32.9-19,60.2-46.3,79.1-79.1C425.3,293.4,435,257,435,217.5
	S425.3,141.6,405.8,108.3z M84.6,217c0,11.3-5.4,14.8-15.5,14.8c-8.5,0-10.4-3.3-10.4-7.5c0-1,0.4-4.1,3.5-4.1
	c3.1,0,3.3,2.1,3.3,5.5c-0.2,2.1,1.4,4,3.6,4.2c0.2,0,0.4,0,0.7,0c5.8,0,8.3-2.6,8.3-11.9v-31h-6v-1.6h18.7v1.6h-6.1V217z
	 M95.9,230.8c-0.7,0.7-1.6,1.1-2.6,1.1c-1,0-1.9-0.4-2.6-1.1c-0.7-0.7-1.1-1.6-1.1-2.6c-0.1-2,1.5-3.8,3.5-3.9
	c2-0.1,3.8,1.5,3.9,3.5c0,0.1,0,0.3,0,0.4C97,229.2,96.6,230.1,95.9,230.8L95.9,230.8z M137.4,230.8c-1.5,1.4-3.8,1.4-5.2,0
	c-0.7-0.7-1-1.6-1-2.6c0-2,1.5-3.6,3.5-3.6c0.1,0,0.1,0,0.2,0c1,0,1.9,0.3,2.6,1c0.7,0.7,1.1,1.6,1.1,2.6
	C138.5,229.1,138.1,230.1,137.4,230.8L137.4,230.8z M120.4,211.5h-4.9v12.1c-0.1,1,0.1,2,0.5,2.9c0.4,1,1.3,1.7,2.3,2.1
	c1.2,0.4,2.5,0.5,3.8,0.5v1.4h-19.7v-1.5c1.3,0,2.5-0.2,3.8-0.6c1-0.3,1.8-1.1,2.2-2.1c0.3-0.8,0.5-1.5,0.5-4.3v-35.4h-5.4v-1.6
	h18.3c14.3,0,16.8,5.4,16.8,13.1S134.5,211.5,120.4,211.5L120.4,211.5z M202.1,230.6h-17.9v-1.5c1.1,0,2.2-0.2,3.3-0.6
	c0.9-0.4,1.6-1.2,1.9-2.1c0.3-1,0.4-2.1,0.4-3.2V192h-0.4l-15.6,38.6h-1.4c-0.2-0.4-16.7-39-16.7-39H155v30.3l0.1,3.2
	c0.1,0.8,0.3,1.6,0.8,2.2c0.5,0.7,1.3,1.2,2.1,1.4c0.7,0.2,1.4,0.4,2.2,0.4v1.4h-12.8v-1.5c0.9,0,1.8-0.1,2.6-0.4
	c0.8-0.3,1.6-0.8,2.1-1.5c0.4-0.7,0.7-1.4,0.8-2.2l0.1-3.2v-35.1h-5.6v-1.5h12.9c0.2,0.4,14.8,34.6,14.8,34.6l0.3,0.2l0.3-0.2
	c0,0,13.7-34.1,13.9-34.6h11.6v1.4l-4.8,0.1v36.4c0,1,0.1,2.1,0.4,3.1c0.3,1,1.1,1.8,2,2.2c1,0.4,2.2,0.6,3.3,0.6L202.1,230.6z
	 M220.6,231.9c-2.7,0-15.3-1.1-15.3-17.2c0-11,6-17.3,15.5-17.3c8.8,0,15.3,6,15.3,17C236.1,228.6,226,231.9,220.6,231.9
	L220.6,231.9z M266.3,205.6c-4.2,2.3-4.1-3.4-7.8-3.4c-3.5,0-6.5,4.5-6.5,8.4v11.6c0,2.3,0.3,3.9,0.9,4.8s1.7,1.6,4.1,1.6h1v2h-18.5
	v-2h1c2.3,0,3.6-0.6,4.2-1.7c0.6-1.5,0.8-3.1,0.7-4.7v-15.5c0-1.8,0-6.9,0-6.9h-6v-1.7h11c0.3,1.5,1.1,6.5,1.1,6.4h0.4
	c1.6-3.4,3.4-6.8,9-6.8C268.1,197.8,268.5,204.4,266.3,205.6L266.3,205.6z M303.4,201c-0.6,1.1-1.7,1.9-2.9,2.1
	c-1.3,0.4-2.7,0.4-4,0.1c0.9,1.9,1.3,4,1.3,6.1c0,8.6-6.6,11.2-13.6,12.3s-9,2-9,4.2c0,1.5,1,2.4,5.9,2.4c10.3,0.5,14.8-0.1,18,4.4
	c1.1,1.7,1.6,3.6,1.5,5.6c0,1.9-0.5,3.7-1.4,5.3c-1.2,2-3,3.6-5.1,4.5c-2.5,1.2-5.9,1.9-10.1,1.9c-3.1,0.1-6.1-0.4-9-1.3
	c-2.3-0.7-5.3-2.5-5.3-6.3c-0.1-1,0.2-2.1,0.7-3c0.6-0.9,1.7-1.4,2.8-1.2c1.8,0.3,2.3,1.9,2,3.4c-0.5,1.8,0.2,3.6,1.7,4.7
	c2.3,1.4,4.9,1.8,8,1.8c3,0.1,6-0.5,8.8-1.8c2.3-1.3,3.5-3,3.5-5.2c0.1-1.4-0.5-2.7-1.6-3.6c-1.3-0.8-2.7-1.3-4.2-1.5
	c-1.6-0.2-4.1-0.3-7.7-0.4c-3.2,0.1-6.5-0.4-9.6-1.5c-2.3-0.7-3.8-2.9-3.7-5.2c0-4.7,4.4-6.1,9.3-7.1c0.3-0.1,0.3-0.5,0-0.5
	c-5.8-1.2-8.4-4.5-8.4-11.4c0-5.9,4-12.3,13-12.3c5.6,0,8.8,1.9,10.4,3.4c0.7,0.3,1.5,0.4,2.3,0.2c0.7-0.2,1.2-1,1.4-2.3
	c0.1-1.2,0.8-2.1,1.9-2.6c0.3-0.1,0.7-0.2,1.1-0.2c1.2,0,2,0.8,2.4,2.3C304,199.1,303.9,200.1,303.4,201z M331.4,231.1
	c-3,0.1-5.7-2-6.3-5c-2.3,2.4-5.6,5.4-10.8,5.4c-4.5,0.1-8.3-3.3-8.7-7.8c-0.6-10.6,13.4-11.8,19.3-12.3V206
	c0.1-1.7-0.4-3.3-1.3-4.7c-0.9-1.3-2.6-1.9-4.9-1.9c-1.6-0.1-3.2,0.4-4.4,1.5c-0.9,1-1.5,2.4-1.5,3.8c-0.4,2.4-1.4,3.4-3.3,3.4
	c-0.7,0-1.4-0.2-2-0.7c-0.6-0.6-0.9-1.3-0.8-2.1c0-2.1,0.8-3.6,2.9-5.2s5.5-2.5,10.1-2.5c4.8,0,8,0.9,9.8,2.6s2.2,3.7,2.2,6.6v13.6
	l0.1,4.2c0.1,1.8,0.8,2.9,2.8,2.9c1.2,0,2.6-1.2,2.9-3.5h1.1C338.3,229,335.8,231.1,331.4,231.1L331.4,231.1z M376.3,230.6h-15.4
	v-2.1c0.9,0,1.8-0.2,2.5-0.7c0.8-0.5,1.3-1.3,1.4-2.3c0.1-0.8-0.1-2.1-0.1-3.9l0.1-10.6c0-2.6-0.4-6.3-1.1-7.6
	c-0.8-1.5-2.1-2.3-4.5-2.3c-2.6-0.1-5.1,1.3-6.4,3.6c-1.2,2.1-1.2,5.6-1.2,9.2v8.6c0,2.2,0.3,3.7,0.9,4.6s1.7,1.3,3.3,1.4v2h-16v-2
	c0.9,0,1.9-0.2,2.8-0.5c0.9-0.4,1.6-1.1,1.9-2.1c0.3-1.2,0.4-2.5,0.4-3.8v-22.3c0,0-3.1,0-5-0.1v-1.7h10l1.2,5.9h0.6
	c1.4-2.3,4-6.3,10.5-6.3c1.7,0,3.4,0.3,4.9,1.1c1.4,0.7,2.6,1.9,3.4,3.3c0.8,1.7,1.2,3.6,1.1,5.4l-0.1,14.7
	c-0.1,1.7,0.3,3.4,1.1,4.8c0.6,0.9,1.8,1.4,3.8,1.5L376.3,230.6z"/>
<path d="M121.7,185.2h-18.3v1.6h5.4v35.3c0,2.8-0.2,3.5-0.5,4.3c-0.4,1-1.2,1.7-2.2,2.1c-1.2,0.4-2.5,0.6-3.8,0.6v1.5h19.7v-1.4
	c-1.3,0-2.6-0.2-3.8-0.5c-1-0.3-1.9-1.1-2.3-2.1c-0.4-0.9-0.6-1.9-0.5-2.9v-12.1h4.9c14.1,0,18.1-5.6,18.1-13.2
	S136,185.2,121.7,185.2z M119.2,209.8h-3.7V187h3.4c10.9,0,13.3,4.5,13.3,11.8S127.9,209.8,119.2,209.8L119.2,209.8z"/>
<path d="M90.7,185.2H72.1v1.6h6v31c0,9.3-2.6,11.9-8.3,11.9c-2.1,0.2-4-1.4-4.2-3.5c0-0.2,0-0.4,0-0.7c0-3.4-0.2-5.5-3.3-5.5
	s-3.5,3.1-3.5,4.1c0,4.3,1.9,7.5,10.4,7.5c10.1,0,15.5-3.4,15.5-14.8v-30.2h6.1L90.7,185.2z"/>
<path d="M134.7,224.5c-2,0-3.6,1.5-3.6,3.5c0,0.1,0,0.1,0,0.2c0,1,0.3,1.9,1,2.6c1.5,1.4,3.8,1.4,5.2,0c0.7-0.7,1.1-1.6,1.1-2.6
	c0-1-0.4-1.9-1.1-2.6C136.6,224.9,135.7,224.5,134.7,224.5z"/>
<path d="M196.8,226.3c-0.3-1-0.4-2-0.4-3.1v-36.4l4.8-0.1v-1.4h-11.6c-0.2,0.4-13.9,34.6-13.9,34.6l-0.3,0.2l-0.3-0.2
	c0,0-14.6-34.1-14.8-34.6h-12.9v1.5h5.6v35.1l-0.1,3.2c-0.1,0.8-0.3,1.5-0.8,2.2c-0.5,0.7-1.2,1.2-2.1,1.5c-0.9,0.2-1.7,0.4-2.6,0.4
	v1.5h12.8v-1.4c-0.7,0-1.5-0.1-2.2-0.4c-0.8-0.2-1.6-0.7-2.1-1.4c-0.4-0.7-0.7-1.4-0.8-2.2l-0.1-3.2v-30.3h0.8
	c0,0,16.5,38.6,16.7,39h1.4l15.6-38.6h0.4v31.3c0,1.1-0.1,2.1-0.4,3.2c-0.3,0.9-1,1.7-1.9,2.1c-1,0.4-2.1,0.6-3.3,0.6v1.5h17.8v-1.5
	c-1.1,0-2.2-0.2-3.3-0.6C197.9,228.1,197.1,227.3,196.8,226.3z"/>
<path d="M93.3,224.5c-2,0-3.6,1.5-3.7,3.5c0,0,0,0.1,0,0.1c0,1,0.4,1.9,1.1,2.6c0.7,0.7,1.6,1.1,2.6,1.1c1,0,1.9-0.4,2.6-1.1
	c0.7-0.6,1.1-1.6,1.1-2.6c0-2-1.6-3.6-3.6-3.6C93.4,224.5,93.3,224.5,93.3,224.5L93.3,224.5z"/>
<path d="M220.8,197.3c-9.5,0-15.5,6.3-15.5,17.3c0,16.1,12.6,17.2,15.3,17.2c5.4,0,15.6-3.4,15.6-17.5
	C236.1,203.4,229.6,197.3,220.8,197.3z M220.7,229.9c-7.2,0-8.3-3.6-8.3-15c0-8.9,0.6-15.5,8.3-15.5c8.3,0,8.4,6.9,8.4,15
	C229.1,225.9,227.1,229.9,220.7,229.9z"/>
<path d="M334.6,227.3c-2,0-2.6-1.1-2.8-2.9l-0.1-4.2v-13.6c0-2.9-0.5-4.9-2.2-6.6s-5-2.6-9.8-2.6c-4.6,0-8,0.9-10.1,2.5
	s-2.9,3.1-2.9,5.2c-0.1,0.8,0.2,1.6,0.8,2.1c0.6,0.5,1.3,0.7,2,0.7c1.8,0,2.9-0.9,3.3-3.4c0.1-1.4,0.6-2.7,1.5-3.8
	c1.2-1.1,2.8-1.6,4.4-1.5c2.3,0,4,0.6,4.9,1.9c0.9,1.4,1.4,3.1,1.3,4.8v5.4c-5.9,0.5-19.9,1.6-19.3,12.3c0.4,4.5,4.2,7.9,8.7,7.8
	c5.2,0,8.6-3,10.8-5.4c0.6,3,3.2,5.1,6.3,5c4.3,0,6.9-2.1,7.2-7.4h-1.1C337.2,226,335.8,227.3,334.6,227.3z M325,223.8l-0.1,0.3
	l-0.1,0.1c-3.2,2.9-5.6,3.9-7.4,3.9c-4.5,0-5.2-3.8-5.2-5.7c0-6,8.3-9.1,12.8-9.1V223.8z"/>
<path d="M372.5,227c-0.8-1.5-1.2-3.1-1.1-4.8l0.1-14.7c0.1-1.9-0.3-3.7-1.1-5.4c-0.8-1.4-1.9-2.5-3.4-3.3c-1.5-0.7-3.2-1.1-4.9-1.1
	c-6.5,0-9.1,4-10.5,6.3H351l-1.2-5.9h-10v1.7c1.9,0.1,5,0.1,5,0.1v22.3c0.1,1.3-0.1,2.6-0.4,3.8c-0.3,0.9-0.9,1.7-1.9,2.1
	c-0.9,0.3-1.8,0.5-2.8,0.5v2h16v-2c-1.6-0.1-2.7-0.6-3.3-1.4s-0.9-2.4-0.9-4.6V214c0-3.6,0-7,1.2-9.2c1.3-2.3,3.8-3.7,6.4-3.6
	c2.4,0,3.7,0.8,4.5,2.3c0.6,1.3,1.1,5,1.1,7.6l-0.1,10.6c0,1.8,0.2,3.1,0.1,3.9c-0.1,0.9-0.6,1.7-1.4,2.3c-0.8,0.4-1.7,0.7-2.5,0.7
	v2.1h15.4v-2C374.4,228.4,373.1,227.9,372.5,227z"/>
<path d="M301.3,195.9c-0.4,0-0.7,0.1-1.1,0.2c-1.1,0.4-1.8,1.4-1.9,2.6c-0.3,1.3-0.8,2.1-1.4,2.3c-0.8,0.2-1.6,0.1-2.3-0.2
	c-1.7-1.5-4.8-3.4-10.4-3.4c-9,0-13,6.4-13,12.3c0,6.8,2.6,10.1,8.4,11.4c0.4,0.1,0.4,0.5,0,0.5c-4.9,1-9.3,2.4-9.3,7.1
	c-0.1,2.4,1.4,4.5,3.7,5.2c3.1,1.1,6.3,1.6,9.6,1.5c3.5,0,6,0.2,7.7,0.4c1.5,0.1,2.9,0.6,4.2,1.5c1.1,0.9,1.7,2.2,1.6,3.6
	c0,2.2-1.2,3.9-3.5,5.2c-2.7,1.3-5.7,2-8.8,1.8c-3.1,0-5.7-0.3-8-1.8c-1.5-1-2.2-2.9-1.7-4.7c0.3-1.5-0.2-3.1-2-3.4
	c-1.1-0.1-2.1,0.3-2.8,1.2c-0.5,0.9-0.8,2-0.7,3c0,3.9,3,5.7,5.3,6.3c2.9,0.9,5.9,1.4,9,1.3c4.2,0,7.7-0.6,10.1-1.9
	c2.1-0.9,3.9-2.5,5.1-4.5c0.9-1.6,1.4-3.4,1.4-5.3c0.1-2-0.4-4-1.5-5.6c-3.2-4.4-7.8-3.9-18-4.4c-4.9,0-5.9-0.9-5.9-2.4
	c0-2.2,1.8-3.1,9-4.2s13.6-3.7,13.6-12.3c0-2.1-0.4-4.2-1.3-6.1c1.3,0.3,2.7,0.3,4-0.1c1.2-0.3,2.3-1.1,2.9-2.1
	c0.5-0.9,0.7-1.9,0.4-2.9C303.3,196.6,302.5,195.9,301.3,195.9z M284.3,219.7c-4.2,0-6.6-1.5-6.6-10.1c0-6,2.1-10.5,6.6-10.5
	c5.2,0,6.8,4.1,6.8,10.4C291.1,218.5,288.3,219.7,284.3,219.7L284.3,219.7z"/>
<path d="M261.1,197.8c-5.7,0-7.5,3.4-9,6.8h-0.4c0,0-0.8-5-1.1-6.4h-11v1.7h6c0,0,0,5.1,0,6.9v15.5c0.1,1.6-0.1,3.2-0.7,4.7
	c-0.6,1.1-2,1.7-4.2,1.7h-1v2H258v-2h-1c-2.4,0-3.5-0.5-4.1-1.6s-0.9-2.5-0.9-4.8v-11.7c0-3.9,3-8.4,6.5-8.4c3.7,0,3.6,5.7,7.8,3.4
	C268.5,204.4,268.1,197.8,261.1,197.8z"/>
</svg>
