<?xml version="1.0" encoding="utf-8"?>
<!-- Generator: Adobe Illustrator 23.0.1, SVG Export Plug-In . SVG Version: 6.00 Build 0)  -->
<svg version="1.1" id="Layer_1" xmlns="http://www.w3.org/2000/svg" xmlns:xlink="http://www.w3.org/1999/xlink" x="0px" y="0px"
	 viewBox="0 0 435 435" style="enable-background:new 0 0 435 435;" xml:space="preserve">
<style type="text/css">
	.st0{fill:#F4F4F4;}
	.st1{fill:#0071C5;}
</style>
<path class="st0" d="M260.5,201.9c-5.2,0-9.3,2.7-11,6.3c-1,2.1-1.5,4.3-1.5,6.6h23.6C271.3,208.2,268.3,201.9,260.5,201.9z"/>
<path class="st0" d="M329.7,173.4c0-2.8-2.3-5.1-5.1-5.1c-2.8,0-5.1,2.3-5.1,5.1s2.3,5.1,5.1,5.1c0,0,0,0,0,0
	C327.4,178.5,329.7,176.3,329.7,173.4z M324.2,174.2h-0.7v2.6c0,0.2-0.1,0.3-0.3,0.3c0,0,0,0,0,0h-1c-0.1,0-0.3-0.1-0.3-0.3v-6.6
	c0-0.4,0.1-0.5,0.5-0.6s1.4-0.1,1.9-0.1c1.9,0,3,0.6,3,2.3v0.1c0.1,0.9-0.5,1.8-1.4,2l1.6,2.7c0,0.1,0,0.1,0,0.2
	c0,0.1-0.1,0.2-0.2,0.2c0,0,0,0,0,0h-1.1c-0.1,0-0.2-0.1-0.2-0.1l-1.6-2.6C324.4,174.3,324.3,174.2,324.2,174.2L324.2,174.2z"/>
<path class="st0" d="M324.4,170.9h-1v2.1h1c1,0,1.4-0.3,1.4-1v-0.1l0,0C325.9,171.1,325.4,170.9,324.4,170.9z"/>
<path class="st0" d="M405.8,108.3c-19-32.9-46.3-60.2-79.2-79.2C293.4,9.7,257,0,217.5,0s-75.8,9.7-109.2,29.2
	c-32.9,19-60.2,46.3-79.2,79.2C9.7,141.7,0,178,0,217.5s9.7,75.8,29.2,109.2c19,32.9,46.3,60.2,79.2,79.1
	C141.7,425.3,178,435,217.5,435s75.9-9.7,109.2-29.2c32.9-19,60.2-46.3,79.1-79.1C425.3,293.4,435,257,435,217.5
	S425.3,141.6,405.8,108.3z M111.9,167.2h15.4v14.6h-15.4L111.9,167.2z M111.9,190.2h15.5v61.1l0,0c-11.6-1.1-15.5-8.1-15.5-16.2
	L111.9,190.2z M316,285c-29,15.9-70.6,26.1-102.4,29.2c-80.4,7.8-133.1-15.7-142.9-57.3c-7.7-32.3,5.7-59.7,30.3-81.4v8
	c-13.7,14.9-24,39-19.8,61.7c8.6,46,70,54.6,128.9,49.1c36.2-3.4,79.7-16.3,105.9-31.9L316,285z M169,202.6h-12.7v48.1H141v-60.5
	h31.6c13.4,0,18,9.5,18,18.1v42.4h-15.3v-42.3C175.3,204.8,173.5,202.6,169,202.6z M228.9,190.2v12.4h-11.6v29.8
	c0,3.5,1.7,5.5,5.3,5.5h6.2v12.8h-9c-12.5,0-17.8-8.7-17.8-17.3v-59.6h15.3v16.5L228.9,190.2z M261.6,238.8c6.8,0,10.1-1.9,14-5.8
	l9.5,9c-6.1,6-12.4,9.6-23.6,9.6c-14.7,0-28.7-8-28.7-31.3c0-19.9,12.3-31.2,28.4-31.2c16.3,0,25.7,13.2,25.7,30.5v5.5H248
	C248,233,252.9,238.8,261.6,238.8L261.6,238.8z M295.8,233.9v-68.7h15.4v84.9C299.7,249,295.8,242,295.8,233.9L295.8,233.9z
	 M318.5,173.5c0-3.4,2.7-6.2,6.1-6.2c3.4,0,6.2,2.7,6.2,6.1s-2.7,6.2-6.1,6.2c0,0,0,0,0,0C321.3,179.6,318.5,176.9,318.5,173.5
	C318.5,173.5,318.5,173.5,318.5,173.5L318.5,173.5z M321.8,250.7v-16.3c20.9-12.4,32.6-34.1,28.9-54.9
	c-11-62.8-131.9-63.1-217.2-19.3v-5.7c85.3-51.9,217.7-47.6,231.7,20.6l0,0C372.7,211.6,346.9,241.5,321.8,250.7L321.8,250.7z"/>
<rect x="111.9" y="167.2" class="st1" width="15.4" height="14.6"/>
<path class="st1" d="M190.6,250.7v-42.4c0-8.6-4.6-18.1-18-18.1H141v60.5h15.3v-48.1H169c4.5,0,6.4,2.2,6.4,5.8v42.3L190.6,250.7z"
	/>
<path class="st1" d="M81.2,245.3c-4.2-22.7,6.1-46.7,19.8-61.7v-8c-24.6,21.7-38,49.1-30.3,81.4c9.8,41.5,62.5,65,142.9,57.2
	c31.8-3.1,73.4-13.3,102.4-29.2v-22.6c-26.3,15.6-69.7,28.6-105.9,31.9C151.2,299.9,89.8,291.3,81.2,245.3z"/>
<path class="st1" d="M127.4,251.4L127.4,251.4v-61.1h-15.5v44.9C111.9,243.2,115.8,250.3,127.4,251.4z"/>
<path class="st1" d="M365.2,175.1c-14-68.2-146.4-72.5-231.7-20.6v5.7c85.3-43.8,206.2-43.6,217.2,19.3c3.7,20.8-8,42.4-28.9,54.9
	v16.3C346.9,241.5,372.7,211.6,365.2,175.1z"/>
<path class="st1" d="M311.2,165.1h-15.4v68.7c0,8.1,3.9,15.1,15.4,16.2V165.1z"/>
<path class="st1" d="M286.9,219.7c0-17.3-9.4-30.5-25.7-30.5c-16.1,0-28.4,11.3-28.4,31.2c0,23.3,14,31.3,28.7,31.3
	c11.2,0,17.6-3.6,23.6-9.6l-9.5-9c-3.9,3.9-7.3,5.8-14,5.8c-8.7,0-13.6-5.8-13.6-13.6h38.9L286.9,219.7z M248,214.8
	c0-2.3,0.5-4.5,1.5-6.6c1.7-3.6,5.8-6.3,11-6.3c7.9,0,10.8,6.3,11.1,12.9H248z"/>
<path class="st1" d="M202.1,173.8v59.6c0,8.6,5.3,17.3,17.8,17.3h9v-12.8h-6.2c-3.6,0-5.3-1.9-5.3-5.5v-29.8h11.5v-12.4h-11.5v-16.5
	H202.1z"/>
<path class="st1" d="M330.8,173.4c0-3.4-2.7-6.2-6.1-6.2c-3.4,0-6.2,2.7-6.2,6.1s2.7,6.2,6.1,6.2C328,179.6,330.8,176.8,330.8,173.4
	z M319.5,173.4c0-2.8,2.3-5.1,5.1-5.1s5.1,2.3,5.1,5.1s-2.3,5.1-5.1,5.1c0,0,0,0,0,0C321.8,178.5,319.6,176.3,319.5,173.4z"/>
<path class="st1" d="M326.2,177.1h1.1c0.1,0,0.2-0.1,0.2-0.2c0,0,0,0,0,0c0-0.1,0-0.1,0-0.2l-1.6-2.7c0.9-0.2,1.5-1.1,1.4-2v-0.1
	c0-1.8-1.1-2.3-3-2.3c-0.5,0-1.5,0-1.9,0.1s-0.5,0.2-0.5,0.6v6.6c0,0.1,0.1,0.3,0.3,0.3h1c0.2,0,0.3-0.1,0.3-0.3c0,0,0,0,0,0v-2.6
	h0.7c0.1,0,0.2,0.1,0.2,0.1l1.6,2.7C326,177.1,326.1,177.1,326.2,177.1z M325.9,171.9v0.1c0,0.7-0.4,1-1.4,1h-1v-2.1h1
	C325.4,170.9,325.9,171.1,325.9,171.9L325.9,171.9z"/>
</svg>
