<?xml version="1.0" encoding="utf-8"?>
<!-- Generator: Adobe Illustrator 23.0.1, SVG Export Plug-In . SVG Version: 6.00 Build 0)  -->
<svg version="1.1" id="Layer_1" xmlns="http://www.w3.org/2000/svg" xmlns:xlink="http://www.w3.org/1999/xlink" x="0px" y="0px"
	 viewBox="0 0 435 435" style="enable-background:new 0 0 435 435;" xml:space="preserve">
<style type="text/css">
	.st0{fill:#F4F4F4;}
	.st1{fill:#0039A7;}
</style>
<path class="st0" d="M190.5,138.9c-28.6-14.6-69.3-9.2-93.3,22.3c-22.9,30.1-18.3,70,1.5,93v0C121.7,209.6,153.1,172,190.5,138.9z"
	/>
<path class="st0" d="M198.2,143.2c-0.6,0.7-1.1,1.5-1.7,2.1c-15.9,16.8-30.8,34.6-44.5,53.2c-15.2,20.8-29,42.3-39.5,65.9
	c-0.9,2-0.7,3.1,1.2,4.4c15.3,10.5,32.1,15.3,50.7,13.6c17.9-1.6,33.1-8.8,46.1-21.2c1.4-1.3,1.5-2.4,0.6-4
	c-6.8-12.6-13.6-25.3-20.3-38c-0.4-0.7-0.7-1.4-1.3-2.8c10.9,9.5,23.2,17.1,36.5,22.7C241.4,207.8,232.4,165.1,198.2,143.2z"/>
<path class="st0" d="M405.8,108.3c-19-32.9-46.3-60.2-79.2-79.2C293.4,9.7,257,0,217.5,0s-75.8,9.7-109.2,29.2
	c-32.9,19-60.2,46.3-79.2,79.2C9.7,141.7,0,178,0,217.5s9.7,75.8,29.2,109.2c19,32.9,46.3,60.2,79.2,79.1
	C141.7,425.3,178,435,217.5,435s75.9-9.7,109.2-29.2c32.9-19,60.2-46.3,79.2-79.1C425.3,293.4,435,257,435,217.5
	C435,178,425.3,141.6,405.8,108.3z M359,264.6c-0.7,0.1-1.4,0.2-2,0.2c-27.5,0.9-55,1.7-82.5,2.7c-18.3,0.7-36.6,1.9-54.9,2.8
	c-0.9-0.1-1.7-0.5-2.2-1.2c-0.8-1.2-1.5-2.4-2.1-3.7c-33.6,28.3-68.9,30.8-106.3,7.8c-3.4,10.1-7.1,20.1-5.4,31.1
	c1.3,8,7.2,12.1,15.4,11c8.1-1.2,15.4-5,22.3-9.5c4.8-3.1,9.3-6.6,14.1-10c-0.5,0.8-0.8,1.4-1.3,2c-9.7,13-21.2,23.8-35.9,31
	c-5.2,2.5-10.7,4.4-16.6,4.5c-9.1,0.1-15.3-4.5-17.9-13.2c-2.2-7.5-1.6-15.1-0.3-22.6c2.1-12.2,6.4-23.6,11.5-34.8
	c0.7-1.3,0.5-2.9-0.5-3.9c-14.2-17.7-20.2-37.8-18-60.3c3.6-36.2,32-66,68-71.7c16.6-2.8,33.7-0.3,48.8,7.2c1.4,0.9,3.2,0.6,4.4-0.6
	c13.8-11.5,28.4-22,43.7-31.3l-38.8,36.5c35,27.6,44.7,61.7,29.4,103.3c1.6,0.6,3.4,1.4,5.2,2.1c18.1,6.5,36.8,10.9,55.8,13.2
	c17.9,2.1,35.9,3.6,53.9,5.4c4.1,0.4,8.1,1,12.2,1.5V264.6z"/>
<path class="st1" d="M293,257c-19-2.3-37.8-6.8-55.8-13.2c-1.8-0.7-3.6-1.5-5.2-2.1c15.3-41.6,5.7-75.8-29.4-103.3l38.8-36.5
	c-15.3,9.3-30,19.8-43.7,31.3c-1.1,1.2-3,1.5-4.4,0.6c-15.1-7.5-32.2-10-48.8-7.2c-36,5.7-64.4,35.5-68,71.7
	c-2.2,22.5,3.7,42.7,18,60.3c1.1,1,1.3,2.7,0.5,3.9c-5.1,11.2-9.3,22.7-11.5,34.8c-1.3,7.6-2,15.1,0.3,22.6
	c2.6,8.8,8.8,13.4,17.9,13.2c5.9-0.1,11.4-1.9,16.6-4.5c14.7-7.2,26.2-18,35.9-31c0.4-0.6,0.8-1.2,1.3-2c-4.9,3.4-9.4,6.9-14.1,10
	c-6.9,4.5-14.2,8.3-22.3,9.5c-8.1,1.2-14.1-2.9-15.4-11c-1.8-11,2-21,5.4-31.1c37.5,23,72.7,20.5,106.3-7.8c0.6,1.3,1.3,2.5,2.1,3.7
	c0.5,0.7,1.3,1.1,2.2,1.2c18.3-0.9,36.6-2.1,54.9-2.8c27.5-1.1,55-1.8,82.5-2.7c0.6,0,1.3-0.1,2-0.2v-0.7c-4-0.5-8.1-1.1-12.2-1.5
	C328.9,260.6,310.9,259.1,293,257z M98.7,254.2L98.7,254.2c-19.8-23-24.4-62.8-1.5-93c24-31.5,64.7-36.9,93.3-22.3
	C153.1,172,121.7,209.6,98.7,254.2z M189.4,216.5c0.7,1.4,0.9,2.1,1.3,2.8c6.7,12.7,13.5,25.4,20.3,38c0.9,1.6,0.8,2.7-0.6,4
	c-13,12.3-28.2,19.5-46.1,21.2c-18.6,1.7-35.3-3.1-50.7-13.6c-1.9-1.3-2.1-2.4-1.2-4.4c10.5-23.5,24.3-45.1,39.5-65.9
	c13.7-18.6,28.6-36.4,44.5-53.2c0.6-0.6,1.1-1.4,1.7-2.1c34.2,21.9,43.3,64.6,27.8,96C212.6,233.6,200.3,225.9,189.4,216.5z"/>
</svg>
