<?xml version="1.0" encoding="utf-8"?>
<!-- Generator: Adobe Illustrator 23.0.1, SVG Export Plug-In . SVG Version: 6.00 Build 0)  -->
<svg version="1.1" id="Layer_1" xmlns="http://www.w3.org/2000/svg" xmlns:xlink="http://www.w3.org/1999/xlink" x="0px" y="0px"
	 viewBox="0 0 435 435" style="enable-background:new 0 0 435 435;" xml:space="preserve">
<style type="text/css">
	.st0{fill:#F4F4F4;}
	.st1{fill:#00589F;}
	.st2{fill:#F9A51A;}
</style>
<path class="st0" d="M405.8,108.3c-19-32.9-46.3-60.2-79.2-79.2C293.4,9.7,257,0,217.5,0s-75.8,9.7-109.2,29.2
	c-32.9,19-60.2,46.3-79.2,79.2C9.7,141.7,0,178,0,217.5s9.7,75.8,29.2,109.2c19,32.9,46.3,60.2,79.2,79.1
	C141.7,425.3,178,435,217.5,435s75.9-9.7,109.2-29.2c32.9-19,60.2-46.3,79.1-79.1C425.3,293.4,435,257,435,217.5
	S425.3,141.6,405.8,108.3z"/>
<polygon class="st1" points="168.3,267.1 185.1,168.1 212.1,168.1 195.2,267.1 168.3,267.1 "/>
<path class="st1" d="M293.1,170.6c-7.8-2.8-15.9-4.2-24.2-4.2c-26.7,0-45.4,13.4-45.6,32.7c-0.1,14.2,13.4,22.2,23.7,26.9
	c10.5,4.9,14,8,14,12.3c-0.1,6.6-8.4,9.7-16.2,9.7c-10.8,0-16.5-1.5-25.4-5.2l-3.5-1.6l-3.8,22.2c6.3,2.8,18,5.1,30.1,5.3
	c28.4,0,46.8-13.3,47-33.8c0.1-11.3-7.1-19.8-22.6-26.9c-9.4-4.6-15.2-7.6-15.2-12.3c0-4.1,4.9-8.5,15.5-8.5
	c6.9-0.2,13.8,1.1,20.2,3.8l2.4,1.1L293.1,170.6L293.1,170.6z"/>
<path class="st1" d="M362.3,168.2h-20.9c-6.5,0-11.3,1.8-14.1,8.2l-40.1,90.8h28.3c0,0,4.6-12.2,5.7-14.9h34.6
	c0.8,3.5,3.3,14.8,3.3,14.8h25L362.3,168.2L362.3,168.2z M329,232c2.2-5.7,10.8-27.7,10.8-27.7c-0.1,0.3,2.2-5.7,3.6-9.5l1.8,8.5
	c0,0,5.2,23.6,6.3,28.6H329z"/>
<path class="st1" d="M145.6,168.2l-26.4,67.5l-2.8-13.7c-4.9-15.8-20.2-33-37.4-41.5l24.2,86.6h28.6l42.5-98.8L145.6,168.2z"/>
<path class="st2" d="M94.7,168.1H51.2l-0.3,2.1c33.8,8.2,56.3,28,65.6,51.8l-9.5-45.5C105.3,170.2,100.6,168.4,94.7,168.1z"/>
</svg>
