<svg id="Layer_1" data-name="Layer 1" xmlns="http://www.w3.org/2000/svg" viewBox="0 0 435 435"><title>287_b</title><g id="_287" data-name="287"><path d="M407.6,110.1a217.2,217.2,0,0,0-79.2-79.2Q278.5,1.8,219.3,1.8T110.1,30.9a217.9,217.9,0,0,0-79.2,79.2Q1.8,160.1,1.8,219.3T30.9,328.4a217.2,217.2,0,0,0,79.2,79.2q50,29.3,109.2,29.2t109.2-29.2a215.4,215.4,0,0,0,79.1-79.2q29.3-49.9,29.2-109.1T407.6,110.1Z" transform="translate(-1.8 -1.8)" style="fill:#fff"/><path d="M70.7,203.9h7.8c-4.2,12.1-14.9,20.5-29.8,20.5-19.8,0-31.8-15-31.8-33.7S28.9,157,48.7,157c14.9,0,25.6,8.5,29.8,20.5H70.7c-3.4-8-10.6-13.2-21.4-13.2-16,0-25,11.6-25,26.4s9,26.5,25,26.5C60.1,217.2,67.3,212,70.7,203.9Z" transform="translate(-1.8 -1.8)" style="fill:#1c1c1c"/><path d="M97.1,223.6H89.6V157.8h31.6c13.5,0,22.1,8.1,22.1,20.6s-8.5,17-15.9,18.7l17.3,26.5h-8.9l-15.9-25.2H97.1Zm0-32.3h22.7c7.1,0,16.1-2.7,16.1-12.9,0-8.3-6.3-13.5-15.6-13.5H97.1Z" transform="translate(-1.8 -1.8)" style="fill:#1c1c1c"/><path d="M216.7,190.7c0,18.7-13.4,33.7-33.4,33.7s-33.4-15-33.4-33.7S163.4,157,183.3,157,216.7,172,216.7,190.7Zm-7.4,0c0-14.8-10-26.4-26-26.4s-25.9,11.6-25.9,26.4,9.9,26.5,25.9,26.5S209.3,205.5,209.3,190.7Z" transform="translate(-1.8 -1.8)" style="fill:#1c1c1c"/><path d="M283.4,157.8v65.8h-8.6l-40.7-55.5v55.5h-7.4V157.8h8.6L276,213.2V157.8Z" transform="translate(-1.8 -1.8)" style="fill:#1c1c1c"/><path d="M360.1,190.7c0,18.7-13.4,33.7-33.4,33.7s-33.4-15-33.4-33.7S306.8,157,326.7,157,360.1,172,360.1,190.7Zm-7.4,0c0-14.8-10-26.4-26-26.4s-25.9,11.6-25.9,26.4,9.9,26.5,25.9,26.5S352.7,205.5,352.7,190.7Z" transform="translate(-1.8 -1.8)" style="fill:#8bc53f"/><path d="M421.6,205.4c0,12.2-9.8,19-26,19-19.5,0-27.4-8.6-28.4-20.5h7.7c.5,9.6,9.7,13.4,21.2,13.4s18.1-3.8,18.1-11.6c0-16.1-45-7.9-45-30.5,0-10.7,8.2-18.2,24.7-18.2s25.4,9,26,18.8h-7.6c-.8-6.6-6.4-11.8-18.4-11.8-14.9,0-17.5,6.7-17.5,11.1C376.4,190.4,421.6,182.5,421.6,205.4Z" transform="translate(-1.8 -1.8)" style="fill:#1c1c1c"/><path d="M114.3,263.8h-2.9a8.4,8.4,0,0,0-7.7-4.2c-5.9,0-9.3,4.3-9.3,9.7s3.4,9.6,9.2,9.6,8.5-3,8.5-8h-8.8v-2.4h11.2v12.7h-2.4V277a10.3,10.3,0,0,1-8.7,4.5c-7.3,0-11.7-5.5-11.7-12.3S96.3,257,103.5,257A11.4,11.4,0,0,1,114.3,263.8Z" transform="translate(-1.8 -1.8)" style="fill:#1c1c1c"/><path d="M155.3,281.2h-2.7V257.3h11.5c4.9,0,8,2.9,8,7.5s-3.1,6.1-5.8,6.7l6.3,9.7h-3.2l-5.8-9.2h-8.3v9.2Zm0-11.7h8.3c2.6,0,5.8-1,5.8-4.7s-2.3-5-5.7-5h-8.4v9.7Z" transform="translate(-1.8 -1.8)" style="fill:#1c1c1c"/><path d="M231.4,269.3a11.9,11.9,0,0,1-12.2,12.2c-7.3,0-12.1-5.4-12.1-12.2s4.8-12.3,12.1-12.3A11.9,11.9,0,0,1,231.4,269.3Zm-2.8,0c0-5.4-3.6-9.7-9.4-9.7s-9.4,4.3-9.4,9.7,3.6,9.6,9.4,9.6S228.6,274.6,228.6,269.3Z" transform="translate(-1.8 -1.8)" style="fill:#1c1c1c"/><path d="M289,257.3v13.6c0,6.3-4.2,10.6-10.2,10.6s-10.1-4.2-10.1-10.6V257.3h2.7V271c0,5.6,3.6,7.9,7.4,7.9s7.5-2.3,7.5-7.9V257.3Z" transform="translate(-1.8 -1.8)" style="fill:#1c1c1c"/><path d="M330.5,281.2h-2.7V257.3h10.8c5.1,0,8.2,3,8.2,7.7s-3.1,7.7-8.2,7.7h-8.1v8.5Zm0-21.3v10.3h7.9c3.8,0,5.7-2,5.7-5.2s-1.9-5.2-5.7-5.2h-7.9Z" transform="translate(-1.8 -1.8)" style="fill:#1c1c1c"/></g></svg>