<svg id="Layer_1" data-name="Layer 1" xmlns="http://www.w3.org/2000/svg" viewBox="0 0 435 435"><defs><style>.cls-1{fill:#f4f4f4;}.cls-2,.cls-3{fill-rule:evenodd;}.cls-3{fill:#fff;}</style></defs><title>293</title><g id="ALL"><path class="cls-1" d="M407.6,110.09a216.63,216.63,0,0,0-79.15-79.16q-50-29.16-109.18-29.17T110.09,30.93a216.55,216.55,0,0,0-79.15,79.16q-29.18,50-29.18,109.18T30.93,328.44a216.73,216.73,0,0,0,79.16,79.16q50,29.16,109.18,29.17T328.45,407.6a216.63,216.63,0,0,0,79.15-79.16q29.16-50,29.17-109.17T407.6,110.09Z" transform="translate(-1.76 -1.76)"/><g id="_293" data-name="293"><path class="cls-2" d="M373.29,260.06c-2-4.58-10.23-18-20.66-31.23-9.37-11.91-23.14-24.3-25.45-26.36,0-1.54-1.76-3.42-4.16-5.82C305.82,179.44,276.88,172,265.91,172c-8.66,0-17.78,5.4-20.62,7.23l-6.11-15c-1.24-3.11-2.35-5.89-1.94-8.11,2.56,3.66,7.13,4.1,9.16,4.1A9.37,9.37,0,0,0,253,157.6a9.8,9.8,0,0,0,2.65-7.22c0-5.47-3.93-8.51-6.12-9.78l7.56-5.85H227.39l-3.13-15.56,13.87-12.77-18.73-2.18L211.55,87.1l-7.86,17.14L185,106.42l13.88,12.77-3.13,15.56H165.59l7.56,5.85c-2.19,1.27-6.12,4.31-6.12,9.78a9.76,9.76,0,0,0,2.66,7.22,9.39,9.39,0,0,0,6.54,2.62c2,0,6.6-.44,9.16-4.1.41,2.22-.69,5-1.94,8.11,0,0-2.06,5.2-3.26,8.19-3.42-2.41-12.92-8.84-17.12-8.85a1.55,1.55,0,0,0-.08-.23c-.58-1.35-2.46-2-5.88-2-.83-.78-3-2.61-4.64-2.1a2.66,2.66,0,0,0-.4.17,4.26,4.26,0,0,0-1-1.15,6.18,6.18,0,0,0-4.77-1c-1.86-1.57-4.22-3.13-5.51-2.31l-.14.1a6.32,6.32,0,0,0-4.68-1.61c-1.27-.67-8.31-4.2-14.35-4.28-1.74-.83-11.1-5.08-15.43-2.13-4-1.31-7.88-1.87-9.6.06,0,0-2.37-.08-4-.28-10.61-1.29-17.39-.7-20.17,1.74-12.89,1.36-12.9,2.68-12.9,3.39a1.86,1.86,0,0,0,.63,1.39c1.69,1.55,6.75,1.25,12.69.74,1.27-.11,2.37-.2,2.95-.2,2.57,0,23.75,1.07,31.5,5,7.58,3.89,20.11,12.47,23.53,16.1l2.05,2.24c11.21,12.27,26.6,28.59,32.87,30.79-2.16,5.3-3.93,9.67-4.88,12-1.75-.9-11-5.7-12.95-7.43-2.58-2.26-6.15-2.28-9.33-.06-1.73,1.21-2.42.69-3.93-.46-.42-.31-2.26-1.54-2.72-1.84-2-1.33-4.11-2.71-6-2.71a5.14,5.14,0,0,0-3.88,2.05c-1,1.26-1.93,4.53-1,8.51.39-.88,3-2.57,5.12-1.77,2.31.89,3.66,4.88,4.16,6.48L128,222.1l-2.94-2.59.45,2-4.31-1.11-.64,1.29c-.62.77.25,2.92,6,7.86a40.16,40.16,0,0,0,8.66,5.91,12.06,12.06,0,0,1,1.64,1,21.47,21.47,0,0,0,2,1.34,22.86,22.86,0,0,1,4.78,3.7,31.71,31.71,0,0,0,5.43,4.34l1.09.76c-2.16,5.36-11.35,28.12-14.1,35.12-2.92,7.43-7.4,13.21-12.82,16.62a12.91,12.91,0,0,0-2.78-8.43c-2.09-2.39-5.21-3.6-9.29-3.6-7.36,0-11.41,4.46-11.41,12.56,0,3.16,1.42,7,5.24,8.55L78,322.85h48.86c0-.06,4-6.09,10.82-6.09s11.37,6,11.42,6.09h25.1a36.21,36.21,0,0,1,5.74,7.94c12.63,3.29,23.32,20.25,23.42,20.41,16.14-7.3,28.36-15.59,36.26-22.5l1,.39-.48-.89c2.07-1.84,3.88-3.7,5.44-5.29H268.8c0-.06,4.54-6.16,11.42-6.16s10.78,6.1,10.82,6.16H339.9l-27-15.58c3.82-1.55,5.24-5.39,5.24-8.55,0-4.22-1.11-7.45-3.28-9.62-1.95-2-4.68-2.94-8.14-2.94-4.07,0-7.19,1.21-9.28,3.6a12.85,12.85,0,0,0-2.78,8.43c-5.42-3.41-9.91-9.19-12.83-16.62-.57-1.45-1.41-3.57-2.41-6.06a4.79,4.79,0,0,0,2.25-.34,18.8,18.8,0,0,0,11.05,4.14c1.4,1.57,2.78,2.34,4.16,2.32a4.12,4.12,0,0,0,3.2-1.81c1.63,1.15,2.45,1.15,3.05.71,1-.73.75-2.43-.88-5.87-2.34-4.94-21.72-28.64-26.1-34,2.48.64,4.14.43,5-.62s.67-3,.14-4.52c3.9,1.69,6.33,1.86,7.57.54s.75-3.39.1-5.11c2.87,1.45,5.15,1.77,6.78,1a3.92,3.92,0,0,0,1.87-2.11c5.42,3.53,9.22,4.83,11.3,3.83a2.5,2.5,0,0,0,.9-.69c2.2,1.55,4.14,2.1,5.78,1.6a4.17,4.17,0,0,0,2.22-1.65c3.61,3.84,6.8,5.75,9.49,5.68a4.37,4.37,0,0,0,2.27-.66c3.29,3.07,5.86,4.23,7.83,3.53a3.54,3.54,0,0,0,2-1.83c5,6.07,9,9.11,12.16,9.06a3.84,3.84,0,0,0,1.58-.36c2.44,4,13.53,11.89,14.32,12.48,3.58,2.69,5.08,3.75,6.1,2.94.81-.64.5-1.86-.31-3.75Z" transform="translate(-1.76 -1.76)"/><path class="cls-3" d="M211.55,128.43l12.91,7.26c-6.4,7.62-10,7.62-13.14,7.62s-6.69,0-13-7.44l13.22-7.44Z" transform="translate(-1.76 -1.76)"/><path class="cls-3" d="M170.15,318.75H160l.85,2.57H173.1a36.73,36.73,0,0,0-2.95-2.57Z" transform="translate(-1.76 -1.76)"/><path class="cls-3" d="M119.15,290.93c-1.75-2-4.43-3-8-3a9.41,9.41,0,0,0-6.92,2.43c-1.85,1.84-2.78,4.68-2.78,8.42,0,1.08.28,6.55,5.84,7.43l2.38.37L88.84,318.71l6.36,0s9.87-6.19,14.13-8.46a5.63,5.63,0,0,0,3-5.26c-3-.12-5.21-.88-6.63-2.3A6.18,6.18,0,0,1,104,298.2a7.5,7.5,0,0,1,7.7-7.42,8.66,8.66,0,0,1,5.94,2.46,6.75,6.75,0,0,1,1.55,2.33l.31-4.16-.38-.48Z" transform="translate(-1.76 -1.76)"/><path class="cls-3" d="M151.58,247.55c-2.43,6-11.25,27.88-13.94,34.7-3.66,9.32-9.7,16.18-17,19.31l.12,2.37c1.7-.63,2.85-1.2,2.87-1.21h0c7.27-3.12,13.22-12.08,16.1-18.82,3.25-7.58,13.41-32.85,14.06-34.47-.4-.32-1.9-1.59-2.25-1.86Z" transform="translate(-1.76 -1.76)"/><polygon class="cls-3" points="123.1 316.99 107.04 316.99 107.47 319.56 124.08 319.56 123.1 316.99"/><path class="cls-3" d="M150.94,318.31c-.15-.26-3.62-6.4-12.67-6.4L137.7,315c6.82,0,11.28,4.9,12.41,6.28l1.07-2.57-.24-.44Z" transform="translate(-1.76 -1.76)"/><path class="cls-3" d="M307.78,311.8a7.42,7.42,0,0,1-3.86-7.76l.13-.7h.71c4.92,0,7.42-1.73,7.42-5.14a5.38,5.38,0,0,0-1.57-3.89,6.42,6.42,0,0,0-4.42-1.82,6.88,6.88,0,0,0-4.73,2,5.21,5.21,0,0,0-1.55,3.75,25.05,25.05,0,0,0,1.09,7.29l.52,1.49L300,306.6a36.05,36.05,0,0,1-6.45-2.34c-7.72-3.34-14-12.69-17-19.7-2.37-5.52-8.29-20.16-11.73-28.68a5.78,5.78,0,0,1-2.05-.63,22.15,22.15,0,0,1-1.71,4.26c2.65,7.25,12.29,33.59,13,35.55a41.43,41.43,0,0,0,4,6.57c-2-.29-9.13,2.28-9.13,2.28.28-1.14.85-4.28,0-6.57s-11.42-31.53-11.42-31.53H245.27c-1.09,1.07-2.52,2.1-3.87,2a2.45,2.45,0,0,1-1.53-.68,4.71,4.71,0,0,1-2.77.88,3.68,3.68,0,0,1-2.38-1,5.83,5.83,0,0,1-4.06.66,3,3,0,0,1-1.45-1c-1.72.92-5.05,2.43-6.67,1.5a1.94,1.94,0,0,1-.94-1.79l-3.42-.57-1.43,1.29c-.86.85-6.56,0-6.56,0-2.57.28-6.57.28-6.57.28-3.71.29-9.7-1.57-9.7-1.57H162.24s-9.41,21-11.13,26.4A33,33,0,0,0,150,303.63s-5.13-2.86-10-2a23.4,23.4,0,0,0,5.14-8.28c1.33-4.25,13.56-35.52,15.22-39.75a4.74,4.74,0,0,0-1.81-1.63,11.42,11.42,0,0,1-3.29-1.47c-1.52,3.78-10.81,26.86-13.9,34.06-3,7-9.25,16.37-17,19.7a36.05,36.05,0,0,1-6.45,2.34l-1.53.38.52-1.49A25,25,0,0,0,118,298.2a5.22,5.22,0,0,0-1.55-3.75,6.91,6.91,0,0,0-4.73-1.95,6.41,6.41,0,0,0-4.42,1.81,5.38,5.38,0,0,0-1.57,3.89,4.47,4.47,0,0,0,1.22,3.32c1.2,1.19,3.34,1.82,6.2,1.82l.84.7a7.44,7.44,0,0,1-3.86,7.77c-2.63,1.4-6.45,3.7-9,5.24h23.19c1-1.61,5.14-6.85,13.89-6.85s12.85,5.25,13.89,6.85h15.57a35.35,35.35,0,0,0-10.83-4.6l-.65-.15v-6.86s.46-.29,4.05-2.46A11.64,11.64,0,0,1,158,296.5c0-3.77,7.75-22.22,8.63-24.31l.22-.52h85.56l.23.5c.88,2,8.64,19.4,8.64,23.19a27,27,0,0,1-1.77,8.2l5.95,3.24L257.34,308l-1.1,2,5.89,3.12h-7.71c0,.05-1.79,1.93-3.41,3.94h14.74c1.05-1.6,5.14-6.85,13.89-6.85s12.85,5.25,13.9,6.85h23.19c-2.5-1.54-6.32-3.84-9-5.25Z" transform="translate(-1.76 -1.76)"/><path class="cls-3" d="M247.88,311.31l-9.12-.75c-1.33,1-7.12,5.76-8.86,7.39l0,0h0l-1.05.91,2.85,1.9L234.6,318l2.45,4.46a83.21,83.21,0,0,0,10.1-9.33h-.51l1.24-1.8Z" transform="translate(-1.76 -1.76)"/><path class="cls-3" d="M185.25,305.4l4.46.44v0a6,6,0,0,1,3.59-1.2l-6.81-.66-1.24,1.39Z" transform="translate(-1.76 -1.76)"/><path class="cls-3" d="M255.13,295.44v-.09a22.23,22.23,0,0,0-1.31-4.94,16.15,16.15,0,0,1-3.68,1.76c-.64.21-1.7,1.12-1.7,1.75,0,1.33-1.63,3.69-1.76,3.92-.66-.28-5.33-.19-8.8.06a9.44,9.44,0,0,1-1.36.79c.08,1.19.26,3.44.26,4.47a4.41,4.41,0,0,0,2.24.47c.35,0,.85-.43,1.48-1a19,19,0,0,1,2.35-1.76c2.27-1.42,4.61.49,5.62,1.81l2.6,2.15,1.54.77a17.67,17.67,0,0,0,2.53-10.2Z" transform="translate(-1.76 -1.76)"/><path class="cls-3" d="M212.69,305.26a9.48,9.48,0,0,1-.32,1.46c-.07.2-.14.39-.22.57l15.6,1.16c.65-.86,1.3-1.85,2-2.7l-17-.49Z" transform="translate(-1.76 -1.76)"/><path class="cls-3" d="M213.41,308.67l5,3.32a29.71,29.71,0,0,0,3-.49,27.12,27.12,0,0,0,5.16-1.7l.15-.14-13.26-1Z" transform="translate(-1.76 -1.76)"/><path class="cls-3" d="M230.2,297.85c-1.39-1-1.75-2.84-2-4.36a6.06,6.06,0,0,0-.66-2.17,4.09,4.09,0,0,1-.78-2.6c0-.8-.17-1.07-.61-1.41,0,0,0,0,0,0a10.28,10.28,0,0,0-1.4,2.35l-.72,3.23-.78-.12c-1.79-.25-3.51,0-3.65.33-.72,1.8-4,1.95-7.91,1.95h-.09a5.66,5.66,0,0,1-2-.39,9,9,0,0,1,0,1,14.51,14.51,0,0,0,.66,4l4.53-2.27c4.21-2.14,7.41-1.63,9.51,1.51l1,1.53-1.83-.2a4.47,4.47,0,0,0-2.34.21,23.41,23.41,0,0,1-4.22,3.36l0,0,13.23.67a37.35,37.35,0,0,0,.07-6.63Z" transform="translate(-1.76 -1.76)"/><path class="cls-3" d="M253.05,308.24v0l1.69.9.68-1.09-2.36.16Z" transform="translate(-1.76 -1.76)"/><polygon class="cls-3" points="255.12 302.07 252.46 305.11 260.83 304.54 255.12 302.07"/><path class="cls-3" d="M169.4,275.52,168,273.38c-2.5,5.95-8.27,20.3-8.27,23.11a10.12,10.12,0,0,0,2.1,5.6l2.62-1.55a10.39,10.39,0,0,1-2.15-5.76c0-3.23,7.15-19.26,7.15-19.26Z" transform="translate(-1.76 -1.76)"/><path class="cls-3" d="M251.27,273.38h-57.2l1.85,2.14h53.9l.22.52c.7,1.64,6.8,16.09,6.8,19.31v-.08a17.47,17.47,0,0,1-1.29,8.15l1-1.14,1.36.59a25.53,25.53,0,0,0,1.63-7.52c0-2.8-8.26-22-8.26-22Z" transform="translate(-1.76 -1.76)"/><polygon class="cls-3" points="189.33 287.08 188.98 287.38 187.02 287.38 192.45 293.51 196.57 293.51 189.33 287.08"/><polygon class="cls-3" points="196.97 291.31 191 285.61 190.3 286.22 197.05 292.22 196.97 291.31"/><polygon class="cls-3" points="197.6 294.8 193.36 294.8 194.81 296.98 200.4 297.6 197.6 294.8"/><path class="cls-3" d="M196.58,300l-.44.88,3.08,2.58a9.88,9.88,0,0,1,2.1-.43,8,8,0,0,0,2.34-2.24l-7.08-.79Z" transform="translate(-1.76 -1.76)"/><path class="cls-3" d="M202.81,291.72c-1.67-1.94-2.55-4.89-3-7.72-1.9.78-3.89,1.67-6,2.64l6.11,5.85.29,3.14,3.45,3.46-.89-7.37Z" transform="translate(-1.76 -1.76)"/><path class="cls-3" d="M199.32,277.23H170.51c-2.72,6.1-6.55,15.44-6.55,17.55a8.88,8.88,0,0,0,1.93,4.89c5.61-3.27,29.93-15.9,33.67-17.42a42.72,42.72,0,0,1-.24-5Z" transform="translate(-1.76 -1.76)"/><path class="cls-3" d="M187.57,289.71l-3,1.53,4.25,3.56,3.51.33-4.8-5.42Z" transform="translate(-1.76 -1.76)"/><path class="cls-3" d="M193.56,296.53l-8-.75.13,1,9.18,1.65-1.28-1.92Z" transform="translate(-1.76 -1.76)"/><polygon class="cls-3" points="183.78 296.32 183.28 298.16 192.93 299.18 193.49 298.06 183.78 296.32"/><polygon class="cls-3" points="192.99 300.48 184.86 299.62 185.03 300.98 194.11 301.7 192.99 300.48"/><path class="cls-3" d="M211.2,308.75a5.44,5.44,0,0,1-3.9,1.53l4.82,4a6.34,6.34,0,0,1,2.37-1.8,11.72,11.72,0,0,1,1.92-.32l-5.21-3.45Z" transform="translate(-1.76 -1.76)"/><path class="cls-3" d="M228.15,324.43l2.67-2.66-3-2a13.7,13.7,0,0,0-2.06,2.26,4.27,4.27,0,0,1-2.47,1.67l5.65,4.74c1.14-.8,2.29-1.62,3.44-2.46l-4.24-1.57Z" transform="translate(-1.76 -1.76)"/><path class="cls-3" d="M245.58,306.57c-.54.12-1.1.26-1.66.42s-2.38,1.46-3.66,2.41l8.46.7,2.07-3,.73.39.36-.57-6.3-.32Z" transform="translate(-1.76 -1.76)"/><polygon class="cls-3" points="249.44 306.98 247.32 310.07 255.23 310.07 249.44 306.98"/><path class="cls-3" d="M221.93,324.24s-1.45-.07-1.69-.06a5.62,5.62,0,0,0-2.34,2.57,5.67,5.67,0,0,0-.34-3.69h0a3.91,3.91,0,0,1-.6-3L215.72,319h0a9,9,0,0,1-1.9-.63c-.27,0-1,.74-1.53,1.63l-1.09,1.86-.49-2.1a6,6,0,0,1,.66-4.41l-5.2-4.36a7.7,7.7,0,0,1-4.42,2.24c-.77,2.28-3.76,2.88-5.27,3.18l-.1,0a3.53,3.53,0,0,0-1.88,2.13,22.5,22.5,0,0,1-1.42-6h0a12.63,12.63,0,0,0-3.19,1.72l-1.09.87-.28-1.38c-.1-.46-.83-4.73.13-6.64h0l-6-.72,2.93-3.29-.24-1.88-1.9-.2,1-3.75-.37-2.95,2.56.24-3.24-2.71c-10.47,5.52-20.44,11.49-24.22,13.78,4.36,1.54,15.41,6.43,22,18.12,2.2,1,16.43,7.5,22.88,19.52a220.32,220.32,0,0,0,23.86-14.09l-5.92-5Z" transform="translate(-1.76 -1.76)"/><polygon class="cls-3" points="232.53 318.33 228.71 322.16 236.15 324.92 232.53 318.33"/><path class="cls-3" d="M249.18,313.1A80.61,80.61,0,0,1,237.88,324l1.49,2.71a78.8,78.8,0,0,0,12.46-13.57Z" transform="translate(-1.76 -1.76)"/><path class="cls-3" d="M300.74,275.46c-.8-1.69-3.8-5.82-7.52-10.67-1.19-1.83-5.49-1.56-3,2.37a107.55,107.55,0,0,0,8.19,9A15,15,0,0,0,302,279a12.86,12.86,0,0,0-1.3-3.58Z" transform="translate(-1.76 -1.76)"/><path class="cls-3" d="M297.22,277.42c-1.79-1.69-3.67-3.72-5.39-5.7-2.16-2.34-8.15-9.19-9-10s.43,1.28-.21,3a11.29,11.29,0,0,1-1.28,2.57s8.83,8.37,9.93,10.13c-.45-.85-.33-2.1-.87-3.14,2.81,5.36,5.57,5.75,6.51,5.75a2.53,2.53,0,0,0,1.88-1.15c-.48-.4-1-.86-1.56-1.41Z" transform="translate(-1.76 -1.76)"/><polygon class="cls-3" points="195.77 132.59 198.75 117.78 208.93 114.47 195.77 132.59"/><polygon class="cls-3" points="202.1 104.19 208.4 112.85 187.1 105.93 202.1 104.19"/><polygon class="cls-3" points="210.64 114.47 220.82 117.78 223.8 132.59 210.64 114.47"/><polygon class="cls-3" points="211.17 112.85 217.46 104.19 232.46 105.93 211.17 112.85"/><polygon class="cls-3" points="209.78 111.84 203.49 103.18 209.78 89.45 209.78 111.84"/><path class="cls-3" d="M205.76,198.6l.55-1a.87.87,0,0,0,.12-.85c-.32-.69-3.54-1.55-3.54-1.55l.56-1a2.21,2.21,0,0,0-.09-1.5h0a8.4,8.4,0,0,0-2.45-2.35L190,218.91c.33.08.73.23,1.19.39,1.28.42,6.2-13.27,6.63-13.91a13.92,13.92,0,0,0,1.07-3.22c.43-1.49,1.71-.64,2.78-.42s6.21-.43,7.65-.68c.18-1.48-3.59-2.47-3.59-2.47Z" transform="translate(-1.76 -1.76)"/><path class="cls-3" d="M214.52,182.63c-1.3-3.63-2.27-5.46-2.87-5.45h-.24c-.62,0-1.59,1.82-2.87,5.45,0,0-2.27,6.68-3.36,9.61a3.26,3.26,0,0,1,.14,1.8c3.3.43,2.94,2.85,2.83,3.46,1.27.51,2.69,1.49,2.89,3,4.15.5,4.55,3.74,4.49,4.17,1,.51,2.7,1.59,2.91,3.26a27.1,27.1,0,0,1,2.8,3.9,5.17,5.17,0,0,0,1-.48c1.07-.64,1.28-1.71,1.5-3a.85.85,0,0,1,.22-.53c-2.18-5.79-8-21.32-9.45-25.22Z" transform="translate(-1.76 -1.76)"/><path class="cls-3" d="M252.6,145.85a12.41,12.41,0,0,0-3.77-3.54h-5.68c2.06.49,6.08,2.46,7.06,4.14.79,1.36,3.22,1.07,2.39-.6Z" transform="translate(-1.76 -1.76)"/><path class="cls-3" d="M183.32,148c-.14,2.67-.85,4.67-2.11,5.94a5.57,5.57,0,0,1-4.07,1.56,5.19,5.19,0,0,1-3.78-1.51,6.57,6.57,0,0,1-1.78-4.65c0-4.41,5.15-6.29,7.9-6.94h-5.82c-1.93,1.2-4.92,3.69-4.92,8a8.16,8.16,0,0,0,2.16,6,7.63,7.63,0,0,0,5.33,2.12,12.9,12.9,0,0,0,3.15-.39s6.13-1.61,3.94-10.16Z" transform="translate(-1.76 -1.76)"/><path class="cls-3" d="M226,136.46c-6.54,7.91-10.54,8.56-14.72,8.56s-8.19-.65-14.73-8.56h-26l3.21,2.5h22.51a17.81,17.81,0,0,0,30,0h22.55l3.17-2.5Z" transform="translate(-1.76 -1.76)"/><path class="cls-3" d="M243.76,155.24a5.11,5.11,0,0,1-2.33-1.34,8.26,8.26,0,0,1-2.06-5.24c-.94,1.42-1.48,4.92-1.48,4.92a8.43,8.43,0,0,0,7,4.84l-1.1-3.18Z" transform="translate(-1.76 -1.76)"/><path class="cls-3" d="M237.87,279.94c-.63-.94-3-2-5-2.71h-7c.15,4.17.78,8.09,1.38,8.61a3.37,3.37,0,0,1,1.15,2.8,2.52,2.52,0,0,0,.41,1.61,6.69,6.69,0,0,1,1,2.92c.28,1.43.56,2.91,1.57,3.41,2,1,3.06,1.42,5.13.14a8.75,8.75,0,0,1-.38-1.94,1.23,1.23,0,0,1,.57-1.14,7.71,7.71,0,0,1-3.14-1.43c-1.42-1.14-1.42-1.14-.57-2s3.14.29,3.14.29a17.17,17.17,0,0,0-6.28-5.42c-1.42-.57-.57-1.43.86-1.43a11.21,11.21,0,0,1,3.71,1.14,4.89,4.89,0,0,1-.57-2.57c0-1.71,2.28-.28,3.71,0s1.42-.56.28-2.28Z" transform="translate(-1.76 -1.76)"/><path class="cls-3" d="M215.85,298.76a1,1,0,0,1,.18.4.42.42,0,0,1-.33.5.43.43,0,0,1-.51-.34.39.39,0,0,0-.13-.17l-.48.24a1.42,1.42,0,0,1,.49.73.42.42,0,0,1-.34.5.42.42,0,0,1-.5-.34c0-.1-.24-.29-.52-.45L211.3,301a4.73,4.73,0,0,1,1.36,2.43l3.43-1.18a23.09,23.09,0,0,0,3.66-2.84,2.69,2.69,0,0,1,1.9-.95c-1.85-1.31-4.09-.57-5.8.27Z" transform="translate(-1.76 -1.76)"/><path class="cls-3" d="M211.55,292.2c.85-1.15.85-1.43,0-2.29s-3.93-3.4-2.78-3.4-2-3.43.85-3.43.86-1.14.86-1.14-6.23-1.85-7.9-4.71H201c0,2.68.18,10.29,3.22,13.54l.19.21,1.21,10v0h0l-.18.24c-.81,1.12-2.24,2.88-3.5,3.36a1.61,1.61,0,0,1,.17.7.43.43,0,1,1-.85,0,1,1,0,0,0-.21-.53c-.56.1-1.65.41-2.57.67l-1.29.37a1.62,1.62,0,0,1,.22.78.43.43,0,0,1-.86,0,1,1,0,0,0-.22-.56c-.38.11-.74.19-1.06.26a1.34,1.34,0,0,1,.52.75.42.42,0,0,1-.33.5.43.43,0,0,1-.51-.34c0-.15-.47-.47-.91-.65h0a.38.38,0,0,1-.15-.09,2.23,2.23,0,0,1-.47,0,3.35,3.35,0,0,0-3.31,1.55,9.1,9.1,0,0,0-.14,4.1,8.23,8.23,0,0,1,3.94-1.51,7.58,7.58,0,0,1,3.73-1.8,11.28,11.28,0,0,1,3.39-.89,7.55,7.55,0,0,0,3-2.32c-.69.86-1.45,3.41-2.61,3.93,0,0,0,.07,0,.1a.43.43,0,0,1-.85,0,11.74,11.74,0,0,0-1.78.51,1.84,1.84,0,0,1,.06.41.43.43,0,1,1-.85,0,.52.52,0,0,0,0-.11l-.51.14a1.45,1.45,0,0,1,.1.51.43.43,0,0,1-.86,0,.54.54,0,0,0,0-.22c-1,.4-2,1-2,1.86s.07,1.72.16,2.59a2.3,2.3,0,0,1,1.09-.58l.11,0c1.25-.25,3.86-.77,4.06-2.38l.09-.7.7-.05s3.48-.29,4.4-2.6l.27-.66.69.13c.15,0,3.48.64,4.37-2.28.78-2.52,0-3.34-.86-4.2a9,9,0,0,1-.65-.72c-1.08-1.45-1.31-5-1.31-5.65,0-.93,0-1.78-.67-2.09l.11-.21c-.73-.57-.54-1.65-.58-1.7a10.78,10.78,0,0,0,4.78,1.7h.09c2.94,0-.95,0-.09-1.14Z" transform="translate(-1.76 -1.76)"/><path class="cls-3" d="M247.26,304l-.09-.11s-1.84-2.48-3.42-1.49a14.1,14.1,0,0,0-1.25.88,1.74,1.74,0,0,1,.3.92.43.43,0,1,1-.86,0,.79.79,0,0,0-.11-.38,1.92,1.92,0,0,1-.23.19,4.1,4.1,0,0,1-2.58,1.37c-1,0-2.56,0-3.43-.86a2,2,0,0,1-.57-1.42c0-.87-.11-2.66-.19-3.86a5.5,5.5,0,0,1-2.86-.47c.13,2.53.17,6.73-.85,8-.36.46-.74,1-1.11,1.51a13.12,13.12,0,0,1-2.47,2.92,17.9,17.9,0,0,1-5.15,1.83l-.61.16a1.55,1.55,0,0,1,.15.65.43.43,0,0,1-.86,0,.8.8,0,0,0-.13-.42l-.55.1a1.47,1.47,0,0,1,.15.64.43.43,0,0,1-.86,0,1,1,0,0,0-.2-.53l-.34,0a1.63,1.63,0,0,1,.22.81.43.43,0,0,1-.85,0,1.19,1.19,0,0,0-.34-.7H218c-1.1.12-2.62.28-3,.39a5.24,5.24,0,0,0-2.61,3.1,2,2,0,0,1,2.16-.39c1.13.56,3.51,1,4,.09.73-1.45,2.51-1.59,3.93-1.7a4.81,4.81,0,0,0,1.75-.31,64.83,64.83,0,0,1,5.93-3s-3.79,3.56-4.9,4.39l-.27.16a1.72,1.72,0,0,1,.15.65.43.43,0,0,1-.43.43.43.43,0,0,1-.43-.43.81.81,0,0,0-.1-.36l-.6.11a1.66,1.66,0,0,1,.17.68.43.43,0,0,1-.43.43.43.43,0,0,1-.43-.43,1,1,0,0,0-.25-.59h0c-1,.08-2.24.18-2.53.76a2.49,2.49,0,0,1-1.18,1.13,6.33,6.33,0,0,0-.12,3h0a2,2,0,0,1,.47.92,1.65,1.65,0,0,1,.92-.32c1.39,0,3.58-.4,4.12-1.29.89-1.49,4-4.13,4.44-4.48s8.63-7.19,10-8.31a51.77,51.77,0,0,1,4.37-2.92l.1-.06.11,0a34.4,34.4,0,0,1,4.5-1l-.6-.42Z" transform="translate(-1.76 -1.76)"/><path class="cls-3" d="M234.11,326.86c-1,.77-2.06,1.5-3.09,2.23v4.37c2.51-1.87,4.78-3.7,6.8-5.44l-3.71-1.16Z" transform="translate(-1.76 -1.76)"/><path class="cls-3" d="M194.42,334.33v3.34a63.73,63.73,0,0,1,8.35,9.87v-2.89a35.11,35.11,0,0,0-8.35-10.32Z" transform="translate(-1.76 -1.76)"/><path class="cls-3" d="M167.67,311.92v3a35,35,0,0,1,12,11.73v-2a37.34,37.34,0,0,0-12-12.77Z" transform="translate(-1.76 -1.76)"/><path class="cls-3" d="M313.69,290.37a9.41,9.41,0,0,0-6.93-2.44c-3.55,0-6.24,1-8,3a7.53,7.53,0,0,0-1,1.43l.94,3.15a8.16,8.16,0,0,1,13.1-2.41,7,7,0,0,1,2.07,5.1,6.14,6.14,0,0,1-1.72,4.52l1.71,2.1c2.42-2,2.58-5.23,2.58-6.05,0-3.74-.93-6.57-2.77-8.41Z" transform="translate(-1.76 -1.76)"/><path class="cls-3" d="M296.2,301.06c-6.82-3.32-12.44-9.95-15.92-18.81-2.22-5.64-12.29-30.66-12.61-30.81.11,1.38,0,3.14-1.16,4,3.45,8.55,9.3,23,11.64,28.45,2.89,6.74,8.84,15.7,16.1,18.82h.05s1.28.63,3.09,1.29l-1.19-2.95Z" transform="translate(-1.76 -1.76)"/><path class="cls-3" d="M306.58,321.32h27l-28-16.29a5.59,5.59,0,0,0,3,5.26c4.26,2.27,14.13,8.46,14.13,8.46H306.58v2.57Z" transform="translate(-1.76 -1.76)"/><path class="cls-3" d="M292.31,318.31c-.14-.26-3.62-6.4-12.66-6.4l.57,3.13c6.78,0,10.81,4.84,11.86,6.28l.47-2.57-.24-.44Z" transform="translate(-1.76 -1.76)"/><polygon class="cls-3" points="264.98 316.99 257.3 316.99 257.3 319.56 266.05 319.56 264.98 316.99"/><path class="cls-3" d="M279.83,267.45c-.86-1.07-2.36-2.13-2.79-3.2s-1.5-.86-1.07.42a13.37,13.37,0,0,0,2.79,4.28c1.07,1.07,2.14,1.93,2.14,1.93a8.22,8.22,0,0,0-1.07-3.43Z" transform="translate(-1.76 -1.76)"/><path class="cls-3" d="M271.91,241.34a16.28,16.28,0,0,0-1.93-3.85c-.64-1.07-2.14.21-2.14.21s-1.71,1.5-.86,2.36,2.57,2.14,2.57,2.14c1.07,1.28,1.71,1.92,2.36,1.92s.42-1.28,0-2.78Z" transform="translate(-1.76 -1.76)"/><path class="cls-3" d="M269.13,247.55a14.18,14.18,0,0,0-4.29-6.21c-1.71-1.28-1.71,2.35-1.07,3.21s2.36,3,3.64,4.5,2.36.64,1.72-1.5Z" transform="translate(-1.76 -1.76)"/><path class="cls-3" d="M265.06,251.83c-.43-1.71-2.44-4.45-3.43-6.42-1.28-2.57-2.35.64-2.14,2.14s2.36,3.64,3.86,5.14,2.13.86,1.71-.86Z" transform="translate(-1.76 -1.76)"/><path class="cls-3" d="M259.49,254c-.21-1.28-1.47-5-2.78-6-.86-.64-1.5.43-1.07,1.5a23.19,23.19,0,0,1,1.5,4.06,22.42,22.42,0,0,1,.21,3.85c0,1.5,1.93,1.29,2.14.22a10.1,10.1,0,0,0,0-3.64Z" transform="translate(-1.76 -1.76)"/><path class="cls-3" d="M254.78,255.47a10.35,10.35,0,0,0-1.49-4.28c-1.29-1.07-1.5.86-1.72,1.92s.64,4.07.86,5.35,1.93,2.57,2.78,1.93-.21-2.57-.43-4.92Z" transform="translate(-1.76 -1.76)"/><path class="cls-3" d="M249.22,254c-1.93-1.5-3,1.07-3,2.36s-.21,3.85.86,5.56,3.21-.64,3.21-1.93.29-4.93-1.07-6Z" transform="translate(-1.76 -1.76)"/><path class="cls-3" d="M243.65,256.33c0-.86-1.71-1.72-1.49,0,0,0,.64,4.49-1.72,2.13,0,0-.42,3.64.43,4.93s2.57,2.35,3-.22-.22-6-.22-6.84Z" transform="translate(-1.76 -1.76)"/><path class="cls-3" d="M237.87,259.32c-.85,2.57-3.42-.86-3.42-.86.21,4.29,1.28,7.07,2.57,6s.85-5.14.85-5.14Z" transform="translate(-1.76 -1.76)"/><path class="cls-3" d="M230.38,265.32c1.93-1.07,2.36-4.93,2.36-4.93-1.07.86-4.28,6-2.36,4.93Z" transform="translate(-1.76 -1.76)"/><path class="cls-3" d="M224.39,265.1c2.78-1.28,4.5-9,4.5-9-1.93,1.29-7.28,10.27-4.5,9Z" transform="translate(-1.76 -1.76)"/><path class="cls-3" d="M225.89,251s.85,3.85,1.92,3.85-.42-2.14-1.92-3.85Z" transform="translate(-1.76 -1.76)"/><path class="cls-3" d="M230.6,249.05s.42,5.35,1.92,4.71-.64-3-1.92-4.71Z" transform="translate(-1.76 -1.76)"/><path class="cls-3" d="M235.09,248.19s-.43,4.71,1.5,5.14-.64-4.07-1.5-5.14Z" transform="translate(-1.76 -1.76)"/><path class="cls-3" d="M241.3,249.05c-.21-1.29-1.28-4.07-1.93-2.79,0,0-.21,4.5,1.72,5.78s.42-1.71.21-3Z" transform="translate(-1.76 -1.76)"/><path class="cls-3" d="M246,248.41a9.52,9.52,0,0,1-1.07-4.28c0-.86-1.07-2.36-1.29-.86,0,0-.85,5.35,1.07,7.06s2.14-.43,1.29-1.92Z" transform="translate(-1.76 -1.76)"/><path class="cls-3" d="M250.93,247.76c-.43-1.5-1.92-2.57-1.92-3.85s-1.5-2.35-1.5-.64.43,4.92,1.5,6,2.35,0,1.92-1.5Z" transform="translate(-1.76 -1.76)"/><path class="cls-3" d="M254.78,244.13c-.85-1.29-2.35-2.79-2.57-4.29s-1.49-1.28-1.49,0c0,1.5,1.28,5.14,3,6.21s1.93-.64,1.07-1.92Z" transform="translate(-1.76 -1.76)"/><path class="cls-3" d="M258.21,240.27c-.86-1.5-2.57-4.06-2.78-5.35s-1.72-1.71-1.72.22c0,2.36,1.72,6.42,4.29,7.92s1.06-1.29.21-2.79Z" transform="translate(-1.76 -1.76)"/><path class="cls-3" d="M262.7,237.92a31.24,31.24,0,0,1-3.21-4.71,1,1,0,0,0-1.92.43s2.14,4.49,4.28,6.2,1.71-.85.85-1.92Z" transform="translate(-1.76 -1.76)"/><path class="cls-3" d="M265.91,232.14c-.85-.64-4.06,0-4.06,0s2.35,2.78,4.06,3.42.86-2.78,0-3.42Z" transform="translate(-1.76 -1.76)"/><path class="cls-3" d="M269.77,229.14c-.86-1.07-1.29-3.85-3.64-3.42,0,0,2.78,3.64.21,3.64a11.38,11.38,0,0,1,3,2.14c.86,1.07,1.28-1.29.43-2.36Z" transform="translate(-1.76 -1.76)"/><path class="cls-3" d="M272.76,224.86a23.38,23.38,0,0,1-5.35-4.71c-.42-.86-1.92-1.5-1.71-.21,0,0,4.71,5.78,6.21,6.85s2.14-1.29.85-1.93Z" transform="translate(-1.76 -1.76)"/><path class="cls-3" d="M275.54,220.58c-1.28-1.5-5.35-4.71-5.77-5.78s-1.72-.64-1.29.43c0,0,4.28,4.28,3.21,6a32.83,32.83,0,0,0,3.43,1.93c1.07.43,1.71-1.07.42-2.57Z" transform="translate(-1.76 -1.76)"/><path class="cls-3" d="M274.9,211.81c-.85-.86-2.78-.43-1.5,1.07,1,1.14,7.07,4.92,4.93,4.92h-2.14s3,3.63,4.49,1.28c.67-1.05-4.92-6.42-5.78-7.27Z" transform="translate(-1.76 -1.76)"/><path class="cls-3" d="M282,213.09c-.86-1.93-6.21-6.21-9.42-4.49,0,0,7.28,2.14,8.13,6s2.14.43,1.29-1.5Z" transform="translate(-1.76 -1.76)"/><path class="cls-3" d="M283.89,212s4.07,4.07,4.5,2.57-2.78-1.71-4.5-2.57Z" transform="translate(-1.76 -1.76)"/><path class="cls-3" d="M287.1,209.88s6,3.42,3.64,5.14c0,0,5.14-1.72-3.64-5.14Z" transform="translate(-1.76 -1.76)"/><path class="cls-3" d="M293.74,205.39c-1.5-1.93,2.78-.43,2.78-.43-1.07-2.79-7.06-4.5-7.06-4.5l2.35,3.21a3.69,3.69,0,0,0,.64,3c1.07,1.28,3.85,3.21,4.5,4.92s-3,.64-3,.64,4.71,3.86,6,2.36-4.71-7.28-6.21-9.2Z" transform="translate(-1.76 -1.76)"/><path class="cls-3" d="M303.58,207.53s6.21,6.2,1.29,4.92c0,0,4.92,4.71,6.21,3s-6.43-7.06-7.5-7.91Z" transform="translate(-1.76 -1.76)"/><path class="cls-3" d="M308.08,207.53s5.56,6.84,8.35,6.84-5.35-4.49-8.35-6.84Z" transform="translate(-1.76 -1.76)"/><path class="cls-3" d="M326.7,215.23c-1.28-1.71-6.42-6.85-6.42-6.85s2.78,7.28-1.71,1.71-8.78-9.41-7.92-6.42c0,0,10.7,12.42,13.69,13.06s3.65.21,2.36-1.5Z" transform="translate(-1.76 -1.76)"/><path class="cls-3" d="M283.68,203s0,3.85,5.78,4.28-5.78-4.28-5.78-4.28Z" transform="translate(-1.76 -1.76)"/><path class="cls-3" d="M258.64,224.43c-1.5,1.93,4.06,1.93,4.06,1.93s-1.45-5.28-4.06-1.93Z" transform="translate(-1.76 -1.76)"/><path class="cls-3" d="M251.79,226.57c-1.07,2.57,4.06,5.35,4.28,2.79s-4.28-2.79-4.28-2.79Z" transform="translate(-1.76 -1.76)"/><path class="cls-3" d="M247.72,228.93c-2.57,4.28,2.14,5.14,2.14,5.14.86-3.22-2.14-5.14-2.14-5.14Z" transform="translate(-1.76 -1.76)"/><path class="cls-3" d="M242.16,233.42c-1.93,6.42,3.21,5.14,3.21,5.14.64-3.64-3.21-5.14-3.21-5.14Z" transform="translate(-1.76 -1.76)"/><path class="cls-3" d="M258.42,218.23s1.5,3.42,3.85,3.2-3.85-3.2-3.85-3.2Z" transform="translate(-1.76 -1.76)"/><path class="cls-3" d="M236.59,236.63s-1.07,4.28.86,4.07-.86-4.07-.86-4.07Z" transform="translate(-1.76 -1.76)"/><path class="cls-3" d="M217.54,225.93v3.21c3,4.28-2.78.43-2.78.43,4.07,3.64,1.28,6,1.28,6,3.86.86,4.28-1.71,4.92-4.28s-3.42-5.35-3.42-5.35Z" transform="translate(-1.76 -1.76)"/><path class="cls-3" d="M212.62,203c-.64-1.93-6,.21-6,.21,3.21.86,6.63,1.72,6-.21Z" transform="translate(-1.76 -1.76)"/><path class="cls-3" d="M214.33,206.88c-1.5-1.71-4.71,0-4.71,0,3.64.43,6.21,1.72,4.71,0Z" transform="translate(-1.76 -1.76)"/><path class="cls-3" d="M218.61,212.23c-.86-2.78-7.06-2.35-7.06-2.35-2.57,1.07,1.28,1.5,3.64,2.35s4.28,2.79,3.42,0Z" transform="translate(-1.76 -1.76)"/><path class="cls-3" d="M195.71,219.94s-1.29,3.64-3.43,5.14c0,0,4.71,1.07,5.35-1.29s-1.92-3.85-1.92-3.85Z" transform="translate(-1.76 -1.76)"/><path class="cls-3" d="M200.85,240.7c3.42.86,3.85-1.5,3.85-1.5s-7.28.64-3.85,1.5Z" transform="translate(-1.76 -1.76)"/><path class="cls-3" d="M207.27,249.48s-3.21.42-2.36,2.13,3.21.65,2.36-2.13Z" transform="translate(-1.76 -1.76)"/><path class="cls-3" d="M193.57,255.68c-1.29-.85-3.21,2.57-4.92.43,0,0,3,4.07,3.85,3a1.91,1.91,0,0,0,.21-2.14s2.14-.43.86-1.29Z" transform="translate(-1.76 -1.76)"/><path class="cls-3" d="M170.88,255.68a8.35,8.35,0,0,0-5.78-3.63c-1.92,1.07.86,2.78,1.93,4.28s4.89,1.08,3.85-.65Z" transform="translate(-1.76 -1.76)"/><path class="cls-3" d="M166.39,257.82c-1.29-.42-1.29,1.29-1.29,1.29s1.24.32,1.07.86,1.5,0,2.57-.65-1.07-1.07-2.35-1.5Z" transform="translate(-1.76 -1.76)"/><path class="cls-3" d="M174.09,257.61s.64,2.78,2.57,1.92c0,0-1.07-2.78-2.57-1.92Z" transform="translate(-1.76 -1.76)"/><path class="cls-3" d="M177.94,260.18s1.72,2.35,3,1.07-1.93-1.5-3-1.07Z" transform="translate(-1.76 -1.76)"/><path class="cls-3" d="M189.07,253.55s.43,1.49,1.72,1.49.85-1.93-1.72-1.49Z" transform="translate(-1.76 -1.76)"/><path class="cls-3" d="M322,198c-16.86-16.86-45.33-24.3-56.06-24.3-9.66,0-20.42,7.43-20.52,7.51l-.88.61s-9.78-23.28-9.45-27.38c0-2.21-2.61-1.93-2.57,0,.09,4.86.51,6.05,1.65,8.66.31.73,4.48,11.15,8.26,20.5l-1.58.64c-3.79-9.36-7.94-19.74-8.25-20.46-1.16-2.66-1.79-4.12-1.79-9.34,0-5.68,6.05-7.95,9.25-8.36l1,.85c0,2.72.55,4.66,1.64,5.75a3.82,3.82,0,0,0,2.85,1.06c3,0,3.85-2.79,3.85-4.44,0-4.39-8-5.49-8.09-5.5l-1.77-.23,3.18-3.05H227.39a19.65,19.65,0,0,1-32.15,0H180l3.17,3.05-1.77.23c-.08,0-8.09,1.11-8.09,5.5a4.94,4.94,0,0,0,1.28,3.44,3.51,3.51,0,0,0,2.57,1c3,0,4.5-2.29,4.5-6.81l1-.85c3.2.41,9.26,2.68,9.26,8.36,0,5.22-.64,6.68-1.79,9.34-.31.71-24,59-24,59l-1.33-1.07s23.44-57.92,23.76-58.65c.89-2.05,1.72-3.88,1.57-6.09s-2.85-2.08-2.86,0-1,4.94-2.17,7.85L161.78,222.4l-1.59-.64s-11.13-6-13.34-7.95c-2-1.74-4.69-1.72-7.23.06-1.66,1.16-2.91,1.17-4,.73a2.39,2.39,0,0,0,1,2.56l-.22,1.07c-5.31-1.37-5.14-4.93-4.85-6.3l-.52-.34c-1.73-1.13-3.69-2.42-5-2.42a3.45,3.45,0,0,0-2.54,1.39,5.93,5.93,0,0,0-1,4.45,4.28,4.28,0,0,1,4.4-.36c3.07,1.18,4.7,6.22,5.26,8.08.59.26.59-.88,1.5-.33,1.19.73,3.47,3.27,5.78,4.61l.85-.65V222.3a2.08,2.08,0,0,0-1.07-1.07c-.06,0-.15-4.37-1.49-4.07a4.64,4.64,0,0,1,4.06.86,6.26,6.26,0,0,1,1.5,2.14,33,33,0,0,0,3,1.71,60.17,60.17,0,0,1,7.06,5.14c1.28,1.07,1.5-.64,3-.22a17.48,17.48,0,0,0,3.85.43s-2.57-2.35-2.57-3.64,1.93-1.92,3-1.28,1.5,1.71,2.57,1.92a5.39,5.39,0,0,1,1.92.86s-1.07,1.5,1.07,1.71,5.35.64,5.35.64a18.07,18.07,0,0,0,2.79.65c.64,0,.21,1.07-1.07,1.07-2.14,0-10.49-.86-11.35-1.5,0,0,1.93,3-1.92,1.71s-.65.22-.65.22l.86,2.57s-3.2-1.38-7.13-2.61c-4.13-1.3-9.07-2.44-11.92-1.68,0,0,.64,4.29,2.36,4.92s.64-1.07,2.78,0S160.82,243.7,163,244.56s1.07,2.14-.42,1.28a35.13,35.13,0,0,0-4.71-1.92l3.22,3.54.42-.12a29.35,29.35,0,0,0,3.85.64c2.14.21,1.07-.21,1.71-1.5s1.07,0,2.57,1.07,1.29,1.72,3,1.72.22-1.5.64-2.15,1.5.43,2.14.65,2.78,0,5.14.42,2.78,1.93,2.14,1.93-2.14.43-3.64.64,0,1.5.21,2.36,3,1.92,3,1.92-.86.64-2.78-.21-2.78-1.71-5.14-2.57-3,2.35-1.5,2.35a12.5,12.5,0,0,1,3,.43,7.08,7.08,0,0,0,3,1.5,2.54,2.54,0,0,1,2.36,2.35c.21,1.29,3.21,0,4.92.43s1.29,0,.43-.86-1.28-1.5-.64-1.71a2.19,2.19,0,0,0,.85-.43s1.07-1.28-.21-1.5-2.14-1.07-3.85-1.92,0-1.07,1.07-1.07,1.71.64,2.57,1.07.21-1.5,1.71-1.5-1.07-1.28-3.21-1.71-1.29-2.79-.22-2.35a64.34,64.34,0,0,0,7.07,1.49c2.35.43.64,2.36-.86,2.57s1.5,1.5,2.78,2.14,1.93,1.07,1.93-.21-1.28-3.43-1.5-4.71,1.07-.64,2.36-.64.85-1.5,0-1.5a3.12,3.12,0,0,1-2.57-2.35c-.43-1.5,1.07-2.57,1.07-4.29s.86-3-.64-3.85.85-1.71,1.71-2.57,4.49-1.07,5.78-1.5,2.78.86,1.71.86-3,1.29-4.71,1.71-1.28,1.93-.43,1.93a10,10,0,0,0,4.5-.64,23.63,23.63,0,0,0,6.42-4.5c.64-.85.86-1.28-.64-2.14s-1.29-1.28-.22-1.28,2.57-1.07,4.28-1.07,3.21-3.43,4.28-4.93.22-2.57-.85-2.57H210.7c-.86,0-1.93-.64-.86-1.28s4.5-1.07,8.13-1.5-1.71-1.28-3.63-1.07-6,0-6.42.86-1.29,1.5-3.21.86-2.15,1.28-.86,1.5,1.71.42,1.07,1.07a10.49,10.49,0,0,1-2.78,1.71c-1.29.64-3.64-.43-3,1.07a3.13,3.13,0,0,0,2.35,1.71c.22-2.35,5.78-3.42,7.49-3.42s3.64,1.07,2.57,1.07-1.49.86-3,1.07.21,1.71-.65,2.35-5.56,1.5-6.63,1.29-.64,1.28-.64,2.14-1.5,1.49-3,1.71a2.88,2.88,0,0,0-2.57,1.71c-.64,1.07-1.07,1.71-2.14.43s.43-2.36.43-3.64,2.14.64,3,.43a1.57,1.57,0,0,0,1.29-1.5c0-.64-3.64,0-4.92,0h-3a3.68,3.68,0,0,0,0-2.35c-.43-1.29-1.71-.86-2.14-1.5a2.78,2.78,0,0,1-.33-1,7,7,0,0,0-3.8,1.87s-.72.85-.74.83l-.63-.92c0-.06-1.13-1.58-4.32,0-1.52.75-2.4,1-3,.72a1.33,1.33,0,0,1-.61-.48l0,0c-2.25,1.28-5.71-.62-6.13-.75.77.24,3-.15,4.46-.45,2.22-5.69,25-63.86,25.79-65.76s.57-5.42.57-5.42,4.85,3.14,7.42,3.43a33.71,33.71,0,0,0-3.14,4.28c-.27.81-21.34,56.31-23.5,62a4.18,4.18,0,0,1,3.25.71,9.63,9.63,0,0,1,4.51-1.87c1.7-4.48,14.82-39,16.94-44.34,1.75-4.36,5.28-6,7.26-6h0c2,0,5.51,1.62,7.25,6,1.24,3.08,6.17,16,10.09,26.3l-1.29,1.13c-3.91-10.29-9.3-23.67-10.39-26.8a6.82,6.82,0,0,0-2.76-3.75s-2.09,1.36-1.5,2.09,1.76,2.22,3.19,6.19c1.72,4.78,10.18,27.16,10.27,27.39,0,0-2,4.29-2.44,5.37s-.86,2.35-1.5,2.35-1.29.64-1.29,1.93,0,1.71-.64,2.14-1.07,1.28-1.28,3.21,2.35,2.78,3.85,2.78-.43-.86-.43-2.14.64-.86,1.93-.86.42-.64-.22-2.14,1.5-1.28,3-.42,1.29-1.29.21-2.57-.64-1.5.65-1.5a6.81,6.81,0,0,0,2.78-.86c-.86-5.14,2.78-3.85,2.78-3.85-3.42-2.57-2.14-3.43-1.07-3.43a1.74,1.74,0,0,0,1.5-1.07c-1.5-1.28.43-2.35,1.5-2.14s2.57.43,2.14-.42,0-2.79.64-2.79,1.28-1.07-.22-2.57,1.29-1.71,3-1.71,1.93-3.85,1.93-3.85c-1.07-1.93,2.14-1.93,2.14-1.93a46,46,0,0,1,12.41-10.06c7.07-3.63,18.84-3.42,24.62-.85s-.43-3.21-.43-3.21,5.56,2.14,8.35,4.28,4.71,1.49,11.13,5.56,5.35.86,5.35.86,9.84,7.06,13.05,10.7c2.36,2.67,2.26-.47,2.12-2.24Z" transform="translate(-1.76 -1.76)"/><path class="cls-3" d="M169.81,244.34a19,19,0,0,1-2.57-1.93s-1.5-.64-1.71,0a4.38,4.38,0,0,0,5.56,3,3.4,3.4,0,0,0-1.28-1.07Z" transform="translate(-1.76 -1.76)"/><path class="cls-3" d="M140.92,234.28l2.14,1.71s.64-.21-2.14-1.71Z" transform="translate(-1.76 -1.76)"/><path class="cls-3" d="M148,236.85s.86,1.5-2.35,1.28a13.49,13.49,0,0,1,6.2,3.43,7.65,7.65,0,0,0-3.85-4.71Z" transform="translate(-1.76 -1.76)"/><path class="cls-3" d="M154.83,245.41a8.1,8.1,0,0,0-3.43-1.93s2.14,5.35,6.64,5.78l-3.21-3.85Z" transform="translate(-1.76 -1.76)"/><path class="cls-3" d="M133,232.57s5.13,2.57,6.42,4.06-2.14-3.85-6.42-4.06Z" transform="translate(-1.76 -1.76)"/><path class="cls-3" d="M141.56,238.35s3.64,3.64,5.77,3.85c0,0-3.06-3.22-5.77-3.85Z" transform="translate(-1.76 -1.76)"/><path class="cls-3" d="M371.72,260.73c-1.88-4.38-10.23-17.88-20.43-30.84a213.82,213.82,0,0,0-20-21.33c6.18,7.65,18,23.49,19.39,24.86,1.71,1.71-.64,2.36-1.5,1.29s-6.42-8.14-9.41-11.13-4.29-.65-3.21.64,6.63,8.35,8.56,10.92-.22,2.35-1.5.85-5.35-6-6.64-7.92-8.77-8.13-10.48-9.2-4.07-.43-3,.85,3.64,4.71,4.71,6,3.42,1.71,4.28,2.14,2.57,3.21,3.42,3.85-.21,2.14-.85,1.07a19.59,19.59,0,0,0-1.93-2.57,5.2,5.2,0,0,0-3.85-1.93c-1.5,0-3.64-3-4.71-4.28s-5.78-4.92-8.78-7.06-3,.22-1.92.64,5.78,4.71,6.85,5.57-.43,2.57-1.5,1.28-6.42-5.56-8.13-6.2-4.07-.65-3.64.42,3.64,4.5,4.49,5.57,0,2.35-1.28,1.07-4.28-4.93-5.57-6.42-1.49-1.93-2.78-1.5-4.71,0-3.85.86,4.92,6.42,6.21,7.71.42,2.13-1.29.42a91.44,91.44,0,0,0-8.13-7.49c-2.14-1.5-7.71-.86-7.71-.86l3,3c1.07,1.07,2.14,4.07-1.29.64s-6-2.57-7.27-.64.85,3.42,1.71,3.85-.43,2.79-1.28,1.71-3-2.57-5.14-1.07-1.71,5.57-1.71,5.57a4.58,4.58,0,0,0-2.79-.43c-1.92,7.06,3.63,8.24,3.63,8.24,2.79.8,3.35.36,3.54.14.7-.81-.22-3.31-1.05-4.74l-1.47-2.49,2.59,1.29c6,3,7.39,2.21,7.69,1.9.81-.86.29-4.44-.72-6.2,3.37,2.18,6.62,2.4,8.07,1.69,1.14-.57,1.37-3.52,1.37-3.52l1.24.84c7.29,5,9.82,4.72,10.57,4.4.43-.19.64-2.15.64-2.15l1.25,1c2.05,1.64,3.8,2.31,5.05,1.94s2.19-3.17,2.19-3.17l1,1.12c4.43,5,7.29,6,8.91,6a3.9,3.9,0,0,0,2.36-1.36s4.29,5.12,7.28,4.33c1.16-.31,1.61-4.15,1.61-4.15s8.38,11.22,13,11.28a1.69,1.69,0,0,0,1.29-.42l.83-1.14.63,1.26c2,4,17.08,14.83,18,15.36a13.48,13.48,0,0,0-.51-1.37Z" transform="translate(-1.76 -1.76)"/><path class="cls-3" d="M324.13,208.17s1.5,2.78,3,2.78,1.07-1.71-3-2.78Z" transform="translate(-1.76 -1.76)"/><path class="cls-3" d="M329.7,214.59s2.35,3.85,5.35,4.49-1.5-4.71-5.35-4.49Z" transform="translate(-1.76 -1.76)"/><path class="cls-2" d="M224.23,158.88c-.86-2-.57-5.42-.57-5.42s-4.85,3.14-7.42,3.43a32.76,32.76,0,0,1,3.14,4.28c.15.46,6.2,19.09,12.5,35.72l4.28-5.7c-6.07-15.51-11.52-31.35-11.93-32.31Z" transform="translate(-1.76 -1.76)"/><path class="cls-3" d="M133.28,225.57c-5.28.58-11.41-3.7-11.41-3.7,7.27,12.84,12.7,4.7,12.7,4.7l-1.29-1Z" transform="translate(-1.76 -1.76)"/><path class="cls-3" d="M135.57,227.43a3.13,3.13,0,0,1-2.14,1.57c.42.71,3.28.14,3.28.14s-.57-3-1.14-1.71Z" transform="translate(-1.76 -1.76)"/><path class="cls-2" d="M157.4,232.35a25.41,25.41,0,0,1-5.57-1.92c3.21,4.28,7.49,2.14,5.57,1.92Z" transform="translate(-1.76 -1.76)"/><path class="cls-3" d="M179.53,174.06c-6.74-4.81-14.5-9.23-16.63-8.81-.23.5-2.08.25-2.08.25a2.11,2.11,0,0,1,.62-1.37.5.5,0,0,0,0-.12c0-.1-.89-1.09-5-1.09-1.05-1-2.89-2.26-3.46-2.09l-2,.51a2.8,2.8,0,0,0-1-1.81,5.81,5.81,0,0,0-4.17-.65,14,14,0,0,0-4-2.51,15.14,15.14,0,0,1-1.54,1.16c-.21-.64-1.35-2.63-4.68-2.48-.08,0-8.22-4.28-14.35-4.28-2.53-1.24-9.07-3.79-12.7-3,3.75,1.46,6.75,4,8,4.72-5.65-3.14-15.64-6.44-18.32-4.62a36.37,36.37,0,0,1,11.47,5.9c-.08-.05-8.8-4.33-17.22-5.36-10.07-1.23-16.81-.71-19,1.47l-.22.21-.3,0c-4.61.48-9.93,1.31-11.45,1.94,1.54,1,8.07.48,11.26.21,1.37-.12,2.45-.21,3.1-.21,2.75,0,24.12,1,32.28,5.23,7.86,4,20.41,12.64,24,16.44l1.52,1.44a3.41,3.41,0,0,1,3.43,0,7.83,7.83,0,0,1,3.42,5.78c0,2.14.64,1.71,2.57,3s-.22-3,.43-2.36a37.9,37.9,0,0,1,2.78,3.64c1.07,1.5,1.93.64,2.35-.43s-1.92-1.71-3.42-3.21a56,56,0,0,1-5.14-7.27c-1.07-1.72-6-3.21-7.06-3.64s-1.07-.22-.43-1.07,3.42.64,4.71.85,1.5,0,1.07-1.71-9.42-7.28-12.63-8.77-1.71-2.79-1.71-2.79.21.43,6.63,3.43a21.35,21.35,0,0,1,9.21,8.13,5.86,5.86,0,0,0,4.92,1.07c3-.64-11.56-10.27-11.56-10.27,15,7.27,14.56,10.27,14.56,10.27l3,.86c3.86-.43-8.56-10.06-8.56-10.06,13.06,7.49,10.49,10.06,10.49,10.06s3.21,1.71,4.71.42-3.85-5.13-3.85-5.13,5.13,2.14,5.77,3,0,3,.22,3.64,3.21,1.29,4.71,1.29a19.49,19.49,0,0,1,4.49,1.07l-4.28-5.35c4.5,1.92,11.77,9,11.77,9a9.34,9.34,0,0,0-2.14-4.28,18.05,18.05,0,0,1,4.17,2.88l1.27-3.17Z" transform="translate(-1.76 -1.76)"/><path class="cls-3" d="M164.25,201.32c-.86-1.29-2.36-1.5-5.36-2.36s-4.92-4.92-6.84-6.85c-1.55-1.54-1.3.62-1.15,1.55,6.28,6.24,12.46,11.77,15.54,12.72l1-2.54a11.69,11.69,0,0,1-3.23-2.52Z" transform="translate(-1.76 -1.76)"/><path class="cls-3" d="M172.38,188.48c-1.17-.44-.45,1.6.13,3l1.18-2.91a1.86,1.86,0,0,1-1.31,0Z" transform="translate(-1.76 -1.76)"/><path class="cls-3" d="M152.26,177.35a13.53,13.53,0,0,1-4.28-2.14c-1.29-1.07-9.42-6.43-7.49-3.43,0,0,7.49,7.71,7.49,9.21s1.28,2.14,2.14,2.56.85-2.14.85-2.14-3.21-3.64-.64-2.78,3.43,2.57,4.28,1.93-.64-2.57-2.35-3.21Z" transform="translate(-1.76 -1.76)"/><path class="cls-3" d="M147.34,172.21s2.78,3.64,4.28,3.64-4.5-5.57-4.28-3.64Z" transform="translate(-1.76 -1.76)"/><path class="cls-3" d="M161,178.84c-1.49-1.28-4.06-2.14-4.92-3.85s-3-1.5-2.14-.64a19.12,19.12,0,0,0,5.57,4.92c3,1.5.85,1.5-.43,1.5s-.64.86.86,1.71a6.4,6.4,0,0,0,3.42.65s-.86-3-2.36-4.29Z" transform="translate(-1.76 -1.76)"/><path class="cls-3" d="M167.46,181.2c-1.72-1.5-6-6-6.64-6.42s-1.93,0-1.93,0a88.66,88.66,0,0,1,6.64,6.21c1.07,1.28,3.64,1.71,1.93.21Z" transform="translate(-1.76 -1.76)"/><path class="cls-3" d="M169.6,178.84c-.86-1.07-3.21-3-3-1.49,0,0,1.71,2.57,2.57,3s1.28-.43.43-1.5Z" transform="translate(-1.76 -1.76)"/><path class="cls-3" d="M173.66,180.13c-.64-1.5-2.35-2.78-2.14-1.93,0,0,1.72,4.28,3.43,4.28s-.64-.85-1.29-2.35Z" transform="translate(-1.76 -1.76)"/><path class="cls-3" d="M160.61,187.41a10.21,10.21,0,0,1-2.14-1.93s-2.79-1.71-2.14,0c0,0,3.85,4.06,4.92,4.49s.21-2.14-.64-2.56Z" transform="translate(-1.76 -1.76)"/><path class="cls-3" d="M162.53,194.68c-.85-.21-3.21-.43-3.21-.43s2.14,2.79,4.28,1.72-.21-1.07-1.07-1.29Z" transform="translate(-1.76 -1.76)"/><path class="cls-2" d="M133.5,218.94a2,2,0,0,0,1.21,1.5c1.07.43-.5-1.5-1.21-1.5Z" transform="translate(-1.76 -1.76)"/><path class="cls-2" d="M338.62,316.23a7.55,7.55,0,1,1,7.57,7.46,7.44,7.44,0,0,1-7.57-7.46Z" transform="translate(-1.76 -1.76)"/><path class="cls-3" d="M346.19,322.45a6.2,6.2,0,1,0-6.07-6.22,6,6,0,0,0,6.07,6.22Z" transform="translate(-1.76 -1.76)"/><path class="cls-2" d="M344.61,320.54h-1.3V312h3.27c2,0,3,.74,3,2.44a2.23,2.23,0,0,1-2.22,2.36l2.44,3.78h-1.46l-2.26-3.72h-1.5v3.72Z" transform="translate(-1.76 -1.76)"/><path class="cls-3" d="M346.17,315.72c1.1,0,2.08-.08,2.08-1.4,0-1.06-1-1.26-1.87-1.26h-1.77v2.66Z" transform="translate(-1.76 -1.76)"/></g></g></svg>