<svg xmlns="http://www.w3.org/2000/svg" viewBox="0 0 435 435"><defs><style>.a{fill:#f4f4f4;}.b{fill:#2e4c9f;fill-rule:evenodd;}</style></defs><title>294</title><path class="a" d="M405.8,108.3a217.4,217.4,0,0,0-79.1-79.1Q276.8-.1,217.5,0T108.3,29.2a217.4,217.4,0,0,0-79.1,79.1Q-.1,158.4,0,217.5C0,257,9.7,293.3,29.2,326.7a217.4,217.4,0,0,0,79.1,79.1q50.1,29.3,109.2,29.2t109.2-29.2a217.4,217.4,0,0,0,79.1-79.1C425.3,293.3,435,257,435,217.5S425.3,141.7,405.8,108.3Z" transform="translate(0 0)"/><path class="b" d="M322.1,245.5c-5,3.2-10.9,3.6-15.4,1.1s-8.8-10.8-8.8-21.3V194c0-15.1-6-25.9-16-28.8-17-5-29.7,15.8-34.5,23.6l-29.9,48.5V178c-.4-13.6-4.8-21.8-13.2-24.2-5.6-1.7-13.9-1-22,11.4l-67,107.5a119.2,119.2,0,0,1-13.6-55.2c0-64.8,51.9-117.5,115.8-117.5s115.7,52.7,115.7,117.5a.4.4,0,0,0,.1.3v.3c.6,12.6-3.4,22.6-11.1,27.4Zm36.8-28h0v-.6c-.3-79-63.6-143-141.4-143S76,138.3,76,217.5s63.5,143.6,141.5,143.6a140,140,0,0,0,96.2-38.3,13.1,13.1,0,0,0,.6-18.4,12.7,12.7,0,0,0-17.9-.9l-.2.2a114.6,114.6,0,0,1-164.9-7.8l60.5-97v44.7c0,21.5,8.3,28.4,15.3,30.5s17.6.6,28.9-17.6l33.2-53.9,2.9-4.5v27.2c0,20.1,8.1,36.2,22.1,44.1s28.5,6.5,41.5-1.7C351.4,257.8,359.8,239.5,358.9,217.5Z" transform="translate(0 0)"/></svg>