<svg id="Layer_1" data-name="Layer 1" xmlns="http://www.w3.org/2000/svg" viewBox="0 0 435 435"><defs><style>.cls-1{fill:#f4f4f4;}.cls-2{fill:#003cae;}</style></defs><title>296</title><g id="ALL"><path class="cls-1" d="M407.6,110.09a216.63,216.63,0,0,0-79.15-79.16q-50-29.16-109.18-29.17T110.09,30.93a216.55,216.55,0,0,0-79.15,79.16q-29.18,50-29.18,109.18T30.93,328.44a216.73,216.73,0,0,0,79.16,79.16q50,29.16,109.18,29.17T328.45,407.6a216.63,216.63,0,0,0,79.15-79.16q29.16-50,29.17-109.17T407.6,110.09Z" transform="translate(-1.76 -1.76)"/><g id="_296" data-name="296"><path id="P" class="cls-2" d="M130.24,159.25c7.28,0,27.45,1,14.39,39.05-13.55,39.94-43.76,31.75-43.76,31.75l22.22-70.8Zm54,41.57c17-41.89-14.92-53.35-35.62-53.35H80.12c5.68,3.95,4.73,9.19,3.67,12.3l-40,127.85C42.22,292.76,36.16,298,33,298.89H88.55c-3.14-.62-7.46-5-5.83-10.85l14.5-46.26s66.8,9,87.07-41" transform="translate(-1.76 -1.76)"/><path id="_" data-name="&amp;" class="cls-2" d="M206.71,279.23c-2.2,1.35-10.87,5.76-19,6.5-7.62.67-20.13-2.2-20.13-17.27,0-13,14.13-22.32,21.61-25.68,3.38,12.49,10.14,26.71,17.51,36.45m21.88-81.42c-1.85,12.22-17.56,24.53-21.43,26.1-.7-6.83-.45-17.68,5.23-26.46,3.93-5.84,8.9-8.37,12.92-7,3.28,1.12,3.67,4.07,3.28,7.32m0,101.08h37.49c-12-3.93-29.67-15.24-36.76-23.25,5.76-6.15,12.74-14,14.05-29.89H224a7.81,7.81,0,0,1,3.86,6.63,24.43,24.43,0,0,1-5,14.15c-5.64-8.41-11.79-18-13.94-32.14,7.6-3.78,18.36-7.86,26.77-15.24,8.13-7.14,9.95-13.68,10.06-18.08v-.57a16.39,16.39,0,0,0-5.07-12c-5.56-5.57-14.45-7.76-23.73-6.15A36,36,0,0,0,200,190.66c-11.48,10.55-12.91,28.1-12.91,36,0,1.76.13,3.35.17,4.19-.54.17-1.85.72-1.85.72-8.12,3-30.12,8.87-38,27A35.27,35.27,0,0,0,145,271.62a29.17,29.17,0,0,0,4.17,15.56c5.64,8.64,15,14,30.06,13.79,16.37-.21,32.54-11.43,35.33-13.47,2.88,2.7,10.33,9.55,14.06,11.39" transform="translate(-1.76 -1.76)"/><path id="G" class="cls-2" d="M342.21,159.37c22.27-5.32,40.61,12.12,42.32,13.2l6.23-20.09c-8.73-2.66-72.44-24.27-117.48,27.18-27.68,31.66-34.63,96.42.61,113.77,37.62,18.63,79.21-2.83,82.14-4.29l17.28-54.59c1.83-6.72,6-11,13.4-13.74H327.07c8.66,3.68,8.08,10.2,7.32,12.88L317.26,288.4c-2.3.39-50.29,12.36-23.43-71.61,5.7-18,22-51,48.38-57.42" transform="translate(-1.76 -1.76)"/></g></g></svg>