<svg id="Layer_1" data-name="Layer 1" xmlns="http://www.w3.org/2000/svg" viewBox="0 0 435 435"><defs><style>.cls-1{fill:#f4f4f4;}</style></defs><title>298</title><g id="ALL"><path class="cls-1" d="M407.6,110.09a216.63,216.63,0,0,0-79.15-79.16q-50-29.16-109.18-29.17T110.09,30.93a216.55,216.55,0,0,0-79.15,79.16q-29.18,50-29.18,109.18T30.93,328.44a216.73,216.73,0,0,0,79.16,79.16q50,29.16,109.18,29.17T328.45,407.6a216.63,216.63,0,0,0,79.15-79.16q29.16-50,29.17-109.17T407.6,110.09Z" transform="translate(-1.76 -1.76)"/><g id="_298" data-name="298"><path id="path813" d="M260.35,235.66v71.11a7.9,7.9,0,0,0,3.73,6.85c2,1.37,5,2.05,9,2.05a29.68,29.68,0,0,0,5.89-.84v-6.38c-1,.06-1.9.12-2.88.12-6,0-6.86-2.33-6.86-4.93v-68Zm-188.06.72c-6.71,0-12.78,2.1-17.08,5.89a18.9,18.9,0,0,0-6.5,14.32c0,6.08,2.46,10.82,7.58,14.56,4.52,3.3,10.49,5.43,16.24,7.46,10,3.56,19.37,6.8,19.37,15.88a13,13,0,0,1-4,9.87c-2.85,2.6-7,3.85-12.39,3.85-9.52,0-16.44-5.27-20.33-15.52L46.66,295c1.84,4.16,5,10.16,9.51,14.2,5,4.46,11.14,6.62,18.89,6.62,9.17,0,16.13-2.37,20.69-7.1,4.73-4.93,5.78-11.23,5.78-15.64,0-6.32-2.67-11.2-8.06-15-4.71-3.38-10.8-5.55-16.73-7.58C67.09,267.13,57.87,264,58,255.87a11.22,11.22,0,0,1,3.73-8.78C64.13,245,67.59,244,72.05,244a19,19,0,0,1,12,3.85,17.71,17.71,0,0,1,6,9.62l8.3-1.08C94.76,243.93,85.86,236.38,72.29,236.38ZM47.51,126.76V204h8.9V133.38l.24.24L77.83,204h6.85L106,133.62l.12-.24V204H115V126.76h-14.8L81.32,188.85v.24l-.12-.24L62.3,126.76ZM115.61,239v18.53h-8.55v7.1h8.55v42.12a7.75,7.75,0,0,0,3.49,6.85c2,1.37,5,2.05,9,2.05a31.78,31.78,0,0,0,6-.84v-6.38c-1,.06-2,.12-3,.12-6,0-6.62-2.33-6.62-4.93v-39h9.63v-7.1h-9.63V239Zm35.49-93.24a22.5,22.5,0,0,0-18.29,8.66c-4.12,5.26-6.37,12.7-6.37,20.93s2.25,15.67,6.37,20.94a23.64,23.64,0,0,0,36.58,0c4.12-5.27,6.38-12.7,6.38-20.94s-2.26-15.67-6.38-20.93A22.45,22.45,0,0,0,151.1,145.78ZM309,256.59a25.27,25.27,0,0,0-10.34,2.05,20.2,20.2,0,0,0-7.59,5.89c-4,5.06-6.37,12.57-6.37,21.66,0,10.12,2.91,17.85,8.18,23,5.56,5.43,12.65,6.5,17.57,6.5,12.77,0,19-6.91,21.65-13.24L325,298.94c-1.73,3.85-5.7,9.75-14.56,9.75a14.73,14.73,0,0,1-12.16-5.9c-2.84-3.69-4.43-8.81-4.45-14.92h39v-5.41c0-9.35-2.49-16.33-7.1-20.57C321.76,258.28,316.26,256.59,309,256.59ZM242.3,146c-10,0-24.3,6.76-24.3,29.48,0,22.05,14.22,29.47,23.82,29.47,5.61,0,10.71-3.1,14.2-7.58l.48-.24V208c0,7.6-6.57,12.27-13.59,12.27a42,42,0,0,1-17.81-3.61v7.71c4.15,1.78,10.92,2.88,16.72,2.88,15.81,0,23.35-8.7,23.35-21.29V147.1h-6.62l-1.93,6A16.79,16.79,0,0,0,242.3,146Zm57.52,0c-12.65,0-18.63,7.57-21.18,12.27l7.1,3.73c1-2.69,4.58-8.9,14.2-8.9,7.58,0,11.43,3.34,11.43,10v2.05s.06.62-.12.84-1.08.65-3,.84c-10.61,1.19-17.67,2.93-22.86,6.26-5.63,3.62-9.14,8.69-9.14,15.64a16.78,16.78,0,0,0,16.84,16.48c9.37.3,15.54-3.6,18.53-8.18.23,3.15,1.36,4.95,3.85,6.26s6.17,1,7.82.6v-6c-2-.09-3.25-1-3.25-3.48V163.22c0-5.68-2.23-10.35-6.5-13.35C310,147.37,305.1,146,299.82,146Zm61.24,0c-5.79,0-11.72,3-16.72,8.66V147.1h-8.91v57h8.91V161.78c3-3.24,9.82-8.66,16-8.66s8.9,3,8.9,9.86v41.15h8.91V162.74C378.15,150.42,369.38,146,361.06,146ZM166.38,256.71c-12.64,0-18.62,7.58-21.17,12.27l7.09,3.73c1-2.68,4.59-8.9,14.2-8.9,7.58,0,11.43,3.35,11.43,10v2a2.25,2.25,0,0,1-.24.85c-.28.35-.95.64-2.89.84-10.61,1.18-17.67,2.92-22.86,6.25-5.63,3.63-9.14,8.7-9.14,15.65a16.78,16.78,0,0,0,16.84,16.48c9.37.3,15.55-3.6,18.53-8.18.24,3.14,1.36,4.94,3.85,6.25,2.34,1.25,6.18,1,7.82.61v-6c-2-.1-3.24-1-3.24-3.49V273.92A15.71,15.71,0,0,0,180,260.56,23.64,23.64,0,0,0,166.38,256.71Zm61.25,0c-5.81,0-11.73,3-16.73,8.66v-7.58H202v57h8.9V272.47c3-3.24,9.81-8.66,16-8.66s8.91,3,8.91,9.87v41.15h8.9V273.44C244.71,261.11,236,256.71,227.63,256.71Zm-13-110.45c-9,0-14.39,3.5-19,11.79v-11h-8.9V204h8.9V171.77c2.2-11.72,8.4-17.21,19-17.21ZM338.8,257.67l19.86,56.56v.48c-1.19,5.42-4.62,12.11-7.71,14.19A13.58,13.58,0,0,1,343,331a26.26,26.26,0,0,1-4.33-.6v6.86a31.07,31.07,0,0,0,5.9.84,17.82,17.82,0,0,0,10.83-3.25c3.6-2.62,7.59-9.44,9.5-15.28l19.85-61.85H376.1l-13,43.8-.12,1-.24-1-15.28-43.8ZM151.1,152.87c9.59,0,15.28,8.42,15.28,22.5s-5.69,22.5-15.28,22.5-15.28-8.4-15.28-22.5S141.53,152.87,151.1,152.87Zm91.81.12c5,0,9.43,2.18,13.59,7.34v27.2c-2.3,6.56-8.9,10.34-13.59,10.34-9.19,0-15.52-5.71-15.52-22.86C227.39,160.6,233.07,153,242.91,153Zm66.29,110.7c10.2,0,14.76,5.39,14.8,17.09H294C294.82,269.09,299.71,263.69,309.2,263.69Zm2.41-90.6v14.44c-.41,5-9.73,11-17.33,10.59-4.19-.23-8.23-3.61-8.66-9.15-.7-9.25,6.26-13.1,21.78-14.8A12.83,12.83,0,0,0,311.61,173.09ZM178.17,283.78v14.44c-.41,5-9.72,11-17.32,10.59-4.19-.23-8.25-3.61-8.67-9.14-.7-9.26,6.26-13.1,21.78-14.8A12.85,12.85,0,0,0,178.17,283.78Z" transform="translate(-1.76 -1.76)"/></g></g></svg>