<svg id="Layer_1" data-name="Layer 1" xmlns="http://www.w3.org/2000/svg" viewBox="0 0 435 435"><defs><style>.cls-1{fill:#f4f4f4;}.cls-2{fill:#d51900;fill-rule:evenodd;}</style></defs><title>299</title><g id="ALL"><path class="cls-1" d="M407.6,110.09a216.63,216.63,0,0,0-79.15-79.16q-50-29.16-109.18-29.17T110.09,30.93a216.55,216.55,0,0,0-79.15,79.16q-29.18,50-29.18,109.18T30.93,328.44a216.73,216.73,0,0,0,79.16,79.16q50,29.16,109.18,29.17T328.45,407.6a216.63,216.63,0,0,0,79.15-79.16q29.16-50,29.17-109.17T407.6,110.09Z" transform="translate(-1.76 -1.76)"/><g id="_299" data-name="299"><g id="Footer-1440"><g id="Logo"><path id="Fill-1" class="cls-2" d="M160.89,208.94a.94.94,0,0,1,1-1c1,0,2.37,1,3.17,3-.29,0-.72.09-1,.09-1.71,0-3.16-.81-3.16-2.09Zm-103.82,0a.94.94,0,0,1,1-1c.92,0,2.28,1,3.07,3C58.5,210.94,57.07,210.37,57.07,208.94Zm20-10.34c0-10.7,2.08-12.35,2.73-12.35,1.15,0,1.29.72,1.29,4.83a24.65,24.65,0,0,1-4,12.77ZM150,209.16a12.4,12.4,0,0,0-2.24,7.31c0,6,3.44,11.79,10.13,11.79,6.46,0,11-5.1,11-12.22a15.21,15.21,0,0,0-.21-3.21,17.81,17.81,0,0,0,3.8-2.46,3.91,3.91,0,0,1,2-1c.65,0,.93.51.93,1.44v14.09c0,2.29.73,3.37,2.51,3.37a3.89,3.89,0,0,0,3.45-2.52c2.38-5,5.82-11.56,7.32-14.06.36-.58.65-1,.86-1s.44.22.44,1.15V223c0,3.16,1.44,5.24,4.58,5.24,3.32,0,5-3.17,7.85-8a1.6,1.6,0,0,0,.2-.71,1.05,1.05,0,0,0-1.14-1c-.65,0-1,.65-3.16,3-.43.45-.86,1.07-1.65,1.07-.29,0-.51-.34-.51-.78V209.22c0-3.38-1.51-4.74-3.45-4.74-1.57,0-2.87.65-4.23,2.66a123.75,123.75,0,0,0-6.32,11.27c-.15.3-.36.73-.5.73s-.21-.22-.21-.73v-9.19c0-2.65-.72-4.74-3.53-4.74s-4.45,2-6.6,3.52a21.93,21.93,0,0,1-3.51,2.16c-1.45-3.67-4.1-5.52-6.33-5.47a3.62,3.62,0,0,0-3.81,3.75,4.94,4.94,0,0,0,3.38,4.73,8.86,8.86,0,0,0,3.52.51,4.79,4.79,0,0,0,1.14-.08,14,14,0,0,1,.08,2.52c0,3.53-2.08,7-5.95,7-4,0-6.39-3.88-6.39-8.33a12.4,12.4,0,0,1,2.64-8.11c.66-.72,1.15-1.16,1.15-1.82,0-.34-.49-.42-.93-.42a18.37,18.37,0,0,0-7.82,2.3,46.36,46.36,0,0,0-8.62,6.18c-1.3-2.88-2.87-5.39-3.67-7.34-.28-.79-.49-1.7-1.07-1.7s-.73.5-1.08,1.49c-1.29,3.81-8.19,15-9.69,16.46-.15.2-.36.43-.42.43s-.24-.07-.24-.51V209.22c0-3.38-1.36-4.74-3.22-4.74-1.58,0-2.94.65-4.23,2.66-2.37,3.6-5.26,8.84-6.62,11.42-.21.44-.43.58-.5.58s-.13-.29-.13-.73v-9.19c0-3.38-1.37-4.74-3.24-4.74a4.69,4.69,0,0,0-4.31,2.66c-3,5.1-8,12.93-9,14.21a1.14,1.14,0,0,1-.44.44c-.14,0-.22-.14-.22-.5V209.22c0-3.38-1.36-4.74-3.22-4.74-2.59,0-4,2.38-5,3.88-1.3,2.08-3,4.89-4.37,7.48-.94,1.73-1.73,3.3-2,3.3-.13,0-.13-.65-.13-1.87v-9.62a26.91,26.91,0,0,0,7.32-18c0-3.88-1.72-6-4.37-6-5,0-8.76,7.76-8.76,17v7.46a19.7,19.7,0,0,1-7.12,2.67c-1.36-4-4.24-6.1-6.53-6.05a3.61,3.61,0,0,0-3.8,3.75c0,3.8,3.73,5.38,7,5.38h.93a12.42,12.42,0,0,1,.14,2.3c0,3.53-2.08,7-5.95,7s-6.39-3.88-6.39-8.33a12.3,12.3,0,0,1,2.65-8.11,3.78,3.78,0,0,0,1.16-1.82c0-.34-.51-.42-.95-.42-2.72,0-8.75,3.68-15.93,10.86a154.54,154.54,0,0,1-1.36-16.82,62.47,62.47,0,0,1,1.49-12.77,14,14,0,0,0,.24-1.94c0-.58-.31-.87-1.08-.87-5.83,0-18.61,9.27-18.61,23.13,0,9.83,3.6,14.57,9.83,20.68-3.78,6.1-6.82,13.35-6.82,19.82,0,4.66,1.09,8.19,4.53,8.19,7.18,0,12.56-14.93,12.56-26,0-3.3-.13-6.61-.41-9.91,2.64-2.81,6.74-6.61,7.74-7a17.14,17.14,0,0,0-.72,4.59c0,6,3.45,11.79,10.12,11.79,6.26,0,11-5.1,11-12.22,0-.92-.07-1.72-.13-2.58a18.77,18.77,0,0,0,6.39-2.22v14.43a2.38,2.38,0,0,0,2.5,2.59c1.67,0,2.53-1.15,3.74-3.8,1-2.16,3.73-7.11,5.38-10.06,1.3-2.31,2-3.81,2.6-3.81.13,0,.29.35.29,1.22v12.28c0,3.31,1.72,4.17,3.21,4.17s2.38-.79,3.31-2.08c3.74-5.32,7.7-11.63,9.26-14.37.29-.49.65-.87.94-.87s.43.16.43,1.08v12.87c0,2.29.71,3.37,2.52,3.37a3.8,3.8,0,0,0,3.36-2.52c2.38-5,5.89-11.49,7.41-14.06.35-.58.71-1.09.92-1.09s.37.35.37,1.29v12.21c0,3.31,1.72,4.17,3.24,4.17,2,0,3.3-1.44,4.59-3.09,2.35-3.1,5.8-8.6,7.89-12.14a30,30,0,0,1,2.16,4c-1.72,2.08-3.45,4.44-3.45,6.95a4,4,0,0,0,3.81,4.25c3.29,0,6.31-3.17,6.31-7.54a15.44,15.44,0,0,0-1.14-5.24c2.93-2.88,6.45-5.68,9.05-6.32ZM31.71,224.81a75.6,75.6,0,0,1,1.08,10.49c0,6.88-2.29,14.93-6.24,14.86-1.53,0-2.81-1.53-2.87-4.17C23.53,237.38,27.62,230.05,31.71,224.81Zm104.84-4.89a9.44,9.44,0,0,1,.66,3.24c0,1.15-.44,2.3-1.23,2.3-.57,0-1.14-.65-1.14-1.66A8.5,8.5,0,0,1,136.55,219.92ZM34.3,185.67c0,.44-1,2.44-2.29,6a45,45,0,0,0-2.67,15.43c0,3.8.94,8.84,1.74,13.93l-2.3,3.1c-3.67-4.46-6-9.48-6-18.1,0-12.21,7.39-20.67,11.19-20.67C34.24,185.4,34.3,185.46,34.3,185.67Z" transform="translate(-1.76 -1.76)"/><path id="Fill-4" class="cls-2" d="M371.5,208.94a.93.93,0,0,1,1-1c.93,0,2.37,1,3.15,3-.28,0-.71.09-1,.09C372.93,211,371.5,210.22,371.5,208.94Zm-103.84,0a.94.94,0,0,1,1-1c.94,0,2.32,1,3.09,3C269.09,210.94,267.66,210.37,267.66,208.94Zm20-10.34c0-10.7,2.08-12.35,2.73-12.35,1.15,0,1.29.72,1.29,4.83a24.65,24.65,0,0,1-4,12.77Zm-45.37,26.21a78.8,78.8,0,0,1,1.08,10.49c0,6.88-2.3,14.93-6.26,14.86-1.5,0-2.79-1.53-2.87-4.17C234.13,237.38,238.23,230.05,242.32,224.81Zm104.84-4.89a9.62,9.62,0,0,1,.64,3.24c0,1.15-.43,2.3-1.22,2.3-.57,0-1.16-.65-1.16-1.66A8.37,8.37,0,0,1,347.16,219.92ZM244.89,185.67c0,.44-1,2.44-2.3,6a45.53,45.53,0,0,0-2.65,15.43c0,3.8,1,8.84,1.74,13.93l-2.31,3.1c-3.65-4.46-6-9.48-6-18.1,0-12.21,7.41-20.67,11.21-20.67.21,0,.27.06.27.27Zm-12,35.91a42.89,42.89,0,0,0,4.73,5.17c-3.81,6.1-6.82,13.35-6.82,19.82,0,4.66,1.08,8.19,4.53,8.19,7.17,0,12.56-14.93,12.56-26,0-3.3-.14-6.61-.43-9.91,2.66-2.81,6.74-6.61,7.76-7a16.77,16.77,0,0,0-.73,4.59c0,6,3.45,11.79,10.13,11.79,6.24,0,11-5.1,11-12.22,0-.92-.07-1.72-.15-2.58a18.6,18.6,0,0,0,6.4-2.22v14.43a2.39,2.39,0,0,0,2.5,2.59c1.67,0,2.53-1.15,3.75-3.8,1-2.16,3.73-7.11,5.39-10.06,1.29-2.31,2-3.81,2.59-3.81.14,0,.27.35.27,1.22v12.28c0,3.31,1.72,4.17,3.23,4.17s2.37-.79,3.32-2.08c3.72-5.32,7.68-11.63,9.25-14.37.29-.49.66-.87.93-.87s.44.16.44,1.08v12.87c0,2.29.71,3.37,2.5,3.37a3.82,3.82,0,0,0,3.39-2.52c2.37-5,5.88-11.49,7.39-14.06.36-.58.72-1.09.94-1.09s.36.35.36,1.29v12.21c0,3.31,1.71,4.17,3.21,4.17,2,0,3.32-1.44,4.61-3.09,2.36-3.1,5.82-8.6,7.9-12.14a31.23,31.23,0,0,1,2.16,4c-1.74,2.08-3.45,4.44-3.45,6.95a3.94,3.94,0,0,0,3.8,4.25c3.3,0,6.31-3.17,6.31-7.54a15.44,15.44,0,0,0-1.14-5.24c2.94-2.88,6.46-5.68,9-6.32a12.54,12.54,0,0,0-2.22,7.31c0,6,3.45,11.79,10.13,11.79,6.46,0,11-5.1,11-12.22a14.77,14.77,0,0,0-.2-3.21,18.16,18.16,0,0,0,3.81-2.46,3.85,3.85,0,0,1,2-1c.65,0,.95.51.95,1.44v14.09c0,2.29.71,3.37,2.5,3.37a3.89,3.89,0,0,0,3.45-2.52c2.36-5,5.81-11.56,7.31-14.06.36-.58.66-1,.87-1s.44.22.44,1.15V223c0,3.16,1.42,5.24,4.59,5.24s5-3.17,7.84-8a1.75,1.75,0,0,0,.2-.71,1.07,1.07,0,0,0-1.15-1c-.64,0-1,.65-3.15,3-.43.45-.87,1.07-1.65,1.07-.3,0-.5-.34-.5-.78V209.22c0-3.38-1.53-4.74-3.47-4.74-1.57,0-2.85.65-4.22,2.66a121,121,0,0,0-6.31,11.27c-.16.3-.37.73-.52.73s-.21-.22-.21-.73v-9.19c0-2.65-.71-4.74-3.52-4.74s-4.45,2-6.6,3.52a22,22,0,0,1-3.53,2.16c-1.42-3.67-4.09-5.52-6.31-5.47a3.61,3.61,0,0,0-3.8,3.75,4.94,4.94,0,0,0,3.36,4.73,8.94,8.94,0,0,0,3.54.51,4.92,4.92,0,0,0,1.14-.08,15,15,0,0,1,.07,2.52c0,3.53-2.09,7-6,7s-6.38-3.88-6.38-8.33a12.4,12.4,0,0,1,2.64-8.11c.66-.72,1.16-1.16,1.16-1.82,0-.34-.5-.42-.93-.42a18.5,18.5,0,0,0-7.83,2.3,46.31,46.31,0,0,0-8.61,6.18c-1.3-2.88-2.87-5.39-3.67-7.34-.29-.79-.49-1.7-1.08-1.7s-.72.5-1.07,1.49c-1.3,3.81-8.19,15-9.69,16.46-.15.2-.36.43-.44.43s-.21-.07-.21-.51V209.22c0-3.38-1.36-4.74-3.24-4.74-1.58,0-2.93.65-4.24,2.66-2.37,3.6-5.23,8.84-6.6,11.42-.21.44-.42.58-.49.58s-.15-.29-.15-.73v-9.19c0-3.38-1.36-4.74-3.23-4.74a4.69,4.69,0,0,0-4.31,2.66c-3,5.1-8,12.93-9,14.21a1,1,0,0,1-.44.44c-.12,0-.21-.14-.21-.5V209.22c0-3.38-1.36-4.74-3.23-4.74-2.59,0-4,2.38-5,3.88-1.29,2.08-3,4.89-4.37,7.48-.93,1.73-1.72,3.3-2,3.3s-.15-.65-.15-1.87v-9.62a26.77,26.77,0,0,0,7.33-18c0-3.88-1.72-6-4.39-6-4.95,0-8.75,7.76-8.75,17v7.46a19.7,19.7,0,0,1-7.12,2.67c-1.35-4-4.23-6.1-6.51-6.05a3.62,3.62,0,0,0-3.82,3.75c0,3.8,3.73,5.38,7,5.38h.94a13.36,13.36,0,0,1,.13,2.3c0,3.53-2.08,7-6,7s-6.38-3.88-6.38-8.33a12.4,12.4,0,0,1,2.64-8.11A3.78,3.78,0,0,0,264,204.9c0-.34-.51-.42-.94-.42-2.73,0-8.76,3.68-15.94,10.86a154.54,154.54,0,0,1-1.36-16.82,62,62,0,0,1,1.51-12.77,14.77,14.77,0,0,0,.22-1.94c0-.58-.3-.87-1.07-.87-5.82,0-18.6,9.27-18.6,23.13,0,5.66,1.22,9.7,3.37,13.21a10.87,10.87,0,0,0-2-.14,26.51,26.51,0,0,0-5.79.86v-1.44c0-3.08-.73-7.32-2-8.76a.81.81,0,0,0-.57-.21,4.67,4.67,0,0,0-2.08.71c-.87.44-1.73.87-1.73,1.15a1.08,1.08,0,0,0,.21.64,10.65,10.65,0,0,1,2.37,5.54,11.73,11.73,0,0,0-8.88-3.53c-4.32,0-5.62,1.94-5.62,3.89,0,3.73,5,5.6,11.21,5.6a17.46,17.46,0,0,0,3.72-.51c0,1.15.15,2.17.15,3,0,1.23.21,2.16,1,2.16,1.21,0,1.94-2.45,2.08-6a27.24,27.24,0,0,1,6.47-1.08,17.14,17.14,0,0,1,3.23.36Zm-14.15-.72a24.25,24.25,0,0,1-3.22.14c-2.81,0-4.88-1.08-4.88-2.65,0-1,.49-1.58,1.93-1.58C214.9,216.77,216.76,218.35,218.77,220.86Z" transform="translate(-1.76 -1.76)"/></g></g></g></g></svg>