<svg id="Layer_1" data-name="Layer 1" xmlns="http://www.w3.org/2000/svg" viewBox="0 0 435 435"><defs><style>.cls-1{fill:#f4f4f4;}.cls-2{fill:#006fcf;}.cls-3{fill:#fff;}</style></defs><title>300</title><g id="ALL"><path class="cls-1" d="M407.6,110.09a216.63,216.63,0,0,0-79.15-79.16q-50-29.16-109.18-29.17T110.09,30.93a216.55,216.55,0,0,0-79.15,79.16q-29.18,50-29.18,109.18T30.93,328.44a216.73,216.73,0,0,0,79.16,79.16q50,29.16,109.18,29.17T328.45,407.6a216.63,216.63,0,0,0,79.15-79.16q29.16-50,29.17-109.17T407.6,110.09Z" transform="translate(-1.76 -1.76)"/><g id="_300" data-name="300"><path class="cls-2" d="M348.37,231.63V83.93H75.45V356.85H348.37V277.22c-.61,0,0-45.59,0-45.59" transform="translate(-1.76 -1.76)"/><path class="cls-3" d="M314.94,216.44H335.6v-48H313.11v6.69l-4.25-6.69H289.41v8.51l-3.65-8.51H249.9c-1.22,0-2.43.61-3.65.61s-1.82.6-3,1.21-1.82.61-3,1.22v-3H137.45l-3,7.9-3-7.9H107.06v8.51l-3.65-8.51H84l-8.51,20.67v27.35h14l2.43-6.69h4.86l2.44,6.69h107v-6.08l4.26,6.08h29.78v-3.65c.61.61,1.83.61,2.44,1.22s1.82.6,2.43,1.21a7.66,7.66,0,0,0,3.64.61h21.89l2.43-6.69h4.86l2.43,6.69h29.79v-6.08Zm33.43,60.78v-45H181.21L177,238.32l-4.26-6.08H124.08v48H172.7l4.26-6.08,4.25,6.08h30.4V269.93h-1.22a29.37,29.37,0,0,0,10.94-1.83v12.77h21.88v-6.08l4.26,6.08H338C341.68,279.65,345.33,279.05,348.37,277.22Z" transform="translate(-1.76 -1.76)"/><path class="cls-2" d="M338,265.67H321.62v6.69h15.81c6.68,0,10.94-4.26,10.94-10.33s-3.65-9.12-9.73-9.12h-7.29a3,3,0,0,1,0-6.08h14l3-6.69H332c-6.69,0-10.94,4.26-10.94,9.73,0,6.08,3.64,9.12,9.72,9.12H338a2.87,2.87,0,0,1,3,3C341.68,264.46,340.47,265.67,338,265.67Zm-29.79,0H291.84v6.69h15.8c6.69,0,10.95-4.26,10.95-10.33s-3.65-9.12-9.73-9.12h-7.29a3,3,0,0,1,0-6.08h14l3-6.69H302.17c-6.68,0-10.94,4.26-10.94,9.73,0,6.08,3.65,9.12,9.73,9.12h7.29a2.87,2.87,0,0,1,3,3C311.9,264.46,310.08,265.67,308.25,265.67ZM287,246.22v-6.68H261.45v32.21H287v-6.68H268.74v-6.69h17.63v-6.69H268.74v-6.08H287Zm-41.34,0c3,0,4.26,1.83,4.26,3.65s-1.22,3.65-4.26,3.65h-9.11v-7.91Zm-9.11,14h3.64l9.73,11.55H259l-10.94-12.16c5.47-1.21,8.51-4.86,8.51-9.72,0-6.08-4.26-10.33-10.95-10.33h-17v32.21h7.3Zm-19.45-9.72c0,2.43-1.22,4.25-4.26,4.25H203.1v-8.51h9.11C215.25,246.22,217.08,248.05,217.08,250.48ZM195.8,239.54v32.21h7.3V260.81h9.72c6.69,0,11.55-4.25,11.55-10.94a10.53,10.53,0,0,0-10.94-10.94Zm-10.94,32.21H194l-12.77-16.41L194,239.54h-9.12L177,249.87l-7.9-10.33h-9.12l12.76,15.8-12.76,15.8h9.12l7.9-10.33Zm-27.35-25.53v-6.68H132v32.21h25.53v-6.68H139.27v-6.69H156.9v-6.69H139.27v-6.08h18.24Zm147.7-57.13L318,208.54h9.11V176.32H319.8V197.6l-1.82-3-11.55-18.24H296.7v32.22H304V186.65Zm-31.61-.61,2.44-6.69,2.43,6.69,3,7.29H270.57Zm12.77,20.06h7.9l-14-32.22h-9.72l-14,32.22h7.9l3-6.69h15.8Zm-34,0,3-6.69h-1.82c-5.47,0-8.51-3.65-8.51-9.12v-.61c0-5.47,3-9.11,8.51-9.11h7.9v-6.69h-8.51c-9.73,0-15.2,6.69-15.2,15.8v.61C237.74,202.46,243.21,208.54,252.33,208.54Zm-27.35,0h7.29V176.93H225ZM209.17,183c3,0,4.26,1.82,4.26,3.64s-1.22,3.65-4.26,3.65h-9.11v-7.9Zm-9.11,14h3.64l9.73,11.55h9.12l-10.94-12.16c5.47-1.22,8.51-4.86,8.51-9.73,0-6.07-4.26-10.33-11-10.33h-17v32.22h7.3Zm-13.38-14v-6.69H161.15v32.22h25.53v-6.69H168.45v-6.69h17.63v-6.68H168.45V182.4h18.23Zm-55.31,25.53h6.69l9.11-26.14v26.14h7.3V176.32H142.31L135,198.2l-7.3-21.88H115.57v32.22h7.29V182.4ZM91.86,188.48l2.43-6.69,2.43,6.69,3,7.29H88.82Zm12.77,20.06h7.9l-14-32.22H89.43l-14,32.22h7.9l3-6.69h15.8Z" transform="translate(-1.76 -1.76)"/></g></g></svg>