<svg id="Layer_1" data-name="Layer 1" xmlns="http://www.w3.org/2000/svg" viewBox="0 0 435 435"><defs><style>.cls-1{fill:#f4f4f4;}.cls-2{fill:red;}</style></defs><title>301</title><g id="ALL"><path class="cls-1" d="M407.6,110.09a216.63,216.63,0,0,0-79.15-79.16q-50-29.16-109.18-29.17T110.09,30.93a216.55,216.55,0,0,0-79.15,79.16q-29.18,50-29.18,109.18T30.93,328.44a216.73,216.73,0,0,0,79.16,79.16q50,29.16,109.18,29.17T328.45,407.6a216.63,216.63,0,0,0,79.15-79.16q29.16-50,29.17-109.17T407.6,110.09Z" transform="translate(-1.76 -1.76)"/><g id="_301" data-name="301"><path class="cls-2" d="M208.16,323c-18.59-11.64-32.27-51.81-32.27-99.53,0-1.76,0-3.49.05-5.21l0,0c-51.68-8.13-89-30.38-90-56.7l-.16.31C73.17,177.57,66,195.74,66,215.1c0,57,62.54,103.66,141.87,107.79ZM42.06,219.26c0-63.75,79.34-115.44,177.2-115.44s177.21,51.69,177.21,115.44S317.13,334.71,219.26,334.71,42.06,283,42.06,219.26Zm177.2-98.78c18.9,0,35,28.66,40.92,68.65l0-.06c36.76-5.72,62.5-18.92,62.5-34.28,0-20.62-46.31-37.3-103.43-37.3s-103.44,16.69-103.44,37.3c0,15.36,25.73,28.55,62.5,34.28l0,.06C184.3,149.15,200.38,120.48,219.26,120.48ZM230.7,322.89C310,318.76,372.58,272.08,372.58,215.1c0-19.36-7.23-37.53-19.87-53.24l-.16-.31c-.95,26.32-38.29,48.57-90,56.7l0,0c0,1.72.05,3.45.05,5.21,0,47.72-13.7,87.89-32.27,99.53ZM219.26,192.1c8.47,0,16.7-.36,24.57-1.06h0c-3.92-25.63-13.43-43.72-24.56-43.72s-20.63,18.09-24.55,43.72h0C202.57,191.74,210.8,192.1,219.26,192.1Zm0,94.93c14.23,0,25.83-29.61,26.45-66.73l.08,0c-8.58.79-17.44,1.21-26.53,1.21s-17.94-.41-26.52-1.21l.08,0C193.44,257.43,205,287,219.26,287Z" transform="translate(-1.76 -1.76)"/></g></g></svg>