<svg id="Layer_1" data-name="Layer 1" xmlns="http://www.w3.org/2000/svg" viewBox="0 0 435 435"><defs><style>.cls-1{fill:#f4f4f4;}.cls-2{fill-rule:evenodd;}</style></defs><title>302</title><g id="ALL"><path class="cls-1" d="M407.6,110.09a216.63,216.63,0,0,0-79.15-79.16q-50-29.16-109.18-29.17T110.09,30.93a216.55,216.55,0,0,0-79.15,79.16q-29.18,50-29.18,109.18T30.93,328.44a216.73,216.73,0,0,0,79.16,79.16q50,29.16,109.18,29.17T328.45,407.6a216.63,216.63,0,0,0,79.15-79.16q29.16-50,29.17-109.17T407.6,110.09Z" transform="translate(-1.76 -1.76)"/><g id="_302" data-name="302"><path id="path3229" d="M54.27,190.37A34.33,34.33,0,0,0,26,243.9a34.65,34.65,0,0,0,47.4,8.95l0,4.15H89.83V191H73.39v5C67.91,192.12,60.87,190.37,54.27,190.37Zm.33,15.11a18.7,18.7,0,1,1-18.92,18.69A18.8,18.8,0,0,1,54.6,205.48Z" transform="translate(-1.76 -1.76)"/><path id="path3249" d="M148.79,168.69v27.59l0,0a34.06,34.06,0,0,0-38.39,0,33.63,33.63,0,0,0-9.28,47.05,34.83,34.83,0,0,0,47.73,9.37l0,4.28h16.43V168.69Zm-18.95,36.86a18.66,18.66,0,1,1-18.9,18.65A18.78,18.78,0,0,1,129.84,205.55Z" transform="translate(-1.76 -1.76)"/><path id="path3263" class="cls-2" d="M172.87,168.69v16.72h16.71V168.69Zm0,22.3,0,66h16.73V191Z" transform="translate(-1.76 -1.76)"/><path id="path3267" d="M249.22,168.67s0,27.25,0,27.36a34.1,34.1,0,0,0-37.66.1,33.7,33.7,0,0,0-9.83,47,34.57,34.57,0,0,0,47.52,9.69V257h16.32V168.67ZM230.54,205.5a18.7,18.7,0,1,1-18.78,18.69A18.74,18.74,0,0,1,230.54,205.5Z" transform="translate(-1.76 -1.76)"/><path id="path3273" d="M305.34,190.37a34.48,34.48,0,0,0-19,5.82,33.7,33.7,0,0,0-9.57,47,34.43,34.43,0,0,0,47.44,9.49l0,4.35h16.43V191l-16.41,0v5.2A34.13,34.13,0,0,0,305.34,190.37Zm.16,15.15a18.63,18.63,0,1,1-18.63,18.63A18.63,18.63,0,0,1,305.5,205.52Z" transform="translate(-1.76 -1.76)"/><path id="path3284" class="cls-2" d="M363.93,235.71c-.15,4,2.86,10.49,13.79,10.34s10.85-7.26,10.85-7.26c.2-7.23-18.29-7-18.19-7.49-24.65-3.59-22-19.77-22-19.77-.28-4.32,3.31-21.22,27.14-21,26.34.23,28.45,20.57,27.95,21.42H387s.8-9-10.67-8.8c-9.52.12-10.57,3.48-10.57,3.48-4.25,9.1,15.22,8.64,20.69,10.62,0,0,19.33,3.13,19.7,17.88s-10.64,23.33-29.49,23.33c-13-.6-28.64-4.81-29.93-22.74Z" transform="translate(-1.76 -1.76)"/><path id="path3286" d="M399.39,176.76a6.63,6.63,0,1,0,6.61,6.63A6.62,6.62,0,0,0,399.39,176.76Zm0,1.22a5.54,5.54,0,1,1-5.41,5.54A5.47,5.47,0,0,1,399.38,178ZM397,179.83v7.34h1.21l0-2.92h1.16l1.48,2.92H402a21.27,21.27,0,0,0-1.46-3.12c-.15-.33,1.52-.13,1.5-2a2.22,2.22,0,0,0-1.89-2.18Zm1.2.89h1.43a1.13,1.13,0,0,1,1.2,1.17c0,1.21-.22,1.47-2.63,1.46Z" transform="translate(-1.76 -1.76)"/></g></g></svg>