<svg id="Layer_1" data-name="Layer 1" xmlns="http://www.w3.org/2000/svg" viewBox="0 0 435 435"><defs><style>.cls-1{fill:#f4f4f4;}.cls-2{fill:#fff;}.cls-3{fill:#0168ab;}</style></defs><title>305</title><g id="ALL"><path class="cls-1" d="M407.6,110.09a216.63,216.63,0,0,0-79.15-79.16q-50-29.16-109.18-29.17T110.09,30.93a216.55,216.55,0,0,0-79.15,79.16q-29.18,50-29.18,109.18T30.93,328.44a216.73,216.73,0,0,0,79.16,79.16q50,29.16,109.18,29.17T328.45,407.6a216.63,216.63,0,0,0,79.15-79.16q29.16-50,29.17-109.17T407.6,110.09Z" transform="translate(-1.76 -1.76)"/><g id="_305" data-name="305"><path id="path2427" class="cls-2" d="M394.43,224.68c0,61.53-79.32,111.42-177.17,111.42a264.55,264.55,0,0,1-80.14-12L115.64,316C70,295.8,40.09,262.44,40.09,224.68c0-61.54,79.32-111.42,177.17-111.42s177.17,49.89,177.17,111.42Z" transform="translate(-1.76 -1.76)"/><path id="path5" class="cls-3" d="M394.43,224.68c0,61.53-79.32,111.42-177.17,111.42a264.55,264.55,0,0,1-80.14-12l31.37-116.89h15.36L170,259.29h22.49l15.84-59.56H170.47l12-45.25c1.5-5.66,7.62-14.2,16-14.21,4.94,0,11.08,2.47,11.36,5.62-6.31,0-11.52,6-11.52,12.6s5.21,12,11.52,12c4.05,0,13.31-4.58,12.77-14.78-.32-6.3-4-18.72-24.13-19.18C175.08,136,159,156.88,153.19,178c-3.4,12.54-11.86,42.47-19.08,69.7L115.64,316C70,295.8,40.09,262.44,40.09,224.68c0-61.54,79.32-111.42,177.17-111.42s177.17,49.89,177.17,111.42Zm-310,34.61,7.35-27.49c37.67.57,45-8.54,50.17-32.07,3.67-16.5-5.43-29.22-21.88-29.22h-45l-2,7.45H83L61.39,259.29ZM106,178c11.79-.46,16.34,2.34,11.79,21.76-5.92,25-13.1,24.63-24.07,24.63L106,178Zm278.41,32.3c0-6.75-5.05-12.25-11.24-12.25-5,0-12.06,3.26-17.11,11.4l2.46-9.68h-30.7l-2,7.44h8.23l-13.87,52.12h22.48s8.44-31.44,8.39-31.5c3.35-9.73,9.54-21.07,11.35-19.53-1.92,9.23,4.77,14.26,10.75,14.26,6.19,0,11.24-5.5,11.24-12.26Zm-104,21.54H318.3a17.74,17.74,0,0,0,.61-2.58c4.16-19.76-5.65-32.36-21.28-32.36-16.89,0-32.51,5.73-39,32.36-4.33,17.64,5.11,31.79,21.83,32.37,15,.51,29.23-3.67,36.3-24.06h-23l-1.38,5.15c-2.74,10.31-6.41,11.46-10.47,11.46s-6-5.16-4.33-11.46l2.91-10.88Zm4.22-16c1.7-6.3,5.48-11.74,10.47-11.46,4.88,0,6,5.16,4.33,11.46l-2.13,8H282.5l2.14-8Zm-34.27,36.09h-19.2l33.07-52.12H216l-2,7.44H233.2l-32.52,52.12h47.71l2-7.44Z" transform="translate(-1.76 -1.76)"/></g></g></svg>