<svg id="Layer_1" data-name="Layer 1" xmlns="http://www.w3.org/2000/svg" viewBox="0 0 435 435"><defs><style>.cls-1{fill:#f4f4f4;}.cls-2{fill:#0450a1;}.cls-3{fill:#ffe800;}.cls-4{fill:#fff;}</style></defs><title>306</title><g id="ALL"><path class="cls-1" d="M407.6,110.09a216.63,216.63,0,0,0-79.15-79.16q-50-29.16-109.18-29.17T110.09,30.93a216.55,216.55,0,0,0-79.15,79.16q-29.18,50-29.18,109.18T30.93,328.44a216.73,216.73,0,0,0,79.16,79.16q50,29.16,109.18,29.17T328.45,407.6a216.63,216.63,0,0,0,79.15-79.16q29.16-50,29.17-109.17T407.6,110.09Z" transform="translate(-1.76 -1.76)"/><g id="_306" data-name="306"><g id="g19563"><path id="path19014" class="cls-2" d="M30.53,257.41V180.65h377v76.76Z" transform="translate(-1.76 -1.76)"/><path id="path19016" class="cls-3" d="M322.85,242.38H30.53v4.8H321.45l1.4-4.8" transform="translate(-1.76 -1.76)"/><path id="path19018" class="cls-4" d="M89.09,198.5,77,216.9s.77-9.63,1-12c.14-1.76-.07-6.45-4.37-6.45H54.32L41.7,232.77h15L65.88,208,64,232.77H77.33l16.39-24.36-8.94,24.36H99.92l12.61-34.27H89.09" transform="translate(-1.76 -1.76)"/><path id="path19020" class="cls-4" d="M171,232.13a87.17,87.17,0,0,1-12.52,1.4c-10.78.29-20.17-4-20.25-11.8-.15-13.47,13.48-20.86,23.53-22.92a52.2,52.2,0,0,1,21.82.2l-5,12c-1.44-3.28-5.14-3.34-6.66-3.37A20.21,20.21,0,0,0,163,209.6c-5.08,2.32-9.5,9.78-2.32,12.66,4,1.6,9.07.32,14.36-.52l-4,10.39" transform="translate(-1.76 -1.76)"/><path id="path19022" class="cls-4" d="M325.41,232.77h-16.6l12.61-34.27H338l-12.62,34.27" transform="translate(-1.76 -1.76)"/><path id="path19024" class="cls-4" d="M126.09,232.77H109.48L122.1,198.5h16.59l-12.6,34.27" transform="translate(-1.76 -1.76)"/><path id="path19026" class="cls-4" d="M215.65,198.5l-4.58,12.34h-8.34l4.54-12.34H191.43l-12.58,34.27h15.78l4.3-11.61h8.37L203,232.77H218.8l12.64-34.27H215.65" transform="translate(-1.76 -1.76)"/><path id="path19028" class="cls-4" d="M291.69,221.38l8.41-22.88H284l-12.63,34.27h32.43L308,221.38H291.69" transform="translate(-1.76 -1.76)"/><path id="path19030" class="cls-4" d="M379,198.5,370.3,222c.12-2.37.59-11.73.88-17.12a6.53,6.53,0,0,0-1.43-5,4.52,4.52,0,0,0-3-1.37H347.46l-12.61,34.27h14l8.94-24.27-1.06,24.27h23.49l12.61-34.27H379" transform="translate(-1.76 -1.76)"/><path id="path19032" class="cls-4" d="M247.26,223.52l1.42-3.81h18l3.1-8.43h-18l1.39-3.81h18.92l3.34-9H240.8l-12.61,34.27h35l3.39-9.25H247.26" transform="translate(-1.76 -1.76)"/></g></g></g></svg>