<svg id="Layer_1" data-name="Layer 1" xmlns="http://www.w3.org/2000/svg" viewBox="0 0 435 435"><defs><style>.cls-1{fill:#f4f4f4;}.cls-2{fill:#ee1b2d;}</style></defs><title>307</title><g id="ALL"><path class="cls-1" d="M407.6,110.09a216.63,216.63,0,0,0-79.15-79.16q-50-29.16-109.18-29.17T110.09,30.93a216.55,216.55,0,0,0-79.15,79.16q-29.18,50-29.18,109.18T30.93,328.44a216.73,216.73,0,0,0,79.16,79.16q50,29.16,109.18,29.17T328.45,407.6a216.63,216.63,0,0,0,79.15-79.16q29.16-50,29.17-109.17T407.6,110.09Z" transform="translate(-1.76 -1.76)"/><g id="_307" data-name="307"><g id="g3354"><path id="path3356" class="cls-2" d="M316,130l-26.13,106.3L263.63,130H187.94v39.25c-9.2-34.35-42.94-43-73.09-43.45-36.76-.48-77.49,15.44-78.9,64.05H86.79c0-14.67,13.44-23.07,26.12-22.86,15.58-.13,22.75,6.52,23.11,16.87-.54,9-5.84,15.23-23,15.23H95.94v35.28h15.53c8.81,0,21.09,4.8,21.57,17.36.59,15-9.82,21.54-22.63,21.67-22.86-.85-28.76-18.41-28.76-33.52H28.88c.22,10.18-.11,76.5,82.59,76,39.63.36,68.46-16.3,76.6-39.26v35.2H239V197.13l28.14,114.68h45.48l28.24-114.56V311.91h51.93V130ZM188.11,236c-6.49-13.41-15.61-19.27-20.74-21.13,10.77-4.79,16.41-11.29,20.74-24.25Z" transform="translate(-1.76 -1.76)"/></g></g></g></svg>