<svg id="Layer_1" data-name="Layer 1" xmlns="http://www.w3.org/2000/svg" viewBox="0 0 435 435"><defs><style>.cls-1{fill:#f4f4f4;}.cls-2{fill:#007ee5;}</style></defs><title>308</title><g id="ALL"><path class="cls-1" d="M407.6,110.09a216.63,216.63,0,0,0-79.15-79.16q-50-29.16-109.18-29.17T110.09,30.93a216.55,216.55,0,0,0-79.15,79.16q-29.18,50-29.18,109.18T30.93,328.44a216.73,216.73,0,0,0,79.16,79.16q50,29.16,109.18,29.17T328.45,407.6a216.63,216.63,0,0,0,79.15-79.16q29.16-50,29.17-109.17T407.6,110.09Z" transform="translate(-1.76 -1.76)"/><g id="_308" data-name="308"><polygon id="polygon8" class="cls-2" points="158.62 84.77 74.81 139.49 132.76 185.89 217.26 133.71 158.62 84.77"/><polygon id="polygon10" class="cls-2" points="74.81 232.3 158.62 287.03 217.26 238.07 132.76 185.89 74.81 232.3"/><polygon id="polygon12" class="cls-2" points="217.26 238.07 275.91 287.03 359.72 232.3 301.77 185.89 217.26 238.07"/><polygon id="polygon14" class="cls-2" points="359.72 139.49 275.91 84.77 217.26 133.71 301.77 185.89 359.72 139.49"/><polygon id="polygon16" class="cls-2" points="217.44 248.61 158.62 297.41 133.45 280.98 133.45 299.4 217.44 349.77 301.43 299.4 301.43 280.98 276.25 297.41 217.44 248.61"/></g></g></svg>