<?xml version="1.0" encoding="iso-8859-1"?>
<!-- Generator: Adobe Illustrator 22.0.1, SVG Export Plug-In . SVG Version: 6.00 Build 0)  -->
<svg version="1.1" id="Layer_1" xmlns="http://www.w3.org/2000/svg" xmlns:xlink="http://www.w3.org/1999/xlink" x="0px" y="0px"
	 viewBox="0 0 438.53 438.53" style="enable-background:new 0 0 438.53 438.53;" xml:space="preserve">
<g id="_x33_1">
	<g>
		<path style="fill:#287AE9;" d="M407.603,110.087c-19.45-33.321-45.833-59.704-79.155-79.153
			c-33.328-19.448-69.711-29.17-109.176-29.17c-39.461,0-75.854,9.722-109.177,29.17C76.771,50.38,50.388,76.763,30.938,110.087
			c-19.451,33.326-29.173,69.72-29.173,109.178c0,39.46,9.725,75.847,29.17,109.175c19.449,33.321,45.832,59.704,79.156,79.155
			c33.326,19.447,69.717,29.17,109.177,29.17s75.854-9.723,109.179-29.17c33.322-19.444,59.704-45.834,79.152-79.155
			c19.445-33.325,29.166-69.718,29.166-109.175C436.766,179.803,427.044,143.409,407.603,110.087z M338.579,220.167
			c-4.174,30.805-23.711,59.239-24.333,60.067c-0.347,0.505-0.745,0.797-1.119,0.797c-0.28-0.011-0.544-0.138-0.728-0.349
			c-8.451-8.058-16.427-19.288-19.872-26.76c-3.743,2.866-1.739,9.094,0.191,15.828c2.013,6.867,6.75,15.844,8.308,18.743
			c1.674,2.818,3.793,6.18,0.944,7.911c-0.314,0.183-0.697,0.283-1.175,0.283c-3.795,0-12.6-6.567-22.564-19.804
			c-11.099-14.792-16.788-28.079-16.788-28.079c-0.778,0.314-2.053,1.566-1.897,5.351c0.058,3.752,4.118,17.99,11.704,31.067
			c7.68,13.162,14.811,21.436,16.16,23.225c0.861,1.196,0.131,1.805-0.439,2.196c-0.505,0.43-14.17,13.195-33.933,23.946
			c-23.424,12.473-33.785,14.661-33.785,14.661s-10.388-2.244-33.81-14.728c-19.771-10.733-33.379-23.439-33.943-23.82
			c-0.57-0.441-1.325-1.121-0.439-2.204c1.435-1.872,8.541-10.105,16.235-23.266c7.611-13.168,11.521-27.315,11.669-31.117
			c0.222-3.745-1.133-5.12-1.947-5.303c0,0-5.632,13.205-16.73,28.079c-9.913,13.22-18.801,19.804-22.578,19.804
			c-0.455,0-0.836-0.1-1.135-0.283c-2.941-1.73-0.753-5.043,0.878-7.894c1.691-2.916,6.361-11.953,8.283-18.76
			c2.021-6.659,3.943-12.895,0.264-15.828c-3.435,7.47-11.469,18.643-19.893,26.818c-0.182,0.173-0.419,0.276-0.67,0.291
			c-0.422,0-0.796-0.297-1.21-0.844c-0.572-0.78-20.078-29.262-24.285-60.017c-4.182-30.686-2.791-63.685,14.353-86.321
			c7.563-9.872,18.777-14.056,28.767-14.056c3.171,0,6.22,0.397,8.994,1.208c8.474,2.493,14.347,8.664,14.411,15.406
			c-0.064,9.913-7.875,12.035-7.875,12.035s2.841,5.673,11.877,6.659c2.666,0.247,5.168,0.247,5.168,0.247
			c19.415-0.164,24.161-14.278,24.891-26.935c0.821-12.665-5.921-17.458-15.033-18.535c-1.094-0.092-2.121-0.191-3.047-0.191
			c-6.594,0-8.599,2.94-8.599,2.94c-2.99-4.795-0.322-11.348,5.284-15.05c5.806-3.883,12.613-4.662,17.916-4.662
			c0.92-0.005,1.839,0.02,2.758,0.075c2.236-2.493,3.66-3.693,10.55-3.693l0,0c0.505,0,1.044,0,1.643-0.021
			c8.243,0.322,14.852,1.955,20.276,6.817c5.444,4.737,6.553,16.352,6.794,21.528c0.306,5.101,0.131,20.401,5.432,27.829
			c5.467,7.719,11.396,9.955,18.438,9.955c1.624,0,3.321-0.098,5.07-0.314c9.358-1.125,11.985-6.659,11.985-6.659
			s-7.85-2.119-7.85-12.035c-0.048-6.675,5.8-12.904,14.339-15.47c2.743-0.788,5.74-1.192,8.88-1.192
			c10.055,0,21.353,4.207,28.865,14.104C341.389,156.492,342.772,189.414,338.579,220.167z"/>
		<path style="fill:#FFFFFF;" d="M295.361,119.741c-3.14,0-6.137,0.403-8.88,1.192c-8.539,2.566-14.387,8.795-14.339,15.47
			c0,9.915,7.85,12.035,7.85,12.035s-2.627,5.534-11.985,6.659c-1.749,0.216-3.446,0.314-5.07,0.314
			c-7.041,0-12.97-2.236-18.438-9.955c-5.301-7.428-5.126-22.728-5.432-27.829c-0.241-5.176-1.35-16.791-6.794-21.528
			c-5.424-4.862-12.033-6.495-20.276-6.817c-0.599,0.021-1.138,0.021-1.643,0.021l0,0c-6.89,0-8.314,1.2-10.55,3.693
			c-0.918-0.055-1.838-0.08-2.758-0.075c-5.303,0-12.109,0.78-17.916,4.662c-5.607,3.702-8.275,10.254-5.284,15.05
			c0,0,2.005-2.94,8.599-2.94c0.925,0,1.953,0.1,3.047,0.191c9.113,1.077,15.855,5.871,15.033,18.535
			c-0.73,12.656-5.476,26.77-24.891,26.935c0,0-2.502,0-5.168-0.247c-9.036-0.986-11.877-6.659-11.877-6.659
			s7.811-2.121,7.875-12.035c-0.064-6.742-5.937-12.912-14.411-15.406c-2.774-0.811-5.823-1.208-8.994-1.208
			c-9.99,0-21.203,4.184-28.767,14.056c-17.144,22.636-18.535,55.635-14.353,86.321c4.207,30.755,23.714,59.237,24.285,60.017
			c0.414,0.547,0.788,0.844,1.21,0.844c0.25-0.016,0.487-0.119,0.67-0.291c8.424-8.175,16.458-19.348,19.893-26.818
			c3.679,2.932,1.757,9.169-0.264,15.828c-1.922,6.807-6.592,15.844-8.283,18.76c-1.63,2.851-3.818,6.164-0.878,7.894
			c0.299,0.183,0.68,0.283,1.135,0.283c3.777,0,12.665-6.584,22.578-19.804c11.099-14.873,16.73-28.079,16.73-28.079
			c0.813,0.183,2.169,1.558,1.947,5.303c-0.148,3.801-4.057,17.949-11.669,31.117c-7.694,13.162-14.8,21.395-16.235,23.266
			c-0.886,1.083-0.131,1.763,0.439,2.204c0.564,0.381,14.172,13.087,33.943,23.82c23.422,12.484,33.81,14.728,33.81,14.728
			s10.36-2.188,33.785-14.661c19.762-10.751,33.427-23.516,33.933-23.946c0.57-0.391,1.3-1,0.439-2.196
			c-1.35-1.788-8.481-10.063-16.16-23.225c-7.586-13.076-11.646-27.315-11.704-31.067c-0.156-3.785,1.119-5.037,1.897-5.351
			c0,0,5.69,13.286,16.788,28.079c9.963,13.237,18.768,19.804,22.564,19.804c0.478,0,0.861-0.1,1.175-0.283
			c2.849-1.73,0.73-5.093-0.944-7.911c-1.558-2.899-6.295-11.876-8.308-18.743c-1.93-6.734-3.935-12.962-0.191-15.828
			c3.446,7.472,11.421,18.702,19.872,26.76c0.184,0.212,0.448,0.338,0.728,0.349c0.374,0,0.771-0.291,1.119-0.797
			c0.622-0.828,20.159-29.262,24.333-60.067c4.192-30.753,2.81-63.675-14.353-86.321
			C316.714,123.948,305.416,119.741,295.361,119.741z"/>
	</g>
</g>
</svg>
