<?xml version="1.0" encoding="UTF-8"?>
<svg width="30px" height="30px" viewBox="0 0 30 30" version="1.1" xmlns="http://www.w3.org/2000/svg" xmlns:xlink="http://www.w3.org/1999/xlink">
    <title>Moderna stock icon@3x</title>
    <g id="Moderna-stock-icon" stroke="none" stroke-width="1" fill="none" fill-rule="evenodd">
        <circle id="Oval" fill="#F0F2F4" cx="15" cy="15" r="15"></circle>
        <g id="moderna-inc-logo-vector" transform="translate(2.500000, 12.000000)">
            <path d="M23.7736661,5.52065404 L23.7736661,5.52065404 L23.3950086,5.52065404 C23.3046472,5.52065404 23.2616179,5.57228916 23.2616179,5.67555938 C23.2616179,5.77452668 23.3089501,5.82616179 23.3950086,5.82616179 L23.7736661,5.82616179 L23.777969,5.82616179 L24.8580034,5.82616179 C24.9483649,5.82616179 24.9956971,5.77452668 24.9956971,5.67555938 C24.9956971,5.57659208 24.9483649,5.52065404 24.8580034,5.52065404 L23.7736661,5.52065404 L23.7736661,5.52065404 Z" id="Path" fill="#2AACE2"></path>
            <path d="M21.7168675,5.52065404 L21.7168675,5.52065404 L21.3554217,5.52065404 C21.2693632,5.52065404 21.222031,5.57228916 21.222031,5.67555938 C21.222031,5.77452668 21.2693632,5.82616179 21.3554217,5.82616179 L21.7168675,5.82616179 L21.7211704,5.82616179 L22.7495697,5.82616179 C22.8399312,5.82616179 22.8829604,5.77452668 22.8829604,5.67555938 C22.8829604,5.57659208 22.8399312,5.52065404 22.7495697,5.52065404 L21.7168675,5.52065404 L21.7168675,5.52065404 Z" id="Path" fill="#3FB4E5"></path>
            <path d="M19.5998279,5.52065404 L19.5998279,5.52065404 L19.2383821,5.52065404 C19.1480207,5.52065404 19.1092943,5.57228916 19.1092943,5.67555938 C19.1092943,5.77452668 19.1480207,5.82616179 19.2383821,5.82616179 L19.5998279,5.82616179 L19.6041308,5.82616179 L20.636833,5.82616179 C20.7271945,5.82616179 20.7702238,5.77452668 20.7702238,5.67555938 C20.7702238,5.57659208 20.7271945,5.52065404 20.636833,5.52065404 L19.5998279,5.52065404 L19.5998279,5.52065404 Z" id="Path" fill="#4CB9E7"></path>
            <path d="M17.4139415,5.52065404 L17.4139415,5.52065404 L17.0524957,5.52065404 C16.9621343,5.52065404 16.919105,5.57228916 16.919105,5.67555938 C16.919105,5.77452668 16.9621343,5.82616179 17.0524957,5.82616179 L17.4139415,5.82616179 L18.4466437,5.82616179 C18.5370052,5.82616179 18.5800344,5.77452668 18.5800344,5.67555938 C18.5800344,5.57659208 18.5370052,5.52065404 18.4466437,5.52065404 L17.4139415,5.52065404 Z" id="Path" fill="#58BEE9"></path>
            <path d="M15.3012048,5.52065404 L15.3012048,5.52065404 L14.939759,5.52065404 C14.8493976,5.52065404 14.8063683,5.57228916 14.8063683,5.67555938 C14.8063683,5.77452668 14.8493976,5.82616179 14.939759,5.82616179 L15.3012048,5.82616179 L16.3339071,5.82616179 C16.4242685,5.82616179 16.4672978,5.77452668 16.4672978,5.67555938 C16.4672978,5.57659208 16.4242685,5.52065404 16.3339071,5.52065404 L15.3012048,5.52065404 Z" id="Path" fill="#65C3EB"></path>
            <path d="M13.2099828,5.52065404 L13.2099828,5.52065404 L12.8313253,5.52065404 C12.7409639,5.52065404 12.6936317,5.57228916 12.6936317,5.67555938 C12.6936317,5.77452668 12.7409639,5.82616179 12.8313253,5.82616179 L13.2099828,5.82616179 L14.2900172,5.82616179 C14.3803787,5.82616179 14.4277108,5.77452668 14.4277108,5.67555938 C14.4277108,5.57659208 14.3803787,5.52065404 14.2900172,5.52065404 L13.2099828,5.52065404 Z" id="Path" fill="#72C8EC"></path>
            <path d="M11.0714286,5.52065404 L11.0714286,5.52065404 L10.7099828,5.52065404 C10.6196213,5.52065404 10.5765921,5.57228916 10.5765921,5.67555938 C10.5765921,5.77452668 10.6196213,5.82616179 10.7099828,5.82616179 L11.0714286,5.82616179 L11.0757315,5.82616179 L12.1041308,5.82616179 C12.1944923,5.82616179 12.2375215,5.77452668 12.2375215,5.67555938 C12.2375215,5.57659208 12.1987952,5.52065404 12.1041308,5.52065404 L11.0757315,5.52065404 L11.0714286,5.52065404 Z" id="Path" fill="#7FCDEE"></path>
            <path d="M8.95869191,5.52065404 L8.95869191,5.52065404 L8.59724613,5.52065404 C8.50688468,5.52065404 8.46385542,5.57228916 8.46385542,5.67555938 C8.46385542,5.77452668 8.50688468,5.82616179 8.59724613,5.82616179 L8.95869191,5.82616179 L8.96299484,5.82616179 L9.99569707,5.82616179 C10.0817556,5.82616179 10.1247849,5.77452668 10.1247849,5.67555938 C10.1247849,5.57659208 10.0817556,5.52065404 9.99569707,5.52065404 L8.96299484,5.52065404 L8.95869191,5.52065404 Z" id="Path" fill="#8CD2F0"></path>
            <path d="M6.84595525,5.52065404 L6.84595525,5.52065404 L6.48450947,5.52065404 C6.39414802,5.52065404 6.35111876,5.57228916 6.35111876,5.67555938 C6.35111876,5.77452668 6.39414802,5.82616179 6.48450947,5.82616179 L6.84595525,5.82616179 L6.85025818,5.82616179 L7.87865749,5.82616179 C7.96901893,5.82616179 8.01204819,5.77452668 8.01204819,5.67555938 C8.01204819,5.57659208 7.96901893,5.52065404 7.87865749,5.52065404 L6.85025818,5.52065404 L6.84595525,5.52065404 Z" id="Path" fill="#98D7F1"></path>
            <path d="M4.72891566,5.52065404 L4.72891566,5.52065404 L4.37177281,5.52065404 C4.28141136,5.52065404 4.2383821,5.57228916 4.2383821,5.67555938 C4.2383821,5.77452668 4.28141136,5.82616179 4.37177281,5.82616179 L4.72891566,5.82616179 L4.73321859,5.82616179 L5.76592083,5.82616179 C5.85628227,5.82616179 5.89931153,5.77452668 5.89931153,5.67555938 C5.89931153,5.57659208 5.85628227,5.52065404 5.76592083,5.52065404 L4.72891566,5.52065404 L4.72891566,5.52065404 Z" id="Path" fill="#A5DCF3"></path>
            <path d="M2.616179,5.52065404 L2.616179,5.52065404 L2.25473322,5.52065404 C2.16437177,5.52065404 2.12134251,5.57228916 2.12134251,5.67555938 C2.12134251,5.77452668 2.16437177,5.82616179 2.25473322,5.82616179 L2.616179,5.82616179 L2.62048193,5.82616179 L3.64888124,5.82616179 C3.73924269,5.82616179 3.78227194,5.77452668 3.78227194,5.67555938 C3.78227194,5.57659208 3.73924269,5.52065404 3.64888124,5.52065404 L2.616179,5.52065404 L2.616179,5.52065404 Z" id="Path" fill="#B2E1F5"></path>
            <path d="M0.499139415,5.52065404 L0.499139415,5.52065404 L0.137693632,5.52065404 C0.0473321859,5.52065404 0.00860585198,5.57228916 0.00860585198,5.67555938 C0.00860585198,5.77452668 0.0473321859,5.82616179 0.137693632,5.82616179 L0.499139415,5.82616179 L0.503442341,5.82616179 L1.53614458,5.82616179 C1.62650602,5.82616179 1.66953528,5.77452668 1.66953528,5.67555938 C1.66953528,5.57659208 1.62650602,5.52065404 1.53614458,5.52065404 L0.499139415,5.52065404 L0.499139415,5.52065404 Z" id="Path" fill="#BFE6F6"></path>
            <path d="M0.00860585198,1.14888124 L0.00860585198,1.14888124 L0.400172117,1.14888124 L0.400172117,1.68674699 C0.533562823,1.48881239 0.67555938,1.34681583 0.817555938,1.25215146 C1.01549053,1.13166954 1.22203098,1.06712565 1.43717728,1.06712565 C1.58347676,1.06712565 1.7211704,1.09724613 1.85886403,1.15318417 C1.98795181,1.2091222 2.09982788,1.2908778 2.18158348,1.38984509 C2.26333907,1.48450947 2.33648881,1.62650602 2.39672978,1.80722892 C2.52581756,1.56626506 2.68932874,1.38123924 2.88296041,1.25215146 C3.08089501,1.12736661 3.28743546,1.06712565 3.51118761,1.06712565 C3.72203098,1.06712565 3.9070568,1.11876076 4.06626506,1.23063683 C4.22547332,1.33820998 4.34165232,1.48881239 4.42340792,1.68244406 C4.50086059,1.87177281 4.53958692,2.16437177 4.53958692,2.54733219 L4.53958692,4.2383821 L4.14371773,4.2383821 L4.14371773,2.54733219 C4.14371773,2.21600688 4.11790017,1.98795181 4.07487091,1.86316695 C4.02753873,1.7383821 3.95008606,1.6394148 3.83390706,1.56196213 C3.72203098,1.48881239 3.58864028,1.45008606 3.43373494,1.45008606 C3.2444062,1.45008606 3.07659208,1.51032702 2.91738382,1.6222031 C2.76247849,1.73407917 2.64629948,1.88898451 2.57314974,2.07401033 C2.50430293,2.267642 2.46557659,2.58175559 2.46557659,3.02495697 L2.46557659,4.23407917 L2.07401033,4.23407917 L2.07401033,2.65060241 C2.07401033,2.27624785 2.0524957,2.02237522 2.00946644,1.88898451 C1.96213425,1.7555938 1.88468158,1.64802065 1.76850258,1.57056799 C1.65232358,1.49311532 1.51893287,1.45008606 1.36402754,1.45008606 C1.18330465,1.45008606 1.01549053,1.5060241 0.856282272,1.61790017 C0.701376936,1.72547332 0.585197935,1.87607573 0.507745267,2.06540448 C0.434595525,2.25473322 0.395869191,2.53872633 0.395869191,2.92598967 L0.395869191,4.2383821 L0.00430292599,4.2383821 L0.00430292599,1.14888124 L0.00860585198,1.14888124 Z" id="Path" fill="#E31837"></path>
            <path d="M6.76850258,1.06712565 L6.76850258,1.06712565 C7.22461274,1.06712565 7.60327022,1.24354561 7.90447504,1.58347676 C8.17986231,1.89759036 8.31755594,2.267642 8.31755594,2.70223752 C8.31755594,3.13253012 8.17555938,3.51118761 7.88296041,3.82960413 C7.59466437,4.15232358 7.22461274,4.31583477 6.77280551,4.31583477 C6.31669535,4.31583477 5.94664372,4.15232358 5.65834768,3.82960413 C5.36574871,3.51118761 5.22375215,3.13253012 5.22375215,2.70223752 C5.22375215,2.27194492 5.36144578,1.90189329 5.63683305,1.58777969 C5.92943201,1.24354561 6.3080895,1.06712565 6.76850258,1.06712565 Z M6.76850258,1.45869191 L6.76850258,1.45869191 C6.45008606,1.45869191 6.17900172,1.57917384 5.95094664,1.82444062 C5.72289157,2.06540448 5.60671256,2.36230637 5.60671256,2.71084337 C5.60671256,2.9302926 5.65834768,3.13683305 5.7616179,3.33476764 C5.86488812,3.52409639 6.00688468,3.6746988 6.18330465,3.77796902 C6.35972461,3.88123924 6.54905336,3.93717728 6.76419966,3.93717728 C6.9707401,3.93717728 7.1686747,3.88123924 7.34509466,3.77796902 C7.52581756,3.6746988 7.66351119,3.52409639 7.76678141,3.33476764 C7.87005164,3.13683305 7.92168675,2.9302926 7.92168675,2.71084337 C7.92168675,2.36230637 7.80550775,2.06540448 7.57745267,1.82444062 C7.35370052,1.57917384 7.08261618,1.45869191 6.76850258,1.45869191 Z" id="Shape" fill="#E31837"></path>
            <path d="M12.0869191,0.012908778 L12.0869191,0.012908778 L12.0869191,4.2383821 L11.6996558,4.2383821 L11.6996558,3.71342513 C11.5361446,3.91566265 11.3511188,4.06196213 11.1488812,4.16523236 C10.9423408,4.26419966 10.7185886,4.31583477 10.4776248,4.31583477 C10.0473322,4.31583477 9.67728055,4.16092943 9.37607573,3.84251291 C9.07056799,3.52839931 8.91566265,3.14974182 8.91566265,2.6979346 C8.91566265,2.26333907 9.07056799,1.88468158 9.38037866,1.57056799 C9.6858864,1.25645439 10.055938,1.10154905 10.4905336,1.10154905 C10.7401033,1.10154905 10.9681583,1.15318417 11.1660929,1.26075731 C11.3726334,1.36833046 11.5490534,1.52753873 11.6996558,1.74268503 L11.6996558,0.00860585198 L12.0869191,0.00860585198 L12.0869191,0.012908778 Z M10.524957,1.48020654 L10.524957,1.48020654 C10.3012048,1.48020654 10.1032702,1.53614458 9.91824441,1.6394148 C9.73321859,1.75129088 9.59122203,1.89759036 9.47934596,2.09552496 C9.37177281,2.28915663 9.31583477,2.49569707 9.31583477,2.70654045 C9.31583477,2.92598967 9.37177281,3.12822719 9.47934596,3.32185886 C9.59122203,3.51979346 9.73752151,3.67039587 9.92254733,3.78227194 C10.1118761,3.88984509 10.3098107,3.94578313 10.520654,3.94578313 C10.7358003,3.94578313 10.9380379,3.88984509 11.1316695,3.78227194 C11.3209983,3.6746988 11.4672978,3.52839931 11.5748709,3.34337349 C11.6781411,3.15834768 11.7254733,2.9475043 11.7254733,2.71944923 C11.7254733,2.36660929 11.6092943,2.0697074 11.3769363,1.8373494 C11.1488812,1.60068847 10.8605852,1.48020654 10.524957,1.48020654 Z" id="Shape" fill="#E31837"></path>
            <path d="M15.5120482,3.20998279 L15.5120482,3.20998279 L15.8347676,3.39070568 C15.7314974,3.60154905 15.6024096,3.77796902 15.464716,3.91135972 C15.3227194,4.04475043 15.1635112,4.14371773 14.9913941,4.21686747 C14.8192771,4.28141136 14.6213425,4.32013769 14.3975904,4.32013769 C13.9070568,4.32013769 13.5240964,4.15232358 13.2487091,3.8253012 C12.9733219,3.4939759 12.8356282,3.12392427 12.8356282,2.70654045 C12.8356282,2.31067126 12.9475043,1.96213425 13.1841652,1.66092943 C13.4853701,1.26936317 13.8812392,1.0757315 14.3760757,1.0757315 C14.883821,1.0757315 15.292599,1.27366609 15.6024096,1.67383821 C15.8218589,1.95783133 15.929432,2.30636833 15.9337349,2.72805508 L13.2358003,2.72805508 C13.2444062,3.08519793 13.3519793,3.38209983 13.5714286,3.61015491 C13.7865749,3.83820998 14.0533563,3.95438898 14.3674699,3.95438898 C14.5223752,3.95438898 14.6643718,3.9242685 14.8106713,3.87263339 C14.9569707,3.81669535 15.0774527,3.74354561 15.17642,3.65748709 C15.288296,3.55851979 15.3958692,3.41222031 15.5120482,3.20998279 Z M15.5120482,2.37521515 L15.5120482,2.37521515 C15.4604131,2.16437177 15.3829604,1.99655766 15.288296,1.86746988 C15.1893287,1.74268503 15.060241,1.6394148 14.8967298,1.56626506 C14.7332186,1.48881239 14.5654045,1.45008606 14.3889845,1.45008606 C14.0920826,1.45008606 13.8425129,1.54475043 13.6273666,1.74268503 C13.4724613,1.88468158 13.3562823,2.09552496 13.2745267,2.37951807 L15.5120482,2.37951807 L15.5120482,2.37521515 Z" id="Shape" fill="#E31837"></path>
            <path d="M16.4672978,1.14888124 L16.4672978,1.14888124 L16.8760757,1.14888124 L16.8760757,1.60068847 C16.9965577,1.4242685 17.1299484,1.2908778 17.2633391,1.20051635 C17.4010327,1.11445783 17.5430293,1.06712565 17.6893287,1.06712565 C17.8055077,1.06712565 17.9216867,1.10585198 18.0507745,1.17039587 L17.8399312,1.5060241 C17.7538726,1.46729776 17.6850258,1.45008606 17.6290878,1.45008606 C17.4956971,1.45008606 17.3623064,1.5060241 17.2418244,1.61359725 C17.1127367,1.7211704 17.0223752,1.89328744 16.9535284,2.12134251 C16.9018933,2.29776248 16.8760757,2.65490534 16.8760757,3.18846816 L16.8760757,4.23407917 L16.4672978,4.23407917 L16.4672978,1.14888124 Z" id="Path" fill="#E31837"></path>
            <path d="M18.5025818,1.14888124 L18.5025818,1.14888124 L18.8898451,1.14888124 L18.8898451,1.70395869 C19.0447504,1.49311532 19.2211704,1.33390706 19.4104991,1.23063683 C19.5998279,1.12736661 19.8063683,1.07142857 20.0258176,1.07142857 C20.2538726,1.07142857 20.4561102,1.13166954 20.6325301,1.24784854 C20.8089501,1.36833046 20.9380379,1.52753873 21.0197935,1.7211704 C21.105852,1.91910499 21.1445783,2.22891566 21.1445783,2.65490534 L21.1445783,4.24268503 L20.757315,4.24268503 L20.757315,2.77108434 C20.757315,2.41394148 20.7401033,2.17728055 20.7099828,2.05679862 C20.6669535,1.8545611 20.580895,1.69965577 20.4475043,1.59638554 C20.3227194,1.49741824 20.1549053,1.44148021 19.944062,1.44148021 C19.711704,1.44148021 19.4965577,1.51893287 19.3115318,1.67814114 C19.1222031,1.84165232 19.0017212,2.03528399 18.9457831,2.267642 C18.9070568,2.42254733 18.8898451,2.70654045 18.8898451,3.10671256 L18.8898451,4.24268503 L18.5025818,4.24268503 L18.5025818,1.14888124 Z" id="Path" fill="#E31837"></path>
            <path d="M24.9182444,1.14888124 L24.9182444,1.14888124 L24.9182444,4.2383821 L24.5438898,4.2383821 L24.5438898,3.7091222 C24.3846816,3.91135972 24.2039587,4.06196213 24.0060241,4.16523236 C23.8037866,4.26419966 23.5843373,4.32013769 23.3476764,4.32013769 C22.9259897,4.32013769 22.5645439,4.16092943 22.2719449,3.84251291 C21.975043,3.52839931 21.8244406,3.1454389 21.8244406,2.68932874 C21.8244406,2.25043029 21.975043,1.86746988 22.2762478,1.54905336 C22.5774527,1.23493976 22.9388985,1.0757315 23.3605852,1.0757315 C23.605852,1.0757315 23.8253012,1.12736661 24.0232358,1.23924269 C24.2211704,1.34681583 24.3932874,1.51032702 24.5438898,1.72547332 L24.5438898,1.15748709 L24.9182444,1.15748709 L24.9182444,1.14888124 Z M23.3950086,1.45008606 L23.3950086,1.45008606 C23.1841652,1.45008606 22.9862306,1.5060241 22.8012048,1.61359725 C22.6204819,1.72547332 22.4827883,1.87607573 22.3709122,2.07401033 C22.267642,2.267642 22.211704,2.47848537 22.211704,2.69363167 C22.211704,2.9130809 22.267642,3.12392427 22.3709122,3.31755594 C22.4784854,3.51549053 22.6247849,3.67039587 22.8055077,3.78227194 C22.9905336,3.88984509 23.1798623,3.95008606 23.3907057,3.95008606 C23.5972461,3.95008606 23.7994836,3.89414802 23.9888124,3.78227194 C24.1738382,3.6746988 24.3158348,3.52409639 24.4234079,3.33907057 C24.5223752,3.15404475 24.5697074,2.93889845 24.5697074,2.70654045 C24.5697074,2.34939759 24.4578313,2.04819277 24.2340792,1.81153184 C24.0017212,1.57056799 23.722031,1.45008606 23.3950086,1.45008606 Z" id="Shape" fill="#E31837"></path>
        </g>
    </g>
</svg>