<svg id="svg" version="1.1" xmlns="http://www.w3.org/2000/svg" xmlns:xlink="http://www.w3.org/1999/xlink" width="400" height="403.64741641337383" viewBox="0, 0, 400,403.64741641337383"><g id="svgg"><path id="path0" d="M195.785 50.218 C 186.608 54.665,190.118 68.627,200.260 68.021 C 209.959 67.441,212.565 54.361,203.799 50.261 C 201.718 49.287,197.749 49.266,195.785 50.218 M277.810 58.017 C 269.708 60.670,270.893 72.116,279.319 72.592 C 287.357 73.046,290.075 62.325,282.864 58.610 C 281.554 57.935,278.981 57.633,277.810 58.017 M117.847 58.492 C 112.614 60.359,110.908 66.310,114.427 70.422 C 118.028 74.629,124.940 73.411,126.922 68.221 C 129.060 62.622,123.370 56.521,117.847 58.492 M255.319 90.812 C 244.350 95.033,245.157 110.094,256.495 112.764 C 265.523 114.889,273.208 105.022,269.073 96.615 C 266.615 91.617,260.229 88.922,255.319 90.812 M136.958 91.315 C 126.574 95.670,127.646 110.147,138.559 112.933 C 146.061 114.847,153.401 108.090,152.274 100.305 C 151.243 93.175,143.442 88.597,136.958 91.315 M195.717 100.272 C 186.392 103.256,183.540 115.301,190.476 122.406 C 198.695 130.824,213.081 124.908,213.181 113.070 C 213.259 103.971,204.414 97.490,195.717 100.272 M322.948 121.987 C 314.665 124.732,313.700 135.523,321.390 139.419 C 330.791 144.183,339.618 131.587,332.017 124.255 C 329.758 122.076,325.725 121.067,322.948 121.987 M71.393 122.608 C 64.894 124.930,62.890 132.765,67.503 137.813 C 73.292 144.146,83.698 140.062,83.717 131.448 C 83.731 125.202,77.215 120.528,71.393 122.608 M169.605 135.467 C 159.135 137.202,150.985 147.022,150.985 157.903 C 150.985 178.149,175.218 188.103,189.532 173.736 C 205.023 158.189,191.318 131.869,169.605 135.467 M221.125 135.852 C 200.753 141.210,197.737 168.558,216.477 177.995 C 228.735 184.169,243.578 177.941,248.017 164.762 C 249.201 161.248,249.443 155.264,248.509 152.582 C 248.247 151.830,248.031 151.039,248.029 150.823 C 248.021 150.137,246.171 146.408,245.077 144.873 C 239.648 137.255,229.837 133.560,221.125 135.852 M276.748 145.003 C 263.938 146.932,261.154 164.372,272.748 170.059 C 280.517 173.869,289.423 169.741,291.675 161.286 C 294.030 152.441,285.942 143.617,276.748 145.003 M117.275 145.855 C 107.829 148.969,104.966 160.932,111.986 167.953 C 121.058 177.025,136.379 169.336,134.616 156.597 C 133.527 148.728,124.856 143.356,117.275 145.855 M250.443 181.193 C 235.579 182.656,226.275 199.188,232.540 213.006 C 240.333 230.191,264.848 230.688,273.249 213.830 C 281.353 197.568,268.659 179.401,250.443 181.193 M144.225 181.351 C 122.062 184.920,117.227 214.122,137.139 224.152 C 153.216 232.250,172.163 218.636,169.636 200.800 C 167.906 188.589,155.977 179.459,144.225 181.351 M315.424 192.427 C 306.723 194.478,303.699 205.845,310.248 211.882 C 317.395 218.470,329.281 213.433,329.321 203.799 C 329.353 196.285,322.579 190.741,315.424 192.427 M79.114 193.146 C 70.855 195.727,68.228 205.701,74.156 211.969 C 80.952 219.154,93.079 214.653,93.566 204.765 C 93.954 196.894,86.443 190.856,79.114 193.146 M356.602 196.820 C 349.708 200.307,352.153 210.722,359.878 210.776 C 369.370 210.844,369.700 196.602,360.219 196.112 C 358.516 196.024,357.960 196.133,356.602 196.820 M37.799 197.186 C 30.274 200.380,32.262 211.532,40.359 211.547 C 46.721 211.559,50.173 203.694,45.805 199.137 C 43.713 196.955,40.304 196.124,37.799 197.186 M169.149 227.535 C 151.463 231.474,145.024 252.975,157.726 265.679 C 169.674 277.628,189.626 272.967,195.224 256.918 C 200.839 240.818,185.767 223.834,169.149 227.535 M221.429 227.628 C 199.846 233.480,198.091 262.914,218.845 270.956 C 230.298 275.394,244.649 268.511,248.279 256.839 C 249.123 254.126,249.579 250.574,249.384 248.228 C 248.226 234.269,234.430 224.102,221.429 227.628 M275.836 235.984 C 265.851 238.415,262.217 250.567,269.226 258.085 C 276.853 266.266,290.174 262.086,292.122 250.901 C 293.674 241.985,284.752 233.813,275.836 235.984 M119.629 236.219 C 115.707 236.756,111.666 239.639,109.863 243.187 C 103.039 256.621,119.669 269.281,130.712 259.058 C 140.211 250.263,132.539 234.452,119.629 236.219 M323.931 266.880 C 318.045 268.351,314.863 274.774,317.425 280.012 C 320.923 287.162,330.793 287.258,334.332 280.176 C 337.763 273.310,331.294 265.039,323.931 266.880 M71.581 267.691 C 68.108 268.872,65.350 272.832,65.350 276.638 C 65.350 286.461,78.682 289.532,83.177 280.745 C 86.905 273.457,79.416 265.026,71.581 267.691 M196.710 281.480 C 189.783 282.843,184.816 290.372,186.294 297.267 C 188.530 307.691,201.322 311.493,208.845 303.970 C 218.146 294.669,209.655 278.933,196.710 281.480 M256.513 294.641 C 249.610 296.502,246.030 304.315,249.164 310.682 C 253.393 319.273,265.581 319.103,269.703 310.395 C 273.729 301.891,265.606 292.189,256.513 294.641 M138.298 294.975 C 125.740 299.050,128.221 317.173,141.337 317.173 C 153.675 317.173,157.247 300.680,146.022 295.542 C 143.916 294.577,140.335 294.315,138.298 294.975 M276.951 335.442 C 276.078 335.877,275.029 336.671,274.621 337.206 C 269.395 344.057,277.353 352.857,284.459 348.085 C 292.049 342.987,285.144 331.359,276.951 335.442 M117.465 335.525 C 116.790 335.832,115.686 336.710,115.011 337.476 C 108.801 344.532,119.123 354.083,125.772 347.433 C 131.458 341.748,124.794 332.196,117.465 335.525 M195.523 340.421 C 190.854 342.782,188.850 348.101,190.931 352.610 C 195.135 361.721,208.998 358.834,208.919 348.865 C 208.864 342.021,201.516 337.390,195.523 340.421 " stroke="none" fill="#fbfbfb" fill-rule="evenodd"></path><path id="path1" d="M187.690 11.743 C 124.518 16.590,70.927 48.435,37.345 101.083 C 11.461 141.662,1.921 193.167,11.423 241.033 C 32.976 349.601,141.176 417.385,248.632 389.638 C 351.036 363.195,412.595 258.047,385.990 155.015 C 365.945 77.386,300.103 21.112,218.997 12.289 C 214.670 11.818,191.887 11.421,187.690 11.743 M203.799 50.261 C 212.565 54.361,209.959 67.441,200.260 68.021 C 190.126 68.626,186.582 54.669,195.745 50.236 C 197.751 49.265,201.697 49.278,203.799 50.261 M282.864 58.610 C 286.163 60.310,287.797 63.879,286.813 67.238 C 284.490 75.178,272.919 74.027,272.395 65.803 C 272.025 59.990,277.817 56.010,282.864 58.610 M122.171 58.534 C 126.711 59.882,128.779 65.433,126.260 69.507 C 123.661 73.711,117.641 74.176,114.427 70.422 C 109.558 64.733,114.985 56.400,122.171 58.534 M263.579 91.250 C 272.364 95.286,272.414 107.810,263.662 111.906 C 252.369 117.191,242.127 103.019,250.653 93.904 C 254.006 90.319,259.221 89.249,263.579 91.250 M145.960 91.727 C 153.015 95.202,154.566 104.417,149.027 109.955 C 141.978 117.004,129.787 111.954,129.787 101.984 C 129.787 93.492,138.424 88.014,145.960 91.727 M204.042 100.307 C 213.820 103.327,216.418 116.210,208.632 123.063 C 200.367 130.339,187.189 124.775,186.685 113.798 C 186.242 104.155,194.847 97.467,204.042 100.307 M329.350 122.468 C 335.620 125.235,336.824 133.401,331.648 138.055 C 325.464 143.615,315.514 138.597,316.184 130.256 C 316.698 123.854,323.446 119.862,329.350 122.468 M77.604 122.672 C 81.072 123.854,83.722 127.665,83.722 131.472 C 83.722 140.066,73.290 144.144,67.503 137.813 C 60.924 130.614,68.330 119.512,77.604 122.672 M178.547 135.714 C 188.628 137.850,196.181 147.380,196.131 157.903 C 196.036 178.248,172.042 188.087,157.589 173.708 C 141.661 157.863,156.459 131.035,178.547 135.714 M231.459 135.717 C 245.239 138.623,252.972 154.148,247.095 167.109 C 239.219 184.479,214.560 184.793,206.237 167.629 C 198.025 150.695,212.947 131.815,231.459 135.717 M282.214 145.350 C 288.953 147.042,293.450 154.617,291.675 161.286 C 288.990 171.369,276.966 174.860,269.441 167.743 C 259.504 158.345,268.833 141.991,282.214 145.350 M126.835 146.427 C 138.871 152.073,136.542 169.542,123.454 171.787 C 114.846 173.263,106.711 165.173,108.196 156.615 C 109.726 147.798,118.977 142.742,126.835 146.427 M258.787 181.785 C 270.553 184.631,278.056 197.063,275.114 208.838 C 270.399 227.704,245.979 232.536,234.759 216.823 C 222.512 199.671,238.194 176.804,258.787 181.785 M152.995 181.926 C 177.869 188.640,173.845 225.363,148.124 226.371 C 119.573 227.489,115.971 185.901,144.225 181.351 C 145.866 181.087,151.177 181.435,152.995 181.926 M320.784 192.556 C 331.072 195.236,332.428 209.027,322.877 213.852 C 320.370 215.119,315.930 215.156,313.321 213.933 C 300.925 208.122,307.563 189.113,320.784 192.556 M85.673 193.277 C 93.819 195.812,96.338 206.123,90.288 212.173 C 85.794 216.667,78.512 216.575,74.156 211.969 C 66.069 203.418,74.466 189.789,85.673 193.277 M363.714 197.131 C 367.754 199.623,368.423 205.441,365.048 208.725 C 360.361 213.284,352.584 209.992,352.584 203.449 C 352.584 197.623,358.796 194.097,363.714 197.131 M43.639 197.508 C 50.544 201.065,48.149 211.523,40.426 211.541 C 32.203 211.559,30.206 200.057,37.919 197.099 C 39.411 196.527,42.109 196.720,43.639 197.508 M179.934 227.963 C 192.236 231.479,199.345 244.951,195.214 256.918 C 189.680 272.951,169.672 277.626,157.726 265.679 C 141.370 249.321,157.691 221.604,179.934 227.963 M233.587 228.063 C 249.773 233.365,254.670 253.466,242.714 265.537 C 228.520 279.868,204.145 269.857,204.145 249.696 C 204.145 234.478,219.261 223.372,233.587 228.063 M281.520 235.904 C 288.358 237.356,293.270 244.305,292.122 250.901 C 290.217 261.840,277.597 266.109,269.629 258.509 C 260.121 249.440,268.676 233.177,281.520 235.904 M125.076 236.532 C 132.910 238.475,137.243 247.831,133.662 255.075 C 129.479 263.538,118.800 265.364,112.198 258.747 C 102.609 249.137,111.821 233.246,125.076 236.532 M329.829 267.524 C 333.081 268.923,335.258 272.441,335.258 276.297 C 335.258 284.144,325.645 288.367,319.781 283.095 C 311.792 275.912,319.948 263.273,329.829 267.524 M78.853 268.213 C 84.691 271.069,85.934 278.884,81.257 283.326 C 76.405 287.935,68.271 286.205,65.978 280.076 C 62.971 272.041,71.193 264.465,78.853 268.213 M201.858 281.461 C 212.404 283.429,216.423 296.391,208.839 303.976 C 202.691 310.123,192.367 308.890,187.931 301.477 C 182.080 291.700,190.659 279.370,201.858 281.461 M262.167 294.696 C 269.088 296.499,272.711 304.047,269.704 310.395 C 265.579 319.103,253.394 319.273,249.164 310.682 C 244.905 302.030,252.845 292.268,262.167 294.696 M146.339 295.715 C 157.256 301.090,153.507 317.173,141.337 317.173 C 128.221 317.173,125.740 299.050,138.298 294.975 C 140.525 294.253,144.022 294.575,146.339 295.715 M283.490 335.285 C 288.616 337.767,289.162 344.926,284.464 348.081 C 277.336 352.868,269.379 344.078,274.621 337.206 C 276.413 334.856,280.690 333.930,283.490 335.285 M123.338 335.425 C 128.192 337.447,129.487 343.719,125.809 347.396 C 119.129 354.077,108.773 344.563,115.011 337.476 C 117.105 335.097,120.528 334.254,123.338 335.425 M203.343 340.258 C 212.525 344.981,209.735 358.049,199.544 358.049 C 189.462 358.049,186.484 344.992,195.523 340.421 C 197.752 339.294,201.324 339.219,203.343 340.258 " stroke="none" fill="#346cd4" fill-rule="evenodd"></path><path id="path2" d="" stroke="none" fill="#ccd4f4" fill-rule="evenodd"></path><path id="path3" d="" stroke="none" fill="#64b8e8" fill-rule="evenodd"></path><path id="path4" d="" stroke="none" fill="#686ce8" fill-rule="evenodd"></path></g></svg>