<svg id="svg" version="1.1" xmlns="http://www.w3.org/2000/svg" xmlns:xlink="http://www.w3.org/1999/xlink" width="400" height="400" viewBox="0, 0, 400,400"><g id="svgg"><path id="path0" d="M137.395 76.377 C 136.953 76.557,134.208 79.242,131.295 82.343 L 126.000 87.983 126.000 199.782 L 126.000 311.581 131.631 317.591 L 137.261 323.600 162.131 323.608 C 175.809 323.613,204.280 323.410,225.400 323.157 L 263.800 322.698 265.344 321.249 C 266.193 320.452,268.308 318.227,270.044 316.303 L 273.200 312.807 273.200 199.842 L 273.200 86.877 267.817 81.704 L 262.435 76.531 247.117 76.266 C 225.592 75.894,138.368 75.982,137.395 76.377 M250.301 200.071 C 250.397 294.951,250.367 299.949,249.701 300.091 C 247.960 300.463,150.284 299.623,149.648 299.230 C 149.324 299.029,149.199 272.186,149.186 199.977 L 149.169 101.000 150.085 100.505 C 150.801 100.118,161.801 100.031,200.600 100.105 L 250.200 100.200 250.301 200.071 M189.867 138.667 C 189.720 138.813,189.600 144.582,189.600 151.487 C 189.600 168.580,191.079 166.920,175.600 167.197 L 164.200 167.400 164.093 177.573 C 164.028 183.778,164.138 187.898,164.375 188.135 C 164.781 188.541,235.183 188.535,236.242 188.129 C 236.823 187.906,237.113 168.881,236.557 167.433 C 236.344 166.876,234.929 166.800,224.780 166.800 L 213.245 166.800 212.122 165.835 L 211.000 164.869 210.922 151.972 C 210.860 141.871,210.730 139.002,210.322 138.743 C 209.704 138.351,190.255 138.279,189.867 138.667 M164.893 212.334 C 164.501 212.583,164.411 215.076,164.493 223.428 L 164.600 234.200 176.135 234.400 L 187.671 234.600 188.635 235.722 L 189.600 236.845 189.600 249.432 L 189.600 262.020 190.500 262.310 C 190.995 262.469,195.720 262.510,201.000 262.400 L 210.600 262.200 210.800 249.310 C 211.057 232.741,209.305 234.635,224.508 234.482 C 230.936 234.417,236.350 234.210,236.540 234.020 C 236.940 233.620,237.015 213.071,236.618 212.430 C 236.301 211.916,165.701 211.821,164.893 212.334 " stroke="none" fill="#fbfbfc" fill-rule="evenodd"></path><path id="path1" d="M183.000 4.000 C 182.864 4.220,181.143 4.400,179.176 4.400 C 177.059 4.400,175.600 4.563,175.600 4.800 C 175.600 5.029,174.400 5.200,172.800 5.200 C 171.200 5.200,170.000 5.371,170.000 5.600 C 170.000 5.822,168.933 6.000,167.600 6.000 C 166.267 6.000,165.200 6.178,165.200 6.400 C 165.200 6.620,164.300 6.800,163.200 6.800 C 162.100 6.800,161.200 6.980,161.200 7.200 C 161.200 7.420,160.300 7.600,159.200 7.600 C 158.100 7.600,157.200 7.780,157.200 8.000 C 157.200 8.220,156.480 8.400,155.600 8.400 C 154.720 8.400,154.000 8.580,154.000 8.800 C 154.000 9.020,153.280 9.200,152.400 9.200 C 151.520 9.200,150.800 9.380,150.800 9.600 C 150.800 9.820,150.080 10.000,149.200 10.000 C 148.320 10.000,147.600 10.180,147.600 10.400 C 147.600 10.620,147.071 10.800,146.424 10.800 C 145.777 10.800,145.136 10.980,145.000 11.200 C 144.864 11.420,144.133 11.600,143.376 11.600 C 142.619 11.600,142.000 11.780,142.000 12.000 C 142.000 12.220,141.460 12.400,140.800 12.400 C 140.140 12.400,139.600 12.580,139.600 12.800 C 139.600 13.020,139.060 13.200,138.400 13.200 C 137.740 13.200,137.200 13.380,137.200 13.600 C 137.200 13.820,136.660 14.000,136.000 14.000 C 135.340 14.000,134.800 14.180,134.800 14.400 C 134.800 14.620,134.361 14.800,133.824 14.800 C 133.287 14.800,132.736 14.980,132.600 15.200 C 132.464 15.420,132.003 15.600,131.576 15.600 C 131.149 15.600,130.800 15.780,130.800 16.000 C 130.800 16.220,130.260 16.400,129.600 16.400 C 128.940 16.400,128.400 16.580,128.400 16.800 C 128.400 17.020,128.040 17.200,127.600 17.200 C 127.160 17.200,126.800 17.380,126.800 17.600 C 126.800 17.820,126.260 18.000,125.600 18.000 C 124.940 18.000,124.400 18.180,124.400 18.400 C 124.400 18.620,124.040 18.800,123.600 18.800 C 123.160 18.800,122.800 18.980,122.800 19.200 C 122.800 19.420,122.361 19.600,121.824 19.600 C 121.287 19.600,120.736 19.780,120.600 20.000 C 120.464 20.220,120.003 20.400,119.576 20.400 C 119.149 20.400,118.800 20.580,118.800 20.800 C 118.800 21.020,118.440 21.200,118.000 21.200 C 117.560 21.200,117.200 21.380,117.200 21.600 C 117.200 21.820,116.840 22.000,116.400 22.000 C 115.960 22.000,115.600 22.180,115.600 22.400 C 115.600 22.620,115.240 22.800,114.800 22.800 C 114.360 22.800,114.000 22.980,114.000 23.200 C 114.000 23.420,113.640 23.600,113.200 23.600 C 112.760 23.600,112.400 23.780,112.400 24.000 C 112.400 24.220,112.040 24.400,111.600 24.400 C 111.160 24.400,110.800 24.580,110.800 24.800 C 110.800 25.020,110.440 25.200,110.000 25.200 C 109.560 25.200,109.200 25.380,109.200 25.600 C 109.200 25.820,108.840 26.000,108.400 26.000 C 107.960 26.000,107.600 26.180,107.600 26.400 C 107.600 26.620,107.240 26.800,106.800 26.800 C 106.360 26.800,106.000 26.980,106.000 27.200 C 106.000 27.420,105.680 27.600,105.288 27.600 C 104.897 27.600,104.317 27.960,104.000 28.400 C 103.683 28.840,103.103 29.200,102.712 29.200 C 102.320 29.200,102.000 29.380,102.000 29.600 C 102.000 29.820,101.640 30.000,101.200 30.000 C 100.760 30.000,100.400 30.180,100.400 30.400 C 100.400 30.620,100.080 30.800,99.688 30.800 C 99.297 30.800,98.717 31.160,98.400 31.600 C 98.083 32.040,97.543 32.400,97.200 32.400 C 96.857 32.400,96.317 32.760,96.000 33.200 C 95.683 33.640,95.103 34.000,94.712 34.000 C 94.320 34.000,94.000 34.180,94.000 34.400 C 94.000 34.620,93.764 34.800,93.475 34.800 C 93.187 34.800,92.602 35.115,92.175 35.500 C 91.749 35.885,90.905 36.455,90.300 36.768 C 89.695 37.080,89.200 37.485,89.200 37.668 C 89.200 37.850,88.957 38.000,88.659 38.000 C 88.362 38.000,87.554 38.540,86.863 39.200 C 86.172 39.860,85.408 40.400,85.164 40.400 C 84.920 40.400,84.217 40.940,83.600 41.600 C 82.983 42.260,82.263 42.800,82.000 42.800 C 81.737 42.800,81.017 43.340,80.400 44.000 C 79.783 44.660,79.067 45.200,78.808 45.200 C 78.549 45.200,77.646 45.920,76.800 46.800 C 75.954 47.680,75.059 48.400,74.809 48.400 C 74.560 48.400,73.296 49.480,72.000 50.800 C 70.704 52.120,69.458 53.200,69.230 53.200 C 68.688 53.200,53.200 68.688,53.200 69.230 C 53.200 69.458,52.120 70.704,50.800 72.000 C 49.480 73.296,48.400 74.560,48.400 74.809 C 48.400 75.059,47.680 75.954,46.800 76.800 C 45.920 77.646,45.200 78.549,45.200 78.808 C 45.200 79.067,44.660 79.783,44.000 80.400 C 43.340 81.017,42.800 81.737,42.800 82.000 C 42.800 82.263,42.260 82.983,41.600 83.600 C 40.940 84.217,40.400 84.920,40.400 85.164 C 40.400 85.408,39.860 86.172,39.200 86.863 C 38.540 87.554,38.000 88.362,38.000 88.659 C 38.000 88.957,37.850 89.200,37.668 89.200 C 37.485 89.200,37.080 89.695,36.768 90.300 C 36.455 90.905,35.885 91.749,35.500 92.175 C 35.115 92.602,34.800 93.187,34.800 93.475 C 34.800 93.764,34.620 94.000,34.400 94.000 C 34.180 94.000,34.000 94.320,34.000 94.712 C 34.000 95.103,33.640 95.683,33.200 96.000 C 32.760 96.317,32.400 96.857,32.400 97.200 C 32.400 97.543,32.040 98.083,31.600 98.400 C 31.160 98.717,30.800 99.297,30.800 99.688 C 30.800 100.080,30.620 100.400,30.400 100.400 C 30.180 100.400,30.000 100.760,30.000 101.200 C 30.000 101.640,29.820 102.000,29.600 102.000 C 29.380 102.000,29.200 102.320,29.200 102.712 C 29.200 103.103,28.840 103.683,28.400 104.000 C 27.960 104.317,27.600 104.897,27.600 105.288 C 27.600 105.680,27.420 106.000,27.200 106.000 C 26.980 106.000,26.800 106.360,26.800 106.800 C 26.800 107.240,26.620 107.600,26.400 107.600 C 26.180 107.600,26.000 107.960,26.000 108.400 C 26.000 108.840,25.820 109.200,25.600 109.200 C 25.380 109.200,25.200 109.560,25.200 110.000 C 25.200 110.440,25.020 110.800,24.800 110.800 C 24.580 110.800,24.400 111.160,24.400 111.600 C 24.400 112.040,24.220 112.400,24.000 112.400 C 23.780 112.400,23.600 112.760,23.600 113.200 C 23.600 113.640,23.420 114.000,23.200 114.000 C 22.980 114.000,22.800 114.360,22.800 114.800 C 22.800 115.240,22.620 115.600,22.400 115.600 C 22.180 115.600,22.000 115.960,22.000 116.400 C 22.000 116.840,21.820 117.200,21.600 117.200 C 21.380 117.200,21.200 117.560,21.200 118.000 C 21.200 118.440,21.020 118.800,20.800 118.800 C 20.580 118.800,20.400 119.149,20.400 119.576 C 20.400 120.003,20.220 120.464,20.000 120.600 C 19.780 120.736,19.600 121.287,19.600 121.824 C 19.600 122.361,19.420 122.800,19.200 122.800 C 18.980 122.800,18.800 123.160,18.800 123.600 C 18.800 124.040,18.620 124.400,18.400 124.400 C 18.180 124.400,18.000 124.940,18.000 125.600 C 18.000 126.260,17.820 126.800,17.600 126.800 C 17.380 126.800,17.200 127.160,17.200 127.600 C 17.200 128.040,17.020 128.400,16.800 128.400 C 16.580 128.400,16.400 128.940,16.400 129.600 C 16.400 130.260,16.220 130.800,16.000 130.800 C 15.780 130.800,15.600 131.149,15.600 131.576 C 15.600 132.003,15.420 132.464,15.200 132.600 C 14.980 132.736,14.800 133.287,14.800 133.824 C 14.800 134.361,14.620 134.800,14.400 134.800 C 14.180 134.800,14.000 135.340,14.000 136.000 C 14.000 136.660,13.820 137.200,13.600 137.200 C 13.380 137.200,13.200 137.740,13.200 138.400 C 13.200 139.060,13.020 139.600,12.800 139.600 C 12.580 139.600,12.400 140.140,12.400 140.800 C 12.400 141.460,12.220 142.000,12.000 142.000 C 11.780 142.000,11.600 142.619,11.600 143.376 C 11.600 144.133,11.420 144.864,11.200 145.000 C 10.980 145.136,10.800 145.777,10.800 146.424 C 10.800 147.071,10.620 147.600,10.400 147.600 C 10.180 147.600,10.000 148.320,10.000 149.200 C 10.000 150.080,9.820 150.800,9.600 150.800 C 9.380 150.800,9.200 151.520,9.200 152.400 C 9.200 153.280,9.020 154.000,8.800 154.000 C 8.580 154.000,8.400 154.720,8.400 155.600 C 8.400 156.480,8.220 157.200,8.000 157.200 C 7.780 157.200,7.600 158.100,7.600 159.200 C 7.600 160.300,7.420 161.200,7.200 161.200 C 6.980 161.200,6.800 162.100,6.800 163.200 C 6.800 164.300,6.620 165.200,6.400 165.200 C 6.178 165.200,6.000 166.267,6.000 167.600 C 6.000 168.933,5.822 170.000,5.600 170.000 C 5.371 170.000,5.200 171.200,5.200 172.800 C 5.200 174.400,5.029 175.600,4.800 175.600 C 4.563 175.600,4.400 177.059,4.400 179.176 C 4.400 181.143,4.220 182.864,4.000 183.000 C 3.451 183.339,3.451 219.061,4.000 219.400 C 4.220 219.536,4.400 221.257,4.400 223.224 C 4.400 225.341,4.563 226.800,4.800 226.800 C 5.029 226.800,5.200 228.000,5.200 229.600 C 5.200 231.200,5.371 232.400,5.600 232.400 C 5.822 232.400,6.000 233.467,6.000 234.800 C 6.000 236.133,6.178 237.200,6.400 237.200 C 6.620 237.200,6.800 238.100,6.800 239.200 C 6.800 240.300,6.980 241.200,7.200 241.200 C 7.420 241.200,7.600 242.100,7.600 243.200 C 7.600 244.300,7.780 245.200,8.000 245.200 C 8.220 245.200,8.400 245.920,8.400 246.800 C 8.400 247.680,8.580 248.400,8.800 248.400 C 9.020 248.400,9.200 249.120,9.200 250.000 C 9.200 250.880,9.380 251.600,9.600 251.600 C 9.820 251.600,10.000 252.320,10.000 253.200 C 10.000 254.080,10.180 254.800,10.400 254.800 C 10.620 254.800,10.800 255.329,10.800 255.976 C 10.800 256.623,10.980 257.264,11.200 257.400 C 11.420 257.536,11.600 258.267,11.600 259.024 C 11.600 259.781,11.780 260.400,12.000 260.400 C 12.220 260.400,12.400 260.925,12.400 261.567 C 12.400 262.208,12.578 262.793,12.797 262.867 C 13.015 262.940,13.233 263.482,13.281 264.071 C 13.330 264.660,13.512 265.055,13.685 264.948 C 13.858 264.840,14.000 265.393,14.000 266.176 C 14.000 266.959,14.180 267.600,14.400 267.600 C 14.620 267.600,14.800 268.039,14.800 268.576 C 14.800 269.113,14.980 269.664,15.200 269.800 C 15.420 269.936,15.600 270.382,15.600 270.790 C 15.600 271.199,15.778 271.593,15.997 271.667 C 16.215 271.740,16.433 272.282,16.481 272.871 C 16.530 273.460,16.712 273.855,16.885 273.748 C 17.058 273.640,17.200 273.833,17.200 274.176 C 17.200 274.519,17.380 274.800,17.600 274.800 C 17.820 274.800,18.000 275.520,18.000 276.400 C 18.000 277.280,18.180 278.000,18.400 278.000 C 18.620 278.000,18.800 278.360,18.800 278.800 C 18.800 279.240,18.980 279.600,19.200 279.600 C 19.420 279.600,19.600 280.039,19.600 280.576 C 19.600 281.113,19.780 281.664,20.000 281.800 C 20.220 281.936,20.400 282.397,20.400 282.824 C 20.400 283.251,20.580 283.600,20.800 283.600 C 21.020 283.600,21.200 283.960,21.200 284.400 C 21.200 284.840,21.380 285.200,21.600 285.200 C 21.820 285.200,22.000 285.560,22.000 286.000 C 22.000 286.440,22.180 286.800,22.400 286.800 C 22.620 286.800,22.800 287.160,22.800 287.600 C 22.800 288.040,22.980 288.400,23.200 288.400 C 23.420 288.400,23.600 288.760,23.600 289.200 C 23.600 289.640,23.780 290.000,24.000 290.000 C 24.220 290.000,24.400 290.360,24.400 290.800 C 24.400 291.240,24.580 291.600,24.800 291.600 C 25.020 291.600,25.200 291.960,25.200 292.400 C 25.200 292.840,25.380 293.200,25.600 293.200 C 25.820 293.200,26.000 293.560,26.000 294.000 C 26.000 294.440,26.180 294.800,26.400 294.800 C 26.620 294.800,26.800 295.160,26.800 295.600 C 26.800 296.040,26.980 296.400,27.200 296.400 C 27.420 296.400,27.600 296.720,27.600 297.112 C 27.600 297.503,27.960 298.083,28.400 298.400 C 28.840 298.717,29.200 299.297,29.200 299.688 C 29.200 300.080,29.380 300.400,29.600 300.400 C 29.820 300.400,30.000 300.760,30.000 301.200 C 30.000 301.640,30.180 302.000,30.400 302.000 C 30.620 302.000,30.800 302.320,30.800 302.712 C 30.800 303.103,31.160 303.683,31.600 304.000 C 32.040 304.317,32.400 304.857,32.400 305.200 C 32.400 305.543,32.760 306.083,33.200 306.400 C 33.640 306.717,34.000 307.297,34.000 307.688 C 34.000 308.080,34.180 308.400,34.400 308.400 C 34.620 308.400,34.800 308.636,34.800 308.925 C 34.800 309.213,35.115 309.798,35.500 310.225 C 35.885 310.651,36.455 311.495,36.768 312.100 C 37.080 312.705,37.485 313.200,37.668 313.200 C 37.850 313.200,38.000 313.443,38.000 313.741 C 38.000 314.038,38.540 314.846,39.200 315.537 C 39.860 316.228,40.400 316.992,40.400 317.236 C 40.400 317.480,40.940 318.183,41.600 318.800 C 42.260 319.417,42.800 320.137,42.800 320.400 C 42.800 320.663,43.340 321.383,44.000 322.000 C 44.660 322.617,45.200 323.333,45.200 323.592 C 45.200 323.851,45.920 324.754,46.800 325.600 C 47.680 326.446,48.400 327.341,48.400 327.591 C 48.400 327.840,49.435 329.069,50.700 330.322 C 51.965 331.575,53.255 333.095,53.568 333.700 C 53.880 334.305,54.380 334.800,54.680 334.800 C 54.980 334.800,55.346 335.115,55.493 335.499 C 55.888 336.528,57.549 338.079,57.975 337.816 C 58.177 337.691,58.465 337.974,58.615 338.446 C 58.968 339.559,62.841 343.432,63.954 343.785 C 64.426 343.935,64.706 344.228,64.578 344.436 C 64.332 344.834,68.638 349.200,69.276 349.200 C 69.479 349.200,70.704 350.280,72.000 351.600 C 73.296 352.920,74.560 354.000,74.809 354.000 C 75.059 354.000,75.954 354.720,76.800 355.600 C 77.646 356.480,78.549 357.200,78.808 357.200 C 79.067 357.200,79.783 357.740,80.400 358.400 C 81.017 359.060,81.737 359.600,82.000 359.600 C 82.263 359.600,82.983 360.140,83.600 360.800 C 84.217 361.460,85.009 362.000,85.360 362.000 C 85.712 362.000,86.000 362.199,86.000 362.443 C 86.000 362.686,86.264 362.784,86.587 362.660 C 86.910 362.536,87.298 362.635,87.449 362.879 C 87.615 363.148,87.541 363.211,87.262 363.038 C 87.008 362.881,86.800 362.913,86.800 363.109 C 86.800 363.305,87.295 363.720,87.900 364.032 C 88.505 364.345,89.349 364.915,89.775 365.300 C 90.202 365.685,90.787 366.000,91.075 366.000 C 91.364 366.000,91.600 366.199,91.600 366.443 C 91.600 366.686,91.879 366.778,92.221 366.647 C 92.598 366.503,92.739 366.575,92.581 366.832 C 92.437 367.064,92.698 367.353,93.160 367.474 C 93.622 367.594,94.000 367.852,94.000 368.047 C 94.000 368.241,94.294 368.400,94.653 368.400 C 95.012 368.400,95.637 368.781,96.041 369.247 C 96.465 369.737,97.035 369.996,97.388 369.860 C 97.725 369.731,98.000 369.812,98.000 370.041 C 98.000 370.668,99.059 371.600,99.771 371.600 C 100.117 371.600,100.400 371.780,100.400 372.000 C 100.400 372.220,100.760 372.400,101.200 372.400 C 101.640 372.400,102.000 372.580,102.000 372.800 C 102.000 373.020,102.320 373.200,102.712 373.200 C 103.103 373.200,103.683 373.560,104.000 374.000 C 104.317 374.440,104.897 374.800,105.288 374.800 C 105.680 374.800,106.000 374.980,106.000 375.200 C 106.000 375.420,106.360 375.600,106.800 375.600 C 107.240 375.600,107.600 375.780,107.600 376.000 C 107.600 376.220,107.960 376.400,108.400 376.400 C 108.840 376.400,109.200 376.580,109.200 376.800 C 109.200 377.020,109.560 377.200,110.000 377.200 C 110.440 377.200,110.800 377.380,110.800 377.600 C 110.800 377.820,111.160 378.000,111.600 378.000 C 112.040 378.000,112.400 378.180,112.400 378.400 C 112.400 378.620,112.760 378.800,113.200 378.800 C 113.640 378.800,114.000 378.980,114.000 379.200 C 114.000 379.420,114.360 379.600,114.800 379.600 C 115.240 379.600,115.600 379.780,115.600 380.000 C 115.600 380.220,115.960 380.400,116.400 380.400 C 116.840 380.400,117.200 380.580,117.200 380.800 C 117.200 381.020,117.465 381.200,117.788 381.200 C 118.111 381.200,119.017 381.560,119.800 382.000 C 120.583 382.440,121.579 382.800,122.012 382.800 C 122.445 382.800,122.800 382.980,122.800 383.200 C 122.800 383.420,123.160 383.600,123.600 383.600 C 124.040 383.600,124.400 383.780,124.400 384.000 C 124.400 384.220,124.805 384.396,125.300 384.391 C 126.073 384.383,126.018 384.292,124.906 383.744 C 123.530 383.065,123.491 382.626,124.779 382.290 C 125.693 382.051,126.182 382.549,126.552 384.100 C 126.730 384.841,127.074 385.200,127.608 385.200 C 128.043 385.200,128.400 385.380,128.400 385.600 C 128.400 385.820,128.940 386.000,129.600 386.000 C 130.260 386.000,130.800 386.180,130.800 386.400 C 130.800 386.620,131.149 386.800,131.576 386.800 C 132.003 386.800,132.464 386.980,132.600 387.200 C 133.021 387.881,133.933 387.641,134.207 386.777 C 134.603 385.530,136.639 385.842,136.500 387.128 C 136.309 388.889,137.954 389.724,139.424 388.613 C 141.030 387.398,143.735 388.425,142.413 389.747 C 141.679 390.481,141.970 390.800,143.376 390.800 C 144.133 390.800,144.864 390.980,145.000 391.200 C 145.399 391.846,145.927 391.662,146.207 390.777 C 146.599 389.542,148.948 389.831,149.133 391.137 C 149.244 391.927,149.134 392.033,148.433 391.810 C 147.955 391.659,147.600 391.723,147.600 391.961 C 147.600 392.189,148.265 392.351,149.077 392.320 C 149.896 392.289,150.624 392.473,150.711 392.732 C 150.888 393.264,152.800 393.381,152.800 392.860 C 152.800 392.562,153.680 392.522,155.543 392.737 C 155.851 392.773,155.986 393.059,155.855 393.400 C 155.699 393.808,155.877 394.000,156.413 394.000 C 156.846 394.000,157.200 394.180,157.200 394.400 C 157.200 394.620,158.100 394.800,159.200 394.800 C 160.300 394.800,161.200 394.980,161.200 395.200 C 161.200 395.786,162.391 395.689,162.623 395.084 C 162.975 394.166,164.409 394.381,164.883 395.423 C 165.281 396.297,165.576 396.400,167.664 396.400 C 168.955 396.400,170.000 396.579,170.000 396.800 C 170.000 397.028,171.192 397.200,172.776 397.200 C 174.303 397.200,175.652 397.360,175.773 397.557 C 175.894 397.753,177.473 397.935,179.281 397.961 C 181.090 397.988,182.747 398.187,182.965 398.405 C 183.508 398.948,219.064 398.944,219.400 398.400 C 219.536 398.180,221.156 398.000,223.000 398.000 C 224.844 398.000,226.464 397.820,226.600 397.600 C 226.736 397.380,228.082 397.200,229.590 397.200 C 231.099 397.200,232.394 397.018,232.468 396.795 C 232.543 396.572,233.552 396.369,234.710 396.343 C 235.869 396.316,236.914 396.139,237.032 395.948 C 237.151 395.756,238.137 395.600,239.224 395.600 C 240.311 395.600,241.200 395.420,241.200 395.200 C 241.200 394.980,241.904 394.800,242.765 394.800 C 244.263 394.800,244.729 394.195,243.882 393.348 C 243.423 392.890,244.438 392.000,245.420 392.000 C 246.392 392.000,247.738 393.053,247.421 393.566 C 247.319 393.731,247.489 393.867,247.800 393.867 C 248.111 393.867,248.272 393.717,248.159 393.533 C 248.045 393.350,248.768 393.200,249.764 393.200 L 251.576 393.200 251.488 391.700 C 251.379 389.846,254.069 389.276,254.328 391.098 C 254.420 391.751,254.295 391.935,253.868 391.771 C 253.545 391.647,253.162 391.738,253.017 391.973 C 252.863 392.221,253.087 392.400,253.553 392.400 C 253.993 392.400,254.464 392.220,254.600 392.000 C 254.736 391.780,255.266 391.600,255.778 391.600 C 256.290 391.600,257.182 391.354,257.762 391.054 L 258.815 390.507 257.939 389.926 C 256.819 389.182,257.278 388.400,258.836 388.400 C 260.295 388.400,260.805 389.408,259.750 390.206 C 259.060 390.729,259.056 390.776,259.700 390.787 C 260.085 390.794,260.400 390.620,260.400 390.400 C 260.400 390.180,260.940 390.000,261.600 390.000 C 262.260 390.000,262.800 389.820,262.800 389.600 C 262.800 389.380,263.340 389.200,264.000 389.200 C 264.660 389.200,265.200 389.020,265.200 388.800 C 265.200 388.580,265.639 388.400,266.176 388.400 C 266.713 388.400,267.264 388.220,267.400 388.000 C 267.536 387.780,268.177 387.600,268.824 387.600 C 269.471 387.600,270.000 387.420,270.000 387.200 C 270.000 386.980,270.360 386.800,270.800 386.800 C 271.240 386.800,271.600 386.620,271.600 386.400 C 271.600 385.906,271.503 385.905,270.231 386.388 C 269.167 386.793,268.334 385.478,268.986 384.423 C 269.667 383.321,272.577 384.272,272.126 385.449 C 271.839 386.197,273.478 386.179,274.232 385.425 C 274.732 384.925,274.690 384.768,273.908 384.221 C 273.185 383.714,273.095 383.455,273.448 382.896 C 274.292 381.555,275.987 381.963,276.105 383.536 C 276.171 384.415,278.000 384.863,278.000 384.000 C 278.000 383.780,278.360 383.600,278.800 383.600 C 279.240 383.600,279.600 383.420,279.600 383.200 C 279.600 382.980,279.949 382.800,280.376 382.800 C 280.803 382.800,281.264 382.620,281.400 382.400 C 281.536 382.180,282.087 382.000,282.624 382.000 C 283.161 382.000,283.600 381.820,283.600 381.600 C 283.600 381.380,283.960 381.200,284.400 381.200 C 284.840 381.200,285.200 381.020,285.200 380.800 C 285.200 380.580,285.560 380.400,286.000 380.400 C 286.440 380.400,286.800 380.220,286.800 380.000 C 286.800 379.780,287.160 379.600,287.600 379.600 C 288.040 379.600,288.400 379.420,288.400 379.200 C 288.400 378.980,288.760 378.800,289.200 378.800 C 289.640 378.800,290.000 378.620,290.000 378.400 C 290.000 378.180,290.360 378.000,290.800 378.000 C 291.240 378.000,291.600 377.820,291.600 377.600 C 291.600 377.380,291.960 377.200,292.400 377.200 C 292.840 377.200,293.200 377.020,293.200 376.800 C 293.200 376.580,293.560 376.400,294.000 376.400 C 294.440 376.400,294.800 376.220,294.800 376.000 C 294.800 375.780,295.160 375.600,295.600 375.600 C 296.040 375.600,296.400 375.420,296.400 375.200 C 296.400 374.980,296.636 374.800,296.925 374.800 C 297.213 374.800,297.836 374.440,298.308 374.000 C 298.780 373.560,299.444 373.200,299.783 373.200 C 300.122 373.200,300.400 373.020,300.400 372.800 C 300.400 372.580,300.678 372.400,301.017 372.400 C 301.356 372.400,302.020 372.040,302.492 371.600 C 302.964 371.160,303.587 370.800,303.875 370.800 C 304.164 370.800,304.400 370.620,304.400 370.400 C 304.400 370.180,304.720 370.000,305.112 370.000 C 305.503 370.000,306.083 369.640,306.400 369.200 C 306.717 368.760,307.297 368.400,307.688 368.400 C 308.080 368.400,308.400 368.136,308.400 367.813 C 308.400 367.450,308.634 367.315,309.012 367.460 C 309.365 367.596,309.935 367.337,310.359 366.847 C 310.763 366.381,311.299 366.000,311.551 366.000 C 311.802 366.000,312.572 365.460,313.263 364.800 C 313.954 364.140,314.722 363.600,314.971 363.600 C 315.220 363.600,315.683 363.240,316.000 362.800 C 316.317 362.360,316.825 362.000,317.128 362.000 C 317.431 362.000,318.183 361.460,318.800 360.800 C 319.417 360.140,320.132 359.600,320.389 359.600 C 320.913 359.600,321.576 358.954,322.253 357.783 C 322.502 357.352,323.003 357.054,323.365 357.120 C 323.727 357.186,324.724 356.511,325.581 355.620 C 326.437 354.729,327.313 354.000,327.528 354.000 C 328.101 354.000,332.064 350.027,331.844 349.672 C 331.742 349.506,332.096 349.333,332.631 349.289 C 333.830 349.190,339.768 343.395,339.355 342.728 C 339.187 342.456,339.256 342.387,339.526 342.554 C 339.992 342.842,349.200 333.945,349.200 333.207 C 349.200 332.986,350.280 331.708,351.600 330.368 C 352.920 329.027,354.000 327.752,354.000 327.534 C 354.000 327.316,354.738 326.428,355.640 325.562 C 356.650 324.591,357.193 323.758,357.053 323.393 C 356.927 323.067,357.008 322.800,357.231 322.800 C 357.766 322.800,359.600 320.954,359.600 320.415 C 359.600 320.183,360.140 319.428,360.800 318.737 C 361.460 318.046,362.000 317.304,362.000 317.088 C 362.000 316.871,362.392 316.354,362.871 315.938 C 363.494 315.398,363.620 315.060,363.311 314.751 C 363.003 314.443,362.641 314.559,362.040 315.160 C 361.578 315.622,361.200 315.809,361.200 315.576 C 361.200 315.343,360.975 315.267,360.700 315.406 C 360.425 315.545,360.549 315.376,360.976 315.030 C 361.404 314.683,361.638 314.400,361.497 314.400 C 360.906 314.400,362.139 312.001,363.030 311.417 C 363.563 311.068,364.000 310.529,364.000 310.220 C 364.000 309.911,364.405 309.330,364.900 308.929 C 365.395 308.528,365.862 307.840,365.938 307.400 C 366.236 305.674,367.634 305.017,368.336 306.272 C 368.786 307.075,370.000 306.167,370.000 305.029 C 370.000 304.683,370.180 304.400,370.400 304.400 C 370.620 304.400,370.800 304.164,370.800 303.875 C 370.800 303.587,371.160 302.964,371.600 302.492 C 372.040 302.020,372.400 301.356,372.400 301.017 C 372.400 300.678,372.580 300.400,372.800 300.400 C 373.020 300.400,373.200 300.122,373.200 299.783 C 373.200 299.444,373.560 298.780,374.000 298.308 C 374.440 297.836,374.800 297.213,374.800 296.925 C 374.800 296.636,374.980 296.400,375.200 296.400 C 375.420 296.400,375.600 295.984,375.600 295.475 C 375.600 294.967,375.960 294.164,376.400 293.692 C 376.840 293.220,377.200 292.556,377.200 292.217 C 377.200 291.878,377.380 291.600,377.600 291.600 C 377.820 291.600,378.000 291.240,378.000 290.800 C 378.000 290.360,378.180 290.000,378.400 290.000 C 378.620 290.000,378.800 289.640,378.800 289.200 C 378.800 288.760,378.980 288.400,379.200 288.400 C 379.420 288.400,379.600 288.040,379.600 287.600 C 379.600 287.160,379.780 286.800,380.000 286.800 C 380.220 286.800,380.400 286.440,380.400 286.000 C 380.400 285.560,380.580 285.200,380.800 285.200 C 381.020 285.200,381.200 284.840,381.200 284.400 C 381.200 283.960,381.380 283.600,381.600 283.600 C 381.820 283.600,382.000 283.161,382.000 282.624 C 382.000 282.087,382.180 281.536,382.400 281.400 C 382.620 281.264,382.800 280.803,382.800 280.376 C 382.800 279.949,382.980 279.600,383.200 279.600 C 383.420 279.600,383.600 279.240,383.600 278.800 C 383.600 278.360,383.780 278.000,384.000 278.000 C 384.220 278.000,384.400 277.460,384.400 276.800 C 384.400 276.140,384.580 275.600,384.800 275.600 C 385.020 275.600,385.200 275.240,385.200 274.800 C 385.200 274.360,385.380 274.000,385.600 274.000 C 386.346 274.000,386.020 272.039,385.200 271.600 C 384.347 271.144,384.036 268.800,384.829 268.800 C 385.594 268.800,386.280 269.798,386.141 270.710 C 386.066 271.199,386.184 271.600,386.403 271.600 C 386.621 271.600,386.800 271.240,386.800 270.800 C 386.800 270.360,386.980 270.000,387.200 270.000 C 387.420 270.000,387.600 269.471,387.600 268.824 C 387.600 268.177,387.780 267.536,388.000 267.400 C 388.747 266.938,388.404 266.510,387.435 266.695 C 385.751 267.017,385.073 264.041,386.690 263.421 C 387.407 263.146,388.400 263.859,388.400 264.649 C 388.400 264.952,388.580 265.200,388.800 265.200 C 389.020 265.200,389.200 264.660,389.200 264.000 C 389.200 263.340,389.380 262.800,389.600 262.800 C 389.820 262.800,390.000 262.375,390.000 261.855 C 390.000 261.074,389.834 260.943,389.040 261.094 C 387.881 261.316,387.243 259.415,388.000 257.999 C 388.717 256.661,389.780 257.160,389.924 258.903 C 390.080 260.782,390.800 260.881,390.800 259.024 C 390.800 258.267,390.980 257.536,391.200 257.400 C 391.420 257.264,391.600 256.634,391.600 256.000 C 391.600 255.366,391.780 254.736,392.000 254.600 C 392.220 254.464,392.400 254.071,392.400 253.727 C 392.400 253.243,392.277 253.204,391.851 253.558 C 390.993 254.270,390.000 253.652,390.000 252.406 C 390.000 250.900,390.776 250.301,391.778 251.033 C 392.967 251.903,393.200 251.734,393.200 250.000 C 393.200 249.120,393.380 248.400,393.600 248.400 C 394.340 248.400,394.008 247.127,393.213 246.919 C 392.201 246.655,391.872 245.589,392.385 244.240 C 392.778 243.206,392.819 243.194,393.795 243.833 L 394.800 244.492 394.800 242.846 C 394.800 241.941,394.980 241.200,395.200 241.200 C 395.420 241.200,395.597 240.435,395.594 239.500 C 395.590 238.314,395.477 237.975,395.221 238.379 C 394.929 238.842,394.753 238.735,394.349 237.848 C 394.006 237.095,393.970 236.537,394.236 236.115 C 394.666 235.433,395.371 235.366,395.450 236.000 C 395.478 236.220,395.523 236.591,395.550 236.824 C 395.701 238.106,396.302 236.504,396.343 234.710 C 396.369 233.552,396.572 232.543,396.795 232.468 C 397.018 232.394,397.200 231.099,397.200 229.590 C 397.200 228.082,397.380 226.736,397.600 226.600 C 397.820 226.464,398.000 224.844,398.000 223.000 C 398.000 221.156,398.180 219.536,398.400 219.400 C 398.949 219.061,398.949 183.339,398.400 183.000 C 398.180 182.864,398.000 181.244,398.000 179.400 C 398.000 177.556,397.820 175.936,397.600 175.800 C 397.380 175.664,397.200 174.303,397.200 172.776 C 397.200 171.192,397.028 170.000,396.800 170.000 C 396.578 170.000,396.400 168.933,396.400 167.600 C 396.400 166.267,396.222 165.200,396.000 165.200 C 395.780 165.200,395.600 164.300,395.600 163.200 C 395.600 162.100,395.420 161.200,395.200 161.200 C 394.980 161.200,394.800 160.300,394.800 159.200 C 394.800 158.100,394.620 157.200,394.400 157.200 C 394.180 157.200,394.000 156.480,394.000 155.600 C 394.000 154.720,393.820 154.000,393.600 154.000 C 393.380 154.000,393.200 153.280,393.200 152.400 C 393.200 151.520,393.020 150.800,392.800 150.800 C 392.580 150.800,392.400 150.080,392.400 149.200 C 392.400 148.320,392.220 147.600,392.000 147.600 C 391.780 147.600,391.600 147.071,391.600 146.424 C 391.600 145.777,391.420 145.136,391.200 145.000 C 390.980 144.864,390.800 144.133,390.800 143.376 C 390.800 142.619,390.620 142.000,390.400 142.000 C 390.180 142.000,390.000 141.460,390.000 140.800 C 390.000 140.140,389.820 139.600,389.600 139.600 C 389.380 139.600,389.200 139.060,389.200 138.400 C 389.200 137.740,389.020 137.200,388.800 137.200 C 388.580 137.200,388.400 136.660,388.400 136.000 C 388.400 135.340,388.220 134.800,388.000 134.800 C 387.780 134.800,387.600 134.361,387.600 133.824 C 387.600 133.287,387.420 132.736,387.200 132.600 C 386.980 132.464,386.800 132.003,386.800 131.576 C 386.800 131.149,386.620 130.800,386.400 130.800 C 386.180 130.800,386.000 130.260,386.000 129.600 C 386.000 128.940,385.820 128.400,385.600 128.400 C 385.380 128.400,385.200 128.040,385.200 127.600 C 385.200 127.160,385.020 126.800,384.800 126.800 C 384.580 126.800,384.400 126.260,384.400 125.600 C 384.400 124.940,384.220 124.400,384.000 124.400 C 383.780 124.400,383.600 124.040,383.600 123.600 C 383.600 123.160,383.420 122.800,383.200 122.800 C 382.980 122.800,382.800 122.361,382.800 121.824 C 382.800 121.287,382.620 120.736,382.400 120.600 C 382.180 120.464,382.000 120.003,382.000 119.576 C 382.000 119.149,381.820 118.800,381.600 118.800 C 381.380 118.800,381.200 118.440,381.200 118.000 C 381.200 117.560,381.020 117.200,380.800 117.200 C 380.580 117.200,380.400 116.840,380.400 116.400 C 380.400 115.960,380.220 115.600,380.000 115.600 C 379.780 115.600,379.600 115.240,379.600 114.800 C 379.600 114.360,379.420 114.000,379.200 114.000 C 378.980 114.000,378.800 113.640,378.800 113.200 C 378.800 112.760,378.620 112.400,378.400 112.400 C 378.180 112.400,378.000 112.040,378.000 111.600 C 378.000 111.160,377.820 110.800,377.600 110.800 C 377.380 110.800,377.200 110.440,377.200 110.000 C 377.200 109.560,377.020 109.200,376.800 109.200 C 376.580 109.200,376.400 108.840,376.400 108.400 C 376.400 107.960,376.220 107.600,376.000 107.600 C 375.780 107.600,375.600 107.240,375.600 106.800 C 375.600 106.360,375.420 106.000,375.200 106.000 C 374.980 106.000,374.800 105.680,374.800 105.288 C 374.800 104.897,374.440 104.317,374.000 104.000 C 373.560 103.683,373.200 103.103,373.200 102.712 C 373.200 102.320,373.020 102.000,372.800 102.000 C 372.580 102.000,372.400 101.640,372.400 101.200 C 372.400 100.760,372.220 100.400,372.000 100.400 C 371.780 100.400,371.600 100.080,371.600 99.688 C 371.600 99.297,371.240 98.717,370.800 98.400 C 370.360 98.083,370.000 97.543,370.000 97.200 C 370.000 96.857,369.640 96.317,369.200 96.000 C 368.760 95.683,368.400 95.103,368.400 94.712 C 368.400 94.320,368.220 94.000,368.000 94.000 C 367.780 94.000,367.600 93.764,367.600 93.475 C 367.600 93.187,367.285 92.602,366.900 92.175 C 366.515 91.749,365.945 90.905,365.632 90.300 C 365.320 89.695,364.915 89.200,364.732 89.200 C 364.550 89.200,364.400 88.957,364.400 88.659 C 364.400 88.362,363.860 87.554,363.200 86.863 C 362.540 86.172,362.000 85.408,362.000 85.164 C 362.000 84.920,361.460 84.217,360.800 83.600 C 360.140 82.983,359.600 82.263,359.600 82.000 C 359.600 81.737,359.060 81.017,358.400 80.400 C 357.740 79.783,357.200 79.067,357.200 78.808 C 357.200 78.549,356.480 77.646,355.600 76.800 C 354.720 75.954,354.000 75.059,354.000 74.809 C 354.000 74.560,352.920 73.296,351.600 72.000 C 350.280 70.704,349.200 69.458,349.200 69.230 C 349.200 68.688,333.712 53.200,333.170 53.200 C 332.942 53.200,331.696 52.120,330.400 50.800 C 329.104 49.480,327.840 48.400,327.591 48.400 C 327.341 48.400,326.446 47.680,325.600 46.800 C 324.754 45.920,323.851 45.200,323.592 45.200 C 323.333 45.200,322.617 44.660,322.000 44.000 C 321.383 43.340,320.663 42.800,320.400 42.800 C 320.137 42.800,319.417 42.260,318.800 41.600 C 318.183 40.940,317.480 40.400,317.236 40.400 C 316.992 40.400,316.228 39.860,315.537 39.200 C 314.846 38.540,314.038 38.000,313.741 38.000 C 313.443 38.000,313.200 37.850,313.200 37.668 C 313.200 37.485,312.705 37.080,312.100 36.768 C 311.495 36.455,310.651 35.885,310.225 35.500 C 309.798 35.115,309.213 34.800,308.925 34.800 C 308.636 34.800,308.400 34.620,308.400 34.400 C 308.400 34.180,308.080 34.000,307.688 34.000 C 307.297 34.000,306.717 33.640,306.400 33.200 C 306.083 32.760,305.543 32.400,305.200 32.400 C 304.857 32.400,304.317 32.040,304.000 31.600 C 303.683 31.160,303.103 30.800,302.712 30.800 C 302.320 30.800,302.000 30.620,302.000 30.400 C 302.000 30.180,301.640 30.000,301.200 30.000 C 300.760 30.000,300.400 29.820,300.400 29.600 C 300.400 29.380,300.080 29.200,299.688 29.200 C 299.297 29.200,298.717 28.840,298.400 28.400 C 298.083 27.960,297.503 27.600,297.112 27.600 C 296.720 27.600,296.400 27.420,296.400 27.200 C 296.400 26.980,296.040 26.800,295.600 26.800 C 295.160 26.800,294.800 26.620,294.800 26.400 C 294.800 26.180,294.440 26.000,294.000 26.000 C 293.560 26.000,293.200 25.820,293.200 25.600 C 293.200 25.380,292.840 25.200,292.400 25.200 C 291.960 25.200,291.600 25.020,291.600 24.800 C 291.600 24.580,291.240 24.400,290.800 24.400 C 290.360 24.400,290.000 24.220,290.000 24.000 C 290.000 23.780,289.640 23.600,289.200 23.600 C 288.760 23.600,288.400 23.420,288.400 23.200 C 288.400 22.980,288.040 22.800,287.600 22.800 C 287.160 22.800,286.800 22.620,286.800 22.400 C 286.800 22.180,286.440 22.000,286.000 22.000 C 285.560 22.000,285.200 21.820,285.200 21.600 C 285.200 21.380,284.840 21.200,284.400 21.200 C 283.960 21.200,283.600 21.020,283.600 20.800 C 283.600 20.580,283.251 20.400,282.824 20.400 C 282.397 20.400,281.936 20.220,281.800 20.000 C 281.664 19.780,281.113 19.600,280.576 19.600 C 280.039 19.600,279.600 19.420,279.600 19.200 C 279.600 18.980,279.240 18.800,278.800 18.800 C 278.360 18.800,278.000 18.620,278.000 18.400 C 278.000 18.180,277.460 18.000,276.800 18.000 C 276.140 18.000,275.600 17.820,275.600 17.600 C 275.600 17.380,275.240 17.200,274.800 17.200 C 274.360 17.200,274.000 17.020,274.000 16.800 C 274.000 16.580,273.460 16.400,272.800 16.400 C 272.140 16.400,271.600 16.220,271.600 16.000 C 271.600 15.780,271.251 15.600,270.824 15.600 C 270.397 15.600,269.936 15.420,269.800 15.200 C 269.664 14.980,269.113 14.800,268.576 14.800 C 268.039 14.800,267.600 14.620,267.600 14.400 C 267.600 14.180,267.060 14.000,266.400 14.000 C 265.740 14.000,265.200 13.820,265.200 13.600 C 265.200 13.380,264.660 13.200,264.000 13.200 C 263.340 13.200,262.800 13.020,262.800 12.800 C 262.800 12.580,262.260 12.400,261.600 12.400 C 260.940 12.400,260.400 12.220,260.400 12.000 C 260.400 11.780,259.781 11.600,259.024 11.600 C 258.267 11.600,257.536 11.420,257.400 11.200 C 257.264 10.980,256.623 10.800,255.976 10.800 C 255.329 10.800,254.800 10.620,254.800 10.400 C 254.800 10.180,254.080 10.000,253.200 10.000 C 252.320 10.000,251.600 9.820,251.600 9.600 C 251.600 9.380,250.880 9.200,250.000 9.200 C 249.120 9.200,248.400 9.020,248.400 8.800 C 248.400 8.580,247.680 8.400,246.800 8.400 C 245.920 8.400,245.200 8.220,245.200 8.000 C 245.200 7.780,244.300 7.600,243.200 7.600 C 242.100 7.600,241.200 7.420,241.200 7.200 C 241.200 6.980,240.300 6.800,239.200 6.800 C 238.100 6.800,237.200 6.620,237.200 6.400 C 237.200 6.178,236.133 6.000,234.800 6.000 C 233.467 6.000,232.400 5.822,232.400 5.600 C 232.400 5.371,231.200 5.200,229.600 5.200 C 228.000 5.200,226.800 5.029,226.800 4.800 C 226.800 4.563,225.341 4.400,223.224 4.400 C 221.257 4.400,219.536 4.220,219.400 4.000 C 219.061 3.451,183.339 3.451,183.000 4.000 M240.108 74.800 L 262.417 74.800 268.039 80.079 C 271.131 82.982,273.917 85.853,274.230 86.459 C 275.010 87.966,275.096 309.918,274.319 312.513 C 273.877 313.986,266.509 322.794,264.945 323.718 C 264.649 323.893,246.000 324.200,223.503 324.401 C 201.007 324.602,172.340 324.892,159.800 325.045 L 137.000 325.324 135.442 323.562 C 134.585 322.593,132.690 320.540,131.231 319.000 C 129.771 317.460,127.547 315.044,126.289 313.632 L 124.000 311.064 124.020 199.432 L 124.040 87.800 130.520 81.050 L 137.000 74.300 177.400 74.550 C 199.620 74.687,227.839 74.800,240.108 74.800 M150.799 101.600 C 150.654 149.412,150.890 298.250,151.111 298.471 C 151.330 298.690,235.022 298.978,248.700 298.806 C 249.099 298.801,249.200 278.770,249.200 200.000 L 249.200 101.200 200.000 101.200 C 167.467 101.200,150.800 101.336,150.799 101.600 M207.487 136.748 C 209.955 136.909,212.115 137.182,212.287 137.355 C 212.459 137.528,212.600 143.407,212.600 150.420 L 212.600 163.172 213.516 164.086 L 214.432 165.000 225.749 164.878 C 235.164 164.777,237.146 164.853,237.539 165.327 C 237.885 165.743,237.984 169.008,237.906 177.448 L 237.800 189.000 229.200 189.286 C 224.470 189.444,207.640 189.624,191.800 189.686 L 163.000 189.800 162.800 178.800 C 162.690 172.750,162.731 167.395,162.890 166.900 L 163.180 166.000 174.421 166.000 L 185.662 166.000 186.831 164.831 L 188.000 163.662 188.000 150.511 C 188.000 140.816,188.126 137.234,188.480 136.880 C 189.027 136.333,199.962 136.258,207.487 136.748 M237.456 210.706 C 238.015 211.066,238.600 234.324,238.070 235.124 C 237.797 235.536,235.367 235.640,226.663 235.613 C 211.081 235.564,212.400 234.138,212.400 251.036 L 212.400 263.220 211.374 263.610 C 210.286 264.024,190.812 264.153,189.334 263.757 C 188.112 263.429,188.077 263.114,187.801 250.200 C 187.665 243.820,187.468 238.183,187.363 237.674 C 186.972 235.781,185.241 235.516,174.131 235.649 C 167.999 235.722,163.869 235.618,163.653 235.385 C 163.161 234.855,162.754 212.573,163.214 211.363 L 163.580 210.400 200.290 210.406 C 220.481 210.409,237.205 210.544,237.456 210.706 M383.958 274.149 C 384.569 274.886,384.163 275.818,383.197 275.890 C 382.225 275.963,381.872 275.434,382.201 274.396 C 382.494 273.473,383.302 273.359,383.958 274.149 M366.832 308.362 C 366.299 308.771,365.800 309.523,365.722 310.032 C 365.644 310.541,365.315 311.252,364.990 311.611 C 364.293 312.381,364.217 313.200,364.843 313.200 C 365.086 313.200,365.186 312.939,365.063 312.620 C 364.915 312.233,365.033 312.115,365.420 312.263 C 365.800 312.409,366.000 312.226,366.000 311.731 C 366.000 311.316,366.360 310.717,366.800 310.400 C 367.240 310.083,367.600 309.503,367.600 309.112 C 367.600 308.720,367.780 308.400,368.000 308.400 C 368.220 308.400,368.400 308.220,368.400 308.000 C 368.400 307.413,367.923 307.523,366.832 308.362 M345.280 335.280 C 345.055 335.505,344.650 335.617,344.381 335.527 C 344.041 335.414,344.117 335.141,344.629 334.629 C 345.141 334.117,345.414 334.041,345.527 334.381 C 345.617 334.650,345.505 335.055,345.280 335.280 M344.032 336.561 C 343.675 336.992,343.686 337.162,344.082 337.294 C 344.416 337.405,344.280 337.636,343.699 337.947 C 343.205 338.212,342.800 338.685,342.800 339.000 C 342.800 339.315,342.395 339.780,341.900 340.034 C 340.964 340.514,340.675 340.760,337.448 343.810 C 334.062 347.012,334.024 345.362,337.405 341.945 C 342.262 337.036,342.583 336.738,343.400 336.391 C 344.516 335.916,344.558 335.928,344.032 336.561 M316.000 360.751 C 316.000 361.480,314.907 362.055,314.674 361.449 C 314.554 361.135,314.563 360.771,314.694 360.639 C 315.059 360.274,316.000 360.355,316.000 360.751 M309.600 365.400 C 309.600 366.133,309.387 366.400,308.800 366.400 C 307.392 366.400,307.853 364.584,309.300 364.432 C 309.465 364.414,309.600 364.850,309.600 365.400 M280.400 381.400 C 280.400 382.194,280.198 382.400,279.424 382.400 C 278.322 382.400,277.822 381.842,278.152 380.981 C 278.561 379.916,280.400 380.259,280.400 381.400 M130.957 385.031 C 131.187 385.632,130.516 385.773,129.423 385.353 C 128.939 385.168,128.889 384.975,129.219 384.577 C 129.727 383.965,130.639 384.203,130.957 385.031 M265.528 387.131 C 265.623 387.777,265.449 388.000,264.851 388.000 C 263.799 388.000,263.405 387.317,264.026 386.569 C 264.675 385.787,265.368 386.046,265.528 387.131 M237.382 394.771 C 237.508 394.975,237.235 395.262,236.776 395.408 C 235.826 395.709,235.394 395.456,235.784 394.827 C 236.108 394.302,237.071 394.268,237.382 394.771 " stroke="none" fill="#2bbbe4" fill-rule="evenodd"></path><path id="path2" d="M136.841 76.040 C 136.269 76.393,134.912 77.653,133.827 78.840 C 132.741 80.028,130.356 82.567,128.527 84.482 L 125.200 87.965 125.200 199.580 L 125.200 311.195 127.972 314.297 C 129.496 316.004,132.241 318.959,134.072 320.863 L 137.400 324.327 160.200 324.166 C 238.271 323.616,264.145 323.143,265.153 322.247 C 265.677 321.781,267.792 319.542,269.853 317.270 L 273.600 313.140 273.600 199.804 L 273.600 86.468 268.171 81.334 C 265.184 78.510,262.422 76.081,262.032 75.936 C 260.253 75.272,137.923 75.375,136.841 76.040 M247.117 76.266 L 262.435 76.531 267.817 81.704 L 273.200 86.877 273.200 199.842 L 273.200 312.807 270.044 316.303 C 268.308 318.227,266.193 320.452,265.344 321.249 L 263.800 322.698 225.400 323.157 C 204.280 323.410,175.809 323.613,162.131 323.608 L 137.261 323.600 131.631 317.591 L 126.000 311.581 126.000 199.782 L 126.000 87.983 131.295 82.343 C 134.208 79.242,136.953 76.557,137.395 76.377 C 138.368 75.982,225.592 75.894,247.117 76.266 M150.085 100.505 L 149.169 101.000 149.186 199.977 C 149.199 272.186,149.324 299.029,149.648 299.230 C 150.241 299.596,198.884 300.086,218.800 299.927 C 229.362 299.842,220.609 299.686,192.400 299.456 C 169.190 299.267,150.065 299.031,149.900 298.932 C 149.252 298.544,149.546 101.196,150.195 100.946 C 150.523 100.821,173.068 100.691,200.295 100.659 L 249.800 100.600 249.901 199.976 C 249.981 279.213,249.900 299.416,249.501 299.670 C 249.225 299.845,247.110 300.028,244.800 300.076 L 240.600 300.165 244.200 300.304 C 246.180 300.380,248.385 300.335,249.101 300.203 L 250.402 299.963 250.301 200.082 L 250.200 100.200 200.600 100.105 C 161.801 100.031,150.801 100.118,150.085 100.505 M189.214 138.374 C 188.954 138.860,188.800 143.781,188.800 151.600 C 188.800 168.222,190.144 166.800,174.440 166.800 C 163.685 166.800,163.653 166.803,163.375 167.678 C 163.034 168.755,163.560 188.486,163.941 188.887 C 164.091 189.045,180.591 189.045,200.607 188.887 L 237.000 188.600 237.112 178.200 C 237.174 172.480,237.126 167.395,237.005 166.900 L 236.785 166.000 225.611 166.000 C 210.209 166.000,211.600 167.536,211.600 150.530 L 211.600 138.380 210.574 137.990 C 208.405 137.165,189.681 137.502,189.214 138.374 M210.322 138.743 C 210.730 139.002,210.860 141.871,210.922 151.972 L 211.000 164.869 212.122 165.835 L 213.245 166.800 224.780 166.800 C 234.929 166.800,236.344 166.876,236.557 167.433 C 237.113 168.881,236.823 187.906,236.242 188.129 C 235.183 188.535,164.781 188.541,164.375 188.135 C 164.138 187.898,164.028 183.778,164.093 177.573 L 164.200 167.400 175.600 167.197 C 191.079 166.920,189.600 168.580,189.600 151.487 C 189.600 144.582,189.720 138.813,189.867 138.667 C 190.255 138.279,209.704 138.351,210.322 138.743 M164.500 211.440 C 163.496 211.895,163.810 234.686,164.824 235.008 C 165.278 235.152,170.003 235.141,175.324 234.985 C 189.839 234.557,188.800 233.400,188.800 249.997 C 188.800 260.324,188.885 262.028,189.429 262.571 C 190.371 263.514,210.029 263.514,210.971 262.571 C 211.515 262.028,211.600 260.324,211.600 249.997 C 211.600 233.350,210.462 234.565,225.648 234.994 C 233.052 235.203,236.133 235.157,236.748 234.828 C 237.624 234.359,238.127 213.429,237.294 212.148 C 236.985 211.674,165.518 210.979,164.500 211.440 M236.618 212.430 C 237.015 213.071,236.940 233.620,236.540 234.020 C 236.350 234.210,230.936 234.417,224.508 234.482 C 209.305 234.635,211.057 232.741,210.800 249.310 L 210.600 262.200 201.000 262.400 C 195.720 262.510,190.995 262.469,190.500 262.310 L 189.600 262.020 189.600 249.432 L 189.600 236.845 188.635 235.722 L 187.671 234.600 176.135 234.400 L 164.600 234.200 164.493 223.428 C 164.411 215.076,164.501 212.583,164.893 212.334 C 165.701 211.821,236.301 211.916,236.618 212.430 " stroke="none" fill="#aee3f4" fill-rule="evenodd"></path><path id="path3" d="M131.117 81.234 L 124.781 87.800 124.788 199.556 L 124.796 311.312 126.171 312.956 C 126.928 313.860,129.764 316.899,132.473 319.708 L 137.400 324.817 170.200 324.451 L 203.000 324.086 170.064 324.143 L 137.129 324.200 133.948 320.800 C 132.199 318.930,129.515 316.004,127.984 314.297 L 125.200 311.195 125.200 199.580 L 125.200 87.965 128.523 84.482 C 130.351 82.567,132.821 79.950,134.014 78.666 C 135.206 77.382,136.545 76.134,136.991 75.893 C 137.885 75.408,260.727 75.449,262.029 75.935 C 262.421 76.081,265.184 78.510,268.171 81.334 L 273.600 86.468 273.600 199.802 L 273.600 313.136 271.527 315.468 C 270.387 316.750,268.276 319.015,266.838 320.500 L 264.221 323.200 252.211 323.256 C 245.605 323.287,233.450 323.447,225.200 323.610 C 214.113 323.829,217.234 323.862,237.162 323.735 C 252.849 323.634,264.417 323.405,264.825 323.186 C 265.212 322.980,267.434 320.648,269.764 318.004 L 274.000 313.197 274.001 291.899 C 274.001 280.184,274.007 229.650,274.013 179.600 C 274.020 129.550,274.020 88.096,274.013 87.481 C 274.000 86.378,269.639 81.806,263.876 76.854 L 261.951 75.200 227.676 75.200 C 208.824 75.200,180.812 75.080,165.426 74.933 L 137.453 74.667 131.117 81.234 M212.200 100.796 L 249.400 101.000 249.501 200.100 L 249.602 299.200 248.701 299.208 C 248.205 299.212,235.110 299.241,219.600 299.271 L 191.400 299.327 219.800 299.652 C 235.420 299.831,248.605 299.889,249.101 299.781 L 250.002 299.584 249.901 200.092 L 249.800 100.600 212.400 100.596 L 175.000 100.592 212.200 100.796 M149.785 101.300 C 149.680 101.575,149.641 146.170,149.698 200.400 L 149.800 299.000 164.800 299.010 L 179.800 299.020 165.000 298.810 L 150.200 298.600 150.144 199.921 C 150.093 108.778,150.138 101.228,150.744 101.067 C 151.305 100.918,151.297 100.886,150.687 100.846 C 150.296 100.821,149.889 101.025,149.785 101.300 M189.029 137.429 C 188.483 137.974,188.400 139.754,188.400 150.855 C 188.400 167.919,189.784 166.400,174.238 166.400 L 163.236 166.400 162.983 167.748 C 162.844 168.489,162.812 169.524,162.911 170.048 C 163.037 170.716,163.107 170.562,163.146 169.533 C 163.254 166.622,162.518 166.800,174.456 166.800 C 190.141 166.800,188.800 168.221,188.800 151.600 C 188.800 143.781,188.954 138.860,189.214 138.374 C 189.681 137.502,208.405 137.165,210.574 137.990 L 211.600 138.380 211.600 150.530 C 211.600 167.536,210.209 166.000,225.611 166.000 L 236.785 166.000 237.008 166.900 C 237.131 167.395,237.179 172.525,237.116 178.300 C 237.052 184.075,237.138 188.800,237.306 188.800 C 237.475 188.800,237.565 183.625,237.506 177.300 L 237.400 165.800 225.710 165.600 C 210.486 165.340,212.219 167.234,212.133 150.755 C 212.097 143.703,211.948 137.815,211.802 137.669 C 211.495 137.362,201.587 136.882,194.529 136.834 C 190.601 136.807,189.535 136.922,189.029 137.429 M163.281 184.113 C 163.214 188.318,163.305 189.266,163.794 189.453 C 164.121 189.578,179.286 189.500,197.494 189.278 L 230.600 188.874 197.200 188.937 L 163.800 189.000 163.581 184.000 L 163.362 179.000 163.281 184.113 M163.761 211.263 C 163.295 212.016,163.591 234.508,164.075 235.090 C 164.308 235.371,164.971 235.584,165.549 235.564 C 166.531 235.530,166.515 235.503,165.300 235.152 L 164.000 234.777 164.000 223.216 C 164.000 211.732,164.006 211.652,164.861 211.381 C 166.396 210.894,236.963 211.642,237.294 212.149 C 237.483 212.440,237.590 212.366,237.594 211.943 C 237.597 211.581,237.315 211.176,236.967 211.043 C 235.694 210.554,164.066 210.769,163.761 211.263 M237.693 214.000 C 237.693 214.770,237.775 215.085,237.876 214.700 C 237.976 214.315,237.976 213.685,237.876 213.300 C 237.775 212.915,237.693 213.230,237.693 214.000 M237.691 226.280 C 237.610 233.496,237.525 234.404,236.900 234.768 C 236.241 235.152,236.241 235.176,236.892 235.188 C 237.924 235.206,238.039 234.137,237.904 225.800 L 237.781 218.200 237.691 226.280 M180.000 235.175 C 188.687 235.512,187.866 233.998,188.287 250.467 C 188.459 257.214,188.750 262.884,188.933 263.067 C 189.433 263.568,209.643 263.716,210.925 263.228 L 212.000 262.820 212.000 250.636 C 212.000 234.558,211.477 235.521,220.400 235.175 L 226.200 234.949 220.687 234.875 C 211.195 234.746,211.600 234.073,211.600 249.997 C 211.600 260.324,211.515 262.028,210.971 262.571 C 210.029 263.514,190.371 263.514,189.429 262.571 C 188.885 262.028,188.800 260.324,188.800 249.997 C 188.800 234.073,189.205 234.746,179.713 234.875 L 174.200 234.949 180.000 235.175 " stroke="none" fill="#7dd4f0" fill-rule="evenodd"></path><path id="path4" d="M130.520 81.050 L 124.040 87.800 124.020 199.432 L 124.000 311.064 126.289 313.632 C 127.547 315.044,129.767 317.460,131.222 319.000 C 132.676 320.540,134.579 322.584,135.451 323.543 L 137.036 325.286 167.618 324.879 L 198.200 324.473 167.732 324.631 L 137.265 324.789 131.865 319.090 C 128.895 315.956,126.090 312.913,125.631 312.330 L 124.796 311.268 124.788 199.534 L 124.781 87.800 131.117 81.234 L 137.453 74.667 165.426 74.933 C 180.812 75.080,208.824 75.200,227.676 75.200 L 261.951 75.200 263.876 76.854 C 269.639 81.807,274.000 86.378,274.013 87.481 C 274.019 88.096,274.031 139.090,274.039 200.800 C 274.047 264.188,274.203 312.652,274.398 312.200 C 275.052 310.686,274.887 87.728,274.230 86.459 C 273.917 85.853,271.131 82.982,268.039 80.079 L 262.417 74.800 240.108 74.800 C 227.839 74.800,199.620 74.687,177.400 74.550 L 137.000 74.300 130.520 81.050 M200.100 101.099 L 249.200 101.203 249.200 199.968 C 249.200 278.606,249.098 298.774,248.700 298.935 C 248.402 299.055,248.483 299.150,248.901 299.168 C 249.567 299.198,249.597 294.306,249.501 200.100 L 249.400 101.000 200.200 100.998 L 151.000 100.995 200.100 101.099 M150.144 199.867 C 150.192 283.681,150.284 298.561,150.756 298.718 C 151.070 298.823,151.199 298.723,151.053 298.486 C 150.911 298.256,150.795 253.773,150.795 199.634 C 150.795 142.914,150.645 101.200,150.442 101.200 C 150.238 101.200,150.112 142.969,150.144 199.867 M188.480 136.880 C 188.126 137.234,188.000 140.816,188.000 150.511 L 188.000 163.662 186.831 164.831 L 185.662 166.000 174.421 166.000 L 163.180 166.000 162.777 167.061 C 162.555 167.644,162.443 168.319,162.527 168.561 C 162.611 168.802,162.811 168.415,162.972 167.700 L 163.264 166.400 174.252 166.400 C 189.782 166.400,188.400 167.918,188.400 150.855 C 188.400 135.407,187.797 136.787,194.529 136.834 C 201.587 136.882,211.495 137.362,211.802 137.669 C 211.948 137.815,212.097 143.703,212.133 150.755 C 212.219 167.234,210.486 165.340,225.710 165.600 L 237.400 165.800 237.506 177.285 L 237.612 188.770 234.005 188.909 L 230.398 189.048 234.099 189.024 L 237.800 189.000 237.906 177.448 C 237.984 169.008,237.885 165.743,237.539 165.327 C 237.146 164.853,235.164 164.777,225.749 164.878 L 214.432 165.000 213.516 164.086 L 212.600 163.172 212.600 150.420 C 212.600 143.407,212.459 137.528,212.287 137.355 C 211.419 136.483,189.318 136.042,188.480 136.880 M162.985 180.200 L 163.000 189.800 177.800 189.895 C 185.940 189.947,199.890 189.830,208.800 189.636 C 223.924 189.305,222.955 189.286,194.200 189.341 L 163.400 189.400 163.185 180.000 L 162.970 170.600 162.985 180.200 M163.214 211.363 C 162.754 212.573,163.161 234.855,163.653 235.385 C 163.869 235.618,167.999 235.722,174.131 235.649 C 185.241 235.516,186.972 235.781,187.363 237.674 C 187.468 238.183,187.665 243.820,187.801 250.200 C 188.077 263.114,188.112 263.429,189.334 263.757 C 190.812 264.153,210.286 264.024,211.374 263.610 L 212.400 263.220 212.400 251.036 C 212.400 234.138,211.081 235.564,226.663 235.613 C 239.600 235.654,238.415 236.225,238.310 230.000 L 238.233 225.400 238.117 229.400 C 238.054 231.600,237.908 233.805,237.793 234.300 L 237.585 235.200 226.580 235.200 C 210.663 235.200,212.000 233.785,212.000 250.636 L 212.000 262.820 210.925 263.228 C 209.643 263.716,189.433 263.568,188.933 263.067 C 188.750 262.884,188.459 257.214,188.287 250.467 C 188.114 243.720,187.883 237.783,187.772 237.274 C 187.364 235.389,185.648 235.126,174.530 235.242 C 168.620 235.303,164.233 235.191,164.018 234.974 C 163.584 234.535,163.339 211.945,163.761 211.263 C 164.086 210.737,236.245 210.583,237.054 211.106 C 237.303 211.268,237.597 211.760,237.707 212.200 C 237.866 212.834,237.917 212.781,237.954 211.943 C 238.024 210.350,239.256 210.400,200.157 210.400 L 163.580 210.400 163.214 211.363 M237.709 216.800 C 237.709 217.790,237.787 218.195,237.882 217.700 C 237.978 217.205,237.978 216.395,237.882 215.900 C 237.787 215.405,237.709 215.810,237.709 216.800 M394.473 235.687 C 393.840 236.320,393.876 237.278,394.567 238.223 C 395.117 238.974,395.142 238.967,395.366 238.000 C 395.789 236.168,395.289 234.871,394.473 235.687 M392.385 244.240 C 391.897 245.523,392.229 246.800,393.051 246.800 C 393.400 246.800,393.529 246.992,393.362 247.262 C 393.185 247.548,393.252 247.615,393.538 247.438 C 393.792 247.281,394.000 246.713,394.000 246.176 C 394.000 245.639,394.180 245.200,394.400 245.200 C 395.126 245.200,394.817 244.503,393.795 243.833 C 392.819 243.194,392.778 243.206,392.385 244.240 M390.451 250.909 C 389.769 251.591,389.901 253.476,390.651 253.764 C 392.188 254.354,393.082 251.818,391.651 250.925 C 391.095 250.578,390.786 250.574,390.451 250.909 M388.000 257.999 C 387.291 259.325,387.875 261.274,388.937 261.123 C 389.675 261.018,389.800 260.739,389.800 259.205 C 389.800 257.172,388.801 256.503,388.000 257.999 M386.571 263.506 C 385.200 264.445,385.787 266.944,387.327 266.724 C 388.344 266.580,388.757 264.712,387.980 263.776 C 387.444 263.129,387.191 263.081,386.571 263.506 M384.400 269.986 C 384.400 271.286,385.951 272.629,386.050 271.414 C 386.078 271.076,386.127 270.575,386.160 270.300 C 386.231 269.702,385.430 268.800,384.829 268.800 C 384.593 268.800,384.400 269.334,384.400 269.986 M382.201 274.396 C 381.872 275.434,382.225 275.963,383.197 275.890 C 384.163 275.818,384.569 274.886,383.958 274.149 C 383.302 273.359,382.494 273.473,382.201 274.396 M189.000 299.091 C 213.450 299.362,247.879 299.371,247.462 299.106 C 247.208 298.944,231.790 298.851,213.200 298.899 C 194.610 298.946,183.720 299.033,189.000 299.091 M366.487 306.100 C 366.261 306.375,366.014 306.960,365.938 307.400 C 365.862 307.840,365.395 308.528,364.900 308.929 C 364.405 309.330,364.000 309.911,364.000 310.220 C 364.000 310.529,363.563 311.068,363.030 311.417 C 362.139 312.001,360.906 314.400,361.497 314.400 C 361.638 314.400,361.404 314.683,360.976 315.030 C 360.549 315.376,360.425 315.545,360.700 315.406 C 360.975 315.267,361.200 315.343,361.200 315.576 C 361.200 315.809,361.556 315.644,361.991 315.209 C 362.426 314.774,363.038 314.516,363.350 314.636 C 363.663 314.756,364.055 314.634,364.221 314.365 C 364.430 314.027,364.350 313.975,363.962 314.197 C 363.507 314.456,363.496 314.414,363.900 313.979 C 364.175 313.682,364.400 313.175,364.400 312.851 C 364.400 312.528,364.680 311.954,365.021 311.576 C 365.363 311.199,365.673 310.485,365.711 309.991 C 365.752 309.441,366.359 308.709,367.279 308.101 C 368.536 307.268,368.714 306.986,368.375 306.354 C 367.911 305.486,367.083 305.375,366.487 306.100 M269.814 317.879 C 267.621 320.418,265.451 322.741,264.991 323.043 C 264.313 323.487,258.298 323.662,233.377 323.962 L 202.600 324.332 233.465 324.206 C 250.441 324.136,264.590 323.926,264.907 323.739 C 266.332 322.900,274.876 312.918,273.900 313.232 C 273.845 313.250,272.006 315.341,269.814 317.879 M344.629 334.629 C 344.117 335.141,344.041 335.414,344.381 335.527 C 344.650 335.617,345.055 335.505,345.280 335.280 C 345.505 335.055,345.617 334.650,345.527 334.381 C 345.414 334.041,345.141 334.117,344.629 334.629 M343.400 336.391 C 342.960 336.578,342.060 337.268,341.400 337.925 C 335.390 343.907,334.627 344.787,335.066 345.226 C 335.407 345.567,335.930 345.261,337.146 344.008 C 338.179 342.944,338.958 342.442,339.285 342.631 C 339.568 342.795,339.680 342.794,339.533 342.630 C 339.168 342.223,340.361 340.863,341.700 340.158 C 342.305 339.840,342.800 339.320,342.800 339.004 C 342.800 338.687,343.205 338.212,343.699 337.947 C 344.280 337.636,344.416 337.405,344.082 337.294 C 343.686 337.162,343.675 336.992,344.032 336.561 C 344.558 335.928,344.516 335.916,343.400 336.391 M314.694 360.639 C 314.563 360.771,314.554 361.135,314.674 361.449 C 314.907 362.055,316.000 361.480,316.000 360.751 C 316.000 360.355,315.059 360.274,314.694 360.639 M308.500 364.665 C 307.661 365.004,307.902 366.400,308.800 366.400 C 309.387 366.400,309.600 366.133,309.600 365.400 C 309.600 364.399,309.434 364.288,308.500 364.665 M278.152 380.981 C 277.822 381.842,278.322 382.400,279.424 382.400 C 280.198 382.400,280.400 382.194,280.400 381.400 C 280.400 380.259,278.561 379.916,278.152 380.981 M124.430 382.459 C 123.493 382.813,123.486 382.844,124.230 383.347 C 125.693 384.335,126.400 384.430,126.400 383.636 C 126.400 382.531,125.563 382.031,124.430 382.459 M273.680 382.480 C 272.992 383.168,273.080 383.574,274.100 384.404 C 275.164 385.269,276.550 384.479,276.102 383.262 C 275.643 382.015,274.510 381.650,273.680 382.480 M129.219 384.577 C 128.889 384.975,128.939 385.168,129.423 385.353 C 130.516 385.773,131.187 385.632,130.957 385.031 C 130.639 384.203,129.727 383.965,129.219 384.577 M268.986 384.423 C 268.245 385.621,269.167 386.770,270.502 386.313 C 272.053 385.782,272.506 385.210,271.928 384.513 C 271.414 383.894,269.352 383.831,268.986 384.423 M134.242 386.636 C 134.098 387.009,134.030 387.334,134.091 387.357 C 134.151 387.381,134.623 387.637,135.139 387.928 C 136.233 388.543,136.346 388.480,136.491 387.175 C 136.627 385.959,134.680 385.492,134.242 386.636 M264.026 386.569 C 263.405 387.317,263.799 388.000,264.851 388.000 C 265.449 388.000,265.623 387.777,265.528 387.131 C 265.368 386.046,264.675 385.787,264.026 386.569 M139.508 388.551 C 138.885 389.024,138.976 389.130,140.420 389.606 C 142.174 390.186,143.013 389.819,142.570 388.667 C 142.263 387.867,140.497 387.800,139.508 388.551 M257.380 388.832 C 256.886 389.632,258.792 390.811,259.683 390.257 C 260.087 390.006,260.368 389.530,260.306 389.200 C 260.167 388.461,257.794 388.163,257.380 388.832 M146.251 390.611 C 145.883 391.570,145.906 391.600,147.026 391.600 C 147.591 391.600,148.385 391.778,148.790 391.995 C 149.448 392.347,149.497 392.271,149.238 391.295 C 148.888 389.977,146.688 389.473,146.251 390.611 M251.486 390.248 C 250.444 391.290,251.874 392.935,253.005 391.996 C 253.465 391.614,253.729 391.610,254.172 391.977 C 254.655 392.377,254.698 392.275,254.446 391.326 C 254.150 390.209,252.225 389.508,251.486 390.248 M244.030 392.564 C 243.704 392.957,243.691 393.209,243.987 393.392 C 244.221 393.537,244.317 393.810,244.200 394.000 C 244.083 394.190,244.190 394.470,244.438 394.624 C 244.686 394.777,245.011 394.705,245.160 394.464 C 245.309 394.223,246.023 393.980,246.746 393.925 C 247.469 393.870,248.165 393.657,248.292 393.451 C 248.419 393.245,248.348 393.185,248.133 393.318 C 247.918 393.450,247.442 393.208,247.075 392.780 C 246.295 391.868,244.701 391.756,244.030 392.564 M152.800 392.830 C 152.800 393.034,153.124 393.200,153.520 393.200 C 153.916 393.200,154.456 393.416,154.720 393.680 C 155.090 394.050,155.309 394.051,155.673 393.687 C 155.934 393.426,156.037 393.104,155.903 392.970 C 155.491 392.558,152.800 392.437,152.800 392.830 M162.632 395.061 C 162.478 395.463,162.743 395.587,163.615 395.520 C 164.272 395.470,164.748 395.243,164.672 395.015 C 164.465 394.393,162.874 394.430,162.632 395.061 M235.784 394.827 C 235.394 395.456,235.826 395.709,236.776 395.408 C 237.235 395.262,237.508 394.975,237.382 394.771 C 237.071 394.268,236.108 394.302,235.784 394.827 " stroke="none" fill="#3ac4ee" fill-rule="evenodd"></path></g></svg>