<svg id="svg" version="1.1" xmlns="http://www.w3.org/2000/svg" xmlns:xlink="http://www.w3.org/1999/xlink" width="400" height="400" viewBox="0, 0, 400,400"><g id="svgg"><path id="path0" d="M97.578 112.323 C 95.680 112.925,94.220 115.244,94.568 117.101 C 94.782 118.237,184.892 302.015,186.223 304.028 C 191.906 312.623,203.792 313.818,211.014 306.519 C 212.882 304.631,213.186 304.133,216.124 298.159 C 219.335 291.628,224.704 280.688,230.693 268.472 C 232.566 264.653,235.739 258.184,237.743 254.097 C 239.748 250.010,243.014 243.354,245.000 239.306 C 246.986 235.257,250.236 228.632,252.222 224.583 C 254.208 220.535,257.458 213.910,259.444 209.861 C 261.431 205.813,264.681 199.188,266.667 195.139 C 268.653 191.090,271.918 184.434,273.924 180.347 C 279.505 168.971,284.443 158.903,288.195 151.250 C 290.068 147.431,293.442 140.556,295.694 135.972 C 306.918 113.129,306.327 114.679,304.450 112.986 C 302.879 111.570,296.613 111.947,295.192 113.543 C 294.811 113.971,247.619 209.440,230.224 244.972 C 227.920 249.678,227.565 250.239,225.736 252.062 C 218.947 258.826,207.728 258.204,201.986 250.745 C 201.097 249.590,162.050 171.026,137.315 120.623 C 134.177 114.229,133.771 113.541,132.726 112.850 L 131.581 112.092 114.966 112.085 C 105.828 112.081,98.003 112.188,97.578 112.323 " stroke="none" fill="#fcfcfc" fill-rule="evenodd"></path><path id="path1" d="M190.473 12.801 C 83.665 18.100,2.799 112.198,13.485 218.750 C 23.618 319.786,112.674 394.521,213.889 386.925 C 317.170 379.174,394.664 289.239,386.925 186.111 C 379.298 84.478,292.324 7.749,190.473 12.801 M132.726 112.850 C 133.771 113.541,134.177 114.229,137.315 120.623 C 162.050 171.026,201.097 249.590,201.986 250.745 C 207.728 258.204,218.947 258.826,225.736 252.062 C 227.565 250.239,227.920 249.678,230.224 244.972 C 247.619 209.440,294.811 113.971,295.192 113.543 C 296.613 111.947,302.879 111.570,304.450 112.986 C 306.327 114.679,306.918 113.129,295.694 135.972 C 293.442 140.556,290.068 147.431,288.195 151.250 C 284.443 158.903,279.505 168.971,273.924 180.347 C 271.918 184.434,268.653 191.090,266.667 195.139 C 264.681 199.188,261.431 205.813,259.444 209.861 C 257.458 213.910,254.208 220.535,252.222 224.583 C 250.236 228.632,246.986 235.257,245.000 239.306 C 243.014 243.354,239.748 250.010,237.743 254.097 C 235.739 258.184,232.566 264.653,230.693 268.472 C 224.704 280.688,219.335 291.628,216.124 298.159 C 213.186 304.133,212.882 304.631,211.014 306.519 C 203.792 313.818,191.906 312.623,186.223 304.028 C 184.892 302.015,94.782 118.237,94.568 117.101 C 94.220 115.244,95.680 112.925,97.578 112.323 C 98.003 112.188,105.828 112.081,114.966 112.085 L 131.581 112.092 132.726 112.850 " stroke="none" fill="#14bcfc" fill-rule="evenodd"></path><path id="path2" d="M190.903 12.704 C 191.628 12.761,192.816 12.761,193.542 12.704 C 194.267 12.647,193.674 12.600,192.222 12.600 C 190.771 12.600,190.177 12.647,190.903 12.704 M206.458 12.704 C 207.184 12.761,208.372 12.761,209.097 12.704 C 209.823 12.647,209.229 12.600,207.778 12.600 C 206.326 12.600,205.733 12.647,206.458 12.704 M186.181 12.977 C 186.601 13.040,187.288 13.040,187.708 12.977 C 188.128 12.913,187.785 12.861,186.944 12.861 C 186.104 12.861,185.760 12.913,186.181 12.977 M212.292 12.977 C 212.712 13.040,213.399 13.040,213.819 12.977 C 214.240 12.913,213.896 12.861,213.056 12.861 C 212.215 12.861,211.872 12.913,212.292 12.977 M182.708 13.252 C 183.052 13.318,183.615 13.318,183.958 13.252 C 184.302 13.185,184.021 13.131,183.333 13.131 C 182.646 13.131,182.365 13.185,182.708 13.252 M216.042 13.252 C 216.385 13.318,216.948 13.318,217.292 13.252 C 217.635 13.185,217.354 13.131,216.667 13.131 C 215.979 13.131,215.698 13.185,216.042 13.252 M179.934 13.530 C 180.279 13.596,180.779 13.594,181.045 13.524 C 181.310 13.455,181.028 13.400,180.417 13.403 C 179.806 13.406,179.588 13.463,179.934 13.530 M219.100 13.530 C 219.446 13.596,219.946 13.594,220.212 13.524 C 220.477 13.455,220.194 13.400,219.583 13.403 C 218.972 13.406,218.755 13.463,219.100 13.530 M116.042 32.100 C 114.705 32.782,113.611 33.402,113.611 33.478 C 113.611 33.602,118.583 31.201,118.866 30.940 C 119.271 30.566,118.140 31.031,116.042 32.100 M281.134 30.940 C 281.417 31.201,286.389 33.602,286.389 33.478 C 286.389 33.323,281.511 30.833,281.209 30.833 C 281.104 30.833,281.071 30.881,281.134 30.940 M72.899 62.014 L 72.083 62.917 72.986 62.101 C 73.828 61.340,74.017 61.111,73.802 61.111 C 73.754 61.111,73.348 61.517,72.899 62.014 M326.111 61.198 C 326.111 61.246,326.517 61.652,327.014 62.101 L 327.917 62.917 327.101 62.014 C 326.340 61.172,326.111 60.983,326.111 61.198 M67.076 67.569 L 65.139 69.583 67.153 67.646 C 69.023 65.847,69.294 65.556,69.090 65.556 C 69.047 65.556,68.141 66.462,67.076 67.569 M332.500 67.361 C 333.484 68.354,334.352 69.167,334.428 69.167 C 334.505 69.167,333.762 68.354,332.778 67.361 C 331.794 66.368,330.926 65.556,330.849 65.556 C 330.773 65.556,331.516 66.368,332.500 67.361 M61.788 73.125 L 60.972 74.028 61.875 73.212 C 62.717 72.451,62.905 72.222,62.691 72.222 C 62.643 72.222,62.237 72.628,61.788 73.125 M337.222 72.309 C 337.222 72.357,337.628 72.763,338.125 73.212 L 339.028 74.028 338.212 73.125 C 337.451 72.283,337.222 72.095,337.222 72.309 M32.069 116.140 C 31.370 117.531,30.843 118.714,30.898 118.768 C 30.952 118.822,31.584 117.684,32.302 116.239 C 33.020 114.794,33.547 113.611,33.473 113.611 C 33.399 113.611,32.767 114.749,32.069 116.140 M367.698 116.239 C 368.416 117.684,369.048 118.822,369.102 118.768 C 369.226 118.645,366.712 113.611,366.527 113.611 C 366.453 113.611,366.980 114.794,367.698 116.239 M13.403 180.417 C 13.406 181.028,13.463 181.245,13.530 180.900 C 13.596 180.554,13.594 180.054,13.524 179.788 C 13.455 179.523,13.400 179.806,13.403 180.417 M386.459 180.417 C 386.462 181.028,386.519 181.245,386.585 180.900 C 386.652 180.554,386.649 180.054,386.580 179.788 C 386.510 179.523,386.456 179.806,386.459 180.417 M13.131 183.333 C 13.131 184.021,13.185 184.302,13.252 183.958 C 13.318 183.615,13.318 183.052,13.252 182.708 C 13.185 182.365,13.131 182.646,13.131 183.333 M386.742 183.333 C 386.742 184.021,386.796 184.302,386.863 183.958 C 386.929 183.615,386.929 183.052,386.863 182.708 C 386.796 182.365,386.742 182.646,386.742 183.333 M12.861 186.944 C 12.861 187.785,12.913 188.128,12.977 187.708 C 13.040 187.288,13.040 186.601,12.977 186.181 C 12.913 185.760,12.861 186.104,12.861 186.944 M387.028 186.944 C 387.028 187.785,387.080 188.128,387.143 187.708 C 387.207 187.288,387.207 186.601,387.143 186.181 C 387.080 185.760,387.028 186.104,387.028 186.944 M12.600 192.222 C 12.600 193.674,12.647 194.267,12.704 193.542 C 12.761 192.816,12.761 191.628,12.704 190.903 C 12.647 190.177,12.600 190.771,12.600 192.222 M387.322 192.222 C 387.322 193.674,387.369 194.267,387.426 193.542 C 387.484 192.816,387.484 191.628,387.426 190.903 C 387.369 190.177,387.322 190.771,387.322 192.222 M12.600 207.778 C 12.600 209.229,12.647 209.823,12.704 209.097 C 12.761 208.372,12.761 207.184,12.704 206.458 C 12.647 205.733,12.600 206.326,12.600 207.778 M387.322 207.778 C 387.322 209.229,387.369 209.823,387.426 209.097 C 387.484 208.372,387.484 207.184,387.426 206.458 C 387.369 205.733,387.322 206.326,387.322 207.778 M12.861 213.056 C 12.861 213.896,12.913 214.240,12.977 213.819 C 13.040 213.399,13.040 212.712,12.977 212.292 C 12.913 211.872,12.861 212.215,12.861 213.056 M387.028 213.056 C 387.028 213.896,387.080 214.240,387.143 213.819 C 387.207 213.399,387.207 212.712,387.143 212.292 C 387.080 211.872,387.028 212.215,387.028 213.056 M13.131 216.667 C 13.131 217.354,13.185 217.635,13.252 217.292 C 13.318 216.948,13.318 216.385,13.252 216.042 C 13.185 215.698,13.131 215.979,13.131 216.667 M386.742 216.667 C 386.742 217.354,386.796 217.635,386.863 217.292 C 386.929 216.948,386.929 216.385,386.863 216.042 C 386.796 215.698,386.742 215.979,386.742 216.667 M13.403 219.583 C 13.406 220.194,13.463 220.412,13.530 220.066 C 13.596 219.721,13.594 219.221,13.524 218.955 C 13.455 218.690,13.400 218.972,13.403 219.583 M386.459 219.583 C 386.462 220.194,386.519 220.412,386.585 220.066 C 386.652 219.721,386.649 219.221,386.580 218.955 C 386.510 218.690,386.456 218.972,386.459 219.583 M30.833 281.209 C 30.833 281.511,33.323 286.389,33.478 286.389 C 33.602 286.389,31.201 281.417,30.940 281.134 C 30.881 281.071,30.833 281.104,30.833 281.209 M367.698 283.761 C 366.980 285.206,366.453 286.389,366.527 286.389 C 366.712 286.389,369.226 281.355,369.102 281.232 C 369.048 281.178,368.416 282.316,367.698 283.761 M61.111 326.198 C 61.111 326.246,61.517 326.652,62.014 327.101 L 62.917 327.917 62.101 327.014 C 61.340 326.172,61.111 325.983,61.111 326.198 M337.899 327.014 L 337.083 327.917 337.986 327.101 C 338.828 326.340,339.017 326.111,338.802 326.111 C 338.754 326.111,338.348 326.517,337.899 327.014 M67.222 332.639 C 68.206 333.632,69.074 334.444,69.151 334.444 C 69.227 334.444,68.484 333.632,67.500 332.639 C 66.516 331.646,65.648 330.833,65.572 330.833 C 65.495 330.833,66.238 331.646,67.222 332.639 M332.492 332.708 L 330.694 334.583 332.569 332.786 C 334.311 331.116,334.571 330.833,334.367 330.833 C 334.324 330.833,333.481 331.677,332.492 332.708 M72.222 337.309 C 72.222 337.357,72.628 337.763,73.125 338.212 L 74.028 339.028 73.212 338.125 C 72.451 337.283,72.222 337.095,72.222 337.309 M326.788 338.125 L 325.972 339.028 326.875 338.212 C 327.717 337.451,327.905 337.222,327.691 337.222 C 327.643 337.222,327.237 337.628,326.788 338.125 M113.611 366.527 C 113.611 366.712,118.645 369.226,118.768 369.102 C 118.822 369.048,117.684 368.416,116.239 367.698 C 114.794 366.980,113.611 366.453,113.611 366.527 M283.611 367.778 C 282.160 368.526,281.068 369.145,281.186 369.153 C 281.481 369.172,286.389 366.694,286.389 366.525 C 286.389 366.336,286.533 366.271,283.611 367.778 M179.934 386.585 C 180.279 386.652,180.779 386.649,181.045 386.580 C 181.310 386.510,181.028 386.456,180.417 386.459 C 179.806 386.462,179.588 386.519,179.934 386.585 M219.100 386.585 C 219.446 386.652,219.946 386.649,220.212 386.580 C 220.477 386.510,220.194 386.456,219.583 386.459 C 218.972 386.462,218.755 386.519,219.100 386.585 M182.708 386.863 C 183.052 386.929,183.615 386.929,183.958 386.863 C 184.302 386.796,184.021 386.742,183.333 386.742 C 182.646 386.742,182.365 386.796,182.708 386.863 M216.042 386.863 C 216.385 386.929,216.948 386.929,217.292 386.863 C 217.635 386.796,217.354 386.742,216.667 386.742 C 215.979 386.742,215.698 386.796,216.042 386.863 M186.181 387.143 C 186.601 387.207,187.288 387.207,187.708 387.143 C 188.128 387.080,187.785 387.028,186.944 387.028 C 186.104 387.028,185.760 387.080,186.181 387.143 M212.292 387.143 C 212.712 387.207,213.399 387.207,213.819 387.143 C 214.240 387.080,213.896 387.028,213.056 387.028 C 212.215 387.028,211.872 387.080,212.292 387.143 M190.903 387.426 C 191.628 387.484,192.816 387.484,193.542 387.426 C 194.267 387.369,193.674 387.322,192.222 387.322 C 190.771 387.322,190.177 387.369,190.903 387.426 M206.458 387.426 C 207.184 387.484,208.372 387.484,209.097 387.426 C 209.823 387.369,209.229 387.322,207.778 387.322 C 206.326 387.322,205.733 387.369,206.458 387.426 " stroke="none" fill="#1cbcfc" fill-rule="evenodd"></path><path id="path3" d="" stroke="none" fill="#100dcfc" fill-rule="evenodd"></path><path id="path4" d="" stroke="none" fill="#14e0fc" fill-rule="evenodd"></path></g></svg>