<svg width="124" height="124" viewBox="0 0 124 124" fill="none" xmlns="http://www.w3.org/2000/svg">
<path d="M62 124C96.2417 124 124 96.2417 124 62C124 27.7583 96.2417 0 62 0C27.7583 0 0 27.7583 0 62C0 96.2417 27.7583 124 62 124Z" fill="#186C9D"/>
<path d="M74.6364 91.0625L74.6402 91.0547C75.2377 91.0665 75.8342 91.0013 76.415 90.861C79.8095 90.0666 82.6809 87.1023 83.3629 83.9015L96.875 33.1545L86.1335 33.1002L77.2752 66.3013L53.3278 32.9879L53.3123 33.0034L53.3239 32.9646L49.3675 32.9375V32.9414C48.7691 32.9321 48.1718 32.9959 47.5889 33.1313C44.1982 33.9295 41.3269 36.8939 40.641 40.0907L27.125 90.8494L37.8704 90.8959L46.7247 57.6949L70.6723 91.0121H70.6839L74.6364 91.0625ZM49.0885 48.8482L50.9601 41.8345L74.9115 75.1556L73.0399 82.1694L49.0924 48.8444L49.0885 48.8482Z" fill="white"/>
</svg>
