<svg width="124" height="124" viewBox="0 0 124 124" fill="none" xmlns="http://www.w3.org/2000/svg">
<path d="M62 124C96.2417 124 124 96.2417 124 62C124 27.7583 96.2417 0 62 0C27.7583 0 0 27.7583 0 62C0 96.2417 27.7583 124 62 124Z" fill="#988430"/>
<path d="M62.0003 122.014C95.1452 122.014 122.014 95.1452 122.014 62.0003C122.014 28.8555 95.1452 1.98633 62.0003 1.98633C28.8555 1.98633 1.98633 28.8555 1.98633 62.0003C1.98633 95.1452 28.8555 122.014 62.0003 122.014Z" fill="#7A6A2A"/>
<path d="M61.9995 120.75C94.446 120.75 120.749 94.4465 120.749 62C120.749 29.5536 94.446 3.25049 61.9995 3.25049C29.5531 3.25049 3.25 29.5536 3.25 62C3.25 94.4465 29.5531 120.75 61.9995 120.75Z" fill="#BA9F33"/>
<path fill-rule="evenodd" clip-rule="evenodd" d="M27.1063 55.3784C26.7552 55.0577 26.3842 54.7363 26.0429 54.4155C25.7017 54.0948 25.3512 53.7734 25 53.4526L23.9564 52.4606C23.7858 52.29 23.6052 52.1399 23.4346 51.9686C23.264 51.8185 23.0636 51.6479 22.893 51.4971C21.5082 50.183 20.1154 48.8689 18.7497 47.5542C20.1643 48.8484 21.5492 50.1334 22.9637 51.4468L23.4551 51.9388C23.6257 52.1088 23.8063 52.2596 23.9769 52.4302L25.0198 53.3931C25.371 53.7139 25.7122 54.0353 26.0634 54.3851C26.4146 54.735 26.7558 55.057 27.107 55.3771L27.1063 55.3784ZM8.72722 55.18C8.72722 55.18 13.7633 55.7012 16.2215 56.0523C18.4984 56.3737 25.6216 57.4669 25.6216 57.4669L8.72722 55.18ZM8.72722 55.18C10.1418 55.3004 11.5564 55.4505 12.971 55.6013C13.6932 55.6714 14.3856 55.7514 15.078 55.8215L16.1408 55.9426C16.4919 55.9922 16.8332 56.0424 17.1844 56.0927L21.3984 56.7646L23.5047 57.1158C24.1971 57.2361 24.8895 57.3671 25.6117 57.4874C24.9193 57.4173 24.1971 57.3168 23.5047 57.2163L21.3984 56.9154L17.1844 56.2937C16.8332 56.2435 16.4919 56.1727 16.1408 56.1231L15.0773 56.0007C14.3849 55.9306 13.6628 55.8301 12.9703 55.7494C11.5557 55.5795 10.1412 55.3983 8.72656 55.178L8.72722 55.18ZM25.1204 58.779C25.1204 58.779 19.7431 60.144 17.927 60.6658C16.1414 61.1572 10.7337 62.8026 10.7337 62.8026L25.1197 58.7797L25.1204 58.779Z" fill="#CFB66C"/>
<path fill-rule="evenodd" clip-rule="evenodd" d="M25.121 58.7793C23.9273 59.1305 22.7402 59.4717 21.5293 59.7931L17.9376 60.756C16.7439 61.1072 15.5568 61.4484 14.3664 61.7996L12.5808 62.291C11.9889 62.4616 11.3871 62.6117 10.7754 62.783C11.3666 62.5846 11.9691 62.3816 12.561 62.2109L14.3466 61.6395C15.5403 61.2679 16.7274 60.9167 17.9178 60.5457C19.1313 60.2448 20.3257 59.9234 21.5393 59.6324C22.6926 59.3414 23.9068 59.0511 25.121 58.78V58.7793ZM11.4876 66.1134C12.0789 65.8925 18.9012 62.7129 20.4864 61.9702C21.28 61.5985 23.5867 60.7798 23.5867 60.7798L11.4876 66.1134Z" fill="#CFB66C"/>
<path fill-rule="evenodd" clip-rule="evenodd" d="M11.488 66.1133C12.0091 65.9148 12.5011 65.6721 13.0024 65.4413L14.4871 64.7489L17.4671 63.3145C18.4591 62.8429 19.4233 62.3225 20.4464 61.8794C20.9682 61.6591 21.49 61.4786 22.0111 61.308L22.8047 61.0573C23.0752 60.9872 23.3265 60.9065 23.5983 60.8364C22.6063 61.308 21.5621 61.7094 20.5687 62.1703C19.5767 62.6624 18.5622 63.0638 17.5385 63.5049L14.5089 64.8388C13.4918 65.2509 12.4998 65.692 11.4873 66.1133H11.488ZM12.1493 68.8909C12.1493 68.8909 18.3288 65.2694 20.4556 64.1054C21.5693 63.4838 25.171 61.6975 25.171 61.6975L12.1493 68.8909Z" fill="#CFB66C"/>
<path fill-rule="evenodd" clip-rule="evenodd" d="M12.1484 68.8919C13.1914 68.2497 14.2548 67.5976 15.3182 66.9357L16.9054 65.9721C17.447 65.6513 17.9688 65.3504 18.521 65.0297C19.0627 64.7083 19.5845 64.3875 20.136 64.0866C20.3986 63.9245 20.6737 63.7836 20.9587 63.6654L21.8012 63.2441C22.9149 62.7025 24.0286 62.1502 25.2025 61.6787C24.1391 62.3513 23.0452 62.9233 21.952 63.5146C21.4104 63.8155 20.8582 64.0866 20.3166 64.3875C19.7749 64.6884 19.2531 65.0098 18.7009 65.3008C18.1593 65.6216 17.6375 65.9225 17.0859 66.2135L15.4505 67.1063L12.1498 68.8919H12.1484ZM25.1198 62.4908C25.1198 62.4908 21.2775 65.4404 20.0335 66.3834C18.7895 67.3265 15.1277 69.9751 15.1277 69.9751L25.1198 62.4908Z" fill="#CFB66C"/>
<path fill-rule="evenodd" clip-rule="evenodd" d="M47.1722 86.2785L45.2061 82.5565L46.3495 77.9014L54.5057 74.7515L51.0344 67.6289L52.7499 60.4356L55.9706 53.9942L65.923 52.4295L73.236 45.457L89.0273 46.6507L92.1269 63.5352L86.1578 84.7938L82.7572 95.7997L68.9724 96.3215L62.572 91.8873L55.0778 88.7565L47.1722 86.2785Z" fill="#E2CC85"/>
<path fill-rule="evenodd" clip-rule="evenodd" d="M71.35 86.1573C71.35 86.1573 69.4434 87.0302 66.1916 86.8292C65.2505 85.5654 58.6597 84.9735 58.6597 84.9735C58.6597 84.9735 57.837 84.7228 56.3821 85.3247C54.9179 85.9199 53.533 85.8465 52.2388 86.1672C50.9446 86.4879 49.6596 84.8029 48.6676 84.4517C47.6756 84.0807 46.3602 83.1879 46.3602 83.1879L43.5826 82.9168L38.0049 80.5591L29.1438 71.731L26.7358 75.5006L25.9932 80.1656L28.6722 85.6937L35.8854 92.2647L49.9506 95.8359L58.2873 93.3797L68.7311 88.9653L71.35 86.1566V86.1573Z" fill="#F1D789"/>
<path fill-rule="evenodd" clip-rule="evenodd" d="M21.379 54.9578L23.1646 49.5507L25.2922 46.0589L32.1436 45.4868L30.0868 51.4864L24.359 61.6796L26.7365 70.7789L22.5232 72.8853L21.2283 70.8993L20.1853 66.3447L20.1152 61.2279L21.379 54.9578Z" fill="#F4ECB4"/>
<path fill-rule="evenodd" clip-rule="evenodd" d="M29.0628 85.7871L27.7487 83.9513C27.7487 83.9513 27.3976 83.0783 27.5986 82.3158C27.797 81.5434 27.7686 81.4931 27.6687 81.2021C27.5689 80.9111 26.7257 79.9079 26.7759 79.0448C26.8255 78.1719 26.7058 77.8809 27.3473 77.1891C28.0192 76.5172 27.8188 75.3533 27.8188 75.3533L28.6918 75.8949L28.8902 75.594C28.8902 75.594 29.2109 75.8446 29.2109 76.2362C29.281 75.6945 28.9901 73.1861 29.6521 72.6147C30.3141 72.0433 31.4879 75.2931 31.4879 75.2931L30.7657 70.5778L28.9094 65.7428L25.6087 61.3284L25.4103 56.4623V56.041C25.4103 56.041 23.8952 58.3689 23.4739 60.2074C23.173 61.4712 23.8952 63.0062 23.745 64.8222C23.624 66.6283 23.4739 66.4874 23.915 67.203C24.3561 67.9186 25.4301 69.39 25.0088 70.4535C24.6378 71.3668 23.3734 70.7246 23.3734 70.7246C23.3734 70.7246 23.1227 71.4666 22.7815 71.7378C22.6611 71.2967 22.5308 71.0156 22.2901 70.7458C22.2696 70.9164 22.22 71.1472 22.22 71.1472C22.22 71.1472 21.9991 70.4548 21.7782 69.5818C21.478 68.4185 21.1566 66.8836 20.8656 66.0609C20.7452 66.5324 20.4443 67.9668 20.4443 67.9668L20.615 70.1744L21.4377 73.2039L22.2313 75.1879L23.0037 77.6157L23.6749 79.2465L24.2166 80.4905L24.6881 83.2899L26.9651 85.6972L28.1793 86.2395L29.0615 85.7878L29.0628 85.7871Z" fill="#F3E19D"/>
<path fill-rule="evenodd" clip-rule="evenodd" d="M22.5724 50.5437C22.5724 50.5437 20.9369 53.3213 20.466 56.1214C19.9951 58.9215 19.5732 61.8803 19.8708 65.6922C20.1717 69.5353 20.7438 71.8923 21.2054 73.578C21.999 76.3774 24.0544 80.27 24.0544 80.27L24.1245 80.1192C23.779 79.4644 23.5033 78.775 23.3018 78.0625C23.0307 76.9991 22.9301 75.7353 22.6795 75.1632C22.4586 74.5918 22.0876 74.0998 21.9071 73.3974C21.7364 72.7255 21.7087 71.6621 21.1849 70.8698C20.964 70.5484 20.6928 69.7059 20.6128 68.8633C20.5123 67.5989 20.6631 66.1843 20.5427 65.021C20.3218 63.0846 20.1717 61.7705 20.3721 60.7567C20.5725 59.7429 21.6167 56.8647 22.2589 54.5772C22.6802 53.1123 22.4288 51.8783 23.2013 50.6039C23.9737 49.3401 24.4459 48.2264 24.6159 47.454C24.8143 46.7516 22.5697 50.5437 22.5697 50.5437H22.5724Z" fill="#F2E8B0"/>
<path fill-rule="evenodd" clip-rule="evenodd" d="M30.3287 49.4292C30.3287 49.4292 29.4862 49.6805 29.0847 50.1216C28.6833 50.5429 28.5127 50.8941 27.9711 51.6063C27.4294 52.3186 27.399 52.9005 26.9572 53.7933C26.5161 54.6663 25.5426 55.9804 25.4223 56.4519C25.3019 56.9234 25.1015 59.1303 24.8509 60.1739C24.63 61.2175 25.1015 62.5018 25.1015 62.5018L25.6729 62.3808C25.6729 62.3808 25.6729 63.1234 26.245 63.6254C26.8164 64.1168 26.9169 61.9595 26.9169 61.9595L29.0537 54.7463L32.2737 52.5593L32.6249 50.7935L30.3274 49.4292H30.3287Z" fill="#F5EEC0"/>
<path fill-rule="evenodd" clip-rule="evenodd" d="M31.8919 52.7008C31.8919 52.7008 30.3768 52.8007 29.6348 53.3429C29.3339 53.5632 29.2135 53.7437 28.8927 54.0149C28.3009 54.5062 27.6984 54.9579 27.408 55.6021C27.0866 56.2436 26.7355 57.217 26.4947 59.0529C26.3942 59.8253 26.3942 60.5376 26.3241 61.1599C26.2236 62.0024 26.0735 62.6744 26.1535 63.1439C26.254 64.1068 27.2473 64.6088 27.3439 65.7019L29.4007 64.659L31.337 57.0239L35.4505 54.4447L33.1226 51.8364L31.8893 52.6962L31.8919 52.7008Z" fill="#E6DB9D"/>
<path fill-rule="evenodd" clip-rule="evenodd" d="M21.0427 104.113C21.0512 104.038 21.0598 103.963 21.0684 103.885C21.3687 101.306 21.4196 99.3512 21.6398 98.1271C21.9606 96.3917 22.1815 95.7463 22.1312 95.0968C22.0611 94.0539 21.9811 93.2914 22.0816 92.4885C22.2317 91.4251 23.2753 90.1613 23.2456 89.2883C23.2251 88.5959 22.8739 88.1449 22.573 87.7236C22.2721 87.3024 22.0313 86.9512 22.0313 86.9512C22.0313 86.9512 24.0881 85.5366 24.0683 79.8379C24.1103 79.8497 24.1507 79.8666 24.1886 79.8882L25.2018 82.7669L25.8942 83.6095L28.5528 88.5655L31.9738 91.8867L37.0297 95.2873L40.2002 98.7375L40.5209 107.937L36.3777 113.315L35.6991 114.543C30.3084 111.837 25.3651 108.319 21.042 104.113L21.0427 104.113Z" fill="#E5CB7A"/>
<path fill-rule="evenodd" clip-rule="evenodd" d="M33.6982 112.914C33.6982 112.914 33.7683 111.771 34.7114 111.028C34.8622 111.279 34.962 111.52 34.9323 111.7C35.1029 111.4 36.2966 109.473 38.9955 108.971C41.6944 108.48 42.3465 106.514 42.3465 106.514L48.0743 101.307L54.6255 95.2779L62.5912 92.4784L66.3139 91.5651C66.3139 91.5651 66.384 91.8363 66.2438 92.4381C66.9355 92.3885 68.4705 92.0373 70.0656 91.4752C70.7078 91.2245 71.3103 91.124 71.631 91.4554C72.1025 91.8965 72.1726 92.94 72.2024 93.5617C72.9748 93.3911 73.8676 92.6491 74.5832 92.7192C75.7273 92.8395 76.7405 94.184 77.9044 94.184C79.4394 94.184 80.1311 93.241 81.2051 92.4983C81.8473 92.0572 82.7698 91.5063 83.2916 91.1339C84.5356 90.2206 97.6981 86.1978 97.6981 86.1978L102.313 86.4987L103.056 91.4547L102.659 104.41C102.61 104.457 102.561 104.506 102.511 104.553L81.5285 115.512L52.4431 119.971C45.9278 118.906 39.6405 116.744 33.849 113.575L33.7002 112.914L33.6982 112.914Z" fill="#D8C173"/>
<path fill-rule="evenodd" clip-rule="evenodd" d="M22.8066 105.761C23.22 104.897 23.5916 104.174 23.6571 103.916C23.7087 104.437 23.8033 105.58 23.9937 106.796C23.5938 106.456 23.1982 106.111 22.8066 105.761V105.761Z" fill="#F1D789"/>
<path fill-rule="evenodd" clip-rule="evenodd" d="M44.0515 117.954L47.8132 116.907L48.1339 117.008C48.1339 117.008 48.3045 117.109 48.3045 117.449C48.7761 117.179 49.1775 117.228 49.4685 117.048C49.6186 117.369 49.7687 118.433 50.4314 118.563C51.1231 118.714 51.8658 118.262 52.6184 117.69C53.3604 117.099 54.2056 116.356 54.8451 116.055C55.0798 116.486 55.2876 116.932 55.4674 117.389C56.31 116.717 57.7748 113.988 59.8613 114.038C60.4644 112.613 61.4719 111.396 62.7593 110.537C64.6957 109.223 65.9092 109.122 67.4243 109.243C68.0261 108.461 68.7676 107.798 69.6113 107.286C69.862 107.387 70.5544 107.808 71.4174 107.407C72.2904 107.006 73.2731 105.451 74.5674 105.25C75.2648 105.154 75.9739 105.303 76.5739 105.671C76.5739 105.671 80.3434 101.929 82.9445 100.685C82.8439 100.384 82.6436 99.2505 85.693 96.7421C85.8636 96.8929 85.7432 97.3141 85.8636 97.3373C85.9132 97.3373 86.6572 97.0165 87.5989 96.2937C88.7629 95.4214 90.157 94.5081 90.9995 94.2574C92.5867 93.7859 94.2705 94.7488 94.2705 94.7488C94.4136 94.6484 94.5732 94.5736 94.742 94.5279C95.1427 94.4578 95.4337 94.4076 95.6546 94.3295C95.6348 94.8513 95.9258 95.7441 95.6546 96.5166C95.9687 96.6932 96.3014 96.8345 96.6466 96.9378C96.4767 97.3088 96.105 98.2519 95.4833 98.7036C96.0045 98.9542 96.0746 99.2452 96.8172 99.4972C96.5163 99.9185 96.0236 100.641 95.8041 101.084C95.5832 101.556 94.7903 103.512 94.4391 104.254C94.0681 104.997 93.5668 106.361 93.3254 106.635C93.084 106.909 92.2117 108.069 91.5398 108.641C92.135 108.42 94.57 107.678 95.603 107.397C95.2955 107.848 93.7368 110.161 92.2382 112.385C85.063 116.685 77.0537 119.407 68.744 120.369C60.4342 121.331 52.0148 120.511 44.0469 117.964L44.0515 117.954Z" fill="#E0CD81"/>
<path fill-rule="evenodd" clip-rule="evenodd" d="M32.1407 52.4293C32.1407 52.4293 31.2684 52.4293 31.0978 52.5496C30.9272 52.67 31.9708 52.9213 32.2915 53.0417C32.6123 53.162 33.3047 53.7136 33.4852 54.1554C33.6559 54.5766 39.7553 57.0341 39.7553 57.0341L44.0692 56.8133L45.5565 54.7585L42.7274 52.2805L44.7114 46.4316L42.0832 46.8529L35.7629 50.6225L32.5924 51.8367L32.1407 52.4293Z" fill="#DFC57C"/>
<path fill-rule="evenodd" clip-rule="evenodd" d="M41.6138 54.3656C41.6762 54.4665 41.764 54.5493 41.8685 54.6056C41.9729 54.6619 42.0904 54.6898 42.209 54.6863C43.1018 54.6863 43.9239 54.9072 44.2651 55.3582C44.8372 56.0811 46.4224 58.3885 46.4224 58.3885L50.2145 59.7528L50.4591 55.2875L46.3159 52.4087L41.6006 54.144V54.3649H41.6112L41.6138 54.3656Z" fill="#E5CC7C"/>
<path fill-rule="evenodd" clip-rule="evenodd" d="M40.8698 56.0206C40.8698 56.0206 41.5616 56.0709 42.4346 55.7495C43.3075 55.4281 44.7419 54.7363 45.3643 55.0075C46.2366 55.3785 46.056 56.5424 46.9997 57.5867C47.5711 58.2288 48.6147 58.209 49.2066 58.9014C49.7985 59.5938 51.8347 59.2724 51.8347 59.2724L52.6072 63.4388L49.5075 67.4121L48.4937 72.3476H44.3022L40.473 70.8285L38.5869 66.2653L39.53 61.6506L40.8698 56.0206Z" fill="#D2C281"/>
<path fill-rule="evenodd" clip-rule="evenodd" d="M48.9789 56.2214C49.0829 56.2534 49.1909 56.2703 49.2997 56.2716C49.1793 56.3721 48.928 56.5924 49.0285 57.1644C49.129 57.7365 49.4498 58.4586 49.1793 58.8997C49.3952 59.1358 49.5563 59.4168 49.6508 59.7224C49.8215 60.2145 49.8717 60.6655 50.9847 60.7363C50.8241 60.8351 50.676 60.953 50.5436 61.0874C50.5436 61.0874 51.3161 61.7593 51.7076 62.381C52.1083 62.3638 53.1718 62.0331 53.1718 62.0331L53.3927 62.1839L53.8642 61.9855C53.8642 61.9855 53.4231 61.8149 53.7438 60.7415C54.0447 59.7985 54.3159 59.8487 54.339 59.7786C54.3622 59.7085 54.5599 58.7152 54.5599 58.3138C54.71 57.7927 54.8304 56.2075 54.8304 56.2075L54.5096 52.7064L52.7042 51.6125L51.2361 50.1953L49.8512 52.8036L48.9392 53.7129L48.8691 55.97L48.9789 56.2214Z" fill="#E2C270"/>
<path fill-rule="evenodd" clip-rule="evenodd" d="M53.3223 53.2917C53.3223 53.2917 53.643 54.2044 53.764 54.9067C53.8067 54.7702 53.8303 54.6284 53.8341 54.4854C53.8341 54.4854 54.0848 55.8703 54.1344 56.4423C54.2349 56.4218 54.3328 56.3921 54.3553 56.4919C54.3778 56.5918 54.6066 57.7061 54.5537 58.3278C54.9714 57.6386 55.5495 57.0605 56.2387 56.6427C56.6402 56.3914 57.1117 56.1209 57.6037 56.1004C58.3762 56.0806 58.9376 56.5924 59.8609 56.5924C62.0876 56.5924 64.1046 54.957 65.5893 54.4557C66.6825 54.084 67.6256 53.8135 68.2876 53.211C68.609 52.9406 69.181 52.3387 69.7022 51.4453C70.3946 50.2549 71.1168 49.2186 71.8396 49.0883C71.5126 49.1484 71.1798 49.1719 70.8476 49.1584C70.8476 49.1584 71.0685 48.9375 71.4428 48.6366C71.8171 48.3357 72.2655 47.9647 72.907 47.9647C74.0511 47.9647 74.6225 48.1346 75.2646 48.1346C75.9068 48.1148 76.2778 47.9647 76.2778 47.9647C76.2778 47.9647 76.9504 48.4362 78.4648 48.4362C79.9799 48.4561 80.9931 48.5863 81.7861 48.6571C82.579 48.7279 85.2369 48.4362 85.9994 48.4587C86.4965 48.4779 86.9847 48.5973 87.4345 48.8099L84.9763 41.6675L76.1462 33.9497L70.8893 37.6717L62.8025 45.7578L54.9776 48.6571L53.3421 50.493V53.2917H53.3223Z" fill="#CCB360"/>
<path fill-rule="evenodd" clip-rule="evenodd" d="M70.8792 49.1985C70.8792 49.1985 71.1001 48.9783 71.4704 48.6774C71.8408 48.3764 72.2938 48.0048 72.9353 48.0048C74.0787 48.0048 74.6508 48.1754 75.2929 48.1754C75.9351 48.1556 76.3061 48.0048 76.3061 48.0048C76.3061 48.0048 76.9793 48.4756 78.4931 48.4756C80.0082 48.4955 81.0214 48.6258 81.8143 48.6959C82.6072 48.766 85.2651 48.4757 86.0276 48.4975C86.5246 48.5162 87.0126 48.6357 87.4621 48.8486L86.3484 45.6279L85.0548 43.1704L81.3626 39.127C81.3626 39.127 76.9317 36.5187 76.898 36.4989C76.8781 36.4791 75.363 36.0776 75.363 36.0776L71.3501 38.5054L67.7088 47.9261L67.6387 49.9101L69.9957 51.0238C70.5875 50.0318 71.2403 49.2382 71.852 49.1376C71.2998 49.1978 70.8785 49.1978 70.8785 49.1978L70.8792 49.1985Z" fill="#D5B457"/>
<path fill-rule="evenodd" clip-rule="evenodd" d="M70.8288 49.8713C70.4777 49.8912 70.1873 49.8211 70.1066 49.5704C69.8057 48.7279 69.565 48.6075 69.3131 48.6075C69.0611 48.6075 68.7212 49.1491 68.5195 49.1987C68.3177 49.2483 68.0784 48.5771 68.0784 48.5771L67.8575 48.4766C67.8575 48.4766 66.5632 49.3191 65.6506 50.3124C64.738 51.3057 63.2427 52.9915 62.5708 53.2917C61.8989 53.592 59.5908 53.6932 58.8012 53.8638C58.0116 54.0344 57.136 54.6065 57.0156 54.7367C56.8953 54.867 57.3675 55.0072 57.4376 55.1375C57.5077 55.2579 56.6645 55.2076 56.5944 55.3359C56.5448 55.4364 56.7928 56.0078 56.9158 56.2988C57.131 56.1918 57.3672 56.1335 57.6075 56.1282C58.38 56.1083 58.9421 56.6202 59.8646 56.6202C62.092 56.6202 64.1084 54.9847 65.5931 54.4828C66.6869 54.1118 67.63 53.8406 68.292 53.2388C68.6127 52.9683 69.1848 52.3659 69.7065 51.4731C70.0875 50.8613 70.4591 50.2893 70.8308 49.868L70.8288 49.8713Z" fill="#D2B257"/>
<path fill-rule="evenodd" clip-rule="evenodd" d="M38.8862 99.5213C38.8862 99.5213 38.6878 98.7786 36.8493 96.8627C36.3275 96.3211 36.0068 95.8707 35.6556 95.5486C34.7826 94.7253 34.2708 94.505 33.6491 94.0335C32.2848 93.0203 30.8001 93.0203 29.6567 91.7764C28.5132 90.5324 27.1806 88.1555 26.2548 85.7265C25.3421 83.2987 25.0908 82.5263 25.0908 82.4562C25.0908 82.3861 25.3421 81.9145 25.6629 81.9846C25.9836 82.0547 25.9836 82.6764 26.0643 82.8272C26.2241 83.0733 26.4054 83.3048 26.6059 83.5189C27.0775 84.0612 27.7494 84.7093 28.0906 85.6762C28.0205 84.8535 27.7395 83.9409 27.7395 83.9409C27.7395 83.9409 29.5052 85.0545 31.0097 86.2178C32.5249 87.3818 33.1465 87.7832 33.5889 88.5252C34.0314 89.2672 35.0736 91.2241 35.5729 91.7962C36.0722 92.3683 42.9137 94.5249 42.9137 94.5249L46.1681 96.9513L47.7838 100.493L46.5193 102.477L44.0916 102.999L40.1487 101.233L38.8862 99.5206V99.5213Z" fill="#D2B159"/>
<path fill-rule="evenodd" clip-rule="evenodd" d="M30.126 87.322C30.126 87.322 30.9487 88.6361 32.9552 89.8801C34.7613 90.9739 37.6202 91.9672 40.169 92.5591C41.6332 92.9103 43.098 93.1808 44.4121 93.2013C47.9536 93.2509 50.3912 92.2384 53.4116 91.907C55.047 91.7364 57.0535 91.6061 59.14 91.1134C61.8184 90.4713 63.4037 89.7485 65.5609 88.7326C67.1256 88.0105 68.5607 87.4688 69.724 86.7764C71.3595 85.8135 72.5532 84.7402 73.938 84.4194C73.7674 84.891 73.5869 85.7335 72.2225 86.6065C72.9447 86.586 73.938 86.5364 73.938 86.5364C73.938 86.5364 72.9751 87.1078 71.2795 88.3921C70.2359 89.1857 68.8517 90.5288 67.4371 91.4216C66.5238 91.9937 65.5305 92.4136 64.8784 92.7562C63.2912 93.6292 62.6511 94.0703 61.6081 95.137C61.9791 95.1172 62.0096 95.137 62.0096 95.137C62.0096 95.137 60.6948 95.3076 59.7524 95.8089C59.554 95.8089 59.2101 95.7388 58.6083 95.9094C58.1368 96.0596 57.5145 96.4015 56.873 96.5814C55.9597 96.8525 55.6594 96.7321 55.6594 96.7321L55.8096 97.033C55.8096 97.033 54.6192 97.0125 54.2224 97.0529C54.2925 97.0727 54.2726 97.1031 54.2726 97.1031C54.2029 97.1148 54.1358 97.1385 54.0742 97.1732C53.8833 97.297 53.6732 97.3883 53.4526 97.4437C53.3322 97.4636 53.2317 97.4636 53.0809 97.494C53.1312 97.6144 53.5227 98.2876 53.7032 98.6844C53.5531 98.7849 51.2953 100.49 51.2953 100.49C51.3653 100.601 51.4226 100.719 51.4659 100.842C51.536 101.062 51.5664 101.383 51.6365 101.533C51.8065 101.834 51.907 101.885 51.907 101.885C51.907 101.885 51.6365 101.935 51.1643 102.055C50.7636 102.156 50.2715 102.326 49.5771 102.426C49.3641 102.454 49.1498 102.471 48.935 102.476C49.0355 102.697 49.4766 103.54 48.6638 104.513C47.8511 105.486 47.6004 105.627 47.3498 106.249C47.2236 106.153 47.0893 106.069 46.9483 105.997C46.6778 105.877 46.3062 105.697 46.1759 105.456C46.1 105.777 45.9994 106.093 45.875 106.399C45.6243 107.071 45.2533 107.733 45.1832 108.235C44.9121 107.934 44.4108 107.342 43.7184 107.462C43.026 107.583 42.4744 108.526 42.354 108.797C42.354 108.626 42.2337 108.496 42.2039 108.696C42.1834 108.917 41.8025 111.224 39.6756 113.09C39.6558 112.619 39.6558 111.575 39.6055 111.235C39.4071 111.433 39.1644 111.726 37.7194 112.348C36.3048 112.97 36.529 113.592 36.529 113.592C36.529 113.592 36.4087 112.6 37.1712 111.555C37.9436 110.512 38.4151 110.02 38.4151 109.94C38.4027 109.859 38.3679 109.782 38.3146 109.719C38.2141 109.619 38.0137 109.499 38.0137 109.418C38.1341 109.369 39.3278 108.797 39.2577 107.612C39.1876 106.55 38.7366 105.997 38.4151 105.607C38.3655 105.556 38.8873 105.185 38.8166 105.065C38.7663 104.995 38.1248 104.523 38.0441 104.271C38.0631 104.121 38.0968 103.974 38.1447 103.83C38.2148 103.609 38.265 103.459 38.2452 103.308C38.1949 103.058 37.9238 102.365 37.8437 102.295C37.9138 102.315 38.4151 102.295 38.4151 102.295C38.4151 102.295 38.0144 101.653 37.9436 101.352C37.8728 101.051 37.7227 100.258 37.6427 100.108C37.8133 100.128 38.2346 100.158 38.2346 100.108C38.2551 99.9575 37.8636 99.7068 38.0362 99.513C38.1566 99.5329 38.3874 99.6334 38.6076 99.9145C38.4872 99.5931 38.2868 98.9714 37.8649 98.7208C38.0633 98.6507 38.7379 98.4695 39.3298 98.8206C39.9217 99.1718 40.1234 99.6632 40.1234 99.6632C40.1234 99.6632 40.4745 99.9343 41.0168 100.336C41.6385 100.827 42.4308 101.526 43.6952 102.021C43.9664 102.172 44.6581 102.172 45.1601 102.071C45.3786 102.019 45.5882 101.935 45.7817 101.82C45.8516 101.779 45.9257 101.746 46.0026 101.72C45.8948 101.503 45.7708 101.295 45.6316 101.098C45.8022 101.098 46.0026 101.118 46.0026 101.118C46.0026 101.118 46.123 100.847 45.5814 100.325C45.7017 100.204 45.8525 100.126 45.8525 99.9231C45.6819 99.9032 45.381 99.6526 45.3109 99.5521C45.4107 99.482 45.5615 99.2512 45.7321 99.1811C45.5814 99.0607 45.2104 98.5587 45.0397 98.5091C45.2027 98.4486 45.3604 98.3748 45.5113 98.2883C45.5113 98.2883 44.6687 98.0674 44.3976 97.8868C44.1264 97.6884 43.7257 97.3452 43.4849 97.2447C43.2336 97.1442 42.7925 97.0945 42.612 96.8935C42.7819 96.9438 43.0531 96.8935 43.2541 96.8935C43.4042 96.8935 43.475 96.9133 43.5246 96.9133C43.5048 96.8432 43.5048 96.6925 43.8963 96.6429C44.0846 96.6145 44.2673 96.5569 44.4379 96.4722C44.4379 96.4722 44.0662 96.4524 43.6443 96.051C43.2224 95.6495 42.8719 95.3288 42.6311 95.2785C42.3805 95.2283 41.909 95.4491 41.618 95.4286C41.2166 95.379 41.0459 95.178 41.0459 95.178C41.0459 95.178 39.712 95.2984 36.7525 93.4929C34.1938 91.9275 33.0802 90.5434 33.0802 90.5434C32.8407 90.4565 32.6092 90.3489 32.3884 90.222C31.4255 89.7207 30.0909 88.6771 30.1313 87.3121L30.126 87.322Z" fill="#C2A44D"/>
<path fill-rule="evenodd" clip-rule="evenodd" d="M67.0356 27.1079C67.2677 27.1833 67.4739 27.3224 67.6308 27.5093C68.1023 28.0509 68.4032 29.074 67.3299 30.1679C67.7511 30.318 67.9251 30.3663 68.2928 30.318C67.9218 30.7598 67.0792 31.7028 67.029 32.5255C66.9787 33.1974 67.4 33.3985 67.4 33.3985C67.4 33.3985 66.7578 34.1405 66.7281 35.3825C67.0313 35.0405 67.3632 34.725 67.7201 34.4394C68.4627 33.8475 69.4858 33.1756 70.1782 32.7543C70.1688 32.9309 70.1926 33.1077 70.2483 33.2755C70.2483 33.2755 71.5419 32.212 72.6291 32.6842C73.1205 32.9051 72.8996 33.5969 72.8996 33.5969C72.8996 33.5969 73.5722 33.3462 74.0437 33.8178C74.5153 34.2893 75.1819 35.5055 75.5238 35.977C75.6739 36.1979 76.0654 36.6192 76.4662 37.2712C77.0137 38.1842 77.4709 39.1483 77.8312 40.15C77.851 39.6282 77.9813 38.8161 79.4667 39.3273C80.9514 39.8491 82.6364 40.943 84.051 43.0969C85.4656 45.2509 85.8161 47.6826 86.5284 48.6085C87.2506 49.5013 87.9932 50.986 88.0435 51.6083C88.0938 52.2306 87.8226 54.2364 89.3073 59.664C89.7286 57.9789 90.3707 54.2364 90.3707 54.2364L90.7219 50.9357L91.1233 40.7227L80.4587 31.8629L72.1219 25.813L66.6943 26.3348L67.0349 27.1072L67.0356 27.1079Z" fill="#CAA13E"/>
<path fill-rule="evenodd" clip-rule="evenodd" d="M86.8505 42.3062C86.8505 42.3062 86.6998 41.3142 84.192 39.6278C81.6836 37.9626 79.7273 37.9626 77.9219 36.548C76.5371 35.4343 75.0927 32.8756 74.1523 32.0331C73.239 31.2004 73.0889 28.7925 73.0889 28.7925L76.1687 26.2133L80.7491 19.5927L84.6212 15.3291L86.4769 17.9083L89.0561 20.9379L90.4905 27.0175L91.0123 35.9164L86.8459 42.3069L86.8505 42.3062Z" fill="#B59544"/>
<path fill-rule="evenodd" clip-rule="evenodd" d="M89.9513 52.9724C90.0272 51.6228 89.8605 50.2706 89.4592 48.9799C88.7979 46.9232 87.3529 43.2713 86.6816 41.9036C86.4105 40.3885 86.6115 40.2682 86.9025 40.0975C87.1935 39.9269 88.2873 39.3039 88.8865 37.1182C89.4857 34.9325 91.3447 34.8611 91.3447 34.8611L92.4881 34.0186L94.2241 38.3622L95.7386 42.2852L96.2101 45.285L96.5613 47.8431L95.7386 53.2508L91.676 56.9225L89.9506 52.9724H89.9513Z" fill="#C89D3A"/>
<path fill-rule="evenodd" clip-rule="evenodd" d="M33.2568 113.246V113.135C33.3413 113.082 33.4158 113.015 33.4771 112.936C33.5472 112.836 33.5981 112.716 33.6477 112.686C33.7482 112.636 34.2197 112.487 34.4704 112.535C34.721 112.583 35.3837 112.856 35.7349 112.836C36.457 112.816 37.2996 112.264 38.6341 112.515C40.6406 112.886 41.1122 114.25 42.2761 115.023C43.0697 115.565 43.8911 115.324 44.0114 115.324H44.2819C44.3322 115.324 44.7032 114.903 44.9042 114.923C45.3057 114.943 45.3453 115.274 45.596 115.294C46.1879 115.364 47.332 114.993 47.904 115.144C48.0737 115.197 48.2279 115.29 48.3537 115.416C48.4794 115.542 48.5729 115.696 48.6262 115.865C48.7466 116.236 48.6461 116.708 48.3551 116.979C47.7334 117.551 47.1415 118.093 47.0212 118.566C47.1743 118.683 47.3213 118.808 47.4616 118.939C42.4978 117.675 37.7219 115.762 33.2568 113.252V113.246Z" fill="#CEB052"/>
<path fill-rule="evenodd" clip-rule="evenodd" d="M86.6797 93.2009C86.6797 93.2009 88.2444 91.1144 88.7867 90.0807C89.3283 89.0153 87.0712 75.5241 87.0712 75.5241L91.606 60.6666L91.4849 55.8309C91.4849 55.8309 91.7058 51.3663 92.2276 49.4299C92.8499 50.5436 94.7863 51.888 95.2076 52.6003C95.406 51.2353 96.0799 48.3565 95.98 45.2866C96.351 45.858 97.2438 51.607 97.2438 51.607L98.1366 55.4791L99.3006 59.5926L100.595 63.9369L101.367 66.9367L101.808 67.6589L102.18 68.9227L102.531 70.2877L103.544 73.4879L104.14 76.116L104.611 80.8816C104.714 81.2465 104.787 81.6188 104.832 81.9952C104.852 82.517 104.762 82.818 104.762 82.9086C104.762 82.9992 104.932 84.052 104.862 84.8449C104.762 85.6385 104.762 86.2595 104.14 86.8289C103.517 87.3983 103.126 90.8016 103.126 90.8016L102.013 90.0596C102.013 90.0596 102.234 89.0457 101.712 88.1232C101.19 87.2006 100.177 87.0095 99.6048 87.1603C99.0334 87.2806 97.8899 87.4605 97.5183 87.7819C97.1671 88.1027 96.3047 89.096 95.5118 89.5477C94.5198 90.1429 92.9035 90.1898 92.0411 90.3902C91.1681 90.5886 90.2052 91.1838 89.1914 91.8749C88.3965 92.3895 87.5573 92.8322 86.6837 93.1976L86.6797 93.2009Z" fill="#CCA847"/>
<path fill-rule="evenodd" clip-rule="evenodd" d="M86.6797 115.122C86.6797 115.122 86.7458 115.165 86.8735 115.235C94.001 111.896 100.387 107.162 105.655 101.314C105.598 99.2836 105.523 97.2024 105.441 96.4312C105.271 94.7958 105.391 93.1305 105.341 92.1676C105.291 91.2047 104.749 87.2817 104.499 86.2685C104.228 85.2554 103.705 84.7534 103.626 84.7534C103.556 84.7739 103.134 86.66 103.134 87.1342C103.134 87.6084 103.033 88.7499 103.033 89.0408C102.963 89.0203 102.933 88.8424 102.933 88.7697C102.833 89.0203 102.712 89.4621 102.662 89.5124C102.612 89.5626 102.732 89.0911 102.662 88.9906C102.592 88.8901 102.464 88.9403 102.492 88.6897C102.503 88.541 102.527 88.3936 102.562 88.2486C102.562 88.2486 102.261 88.6897 102.04 89.8133C101.82 90.927 101.82 90.9574 101.74 91.0572C101.669 91.1783 101.268 91.579 101.248 91.7298C101.228 92.0003 101.619 92.2715 101.649 92.4216C101.669 92.6729 101.298 93.8362 101.177 94.4056C101.057 94.975 101.107 96.0907 100.979 96.6627C100.879 97.1845 100.781 97.4854 100.437 97.7056C100.688 97.7559 100.929 97.826 100.929 97.826C100.929 97.826 101.28 99.3107 100.387 100.575C100.066 101.016 99.9864 101.217 99.6451 101.619C98.9726 102.361 98.4508 103.206 98.4005 103.756C98.3658 103.593 98.3424 103.429 98.3304 103.263C98.3304 103.263 97.2875 104.478 96.8457 105.17C96.2743 106.063 95.4814 106.013 95.2585 106.234C95.0356 106.454 94.9874 106.855 95.0601 107.177C94.8617 107.226 94.4887 107.297 94.2374 108.069C94.117 108.47 93.8161 108.863 93.3446 109.133C92.8731 109.403 92.301 109.484 92.01 109.554C92.2607 109.624 92.3612 109.624 92.4816 109.704C92.3314 109.955 91.639 110.346 90.8666 110.848C90.0941 111.32 89.7225 112.012 89.532 112.463C89.3336 112.885 89.0406 113.156 88.5691 113.206C88.7675 113.326 89.0611 113.607 89.2113 113.697C88.9904 113.748 88.6161 113.748 87.9475 114.32C87.2451 114.902 87.0044 115.072 86.683 115.123L86.6797 115.122Z" fill="#C39D3C"/>
<path fill-rule="evenodd" clip-rule="evenodd" d="M72.7191 119.771C73.1033 119.501 73.5193 119.281 73.9578 119.114C75.5225 118.492 77.1778 118.372 77.8299 118.172C78.4522 117.973 78.9436 117.699 79.716 117.549C79.6955 117.725 79.6783 117.891 79.6598 118.047C77.3825 118.763 75.0635 119.338 72.7158 119.771H72.7191Z" fill="#D2BA6B"/>
<path fill-rule="evenodd" clip-rule="evenodd" d="M101.581 78.6141C101.581 78.6141 101.26 80.3495 100.688 81.4433C100.116 82.5372 99.498 84.0516 99.498 84.0516C99.5018 83.7103 99.5421 83.3704 99.6184 83.0378C98.8962 83.459 97.1404 84.4729 96.6424 84.9239C96.1709 85.3452 95.3779 86.0878 95.1775 86.439C95.6491 85.0548 96.1404 83.8109 96.2211 83.2388C95.4989 83.7606 92.1275 86.5395 90.3723 88.3754L84.9044 92.7997C84.2734 93.1401 83.6236 93.4444 82.9581 93.711C82.0157 94.1118 80.902 94.453 80.0793 94.7744C80.3002 94.1826 80.6507 93.6601 81.1427 93.1588C81.6645 92.6674 83.2292 90.9718 83.47 90.1828C83.6908 89.3601 83.7411 88.8688 83.4501 88.1763C83.179 88.2464 82.5573 88.2769 82.136 88.3972C81.7148 88.5176 81.2631 88.9686 81.2631 88.9686C81.2631 88.9686 81.5838 87.1328 82.2762 85.3974C81.7545 85.4173 80.8617 85.5674 80.8617 85.5674C80.8617 85.5674 82.1056 83.4809 84.2345 82.0266C83.5825 82.1654 82.9445 82.3633 82.3285 82.6178C81.0845 83.1396 79.7202 83.9121 78.707 84.3333C79.2784 83.5397 83.2914 77.8126 85.6795 72.475C88.0603 67.148 88.9498 65.7836 89.4716 62.9247C89.742 61.5101 89.67 59.4196 89.742 57.5474C89.8121 55.691 90.0429 54.0258 89.8928 52.9121C90.5145 53.6845 92.8424 55.8617 92.9224 60.7277C92.9925 65.5932 90.6957 72.1648 88.2573 75.7056C88.8525 75.8762 90.3948 76.0773 91.9793 73.3248C93.5639 70.5723 93.5447 69.8039 94.1168 68.6598C94.1869 69.2318 94.1664 69.4322 94.1664 69.4322C94.1664 69.4322 96.4744 66.6334 97.5676 63.1118C97.7885 64.627 98.4406 65.9615 97.4168 68.7404C96.5042 71.2482 95.3105 71.8606 95.3105 71.8606C95.3105 71.8606 95.9024 71.7601 96.7747 71.2383C96.9254 71.6093 96.8957 72.0319 97.1463 72.1813C97.397 72.3308 97.7382 72.5828 97.7885 72.8235C98.059 72.4221 98.4802 71.9102 98.6112 71.5293C98.5107 72.3229 98.4406 75.7929 98.8096 77.5586C99.5827 77.4885 100.375 77.4383 100.917 76.0435C100.546 77.4085 100.546 78.2306 100.796 79.3945C101.208 79.1141 101.579 78.6121 101.579 78.6121L101.581 78.6141Z" fill="#C0993A"/>
<path fill-rule="evenodd" clip-rule="evenodd" d="M75.514 23.3147C75.514 23.3147 74.7415 23.6354 73.4275 23.6354C72.284 23.6354 72.6048 23.1943 70.8192 23.1943C68.0706 23.1943 58.4694 24.7815 56.7836 24.7591C55.6898 24.7392 60.4752 25.2306 60.4752 25.2306L72.7053 25.4012L75.1628 25.2028L76.0761 23.3445L75.514 23.3147Z" fill="#A88F33"/>
<path fill-rule="evenodd" clip-rule="evenodd" d="M43.8017 47.222C43.8017 47.222 42.2363 48.4157 41.5744 49.329C40.9124 50.2423 40.5612 50.8435 39.8086 51.5862C39.9853 51.5929 40.1618 51.5692 40.3304 51.5161C40.3304 51.5161 40.3304 51.7145 40.21 51.7667C40.314 51.7551 40.4193 51.7669 40.5182 51.8012C40.6171 51.8355 40.707 51.8915 40.7814 51.9651C40.5605 52.0855 39.9587 52.688 40.4302 53.4002C40.7814 53.9418 41.5241 53.9914 41.5241 53.9914C41.5241 53.9914 41.3535 54.4835 42.0657 54.4332C43.6007 54.3631 45.3162 53.6905 46.1085 53.8612C46.9021 54.0596 47.3531 54.1323 47.9146 55.1058C48.5098 56.0687 49.0282 56.2195 49.0282 56.2195C49.0282 56.2195 49.3794 55.326 49.2994 53.9921C49.5873 53.2731 49.7469 52.5091 49.7709 51.735L49.2491 47.8926L46.9722 45.0132L44.0226 46.6487L43.8017 47.2201V47.222Z" fill="#E3C571"/>
<path fill-rule="evenodd" clip-rule="evenodd" d="M46.5996 46.6506C46.5996 46.6506 46.8205 47.1724 47.7437 47.222C47.6432 47.4429 47.6432 47.4733 47.6736 47.6432C47.6935 47.8139 47.7232 48.0645 47.7232 48.0645C47.8249 48.0153 47.9167 47.9481 47.9944 47.8661C48.0446 48.087 47.9441 48.4375 47.9944 48.6888C48.0254 48.8417 48.0758 48.9899 48.1445 49.1299C48.1591 49.0956 48.1759 49.0623 48.1947 49.0301C48.2146 48.9798 48.3931 49.5717 48.8872 50.0221C48.8867 49.9528 48.9038 49.8846 48.9368 49.8237C48.9443 49.9495 48.9859 50.0708 49.0571 50.1748C49.0202 50.1572 48.9864 50.1335 48.9573 50.1047C48.9573 50.1047 49.0069 51.6919 49.278 52.5126C49.3233 52.4596 49.3636 52.4025 49.3984 52.342C49.3984 52.2924 49.3785 52.7838 49.3283 53.1356C49.2582 53.4868 49.3084 53.9782 49.3084 53.9782C49.4893 53.8358 49.6881 53.7177 49.8997 53.627C50.2006 53.506 50.6933 53.135 50.9935 52.3123C51.1677 51.8463 51.302 51.3665 51.3949 50.8778C51.4919 51.0646 51.5589 51.2654 51.5933 51.473C51.6138 51.7237 52.0854 51.5934 52.0854 51.5934L52.1859 50.4995L52.7811 48.0215L53.3227 46.4866L55.931 42.424L60.6437 38.7946L64.7572 39.7377L68.2279 35.0224L62.2487 31.4307L56.5904 32.0226L51.4551 39.1352L47.3423 45.5865L46.5996 46.6499V46.6506Z" fill="#D8B65B"/>
<path fill-rule="evenodd" clip-rule="evenodd" d="M76.2356 36.3574C76.2356 36.3574 75.8845 36.4275 74.8713 36.9526C73.8581 37.4777 73.1558 37.6444 72.7643 38.4168C72.3728 39.1892 72.343 39.8016 72.343 39.8016C72.343 39.8016 73.0354 39.5007 73.4369 39.4002C73.8581 39.3003 74.3297 39.3301 74.2794 39.5007C74.2312 39.6177 74.1641 39.726 74.081 39.8215C74.081 39.8215 74.8746 39.8016 74.8534 40.1931C74.8323 40.5846 74.7033 41.0158 74.5532 41.2063C74.4024 41.4047 73.7808 41.6983 73.7106 41.9291C73.54 42.4007 73.7808 42.4205 73.6902 42.8014C73.6201 43.1731 73.2894 43.8953 72.2055 45.1591C71.0918 46.4235 70.6182 47.3163 70.6182 47.3163C70.6182 47.3163 70.0766 46.3032 69.7956 45.4302C69.5972 45.5301 68.5317 46.122 68.5317 46.122L66.0636 37.5247L66.1132 36.9526C66.1132 36.9526 66.3341 36.6821 66.3844 36.1802C66.0134 36.0598 65.9631 35.9593 65.4711 35.4884C64.9791 35.0175 64.5783 34.4448 63.7563 34.0533C63.6359 33.8324 63.4851 33.5322 62.8833 33.4112C62.2815 33.2901 61.9204 33.1909 61.9204 33.1909C61.9204 33.1909 62.2411 33.0699 62.3919 32.8193C62.0202 32.8695 61.72 32.9899 60.9072 32.9701C60.0845 32.9496 59.9939 32.9198 59.5429 32.9899C59.0919 33.06 58.5509 33.261 58.3492 32.5686C58.1283 32.398 57.6568 32.5488 57.2553 33.14C56.8539 33.7312 56.7137 34.2034 55.9413 34.4342C55.8869 34.7747 55.7677 35.1016 55.5901 35.3971C55.3692 35.7688 55.018 36.1398 54.5465 36.6914C53.8038 37.5643 53.9242 38.9988 52.7404 40.0926C51.5467 41.1858 52.9388 37.0624 52.9388 37.0624L54.8448 32.4992L60.2723 27.192L68.6997 26.6206L69.5224 30.9854L73.6359 32.4L76.2343 36.3627L76.2356 36.3574Z" fill="#D3AE4D"/>
<path fill-rule="evenodd" clip-rule="evenodd" d="M77.5695 37.3206L74.028 32.2144L71.55 30.3078C71.55 30.3078 69.7843 27.058 69.6639 26.9575C69.5634 26.8874 67.8981 26.7068 66.8347 26.6367L67.0331 27.1281C67.2652 27.2035 67.4714 27.3426 67.6283 27.5295C68.0998 28.0712 68.4007 29.0942 67.3274 30.1881C67.7487 30.3382 67.9226 30.3865 68.2903 30.3382C67.9193 30.78 67.0768 31.723 67.0265 32.5457C66.9762 33.2177 67.3975 33.418 67.3975 33.418C67.3975 33.418 66.7553 34.1607 66.7256 35.402C67.0288 35.0601 67.3607 34.7446 67.7176 34.459C68.4603 33.8638 69.4834 33.1945 70.1758 32.7732C70.1663 32.95 70.1901 33.127 70.2459 33.295C70.2459 33.295 71.5394 32.2316 72.6267 32.7031C73.118 32.924 72.8972 33.6164 72.8972 33.6164C72.8972 33.6164 73.5697 33.3658 74.0413 33.8373C74.5128 34.3089 75.1847 35.5224 75.526 35.9946C75.6761 36.2155 76.0676 36.6368 76.4684 37.2882C77.016 38.2013 77.4732 39.1657 77.8334 40.1676C77.8532 39.7662 77.9339 39.2047 78.627 39.2047L77.5734 37.3186L77.5695 37.3206Z" fill="#CAA13E"/>
<path fill-rule="evenodd" clip-rule="evenodd" d="M24.4796 51.8276C24.4796 51.8276 24.2289 51.2053 24.4796 49.9917C24.7302 48.7782 25.1217 48.2061 25.252 46.4205C25.3823 44.6349 26.5462 42.4076 26.5462 42.4076L29.7663 40.9434L32.0439 41.565L32.7158 44.6151L29.8364 46.2023C29.8364 46.2023 29.6862 46.8742 28.8735 47.4158C28.0607 47.9575 26.9371 48.3787 26.6666 48.9309C26.5049 49.2691 26.3869 49.6264 26.3154 49.9944C26.3154 49.9944 25.4927 49.8237 25.0014 50.3654C24.4796 50.9176 24.4994 51.409 24.4796 51.8302V51.8276Z" fill="#F4EFC8"/>
<path fill-rule="evenodd" clip-rule="evenodd" d="M30.9796 51.0144C30.9796 51.0144 30.7085 51.185 30.5081 51.6096C30.3097 51.2888 29.8355 49.3822 29.8157 47.6667C29.7958 45.9512 29.6933 45.5259 30.0901 44.9347C30.4869 44.3435 32.043 43.7205 31.8222 42.6557C31.6013 41.6426 30.678 41.2213 29.5445 41.5123C28.7509 41.7107 28.1603 43.3984 27.3377 44.241C26.7153 44.8831 25.9733 44.7826 25.7729 45.1338C25.5018 45.6053 25.7524 46.0768 25.6724 46.3777C25.6519 46.4783 25.4013 47.0199 24.9496 47.672C24.0369 48.986 22.4921 50.8424 22.291 52.5077C22.3611 51.5646 22.3115 51.5448 22.5622 50.5012L22.4114 50.2505L23.4034 47.0001L24.0455 44.3217L25.4806 39.8365L28.0082 35.2521L30.4664 32.5029L33.0245 32.6736L33.3254 36.5159L34.7902 43.7298L37.87 47.5219L32.9339 50.8437L30.9776 51.0144H30.9796Z" fill="#EBCC73"/>
<path fill-rule="evenodd" clip-rule="evenodd" d="M32.5153 52.3779C32.5153 52.3779 32.094 52.4784 31.9432 52.3984C31.7924 52.3184 31.643 52.2278 31.6926 52.1272C31.7422 52.0267 32.0133 51.8567 32.0133 51.7761C32.0189 51.7032 31.9958 51.6309 31.949 51.5748C31.9022 51.5186 31.8354 51.4828 31.7627 51.4751C31.5319 51.4454 31.4618 51.5955 31.4618 51.5955C31.4618 51.5955 31.2409 51.4255 31.061 51.3971C31.1674 51.3841 31.2745 51.3772 31.3817 51.3766C31.1045 51.251 30.8104 51.1666 30.5088 51.126C30.7594 50.9758 31.2515 50.5341 31.5722 50.5341C31.893 50.5341 32.094 50.4845 32.0437 50.3138C31.9935 50.1432 31.7428 49.8926 31.4724 49.792C31.5722 49.6717 31.643 49.4911 31.4022 48.9984C31.1509 48.5071 31.2515 48.1757 31.3321 48.056C31.4022 47.9053 31.6529 47.6348 31.7733 47.4641C31.8936 47.2935 31.9941 47.0627 32.1945 46.9423C32.295 46.8722 32.6158 46.7439 32.9372 46.6216C33.2884 46.5012 33.5794 46.3504 33.7797 46.5012C34.0006 46.6514 33.9001 46.8524 33.9001 46.8524C33.9001 46.8524 34.5925 46.6011 35.2142 46.9225C35.8365 47.2228 37.3516 47.4139 37.3516 47.4139L37.8946 48.5077L34.3029 51.5876L32.8182 52.3303L32.5173 52.3799L32.5153 52.3779Z" fill="#E5C66B"/>
<path fill-rule="evenodd" clip-rule="evenodd" d="M37.5019 47.3425C37.5019 47.3425 36.3882 48.0852 36.1376 48.3557C36.2877 48.3762 36.5384 48.4767 36.4378 48.6268C36.3175 48.7769 35.5953 49.2987 35.1939 49.7907C34.7726 50.2821 34.3712 50.9044 34.231 51.2053C34.0809 51.4758 32.9367 52.2688 32.5459 52.3686C33.3686 52.3686 35.0239 51.3555 35.6456 51.3555C35.6257 51.6564 35.8162 51.9976 36.1674 52.0274C36.5185 52.0571 37.5317 52.2483 38.896 51.4057C40.2603 50.583 39.8093 49.9706 40.3807 49.5699C41.4745 48.847 41.9157 48.2049 42.5175 47.8041C43.1193 47.4033 43.4308 47.3121 43.4308 47.3121C43.4308 47.3121 43.4506 47.0112 43.6292 47.0416C43.678 47.0472 43.7245 47.066 43.7634 47.0961C43.8023 47.1262 43.8323 47.1663 43.85 47.2122C43.85 47.2122 44.8936 46.4695 46.2308 46.2691C46.1997 46.2552 46.1747 46.2302 46.1607 46.199C46.1607 46.199 46.2606 46.1488 46.2811 46.0985C46.2811 46.0985 46.3512 45.998 46.4015 46.0483C46.4517 46.0985 46.5218 46.4695 46.6224 46.6203C46.8432 46.5198 47.2645 45.5767 47.2645 45.5767L48.2783 42.6774V40.0288L47.4847 40.1796L41.5327 42.7072L37.9205 46.4497L37.4993 47.3425H37.5019Z" fill="#E6BD62"/>
<path fill-rule="evenodd" clip-rule="evenodd" d="M54.6367 34.3512C54.9587 34.273 55.2673 34.1478 55.5527 33.9795C55.4323 34.3009 55.4323 34.6521 54.9105 35.4146C54.3887 36.1771 54.3689 36.2875 53.9476 37.0798C53.5263 37.9025 53.4761 39.0863 53.0747 39.6074C53.2546 39.52 53.4476 39.4626 53.646 39.4375C53.646 39.4375 53.2453 39.7886 53.0747 40.1596C52.904 40.5306 52.6031 41.3031 51.8611 41.7753C51.1191 42.2475 50.1754 42.5477 49.1622 43.6614C48.1484 44.7546 47.1055 46.1394 46.583 46.6374C46.8542 46.1659 47.2252 45.2228 47.3257 44.6011C47.4262 43.9795 47.3052 43.2362 47.4758 42.4141C47.6464 41.5921 47.6464 40.9995 48.4678 39.5644C49.2892 38.1293 50.6952 33.1436 50.6952 33.1436L53.7247 32.1807L54.638 34.3478L54.6367 34.3512Z" fill="#B6933F"/>
<path fill-rule="evenodd" clip-rule="evenodd" d="M52.4481 32.5154C52.4481 32.5154 51.5355 33.8295 51.2848 34.9934C51.0342 36.1573 51.2643 36.0568 51.1142 36.6289C51.0244 36.9777 51.0244 37.3435 51.1142 37.6923C51.4303 37.1831 51.8631 36.7565 52.3767 36.4477C53.2398 35.9265 53.9421 35.5549 54.3607 35.1138C54.782 34.6422 55.1332 33.8698 56.0458 33.2779C55.6748 33.2276 55.153 33.057 55.0538 33.0795C55.4255 32.6582 56.5385 32.0161 57.6621 31.2436C58.7758 30.45 58.7057 30.13 60.5118 29.3377C59.9199 29.4382 59.6388 29.2874 59.1468 29.3377C59.3452 28.9164 60.0396 28.7154 60.734 28.0236C61.4284 27.3318 60.2929 26.3081 60.2929 26.3081L55.0022 29.5083L52.4442 32.518L52.4481 32.5154Z" fill="#C49937"/>
<path fill-rule="evenodd" clip-rule="evenodd" d="M38.0928 30.1267L38.2131 29.1638L39.7282 26.7361L41.3135 22.4724V16.6435L41.1931 13.2726L41.4437 11.0651L41.6342 10.3634L41.8353 10.0923L43.1288 10.7642L44.9151 13.192L45.0857 17.8775L43.3497 25.2712L38.3937 30.6789L38.0928 30.1267Z" fill="#DFC068"/>
<path fill-rule="evenodd" clip-rule="evenodd" d="M42.0353 9.82174C42.0353 9.82174 41.2417 9.84224 41.0723 13.143C40.903 16.4437 40.821 18.179 40.7007 19.8145C40.5803 21.45 40.2999 22.4426 40.159 23.4062C40.0182 24.3698 39.9382 25.6832 39.4871 26.486C39.2887 26.857 38.8648 28.021 37.8715 28.8939C36.7578 29.8568 35.0939 30.5294 34.8419 30.5797C34.4001 30.6795 32.1629 30.9004 31.2502 31.4024C30.9295 31.573 30.3772 31.7734 29.7655 32.3454C28.5513 33.4386 26.9363 35.3948 25.7724 37.7525C23.9868 41.2741 22.2012 51.2159 22.2012 51.2159L22.6026 50.544C22.6026 50.544 22.6529 49.6512 23.5457 48.0858C24.4186 46.5211 24.168 44.7653 25.3815 41.7655C25.8531 40.622 26.445 39.1373 27.1671 37.8729C28.3112 35.8161 29.6954 34.0504 31.0902 33.0874C33.3671 31.5227 35.8756 31.1815 35.8756 31.1815L38.5745 29.3959C38.5745 29.3959 39.046 28.4832 39.6683 27.4397C40.5406 25.9755 41.6523 24.34 41.8951 21.9625C42.2667 18.4409 41.3733 16.1335 41.4235 14.047C41.4738 11.9605 41.4936 10.4255 41.9156 10.0539C42.3375 9.6822 42.0359 9.82306 42.0359 9.82306L42.0353 9.82174Z" fill="#A88F33"/>
<path fill-rule="evenodd" clip-rule="evenodd" d="M42.0355 25.5723C42.0355 25.5723 43.2259 22.6426 43.7708 20.0443C43.8714 19.5225 44.0717 19.0013 44.122 18.5801C44.3727 16.1219 44.4428 15.1087 44.122 13.7642C43.8714 12.7722 42.9085 11.8781 42.4065 11.185C41.9151 10.4622 41.6843 10.193 41.7848 10.0409C41.8854 9.88883 42.2762 9.64017 42.6571 9.66993C43.0621 9.68171 43.4604 9.77573 43.8278 9.94627C44.1953 10.1168 44.5242 10.3603 44.7946 10.6619C45.567 11.5547 46.1788 14.585 46.1788 14.585L46.8222 18.5834L48.4577 23.6194L42.0368 25.5763L42.0355 25.5723Z" fill="#C99E3D"/>
<path fill-rule="evenodd" clip-rule="evenodd" d="M53.2218 22.5232C53.2218 22.5232 53.0009 22.6231 52.6001 22.5232C52.6172 22.687 52.5888 22.8523 52.518 23.001C52.4471 23.1496 52.3367 23.2759 52.1987 23.3658C51.7774 23.1951 47.8339 23.5364 47.8339 23.5364C47.8339 23.5364 45.998 23.215 45.426 20.7872C45.0252 19.1716 45.7269 16.9449 45.4961 15.48C45.1449 13.3228 44.6535 12.9008 44.6033 12.2296C44.553 11.5583 44.5028 11.387 44.5028 10.9658C44.2819 10.9155 44.1516 10.8454 43.9314 10.8454C43.8811 10.647 43.981 10.4737 43.7607 10.1226C43.8811 10.1728 44.7038 10.2733 45.6667 11.186C46.4603 11.9287 46.4603 12.1991 46.58 12.3499C46.7301 12.5001 47.9443 13.5403 48.4661 14.5773C48.9879 15.6143 50.0011 18.9209 50.2319 19.4626C50.302 19.6835 50.4528 19.9043 50.8271 20.4056C51.4091 21.1285 52.2615 22.3235 53.2244 22.5219L53.2218 22.5232Z" fill="#B58634"/>
<path fill-rule="evenodd" clip-rule="evenodd" d="M46.7207 12.3999C47.3285 13.3817 47.8744 14.4003 48.3555 15.45C48.9474 16.7839 49.2986 17.8777 50.0413 18.7705C49.6398 17.6072 48.9276 15.3197 48.5063 14.5069C48.0348 13.6472 47.0719 12.7213 46.7207 12.4006V12.3999Z" fill="#A88F33"/>
<path fill-rule="evenodd" clip-rule="evenodd" d="M39.8989 28.8942C39.8989 28.8942 38.8858 29.1449 36.9996 30.1382C36.3773 30.4589 35.7861 30.7294 35.214 30.9807C33.728 31.6526 32.1342 32.2736 30.8697 32.6162C30.9703 32.7366 31.0199 32.7862 31.0199 32.7862C31.0199 32.7862 31.0199 33.2782 31.291 33.5586C31.1409 33.7094 29.1337 35.0737 29.7263 39.6382C30.1271 39.4881 30.5986 39.2871 30.6687 39.2871C30.7897 39.3076 30.8195 39.6382 30.9696 39.6382C31.1197 39.6382 31.6118 39.4398 32.1336 38.7653C32.1137 39.0364 31.8128 41.7651 33.4278 43.6009C33.7287 43.2498 34.4912 42.0858 34.4912 42.0858L34.5111 41.7148C34.5111 41.7148 34.5812 40.4206 35.0031 39.2368C35.425 38.053 36.2471 37.1801 36.2471 37.1801L40.5398 31.0502L39.8976 28.8936L39.8989 28.8942Z" fill="#E6C367"/>
<path fill-rule="evenodd" clip-rule="evenodd" d="M35.8864 37.8943C35.6899 38.0332 35.4733 38.1413 35.2443 38.2151C35.1742 37.9644 35.0736 37.1014 35.6655 36.2588C36.3579 35.245 37.8724 33.9309 38.2937 32.886C38.5648 32.2135 38.4444 30.5284 40.8524 28.3711C43.2603 26.2139 44.2027 25.4718 44.2027 25.4718L48.0953 23.5156L52.8807 25.4017L50.5032 34.7199L48.6574 39.0847L41.3166 37.7005L35.8857 37.8943H35.8864Z" fill="#DCBA5A"/>
<path fill-rule="evenodd" clip-rule="evenodd" d="M38.6885 35.3639L39.6018 34.2204V33.4077C39.6018 33.4077 40.6149 33.1365 41.7081 32.0228C42.8013 30.9091 44.3164 28.7724 45.651 28.9027C46.9856 29.0535 47.1159 31.8019 47.1661 32.575C47.2164 33.3481 47.387 35.1027 47.6575 36.0464C47.9584 36.9894 44.407 40.5606 44.407 40.5606L41.9951 42.3965L38.6885 35.3639Z" fill="#E9CE77"/>
<path fill-rule="evenodd" clip-rule="evenodd" d="M41.5137 44.8847C41.5137 44.8847 42.2564 43.7207 41.7121 43.4701C42.0328 42.7479 42.6247 41.9854 42.6247 41.9854C42.6247 41.9854 43.046 40.9425 44.4103 39.6582C45.7747 38.3739 46.6179 37.5207 46.8387 36.6584C46.9749 36.0963 47.049 35.5211 47.0596 34.9429C47.2071 35.0634 47.3649 35.1707 47.5312 35.2636C47.752 35.3641 48.795 36.2265 48.6449 37.9625C48.4947 39.6985 47.8512 40.4207 47.8512 40.4207C47.8512 40.4207 47.2296 41.0423 46.7885 41.3638C46.3163 41.6845 46.1463 42.0555 45.3534 42.0859C45.4349 42.0211 45.5265 41.9702 45.6245 41.9351C45.6245 41.9351 44.8018 41.8353 44.3601 42.2361C43.9183 42.6368 42.9792 43.8715 42.5077 44.2432C42.0361 44.5441 41.5157 44.8854 41.5157 44.8854L41.5137 44.8847Z" fill="#CDAE50"/>
<path fill-rule="evenodd" clip-rule="evenodd" d="M74.8719 25.371C73.6867 24.939 72.441 24.6954 71.1804 24.6488C69.0734 24.5787 65.9935 24.6991 62.9739 24.7189C59.7234 24.7388 56.7739 23.6053 52.6809 23.4049C52.009 23.0034 50.3001 21.2476 44.9658 24.9696C45.2866 24.9498 48.8386 24.1469 50.072 25.6924C51.3159 27.2274 50.9648 29.8357 50.7948 30.4573C50.4734 31.8422 49.4298 33.8586 49.0092 35.2731C48.5886 36.6877 48.6878 37.4311 48.3869 38.4231C48.086 39.4151 47.424 39.9078 47.8148 41.0512C48.3366 40.7305 48.6084 40.7305 49.4801 38.7742C50.3517 36.818 50.1725 35.4233 51.6175 33.768C53.0321 32.1027 55.3871 29.8251 56.2825 29.253C57.178 28.681 64.288 24.9894 71.7326 28.511C73.5281 28.3206 74.8726 25.3704 74.8726 25.3704L74.8719 25.371Z" fill="#D2A83E"/>
<path fill-rule="evenodd" clip-rule="evenodd" d="M47.9649 24.006C47.9575 23.9306 47.9409 23.8564 47.9153 23.7851C47.8457 23.6384 47.7542 23.5031 47.6441 23.3837C47.6441 23.3837 45.8784 23.063 44.9856 23.1628C43.4202 23.3335 42.0056 25.2698 41.3436 26.2632C40.6816 27.2565 39.8589 28.7908 38.9661 29.5837C38.9759 29.5065 38.9581 29.4283 38.9159 29.3628C38.9159 29.3628 38.9661 29.4329 38.8663 29.5335C38.7664 29.634 38.7658 29.6836 38.816 29.7319L38.9668 29.882C39.0164 29.882 40.4012 29.2597 42.2873 27.5012C44.2938 25.6653 45.8288 24.7236 46.6316 24.4008C47.0598 24.2189 47.5073 24.0864 47.9655 24.006H47.9649Z" fill="#C29637"/>
<path fill-rule="evenodd" clip-rule="evenodd" d="M82.2163 16.4629C82.2163 16.4629 81.8949 16.8637 81.4935 17.3054C80.6007 18.2485 79.4367 19.3113 78.4434 20.4051C77.501 21.4487 76.4376 22.2615 75.2432 23.6258C74.0488 24.9901 72.664 26.5046 72.3135 26.9463C71.9927 27.3881 71.7421 28.1103 71.7421 28.4813C71.5715 28.3609 71.3711 28.2307 71.3711 28.2307C71.4555 28.3882 71.5563 28.5363 71.672 28.6724C71.9226 29.0236 72.3135 29.466 72.5145 29.7359C72.7612 30.0793 72.9382 30.4678 73.0357 30.8793C73.156 30.8991 73.9285 31.0499 74.892 29.4647C75.8556 27.8795 77.1187 26.1441 77.1187 26.1441L79.1252 23.1642L80.3897 20.6366L81.9769 17.8074L82.2183 16.4629H82.2163Z" fill="#AC8132"/>
<path fill-rule="evenodd" clip-rule="evenodd" d="M84.2729 14.437C84.2729 14.437 83.0587 15.429 82.5872 16.0242C82.1157 16.6194 81 18.1815 81 18.1815L81.4014 18.1312L83.4383 16.3258L84.2319 14.9112L84.2723 14.4397L84.2729 14.437Z" fill="#A88F33"/>
<path fill-rule="evenodd" clip-rule="evenodd" d="M83.9008 94.1635C83.9008 94.1635 83.881 93.3408 84.3426 92.8494C84.8141 92.3574 86.0078 91.6352 87.1718 88.9264C88.3357 86.2176 88.4653 85.6058 88.4653 85.6058C88.4653 85.6058 86.3788 87.3914 85.0925 87.8127C85.3934 87.1904 85.5641 86.7493 85.7148 86.4279C85.5442 86.2777 84.822 86.1071 84.7519 86.0271C85.1527 85.6257 85.3736 84.6423 86.1864 83.9902C87.23 83.1966 89.1359 81.8329 90.6173 80.6174C92.0987 79.4019 95.0112 76.5747 95.3829 75.752C95.6038 76.0727 95.6534 76.2731 95.6534 76.2731C95.6534 76.2731 94.1892 78.1797 93.4267 79.3933C92.7541 80.4368 92.8043 81.0287 92.8043 81.0287L94.1892 80.4335C94.1892 80.4335 94.5899 81.9182 92.7746 84.176C93.5682 83.8751 93.8883 84.0557 94.3393 83.8043C93.5966 84.2765 92.5735 84.9187 91.6106 86.6838C90.6676 88.4496 89.3833 90.5063 87.2167 91.7899C85.1097 93.1444 83.8955 94.1575 83.8955 94.1575L83.9008 94.1635Z" fill="#A67A2E"/>
<path fill-rule="evenodd" clip-rule="evenodd" d="M78.4628 26.4156C78.4628 26.4156 77.6401 28.1305 77.5198 29.465C77.4999 29.7864 77.4192 30.0371 77.4192 30.4081C77.3994 31.6018 77.4893 32.9364 77.2208 33.558C77.1203 33.3074 77.07 33.1368 76.9695 33.0369C76.8194 33.4582 76.5482 34.7722 76.3274 35.2636C76.2275 34.9429 76.0066 33.8292 76.0271 32.5151C76.0476 31.201 76.0767 30.9497 76.0767 30.6792C76.0271 31.08 75.756 31.6223 75.6554 31.9431C75.5053 31.6726 75.3347 31.3214 75.1336 31.0304C75.0133 31.2288 74.8631 31.5218 74.7329 31.6726C74.7124 31.5522 74.6628 31.2308 74.6323 30.7798C74.6125 30.258 74.5821 29.5861 74.6125 29.4452C74.6621 29.1747 75.084 28.1113 75.9768 27.1378C77.0403 25.9739 78.1341 23.7372 78.4549 23.0448C78.7756 22.3524 80.14 19.4736 80.14 19.4736H81.1836L79.6685 22.9245C79.6685 22.9245 78.7558 24.8106 78.2843 25.5037C77.8127 26.1967 76.8194 28.1827 76.3776 28.9552C76.6984 28.5339 76.9695 28.313 77.2909 27.9116C77.6018 27.6305 78.4641 26.417 78.4641 26.417L78.4628 26.4156Z" fill="#8C6228"/>
<path fill-rule="evenodd" clip-rule="evenodd" d="M84.2918 14.3057C84.1214 14.8303 83.852 15.3175 83.4982 15.7408C82.8759 16.4834 81.5413 17.4761 80.8899 18.2684C80.2947 19.0408 79.1043 21.1478 79.6452 23.6457C79.8436 23.104 80.2173 22.0307 81.2106 20.8165C82.204 19.6023 83.2674 18.2082 83.7899 17.1249C84.311 16.0311 84.3811 15.1687 84.3811 15.1687L84.5795 14.9181L84.4592 14.346L84.2885 14.3057H84.2918Z" fill="#CBA94C"/>
<path fill-rule="evenodd" clip-rule="evenodd" d="M104.607 80.8505C104.607 80.8505 104.206 79.7574 104.085 78.764C103.965 77.7707 104.284 77.5736 103.915 76.4368C103.694 75.7444 103.293 75.8416 103.192 75.7444C103.092 75.6472 103.022 74.6009 103.042 74.0289C103.061 73.4568 103.022 72.7148 102.921 72.3934C102.771 72.273 102.671 72.1725 102.45 71.4305C102.199 70.6878 102.079 70.3168 101.958 70.0966C101.838 69.8764 101.486 69.6753 101.486 69.4544C101.486 69.0127 101.888 68.7825 101.888 68.6608C101.868 68.4102 101.567 68.6112 101.486 68.5405C101.386 68.4201 101.737 67.6979 101.607 67.5974C101.557 67.5478 101.206 67.9691 101.115 67.8487C101.015 67.7277 100.894 66.534 100.714 65.7417C100.544 64.9693 100.363 64.4078 100.343 64.177C100.323 63.9561 98.9579 60.0635 98.6272 59.1204C98.3608 58.3236 98.1365 57.5132 97.9553 56.6927C97.8548 56.2212 97.7847 55.2576 97.7344 55.3581C97.6842 55.4586 97.7146 55.95 97.6339 55.9302C97.5638 55.9097 97.3132 54.1948 97.2331 53.9237C97.163 53.6525 96.7411 52.7333 96.6379 52.068C96.5374 51.3954 96.3172 49.6396 96.1664 48.4459C96.0156 47.2522 95.9455 46.7608 95.9455 46.4619C95.9702 45.7307 95.9299 44.9988 95.8252 44.2748C95.6268 43.0104 95.23 41.4754 94.8821 40.5833C94.2102 38.8975 92.4239 34.5837 92.1045 33.5103C92.1045 33.2392 92.4557 33.39 92.4557 33.39C92.4557 33.39 93.328 35.577 93.9701 37.2621C94.5924 38.9478 95.1843 40.4325 95.3351 40.5833C95.4555 40.7334 96.3985 42.3887 96.8198 45.0975C97.2411 47.8064 97.3912 50.3042 97.6425 51.9694C97.7629 52.7631 97.8634 53.6049 98.114 54.4475C98.3845 55.3608 98.8058 56.3038 99.358 57.7482C99.8295 58.9624 100.181 59.9756 100.371 60.8485C100.592 61.9622 100.592 62.8047 100.722 63.3569C100.843 63.8285 101.023 64.7709 101.445 66.1345C101.867 67.4982 102.488 69.2547 102.909 70.3479C103.733 72.5349 104.1 74.3609 104.224 75.3344C104.334 76.3376 104.706 79.8089 104.605 80.8519L104.607 80.8505Z" fill="#A88F33"/>
<path fill-rule="evenodd" clip-rule="evenodd" d="M84.3417 14.1856L84.2914 14.306C84.2914 14.306 84.4416 14.3562 84.4118 14.5573C84.4139 14.8324 84.3971 15.1072 84.3615 15.38C84.3119 15.7312 84.2114 16.0016 84.1916 16.2225C84.1916 16.6941 84.2617 17.2357 83.5964 18.5802C83.398 18.9512 83.2756 19.2719 83.1751 19.4928C82.9245 20.0345 82.8742 20.1151 82.6533 20.3658C83.0045 20.1674 84.2689 19.3738 84.9104 19.4928C84.4693 19.7435 83.7968 20.2355 83.3755 20.8777C83.476 20.8975 83.8973 20.9782 84.5659 20.8777C85.6796 20.707 86.9235 20.3056 88.0167 20.3856C89.2111 20.4557 88.7395 18.9512 88.7395 18.9512L87.3613 15.9216L84.753 14.0864L84.3417 14.1863V14.1856Z" fill="#BE9C44"/>
<path fill-rule="evenodd" clip-rule="evenodd" d="M91.1444 36.8796C91.1444 36.8796 89.9805 35.7156 89.509 31.7212C89.0374 27.7082 89.1379 21.8012 89.1379 21.8012L88.1949 19.4938C88.1949 19.4938 87.9965 17.9588 87.5025 17.3874C87.0085 16.816 86.0383 15.8525 85.5965 15.3809C85.1547 14.9094 84.6534 14.2672 84.3525 14.1667C84.5027 13.9161 85.1752 12.5015 87.7531 12.4816C90.331 12.4618 91.1259 13.8962 91.3951 14.418C91.6642 14.9398 92.8798 17.1956 93.3308 21.4943C93.7521 25.7877 93.7726 26.1091 93.7025 27.5938C93.6522 28.4165 93.3811 30.3224 92.9089 32.3587C92.4777 34.0848 92.0062 36.0112 91.1431 36.8835L91.1444 36.8796Z" fill="#A17C34"/>
<path fill-rule="evenodd" clip-rule="evenodd" d="M87.4935 40.3003C87.8814 40.3283 88.2689 40.2409 88.6072 40.049C88.9782 40.0292 90.3227 40.1998 91.3557 38.8857C91.4258 39.186 91.607 39.9994 91.1348 40.7216C91.3861 40.4703 91.7571 40.3704 91.8073 40.3003C91.8272 40.6713 92.1784 41.8148 90.6937 44.5937C91.0944 44.1526 91.566 44.1724 91.9872 44.1222C92.0077 44.644 92.2881 46.3991 91.5461 47.3429C91.0548 47.985 90.2519 47.784 90.2519 47.784C90.2636 47.6438 90.2636 47.5029 90.2519 47.3627C90.2321 47.0916 90.1315 46.8211 90.2023 46.6405C89.8144 46.4633 89.461 46.2186 89.1587 45.9177C88.2858 45.095 87.1523 43.691 87.0723 42.6474C86.9717 41.4835 88.0153 41.2328 88.0153 41.2328C87.9279 41.1546 87.8533 41.0631 87.7944 40.9617C87.7442 40.7917 87.6939 40.5206 87.4935 40.3003Z" fill="#8C6228"/>
<path fill-rule="evenodd" clip-rule="evenodd" d="M79.7563 27.679C79.7563 27.679 79.706 27.6089 79.4355 27.9297C79.4858 27.6089 79.5361 27.3073 79.5559 27.0164C79.6839 26.747 79.8496 26.4971 80.0479 26.2743C79.8972 26.5746 79.7966 26.8457 79.7966 26.8457C79.7966 26.8457 80.1683 26.1533 80.7099 25.7321C81.081 25.4311 81.5525 25.2909 81.7529 25.0099C81.9738 24.709 81.9235 24.6587 81.9738 24.6084C81.9738 24.6084 82.4658 24.2877 83.2184 23.344C83.3183 23.2236 83.469 23.0933 83.5696 22.973C83.7395 22.9029 84.141 22.7223 84.6125 22.4809C85.1045 22.2105 85.6561 21.8394 85.9973 21.6873C86.6692 21.3864 87.3822 21.4169 87.7128 20.9447C87.9635 20.8746 88.234 20.122 88.1844 19.4805C88.5554 19.6306 90.4614 20.8144 91.1141 23.4028C91.5856 25.2387 90.7424 28.0679 90.3913 29.4329C90.0401 30.7979 89.9905 31.8104 89.4985 32.432C88.8761 33.2554 86.8703 34.416 86.3783 34.9907C85.957 35.4622 84.6932 36.656 84.7428 37.5183C84.793 38.1605 85.5853 38.5103 85.7566 38.632C85.9279 38.7537 85.9266 38.9032 86.248 38.8304C86.5694 38.7577 86.6891 38.6095 86.82 38.6095C86.9702 38.6294 86.9702 38.6598 87.0403 38.6598C87.0911 38.6583 87.1416 38.6514 87.191 38.6393C87.191 38.6393 87.1408 39.5526 85.004 39.8297C84.8532 39.8502 84.7031 39.8998 84.512 39.9302C84.7633 39.8099 84.9134 39.8099 85.1845 39.4388C84.8836 39.3886 84.0206 39.3383 83.7997 39.2682C83.8698 39.1479 84.1006 38.8265 84.2911 38.6763C84.4617 38.5262 84.2712 38.4779 84.1211 38.556C83.8626 38.7318 83.6147 38.9226 83.3784 39.1274C83.1278 39.3482 82.9069 39.6492 82.5055 39.921C82.3851 39.5195 82.4049 38.757 82.8771 38.2055C82.7561 38.2253 82.5253 38.5765 82.3051 38.5064C82.2653 38.1404 82.289 37.7704 82.3752 37.4125C82.4955 36.9608 83.1476 36.1686 83.1476 36.1686L86.2976 30.5399L86.9695 26.2763L79.7563 27.6777V27.679Z" fill="#92723A"/>
<path fill-rule="evenodd" clip-rule="evenodd" d="M79.5875 27.9205C79.5875 27.9205 79.4168 28.0409 79.7581 28.2717C79.7078 28.3418 79.5875 28.5925 79.4367 28.7631C79.2667 28.9615 79.0855 29.0845 79.0154 29.2551C78.8653 29.6063 78.7449 29.847 78.7449 29.9978C78.7449 30.1486 78.6947 31.1115 78.2734 31.7331C78.1226 31.954 77.952 32.325 77.8316 32.5757C77.581 33.0168 77.3601 33.3693 77.3098 33.5677C77.21 33.9188 77.1399 34.8817 77.1399 34.8817C77.1399 34.8817 77.3608 34.6106 77.4408 34.5107C77.3198 34.7614 77.1895 35.0319 76.999 35.2329C77.1194 35.1324 77.4705 34.8817 78.0624 34.3599C78.8851 33.6682 80.1694 32.5042 81.7348 31.5823C81.2626 31.753 80.8619 31.753 80.5411 31.8032C80.7918 31.5526 83.0489 28.9039 84.2327 28.6533C84.3045 28.5622 84.3403 28.4477 84.3332 28.3319L83.3194 28.232L81.2626 28.6731L80.9624 27.0859L79.5875 27.9186V27.9205Z" fill="#B18E3E"/>
<path fill-rule="evenodd" clip-rule="evenodd" d="M82.8588 36.9492C82.8588 36.9492 82.5876 37.2197 82.337 37.8923C82.144 37.6908 81.9786 37.4647 81.845 37.2197C81.474 36.5981 80.9026 35.8051 79.568 36.2568C79.5482 35.8356 79.5177 35.6147 79.568 35.3138C79.7889 35.2642 80.4608 34.7225 81.1327 33.9296C81.6049 33.388 82.046 32.7656 82.3469 31.9734C82.5453 31.8226 82.8885 31.5719 83.3389 31.281C83.9811 30.8398 84.7535 30.2374 84.8739 29.5655C84.573 29.6858 83.9308 29.9867 82.9672 29.9371C83.3389 29.7665 83.9103 29.586 83.8402 28.8433C83.991 28.7428 84.1113 28.6727 84.1113 28.6727C83.9983 28.6349 83.8793 28.6179 83.7602 28.6224C83.7397 28.5523 83.7099 28.4524 83.5393 28.502C83.3687 28.5516 83.3409 28.5523 83.3184 28.6224C83.2483 28.6429 83.0175 28.6224 82.8469 28.7434C82.6763 28.8644 82.2047 29.2645 82.0242 29.3347C82.0943 29.2143 82.1941 29.0344 82.1941 29.0344C82.1941 29.0344 81.7028 29.084 81.3516 29.2328C80.7095 29.4537 79.9674 29.8551 79.2148 30.246C79.2849 30.1256 79.3154 30.0476 79.365 30.0251C79.4146 30.0026 79.5356 29.9755 79.5356 29.955C79.5356 29.9345 79.486 29.7566 79.5157 29.6845C79.7407 29.2078 80.0062 28.7514 80.3093 28.3202C80.6605 27.848 80.7306 27.1761 80.7306 27.1761L82.2656 26.4036L86.5794 25.4116L89.3789 25.5822L89.0277 27.5186L87.3744 30.8994L85.9598 33.9792L84.3441 35.866L82.8594 36.9492H82.8588Z" fill="#543E26"/>
<path fill-rule="evenodd" clip-rule="evenodd" d="M89.8497 28.5695C89.8497 28.5695 88.164 30.656 87.6925 30.9774C87.9934 30.3353 89.8497 26.5128 90.5216 25.4493C90.3715 25.329 90.1705 25.329 90.642 23.4653C90.2412 24.4077 90.1004 24.8998 89.7697 25.1504C89.439 25.4011 89.398 25.321 89.1745 25.321C89.2167 25.2447 89.2341 25.1571 89.2241 25.0704C89.2241 25.0704 87.8095 24.8998 86.8433 24.8998C85.8771 24.8998 83.9646 25.4216 82.9005 25.8428C82.0579 26.194 81.5864 26.194 81.2855 26.4142C80.9846 26.6649 80.814 26.936 80.6632 27.0061C80.5428 27.0762 79.9714 27.2568 79.8405 27.4472C79.7201 27.6456 79.5198 27.8685 79.5198 27.9188C79.5198 27.969 79.4695 28.0398 79.6203 27.9889C79.6699 27.969 80.0416 27.768 80.4628 27.5173C81.0342 27.1966 81.7266 26.8256 82.2286 26.6047C83.663 26.0326 84.1147 26.1332 84.7562 26.0128C85.4281 25.8924 86.3916 25.6114 87.0331 25.6114C87.6753 25.5915 88.8895 25.6114 89.1705 25.6616C89.0502 25.7621 88.9497 25.8825 88.9999 26.3038C88.9999 26.4241 88.8994 26.5544 88.8015 26.8454C88.5013 27.6681 87.9292 29.0324 87.6111 29.7249C87.17 30.6673 86.6687 31.4602 86.4207 31.9516C86.1727 32.4429 85.6271 33.7372 85.0868 34.4296C84.5465 35.122 84.2641 35.5433 84.0948 35.694C83.9255 35.8448 82.71 36.737 82.8006 37.0584C83.0215 36.9883 84.4162 36.4632 85.4287 35.323C86.4412 34.1829 86.6429 33.4872 87.4352 32.8649C88.2275 32.2425 88.8498 31.1996 89.2208 30.3372C89.5316 29.5344 89.4615 29.2837 89.8524 28.5715L89.8497 28.5695Z" fill="#806031"/>
<path fill-rule="evenodd" clip-rule="evenodd" d="M53.5224 44.1426C53.5224 44.1426 53.3015 45.0553 52.7995 45.507C52.3081 45.9487 51.4352 46.3297 51.3353 47.0723C51.2149 47.8144 52.2083 48.186 52.2083 48.186C52.2083 48.186 51.666 49.0788 51.666 49.7507C51.666 50.4432 51.6461 50.5734 51.7162 51.2354C51.6367 51.2866 51.569 51.3543 51.5178 51.4338C51.5178 51.4338 51.5674 52.076 52.0595 52.4768C52.5515 52.8775 52.9721 53.1189 53.2228 53.0184C53.261 53.1002 53.2946 53.1841 53.3233 53.2697C53.3233 53.2697 53.695 52.3266 53.9456 51.5039C54.1963 50.6614 54.4171 50.7811 54.517 49.6476C54.6169 48.514 55.7074 46.5677 55.7074 46.5677L56.4514 44.9045L55.2379 43.9614L53.5224 44.142V44.1426Z" fill="#B6903C"/>
<path fill-rule="evenodd" clip-rule="evenodd" d="M55.7805 45.7773C55.5302 46.0342 55.2992 46.3092 55.0894 46.6C54.7686 47.0418 54.518 47.4426 54.0465 47.6139C53.5749 47.7851 53.274 47.7838 53.3038 48.256C53.3335 48.7282 53.7753 48.9279 54.026 49.1687C54.2971 49.4193 54.518 49.8406 54.3976 50.3128C54.5478 50.2427 54.8189 50.162 55.0696 49.6203C55.3202 49.0787 57.0734 45.778 57.0734 45.778H55.7805V45.7773Z" fill="#685026"/>
<path fill-rule="evenodd" clip-rule="evenodd" d="M62.694 38.1628C62.694 38.1628 62.8441 37.762 62.694 37.4711C62.5432 37.1702 61.6305 37.0696 61.1788 36.7284C60.7073 36.3772 60.1353 36.1332 59.6637 36.2873C59.7338 36.1167 60.0149 35.745 59.7841 35.665C59.5632 35.5949 58.7412 35.9659 58.5203 36.1365C58.2994 36.3071 57.7974 36.5075 57.6976 36.6285C57.5977 36.7495 57.4264 36.9797 57.3259 36.8792C57.2254 36.8091 57.1758 36.6285 57.0052 36.7284C56.8345 36.8282 56.0132 37.5008 55.8617 37.8923C55.7103 38.2838 55.3697 39.1568 54.3466 40.1495C53.3235 41.1421 52.8818 41.7849 53.1827 42.1559C53.4836 42.5269 53.6244 42.2565 53.6747 42.5772C53.7134 42.8921 53.6964 43.2113 53.6244 43.5203C53.5041 44.0421 53.3037 44.5334 53.5742 44.6339C54.2666 44.8548 54.9392 44.4355 55.0893 44.5638C55.3902 44.8343 54.9187 45.8078 55.6309 45.9983C56.3538 46.1967 57.066 45.8277 57.066 45.8277L59.6942 44.4131L62.2224 43.0792L63.516 40.5205L62.8223 38.3837L62.69 38.1628H62.694Z" fill="#D4B968"/>
<path fill-rule="evenodd" clip-rule="evenodd" d="M60.2136 44.2735C60.2136 44.2735 59.7718 43.6016 60.3141 43.009C60.8564 42.4165 61.6282 42.1665 61.9291 41.7955C61.8718 41.7248 61.795 41.6726 61.7082 41.6454C61.9079 41.288 62.2127 41.0005 62.5812 40.822C62.431 40.6719 62.23 40.5515 62.0098 40.5515C61.5177 40.5515 61.2162 40.8524 60.7651 40.8524C60.324 40.8524 60.2738 40.6316 60.2738 40.6316C60.2738 40.6316 61.0164 40.5615 60.9457 40.2301C60.8756 39.879 60.7473 39.879 60.7473 39.879C60.7473 39.879 62.1817 39.2838 62.4324 38.9663C62.683 38.6489 62.6533 38.2739 62.7035 38.1238C62.8735 38.1238 63.8668 37.602 64.2682 37.8229C64.6697 38.0438 64.3886 38.6456 64.3886 38.6456C64.3886 38.6456 65.6035 37.7323 66.2225 36.8368C66.7641 36.8871 67.0161 36.4658 67.4129 36.4658C67.9049 36.4658 68.6774 37.1377 68.8275 38.5722C68.928 39.3949 69.0782 39.8664 68.928 41.3213C68.8579 42.144 68.8778 43.9005 69.1264 44.7722C69.2964 45.4646 69.6978 45.3945 69.6978 45.3945C69.6362 45.6055 69.5141 45.7938 69.3467 45.9361C69.0755 46.1867 69.0457 46.8494 69.0755 47.1C69.1155 47.2833 69.1658 47.4641 69.2263 47.6417C69.2263 47.6417 68.9055 48.0127 68.8249 48.264C68.7548 48.5146 68.4241 48.6853 68.1827 48.6853C67.9413 48.6853 68.0623 48.6648 67.7416 48.6853C67.4208 48.7058 67.3203 48.7554 67.1193 48.6853C66.9182 48.6152 66.7681 48.5345 66.8488 47.8917C66.9189 47.2495 64.3707 45.7549 64.3707 45.7549L60.2043 44.2702L60.2136 44.2735Z" fill="#CCA849"/>
<path fill-rule="evenodd" clip-rule="evenodd" d="M55.4291 50.613C55.4291 50.613 56.3417 51.8272 60.0941 51.8272C61.8797 51.8272 62.502 51.6565 62.8717 51.556C63.2731 51.4555 64.7777 50.8643 66.2928 49.078C67.6571 47.463 67.3562 46.801 67.3562 46.801L66.5626 46.6807L63.9834 47.0318L56.3516 50.2823L55.4258 50.613H55.4291Z" fill="#585136"/>
<path fill-rule="evenodd" clip-rule="evenodd" d="M58.227 50.9143C58.227 50.9143 54.9766 51.6371 54.9766 49.5804C54.9766 47.5739 56.983 45.4669 57.485 45.0958C58.0068 44.7242 59.2508 44.3022 59.2508 44.3022H62.2506L62.822 45.8174L62.5713 49.0877L58.227 50.9136V50.9143Z" fill="#252211"/>
<path fill-rule="evenodd" clip-rule="evenodd" d="M61.2267 44.9147C61.2267 44.9147 60.6051 44.3427 59.1905 45.1131C57.7759 45.8836 56.6318 47.4939 56.5617 48.9561C56.4916 50.2497 57.6251 51.2132 59.3909 51.2635C60.7049 51.3131 61.4979 51.163 61.8993 51.0651C61.7988 50.9447 61.277 50.2927 61.277 50.2927L61.2274 44.9154L61.2267 44.9147Z" fill="#C3B378"/>
<path fill-rule="evenodd" clip-rule="evenodd" d="M60.6159 45.2352C60.6159 45.2352 60.4658 45.1148 60.0207 45.3555C59.6497 45.5539 59.1081 46.0784 58.6868 46.4494C58.4156 46.6703 58.245 46.7701 58.0916 46.9407C57.4693 47.6834 56.9475 48.8976 57.2491 49.4994C57.5506 50.1012 58.5433 50.7936 61.0716 50.3221L60.6086 45.2358L60.6159 45.2352Z" fill="#E6D89C"/>
<path fill-rule="evenodd" clip-rule="evenodd" d="M59.7939 46.4803C59.7939 46.4803 59.3924 47.1026 59.3924 48.096C59.3924 49.1091 59.9645 50.7241 62.0715 50.8445C63.6865 50.945 64.7697 48.5172 65.9436 47.5742C66.8364 46.852 67.378 46.8315 67.378 46.8315C67.378 46.8315 66.4654 45.8395 64.0277 44.5545C61.6198 43.2603 58.9209 43.0897 57.4561 45.0763C58.1485 45.0261 60.3858 44.454 60.3858 44.454L61.4796 44.8052L59.7939 46.481V46.4803Z" fill="#252211"/>
<path fill-rule="evenodd" clip-rule="evenodd" d="M62.9441 47.7935C62.874 47.6434 62.8237 47.4423 63.1147 47.3927C63.4057 47.3431 63.536 47.3722 63.6365 47.5911C63.737 47.81 63.8349 47.9925 63.6861 48.0831C63.536 48.1632 63.1445 48.0831 62.9434 47.7922L62.9441 47.7935ZM62.4725 46.3789C62.4725 46.3789 62.372 46.449 62.4223 46.3088C62.4421 46.1388 62.5731 45.8373 62.8938 45.908C63.2146 45.9788 63.1451 46.3293 63.0922 46.4298C63.0393 46.5303 62.7715 46.7003 62.5704 46.6282C62.5449 46.6217 62.5213 46.6093 62.5016 46.5919C62.4818 46.5746 62.4664 46.5528 62.4566 46.5284C62.4468 46.504 62.4429 46.4776 62.4452 46.4514C62.4475 46.4252 62.456 46.3999 62.4699 46.3776L62.4725 46.3789Z" fill="#6F674D"/>
<path fill-rule="evenodd" clip-rule="evenodd" d="M35.3154 47.0208C35.3154 47.0208 36.109 47.616 37.0309 47.5929C37.9436 47.5724 39.1174 46.63 39.6591 46.0275C39.9798 45.6763 40.2543 45.3053 40.5519 45.0143C40.8032 44.7637 40.9731 44.6433 41.0935 44.4727C41.2641 44.2743 41.4447 43.9013 41.5353 43.7803C41.3144 43.9509 40.9936 44.2525 40.6623 44.4528C40.3416 44.6512 39.6491 45.0242 39.3681 45.1248C39.0976 45.2253 36.2883 46.712 36.2883 46.712L35.3154 47.0208Z" fill="#AC924C"/>
<path fill-rule="evenodd" clip-rule="evenodd" d="M36.5283 39.6078C36.5283 39.6078 36.9694 39.3069 37.8225 39.1158C38.6452 38.9174 40.3006 38.7646 40.3006 38.7646L41.6649 39.3598L42.2065 41.4166L41.2145 43.554L39.9507 44.3476L38.5156 42.0402L36.5316 39.6118L36.5283 39.6078Z" fill="#9F8E57"/>
<path fill-rule="evenodd" clip-rule="evenodd" d="M34.7437 41.4439L34.2715 41.7963C34.2715 41.7963 34.3925 41.5755 34.4924 40.9036C34.5922 40.2316 35.1147 38.5962 35.8772 37.6531C36.6397 36.7101 36.6199 36.7603 36.6199 36.7603C36.5497 36.7475 36.4776 36.7498 36.4084 36.767C36.3392 36.7842 36.2744 36.816 36.2185 36.8602C36.319 36.638 36.9611 35.8444 37.6033 35.4476C38.2454 35.0508 38.4961 34.9258 39.168 35.2492C39.8399 35.5726 40.0105 35.7406 40.5026 35.7207C40.9946 35.7009 41.4152 35.1791 41.4152 35.1791C41.4152 35.1791 41.5157 35.4998 41.1447 36.2425C40.7737 36.9852 39.3089 38.4996 39.3089 38.4996L36.2588 40.5861L34.7437 41.4458V41.4439Z" fill="#EAC970"/>
<path fill-rule="evenodd" clip-rule="evenodd" d="M36.9987 39.3575C36.9987 39.3575 39.2063 39.6585 39.8782 39.0368C39.898 39.1069 39.9787 39.1069 39.9787 39.1572C39.9733 39.195 39.9557 39.2301 39.9284 39.257C40.0015 39.2454 40.0753 39.2387 40.1493 39.2372C40.2377 39.2635 40.3286 39.2803 40.4205 39.2874C40.4945 39.2858 40.5683 39.279 40.6414 39.2669C40.6344 39.3168 40.6174 39.3648 40.5915 39.4079C40.5656 39.4511 40.5313 39.4886 40.4906 39.5183C40.5911 39.5183 40.689 39.5381 40.689 39.6181C40.689 39.6981 40.7088 39.9395 40.5885 39.9898C40.4887 40.0174 40.3826 40.0101 40.2876 39.9693C40.2955 40.1592 40.3471 40.3448 40.4383 40.5116C40.6367 40.8826 41.06 41.3052 41.6287 41.1835C41.6287 41.1835 41.929 41.9057 40.6652 43.5107C40.4952 43.7316 40.314 44.0325 40.0938 44.2832C40.0068 44.4728 39.9403 44.6713 39.8954 44.8751C39.8954 44.8751 42.0328 44.0524 42.6445 42.1762C43.2669 40.29 43.3872 38.4343 43.2669 36.699C43.2464 36.207 43.1663 35.8564 43.046 35.6051C42.7451 34.9828 41.9019 35.0833 41.5613 35.4345C41.0692 35.9265 40.2466 37.15 39.1031 37.9926C37.9392 38.8351 37.8896 38.9846 36.9961 39.3575H36.9987Z" fill="#D7BC6B"/>
<path fill-rule="evenodd" clip-rule="evenodd" d="M34.3499 42.0665C34.3499 42.0665 33.9286 42.3171 33.7078 43.2569C33.4869 44.2198 33.9062 45.3937 34.1489 45.7647C34.3916 46.1357 34.9425 47.1495 36.0852 47.1998C36.3681 47.1983 36.6478 47.1403 36.9079 47.0291C37.3069 46.8462 37.6811 46.6136 38.0216 46.3367C38.5137 45.9657 38.9144 45.645 38.8642 45.6145C38.7438 45.5643 35.8346 43.1564 35.8346 43.1564L34.7408 41.9355L34.3493 42.0678L34.3499 42.0665Z" fill="#585136"/>
<path fill-rule="evenodd" clip-rule="evenodd" d="M37.101 46.0585C37.101 46.0585 37.6929 46.0089 38.0441 45.788C38.3952 45.5671 35.9873 43.1797 35.9873 43.1797L36.1579 45.7589L37.101 46.0585Z" fill="#453A25"/>
<path fill-rule="evenodd" clip-rule="evenodd" d="M34.5413 41.8847C34.5413 41.8847 34.2404 42.4568 34.2404 42.6075C34.1901 43.0989 34.3409 44.6438 34.4613 45.1352C34.5817 45.6569 35.2337 46.4492 36.0769 46.4492C36.5981 46.4492 37.3209 46.1285 37.3209 46.0485C37.3209 45.9479 36.5782 45.8501 36.3778 45.4764C36.2575 45.278 36.2072 44.7847 36.1794 44.286C36.1596 43.9653 36.1596 43.6141 36.28 43.4924C36.5511 43.1915 36.6007 42.3285 36.6007 42.3285L37.5636 40.5396H36.2971L34.782 41.4826L34.5413 41.8847Z" fill="#84754B"/>
<path fill-rule="evenodd" clip-rule="evenodd" d="M34.1709 42.4372C34.1709 42.4372 35.1629 41.1231 36.057 40.8215C36.9512 40.52 37.3513 40.7012 37.3513 40.7012L36.8295 42.0357L36.0868 42.8584L36.1371 43.2797C36.1371 43.2797 36.016 44.3934 36.7587 45.1658C37.5014 45.9382 38.0529 45.9085 38.3744 45.9085C38.6958 45.9085 39.6183 45.6373 40.0899 44.5237C40.5111 43.4807 40.8623 42.1429 40.0198 40.8017C39.1964 39.4671 37.7421 39.4155 37.461 39.4155C37.18 39.4155 34.9731 39.526 34.1709 42.4352V42.4372Z" fill="#252211"/>
<path fill-rule="evenodd" clip-rule="evenodd" d="M59.6423 46.9011C59.2713 46.7305 59.6224 45.6876 59.9934 45.3662C60.3644 45.0448 60.836 44.6744 61.6593 44.6235C61.9596 44.6037 62.2506 44.7941 62.201 44.9952C62.1309 45.3662 61.6091 45.888 61.1375 46.259C60.4855 46.7708 60.0635 47.0916 59.6423 46.9011Z" fill="#F7F7E7"/>
<path fill-rule="evenodd" clip-rule="evenodd" d="M39.5777 41.2127C39.8489 41.1928 40.2 41.4111 40.2701 41.7047C40.3402 42.0255 40.0995 42.6676 39.5777 42.6676C39.1564 42.6676 38.9355 42.1458 38.9355 41.9957C38.9403 41.8723 38.9748 41.7518 39.0361 41.6445C39.0559 41.6141 39.1062 41.2629 39.5777 41.2127Z" fill="#F8F6DE"/>
<path fill-rule="evenodd" clip-rule="evenodd" d="M35.6654 41.4438C35.6654 41.4438 34.9729 41.7646 34.6522 42.4358C34.423 42.9315 34.3537 43.4862 34.4538 44.023C34.5041 44.2737 34.7547 44.8953 34.9253 45.1162C35.096 45.3371 35.3268 45.4879 35.4974 45.4674C35.668 45.4469 36.0185 44.9958 36.0185 44.7254C36.0185 44.4549 36.039 43.3108 36.3697 42.6885C36.6607 42.0668 35.6673 41.4445 35.6673 41.4445L35.6654 41.4438Z" fill="#D4C38B"/>
<path fill-rule="evenodd" clip-rule="evenodd" d="M35.7652 41.3935C35.6449 41.4636 35.4445 41.5642 35.4941 41.6944C35.5443 41.8148 35.9656 41.8929 36.1164 42.1865C36.287 42.4874 36.287 42.8081 36.2367 42.9589C36.3678 42.8967 36.4867 42.8116 36.5879 42.7076C36.8088 42.457 37.0793 42.1164 37.3101 42.1164C37.4609 42.1164 37.611 42.1865 37.7519 42.1865C37.9727 42.1865 38.193 42.1164 38.2234 41.8856C38.273 41.5847 37.8021 41.3135 37.531 41.3638C37.5812 41.1654 37.6513 40.8724 37.4305 40.6713C37.2096 40.4703 36.5178 40.8221 36.367 40.9227C36.2162 41.0232 35.7652 41.3942 35.7652 41.3942V41.3935Z" fill="#E2D59D"/>
<path fill-rule="evenodd" clip-rule="evenodd" d="M51.7066 62.4717L53.1913 62.0332L53.6126 62.3341C53.6126 62.3341 53.9128 62.9763 54.385 63.0563C54.2342 63.377 53.8427 63.6515 53.8632 63.879C53.8837 64.1065 54.0841 64.2804 54.0841 64.2804C54.0841 64.2804 52.7495 66.4873 55.3783 68.7113C54.756 68.962 53.9637 69.3065 53.5425 69.5049C53.8427 69.575 54.4849 69.7034 54.756 69.9467C55.0271 70.1901 55.0271 70.2675 55.2778 70.4183C55.5284 70.569 55.6786 70.7694 55.629 70.8594C55.4583 70.7588 54.8863 70.4586 54.7864 70.739C54.6866 71.0194 52.3084 70.9096 52.3084 70.9096L48.2954 71.6821C48.2954 71.6821 48.4456 71.2806 48.0243 70.9096C47.5329 70.4685 46.9311 70.9295 46.289 70.4381C45.4464 69.7959 45.416 69.0533 45.1455 68.7729C45.416 68.6022 45.9682 68.3516 47.2823 68.1777C47.232 68.0771 47.0614 67.7762 47.1619 67.5057C47.2823 67.1546 47.7836 66.9337 47.6334 66.5137C47.8543 66.4635 47.9542 66.4635 48.5064 65.7711C49.0282 65.0786 49.3489 64.9285 49.7504 64.8783C50.1518 64.828 50.3925 64.8783 51.1352 64.1858C51.6563 63.6945 51.4864 63.2732 51.4864 63.2732C51.4864 63.2732 51.827 63.1628 51.7073 62.4703L51.7066 62.4717Z" fill="#CBAC5A"/>
<path fill-rule="evenodd" clip-rule="evenodd" d="M47.3217 62.6943C47.3415 62.5938 47.4222 62.5435 47.9638 62.5938C48.5054 62.644 51.9365 62.273 52.8696 62.2228C53.8127 62.1527 57.1332 62.2023 58.7489 62.5435C60.3645 62.8848 61.9993 63.2862 62.7916 63.4866C63.5852 63.7075 63.8352 63.7868 63.8048 63.8874C63.7849 63.9879 63.6064 64.0858 63.5039 64.058C63.404 64.0382 60.7752 63.2353 59.9631 63.066C59.1509 62.8967 56.3409 62.4436 54.8047 62.4708C53.3702 62.4913 52.7982 62.4509 51.5846 62.5911C50.3704 62.7419 48.3639 62.9423 47.7621 62.8623C47.1669 62.7922 47.2899 62.7922 47.3203 62.6917L47.3217 62.6943Z" fill="#D6BC6F"/>
<path fill-rule="evenodd" clip-rule="evenodd" d="M55.398 70.5577C55.398 70.5577 57.4547 71.6713 58.1974 73.0357C58.739 74.0488 57.8766 74.5508 57.8766 74.5508C57.8766 74.5508 59.0406 74.5508 58.8898 75.1929C58.8197 75.5937 56.8833 76.677 55.5891 77.249C54.275 77.8211 54.3253 77.7913 53.6831 77.8912C53.0608 77.9917 51.3552 77.6928 51.0041 78.1921C50.6529 78.6914 50.8057 79.2059 50.9035 79.2859C51.0041 79.356 51.8168 79.4565 51.8168 79.4565C51.8168 79.4565 51.6462 79.9281 49.9611 79.9783C48.2761 80.0286 47.8541 80.1483 47.7536 80.3295C47.6531 80.4995 48.0744 80.3996 48.8475 80.5279C49.6199 80.6483 50.7032 80.7263 50.7032 80.7263C50.7032 80.7263 50.352 81.0272 49.4394 81.2679C48.3958 81.5384 46.7603 81.7897 46.2689 82.0906C46.5196 82.2612 46.8912 82.5119 47.0625 82.5317C46.6413 82.6322 46.0487 82.8531 45.9488 82.9332C46.099 83.0337 46.3 83.154 46.3 83.154C46.3 83.154 45.4568 84.1672 44.9654 84.4185C44.4741 84.6698 41.6449 85.9832 40.6714 85.7326C38.2436 85.0904 37.9427 82.4319 37.3508 82.2315C36.458 81.9306 36.0368 82.5317 35.2438 82.1105C35.595 81.8598 35.7861 81.7097 36.1571 81.5391C35.7557 81.3407 33.6791 80.024 33.6791 80.024C33.462 79.5507 33.2209 79.0887 32.957 78.6398C32.5555 77.9474 31.965 77.0242 31.5219 76.2114C30.559 74.4258 30.5087 73.6031 29.6357 72.5899C29.7865 72.3915 30.3077 72.4193 30.3077 72.4193L37.622 74.8272L50.5914 75.2029L53.9642 70.3877L55.3986 70.5583L55.398 70.5577Z" fill="#DFC677"/>
<path fill-rule="evenodd" clip-rule="evenodd" d="M36.1875 77.9009C36.2658 77.988 36.357 78.0626 36.458 78.1218C36.7093 78.2925 37.0803 78.4935 37.3309 78.7937C37.4315 78.6436 37.6821 78.3725 38.1245 78.7937C38.567 79.215 39.1165 78.9148 39.4585 79.0146C39.8096 79.1357 39.8295 79.1853 39.8295 79.1853C39.8295 79.1853 40.0279 79.0146 40.4716 78.8341C40.7428 78.7336 41.0635 78.6635 41.4147 78.5636C41.7354 78.4935 42.0866 78.393 42.328 78.393C42.5489 78.5431 43.3411 79.385 46.5215 78.1423C49.5213 76.9784 50.2131 76.8481 50.715 77.028C50.7653 76.9076 50.8155 76.6768 51.588 76.7072C51.588 76.3865 50.9458 75.2926 50.9458 75.2926L47.4044 74.0791H45.4673L39.6588 75.1425L36.4401 76.979L36.1895 77.9049L36.1875 77.9009Z" fill="#C4A859"/>
<path fill-rule="evenodd" clip-rule="evenodd" d="M34.25 75.865C34.25 75.865 34.3201 76.4067 35.123 76.9787C35.9166 77.5501 36.1659 77.8914 36.1659 77.8914C36.1659 77.8914 36.3167 77.693 36.437 77.4906C36.5574 77.2697 36.6579 77.0191 36.8583 76.949C37.2597 76.7783 38.1724 77.0991 38.3734 77.0488C38.544 76.9992 38.4938 76.6481 38.6743 76.6481C39.0956 76.6276 39.3661 76.9185 39.5169 76.9185C39.6676 76.9185 40.038 76.8987 40.0882 76.8187C40.1385 76.7387 40.1584 75.9054 40.7304 75.504C41.3527 75.0628 42.1152 75.2533 42.3176 75.3538C42.3176 75.504 42.3374 75.8756 42.7389 75.8955C43.1403 75.9153 43.18 75.8452 43.5325 75.9656C43.885 76.0859 44.3049 75.9457 44.4954 76.537C44.666 76.4874 45.0674 76.4371 44.9669 75.865C45.1653 75.7149 45.3386 75.6144 45.7605 75.0225C45.861 74.8724 46.031 74.7018 46.1619 74.4809C46.5131 74.4809 46.9344 74.4108 47.4958 74.9021C47.3252 75.0225 47.2247 75.1005 47.1751 75.2229C47.3219 75.3683 47.456 75.5261 47.5759 75.6944C47.7267 75.8928 47.8272 76.1362 48.0176 76.1865C48.4389 76.3068 49.1313 76.1362 49.9038 76.1865C50.6464 76.2367 51.2681 76.5072 51.5392 76.6778C51.6398 76.6282 51.6398 76.6077 51.8904 76.658C52.1411 76.7082 52.3315 76.7281 52.061 76.4073C52.2111 76.4774 52.3818 76.6282 52.5326 76.4774C52.6833 76.3267 52.803 76.1064 53.2243 76.0562C53.6456 76.0059 53.7964 76.076 53.967 75.6349C54.1879 75.0933 53.4254 75.0933 53.4254 75.0933C53.4254 75.0933 53.7765 74.7719 54.168 74.3506C54.6396 73.9095 55.1812 73.3374 55.3115 72.6351C55.5324 71.3409 54.2686 71.1709 54.2686 71.1709L48.1387 73.057L40.6444 72.6853L34.254 75.8657L34.25 75.865Z" fill="#927D49"/>
<path fill-rule="evenodd" clip-rule="evenodd" d="M28.7425 58.1575C28.7425 58.1575 28.5441 58.4082 28.4218 59.0001C28.2994 59.592 28.3517 59.5219 28.2512 59.9431C28.1506 60.3644 26.9159 64.558 27.3789 65.9726C27.8418 67.3871 28.6433 67.9089 29.1446 69.0524C29.2451 69.303 29.343 69.4538 29.3953 69.6747C29.5659 70.4167 29.4158 70.9888 29.6161 71.7315C29.6862 71.9821 29.8675 72.2731 30.1379 72.574C30.7331 73.1957 31.7033 73.7876 32.1219 74.2088C32.7132 74.8311 33.5564 76.0956 34.6297 76.2153C35.2018 76.2854 36.0145 76.0447 36.6864 75.6439C37.2816 75.2723 37.6494 74.7511 38.2736 74.4535C38.7148 74.2326 39.1863 74.1526 39.6076 74.0521C40.4805 73.8815 41.2735 73.8537 41.745 73.9516C42.4672 74.1024 44.1727 74.6242 45.1178 74.6242C45.8562 74.6122 46.5906 74.5112 47.3048 74.3232C48.7392 73.902 50.4746 73.1791 51.6187 72.8584C52.2906 72.66 52.8322 72.6077 53.3844 72.4874C54.3275 72.2665 55.1198 71.9656 55.5715 71.3935C55.2706 71.0424 54.8995 70.5007 52.8924 70.5206C50.6154 70.5708 47.9866 71.8346 46.6924 72.0357C45.3982 72.2367 44.8367 72.4067 43.3917 71.8849C41.9751 71.3578 41.9282 71.0093 41.9282 71.0093C41.9282 71.0093 40.4408 69.969 39.8185 67.317C39.1962 64.6651 39.8185 62.7327 41.4342 60.8961C41.8554 60.4246 41.7549 60.0033 41.7549 60.0033C41.7549 60.0033 42.8183 58.5689 42.5273 57.2257C42.2066 55.8911 40.1498 56.1623 40.1498 56.1623L28.7432 58.1575H28.7425Z" fill="#6E6342"/>
<path fill-rule="evenodd" clip-rule="evenodd" d="M30.4587 62.6221C30.3702 62.7884 30.3286 62.9756 30.3383 63.1637C30.3581 63.4342 30.4388 63.7854 31.2509 64.5783C31.9433 65.2701 31.7926 66.0426 31.7926 66.0426C31.7926 66.0426 32.1411 66.1127 33.0868 65.6702C33.8295 65.319 34.0788 65.9414 34.0788 65.9414C34.295 65.828 34.5293 65.7532 34.7712 65.7205C34.9904 65.7003 35.2025 65.6326 35.3929 65.5221C35.3929 65.5221 36.2658 66.4149 37.0283 66.8362C37.7207 67.2078 38.1222 67.4585 38.4634 67.2078C38.7842 66.987 38.7842 66.5353 38.7637 66.3349C38.6841 66.1499 38.5833 65.9748 38.4634 65.8131C38.2425 65.4923 37.8914 65.1206 37.8682 64.821C37.818 64.1293 38.39 63.3059 38.269 63.1055C38.148 62.9051 37.6976 62.8549 36.5839 63.2563C35.4306 63.6372 30.454 62.6241 30.454 62.6241L30.4587 62.6221Z" fill="#39331F"/>
<path fill-rule="evenodd" clip-rule="evenodd" d="M33.0875 67.1073C33.0875 67.1073 32.5161 66.5657 32.7164 63.9369C32.959 63.9333 33.2013 63.9569 33.4386 64.007C33.4386 64.007 33.7501 66.0439 33.0875 67.1073Z" fill="#292311"/>
<path fill-rule="evenodd" clip-rule="evenodd" d="M29.0138 56.1515C29.0936 56.0925 29.1675 56.0261 29.2347 55.9531C29.0363 56.3241 28.1204 57.8088 28.8631 60.1466C29.6057 62.4738 31.4713 64.2092 33.7688 64.2899C36.0663 64.3705 37.2739 63.2463 38.6548 61.5612C39.1964 60.8893 39.8187 60.0461 40.3703 59.4747C41.193 58.5812 41.8351 58.3306 41.8351 57.4682C41.8351 55.7025 40.029 54.9095 37.3704 54.1172C34.7119 53.325 32.3139 53.4229 31.0699 53.9651C29.8564 54.5564 29.3346 55.1787 29.0132 56.1522L29.0138 56.1515Z" fill="#252211"/>
<path fill-rule="evenodd" clip-rule="evenodd" d="M37.5518 67.8988L37.7502 67.7983C37.7502 67.7983 37.7998 67.0046 38.1212 67.0258C38.4419 67.0761 38.5927 67.498 38.5623 67.6482C38.5424 67.7983 38.4624 68.0496 38.141 68.0192C37.7198 68.0291 37.5498 67.8988 37.5498 67.8988H37.5518Z" fill="#3F3824"/>
<path fill-rule="evenodd" clip-rule="evenodd" d="M36.6582 64.5285C36.6582 64.5285 36.8566 64.4584 37.0993 64.6992C37.2977 64.6992 38.1627 64.5986 38.4339 64.7693C38.705 64.9399 38.785 65.09 38.785 65.09C38.785 65.09 37.7719 65.3109 37.2197 65.09C36.6582 64.8995 36.6582 64.5285 36.6582 64.5285Z" fill="#2D2815"/>
<path fill-rule="evenodd" clip-rule="evenodd" d="M41.1217 64.6778C41.1217 64.6276 40.5801 64.2565 40.008 64.1355C39.9075 64.1157 39.887 64.1858 39.8096 64.1858C39.7594 64.1659 39.7395 64.0151 39.7395 64.0151L39.4141 64.1864C39.4141 64.1864 39.3639 64.2565 39.5345 64.3848C39.6846 64.5052 39.9359 64.6057 40.006 64.8061C40.0761 65.0065 40.0761 65.0766 40.1066 65.1071C40.1264 65.1269 40.4776 65.1071 40.6482 65.0065C40.8188 64.906 41.1402 64.742 41.1197 64.6758L41.1217 64.6778Z" fill="#82764F"/>
<path fill-rule="evenodd" clip-rule="evenodd" d="M36.0557 66.7151C36.0557 66.7151 36.1555 66.0233 36.8281 65.9929C37.5199 65.9427 37.6508 66.6146 37.6508 66.6146L37.2494 67.016C37.2494 67.0061 36.9485 66.5848 36.059 66.7151H36.0557Z" fill="#2D2816"/>
<path fill-rule="evenodd" clip-rule="evenodd" d="M40.4207 63.7352C40.4207 63.7352 40.049 64.1366 39.227 64.257C39.1569 64.1565 39.0061 63.9561 39.227 63.6353C39.4479 63.3145 39.6985 63.214 39.9492 63.3139C40.0598 63.3318 40.1629 63.381 40.2465 63.4556C40.33 63.5303 40.3905 63.6273 40.4207 63.7352Z" fill="#574F35"/>
<path fill-rule="evenodd" clip-rule="evenodd" d="M41.9356 64.2277C41.9561 64.1272 41.886 64.1073 41.9356 64.0571C41.9852 64.0068 42.257 63.9069 42.3073 63.9565C42.3271 63.977 42.3073 64.0571 42.3073 64.1549C42.3073 64.2528 42.3073 64.3533 42.257 64.4254C42.1869 64.5259 41.9865 64.5762 41.886 64.5464C41.7855 64.5167 41.7656 64.3758 41.7656 64.348C41.8152 64.3282 41.9356 64.2779 41.9356 64.2277ZM43.6484 63.1444C43.6484 63.0942 43.8191 62.9937 43.9196 62.9937C44.0697 62.9937 44.0697 63.114 44.0902 63.1444C44.1398 63.1643 44.1398 63.1239 44.1901 63.2145C44.2403 63.3051 44.3111 63.4652 44.2602 63.5657C44.2093 63.6662 44.0095 63.7357 43.9599 63.7158C43.8898 63.6656 43.6689 63.2145 43.6484 63.1444Z" fill="#82764F"/>
<path fill-rule="evenodd" clip-rule="evenodd" d="M40.2002 64.4582C40.2002 64.4582 40.4211 64.5078 40.722 64.7591C40.6215 64.8292 40.4707 64.9092 40.4707 64.9092C40.4707 64.9092 40.4508 64.6784 40.2002 64.4575V64.4582Z" fill="#6E6342"/>
<path fill-rule="evenodd" clip-rule="evenodd" d="M39.7081 62.2506C39.6579 62.201 39.8583 62.0806 39.9786 62.1005C40.099 62.1203 40.1492 62.201 40.2795 62.2208C40.4098 62.2407 40.4303 62.1706 40.4779 62.1203C40.5255 62.07 40.6988 62.1005 40.7286 62.1203C40.7471 62.1423 40.7639 62.1658 40.7788 62.1904C40.7809 62.1522 40.7909 62.1149 40.8081 62.0808C40.8253 62.0466 40.8493 62.0164 40.8787 61.992C40.9172 61.9637 40.9616 61.9445 41.0085 61.9358C41.0555 61.9271 41.1038 61.9291 41.1498 61.9417C41.1697 62.0118 41.2702 62.2625 41.2504 62.3127C41.2305 62.363 40.9296 62.4338 40.8787 62.3828C40.929 62.5039 41.1498 62.7545 41.1796 62.8041C41.2094 62.8537 40.9587 62.9747 40.8589 62.9549C40.7187 62.945 39.8556 62.443 39.7055 62.2526L39.7081 62.2506ZM41.0222 60.5853C41.0036 60.5348 40.9681 60.4923 40.9217 60.465C40.8516 60.4451 40.6208 60.465 40.6208 60.5853C40.6208 60.7057 40.8192 61.3789 41.042 61.7294C41.2934 62.0806 41.4633 62.3709 41.6339 62.4516C41.6875 62.476 41.7483 62.4792 41.8042 62.4606C41.86 62.4419 41.9067 62.4028 41.9348 62.3511C41.9547 62.3008 42.005 61.9298 41.9851 61.0569C41.9653 60.1839 41.9349 59.3414 41.8846 59.2911C41.8343 59.2409 41.6339 59.2415 41.5638 59.3414C41.4937 59.4412 41.042 60.4352 41.0215 60.5853H41.0222Z" fill="#585136"/>
<path fill-rule="evenodd" clip-rule="evenodd" d="M40.1283 65.7219C40.1283 65.7219 39.7771 65.501 39.4359 65.6518C39.1152 65.8026 39.135 66.3945 39.135 66.3945C39.2072 66.4227 39.2851 66.4329 39.3621 66.4242C39.4391 66.4154 39.5128 66.388 39.5768 66.3442C39.7976 66.1941 40.078 65.9434 40.1283 65.7226V65.7219Z" fill="#574F35"/>
<path fill-rule="evenodd" clip-rule="evenodd" d="M40.7912 66.5154C40.7713 66.317 40.5928 66.317 40.5928 66.2145C40.6051 66.1655 40.6335 66.122 40.6734 66.0911C40.7133 66.0602 40.7625 66.0435 40.813 66.0439C40.9135 66.0439 41.0114 66.1642 41.1344 66.2423C41.2548 66.3124 41.4353 66.4407 41.4552 66.5934C41.475 66.7462 41.2568 67.1648 41.014 67.1648C40.7713 67.1648 40.8434 66.7131 40.7932 66.5127L40.7912 66.5154ZM42.7276 66.2442C42.7276 66.2442 42.3261 66.3646 42.3559 66.2442C42.3856 66.1239 42.4769 66.0941 42.6072 66.0941C42.6734 66.0248 42.7624 65.9819 42.8578 65.9731C42.9124 65.9704 42.966 65.9883 43.008 66.0234C43.008 66.0234 43.2791 65.903 43.3591 65.9731C43.4392 66.0432 43.3796 66.0432 43.4292 66.1239C43.4924 66.2134 43.5338 66.3164 43.5503 66.4248C43.5503 66.5048 43.2494 66.6754 43.008 66.6457C42.7276 66.5855 42.7772 66.2945 42.7276 66.2442ZM45.0647 65.7926C45.0647 65.7926 45.1851 65.8627 45.0852 65.9433C45.0151 66.0134 44.6639 66.1417 44.3624 66.1642C44.0615 66.1642 43.791 66.2138 43.791 66.114C43.791 66.0141 44.0416 65.8131 44.1917 65.7628C44.2219 65.7251 44.2601 65.6947 44.3036 65.6738C44.3471 65.653 44.3948 65.6423 44.4431 65.6424C44.5634 65.6424 45.0343 65.5922 45.1652 65.5723C45.2856 65.5518 45.3861 65.6219 45.3154 65.7225C45.2856 65.7926 45.0647 65.7926 45.0647 65.7926ZM45.7571 62.6949C45.7571 62.6949 45.6063 63.0156 45.4364 63.0156C45.2658 62.9958 45.2658 62.9455 45.2658 62.8953C45.2658 62.8252 45.4364 62.6446 45.4159 62.5944C45.3663 62.5944 45.2453 62.5944 45.2658 62.474C45.2658 62.3735 45.4364 62.2531 45.5865 62.2756C45.6999 62.1824 45.8412 62.1296 45.9879 62.1255C46.1586 62.1255 46.3087 62.1751 46.3087 62.2756C46.3087 62.3761 46.1103 62.5964 46.0375 62.6473C45.9575 62.7273 45.857 62.7795 45.7571 62.6969V62.6949ZM43.4696 68.6237C43.4696 68.6237 43.2712 68.6442 43.2712 68.7441C43.2712 68.7943 43.3208 68.7943 43.3915 68.7646C43.4323 68.7623 43.4727 68.7554 43.5119 68.7441C43.5317 68.7646 43.5317 68.8644 43.6825 68.8644C43.8063 68.8477 43.9257 68.8068 44.0337 68.7441C44.1541 68.6945 44.2546 68.6435 44.2546 68.5457C44.2043 68.375 44.1038 68.2944 43.9537 68.2944C43.8767 68.2895 43.8 68.3069 43.7328 68.3446C43.7328 68.3446 43.6825 68.2441 43.5119 68.3446C43.3413 68.4451 43.3611 68.4451 43.4114 68.4954C43.5013 68.5754 43.4716 68.6277 43.4716 68.6277L43.4696 68.6237ZM42.336 69.6673C42.336 69.617 42.5867 69.5165 42.6568 69.5469C42.7269 69.5668 42.9273 69.9477 42.9273 69.988C42.9273 70.0383 42.6766 70.1586 42.5761 70.1586C42.4756 70.1586 42.3056 69.988 42.3056 69.9602C42.3056 69.9404 42.426 69.9106 42.426 69.8901C42.4558 69.8405 42.336 69.7195 42.336 69.6693V69.6673ZM41.5424 68.2024C41.5927 68.1826 41.5927 68.1323 41.6628 68.0821C41.6848 68.0675 41.7098 68.0581 41.7359 68.0547C41.762 68.0512 41.7886 68.0538 41.8136 68.0622C41.8313 68.0307 41.8558 68.0034 41.8853 67.9825C41.9148 67.9616 41.9486 67.9475 41.9842 67.9412C42.1046 67.9214 42.2051 67.9412 42.1826 67.9915C42.1826 68.1423 42.2831 68.2421 42.2831 68.3625C42.2831 68.4828 42.213 68.6336 41.9624 68.7341C41.7118 68.8042 41.3705 68.8042 41.3202 68.7844C41.27 68.7646 41.2197 68.5635 41.27 68.463C41.3202 68.3625 41.4604 68.2527 41.5411 68.2024H41.5424Z" fill="#82764F"/>
<path fill-rule="evenodd" clip-rule="evenodd" d="M41.8617 68.2695C41.8617 68.2695 41.6911 68.37 41.6911 68.4203C41.676 68.4688 41.6692 68.5196 41.6712 68.5704C41.6712 68.6002 41.8921 68.5506 41.9219 68.5202C41.9318 68.5003 41.8617 68.3218 41.8617 68.2695Z" fill="#6E6342"/>
<path fill-rule="evenodd" clip-rule="evenodd" d="M40.3705 67.7985C40.4704 67.819 40.641 67.7985 40.7713 67.8488C40.8718 67.8991 40.9419 67.9996 40.8414 68.1199C40.7409 68.2403 40.643 68.4208 40.4201 68.3904C40.1695 68.3706 39.9288 68.2403 39.9288 68.1398C39.9246 68.0762 39.933 68.0124 39.9537 67.9521C39.9744 67.8918 40.0068 67.8363 40.0491 67.7886C40.1497 67.7086 40.1993 67.7589 40.3699 67.7985H40.3705Z" fill="#585136"/>
<path fill-rule="evenodd" clip-rule="evenodd" d="M40.2508 67.8989C40.2508 67.8989 39.93 68.1496 39.8493 68.2706C39.7488 68.391 39.2574 69.0126 39.1073 69.1429C39.1572 69.0549 39.214 68.9711 39.2773 68.8922C39.0789 69.0191 38.9301 69.2104 38.856 69.4339C38.7356 69.8056 39.5286 70.0059 40.0497 70.1567C40.5709 70.3075 40.7726 70.3551 40.7726 70.3551C40.5807 70.0668 40.416 69.7613 40.2805 69.4425C40.0821 68.971 39.9796 68.9207 40.1099 68.6998C40.2104 68.4789 40.3612 68.3288 40.3612 68.1582C40.301 67.9995 40.2508 67.8989 40.2508 67.8989Z" fill="#574F35"/>
<path fill-rule="evenodd" clip-rule="evenodd" d="M28.8128 68.6924C28.8859 68.7058 28.9607 68.7058 29.0337 68.6924C29.1839 68.6719 30.7492 68.0972 32.3847 68.2004C33.609 68.2744 34.8226 68.4738 36.0062 68.7956C38.0629 69.3372 40.6209 70.4105 42.2763 71.0229C42.7174 71.1929 43.1492 71.4944 43.4667 71.6141C44.7311 72.1061 44.7807 72.1061 45.5234 72.2364C46.3964 72.3568 47.2892 72.0658 48.2223 71.8654C49.3657 71.6141 51.322 71.4938 53.0375 71.2431C53.5922 71.1662 54.1393 71.0421 54.6729 70.8721C54.6729 70.8721 53.3086 72.2364 50.0377 72.7278C48.7155 72.9286 47.372 72.9455 46.0452 72.778C45.0016 72.6775 44.3099 72.5267 43.7881 72.3766C43.1962 72.206 41.982 71.7543 40.4874 71.3846C39.4438 71.1135 38.2798 70.9131 36.9459 70.6625C33.6551 70.06 30.0839 69.3683 28.8115 68.6964L28.8128 68.6924Z" fill="#252211"/>
<path fill-rule="evenodd" clip-rule="evenodd" d="M25.1218 62.4917C24.3282 63.1636 23.4863 63.8058 22.6643 64.4274L20.1863 66.3314C19.3437 66.953 18.521 67.5952 17.6778 68.2175C16.8346 68.8398 15.9928 69.431 15.0986 70.0031C15.8922 69.3312 16.7341 68.7088 17.5767 68.0971C18.4192 67.4854 19.2928 66.8856 20.1056 66.2652L22.5836 64.3586C23.4361 63.737 24.2588 63.0948 25.1218 62.493V62.4917ZM20.7378 69.5143C20.7378 69.5143 21.6306 68.7717 22.7443 67.7288C24.1285 66.4352 25.8242 64.7792 26.3658 64.479L20.7372 69.515L20.7378 69.5143Z" fill="#CFB66C"/>
<path fill-rule="evenodd" clip-rule="evenodd" d="M20.7363 69.514C21.1781 69.0729 21.6496 68.6417 22.1212 68.2198L22.8433 67.5981C23.0642 67.3997 23.3155 67.1769 23.5358 66.956C23.9769 66.5149 24.4087 66.0427 24.8498 65.5917C25.0685 65.3649 25.2996 65.1505 25.5422 64.9495C25.6635 64.8422 25.7982 64.7511 25.943 64.6784C26.064 64.6083 26.1943 64.48 26.3643 64.4575C26.2644 64.6083 26.1441 64.6784 26.0435 64.8087C25.9232 64.9092 25.8226 65.0296 25.7228 65.1294C25.5019 65.3503 25.2513 65.5507 25.0304 65.7517C24.5588 66.1531 24.0675 66.5453 23.5959 66.9652C23.1244 67.3852 22.6833 67.8382 22.2111 68.2594C21.6999 68.6913 21.2284 69.1125 20.7363 69.5159V69.514ZM26.7359 65.5011C26.7359 65.5011 23.4657 68.7019 22.7931 69.223L26.7359 65.5011Z" fill="#CFB66C"/>
<path fill-rule="evenodd" clip-rule="evenodd" d="M26.7358 65.5005C26.4416 65.841 26.1262 66.1626 25.7915 66.4634L24.7995 67.4065C24.4787 67.7272 24.1771 68.0486 23.8366 68.3694C23.4854 68.6703 23.1646 68.9646 22.793 69.2423L23.7559 68.2993C24.0773 67.9785 24.4284 67.708 24.7697 67.3866L25.7326 66.4436C26.0633 66.1129 26.3847 65.7915 26.7358 65.5005ZM26.886 67.2358C26.5845 68.0772 26.2293 68.8983 25.8225 69.694C24.98 71.3798 23.7162 73.4861 23.164 74.5602L26.886 67.2358Z" fill="#CFB66C"/>
<path fill-rule="evenodd" clip-rule="evenodd" d="M26.8869 67.2368C26.8869 67.6078 26.7863 67.9292 26.666 68.25C26.5487 68.571 26.4149 68.8858 26.2652 69.193C26.1144 69.4939 25.9438 69.8153 25.7732 70.1063C25.6026 70.3973 25.4022 70.6975 25.2514 70.9991L24.2382 72.7847C23.8871 73.3799 23.5458 73.9784 23.1748 74.5504C23.4255 73.9083 23.7667 73.3065 24.0881 72.7146C24.4393 72.1194 24.76 71.5242 25.0801 70.9085C25.2364 70.6017 25.377 70.2872 25.5014 69.9661C25.6515 69.6447 25.8016 69.3438 25.9226 69.0528C26.0728 68.7321 26.1931 68.4305 26.3439 68.1402C26.5139 67.8287 26.6547 67.5278 26.8855 67.2368H26.8869Z" fill="#CFB66C"/>
<path fill-rule="evenodd" clip-rule="evenodd" d="M30.4584 75.4634C30.4584 75.4634 29.4664 76.7775 29.5656 78.4427C29.8361 77.5704 30.1773 76.2358 30.4584 75.4634ZM31.4014 76.7808C31.4014 76.7808 31.0503 80.352 30.7593 82.1078C31.1706 80.0782 31.2506 80.2488 31.4014 76.7808ZM37.9724 82.3188C37.9724 82.3188 36.4877 86.6836 36.4573 87.8964C36.7787 86.6492 37.4004 84.101 37.9724 82.3154V82.3188Z" fill="#DEC270"/>
<path fill-rule="evenodd" clip-rule="evenodd" d="M41.4434 75.1934C41.4434 75.1934 43.8513 79.166 45.6574 82.5566C45.1687 80.8504 44.0444 77.721 41.4434 75.1934Z" fill="#CBAF59"/>
<path fill-rule="evenodd" clip-rule="evenodd" d="M47.915 81.042C49.2371 83.3789 50.4293 85.787 51.4862 88.2552C51.2859 86.5496 50.7436 83.6305 47.915 81.042Z" fill="#E3C677"/>
<path fill-rule="evenodd" clip-rule="evenodd" d="M66.9361 86.8992C67.3369 86.6486 68.1299 85.2836 68.8223 84.943C69.514 84.5918 70.0358 84.5217 70.6581 83.8293C71.2798 83.1065 71.4517 82.6653 72.8147 82.094C74.7214 81.2706 73.4099 80.2072 73.4099 80.2072C73.62 80.0009 73.8445 79.8099 74.0818 79.6358C74.5739 79.2648 75.1453 78.8131 75.0957 78.0201C75.0256 76.6862 74.7749 74.7499 73.6811 73.6262C74.7445 73.4054 76.7807 73.2552 78.0459 72.9345C79.5101 72.5628 80.1826 72.041 80.1826 72.041C80.1826 72.041 79.3401 70.6066 80.7044 69.1622C82.0688 67.7179 83.1824 66.8549 84.0051 65.2392C83.0621 65.1189 81.6243 64.6176 77.9553 66.0117C78.1533 66.1048 78.3445 66.212 78.5273 66.3324C78.5273 66.3324 76.2702 66.9547 75.4475 67.6471C74.0124 68.8607 73.8319 69.854 72.2771 70.5967C70.7223 71.3394 69.1569 71.1383 67.8633 71.7401C66.5698 72.3419 66.3786 72.8538 65.9065 73.0747C66.007 73.1951 65.8866 73.3954 66.0771 73.5661C65.9567 73.7367 65.2544 74.8801 64.5421 74.8801C64.6122 75.1513 65.214 75.3517 65.214 75.3517C65.214 75.3517 64.7729 75.6731 63.6493 75.7531C64.2207 76.3483 64.763 76.9971 66.2576 77.9401C66.1373 78.1908 65.6353 78.5624 65.8364 79.034C66.0572 79.5055 66.6299 80.1477 68.9162 80.6694C67.7522 80.719 66.3886 80.9902 64.5514 80.7395C62.7155 80.5187 62.4146 80.3884 61.2811 80.6694C61.4015 80.7898 61.7222 80.7898 62.0033 81.1105C61.7024 81.1304 59.8162 80.8897 59.1741 81.7329C58.5022 82.6052 58.2112 84.0403 58.2614 85.0032C57.9103 85.1738 57.569 85.4747 57.7397 86.097C57.9103 86.7193 58.8031 86.9197 59.3751 87.3105C59.9465 87.7318 59.9968 87.8819 60.5391 87.7821C61.1105 87.6617 61.953 87.0903 62.445 87.0903C62.9371 87.0903 63.2876 87.4613 63.2876 87.4613C63.2876 87.4613 64.6221 86.8192 64.7524 86.9395C64.8728 87.0599 64.7723 87.8323 64.9026 87.9527C65.0348 88.0433 66.538 87.1505 66.9395 86.8992H66.9361Z" fill="#ECD592"/>
<path fill-rule="evenodd" clip-rule="evenodd" d="M96.1002 46.7515C89.8301 30.5594 74.3298 27.5596 74.3298 27.5596H30.1071L30.2777 44.0526H39.0847V80.8816H30.1064V97.3448H73.1057C83.4688 97.3448 91.7758 86.9308 91.7758 86.9308C105.078 68.0504 96.0996 46.7515 96.0996 46.7515H96.1002ZM73.3365 75.8349C73.3365 75.8349 69.9637 80.701 66.2939 80.701H58.9531L58.7792 44.0929H68.1999C68.1999 44.0929 72.5647 45.0055 75.6141 53.6432C75.6141 53.6432 79.6568 66.0101 73.3365 75.8349Z" fill="white" fill-opacity="0.8"/>
</svg>
