<svg id="svg" version="1.1" xmlns="http://www.w3.org/2000/svg" xmlns:xlink="http://www.w3.org/1999/xlink" width="400" height="403.64741641337383" viewBox="0, 0, 400,403.64741641337383"><g id="svgg"><path id="path0" d="M203.647 37.708 C 203.647 37.885,203.523 37.953,203.370 37.859 C 203.012 37.637,201.078 39.680,200.357 41.041 C 199.216 43.197,198.627 44.229,198.453 44.377 C 198.154 44.631,194.833 50.528,194.833 50.805 C 194.833 50.947,194.730 51.065,194.605 51.066 C 194.479 51.068,194.230 51.375,194.051 51.750 C 193.871 52.125,192.832 54.005,191.741 55.927 C 190.650 57.850,189.497 59.901,189.180 60.486 C 188.862 61.071,188.519 61.618,188.418 61.702 C 188.317 61.786,187.661 62.880,186.961 64.134 C 185.376 66.972,185.421 66.894,183.918 69.394 C 183.234 70.533,182.675 71.505,182.675 71.554 C 182.675 71.604,181.969 72.862,181.106 74.348 C 180.243 75.835,179.332 77.462,179.081 77.964 C 178.829 78.465,178.259 79.422,177.813 80.091 C 177.367 80.760,176.410 82.401,175.686 83.739 C 174.962 85.076,174.130 86.516,173.838 86.939 C 173.546 87.361,172.973 88.319,172.565 89.066 C 172.158 89.814,171.308 91.315,170.677 92.401 C 169.539 94.360,168.716 95.823,167.600 97.872 C 167.282 98.457,166.939 99.004,166.837 99.088 C 166.679 99.219,165.502 101.249,163.577 104.711 C 163.298 105.213,162.933 105.724,162.766 105.846 C 162.599 105.969,162.574 106.072,162.711 106.074 C 162.847 106.077,162.667 106.490,162.309 106.992 C 161.741 107.790,159.294 112.026,157.569 115.197 C 157.251 115.782,156.922 116.329,156.839 116.413 C 156.755 116.497,156.491 116.907,156.252 117.325 C 156.013 117.743,155.388 118.837,154.863 119.757 C 154.338 120.676,153.713 121.771,153.474 122.188 C 153.235 122.606,152.903 123.049,152.736 123.172 C 152.568 123.294,152.555 123.397,152.707 123.400 C 152.858 123.402,152.771 123.644,152.512 123.936 C 152.087 124.418,148.612 130.444,147.474 132.675 C 147.218 133.176,146.914 133.655,146.799 133.739 C 146.480 133.970,145.459 135.987,145.530 136.246 C 145.565 136.372,145.456 136.474,145.289 136.474 C 145.122 136.474,144.985 136.602,144.985 136.758 C 144.985 137.030,144.062 138.638,142.153 141.694 C 141.665 142.475,141.316 143.179,141.377 143.258 C 141.439 143.337,141.267 143.655,140.995 143.965 C 140.481 144.550,138.603 147.784,135.990 152.583 C 135.671 153.168,135.330 153.715,135.232 153.799 C 135.134 153.883,134.529 154.909,133.886 156.079 C 133.244 157.249,132.350 158.754,131.899 159.422 C 131.447 160.091,131.042 160.775,130.997 160.942 C 130.952 161.109,130.613 161.725,130.244 162.310 C 129.874 162.895,129.277 163.921,128.917 164.590 C 128.556 165.258,127.858 166.489,127.365 167.325 C 126.872 168.161,126.224 169.324,125.925 169.909 C 125.625 170.494,125.312 171.041,125.228 171.125 C 125.144 171.208,124.880 171.619,124.641 172.036 C 124.402 172.454,123.777 173.549,123.252 174.468 C 122.728 175.388,122.103 176.482,121.863 176.900 C 121.624 177.318,121.292 177.760,121.125 177.883 C 120.957 178.006,120.930 178.108,121.063 178.111 C 121.197 178.113,120.882 178.731,120.365 179.483 C 119.847 180.236,119.533 180.853,119.666 180.856 C 119.800 180.858,119.761 180.961,119.581 181.084 C 119.283 181.287,116.994 185.165,115.862 187.386 C 115.606 187.888,115.317 188.366,115.218 188.450 C 115.120 188.533,114.768 189.149,114.435 189.818 C 114.102 190.486,113.750 191.102,113.652 191.185 C 113.554 191.269,112.948 192.295,112.306 193.465 C 111.664 194.635,110.746 196.174,110.266 196.884 C 109.786 197.595,109.502 198.178,109.636 198.181 C 109.769 198.184,109.731 198.286,109.551 198.409 C 109.230 198.628,107.187 202.138,104.379 207.295 C 104.060 207.880,103.721 208.427,103.626 208.510 C 103.449 208.665,101.294 212.391,100.108 214.594 C 99.749 215.260,99.052 216.455,98.558 217.249 C 98.064 218.043,97.270 219.377,96.793 220.213 C 96.316 221.049,95.609 222.280,95.222 222.948 C 94.836 223.617,94.355 224.540,94.153 225.000 C 93.952 225.460,93.681 225.836,93.550 225.836 C 93.420 225.836,93.313 225.967,93.313 226.128 C 93.313 226.289,92.561 227.674,91.641 229.206 C 90.722 230.739,89.970 232.079,89.970 232.186 C 89.970 232.292,89.487 233.095,88.898 233.971 C 88.308 234.846,87.932 235.564,88.062 235.567 C 88.192 235.570,88.155 235.672,87.979 235.795 C 87.683 236.003,86.546 237.840,85.397 239.970 C 84.139 242.299,83.726 243.020,83.566 243.161 C 83.406 243.303,79.927 249.397,78.571 251.912 C 78.237 252.532,77.884 253.108,77.788 253.191 C 77.598 253.356,74.872 258.142,72.768 262.006 C 72.449 262.591,72.106 263.138,72.006 263.222 C 71.906 263.305,71.769 263.511,71.702 263.678 C 71.580 263.984,69.367 267.849,68.237 269.729 C 67.903 270.286,66.945 271.939,66.109 273.402 C 65.274 274.865,64.214 276.695,63.755 277.469 C 63.296 278.242,62.751 279.217,62.545 279.635 C 62.339 280.053,62.088 280.464,61.986 280.547 C 61.885 280.631,61.130 281.903,60.308 283.373 C 59.487 284.844,58.510 286.554,58.137 287.173 C 57.764 287.792,57.217 288.777,56.921 289.362 C 56.625 289.947,56.299 290.494,56.196 290.578 C 56.093 290.661,55.683 291.334,55.284 292.072 C 54.885 292.810,54.192 294.041,53.744 294.807 C 53.295 295.574,52.751 296.543,52.534 296.960 C 52.317 297.378,52.049 297.789,51.937 297.872 C 51.144 298.467,50.953 302.432,51.717 302.432 C 52.020 302.432,55.560 300.422,66.717 293.916 C 70.061 291.966,75.122 289.030,77.964 287.392 C 84.254 283.764,93.156 278.597,99.088 275.130 C 101.512 273.714,105.205 271.569,107.295 270.364 C 109.384 269.159,116.702 264.916,123.556 260.935 C 130.410 256.954,137.420 252.888,139.134 251.900 C 140.847 250.911,142.249 249.983,142.249 249.838 C 142.249 249.692,143.230 247.891,144.430 245.835 C 145.629 243.779,147.314 240.866,148.175 239.362 C 149.514 237.023,152.263 232.270,162.860 213.982 C 167.370 206.196,176.080 191.110,178.565 186.778 C 180.099 184.103,183.929 177.470,187.075 172.036 C 194.415 159.361,200.277 149.213,203.279 143.985 C 204.026 142.682,204.770 141.661,204.931 141.715 C 205.178 141.797,210.374 150.625,218.218 164.286 C 219.178 165.957,223.359 173.207,227.510 180.395 C 231.661 187.584,235.490 194.217,236.019 195.137 C 236.548 196.056,239.554 201.254,242.699 206.687 C 245.844 212.120,249.401 218.275,250.602 220.365 C 252.433 223.548,265.631 246.391,267.143 248.991 C 267.443 249.509,269.286 250.776,272.182 252.458 C 274.693 253.917,277.363 255.481,278.116 255.934 C 278.868 256.387,281.809 258.098,284.650 259.737 C 292.414 264.211,300.841 269.098,305.775 271.986 C 308.199 273.405,311.619 275.378,313.374 276.372 C 315.129 277.365,317.181 278.556,317.933 279.018 C 318.685 279.480,321.558 281.162,324.316 282.755 C 334.258 288.497,342.472 293.256,346.201 295.434 C 356.531 301.468,358.208 302.371,358.429 302.024 C 358.946 301.212,358.429 298.345,357.563 297.224 C 357.288 296.867,356.278 295.153,354.398 291.850 C 353.168 289.690,352.141 287.979,351.990 287.842 C 351.899 287.758,351.581 287.211,351.285 286.626 C 350.989 286.041,350.346 284.878,349.858 284.043 C 349.369 283.207,348.716 282.044,348.408 281.459 C 347.775 280.257,346.664 278.420,346.295 277.964 C 346.159 277.796,345.808 277.140,345.514 276.504 C 345.220 275.869,344.837 275.185,344.662 274.985 C 344.487 274.784,344.112 274.178,343.829 273.638 C 342.831 271.739,340.639 267.931,340.457 267.781 C 340.356 267.698,340.025 267.150,339.721 266.565 C 339.417 265.980,338.768 264.818,338.279 263.982 C 337.790 263.146,337.145 261.983,336.844 261.398 C 336.176 260.098,335.098 258.329,334.686 257.858 C 334.518 257.666,334.160 257.051,333.891 256.490 C 333.622 255.930,333.166 255.061,332.877 254.559 C 331.161 251.576,330.547 250.588,330.308 250.422 C 330.160 250.320,330.085 250.183,330.140 250.118 C 330.196 250.053,329.903 249.453,329.490 248.784 C 329.077 248.116,328.462 247.056,328.123 246.431 C 326.749 243.891,324.824 240.568,324.644 240.426 C 324.538 240.342,324.195 239.692,323.882 238.982 C 323.568 238.271,323.209 237.690,323.084 237.690 C 322.958 237.690,322.725 237.314,322.564 236.854 C 322.306 236.112,321.112 234.117,320.428 233.283 C 320.291 233.116,320.186 232.910,320.195 232.827 C 320.203 232.743,319.876 232.128,319.468 231.459 C 319.059 230.790,318.471 229.764,318.161 229.179 C 317.851 228.594,317.228 227.479,316.777 226.702 C 316.326 225.924,315.356 224.214,314.622 222.902 C 313.887 221.590,313.184 220.448,313.060 220.365 C 312.936 220.281,312.609 219.734,312.333 219.149 C 311.843 218.108,310.928 216.517,309.440 214.115 C 309.032 213.457,308.690 212.833,308.680 212.728 C 308.671 212.624,308.222 211.858,307.683 211.027 C 307.144 210.195,306.604 209.255,306.482 208.937 C 306.283 208.417,305.239 206.711,304.640 205.927 C 304.512 205.760,304.167 205.103,303.873 204.468 C 303.579 203.832,303.196 203.149,303.021 202.948 C 302.846 202.748,302.471 202.142,302.187 201.602 C 300.882 199.117,298.973 195.879,298.714 195.711 C 298.557 195.608,298.450 195.432,298.477 195.318 C 298.503 195.204,298.215 194.603,297.837 193.984 C 297.459 193.364,297.176 192.755,297.207 192.629 C 297.239 192.504,297.141 192.401,296.990 192.401 C 296.839 192.401,296.558 192.025,296.365 191.565 C 296.172 191.106,295.614 190.046,295.126 189.210 C 294.638 188.374,294.005 187.245,293.719 186.702 C 293.434 186.159,293.100 185.714,292.976 185.714 C 292.853 185.714,292.594 185.234,292.400 184.648 C 292.207 184.061,291.880 183.411,291.675 183.204 C 291.469 182.996,291.090 182.416,290.832 181.915 C 289.821 179.949,287.744 176.416,287.302 175.912 C 287.046 175.619,286.960 175.378,287.111 175.375 C 287.262 175.373,287.249 175.270,287.082 175.147 C 286.915 175.025,286.549 174.514,286.270 174.012 C 285.990 173.511,285.113 171.938,284.320 170.517 C 283.527 169.096,282.791 167.865,282.684 167.781 C 282.576 167.698,282.308 167.185,282.089 166.641 C 281.869 166.098,281.590 165.653,281.468 165.653 C 281.347 165.653,281.018 165.141,280.739 164.514 C 280.254 163.428,279.473 162.057,277.829 159.404 C 277.421 158.746,277.079 158.121,277.069 158.017 C 277.060 157.913,276.613 157.150,276.076 156.322 C 275.540 155.495,274.949 154.486,274.764 154.080 C 274.578 153.675,274.059 152.717,273.611 151.950 C 273.163 151.184,272.470 149.953,272.072 149.215 C 271.673 148.476,271.260 147.804,271.154 147.720 C 271.047 147.637,270.793 147.187,270.588 146.721 C 270.383 146.255,270.067 145.708,269.887 145.505 C 269.706 145.303,268.714 143.659,267.682 141.853 C 266.650 140.047,265.464 137.975,265.046 137.248 C 264.628 136.521,263.685 134.853,262.950 133.541 C 262.215 132.228,261.512 131.087,261.388 131.003 C 261.264 130.919,260.937 130.309,260.661 129.646 C 260.385 128.983,260.054 128.368,259.926 128.278 C 259.798 128.189,258.912 126.708,257.957 124.988 C 257.002 123.268,256.053 121.558,255.846 121.189 C 255.640 120.819,255.400 120.448,255.313 120.365 C 255.226 120.281,254.977 119.871,254.761 119.453 C 254.544 119.035,254.000 118.057,253.551 117.279 C 253.103 116.501,252.134 114.792,251.400 113.480 C 250.665 112.168,249.962 111.026,249.838 110.942 C 249.714 110.859,249.392 110.312,249.123 109.726 C 248.853 109.141,247.949 107.514,247.113 106.110 C 246.277 104.707,245.593 103.441,245.593 103.299 C 245.593 103.156,245.486 103.040,245.355 103.040 C 245.225 103.040,244.955 102.663,244.755 102.204 C 244.555 101.744,244.012 100.734,243.549 99.959 C 243.085 99.183,242.104 97.474,241.369 96.159 C 240.634 94.845,239.932 93.701,239.808 93.617 C 239.684 93.533,239.359 92.986,239.087 92.401 C 238.815 91.816,238.103 90.517,237.504 89.514 C 236.906 88.511,236.000 86.938,235.490 86.018 C 234.981 85.099,234.332 84.005,234.048 83.587 C 233.763 83.169,233.323 82.416,233.068 81.915 C 232.250 80.301,229.668 75.841,229.461 75.684 C 229.351 75.600,229.165 75.225,229.048 74.850 C 228.931 74.475,228.668 73.996,228.463 73.786 C 228.259 73.576,227.308 71.997,226.351 70.277 C 225.394 68.557,224.442 66.847,224.235 66.477 C 224.029 66.108,223.781 65.737,223.684 65.653 C 223.588 65.570,223.299 65.091,223.044 64.590 C 222.597 63.714,220.581 60.198,216.086 52.456 C 214.928 50.463,213.982 48.719,213.982 48.580 C 213.982 48.442,213.875 48.328,213.744 48.328 C 213.614 48.328,213.344 47.952,213.145 47.492 C 212.945 47.033,212.299 45.836,211.709 44.833 C 211.120 43.830,210.286 42.345,209.856 41.533 C 208.542 39.049,206.590 37.386,204.987 37.386 C 204.247 37.386,203.647 37.530,203.647 37.708 " stroke="none" fill="#cc3044" fill-rule="evenodd"></path><path id="path1" d="M204.863 250.152 L 141.793 250.304 138.906 252.002 C 135.609 253.941,113.007 267.070,107.295 270.364 C 105.205 271.569,101.512 273.714,99.088 275.130 C 94.242 277.963,85.403 283.095,79.027 286.778 C 76.771 288.081,72.051 290.821,68.540 292.867 C 65.029 294.912,59.968 297.841,57.294 299.377 C 50.910 303.042,50.696 303.450,54.585 304.529 C 56.294 305.004,353.453 304.998,355.167 304.523 C 358.937 303.479,358.725 302.663,353.977 299.938 C 351.790 298.683,348.290 296.656,346.201 295.435 C 342.499 293.272,334.480 288.625,324.316 282.755 C 321.558 281.162,318.685 279.480,317.933 279.018 C 317.181 278.556,315.129 277.365,313.374 276.372 C 311.619 275.378,308.199 273.405,305.775 271.986 C 303.351 270.567,298.701 267.862,295.441 265.975 C 280.373 257.253,279.489 256.739,272.036 252.393 L 267.933 250.000 204.863 250.152 " stroke="none" fill="#642c94" fill-rule="evenodd"></path><path id="path2" d="M187.690 11.743 C 124.518 16.590,70.927 48.435,37.345 101.083 C 11.461 141.662,1.921 193.167,11.423 241.033 C 32.976 349.601,141.176 417.385,248.632 389.638 C 351.036 363.195,412.595 258.047,385.990 155.015 C 365.945 77.386,300.103 21.112,218.997 12.289 C 214.670 11.818,191.887 11.421,187.690 11.743 M207.475 38.111 C 208.559 39.038,209.863 40.967,212.019 44.827 C 212.429 45.562,213.676 47.711,214.789 49.602 C 215.902 51.493,217.429 54.134,218.182 55.471 C 218.935 56.809,220.941 60.296,222.640 63.222 C 224.339 66.147,227.585 71.755,229.854 75.684 C 232.123 79.612,235.998 86.315,238.466 90.578 C 240.934 94.840,243.221 98.807,243.549 99.392 C 244.097 100.368,246.546 104.610,247.264 105.827 C 247.432 106.110,248.451 107.890,249.530 109.782 C 250.609 111.674,251.942 113.933,252.493 114.803 C 253.045 115.673,253.495 116.440,253.495 116.507 C 253.495 116.575,254.200 117.847,255.062 119.333 C 255.923 120.820,258.205 124.772,260.132 128.116 C 262.058 131.459,264.546 135.767,265.660 137.690 C 270.086 145.328,273.712 151.603,278.479 159.878 C 281.224 164.643,283.838 169.120,284.288 169.827 C 284.738 170.534,285.106 171.164,285.106 171.227 C 285.106 171.290,285.812 172.558,286.675 174.045 C 287.538 175.531,288.434 177.090,288.667 177.508 C 288.900 177.926,289.337 178.678,289.638 179.179 C 289.939 179.681,291.526 182.416,293.164 185.258 C 294.803 188.100,296.618 191.246,297.197 192.249 C 299.017 195.400,299.235 195.778,302.272 201.064 C 303.905 203.906,305.345 206.368,305.473 206.535 C 305.601 206.702,306.593 208.412,307.678 210.334 C 310.785 215.841,315.005 223.130,315.900 224.538 C 316.349 225.245,316.717 225.875,316.717 225.938 C 316.717 226.001,317.424 227.269,318.287 228.756 C 319.754 231.281,323.785 238.279,328.248 246.049 C 330.272 249.572,333.057 254.359,336.029 259.422 C 337.010 261.094,338.588 263.830,339.536 265.502 C 340.484 267.173,342.440 270.577,343.882 273.066 C 345.324 275.555,346.505 277.644,346.505 277.708 C 346.505 277.771,346.826 278.334,347.220 278.957 C 347.972 280.150,350.993 285.315,352.149 287.386 C 353.463 289.737,356.718 295.302,357.483 296.505 C 359.726 300.028,359.320 302.932,356.379 304.407 C 354.707 305.246,57.050 305.537,54.180 304.702 C 49.643 303.384,49.839 300.285,54.984 291.999 C 55.625 290.967,56.939 288.685,57.903 286.930 C 58.868 285.175,60.117 283.032,60.680 282.167 C 61.242 281.303,61.702 280.528,61.702 280.444 C 61.702 280.361,62.523 278.903,63.526 277.204 C 64.529 275.505,65.350 274.054,65.350 273.980 C 65.350 273.906,65.874 272.994,66.516 271.953 C 67.157 270.912,68.509 268.625,69.521 266.869 C 70.532 265.114,72.264 262.128,73.370 260.233 C 74.475 258.338,75.380 256.728,75.380 256.654 C 75.380 256.580,75.906 255.669,76.549 254.628 C 77.191 253.587,78.613 251.163,79.707 249.240 C 80.801 247.318,82.888 243.693,84.344 241.185 C 87.784 235.264,87.948 234.980,89.313 232.581 C 89.950 231.462,92.491 227.059,94.960 222.796 C 99.897 214.273,100.523 213.186,101.522 211.398 C 102.816 209.083,106.783 202.271,107.948 200.362 C 108.592 199.308,109.119 198.387,109.119 198.316 C 109.119 198.245,109.640 197.330,110.278 196.282 C 110.916 195.234,111.530 194.172,111.644 193.921 C 111.757 193.670,111.989 193.260,112.159 193.009 C 112.329 192.758,113.850 190.160,115.538 187.234 C 117.227 184.309,118.845 181.505,119.136 181.003 C 119.426 180.502,120.402 178.792,121.304 177.204 C 122.207 175.616,123.083 174.082,123.251 173.796 C 124.369 171.894,128.310 165.080,130.511 161.246 C 131.950 158.739,133.256 156.482,133.414 156.231 C 133.572 155.980,134.447 154.476,135.358 152.888 C 136.269 151.299,137.738 148.769,138.621 147.264 C 139.505 145.760,140.991 143.195,141.923 141.565 C 142.855 139.934,143.959 138.004,144.377 137.275 C 144.795 136.547,145.671 135.008,146.323 133.857 C 146.976 132.705,148.124 130.737,148.874 129.483 C 149.625 128.229,150.496 126.751,150.809 126.198 C 151.975 124.136,153.768 121.010,155.985 117.173 C 161.713 107.260,164.112 103.113,164.686 102.128 C 165.028 101.543,166.208 99.491,167.309 97.568 C 169.440 93.846,169.440 93.846,173.629 86.626 C 175.132 84.035,177.133 80.577,178.075 78.941 C 179.017 77.306,179.924 75.733,180.091 75.446 C 180.258 75.159,181.695 72.667,183.283 69.909 C 184.871 67.150,186.307 64.673,186.474 64.403 C 186.641 64.133,187.086 63.352,187.463 62.666 C 187.839 61.981,189.446 59.214,191.034 56.518 C 192.622 53.822,193.921 51.563,193.921 51.497 C 193.921 51.400,194.896 49.720,196.644 46.809 C 196.794 46.558,197.843 44.733,198.975 42.753 C 202.290 36.955,204.631 35.676,207.475 38.111 M200.467 149.325 C 198.133 153.374,195.042 158.739,193.598 161.246 C 192.154 163.754,188.676 169.772,185.869 174.620 C 180.724 183.506,178.776 186.880,173.495 196.049 C 171.907 198.807,168.033 205.509,164.888 210.942 C 157.884 223.039,149.929 236.801,146.878 242.097 C 145.626 244.271,144.141 246.848,143.577 247.826 C 143.014 248.803,142.553 249.658,142.553 249.725 C 142.553 249.793,170.593 249.848,204.863 249.848 C 239.134 249.848,267.173 249.764,267.173 249.662 C 267.173 249.460,266.508 248.297,257.896 233.435 C 254.748 228.002,251.466 222.325,250.602 220.821 C 247.528 215.463,237.868 198.748,233.299 190.881 C 231.020 186.958,226.745 179.552,223.386 173.708 C 221.315 170.106,218.999 166.094,214.700 158.663 C 213.201 156.071,210.414 151.250,208.507 147.948 C 206.600 144.647,204.966 141.949,204.875 141.954 C 204.785 141.959,202.801 145.276,200.467 149.325 " stroke="none" fill="#f4f4f4" fill-rule="evenodd"></path><path id="path3" d="M205.707 37.298 C 206.087 37.371,207.097 38.129,207.950 38.982 C 208.804 39.836,209.349 40.248,209.162 39.899 C 208.618 38.882,206.331 37.078,205.644 37.123 C 205.074 37.161,205.080 37.177,205.707 37.298 M210.176 42.097 C 210.431 42.599,211.121 43.830,211.711 44.833 C 212.300 45.836,212.945 47.033,213.145 47.492 C 213.344 47.952,213.627 48.328,213.773 48.328 C 213.920 48.328,213.699 47.747,213.283 47.036 C 212.868 46.326,212.137 45.046,211.659 44.192 C 210.563 42.233,209.436 40.641,210.176 42.097 M214.032 48.862 C 214.269 49.399,217.793 55.536,218.368 56.413 C 219.677 58.407,219.761 58.458,218.828 56.687 C 217.453 54.079,214.236 48.632,214.071 48.632 C 213.994 48.632,213.977 48.736,214.032 48.862 M220.858 60.714 C 221.480 61.843,222.221 63.108,222.505 63.526 C 222.788 63.944,223.116 64.593,223.233 64.970 C 223.350 65.346,223.586 65.653,223.759 65.653 C 223.931 65.653,223.769 65.141,223.399 64.514 C 223.029 63.887,222.114 62.314,221.367 61.018 C 219.697 58.124,219.299 57.887,220.858 60.714 M224.012 66.000 C 224.012 66.080,224.901 67.710,225.986 69.622 C 227.072 71.535,228.011 73.237,228.072 73.404 C 228.134 73.571,228.260 73.640,228.353 73.556 C 228.446 73.472,227.603 71.802,226.481 69.844 C 224.581 66.528,224.012 65.643,224.012 66.000 M228.968 74.772 C 229.158 75.274,229.423 75.684,229.558 75.684 C 229.693 75.684,229.591 75.274,229.331 74.772 C 229.072 74.271,228.807 73.860,228.742 73.860 C 228.677 73.860,228.779 74.271,228.968 74.772 M230.871 78.040 C 231.496 79.168,232.260 80.454,232.569 80.898 C 232.878 81.342,233.131 81.823,233.131 81.967 C 233.131 82.112,233.452 82.706,233.844 83.288 C 234.237 83.870,234.976 85.099,235.487 86.018 C 235.998 86.938,236.906 88.511,237.504 89.514 C 238.103 90.517,238.815 91.816,239.087 92.401 C 239.359 92.986,239.684 93.533,239.808 93.617 C 239.932 93.701,240.634 94.845,241.369 96.159 C 242.104 97.474,243.085 99.183,243.549 99.959 C 244.012 100.734,244.555 101.744,244.755 102.204 C 244.955 102.663,245.238 103.040,245.384 103.040 C 245.531 103.040,245.311 102.458,244.896 101.748 C 244.482 101.037,243.875 99.977,243.548 99.392 C 243.220 98.807,240.934 94.840,238.467 90.578 C 235.999 86.315,233.092 81.288,232.006 79.407 C 229.875 75.719,229.004 74.669,230.871 78.040 M245.593 103.478 C 245.593 103.778,246.893 105.792,247.011 105.674 C 247.080 105.605,246.845 105.052,246.487 104.446 C 245.896 103.445,245.593 103.116,245.593 103.478 M247.774 107.289 C 248.162 107.990,248.712 108.996,248.996 109.525 C 249.280 110.054,249.641 110.636,249.799 110.819 C 249.958 111.002,250.311 111.583,250.583 112.111 C 250.856 112.638,251.152 113.070,251.242 113.070 C 251.331 113.070,251.347 112.967,251.279 112.842 C 249.376 109.370,247.587 106.337,247.360 106.196 C 247.199 106.097,247.386 106.589,247.774 107.289 M252.046 114.564 C 252.425 115.303,253.107 116.534,253.560 117.300 C 254.014 118.066,254.557 119.069,254.767 119.529 C 254.977 119.989,255.268 120.365,255.415 120.365 C 255.561 120.365,255.341 119.783,254.925 119.073 C 254.509 118.362,253.778 117.082,253.300 116.228 C 252.111 114.102,251.161 112.841,252.046 114.564 M255.623 120.695 C 255.623 120.783,256.511 122.421,257.597 124.334 C 258.683 126.246,259.622 127.948,259.683 128.116 C 259.745 128.283,259.872 128.350,259.966 128.265 C 260.060 128.180,259.310 126.676,258.299 124.922 C 256.437 121.687,255.623 120.403,255.623 120.695 M260.657 129.635 C 260.935 130.304,261.265 130.919,261.390 131.003 C 261.515 131.087,261.845 131.600,262.123 132.143 C 262.402 132.686,262.706 133.131,262.800 133.131 C 262.987 133.131,260.880 129.214,260.430 128.723 C 260.276 128.556,260.378 128.967,260.657 129.635 M263.596 134.691 C 265.148 137.519,265.535 138.197,266.216 139.286 C 268.304 142.622,266.758 139.448,264.218 135.182 C 263.024 133.175,262.564 132.813,263.596 134.691 M268.389 143.009 C 269.880 145.771,269.861 145.742,270.046 145.557 C 270.187 145.416,267.796 141.233,267.334 140.812 C 267.192 140.683,267.667 141.672,268.389 143.009 M206.525 144.529 C 206.993 145.365,207.517 146.185,207.689 146.353 C 207.862 146.520,207.620 145.973,207.152 145.137 C 206.685 144.301,206.161 143.480,205.989 143.313 C 205.816 143.146,206.058 143.693,206.525 144.529 M270.610 146.809 C 270.799 147.310,271.064 147.720,271.199 147.720 C 271.334 147.720,271.232 147.310,270.973 146.809 C 270.713 146.307,270.448 145.897,270.383 145.897 C 270.319 145.897,270.420 146.307,270.610 146.809 M208.359 147.720 C 208.618 148.222,208.899 148.632,208.982 148.632 C 209.066 148.632,208.922 148.222,208.663 147.720 C 208.403 147.219,208.123 146.809,208.039 146.809 C 207.956 146.809,208.099 147.219,208.359 147.720 M272.036 149.240 C 272.378 149.909,272.725 150.456,272.809 150.456 C 272.892 150.456,272.682 149.909,272.340 149.240 C 271.999 148.571,271.652 148.024,271.568 148.024 C 271.485 148.024,271.695 148.571,272.036 149.240 M209.574 149.848 C 209.834 150.350,210.114 150.760,210.198 150.760 C 210.282 150.760,210.138 150.350,209.878 149.848 C 209.619 149.347,209.338 148.936,209.255 148.936 C 209.171 148.936,209.315 149.347,209.574 149.848 M211.085 152.432 C 211.552 153.267,212.076 154.088,212.248 154.255 C 212.421 154.422,212.179 153.875,211.712 153.040 C 211.244 152.204,210.720 151.383,210.548 151.216 C 210.375 151.049,210.617 151.596,211.085 152.432 M273.258 151.249 C 273.255 151.435,273.594 152.091,274.012 152.707 C 274.430 153.323,274.772 153.928,274.772 154.051 C 274.772 154.296,276.706 157.366,277.069 157.698 C 277.345 157.951,275.268 154.144,274.112 152.280 C 273.645 151.527,273.261 151.064,273.258 151.249 M214.134 157.751 C 214.393 158.252,214.674 158.663,214.757 158.663 C 214.841 158.663,214.697 158.252,214.438 157.751 C 214.178 157.249,213.898 156.839,213.814 156.839 C 213.731 156.839,213.874 157.249,214.134 157.751 M277.697 159.195 C 278.126 159.821,278.803 160.974,279.202 161.757 C 279.601 162.539,280.093 163.281,280.295 163.406 C 280.498 163.531,280.384 163.165,280.042 162.592 C 279.700 162.019,278.980 160.764,278.442 159.802 C 277.903 158.841,277.340 158.055,277.191 158.055 C 277.041 158.055,277.269 158.568,277.697 159.195 M214.984 159.195 C 215.900 160.853,217.730 163.830,217.834 163.830 C 217.993 163.830,218.065 163.966,216.423 161.170 C 215.711 159.958,215.067 158.967,214.993 158.967 C 214.919 158.967,214.914 159.069,214.984 159.195 M280.897 164.742 C 281.071 165.243,281.341 165.653,281.497 165.653 C 281.652 165.653,281.566 165.243,281.307 164.742 C 281.048 164.240,280.778 163.830,280.707 163.830 C 280.636 163.830,280.722 164.240,280.897 164.742 M218.389 165.046 C 218.648 165.547,218.929 165.957,219.013 165.957 C 219.096 165.957,218.952 165.547,218.693 165.046 C 218.434 164.544,218.153 164.134,218.069 164.134 C 217.986 164.134,218.130 164.544,218.389 165.046 M282.160 166.869 C 282.349 167.371,282.614 167.781,282.749 167.781 C 282.884 167.781,282.782 167.371,282.523 166.869 C 282.263 166.368,281.998 165.957,281.933 165.957 C 281.869 165.957,281.971 166.368,282.160 166.869 M219.543 167.097 C 220.459 168.756,222.289 171.733,222.393 171.733 C 222.552 171.733,222.624 171.868,220.982 169.073 C 220.270 167.861,219.627 166.869,219.552 166.869 C 219.478 166.869,219.474 166.972,219.543 167.097 M284.232 170.365 C 284.937 171.702,285.764 173.123,286.070 173.521 C 286.376 173.920,286.626 174.433,286.626 174.661 C 286.626 174.889,286.776 175.076,286.959 175.076 C 287.142 175.076,286.952 174.495,286.536 173.784 C 286.120 173.074,285.389 171.794,284.911 170.939 C 283.413 168.260,282.888 167.816,284.232 170.365 M224.164 175.076 C 224.423 175.578,224.704 175.988,224.788 175.988 C 224.871 175.988,224.727 175.578,224.468 175.076 C 224.209 174.574,223.928 174.164,223.845 174.164 C 223.761 174.164,223.905 174.574,224.164 175.076 M287.761 176.594 C 288.198 177.261,288.610 177.753,288.676 177.686 C 288.837 177.525,287.445 175.389,287.176 175.384 C 287.060 175.382,287.323 175.926,287.761 176.594 M225.820 177.964 C 226.367 178.967,226.957 179.924,227.131 180.091 C 227.305 180.258,226.995 179.574,226.444 178.571 C 225.892 177.568,225.302 176.611,225.133 176.444 C 224.964 176.277,225.273 176.960,225.820 177.964 M289.506 179.507 C 289.980 180.330,290.581 181.448,290.840 181.991 C 291.100 182.534,291.432 182.979,291.579 182.979 C 291.725 182.979,291.473 182.329,291.018 181.535 C 290.563 180.741,289.995 179.718,289.757 179.261 C 289.518 178.805,289.170 178.337,288.983 178.222 C 288.797 178.106,289.032 178.685,289.506 179.507 M228.723 182.979 C 228.983 183.480,229.263 183.891,229.347 183.891 C 229.431 183.891,229.287 183.480,229.027 182.979 C 228.768 182.477,228.487 182.067,228.404 182.067 C 228.320 182.067,228.464 182.477,228.723 182.979 M292.299 184.422 C 292.560 185.049,292.876 185.631,293.001 185.714 C 293.126 185.798,293.452 186.302,293.724 186.835 C 293.997 187.368,294.350 187.883,294.508 187.981 C 294.666 188.078,294.173 187.061,293.414 185.720 C 291.904 183.056,291.566 182.662,292.299 184.422 M229.939 185.106 C 230.199 185.608,230.479 186.018,230.563 186.018 C 230.646 186.018,230.503 185.608,230.243 185.106 C 229.984 184.605,229.703 184.195,229.620 184.195 C 229.536 184.195,229.680 184.605,229.939 185.106 M231.155 187.234 C 231.414 187.736,231.695 188.146,231.779 188.146 C 231.862 188.146,231.718 187.736,231.459 187.234 C 231.200 186.733,230.919 186.322,230.835 186.322 C 230.752 186.322,230.896 186.733,231.155 187.234 M232.665 189.818 C 233.133 190.653,233.657 191.474,233.829 191.641 C 234.001 191.809,233.760 191.261,233.292 190.426 C 232.825 189.590,232.301 188.769,232.128 188.602 C 231.956 188.435,232.197 188.982,232.665 189.818 M294.833 188.644 C 294.833 188.825,295.161 189.457,295.562 190.048 C 295.963 190.639,296.383 191.410,296.495 191.762 C 296.606 192.114,296.838 192.401,297.010 192.401 C 297.182 192.401,296.946 191.752,296.486 190.957 C 295.317 188.938,294.833 188.261,294.833 188.644 M297.791 193.919 C 298.228 194.587,298.640 195.078,298.707 195.012 C 298.868 194.851,297.475 192.714,297.206 192.709 C 297.091 192.707,297.354 193.251,297.791 193.919 M235.562 194.833 C 235.903 195.502,236.251 196.049,236.335 196.049 C 236.418 196.049,236.207 195.502,235.866 194.833 C 235.525 194.164,235.178 193.617,235.094 193.617 C 235.010 193.617,235.221 194.164,235.562 194.833 M298.802 195.821 C 299.309 196.378,301.742 200.576,302.325 201.900 C 302.602 202.527,302.949 203.040,303.096 203.040 C 303.416 203.040,303.209 202.628,300.843 198.556 C 299.847 196.843,298.903 195.441,298.744 195.441 C 298.586 195.441,298.612 195.612,298.802 195.821 M238.136 199.240 C 238.604 200.076,239.128 200.897,239.300 201.064 C 239.473 201.231,239.231 200.684,238.763 199.848 C 238.296 199.012,237.772 198.191,237.600 198.024 C 237.427 197.857,237.669 198.404,238.136 199.240 M239.970 202.432 C 240.229 202.933,240.510 203.343,240.593 203.343 C 240.677 203.343,240.533 202.933,240.274 202.432 C 240.014 201.930,239.734 201.520,239.650 201.520 C 239.566 201.520,239.710 201.930,239.970 202.432 M303.880 204.483 C 304.170 205.110,304.512 205.760,304.640 205.927 C 305.266 206.746,306.383 208.564,306.383 208.762 C 306.383 209.012,308.324 212.086,308.685 212.409 C 308.969 212.663,307.430 209.876,305.233 206.155 C 303.474 203.177,303.013 202.607,303.880 204.483 M241.185 204.559 C 241.445 205.061,241.725 205.471,241.809 205.471 C 241.893 205.471,241.749 205.061,241.489 204.559 C 241.230 204.058,240.949 203.647,240.866 203.647 C 240.782 203.647,240.926 204.058,241.185 204.559 M242.696 207.143 C 243.163 207.979,243.687 208.799,243.859 208.967 C 244.032 209.134,243.790 208.587,243.323 207.751 C 242.855 206.915,242.331 206.094,242.159 205.927 C 241.986 205.760,242.228 206.307,242.696 207.143 M245.745 212.462 C 246.004 212.964,246.285 213.374,246.368 213.374 C 246.452 213.374,246.308 212.964,246.049 212.462 C 245.789 211.960,245.509 211.550,245.425 211.550 C 245.342 211.550,245.485 211.960,245.745 212.462 M309.308 213.906 C 309.737 214.533,310.414 215.686,310.813 216.468 C 311.212 217.250,311.692 217.985,311.879 218.100 C 312.304 218.363,311.908 217.576,310.228 214.818 C 309.541 213.689,308.877 212.766,308.754 212.766 C 308.630 212.766,308.880 213.279,309.308 213.906 M247.255 215.046 C 247.722 215.881,248.246 216.702,248.419 216.869 C 248.591 217.036,248.350 216.489,247.882 215.653 C 247.414 214.818,246.891 213.997,246.718 213.830 C 246.546 213.663,246.787 214.210,247.255 215.046 M312.508 219.453 C 312.682 219.954,312.952 220.365,313.107 220.365 C 313.263 220.365,313.177 219.954,312.918 219.453 C 312.659 218.951,312.389 218.541,312.318 218.541 C 312.247 218.541,312.333 218.951,312.508 219.453 M250.152 220.061 C 250.493 220.729,250.841 221.277,250.924 221.277 C 251.008 221.277,250.797 220.729,250.456 220.061 C 250.115 219.392,249.767 218.845,249.684 218.845 C 249.600 218.845,249.811 219.392,250.152 220.061 M313.830 221.581 C 314.089 222.082,314.370 222.492,314.453 222.492 C 314.537 222.492,314.393 222.082,314.134 221.581 C 313.874 221.079,313.594 220.669,313.510 220.669 C 313.427 220.669,313.570 221.079,313.830 221.581 M251.520 222.492 C 251.779 222.994,252.060 223.404,252.143 223.404 C 252.227 223.404,252.083 222.994,251.824 222.492 C 251.564 221.991,251.284 221.581,251.200 221.581 C 251.117 221.581,251.260 221.991,251.520 222.492 M315.256 223.987 C 315.642 224.725,316.326 225.956,316.777 226.722 C 317.228 227.489,317.851 228.594,318.161 229.179 C 318.471 229.764,319.059 230.790,319.468 231.459 C 319.877 232.128,320.178 232.777,320.136 232.903 C 320.095 233.028,320.181 233.131,320.328 233.131 C 320.475 233.131,320.763 233.536,320.968 234.032 C 321.174 234.528,321.559 235.110,321.824 235.324 C 322.225 235.648,320.784 232.765,320.044 231.763 C 319.767 231.388,317.082 226.685,316.282 225.173 C 315.959 224.563,315.439 223.744,315.125 223.354 C 314.695 222.819,314.727 222.974,315.256 223.987 M254.559 227.660 C 254.819 228.161,255.099 228.571,255.183 228.571 C 255.266 228.571,255.123 228.161,254.863 227.660 C 254.604 227.158,254.323 226.748,254.240 226.748 C 254.156 226.748,254.300 227.158,254.559 227.660 M255.775 229.787 C 256.034 230.289,256.315 230.699,256.399 230.699 C 256.482 230.699,256.338 230.289,256.079 229.787 C 255.820 229.286,255.539 228.875,255.456 228.875 C 255.372 228.875,255.516 229.286,255.775 229.787 M256.991 231.915 C 257.250 232.416,257.531 232.827,257.614 232.827 C 257.698 232.827,257.554 232.416,257.295 231.915 C 257.035 231.413,256.755 231.003,256.671 231.003 C 256.588 231.003,256.732 231.413,256.991 231.915 M322.538 236.778 C 322.713 237.280,322.983 237.690,323.138 237.690 C 323.293 237.690,323.208 237.280,322.948 236.778 C 322.689 236.277,322.419 235.866,322.348 235.866 C 322.278 235.866,322.363 236.277,322.538 236.778 M260.334 237.690 C 260.594 238.191,260.874 238.602,260.958 238.602 C 261.041 238.602,260.898 238.191,260.638 237.690 C 260.379 237.188,260.098 236.778,260.015 236.778 C 259.931 236.778,260.075 237.188,260.334 237.690 M323.959 239.207 C 324.239 239.874,324.573 240.421,324.702 240.422 C 324.831 240.424,324.657 239.878,324.316 239.210 C 323.517 237.643,323.301 237.641,323.959 239.207 M261.550 239.818 C 261.809 240.319,262.090 240.729,262.174 240.729 C 262.257 240.729,262.113 240.319,261.854 239.818 C 261.595 239.316,261.314 238.906,261.231 238.906 C 261.147 238.906,261.291 239.316,261.550 239.818 M326.028 242.781 C 326.651 243.910,327.410 245.159,327.714 245.558 C 328.019 245.956,328.267 246.416,328.267 246.579 C 328.267 246.901,330.115 249.848,330.317 249.848 C 330.458 249.848,329.196 247.575,326.813 243.541 C 324.887 240.278,324.368 239.776,326.028 242.781 M264.894 245.593 C 265.153 246.094,265.434 246.505,265.517 246.505 C 265.601 246.505,265.457 246.094,265.198 245.593 C 264.938 245.091,264.658 244.681,264.574 244.681 C 264.490 244.681,264.634 245.091,264.894 245.593 M266.859 248.916 C 267.032 249.240,267.173 249.581,267.173 249.675 C 267.173 249.770,239.031 249.881,204.635 249.924 L 142.097 250.001 204.947 250.077 L 267.797 250.152 267.325 249.240 C 267.066 248.739,266.784 248.328,266.699 248.328 C 266.614 248.328,266.686 248.593,266.859 248.916 M331.151 251.596 C 331.408 252.055,332.026 253.116,332.523 253.951 C 333.020 254.787,333.654 255.984,333.933 256.611 C 334.211 257.238,334.558 257.751,334.704 257.751 C 335.019 257.751,334.525 256.763,332.487 253.312 C 331.117 250.992,330.038 249.606,331.151 251.596 M335.400 258.947 C 335.654 259.438,336.000 259.925,336.169 260.029 C 336.337 260.134,336.188 259.732,335.837 259.137 C 335.067 257.832,334.753 257.696,335.400 258.947 M336.481 260.638 C 336.479 260.805,336.775 261.421,337.139 262.006 C 338.093 263.537,339.094 265.329,339.725 266.638 C 340.027 267.263,340.386 267.776,340.523 267.778 C 340.660 267.780,340.191 266.721,339.480 265.426 C 337.774 262.316,336.487 260.261,336.481 260.638 M341.827 270.137 C 342.448 271.265,343.136 272.402,343.358 272.664 C 343.580 272.926,343.913 273.575,344.099 274.108 C 344.285 274.640,344.563 275.076,344.718 275.076 C 345.049 275.076,344.578 274.125,342.517 270.637 C 340.715 267.585,340.233 267.236,341.827 270.137 M345.513 276.520 C 346.157 277.937,346.165 277.949,346.365 277.749 C 346.523 277.591,345.353 275.380,345.112 275.380 C 345.047 275.380,345.228 275.893,345.513 276.520 M346.951 279.008 C 347.204 279.499,347.550 279.986,347.719 280.090 C 347.887 280.194,347.738 279.793,347.387 279.198 C 346.617 277.893,346.303 277.757,346.951 279.008 M348.036 280.699 C 348.031 280.866,348.334 281.482,348.709 282.067 C 349.524 283.336,350.389 284.871,351.207 286.498 C 351.965 288.007,351.942 287.977,352.153 287.766 C 352.315 287.603,351.849 286.748,349.022 282.028 C 348.485 281.130,348.041 280.532,348.036 280.699 M352.907 289.286 C 353.285 289.913,353.815 290.836,354.084 291.337 C 354.853 292.771,355.974 294.529,356.120 294.529 C 356.288 294.529,355.883 293.774,354.041 290.653 C 353.226 289.274,352.483 288.146,352.390 288.146 C 352.296 288.146,352.529 288.659,352.907 289.286 M356.829 296.049 C 357.046 296.467,357.372 296.995,357.554 297.224 C 358.576 298.509,358.971 301.472,358.221 302.222 C 357.978 302.465,357.849 302.733,357.935 302.818 C 358.226 303.109,356.342 304.219,354.994 304.550 C 352.918 305.060,54.833 304.847,53.799 304.334 C 53.381 304.127,52.698 303.721,52.280 303.433 L 51.520 302.908 52.105 303.589 C 53.560 305.280,42.950 305.176,205.477 305.092 C 354.483 305.016,355.173 305.012,356.379 304.407 C 359.399 302.892,359.682 297.964,356.881 295.656 C 356.494 295.337,356.487 295.388,356.829 296.049 " stroke="none" fill="#bf9ec4" fill-rule="evenodd"></path><path id="path4" d="M202.346 38.018 C 201.325 38.860,199.038 42.333,197.730 45.030 C 197.237 46.044,197.288 46.004,198.394 44.511 C 198.653 44.161,199.473 42.712,200.357 41.041 C 201.078 39.680,203.012 37.637,203.370 37.859 C 203.523 37.953,203.647 37.894,203.647 37.728 C 203.647 37.562,204.024 37.369,204.483 37.300 C 205.318 37.173,205.318 37.173,204.401 37.128 C 203.777 37.097,203.117 37.383,202.346 38.018 M196.717 46.565 C 196.517 46.766,196.353 47.037,196.353 47.168 C 196.353 47.299,195.805 48.300,195.137 49.392 C 194.468 50.485,193.921 51.432,193.921 51.497 C 193.921 51.563,192.622 53.822,191.034 56.518 C 189.446 59.214,187.839 61.981,187.463 62.666 C 187.086 63.352,186.641 64.133,186.474 64.403 C 186.307 64.673,184.871 67.150,183.283 69.909 C 181.695 72.667,180.258 75.159,180.091 75.446 C 179.924 75.733,179.017 77.306,178.075 78.941 C 177.133 80.577,175.132 84.035,173.629 86.626 C 169.440 93.846,169.440 93.846,167.309 97.568 C 166.208 99.491,165.028 101.543,164.686 102.128 C 164.345 102.713,163.726 103.773,163.311 104.483 C 162.896 105.194,162.672 105.772,162.813 105.768 C 162.954 105.765,163.275 105.356,163.526 104.859 C 164.284 103.359,166.641 99.251,166.837 99.088 C 166.939 99.004,167.282 98.457,167.600 97.872 C 168.716 95.823,169.539 94.360,170.677 92.401 C 171.308 91.315,172.158 89.814,172.565 89.066 C 172.973 88.319,173.546 87.361,173.838 86.939 C 174.130 86.516,174.962 85.076,175.686 83.739 C 176.410 82.401,177.367 80.760,177.813 80.091 C 178.259 79.422,178.829 78.465,179.081 77.964 C 179.332 77.462,180.243 75.835,181.106 74.348 C 181.969 72.862,182.675 71.604,182.675 71.554 C 182.675 71.505,183.234 70.533,183.918 69.394 C 185.421 66.894,185.376 66.972,186.961 64.134 C 187.661 62.880,188.317 61.786,188.418 61.702 C 188.519 61.618,188.862 61.071,189.180 60.486 C 189.497 59.901,190.635 57.868,191.707 55.967 C 192.779 54.067,193.819 52.221,194.017 51.864 C 194.215 51.508,194.445 51.147,194.529 51.064 C 194.612 50.980,194.831 50.638,195.016 50.304 C 195.200 49.970,195.794 48.910,196.336 47.948 C 197.318 46.208,197.411 45.872,196.717 46.565 M160.856 108.739 C 158.775 112.374,154.033 120.566,153.202 121.960 C 152.829 122.587,152.640 123.099,152.782 123.098 C 152.923 123.097,153.190 122.789,153.373 122.414 C 153.557 122.039,154.182 120.912,154.762 119.909 C 155.343 118.906,156.013 117.743,156.252 117.325 C 156.491 116.907,156.755 116.497,156.839 116.413 C 156.922 116.329,157.251 115.782,157.569 115.197 C 159.294 112.026,161.741 107.790,162.309 106.992 C 162.667 106.490,162.829 106.079,162.669 106.079 C 162.509 106.079,161.693 107.276,160.856 108.739 M151.579 124.808 C 150.437 126.700,150.667 126.768,151.877 124.897 C 152.408 124.076,152.749 123.404,152.635 123.404 C 152.521 123.404,152.046 124.036,151.579 124.808 M148.993 129.255 C 147.000 132.579,146.428 133.739,146.780 133.739 C 146.940 133.739,147.167 133.431,147.284 133.055 C 147.401 132.679,147.728 132.029,148.012 131.611 C 148.817 130.425,150.806 126.748,150.643 126.748 C 150.563 126.748,149.820 127.876,148.993 129.255 M145.559 135.182 C 145.173 135.809,144.674 136.728,144.451 137.225 C 144.228 137.722,143.869 138.337,143.653 138.593 C 143.177 139.154,140.956 143.161,141.119 143.161 C 141.358 143.161,144.985 137.154,144.985 136.758 C 144.985 136.602,145.122 136.474,145.289 136.474 C 145.456 136.474,145.565 136.372,145.530 136.246 C 145.496 136.121,145.705 135.574,145.994 135.030 C 146.713 133.680,146.421 133.782,145.559 135.182 M204.224 142.325 C 204.028 142.701,203.522 143.625,203.100 144.377 C 202.677 145.129,202.476 145.608,202.652 145.441 C 203.094 145.022,204.961 141.641,204.751 141.641 C 204.657 141.641,204.420 141.949,204.224 142.325 M140.091 144.757 C 139.657 145.468,138.164 148.032,136.775 150.456 C 135.386 152.880,134.034 155.205,133.771 155.623 C 133.508 156.041,133.146 156.657,132.965 156.991 C 132.785 157.325,132.256 158.283,131.789 159.119 C 131.218 160.141,131.144 160.390,131.563 159.878 C 131.906 159.460,132.831 157.956,133.619 156.535 C 134.407 155.114,135.132 153.883,135.231 153.799 C 135.330 153.715,135.671 153.168,135.990 152.583 C 138.555 147.872,140.479 144.553,140.966 143.997 C 141.222 143.704,141.308 143.465,141.157 143.466 C 141.005 143.466,140.526 144.047,140.091 144.757 M201.752 146.581 C 201.078 147.614,200.193 149.434,200.533 149.088 C 200.952 148.661,202.520 145.897,202.343 145.897 C 202.263 145.897,201.997 146.204,201.752 146.581 M199.311 150.836 C 198.243 152.683,197.751 153.696,198.093 153.343 C 198.507 152.918,200.381 149.544,200.203 149.544 C 200.123 149.544,199.722 150.125,199.311 150.836 M196.343 156.003 C 194.701 158.799,194.773 158.663,194.932 158.663 C 195.007 158.663,195.650 157.671,196.362 156.459 C 198.004 153.663,197.932 153.799,197.773 153.799 C 197.699 153.799,197.055 154.791,196.343 156.003 M193.921 160.182 C 193.580 160.851,193.369 161.398,193.453 161.398 C 193.536 161.398,193.884 160.851,194.225 160.182 C 194.566 159.514,194.777 158.967,194.693 158.967 C 194.610 158.967,194.262 159.514,193.921 160.182 M127.179 167.032 C 125.187 170.465,123.302 173.713,122.990 174.251 C 122.679 174.788,122.085 175.809,121.670 176.520 C 121.255 177.230,121.030 177.810,121.172 177.809 C 121.313 177.808,121.579 177.500,121.762 177.125 C 121.946 176.750,122.571 175.623,123.151 174.620 C 123.732 173.617,124.402 172.454,124.641 172.036 C 124.880 171.619,125.144 171.208,125.228 171.125 C 125.312 171.041,125.626 170.494,125.926 169.909 C 126.226 169.324,126.790 168.298,127.178 167.629 C 127.566 166.960,128.465 165.388,129.177 164.134 C 129.888 162.880,130.679 161.615,130.935 161.322 C 131.192 161.030,131.267 160.790,131.102 160.790 C 130.937 160.790,129.172 163.599,127.179 167.032 M191.784 163.906 C 190.297 166.438,190.015 167.027,190.791 165.983 C 191.512 165.014,193.386 161.702,193.213 161.702 C 193.139 161.702,192.496 162.694,191.784 163.906 M189.514 167.781 C 189.254 168.283,189.111 168.693,189.194 168.693 C 189.278 168.693,189.558 168.283,189.818 167.781 C 190.077 167.280,190.221 166.869,190.137 166.869 C 190.054 166.869,189.773 167.280,189.514 167.781 M188.298 169.909 C 188.039 170.410,187.895 170.821,187.978 170.821 C 188.062 170.821,188.342 170.410,188.602 169.909 C 188.861 169.407,189.005 168.997,188.921 168.997 C 188.838 168.997,188.557 169.407,188.298 169.909 M187.447 171.353 C 187.378 171.478,186.937 172.264,186.468 173.100 C 185.998 173.936,185.755 174.483,185.928 174.316 C 186.368 173.890,187.935 171.125,187.737 171.125 C 187.647 171.125,187.517 171.227,187.447 171.353 M184.954 175.684 C 184.695 176.185,184.551 176.596,184.635 176.596 C 184.718 176.596,184.999 176.185,185.258 175.684 C 185.518 175.182,185.662 174.772,185.578 174.772 C 185.494 174.772,185.214 175.182,184.954 175.684 M183.739 177.812 C 183.479 178.313,183.335 178.723,183.419 178.723 C 183.503 178.723,183.783 178.313,184.043 177.812 C 184.302 177.310,184.446 176.900,184.362 176.900 C 184.279 176.900,183.998 177.310,183.739 177.812 M119.983 179.496 C 119.040 181.057,119.011 181.155,119.504 181.155 C 119.699 181.155,119.772 181.069,119.668 180.964 C 119.563 180.860,119.888 180.176,120.391 179.445 C 120.894 178.714,121.196 178.116,121.061 178.116 C 120.926 178.116,120.441 178.737,119.983 179.496 M181.754 181.231 C 180.266 183.763,179.985 184.352,180.761 183.308 C 181.482 182.340,183.355 179.027,183.183 179.027 C 183.109 179.027,182.465 180.019,181.754 181.231 M117.223 184.271 C 116.320 185.817,114.913 188.243,114.097 189.662 C 113.281 191.081,112.448 192.518,112.246 192.854 C 112.044 193.190,111.779 193.670,111.658 193.921 C 111.537 194.172,110.916 195.234,110.278 196.282 C 108.997 198.386,108.963 198.480,109.473 198.480 C 109.668 198.480,109.742 198.394,109.637 198.290 C 109.532 198.185,109.827 197.535,110.292 196.846 C 110.757 196.157,111.664 194.635,112.306 193.465 C 112.948 192.295,113.554 191.269,113.652 191.185 C 113.750 191.102,114.103 190.486,114.437 189.818 C 114.771 189.149,115.215 188.421,115.425 188.200 C 115.634 187.979,115.805 187.658,115.805 187.487 C 115.805 187.316,116.056 186.813,116.361 186.369 C 117.200 185.151,119.201 181.459,119.022 181.459 C 118.935 181.459,118.126 182.724,117.223 184.271 M179.331 185.410 C 178.990 186.079,178.779 186.626,178.863 186.626 C 178.947 186.626,179.294 186.079,179.635 185.410 C 179.976 184.742,180.187 184.195,180.104 184.195 C 180.020 184.195,179.672 184.742,179.331 185.410 M177.730 188.222 C 176.662 190.069,176.171 191.082,176.513 190.729 C 176.927 190.304,178.800 186.930,178.623 186.930 C 178.543 186.930,178.141 187.511,177.730 188.222 M174.924 193.009 C 174.665 193.511,174.521 193.921,174.604 193.921 C 174.688 193.921,174.969 193.511,175.228 193.009 C 175.487 192.508,175.631 192.097,175.548 192.097 C 175.464 192.097,175.183 192.508,174.924 193.009 M173.708 195.137 C 173.449 195.638,173.305 196.049,173.389 196.049 C 173.472 196.049,173.753 195.638,174.012 195.137 C 174.272 194.635,174.415 194.225,174.332 194.225 C 174.248 194.225,173.968 194.635,173.708 195.137 M172.613 197.036 C 172.417 197.413,171.911 198.336,171.489 199.088 C 171.066 199.840,170.865 200.319,171.041 200.152 C 171.483 199.733,173.350 196.353,173.140 196.353 C 173.046 196.353,172.809 196.660,172.613 197.036 M107.646 200.836 C 106.988 201.964,105.493 204.529,104.324 206.535 C 103.155 208.541,101.893 210.729,101.520 211.398 C 100.557 213.127,99.987 214.117,94.964 222.796 C 86.488 237.441,87.340 235.866,87.893 235.866 C 88.088 235.866,88.163 235.782,88.060 235.679 C 87.957 235.576,88.345 234.792,88.921 233.936 C 89.498 233.079,89.970 232.292,89.970 232.186 C 89.970 232.079,90.722 230.739,91.641 229.206 C 92.561 227.674,93.313 226.289,93.313 226.128 C 93.313 225.967,93.420 225.836,93.550 225.836 C 93.681 225.836,93.952 225.460,94.153 225.000 C 94.355 224.540,94.836 223.617,95.222 222.948 C 95.609 222.280,96.316 221.049,96.793 220.213 C 97.270 219.377,98.064 218.043,98.558 217.249 C 99.052 216.455,99.749 215.260,100.108 214.594 C 101.294 212.391,103.449 208.665,103.626 208.510 C 103.791 208.365,103.984 208.027,105.700 204.863 C 106.108 204.111,106.543 203.359,106.666 203.191 C 107.166 202.516,109.138 198.784,108.995 198.784 C 108.911 198.784,108.304 199.707,107.646 200.836 M170.426 200.836 C 170.356 200.961,169.916 201.748,169.446 202.584 C 168.977 203.419,168.734 203.967,168.907 203.799 C 169.346 203.373,170.914 200.608,170.716 200.608 C 170.626 200.608,170.496 200.710,170.426 200.836 M167.933 205.167 C 167.674 205.669,167.530 206.079,167.614 206.079 C 167.697 206.079,167.978 205.669,168.237 205.167 C 168.496 204.666,168.640 204.255,168.557 204.255 C 168.473 204.255,168.192 204.666,167.933 205.167 M166.717 207.295 C 166.458 207.796,166.314 208.207,166.398 208.207 C 166.481 208.207,166.762 207.796,167.021 207.295 C 167.281 206.793,167.424 206.383,167.341 206.383 C 167.257 206.383,166.977 206.793,166.717 207.295 M165.867 208.739 C 165.797 208.864,165.356 209.650,164.887 210.486 C 164.418 211.322,164.175 211.869,164.347 211.702 C 164.787 211.276,166.354 208.511,166.156 208.511 C 166.067 208.511,165.936 208.613,165.867 208.739 M163.141 213.450 C 162.072 215.297,161.581 216.310,161.923 215.957 C 162.337 215.532,164.210 212.158,164.033 212.158 C 163.953 212.158,163.551 212.739,163.141 213.450 M160.173 218.617 C 158.531 221.413,158.603 221.277,158.762 221.277 C 158.836 221.277,159.480 220.285,160.192 219.073 C 161.834 216.277,161.762 216.413,161.603 216.413 C 161.528 216.413,160.885 217.405,160.173 218.617 M157.903 222.492 C 157.643 222.994,157.500 223.404,157.583 223.404 C 157.667 223.404,157.947 222.994,158.207 222.492 C 158.466 221.991,158.610 221.581,158.526 221.581 C 158.443 221.581,158.162 221.991,157.903 222.492 M156.687 224.620 C 156.428 225.122,156.284 225.532,156.367 225.532 C 156.451 225.532,156.732 225.122,156.991 224.620 C 157.250 224.119,157.394 223.708,157.310 223.708 C 157.227 223.708,156.946 224.119,156.687 224.620 M155.836 226.064 C 155.767 226.189,155.326 226.976,154.857 227.812 C 154.387 228.647,154.144 229.195,154.317 229.027 C 154.757 228.601,156.324 225.836,156.126 225.836 C 156.036 225.836,155.906 225.938,155.836 226.064 M153.343 230.395 C 153.084 230.897,152.940 231.307,153.024 231.307 C 153.107 231.307,153.388 230.897,153.647 230.395 C 153.907 229.894,154.051 229.483,153.967 229.483 C 153.883 229.483,153.603 229.894,153.343 230.395 M152.128 232.523 C 151.868 233.024,151.725 233.435,151.808 233.435 C 151.892 233.435,152.172 233.024,152.432 232.523 C 152.691 232.021,152.835 231.611,152.751 231.611 C 152.668 231.611,152.387 232.021,152.128 232.523 M150.143 235.942 C 148.655 238.474,148.374 239.064,149.150 238.020 C 149.871 237.051,151.744 233.739,151.572 233.739 C 151.498 233.739,150.855 234.730,150.143 235.942 M85.750 238.723 C 83.742 242.123,83.218 243.161,83.512 243.161 C 83.647 243.161,83.920 242.785,84.120 242.325 C 84.319 241.866,84.965 240.669,85.554 239.666 C 87.194 236.875,87.567 236.170,87.406 236.170 C 87.324 236.170,86.579 237.319,85.750 238.723 M147.720 240.122 C 147.379 240.790,147.168 241.337,147.252 241.337 C 147.336 241.337,147.683 240.790,148.024 240.122 C 148.365 239.453,148.576 238.906,148.493 238.906 C 148.409 238.906,148.062 239.453,147.720 240.122 M145.583 243.845 C 144.096 246.377,143.814 246.966,144.591 245.922 C 145.311 244.954,147.185 241.641,147.013 241.641 C 146.939 241.641,146.295 242.633,145.583 243.845 M81.389 246.277 C 78.707 250.807,77.437 253.192,77.709 253.188 C 77.849 253.187,78.201 252.674,78.492 252.049 C 78.782 251.423,79.406 250.296,79.877 249.544 C 81.106 247.582,83.350 243.465,83.189 243.465 C 83.115 243.465,82.305 244.730,81.389 246.277 M143.031 248.223 C 142.596 249.000,142.289 249.685,142.348 249.744 C 142.407 249.803,142.828 249.166,143.283 248.330 C 143.738 247.493,144.046 246.809,143.966 246.809 C 143.886 246.809,143.465 247.445,143.031 248.223 M76.318 255.020 C 75.802 255.858,75.380 256.599,75.380 256.666 C 75.380 256.733,74.475 258.338,73.370 260.233 C 72.264 262.128,70.532 265.114,69.521 266.869 C 68.509 268.625,67.157 270.912,66.516 271.953 C 65.874 272.994,65.350 273.906,65.350 273.980 C 65.350 274.054,64.529 275.505,63.526 277.204 C 61.606 280.456,61.563 280.547,61.939 280.547 C 62.070 280.547,62.340 280.171,62.540 279.711 C 62.740 279.252,63.282 278.242,63.746 277.469 C 64.210 276.695,65.274 274.865,66.109 273.402 C 66.945 271.939,67.903 270.286,68.237 269.729 C 69.367 267.849,71.580 263.984,71.702 263.678 C 71.769 263.511,71.906 263.305,72.006 263.222 C 72.106 263.138,72.449 262.591,72.768 262.006 C 73.086 261.421,73.681 260.327,74.089 259.574 C 74.497 258.822,74.932 258.070,75.055 257.903 C 75.530 257.261,77.530 253.495,77.397 253.495 C 77.319 253.495,76.834 254.181,76.318 255.020 M60.583 282.295 C 59.786 283.550,57.346 287.843,56.266 289.894 C 56.068 290.270,56.013 290.576,56.144 290.574 C 56.276 290.573,56.618 290.060,56.905 289.435 C 57.192 288.809,57.599 288.024,57.809 287.690 C 59.617 284.816,61.831 280.851,61.628 280.851 C 61.558 280.851,61.088 281.501,60.583 282.295 M54.627 292.629 C 52.548 296.120,51.632 297.872,51.887 297.872 C 52.030 297.872,52.318 297.496,52.528 297.036 C 52.738 296.577,53.281 295.574,53.735 294.807 C 55.067 292.557,55.950 290.881,55.803 290.881 C 55.728 290.881,55.199 291.668,54.627 292.629 M51.099 299.118 C 50.676 300.330,50.672 301.532,51.087 302.128 C 51.324 302.468,51.356 302.338,51.214 301.616 C 51.110 301.083,51.166 300.134,51.340 299.505 C 51.732 298.083,51.558 297.802,51.099 299.118 " stroke="none" fill="#f09e99" fill-rule="evenodd"></path></g></svg>