<svg id="svg" version="1.1" xmlns="http://www.w3.org/2000/svg" xmlns:xlink="http://www.w3.org/1999/xlink" width="400" height="403.64741641337383" viewBox="0, 0, 400,403.64741641337383"><g id="svgg"><path id="path0" d="M220.213 56.420 C 178.279 59.785,143.910 82.820,125.515 119.890 C 124.027 122.889,122.857 125.390,122.916 125.449 C 122.975 125.508,124.032 125.156,125.265 124.668 C 136.037 120.400,150.445 117.283,160.790 116.982 L 162.766 116.924 166.988 112.550 C 199.678 78.684,251.758 77.571,285.222 110.024 C 319.175 142.949,318.928 196.553,284.670 229.710 L 280.037 234.195 279.973 236.322 C 279.671 246.381,276.781 260.060,272.755 270.486 C 272.019 272.391,271.462 273.995,271.518 274.051 C 271.726 274.258,282.655 268.675,285.856 266.725 C 348.957 228.296,359.526 141.578,307.454 89.507 C 284.533 66.585,251.178 53.935,220.213 56.420 M158.425 122.568 C 157.316 124.207,157.076 124.620,157.234 124.620 C 157.304 124.620,157.860 123.868,158.471 122.948 C 159.081 122.029,159.517 121.277,159.440 121.277 C 159.363 121.277,158.906 121.858,158.425 122.568 M153.647 130.395 C 153.388 130.897,153.244 131.307,153.328 131.307 C 153.411 131.307,153.692 130.897,153.951 130.395 C 154.211 129.894,154.355 129.483,154.271 129.483 C 154.187 129.483,153.907 129.894,153.647 130.395 M151.721 134.208 C 151.212 135.325,151.309 135.564,151.860 134.548 C 152.117 134.073,152.270 133.628,152.201 133.558 C 152.131 133.489,151.915 133.781,151.721 134.208 M145.289 149.611 C 135.814 152.007,124.834 157.419,116.349 163.878 L 113.982 165.681 113.982 169.878 C 113.982 231.212,162.985 281.184,224.801 282.889 L 231.213 283.066 233.049 280.655 C 239.668 271.959,245.223 260.588,247.520 251.031 L 247.710 250.238 245.398 250.789 C 187.672 264.542,133.440 211.027,145.939 152.644 C 146.657 149.291,146.652 149.267,145.289 149.611 M273.618 238.732 C 272.206 239.730,272.008 240.016,273.200 239.333 C 273.756 239.014,274.354 238.583,274.529 238.374 C 274.978 237.837,274.767 237.920,273.618 238.732 " stroke="none" fill="#39cd73" fill-rule="evenodd"></path><path id="path1" d="M162.353 117.886 C 157.521 123.120,151.588 134.151,148.390 143.846 C 146.424 149.806,146.308 149.388,149.719 148.648 C 207.896 136.027,260.933 189.064,248.313 247.241 C 247.579 250.624,247.208 250.485,252.468 248.798 C 261.761 245.818,270.094 241.510,277.567 235.821 C 280.448 233.628,280.385 233.841,280.123 227.084 C 277.731 165.644,230.868 118.989,169.374 116.828 L 163.520 116.622 162.353 117.886 M118.832 127.470 C 51.913 158.406,32.438 245.817,79.823 302.562 C 128.542 360.906,219.957 355.719,261.554 292.249 C 265.520 286.197,271.490 275.036,271.014 274.560 C 270.962 274.508,269.290 275.085,267.299 275.842 C 257.540 279.551,246.628 281.952,235.946 282.742 L 231.012 283.107 228.655 285.812 C 197.988 321.013,141.574 322.456,108.060 288.896 C 74.499 255.287,75.963 198.959,111.196 168.264 L 113.853 165.949 114.218 161.014 C 115.024 150.126,117.465 139.274,121.475 128.756 C 122.742 125.433,122.983 125.551,118.832 127.470 " stroke="none" fill="#fbcb5b" fill-rule="evenodd"></path><path id="path2" d="M187.690 11.743 C 124.518 16.590,70.927 48.435,37.345 101.083 C 11.461 141.662,1.921 193.167,11.423 241.033 C 32.976 349.601,141.176 417.385,248.632 389.638 C 351.036 363.195,412.595 258.047,385.990 155.015 C 365.945 77.386,300.103 21.112,218.997 12.289 C 214.670 11.818,191.887 11.421,187.690 11.743 M236.050 56.545 C 303.850 61.969,351.828 125.188,338.578 191.641 C 331.663 226.324,309.799 254.883,277.731 271.120 L 271.420 274.316 269.784 277.881 C 248.504 324.253,197.184 350.908,146.809 341.751 C 84.031 330.341,42.979 269.680,55.757 207.208 C 62.942 172.081,87.001 141.808,119.576 126.906 L 122.791 125.435 125.201 120.480 C 145.762 78.201,189.734 52.839,236.050 56.545 M217.192 87.120 C 198.100 89.565,182.083 97.504,168.237 111.385 L 163.070 116.565 170.061 116.758 C 230.367 118.419,278.513 166.566,280.200 226.900 L 280.395 233.891 285.442 228.875 C 330.711 183.892,311.815 108.371,250.653 89.837 C 241.070 86.933,227.350 85.819,217.192 87.120 M159.878 147.316 C 155.584 147.747,149.090 148.810,147.077 149.413 C 146.731 149.516,146.427 150.349,146.056 152.211 C 141.985 172.649,145.171 193.369,155.024 210.538 C 170.625 237.722,198.176 253.228,229.574 252.495 C 240.314 252.244,247.245 251.013,247.707 249.275 C 252.259 232.154,249.683 209.998,241.163 192.971 C 226.050 162.770,192.679 144.026,159.878 147.316 M108.880 170.745 C 80.245 199.136,75.601 242.910,97.715 275.988 C 125.007 316.810,180.504 325.341,219.149 294.654 C 221.691 292.636,230.699 283.792,230.699 283.315 C 230.699 283.181,227.724 282.986,224.088 282.882 C 163.200 281.149,114.029 231.001,113.985 170.593 C 113.983 168.048,113.862 166.261,113.692 166.261 C 113.532 166.261,111.367 168.279,108.880 170.745 " stroke="none" fill="#2c3434" fill-rule="evenodd"></path><path id="path3" d="M226.672 86.537 C 227.048 86.609,227.663 86.609,228.040 86.537 C 228.416 86.464,228.108 86.405,227.356 86.405 C 226.603 86.405,226.296 86.464,226.672 86.537 M159.125 117.067 C 148.152 117.775,136.482 120.374,125.632 124.527 L 122.846 125.593 121.335 129.590 C 117.171 140.606,115.161 150.293,114.187 164.036 L 114.075 165.610 116.396 163.843 C 124.182 157.916,133.934 152.937,142.857 150.334 C 144.445 149.870,145.892 149.448,146.071 149.396 C 146.251 149.343,146.648 148.363,146.953 147.218 C 149.409 138.000,154.782 127.162,160.695 119.498 C 161.773 118.102,162.611 116.936,162.558 116.906 C 162.505 116.876,160.961 116.949,159.125 117.067 M144.177 169.757 C 144.178 171.094,144.232 171.604,144.296 170.889 C 144.360 170.174,144.359 169.079,144.294 168.457 C 144.229 167.835,144.176 168.419,144.177 169.757 M310.417 169.605 C 310.417 170.357,310.476 170.665,310.549 170.289 C 310.621 169.913,310.621 169.297,310.549 168.921 C 310.476 168.545,310.417 168.853,310.417 169.605 M249.919 230.091 C 249.919 230.676,249.981 230.916,250.058 230.623 C 250.134 230.331,250.134 229.852,250.058 229.559 C 249.981 229.267,249.919 229.506,249.919 230.091 M278.116 235.745 C 270.806 241.680,256.747 248.598,248.543 250.298 C 248.076 250.395,247.644 250.641,247.582 250.845 C 247.520 251.049,247.090 252.515,246.627 254.103 C 244.012 263.066,239.071 272.744,233.118 280.564 L 231.351 282.885 232.925 282.774 C 246.814 281.789,257.219 279.599,268.281 275.333 L 271.364 274.144 272.882 270.127 C 277.007 259.214,279.341 247.977,280.016 235.790 C 280.112 234.057,280.192 234.059,278.116 235.745 M226.216 252.805 C 226.843 252.871,227.869 252.871,228.495 252.805 C 229.122 252.739,228.609 252.686,227.356 252.686 C 226.102 252.686,225.589 252.739,226.216 252.805 " stroke="none" fill="#7d6f45" fill-rule="evenodd"></path><path id="path4" d="M171.353 116.932 C 171.729 117.004,172.344 117.004,172.720 116.932 C 173.097 116.859,172.789 116.800,172.036 116.800 C 171.284 116.800,170.976 116.859,171.353 116.932 M163.450 147.028 C 163.993 147.096,164.882 147.096,165.426 147.028 C 165.969 146.961,165.524 146.906,164.438 146.906 C 163.351 146.906,162.907 146.961,163.450 147.028 M168.306 147.028 C 168.846 147.095,169.803 147.096,170.434 147.030 C 171.065 146.965,170.623 146.910,169.453 146.908 C 168.283 146.907,167.767 146.961,168.306 147.028 M114.660 156.231 C 114.660 156.816,114.723 157.055,114.799 156.763 C 114.876 156.470,114.876 155.992,114.799 155.699 C 114.723 155.407,114.660 155.646,114.660 156.231 M114.362 159.119 C 114.366 159.787,114.428 160.025,114.501 159.647 C 114.573 159.269,114.571 158.722,114.495 158.431 C 114.418 158.141,114.359 158.450,114.362 159.119 M114.076 163.374 C 114.078 164.377,114.134 164.751,114.202 164.204 C 114.270 163.658,114.268 162.837,114.199 162.381 C 114.130 161.924,114.074 162.371,114.076 163.374 M108.045 171.201 L 106.231 173.100 108.131 171.286 C 109.176 170.288,110.030 169.433,110.030 169.386 C 110.030 169.162,109.730 169.436,108.045 171.201 M225.532 171.277 C 226.609 172.363,227.558 173.252,227.642 173.252 C 227.726 173.252,226.913 172.363,225.836 171.277 C 224.759 170.190,223.809 169.301,223.726 169.301 C 223.642 169.301,224.455 170.190,225.532 171.277 M280.022 224.924 C 280.022 225.676,280.081 225.984,280.154 225.608 C 280.226 225.232,280.226 224.616,280.154 224.240 C 280.081 223.864,280.022 224.172,280.022 224.924 M53.578 225.228 C 53.578 225.980,53.638 226.288,53.710 225.912 C 53.782 225.536,53.782 224.920,53.710 224.544 C 53.638 224.168,53.578 224.476,53.578 225.228 M83.707 229.939 C 83.707 232.280,83.755 233.197,83.813 231.978 C 83.870 230.758,83.870 228.843,83.812 227.722 C 83.753 226.601,83.706 227.599,83.707 229.939 M249.942 227.508 C 249.944 228.511,250.001 228.884,250.068 228.338 C 250.136 227.792,250.135 226.971,250.065 226.514 C 249.996 226.058,249.941 226.505,249.942 227.508 M249.942 232.675 C 249.944 233.678,250.001 234.052,250.068 233.505 C 250.136 232.959,250.135 232.138,250.065 231.681 C 249.996 231.225,249.941 231.672,249.942 232.675 M53.578 234.954 C 53.578 235.707,53.638 236.014,53.710 235.638 C 53.782 235.262,53.782 234.647,53.710 234.271 C 53.638 233.894,53.578 234.202,53.578 234.954 M240.198 282.276 C 240.490 282.353,240.969 282.353,241.261 282.276 C 241.554 282.200,241.315 282.137,240.729 282.137 C 240.144 282.137,239.905 282.200,240.198 282.276 M237.314 282.586 C 237.692 282.658,238.239 282.656,238.529 282.580 C 238.820 282.504,238.511 282.444,237.842 282.447 C 237.173 282.451,236.935 282.513,237.314 282.586 M232.756 282.895 C 233.303 282.963,234.123 282.961,234.580 282.892 C 235.037 282.823,234.590 282.767,233.587 282.769 C 232.584 282.771,232.210 282.827,232.756 282.895 M225.523 288.982 L 223.556 291.033 225.608 289.067 C 226.736 287.985,227.660 287.061,227.660 287.015 C 227.660 286.791,227.350 287.076,225.523 288.982 M107.903 288.906 C 108.811 289.825,109.622 290.578,109.706 290.578 C 109.789 290.578,109.115 289.825,108.207 288.906 C 107.299 287.986,106.487 287.234,106.404 287.234 C 106.320 287.234,106.995 287.986,107.903 288.906 M249.677 307.371 L 248.784 308.359 249.772 307.466 C 250.315 306.975,250.760 306.530,250.760 306.478 C 250.760 306.243,250.509 306.450,249.677 307.371 M83.283 306.782 C 83.283 306.834,83.727 307.279,84.271 307.770 L 85.258 308.663 84.366 307.675 C 83.533 306.754,83.283 306.547,83.283 306.782 M164.818 313.295 C 165.946 313.354,167.793 313.354,168.921 313.295 C 170.049 313.237,169.126 313.189,166.869 313.189 C 164.612 313.189,163.689 313.237,164.818 313.295 M161.322 343.376 C 161.698 343.448,162.314 343.448,162.690 343.376 C 163.066 343.303,162.758 343.244,162.006 343.244 C 161.254 343.244,160.946 343.303,161.322 343.376 M171.049 343.376 C 171.425 343.448,172.040 343.448,172.416 343.376 C 172.793 343.303,172.485 343.244,171.733 343.244 C 170.980 343.244,170.672 343.303,171.049 343.376 " stroke="none" fill="#9e844b" fill-rule="evenodd"></path></g></svg>