<svg id="svg" version="1.1" xmlns="http://www.w3.org/2000/svg" xmlns:xlink="http://www.w3.org/1999/xlink" width="400" height="400" viewBox="0, 0, 400,400"><g id="svgg"><path id="path0" d="M190.600 76.782 C 188.180 76.948,185.604 77.280,184.876 77.520 C 184.148 77.761,181.358 78.168,178.676 78.425 C 175.994 78.681,173.306 79.145,172.701 79.455 C 172.097 79.765,170.117 80.222,168.301 80.469 C 166.486 80.716,164.715 81.162,164.367 81.460 C 164.019 81.758,162.669 82.188,161.367 82.415 C 160.065 82.642,158.370 83.166,157.600 83.580 C 156.830 83.993,155.480 84.463,154.600 84.624 C 153.720 84.784,152.590 85.235,152.088 85.625 C 151.587 86.015,150.472 86.453,149.611 86.598 C 148.750 86.744,147.835 87.117,147.576 87.428 C 147.318 87.740,146.363 88.192,145.453 88.434 C 144.544 88.676,143.518 89.125,143.174 89.432 C 142.830 89.739,141.930 90.201,141.174 90.459 C 140.418 90.717,139.371 91.259,138.846 91.664 C 138.321 92.069,137.660 92.400,137.377 92.400 C 137.093 92.400,136.340 92.838,135.704 93.374 C 135.067 93.910,134.063 94.469,133.473 94.617 C 132.883 94.766,132.400 95.057,132.400 95.266 C 132.400 95.474,131.590 96.003,130.600 96.441 C 129.610 96.879,128.800 97.407,128.800 97.613 C 128.800 97.820,128.170 98.252,127.400 98.574 C 126.630 98.896,126.000 99.327,126.000 99.531 C 126.000 99.736,125.478 100.119,124.840 100.384 C 124.201 100.648,123.270 101.300,122.770 101.832 C 122.270 102.364,121.665 102.800,121.426 102.800 C 121.188 102.800,120.768 103.160,120.493 103.600 C 120.218 104.040,119.823 104.400,119.615 104.400 C 118.678 104.400,102.400 120.501,102.400 121.429 C 102.400 121.582,101.948 122.179,101.396 122.754 C 99.090 125.155,98.800 125.501,98.800 125.857 C 98.800 126.062,98.267 126.853,97.616 127.615 C 96.965 128.377,96.425 129.223,96.416 129.497 C 96.407 129.770,96.040 130.218,95.600 130.493 C 95.160 130.768,94.795 131.264,94.789 131.596 C 94.783 131.928,94.243 132.907,93.589 133.771 C 92.935 134.635,92.400 135.553,92.400 135.809 C 92.400 136.066,92.050 136.593,91.623 136.979 C 91.195 137.366,90.729 138.212,90.587 138.859 C 90.445 139.506,90.017 140.342,89.637 140.718 C 89.257 141.093,88.731 142.146,88.469 143.059 C 88.207 143.971,87.747 144.811,87.447 144.927 C 87.147 145.042,86.773 145.819,86.616 146.655 C 86.459 147.490,86.002 148.635,85.600 149.200 C 85.198 149.765,84.743 150.897,84.589 151.717 C 84.435 152.536,83.999 153.610,83.620 154.103 C 83.241 154.597,82.721 156.066,82.465 157.369 C 82.209 158.672,81.741 160.023,81.426 160.371 C 81.111 160.719,80.733 161.993,80.586 163.202 C 80.438 164.411,79.989 166.120,79.587 167.000 C 79.186 167.880,78.658 170.286,78.415 172.347 C 78.171 174.407,77.719 176.583,77.410 177.181 C 75.582 180.715,75.575 219.120,77.401 223.037 C 77.718 223.717,78.181 226.057,78.430 228.237 C 78.678 230.417,79.130 232.593,79.433 233.073 C 79.736 233.554,80.194 235.264,80.450 236.873 C 80.707 238.483,81.160 240.084,81.458 240.431 C 81.756 240.778,82.206 242.128,82.458 243.431 C 82.710 244.734,83.147 246.070,83.428 246.400 C 83.710 246.730,84.162 247.900,84.433 249.000 C 84.705 250.100,85.238 251.403,85.618 251.897 C 85.999 252.390,86.432 253.445,86.581 254.242 C 86.731 255.039,87.184 256.046,87.589 256.480 C 87.993 256.914,88.435 257.859,88.570 258.580 C 88.705 259.300,89.156 260.198,89.572 260.575 C 89.988 260.951,90.448 261.741,90.594 262.329 C 90.740 262.918,91.185 263.760,91.584 264.200 C 91.982 264.640,92.443 265.450,92.609 266.000 C 92.774 266.550,93.335 267.509,93.855 268.131 C 94.375 268.753,94.800 269.490,94.800 269.769 C 94.800 270.048,95.155 270.598,95.590 270.991 C 96.024 271.384,96.488 272.048,96.621 272.466 C 96.754 272.884,97.253 273.661,97.731 274.194 C 99.307 275.950,100.800 277.905,100.800 278.213 C 100.800 278.379,101.166 278.895,101.613 279.358 C 102.060 279.821,102.915 280.766,103.513 281.457 C 107.826 286.444,108.845 287.560,110.800 289.435 C 115.867 294.295,117.315 295.600,117.645 295.600 C 117.837 295.600,118.218 295.960,118.493 296.400 C 118.768 296.840,119.139 297.200,119.318 297.200 C 119.496 297.200,120.854 298.145,122.335 299.300 C 125.097 301.454,125.756 301.918,127.750 303.111 C 128.383 303.490,129.399 304.205,130.008 304.700 C 130.617 305.195,131.334 305.600,131.600 305.600 C 131.866 305.600,132.619 306.050,133.273 306.600 C 133.927 307.150,134.693 307.600,134.977 307.600 C 135.260 307.600,135.921 307.931,136.446 308.336 C 136.971 308.741,138.018 309.283,138.774 309.541 C 139.530 309.799,140.430 310.255,140.774 310.554 C 141.118 310.854,142.120 311.324,143.000 311.600 C 143.880 311.876,144.870 312.332,145.200 312.613 C 145.530 312.895,146.594 313.337,147.564 313.595 C 148.534 313.854,149.704 314.306,150.164 314.600 C 150.624 314.894,151.810 315.348,152.800 315.609 C 153.790 315.870,155.099 316.342,155.710 316.657 C 156.320 316.973,157.850 317.418,159.110 317.646 C 160.369 317.874,161.772 318.300,162.227 318.592 C 162.682 318.884,164.482 319.338,166.227 319.601 C 167.972 319.864,170.028 320.340,170.795 320.659 C 171.562 320.977,174.082 321.410,176.395 321.619 C 178.708 321.829,181.950 322.313,183.600 322.695 C 187.984 323.710,213.119 323.714,217.600 322.700 C 219.250 322.327,222.612 321.833,225.071 321.603 C 227.530 321.372,230.140 320.936,230.871 320.633 C 231.602 320.331,233.480 319.887,235.046 319.647 C 236.611 319.406,238.681 318.851,239.646 318.414 C 240.610 317.976,241.850 317.612,242.400 317.605 C 242.950 317.598,244.300 317.150,245.400 316.609 C 246.500 316.068,247.761 315.619,248.203 315.613 C 248.645 315.606,249.815 315.176,250.803 314.657 C 251.791 314.139,253.140 313.585,253.800 313.426 C 254.460 313.267,255.270 312.911,255.600 312.635 C 255.930 312.358,256.830 311.892,257.600 311.600 C 258.370 311.308,259.270 310.858,259.600 310.600 C 259.930 310.342,260.830 309.892,261.600 309.600 C 262.370 309.308,263.270 308.850,263.600 308.582 C 263.930 308.315,264.821 307.781,265.580 307.396 C 266.340 307.011,267.208 306.450,267.509 306.148 C 267.810 305.847,268.286 305.600,268.567 305.600 C 268.847 305.600,269.387 305.256,269.767 304.837 C 270.147 304.417,271.030 303.842,271.729 303.559 C 272.428 303.277,273.109 302.886,273.243 302.692 C 273.482 302.343,273.784 302.128,277.246 299.842 C 278.211 299.205,279.144 298.440,279.320 298.142 C 279.496 297.844,279.823 297.600,280.047 297.600 C 280.270 297.600,282.196 296.150,284.327 294.378 C 286.457 292.606,288.740 290.711,289.400 290.167 C 295.192 285.395,301.608 279.142,301.287 278.582 C 300.941 277.979,292.243 268.700,289.300 265.794 C 288.145 264.654,287.200 263.513,287.200 263.260 C 287.200 263.007,286.926 262.800,286.591 262.800 C 286.257 262.800,285.779 262.353,285.531 261.808 C 285.282 261.262,284.746 260.710,284.339 260.581 C 283.933 260.452,283.600 260.204,283.600 260.029 C 283.600 259.855,281.800 257.888,279.600 255.659 C 277.400 253.430,275.600 251.539,275.600 251.459 C 275.600 251.378,274.992 250.668,274.250 249.880 C 272.471 247.994,271.757 248.208,268.203 251.690 C 263.296 256.497,255.943 262.800,255.241 262.800 C 254.999 262.800,254.800 262.975,254.800 263.190 C 254.800 263.404,254.270 263.854,253.622 264.189 C 252.973 264.524,251.957 265.249,251.363 265.799 C 250.769 266.350,250.079 266.800,249.830 266.800 C 249.582 266.800,249.070 267.160,248.693 267.600 C 248.316 268.040,247.764 268.400,247.466 268.400 C 247.168 268.400,246.613 268.744,246.233 269.163 C 245.853 269.583,244.970 270.162,244.271 270.449 C 243.572 270.736,242.390 271.382,241.644 271.885 C 240.898 272.388,239.973 272.800,239.587 272.800 C 239.201 272.800,238.786 273.060,238.664 273.378 C 238.542 273.695,237.668 274.176,236.721 274.447 C 235.775 274.717,234.730 275.163,234.400 275.439 C 234.070 275.714,232.900 276.159,231.800 276.426 C 230.700 276.694,229.511 277.162,229.158 277.466 C 228.804 277.771,227.364 278.205,225.958 278.432 C 224.551 278.659,222.893 279.122,222.272 279.461 C 221.652 279.800,218.952 280.326,216.272 280.629 C 213.593 280.932,210.590 281.357,209.600 281.573 C 207.210 282.094,193.829 282.091,191.800 281.569 C 190.920 281.343,187.917 280.915,185.126 280.617 C 182.319 280.318,179.549 279.801,178.926 279.461 C 178.307 279.122,176.649 278.659,175.242 278.432 C 173.836 278.205,172.396 277.774,172.042 277.475 C 171.689 277.175,170.379 276.711,169.131 276.443 C 167.883 276.175,166.661 275.715,166.417 275.420 C 166.172 275.125,165.366 274.770,164.626 274.631 C 163.886 274.493,162.858 274.050,162.341 273.648 C 161.823 273.245,160.712 272.692,159.872 272.418 C 159.032 272.144,158.252 271.679,158.139 271.384 C 158.026 271.090,157.421 270.736,156.794 270.599 C 156.168 270.461,155.430 270.077,155.154 269.745 C 154.879 269.413,153.966 268.791,153.127 268.363 C 152.287 267.934,151.600 267.407,151.600 267.192 C 151.600 266.976,151.322 266.800,150.982 266.800 C 150.642 266.800,149.914 266.350,149.364 265.800 C 148.814 265.250,148.237 264.796,148.082 264.791 C 147.828 264.783,145.448 262.682,141.600 259.069 C 140.830 258.346,138.980 256.324,137.490 254.577 C 133.783 250.232,133.850 250.315,133.400 249.546 C 133.180 249.170,132.235 247.747,131.300 246.385 C 130.365 245.023,129.600 243.687,129.600 243.416 C 129.600 243.146,129.247 242.604,128.815 242.214 C 128.383 241.823,127.816 240.855,127.555 240.063 C 127.293 239.270,126.841 238.384,126.550 238.093 C 126.259 237.802,125.841 236.897,125.620 236.082 C 125.400 235.267,124.955 234.224,124.632 233.763 C 124.308 233.303,123.824 232.043,123.556 230.963 C 123.288 229.884,122.822 228.617,122.520 228.148 C 122.218 227.680,121.790 226.171,121.568 224.795 C 121.347 223.419,120.902 221.784,120.580 221.161 C 120.258 220.538,119.809 218.177,119.582 215.914 C 119.356 213.651,118.907 210.503,118.585 208.917 C 117.811 205.100,117.808 194.918,118.581 191.083 C 118.901 189.497,119.353 186.432,119.586 184.270 C 119.819 182.109,120.261 179.855,120.568 179.262 C 120.875 178.669,121.322 177.121,121.562 175.823 C 121.802 174.525,122.265 173.055,122.592 172.556 C 122.918 172.058,123.379 170.787,123.615 169.732 C 123.852 168.676,124.282 167.540,124.572 167.206 C 124.862 166.873,125.324 165.880,125.600 165.000 C 125.876 164.120,126.330 163.130,126.611 162.800 C 126.891 162.470,127.415 161.570,127.774 160.800 C 129.291 157.553,130.416 155.600,130.769 155.600 C 130.976 155.600,131.274 155.195,131.429 154.700 C 131.585 154.205,132.092 153.304,132.556 152.697 C 136.573 147.446,138.360 145.360,141.842 141.857 C 145.607 138.070,153.493 131.600,154.344 131.600 C 154.536 131.600,155.199 131.201,155.819 130.713 C 157.135 129.678,158.078 129.146,162.290 127.060 C 164.001 126.213,166.237 125.088,167.259 124.560 C 168.281 124.032,169.458 123.600,169.874 123.600 C 170.290 123.600,171.334 123.242,172.193 122.804 C 173.052 122.365,174.782 121.821,176.037 121.593 C 177.291 121.366,178.840 120.919,179.479 120.601 C 180.117 120.282,182.431 119.827,184.620 119.589 C 186.809 119.352,189.230 118.971,190.000 118.743 C 192.677 117.949,203.938 117.835,208.260 118.556 C 210.427 118.918,213.719 119.387,215.576 119.598 C 217.432 119.809,220.042 120.334,221.376 120.765 C 222.709 121.195,224.520 121.728,225.400 121.950 C 227.671 122.522,232.844 124.342,233.363 124.751 C 233.603 124.941,234.520 125.325,235.400 125.606 C 236.280 125.887,237.429 126.450,237.954 126.858 C 238.479 127.266,239.209 127.600,239.576 127.600 C 239.944 127.600,240.855 128.050,241.600 128.600 C 242.345 129.150,243.136 129.600,243.356 129.600 C 243.577 129.600,244.397 130.023,245.178 130.540 C 245.960 131.057,247.500 132.040,248.600 132.724 C 251.363 134.444,252.553 135.279,257.126 138.706 C 259.422 140.428,264.882 145.286,267.871 148.268 C 272.380 152.766,272.048 152.814,278.248 146.765 C 281.082 144.000,284.912 140.312,286.759 138.569 C 288.607 136.826,291.069 134.500,292.231 133.400 C 293.392 132.300,294.580 131.180,294.871 130.911 C 295.162 130.642,295.580 130.227,295.800 129.987 C 296.020 129.748,297.383 128.438,298.829 127.076 C 302.956 123.190,302.970 122.962,299.300 119.329 C 298.365 118.404,297.600 117.485,297.600 117.287 C 297.600 117.090,297.150 116.723,296.600 116.473 C 296.050 116.222,295.600 115.743,295.600 115.409 C 295.600 115.074,295.432 114.800,295.227 114.800 C 295.022 114.800,293.847 113.855,292.616 112.700 C 291.386 111.545,289.889 110.186,289.289 109.679 C 288.690 109.173,287.642 108.273,286.961 107.679 C 285.279 106.214,281.747 103.517,279.000 101.600 C 278.212 101.050,276.920 100.105,276.129 99.500 C 275.337 98.895,274.516 98.400,274.303 98.400 C 274.090 98.400,273.381 97.950,272.727 97.400 C 272.073 96.850,271.310 96.400,271.031 96.400 C 270.752 96.400,270.198 96.040,269.800 95.600 C 269.402 95.160,268.859 94.800,268.594 94.800 C 268.329 94.800,267.452 94.352,266.645 93.805 C 265.839 93.258,264.747 92.702,264.219 92.569 C 263.691 92.436,262.951 91.988,262.575 91.572 C 262.198 91.156,261.300 90.705,260.580 90.570 C 259.859 90.435,258.939 90.020,258.535 89.649 C 258.131 89.279,256.990 88.738,256.000 88.448 C 255.010 88.158,253.930 87.700,253.600 87.430 C 253.270 87.159,252.190 86.709,251.200 86.430 C 250.210 86.150,249.130 85.698,248.800 85.426 C 248.470 85.153,247.179 84.711,245.931 84.443 C 244.683 84.175,243.465 83.719,243.224 83.429 C 242.983 83.139,241.844 82.779,240.693 82.630 C 239.542 82.481,237.880 82.022,237.000 81.611 C 236.120 81.199,234.063 80.662,232.430 80.417 C 230.796 80.172,228.906 79.721,228.230 79.414 C 227.553 79.108,224.880 78.661,222.288 78.420 C 219.696 78.179,216.816 77.727,215.888 77.415 C 213.854 76.732,197.377 76.320,190.600 76.782 " stroke="none" fill="#050505" fill-rule="evenodd"></path><path id="path1" d="M149.925 0.693 C 149.814 1.269,149.294 1.397,146.857 1.447 C 144.638 1.493,143.663 1.699,142.861 2.291 C 142.277 2.722,140.926 3.173,139.858 3.293 C 138.790 3.413,137.440 3.863,136.858 4.293 C 136.276 4.723,134.926 5.173,133.858 5.293 C 132.790 5.413,131.433 5.869,130.841 6.306 C 130.249 6.744,129.001 7.231,128.067 7.389 C 126.933 7.580,126.165 7.988,125.753 8.615 C 125.266 9.359,124.813 9.542,123.581 9.493 C 122.562 9.452,121.641 9.715,120.913 10.252 C 120.301 10.704,119.139 11.291,118.332 11.557 C 117.525 11.823,116.655 12.293,116.399 12.601 C 116.144 12.909,115.135 13.281,114.157 13.427 C 113.153 13.578,112.164 14.002,111.883 14.403 C 111.610 14.792,110.760 15.398,109.993 15.748 C 109.227 16.098,108.330 16.563,108.000 16.782 C 107.670 17.001,106.770 17.451,106.000 17.782 C 105.230 18.113,104.330 18.563,104.000 18.782 C 103.670 19.001,102.770 19.462,102.000 19.806 C 98.953 21.167,97.650 22.013,97.404 22.789 C 97.214 23.385,96.801 23.600,95.845 23.600 C 94.956 23.600,94.269 23.917,93.675 24.600 C 93.197 25.150,92.548 25.600,92.233 25.600 C 91.919 25.600,91.127 26.050,90.473 26.600 C 89.819 27.150,89.096 27.600,88.865 27.600 C 88.634 27.600,88.210 27.931,87.923 28.337 C 87.635 28.742,86.997 29.287,86.505 29.548 C 86.012 29.809,85.501 30.454,85.369 30.981 C 85.161 31.809,84.951 31.909,83.818 31.725 C 82.812 31.562,82.378 31.696,81.953 32.299 C 81.649 32.731,81.022 33.205,80.561 33.350 C 80.099 33.496,79.518 34.062,79.269 34.608 C 79.021 35.153,78.557 35.600,78.239 35.600 C 77.921 35.600,77.127 36.050,76.473 36.600 C 75.819 37.150,75.096 37.600,74.865 37.600 C 74.634 37.600,74.210 37.934,73.923 38.343 C 73.635 38.751,73.004 39.210,72.520 39.363 C 72.037 39.516,71.533 39.983,71.400 40.400 C 71.267 40.817,70.817 41.267,70.400 41.400 C 69.983 41.533,69.533 41.983,69.400 42.400 C 69.267 42.817,68.836 43.262,68.440 43.387 C 68.045 43.513,67.518 44.062,67.269 44.608 C 67.021 45.153,66.557 45.600,66.239 45.600 C 65.921 45.600,65.127 46.050,64.473 46.600 C 63.819 47.150,63.157 47.600,63.000 47.600 C 62.768 47.600,60.224 49.985,56.172 54.000 C 50.502 59.619,43.200 67.820,43.200 68.569 C 43.200 68.887,42.840 69.260,42.400 69.400 C 41.960 69.540,41.600 69.816,41.600 70.013 C 41.600 70.211,41.105 70.903,40.500 71.552 C 38.146 74.075,35.200 77.942,35.200 78.509 C 35.200 78.729,34.795 79.311,34.300 79.804 C 32.321 81.775,29.200 85.955,29.200 86.635 C 29.200 86.924,28.899 87.329,28.532 87.534 C 27.885 87.896,27.146 89.089,25.771 91.993 C 25.408 92.760,24.771 93.625,24.356 93.916 C 23.940 94.207,23.600 94.885,23.600 95.423 C 23.600 95.960,23.195 96.796,22.700 97.279 C 21.778 98.180,20.934 99.538,19.771 101.993 C 19.408 102.760,18.795 103.608,18.409 103.879 C 18.023 104.149,17.587 105.121,17.440 106.039 C 17.293 106.957,16.819 108.158,16.387 108.708 C 15.954 109.258,15.600 109.955,15.600 110.257 C 15.600 110.558,15.162 111.186,14.627 111.651 C 14.038 112.163,13.544 113.150,13.376 114.149 C 13.223 115.057,12.671 116.309,12.149 116.931 C 11.627 117.553,11.200 118.427,11.200 118.873 C 11.200 119.319,10.733 120.240,10.161 120.919 C 9.309 121.932,9.165 122.419,9.359 123.632 C 9.560 124.888,9.452 125.205,8.646 125.733 C 6.979 126.825,6.838 130.104,8.437 130.612 C 9.078 130.815,9.193 131.218,9.154 133.127 C 9.128 134.377,9.031 135.040,8.938 134.600 C 8.845 134.160,8.684 133.400,8.580 132.912 C 8.036 130.358,5.200 131.453,5.200 134.216 C 5.200 135.030,4.841 136.118,4.356 136.775 C 3.358 138.124,2.924 141.136,3.556 142.319 C 3.944 143.042,3.859 143.225,2.928 143.677 C 1.651 144.298,1.088 145.973,1.434 148.127 C 1.647 149.450,1.567 149.684,0.840 149.874 C -0.260 150.161,-0.492 158.800,0.600 158.800 C 1.103 158.800,1.200 159.644,1.200 164.000 C 1.200 168.356,1.103 169.200,0.600 169.200 C 0.072 169.200,0.000 172.889,0.000 200.000 C 0.000 227.111,0.072 230.800,0.600 230.800 C 1.103 230.800,1.200 231.644,1.200 236.000 C 1.200 240.356,1.103 241.200,0.600 241.200 C -0.492 241.200,-0.260 249.839,0.840 250.126 C 1.567 250.316,1.647 250.550,1.434 251.873 C 1.088 254.027,1.651 255.702,2.928 256.323 C 3.859 256.775,3.944 256.958,3.556 257.681 C 2.924 258.864,3.358 261.876,4.356 263.225 C 4.841 263.882,5.200 264.970,5.200 265.784 C 5.200 268.547,8.036 269.642,8.580 267.088 C 8.684 266.600,8.845 265.840,8.938 265.400 C 9.031 264.960,9.128 265.623,9.154 266.873 C 9.193 268.782,9.078 269.185,8.437 269.388 C 6.838 269.896,6.979 273.175,8.646 274.267 C 9.452 274.795,9.560 275.112,9.359 276.368 C 9.165 277.581,9.309 278.068,10.161 279.081 C 10.733 279.760,11.200 280.681,11.200 281.127 C 11.200 281.573,11.627 282.447,12.149 283.069 C 12.671 283.691,13.223 284.943,13.376 285.851 C 13.544 286.850,14.038 287.837,14.627 288.349 C 15.162 288.814,15.600 289.442,15.600 289.743 C 15.600 290.045,15.954 290.742,16.387 291.292 C 16.819 291.842,17.293 293.043,17.440 293.961 C 17.587 294.879,18.023 295.851,18.409 296.121 C 18.795 296.392,19.408 297.240,19.771 298.007 C 20.934 300.462,21.778 301.820,22.700 302.721 C 23.195 303.204,23.600 304.040,23.600 304.577 C 23.600 305.115,23.940 305.793,24.356 306.084 C 24.771 306.375,25.408 307.240,25.771 308.007 C 27.146 310.911,27.885 312.104,28.532 312.466 C 28.899 312.671,29.200 313.076,29.200 313.365 C 29.200 314.045,32.321 318.225,34.300 320.196 C 34.795 320.689,35.200 321.271,35.200 321.491 C 35.200 322.058,38.146 325.925,40.500 328.448 C 41.105 329.097,41.600 329.789,41.600 329.987 C 41.600 330.184,41.960 330.460,42.400 330.600 C 42.840 330.740,43.200 331.113,43.200 331.431 C 43.200 332.180,50.502 340.381,56.172 346.000 C 60.224 350.015,62.768 352.400,63.000 352.400 C 63.157 352.400,63.819 352.850,64.473 353.400 C 65.127 353.950,65.921 354.400,66.239 354.400 C 66.557 354.400,67.021 354.847,67.269 355.392 C 67.518 355.938,68.045 356.487,68.440 356.613 C 68.836 356.738,69.267 357.183,69.400 357.600 C 69.533 358.017,69.983 358.467,70.400 358.600 C 70.817 358.733,71.267 359.183,71.400 359.600 C 71.533 360.017,72.037 360.484,72.520 360.637 C 73.004 360.790,73.635 361.249,73.923 361.657 C 74.210 362.066,74.634 362.400,74.865 362.400 C 75.096 362.400,75.819 362.850,76.473 363.400 C 77.127 363.950,77.921 364.400,78.239 364.400 C 78.557 364.400,79.021 364.847,79.269 365.392 C 79.518 365.938,80.099 366.504,80.561 366.650 C 81.022 366.795,81.649 367.269,81.953 367.701 C 82.378 368.304,82.812 368.438,83.818 368.275 C 84.951 368.091,85.161 368.191,85.369 369.019 C 85.501 369.546,86.012 370.191,86.505 370.452 C 86.997 370.713,87.635 371.258,87.923 371.663 C 88.210 372.069,88.634 372.400,88.865 372.400 C 89.096 372.400,89.819 372.850,90.473 373.400 C 91.127 373.950,91.919 374.400,92.233 374.400 C 92.548 374.400,93.197 374.850,93.675 375.400 C 94.269 376.083,94.956 376.400,95.845 376.400 C 96.801 376.400,97.214 376.615,97.404 377.211 C 97.650 377.987,98.953 378.833,102.000 380.194 C 102.770 380.538,103.670 380.999,104.000 381.218 C 104.330 381.437,105.230 381.887,106.000 382.218 C 106.770 382.549,107.670 382.999,108.000 383.218 C 108.330 383.437,109.227 383.902,109.993 384.252 C 110.760 384.602,111.610 385.208,111.883 385.597 C 112.164 385.998,113.153 386.422,114.157 386.573 C 115.135 386.719,116.144 387.091,116.399 387.399 C 116.655 387.707,117.525 388.177,118.332 388.443 C 119.139 388.709,120.301 389.296,120.913 389.748 C 121.641 390.285,122.562 390.548,123.581 390.507 C 124.813 390.458,125.266 390.641,125.753 391.385 C 126.165 392.012,126.933 392.420,128.067 392.611 C 129.001 392.769,130.249 393.256,130.841 393.694 C 131.433 394.131,132.790 394.587,133.858 394.707 C 134.926 394.827,136.276 395.277,136.858 395.707 C 137.440 396.137,138.790 396.587,139.858 396.707 C 140.926 396.827,142.277 397.278,142.861 397.709 C 143.663 398.301,144.638 398.507,146.857 398.553 C 149.294 398.603,149.814 398.731,149.925 399.307 C 150.113 400.280,158.800 400.371,158.800 399.400 C 158.800 398.897,159.644 398.800,164.000 398.800 C 168.356 398.800,169.200 398.897,169.200 399.400 C 169.200 399.928,172.889 400.000,200.000 400.000 C 227.111 400.000,230.800 399.928,230.800 399.400 C 230.800 398.897,231.644 398.800,236.000 398.800 C 240.356 398.800,241.200 398.897,241.200 399.400 C 241.200 400.371,249.887 400.280,250.075 399.307 C 250.186 398.731,250.706 398.603,253.143 398.553 C 255.362 398.507,256.337 398.301,257.139 397.709 C 257.723 397.278,259.074 396.827,260.142 396.707 C 261.210 396.587,262.560 396.137,263.142 395.707 C 263.724 395.277,265.074 394.827,266.142 394.707 C 267.210 394.587,268.567 394.131,269.159 393.694 C 269.751 393.256,270.999 392.769,271.933 392.611 C 273.067 392.420,273.835 392.012,274.247 391.385 C 274.734 390.641,275.187 390.458,276.419 390.507 C 277.438 390.548,278.359 390.285,279.087 389.748 C 279.699 389.296,280.861 388.709,281.668 388.443 C 282.475 388.177,283.345 387.707,283.601 387.399 C 283.856 387.091,284.865 386.719,285.843 386.573 C 286.847 386.422,287.836 385.998,288.117 385.597 C 288.390 385.208,289.240 384.602,290.007 384.252 C 290.773 383.902,291.670 383.437,292.000 383.218 C 292.330 382.999,293.230 382.549,294.000 382.218 C 294.770 381.887,295.670 381.437,296.000 381.218 C 296.330 380.999,297.230 380.538,298.000 380.194 C 301.047 378.833,302.350 377.987,302.596 377.211 C 302.786 376.615,303.199 376.400,304.155 376.400 C 305.044 376.400,305.731 376.083,306.325 375.400 C 306.803 374.850,307.452 374.400,307.767 374.400 C 308.081 374.400,308.873 373.950,309.527 373.400 C 310.181 372.850,310.904 372.400,311.135 372.400 C 311.366 372.400,311.790 372.069,312.077 371.663 C 312.365 371.258,313.003 370.713,313.495 370.452 C 313.988 370.191,314.499 369.546,314.631 369.019 C 314.839 368.191,315.049 368.091,316.182 368.275 C 317.188 368.438,317.622 368.304,318.047 367.701 C 318.351 367.269,318.978 366.795,319.439 366.650 C 319.901 366.504,320.482 365.938,320.731 365.392 C 320.979 364.847,321.443 364.400,321.761 364.400 C 322.079 364.400,322.873 363.950,323.527 363.400 C 324.181 362.850,324.904 362.400,325.135 362.400 C 325.366 362.400,325.790 362.066,326.077 361.657 C 326.365 361.249,326.996 360.790,327.480 360.637 C 327.963 360.484,328.467 360.017,328.600 359.600 C 328.733 359.183,329.183 358.733,329.600 358.600 C 330.017 358.467,330.467 358.017,330.600 357.600 C 330.733 357.183,331.164 356.738,331.560 356.613 C 331.955 356.487,332.482 355.938,332.731 355.392 C 332.979 354.847,333.443 354.400,333.761 354.400 C 334.079 354.400,334.873 353.950,335.527 353.400 C 336.181 352.850,336.843 352.400,337.000 352.400 C 337.232 352.400,339.776 350.015,343.828 346.000 C 349.498 340.381,356.800 332.180,356.800 331.431 C 356.800 331.113,357.160 330.740,357.600 330.600 C 358.040 330.460,358.400 330.184,358.400 329.987 C 358.400 329.789,358.895 329.097,359.500 328.448 C 361.854 325.925,364.800 322.058,364.800 321.491 C 364.800 321.271,365.205 320.689,365.700 320.196 C 367.679 318.225,370.800 314.045,370.800 313.365 C 370.800 313.076,371.101 312.671,371.468 312.466 C 372.115 312.104,372.854 310.911,374.229 308.007 C 374.592 307.240,375.229 306.375,375.644 306.084 C 376.060 305.793,376.400 305.115,376.400 304.577 C 376.400 304.040,376.805 303.204,377.300 302.721 C 378.222 301.820,379.066 300.462,380.229 298.007 C 380.592 297.240,381.205 296.392,381.591 296.121 C 381.977 295.851,382.413 294.879,382.560 293.961 C 382.707 293.043,383.181 291.842,383.613 291.292 C 384.046 290.742,384.400 290.045,384.400 289.743 C 384.400 289.442,384.838 288.814,385.373 288.349 C 385.962 287.837,386.456 286.850,386.624 285.851 C 386.777 284.943,387.329 283.691,387.851 283.069 C 388.373 282.447,388.800 281.573,388.800 281.127 C 388.800 280.681,389.267 279.760,389.839 279.081 C 390.691 278.068,390.835 277.581,390.641 276.368 C 390.440 275.112,390.548 274.795,391.354 274.267 C 393.021 273.175,393.162 269.896,391.563 269.388 C 390.922 269.185,390.807 268.782,390.846 266.873 C 390.872 265.623,390.969 264.960,391.062 265.400 C 391.155 265.840,391.316 266.600,391.420 267.088 C 391.964 269.642,394.800 268.547,394.800 265.784 C 394.800 264.970,395.159 263.882,395.644 263.225 C 396.642 261.876,397.076 258.864,396.444 257.681 C 396.056 256.958,396.141 256.775,397.072 256.323 C 398.349 255.702,398.912 254.027,398.566 251.873 C 398.353 250.550,398.433 250.316,399.160 250.126 C 400.260 249.839,400.492 241.200,399.400 241.200 C 398.897 241.200,398.800 240.356,398.800 236.000 C 398.800 231.644,398.897 230.800,399.400 230.800 C 399.928 230.800,400.000 227.111,400.000 200.000 C 400.000 172.889,399.928 169.200,399.400 169.200 C 398.897 169.200,398.800 168.356,398.800 164.000 C 398.800 159.644,398.897 158.800,399.400 158.800 C 400.492 158.800,400.260 150.161,399.160 149.874 C 398.433 149.684,398.353 149.450,398.566 148.127 C 398.912 145.973,398.349 144.298,397.072 143.677 C 396.141 143.225,396.056 143.042,396.444 142.319 C 397.076 141.136,396.642 138.124,395.644 136.775 C 395.159 136.118,394.800 135.030,394.800 134.216 C 394.800 131.453,391.964 130.358,391.420 132.912 C 391.316 133.400,391.155 134.160,391.062 134.600 C 390.969 135.040,390.872 134.377,390.846 133.127 C 390.807 131.218,390.922 130.815,391.563 130.612 C 393.162 130.104,393.021 126.825,391.354 125.733 C 390.548 125.205,390.440 124.888,390.641 123.632 C 390.835 122.419,390.691 121.932,389.839 120.919 C 389.267 120.240,388.800 119.319,388.800 118.873 C 388.800 118.427,388.373 117.553,387.851 116.931 C 387.329 116.309,386.777 115.057,386.624 114.149 C 386.456 113.150,385.962 112.163,385.373 111.651 C 384.838 111.186,384.400 110.558,384.400 110.257 C 384.400 109.955,384.046 109.258,383.613 108.708 C 383.181 108.158,382.707 106.957,382.560 106.039 C 382.413 105.121,381.977 104.149,381.591 103.879 C 381.205 103.608,380.592 102.760,380.229 101.993 C 379.066 99.538,378.222 98.180,377.300 97.279 C 376.805 96.796,376.400 95.960,376.400 95.423 C 376.400 94.885,376.060 94.207,375.644 93.916 C 375.229 93.625,374.592 92.760,374.229 91.993 C 372.854 89.089,372.115 87.896,371.468 87.534 C 371.101 87.329,370.800 86.924,370.800 86.635 C 370.800 85.955,367.679 81.775,365.700 79.804 C 365.205 79.311,364.800 78.729,364.800 78.509 C 364.800 77.942,361.854 74.075,359.500 71.552 C 358.895 70.903,358.400 70.211,358.400 70.013 C 358.400 69.816,358.040 69.540,357.600 69.400 C 357.160 69.260,356.800 68.887,356.800 68.569 C 356.800 67.820,349.498 59.619,343.828 54.000 C 339.776 49.985,337.232 47.600,337.000 47.600 C 336.843 47.600,336.181 47.150,335.527 46.600 C 334.873 46.050,334.079 45.600,333.761 45.600 C 333.443 45.600,332.979 45.153,332.731 44.608 C 332.482 44.062,331.955 43.513,331.560 43.387 C 331.164 43.262,330.733 42.817,330.600 42.400 C 330.467 41.983,330.017 41.533,329.600 41.400 C 329.183 41.267,328.733 40.817,328.600 40.400 C 328.467 39.983,327.963 39.516,327.480 39.363 C 326.996 39.210,326.365 38.751,326.077 38.343 C 325.790 37.934,325.366 37.600,325.135 37.600 C 324.904 37.600,324.181 37.150,323.527 36.600 C 322.873 36.050,322.079 35.600,321.761 35.600 C 321.443 35.600,320.979 35.153,320.731 34.608 C 320.482 34.062,319.901 33.496,319.439 33.350 C 318.978 33.205,318.351 32.731,318.047 32.299 C 317.622 31.696,317.188 31.562,316.182 31.725 C 315.049 31.909,314.839 31.809,314.631 30.981 C 314.499 30.454,313.988 29.809,313.495 29.548 C 313.003 29.287,312.365 28.742,312.077 28.337 C 311.790 27.931,311.366 27.600,311.135 27.600 C 310.904 27.600,310.181 27.150,309.527 26.600 C 308.873 26.050,308.081 25.600,307.767 25.600 C 307.452 25.600,306.803 25.150,306.325 24.600 C 305.731 23.917,305.044 23.600,304.155 23.600 C 303.199 23.600,302.786 23.385,302.596 22.789 C 302.350 22.013,301.047 21.167,298.000 19.806 C 297.230 19.462,296.330 19.001,296.000 18.782 C 295.670 18.563,294.770 18.113,294.000 17.782 C 293.230 17.451,292.330 17.001,292.000 16.782 C 291.670 16.563,290.773 16.098,290.007 15.748 C 289.240 15.398,288.390 14.792,288.117 14.403 C 287.836 14.002,286.847 13.578,285.843 13.427 C 284.865 13.281,283.856 12.909,283.601 12.601 C 283.345 12.293,282.475 11.823,281.668 11.557 C 280.861 11.291,279.699 10.704,279.087 10.252 C 278.359 9.715,277.438 9.452,276.419 9.493 C 275.187 9.542,274.734 9.359,274.247 8.615 C 273.835 7.988,273.067 7.580,271.933 7.389 C 270.999 7.231,269.751 6.744,269.159 6.306 C 268.567 5.869,267.210 5.413,266.142 5.293 C 265.074 5.173,263.724 4.723,263.142 4.293 C 262.560 3.863,261.210 3.413,260.142 3.293 C 259.074 3.173,257.723 2.722,257.139 2.291 C 256.337 1.699,255.362 1.493,253.143 1.447 C 250.706 1.397,250.186 1.269,250.075 0.693 C 249.887 -0.280,241.200 -0.371,241.200 0.600 C 241.200 1.103,240.356 1.200,236.000 1.200 C 231.644 1.200,230.800 1.103,230.800 0.600 C 230.800 0.072,227.111 0.000,200.000 0.000 C 172.889 0.000,169.200 0.072,169.200 0.600 C 169.200 1.103,168.356 1.200,164.000 1.200 C 159.644 1.200,158.800 1.103,158.800 0.600 C 158.800 -0.371,150.113 -0.280,149.925 0.693 M154.800 2.796 L 157.400 3.086 153.900 3.143 C 151.975 3.174,150.400 3.050,150.400 2.867 C 150.400 2.262,150.948 1.971,151.579 2.240 C 151.921 2.386,153.370 2.636,154.800 2.796 M249.508 2.725 C 249.624 3.071,248.703 3.185,246.133 3.143 L 242.600 3.086 245.299 2.811 C 246.783 2.660,248.122 2.412,248.274 2.260 C 248.645 1.888,249.313 2.140,249.508 2.725 M147.100 4.563 C 150.405 4.576,149.550 5.125,145.999 5.270 C 143.155 5.385,142.798 5.321,142.799 4.692 C 142.800 4.118,143.007 4.038,143.900 4.270 C 144.505 4.426,145.945 4.558,147.100 4.563 M257.201 4.700 C 257.202 5.319,256.833 5.385,254.001 5.270 C 252.213 5.197,250.800 4.962,250.800 4.738 C 250.800 4.510,251.275 4.438,251.900 4.571 C 252.505 4.700,253.810 4.644,254.800 4.447 C 255.790 4.249,256.735 4.068,256.900 4.044 C 257.065 4.020,257.200 4.315,257.201 4.700 M140.200 6.823 C 141.655 7.075,141.574 7.104,139.300 7.150 C 137.275 7.190,136.800 7.081,136.800 6.573 C 136.800 6.101,137.022 6.020,137.700 6.246 C 138.195 6.411,139.320 6.671,140.200 6.823 M263.200 6.600 C 263.200 7.074,262.676 7.190,260.700 7.153 L 258.200 7.106 260.139 6.781 C 261.206 6.602,262.181 6.353,262.306 6.228 C 262.731 5.802,263.200 5.998,263.200 6.600 M134.000 8.823 C 135.228 9.073,135.117 9.114,133.100 9.154 C 131.259 9.191,130.800 9.075,130.800 8.573 C 130.800 8.102,131.023 8.020,131.700 8.242 C 132.195 8.405,133.230 8.667,134.000 8.823 M269.200 8.600 C 269.200 9.069,268.697 9.190,266.900 9.156 L 264.600 9.112 266.355 8.768 C 267.321 8.578,268.206 8.328,268.322 8.211 C 268.733 7.801,269.200 8.008,269.200 8.600 M128.600 10.800 C 129.239 11.075,129.093 11.149,127.876 11.172 C 126.956 11.189,126.451 11.042,126.600 10.800 C 126.892 10.328,127.501 10.328,128.600 10.800 M273.400 10.800 C 273.549 11.042,273.044 11.189,272.124 11.172 C 270.907 11.149,270.761 11.075,271.400 10.800 C 272.499 10.328,273.108 10.328,273.400 10.800 M123.900 12.482 C 124.615 12.437,125.200 12.580,125.200 12.800 C 125.200 13.020,124.210 13.200,123.000 13.200 C 121.269 13.200,120.800 13.066,120.800 12.573 C 120.800 12.098,121.018 12.021,121.700 12.255 C 122.195 12.424,123.185 12.527,123.900 12.482 M279.200 12.600 C 279.200 13.053,278.711 13.200,277.200 13.200 C 276.003 13.200,275.200 13.022,275.200 12.757 C 275.200 12.503,275.584 12.401,276.100 12.519 C 276.595 12.632,277.360 12.574,277.800 12.390 C 278.974 11.900,279.200 11.934,279.200 12.600 M118.980 14.845 C 119.207 15.057,118.844 15.200,118.080 15.200 C 117.184 15.200,116.800 15.012,116.800 14.573 C 116.800 13.920,118.173 14.091,118.980 14.845 M283.200 14.600 C 283.200 15.000,282.800 15.200,282.000 15.200 C 280.573 15.200,280.462 14.910,281.700 14.412 C 282.983 13.897,283.200 13.924,283.200 14.600 M114.800 16.800 C 115.255 17.094,115.086 17.189,114.100 17.194 C 113.385 17.197,112.800 17.020,112.800 16.800 C 112.800 16.292,114.014 16.292,114.800 16.800 M287.200 16.800 C 287.200 17.020,286.739 17.200,286.176 17.200 C 285.596 17.200,285.260 17.027,285.400 16.800 C 285.536 16.580,285.997 16.400,286.424 16.400 C 286.851 16.400,287.200 16.580,287.200 16.800 M110.980 18.845 C 111.207 19.057,110.844 19.200,110.080 19.200 C 109.184 19.200,108.800 19.012,108.800 18.573 C 108.800 17.920,110.173 18.091,110.980 18.845 M291.200 18.600 C 291.200 18.973,290.822 19.200,290.200 19.200 C 289.059 19.200,288.848 18.551,289.900 18.276 C 291.105 17.961,291.200 17.985,291.200 18.600 M106.980 20.845 C 107.207 21.057,106.844 21.200,106.080 21.200 C 105.184 21.200,104.800 21.012,104.800 20.573 C 104.800 19.920,106.173 20.091,106.980 20.845 M295.200 20.600 C 295.200 20.973,294.822 21.200,294.200 21.200 C 293.059 21.200,292.848 20.551,293.900 20.276 C 295.105 19.961,295.200 19.985,295.200 20.600 M102.980 22.845 C 103.207 23.057,102.844 23.200,102.080 23.200 C 101.184 23.200,100.800 23.012,100.800 22.573 C 100.800 21.920,102.173 22.091,102.980 22.845 M299.200 22.600 C 299.200 22.973,298.822 23.200,298.200 23.200 C 297.059 23.200,296.848 22.551,297.900 22.276 C 299.105 21.961,299.200 21.985,299.200 22.600 M97.200 26.800 C 97.200 27.020,96.660 27.200,96.000 27.200 C 95.340 27.200,94.800 27.020,94.800 26.800 C 94.800 26.580,95.340 26.400,96.000 26.400 C 96.660 26.400,97.200 26.580,97.200 26.800 M305.200 26.800 C 305.200 27.020,304.750 27.200,304.200 27.200 C 303.650 27.200,303.200 27.020,303.200 26.800 C 303.200 26.580,303.650 26.400,304.200 26.400 C 304.750 26.400,305.200 26.580,305.200 26.800 M92.980 28.845 C 93.206 29.056,92.760 29.200,91.880 29.200 C 90.482 29.200,90.060 28.873,90.671 28.262 C 90.980 27.953,92.412 28.314,92.980 28.845 M309.508 28.725 C 309.611 29.033,309.162 29.200,308.233 29.200 C 306.589 29.200,306.407 28.932,307.700 28.414 C 308.767 27.987,309.292 28.077,309.508 28.725 M78.980 38.845 C 79.206 39.056,78.760 39.200,77.880 39.200 C 76.482 39.200,76.060 38.873,76.671 38.262 C 76.980 37.953,78.412 38.314,78.980 38.845 M323.508 38.725 C 323.611 39.033,323.162 39.200,322.233 39.200 C 320.589 39.200,320.407 38.932,321.700 38.414 C 322.767 37.987,323.292 38.077,323.508 38.725 M214.649 75.593 C 218.191 75.811,221.341 76.215,222.249 76.567 C 223.102 76.897,225.486 77.348,227.547 77.569 C 229.609 77.790,231.704 78.238,232.203 78.565 C 232.703 78.893,234.077 79.282,235.256 79.430 C 236.435 79.578,238.210 80.032,239.200 80.440 C 240.190 80.847,241.900 81.375,243.000 81.612 C 244.100 81.850,245.360 82.275,245.800 82.556 C 246.240 82.838,247.500 83.292,248.600 83.564 C 249.700 83.837,250.873 84.306,251.206 84.607 C 251.539 84.908,252.587 85.328,253.535 85.541 C 254.482 85.754,255.559 86.196,255.929 86.524 C 256.298 86.852,257.296 87.310,258.147 87.541 C 258.998 87.772,259.988 88.218,260.347 88.530 C 260.706 88.843,261.672 89.315,262.494 89.579 C 263.316 89.842,264.101 90.240,264.238 90.462 C 264.376 90.684,265.233 91.219,266.144 91.650 C 267.055 92.081,268.520 92.869,269.400 93.401 C 270.280 93.933,271.540 94.671,272.200 95.040 C 272.860 95.410,273.909 96.137,274.531 96.656 C 275.153 97.175,275.844 97.600,276.067 97.600 C 276.474 97.600,277.662 98.440,280.168 100.500 C 280.903 101.105,281.632 101.600,281.785 101.600 C 281.939 101.600,282.900 102.275,283.921 103.100 C 284.942 103.925,286.121 104.870,286.542 105.200 C 286.963 105.530,287.808 106.250,288.421 106.800 C 289.033 107.350,290.470 108.610,291.612 109.600 C 294.287 111.917,300.062 117.668,302.499 120.440 C 304.572 122.798,304.824 123.728,303.600 124.493 C 303.160 124.768,302.800 125.213,302.800 125.482 C 302.800 125.751,302.484 126.141,302.099 126.347 C 301.713 126.553,299.568 128.495,297.331 130.661 C 275.097 152.196,273.196 154.000,272.729 154.000 C 272.034 154.000,269.600 152.728,269.600 152.365 C 269.600 151.812,264.637 147.115,260.044 143.320 C 259.298 142.704,258.320 141.795,257.872 141.300 C 257.423 140.805,256.825 140.400,256.542 140.400 C 256.259 140.400,255.835 140.040,255.600 139.600 C 255.365 139.160,254.940 138.800,254.656 138.800 C 254.372 138.800,253.717 138.350,253.200 137.800 C 252.683 137.250,252.048 136.800,251.789 136.800 C 251.529 136.800,250.831 136.350,250.238 135.800 C 249.644 135.250,249.002 134.800,248.810 134.800 C 248.618 134.800,247.953 134.391,247.331 133.891 C 246.709 133.391,245.525 132.674,244.700 132.298 C 243.875 131.921,243.200 131.453,243.200 131.256 C 243.200 131.060,242.666 130.793,242.013 130.662 C 241.359 130.532,240.484 130.084,240.067 129.667 C 239.651 129.251,238.680 128.791,237.910 128.647 C 237.140 128.503,236.207 128.050,235.837 127.640 C 235.466 127.231,234.479 126.787,233.642 126.653 C 232.805 126.519,231.688 126.070,231.160 125.656 C 230.632 125.241,229.258 124.772,228.108 124.614 C 226.957 124.456,225.607 124.019,225.108 123.642 C 224.602 123.260,222.744 122.752,220.913 122.495 C 219.105 122.241,217.035 121.711,216.313 121.317 C 214.114 120.116,186.249 120.236,183.400 121.458 C 182.300 121.930,180.244 122.446,178.832 122.605 C 177.420 122.764,175.716 123.228,175.045 123.636 C 174.375 124.043,173.010 124.498,172.013 124.645 C 171.016 124.792,169.790 125.232,169.288 125.623 C 168.787 126.014,167.649 126.457,166.760 126.607 C 165.872 126.757,165.048 127.130,164.931 127.436 C 164.813 127.742,163.971 128.207,163.059 128.469 C 162.146 128.731,161.078 129.273,160.684 129.673 C 160.291 130.073,159.731 130.400,159.439 130.400 C 159.148 130.400,158.231 130.940,157.400 131.600 C 156.569 132.260,155.718 132.800,155.508 132.800 C 155.124 132.800,153.905 133.667,151.432 135.700 C 150.697 136.305,149.803 136.800,149.447 136.800 C 149.091 136.800,148.800 137.064,148.800 137.386 C 148.800 137.708,148.425 138.173,147.966 138.418 C 147.507 138.664,146.347 139.660,145.389 140.632 C 144.431 141.605,143.450 142.400,143.211 142.400 C 142.971 142.400,142.655 142.715,142.507 143.100 C 142.360 143.485,141.481 144.550,140.552 145.466 C 139.624 146.382,138.664 147.507,138.418 147.966 C 138.173 148.425,137.708 148.800,137.386 148.800 C 137.064 148.800,136.800 149.090,136.800 149.445 C 136.800 150.053,135.711 151.601,133.731 153.806 C 133.253 154.339,132.732 155.185,132.574 155.687 C 132.415 156.189,131.965 156.825,131.574 157.100 C 131.183 157.376,130.745 158.141,130.600 158.800 C 130.455 159.459,130.018 160.224,129.629 160.500 C 129.240 160.775,128.797 161.670,128.645 162.489 C 128.493 163.307,128.039 164.208,127.636 164.490 C 127.233 164.772,126.775 165.762,126.619 166.690 C 126.462 167.617,126.005 168.794,125.604 169.304 C 125.203 169.814,124.747 171.082,124.591 172.121 C 124.435 173.159,123.998 174.412,123.620 174.905 C 123.229 175.413,122.735 177.224,122.476 179.099 C 122.225 180.913,121.748 182.813,121.416 183.320 C 120.005 185.473,119.994 214.798,121.403 216.948 C 121.743 217.467,122.231 219.491,122.486 221.446 C 122.742 223.401,123.070 225.090,123.216 225.200 C 123.803 225.644,124.323 227.110,124.587 229.070 C 124.741 230.209,125.094 231.227,125.371 231.334 C 125.649 231.440,126.114 232.399,126.406 233.464 C 126.697 234.529,127.253 235.813,127.640 236.319 C 128.028 236.824,128.465 237.787,128.613 238.460 C 128.761 239.132,129.219 240.019,129.631 240.431 C 130.043 240.843,130.498 241.649,130.642 242.223 C 130.786 242.798,131.330 243.694,131.852 244.215 C 132.373 244.737,132.800 245.414,132.800 245.720 C 132.800 246.026,133.155 246.598,133.590 246.991 C 134.024 247.384,134.488 248.048,134.621 248.466 C 134.754 248.884,135.253 249.639,135.731 250.144 C 136.209 250.649,137.500 252.116,138.600 253.403 C 141.261 256.517,144.467 259.673,147.400 262.064 C 148.720 263.140,150.062 264.241,150.382 264.510 C 151.422 265.385,154.957 267.596,155.688 267.828 C 156.080 267.952,156.400 268.213,156.400 268.408 C 156.400 268.603,157.165 269.127,158.100 269.571 C 159.035 270.016,160.070 270.550,160.400 270.759 C 161.572 271.498,166.358 273.600,166.875 273.603 C 167.164 273.604,167.939 273.960,168.597 274.394 C 169.256 274.829,170.779 275.388,171.981 275.638 C 173.184 275.887,174.544 276.338,175.003 276.639 C 175.462 276.939,177.262 277.384,179.002 277.626 C 180.743 277.868,182.675 278.328,183.295 278.649 C 186.379 280.244,214.297 280.227,218.086 278.628 C 218.903 278.283,220.845 277.821,222.401 277.600 C 223.957 277.379,225.631 276.936,226.120 276.615 C 226.610 276.295,227.998 275.821,229.205 275.563 C 230.412 275.306,231.829 274.758,232.354 274.347 C 232.879 273.936,233.699 273.600,234.176 273.600 C 234.654 273.600,235.655 273.150,236.400 272.600 C 237.145 272.050,238.045 271.600,238.400 271.600 C 238.755 271.600,239.655 271.150,240.400 270.600 C 241.145 270.050,242.053 269.600,242.416 269.600 C 242.779 269.600,243.400 269.242,243.795 268.805 C 244.191 268.368,245.119 267.792,245.857 267.525 C 246.596 267.258,247.200 266.893,247.200 266.713 C 247.200 266.534,247.830 266.087,248.600 265.719 C 249.370 265.352,250.000 264.909,250.000 264.734 C 250.000 264.559,250.720 264.049,251.600 263.600 C 252.480 263.151,253.200 262.620,253.200 262.419 C 253.200 262.218,253.539 261.946,253.953 261.815 C 254.368 261.683,255.234 261.086,255.878 260.488 C 256.522 259.890,258.838 257.886,261.025 256.036 C 263.211 254.185,265.235 252.340,265.523 251.936 C 265.810 251.531,266.293 251.200,266.596 251.200 C 266.898 251.200,267.257 250.849,267.394 250.420 C 267.530 249.992,267.983 249.533,268.400 249.400 C 268.817 249.267,269.269 248.814,269.403 248.392 C 269.607 247.746,271.673 246.811,272.914 246.802 C 273.366 246.799,278.800 252.298,278.800 252.759 C 278.800 252.972,279.160 253.260,279.600 253.400 C 280.040 253.540,280.400 253.798,280.400 253.974 C 280.400 254.151,282.245 256.191,284.500 258.509 C 302.563 277.077,303.447 278.091,302.874 279.584 C 302.619 280.250,298.243 284.800,297.858 284.800 C 297.729 284.800,296.747 285.700,295.675 286.800 C 294.604 287.900,293.621 288.800,293.492 288.800 C 293.363 288.800,292.448 289.565,291.459 290.500 C 290.470 291.435,289.000 292.740,288.192 293.400 C 287.384 294.060,286.168 295.095,285.490 295.700 C 284.811 296.305,284.117 296.800,283.946 296.800 C 283.776 296.800,283.158 297.230,282.573 297.755 C 280.623 299.505,280.067 299.936,279.130 300.428 C 278.619 300.697,278.047 301.177,277.859 301.496 C 277.672 301.814,276.907 302.331,276.159 302.643 C 275.412 302.955,274.800 303.366,274.800 303.557 C 274.800 303.747,274.237 304.136,273.548 304.421 C 272.860 304.707,271.878 305.358,271.366 305.870 C 270.855 306.381,270.111 306.800,269.714 306.800 C 269.317 306.800,268.778 307.144,268.515 307.564 C 268.253 307.984,267.508 308.444,266.861 308.587 C 266.213 308.729,265.376 309.185,265.000 309.600 C 264.624 310.015,263.814 310.465,263.200 310.600 C 262.586 310.735,261.783 311.177,261.415 311.583 C 261.048 311.989,260.154 312.432,259.429 312.568 C 258.703 312.704,257.803 313.154,257.429 313.568 C 257.054 313.982,256.105 314.441,255.319 314.589 C 254.534 314.736,253.414 315.209,252.832 315.639 C 252.250 316.070,251.060 316.535,250.187 316.672 C 249.314 316.810,248.197 317.234,247.705 317.615 C 247.212 317.996,245.986 318.431,244.980 318.582 C 243.973 318.733,242.576 319.189,241.875 319.596 C 241.174 320.003,239.520 320.460,238.200 320.610 C 236.880 320.761,235.377 321.152,234.859 321.478 C 234.342 321.805,232.002 322.293,229.659 322.563 C 227.317 322.833,224.994 323.274,224.498 323.543 C 221.301 325.272,180.376 325.225,176.948 323.488 C 176.316 323.169,174.180 322.783,172.200 322.632 C 170.085 322.470,167.940 322.052,167.000 321.617 C 166.120 321.210,164.500 320.760,163.400 320.617 C 160.843 320.284,158.800 319.641,158.800 319.169 C 158.800 318.966,158.305 318.799,157.700 318.798 C 156.190 318.795,153.527 318.032,152.800 317.394 C 152.470 317.105,151.480 316.746,150.600 316.596 C 149.720 316.447,148.543 316.005,147.984 315.613 C 147.426 315.221,146.346 314.768,145.584 314.607 C 144.823 314.446,143.840 313.992,143.400 313.600 C 142.960 313.208,142.023 312.764,141.319 312.616 C 140.614 312.467,139.610 312.008,139.087 311.597 C 138.565 311.186,137.669 310.732,137.098 310.589 C 136.526 310.445,135.748 309.984,135.367 309.564 C 134.987 309.144,134.358 308.800,133.969 308.800 C 133.580 308.800,132.727 308.350,132.073 307.800 C 131.419 307.250,130.710 306.800,130.497 306.800 C 130.284 306.800,129.431 306.260,128.600 305.600 C 127.769 304.940,126.846 304.400,126.548 304.400 C 126.251 304.400,125.782 304.040,125.507 303.600 C 125.232 303.160,124.806 302.800,124.559 302.800 C 123.985 302.800,120.068 299.874,117.731 297.700 C 117.199 297.205,116.596 296.800,116.391 296.800 C 116.186 296.800,115.724 296.350,115.363 295.800 C 115.003 295.250,114.504 294.800,114.254 294.800 C 113.579 294.800,103.200 284.093,103.200 283.397 C 103.200 283.069,102.936 282.800,102.614 282.800 C 102.292 282.800,101.817 282.395,101.559 281.900 C 101.301 281.405,100.837 280.730,100.529 280.400 C 99.387 279.176,95.600 273.991,95.600 273.651 C 95.600 273.457,95.317 273.063,94.971 272.776 C 94.625 272.489,93.971 271.521,93.519 270.627 C 93.066 269.732,92.449 268.856,92.148 268.680 C 91.847 268.504,91.600 268.037,91.600 267.642 C 91.600 267.247,91.247 266.604,90.815 266.214 C 90.383 265.823,89.815 264.850,89.552 264.052 C 89.289 263.253,88.852 262.420,88.581 262.200 C 88.310 261.980,87.860 261.080,87.581 260.200 C 87.302 259.320,86.852 258.420,86.581 258.200 C 86.310 257.980,85.864 257.095,85.591 256.233 C 85.317 255.370,84.775 254.110,84.385 253.433 C 83.996 252.755,83.550 251.570,83.394 250.800 C 83.238 250.030,82.871 249.127,82.578 248.794 C 82.285 248.460,81.845 247.290,81.600 246.194 C 81.356 245.097,80.884 243.783,80.551 243.274 C 80.219 242.764,79.772 241.263,79.559 239.937 C 79.345 238.612,78.908 237.126,78.587 236.636 C 78.265 236.145,77.800 234.226,77.553 232.372 C 77.307 230.517,76.847 228.496,76.531 227.879 C 76.216 227.263,75.781 224.563,75.564 221.879 C 75.347 219.196,74.869 215.830,74.502 214.400 C 73.636 211.025,73.532 188.928,74.369 186.000 C 74.651 185.010,75.128 181.819,75.427 178.908 C 75.726 175.998,76.239 173.097,76.567 172.463 C 76.896 171.828,77.335 169.929,77.545 168.241 C 77.754 166.553,78.186 164.774,78.504 164.286 C 78.822 163.799,79.285 162.249,79.532 160.842 C 79.778 159.436,80.240 157.996,80.556 157.642 C 80.873 157.289,81.257 156.280,81.410 155.400 C 81.563 154.520,82.029 153.205,82.444 152.477 C 82.860 151.750,83.405 150.339,83.656 149.343 C 83.907 148.347,84.339 147.445,84.617 147.338 C 84.894 147.232,85.234 146.545,85.371 145.813 C 85.509 145.080,85.950 144.058,86.352 143.541 C 86.755 143.023,87.303 141.928,87.571 141.106 C 87.839 140.284,88.220 139.511,88.418 139.389 C 88.615 139.267,89.147 138.409,89.600 137.483 C 90.873 134.876,92.336 132.407,92.998 131.745 C 93.329 131.414,93.600 130.887,93.600 130.575 C 93.600 130.262,93.960 129.782,94.400 129.507 C 94.840 129.232,95.200 128.810,95.200 128.568 C 95.200 128.088,96.286 126.570,99.500 122.556 C 100.655 121.114,101.600 119.796,101.600 119.627 C 101.600 118.787,117.652 103.200,118.516 103.200 C 118.652 103.200,119.196 102.795,119.725 102.300 C 120.253 101.805,121.116 101.082,121.643 100.693 C 122.169 100.305,123.382 99.360,124.338 98.593 C 125.294 97.827,126.329 97.200,126.638 97.200 C 126.947 97.200,127.200 97.025,127.200 96.810 C 127.200 96.596,127.785 96.125,128.500 95.763 C 129.215 95.402,130.160 94.788,130.600 94.399 C 131.040 94.010,131.823 93.563,132.339 93.406 C 132.856 93.249,133.627 92.773,134.052 92.348 C 134.477 91.923,135.348 91.470,135.987 91.343 C 136.626 91.215,137.238 90.879,137.346 90.595 C 137.455 90.312,138.232 89.856,139.072 89.582 C 139.912 89.308,141.013 88.762,141.519 88.369 C 142.024 87.977,143.004 87.531,143.696 87.379 C 144.388 87.227,145.198 86.859,145.495 86.562 C 145.793 86.264,146.793 85.820,147.718 85.573 C 148.643 85.327,149.673 84.883,150.006 84.585 C 150.340 84.288,151.507 83.845,152.600 83.600 C 153.693 83.355,154.875 82.894,155.226 82.576 C 155.578 82.258,156.914 81.804,158.195 81.567 C 159.477 81.330,160.930 80.871,161.424 80.548 C 161.918 80.224,163.554 79.768,165.061 79.535 C 166.567 79.302,168.300 78.854,168.911 78.540 C 169.522 78.225,171.592 77.785,173.511 77.561 C 175.430 77.338,177.900 76.863,179.000 76.508 C 182.561 75.356,202.491 74.845,214.649 75.593 M13.027 125.107 C 12.557 125.577,12.434 124.905,12.712 123.379 L 13.000 121.800 13.127 123.340 C 13.196 124.187,13.151 124.982,13.027 125.107 M387.365 123.700 C 387.537 124.650,387.483 125.200,387.218 125.200 C 386.988 125.200,386.800 124.450,386.800 123.533 C 386.800 121.568,386.990 121.624,387.365 123.700 M11.175 127.900 C 11.151 129.282,11.119 129.323,10.760 128.426 C 10.546 127.890,10.462 127.215,10.573 126.926 C 10.942 125.964,11.200 126.382,11.175 127.900 M389.277 128.265 C 388.868 129.387,388.863 129.382,388.832 127.820 C 388.808 126.660,388.918 126.358,389.245 126.685 C 389.561 127.001,389.570 127.460,389.277 128.265 M7.154 139.100 C 7.114 141.117,7.073 141.228,6.823 140.000 C 6.667 139.230,6.405 138.195,6.242 137.700 C 6.020 137.023,6.102 136.800,6.573 136.800 C 7.075 136.800,7.191 137.259,7.154 139.100 M393.758 137.700 C 393.595 138.195,393.333 139.230,393.177 140.000 C 392.927 141.228,392.886 141.117,392.846 139.100 C 392.809 137.259,392.925 136.800,393.427 136.800 C 393.898 136.800,393.980 137.023,393.758 137.700 M5.200 146.600 C 5.200 148.030,5.057 149.200,4.883 149.200 C 4.636 149.200,4.511 144.535,4.746 144.100 C 5.040 143.556,5.200 144.437,5.200 146.600 M395.417 146.833 C 395.426 148.135,395.291 149.200,395.117 149.200 C 394.943 149.200,394.800 148.000,394.800 146.533 C 394.800 145.067,394.935 144.002,395.100 144.167 C 395.265 144.332,395.408 145.532,395.417 146.833 M3.143 153.900 L 3.086 157.400 2.818 154.783 C 2.670 153.343,2.415 151.948,2.251 151.683 C 1.917 151.142,2.248 150.400,2.824 150.400 C 3.034 150.400,3.175 151.939,3.143 153.900 M397.675 151.443 C 397.607 151.859,397.407 153.370,397.232 154.800 L 396.914 157.400 396.857 153.867 C 396.814 151.194,396.922 150.376,397.300 150.510 C 397.575 150.607,397.744 151.027,397.675 151.443 M3.200 246.233 C 3.200 248.807,3.075 249.623,2.700 249.490 C 2.425 249.393,2.259 248.973,2.330 248.557 C 2.402 248.141,2.558 246.675,2.677 245.300 C 2.980 241.796,3.200 242.189,3.200 246.233 M397.675 248.557 C 397.744 248.973,397.575 249.393,397.300 249.490 C 396.922 249.624,396.814 248.806,396.857 246.133 L 396.914 242.600 397.232 245.200 C 397.407 246.630,397.607 248.141,397.675 248.557 M5.200 253.467 C 5.200 254.933,5.065 255.998,4.900 255.833 C 4.497 255.430,4.481 250.800,4.883 250.800 C 5.057 250.800,5.200 252.000,5.200 253.467 M395.417 253.167 C 395.408 254.468,395.265 255.668,395.100 255.833 C 394.935 255.998,394.800 254.933,394.800 253.467 C 394.800 252.000,394.943 250.800,395.117 250.800 C 395.291 250.800,395.426 251.865,395.417 253.167 M7.200 261.000 C 7.200 262.754,7.070 263.200,6.557 263.200 C 6.104 263.200,5.998 262.993,6.197 262.500 C 6.352 262.115,6.575 261.125,6.692 260.300 C 6.996 258.163,7.200 258.445,7.200 261.000 M393.758 262.300 C 393.980 262.977,393.898 263.200,393.427 263.200 C 392.925 263.200,392.809 262.741,392.846 260.900 C 392.886 258.883,392.927 258.772,393.177 260.000 C 393.333 260.770,393.595 261.805,393.758 262.300 M11.200 272.280 C 11.200 273.318,11.074 273.634,10.778 273.338 C 10.406 272.966,10.633 270.800,11.043 270.800 C 11.130 270.800,11.200 271.466,11.200 272.280 M389.245 273.315 C 388.918 273.642,388.808 273.340,388.832 272.180 C 388.863 270.618,388.868 270.613,389.277 271.735 C 389.570 272.540,389.561 272.999,389.245 273.315 M13.200 276.467 C 13.200 278.432,13.010 278.376,12.635 276.300 C 12.463 275.350,12.517 274.800,12.782 274.800 C 13.012 274.800,13.200 275.550,13.200 276.467 M387.365 276.300 C 386.990 278.376,386.800 278.432,386.800 276.467 C 386.800 275.550,386.988 274.800,387.218 274.800 C 387.483 274.800,387.537 275.350,387.365 276.300 M78.971 361.189 C 78.374 361.786,76.710 361.861,76.511 361.300 C 76.389 360.957,76.808 360.800,77.847 360.800 C 78.826 360.800,79.223 360.937,78.971 361.189 M323.489 361.300 C 323.290 361.861,321.626 361.786,321.029 361.189 C 320.777 360.937,321.174 360.800,322.153 360.800 C 323.192 360.800,323.611 360.957,323.489 361.300 M92.971 371.189 C 92.374 371.786,90.710 371.861,90.511 371.300 C 90.389 370.957,90.808 370.800,91.847 370.800 C 92.826 370.800,93.223 370.937,92.971 371.189 M309.489 371.300 C 309.290 371.861,307.626 371.786,307.029 371.189 C 306.777 370.937,307.174 370.800,308.153 370.800 C 309.192 370.800,309.611 370.957,309.489 371.300 M97.200 373.200 C 97.200 373.420,96.660 373.600,96.000 373.600 C 95.340 373.600,94.800 373.420,94.800 373.200 C 94.800 372.980,95.340 372.800,96.000 372.800 C 96.660 372.800,97.200 372.980,97.200 373.200 M305.200 373.200 C 305.200 373.420,304.750 373.600,304.200 373.600 C 303.650 373.600,303.200 373.420,303.200 373.200 C 303.200 372.980,303.650 372.800,304.200 372.800 C 304.750 372.800,305.200 372.980,305.200 373.200 M102.980 377.155 C 102.173 377.909,100.800 378.080,100.800 377.427 C 100.800 376.988,101.184 376.800,102.080 376.800 C 102.844 376.800,103.207 376.943,102.980 377.155 M299.200 377.443 C 299.200 377.865,298.982 378.002,298.567 377.843 C 298.219 377.709,297.769 377.600,297.567 377.600 C 297.365 377.600,297.200 377.420,297.200 377.200 C 297.200 376.980,297.650 376.800,298.200 376.800 C 298.852 376.800,299.200 377.024,299.200 377.443 M106.980 379.155 C 106.173 379.909,104.800 380.080,104.800 379.427 C 104.800 378.988,105.184 378.800,106.080 378.800 C 106.844 378.800,107.207 378.943,106.980 379.155 M295.200 379.443 C 295.200 379.865,294.982 380.002,294.567 379.843 C 294.219 379.709,293.769 379.600,293.567 379.600 C 293.365 379.600,293.200 379.420,293.200 379.200 C 293.200 378.980,293.650 378.800,294.200 378.800 C 294.852 378.800,295.200 379.024,295.200 379.443 M110.980 381.155 C 110.173 381.909,108.800 382.080,108.800 381.427 C 108.800 380.988,109.184 380.800,110.080 380.800 C 110.844 380.800,111.207 380.943,110.980 381.155 M291.200 381.443 C 291.200 381.865,290.982 382.002,290.567 381.843 C 290.219 381.709,289.769 381.600,289.567 381.600 C 289.365 381.600,289.200 381.420,289.200 381.200 C 289.200 380.980,289.650 380.800,290.200 380.800 C 290.852 380.800,291.200 381.024,291.200 381.443 M114.800 383.200 C 114.014 383.708,112.800 383.708,112.800 383.200 C 112.800 382.980,113.385 382.803,114.100 382.806 C 115.086 382.811,115.255 382.906,114.800 383.200 M287.200 383.200 C 287.200 383.420,286.851 383.600,286.424 383.600 C 285.997 383.600,285.536 383.420,285.400 383.200 C 285.260 382.973,285.596 382.800,286.176 382.800 C 286.739 382.800,287.200 382.980,287.200 383.200 M118.980 385.155 C 118.173 385.909,116.800 386.080,116.800 385.427 C 116.800 384.988,117.184 384.800,118.080 384.800 C 118.844 384.800,119.207 384.943,118.980 385.155 M283.200 385.427 C 283.200 385.891,282.966 385.983,282.300 385.782 C 280.752 385.314,280.553 384.800,281.920 384.800 C 282.816 384.800,283.200 384.988,283.200 385.427 M125.200 387.200 C 125.200 387.420,124.615 387.563,123.900 387.518 C 123.185 387.473,122.195 387.576,121.700 387.745 C 121.018 387.979,120.800 387.902,120.800 387.427 C 120.800 386.934,121.269 386.800,123.000 386.800 C 124.210 386.800,125.200 386.980,125.200 387.200 M279.200 387.427 C 279.200 387.902,278.982 387.979,278.300 387.745 C 277.805 387.576,276.905 387.466,276.300 387.502 C 275.695 387.538,275.200 387.395,275.200 387.184 C 275.200 386.973,276.100 386.800,277.200 386.800 C 278.749 386.800,279.200 386.941,279.200 387.427 M128.265 389.277 C 127.460 389.570,127.001 389.561,126.685 389.245 C 126.358 388.918,126.660 388.808,127.820 388.832 C 129.382 388.863,129.387 388.868,128.265 389.277 M273.315 389.245 C 272.999 389.561,272.540 389.570,271.735 389.277 C 270.613 388.868,270.618 388.863,272.180 388.832 C 273.340 388.808,273.642 388.918,273.315 389.245 M134.000 391.177 C 133.230 391.333,132.195 391.595,131.700 391.758 C 131.023 391.980,130.800 391.898,130.800 391.427 C 130.800 390.925,131.259 390.809,133.100 390.846 C 135.117 390.886,135.228 390.927,134.000 391.177 M269.200 391.427 C 269.200 391.898,268.977 391.980,268.300 391.758 C 267.805 391.595,266.770 391.333,266.000 391.177 C 264.772 390.927,264.883 390.886,266.900 390.846 C 268.741 390.809,269.200 390.925,269.200 391.427 M140.200 393.177 C 139.320 393.329,138.195 393.589,137.700 393.754 C 137.022 393.980,136.800 393.899,136.800 393.427 C 136.800 392.919,137.275 392.810,139.300 392.850 C 141.574 392.896,141.655 392.925,140.200 393.177 M263.200 393.427 C 263.200 393.899,262.978 393.980,262.300 393.754 C 261.805 393.589,260.680 393.329,259.800 393.177 C 258.345 392.925,258.426 392.896,260.700 392.850 C 262.725 392.810,263.200 392.919,263.200 393.427 M149.200 395.145 C 149.200 395.301,148.255 395.432,147.100 395.437 C 145.945 395.442,144.505 395.574,143.900 395.730 C 143.007 395.962,142.800 395.882,142.799 395.308 C 142.798 394.679,143.155 394.615,145.999 394.730 C 147.760 394.802,149.200 394.989,149.200 395.145 M257.200 395.408 C 257.200 395.873,256.942 395.948,256.100 395.730 C 255.495 395.574,254.055 395.442,252.900 395.437 C 251.745 395.432,250.800 395.287,250.800 395.114 C 250.800 394.941,252.240 394.800,254.000 394.800 C 256.596 394.800,257.200 394.915,257.200 395.408 M154.800 397.232 C 153.370 397.407,151.859 397.607,151.443 397.675 C 151.027 397.744,150.607 397.575,150.510 397.300 C 150.376 396.922,151.194 396.814,153.867 396.857 L 157.400 396.914 154.800 397.232 M249.490 397.300 C 249.393 397.575,248.973 397.744,248.557 397.675 C 248.141 397.607,246.630 397.407,245.200 397.232 L 242.600 396.914 246.133 396.857 C 248.806 396.814,249.624 396.922,249.490 397.300 " stroke="none" fill="#fbfbfb" fill-rule="evenodd"></path><path id="path2" d="M186.806 76.410 C 180.642 77.050,164.936 80.121,162.600 81.142 C 162.160 81.335,159.460 82.262,156.600 83.204 C 153.740 84.145,151.045 85.160,150.611 85.458 C 150.177 85.756,149.558 86.000,149.235 86.000 C 148.621 86.000,136.033 92.197,133.600 93.696 C 119.215 102.562,104.924 115.491,97.892 126.000 C 97.524 126.550,96.578 127.900,95.791 129.000 C 95.004 130.100,94.185 131.360,93.972 131.800 C 93.758 132.240,93.052 133.410,92.403 134.400 C 90.037 138.004,85.197 147.648,83.771 151.600 C 83.413 152.590,82.595 154.840,81.953 156.600 C 71.839 184.306,72.522 218.667,83.800 249.576 C 85.496 254.223,90.270 263.676,94.116 270.000 C 99.379 278.657,113.516 294.275,119.812 298.388 C 120.327 298.725,122.248 300.092,124.081 301.426 C 129.546 305.405,144.893 314.000,146.532 314.000 C 146.734 314.000,147.912 314.428,149.150 314.952 C 165.426 321.838,186.105 324.996,208.580 324.026 C 216.712 323.675,219.778 323.330,228.600 321.777 C 236.268 320.427,246.140 317.557,251.800 315.032 C 257.814 312.349,259.678 311.477,261.457 310.514 C 268.761 306.560,275.510 302.208,281.475 297.607 C 287.587 292.893,293.227 287.993,298.883 282.482 C 303.079 278.395,303.254 279.175,296.600 272.303 C 283.166 258.428,274.546 249.412,274.077 248.744 C 272.950 247.139,271.303 247.761,267.827 251.104 C 264.891 253.928,262.243 256.331,259.488 258.670 C 257.744 260.150,250.286 265.748,248.600 266.842 C 244.318 269.619,243.083 270.335,239.578 272.069 C 232.729 275.457,229.690 276.676,225.200 277.838 C 223.990 278.151,222.093 278.673,220.984 278.998 C 209.115 282.473,186.340 281.424,172.400 276.760 C 155.622 271.147,139.600 259.107,132.126 246.497 C 131.727 245.823,130.773 244.221,130.007 242.936 C 117.514 221.987,115.360 187.261,125.322 167.400 C 125.653 166.740,126.582 164.850,127.387 163.200 C 132.639 152.432,139.541 143.958,149.951 135.498 C 152.904 133.097,162.643 127.357,166.200 125.920 C 171.091 123.944,173.589 123.055,176.200 122.360 C 177.740 121.951,179.900 121.343,181.000 121.011 C 193.929 117.103,220.194 119.314,233.000 125.389 C 233.660 125.702,235.226 126.418,236.480 126.981 C 240.308 128.699,240.539 128.813,242.460 129.924 C 243.483 130.516,245.080 131.420,246.010 131.934 C 247.714 132.875,251.276 135.285,255.044 138.045 C 258.408 140.509,263.164 144.634,267.221 148.605 C 272.724 153.991,271.249 154.560,284.200 142.050 C 286.620 139.713,291.532 135.017,295.117 131.616 C 298.701 128.215,302.079 124.847,302.624 124.132 L 303.616 122.832 298.308 117.358 C 285.564 104.216,272.580 95.158,255.200 87.285 C 253.770 86.637,252.150 85.971,251.600 85.805 C 251.050 85.638,250.420 85.361,250.200 85.189 C 249.980 85.017,248.756 84.573,247.480 84.203 C 246.203 83.834,244.673 83.278,244.080 82.968 C 243.486 82.658,242.760 82.404,242.467 82.402 C 242.174 82.401,240.644 81.974,239.067 81.454 C 235.113 80.150,228.182 78.527,223.400 77.786 C 221.200 77.445,218.500 76.989,217.400 76.771 C 214.729 76.243,191.095 75.964,186.806 76.410 M215.888 77.415 C 216.816 77.727,219.696 78.179,222.288 78.420 C 224.880 78.661,227.553 79.108,228.230 79.414 C 228.906 79.721,230.796 80.172,232.430 80.417 C 234.063 80.662,236.120 81.199,237.000 81.611 C 237.880 82.022,239.542 82.481,240.693 82.630 C 241.844 82.779,242.983 83.139,243.224 83.429 C 243.465 83.719,244.683 84.175,245.931 84.443 C 247.179 84.711,248.470 85.153,248.800 85.426 C 249.130 85.698,250.210 86.150,251.200 86.430 C 252.190 86.709,253.270 87.159,253.600 87.430 C 253.930 87.700,255.010 88.158,256.000 88.448 C 256.990 88.738,258.131 89.279,258.535 89.649 C 258.939 90.020,259.859 90.435,260.580 90.570 C 261.300 90.705,262.198 91.156,262.575 91.572 C 262.951 91.988,263.691 92.436,264.219 92.569 C 264.747 92.702,265.839 93.258,266.645 93.805 C 267.452 94.352,268.329 94.800,268.594 94.800 C 268.859 94.800,269.402 95.160,269.800 95.600 C 270.198 96.040,270.752 96.400,271.031 96.400 C 271.310 96.400,272.073 96.850,272.727 97.400 C 273.381 97.950,274.090 98.400,274.303 98.400 C 274.516 98.400,275.337 98.895,276.129 99.500 C 276.920 100.105,278.212 101.050,279.000 101.600 C 281.747 103.517,285.279 106.214,286.961 107.679 C 287.642 108.273,288.690 109.173,289.289 109.679 C 289.889 110.186,291.386 111.545,292.616 112.700 C 293.847 113.855,295.022 114.800,295.227 114.800 C 295.432 114.800,295.600 115.074,295.600 115.409 C 295.600 115.743,296.050 116.222,296.600 116.473 C 297.150 116.723,297.600 117.090,297.600 117.287 C 297.600 117.485,298.365 118.404,299.300 119.329 C 302.970 122.962,302.956 123.190,298.829 127.076 C 297.383 128.438,296.020 129.748,295.800 129.987 C 295.580 130.227,295.162 130.642,294.871 130.911 C 294.580 131.180,293.392 132.300,292.231 133.400 C 291.069 134.500,288.607 136.826,286.759 138.569 C 284.912 140.312,281.082 144.000,278.248 146.765 C 272.048 152.814,272.380 152.766,267.871 148.268 C 264.882 145.286,259.422 140.428,257.126 138.706 C 252.553 135.279,251.363 134.444,248.600 132.724 C 247.500 132.040,245.960 131.057,245.178 130.540 C 244.397 130.023,243.577 129.600,243.356 129.600 C 243.136 129.600,242.345 129.150,241.600 128.600 C 240.855 128.050,239.944 127.600,239.576 127.600 C 239.209 127.600,238.479 127.266,237.954 126.858 C 237.429 126.450,236.280 125.887,235.400 125.606 C 234.520 125.325,233.603 124.941,233.363 124.751 C 232.844 124.342,227.671 122.522,225.400 121.950 C 224.520 121.728,222.709 121.195,221.376 120.765 C 220.042 120.334,217.432 119.809,215.576 119.598 C 213.719 119.387,210.427 118.918,208.260 118.556 C 203.938 117.835,192.677 117.949,190.000 118.743 C 189.230 118.971,186.809 119.352,184.620 119.589 C 182.431 119.827,180.117 120.282,179.479 120.601 C 178.840 120.919,177.291 121.366,176.037 121.593 C 174.782 121.821,173.052 122.365,172.193 122.804 C 171.334 123.242,170.290 123.600,169.874 123.600 C 169.458 123.600,168.281 124.032,167.259 124.560 C 166.237 125.088,164.001 126.213,162.290 127.060 C 158.078 129.146,157.135 129.678,155.819 130.713 C 155.199 131.201,154.536 131.600,154.344 131.600 C 153.493 131.600,145.607 138.070,141.842 141.857 C 138.360 145.360,136.573 147.446,132.556 152.697 C 132.092 153.304,131.585 154.205,131.429 154.700 C 131.274 155.195,130.976 155.600,130.769 155.600 C 130.416 155.600,129.291 157.553,127.774 160.800 C 127.415 161.570,126.891 162.470,126.611 162.800 C 126.330 163.130,125.876 164.120,125.600 165.000 C 125.324 165.880,124.862 166.873,124.572 167.206 C 124.282 167.540,123.852 168.676,123.615 169.732 C 123.379 170.787,122.918 172.058,122.592 172.556 C 122.265 173.055,121.802 174.525,121.562 175.823 C 121.322 177.121,120.875 178.669,120.568 179.262 C 120.261 179.855,119.819 182.109,119.586 184.270 C 119.353 186.432,118.901 189.497,118.581 191.083 C 117.808 194.918,117.811 205.100,118.585 208.917 C 118.907 210.503,119.356 213.651,119.582 215.914 C 119.809 218.177,120.258 220.538,120.580 221.161 C 120.902 221.784,121.347 223.419,121.568 224.795 C 121.790 226.171,122.218 227.680,122.520 228.148 C 122.822 228.617,123.288 229.884,123.556 230.963 C 123.824 232.043,124.308 233.303,124.632 233.763 C 124.955 234.224,125.400 235.267,125.620 236.082 C 125.841 236.897,126.259 237.802,126.550 238.093 C 126.841 238.384,127.293 239.270,127.555 240.063 C 127.816 240.855,128.383 241.823,128.815 242.214 C 129.247 242.604,129.600 243.146,129.600 243.416 C 129.600 243.687,130.365 245.023,131.300 246.385 C 132.235 247.747,133.180 249.170,133.400 249.546 C 133.850 250.315,133.783 250.232,137.490 254.577 C 138.980 256.324,140.830 258.346,141.600 259.069 C 145.448 262.682,147.828 264.783,148.082 264.791 C 148.237 264.796,148.814 265.250,149.364 265.800 C 149.914 266.350,150.642 266.800,150.982 266.800 C 151.322 266.800,151.600 266.976,151.600 267.192 C 151.600 267.407,152.287 267.934,153.127 268.363 C 153.966 268.791,154.879 269.413,155.154 269.745 C 155.430 270.077,156.168 270.461,156.794 270.599 C 157.421 270.736,158.026 271.090,158.139 271.384 C 158.252 271.679,159.032 272.144,159.872 272.418 C 160.712 272.692,161.823 273.245,162.341 273.648 C 162.858 274.050,163.886 274.493,164.626 274.631 C 165.366 274.770,166.172 275.125,166.417 275.420 C 166.661 275.715,167.883 276.175,169.131 276.443 C 170.379 276.711,171.689 277.175,172.042 277.475 C 172.396 277.774,173.836 278.205,175.242 278.432 C 176.649 278.659,178.307 279.122,178.926 279.461 C 179.549 279.801,182.319 280.318,185.126 280.617 C 187.917 280.915,190.920 281.343,191.800 281.569 C 193.829 282.091,207.210 282.094,209.600 281.573 C 210.590 281.357,213.593 280.932,216.272 280.629 C 218.952 280.326,221.652 279.800,222.272 279.461 C 222.893 279.122,224.551 278.659,225.958 278.432 C 227.364 278.205,228.804 277.771,229.158 277.466 C 229.511 277.162,230.700 276.694,231.800 276.426 C 232.900 276.159,234.070 275.714,234.400 275.439 C 234.730 275.163,235.775 274.717,236.721 274.447 C 237.668 274.176,238.542 273.695,238.664 273.378 C 238.786 273.060,239.201 272.800,239.587 272.800 C 239.973 272.800,240.898 272.388,241.644 271.885 C 242.390 271.382,243.572 270.736,244.271 270.449 C 244.970 270.162,245.853 269.583,246.233 269.163 C 246.613 268.744,247.168 268.400,247.466 268.400 C 247.764 268.400,248.316 268.040,248.693 267.600 C 249.070 267.160,249.582 266.800,249.830 266.800 C 250.079 266.800,250.769 266.350,251.363 265.799 C 251.957 265.249,252.973 264.524,253.622 264.189 C 254.270 263.854,254.800 263.404,254.800 263.190 C 254.800 262.975,254.999 262.800,255.241 262.800 C 255.943 262.800,263.296 256.497,268.203 251.690 C 271.757 248.208,272.471 247.994,274.250 249.880 C 274.992 250.668,275.600 251.378,275.600 251.459 C 275.600 251.539,277.400 253.430,279.600 255.659 C 281.800 257.888,283.600 259.855,283.600 260.029 C 283.600 260.204,283.933 260.452,284.339 260.581 C 284.746 260.710,285.282 261.262,285.531 261.808 C 285.779 262.353,286.257 262.800,286.591 262.800 C 286.926 262.800,287.200 263.007,287.200 263.260 C 287.200 263.513,288.145 264.654,289.300 265.794 C 292.243 268.700,300.941 277.979,301.287 278.582 C 301.608 279.142,295.192 285.395,289.400 290.167 C 288.740 290.711,286.457 292.606,284.327 294.378 C 282.196 296.150,280.270 297.600,280.047 297.600 C 279.823 297.600,279.496 297.844,279.320 298.142 C 279.144 298.440,278.211 299.205,277.246 299.842 C 273.784 302.128,273.482 302.343,273.243 302.692 C 273.109 302.886,272.428 303.277,271.729 303.559 C 271.030 303.842,270.147 304.417,269.767 304.837 C 269.387 305.256,268.847 305.600,268.567 305.600 C 268.286 305.600,267.810 305.847,267.509 306.148 C 267.208 306.450,266.340 307.011,265.580 307.396 C 264.821 307.781,263.930 308.315,263.600 308.582 C 263.270 308.850,262.370 309.308,261.600 309.600 C 260.830 309.892,259.930 310.342,259.600 310.600 C 259.270 310.858,258.370 311.308,257.600 311.600 C 256.830 311.892,255.930 312.358,255.600 312.635 C 255.270 312.911,254.460 313.267,253.800 313.426 C 253.140 313.585,251.791 314.139,250.803 314.657 C 249.815 315.176,248.645 315.606,248.203 315.613 C 247.761 315.619,246.500 316.068,245.400 316.609 C 244.300 317.150,242.950 317.598,242.400 317.605 C 241.850 317.612,240.610 317.976,239.646 318.414 C 238.681 318.851,236.611 319.406,235.046 319.647 C 233.480 319.887,231.602 320.331,230.871 320.633 C 230.140 320.936,227.530 321.372,225.071 321.603 C 222.612 321.833,219.250 322.327,217.600 322.700 C 213.119 323.714,187.984 323.710,183.600 322.695 C 181.950 322.313,178.708 321.829,176.395 321.619 C 174.082 321.410,171.562 320.977,170.795 320.659 C 170.028 320.340,167.972 319.864,166.227 319.601 C 164.482 319.338,162.682 318.884,162.227 318.592 C 161.772 318.300,160.369 317.874,159.110 317.646 C 157.850 317.418,156.320 316.973,155.710 316.657 C 155.099 316.342,153.790 315.870,152.800 315.609 C 151.810 315.348,150.624 314.894,150.164 314.600 C 149.704 314.306,148.534 313.854,147.564 313.595 C 146.594 313.337,145.530 312.895,145.200 312.613 C 144.870 312.332,143.880 311.876,143.000 311.600 C 142.120 311.324,141.118 310.854,140.774 310.554 C 140.430 310.255,139.530 309.799,138.774 309.541 C 138.018 309.283,136.971 308.741,136.446 308.336 C 135.921 307.931,135.260 307.600,134.977 307.600 C 134.693 307.600,133.927 307.150,133.273 306.600 C 132.619 306.050,131.866 305.600,131.600 305.600 C 131.334 305.600,130.617 305.195,130.008 304.700 C 129.399 304.205,128.383 303.490,127.750 303.111 C 125.756 301.918,125.097 301.454,122.335 299.300 C 120.854 298.145,119.496 297.200,119.318 297.200 C 119.139 297.200,118.768 296.840,118.493 296.400 C 118.218 295.960,117.837 295.600,117.645 295.600 C 117.315 295.600,115.867 294.295,110.800 289.435 C 108.845 287.560,107.826 286.444,103.513 281.457 C 102.915 280.766,102.060 279.821,101.613 279.358 C 101.166 278.895,100.800 278.379,100.800 278.213 C 100.800 277.905,99.307 275.950,97.731 274.194 C 97.253 273.661,96.754 272.884,96.621 272.466 C 96.488 272.048,96.024 271.384,95.590 270.991 C 95.155 270.598,94.800 270.048,94.800 269.769 C 94.800 269.490,94.375 268.753,93.855 268.131 C 93.335 267.509,92.774 266.550,92.609 266.000 C 92.443 265.450,91.982 264.640,91.584 264.200 C 91.185 263.760,90.740 262.918,90.594 262.329 C 90.448 261.741,89.988 260.951,89.572 260.575 C 89.156 260.198,88.705 259.300,88.570 258.580 C 88.435 257.859,87.993 256.914,87.589 256.480 C 87.184 256.046,86.731 255.039,86.581 254.242 C 86.432 253.445,85.999 252.390,85.618 251.897 C 85.238 251.403,84.705 250.100,84.433 249.000 C 84.162 247.900,83.710 246.730,83.428 246.400 C 83.147 246.070,82.710 244.734,82.458 243.431 C 82.206 242.128,81.756 240.778,81.458 240.431 C 81.160 240.084,80.707 238.483,80.450 236.873 C 80.194 235.264,79.736 233.554,79.433 233.073 C 79.130 232.593,78.678 230.417,78.430 228.237 C 78.181 226.057,77.718 223.717,77.401 223.037 C 75.575 219.120,75.582 180.715,77.410 177.181 C 77.719 176.583,78.171 174.407,78.415 172.347 C 78.658 170.286,79.186 167.880,79.587 167.000 C 79.989 166.120,80.438 164.411,80.586 163.202 C 80.733 161.993,81.111 160.719,81.426 160.371 C 81.741 160.023,82.209 158.672,82.465 157.369 C 82.721 156.066,83.241 154.597,83.620 154.103 C 83.999 153.610,84.435 152.536,84.589 151.717 C 84.743 150.897,85.198 149.765,85.600 149.200 C 86.002 148.635,86.459 147.490,86.616 146.655 C 86.773 145.819,87.147 145.042,87.447 144.927 C 87.747 144.811,88.207 143.971,88.469 143.059 C 88.731 142.146,89.257 141.093,89.637 140.718 C 90.017 140.342,90.445 139.506,90.587 138.859 C 90.729 138.212,91.195 137.366,91.623 136.979 C 92.050 136.593,92.400 136.066,92.400 135.809 C 92.400 135.553,92.935 134.635,93.589 133.771 C 94.243 132.907,94.783 131.928,94.789 131.596 C 94.795 131.264,95.160 130.768,95.600 130.493 C 96.040 130.218,96.407 129.770,96.416 129.497 C 96.425 129.223,96.965 128.377,97.616 127.615 C 98.267 126.853,98.800 126.062,98.800 125.857 C 98.800 125.501,99.090 125.155,101.396 122.754 C 101.948 122.179,102.400 121.582,102.400 121.429 C 102.400 120.501,118.678 104.400,119.615 104.400 C 119.823 104.400,120.218 104.040,120.493 103.600 C 120.768 103.160,121.188 102.800,121.426 102.800 C 121.665 102.800,122.270 102.364,122.770 101.832 C 123.270 101.300,124.201 100.648,124.840 100.384 C 125.478 100.119,126.000 99.736,126.000 99.531 C 126.000 99.327,126.630 98.896,127.400 98.574 C 128.170 98.252,128.800 97.820,128.800 97.613 C 128.800 97.407,129.610 96.879,130.600 96.441 C 131.590 96.003,132.400 95.474,132.400 95.266 C 132.400 95.057,132.883 94.766,133.473 94.617 C 134.063 94.469,135.067 93.910,135.704 93.374 C 136.340 92.838,137.093 92.400,137.377 92.400 C 137.660 92.400,138.321 92.069,138.846 91.664 C 139.371 91.259,140.418 90.717,141.174 90.459 C 141.930 90.201,142.830 89.739,143.174 89.432 C 143.518 89.125,144.544 88.676,145.453 88.434 C 146.363 88.192,147.318 87.740,147.576 87.428 C 147.835 87.117,148.750 86.744,149.611 86.598 C 150.472 86.453,151.587 86.015,152.088 85.625 C 152.590 85.235,153.720 84.784,154.600 84.624 C 155.480 84.463,156.830 83.993,157.600 83.580 C 158.370 83.166,160.065 82.642,161.367 82.415 C 162.669 82.188,164.019 81.758,164.367 81.460 C 164.715 81.162,166.486 80.716,168.301 80.469 C 170.117 80.222,172.097 79.765,172.701 79.455 C 173.306 79.145,175.994 78.681,178.676 78.425 C 181.358 78.168,184.148 77.761,184.876 77.520 C 188.416 76.351,212.476 76.269,215.888 77.415 " stroke="none" fill="#747474" fill-rule="evenodd"></path><path id="path3" d="M185.800 75.594 C 183.160 75.741,180.100 76.152,179.000 76.508 C 177.900 76.863,175.430 77.338,173.511 77.561 C 171.592 77.785,169.522 78.225,168.911 78.540 C 168.300 78.854,166.567 79.302,165.061 79.535 C 163.554 79.768,161.918 80.224,161.424 80.548 C 160.930 80.871,159.477 81.330,158.195 81.567 C 156.914 81.804,155.578 82.258,155.226 82.576 C 154.875 82.894,153.693 83.355,152.600 83.600 C 151.507 83.845,150.340 84.288,150.006 84.585 C 149.673 84.883,148.643 85.327,147.718 85.573 C 146.793 85.820,145.793 86.264,145.495 86.562 C 145.198 86.859,144.388 87.227,143.696 87.379 C 143.004 87.531,142.024 87.977,141.519 88.369 C 141.013 88.762,139.912 89.308,139.072 89.582 C 138.232 89.856,137.455 90.312,137.346 90.595 C 137.238 90.879,136.626 91.215,135.987 91.343 C 135.348 91.470,134.477 91.923,134.052 92.348 C 133.627 92.773,132.856 93.249,132.339 93.406 C 131.823 93.563,131.040 94.010,130.600 94.399 C 130.160 94.788,129.215 95.402,128.500 95.763 C 127.785 96.125,127.200 96.596,127.200 96.810 C 127.200 97.025,126.947 97.200,126.638 97.200 C 126.329 97.200,125.294 97.827,124.338 98.593 C 123.382 99.360,122.169 100.305,121.643 100.693 C 121.116 101.082,120.253 101.805,119.725 102.300 C 119.196 102.795,118.652 103.200,118.516 103.200 C 117.652 103.200,101.600 118.787,101.600 119.627 C 101.600 119.796,100.655 121.114,99.500 122.556 C 96.286 126.570,95.200 128.088,95.200 128.568 C 95.200 128.810,94.840 129.232,94.400 129.507 C 93.960 129.782,93.600 130.262,93.600 130.575 C 93.600 130.887,93.329 131.414,92.998 131.745 C 92.336 132.407,90.873 134.876,89.600 137.483 C 89.147 138.409,88.615 139.267,88.418 139.389 C 88.220 139.511,87.839 140.284,87.571 141.106 C 87.303 141.928,86.755 143.023,86.352 143.541 C 85.950 144.058,85.509 145.080,85.371 145.813 C 85.234 146.545,84.894 147.232,84.617 147.338 C 84.339 147.445,83.907 148.347,83.656 149.343 C 83.405 150.339,82.860 151.750,82.444 152.477 C 82.029 153.205,81.563 154.520,81.410 155.400 C 81.257 156.280,80.873 157.289,80.556 157.642 C 80.240 157.996,79.778 159.436,79.532 160.842 C 79.285 162.249,78.822 163.799,78.504 164.286 C 78.186 164.774,77.754 166.553,77.545 168.241 C 77.335 169.929,76.896 171.828,76.567 172.463 C 76.239 173.097,75.726 175.998,75.427 178.908 C 75.128 181.819,74.651 185.010,74.369 186.000 C 73.532 188.928,73.636 211.025,74.502 214.400 C 74.869 215.830,75.347 219.196,75.564 221.879 C 75.781 224.563,76.216 227.263,76.531 227.879 C 76.847 228.496,77.307 230.517,77.553 232.372 C 77.800 234.226,78.265 236.145,78.587 236.636 C 78.908 237.126,79.345 238.612,79.559 239.937 C 79.772 241.263,80.219 242.764,80.551 243.274 C 80.884 243.783,81.356 245.097,81.600 246.194 C 81.845 247.290,82.285 248.460,82.578 248.794 C 82.871 249.127,83.238 250.030,83.394 250.800 C 83.550 251.570,83.996 252.755,84.385 253.433 C 84.775 254.110,85.317 255.370,85.591 256.233 C 85.864 257.095,86.310 257.980,86.581 258.200 C 86.852 258.420,87.302 259.320,87.581 260.200 C 87.860 261.080,88.310 261.980,88.581 262.200 C 88.852 262.420,89.289 263.253,89.552 264.052 C 89.815 264.850,90.383 265.823,90.815 266.214 C 91.247 266.604,91.600 267.247,91.600 267.642 C 91.600 268.037,91.847 268.504,92.148 268.680 C 92.449 268.856,93.066 269.732,93.519 270.627 C 93.971 271.521,94.625 272.489,94.971 272.776 C 95.317 273.063,95.600 273.457,95.600 273.651 C 95.600 273.991,99.387 279.176,100.529 280.400 C 100.837 280.730,101.301 281.405,101.559 281.900 C 101.817 282.395,102.292 282.800,102.614 282.800 C 102.936 282.800,103.200 283.069,103.200 283.397 C 103.200 284.093,113.579 294.800,114.254 294.800 C 114.504 294.800,115.003 295.250,115.363 295.800 C 115.724 296.350,116.186 296.800,116.391 296.800 C 116.596 296.800,117.199 297.205,117.731 297.700 C 120.068 299.874,123.985 302.800,124.559 302.800 C 124.806 302.800,125.232 303.160,125.507 303.600 C 125.782 304.040,126.251 304.400,126.548 304.400 C 126.846 304.400,127.769 304.940,128.600 305.600 C 129.431 306.260,130.284 306.800,130.497 306.800 C 130.710 306.800,131.419 307.250,132.073 307.800 C 132.727 308.350,133.580 308.800,133.969 308.800 C 134.358 308.800,134.987 309.144,135.367 309.564 C 135.748 309.984,136.526 310.445,137.098 310.589 C 137.669 310.732,138.565 311.186,139.087 311.597 C 139.610 312.008,140.614 312.467,141.319 312.616 C 142.023 312.764,142.960 313.208,143.400 313.600 C 143.840 313.992,144.823 314.446,145.584 314.607 C 146.346 314.768,147.426 315.221,147.984 315.613 C 148.543 316.005,149.720 316.447,150.600 316.596 C 151.480 316.746,152.470 317.105,152.800 317.394 C 153.527 318.032,156.190 318.795,157.700 318.798 C 158.305 318.799,158.800 318.966,158.800 319.169 C 158.800 319.641,160.843 320.284,163.400 320.617 C 164.500 320.760,166.120 321.210,167.000 321.617 C 167.940 322.052,170.085 322.470,172.200 322.632 C 174.180 322.783,176.316 323.169,176.948 323.488 C 180.376 325.225,221.301 325.272,224.498 323.543 C 224.994 323.274,227.317 322.833,229.659 322.563 C 232.002 322.293,234.342 321.805,234.859 321.478 C 235.377 321.152,236.880 320.761,238.200 320.610 C 239.520 320.460,241.174 320.003,241.875 319.596 C 242.576 319.189,243.973 318.733,244.980 318.582 C 245.986 318.431,247.212 317.996,247.705 317.615 C 248.197 317.234,249.314 316.810,250.187 316.672 C 251.060 316.535,252.250 316.070,252.832 315.639 C 253.414 315.209,254.534 314.736,255.319 314.589 C 256.105 314.441,257.054 313.982,257.429 313.568 C 257.803 313.154,258.703 312.704,259.429 312.568 C 260.154 312.432,261.048 311.989,261.415 311.583 C 261.783 311.177,262.586 310.735,263.200 310.600 C 263.814 310.465,264.624 310.015,265.000 309.600 C 265.376 309.185,266.213 308.729,266.861 308.587 C 267.508 308.444,268.253 307.984,268.515 307.564 C 268.778 307.144,269.317 306.800,269.714 306.800 C 270.111 306.800,270.855 306.381,271.366 305.870 C 271.878 305.358,272.860 304.707,273.548 304.421 C 274.237 304.136,274.800 303.747,274.800 303.557 C 274.800 303.366,275.412 302.955,276.159 302.643 C 276.907 302.331,277.672 301.814,277.859 301.496 C 278.047 301.177,278.619 300.697,279.130 300.428 C 280.067 299.936,280.623 299.505,282.573 297.755 C 283.158 297.230,283.776 296.800,283.946 296.800 C 284.117 296.800,284.811 296.305,285.490 295.700 C 286.168 295.095,287.384 294.060,288.192 293.400 C 289.000 292.740,290.470 291.435,291.459 290.500 C 292.448 289.565,293.363 288.800,293.492 288.800 C 293.621 288.800,294.604 287.900,295.675 286.800 C 296.747 285.700,297.729 284.800,297.858 284.800 C 298.243 284.800,302.619 280.250,302.874 279.584 C 303.447 278.091,302.563 277.077,284.500 258.509 C 282.245 256.191,280.400 254.151,280.400 253.974 C 280.400 253.798,280.040 253.540,279.600 253.400 C 279.160 253.260,278.800 252.972,278.800 252.759 C 278.800 252.298,273.366 246.799,272.914 246.802 C 271.673 246.811,269.607 247.746,269.403 248.392 C 269.269 248.814,268.817 249.267,268.400 249.400 C 267.983 249.533,267.530 249.992,267.394 250.420 C 267.257 250.849,266.898 251.200,266.596 251.200 C 266.293 251.200,265.810 251.531,265.523 251.936 C 265.235 252.340,263.211 254.185,261.025 256.036 C 258.838 257.886,256.522 259.890,255.878 260.488 C 255.234 261.086,254.368 261.683,253.953 261.815 C 253.539 261.946,253.200 262.218,253.200 262.419 C 253.200 262.620,252.480 263.151,251.600 263.600 C 250.720 264.049,250.000 264.559,250.000 264.734 C 250.000 264.909,249.370 265.352,248.600 265.719 C 247.830 266.087,247.200 266.534,247.200 266.713 C 247.200 266.893,246.596 267.258,245.857 267.525 C 245.119 267.792,244.191 268.368,243.795 268.805 C 243.400 269.242,242.779 269.600,242.416 269.600 C 242.053 269.600,241.145 270.050,240.400 270.600 C 239.655 271.150,238.755 271.600,238.400 271.600 C 238.045 271.600,237.145 272.050,236.400 272.600 C 235.655 273.150,234.654 273.600,234.176 273.600 C 233.699 273.600,232.879 273.936,232.354 274.347 C 231.829 274.758,230.412 275.306,229.205 275.563 C 227.998 275.821,226.610 276.295,226.120 276.615 C 225.631 276.936,223.957 277.379,222.401 277.600 C 220.845 277.821,218.903 278.283,218.086 278.628 C 214.297 280.227,186.379 280.244,183.295 278.649 C 182.675 278.328,180.743 277.868,179.002 277.626 C 177.262 277.384,175.462 276.939,175.003 276.639 C 174.544 276.338,173.184 275.887,171.981 275.638 C 170.779 275.388,169.256 274.829,168.597 274.394 C 167.939 273.960,167.164 273.604,166.875 273.603 C 166.358 273.600,161.572 271.498,160.400 270.759 C 160.070 270.550,159.035 270.016,158.100 269.571 C 157.165 269.127,156.400 268.603,156.400 268.408 C 156.400 268.213,156.080 267.952,155.688 267.828 C 154.957 267.596,151.422 265.385,150.382 264.510 C 150.062 264.241,148.720 263.140,147.400 262.064 C 144.467 259.673,141.261 256.517,138.600 253.403 C 137.500 252.116,136.209 250.649,135.731 250.144 C 135.253 249.639,134.754 248.884,134.621 248.466 C 134.488 248.048,134.024 247.384,133.590 246.991 C 133.155 246.598,132.800 246.026,132.800 245.720 C 132.800 245.414,132.373 244.737,131.852 244.215 C 131.330 243.694,130.786 242.798,130.642 242.223 C 130.498 241.649,130.043 240.843,129.631 240.431 C 129.219 240.019,128.761 239.132,128.613 238.460 C 128.465 237.787,128.028 236.824,127.640 236.319 C 127.253 235.813,126.697 234.529,126.406 233.464 C 126.114 232.399,125.649 231.440,125.371 231.334 C 125.094 231.227,124.741 230.209,124.587 229.070 C 124.323 227.110,123.803 225.644,123.216 225.200 C 123.070 225.090,122.742 223.401,122.486 221.446 C 122.231 219.491,121.743 217.467,121.403 216.948 C 119.994 214.798,120.005 185.473,121.416 183.320 C 121.748 182.813,122.225 180.913,122.476 179.099 C 122.735 177.224,123.229 175.413,123.620 174.905 C 123.998 174.412,124.435 173.159,124.591 172.121 C 124.747 171.082,125.203 169.814,125.604 169.304 C 126.005 168.794,126.462 167.617,126.619 166.690 C 126.775 165.762,127.233 164.772,127.636 164.490 C 128.039 164.208,128.493 163.307,128.645 162.489 C 128.797 161.670,129.240 160.775,129.629 160.500 C 130.018 160.224,130.455 159.459,130.600 158.800 C 130.745 158.141,131.183 157.376,131.574 157.100 C 131.965 156.825,132.415 156.189,132.574 155.687 C 132.732 155.185,133.253 154.339,133.731 153.806 C 135.711 151.601,136.800 150.053,136.800 149.445 C 136.800 149.090,137.064 148.800,137.386 148.800 C 137.708 148.800,138.173 148.425,138.418 147.966 C 138.664 147.507,139.624 146.382,140.552 145.466 C 141.481 144.550,142.360 143.485,142.507 143.100 C 142.655 142.715,142.971 142.400,143.211 142.400 C 143.450 142.400,144.431 141.605,145.389 140.632 C 146.347 139.660,147.507 138.664,147.966 138.418 C 148.425 138.173,148.800 137.708,148.800 137.386 C 148.800 137.064,149.091 136.800,149.447 136.800 C 149.803 136.800,150.697 136.305,151.432 135.700 C 153.905 133.667,155.124 132.800,155.508 132.800 C 155.718 132.800,156.569 132.260,157.400 131.600 C 158.231 130.940,159.148 130.400,159.439 130.400 C 159.731 130.400,160.291 130.073,160.684 129.673 C 161.078 129.273,162.146 128.731,163.059 128.469 C 163.971 128.207,164.813 127.742,164.931 127.436 C 165.048 127.130,165.872 126.757,166.760 126.607 C 167.649 126.457,168.787 126.014,169.288 125.623 C 169.790 125.232,171.016 124.792,172.013 124.645 C 173.010 124.498,174.375 124.043,175.045 123.636 C 175.716 123.228,177.420 122.764,178.832 122.605 C 180.244 122.446,182.300 121.930,183.400 121.458 C 186.249 120.236,214.114 120.116,216.313 121.317 C 217.035 121.711,219.105 122.241,220.913 122.495 C 222.744 122.752,224.602 123.260,225.108 123.642 C 225.607 124.019,226.957 124.456,228.108 124.614 C 229.258 124.772,230.632 125.241,231.160 125.656 C 231.688 126.070,232.805 126.519,233.642 126.653 C 234.479 126.787,235.466 127.231,235.837 127.640 C 236.207 128.050,237.140 128.503,237.910 128.647 C 238.680 128.791,239.651 129.251,240.067 129.667 C 240.484 130.084,241.359 130.532,242.013 130.662 C 242.666 130.793,243.200 131.060,243.200 131.256 C 243.200 131.453,243.875 131.921,244.700 132.298 C 245.525 132.674,246.709 133.391,247.331 133.891 C 247.953 134.391,248.618 134.800,248.810 134.800 C 249.002 134.800,249.644 135.250,250.238 135.800 C 250.831 136.350,251.529 136.800,251.789 136.800 C 252.048 136.800,252.683 137.250,253.200 137.800 C 253.717 138.350,254.372 138.800,254.656 138.800 C 254.940 138.800,255.365 139.160,255.600 139.600 C 255.835 140.040,256.259 140.400,256.542 140.400 C 256.825 140.400,257.423 140.805,257.872 141.300 C 258.320 141.795,259.298 142.704,260.044 143.320 C 264.637 147.115,269.600 151.812,269.600 152.365 C 269.600 152.728,272.034 154.000,272.729 154.000 C 273.196 154.000,275.097 152.196,297.331 130.661 C 299.568 128.495,301.713 126.553,302.099 126.347 C 302.484 126.141,302.800 125.751,302.800 125.482 C 302.800 125.213,303.160 124.768,303.600 124.493 C 304.824 123.728,304.572 122.798,302.499 120.440 C 300.062 117.668,294.287 111.917,291.612 109.600 C 290.470 108.610,289.033 107.350,288.421 106.800 C 287.808 106.250,286.963 105.530,286.542 105.200 C 286.121 104.870,284.942 103.925,283.921 103.100 C 282.900 102.275,281.939 101.600,281.785 101.600 C 281.632 101.600,280.903 101.105,280.168 100.500 C 277.662 98.440,276.474 97.600,276.067 97.600 C 275.844 97.600,275.153 97.175,274.531 96.656 C 273.909 96.137,272.860 95.410,272.200 95.040 C 271.540 94.671,270.280 93.933,269.400 93.401 C 268.520 92.869,267.055 92.081,266.144 91.650 C 265.233 91.219,264.376 90.684,264.238 90.462 C 264.101 90.240,263.316 89.842,262.494 89.579 C 261.672 89.315,260.706 88.843,260.347 88.530 C 259.988 88.218,258.998 87.772,258.147 87.541 C 257.296 87.310,256.298 86.852,255.929 86.524 C 255.559 86.196,254.482 85.754,253.535 85.541 C 252.587 85.328,251.539 84.908,251.206 84.607 C 250.873 84.306,249.700 83.837,248.600 83.564 C 247.500 83.292,246.240 82.838,245.800 82.556 C 245.360 82.275,244.100 81.850,243.000 81.612 C 241.900 81.375,240.190 80.847,239.200 80.440 C 238.210 80.032,236.435 79.578,235.256 79.430 C 234.077 79.282,232.703 78.893,232.203 78.565 C 231.704 78.238,229.609 77.790,227.547 77.569 C 225.486 77.348,223.102 76.897,222.249 76.567 C 219.220 75.393,199.076 74.855,185.800 75.594 M210.400 76.012 C 218.524 76.518,230.796 78.654,237.200 80.675 C 238.190 80.988,240.170 81.581,241.600 81.994 C 245.221 83.040,250.041 84.739,250.563 85.155 C 250.803 85.346,251.450 85.634,252.000 85.794 C 256.708 87.169,270.027 94.291,277.600 99.484 C 287.453 106.240,303.600 120.997,303.600 123.248 C 303.600 123.648,300.448 126.795,290.591 136.238 C 285.976 140.658,280.220 146.187,277.800 148.524 C 272.245 153.888,272.378 153.874,267.912 149.500 C 264.243 145.906,261.713 143.668,257.400 140.199 C 253.490 137.055,253.742 137.239,249.989 134.770 C 240.853 128.757,231.771 124.512,223.800 122.529 C 222.480 122.200,220.502 121.659,219.403 121.326 C 211.841 119.033,190.927 118.735,182.800 120.806 C 182.030 121.002,179.905 121.531,178.078 121.982 C 176.251 122.433,174.235 123.072,173.598 123.401 C 172.961 123.731,172.146 124.000,171.787 124.000 C 170.486 124.000,162.815 127.562,158.400 130.215 C 157.190 130.943,155.720 131.801,155.132 132.122 C 148.902 135.533,138.266 146.038,132.764 154.217 C 129.193 159.524,125.870 166.026,123.981 171.401 C 123.161 173.734,122.738 175.188,121.187 181.000 C 118.937 189.435,118.738 208.344,120.801 217.713 C 122.020 223.251,122.881 226.618,123.172 226.983 C 123.354 227.212,123.812 228.480,124.190 229.800 C 124.567 231.120,125.036 232.396,125.232 232.635 C 125.429 232.874,125.867 233.857,126.207 234.820 C 127.008 237.091,128.488 240.047,130.203 242.800 C 130.956 244.010,131.875 245.540,132.244 246.200 C 137.897 256.303,154.134 269.737,166.162 274.263 C 181.970 280.211,195.096 281.922,211.800 280.211 C 222.845 279.079,237.526 274.072,245.134 268.841 C 245.720 268.438,247.190 267.452,248.400 266.651 C 251.685 264.475,252.362 263.995,255.200 261.829 C 259.438 258.596,264.869 253.803,269.852 248.900 C 272.325 246.466,271.520 245.881,284.832 259.792 C 287.564 262.648,291.977 267.238,294.638 269.992 C 303.971 279.652,303.533 278.352,298.940 282.773 C 292.581 288.893,282.120 297.772,278.172 300.400 C 277.677 300.730,275.500 302.181,273.336 303.625 C 267.973 307.201,267.215 307.678,265.600 308.494 C 264.830 308.884,262.166 310.271,259.680 311.577 C 257.194 312.883,254.569 314.146,253.847 314.384 C 253.125 314.623,251.836 315.174,250.983 315.609 C 250.129 316.044,249.154 316.401,248.815 316.402 C 248.477 316.404,247.663 316.685,247.008 317.027 C 245.751 317.682,241.823 318.900,237.800 319.882 C 236.480 320.205,234.500 320.742,233.400 321.075 C 232.300 321.409,229.150 322.013,226.400 322.416 C 223.650 322.820,220.230 323.375,218.800 323.650 C 215.458 324.293,186.506 324.341,183.000 323.710 C 181.680 323.473,178.111 322.899,175.069 322.437 C 172.027 321.974,169.237 321.440,168.869 321.251 C 168.501 321.061,166.940 320.678,165.400 320.399 C 163.860 320.120,161.970 319.650,161.200 319.355 C 160.430 319.060,158.810 318.553,157.600 318.227 C 155.219 317.588,150.565 315.921,148.540 314.984 C 147.846 314.663,147.141 314.400,146.971 314.400 C 146.603 314.400,142.418 312.431,138.800 310.557 C 137.370 309.816,135.480 308.845,134.600 308.400 C 133.720 307.956,132.190 307.060,131.200 306.410 C 130.210 305.761,128.873 304.931,128.230 304.568 C 121.200 300.597,108.219 288.940,101.538 280.600 C 98.189 276.418,95.600 272.630,91.151 265.400 C 90.294 264.007,86.562 256.506,84.982 253.000 C 82.707 247.950,79.388 237.511,78.179 231.600 C 77.841 229.950,77.311 227.610,77.000 226.400 C 73.963 214.584,74.074 185.240,77.200 173.305 C 77.640 171.624,78.000 169.844,78.000 169.349 C 78.000 168.492,79.302 163.868,80.632 160.000 C 80.972 159.010,81.496 157.390,81.796 156.400 C 82.348 154.577,83.968 150.395,84.974 148.200 C 87.524 142.633,88.787 140.183,92.027 134.526 C 93.291 132.319,97.883 125.541,99.328 123.749 C 105.178 116.494,113.799 107.557,117.800 104.601 C 118.680 103.951,120.300 102.685,121.400 101.789 C 122.500 100.893,123.850 99.855,124.400 99.483 C 126.917 97.780,129.938 95.792,131.400 94.877 C 132.280 94.326,133.450 93.574,134.000 93.207 C 135.496 92.209,146.933 86.550,148.502 86.032 C 149.252 85.785,150.564 85.226,151.417 84.791 C 152.271 84.356,153.198 84.000,153.477 84.000 C 153.756 84.000,155.113 83.559,156.492 83.020 C 161.012 81.254,168.484 79.238,174.400 78.188 C 176.270 77.856,179.292 77.302,181.115 76.958 C 187.420 75.766,199.956 75.361,210.400 76.012 " stroke="none" fill="#9c9c9c" fill-rule="evenodd"></path><path id="path4" d="M197.300 75.897 C 199.005 75.972,201.795 75.972,203.500 75.897 C 205.205 75.822,203.810 75.761,200.400 75.761 C 196.990 75.761,195.595 75.822,197.300 75.897 M187.500 76.282 C 187.995 76.378,188.805 76.378,189.300 76.282 C 189.795 76.187,189.390 76.109,188.400 76.109 C 187.410 76.109,187.005 76.187,187.500 76.282 M211.705 76.287 C 212.314 76.379,213.214 76.377,213.705 76.282 C 214.197 76.187,213.700 76.111,212.600 76.114 C 211.500 76.117,211.097 76.195,211.705 76.287 M122.922 100.629 L 121.800 101.658 123.100 100.754 C 123.815 100.257,124.400 99.793,124.400 99.725 C 124.400 99.409,123.958 99.680,122.922 100.629 M296.400 115.400 C 298.481 117.490,300.274 119.200,300.384 119.200 C 300.494 119.200,298.881 117.490,296.800 115.400 C 294.719 113.310,292.926 111.600,292.816 111.600 C 292.706 111.600,294.319 113.310,296.400 115.400 M105.178 116.700 L 103.800 118.200 105.300 116.822 C 106.125 116.063,106.800 115.388,106.800 115.322 C 106.800 115.016,106.462 115.304,105.178 116.700 M197.715 119.096 C 198.988 119.176,200.968 119.175,202.115 119.094 C 203.262 119.014,202.220 118.949,199.800 118.950 C 197.380 118.951,196.442 119.016,197.715 119.096 M192.500 119.476 C 192.885 119.576,193.515 119.576,193.900 119.476 C 194.285 119.375,193.970 119.293,193.200 119.293 C 192.430 119.293,192.115 119.375,192.500 119.476 M205.700 119.476 C 206.085 119.576,206.715 119.576,207.100 119.476 C 207.485 119.375,207.170 119.293,206.400 119.293 C 205.630 119.293,205.315 119.375,205.700 119.476 M188.900 119.876 C 189.285 119.976,189.915 119.976,190.300 119.876 C 190.685 119.775,190.370 119.693,189.600 119.693 C 188.830 119.693,188.515 119.775,188.900 119.876 M209.700 119.876 C 210.085 119.976,210.715 119.976,211.100 119.876 C 211.485 119.775,211.170 119.693,210.400 119.693 C 209.630 119.693,209.315 119.775,209.700 119.876 M172.800 123.400 C 172.250 123.714,171.980 123.972,172.200 123.972 C 172.420 123.972,173.050 123.714,173.600 123.400 C 174.150 123.086,174.420 122.828,174.200 122.828 C 173.980 122.828,173.350 123.086,172.800 123.400 M292.585 134.100 L 290.600 136.200 292.700 134.215 C 294.651 132.371,294.983 132.000,294.685 132.000 C 294.622 132.000,293.677 132.945,292.585 134.100 M283.988 142.300 L 281.400 145.000 284.100 142.412 C 285.585 140.988,286.800 139.773,286.800 139.712 C 286.800 139.417,286.393 139.792,283.988 142.300 M141.988 142.700 L 139.400 145.400 142.100 142.812 C 143.585 141.388,144.800 140.173,144.800 140.112 C 144.800 139.817,144.393 140.192,141.988 142.700 M136.105 149.100 C 134.634 150.881,133.379 152.724,134.267 151.800 C 135.240 150.786,138.053 147.200,137.874 147.200 C 137.764 147.200,136.968 148.055,136.105 149.100 M275.387 150.500 L 273.000 153.000 275.500 150.613 C 276.875 149.299,278.000 148.174,278.000 148.113 C 278.000 147.817,277.605 148.178,275.387 150.500 M75.293 187.200 C 75.293 187.970,75.375 188.285,75.476 187.900 C 75.576 187.515,75.576 186.885,75.476 186.500 C 75.375 186.115,75.293 186.430,75.293 187.200 M119.293 193.200 C 119.293 193.970,119.375 194.285,119.476 193.900 C 119.576 193.515,119.576 192.885,119.476 192.500 C 119.375 192.115,119.293 192.430,119.293 193.200 M74.555 199.800 C 74.556 202.660,74.620 203.778,74.697 202.283 C 74.774 200.789,74.774 198.449,74.696 197.083 C 74.618 195.718,74.555 196.940,74.555 199.800 M118.954 199.600 C 118.954 202.350,119.018 203.475,119.096 202.100 C 119.174 200.725,119.174 198.475,119.096 197.100 C 119.018 195.725,118.954 196.850,118.954 199.600 M119.293 206.800 C 119.293 207.570,119.375 207.885,119.476 207.500 C 119.576 207.115,119.576 206.485,119.476 206.100 C 119.375 205.715,119.293 206.030,119.293 206.800 M74.893 209.200 C 74.893 209.970,74.975 210.285,75.076 209.900 C 75.176 209.515,75.176 208.885,75.076 208.500 C 74.975 208.115,74.893 208.430,74.893 209.200 M119.693 210.800 C 119.693 211.570,119.775 211.885,119.876 211.500 C 119.976 211.115,119.976 210.485,119.876 210.100 C 119.775 209.715,119.693 210.030,119.693 210.800 M75.293 212.800 C 75.293 213.570,75.375 213.885,75.476 213.500 C 75.576 213.115,75.576 212.485,75.476 212.100 C 75.375 211.715,75.293 212.030,75.293 212.800 M75.693 216.800 C 75.693 217.570,75.775 217.885,75.876 217.500 C 75.976 217.115,75.976 216.485,75.876 216.100 C 75.775 215.715,75.693 216.030,75.693 216.800 M274.400 249.310 C 274.400 249.371,275.795 250.766,277.500 252.410 L 280.600 255.400 277.610 252.300 C 274.833 249.421,274.400 249.017,274.400 249.310 M266.585 252.100 L 264.600 254.200 266.700 252.215 C 267.855 251.123,268.800 250.178,268.800 250.115 C 268.800 249.817,268.429 250.149,266.585 252.100 M141.583 258.100 C 143.241 259.866,143.600 260.184,143.600 259.883 C 143.600 259.819,142.745 258.964,141.700 257.983 L 139.800 256.200 141.583 258.100 M287.800 263.200 C 288.883 264.300,289.860 265.200,289.970 265.200 C 290.080 265.200,289.283 264.300,288.200 263.200 C 287.117 262.100,286.140 261.200,286.030 261.200 C 285.920 261.200,286.717 262.100,287.800 263.200 M297.600 273.400 C 298.795 274.610,299.863 275.600,299.973 275.600 C 300.083 275.600,299.195 274.610,298.000 273.400 C 296.805 272.190,295.737 271.200,295.627 271.200 C 295.517 271.200,296.405 272.190,297.600 273.400 M300.975 280.500 L 299.800 281.800 301.100 280.625 C 301.815 279.979,302.400 279.394,302.400 279.325 C 302.400 279.016,302.070 279.288,300.975 280.500 M191.905 280.683 C 192.402 280.779,193.122 280.775,193.505 280.675 C 193.887 280.575,193.480 280.496,192.600 280.501 C 191.720 280.505,191.407 280.587,191.905 280.683 M208.100 280.676 C 208.485 280.776,209.115 280.776,209.500 280.676 C 209.885 280.575,209.570 280.493,208.800 280.493 C 208.030 280.493,207.715 280.575,208.100 280.676 M198.300 281.096 C 199.675 281.174,201.925 281.174,203.300 281.096 C 204.675 281.018,203.550 280.954,200.800 280.954 C 198.050 280.954,196.925 281.018,198.300 281.096 M297.978 283.500 L 296.600 285.000 298.100 283.622 C 298.925 282.863,299.600 282.188,299.600 282.122 C 299.600 281.816,299.262 282.104,297.978 283.500 M105.600 285.325 C 105.600 285.394,106.185 285.979,106.900 286.625 L 108.200 287.800 107.025 286.500 C 105.930 285.288,105.600 285.016,105.600 285.325 M112.400 292.125 C 112.400 292.194,112.985 292.779,113.700 293.425 L 115.000 294.600 113.825 293.300 C 112.730 292.088,112.400 291.816,112.400 292.125 M133.144 307.576 C 133.664 308.029,134.279 308.400,134.511 308.400 C 135.003 308.400,134.979 308.380,133.400 307.455 L 132.200 306.753 133.144 307.576 M184.500 323.876 C 184.885 323.976,185.515 323.976,185.900 323.876 C 186.285 323.775,185.970 323.693,185.200 323.693 C 184.430 323.693,184.115 323.775,184.500 323.876 M215.505 323.883 C 216.002 323.979,216.722 323.975,217.105 323.875 C 217.487 323.775,217.080 323.696,216.200 323.701 C 215.320 323.705,215.007 323.787,215.505 323.883 M191.700 324.291 C 192.525 324.378,193.875 324.378,194.700 324.291 C 195.525 324.205,194.850 324.134,193.200 324.134 C 191.550 324.134,190.875 324.205,191.700 324.291 M205.712 324.295 C 206.764 324.377,208.384 324.376,209.312 324.292 C 210.240 324.208,209.380 324.141,207.400 324.142 C 205.420 324.143,204.660 324.212,205.712 324.295 " stroke="none" fill="#848484" fill-rule="evenodd"></path></g></svg>