<?xml version="1.0" encoding="iso-8859-1"?>
<!-- Generator: Adobe Illustrator 22.0.1, SVG Export Plug-In . SVG Version: 6.00 Build 0)  -->
<svg version="1.1" id="Layer_1" xmlns="http://www.w3.org/2000/svg" xmlns:xlink="http://www.w3.org/1999/xlink" x="0px" y="0px"
	 viewBox="0 0 438.53 438.53" style="enable-background:new 0 0 438.53 438.53;" xml:space="preserve">
<g id="_x33_6">
	<g>
		<polygon style="fill:#F4F4F4;" points="131.243,131.243 131.243,307.287 219.265,219.265 		"/>
		<polygon style="fill:#F4F4F4;" points="219.265,219.265 307.287,307.287 307.287,131.243 		"/>
		<path style="fill:#F4F4F4;" d="M407.603,110.087c-19.45-33.321-45.833-59.704-79.155-79.153
			c-33.328-19.448-69.711-29.17-109.176-29.17c-39.461,0-75.854,9.722-109.177,29.17C76.771,50.38,50.388,76.763,30.938,110.087
			c-19.451,33.326-29.173,69.72-29.173,109.178c0,39.46,9.725,75.847,29.17,109.175c19.449,33.321,45.832,59.704,79.156,79.155
			c33.326,19.447,69.717,29.17,109.177,29.17s75.854-9.723,109.179-29.17c33.322-19.444,59.704-45.834,79.152-79.155
			c19.445-33.325,29.166-69.718,29.166-109.175C436.766,179.803,427.044,143.409,407.603,110.087z M307.287,307.287L307.287,307.287
			H131.242L43.22,219.265l0,0l88.022-88.022h176.045l88.022,88.022L307.287,307.287z"/>
		<polygon style="fill:#CF4037;" points="43.22,219.265 43.22,219.265 131.243,307.287 131.243,131.243 		"/>
		<polygon style="fill:#CF4037;" points="131.243,307.287 307.287,307.287 219.265,219.265 		"/>
		<polygon style="fill:#CF4037;" points="307.287,131.243 131.243,131.243 219.265,219.265 		"/>
		<polygon style="fill:#CF4037;" points="307.287,307.287 307.287,307.287 395.31,219.265 307.287,131.243 		"/>
	</g>
</g>
</svg>
