<svg id="svg" version="1.1" xmlns="http://www.w3.org/2000/svg" xmlns:xlink="http://www.w3.org/1999/xlink" width="400" height="792.0529801324503" viewBox="0, 0, 400,792.0529801324503"><g id="svgg"><path id="path0" d="M2.000 7.000 L 2.000 14.000 9.200 14.000 L 16.400 14.000 16.400 37.629 C 16.400 58.098,16.320 61.337,15.800 61.857 C 15.374 62.283,15.200 63.321,15.200 65.429 C 15.200 67.803,15.079 68.400,14.600 68.400 C 14.246 68.400,13.997 68.770,13.993 69.300 C 13.985 70.335,12.592 71.795,11.055 72.379 C 10.475 72.600,10.000 72.965,10.000 73.190 C 10.000 73.416,9.454 73.600,8.787 73.600 C 8.079 73.600,7.479 73.849,7.345 74.200 C 7.164 74.671,6.350 74.800,3.557 74.800 L 0.000 74.800 0.000 82.800 L 0.000 90.800 5.538 90.800 C 10.568 90.800,11.142 90.727,11.800 90.000 C 12.348 89.395,13.032 89.200,14.613 89.200 C 15.982 89.200,16.874 88.993,17.200 88.600 C 17.474 88.270,18.306 88.000,19.049 88.000 C 19.983 88.000,20.400 87.815,20.400 87.400 C 20.400 87.063,20.757 86.800,21.216 86.800 C 22.220 86.800,24.400 85.242,24.400 84.525 C 24.400 84.236,24.760 84.000,25.200 84.000 C 25.644 84.000,26.000 83.733,26.000 83.400 C 26.000 83.070,26.270 82.800,26.600 82.800 C 26.930 82.800,27.200 82.549,27.200 82.243 C 27.200 81.936,27.470 81.582,27.800 81.455 C 28.130 81.329,28.400 80.949,28.400 80.613 C 28.400 80.276,28.656 80.000,28.968 80.000 C 29.281 80.000,29.652 79.475,29.793 78.833 C 29.934 78.192,30.308 77.567,30.624 77.446 C 30.944 77.323,31.200 76.704,31.200 76.055 C 31.200 75.385,31.456 74.787,31.800 74.655 C 32.247 74.484,32.400 73.771,32.400 71.862 C 32.400 70.071,32.581 69.148,33.000 68.800 C 33.525 68.364,33.600 64.020,33.600 34.151 L 33.600 0.000 17.800 0.000 L 2.000 0.000 2.000 7.000 M43.200 40.600 C 43.200 76.422,43.271 81.200,43.800 81.200 C 44.199 81.200,44.400 81.599,44.400 82.388 C 44.400 83.868,45.889 86.800,46.640 86.800 C 46.948 86.800,47.200 87.070,47.200 87.400 C 47.200 87.730,47.451 88.000,47.757 88.000 C 48.064 88.000,48.418 88.270,48.545 88.600 C 48.675 88.941,49.272 89.200,49.925 89.200 C 50.568 89.200,51.396 89.553,51.800 90.000 C 52.934 91.253,80.000 91.253,80.000 90.000 C 80.000 89.352,80.267 89.200,81.400 89.200 C 82.378 89.200,82.800 89.019,82.800 88.600 C 82.800 88.200,83.200 88.000,84.000 88.000 C 84.739 88.000,85.200 87.793,85.200 87.462 C 85.200 87.166,85.560 86.598,86.000 86.200 C 86.440 85.802,86.800 85.144,86.800 84.738 C 86.800 84.332,87.070 84.000,87.400 84.000 C 87.868 84.000,88.000 83.460,88.000 81.544 C 88.000 79.667,88.165 78.968,88.700 78.576 C 89.357 78.096,89.407 75.672,89.508 39.032 L 89.615 0.000 80.808 0.000 L 72.000 0.000 72.000 37.400 L 72.000 74.800 66.200 74.800 L 60.400 74.800 60.400 37.400 L 60.400 0.000 51.800 0.000 L 43.200 0.000 43.200 40.600 M98.800 45.400 L 98.800 90.800 106.567 90.800 C 114.634 90.800,115.600 90.688,115.600 89.757 C 115.600 89.325,116.361 89.200,119.000 89.200 C 121.756 89.200,122.400 89.086,122.400 88.600 C 122.400 88.148,122.884 88.000,124.357 88.000 C 125.728 88.000,126.383 87.820,126.545 87.400 C 126.688 87.027,127.298 86.800,128.159 86.800 C 128.920 86.800,129.813 86.530,130.143 86.200 C 130.473 85.870,130.936 85.600,131.171 85.600 C 131.407 85.600,131.600 85.240,131.600 84.800 C 131.600 84.176,131.867 84.000,132.813 84.000 C 133.521 84.000,134.121 83.751,134.255 83.400 C 134.382 83.070,134.736 82.800,135.043 82.800 C 135.349 82.800,135.600 82.542,135.600 82.227 C 135.600 81.912,135.960 81.540,136.400 81.400 C 136.840 81.260,137.200 80.888,137.200 80.573 C 137.200 80.258,137.470 80.000,137.800 80.000 C 138.175 80.000,138.400 79.621,138.400 78.987 C 138.400 78.431,138.670 77.871,139.000 77.745 C 139.330 77.618,139.600 77.174,139.600 76.757 C 139.600 76.341,139.856 76.000,140.168 76.000 C 140.482 76.000,140.862 75.428,141.017 74.723 C 141.171 74.020,141.546 73.197,141.849 72.894 C 142.152 72.591,142.400 71.655,142.400 70.814 C 142.400 69.824,142.612 69.204,143.000 69.055 C 143.476 68.873,143.600 68.025,143.600 64.944 C 143.600 61.809,143.735 60.914,144.300 60.290 C 144.951 59.570,145.008 57.447,145.110 29.758 L 145.220 0.000 136.610 0.000 L 128.000 0.000 128.000 27.400 C 128.000 54.267,127.984 54.816,127.200 55.600 C 126.512 56.288,126.400 56.933,126.400 60.213 C 126.400 63.232,126.275 64.073,125.800 64.255 C 125.458 64.387,125.200 64.983,125.200 65.643 C 125.200 66.405,124.995 66.800,124.600 66.800 C 124.227 66.800,124.000 67.177,124.000 67.797 C 124.000 68.360,123.652 69.010,123.200 69.293 C 122.760 69.568,122.400 70.019,122.400 70.296 C 122.400 70.573,122.149 70.800,121.843 70.800 C 121.536 70.800,121.191 71.047,121.075 71.349 C 120.959 71.652,120.210 72.022,119.411 72.172 C 118.612 72.321,117.858 72.704,117.736 73.022 C 117.614 73.340,117.174 73.600,116.757 73.600 C 116.020 73.600,116.000 72.640,116.000 36.800 L 116.000 0.000 107.400 0.000 L 98.800 0.000 98.800 45.400 M154.400 45.400 L 154.400 90.800 172.200 90.800 C 189.733 90.800,190.000 90.788,190.000 90.000 C 190.000 89.556,190.267 89.200,190.600 89.200 C 191.080 89.200,191.200 88.600,191.200 86.200 C 191.200 83.733,191.342 83.058,192.000 82.400 C 192.675 81.725,192.800 81.067,192.800 78.200 L 192.800 74.800 182.200 74.800 L 171.600 74.800 171.600 62.800 L 171.600 50.800 178.800 50.800 L 186.000 50.800 186.000 49.600 C 186.000 48.845,186.205 48.400,186.553 48.400 C 187.281 48.400,187.588 47.147,187.595 44.143 C 187.599 42.331,187.758 41.625,188.200 41.455 C 188.642 41.286,188.800 40.588,188.800 38.813 L 188.800 36.400 180.200 36.400 L 171.600 36.400 171.600 25.800 L 171.600 15.200 181.400 15.200 L 191.200 15.200 191.200 10.843 C 191.200 7.339,191.083 6.441,190.600 6.255 C 190.140 6.079,190.000 5.321,190.000 3.013 L 190.000 0.000 172.200 0.000 L 154.400 0.000 154.400 45.400 M199.298 45.300 L 199.400 90.600 207.900 90.708 L 216.400 90.816 216.446 62.308 C 216.472 46.629,216.575 34.115,216.676 34.500 C 216.776 34.885,217.115 35.200,217.429 35.200 C 217.797 35.200,218.000 35.627,218.000 36.400 C 218.000 37.200,218.200 37.600,218.600 37.600 C 219.019 37.600,219.200 38.022,219.200 39.000 C 219.200 39.978,219.381 40.400,219.800 40.400 C 220.154 40.400,220.402 40.769,220.405 41.300 C 220.415 42.827,220.867 44.000,221.447 44.000 C 221.812 44.000,222.000 44.475,222.000 45.400 C 222.000 46.378,222.181 46.800,222.600 46.800 C 223.019 46.800,223.200 47.222,223.200 48.200 C 223.200 49.178,223.381 49.600,223.800 49.600 C 224.204 49.600,224.400 50.004,224.400 50.837 C 224.400 51.738,224.617 52.132,225.200 52.284 C 225.756 52.430,226.000 52.830,226.000 53.598 C 226.000 54.205,226.270 54.926,226.600 55.200 C 226.930 55.474,227.200 56.297,227.200 57.029 C 227.200 57.792,227.454 58.503,227.795 58.693 C 228.304 58.978,228.406 61.327,228.495 74.813 L 228.600 90.600 237.000 90.600 L 245.400 90.600 245.502 45.300 L 245.603 -0.000 237.002 -0.000 L 228.400 0.000 228.400 13.600 C 228.400 25.422,228.322 27.200,227.800 27.200 C 227.402 27.200,227.200 26.802,227.200 26.020 C 227.200 25.371,226.957 24.696,226.661 24.520 C 226.364 24.344,226.010 23.490,225.873 22.623 C 225.737 21.756,225.350 20.892,225.013 20.703 C 224.676 20.515,224.400 19.829,224.400 19.180 C 224.400 18.398,224.198 18.000,223.800 18.000 C 223.370 18.000,223.200 17.561,223.200 16.449 C 223.200 15.558,222.945 14.686,222.600 14.400 C 222.270 14.126,222.000 13.579,222.000 13.184 C 222.000 12.037,221.560 11.200,220.957 11.200 C 220.605 11.200,220.400 10.759,220.400 10.000 C 220.400 9.200,220.200 8.800,219.800 8.800 C 219.347 8.800,219.200 8.311,219.200 6.800 C 219.200 5.289,219.053 4.800,218.600 4.800 C 218.196 4.800,218.000 4.396,218.000 3.563 C 218.000 2.662,217.783 2.268,217.200 2.116 C 216.682 1.981,216.400 1.570,216.400 0.953 L 216.400 0.000 207.798 0.000 L 199.197 0.000 199.298 45.300 M253.600 0.400 C 253.600 0.620,253.330 0.800,253.000 0.800 C 252.514 0.800,252.400 1.439,252.400 4.151 C 252.400 6.642,252.246 7.630,251.800 8.000 C 251.354 8.370,251.200 9.358,251.200 11.849 L 251.200 15.200 258.400 15.200 L 265.600 15.200 265.600 53.008 L 265.600 90.816 274.100 90.708 L 282.600 90.600 282.702 52.900 L 282.804 15.200 289.402 15.200 L 296.000 15.200 296.000 10.787 C 296.000 7.234,295.883 6.330,295.400 6.145 C 294.942 5.969,294.800 5.217,294.800 2.957 L 294.800 0.000 274.200 0.000 C 260.733 0.000,253.600 0.139,253.600 0.400 M301.205 38.500 C 301.211 77.365,301.248 78.800,302.247 78.800 C 302.661 78.800,302.800 79.453,302.800 81.400 C 302.800 83.444,302.928 84.000,303.400 84.000 C 303.730 84.000,304.000 84.276,304.000 84.613 C 304.000 84.949,304.270 85.329,304.600 85.455 C 304.930 85.582,305.200 85.936,305.200 86.243 C 305.200 86.549,305.476 86.800,305.813 86.800 C 306.149 86.800,306.529 87.070,306.655 87.400 C 306.782 87.730,307.136 88.000,307.443 88.000 C 307.749 88.000,308.000 88.270,308.000 88.600 C 308.000 89.053,308.489 89.200,310.000 89.200 C 311.733 89.200,312.000 89.307,312.000 90.000 C 312.000 91.252,336.821 91.252,337.893 90.000 C 338.319 89.502,339.073 89.200,339.889 89.200 C 340.788 89.200,341.200 89.011,341.200 88.600 C 341.200 88.200,341.600 88.000,342.400 88.000 C 343.060 88.000,343.600 87.820,343.600 87.600 C 343.600 87.380,343.960 86.840,344.400 86.400 C 344.840 85.960,345.200 85.240,345.200 84.800 C 345.200 84.356,345.467 84.000,345.800 84.000 C 346.221 84.000,346.400 83.575,346.400 82.571 C 346.400 81.786,346.670 80.873,347.000 80.543 C 347.525 80.018,347.600 74.968,347.600 39.971 L 347.600 0.000 339.000 0.000 L 330.400 0.000 330.400 37.400 L 330.400 74.800 324.400 74.800 L 318.400 74.800 318.400 37.400 L 318.400 0.000 309.800 0.000 L 301.200 0.000 301.205 38.500 M363.600 0.400 C 363.600 0.620,363.407 0.800,363.171 0.800 C 362.936 0.800,362.473 1.070,362.143 1.400 C 361.813 1.730,361.199 2.000,360.779 2.000 C 360.251 2.000,359.735 2.615,359.108 3.992 C 358.608 5.087,357.996 5.987,357.747 5.992 C 357.115 6.003,356.812 7.378,356.805 10.257 C 356.801 12.069,356.642 12.775,356.200 12.945 C 355.690 13.140,355.600 14.584,355.600 22.538 C 355.600 30.374,355.698 31.983,356.200 32.400 C 356.600 32.732,356.800 33.629,356.800 35.086 C 356.800 36.938,356.923 37.307,357.600 37.484 C 358.201 37.641,358.400 38.030,358.400 39.047 C 358.400 39.983,358.585 40.400,359.000 40.400 C 359.348 40.400,359.600 40.763,359.600 41.264 C 359.600 42.284,363.034 45.600,364.091 45.600 C 364.481 45.600,364.800 45.867,364.800 46.192 C 364.800 46.518,365.696 47.193,366.792 47.692 C 367.887 48.192,368.787 48.825,368.792 49.100 C 368.797 49.403,369.351 49.600,370.200 49.600 C 371.178 49.600,371.600 49.781,371.600 50.200 C 371.600 50.530,371.849 50.800,372.153 50.800 C 372.458 50.800,372.801 51.160,372.916 51.600 C 373.068 52.183,373.462 52.400,374.363 52.400 C 375.196 52.400,375.600 52.596,375.600 53.000 C 375.600 53.330,375.876 53.600,376.213 53.600 C 376.549 53.600,376.929 53.870,377.055 54.200 C 377.187 54.542,377.783 54.800,378.443 54.800 C 379.333 54.800,379.600 54.984,379.600 55.600 C 379.600 56.044,379.867 56.400,380.200 56.400 C 380.530 56.400,380.800 56.670,380.800 57.000 C 380.800 57.330,381.070 57.600,381.400 57.600 C 381.730 57.600,382.000 57.870,382.000 58.200 C 382.000 58.533,382.356 58.800,382.800 58.800 C 383.575 58.800,383.600 59.067,383.600 67.400 L 383.600 76.000 378.200 76.000 L 372.800 76.000 372.800 67.392 L 372.800 58.784 364.300 58.892 L 355.800 59.000 355.694 69.910 C 355.601 79.356,355.668 80.851,356.194 81.053 C 356.527 81.181,356.802 81.761,356.805 82.343 C 356.814 84.016,357.246 85.200,357.847 85.200 C 358.151 85.200,358.400 85.560,358.400 86.000 C 358.400 86.444,358.667 86.800,359.000 86.800 C 359.330 86.800,359.600 87.070,359.600 87.400 C 359.600 87.730,359.851 88.000,360.157 88.000 C 360.464 88.000,360.818 88.270,360.945 88.600 C 361.071 88.930,361.631 89.200,362.187 89.200 C 362.744 89.200,363.560 89.560,364.000 90.000 C 364.769 90.769,365.333 90.800,378.397 90.800 C 391.560 90.800,392.009 90.775,392.493 90.000 C 392.796 89.514,393.426 89.200,394.096 89.200 C 394.811 89.200,395.200 88.988,395.200 88.600 C 395.200 88.267,395.556 88.000,396.000 88.000 C 396.444 88.000,396.800 87.733,396.800 87.400 C 396.800 87.070,397.070 86.800,397.400 86.800 C 397.730 86.800,398.000 86.549,398.000 86.243 C 398.000 85.936,398.270 85.582,398.600 85.455 C 398.951 85.321,399.200 84.721,399.200 84.013 C 399.200 83.346,399.380 82.800,399.600 82.800 C 399.860 82.800,400.000 77.467,400.000 67.600 C 400.000 57.733,399.860 52.400,399.600 52.400 C 399.380 52.400,399.200 51.789,399.200 51.043 C 399.200 50.205,398.970 49.597,398.600 49.455 C 398.270 49.329,398.000 48.769,398.000 48.213 C 398.000 47.579,397.775 47.200,397.400 47.200 C 397.070 47.200,396.800 46.913,396.800 46.563 C 396.800 46.212,396.440 45.831,396.000 45.716 C 395.560 45.601,395.200 45.258,395.200 44.953 C 395.200 44.649,394.930 44.400,394.600 44.400 C 394.270 44.400,394.000 44.130,394.000 43.800 C 394.000 43.470,393.730 43.200,393.400 43.200 C 393.070 43.200,392.800 42.949,392.800 42.643 C 392.800 42.031,391.959 41.600,390.767 41.600 C 390.345 41.600,390.000 41.330,390.000 41.000 C 390.000 40.670,389.724 40.400,389.387 40.400 C 389.051 40.400,388.671 40.130,388.545 39.800 C 388.416 39.466,387.822 39.200,387.204 39.200 C 386.430 39.200,386.030 38.958,385.884 38.400 C 385.746 37.871,385.338 37.600,384.680 37.600 C 384.133 37.600,383.582 37.330,383.455 37.000 C 383.329 36.670,382.949 36.400,382.613 36.400 C 382.276 36.400,382.000 36.130,382.000 35.800 C 382.000 35.400,381.600 35.200,380.800 35.200 C 380.025 35.200,379.600 34.997,379.600 34.627 C 379.600 34.312,379.257 33.945,378.837 33.812 C 378.417 33.679,377.973 33.306,377.850 32.985 C 377.726 32.663,377.244 32.400,376.778 32.400 C 376.204 32.400,375.784 32.013,375.478 31.200 C 375.228 30.540,374.794 30.000,374.512 30.000 C 374.209 30.000,374.000 29.506,374.000 28.787 C 374.000 28.079,373.751 27.479,373.400 27.345 C 372.897 27.152,372.800 25.928,372.800 19.757 L 372.800 12.400 378.200 12.400 L 383.600 12.400 383.600 21.000 L 383.600 29.600 386.800 29.600 C 389.378 29.600,390.000 29.483,390.000 29.000 C 390.000 28.528,390.556 28.400,392.600 28.400 C 394.644 28.400,395.200 28.272,395.200 27.800 C 395.200 27.347,395.689 27.200,397.200 27.200 C 398.933 27.200,399.200 27.093,399.200 26.400 C 399.200 25.960,399.380 25.600,399.600 25.600 C 399.850 25.600,400.000 23.200,400.000 19.200 C 400.000 15.200,399.850 12.800,399.600 12.800 C 399.365 12.800,399.200 11.400,399.200 9.400 C 399.200 6.644,399.086 6.000,398.600 6.000 C 398.181 6.000,398.000 5.578,398.000 4.600 C 398.000 3.622,397.819 3.200,397.400 3.200 C 397.070 3.200,396.800 2.930,396.800 2.600 C 396.800 2.267,396.444 2.000,396.000 2.000 C 395.556 2.000,395.200 1.733,395.200 1.400 C 395.200 1.000,394.800 0.800,394.000 0.800 C 393.340 0.800,392.800 0.620,392.800 0.400 C 392.800 0.141,387.667 0.000,378.200 0.000 C 368.733 0.000,363.600 0.141,363.600 0.400 M0.000 194.800 L 0.000 231.200 79.200 231.200 L 158.400 231.200 158.400 363.600 C 158.400 475.673,158.316 496.000,157.850 496.000 C 157.027 496.000,156.800 497.862,156.800 504.607 C 156.800 509.667,156.697 510.754,156.200 510.945 C 155.725 511.127,155.600 511.963,155.600 514.945 C 155.600 517.927,155.475 518.763,155.000 518.945 C 154.540 519.121,154.400 519.879,154.400 522.187 C 154.400 524.477,154.268 525.200,153.850 525.200 C 153.258 525.200,152.800 526.878,152.800 529.050 C 152.800 529.983,152.615 530.400,152.200 530.400 C 151.747 530.400,151.600 530.889,151.600 532.400 C 151.600 533.911,151.453 534.400,151.000 534.400 C 150.585 534.400,150.400 534.817,150.400 535.757 C 150.400 536.595,150.170 537.203,149.800 537.345 C 149.389 537.502,149.200 538.145,149.200 539.387 C 149.200 540.933,149.082 541.200,148.400 541.200 C 147.778 541.200,147.600 541.467,147.600 542.400 C 147.600 543.200,147.400 543.600,147.000 543.600 C 146.581 543.600,146.400 544.022,146.400 545.000 C 146.400 545.978,146.219 546.400,145.800 546.400 C 145.470 546.400,145.200 546.580,145.200 546.800 C 145.200 547.020,144.840 547.560,144.400 548.000 C 143.960 548.440,143.600 549.160,143.600 549.600 C 143.600 550.044,143.333 550.400,143.000 550.400 C 142.670 550.400,142.400 550.676,142.400 551.013 C 142.400 551.349,142.130 551.729,141.800 551.855 C 141.458 551.987,141.200 552.583,141.200 553.243 C 141.200 554.133,141.016 554.400,140.400 554.400 C 139.956 554.400,139.600 554.667,139.600 555.000 C 139.600 555.330,139.330 555.600,139.000 555.600 C 138.670 555.600,138.400 555.876,138.400 556.213 C 138.400 556.549,138.130 556.929,137.800 557.055 C 137.470 557.182,137.200 557.496,137.200 557.754 C 137.200 558.011,136.840 558.530,136.400 558.907 C 135.960 559.284,135.600 559.864,135.600 560.196 C 135.600 560.528,135.330 560.800,135.000 560.800 C 134.667 560.800,134.400 561.156,134.400 561.600 C 134.400 562.044,134.133 562.400,133.800 562.400 C 133.470 562.400,133.200 562.670,133.200 563.000 C 133.200 563.330,132.949 563.600,132.643 563.600 C 132.336 563.600,131.982 563.870,131.855 564.200 C 131.729 564.530,131.369 564.800,131.055 564.800 C 130.742 564.800,130.381 565.073,130.253 565.406 C 130.125 565.739,129.566 566.185,129.010 566.396 C 128.455 566.607,128.000 566.965,128.000 567.190 C 128.000 567.416,127.730 567.600,127.400 567.600 C 127.070 567.600,126.800 567.870,126.800 568.200 C 126.800 568.533,126.444 568.800,126.000 568.800 C 125.560 568.800,125.200 569.051,125.200 569.357 C 125.200 569.664,124.930 570.018,124.600 570.145 C 124.270 570.271,124.000 570.651,124.000 570.987 C 124.000 571.333,123.652 571.600,123.200 571.600 C 122.756 571.600,122.400 571.867,122.400 572.200 C 122.400 572.575,122.021 572.800,121.387 572.800 C 120.831 572.800,120.271 573.070,120.145 573.400 C 120.018 573.730,119.647 574.000,119.320 574.000 C 118.993 574.000,118.631 574.360,118.516 574.800 C 118.401 575.240,118.058 575.600,117.753 575.600 C 117.449 575.600,117.200 575.870,117.200 576.200 C 117.200 576.600,116.800 576.800,116.000 576.800 C 115.200 576.800,114.800 577.000,114.800 577.400 C 114.800 577.733,114.444 578.000,114.000 578.000 C 113.467 578.000,113.200 578.267,113.200 578.800 C 113.200 579.422,112.933 579.600,112.000 579.600 C 111.200 579.600,110.800 579.800,110.800 580.200 C 110.800 580.533,110.444 580.800,110.000 580.800 C 109.556 580.800,109.200 581.067,109.200 581.400 C 109.200 581.800,108.800 582.000,108.000 582.000 C 107.067 582.000,106.800 582.178,106.800 582.800 C 106.800 583.424,106.533 583.600,105.587 583.600 C 104.879 583.600,104.279 583.849,104.145 584.200 C 104.018 584.530,103.664 584.800,103.357 584.800 C 103.051 584.800,102.800 585.070,102.800 585.400 C 102.800 585.819,102.378 586.000,101.400 586.000 C 100.457 586.000,100.000 586.185,100.000 586.568 C 100.000 586.881,99.460 587.255,98.800 587.400 C 98.140 587.545,97.600 587.919,97.600 588.232 C 97.600 588.563,97.204 588.800,96.649 588.800 C 96.126 588.800,95.474 589.070,95.200 589.400 C 94.926 589.730,94.448 590.000,94.138 590.000 C 93.829 590.000,93.471 590.270,93.345 590.600 C 93.218 590.930,92.667 591.200,92.120 591.200 C 91.462 591.200,91.054 591.471,90.916 592.000 C 90.759 592.601,90.370 592.800,89.353 592.800 C 88.417 592.800,88.000 592.985,88.000 593.400 C 88.000 593.800,87.600 594.000,86.800 594.000 C 86.000 594.000,85.600 594.200,85.600 594.600 C 85.600 595.004,85.196 595.200,84.363 595.200 C 83.462 595.200,83.068 595.417,82.916 596.000 C 82.770 596.558,82.370 596.800,81.596 596.800 C 80.978 596.800,80.384 597.066,80.255 597.400 C 80.129 597.730,79.564 598.000,79.000 598.000 C 78.436 598.000,77.871 598.270,77.745 598.600 C 77.618 598.930,77.188 599.200,76.790 599.200 C 75.638 599.200,74.800 599.639,74.800 600.243 C 74.800 600.595,74.359 600.800,73.600 600.800 C 72.800 600.800,72.400 601.000,72.400 601.400 C 72.400 601.819,71.978 602.000,71.000 602.000 C 70.022 602.000,69.600 602.181,69.600 602.600 C 69.600 603.004,69.196 603.200,68.363 603.200 C 67.462 603.200,67.068 603.417,66.916 604.000 C 66.768 604.567,66.370 604.800,65.553 604.800 C 64.795 604.800,64.400 605.005,64.400 605.400 C 64.400 605.819,63.978 606.000,63.000 606.000 C 62.022 606.000,61.600 606.181,61.600 606.600 C 61.600 607.001,61.199 607.200,60.387 607.200 C 59.679 607.200,59.079 607.449,58.945 607.800 C 58.818 608.130,58.267 608.400,57.720 608.400 C 57.062 608.400,56.654 608.671,56.516 609.200 C 56.359 609.801,55.970 610.000,54.953 610.000 C 54.017 610.000,53.600 610.185,53.600 610.600 C 53.600 610.989,53.210 611.200,52.489 611.200 C 51.878 611.200,51.023 611.447,50.589 611.749 C 50.155 612.051,49.215 612.425,48.500 612.581 C 47.776 612.738,47.200 613.115,47.200 613.432 C 47.200 613.815,46.743 614.000,45.800 614.000 C 44.822 614.000,44.400 614.181,44.400 614.600 C 44.400 615.001,43.999 615.200,43.187 615.200 C 42.479 615.200,41.879 615.449,41.745 615.800 C 41.618 616.130,41.067 616.400,40.520 616.400 C 39.862 616.400,39.454 616.671,39.316 617.200 C 39.159 617.801,38.770 618.000,37.753 618.000 C 36.817 618.000,36.400 618.185,36.400 618.600 C 36.400 619.015,35.983 619.200,35.049 619.200 C 34.306 619.200,33.474 619.470,33.200 619.800 C 32.926 620.130,32.379 620.400,31.984 620.400 C 30.837 620.400,30.000 620.840,30.000 621.443 C 30.000 621.813,29.530 622.000,28.600 622.000 C 27.622 622.000,27.200 622.181,27.200 622.600 C 27.200 623.001,26.799 623.200,25.987 623.200 C 25.279 623.200,24.679 623.449,24.545 623.800 C 24.413 624.142,23.817 624.400,23.157 624.400 C 22.395 624.400,22.000 624.605,22.000 625.000 C 22.000 625.330,21.655 625.600,21.233 625.600 C 19.459 625.600,19.200 625.982,19.200 628.594 C 19.200 630.335,19.383 631.254,19.800 631.600 C 20.130 631.874,20.400 632.610,20.400 633.235 C 20.400 633.962,20.688 634.526,21.200 634.800 C 21.724 635.080,22.000 635.638,22.000 636.414 C 22.000 637.202,22.202 637.600,22.600 637.600 C 23.019 637.600,23.200 638.022,23.200 639.000 C 23.200 639.978,23.381 640.400,23.800 640.400 C 24.193 640.400,24.400 640.793,24.400 641.538 C 24.400 642.168,24.757 642.999,25.200 643.400 C 25.647 643.804,26.000 644.632,26.000 645.275 C 26.000 645.928,26.259 646.525,26.600 646.655 C 26.930 646.782,27.200 647.322,27.200 647.855 C 27.200 648.389,27.470 648.929,27.800 649.055 C 28.130 649.182,28.400 649.598,28.400 649.981 C 28.400 650.363,28.760 651.002,29.200 651.400 C 29.640 651.798,30.000 652.437,30.000 652.819 C 30.000 653.202,30.270 653.618,30.600 653.745 C 30.930 653.871,31.200 654.436,31.200 655.000 C 31.200 655.564,31.470 656.129,31.800 656.255 C 32.142 656.387,32.400 656.983,32.400 657.643 C 32.400 658.376,32.608 658.800,32.968 658.800 C 33.281 658.800,33.658 659.352,33.806 660.027 C 33.954 660.702,34.312 661.345,34.602 661.456 C 34.891 661.567,35.237 662.095,35.372 662.629 C 35.506 663.163,35.792 663.600,36.008 663.600 C 36.223 663.600,36.400 663.966,36.400 664.413 C 36.400 664.859,36.659 665.324,36.976 665.446 C 37.292 665.567,37.666 666.192,37.807 666.833 C 37.948 667.475,38.319 668.000,38.632 668.000 C 38.944 668.000,39.200 668.360,39.200 668.800 C 39.200 669.244,39.467 669.600,39.800 669.600 C 40.200 669.600,40.400 670.000,40.400 670.800 C 40.400 671.555,40.605 672.000,40.953 672.000 C 41.258 672.000,41.601 672.360,41.716 672.800 C 41.831 673.240,42.212 673.600,42.563 673.600 C 43.004 673.600,43.200 673.969,43.200 674.800 C 43.200 675.600,43.400 676.000,43.800 676.000 C 44.130 676.000,44.400 676.276,44.400 676.613 C 44.400 676.949,44.670 677.329,45.000 677.455 C 45.330 677.582,45.600 678.133,45.600 678.680 C 45.600 679.338,45.871 679.746,46.400 679.884 C 46.840 679.999,47.200 680.348,47.200 680.659 C 47.200 680.970,47.470 681.329,47.800 681.455 C 48.130 681.582,48.400 681.917,48.400 682.200 C 48.400 682.483,48.670 682.818,49.000 682.945 C 49.330 683.071,49.600 683.557,49.600 684.025 C 49.600 684.538,49.917 684.958,50.400 685.084 C 50.843 685.200,51.200 685.630,51.200 686.047 C 51.200 686.461,51.470 686.800,51.800 686.800 C 52.130 686.800,52.400 687.051,52.400 687.357 C 52.400 687.664,52.670 688.018,53.000 688.145 C 53.330 688.271,53.606 688.696,53.613 689.087 C 53.627 689.892,55.341 692.000,55.981 692.000 C 56.211 692.000,56.400 692.270,56.400 692.600 C 56.400 692.930,56.670 693.200,57.000 693.200 C 57.333 693.200,57.600 693.556,57.600 694.000 C 57.600 694.444,57.867 694.800,58.200 694.800 C 58.530 694.800,58.800 695.070,58.800 695.400 C 58.800 696.190,62.294 696.228,63.411 695.451 C 63.845 695.149,64.785 694.775,65.500 694.619 C 66.224 694.462,66.800 694.085,66.800 693.768 C 66.800 693.385,67.257 693.200,68.200 693.200 C 69.178 693.200,69.600 693.019,69.600 692.600 C 69.600 692.200,70.000 692.000,70.800 692.000 C 71.600 692.000,72.000 691.800,72.000 691.400 C 72.000 690.981,72.422 690.800,73.400 690.800 C 74.533 690.800,74.800 690.648,74.800 690.000 C 74.800 689.332,75.067 689.200,76.413 689.200 C 77.477 689.200,78.103 688.996,78.255 688.600 C 78.387 688.256,78.985 688.000,79.655 688.000 C 80.326 688.000,80.923 687.744,81.055 687.400 C 81.189 687.052,81.787 686.800,82.480 686.800 C 83.338 686.800,83.734 686.575,83.884 686.000 C 84.041 685.399,84.430 685.200,85.447 685.200 C 86.383 685.200,86.800 685.015,86.800 684.600 C 86.800 684.199,87.201 684.000,88.013 684.000 C 88.721 684.000,89.321 683.751,89.455 683.400 C 89.587 683.058,90.183 682.800,90.843 682.800 C 91.605 682.800,92.000 682.595,92.000 682.200 C 92.000 681.796,92.404 681.600,93.237 681.600 C 94.138 681.600,94.532 681.383,94.684 680.800 C 94.830 680.242,95.230 680.000,96.004 680.000 C 96.622 680.000,97.216 679.734,97.345 679.400 C 97.471 679.070,98.031 678.800,98.589 678.800 C 99.147 678.800,100.275 678.440,101.096 678.000 C 101.916 677.560,102.821 677.200,103.107 677.200 C 103.392 677.200,103.729 676.930,103.855 676.600 C 103.987 676.258,104.583 676.000,105.243 676.000 C 106.005 676.000,106.400 675.795,106.400 675.400 C 106.400 674.999,106.801 674.800,107.613 674.800 C 108.321 674.800,108.921 674.551,109.055 674.200 C 109.182 673.870,109.715 673.600,110.239 673.600 C 110.764 673.600,111.418 673.240,111.693 672.800 C 111.996 672.314,112.626 672.000,113.296 672.000 C 114.011 672.000,114.400 671.788,114.400 671.400 C 114.400 670.999,114.801 670.800,115.613 670.800 C 116.321 670.800,116.921 670.551,117.055 670.200 C 117.182 669.870,117.710 669.600,118.229 669.600 C 118.762 669.600,119.358 669.253,119.600 668.800 C 119.880 668.276,120.438 668.000,121.214 668.000 C 122.002 668.000,122.400 667.798,122.400 667.400 C 122.400 667.000,122.800 666.800,123.600 666.800 C 124.260 666.800,124.800 666.622,124.800 666.405 C 124.800 666.188,125.430 665.748,126.200 665.426 C 126.970 665.104,127.600 664.652,127.600 664.420 C 127.600 664.189,127.941 664.000,128.357 664.000 C 128.774 664.000,129.218 663.730,129.345 663.400 C 129.471 663.070,130.031 662.800,130.587 662.800 C 131.221 662.800,131.600 662.575,131.600 662.200 C 131.600 661.781,132.022 661.600,133.000 661.600 C 133.978 661.600,134.400 661.419,134.400 661.000 C 134.400 660.670,134.745 660.400,135.167 660.400 C 136.359 660.400,137.200 659.969,137.200 659.357 C 137.200 659.005,137.641 658.800,138.400 658.800 C 139.200 658.800,139.600 658.600,139.600 658.200 C 139.600 657.835,139.972 657.600,140.551 657.600 C 141.074 657.600,141.726 657.330,142.000 657.000 C 142.274 656.670,142.746 656.400,143.049 656.400 C 143.352 656.400,143.600 656.040,143.600 655.600 C 143.600 654.952,143.867 654.800,145.000 654.800 C 145.978 654.800,146.400 654.619,146.400 654.200 C 146.400 653.800,146.800 653.600,147.600 653.600 C 148.400 653.600,148.800 653.400,148.800 653.000 C 148.800 652.670,149.070 652.400,149.400 652.400 C 149.730 652.400,150.360 652.040,150.800 651.600 C 151.240 651.160,151.870 650.800,152.200 650.800 C 152.530 650.800,152.800 650.530,152.800 650.200 C 152.800 649.799,153.201 649.600,154.013 649.600 C 154.721 649.600,155.321 649.351,155.455 649.000 C 155.582 648.670,155.936 648.400,156.243 648.400 C 156.549 648.400,156.800 648.040,156.800 647.600 C 156.800 646.952,157.067 646.800,158.200 646.800 C 159.178 646.800,159.600 646.619,159.600 646.200 C 159.600 645.825,159.979 645.600,160.613 645.600 C 161.169 645.600,161.729 645.330,161.855 645.000 C 161.982 644.670,162.426 644.400,162.843 644.400 C 163.259 644.400,163.600 644.144,163.600 643.832 C 163.600 643.519,164.140 643.145,164.800 643.000 C 165.460 642.855,166.000 642.481,166.000 642.168 C 166.000 641.856,166.360 641.600,166.800 641.600 C 167.244 641.600,167.600 641.333,167.600 641.000 C 167.600 640.670,167.947 640.400,168.371 640.400 C 168.796 640.400,169.381 640.165,169.671 639.878 C 169.962 639.590,170.515 639.236,170.900 639.090 C 171.285 638.944,171.600 638.549,171.600 638.213 C 171.600 637.876,171.851 637.600,172.157 637.600 C 172.464 637.600,172.818 637.330,172.945 637.000 C 173.071 636.670,173.636 636.400,174.200 636.400 C 174.764 636.400,175.329 636.130,175.455 635.800 C 175.582 635.470,175.936 635.200,176.243 635.200 C 176.549 635.200,176.800 634.840,176.800 634.400 C 176.800 633.811,177.067 633.600,177.813 633.600 C 178.369 633.600,178.929 633.330,179.055 633.000 C 179.182 632.670,179.626 632.400,180.043 632.400 C 180.459 632.400,180.800 632.130,180.800 631.800 C 180.800 631.470,181.070 631.200,181.400 631.200 C 181.733 631.200,182.000 630.844,182.000 630.400 C 182.000 629.884,182.267 629.600,182.751 629.600 C 183.164 629.600,183.726 629.330,184.000 629.000 C 184.274 628.670,184.752 628.400,185.062 628.400 C 185.371 628.400,185.729 628.130,185.855 627.800 C 185.982 627.470,186.324 627.200,186.616 627.200 C 186.907 627.200,187.260 626.840,187.400 626.400 C 187.540 625.960,187.912 625.600,188.227 625.600 C 188.542 625.600,188.800 625.330,188.800 625.000 C 188.800 624.670,189.070 624.400,189.400 624.400 C 189.730 624.400,190.000 624.130,190.000 623.800 C 190.000 623.470,190.270 623.200,190.600 623.200 C 190.930 623.200,191.200 622.930,191.200 622.600 C 191.200 622.270,191.520 622.000,191.912 622.000 C 192.303 622.000,192.883 621.640,193.200 621.200 C 193.517 620.760,193.976 620.400,194.219 620.400 C 194.462 620.400,195.186 619.770,195.828 619.000 C 196.470 618.230,197.222 617.600,197.498 617.600 C 197.774 617.600,198.000 617.330,198.000 617.000 C 198.000 616.670,198.270 616.400,198.600 616.400 C 198.930 616.400,199.200 616.130,199.200 615.800 C 199.200 615.470,199.458 615.200,199.773 615.200 C 200.088 615.200,200.460 614.840,200.600 614.400 C 200.740 613.960,201.112 613.600,201.427 613.600 C 201.742 613.600,202.000 613.330,202.000 613.000 C 202.000 612.670,202.270 612.400,202.600 612.400 C 202.930 612.400,203.200 612.130,203.200 611.800 C 203.200 611.470,203.389 611.200,203.620 611.200 C 203.852 611.200,204.304 610.570,204.626 609.800 C 204.948 609.030,205.388 608.400,205.605 608.400 C 205.822 608.400,206.000 608.130,206.000 607.800 C 206.000 607.470,206.270 607.200,206.600 607.200 C 206.930 607.200,207.200 606.930,207.200 606.600 C 207.200 606.270,207.487 606.000,207.837 606.000 C 208.188 606.000,208.569 605.640,208.684 605.200 C 208.799 604.760,209.142 604.400,209.447 604.400 C 209.751 604.400,210.000 604.149,210.000 603.843 C 210.000 603.536,210.270 603.182,210.600 603.055 C 210.930 602.929,211.200 602.369,211.200 601.813 C 211.200 601.179,211.425 600.800,211.800 600.800 C 212.133 600.800,212.400 600.444,212.400 600.000 C 212.400 599.467,212.667 599.200,213.200 599.200 C 213.640 599.200,214.000 598.949,214.000 598.643 C 214.000 598.336,214.270 597.982,214.600 597.855 C 214.951 597.721,215.200 597.121,215.200 596.413 C 215.200 595.601,215.399 595.200,215.800 595.200 C 216.130 595.200,216.400 594.930,216.400 594.600 C 216.400 594.270,216.651 594.000,216.957 594.000 C 217.569 594.000,218.000 593.159,218.000 591.967 C 218.000 591.545,218.270 591.200,218.600 591.200 C 218.930 591.200,219.200 590.924,219.200 590.587 C 219.200 590.251,219.470 589.871,219.800 589.745 C 220.134 589.616,220.400 589.022,220.400 588.404 C 220.400 587.630,220.642 587.230,221.200 587.084 C 221.741 586.943,222.000 586.538,222.000 585.837 C 222.000 585.182,222.221 584.800,222.600 584.800 C 223.019 584.800,223.200 584.378,223.200 583.400 C 223.200 582.422,223.381 582.000,223.800 582.000 C 224.195 582.000,224.400 581.605,224.400 580.847 C 224.400 580.030,224.633 579.632,225.200 579.484 C 225.783 579.332,226.000 578.938,226.000 578.037 C 226.000 577.204,226.196 576.800,226.600 576.800 C 227.019 576.800,227.200 576.378,227.200 575.400 C 227.200 574.422,227.381 574.000,227.800 574.000 C 228.233 574.000,228.400 573.556,228.400 572.403 C 228.400 571.240,228.617 570.671,229.200 570.307 C 229.673 570.012,230.000 569.374,230.000 568.747 C 230.000 568.163,230.270 567.582,230.600 567.455 C 231.008 567.299,231.200 566.659,231.200 565.455 C 231.200 564.251,231.392 563.612,231.800 563.455 C 232.211 563.298,232.400 562.655,232.400 561.413 C 232.400 560.068,232.555 559.600,233.000 559.600 C 233.471 559.600,233.600 559.050,233.600 557.047 C 233.600 554.830,233.705 554.466,234.400 554.284 C 235.090 554.104,235.200 553.738,235.200 551.625 C 235.200 549.816,235.357 549.115,235.800 548.945 C 236.247 548.773,236.400 548.061,236.400 546.157 C 236.400 544.151,236.529 543.600,237.000 543.600 C 237.488 543.600,237.600 542.940,237.600 540.062 C 237.600 537.032,237.715 536.420,238.400 535.800 C 239.086 535.179,239.202 534.558,239.213 531.438 C 239.222 528.875,239.399 527.571,239.813 527.024 C 240.267 526.423,240.400 524.919,240.400 520.373 C 240.400 515.639,240.517 514.401,241.000 514.000 C 241.517 513.571,241.600 510.978,241.600 495.175 C 241.600 483.388,241.743 476.759,242.000 476.600 C 242.673 476.184,242.517 159.987,241.843 159.100 C 241.339 158.436,235.097 158.400,120.656 158.400 L 0.000 158.400 0.000 194.800 M317.200 334.557 C 317.200 490.772,317.132 510.740,316.600 510.945 C 316.088 511.141,316.000 512.676,316.000 521.368 C 316.000 530.659,315.938 531.595,315.300 531.952 C 314.697 532.289,314.581 533.112,314.461 537.872 C 314.355 542.084,314.188 543.476,313.761 543.720 C 313.337 543.962,313.200 545.046,313.200 548.171 C 313.200 551.355,313.062 552.416,312.600 552.800 C 312.161 553.164,312.000 554.131,312.000 556.406 C 312.000 558.642,311.849 559.572,311.462 559.721 C 311.110 559.856,310.834 560.989,310.664 562.992 C 310.522 564.678,310.134 566.444,309.803 566.918 C 309.421 567.462,309.200 568.699,309.200 570.289 C 309.200 572.254,309.070 572.800,308.600 572.800 C 308.128 572.800,308.000 573.356,308.000 575.400 C 308.000 577.444,307.872 578.000,307.400 578.000 C 306.956 578.000,306.800 578.467,306.800 579.800 C 306.800 581.067,306.563 581.837,306.000 582.400 C 305.394 583.006,305.200 583.733,305.200 585.400 C 305.200 587.089,305.061 587.600,304.600 587.600 C 304.158 587.600,304.000 588.062,304.000 589.357 C 304.000 590.550,303.807 591.188,303.400 591.345 C 303.005 591.496,302.800 592.121,302.800 593.173 C 302.800 594.362,302.595 594.882,302.000 595.200 C 301.486 595.475,301.200 596.038,301.200 596.771 C 301.200 597.418,300.940 598.014,300.600 598.145 C 300.189 598.302,300.000 598.945,300.000 600.187 C 300.000 601.532,299.845 602.000,299.400 602.000 C 298.981 602.000,298.800 602.422,298.800 603.400 C 298.800 604.358,298.616 604.800,298.218 604.800 C 297.871 604.800,297.531 605.359,297.376 606.186 C 297.233 606.948,296.865 607.780,296.558 608.035 C 296.251 608.290,296.000 609.106,296.000 609.849 C 296.000 610.783,295.815 611.200,295.400 611.200 C 294.981 611.200,294.800 611.622,294.800 612.600 C 294.800 613.543,294.615 614.000,294.232 614.000 C 293.919 614.000,293.548 614.525,293.407 615.167 C 293.266 615.808,292.892 616.433,292.576 616.554 C 292.250 616.679,292.000 617.302,292.000 617.987 C 292.000 618.799,291.801 619.200,291.400 619.200 C 291.035 619.200,290.800 619.572,290.800 620.151 C 290.800 620.674,290.530 621.326,290.200 621.600 C 289.870 621.874,289.600 622.256,289.600 622.449 C 289.600 622.642,289.240 623.160,288.800 623.600 C 288.360 624.040,288.000 624.760,288.000 625.200 C 288.000 625.644,287.733 626.000,287.400 626.000 C 287.000 626.000,286.800 626.400,286.800 627.200 C 286.800 628.000,286.600 628.400,286.200 628.400 C 285.867 628.400,285.600 628.756,285.600 629.200 C 285.600 629.640,285.344 630.000,285.032 630.000 C 284.719 630.000,284.345 630.540,284.200 631.200 C 284.055 631.860,283.681 632.400,283.368 632.400 C 283.056 632.400,282.800 632.760,282.800 633.200 C 282.800 633.644,282.533 634.000,282.200 634.000 C 281.800 634.000,281.600 634.400,281.600 635.200 C 281.600 635.860,281.396 636.400,281.146 636.400 C 280.355 636.400,278.800 638.402,278.800 639.421 C 278.800 640.025,278.570 640.400,278.200 640.400 C 277.870 640.400,277.600 640.670,277.600 641.000 C 277.600 641.330,277.313 641.600,276.963 641.600 C 276.612 641.600,276.234 641.948,276.123 642.372 C 276.012 642.797,275.669 643.241,275.361 643.360 C 275.052 643.478,274.800 644.031,274.800 644.587 C 274.800 645.221,274.575 645.600,274.200 645.600 C 273.870 645.600,273.600 645.772,273.600 645.982 C 273.600 646.478,271.678 648.400,271.182 648.400 C 270.972 648.400,270.800 648.651,270.800 648.957 C 270.800 649.264,270.530 649.618,270.200 649.745 C 269.870 649.871,269.600 650.251,269.600 650.587 C 269.600 650.924,269.330 651.200,269.000 651.200 C 268.670 651.200,268.400 651.517,268.400 651.904 C 268.400 652.291,268.040 652.832,267.600 653.107 C 267.160 653.382,266.800 653.875,266.800 654.203 C 266.800 654.532,266.530 654.800,266.200 654.800 C 265.867 654.800,265.600 655.156,265.600 655.600 C 265.600 656.044,265.333 656.400,265.000 656.400 C 264.670 656.400,264.400 656.670,264.400 657.000 C 264.400 657.333,264.044 657.600,263.600 657.600 C 263.156 657.600,262.800 657.867,262.800 658.200 C 262.800 658.530,262.530 658.800,262.200 658.800 C 261.867 658.800,261.600 659.156,261.600 659.600 C 261.600 660.044,261.333 660.400,261.000 660.400 C 260.670 660.400,260.400 660.670,260.400 661.000 C 260.400 661.333,260.044 661.600,259.600 661.600 C 259.156 661.600,258.800 661.867,258.800 662.200 C 258.800 662.530,258.530 662.800,258.200 662.800 C 257.867 662.800,257.600 663.156,257.600 663.600 C 257.600 664.044,257.333 664.400,257.000 664.400 C 256.670 664.400,256.400 664.670,256.400 665.000 C 256.400 665.330,256.124 665.600,255.787 665.600 C 255.451 665.600,255.071 665.870,254.945 666.200 C 254.818 666.530,254.464 666.800,254.157 666.800 C 253.851 666.800,253.600 667.070,253.600 667.400 C 253.600 667.730,253.330 668.000,253.000 668.000 C 252.670 668.000,252.040 668.360,251.600 668.800 C 251.160 669.240,250.718 669.600,250.617 669.600 C 250.204 669.600,247.200 672.711,247.200 673.138 C 247.200 673.392,246.840 673.600,246.400 673.600 C 245.956 673.600,245.600 673.867,245.600 674.200 C 245.600 674.530,245.330 674.800,245.000 674.800 C 244.670 674.800,244.400 675.070,244.400 675.400 C 244.400 675.730,244.130 676.000,243.800 676.000 C 243.470 676.000,242.840 676.360,242.400 676.800 C 241.960 677.240,241.330 677.600,241.000 677.600 C 240.670 677.600,240.400 677.870,240.400 678.200 C 240.400 678.530,240.130 678.800,239.800 678.800 C 239.470 678.800,239.200 679.070,239.200 679.400 C 239.200 679.730,238.913 680.000,238.563 680.000 C 238.212 680.000,237.831 680.360,237.716 680.800 C 237.568 681.367,237.170 681.600,236.353 681.600 C 235.595 681.600,235.200 681.805,235.200 682.200 C 235.200 682.530,234.949 682.800,234.643 682.800 C 234.336 682.800,233.982 683.070,233.855 683.400 C 233.729 683.730,233.349 684.000,233.013 684.000 C 232.676 684.000,232.400 684.256,232.400 684.568 C 232.400 684.881,231.860 685.255,231.200 685.400 C 230.540 685.545,230.000 685.919,230.000 686.232 C 230.000 686.544,229.640 686.800,229.200 686.800 C 228.756 686.800,228.400 687.067,228.400 687.400 C 228.400 687.730,228.236 688.000,228.036 688.000 C 227.483 688.000,224.400 690.096,224.400 690.471 C 224.400 690.652,224.130 690.800,223.800 690.800 C 223.470 690.800,223.200 691.070,223.200 691.400 C 223.200 691.795,222.805 692.000,222.043 692.000 C 221.383 692.000,220.787 692.258,220.655 692.600 C 220.529 692.930,220.149 693.200,219.813 693.200 C 219.467 693.200,219.200 693.548,219.200 694.000 C 219.200 694.622,218.933 694.800,218.000 694.800 C 217.200 694.800,216.800 695.000,216.800 695.400 C 216.800 695.733,216.444 696.000,216.000 696.000 C 215.556 696.000,215.200 696.267,215.200 696.600 C 215.200 697.000,214.800 697.200,214.000 697.200 C 213.067 697.200,212.800 697.378,212.800 698.000 C 212.800 698.518,212.533 698.800,212.043 698.800 C 211.626 698.800,211.182 699.070,211.055 699.400 C 210.929 699.730,210.369 700.000,209.813 700.000 C 209.179 700.000,208.800 700.225,208.800 700.600 C 208.800 700.930,208.455 701.200,208.033 701.200 C 206.841 701.200,206.000 701.631,206.000 702.243 C 206.000 702.549,205.730 702.800,205.400 702.800 C 205.070 702.800,204.800 703.070,204.800 703.400 C 204.800 703.819,204.378 704.000,203.400 704.000 C 202.422 704.000,202.000 704.181,202.000 704.600 C 202.000 704.930,201.668 705.200,201.261 705.200 C 200.855 705.200,200.107 705.560,199.600 706.000 C 199.093 706.440,198.525 706.800,198.339 706.800 C 198.152 706.800,198.000 707.070,198.000 707.400 C 198.000 707.801,197.599 708.000,196.787 708.000 C 196.079 708.000,195.479 708.249,195.345 708.600 C 195.218 708.930,194.678 709.200,194.145 709.200 C 193.611 709.200,193.071 709.470,192.945 709.800 C 192.818 710.130,192.492 710.400,192.219 710.400 C 191.947 710.400,191.398 710.760,191.000 711.200 C 190.602 711.640,189.944 712.000,189.538 712.000 C 189.132 712.000,188.800 712.270,188.800 712.600 C 188.800 713.001,188.399 713.200,187.587 713.200 C 186.879 713.200,186.279 713.449,186.145 713.800 C 186.018 714.130,185.467 714.400,184.920 714.400 C 184.262 714.400,183.854 714.671,183.716 715.200 C 183.567 715.769,183.170 716.000,182.341 716.000 C 181.700 716.000,181.078 716.254,180.959 716.564 C 180.839 716.874,180.305 717.237,179.771 717.372 C 179.237 717.506,178.800 717.792,178.800 718.008 C 178.800 718.223,178.350 718.400,177.800 718.400 C 177.067 718.400,176.800 718.613,176.800 719.200 C 176.800 719.824,176.533 720.000,175.587 720.000 C 174.879 720.000,174.279 720.249,174.145 720.600 C 174.013 720.942,173.417 721.200,172.757 721.200 C 171.995 721.200,171.600 721.405,171.600 721.800 C 171.600 722.204,171.196 722.400,170.363 722.400 C 169.462 722.400,169.068 722.617,168.916 723.200 C 168.768 723.767,168.370 724.000,167.553 724.000 C 166.795 724.000,166.400 724.205,166.400 724.600 C 166.400 724.995,166.005 725.200,165.243 725.200 C 164.583 725.200,163.987 725.458,163.855 725.800 C 163.729 726.130,163.272 726.400,162.841 726.400 C 162.410 726.400,161.819 726.625,161.529 726.900 C 161.238 727.175,160.505 727.655,159.900 727.968 C 159.295 728.280,158.800 728.685,158.800 728.868 C 158.800 729.050,158.369 729.200,157.843 729.200 C 157.316 729.200,156.782 729.470,156.655 729.800 C 156.529 730.130,155.969 730.400,155.413 730.400 C 154.779 730.400,154.400 730.625,154.400 731.000 C 154.400 731.404,153.996 731.600,153.163 731.600 C 152.262 731.600,151.868 731.817,151.716 732.400 C 151.568 732.967,151.170 733.200,150.353 733.200 C 149.595 733.200,149.200 733.405,149.200 733.800 C 149.200 734.219,148.778 734.400,147.800 734.400 C 146.822 734.400,146.400 734.581,146.400 735.000 C 146.400 735.404,145.996 735.600,145.163 735.600 C 144.262 735.600,143.868 735.817,143.716 736.400 C 143.568 736.967,143.170 737.200,142.353 737.200 C 141.595 737.200,141.200 737.405,141.200 737.800 C 141.200 738.219,140.778 738.400,139.800 738.400 C 138.822 738.400,138.400 738.581,138.400 739.000 C 138.400 739.397,138.003 739.600,137.227 739.600 C 136.405 739.600,135.978 739.840,135.800 740.400 C 135.622 740.960,135.195 741.200,134.373 741.200 C 133.597 741.200,133.200 741.403,133.200 741.800 C 133.200 742.219,132.778 742.400,131.800 742.400 C 130.822 742.400,130.400 742.581,130.400 743.000 C 130.400 743.400,130.000 743.600,129.200 743.600 C 128.443 743.600,128.000 743.805,128.000 744.155 C 128.000 744.474,127.402 744.823,126.600 744.974 C 125.762 745.131,125.200 745.470,125.200 745.818 C 125.200 746.216,124.758 746.400,123.800 746.400 C 122.871 746.400,122.400 746.587,122.400 746.957 C 122.400 747.263,121.970 747.621,121.444 747.753 C 120.243 748.055,119.855 748.998,120.617 749.760 C 120.938 750.081,121.200 750.626,121.200 750.971 C 121.200 751.423,121.594 751.600,122.600 751.600 C 123.578 751.600,124.000 751.781,124.000 752.200 C 124.000 752.530,124.270 752.800,124.600 752.800 C 124.930 752.800,125.200 753.062,125.200 753.382 C 125.200 753.730,125.762 754.069,126.600 754.226 C 127.402 754.377,128.000 754.726,128.000 755.045 C 128.000 755.350,128.276 755.600,128.613 755.600 C 128.949 755.600,129.329 755.870,129.455 756.200 C 129.587 756.542,130.183 756.800,130.843 756.800 C 131.613 756.800,132.000 757.004,132.000 757.410 C 132.000 757.745,132.433 758.184,132.961 758.385 C 133.490 758.586,134.040 758.942,134.185 759.175 C 134.329 759.409,134.797 759.600,135.224 759.600 C 135.651 759.600,136.000 759.870,136.000 760.200 C 136.000 760.595,136.395 760.800,137.153 760.800 C 137.970 760.800,138.368 761.033,138.516 761.600 C 138.636 762.059,139.062 762.400,139.514 762.400 C 139.947 762.400,140.526 762.670,140.800 763.000 C 141.074 763.330,141.546 763.600,141.849 763.600 C 142.152 763.600,142.400 763.870,142.400 764.200 C 142.400 764.619,142.822 764.800,143.800 764.800 C 144.778 764.800,145.200 764.981,145.200 765.400 C 145.200 765.800,145.600 766.000,146.400 766.000 C 147.211 766.000,147.600 766.199,147.600 766.613 C 147.600 766.949,147.915 767.344,148.300 767.490 C 148.685 767.636,149.238 767.990,149.529 768.278 C 149.819 768.565,150.385 768.800,150.786 768.800 C 151.187 768.800,151.618 769.070,151.745 769.400 C 151.876 769.743,152.473 770.000,153.141 770.000 C 153.970 770.000,154.367 770.231,154.516 770.800 C 154.654 771.329,155.062 771.600,155.720 771.600 C 156.267 771.600,156.818 771.870,156.945 772.200 C 157.079 772.551,157.679 772.800,158.387 772.800 C 159.199 772.800,159.600 772.999,159.600 773.400 C 159.600 773.730,159.938 774.000,160.351 774.000 C 160.764 774.000,161.316 774.258,161.578 774.574 C 162.164 775.280,165.026 776.800,165.770 776.800 C 166.069 776.800,166.418 777.070,166.545 777.400 C 166.671 777.730,167.211 778.000,167.745 778.000 C 168.278 778.000,168.812 778.253,168.930 778.562 C 169.049 778.872,169.683 779.243,170.340 779.387 C 170.996 779.531,171.633 779.908,171.754 780.224 C 171.879 780.550,172.502 780.800,173.187 780.800 C 173.999 780.800,174.400 780.999,174.400 781.400 C 174.400 781.800,174.800 782.000,175.600 782.000 C 176.400 782.000,176.800 782.200,176.800 782.600 C 176.800 783.015,177.217 783.200,178.153 783.200 C 179.170 783.200,179.559 783.399,179.716 784.000 C 179.854 784.529,180.262 784.800,180.920 784.800 C 181.467 784.800,182.018 785.070,182.145 785.400 C 182.279 785.751,182.879 786.000,183.587 786.000 C 184.399 786.000,184.800 786.199,184.800 786.600 C 184.800 787.015,185.217 787.200,186.153 787.200 C 187.170 787.200,187.559 787.399,187.716 788.000 C 187.854 788.529,188.262 788.800,188.920 788.800 C 189.467 788.800,190.018 789.070,190.145 789.400 C 190.279 789.751,190.879 790.000,191.587 790.000 C 192.399 790.000,192.800 790.199,192.800 790.600 C 192.800 791.019,193.222 791.200,194.200 791.200 C 194.970 791.200,195.600 791.380,195.600 791.600 C 195.600 791.843,197.400 792.000,200.200 792.000 C 203.000 792.000,204.800 791.843,204.800 791.600 C 204.800 791.380,205.340 791.200,206.000 791.200 C 206.800 791.200,207.200 791.000,207.200 790.600 C 207.200 790.199,207.601 790.000,208.413 790.000 C 209.121 790.000,209.721 789.751,209.855 789.400 C 209.987 789.058,210.583 788.800,211.243 788.800 C 212.133 788.800,212.400 788.616,212.400 788.000 C 212.400 787.352,212.667 787.200,213.800 787.200 C 214.778 787.200,215.200 787.019,215.200 786.600 C 215.200 786.181,215.622 786.000,216.600 786.000 C 217.578 786.000,218.000 785.819,218.000 785.400 C 218.000 785.000,218.400 784.800,219.200 784.800 C 220.133 784.800,220.400 784.622,220.400 784.000 C 220.400 783.352,220.667 783.200,221.800 783.200 C 222.778 783.200,223.200 783.019,223.200 782.600 C 223.200 782.199,223.601 782.000,224.413 782.000 C 225.121 782.000,225.721 781.751,225.855 781.400 C 225.987 781.058,226.583 780.800,227.243 780.800 C 228.005 780.800,228.400 780.595,228.400 780.200 C 228.400 779.870,228.745 779.600,229.167 779.600 C 230.359 779.600,231.200 779.169,231.200 778.557 C 231.200 778.205,231.641 778.000,232.400 778.000 C 233.200 778.000,233.600 777.800,233.600 777.400 C 233.600 776.999,234.001 776.800,234.813 776.800 C 235.498 776.800,236.121 776.550,236.246 776.224 C 236.367 775.908,236.977 775.537,237.600 775.400 C 238.223 775.263,238.833 774.892,238.954 774.576 C 239.076 774.259,239.519 774.000,239.938 774.000 C 240.358 774.000,240.926 773.730,241.200 773.400 C 241.474 773.070,241.952 772.800,242.262 772.800 C 242.571 772.800,242.929 772.530,243.055 772.200 C 243.187 771.858,243.783 771.600,244.443 771.600 C 245.333 771.600,245.600 771.416,245.600 770.800 C 245.600 770.152,245.867 770.000,247.000 770.000 C 247.978 770.000,248.400 769.819,248.400 769.400 C 248.400 769.000,248.800 768.800,249.600 768.800 C 250.400 768.800,250.800 768.600,250.800 768.200 C 250.800 767.868,251.155 767.600,251.597 767.600 C 252.035 767.600,252.618 767.240,252.893 766.800 C 253.168 766.360,253.709 766.000,254.096 766.000 C 254.483 766.000,254.800 765.730,254.800 765.400 C 254.800 764.981,255.222 764.800,256.200 764.800 C 257.178 764.800,257.600 764.619,257.600 764.200 C 257.600 763.825,257.979 763.600,258.613 763.600 C 259.169 763.600,259.729 763.330,259.855 763.000 C 259.982 762.670,260.426 762.400,260.843 762.400 C 261.333 762.400,261.600 762.118,261.600 761.600 C 261.600 760.976,261.867 760.800,262.813 760.800 C 263.521 760.800,264.121 760.551,264.255 760.200 C 264.382 759.870,264.813 759.600,265.214 759.600 C 265.615 759.600,266.181 759.365,266.471 759.078 C 266.762 758.790,267.315 758.436,267.700 758.290 C 268.085 758.144,268.400 757.749,268.400 757.413 C 268.400 756.999,268.789 756.800,269.600 756.800 C 270.400 756.800,270.800 756.600,270.800 756.200 C 270.800 755.870,271.051 755.600,271.357 755.600 C 271.664 755.600,272.018 755.330,272.145 755.000 C 272.271 754.670,272.847 754.400,273.425 754.400 C 274.086 754.400,274.546 754.140,274.665 753.700 C 274.848 753.031,277.346 751.600,278.331 751.600 C 278.589 751.600,278.800 751.330,278.800 751.000 C 278.800 750.670,279.042 750.400,279.338 750.400 C 279.634 750.400,280.202 750.040,280.600 749.600 C 280.998 749.160,281.656 748.800,282.062 748.800 C 282.468 748.800,282.800 748.530,282.800 748.200 C 282.800 747.870,283.051 747.600,283.357 747.600 C 283.664 747.600,284.018 747.330,284.145 747.000 C 284.271 746.670,284.847 746.400,285.425 746.400 C 286.138 746.400,286.542 746.144,286.684 745.600 C 286.799 745.160,287.142 744.800,287.447 744.800 C 287.751 744.800,288.000 744.530,288.000 744.200 C 288.000 743.805,288.395 743.600,289.157 743.600 C 289.817 743.600,290.413 743.342,290.545 743.000 C 290.671 742.670,291.051 742.400,291.387 742.400 C 291.724 742.400,292.000 742.130,292.000 741.800 C 292.000 741.470,292.270 741.200,292.600 741.200 C 292.933 741.200,293.200 740.844,293.200 740.400 C 293.200 739.752,293.467 739.600,294.600 739.600 C 295.578 739.600,296.000 739.419,296.000 739.000 C 296.000 738.670,296.270 738.400,296.600 738.400 C 296.930 738.400,297.200 738.130,297.200 737.800 C 297.200 737.470,297.487 737.200,297.837 737.200 C 298.188 737.200,298.569 736.840,298.684 736.400 C 298.832 735.833,299.230 735.600,300.047 735.600 C 300.805 735.600,301.200 735.395,301.200 735.000 C 301.200 734.670,301.425 734.397,301.700 734.393 C 302.310 734.385,304.000 732.658,304.000 732.044 C 304.000 731.800,304.270 731.600,304.600 731.600 C 304.930 731.600,305.200 731.330,305.200 731.000 C 305.200 730.630,305.575 730.400,306.179 730.400 C 307.198 730.400,309.200 728.845,309.200 728.054 C 309.200 727.804,309.470 727.600,309.800 727.600 C 310.130 727.600,310.400 727.330,310.400 727.000 C 310.400 726.667,310.756 726.400,311.200 726.400 C 311.644 726.400,312.000 726.133,312.000 725.800 C 312.000 725.470,312.270 725.200,312.600 725.200 C 312.933 725.200,313.200 724.844,313.200 724.400 C 313.200 723.960,313.448 723.600,313.751 723.600 C 314.054 723.600,314.526 723.330,314.800 723.000 C 315.074 722.670,315.573 722.400,315.909 722.400 C 316.245 722.400,317.383 721.500,318.437 720.400 C 319.492 719.300,320.545 718.400,320.777 718.400 C 321.010 718.400,321.200 718.130,321.200 717.800 C 321.200 717.470,321.470 717.200,321.800 717.200 C 322.130 717.200,322.400 717.028,322.400 716.818 C 322.400 716.322,324.322 714.400,324.818 714.400 C 325.028 714.400,325.200 714.130,325.200 713.800 C 325.200 713.470,325.470 713.200,325.800 713.200 C 326.130 713.200,326.400 712.930,326.400 712.600 C 326.400 712.270,326.687 712.000,327.037 712.000 C 327.388 712.000,327.769 711.640,327.884 711.200 C 327.999 710.760,328.342 710.400,328.647 710.400 C 328.951 710.400,329.200 710.130,329.200 709.800 C 329.200 709.470,329.470 709.200,329.800 709.200 C 330.130 709.200,330.400 708.930,330.400 708.600 C 330.400 708.270,330.670 708.000,331.000 708.000 C 331.333 708.000,331.600 707.644,331.600 707.200 C 331.600 706.667,331.867 706.400,332.400 706.400 C 332.844 706.400,333.200 706.133,333.200 705.800 C 333.200 705.470,333.470 705.200,333.800 705.200 C 334.130 705.200,334.400 704.949,334.400 704.643 C 334.400 704.336,334.670 703.982,335.000 703.855 C 335.330 703.729,335.600 703.349,335.600 703.013 C 335.600 702.676,335.870 702.400,336.200 702.400 C 336.530 702.400,336.800 702.158,336.800 701.862 C 336.800 701.566,337.160 700.998,337.600 700.600 C 338.040 700.202,338.400 699.634,338.400 699.338 C 338.400 699.042,338.670 698.800,339.000 698.800 C 339.333 698.800,339.600 698.444,339.600 698.000 C 339.600 697.467,339.867 697.200,340.400 697.200 C 340.844 697.200,341.200 696.933,341.200 696.600 C 341.200 696.270,341.470 696.000,341.800 696.000 C 342.130 696.000,342.400 695.724,342.400 695.387 C 342.400 695.051,342.670 694.671,343.000 694.545 C 343.330 694.418,343.600 694.154,343.600 693.957 C 343.600 693.761,343.960 693.240,344.400 692.800 C 344.840 692.360,345.200 691.730,345.200 691.400 C 345.200 691.070,345.470 690.800,345.800 690.800 C 346.133 690.800,346.400 690.444,346.400 690.000 C 346.400 689.556,346.667 689.200,347.000 689.200 C 347.330 689.200,347.600 688.930,347.600 688.600 C 347.600 688.270,347.831 688.000,348.112 688.000 C 348.394 688.000,348.851 687.505,349.128 686.900 C 350.151 684.664,350.602 684.000,351.095 684.000 C 351.373 684.000,351.600 683.730,351.600 683.400 C 351.600 683.070,351.870 682.800,352.200 682.800 C 352.573 682.800,352.800 682.423,352.800 681.803 C 352.800 681.240,353.148 680.590,353.600 680.307 C 354.040 680.032,354.400 679.581,354.400 679.304 C 354.400 679.027,354.670 678.800,355.000 678.800 C 355.330 678.800,355.600 678.517,355.600 678.171 C 355.600 677.826,355.870 677.273,356.200 676.943 C 356.530 676.613,356.800 675.996,356.800 675.571 C 356.800 675.145,357.074 674.800,357.413 674.800 C 357.749 674.800,358.141 674.485,358.282 674.100 C 358.424 673.715,358.778 673.256,359.070 673.080 C 359.361 672.904,359.600 672.319,359.600 671.780 C 359.600 671.176,359.830 670.800,360.200 670.800 C 360.573 670.800,360.800 670.423,360.800 669.803 C 360.800 669.240,361.148 668.590,361.600 668.307 C 362.040 668.032,362.400 667.600,362.400 667.347 C 362.400 667.093,362.670 666.782,363.000 666.655 C 363.351 666.521,363.600 665.921,363.600 665.213 C 363.600 664.401,363.799 664.000,364.200 664.000 C 364.530 664.000,364.800 663.722,364.800 663.383 C 364.800 663.044,365.160 662.380,365.600 661.908 C 366.040 661.436,366.400 660.832,366.400 660.567 C 366.400 660.302,366.670 659.982,367.000 659.855 C 367.330 659.729,367.600 659.169,367.600 658.613 C 367.600 657.979,367.825 657.600,368.200 657.600 C 368.619 657.600,368.800 657.178,368.800 656.200 C 368.800 655.222,368.981 654.800,369.400 654.800 C 369.795 654.800,370.000 654.405,370.000 653.647 C 370.000 652.830,370.233 652.432,370.800 652.284 C 371.383 652.132,371.600 651.738,371.600 650.837 C 371.600 650.004,371.796 649.600,372.200 649.600 C 372.619 649.600,372.800 649.178,372.800 648.200 C 372.800 647.222,372.981 646.800,373.400 646.800 C 373.795 646.800,374.000 646.405,374.000 645.647 C 374.000 644.830,374.233 644.432,374.800 644.284 C 375.383 644.132,375.600 643.738,375.600 642.837 C 375.600 642.004,375.796 641.600,376.200 641.600 C 376.619 641.600,376.800 641.178,376.800 640.200 C 376.800 639.222,376.981 638.800,377.400 638.800 C 377.832 638.800,378.000 638.357,378.000 637.214 C 378.000 636.038,378.207 635.518,378.800 635.200 C 379.324 634.920,379.600 634.362,379.600 633.586 C 379.600 632.798,379.802 632.400,380.200 632.400 C 380.645 632.400,380.800 631.932,380.800 630.587 C 380.800 629.345,380.989 628.702,381.400 628.545 C 381.770 628.403,382.000 627.795,382.000 626.957 C 382.000 626.068,382.191 625.600,382.553 625.600 C 383.135 625.600,383.585 624.426,383.595 622.887 C 383.598 622.386,383.870 621.871,384.200 621.745 C 384.604 621.590,384.800 620.955,384.800 619.800 C 384.800 618.645,384.996 618.010,385.400 617.855 C 385.804 617.700,386.000 617.065,386.000 615.909 C 386.000 614.626,386.202 614.066,386.800 613.693 C 387.377 613.333,387.600 612.760,387.600 611.639 C 387.600 610.627,387.809 610.005,388.200 609.855 C 388.632 609.690,388.800 609.013,388.800 607.441 C 388.800 606.033,389.013 605.044,389.400 604.657 C 389.758 604.299,390.000 603.321,390.000 602.229 C 390.000 600.870,390.154 600.400,390.600 600.400 C 391.072 600.400,391.200 599.844,391.200 597.800 C 391.200 595.844,391.338 595.200,391.757 595.200 C 392.542 595.200,392.800 594.297,392.800 591.555 C 392.800 589.808,392.960 589.114,393.400 588.945 C 393.852 588.771,394.000 588.044,394.000 586.000 C 394.000 583.956,394.148 583.229,394.600 583.055 C 395.072 582.874,395.200 582.058,395.200 579.240 C 395.200 576.005,395.278 575.629,396.000 575.400 C 396.726 575.170,396.800 574.795,396.800 571.344 C 396.800 568.499,396.951 567.392,397.400 566.943 C 397.866 566.477,398.000 565.279,398.000 561.571 C 398.000 557.597,398.100 556.800,398.600 556.800 C 399.111 556.800,399.200 555.733,399.200 549.600 C 399.200 545.067,399.348 542.400,399.600 542.400 C 399.866 542.400,400.000 478.133,400.000 350.400 L 400.000 158.400 358.600 158.400 L 317.200 158.400 317.200 334.557 " stroke="none" fill="#ffffff" fill-rule="evenodd"></path><path id="path1" d="" stroke="none" fill="#080404" fill-rule="evenodd"></path><path id="path2" d="" stroke="none" fill="#080404" fill-rule="evenodd"></path><path id="path3" d="" stroke="none" fill="#080404" fill-rule="evenodd"></path><path id="path4" d="" stroke="none" fill="#080404" fill-rule="evenodd"></path></g></svg>