<svg id="svg" version="1.1" xmlns="http://www.w3.org/2000/svg" xmlns:xlink="http://www.w3.org/1999/xlink" width="400" height="398.6666666666667" viewBox="0, 0, 400,398.6666666666667"><g id="svgg"><path id="path0" d="M30.309 0.399 C 30.309 0.618,29.431 0.798,28.358 0.798 C 26.991 0.798,26.338 0.977,26.177 1.396 C 26.043 1.746,25.445 1.994,24.738 1.994 C 23.930 1.994,23.529 2.192,23.529 2.592 C 23.529 2.995,23.126 3.190,22.296 3.190 C 21.397 3.190,21.005 3.407,20.853 3.988 C 20.739 4.427,20.320 4.786,19.922 4.786 C 19.525 4.786,18.930 5.055,18.601 5.384 C 18.272 5.713,17.721 5.982,17.376 5.982 C 17.032 5.982,16.750 6.251,16.750 6.580 C 16.750 6.909,16.493 7.178,16.178 7.178 C 15.864 7.178,15.493 7.537,15.354 7.976 C 15.215 8.415,14.844 8.774,14.529 8.774 C 14.215 8.774,13.958 9.043,13.958 9.372 C 13.958 9.701,13.689 9.970,13.360 9.970 C 13.031 9.970,12.762 10.239,12.762 10.568 C 12.762 10.897,12.558 11.167,12.309 11.167 C 11.777 11.167,9.970 13.031,9.970 13.580 C 9.970 13.788,9.701 13.958,9.372 13.958 C 9.043 13.958,8.774 14.215,8.774 14.529 C 8.774 14.844,8.415 15.215,7.976 15.354 C 7.537 15.493,7.178 15.864,7.178 16.178 C 7.178 16.493,6.909 16.750,6.580 16.750 C 6.162 16.750,5.982 17.171,5.982 18.146 C 5.982 19.120,5.802 19.541,5.384 19.541 C 5.055 19.541,4.786 19.721,4.786 19.940 C 4.786 20.160,4.427 20.698,3.988 21.137 C 3.549 21.575,3.190 22.216,3.190 22.561 C 3.190 22.906,2.921 23.457,2.592 23.786 C 2.263 24.115,1.994 25.089,1.994 25.951 C 1.994 27.077,1.826 27.517,1.396 27.517 C 0.944 27.517,0.798 28.005,0.798 29.511 C 0.798 30.608,0.618 31.505,0.399 31.505 C 0.134 31.505,0.000 87.737,0.000 199.402 C 0.000 311.067,0.134 367.298,0.399 367.298 C 0.618 367.298,0.798 368.195,0.798 369.292 C 0.798 370.799,0.944 371.286,1.396 371.286 C 1.840 371.286,1.994 371.753,1.994 373.093 C 1.994 374.332,2.182 374.973,2.592 375.130 C 2.921 375.256,3.190 375.699,3.190 376.114 C 3.190 376.530,3.549 377.228,3.988 377.667 C 4.427 378.106,4.786 378.650,4.786 378.876 C 4.786 379.102,5.055 379.391,5.384 379.517 C 5.725 379.648,5.982 380.242,5.982 380.900 C 5.982 381.660,6.186 382.054,6.580 382.054 C 6.909 382.054,7.178 382.340,7.178 382.689 C 7.178 383.039,7.537 383.419,7.976 383.533 C 8.415 383.648,8.774 383.990,8.774 384.294 C 8.774 384.597,9.043 384.845,9.372 384.845 C 9.701 384.845,9.970 385.016,9.970 385.224 C 9.970 385.773,11.777 387.637,12.309 387.637 C 12.558 387.637,12.762 387.906,12.762 388.235 C 12.762 388.564,13.031 388.833,13.360 388.833 C 13.689 388.833,13.958 389.103,13.958 389.432 C 13.958 389.761,14.215 390.030,14.529 390.030 C 14.844 390.030,15.215 390.389,15.354 390.828 C 15.493 391.266,15.864 391.625,16.178 391.625 C 16.493 391.625,16.750 391.894,16.750 392.223 C 16.750 392.624,17.150 392.822,17.959 392.822 C 18.665 392.822,19.263 393.070,19.397 393.420 C 19.523 393.749,19.877 394.018,20.182 394.018 C 20.488 394.018,20.738 394.268,20.738 394.573 C 20.738 395.183,21.576 395.613,22.764 395.613 C 23.185 395.613,23.529 395.882,23.529 396.211 C 23.529 396.626,23.946 396.810,24.883 396.810 C 25.717 396.810,26.324 397.039,26.465 397.408 C 26.634 397.848,27.330 398.006,29.100 398.006 C 30.438 398.006,31.505 398.183,31.505 398.405 C 31.505 398.662,35.693 398.804,43.270 398.804 C 50.847 398.804,55.035 398.662,55.035 398.405 C 55.035 398.185,55.938 398.006,57.041 398.006 C 58.457 398.006,59.116 397.830,59.278 397.408 C 59.408 397.067,60.003 396.810,60.661 396.810 C 61.420 396.810,61.815 396.605,61.815 396.211 C 61.815 395.809,62.218 395.613,63.048 395.613 C 63.947 395.613,64.339 395.396,64.491 394.816 C 64.639 394.248,65.035 394.018,65.862 394.018 C 66.527 394.018,67.122 393.762,67.254 393.420 C 67.380 393.091,67.733 392.822,68.039 392.822 C 68.344 392.822,68.594 392.552,68.594 392.223 C 68.594 391.894,68.857 391.625,69.178 391.625 C 69.500 391.625,69.955 391.266,70.189 390.828 C 70.439 390.361,71.024 390.030,71.599 390.030 C 72.207 390.030,72.582 389.802,72.582 389.432 C 72.582 389.103,72.754 388.833,72.963 388.833 C 73.458 388.833,75.374 386.917,75.374 386.423 C 75.374 386.213,75.643 386.042,75.972 386.042 C 76.301 386.042,76.570 385.773,76.570 385.444 C 76.570 385.115,76.929 384.487,77.368 384.048 C 77.807 383.609,78.166 382.981,78.166 382.652 C 78.166 382.323,78.435 382.054,78.764 382.054 C 79.093 382.054,79.362 381.804,79.362 381.498 C 79.362 381.193,79.631 380.839,79.960 380.713 C 80.310 380.579,80.558 379.981,80.558 379.275 C 80.558 378.332,80.734 378.066,81.356 378.066 C 81.795 378.066,82.154 377.816,82.154 377.510 C 82.154 377.205,82.423 376.851,82.752 376.725 C 83.101 376.591,83.350 375.993,83.350 375.287 C 83.350 374.478,83.548 374.078,83.948 374.078 C 84.277 374.078,84.546 373.809,84.546 373.480 C 84.546 373.151,84.796 372.881,85.102 372.881 C 85.712 372.881,86.142 372.043,86.142 370.855 C 86.142 370.434,86.411 370.090,86.740 370.090 C 87.069 370.090,87.338 369.840,87.338 369.534 C 87.338 369.229,87.607 368.875,87.936 368.749 C 88.286 368.615,88.534 368.017,88.534 367.311 C 88.534 366.368,88.710 366.102,89.332 366.102 C 89.771 366.102,90.130 365.852,90.130 365.546 C 90.130 365.241,90.399 364.887,90.728 364.761 C 91.078 364.627,91.326 364.029,91.326 363.323 C 91.326 362.514,91.524 362.114,91.924 362.114 C 92.253 362.114,92.522 361.865,92.522 361.562 C 92.522 361.259,92.881 360.916,93.320 360.802 C 93.862 360.660,94.118 360.258,94.118 359.546 C 94.118 358.970,94.387 358.396,94.716 358.270 C 95.045 358.144,95.314 357.809,95.314 357.527 C 95.314 357.245,95.583 356.911,95.912 356.785 C 96.241 356.659,96.510 356.234,96.510 355.841 C 96.510 355.448,96.869 354.903,97.308 354.629 C 97.747 354.355,98.106 353.882,98.106 353.579 C 98.106 353.275,98.375 352.923,98.704 352.797 C 99.033 352.671,99.302 352.203,99.302 351.757 C 99.302 351.312,99.478 350.947,99.693 350.947 C 99.908 350.947,100.197 350.499,100.335 349.950 C 100.472 349.402,100.839 348.953,101.150 348.953 C 101.460 348.953,101.879 348.522,102.079 347.995 C 102.279 347.468,102.634 346.919,102.867 346.775 C 103.100 346.631,103.290 346.184,103.290 345.782 C 103.290 345.380,103.559 344.947,103.888 344.821 C 104.217 344.695,104.487 344.317,104.487 343.981 C 104.487 343.645,104.760 343.370,105.095 343.370 C 105.448 343.370,105.801 342.880,105.937 342.199 C 106.066 341.555,106.420 340.932,106.725 340.816 C 107.029 340.699,107.278 340.348,107.278 340.035 C 107.278 339.723,107.547 339.364,107.876 339.238 C 108.226 339.103,108.475 338.506,108.475 337.799 C 108.475 336.856,108.650 336.590,109.272 336.590 C 109.711 336.590,110.070 336.340,110.070 336.035 C 110.070 335.729,110.339 335.376,110.668 335.250 C 111.018 335.115,111.266 334.518,111.266 333.811 C 111.266 332.868,111.442 332.602,112.064 332.602 C 112.502 332.602,112.861 332.352,112.861 332.047 C 112.861 331.741,113.131 331.388,113.460 331.262 C 113.809 331.127,114.058 330.530,114.058 329.823 C 114.058 329.014,114.256 328.614,114.656 328.614 C 114.985 328.614,115.254 328.345,115.254 328.016 C 115.254 327.687,115.515 327.418,115.834 327.418 C 116.182 327.418,116.520 326.857,116.676 326.022 C 116.826 325.223,117.175 324.626,117.492 324.626 C 117.797 324.626,118.046 324.357,118.046 324.028 C 118.046 323.699,118.315 323.430,118.644 323.430 C 119.062 323.430,119.242 323.009,119.242 322.034 C 119.242 320.904,119.394 320.638,120.040 320.638 C 120.479 320.638,120.837 320.388,120.837 320.083 C 120.837 319.777,121.107 319.424,121.436 319.297 C 121.785 319.163,122.034 318.566,122.034 317.859 C 122.034 317.050,122.232 316.650,122.632 316.650 C 122.961 316.650,123.230 316.381,123.230 316.052 C 123.230 315.723,123.480 315.454,123.786 315.454 C 124.396 315.454,124.826 314.616,124.826 313.427 C 124.826 313.006,125.095 312.662,125.424 312.662 C 125.753 312.662,126.022 312.393,126.022 312.064 C 126.022 311.735,126.291 311.466,126.620 311.466 C 127.038 311.466,127.218 311.045,127.218 310.070 C 127.218 308.940,127.370 308.674,128.016 308.674 C 128.455 308.674,128.814 308.424,128.814 308.118 C 128.814 307.813,129.083 307.460,129.412 307.333 C 129.761 307.199,130.010 306.602,130.010 305.895 C 130.010 305.086,130.208 304.686,130.608 304.686 C 130.937 304.686,131.206 304.438,131.206 304.134 C 131.206 303.831,131.565 303.489,132.004 303.374 C 132.546 303.232,132.802 302.830,132.802 302.119 C 132.802 301.543,133.071 300.968,133.400 300.842 C 133.729 300.716,133.998 300.363,133.998 300.057 C 133.998 299.751,134.267 299.501,134.596 299.501 C 134.968 299.501,135.194 299.125,135.194 298.508 C 135.194 297.946,135.541 297.298,135.992 297.016 C 136.431 296.742,136.790 296.292,136.790 296.016 C 136.790 295.739,137.059 295.513,137.388 295.513 C 137.717 295.513,137.986 295.177,137.986 294.765 C 137.986 294.353,138.255 293.792,138.584 293.519 C 138.913 293.246,139.182 292.686,139.182 292.274 C 139.182 291.862,139.457 291.525,139.793 291.525 C 140.129 291.525,140.523 291.211,140.668 290.828 C 140.814 290.444,141.167 289.892,141.453 289.603 C 141.740 289.313,141.974 288.730,141.974 288.307 C 141.974 287.883,142.243 287.537,142.572 287.537 C 142.905 287.537,143.170 287.183,143.170 286.740 C 143.170 286.301,143.425 285.942,143.737 285.942 C 144.049 285.942,144.422 285.404,144.566 284.746 C 144.711 284.088,145.084 283.549,145.396 283.549 C 145.707 283.549,145.962 283.190,145.962 282.752 C 145.962 282.309,146.228 281.954,146.560 281.954 C 146.959 281.954,147.159 281.555,147.159 280.758 C 147.159 279.949,147.357 279.561,147.769 279.561 C 148.105 279.561,148.495 279.247,148.636 278.863 C 148.778 278.480,149.131 278.022,149.422 277.847 C 149.712 277.671,149.950 277.088,149.950 276.550 C 149.950 275.948,150.179 275.573,150.548 275.573 C 150.877 275.573,151.147 275.235,151.147 274.822 C 151.147 274.406,151.503 273.978,151.944 273.863 C 152.483 273.722,152.742 273.319,152.742 272.620 C 152.742 271.966,152.962 271.585,153.340 271.585 C 153.672 271.585,153.938 271.231,153.938 270.788 C 153.938 270.345,154.204 269.990,154.536 269.990 C 154.935 269.990,155.135 269.591,155.135 268.794 C 155.135 267.965,155.330 267.597,155.770 267.597 C 156.120 267.597,156.500 267.238,156.614 266.800 C 156.729 266.361,157.071 266.002,157.375 266.002 C 157.722 266.002,157.926 265.558,157.926 264.806 C 157.926 263.997,158.124 263.609,158.537 263.609 C 158.873 263.609,159.263 263.295,159.404 262.911 C 159.545 262.527,159.899 262.070,160.189 261.894 C 160.480 261.719,160.718 261.136,160.718 260.598 C 160.718 259.996,160.947 259.621,161.316 259.621 C 161.648 259.621,161.914 259.267,161.914 258.824 C 161.914 258.385,162.164 258.026,162.470 258.026 C 163.080 258.026,163.509 257.188,163.509 255.999 C 163.509 255.579,163.779 255.234,164.108 255.234 C 164.506 255.234,164.706 254.835,164.706 254.038 C 164.706 253.240,164.905 252.841,165.304 252.841 C 166.180 252.841,166.180 246.542,165.304 246.206 C 164.963 246.075,164.706 245.480,164.706 244.823 C 164.706 244.106,164.497 243.669,164.154 243.669 C 163.851 243.669,163.509 243.310,163.394 242.871 C 163.279 242.433,162.899 242.074,162.550 242.074 C 162.200 242.074,161.914 241.805,161.914 241.476 C 161.914 241.088,161.526 240.877,160.814 240.877 C 160.145 240.877,159.518 240.564,159.215 240.080 C 158.456 238.864,151.545 238.864,151.545 240.080 C 151.545 240.725,151.279 240.877,150.150 240.877 C 149.175 240.877,148.754 241.058,148.754 241.476 C 148.754 241.805,148.555 242.074,148.311 242.074 C 147.699 242.074,145.977 243.759,145.969 244.367 C 145.965 244.641,145.712 244.865,145.407 244.865 C 145.101 244.865,144.748 245.135,144.621 245.464 C 144.495 245.793,144.003 246.062,143.528 246.062 C 142.680 246.062,140.778 247.731,140.778 248.475 C 140.778 248.683,140.503 248.853,140.167 248.853 C 139.831 248.853,139.453 249.123,139.327 249.452 C 139.200 249.781,138.847 250.050,138.542 250.050 C 138.236 250.050,137.986 250.300,137.986 250.605 C 137.986 250.911,137.717 251.264,137.388 251.390 C 137.059 251.517,136.790 251.895,136.790 252.231 C 136.790 252.576,136.442 252.841,135.992 252.841 C 135.553 252.841,135.194 253.088,135.194 253.390 C 135.194 253.691,134.656 254.046,133.998 254.177 C 133.296 254.318,132.802 254.668,132.802 255.025 C 132.802 255.359,132.527 255.633,132.191 255.633 C 131.855 255.633,131.477 255.902,131.351 256.231 C 131.224 256.560,130.871 256.830,130.566 256.830 C 130.260 256.830,130.010 257.099,130.010 257.428 C 130.010 257.757,129.741 258.026,129.412 258.026 C 129.079 258.026,128.814 258.380,128.814 258.824 C 128.814 259.355,128.548 259.621,128.016 259.621 C 127.573 259.621,127.218 259.887,127.218 260.219 C 127.218 260.548,126.949 260.818,126.620 260.818 C 126.291 260.818,126.022 261.087,126.022 261.416 C 126.022 261.745,125.753 262.014,125.424 262.014 C 125.095 262.014,124.467 262.373,124.028 262.812 C 123.589 263.250,122.961 263.609,122.632 263.609 C 122.303 263.609,122.034 263.878,122.034 264.207 C 122.034 264.536,121.765 264.806,121.436 264.806 C 121.107 264.806,120.837 265.075,120.837 265.404 C 120.837 265.733,120.551 266.002,120.202 266.002 C 119.852 266.002,119.473 266.361,119.358 266.800 C 119.243 267.238,118.901 267.597,118.598 267.597 C 118.294 267.597,118.046 267.866,118.046 268.195 C 118.046 268.524,117.777 268.794,117.448 268.794 C 117.119 268.794,116.849 269.063,116.849 269.392 C 116.849 269.724,116.495 269.990,116.052 269.990 C 115.520 269.990,115.254 270.256,115.254 270.788 C 115.254 271.408,114.988 271.585,114.058 271.585 C 113.260 271.585,112.861 271.785,112.861 272.183 C 112.861 272.512,112.587 272.782,112.251 272.782 C 111.915 272.782,111.537 273.051,111.410 273.380 C 111.284 273.709,110.931 273.978,110.625 273.978 C 110.320 273.978,110.070 274.337,110.070 274.776 C 110.070 275.219,109.804 275.573,109.472 275.573 C 109.143 275.573,108.873 275.842,108.873 276.171 C 108.873 276.504,108.519 276.770,108.076 276.770 C 107.633 276.770,107.278 277.036,107.278 277.368 C 107.278 277.697,107.009 277.966,106.680 277.966 C 106.348 277.966,106.082 278.321,106.082 278.764 C 106.082 279.378,105.816 279.561,104.928 279.561 C 104.270 279.561,103.676 279.819,103.545 280.160 C 103.418 280.489,103.040 280.758,102.704 280.758 C 102.369 280.758,102.094 281.027,102.094 281.356 C 102.094 281.685,101.837 281.954,101.522 281.954 C 101.208 281.954,100.837 282.313,100.698 282.752 C 100.559 283.190,100.188 283.549,99.873 283.549 C 99.559 283.549,99.302 283.819,99.302 284.148 C 99.302 284.477,99.033 284.746,98.704 284.746 C 98.375 284.746,98.106 285.015,98.106 285.344 C 98.106 285.673,97.820 285.942,97.470 285.942 C 97.121 285.942,96.741 286.301,96.626 286.740 C 96.511 287.178,96.188 287.537,95.908 287.537 C 95.628 287.537,95.296 287.807,95.170 288.136 C 95.044 288.465,94.486 288.734,93.931 288.734 C 93.273 288.734,92.921 288.955,92.921 289.369 C 92.921 289.719,92.562 290.099,92.124 290.213 C 91.685 290.328,91.326 290.670,91.326 290.974 C 91.326 291.277,91.057 291.525,90.728 291.525 C 90.399 291.525,90.130 291.795,90.130 292.124 C 90.130 292.456,89.775 292.722,89.332 292.722 C 88.882 292.722,88.534 292.988,88.534 293.333 C 88.534 293.668,88.265 294.047,87.936 294.173 C 87.607 294.299,87.338 294.652,87.338 294.958 C 87.338 295.263,87.069 295.513,86.740 295.513 C 86.411 295.513,86.142 295.783,86.142 296.112 C 86.142 296.441,85.797 296.710,85.377 296.710 C 84.188 296.710,83.350 297.140,83.350 297.750 C 83.350 298.055,83.081 298.305,82.752 298.305 C 82.423 298.305,82.154 298.574,82.154 298.903 C 82.154 299.236,81.799 299.501,81.356 299.501 C 80.913 299.501,80.558 299.767,80.558 300.100 C 80.558 300.429,80.289 300.698,79.960 300.698 C 79.628 300.698,79.362 301.052,79.362 301.496 C 79.362 301.939,79.096 302.293,78.764 302.293 C 78.435 302.293,78.166 302.562,78.166 302.891 C 78.166 303.224,77.811 303.490,77.368 303.490 C 76.925 303.490,76.570 303.755,76.570 304.088 C 76.570 304.417,76.301 304.686,75.972 304.686 C 75.643 304.686,75.046 305.014,74.646 305.414 C 74.245 305.815,73.617 306.258,73.250 306.399 C 72.883 306.540,72.582 306.840,72.582 307.066 C 72.582 307.292,72.313 307.478,71.984 307.478 C 71.655 307.478,71.386 307.747,71.386 308.076 C 71.386 308.405,71.117 308.674,70.788 308.674 C 70.455 308.674,70.189 309.028,70.189 309.472 C 70.189 310.003,69.924 310.269,69.392 310.269 C 68.949 310.269,68.594 310.535,68.594 310.867 C 68.594 311.196,68.325 311.466,67.996 311.466 C 67.667 311.466,67.398 311.735,67.398 312.064 C 67.398 312.516,66.910 312.662,65.404 312.662 L 63.410 312.662 63.410 200.598 C 63.410 101.252,63.478 88.534,64.008 88.534 C 64.337 88.534,64.606 88.265,64.606 87.936 C 64.606 87.604,64.961 87.338,65.404 87.338 C 65.847 87.338,66.201 87.604,66.201 87.936 C 66.201 88.265,66.471 88.534,66.800 88.534 C 67.132 88.534,67.398 88.889,67.398 89.332 C 67.398 89.775,67.664 90.130,67.996 90.130 C 68.325 90.130,68.594 90.399,68.594 90.728 C 68.594 91.060,68.949 91.326,69.392 91.326 C 69.835 91.326,70.189 91.592,70.189 91.924 C 70.189 92.253,70.459 92.522,70.788 92.522 C 71.188 92.522,71.386 92.923,71.386 93.731 C 71.386 94.438,71.634 95.036,71.984 95.170 C 72.313 95.296,72.582 95.649,72.582 95.955 C 72.582 96.260,72.941 96.510,73.380 96.510 C 73.912 96.510,74.177 96.776,74.177 97.308 C 74.177 97.751,74.443 98.106,74.776 98.106 C 75.105 98.106,75.374 98.375,75.374 98.704 C 75.374 99.033,75.643 99.302,75.972 99.302 C 76.301 99.302,76.570 99.588,76.570 99.938 C 76.570 100.287,76.929 100.667,77.368 100.782 C 77.888 100.918,78.166 101.326,78.166 101.953 C 78.166 102.483,78.435 103.020,78.764 103.146 C 79.093 103.272,79.362 103.625,79.362 103.931 C 79.362 104.237,79.610 104.487,79.914 104.487 C 80.217 104.487,80.559 104.845,80.674 105.284 C 80.789 105.723,81.168 106.082,81.518 106.082 C 81.868 106.082,82.154 106.351,82.154 106.680 C 82.154 107.009,82.423 107.278,82.752 107.278 C 83.081 107.278,83.350 107.553,83.350 107.889 C 83.350 108.225,83.619 108.603,83.948 108.729 C 84.277 108.855,84.546 109.210,84.546 109.518 C 84.546 109.826,84.905 110.385,85.344 110.761 C 85.783 111.136,86.142 111.654,86.142 111.910 C 86.142 112.167,86.411 112.481,86.740 112.607 C 87.069 112.733,87.338 113.111,87.338 113.447 C 87.338 113.783,87.607 114.058,87.936 114.058 C 88.265 114.058,88.534 114.327,88.534 114.656 C 88.534 114.988,88.889 115.254,89.332 115.254 C 89.864 115.254,90.130 115.520,90.130 116.052 C 90.130 116.495,90.395 116.849,90.728 116.849 C 91.057 116.849,91.326 117.036,91.326 117.264 C 91.326 117.790,92.959 120.136,93.619 120.558 C 93.893 120.734,94.118 121.137,94.118 121.456 C 94.118 121.774,94.387 122.034,94.716 122.034 C 95.045 122.034,95.314 122.303,95.314 122.632 C 95.314 122.961,95.562 123.230,95.866 123.230 C 96.169 123.230,96.511 123.589,96.626 124.028 C 96.741 124.467,97.121 124.826,97.470 124.826 C 97.820 124.826,98.106 125.095,98.106 125.424 C 98.106 125.753,98.375 126.022,98.704 126.022 C 99.073 126.022,99.302 126.397,99.302 127.001 C 99.302 127.954,100.950 130.010,101.713 130.010 C 101.922 130.010,102.094 130.279,102.094 130.608 C 102.094 130.937,102.363 131.206,102.692 131.206 C 103.024 131.206,103.290 131.561,103.290 132.004 C 103.290 132.443,103.540 132.802,103.846 132.802 C 104.151 132.802,104.505 133.071,104.631 133.400 C 104.757 133.729,105.135 133.998,105.471 133.998 C 105.885 133.998,106.082 134.387,106.082 135.207 C 106.082 135.914,106.330 136.511,106.680 136.645 C 107.009 136.772,107.278 137.125,107.278 137.431 C 107.278 137.736,107.637 137.986,108.076 137.986 C 108.519 137.986,108.873 138.252,108.873 138.584 C 108.873 138.913,109.143 139.182,109.472 139.182 C 109.804 139.182,110.070 139.537,110.070 139.980 C 110.070 140.423,110.336 140.778,110.668 140.778 C 110.997 140.778,111.266 141.047,111.266 141.376 C 111.266 141.708,111.621 141.974,112.064 141.974 C 112.686 141.974,112.861 142.240,112.861 143.183 C 112.861 143.890,113.110 144.487,113.460 144.621 C 113.789 144.748,114.058 145.101,114.058 145.407 C 114.058 145.712,114.327 145.962,114.656 145.962 C 114.985 145.962,115.254 146.248,115.254 146.598 C 115.254 146.947,115.613 147.327,116.052 147.442 C 116.491 147.556,116.849 147.899,116.849 148.202 C 116.849 148.505,117.119 148.754,117.448 148.754 C 117.777 148.754,118.046 149.023,118.046 149.352 C 118.046 149.681,118.315 149.950,118.644 149.950 C 118.973 149.950,119.242 150.294,119.242 150.715 C 119.242 151.904,119.672 152.742,120.282 152.742 C 120.587 152.742,120.837 153.011,120.837 153.340 C 120.837 153.669,121.107 153.938,121.436 153.938 C 121.765 153.938,122.034 154.213,122.034 154.549 C 122.034 154.885,122.303 155.263,122.632 155.389 C 122.961 155.515,123.230 155.869,123.230 156.174 C 123.230 156.480,123.589 156.730,124.028 156.730 C 124.471 156.730,124.826 156.996,124.826 157.328 C 124.826 157.657,125.095 157.926,125.424 157.926 C 125.803 157.926,126.022 158.308,126.022 158.967 C 126.022 160.055,127.457 161.896,128.315 161.907 C 128.589 161.911,128.814 162.273,128.814 162.712 C 128.814 163.155,129.079 163.509,129.412 163.509 C 129.741 163.509,130.010 163.779,130.010 164.108 C 130.010 164.437,130.279 164.706,130.608 164.706 C 130.937 164.706,131.206 164.975,131.206 165.304 C 131.206 165.636,131.561 165.902,132.004 165.902 C 132.626 165.902,132.802 166.168,132.802 167.111 C 132.802 167.818,133.050 168.416,133.400 168.550 C 133.729 168.676,133.998 169.029,133.998 169.335 C 133.998 169.640,134.267 169.890,134.596 169.890 C 134.925 169.890,135.194 170.176,135.194 170.526 C 135.194 170.875,135.553 171.255,135.992 171.370 C 136.431 171.485,136.790 171.827,136.790 172.130 C 136.790 172.434,137.059 172.682,137.388 172.682 C 137.717 172.682,137.986 172.951,137.986 173.280 C 137.986 173.609,138.255 173.878,138.584 173.878 C 138.917 173.878,139.182 174.233,139.182 174.676 C 139.182 175.115,139.541 175.833,139.980 176.271 C 140.419 176.710,140.778 177.248,140.778 177.468 C 140.778 177.687,141.047 177.866,141.376 177.866 C 141.705 177.866,141.977 178.091,141.981 178.365 C 141.989 178.973,143.711 180.658,144.323 180.658 C 144.567 180.658,144.766 181.017,144.766 181.456 C 144.766 181.899,145.032 182.253,145.364 182.253 C 145.693 182.253,145.962 182.522,145.962 182.851 C 145.962 183.180,146.321 183.809,146.760 184.247 C 147.198 184.686,147.557 185.205,147.557 185.401 C 147.557 185.597,147.827 185.860,148.156 185.987 C 148.485 186.113,148.754 186.491,148.754 186.827 C 148.754 187.163,149.023 187.438,149.352 187.438 C 149.681 187.438,149.950 187.686,149.950 187.989 C 149.950 188.293,150.309 188.635,150.748 188.750 C 151.186 188.864,151.545 189.244,151.545 189.594 C 151.545 189.943,151.815 190.229,152.144 190.229 C 152.473 190.229,152.742 190.479,152.742 190.785 C 152.742 191.090,153.011 191.444,153.340 191.570 C 153.669 191.696,153.938 192.233,153.938 192.763 C 153.938 193.390,154.216 193.798,154.736 193.934 C 155.174 194.049,155.533 194.429,155.533 194.778 C 155.533 195.128,155.803 195.414,156.132 195.414 C 156.461 195.414,156.730 195.683,156.730 196.012 C 156.730 196.341,156.999 196.610,157.328 196.610 C 157.657 196.610,157.926 196.896,157.926 197.246 C 157.926 197.595,158.285 197.975,158.724 198.090 C 159.163 198.205,159.521 198.527,159.521 198.807 C 159.521 199.087,159.791 199.420,160.120 199.546 C 160.449 199.672,160.718 200.211,160.718 200.742 C 160.718 201.274,160.987 201.813,161.316 201.939 C 161.645 202.065,161.914 202.443,161.914 202.779 C 161.914 203.124,162.261 203.390,162.712 203.390 C 163.155 203.390,163.509 203.656,163.509 203.988 C 163.509 204.317,163.779 204.586,164.108 204.586 C 164.440 204.586,164.706 204.941,164.706 205.384 C 164.706 205.827,164.972 206.181,165.304 206.181 C 165.633 206.181,165.902 206.451,165.902 206.780 C 165.902 207.112,166.257 207.378,166.700 207.378 C 167.322 207.378,167.498 207.644,167.498 208.587 C 167.498 209.294,167.746 209.891,168.096 210.025 C 168.425 210.152,168.694 210.505,168.694 210.810 C 168.694 211.116,168.963 211.366,169.292 211.366 C 169.621 211.366,169.890 211.635,169.890 211.964 C 169.890 212.296,170.245 212.562,170.688 212.562 C 171.220 212.562,171.486 212.828,171.486 213.360 C 171.486 213.803,171.751 214.158,172.084 214.158 C 172.413 214.158,172.682 214.427,172.682 214.756 C 172.682 215.085,172.951 215.354,173.280 215.354 C 173.612 215.354,173.878 215.708,173.878 216.152 C 173.878 216.590,174.237 217.308,174.676 217.747 C 175.115 218.185,175.474 218.724,175.474 218.943 C 175.474 219.163,175.743 219.342,176.072 219.342 C 176.401 219.342,176.673 219.566,176.677 219.840 C 176.685 220.448,178.407 222.134,179.019 222.134 C 179.263 222.134,179.462 222.403,179.462 222.732 C 179.462 223.061,179.731 223.330,180.060 223.330 C 180.429 223.330,180.658 223.704,180.658 224.306 C 180.658 225.322,182.208 227.318,182.997 227.318 C 183.246 227.318,183.450 227.593,183.450 227.929 C 183.450 228.265,183.719 228.643,184.048 228.769 C 184.377 228.895,184.646 229.249,184.646 229.554 C 184.646 229.860,184.915 230.110,185.244 230.110 C 185.573 230.110,185.842 230.379,185.842 230.708 C 185.842 231.040,186.197 231.306,186.640 231.306 C 187.254 231.306,187.438 231.572,187.438 232.460 C 187.438 233.117,187.695 233.712,188.036 233.843 C 188.365 233.969,188.634 234.347,188.634 234.683 C 188.634 235.019,188.891 235.294,189.205 235.294 C 189.520 235.294,189.891 235.653,190.030 236.092 C 190.169 236.530,190.540 236.889,190.854 236.889 C 191.169 236.889,191.426 237.159,191.426 237.488 C 191.426 237.817,191.695 238.086,192.024 238.086 C 192.353 238.086,192.622 238.355,192.622 238.684 C 192.622 239.013,192.877 239.282,193.189 239.282 C 193.500 239.282,193.876 239.833,194.024 240.506 C 194.172 241.178,194.545 241.826,194.853 241.944 C 195.161 242.062,195.414 242.409,195.414 242.715 C 195.414 243.020,195.662 243.270,195.965 243.270 C 196.269 243.270,196.611 243.629,196.726 244.068 C 196.840 244.506,197.220 244.865,197.570 244.865 C 197.919 244.865,198.205 245.135,198.205 245.464 C 198.205 245.793,198.475 246.062,198.804 246.062 C 199.133 246.062,199.402 246.331,199.402 246.660 C 199.402 246.989,199.649 247.258,199.950 247.258 C 200.252 247.258,200.606 247.797,200.738 248.455 C 200.878 249.156,201.229 249.651,201.585 249.651 C 201.928 249.651,202.193 250.000,202.193 250.449 C 202.193 250.892,202.459 251.246,202.792 251.246 C 203.124 251.246,203.390 251.601,203.390 252.044 C 203.390 252.487,203.656 252.841,203.988 252.841 C 204.317 252.841,204.586 253.111,204.586 253.440 C 204.586 253.772,204.941 254.038,205.384 254.038 C 205.827 254.038,206.181 254.304,206.181 254.636 C 206.181 254.965,206.451 255.234,206.780 255.234 C 207.109 255.234,207.378 255.580,207.378 256.003 C 207.378 256.426,207.647 257.042,207.976 257.371 C 208.305 257.700,208.574 258.155,208.574 258.382 C 208.574 258.610,208.933 258.988,209.372 259.222 C 209.811 259.457,210.169 259.912,210.169 260.233 C 210.169 260.555,210.439 260.818,210.768 260.818 C 211.097 260.818,211.366 261.087,211.366 261.416 C 211.366 261.745,211.614 262.014,211.918 262.014 C 212.221 262.014,212.563 262.373,212.678 262.812 C 212.793 263.250,213.172 263.609,213.522 263.609 C 213.872 263.609,214.158 263.859,214.158 264.165 C 214.158 264.470,214.427 264.824,214.756 264.950 C 215.085 265.076,215.354 265.634,215.354 266.189 C 215.354 266.783,215.581 267.198,215.906 267.198 C 216.209 267.198,216.551 267.557,216.666 267.996 C 216.781 268.435,217.160 268.794,217.510 268.794 C 217.860 268.794,218.146 269.063,218.146 269.392 C 218.146 269.721,218.415 269.990,218.744 269.990 C 219.073 269.990,219.342 270.265,219.342 270.601 C 219.342 270.937,219.611 271.315,219.940 271.441 C 220.269 271.567,220.538 271.900,220.538 272.180 C 220.538 272.460,220.897 272.782,221.336 272.897 C 221.875 273.038,222.134 273.441,222.134 274.140 C 222.134 274.794,222.354 275.174,222.732 275.174 C 223.064 275.174,223.330 275.529,223.330 275.972 C 223.330 276.415,223.596 276.770,223.928 276.770 C 224.257 276.770,224.526 277.039,224.526 277.368 C 224.526 277.700,224.881 277.966,225.324 277.966 C 225.856 277.966,226.122 278.232,226.122 278.764 C 226.122 279.207,226.388 279.561,226.720 279.561 C 227.049 279.561,227.318 279.831,227.318 280.160 C 227.318 280.489,227.573 280.758,227.885 280.758 C 228.196 280.758,228.566 281.281,228.707 281.921 C 228.847 282.561,229.220 283.183,229.536 283.304 C 229.851 283.425,230.110 283.799,230.110 284.135 C 230.110 284.471,230.379 284.746,230.708 284.746 C 231.037 284.746,231.306 285.015,231.306 285.344 C 231.306 285.673,231.554 285.942,231.858 285.942 C 232.161 285.942,232.503 286.301,232.618 286.740 C 232.733 287.178,233.113 287.537,233.462 287.537 C 233.812 287.537,234.098 287.807,234.098 288.136 C 234.098 288.465,234.367 288.734,234.696 288.734 C 235.068 288.734,235.294 289.110,235.294 289.727 C 235.294 290.289,235.641 290.938,236.092 291.219 C 236.530 291.493,236.889 291.943,236.889 292.220 C 236.889 292.496,237.159 292.722,237.488 292.722 C 237.817 292.722,238.086 292.991,238.086 293.320 C 238.086 293.649,238.355 293.918,238.684 293.918 C 239.016 293.918,239.282 294.273,239.282 294.716 C 239.282 295.166,239.548 295.513,239.893 295.513 C 240.229 295.513,240.607 295.783,240.733 296.112 C 240.859 296.441,241.213 296.710,241.518 296.710 C 241.842 296.710,242.074 297.118,242.074 297.686 C 242.074 298.702,243.624 300.698,244.413 300.698 C 244.662 300.698,244.865 300.973,244.865 301.309 C 244.865 301.645,245.135 302.023,245.464 302.149 C 245.793 302.275,246.062 302.628,246.062 302.934 C 246.062 303.240,246.331 303.490,246.660 303.490 C 246.989 303.490,247.258 303.759,247.258 304.088 C 247.258 304.420,247.613 304.686,248.056 304.686 C 248.670 304.686,248.853 304.952,248.853 305.840 C 248.853 306.497,249.111 307.092,249.452 307.223 C 249.781 307.349,250.050 307.727,250.050 308.063 C 250.050 308.399,250.319 308.674,250.648 308.674 C 250.977 308.674,251.246 308.960,251.246 309.310 C 251.246 309.659,251.605 310.039,252.044 310.154 C 252.483 310.268,252.841 310.610,252.841 310.914 C 252.841 311.217,253.111 311.466,253.440 311.466 C 253.769 311.466,254.038 311.735,254.038 312.064 C 254.038 312.393,254.307 312.662,254.636 312.662 C 254.968 312.662,255.234 313.017,255.234 313.460 C 255.234 313.898,255.593 314.616,256.032 315.055 C 256.471 315.494,256.830 316.032,256.830 316.251 C 256.830 316.471,257.099 316.650,257.428 316.650 C 257.757 316.650,258.026 316.925,258.026 317.261 C 258.026 317.597,258.295 317.975,258.624 318.101 C 258.953 318.227,259.222 318.581,259.222 318.886 C 259.222 319.192,259.581 319.442,260.020 319.442 C 260.463 319.442,260.818 319.708,260.818 320.040 C 260.818 320.369,261.087 320.638,261.416 320.638 C 261.745 320.638,262.014 320.984,262.014 321.407 C 262.014 321.830,262.248 322.413,262.535 322.703 C 262.821 322.993,263.175 323.544,263.320 323.928 C 263.465 324.312,263.859 324.626,264.195 324.626 C 264.540 324.626,264.806 324.973,264.806 325.424 C 264.806 325.867,265.071 326.221,265.404 326.221 C 265.733 326.221,266.002 326.491,266.002 326.820 C 266.002 327.149,266.271 327.418,266.600 327.418 C 266.929 327.418,267.198 327.687,267.198 328.016 C 267.198 328.348,267.553 328.614,267.996 328.614 C 268.584 328.614,268.794 328.880,268.794 329.624 C 268.794 330.179,269.063 330.737,269.392 330.863 C 269.721 330.989,269.990 331.432,269.990 331.847 C 269.990 332.262,270.259 332.602,270.588 332.602 C 270.917 332.602,271.186 332.888,271.186 333.238 C 271.186 333.587,271.545 333.967,271.984 334.082 C 272.423 334.197,272.782 334.539,272.782 334.842 C 272.782 335.146,273.051 335.394,273.380 335.394 C 273.709 335.394,273.978 335.663,273.978 335.992 C 273.978 336.321,274.247 336.590,274.576 336.590 C 274.905 336.590,275.174 336.910,275.174 337.300 C 275.174 337.690,275.533 338.268,275.972 338.584 C 276.411 338.900,276.770 339.478,276.770 339.869 C 276.770 340.259,277.039 340.578,277.368 340.578 C 277.697 340.578,277.969 340.803,277.973 341.077 C 277.981 341.685,279.703 343.370,280.315 343.370 C 280.559 343.370,280.758 343.729,280.758 344.167 C 280.758 344.611,281.024 344.965,281.356 344.965 C 281.685 344.965,281.954 345.234,281.954 345.563 C 281.954 345.892,282.209 346.162,282.521 346.162 C 282.832 346.162,283.205 346.700,283.350 347.358 C 283.494 348.016,283.868 348.554,284.179 348.554 C 284.491 348.554,284.746 348.913,284.746 349.352 C 284.746 349.795,285.012 350.150,285.344 350.150 C 285.673 350.150,285.942 350.419,285.942 350.748 C 285.942 351.080,286.297 351.346,286.740 351.346 C 287.272 351.346,287.537 351.612,287.537 352.144 C 287.537 352.587,287.803 352.941,288.136 352.941 C 288.465 352.941,288.734 353.210,288.734 353.539 C 288.734 353.868,289.003 354.138,289.332 354.138 C 289.710 354.138,289.930 354.518,289.930 355.172 C 289.930 355.871,290.189 356.274,290.728 356.415 C 291.169 356.530,291.525 356.959,291.525 357.375 C 291.525 357.788,291.795 358.126,292.124 358.126 C 292.453 358.126,292.722 358.395,292.722 358.724 C 292.722 359.053,292.991 359.322,293.320 359.322 C 293.649 359.322,293.918 359.608,293.918 359.958 C 293.918 360.307,294.277 360.687,294.716 360.802 C 295.155 360.916,295.513 361.259,295.513 361.562 C 295.513 361.865,295.783 362.114,296.112 362.114 C 296.510 362.114,296.710 362.512,296.710 363.310 C 296.710 364.108,296.909 364.506,297.308 364.506 C 297.637 364.506,297.906 364.792,297.906 365.142 C 297.906 365.492,298.265 365.871,298.704 365.986 C 299.143 366.101,299.501 366.443,299.501 366.746 C 299.501 367.050,299.771 367.298,300.100 367.298 C 300.432 367.298,300.698 367.653,300.698 368.096 C 300.698 368.539,300.964 368.893,301.296 368.893 C 301.625 368.893,301.894 369.163,301.894 369.492 C 301.894 369.824,302.249 370.090,302.692 370.090 C 303.306 370.090,303.490 370.356,303.490 371.243 C 303.490 371.901,303.747 372.496,304.088 372.627 C 304.417 372.753,304.686 373.131,304.686 373.467 C 304.686 373.803,304.955 374.078,305.284 374.078 C 305.613 374.078,305.882 374.347,305.882 374.676 C 305.882 375.008,306.237 375.274,306.680 375.274 C 307.212 375.274,307.478 375.540,307.478 376.072 C 307.478 376.515,307.743 376.869,308.076 376.869 C 308.405 376.869,308.674 377.139,308.674 377.468 C 308.674 377.797,308.929 378.066,309.240 378.066 C 309.552 378.066,309.925 378.604,310.070 379.262 C 310.214 379.920,310.587 380.459,310.899 380.459 C 311.211 380.459,311.466 380.818,311.466 381.256 C 311.466 381.699,311.731 382.054,312.064 382.054 C 312.393 382.054,312.665 382.278,312.669 382.552 C 312.677 383.160,314.399 384.845,315.011 384.845 C 315.255 384.845,315.454 385.115,315.454 385.444 C 315.454 385.773,315.723 386.042,316.052 386.042 C 316.384 386.042,316.650 386.396,316.650 386.839 C 316.650 387.278,316.900 387.637,317.206 387.637 C 317.511 387.637,317.864 387.906,317.991 388.235 C 318.117 388.564,318.495 388.833,318.831 388.833 C 319.167 388.833,319.442 389.103,319.442 389.432 C 319.442 389.761,319.690 390.030,319.993 390.030 C 320.297 390.030,320.639 390.389,320.754 390.828 C 320.868 391.266,321.248 391.625,321.598 391.625 C 321.947 391.625,322.233 391.894,322.233 392.223 C 322.233 392.622,322.632 392.822,323.430 392.822 C 324.227 392.822,324.626 393.021,324.626 393.420 C 324.626 393.752,324.981 394.018,325.424 394.018 C 325.873 394.018,326.221 394.284,326.221 394.626 C 326.221 394.980,326.711 395.332,327.392 395.468 C 328.036 395.597,328.659 395.952,328.776 396.256 C 328.892 396.561,329.510 396.810,330.148 396.810 C 330.786 396.810,331.532 397.079,331.805 397.408 C 332.133 397.804,333.026 398.006,334.446 398.006 C 335.625 398.006,336.590 398.185,336.590 398.405 C 336.590 398.664,342.173 398.804,352.542 398.804 C 362.911 398.804,368.495 398.664,368.495 398.405 C 368.495 398.180,369.624 398.006,371.087 398.006 C 373.125 398.006,373.679 397.878,373.679 397.408 C 373.679 396.990,374.100 396.810,375.075 396.810 C 376.050 396.810,376.471 396.629,376.471 396.211 C 376.471 395.809,376.874 395.613,377.704 395.613 C 378.603 395.613,378.995 395.396,379.147 394.816 C 379.262 394.374,379.691 394.018,380.106 394.018 C 380.519 394.018,380.857 393.749,380.857 393.420 C 380.857 393.021,381.256 392.822,382.054 392.822 C 382.807 392.822,383.250 392.617,383.250 392.270 C 383.250 391.966,383.609 391.624,384.048 391.510 C 384.487 391.395,384.845 391.015,384.845 390.665 C 384.845 390.316,385.115 390.030,385.444 390.030 C 385.773 390.030,386.042 389.761,386.042 389.432 C 386.042 389.103,386.311 388.833,386.640 388.833 C 386.969 388.833,387.238 388.564,387.238 388.235 C 387.238 387.906,387.442 387.637,387.691 387.637 C 388.223 387.637,390.030 385.773,390.030 385.224 C 390.030 385.016,390.299 384.845,390.628 384.845 C 390.957 384.845,391.226 384.597,391.226 384.294 C 391.226 383.990,391.585 383.648,392.024 383.533 C 392.463 383.419,392.822 383.039,392.822 382.689 C 392.822 382.340,393.091 382.054,393.420 382.054 C 393.819 382.054,394.018 381.655,394.018 380.857 C 394.018 380.060,394.217 379.661,394.616 379.661 C 394.948 379.661,395.214 379.307,395.214 378.863 C 395.214 378.425,395.475 378.066,395.794 378.066 C 396.140 378.066,396.479 377.511,396.631 376.698 C 396.772 375.945,397.140 375.233,397.447 375.115 C 397.813 374.975,398.006 374.275,398.006 373.093 C 398.006 371.753,398.160 371.286,398.604 371.286 C 399.056 371.286,399.202 370.799,399.202 369.292 C 399.202 368.195,399.382 367.298,399.601 367.298 C 399.866 367.298,400.000 311.067,400.000 199.402 C 400.000 87.737,399.866 31.505,399.601 31.505 C 399.382 31.505,399.202 30.608,399.202 29.511 C 399.202 28.005,399.056 27.517,398.604 27.517 C 398.160 27.517,398.006 27.051,398.006 25.710 C 398.006 24.528,397.813 23.829,397.447 23.689 C 397.140 23.571,396.772 22.858,396.631 22.106 C 396.479 21.292,396.140 20.738,395.794 20.738 C 395.475 20.738,395.214 20.469,395.214 20.140 C 395.214 19.811,394.945 19.541,394.616 19.541 C 394.198 19.541,394.018 19.120,394.018 18.146 C 394.018 17.171,393.838 16.750,393.420 16.750 C 393.091 16.750,392.822 16.493,392.822 16.178 C 392.822 15.864,392.463 15.493,392.024 15.354 C 391.585 15.215,391.226 14.844,391.226 14.529 C 391.226 14.215,390.957 13.958,390.628 13.958 C 390.299 13.958,390.030 13.788,390.030 13.580 C 390.030 13.031,388.223 11.167,387.691 11.167 C 387.442 11.167,387.238 10.897,387.238 10.568 C 387.238 10.239,386.969 9.970,386.640 9.970 C 386.311 9.970,386.042 9.701,386.042 9.372 C 386.042 9.043,385.794 8.774,385.490 8.774 C 385.187 8.774,384.845 8.415,384.730 7.976 C 384.615 7.537,384.235 7.178,383.886 7.178 C 383.536 7.178,383.250 6.909,383.250 6.580 C 383.250 6.181,382.851 5.982,382.054 5.982 C 381.256 5.982,380.857 5.783,380.857 5.384 C 380.857 5.055,380.519 4.786,380.106 4.786 C 379.691 4.786,379.262 4.429,379.147 3.988 C 378.995 3.407,378.603 3.190,377.704 3.190 C 376.874 3.190,376.471 2.995,376.471 2.592 C 376.471 2.174,376.050 1.994,375.075 1.994 C 374.100 1.994,373.679 1.814,373.679 1.396 C 373.679 0.925,373.125 0.798,371.087 0.798 C 369.624 0.798,368.495 0.624,368.495 0.399 C 368.495 0.142,364.241 0.000,356.530 0.000 C 348.820 0.000,344.566 0.142,344.566 0.399 C 344.566 0.618,343.669 0.798,342.572 0.798 C 341.066 0.798,340.578 0.944,340.578 1.396 C 340.578 1.795,340.179 1.994,339.382 1.994 C 338.584 1.994,338.185 2.193,338.185 2.592 C 338.185 3.010,337.764 3.190,336.790 3.190 C 335.660 3.190,335.394 3.342,335.394 3.988 C 335.394 4.634,335.128 4.786,333.998 4.786 C 333.023 4.786,332.602 4.966,332.602 5.384 C 332.602 5.713,332.333 5.982,332.004 5.982 C 331.675 5.982,331.406 6.251,331.406 6.580 C 331.406 6.909,331.062 7.178,330.641 7.178 C 329.452 7.178,328.614 7.608,328.614 8.218 C 328.614 8.524,328.345 8.774,328.016 8.774 C 327.687 8.774,327.418 9.043,327.418 9.372 C 327.418 9.701,327.248 9.970,327.039 9.970 C 326.490 9.970,324.626 11.777,324.626 12.309 C 324.626 12.558,324.357 12.762,324.028 12.762 C 323.699 12.762,323.430 13.031,323.430 13.360 C 323.430 13.689,323.173 13.958,322.858 13.958 C 322.544 13.958,322.178 14.300,322.046 14.719 C 321.913 15.137,321.542 15.580,321.221 15.703 C 320.900 15.826,320.638 16.381,320.638 16.937 C 320.638 17.568,320.414 17.946,320.040 17.946 C 319.708 17.946,319.442 18.301,319.442 18.744 C 319.442 19.182,319.187 19.541,318.875 19.541 C 318.564 19.541,318.190 20.080,318.046 20.738 C 317.901 21.396,317.528 21.934,317.217 21.934 C 316.905 21.934,316.650 22.293,316.650 22.732 C 316.650 23.175,316.384 23.529,316.052 23.529 C 315.658 23.529,315.454 23.923,315.454 24.679 C 315.454 25.494,315.221 25.890,314.656 26.038 C 314.217 26.153,313.858 26.532,313.858 26.882 C 313.858 27.231,313.589 27.517,313.260 27.517 C 312.861 27.517,312.662 27.916,312.662 28.714 C 312.662 29.511,312.463 29.910,312.064 29.910 C 311.735 29.910,311.466 30.248,311.466 30.661 C 311.466 31.077,311.109 31.506,310.668 31.621 C 310.129 31.762,309.870 32.165,309.870 32.864 C 309.870 33.518,309.650 33.898,309.272 33.898 C 308.940 33.898,308.674 34.253,308.674 34.696 C 308.674 35.139,308.408 35.494,308.076 35.494 C 307.682 35.494,307.478 35.887,307.478 36.643 C 307.478 37.458,307.245 37.854,306.680 38.002 C 306.241 38.117,305.882 38.496,305.882 38.846 C 305.882 39.196,305.613 39.482,305.284 39.482 C 304.885 39.482,304.686 39.880,304.686 40.678 C 304.686 41.476,304.487 41.874,304.088 41.874 C 303.759 41.874,303.490 42.212,303.490 42.625 C 303.490 43.041,303.133 43.470,302.692 43.585 C 302.153 43.726,301.894 44.129,301.894 44.828 C 301.894 45.482,301.674 45.862,301.296 45.862 C 300.964 45.862,300.698 46.217,300.698 46.660 C 300.698 47.103,300.432 47.458,300.100 47.458 C 299.771 47.458,299.501 47.734,299.501 48.073 C 299.501 48.411,299.143 49.073,298.704 49.544 C 298.265 50.014,297.906 50.635,297.906 50.923 C 297.906 51.210,297.637 51.446,297.308 51.446 C 296.979 51.446,296.710 51.783,296.710 52.194 C 296.710 52.606,296.441 53.167,296.112 53.440 C 295.783 53.713,295.513 54.273,295.513 54.685 C 295.513 55.168,295.230 55.434,294.716 55.434 C 294.257 55.434,293.918 55.700,293.918 56.060 C 293.918 56.405,293.649 56.956,293.320 57.285 C 292.991 57.614,292.722 58.230,292.722 58.653 C 292.722 59.076,292.453 59.422,292.124 59.422 C 291.795 59.422,291.525 59.651,291.525 59.931 C 291.525 60.212,291.167 60.748,290.728 61.124 C 290.289 61.499,289.930 62.167,289.930 62.608 C 289.930 63.055,289.665 63.410,289.332 63.410 C 289.000 63.410,288.734 63.764,288.734 64.207 C 288.734 64.650,288.468 65.005,288.136 65.005 C 287.737 65.005,287.537 65.404,287.537 66.201 C 287.537 67.132,287.360 67.398,286.740 67.398 C 286.289 67.398,285.942 67.664,285.942 68.009 C 285.942 68.344,285.673 68.723,285.344 68.849 C 285.003 68.980,284.746 69.574,284.746 70.232 C 284.746 70.992,284.541 71.386,284.148 71.386 C 283.819 71.386,283.549 71.643,283.549 71.957 C 283.549 72.271,283.190 72.642,282.752 72.782 C 282.193 72.959,281.954 73.385,281.954 74.204 C 281.954 74.978,281.752 75.374,281.356 75.374 C 281.027 75.374,280.758 75.649,280.758 75.985 C 280.758 76.320,280.500 76.694,280.184 76.816 C 279.868 76.937,279.495 77.559,279.355 78.199 C 279.214 78.839,278.844 79.362,278.533 79.362 C 278.221 79.362,277.966 79.637,277.966 79.973 C 277.966 80.309,277.697 80.687,277.368 80.813 C 277.027 80.944,276.770 81.539,276.770 82.196 C 276.770 82.831,276.566 83.350,276.317 83.350 C 275.528 83.350,273.978 85.346,273.978 86.362 C 273.978 86.964,273.749 87.338,273.380 87.338 C 273.051 87.338,272.782 87.567,272.782 87.848 C 272.782 88.128,272.423 88.664,271.984 89.040 C 271.545 89.416,271.186 90.084,271.186 90.525 C 271.186 90.971,270.922 91.326,270.588 91.326 C 270.256 91.326,269.990 91.681,269.990 92.124 C 269.990 92.567,269.724 92.921,269.392 92.921 C 268.998 92.921,268.794 93.315,268.794 94.071 C 268.794 94.886,268.561 95.282,267.996 95.430 C 267.557 95.544,267.198 95.924,267.198 96.274 C 267.198 96.623,266.929 96.909,266.600 96.909 C 266.201 96.909,266.002 97.308,266.002 98.106 C 266.002 98.903,265.803 99.302,265.404 99.302 C 265.075 99.302,264.806 99.640,264.806 100.053 C 264.806 100.469,264.449 100.897,264.008 101.013 C 263.469 101.154,263.210 101.557,263.210 102.256 C 263.210 102.909,262.990 103.290,262.612 103.290 C 262.280 103.290,262.014 103.645,262.014 104.088 C 262.014 104.531,261.748 104.885,261.416 104.885 C 261.022 104.885,260.818 105.279,260.818 106.035 C 260.818 106.850,260.585 107.246,260.020 107.394 C 259.581 107.508,259.222 107.888,259.222 108.238 C 259.222 108.587,258.953 108.873,258.624 108.873 C 258.295 108.873,258.026 109.210,258.026 109.622 C 258.026 110.034,257.757 110.594,257.428 110.867 C 257.099 111.140,256.830 111.701,256.830 112.113 C 256.830 112.596,256.546 112.861,256.032 112.861 C 255.573 112.861,255.234 113.127,255.234 113.488 C 255.234 113.833,254.965 114.384,254.636 114.713 C 254.307 115.042,254.038 115.657,254.038 116.080 C 254.038 116.503,253.769 116.849,253.440 116.849 C 253.111 116.849,252.841 117.029,252.841 117.248 C 252.841 117.468,252.483 118.006,252.044 118.445 C 251.605 118.883,251.246 119.601,251.246 120.040 C 251.246 120.483,250.980 120.837,250.648 120.837 C 250.319 120.837,250.050 121.087,250.050 121.393 C 250.050 121.699,249.781 122.052,249.452 122.178 C 249.102 122.312,248.853 122.910,248.853 123.617 C 248.853 124.560,248.678 124.826,248.056 124.826 C 247.617 124.826,247.258 125.076,247.258 125.381 C 247.258 125.687,246.989 126.040,246.660 126.166 C 246.310 126.300,246.062 126.898,246.062 127.605 C 246.062 128.413,245.864 128.814,245.464 128.814 C 245.135 128.814,244.865 129.083,244.865 129.412 C 244.865 129.741,244.615 130.010,244.310 130.010 C 243.700 130.010,243.270 130.848,243.270 132.037 C 243.270 132.457,243.001 132.802,242.672 132.802 C 242.343 132.802,242.074 133.071,242.074 133.400 C 242.074 133.729,241.825 133.998,241.520 133.998 C 241.203 133.998,240.854 134.594,240.704 135.394 C 240.548 136.229,240.210 136.790,239.862 136.790 C 239.543 136.790,239.282 137.040,239.282 137.345 C 239.282 137.651,239.013 138.004,238.684 138.130 C 238.334 138.264,238.086 138.862,238.086 139.569 C 238.086 140.266,237.875 140.781,237.587 140.785 C 236.729 140.796,235.294 142.637,235.294 143.725 C 235.294 144.384,235.075 144.766,234.696 144.766 C 233.763 144.766,233.848 151.886,234.801 153.641 C 235.750 155.387,236.956 156.730,237.576 156.730 C 237.856 156.730,238.086 156.999,238.086 157.328 C 238.086 157.746,238.507 157.926,239.482 157.926 C 240.611 157.926,240.877 158.078,240.877 158.724 C 240.877 159.940,247.788 159.940,248.547 158.724 C 248.850 158.239,249.477 157.926,250.146 157.926 C 250.858 157.926,251.246 157.715,251.246 157.328 C 251.246 156.999,251.471 156.727,251.745 156.723 C 252.353 156.715,254.038 154.993,254.038 154.380 C 254.038 154.137,254.307 153.938,254.636 153.938 C 254.965 153.938,255.234 153.669,255.234 153.340 C 255.234 153.008,255.589 152.742,256.032 152.742 C 256.475 152.742,256.830 152.476,256.830 152.144 C 256.830 151.815,257.078 151.545,257.381 151.545 C 257.685 151.545,258.027 151.186,258.141 150.748 C 258.282 150.209,258.685 149.950,259.384 149.950 C 260.038 149.950,260.419 149.730,260.419 149.352 C 260.419 149.023,260.643 148.751,260.917 148.747 C 261.525 148.738,263.210 147.017,263.210 146.404 C 263.210 146.161,263.569 145.962,264.008 145.962 C 264.451 145.962,264.806 145.696,264.806 145.364 C 264.806 145.035,265.075 144.766,265.404 144.766 C 265.733 144.766,266.002 144.497,266.002 144.167 C 266.002 143.838,266.271 143.569,266.600 143.569 C 266.933 143.569,267.198 143.215,267.198 142.772 C 267.198 142.250,267.464 141.974,267.968 141.974 C 268.391 141.974,268.974 141.740,269.264 141.453 C 269.553 141.167,270.105 140.814,270.489 140.668 C 270.872 140.523,271.186 140.129,271.186 139.793 C 271.186 139.448,271.534 139.182,271.984 139.182 C 272.427 139.182,272.782 138.917,272.782 138.584 C 272.782 138.255,273.051 137.986,273.380 137.986 C 273.709 137.986,273.978 137.717,273.978 137.388 C 273.978 137.059,274.247 136.790,274.576 136.790 C 274.909 136.790,275.174 136.435,275.174 135.992 C 275.174 135.460,275.440 135.194,275.972 135.194 C 276.415 135.194,276.770 134.929,276.770 134.596 C 276.770 134.267,277.039 133.998,277.368 133.998 C 277.697 133.998,277.966 133.729,277.966 133.400 C 277.966 133.066,278.321 132.802,278.768 132.802 C 279.208 132.802,279.876 132.443,280.252 132.004 C 280.628 131.565,281.164 131.206,281.445 131.206 C 281.725 131.206,281.954 130.937,281.954 130.608 C 281.954 130.279,282.223 130.010,282.552 130.010 C 282.881 130.010,283.151 129.762,283.151 129.458 C 283.151 129.155,283.509 128.813,283.948 128.698 C 284.387 128.583,284.746 128.203,284.746 127.854 C 284.746 127.504,285.015 127.218,285.344 127.218 C 285.673 127.218,285.942 126.949,285.942 126.620 C 285.942 126.291,286.211 126.022,286.540 126.022 C 286.869 126.022,287.139 125.753,287.139 125.424 C 287.139 125.091,287.493 124.826,287.936 124.826 C 288.468 124.826,288.734 124.560,288.734 124.028 C 288.734 123.408,289.000 123.230,289.930 123.230 C 290.728 123.230,291.127 123.031,291.127 122.632 C 291.127 122.303,291.351 122.031,291.625 122.027 C 292.233 122.019,293.918 120.297,293.918 119.685 C 293.918 119.441,294.277 119.242,294.716 119.242 C 295.159 119.242,295.513 118.976,295.513 118.644 C 295.513 118.315,295.783 118.046,296.112 118.046 C 296.441 118.046,296.710 117.777,296.710 117.448 C 296.710 117.119,296.979 116.849,297.308 116.849 C 297.640 116.849,297.906 116.495,297.906 116.052 C 297.906 115.537,298.172 115.254,298.655 115.254 C 299.067 115.254,299.627 114.985,299.900 114.656 C 300.173 114.327,300.600 114.058,300.849 114.058 C 301.098 114.058,301.878 113.430,302.583 112.662 C 303.287 111.894,304.049 111.266,304.275 111.266 C 304.501 111.266,304.686 110.997,304.686 110.668 C 304.686 110.339,304.955 110.070,305.284 110.070 C 305.613 110.070,305.882 109.822,305.882 109.518 C 305.882 109.215,306.241 108.873,306.680 108.758 C 307.119 108.643,307.478 108.263,307.478 107.914 C 307.478 107.564,307.747 107.278,308.076 107.278 C 308.405 107.278,308.674 107.009,308.674 106.680 C 308.674 106.351,309.005 106.082,309.411 106.082 C 309.816 106.082,310.561 105.723,311.067 105.284 C 311.573 104.845,312.138 104.487,312.324 104.487 C 312.510 104.487,312.662 104.217,312.662 103.888 C 312.662 103.559,312.931 103.290,313.260 103.290 C 313.589 103.290,313.858 103.021,313.858 102.692 C 313.858 102.363,314.083 102.091,314.357 102.087 C 314.965 102.078,316.650 100.357,316.650 99.744 C 316.650 99.501,316.919 99.302,317.248 99.302 C 317.577 99.302,317.846 99.033,317.846 98.704 C 317.846 98.372,318.201 98.106,318.644 98.106 C 319.176 98.106,319.442 97.840,319.442 97.308 C 319.442 96.688,319.708 96.510,320.638 96.510 C 321.436 96.510,321.834 96.311,321.834 95.912 C 321.834 95.583,322.109 95.314,322.445 95.314 C 322.781 95.314,323.159 95.045,323.285 94.716 C 323.412 94.387,323.765 94.118,324.071 94.118 C 324.376 94.118,324.626 93.759,324.626 93.320 C 324.626 92.877,324.892 92.522,325.224 92.522 C 325.553 92.522,325.823 92.253,325.823 91.924 C 325.823 91.592,326.177 91.326,326.620 91.326 C 327.063 91.326,327.418 91.060,327.418 90.728 C 327.418 90.399,327.687 90.130,328.016 90.130 C 328.348 90.130,328.614 89.775,328.614 89.332 C 328.614 88.744,328.880 88.534,329.624 88.534 C 330.179 88.534,330.737 88.265,330.863 87.936 C 330.989 87.607,331.348 87.338,331.660 87.338 C 331.973 87.338,332.332 87.069,332.458 86.740 C 332.584 86.411,332.925 86.142,333.216 86.142 C 333.507 86.142,333.859 85.783,333.998 85.344 C 334.327 84.309,335.394 84.309,335.394 85.344 C 335.394 85.787,335.660 86.142,335.992 86.142 C 336.522 86.142,336.590 98.859,336.590 198.205 C 336.590 297.552,336.522 310.269,335.992 310.269 C 335.663 310.269,335.394 310.538,335.394 310.867 C 335.394 311.285,334.973 311.466,333.998 311.466 C 332.783 311.466,332.602 311.339,332.602 310.489 C 332.602 309.474,331.052 307.478,330.263 307.478 C 330.014 307.478,329.811 307.208,329.811 306.879 C 329.811 306.550,329.541 306.281,329.212 306.281 C 328.880 306.281,328.614 305.927,328.614 305.484 C 328.614 305.040,328.348 304.686,328.016 304.686 C 327.687 304.686,327.418 304.417,327.418 304.088 C 327.418 303.755,327.063 303.490,326.620 303.490 C 326.006 303.490,325.823 303.224,325.823 302.336 C 325.823 301.678,325.565 301.083,325.224 300.952 C 324.895 300.826,324.626 300.448,324.626 300.112 C 324.626 299.776,324.357 299.501,324.028 299.501 C 323.699 299.501,323.430 299.232,323.430 298.903 C 323.430 298.571,323.075 298.305,322.632 298.305 C 322.100 298.305,321.834 298.039,321.834 297.507 C 321.834 297.064,321.569 296.710,321.236 296.710 C 320.907 296.710,320.638 296.441,320.638 296.112 C 320.638 295.783,320.369 295.513,320.040 295.513 C 319.708 295.513,319.442 295.159,319.442 294.716 C 319.442 294.277,319.083 293.559,318.644 293.121 C 318.205 292.682,317.846 292.144,317.846 291.924 C 317.846 291.705,317.577 291.525,317.248 291.525 C 316.919 291.525,316.650 291.251,316.650 290.915 C 316.650 290.579,316.381 290.201,316.052 290.074 C 315.723 289.948,315.454 289.595,315.454 289.289 C 315.454 288.984,315.095 288.734,314.656 288.734 C 314.213 288.734,313.858 288.468,313.858 288.136 C 313.858 287.807,313.589 287.537,313.260 287.537 C 312.924 287.537,312.662 287.181,312.662 286.724 C 312.662 285.723,311.109 283.549,310.394 283.549 C 310.106 283.549,309.870 283.190,309.870 282.752 C 309.870 282.309,309.605 281.954,309.272 281.954 C 308.943 281.954,308.674 281.685,308.674 281.356 C 308.674 281.027,308.405 280.758,308.076 280.758 C 307.747 280.758,307.478 280.489,307.478 280.160 C 307.478 279.827,307.123 279.561,306.680 279.561 C 306.092 279.561,305.882 279.295,305.882 278.552 C 305.882 277.997,305.613 277.439,305.284 277.313 C 304.955 277.186,304.686 276.743,304.686 276.328 C 304.686 275.913,304.429 275.573,304.115 275.573 C 303.800 275.573,303.429 275.214,303.290 274.776 C 303.151 274.337,302.780 273.978,302.466 273.978 C 302.151 273.978,301.894 273.709,301.894 273.380 C 301.894 273.051,301.625 272.782,301.296 272.782 C 300.967 272.782,300.698 272.512,300.698 272.183 C 300.698 271.854,300.443 271.585,300.131 271.585 C 299.820 271.585,299.450 271.062,299.309 270.422 C 299.169 269.782,298.796 269.160,298.480 269.039 C 298.165 268.918,297.906 268.544,297.906 268.208 C 297.906 267.872,297.637 267.597,297.308 267.597 C 296.979 267.597,296.707 267.373,296.703 267.099 C 296.695 266.491,294.973 264.806,294.361 264.806 C 294.117 264.806,293.918 264.536,293.918 264.207 C 293.918 263.878,293.649 263.609,293.320 263.609 C 292.991 263.609,292.722 263.340,292.722 263.011 C 292.722 262.682,292.363 262.054,291.924 261.615 C 291.486 261.176,291.127 260.548,291.127 260.219 C 291.127 259.890,290.857 259.621,290.528 259.621 C 290.196 259.621,289.930 259.267,289.930 258.824 C 289.930 258.380,289.664 258.026,289.332 258.026 C 289.003 258.026,288.734 257.757,288.734 257.428 C 288.734 257.095,288.379 256.830,287.936 256.830 C 287.498 256.830,287.139 256.580,287.139 256.274 C 287.139 255.968,286.869 255.615,286.540 255.489 C 286.211 255.363,285.942 254.985,285.942 254.649 C 285.942 254.313,285.673 254.038,285.344 254.038 C 284.966 254.038,284.746 253.657,284.746 253.004 C 284.746 252.305,284.487 251.902,283.948 251.761 C 283.507 251.645,283.151 251.217,283.151 250.801 C 283.151 250.388,282.881 250.050,282.552 250.050 C 282.223 250.050,281.954 249.781,281.954 249.452 C 281.954 249.123,281.706 248.853,281.402 248.853 C 281.099 248.853,280.757 248.495,280.642 248.056 C 280.527 247.617,280.148 247.258,279.798 247.258 C 279.449 247.258,279.163 246.989,279.163 246.660 C 279.163 246.331,278.893 246.062,278.564 246.062 C 278.166 246.062,277.966 245.663,277.966 244.865 C 277.966 244.113,277.762 243.669,277.414 243.669 C 277.111 243.669,276.769 243.310,276.654 242.871 C 276.539 242.433,276.160 242.074,275.810 242.074 C 275.460 242.074,275.174 241.805,275.174 241.476 C 275.174 241.147,274.905 240.877,274.576 240.877 C 274.244 240.877,273.978 240.523,273.978 240.080 C 273.978 239.637,273.712 239.282,273.380 239.282 C 273.051 239.282,272.782 239.013,272.782 238.684 C 272.782 238.352,272.427 238.086,271.984 238.086 C 271.370 238.086,271.186 237.820,271.186 236.932 C 271.186 236.274,270.929 235.680,270.588 235.549 C 270.259 235.422,269.990 235.044,269.990 234.708 C 269.990 234.373,269.721 234.098,269.392 234.098 C 269.063 234.098,268.794 233.829,268.794 233.500 C 268.794 233.167,268.439 232.901,267.996 232.901 C 267.464 232.901,267.198 232.635,267.198 232.104 C 267.198 231.661,266.933 231.306,266.600 231.306 C 266.271 231.306,266.002 231.037,266.002 230.708 C 266.002 230.379,265.747 230.110,265.435 230.110 C 265.124 230.110,264.754 229.586,264.613 228.947 C 264.473 228.307,264.100 227.684,263.784 227.563 C 263.469 227.442,263.210 227.068,263.210 226.732 C 263.210 226.396,262.941 226.122,262.612 226.122 C 262.283 226.122,262.014 225.852,262.014 225.523 C 262.014 225.194,261.766 224.925,261.462 224.925 C 261.159 224.925,260.817 224.566,260.702 224.128 C 260.587 223.689,260.207 223.330,259.858 223.330 C 259.508 223.330,259.222 223.061,259.222 222.732 C 259.222 222.403,258.953 222.134,258.624 222.134 C 258.250 222.134,258.026 221.756,258.026 221.124 C 258.026 220.569,257.764 220.014,257.443 219.891 C 257.122 219.768,256.751 219.325,256.618 218.906 C 256.486 218.488,256.120 218.146,255.806 218.146 C 255.491 218.146,255.234 217.876,255.234 217.547 C 255.234 217.218,254.965 216.949,254.636 216.949 C 254.304 216.949,254.038 216.595,254.038 216.152 C 254.038 215.708,253.772 215.354,253.440 215.354 C 253.111 215.354,252.841 215.085,252.841 214.756 C 252.841 214.423,252.487 214.158,252.044 214.158 C 251.457 214.158,251.246 213.892,251.246 213.152 C 251.246 212.480,250.585 211.478,249.252 210.131 C 248.156 209.023,247.258 207.950,247.258 207.747 C 247.258 207.544,246.989 207.378,246.660 207.378 C 246.331 207.378,246.062 207.109,246.062 206.780 C 246.062 206.451,245.793 206.181,245.464 206.181 C 245.135 206.181,244.865 205.940,244.865 205.645 C 244.865 205.350,244.506 204.784,244.068 204.387 C 243.629 203.990,243.270 203.334,243.270 202.929 C 243.270 202.525,243.001 202.193,242.672 202.193 C 242.343 202.193,242.074 201.907,242.074 201.558 C 242.074 201.208,241.715 200.828,241.276 200.714 C 240.837 200.599,240.479 200.257,240.479 199.953 C 240.479 199.650,240.209 199.402,239.880 199.402 C 239.551 199.402,239.282 199.133,239.282 198.804 C 239.282 198.475,239.013 198.205,238.684 198.205 C 238.352 198.205,238.086 197.851,238.086 197.411 C 238.086 196.974,237.727 196.393,237.288 196.119 C 236.849 195.845,236.491 195.305,236.491 194.919 C 236.491 194.533,236.221 194.217,235.892 194.217 C 235.563 194.217,235.294 193.943,235.294 193.607 C 235.294 193.271,235.025 192.893,234.696 192.766 C 234.367 192.640,234.098 192.287,234.098 191.981 C 234.098 191.676,233.739 191.426,233.300 191.426 C 232.857 191.426,232.502 191.160,232.502 190.828 C 232.502 190.499,232.233 190.229,231.904 190.229 C 231.575 190.229,231.306 189.881,231.306 189.455 C 231.306 189.030,231.116 188.563,230.883 188.419 C 230.650 188.276,230.295 187.727,230.095 187.200 C 229.895 186.672,229.457 186.241,229.123 186.241 C 228.780 186.241,228.514 185.893,228.514 185.444 C 228.514 185.001,228.249 184.646,227.916 184.646 C 227.587 184.646,227.318 184.377,227.318 184.048 C 227.318 183.719,227.049 183.450,226.720 183.450 C 226.391 183.450,226.122 183.180,226.122 182.851 C 226.122 182.519,225.767 182.253,225.324 182.253 C 224.807 182.253,224.526 181.987,224.526 181.498 C 224.526 181.083,224.257 180.640,223.928 180.514 C 223.599 180.388,223.330 179.830,223.330 179.275 C 223.330 178.681,223.103 178.265,222.778 178.265 C 222.475 178.265,222.133 177.906,222.018 177.468 C 221.903 177.029,221.523 176.670,221.174 176.670 C 220.824 176.670,220.538 176.401,220.538 176.072 C 220.538 175.743,220.269 175.474,219.940 175.474 C 219.611 175.474,219.342 175.303,219.342 175.095 C 219.342 174.546,217.535 172.682,217.003 172.682 C 216.754 172.682,216.550 172.144,216.550 171.486 C 216.550 170.688,216.351 170.289,215.952 170.289 C 215.623 170.289,215.351 170.065,215.347 169.791 C 215.339 169.183,213.617 167.498,213.005 167.498 C 212.761 167.498,212.562 167.139,212.562 166.700 C 212.562 166.257,212.296 165.902,211.964 165.902 C 211.635 165.902,211.366 165.633,211.366 165.304 C 211.366 164.975,211.111 164.706,210.799 164.706 C 210.488 164.706,210.115 164.167,209.970 163.509 C 209.826 162.851,209.452 162.313,209.141 162.313 C 208.829 162.313,208.574 161.954,208.574 161.515 C 208.574 161.072,208.308 160.718,207.976 160.718 C 207.647 160.718,207.378 160.449,207.378 160.120 C 207.378 159.791,207.130 159.521,206.826 159.521 C 206.523 159.521,206.181 159.163,206.066 158.724 C 205.951 158.285,205.571 157.926,205.222 157.926 C 204.872 157.926,204.586 157.657,204.586 157.328 C 204.586 156.999,204.317 156.730,203.988 156.730 C 203.614 156.730,203.390 156.352,203.390 155.720 C 203.390 155.165,203.127 154.610,202.807 154.487 C 202.486 154.364,202.115 153.921,201.982 153.503 C 201.850 153.084,201.484 152.742,201.170 152.742 C 200.855 152.742,200.598 152.473,200.598 152.144 C 200.598 151.815,200.329 151.545,200.000 151.545 C 199.668 151.545,199.402 151.191,199.402 150.748 C 199.402 150.216,199.136 149.950,198.604 149.950 C 198.161 149.950,197.807 149.684,197.807 149.352 C 197.807 149.023,197.537 148.754,197.208 148.754 C 196.839 148.754,196.610 148.379,196.610 147.777 C 196.610 147.239,196.372 146.656,196.082 146.480 C 195.791 146.305,195.438 145.847,195.296 145.464 C 195.155 145.080,194.765 144.766,194.429 144.766 C 194.093 144.766,193.819 144.497,193.819 144.167 C 193.819 143.838,193.549 143.569,193.220 143.569 C 192.888 143.569,192.622 143.215,192.622 142.772 C 192.622 142.329,192.356 141.974,192.024 141.974 C 191.695 141.974,191.426 141.705,191.426 141.376 C 191.426 141.044,191.071 140.778,190.628 140.778 C 190.008 140.778,189.831 140.512,189.831 139.581 C 189.831 138.784,189.631 138.385,189.232 138.385 C 188.900 138.385,188.634 138.030,188.634 137.587 C 188.634 137.144,188.368 136.790,188.036 136.790 C 187.707 136.790,187.438 136.520,187.438 136.191 C 187.438 135.859,187.083 135.593,186.640 135.593 C 186.108 135.593,185.842 135.327,185.842 134.796 C 185.842 134.352,185.577 133.998,185.244 133.998 C 184.915 133.998,184.646 133.729,184.646 133.400 C 184.646 133.071,184.377 132.802,184.048 132.802 C 183.719 132.802,183.450 132.532,183.450 132.203 C 183.450 131.874,183.091 131.246,182.652 130.808 C 182.213 130.369,181.854 129.741,181.854 129.412 C 181.854 129.083,181.585 128.814,181.256 128.814 C 180.927 128.814,180.658 128.539,180.658 128.203 C 180.658 127.867,180.389 127.489,180.060 127.363 C 179.731 127.236,179.462 126.883,179.462 126.577 C 179.462 126.272,179.103 126.022,178.664 126.022 C 178.221 126.022,177.866 125.756,177.866 125.424 C 177.866 125.095,177.597 124.826,177.268 124.826 C 176.939 124.826,176.670 124.569,176.670 124.255 C 176.670 123.415,174.956 120.874,174.377 120.854 C 174.103 120.845,173.878 120.563,173.878 120.227 C 173.878 119.891,173.609 119.513,173.280 119.386 C 172.951 119.260,172.682 118.907,172.682 118.601 C 172.682 118.296,172.413 118.046,172.084 118.046 C 171.755 118.046,171.486 117.777,171.486 117.448 C 171.486 117.115,171.131 116.849,170.688 116.849 C 170.156 116.849,169.890 116.584,169.890 116.052 C 169.890 115.609,169.624 115.254,169.292 115.254 C 168.918 115.254,168.694 114.876,168.694 114.245 C 168.694 113.689,168.432 113.135,168.111 113.011 C 167.790 112.888,167.419 112.445,167.286 112.027 C 167.154 111.609,166.788 111.266,166.474 111.266 C 166.159 111.266,165.902 110.997,165.902 110.668 C 165.902 110.339,165.633 110.070,165.304 110.070 C 164.975 110.070,164.706 109.801,164.706 109.472 C 164.706 109.143,164.458 108.873,164.154 108.873 C 163.851 108.873,163.509 108.514,163.394 108.076 C 163.279 107.637,162.899 107.278,162.550 107.278 C 162.110 107.278,161.914 106.911,161.914 106.082 C 161.914 105.284,161.715 104.885,161.316 104.885 C 160.987 104.885,160.715 104.661,160.711 104.387 C 160.703 103.779,158.981 102.094,158.369 102.094 C 158.125 102.094,157.926 101.825,157.926 101.496 C 157.926 101.167,157.657 100.897,157.328 100.897 C 156.996 100.897,156.730 100.543,156.730 100.100 C 156.730 99.568,156.464 99.302,155.932 99.302 C 155.312 99.302,155.135 99.036,155.135 98.106 C 155.135 97.308,154.935 96.909,154.536 96.909 C 154.204 96.909,153.938 96.555,153.938 96.112 C 153.938 95.669,153.672 95.314,153.340 95.314 C 153.011 95.314,152.742 95.045,152.742 94.716 C 152.742 94.384,152.387 94.118,151.944 94.118 C 151.494 94.118,151.147 93.852,151.147 93.507 C 151.147 93.171,150.877 92.793,150.548 92.667 C 150.219 92.540,149.950 92.187,149.950 91.882 C 149.950 91.576,149.703 91.326,149.402 91.326 C 149.100 91.326,148.746 90.788,148.614 90.130 C 148.474 89.428,148.123 88.933,147.767 88.933 C 147.424 88.933,147.159 88.585,147.159 88.136 C 147.159 87.692,146.893 87.338,146.560 87.338 C 146.231 87.338,145.962 87.069,145.962 86.740 C 145.962 86.411,145.693 86.142,145.364 86.142 C 145.035 86.142,144.766 85.856,144.766 85.506 C 144.766 85.156,144.407 84.777,143.968 84.662 C 143.529 84.547,143.170 84.205,143.170 83.902 C 143.170 83.598,142.901 83.350,142.572 83.350 C 142.203 83.350,141.974 82.976,141.974 82.373 C 141.974 81.835,141.736 81.252,141.445 81.077 C 141.155 80.901,140.801 80.444,140.660 80.060 C 140.519 79.676,140.129 79.362,139.793 79.362 C 139.457 79.362,139.182 79.093,139.182 78.764 C 139.182 78.435,138.913 78.166,138.584 78.166 C 138.252 78.166,137.986 77.811,137.986 77.368 C 137.986 76.925,137.720 76.570,137.388 76.570 C 137.059 76.570,136.790 76.301,136.790 75.972 C 136.790 75.640,136.435 75.374,135.992 75.374 C 135.372 75.374,135.194 75.108,135.194 74.177 C 135.194 73.380,134.995 72.981,134.596 72.981 C 134.264 72.981,133.998 72.627,133.998 72.183 C 133.998 71.740,133.732 71.386,133.400 71.386 C 133.071 71.386,132.802 71.117,132.802 70.788 C 132.802 70.455,132.447 70.189,132.004 70.189 C 131.472 70.189,131.206 69.924,131.206 69.392 C 131.206 68.949,130.941 68.594,130.608 68.594 C 130.279 68.594,130.010 68.325,130.010 67.996 C 130.010 67.667,129.755 67.398,129.443 67.398 C 129.132 67.398,128.759 66.859,128.614 66.201 C 128.470 65.543,128.096 65.005,127.785 65.005 C 127.473 65.005,127.218 64.646,127.218 64.207 C 127.218 63.764,126.952 63.410,126.620 63.410 C 126.291 63.410,126.022 63.141,126.022 62.812 C 126.022 62.483,125.774 62.213,125.470 62.213 C 125.167 62.213,124.825 61.854,124.710 61.416 C 124.595 60.977,124.215 60.618,123.866 60.618 C 123.516 60.618,123.230 60.349,123.230 60.020 C 123.230 59.691,123.000 59.422,122.720 59.422 C 122.439 59.422,121.983 58.928,121.707 58.325 C 120.687 56.096,120.237 55.434,119.746 55.434 C 119.469 55.434,119.242 55.165,119.242 54.835 C 119.242 54.506,118.973 54.237,118.644 54.237 C 118.312 54.237,118.046 53.883,118.046 53.440 C 118.046 52.997,117.780 52.642,117.448 52.642 C 117.119 52.642,116.849 52.373,116.849 52.044 C 116.849 51.712,116.495 51.446,116.052 51.446 C 115.537 51.446,115.254 51.180,115.254 50.697 C 115.254 50.285,114.985 49.725,114.656 49.452 C 114.327 49.179,114.058 48.752,114.058 48.503 C 114.058 48.254,113.430 47.474,112.662 46.769 C 111.894 46.065,111.266 45.303,111.266 45.077 C 111.266 44.851,110.997 44.666,110.668 44.666 C 110.339 44.666,110.070 44.397,110.070 44.068 C 110.070 43.735,109.715 43.470,109.272 43.470 C 108.740 43.470,108.475 43.204,108.475 42.672 C 108.475 42.229,108.209 41.874,107.876 41.874 C 107.478 41.874,107.278 41.476,107.278 40.678 C 107.278 39.925,107.074 39.482,106.726 39.482 C 106.423 39.482,106.081 39.123,105.966 38.684 C 105.851 38.245,105.472 37.886,105.122 37.886 C 104.773 37.886,104.487 37.617,104.487 37.288 C 104.487 36.959,104.217 36.690,103.888 36.690 C 103.559 36.690,103.290 36.421,103.290 36.092 C 103.290 35.763,103.021 35.494,102.692 35.494 C 102.360 35.494,102.094 35.139,102.094 34.696 C 102.094 34.164,101.828 33.898,101.296 33.898 C 100.676 33.898,100.499 33.632,100.499 32.702 C 100.499 31.904,100.299 31.505,99.900 31.505 C 99.571 31.505,99.302 31.231,99.302 30.895 C 99.302 30.559,99.033 30.181,98.704 30.054 C 98.375 29.928,98.106 29.575,98.106 29.269 C 98.106 28.964,97.747 28.714,97.308 28.714 C 96.865 28.714,96.510 28.448,96.510 28.116 C 96.510 27.787,96.241 27.517,95.912 27.517 C 95.580 27.517,95.314 27.163,95.314 26.720 C 95.314 26.281,95.067 25.922,94.766 25.922 C 94.464 25.922,94.110 25.384,93.978 24.726 C 93.838 24.024,93.487 23.529,93.131 23.529 C 92.788 23.529,92.522 23.181,92.522 22.732 C 92.522 22.289,92.257 21.934,91.924 21.934 C 91.595 21.934,91.326 21.665,91.326 21.336 C 91.326 21.007,91.057 20.738,90.728 20.738 C 90.399 20.738,90.130 20.469,90.130 20.140 C 90.130 19.807,89.775 19.541,89.332 19.541 C 88.800 19.541,88.534 19.276,88.534 18.744 C 88.534 18.301,88.269 17.946,87.936 17.946 C 87.562 17.946,87.338 17.568,87.338 16.937 C 87.338 16.381,87.076 15.826,86.755 15.703 C 86.434 15.580,86.063 15.137,85.930 14.719 C 85.798 14.300,85.432 13.958,85.118 13.958 C 84.803 13.958,84.546 13.689,84.546 13.360 C 84.546 13.031,84.277 12.762,83.948 12.762 C 83.619 12.762,83.350 12.563,83.350 12.319 C 83.350 11.707,81.665 9.985,81.057 9.977 C 80.783 9.973,80.558 9.701,80.558 9.372 C 80.558 9.043,80.289 8.774,79.960 8.774 C 79.631 8.774,79.362 8.517,79.362 8.202 C 79.362 7.888,79.020 7.522,78.601 7.390 C 78.183 7.257,77.740 6.886,77.617 6.565 C 77.494 6.244,76.939 5.982,76.383 5.982 C 75.752 5.982,75.374 5.758,75.374 5.384 C 75.374 5.052,75.019 4.786,74.576 4.786 C 74.138 4.786,73.779 4.531,73.779 4.219 C 73.779 3.908,73.255 3.538,72.616 3.397 C 71.976 3.257,71.353 2.883,71.232 2.568 C 71.086 2.185,70.409 1.994,69.205 1.994 C 67.864 1.994,67.398 1.840,67.398 1.396 C 67.398 0.944,66.910 0.798,65.404 0.798 C 64.307 0.798,63.410 0.618,63.410 0.399 C 63.410 0.139,57.627 0.000,46.859 0.000 C 36.092 0.000,30.309 0.139,30.309 0.399 " stroke="none" fill="#ffffff" fill-rule="evenodd"></path><path id="path1" d="" stroke="none" fill="#080404" fill-rule="evenodd"></path><path id="path2" d="" stroke="none" fill="#080404" fill-rule="evenodd"></path><path id="path3" d="" stroke="none" fill="#080404" fill-rule="evenodd"></path><path id="path4" d="" stroke="none" fill="#080404" fill-rule="evenodd"></path></g></svg>