<svg id="svg" version="1.1" xmlns="http://www.w3.org/2000/svg" xmlns:xlink="http://www.w3.org/1999/xlink" width="400" height="405.4054054054054" viewBox="0, 0, 400,405.4054054054054"><g id="svgg"><path id="path0" d="M192.400 0.957 C 165.569 8.203,163.133 45.557,188.800 56.144 C 200.920 61.143,215.650 57.219,223.218 46.976 C 239.828 24.491,219.217 -6.287,192.400 0.957 M110.555 43.173 C 85.544 47.166,77.148 80.263,97.303 95.414 C 120.704 113.005,152.460 89.500,142.428 62.012 C 137.769 49.246,123.892 41.043,110.555 43.173 M281.800 43.175 C 261.191 46.534,250.495 68.906,260.846 87.000 C 273.882 109.787,309.165 104.137,314.642 78.386 C 318.845 58.626,301.447 39.973,281.800 43.175 M23.142 86.577 C 4.556 90.472,-5.578 111.366,2.927 128.254 C 15.003 152.234,49.915 148.846,57.261 122.982 C 63.121 102.351,44.201 82.163,23.142 86.577 M193.168 86.804 C 168.383 92.902,162.625 125.700,183.895 139.630 C 202.781 152.000,227.761 139.371,229.084 116.785 C 230.225 97.286,212.091 82.148,193.168 86.804 M366.600 86.232 C 355.347 88.849,349.148 93.394,344.819 102.200 C 332.631 126.997,358.421 153.406,383.353 141.659 C 407.730 130.174,404.592 94.063,378.600 86.970 C 376.294 86.341,368.257 85.846,366.600 86.232 M108.473 128.608 C 90.247 132.780,80.554 153.571,89.022 170.325 C 99.870 191.786,130.754 191.712,141.194 170.200 C 151.964 148.008,132.394 123.133,108.473 128.608 M279.746 128.597 C 261.143 132.643,251.554 152.826,259.979 170.200 C 269.956 190.774,298.946 192.024,310.985 172.400 C 324.312 150.678,304.694 123.172,279.746 128.597 M195.864 171.193 C 168.039 176.243,161.387 211.609,185.619 225.660 C 205.441 237.153,230.330 221.669,229.090 198.616 C 228.178 181.659,211.958 168.271,195.864 171.193 M25.170 173.775 C 8.378 177.280,2.216 198.244,14.397 210.425 C 24.576 220.604,42.404 217.870,48.828 205.145 C 57.122 188.714,43.042 170.044,25.170 173.775 M367.700 173.643 C 351.157 176.400,344.088 197.279,355.511 209.645 C 367.151 222.246,388.186 217.076,392.406 200.577 C 396.345 185.174,383.373 171.032,367.700 173.643 M109.400 216.935 C 84.680 223.314,89.125 259.600,114.626 259.600 C 138.543 259.600,144.499 226.730,122.200 217.798 C 118.879 216.467,112.800 216.058,109.400 216.935 M280.600 216.988 C 266.104 220.154,259.096 237.663,267.348 250.095 C 276.603 264.038,297.731 262.582,304.958 247.503 C 312.817 231.108,298.435 213.092,280.600 216.988 M24.905 246.347 C 18.015 248.772,14.042 255.483,15.218 262.709 C 17.907 279.231,42.433 278.442,44.217 261.775 C 45.346 251.237,34.844 242.848,24.905 246.347 M367.400 246.160 C 351.367 251.230,354.659 274.800,371.400 274.800 C 381.773 274.800,388.809 264.739,385.194 255.076 C 382.520 247.928,374.505 243.912,367.400 246.160 M195.309 258.975 C 184.094 261.692,176.972 273.108,179.386 284.498 C 183.885 305.732,213.882 307.730,221.031 287.272 C 226.702 271.041,212.048 254.919,195.309 258.975 M111.355 288.995 C 95.210 292.508,96.773 316.317,113.253 317.888 C 126.390 319.140,134.149 303.530,125.444 293.360 C 123.262 290.811,116.803 288.031,114.000 288.435 C 113.890 288.451,112.700 288.703,111.355 288.995 M281.000 289.338 C 264.509 294.720,269.453 319.148,286.782 317.908 C 301.207 316.876,305.068 296.708,292.067 290.304 C 289.024 288.805,283.983 288.365,281.000 289.338 M27.546 303.864 C 23.009 304.642,20.478 311.443,23.155 315.664 C 27.431 322.408,37.636 318.987,37.126 310.980 C 36.805 305.932,32.807 302.961,27.546 303.864 M368.923 304.042 C 365.840 304.933,363.263 309.157,363.764 312.496 C 365.077 321.252,378.026 321.253,379.063 312.497 C 379.753 306.670,374.623 302.393,368.923 304.042 M197.000 332.164 C 185.661 334.973,182.084 349.488,190.799 357.324 C 196.659 362.591,205.982 362.215,211.252 356.497 C 221.116 345.796,211.087 328.673,197.000 332.164 M111.400 347.360 C 104.915 350.219,105.504 360.092,112.272 361.971 C 121.454 364.521,126.468 351.482,117.817 347.552 C 115.927 346.694,113.103 346.609,111.400 347.360 M282.200 347.465 C 276.623 350.405,276.066 357.472,281.134 360.995 C 285.534 364.052,292.047 361.374,293.044 356.097 C 294.198 349.991,287.509 344.666,282.200 347.465 M196.336 391.155 C 191.375 394.301,191.684 401.789,196.884 404.443 C 202.963 407.545,209.793 402.032,207.976 395.489 C 206.627 390.632,200.662 388.411,196.336 391.155 " stroke="none" fill="#ffffff" fill-rule="evenodd"></path><path id="path1" d="" stroke="none" fill="#181414" fill-rule="evenodd"></path><path id="path2" d="" stroke="none" fill="#181414" fill-rule="evenodd"></path><path id="path3" d="" stroke="none" fill="#181414" fill-rule="evenodd"></path><path id="path4" d="" stroke="none" fill="#181414" fill-rule="evenodd"></path></g></svg>