<svg id="svg" version="1.1" xmlns="http://www.w3.org/2000/svg" xmlns:xlink="http://www.w3.org/1999/xlink" width="400" height="400" viewBox="0, 0, 400,400"><g id="svgg"><path id="path0" d="M180.400 0.278 C 156.658 2.104,124.664 12.525,100.733 26.228 C -0.600 84.250,-30.865 213.967,33.964 312.400 C 44.240 328.002,70.194 354.578,85.200 364.864 C 110.153 381.968,144.604 395.563,170.691 398.602 C 231.473 405.681,284.363 390.827,327.984 354.425 C 368.861 320.314,392.587 275.639,399.270 220.200 C 401.203 204.163,399.491 175.272,395.526 157.000 C 380.606 88.253,331.261 33.361,263.200 9.800 C 240.563 1.963,207.672 -1.819,180.400 0.278 M221.600 17.403 C 302.907 28.170,365.590 87.080,380.965 167.175 C 384.572 185.964,383.814 221.061,379.374 240.819 C 362.659 315.206,300.306 372.081,224.200 382.359 C 97.212 399.508,-8.534 282.416,21.401 157.800 C 43.204 67.041,131.079 5.415,221.600 17.403 M78.600 150.819 C 49.578 155.297,32.920 187.529,43.258 219.200 C 45.516 226.117,49.393 231.810,56.512 238.662 C 65.469 247.283,70.732 248.954,89.000 248.979 C 103.014 248.997,106.429 248.105,115.393 242.078 C 147.982 220.169,139.417 161.500,102.178 151.559 C 98.573 150.596,83.173 150.113,78.600 150.819 M296.487 150.842 C 260.070 155.076,245.446 209.841,273.048 238.618 C 286.123 252.249,313.357 253.868,326.655 241.805 C 329.787 238.963,329.949 238.992,330.017 242.400 C 330.109 246.994,331.204 247.546,340.292 247.577 C 346.712 247.600,346.787 247.590,346.970 246.700 C 347.072 246.205,347.258 237.880,347.383 228.200 C 347.508 218.520,347.724 207.495,347.862 203.700 L 348.114 196.800 325.257 196.800 L 302.400 196.800 302.400 205.000 L 302.400 213.200 314.054 213.200 C 329.290 213.200,330.297 213.489,328.962 217.478 C 323.772 232.987,303.258 238.474,289.119 228.135 C 271.943 215.576,273.668 179.861,291.914 170.273 C 305.575 163.094,324.535 169.107,328.265 181.800 C 328.814 183.669,330.274 183.952,339.527 183.977 L 347.654 184.000 347.380 183.100 C 343.441 170.172,341.447 166.221,336.214 160.980 C 327.986 152.740,313.020 148.920,296.487 150.842 M148.400 199.953 L 148.400 248.400 156.541 248.400 L 164.681 248.400 164.938 245.100 C 165.080 243.285,165.221 234.690,165.252 226.000 C 165.284 217.310,165.420 204.407,165.555 197.326 L 165.800 184.451 169.670 195.126 C 182.519 230.562,188.886 247.845,189.213 248.173 C 189.553 248.513,205.119 247.815,205.491 247.442 C 205.635 247.298,208.714 238.878,221.630 203.306 C 225.244 193.355,228.323 185.210,228.474 185.206 C 228.624 185.203,228.764 189.510,228.786 194.777 C 228.835 206.956,229.529 247.263,229.693 247.426 C 229.870 247.604,242.177 248.400,244.742 248.400 L 246.897 248.400 246.650 225.300 C 246.514 212.595,246.290 190.995,246.152 177.300 L 245.902 152.400 234.589 152.400 L 223.275 152.400 222.679 154.100 C 222.351 155.035,219.617 162.640,216.604 171.000 C 213.590 179.360,210.622 187.640,210.008 189.400 C 206.642 199.055,199.243 218.003,197.591 221.200 L 196.868 222.600 196.008 220.606 C 194.413 216.907,186.164 194.515,182.008 182.600 C 178.137 171.505,171.704 155.040,170.779 153.864 C 169.556 152.310,167.264 151.939,157.500 151.715 L 148.400 151.506 148.400 199.953 M95.600 168.819 C 121.259 174.957,125.757 214.952,102.353 228.856 C 86.415 238.324,66.618 230.816,61.023 213.182 C 54.759 193.442,63.331 172.608,79.200 169.002 C 80.850 168.627,82.380 168.262,82.600 168.191 C 84.170 167.688,92.566 168.093,95.600 168.819 M390.200 390.400 L 380.606 400.000 390.303 400.000 L 400.000 400.000 400.000 390.400 C 400.000 385.120,399.954 380.800,399.897 380.800 C 399.840 380.800,395.477 385.120,390.200 390.400 " stroke="none" fill="#ffffff" fill-rule="evenodd"></path><path id="path1" d="" stroke="none" fill="#080404" fill-rule="evenodd"></path><path id="path2" d="" stroke="none" fill="#080404" fill-rule="evenodd"></path><path id="path3" d="" stroke="none" fill="#080404" fill-rule="evenodd"></path><path id="path4" d="" stroke="none" fill="#080404" fill-rule="evenodd"></path></g></svg>