<svg id="svg" version="1.1" xmlns="http://www.w3.org/2000/svg" xmlns:xlink="http://www.w3.org/1999/xlink" width="400" height="400" viewBox="0, 0, 400,400"><g id="svgg"><path id="path0" d="M154.517 61.076 C 153.808 61.445,153.599 61.445,153.594 61.076 C 153.590 60.758,153.474 60.780,153.244 61.143 C 153.028 61.483,152.583 61.585,152.050 61.416 C 151.581 61.267,151.200 61.320,151.200 61.536 C 151.200 61.750,150.840 61.831,150.400 61.716 C 149.960 61.601,149.600 61.696,149.600 61.927 C 149.600 62.158,149.074 62.332,148.431 62.313 C 147.789 62.295,146.966 62.577,146.603 62.940 C 145.869 63.674,145.417 63.819,145.801 63.198 C 145.938 62.977,145.200 63.248,144.161 63.801 C 143.122 64.353,142.184 64.717,142.077 64.610 C 141.814 64.347,138.682 66.071,138.280 66.700 C 138.104 66.975,137.718 67.200,137.423 67.200 C 137.127 67.200,136.778 67.481,136.646 67.825 C 136.514 68.169,136.252 68.356,136.063 68.239 C 135.875 68.123,135.353 68.371,134.903 68.790 C 134.453 69.209,133.976 69.443,133.843 69.309 C 133.709 69.176,133.600 69.377,133.600 69.757 C 133.600 70.137,133.460 70.360,133.288 70.255 C 132.898 70.013,128.800 73.763,128.800 74.361 C 128.800 74.602,128.575 74.804,128.300 74.810 C 128.025 74.815,125.649 76.975,123.020 79.610 C 120.391 82.244,118.129 84.400,117.992 84.400 C 117.558 84.400,116.055 86.322,116.299 86.566 C 116.428 86.695,116.295 86.800,116.003 86.800 C 115.712 86.800,113.560 88.746,111.221 91.125 C 108.882 93.503,106.649 95.572,106.259 95.722 C 105.851 95.879,105.671 96.192,105.836 96.459 C 106.010 96.740,105.949 96.816,105.682 96.651 C 105.439 96.500,105.042 96.747,104.801 97.199 C 104.559 97.650,102.999 99.320,101.334 100.910 C 99.669 102.499,97.833 104.314,97.253 104.942 C 94.700 107.710,90.039 112.305,89.912 112.179 C 89.836 112.103,87.714 114.101,85.197 116.620 C 82.680 119.139,80.481 121.200,80.310 121.200 C 80.140 121.200,80.000 121.470,80.000 121.800 C 80.000 122.130,79.774 122.400,79.499 122.400 C 78.937 122.400,76.553 124.796,76.684 125.228 C 76.730 125.380,76.415 125.824,75.984 126.214 C 75.553 126.605,75.200 126.809,75.200 126.668 C 75.200 126.528,74.306 127.246,73.213 128.265 C 72.120 129.284,71.339 130.317,71.477 130.559 C 71.615 130.802,71.586 130.871,71.412 130.714 C 70.943 130.291,69.532 131.166,69.851 131.682 C 70.001 131.925,69.946 132.014,69.728 131.879 C 69.247 131.582,65.869 134.935,66.258 135.324 C 66.409 135.476,66.233 135.600,65.867 135.600 C 65.500 135.600,65.200 135.764,65.200 135.964 C 65.200 136.164,64.367 137.109,63.349 138.064 C 62.331 139.019,61.296 140.035,61.049 140.322 C 60.039 141.495,53.898 147.600,53.727 147.600 C 53.360 147.600,52.400 148.754,52.400 149.195 C 52.400 149.444,52.240 149.548,52.044 149.427 C 51.848 149.306,51.038 149.970,50.244 150.903 C 49.451 151.836,48.524 152.922,48.185 153.316 C 47.846 153.709,47.367 154.474,47.120 155.016 C 46.873 155.557,46.400 156.000,46.069 156.000 C 45.738 156.000,45.582 156.115,45.723 156.256 C 46.017 156.551,44.781 158.800,44.324 158.800 C 44.157 158.800,43.741 159.340,43.400 160.000 C 43.059 160.660,42.902 161.200,43.052 161.200 C 43.201 161.200,42.981 161.591,42.562 162.069 C 42.143 162.547,42.025 162.806,42.300 162.645 C 43.079 162.190,42.889 162.686,41.949 163.562 C 41.480 163.998,41.190 164.598,41.304 164.894 C 41.418 165.191,41.261 165.775,40.956 166.193 C 40.650 166.611,40.400 167.279,40.400 167.676 C 40.400 168.074,40.199 168.400,39.953 168.400 C 39.693 168.400,39.586 168.816,39.698 169.400 C 39.803 169.950,39.723 170.400,39.521 170.400 C 39.318 170.400,39.256 170.568,39.383 170.772 C 39.509 170.977,39.419 171.264,39.183 171.411 C 38.946 171.557,38.783 172.064,38.821 172.538 C 38.951 174.199,38.797 175.245,38.452 175.032 C 37.760 174.604,38.343 191.729,39.085 193.600 C 39.216 193.930,39.397 194.646,39.487 195.190 C 39.578 195.735,39.818 196.381,40.022 196.627 C 40.226 196.873,40.275 197.192,40.130 197.337 C 39.985 197.482,40.089 197.600,40.360 197.600 C 40.665 197.600,40.761 197.894,40.611 198.366 C 40.477 198.788,40.555 199.248,40.784 199.390 C 41.013 199.531,41.200 199.997,41.200 200.424 C 41.200 200.851,41.380 201.200,41.600 201.200 C 41.820 201.200,42.000 201.549,42.000 201.976 C 42.000 202.403,42.180 202.864,42.400 203.000 C 42.620 203.136,42.800 203.514,42.800 203.840 C 42.800 204.463,44.368 206.899,44.926 207.142 C 45.297 207.304,46.162 209.247,46.065 209.700 C 46.029 209.865,46.135 209.955,46.300 209.900 C 46.465 209.845,46.653 209.980,46.718 210.200 C 46.784 210.420,47.372 211.152,48.025 211.826 C 48.679 212.501,49.096 213.171,48.952 213.315 C 48.807 213.459,49.164 213.758,49.745 213.979 C 50.325 214.200,50.800 214.582,50.800 214.830 C 50.800 215.240,56.582 221.056,59.619 223.700 C 60.314 224.305,60.749 224.800,60.587 224.800 C 60.425 224.800,60.804 225.202,61.429 225.694 C 62.054 226.186,65.258 229.246,68.548 232.494 C 71.839 235.742,74.692 238.400,74.889 238.400 C 75.086 238.400,75.136 238.580,75.000 238.800 C 74.864 239.020,75.044 239.200,75.400 239.200 C 75.756 239.200,75.936 239.380,75.800 239.600 C 75.664 239.820,75.723 240.000,75.930 240.000 C 76.138 240.000,79.533 243.195,83.475 247.100 C 87.416 251.005,91.082 254.579,91.621 255.042 C 92.159 255.505,93.265 256.647,94.077 257.580 C 95.001 258.641,95.735 259.164,96.038 258.976 C 96.356 258.780,96.420 258.844,96.223 259.163 C 95.919 259.655,97.019 261.200,97.673 261.200 C 98.206 261.200,101.577 264.690,101.305 264.961 C 101.174 265.093,101.377 265.200,101.757 265.200 C 102.137 265.200,102.336 265.380,102.200 265.600 C 102.064 265.820,102.244 266.000,102.600 266.000 C 102.956 266.000,103.136 266.180,103.000 266.400 C 102.864 266.620,103.044 266.800,103.400 266.800 C 103.756 266.800,103.954 266.951,103.839 267.137 C 103.725 267.322,104.281 268.087,105.076 268.837 C 105.870 269.586,106.382 269.930,106.213 269.600 C 106.044 269.270,106.353 269.495,106.900 270.100 C 107.446 270.705,108.040 271.200,108.219 271.200 C 108.614 271.200,112.000 274.790,112.000 275.209 C 112.000 275.373,112.360 275.601,112.799 275.716 C 113.238 275.831,113.767 276.347,113.974 276.862 C 114.180 277.378,114.361 277.637,114.375 277.438 C 114.404 277.019,116.399 279.248,116.400 279.700 C 116.400 279.865,116.535 279.960,116.700 279.911 C 116.865 279.862,119.700 282.537,123.000 285.856 C 126.300 289.175,129.495 292.206,130.100 292.591 C 130.705 292.977,131.200 293.462,131.200 293.671 C 131.200 294.149,135.989 298.800,136.482 298.800 C 136.683 298.800,136.736 298.980,136.600 299.200 C 136.464 299.420,136.633 299.600,136.976 299.600 C 137.319 299.600,137.555 299.825,137.500 300.100 C 137.445 300.375,137.625 300.555,137.900 300.500 C 138.175 300.445,138.355 300.625,138.300 300.900 C 138.245 301.175,138.425 301.355,138.700 301.300 C 138.975 301.245,139.155 301.410,139.100 301.667 C 139.045 301.924,139.420 302.353,139.934 302.621 C 140.447 302.888,141.077 303.345,141.334 303.634 C 141.636 303.976,141.519 303.957,141.000 303.581 C 140.261 303.044,140.242 303.053,140.749 303.700 C 141.051 304.085,141.463 304.400,141.666 304.400 C 141.868 304.400,142.431 304.786,142.917 305.259 C 143.403 305.731,143.530 305.987,143.200 305.827 C 142.870 305.666,143.066 305.955,143.636 306.468 C 145.303 307.968,146.949 309.200,147.287 309.200 C 147.459 309.200,147.600 309.412,147.600 309.672 C 147.600 310.211,151.120 313.600,151.679 313.600 C 151.882 313.600,151.936 313.780,151.800 314.000 C 151.664 314.220,151.863 314.400,152.243 314.400 C 152.623 314.400,152.819 314.514,152.680 314.653 C 152.424 314.909,152.860 315.367,157.675 319.900 C 159.136 321.275,160.243 322.400,160.135 322.400 C 160.027 322.400,160.459 322.838,161.096 323.374 C 161.732 323.909,165.391 327.448,169.227 331.237 C 173.062 335.026,175.977 337.856,175.703 337.526 C 175.430 337.196,175.340 336.779,175.503 336.599 C 175.667 336.419,175.547 336.419,175.237 336.598 C 174.798 336.853,174.728 336.719,174.919 335.988 C 175.079 335.378,174.755 334.167,173.990 332.516 C 170.333 324.614,170.553 316.447,174.634 308.600 C 175.892 306.181,177.499 304.410,186.445 295.579 C 192.335 289.766,196.800 285.049,196.800 284.642 C 196.800 283.768,191.561 278.000,190.768 278.000 C 190.595 278.000,190.341 277.644,190.203 277.208 C 190.064 276.773,189.809 276.458,189.636 276.508 C 189.463 276.559,186.127 273.360,182.223 269.400 C 178.320 265.440,174.963 262.245,174.763 262.300 C 174.563 262.355,174.400 262.119,174.400 261.776 C 174.400 261.433,174.220 261.264,174.000 261.400 C 173.780 261.536,173.600 261.356,173.600 261.000 C 173.600 260.644,173.420 260.464,173.200 260.600 C 172.980 260.736,172.800 260.663,172.800 260.437 C 172.800 259.930,169.959 256.800,169.498 256.800 C 168.975 256.800,167.220 254.914,167.491 254.642 C 167.624 254.509,167.423 254.400,167.043 254.400 C 166.663 254.400,166.464 254.220,166.600 254.000 C 166.736 253.780,166.556 253.600,166.200 253.600 C 165.844 253.600,165.664 253.420,165.800 253.200 C 165.936 252.980,165.806 252.800,165.511 252.800 C 164.458 252.800,164.732 250.904,165.824 250.630 C 166.379 250.490,166.725 250.202,166.593 249.988 C 166.461 249.775,166.633 249.600,166.976 249.600 C 167.319 249.600,167.600 249.421,167.600 249.203 C 167.600 248.809,171.485 244.837,174.211 242.444 C 174.990 241.760,175.507 241.200,175.360 241.200 C 175.213 241.200,175.611 240.804,176.246 240.321 C 177.619 239.275,179.999 236.725,180.000 236.300 C 180.000 236.135,180.211 236.000,180.469 236.000 C 181.025 236.000,184.400 232.560,184.400 231.993 C 184.400 231.777,184.557 231.645,184.748 231.700 C 185.022 231.779,189.896 227.008,192.683 223.933 C 192.949 223.640,193.887 222.860,194.767 222.200 C 198.072 219.722,199.088 221.056,177.887 200.030 L 159.575 181.868 158.203 183.197 C 157.448 183.928,156.928 184.683,157.045 184.873 C 157.163 185.064,157.097 185.170,156.899 185.110 C 156.700 185.049,155.121 186.395,153.391 188.100 C 151.660 189.805,150.069 191.200,149.855 191.200 C 149.642 191.200,149.578 191.311,149.714 191.448 C 149.987 191.720,149.391 192.349,148.183 193.063 C 147.752 193.317,147.445 193.722,147.500 193.963 C 147.555 194.203,147.375 194.355,147.100 194.300 C 146.825 194.245,146.649 194.438,146.710 194.730 C 146.770 195.021,146.659 195.160,146.463 195.039 C 145.991 194.747,144.712 196.179,145.099 196.566 C 145.265 196.731,145.220 196.814,145.000 196.749 C 144.780 196.684,141.090 200.091,136.800 204.319 C 132.510 208.547,128.546 212.420,127.991 212.925 C 126.949 213.875,125.393 214.658,125.775 214.041 C 126.060 213.579,125.012 212.721,124.630 213.103 C 124.467 213.267,124.393 213.130,124.467 212.800 C 124.547 212.436,124.364 212.253,124.000 212.333 C 123.670 212.407,123.533 212.334,123.695 212.172 C 124.137 211.730,121.658 209.521,121.087 209.848 C 120.819 210.002,120.720 209.994,120.867 209.830 C 121.185 209.476,118.671 206.831,117.087 205.852 C 116.475 205.474,116.081 204.993,116.211 204.782 C 116.341 204.572,116.177 204.400,115.847 204.400 C 115.517 204.400,115.119 204.192,114.962 203.938 C 114.772 203.631,114.864 203.580,115.238 203.787 C 115.547 203.959,113.757 202.141,111.259 199.749 C 108.762 197.357,103.845 192.580,100.334 189.133 L 93.950 182.866 96.175 180.676 C 97.399 179.472,98.400 178.287,98.400 178.043 C 98.400 177.799,98.603 177.645,98.851 177.700 C 99.099 177.755,100.120 176.810,101.120 175.600 C 102.120 174.390,103.009 173.455,103.096 173.521 C 103.183 173.588,103.802 172.958,104.472 172.121 C 105.141 171.285,105.849 170.645,106.045 170.700 C 106.240 170.755,106.408 170.575,106.417 170.300 C 106.426 170.025,107.003 169.350,107.700 168.800 C 110.845 166.315,127.600 149.786,127.600 149.168 C 127.600 148.966,127.825 148.799,128.100 148.798 C 128.375 148.796,129.545 147.823,130.700 146.634 C 131.855 145.446,132.800 144.569,132.800 144.686 C 132.800 144.802,133.068 144.676,133.396 144.404 C 133.723 144.132,133.890 143.745,133.766 143.545 C 133.642 143.344,133.779 143.230,134.070 143.290 C 134.362 143.351,134.551 143.162,134.490 142.870 C 134.430 142.579,134.556 142.449,134.771 142.582 C 134.986 142.715,135.424 142.323,135.745 141.712 C 136.065 141.100,136.428 140.640,136.552 140.689 C 136.675 140.737,137.726 139.767,138.888 138.532 C 140.050 137.298,142.031 135.299,143.291 134.091 C 144.551 132.883,145.486 131.739,145.368 131.548 C 145.249 131.356,145.424 131.200,145.757 131.200 C 146.089 131.200,146.544 130.885,146.768 130.500 C 146.992 130.115,147.181 129.939,147.188 130.109 C 147.195 130.279,148.230 129.334,149.489 128.009 C 150.748 126.684,151.961 125.600,152.184 125.600 C 152.662 125.600,158.400 119.637,158.400 119.140 C 158.400 118.953,158.590 118.800,158.822 118.800 C 159.054 118.800,159.819 118.261,160.522 117.602 C 161.837 116.369,162.400 116.121,162.400 116.773 C 162.400 116.978,162.760 117.260,163.200 117.400 C 163.640 117.540,164.000 117.854,164.000 118.099 C 164.000 118.343,164.630 119.120,165.400 119.826 C 166.170 120.531,166.800 121.031,166.800 120.937 C 166.800 120.843,167.835 121.878,169.100 123.237 C 173.434 127.894,176.402 130.800,176.825 130.800 C 177.057 130.800,177.148 130.960,177.028 131.155 C 176.831 131.473,177.751 132.368,181.288 135.299 C 181.886 135.794,182.381 136.397,182.388 136.638 C 182.405 137.257,183.748 138.400,184.459 138.400 C 184.788 138.400,185.809 139.255,186.730 140.300 C 191.385 145.583,194.053 147.889,195.224 147.640 C 196.847 147.294,232.000 112.679,232.000 111.426 C 232.000 110.489,226.453 104.400,225.600 104.400 C 225.354 104.400,225.248 104.246,225.364 104.058 C 225.480 103.870,225.131 103.299,224.588 102.788 C 224.044 102.278,223.600 101.992,223.600 102.153 C 223.600 102.314,222.530 101.355,221.222 100.023 C 219.914 98.690,218.749 97.600,218.633 97.600 C 218.516 97.600,217.471 96.609,216.311 95.398 C 209.097 87.872,202.285 81.200,201.816 81.200 C 201.722 81.200,200.690 80.182,199.523 78.938 C 195.040 74.160,192.628 71.804,192.320 71.900 C 192.144 71.955,192.000 71.820,192.000 71.600 C 192.000 71.380,191.793 71.200,191.540 71.200 C 191.288 71.200,190.488 70.590,189.763 69.844 C 189.039 69.098,188.350 68.583,188.232 68.701 C 188.115 68.818,187.905 68.619,187.767 68.257 C 187.628 67.896,187.264 67.600,186.957 67.600 C 186.651 67.600,186.400 67.409,186.400 67.176 C 186.400 66.943,186.232 66.856,186.028 66.983 C 185.823 67.109,185.540 67.027,185.400 66.800 C 185.260 66.573,184.998 66.478,184.818 66.589 C 184.638 66.700,184.268 66.523,183.996 66.196 C 183.724 65.868,183.263 65.600,182.971 65.600 C 182.679 65.600,182.280 65.314,182.084 64.964 C 181.888 64.614,181.654 64.364,181.564 64.407 C 181.131 64.613,178.000 63.518,178.000 63.161 C 178.000 62.936,177.810 62.870,177.577 63.014 C 176.977 63.385,175.119 62.854,175.404 62.393 C 175.535 62.182,175.383 62.108,175.067 62.229 C 174.752 62.351,173.823 62.170,173.004 61.828 C 172.185 61.485,171.346 61.310,171.140 61.437 C 170.934 61.565,170.514 61.460,170.206 61.205 C 169.899 60.950,169.322 60.775,168.924 60.817 C 168.526 60.858,168.110 60.863,168.000 60.827 C 166.916 60.476,155.258 60.691,154.517 61.076 " stroke="none" fill="#3bebac" fill-rule="evenodd"></path><path id="path1" d="M260.600 95.708 C 259.720 95.902,258.730 96.162,258.400 96.284 C 257.737 96.529,256.131 96.831,255.200 96.886 C 254.870 96.905,254.494 97.083,254.363 97.282 C 254.233 97.480,253.567 97.713,252.882 97.800 C 252.197 97.886,251.224 98.223,250.719 98.547 C 250.213 98.871,249.440 99.196,249.000 99.268 C 248.560 99.341,247.846 99.719,247.414 100.110 C 246.982 100.500,246.387 100.727,246.093 100.614 C 245.799 100.502,245.668 100.587,245.803 100.805 C 245.937 101.022,245.737 101.200,245.359 101.200 C 244.461 101.200,241.200 103.114,241.200 103.640 C 241.200 103.864,241.020 103.936,240.800 103.800 C 240.580 103.664,240.400 103.833,240.400 104.176 C 240.400 104.519,240.144 104.800,239.832 104.800 C 239.519 104.800,238.529 105.527,237.632 106.415 C 236.734 107.304,236.000 107.936,236.000 107.819 C 236.000 107.703,235.649 107.908,235.220 108.275 C 234.792 108.642,234.528 109.083,234.634 109.254 C 234.739 109.426,234.310 109.833,233.679 110.159 C 232.699 110.666,232.559 110.939,232.719 112.027 C 232.896 113.236,232.428 113.773,223.553 122.532 C 218.409 127.609,210.365 135.551,205.678 140.181 L 197.157 148.600 199.278 150.582 C 201.749 152.891,213.834 164.326,220.200 170.379 C 232.330 181.914,232.882 182.502,232.391 183.381 C 232.140 183.831,224.136 191.760,214.606 201.000 C 198.858 216.267,197.273 217.921,197.238 219.124 C 197.217 219.852,197.360 220.348,197.556 220.227 C 197.752 220.106,198.206 220.455,198.565 221.003 C 198.925 221.552,199.472 222.000,199.782 222.000 C 200.092 222.000,200.460 222.360,200.600 222.800 C 200.740 223.240,201.122 223.600,201.451 223.600 C 201.779 223.600,201.954 223.751,201.839 223.936 C 201.613 224.303,204.011 226.247,204.500 226.094 C 204.665 226.042,204.755 226.170,204.700 226.378 C 204.556 226.922,209.629 232.400,210.277 232.400 C 210.576 232.400,211.000 232.875,211.221 233.455 C 211.442 234.036,211.726 234.407,211.854 234.280 C 212.141 233.993,214.238 236.051,214.100 236.485 C 214.045 236.658,214.225 236.755,214.500 236.700 C 214.775 236.645,214.951 236.838,214.890 237.130 C 214.830 237.421,214.965 237.545,215.191 237.406 C 215.417 237.266,215.768 237.590,215.972 238.125 C 216.178 238.669,216.795 239.213,217.371 239.357 C 217.937 239.499,218.400 239.765,218.400 239.948 C 218.400 240.466,220.710 242.757,220.969 242.497 C 221.096 242.371,221.200 242.492,221.200 242.767 C 221.200 243.362,228.198 250.400,228.790 250.400 C 229.016 250.400,229.200 250.670,229.200 251.000 C 229.200 251.330,229.478 251.600,229.819 251.600 C 230.349 251.600,230.335 251.737,229.719 252.559 C 229.323 253.086,228.878 253.444,228.729 253.353 C 228.580 253.262,228.338 253.565,228.192 254.024 C 228.046 254.484,227.856 254.790,227.770 254.703 C 227.683 254.617,226.362 255.728,224.833 257.173 C 223.304 258.618,221.411 260.325,220.627 260.967 C 219.843 261.609,219.274 262.208,219.364 262.297 C 219.454 262.387,218.464 263.438,217.165 264.632 C 215.866 265.826,214.784 266.938,214.762 267.102 C 214.739 267.266,214.558 267.355,214.360 267.300 C 214.162 267.245,214.000 267.351,214.000 267.535 C 214.000 267.966,211.025 270.953,206.565 275.000 C 199.122 281.754,197.407 283.697,197.524 285.238 C 197.591 286.120,197.309 286.736,196.478 287.523 C 190.435 293.245,177.697 306.138,176.840 307.400 C 171.692 314.978,171.267 323.879,175.633 332.691 C 176.936 335.322,177.572 337.058,177.415 337.554 C 177.142 338.414,178.850 340.595,179.404 340.093 C 179.582 339.932,179.599 340.025,179.441 340.300 C 179.257 340.620,179.665 341.101,180.577 341.639 C 181.359 342.101,182.000 342.641,182.000 342.840 C 182.000 343.038,182.135 343.155,182.300 343.101 C 182.465 343.046,183.320 343.440,184.200 343.976 C 185.080 344.512,185.935 344.917,186.100 344.875 C 186.265 344.834,186.400 344.974,186.400 345.187 C 186.400 345.401,186.670 345.471,187.000 345.345 C 187.330 345.218,187.600 345.290,187.600 345.504 C 187.600 345.941,191.025 346.798,193.261 346.920 C 194.065 346.964,194.640 347.135,194.538 347.300 C 194.436 347.465,194.723 347.600,195.176 347.600 C 195.629 347.600,196.000 347.420,196.000 347.200 C 196.000 346.980,196.360 346.800,196.800 346.800 C 197.240 346.800,197.600 346.980,197.600 347.200 C 197.600 347.420,197.791 347.600,198.024 347.600 C 198.257 347.600,198.312 347.375,198.147 347.100 C 197.943 346.760,198.063 346.776,198.523 347.149 C 198.985 347.523,199.359 347.571,199.700 347.300 C 199.975 347.082,200.550 346.959,200.977 347.027 C 201.405 347.096,201.937 347.039,202.160 346.901 C 202.383 346.763,203.007 346.603,203.547 346.546 C 204.086 346.488,204.676 346.207,204.858 345.920 C 205.119 345.508,205.189 345.519,205.194 345.976 C 205.198 346.396,205.372 346.341,205.830 345.776 C 206.176 345.349,206.321 345.270,206.153 345.600 C 205.889 346.117,205.941 346.124,206.523 345.651 C 206.895 345.349,207.206 345.259,207.213 345.451 C 207.220 345.643,207.478 345.467,207.786 345.060 C 208.094 344.653,208.539 344.439,208.773 344.584 C 209.008 344.729,209.200 344.646,209.200 344.400 C 209.200 344.154,209.380 344.064,209.600 344.200 C 209.820 344.336,210.000 344.257,210.000 344.024 C 210.000 343.791,210.270 343.600,210.600 343.600 C 210.930 343.600,211.203 343.285,211.206 342.900 C 211.211 342.364,211.291 342.325,211.551 342.734 C 211.806 343.136,211.945 343.053,212.118 342.394 C 212.244 341.909,212.536 341.637,212.773 341.783 C 213.008 341.928,213.200 341.869,213.200 341.651 C 213.200 341.432,213.583 341.132,214.052 340.984 C 214.852 340.730,221.838 333.870,228.594 326.704 C 230.247 324.950,231.600 323.646,231.600 323.806 C 231.600 323.967,231.868 323.876,232.196 323.604 C 232.523 323.332,232.674 322.919,232.530 322.687 C 232.367 322.423,232.520 322.360,232.934 322.519 C 233.369 322.686,233.600 322.571,233.600 322.187 C 233.600 321.864,233.791 321.600,234.024 321.600 C 234.257 321.600,234.317 321.389,234.158 321.132 C 233.965 320.820,234.084 320.747,234.514 320.912 C 234.968 321.086,235.093 320.987,234.936 320.578 C 234.790 320.196,235.140 319.818,235.963 319.472 C 236.651 319.183,237.128 318.862,237.024 318.757 C 236.773 318.506,239.810 315.574,240.924 314.992 C 241.406 314.741,241.755 314.324,241.700 314.067 C 241.645 313.810,241.900 313.600,242.267 313.600 C 242.633 313.600,242.817 313.483,242.674 313.341 C 242.396 313.062,243.897 311.600,244.461 311.600 C 244.648 311.600,244.800 311.229,244.800 310.776 C 244.800 310.323,244.956 310.049,245.146 310.167 C 245.528 310.403,248.800 307.360,248.800 306.769 C 248.800 306.566,249.025 306.397,249.300 306.394 C 250.044 306.384,252.425 304.164,252.090 303.792 C 251.930 303.616,252.001 303.586,252.247 303.726 C 252.787 304.035,254.127 302.660,253.701 302.234 C 253.535 302.069,253.670 301.993,254.000 302.067 C 254.366 302.148,254.579 301.931,254.546 301.512 C 254.517 301.134,254.835 300.716,255.252 300.583 C 255.670 300.451,255.910 300.177,255.785 299.976 C 255.660 299.774,255.822 299.710,256.143 299.834 C 256.505 299.972,256.827 299.745,256.988 299.237 C 257.132 298.786,257.373 298.458,257.524 298.508 C 257.676 298.559,258.205 298.195,258.700 297.700 C 259.195 297.205,259.510 296.800,259.400 296.800 C 259.290 296.800,259.515 296.466,259.900 296.057 C 260.285 295.649,260.714 295.334,260.852 295.357 C 261.239 295.423,264.000 292.496,264.000 292.020 C 264.000 291.789,264.135 291.643,264.300 291.695 C 264.619 291.796,267.939 288.565,268.010 288.084 C 268.034 287.928,268.412 287.608,268.850 287.373 C 269.289 287.138,270.016 286.418,270.466 285.773 C 270.916 285.128,271.177 284.924,271.047 285.321 C 270.907 285.745,270.972 285.941,271.205 285.797 C 271.422 285.663,271.600 285.293,271.600 284.976 C 271.600 284.659,271.780 284.400,272.000 284.400 C 272.220 284.400,272.400 284.100,272.400 283.733 C 272.400 283.367,272.518 283.185,272.663 283.330 C 273.056 283.722,274.032 282.776,273.734 282.293 C 273.584 282.051,273.670 281.996,273.938 282.162 C 274.192 282.319,274.400 282.227,274.400 281.957 C 274.400 281.687,274.505 281.572,274.633 281.700 C 274.920 281.987,276.400 280.556,276.400 279.991 C 276.400 279.767,276.830 279.387,277.356 279.147 C 277.882 278.908,278.542 278.282,278.824 277.756 C 279.105 277.230,279.495 276.800,279.691 276.800 C 279.887 276.800,279.944 276.632,279.817 276.428 C 279.691 276.223,279.798 275.925,280.055 275.766 C 280.348 275.585,280.416 275.650,280.238 275.938 C 280.081 276.192,280.143 276.400,280.376 276.400 C 280.772 276.400,280.970 275.831,280.837 275.070 C 280.806 274.889,280.933 274.835,281.119 274.950 C 281.490 275.179,282.800 273.822,282.800 273.208 C 282.800 272.997,283.052 272.922,283.361 273.040 C 283.701 273.171,284.203 272.780,284.634 272.050 C 285.026 271.386,285.473 270.922,285.628 271.017 C 285.783 271.113,286.132 270.923,286.404 270.596 C 286.676 270.268,286.741 270.000,286.550 270.000 C 286.359 270.000,287.102 269.364,288.201 268.587 C 289.301 267.810,290.515 266.598,290.900 265.893 C 291.285 265.189,291.600 264.773,291.600 264.970 C 291.600 265.166,292.320 264.593,293.200 263.695 C 294.080 262.797,294.801 262.184,294.802 262.331 C 294.805 262.628,297.330 259.949,299.772 257.060 C 300.636 256.037,301.488 255.200,301.666 255.200 C 302.001 255.200,308.800 248.486,308.800 248.155 C 308.800 247.784,310.214 246.523,310.909 246.273 C 311.299 246.133,311.739 245.699,311.887 245.309 C 312.244 244.364,313.066 243.560,313.539 243.693 C 313.748 243.752,313.949 243.620,313.984 243.400 C 314.019 243.180,314.416 242.864,314.866 242.697 C 315.389 242.504,315.598 242.172,315.446 241.777 C 315.310 241.420,315.378 241.263,315.607 241.405 C 315.826 241.540,316.111 241.376,316.240 241.041 C 316.369 240.705,316.814 240.323,317.229 240.191 C 317.644 240.059,317.966 239.827,317.945 239.676 C 317.828 238.857,318.067 238.400,318.613 238.400 C 318.949 238.400,319.328 238.131,319.454 237.802 C 319.581 237.474,319.873 237.321,320.104 237.464 C 320.335 237.607,320.409 237.539,320.270 237.313 C 320.020 236.908,322.227 234.800,322.901 234.800 C 323.091 234.800,323.149 234.640,323.028 234.445 C 322.908 234.250,323.204 233.988,323.687 233.861 C 324.170 233.735,324.458 233.525,324.328 233.395 C 324.198 233.264,324.828 232.492,325.728 231.679 C 326.628 230.865,328.507 229.075,329.902 227.700 C 331.298 226.325,332.511 225.200,332.599 225.200 C 332.977 225.200,334.684 223.335,334.939 222.643 C 335.093 222.226,335.322 221.989,335.448 222.114 C 335.574 222.240,336.244 221.698,336.938 220.910 C 338.668 218.945,340.989 216.602,341.214 216.592 C 341.684 216.572,344.066 214.145,345.078 212.654 C 345.695 211.744,346.515 210.765,346.900 210.477 C 347.285 210.190,347.600 209.645,347.600 209.266 C 347.600 208.887,347.960 208.317,348.400 208.000 C 348.840 207.683,349.200 207.122,349.200 206.754 C 349.200 206.387,349.447 205.991,349.749 205.875 C 350.050 205.759,350.424 205.157,350.580 204.536 C 350.736 203.916,351.041 203.298,351.258 203.164 C 351.475 203.030,351.698 202.668,351.752 202.360 C 351.806 202.052,352.244 200.955,352.725 199.922 C 353.206 198.889,353.600 197.685,353.600 197.246 C 353.600 196.806,353.772 196.341,353.983 196.211 C 354.193 196.081,354.264 195.710,354.140 195.387 C 354.016 195.064,354.087 194.800,354.298 194.800 C 354.508 194.800,354.654 194.305,354.622 193.700 C 354.590 193.095,354.770 192.240,355.022 191.800 C 355.274 191.360,355.522 189.920,355.574 188.600 C 355.704 185.294,355.807 184.460,356.122 184.145 C 356.271 183.996,356.193 183.632,355.948 183.337 C 355.618 182.940,355.631 182.644,356.000 182.200 C 356.287 181.854,356.326 181.600,356.092 181.600 C 355.868 181.600,355.578 181.321,355.447 180.979 C 355.292 180.574,355.370 180.458,355.673 180.645 C 355.999 180.846,356.040 180.704,355.812 180.166 C 355.634 179.745,355.469 178.410,355.444 177.200 C 355.420 175.990,355.228 174.733,355.018 174.406 C 354.808 174.079,354.685 173.246,354.744 172.556 C 354.804 171.865,354.586 170.662,354.260 169.883 C 353.935 169.103,353.773 168.361,353.901 168.233 C 354.029 168.105,353.923 168.000,353.667 168.000 C 353.410 168.000,353.221 167.865,353.247 167.700 C 353.384 166.835,353.150 166.382,352.700 166.641 C 352.425 166.799,352.333 166.781,352.497 166.601 C 352.660 166.421,352.593 166.032,352.348 165.737 C 352.014 165.335,352.031 165.200,352.413 165.200 C 352.808 165.200,352.797 165.041,352.362 164.500 C 351.300 163.178,350.673 161.875,351.270 162.235 C 351.952 162.645,350.819 161.140,350.100 160.680 C 349.825 160.504,349.600 160.156,349.600 159.906 C 349.600 158.881,347.915 156.071,347.185 155.880 C 346.753 155.767,346.400 155.364,346.400 154.983 C 346.400 154.603,345.961 153.885,345.425 153.388 C 344.888 152.891,344.558 152.375,344.691 152.242 C 344.824 152.109,344.633 152.000,344.267 152.000 C 343.900 152.000,343.600 151.831,343.600 151.625 C 343.600 151.419,341.980 149.588,340.000 147.556 C 338.020 145.525,336.397 144.028,336.394 144.231 C 336.391 144.434,336.161 144.150,335.882 143.600 C 335.604 143.050,335.112 142.592,334.788 142.582 C 334.465 142.572,334.241 142.358,334.292 142.106 C 334.342 141.855,333.281 140.693,331.933 139.525 C 330.585 138.356,327.318 135.203,324.674 132.518 C 322.029 129.833,319.711 127.732,319.522 127.848 C 319.334 127.964,319.230 127.894,319.290 127.692 C 319.425 127.241,315.802 123.600,315.219 123.600 C 314.989 123.600,314.797 123.375,314.793 123.100 C 314.790 122.825,314.041 121.880,313.130 121.000 C 312.220 120.120,311.623 119.670,311.805 120.000 C 311.987 120.330,311.330 119.790,310.345 118.800 C 309.359 117.810,308.611 116.878,308.682 116.729 C 308.753 116.580,308.476 116.351,308.067 116.221 C 307.657 116.091,307.116 115.534,306.866 114.984 C 306.615 114.434,305.958 113.812,305.405 113.602 C 304.852 113.392,304.400 112.985,304.400 112.699 C 304.400 112.084,303.132 110.934,301.769 110.313 C 301.236 110.070,300.800 109.738,300.800 109.576 C 300.800 109.413,300.170 108.650,299.400 107.880 C 298.630 107.110,298.000 106.544,298.000 106.622 C 298.000 106.700,297.548 106.312,296.997 105.760 C 296.443 105.207,295.788 104.884,295.535 105.040 C 295.259 105.210,295.185 105.147,295.349 104.882 C 295.500 104.638,295.218 104.224,294.719 103.957 C 294.223 103.691,293.573 103.230,293.276 102.933 C 292.979 102.636,292.579 102.489,292.388 102.608 C 292.197 102.726,291.845 102.457,291.606 102.011 C 291.367 101.565,290.818 101.200,290.386 101.200 C 289.954 101.200,289.600 101.009,289.600 100.776 C 289.600 100.543,289.420 100.464,289.200 100.600 C 288.980 100.736,288.799 100.702,288.797 100.524 C 288.792 100.038,286.748 99.185,286.282 99.473 C 286.059 99.611,285.997 99.529,286.144 99.291 C 286.438 98.815,285.024 98.214,284.449 98.570 C 284.252 98.692,283.868 98.523,283.596 98.196 C 283.324 97.868,282.614 97.600,282.018 97.600 C 281.421 97.600,280.808 97.475,280.655 97.322 C 280.362 97.029,279.405 96.774,278.400 96.722 C 278.070 96.705,277.583 96.520,277.318 96.311 C 277.052 96.102,276.662 96.038,276.451 96.168 C 276.240 96.299,275.558 96.212,274.936 95.976 C 273.514 95.435,262.744 95.234,260.600 95.708 M269.927 152.366 C 271.031 153.447,271.829 154.437,271.701 154.566 C 271.572 154.695,271.722 154.800,272.033 154.800 C 272.345 154.800,273.106 155.434,273.724 156.209 C 274.342 156.984,275.022 157.510,275.234 157.379 C 275.446 157.248,275.570 157.289,275.510 157.470 C 275.449 157.652,275.580 157.885,275.800 157.990 C 276.491 158.317,277.600 159.364,277.600 159.689 C 277.600 160.172,279.145 161.600,279.667 161.600 C 279.923 161.600,280.026 161.708,279.894 161.839 C 279.585 162.148,282.104 164.741,282.500 164.520 C 282.665 164.428,282.800 164.591,282.800 164.882 C 282.800 165.393,286.513 169.200,287.012 169.200 C 287.412 169.200,288.599 170.508,288.618 170.971 C 288.628 171.207,288.845 171.358,289.099 171.306 C 289.354 171.255,289.880 171.750,290.267 172.406 C 290.655 173.063,291.161 173.600,291.391 173.600 C 291.621 173.600,292.246 174.129,292.781 174.777 C 293.315 175.424,293.898 175.863,294.076 175.753 C 294.254 175.643,294.400 175.821,294.400 176.149 C 294.400 176.478,294.760 176.860,295.200 177.000 C 295.640 177.140,296.000 177.475,296.000 177.746 C 296.000 178.378,298.962 181.283,299.325 181.008 C 299.476 180.894,299.512 180.918,299.403 181.063 C 299.114 181.451,300.031 182.428,300.445 182.172 C 300.640 182.051,300.799 182.188,300.797 182.476 C 300.796 182.764,300.244 183.313,299.572 183.696 C 298.899 184.079,298.446 184.550,298.565 184.743 C 298.684 184.936,298.213 185.523,297.517 186.047 C 295.600 187.492,292.848 190.314,293.105 190.572 C 293.231 190.697,293.106 190.800,292.827 190.800 C 292.549 190.800,289.996 193.140,287.155 196.000 C 284.313 198.860,281.811 201.200,281.594 201.200 C 281.377 201.200,281.200 201.470,281.200 201.800 C 281.200 202.130,280.995 202.400,280.744 202.400 C 280.341 202.400,278.261 204.402,276.344 206.636 C 275.983 207.056,274.782 208.239,273.675 209.264 C 272.568 210.290,271.783 211.250,271.931 211.398 C 272.079 211.546,271.948 211.607,271.639 211.533 C 271.331 211.460,270.656 212.012,270.139 212.759 C 269.623 213.507,269.200 213.970,269.200 213.789 C 269.200 213.609,268.780 213.855,268.267 214.337 L 267.334 215.213 266.875 214.204 C 266.622 213.649,266.187 213.241,265.907 213.298 C 265.628 213.354,265.445 213.175,265.500 212.900 C 265.555 212.625,265.330 212.400,265.000 212.400 C 264.670 212.400,264.400 212.220,264.400 212.000 C 264.400 211.780,264.216 211.600,263.992 211.600 C 263.767 211.600,262.642 210.579,261.492 209.330 C 257.520 205.020,251.241 198.893,251.021 199.113 C 250.899 199.234,250.800 199.113,250.800 198.844 C 250.800 198.230,246.815 194.164,246.346 194.300 C 246.156 194.355,246.045 194.265,246.100 194.100 C 246.155 193.935,246.020 193.715,245.800 193.612 C 245.580 193.509,244.011 192.024,242.313 190.312 C 240.615 188.600,239.085 187.193,238.913 187.184 C 238.741 187.176,238.010 186.367,237.290 185.388 C 236.569 184.408,235.783 183.650,235.543 183.703 C 234.756 183.877,234.833 182.285,235.661 181.231 C 236.108 180.664,236.546 180.245,236.636 180.300 C 237.174 180.628,237.722 180.337,237.200 180.000 C 236.717 179.688,236.781 179.611,237.524 179.606 C 238.036 179.603,238.337 179.422,238.200 179.200 C 238.064 178.980,238.156 178.800,238.405 178.800 C 239.085 178.800,239.996 177.753,240.032 176.929 C 240.049 176.528,240.150 176.414,240.256 176.675 C 240.459 177.173,242.000 176.142,242.000 175.507 C 242.000 175.012,244.237 172.800,244.738 172.800 C 244.986 172.800,245.665 172.080,246.247 171.200 C 246.830 170.320,247.563 169.600,247.877 169.600 C 248.191 169.600,248.336 169.420,248.200 169.200 C 248.064 168.980,248.156 168.800,248.405 168.800 C 248.984 168.800,250.000 167.791,250.000 167.216 C 250.000 166.973,250.315 166.655,250.700 166.508 C 251.085 166.361,253.231 164.403,255.469 162.156 C 257.706 159.909,259.612 158.145,259.703 158.237 C 259.934 158.467,262.178 155.955,262.506 155.100 C 262.654 154.715,263.010 154.400,263.298 154.400 C 263.902 154.400,266.208 151.964,266.071 151.470 C 266.021 151.289,266.144 151.242,266.345 151.366 C 266.545 151.490,266.932 151.323,267.204 150.996 C 267.845 150.223,267.626 150.113,269.927 152.366 " stroke="none" fill="#04bbe4" fill-rule="evenodd"></path><path id="path2" d="M325.564 133.133 C 325.780 133.536,326.271 134.121,326.655 134.433 C 327.087 134.784,326.990 134.504,326.401 133.700 C 325.351 132.265,324.957 131.998,325.564 133.133 M327.600 135.054 C 327.600 135.503,329.059 136.914,330.000 137.375 C 330.330 137.537,330.161 137.313,329.625 136.877 C 329.089 136.441,328.414 135.761,328.125 135.365 C 327.836 134.970,327.600 134.830,327.600 135.054 M190.820 151.079 C 188.412 153.573,187.669 154.948,188.466 155.441 C 189.016 155.780,188.844 156.400,188.200 156.400 C 187.870 156.400,187.638 156.535,187.685 156.700 C 187.809 157.138,186.827 158.806,185.780 159.935 C 185.279 160.475,184.957 161.143,185.063 161.419 C 185.169 161.696,184.868 162.682,184.395 163.611 C 178.732 174.711,178.993 190.805,185.036 203.129 C 186.466 206.045,196.178 216.818,197.351 216.789 C 198.225 216.768,232.165 182.990,231.840 182.465 C 231.417 181.781,198.005 150.052,196.988 149.369 C 194.782 147.887,193.582 148.219,190.820 151.079 M184.121 158.500 C 183.670 158.995,183.398 159.670,183.516 160.000 C 183.702 160.520,183.640 160.525,183.047 160.036 C 182.147 159.293,177.780 163.109,178.191 164.280 C 178.292 164.568,178.122 164.668,177.763 164.531 C 177.435 164.405,177.196 164.459,177.231 164.651 C 177.374 165.434,177.178 166.034,176.847 165.829 C 176.365 165.531,174.336 167.173,174.620 167.632 C 174.983 168.219,176.403 168.057,176.655 167.400 C 176.782 167.070,177.136 166.800,177.443 166.800 C 177.749 166.800,177.955 166.575,177.900 166.300 C 177.845 166.025,178.025 165.845,178.300 165.900 C 178.575 165.955,178.804 165.775,178.809 165.500 C 178.814 165.225,179.189 164.550,179.644 164.000 C 180.098 163.450,180.354 163.223,180.214 163.495 C 180.045 163.823,180.169 163.910,180.579 163.753 C 180.921 163.622,181.200 163.253,181.200 162.934 C 181.200 162.614,181.371 162.458,181.580 162.588 C 181.789 162.717,182.144 162.479,182.369 162.058 C 182.840 161.178,184.173 160.511,183.883 161.300 C 183.783 161.575,183.528 161.765,183.317 161.722 C 183.106 161.679,182.933 161.905,182.933 162.224 C 182.933 162.713,183.041 162.706,183.623 162.179 C 184.333 161.536,184.489 159.601,183.830 159.600 C 183.627 159.600,183.807 159.263,184.230 158.851 C 184.654 158.439,185.163 158.197,185.362 158.313 C 185.561 158.429,185.595 158.316,185.438 158.062 C 185.064 157.457,185.072 157.455,184.121 158.500 M277.200 160.000 C 277.897 160.880,278.557 161.600,278.667 161.600 C 278.777 161.600,278.297 160.880,277.600 160.000 C 276.903 159.120,276.243 158.400,276.133 158.400 C 276.023 158.400,276.503 159.120,277.200 160.000 M252.854 164.889 C 252.113 165.720,251.599 166.400,251.711 166.400 C 252.135 166.400,254.465 163.999,254.335 163.696 C 254.261 163.521,253.594 164.058,252.854 164.889 M172.468 169.255 C 171.752 169.896,171.272 170.593,171.403 170.805 C 171.537 171.021,171.368 171.086,171.021 170.953 C 170.328 170.687,170.227 171.107,170.776 171.974 C 171.058 172.421,171.265 172.444,171.706 172.078 C 172.018 171.819,172.392 171.695,172.537 171.803 C 172.682 171.912,172.710 171.880,172.599 171.732 C 172.489 171.585,172.697 171.135,173.061 170.732 C 173.426 170.330,173.586 170.000,173.418 170.000 C 173.249 170.000,173.519 169.670,174.017 169.266 C 174.727 168.692,174.798 168.485,174.347 168.312 C 174.031 168.190,173.185 168.615,172.468 169.255 M285.600 168.349 C 285.600 168.521,286.050 169.083,286.600 169.600 C 287.150 170.117,287.600 170.394,287.600 170.216 C 287.600 170.037,287.150 169.475,286.600 168.965 C 286.050 168.455,285.600 168.178,285.600 168.349 M246.079 171.426 C 245.323 172.455,244.570 173.105,244.317 172.949 C 244.045 172.781,243.990 172.861,244.174 173.157 C 244.472 173.640,247.630 171.207,248.143 170.100 C 248.709 168.879,247.276 169.799,246.079 171.426 M167.296 174.335 C 164.710 176.801,164.495 177.123,165.056 177.684 C 165.538 178.166,165.565 178.375,165.177 178.614 C 164.872 178.802,164.777 178.760,164.934 178.507 C 165.075 178.278,164.837 177.998,164.405 177.885 C 163.543 177.660,162.123 179.781,162.839 180.224 C 163.045 180.351,163.089 180.668,162.938 180.928 C 162.786 181.187,163.049 181.061,163.522 180.647 C 163.994 180.232,164.268 179.709,164.129 179.485 C 163.990 179.260,164.056 179.187,164.275 179.323 C 164.756 179.620,167.330 177.063,166.940 176.674 C 166.790 176.523,166.862 176.400,167.102 176.400 C 167.341 176.400,167.663 175.825,167.817 175.123 C 168.086 173.896,168.121 173.876,168.703 174.623 C 169.208 175.272,169.268 175.284,169.066 174.700 C 168.934 174.315,169.019 174.000,169.255 174.000 C 169.492 174.000,169.586 173.739,169.463 173.420 C 169.320 173.047,169.433 172.915,169.780 173.048 C 170.447 173.304,170.849 172.727,170.452 172.084 C 170.255 171.765,169.210 172.510,167.296 174.335 M293.530 176.172 C 294.773 177.366,295.858 178.276,295.941 178.193 C 296.136 177.998,291.971 174.000,291.573 174.000 C 291.406 174.000,292.287 174.977,293.530 176.172 M296.400 178.925 C 296.400 178.994,296.985 179.579,297.700 180.225 L 299.000 181.400 297.825 180.100 C 296.730 178.888,296.400 178.616,296.400 178.925 M161.428 180.355 C 161.307 180.550,161.456 180.914,161.758 181.165 C 162.177 181.513,162.358 181.485,162.526 181.049 C 162.868 180.158,161.920 179.559,161.428 180.355 M284.658 197.625 C 284.250 198.022,284.010 198.584,284.126 198.874 C 284.293 199.290,284.343 199.284,284.368 198.844 C 284.386 198.538,284.715 198.058,285.099 197.777 C 285.484 197.496,285.709 197.184,285.599 197.084 C 285.490 196.985,285.066 197.228,284.658 197.625 M329.588 228.277 C 328.165 229.750,327.350 230.695,327.777 230.377 C 328.919 229.529,332.759 225.600,332.445 225.600 C 332.298 225.600,331.012 226.805,329.588 228.277 M292.145 264.900 C 291.273 265.835,290.421 266.870,290.252 267.200 C 290.083 267.530,290.453 267.251,291.073 266.581 C 291.693 265.910,292.703 264.875,293.318 264.281 C 293.933 263.686,294.277 263.200,294.083 263.200 C 293.889 263.200,293.017 263.965,292.145 264.900 M287.600 269.000 C 287.322 269.335,287.279 269.600,287.502 269.600 C 287.722 269.600,288.126 269.330,288.400 269.000 C 288.678 268.665,288.721 268.400,288.498 268.400 C 288.278 268.400,287.874 268.670,287.600 269.000 M204.886 275.824 C 204.383 276.361,204.127 276.800,204.316 276.800 C 204.506 276.800,205.083 276.350,205.600 275.800 C 206.117 275.250,206.373 274.811,206.170 274.824 C 205.966 274.838,205.389 275.288,204.886 275.824 M273.291 283.184 C 272.792 283.601,272.522 284.027,272.691 284.130 C 272.861 284.233,273.323 283.886,273.719 283.359 C 274.578 282.212,274.497 282.179,273.291 283.184 M246.914 309.042 C 246.427 309.569,246.171 310.000,246.345 310.000 C 246.518 310.000,247.083 309.550,247.600 309.000 C 248.117 308.450,248.373 308.019,248.170 308.042 C 247.966 308.065,247.401 308.515,246.914 309.042 M177.868 339.781 C 178.474 340.541,179.043 341.090,179.132 341.001 C 179.346 340.787,177.490 338.451,177.083 338.422 C 176.909 338.410,177.262 339.022,177.868 339.781 M197.000 347.600 L 195.400 347.886 196.876 347.943 C 197.688 347.974,198.464 347.820,198.600 347.600 C 198.736 347.380,198.792 347.226,198.724 347.257 C 198.656 347.288,197.880 347.442,197.000 347.600 " stroke="none" fill="#04a4e3" fill-rule="evenodd"></path><path id="path3" d="M309.235 117.500 C 309.478 117.885,310.154 118.543,310.738 118.963 C 311.580 119.568,311.514 119.423,310.422 118.263 C 308.905 116.654,308.562 116.433,309.235 117.500 M195.300 148.276 C 195.685 148.376,196.315 148.376,196.700 148.276 C 197.085 148.175,196.770 148.093,196.000 148.093 C 195.230 148.093,194.915 148.175,195.300 148.276 M235.592 181.410 C 235.314 181.745,235.166 182.100,235.264 182.198 C 235.362 182.296,235.746 182.021,236.117 181.588 C 236.489 181.155,236.636 180.800,236.445 180.800 C 236.254 180.800,235.870 181.074,235.592 181.410 M160.400 181.980 C 160.400 182.211,160.564 182.400,160.765 182.400 C 160.965 182.400,169.251 190.455,179.177 200.300 C 189.103 210.145,197.219 218.098,197.212 217.973 C 197.163 217.054,160.400 181.109,160.400 181.980 M310.634 246.500 C 309.553 247.545,308.840 248.400,309.051 248.400 C 309.487 248.400,313.043 244.875,312.775 244.708 C 312.679 244.648,311.715 245.454,310.634 246.500 " stroke="none" fill="#0db8d4" fill-rule="evenodd"></path><path id="path4" d="M232.032 112.443 C 232.002 113.048,201.316 143.495,197.639 146.568 C 196.696 147.355,196.139 148.000,196.402 148.000 C 197.466 148.000,232.576 113.080,232.273 112.323 C 232.127 111.958,232.054 111.995,232.032 112.443 M178.527 200.184 C 188.386 210.024,196.610 218.463,196.801 218.937 C 197.131 219.756,197.151 219.759,197.186 219.000 C 197.218 218.297,163.906 184.672,161.369 182.847 C 160.946 182.542,168.667 190.344,178.527 200.184 M196.800 285.368 C 196.800 285.680,192.746 289.865,187.792 294.668 C 175.413 306.667,171.816 311.991,172.038 317.984 C 172.058 318.543,172.324 317.747,172.628 316.217 C 173.936 309.628,175.281 307.739,186.814 296.290 C 195.685 287.484,198.064 284.800,197.000 284.800 C 196.890 284.800,196.800 285.056,196.800 285.368 M171.709 321.200 C 171.709 322.190,171.787 322.595,171.882 322.100 C 171.978 321.605,171.978 320.795,171.882 320.300 C 171.787 319.805,171.709 320.210,171.709 321.200 M172.087 324.600 C 172.083 325.260,172.224 326.250,172.400 326.800 L 172.720 327.800 172.713 326.800 C 172.709 326.250,172.568 325.260,172.400 324.600 L 172.095 323.400 172.087 324.600 M172.817 328.354 C 172.808 328.658,173.610 330.617,174.600 332.707 C 176.470 336.654,176.718 337.444,175.938 336.962 C 175.652 336.785,175.585 336.852,175.762 337.138 C 176.044 337.595,177.200 337.796,177.200 337.389 C 177.200 337.272,176.632 336.057,175.937 334.689 C 175.243 333.320,174.261 331.210,173.754 330.000 C 173.248 328.790,172.826 328.049,172.817 328.354 " stroke="none" fill="#1cd0c8" fill-rule="evenodd"></path><path id="path5" d="M291.777 101.921 C 291.831 102.294,291.999 102.569,292.148 102.530 C 293.075 102.291,293.128 102.147,292.442 101.719 C 291.796 101.316,291.692 101.347,291.777 101.921 M338.970 146.278 C 339.029 146.675,339.209 146.970,339.371 146.933 C 339.979 146.796,340.002 146.500,339.442 146.035 C 338.972 145.645,338.884 145.690,338.970 146.278 M196.103 148.918 C 197.056 149.334,226.137 176.556,230.600 181.210 L 232.200 182.878 215.000 199.828 C 205.540 209.151,197.598 216.783,197.351 216.789 C 196.178 216.818,186.466 206.045,185.036 203.129 C 178.993 190.805,178.732 174.711,184.395 163.611 C 184.868 162.682,185.169 161.696,185.063 161.419 C 184.957 161.143,185.279 160.475,185.780 159.935 C 186.827 158.806,187.809 157.138,187.685 156.700 C 187.638 156.535,187.869 156.400,188.197 156.400 C 188.600 156.400,188.740 156.107,188.627 155.500 C 188.535 155.005,188.446 154.426,188.430 154.214 C 188.413 154.002,188.085 154.144,187.700 154.529 C 187.209 155.020,187.136 155.314,187.456 155.514 C 187.788 155.723,187.769 155.932,187.385 156.288 C 186.971 156.673,186.824 156.673,186.694 156.288 C 186.425 155.487,185.113 156.823,185.335 157.673 C 185.440 158.073,185.362 158.300,185.163 158.177 C 184.963 158.054,184.800 158.163,184.800 158.419 C 184.800 158.676,184.522 158.779,184.179 158.647 C 183.838 158.516,183.662 158.576,183.788 158.780 C 183.914 158.984,183.720 159.317,183.357 159.520 C 182.907 159.772,182.841 159.978,183.149 160.168 C 183.397 160.322,183.600 160.257,183.600 160.024 C 183.600 159.791,183.735 159.600,183.900 159.600 C 184.504 159.601,184.292 161.573,183.623 162.179 C 183.041 162.706,182.933 162.713,182.933 162.224 C 182.933 161.905,183.106 161.679,183.317 161.722 C 183.528 161.765,183.783 161.575,183.883 161.300 C 184.173 160.511,182.840 161.178,182.369 162.058 C 182.144 162.479,181.789 162.717,181.580 162.588 C 181.371 162.458,181.200 162.614,181.200 162.934 C 181.200 163.253,180.921 163.622,180.579 163.753 C 180.169 163.910,180.045 163.823,180.214 163.495 C 180.354 163.223,180.098 163.450,179.644 164.000 C 179.189 164.550,178.814 165.225,178.809 165.500 C 178.804 165.775,178.575 165.955,178.300 165.900 C 178.025 165.845,177.845 166.025,177.900 166.300 C 177.955 166.575,177.749 166.800,177.443 166.800 C 177.136 166.800,176.782 167.070,176.655 167.400 C 176.529 167.730,176.014 167.997,175.513 167.994 C 174.787 167.989,174.722 167.911,175.195 167.612 C 175.672 167.310,175.626 167.248,174.962 167.298 C 174.126 167.361,173.762 168.389,174.567 168.413 C 174.805 168.421,174.575 168.781,174.056 169.213 C 173.536 169.646,173.249 170.000,173.418 170.000 C 173.586 170.000,173.426 170.330,173.061 170.732 C 172.697 171.135,172.489 171.585,172.599 171.732 C 172.710 171.880,172.682 171.912,172.537 171.803 C 172.392 171.695,172.018 171.819,171.706 172.078 C 171.265 172.444,171.053 172.421,170.753 171.974 C 170.449 171.522,170.391 171.570,170.483 172.200 C 170.562 172.742,170.384 172.984,169.932 172.950 C 169.518 172.919,169.344 173.109,169.474 173.450 C 169.591 173.752,169.492 174.000,169.255 174.000 C 169.019 174.000,168.934 174.315,169.066 174.700 C 169.268 175.284,169.208 175.272,168.703 174.623 C 168.121 173.876,168.086 173.896,167.817 175.123 C 167.663 175.825,167.360 176.400,167.145 176.400 C 166.929 176.400,166.846 176.551,166.961 176.737 C 167.256 177.214,164.618 179.679,164.210 179.307 C 164.024 179.138,163.986 179.201,164.126 179.447 C 164.267 179.692,163.994 180.232,163.522 180.647 C 163.049 181.061,162.786 181.187,162.938 180.928 C 163.089 180.668,163.026 180.339,162.797 180.198 C 162.568 180.056,162.406 180.089,162.437 180.270 C 162.610 181.262,162.379 181.681,161.887 181.272 C 161.596 181.031,161.141 180.989,160.839 181.176 C 160.408 181.442,160.431 181.578,160.957 181.872 C 161.317 182.073,169.585 190.194,179.332 199.919 C 189.079 209.643,197.189 217.600,197.354 217.600 C 197.770 217.600,231.674 184.492,232.336 183.439 C 232.972 182.428,233.416 182.878,208.600 159.377 C 197.060 148.448,197.003 148.398,195.961 148.418 C 195.020 148.436,195.023 148.446,196.103 148.918 M267.600 150.627 C 267.600 150.986,271.261 154.400,271.646 154.400 C 271.837 154.400,271.428 153.860,270.737 153.200 C 270.046 152.540,269.340 152.000,269.168 152.000 C 268.995 152.000,268.740 151.640,268.600 151.200 C 268.374 150.489,267.600 150.045,267.600 150.627 M352.348 165.737 C 352.593 166.032,352.705 166.362,352.597 166.470 C 352.488 166.578,352.653 166.667,352.962 166.667 C 353.406 166.667,353.428 166.514,353.066 165.933 C 352.814 165.530,352.449 165.200,352.255 165.200 C 352.061 165.200,352.103 165.442,352.348 165.737 M243.187 174.012 C 242.474 174.678,241.996 175.330,242.126 175.459 C 242.256 175.589,242.595 175.443,242.881 175.135 C 245.176 172.659,245.361 171.981,243.187 174.012 M355.800 182.400 C 355.485 182.910,355.904 183.602,356.524 183.594 C 356.811 183.590,356.762 183.432,356.400 183.194 C 355.867 182.844,355.867 182.756,356.400 182.406 C 356.762 182.168,356.811 182.010,356.524 182.006 C 356.262 182.003,355.936 182.180,355.800 182.400 M261.600 209.338 C 261.600 209.400,262.169 209.979,262.865 210.625 C 264.128 211.798,264.129 211.798,263.365 210.717 C 262.728 209.815,261.600 208.934,261.600 209.338 M200.108 222.771 C 200.143 223.245,200.536 223.940,200.979 224.316 C 201.751 224.970,201.761 224.968,201.211 224.260 C 200.894 223.852,200.596 223.251,200.548 222.923 C 200.406 221.958,200.037 221.831,200.108 222.771 M202.400 225.186 C 202.400 225.398,202.805 225.784,203.300 226.044 C 204.195 226.514,204.196 226.512,203.438 225.658 C 202.591 224.705,202.400 224.618,202.400 225.186 M204.800 227.600 C 205.240 228.040,205.718 228.400,205.862 228.400 C 206.006 228.400,205.798 228.040,205.400 227.600 C 205.002 227.160,204.524 226.800,204.338 226.800 C 204.152 226.800,204.360 227.160,204.800 227.600 M324.600 232.706 C 324.236 232.974,323.848 234.000,324.111 234.000 C 324.172 234.000,324.530 233.640,324.907 233.200 C 325.577 232.417,325.394 232.123,324.600 232.706 M229.211 252.187 C 228.943 252.509,228.786 252.942,228.862 253.150 C 228.938 253.357,229.323 253.093,229.719 252.563 C 230.485 251.536,230.031 251.199,229.211 252.187 M299.500 257.266 C 298.200 258.725,298.049 259.241,299.237 258.166 C 299.974 257.500,301.022 255.974,300.714 256.016 C 300.651 256.024,300.105 256.587,299.500 257.266 M218.182 263.103 L 217.476 264.200 218.438 263.404 C 218.967 262.967,219.457 262.580,219.527 262.544 C 219.596 262.509,219.481 262.374,219.270 262.243 C 219.060 262.113,218.570 262.500,218.182 263.103 M215.700 265.396 C 214.482 266.605,213.883 267.967,214.827 267.384 C 215.061 267.239,215.166 267.032,215.059 266.926 C 214.952 266.819,215.435 266.221,216.132 265.599 C 216.829 264.976,217.310 264.385,217.200 264.286 C 217.090 264.187,216.415 264.686,215.700 265.396 M268.171 287.791 C 267.494 288.303,267.483 288.376,268.076 288.387 C 268.448 288.394,268.871 288.208,269.016 287.973 C 269.452 287.268,268.993 287.170,268.171 287.791 M237.890 317.567 C 237.280 318.161,236.899 318.765,237.043 318.910 C 237.269 319.136,239.600 316.992,239.600 316.558 C 239.600 316.167,238.910 316.574,237.890 317.567 M235.500 319.632 C 235.115 319.856,234.803 320.256,234.806 320.520 C 234.810 320.852,234.903 320.866,235.106 320.566 C 235.268 320.327,235.760 319.927,236.200 319.678 C 236.640 319.428,236.820 319.224,236.600 319.224 C 236.380 319.224,235.885 319.408,235.500 319.632 M230.766 324.324 C 230.417 324.696,229.998 325.270,229.836 325.600 C 229.659 325.960,229.770 325.920,230.114 325.500 C 230.430 325.115,230.893 324.800,231.144 324.800 C 231.395 324.800,231.600 324.530,231.600 324.200 C 231.600 323.469,231.562 323.475,230.766 324.324 " stroke="none" fill="#04acdc" fill-rule="evenodd"></path><path id="path6" d="M214.000 130.100 C 204.210 139.785,197.280 146.785,198.600 145.657 C 202.097 142.666,232.236 112.914,232.000 112.685 C 231.890 112.579,223.790 120.415,214.000 130.100 M174.000 196.140 C 181.590 203.792,189.780 211.875,192.200 214.103 C 194.620 216.330,196.240 217.792,195.800 217.351 C 195.360 216.910,187.170 208.826,177.600 199.388 C 160.442 182.466,160.392 182.421,174.000 196.140 M186.345 295.600 C 173.781 308.096,172.073 310.830,171.479 319.400 L 171.257 322.600 171.830 318.800 C 173.213 309.637,174.352 307.911,187.568 294.948 C 192.756 289.860,196.910 285.630,196.800 285.548 C 196.690 285.467,191.985 289.990,186.345 295.600 M171.649 323.942 C 171.581 325.796,172.591 329.492,173.990 332.516 C 174.667 333.978,175.072 335.403,174.947 335.881 C 174.828 336.337,174.954 336.848,175.227 337.017 C 175.577 337.233,175.624 337.158,175.385 336.762 C 175.097 336.283,175.147 336.281,175.723 336.749 C 176.762 337.592,176.569 336.715,175.048 333.690 C 173.350 330.314,172.440 327.642,172.023 324.811 C 171.787 323.208,171.684 322.969,171.649 323.942 " stroke="none" fill="#24dcc4" fill-rule="evenodd"></path><path id="path7" d="M159.516 60.697 C 160.899 60.775,163.059 60.774,164.316 60.695 C 165.572 60.616,164.440 60.552,161.800 60.553 C 159.160 60.553,158.132 60.618,159.516 60.697 M197.200 76.525 C 197.200 76.594,197.785 77.179,198.500 77.825 L 199.800 79.000 198.625 77.700 C 197.530 76.488,197.200 76.216,197.200 76.525 M120.187 82.100 L 117.800 84.600 120.300 82.213 C 122.622 79.995,122.983 79.600,122.687 79.600 C 122.626 79.600,121.501 80.725,120.187 82.100 M211.000 90.000 C 211.859 90.880,212.652 91.600,212.762 91.600 C 212.872 91.600,212.259 90.880,211.400 90.000 C 210.541 89.120,209.748 88.400,209.638 88.400 C 209.528 88.400,210.141 89.120,211.000 90.000 M215.200 94.200 C 215.946 94.970,216.647 95.600,216.757 95.600 C 216.867 95.600,216.346 94.970,215.600 94.200 C 214.854 93.430,214.153 92.800,214.043 92.800 C 213.933 92.800,214.454 93.430,215.200 94.200 M265.200 95.200 C 265.200 95.422,266.267 95.600,267.600 95.600 C 268.933 95.600,270.000 95.422,270.000 95.200 C 270.000 94.978,268.933 94.800,267.600 94.800 C 266.267 94.800,265.200 94.978,265.200 95.200 M103.178 98.700 L 101.800 100.200 103.300 98.822 C 104.125 98.063,104.800 97.388,104.800 97.322 C 104.800 97.016,104.462 97.304,103.178 98.700 M91.600 110.200 C 90.628 111.190,89.923 112.000,90.033 112.000 C 90.143 112.000,91.028 111.190,92.000 110.200 C 92.972 109.210,93.677 108.400,93.567 108.400 C 93.457 108.400,92.572 109.210,91.600 110.200 M231.427 109.930 C 232.316 110.899,233.364 110.793,233.786 109.691 C 233.990 109.160,233.889 109.177,233.217 109.784 C 232.422 110.504,232.376 110.504,231.500 109.777 L 230.600 109.030 231.427 109.930 M303.000 110.946 C 304.100 111.966,304.951 112.994,304.890 113.230 C 304.830 113.466,304.948 113.556,305.154 113.429 C 305.359 113.302,305.963 113.693,306.496 114.299 C 307.029 114.905,308.350 116.208,309.432 117.195 C 310.515 118.183,309.600 117.135,307.400 114.867 C 305.200 112.599,302.860 110.371,302.200 109.917 C 301.540 109.463,301.900 109.926,303.000 110.946 M232.432 112.003 C 232.400 113.020,230.982 114.472,205.561 139.522 C 200.810 144.204,197.144 147.982,197.415 147.918 C 198.336 147.698,232.416 113.877,232.648 112.953 C 232.774 112.448,232.785 111.802,232.671 111.517 C 232.557 111.233,232.449 111.451,232.432 112.003 M82.185 119.300 L 80.200 121.400 82.300 119.415 C 84.251 117.571,84.583 117.200,84.285 117.200 C 84.222 117.200,83.277 118.145,82.185 119.300 M313.383 121.200 C 314.455 122.410,315.480 123.568,315.660 123.773 C 315.839 123.979,316.075 124.058,316.183 123.950 C 316.291 123.843,315.266 122.685,313.907 121.377 L 311.434 119.000 313.383 121.200 M169.000 123.600 C 170.306 124.920,171.465 126.000,171.575 126.000 C 171.685 126.000,170.706 124.920,169.400 123.600 C 168.094 122.280,166.935 121.200,166.825 121.200 C 166.715 121.200,167.694 122.280,169.000 123.600 M321.595 129.191 C 321.828 129.626,322.419 130.189,322.909 130.443 C 323.652 130.827,323.605 130.695,322.625 129.652 C 321.264 128.202,321.003 128.085,321.595 129.191 M141.994 135.500 L 137.000 140.600 142.100 135.606 C 146.837 130.967,147.381 130.400,147.094 130.400 C 147.036 130.400,144.741 132.695,141.994 135.500 M62.985 138.100 L 61.000 140.200 63.100 138.215 C 65.051 136.371,65.383 136.000,65.085 136.000 C 65.022 136.000,64.077 136.945,62.985 138.100 M186.000 140.125 C 186.000 140.194,186.585 140.779,187.300 141.425 L 188.600 142.600 187.425 141.300 C 186.330 140.088,186.000 139.816,186.000 140.125 M57.789 143.300 L 55.000 146.200 57.900 143.411 C 60.594 140.820,60.983 140.400,60.689 140.400 C 60.628 140.400,59.323 141.705,57.789 143.300 M191.214 145.410 C 192.636 146.956,193.882 148.164,193.981 148.095 C 194.081 148.027,192.918 146.762,191.396 145.285 L 188.628 142.600 191.214 145.410 M340.800 148.000 C 340.800 148.220,340.991 148.400,341.224 148.400 C 341.457 148.400,341.519 148.608,341.362 148.862 C 341.184 149.149,341.252 149.215,341.542 149.036 C 341.810 148.870,342.132 149.056,342.303 149.474 C 342.467 149.873,342.870 150.258,343.200 150.329 C 343.530 150.401,343.180 149.816,342.422 149.029 C 340.926 147.479,340.800 147.399,340.800 148.000 M184.989 156.900 L 182.200 159.800 185.100 157.011 C 187.794 154.420,188.183 154.000,187.889 154.000 C 187.828 154.000,186.523 155.305,184.989 156.900 M271.978 155.337 C 272.737 156.142,273.422 156.800,273.501 156.800 C 273.861 156.800,272.377 155.062,271.537 154.500 C 270.918 154.086,271.068 154.370,271.978 155.337 M259.100 158.917 C 257.615 160.299,256.400 161.598,256.400 161.804 C 256.400 162.010,257.660 160.928,259.200 159.400 C 261.778 156.842,262.180 156.396,261.900 156.402 C 261.845 156.404,260.585 157.535,259.100 158.917 M351.620 162.800 C 351.611 163.514,352.276 164.657,352.546 164.388 C 352.649 164.284,352.486 163.749,352.181 163.199 C 351.861 162.620,351.625 162.452,351.620 162.800 M289.183 172.138 C 290.164 173.162,291.025 174.000,291.097 174.000 C 291.577 174.000,290.180 172.333,288.919 171.400 L 287.400 170.276 289.183 172.138 M355.228 174.276 C 355.318 175.315,355.944 176.196,355.972 175.324 C 355.987 174.842,355.820 174.336,355.600 174.200 C 355.380 174.064,355.213 174.098,355.228 174.276 M240.400 177.304 C 239.410 178.237,238.340 179.360,238.022 179.800 C 237.705 180.240,238.560 179.526,239.922 178.213 C 242.190 176.027,242.587 175.592,242.300 175.604 C 242.245 175.607,241.390 176.372,240.400 177.304 M299.600 182.398 C 299.600 182.705,299.105 183.506,298.500 184.178 L 297.400 185.400 298.798 184.200 C 299.567 183.540,300.275 182.952,300.371 182.893 C 300.468 182.835,300.334 182.574,300.073 182.313 C 299.709 181.949,299.600 181.968,299.600 182.398 M95.800 184.800 C 96.883 185.900,97.860 186.800,97.970 186.800 C 98.080 186.800,97.283 185.900,96.200 184.800 C 95.117 183.700,94.140 182.800,94.030 182.800 C 93.920 182.800,94.717 183.700,95.800 184.800 M294.378 188.300 L 293.000 189.800 294.500 188.422 C 295.896 187.138,296.184 186.800,295.878 186.800 C 295.812 186.800,295.137 187.475,294.378 188.300 M248.800 196.200 C 249.546 196.970,250.247 197.600,250.357 197.600 C 250.467 197.600,249.946 196.970,249.200 196.200 C 248.454 195.430,247.753 194.800,247.643 194.800 C 247.533 194.800,248.054 195.430,248.800 196.200 M276.781 205.493 C 272.942 209.378,270.786 211.667,271.991 210.579 C 275.086 207.784,284.062 198.728,283.898 198.565 C 283.824 198.490,280.621 201.608,276.781 205.493 M138.589 202.500 L 135.800 205.400 138.700 202.611 C 141.394 200.020,141.783 199.600,141.489 199.600 C 141.428 199.600,140.123 200.905,138.589 202.500 M254.013 201.283 C 254.325 201.755,261.643 209.179,262.035 209.421 C 262.912 209.964,262.142 209.133,258.113 205.193 C 255.755 202.887,253.910 201.127,254.013 201.283 M265.200 212.125 C 265.200 212.194,265.785 212.779,266.500 213.425 L 267.800 214.600 266.625 213.300 C 265.530 212.088,265.200 211.816,265.200 212.125 M339.214 218.882 C 336.914 221.128,334.497 223.603,333.844 224.382 C 333.192 225.162,335.120 223.373,338.129 220.406 C 341.138 217.439,343.600 214.964,343.600 214.906 C 343.600 214.635,343.133 215.059,339.214 218.882 M55.600 220.200 C 56.346 220.970,57.047 221.600,57.157 221.600 C 57.267 221.600,56.746 220.970,56.000 220.200 C 55.254 219.430,54.553 218.800,54.443 218.800 C 54.333 218.800,54.854 219.430,55.600 220.200 M198.181 221.526 C 199.051 222.447,199.825 223.200,199.901 223.200 C 200.289 223.200,199.236 221.968,198.000 220.976 C 196.615 219.864,196.617 219.870,198.181 221.526 M209.787 232.722 C 211.101 234.085,212.239 235.200,212.318 235.200 C 212.631 235.200,210.521 232.920,209.007 231.622 C 208.028 230.783,208.333 231.213,209.787 232.722 M69.600 233.725 C 69.600 233.794,70.185 234.379,70.900 235.025 L 72.200 236.200 71.025 234.900 C 69.930 233.688,69.600 233.416,69.600 233.725 M215.800 238.800 C 216.659 239.680,217.452 240.400,217.562 240.400 C 217.672 240.400,217.059 239.680,216.200 238.800 C 215.341 237.920,214.548 237.200,214.438 237.200 C 214.328 237.200,214.941 237.920,215.800 238.800 M318.094 239.573 C 316.722 240.878,315.600 242.088,315.600 242.262 C 315.600 242.435,316.770 241.417,318.200 240.000 C 320.611 237.610,320.977 237.200,320.694 237.200 C 320.636 237.200,319.466 238.268,318.094 239.573 M222.987 245.514 C 224.301 246.881,225.420 248.000,225.475 248.000 C 225.897 248.000,224.734 246.678,222.850 245.014 L 220.600 243.028 222.987 245.514 M227.978 250.528 C 228.737 251.337,229.406 252.000,229.466 252.000 C 229.872 252.000,228.933 250.838,227.873 250.028 L 226.600 249.055 227.978 250.528 M300.694 256.514 C 299.206 258.059,298.046 259.380,298.116 259.450 C 298.187 259.520,299.484 258.328,301.000 256.800 C 302.516 255.272,303.676 253.952,303.578 253.865 C 303.480 253.778,302.182 254.970,300.694 256.514 M91.800 255.600 C 92.659 256.480,93.452 257.200,93.562 257.200 C 93.672 257.200,93.059 256.480,92.200 255.600 C 91.341 254.720,90.548 254.000,90.438 254.000 C 90.328 254.000,90.941 254.720,91.800 255.600 M220.175 260.900 L 219.000 262.200 220.300 261.025 C 221.015 260.379,221.600 259.794,221.600 259.725 C 221.600 259.416,221.270 259.688,220.175 260.900 M279.607 277.247 C 277.161 279.692,275.223 281.756,275.300 281.833 C 275.377 281.910,277.498 279.909,280.013 277.387 C 282.529 274.864,284.467 272.800,284.320 272.800 C 284.173 272.800,282.052 274.801,279.607 277.247 M200.086 280.513 C 198.939 281.674,198.000 282.767,198.000 282.941 C 198.000 283.115,198.225 283.007,198.500 282.702 C 198.775 282.397,199.802 281.304,200.783 280.273 C 203.226 277.708,202.667 277.899,200.086 280.513 M197.200 285.390 C 197.200 285.715,192.526 290.620,186.814 296.290 C 176.716 306.314,176.382 306.696,174.775 310.078 C 171.095 317.820,171.214 324.773,175.171 333.055 C 176.283 335.383,177.077 337.476,176.935 337.706 C 176.784 337.949,176.869 338.004,177.138 337.838 C 177.865 337.389,177.726 336.916,175.603 332.631 C 171.269 323.883,171.707 314.956,176.840 307.400 C 177.697 306.138,190.465 293.215,196.470 287.531 C 197.426 286.626,198.048 284.800,197.400 284.800 C 197.290 284.800,197.200 285.066,197.200 285.390 M265.375 291.300 L 264.200 292.600 265.500 291.425 C 266.215 290.779,266.800 290.194,266.800 290.125 C 266.800 289.816,266.470 290.088,265.375 291.300 M257.400 299.049 C 255.624 301.109,255.639 301.162,257.506 299.419 C 258.438 298.549,259.200 297.784,259.200 297.719 C 259.200 297.287,258.426 297.859,257.400 299.049 M252.800 303.800 C 251.828 304.790,251.123 305.600,251.233 305.600 C 251.343 305.600,252.228 304.790,253.200 303.800 C 254.172 302.810,254.877 302.000,254.767 302.000 C 254.657 302.000,253.772 302.810,252.800 303.800 M244.600 311.323 C 244.160 311.823,242.908 313.215,241.818 314.416 C 240.426 315.950,240.753 315.711,242.918 313.610 C 244.613 311.966,246.000 310.571,246.000 310.510 C 246.000 310.131,245.282 310.548,244.600 311.323 M234.985 321.300 L 233.000 323.400 235.100 321.415 C 237.051 319.571,237.383 319.200,237.085 319.200 C 237.022 319.200,236.077 320.145,234.985 321.300 M227.158 328.544 C 225.091 330.603,222.864 332.898,222.210 333.644 C 221.555 334.390,223.310 332.753,226.110 330.006 C 228.909 327.259,231.200 324.964,231.200 324.906 C 231.200 324.578,230.569 325.146,227.158 328.544 M171.600 333.800 C 173.017 335.230,174.267 336.400,174.377 336.400 C 174.487 336.400,173.417 335.230,172.000 333.800 C 170.583 332.370,169.333 331.200,169.223 331.200 C 169.113 331.200,170.183 332.370,171.600 333.800 M216.621 339.129 L 215.443 340.600 216.921 339.222 C 218.449 337.797,218.610 337.580,218.100 337.629 C 217.935 337.645,217.270 338.320,216.621 339.129 " stroke="none" fill="#0cc4dc" fill-rule="evenodd"></path><path id="path8" d="" stroke="none" fill="#10b4e0" fill-rule="evenodd"></path></g></svg>