<svg id="svg" version="1.1" xmlns="http://www.w3.org/2000/svg" xmlns:xlink="http://www.w3.org/1999/xlink" width="400" height="400" viewBox="0, 0, 400,400"><g id="svgg"><path id="path0" d="M0.000 200.000 L 0.000 400.000 200.000 400.000 L 400.000 400.000 400.000 200.000 L 400.000 0.000 200.000 0.000 L 0.000 0.000 0.000 200.000 M288.640 111.106 C 289.897 111.945,290.000 113.258,289.987 128.274 C 289.970 146.814,290.574 145.200,283.650 145.200 C 277.464 145.200,277.916 146.113,277.934 133.661 C 277.943 127.363,277.796 123.637,277.528 123.313 C 277.003 122.680,121.916 122.548,120.256 123.179 L 119.249 123.562 119.213 163.059 C 119.193 184.782,119.117 202.616,119.044 202.690 C 118.928 202.806,110.271 202.929,108.900 202.835 C 108.503 202.807,108.400 193.362,108.400 157.033 C 108.400 120.794,108.504 111.225,108.900 111.065 C 109.703 110.741,288.155 110.782,288.640 111.106 M174.157 184.233 C 174.291 184.581,174.400 187.911,174.400 191.633 C 174.400 195.800,174.551 198.400,174.793 198.400 C 175.009 198.400,177.213 196.420,179.690 194.000 L 184.193 189.600 186.620 189.600 C 191.500 189.600,191.196 190.351,183.708 196.800 C 181.146 199.006,181.099 198.411,184.200 202.985 C 185.630 205.094,186.800 206.995,186.800 207.210 C 186.800 207.424,186.977 207.600,187.192 207.600 C 187.408 207.600,187.694 208.037,187.828 208.571 C 187.963 209.105,188.326 209.639,188.636 209.759 C 188.946 209.878,189.200 210.231,189.200 210.545 C 189.200 210.858,189.470 211.218,189.800 211.345 C 190.515 211.619,190.614 213.821,189.930 214.243 C 188.164 215.335,183.600 213.765,183.600 212.066 C 183.600 211.864,183.342 211.484,183.026 211.222 C 182.711 210.960,182.060 209.993,181.581 209.073 C 181.101 208.153,180.189 206.744,179.554 205.942 C 178.919 205.141,178.400 204.280,178.400 204.030 C 178.400 202.951,177.091 203.148,175.774 204.426 L 174.400 205.757 174.400 209.864 C 174.400 214.552,174.169 214.905,171.400 214.450 L 169.800 214.187 169.688 199.793 C 169.627 191.877,169.676 184.995,169.796 184.500 C 170.074 183.358,173.735 183.134,174.157 184.233 M225.669 185.062 C 226.704 185.999,226.804 212.845,225.777 214.311 C 224.858 215.624,221.405 215.616,221.052 214.300 C 220.542 212.397,220.772 184.878,221.300 184.665 C 222.447 184.202,224.972 184.432,225.669 185.062 M155.780 189.242 C 155.989 189.439,156.742 189.600,157.452 189.600 C 161.034 189.600,164.992 195.615,162.675 197.538 C 161.538 198.481,158.621 197.969,158.475 196.800 C 158.066 193.531,149.200 193.004,149.200 196.249 C 149.200 196.795,149.437 197.200,149.757 197.200 C 150.064 197.200,150.418 197.470,150.545 197.800 C 150.686 198.168,151.292 198.400,152.111 198.400 C 152.846 198.400,153.796 198.664,154.224 198.987 C 154.651 199.310,155.743 199.580,156.651 199.587 C 157.617 199.595,158.509 199.849,158.800 200.200 C 159.074 200.530,159.623 200.800,160.020 200.800 C 160.418 200.800,160.981 201.035,161.271 201.322 C 161.562 201.610,162.087 201.953,162.437 202.086 C 165.166 203.118,165.054 209.750,162.262 212.461 C 160.052 214.608,151.169 216.367,150.228 214.845 C 150.107 214.650,149.422 214.375,148.704 214.234 C 147.511 213.999,144.800 211.987,144.800 211.337 C 144.800 211.186,144.545 210.779,144.234 210.431 C 143.545 209.663,143.066 207.167,143.492 206.560 C 144.638 204.924,149.200 206.184,149.200 208.136 C 149.200 210.319,158.034 210.711,158.576 208.553 C 158.975 206.965,158.422 205.619,157.256 205.341 C 156.675 205.203,156.020 204.951,155.800 204.782 C 155.580 204.613,154.500 204.345,153.400 204.185 C 152.300 204.026,150.914 203.649,150.320 203.348 C 149.726 203.047,148.942 202.800,148.577 202.800 C 147.722 202.800,144.800 200.491,144.800 199.815 C 144.800 199.531,144.530 199.074,144.200 198.800 C 141.856 196.854,145.899 189.600,149.327 189.600 C 149.867 189.600,150.914 189.335,151.654 189.011 C 152.993 188.425,155.034 188.539,155.780 189.242 M208.905 189.477 C 213.548 190.264,214.400 192.306,214.400 202.650 C 214.400 209.689,214.433 210.000,215.186 210.000 C 216.708 210.000,217.323 212.675,216.177 214.311 C 214.955 216.056,209.600 214.905,209.600 212.898 C 209.600 212.488,209.308 212.553,208.469 213.151 C 206.033 214.885,199.344 216.003,198.600 214.800 C 198.464 214.580,198.031 214.400,197.638 214.400 C 192.040 214.400,191.986 202.185,197.579 200.950 C 198.140 200.826,199.167 200.472,199.860 200.162 C 200.554 199.853,202.070 199.600,203.229 199.600 C 205.571 199.600,208.246 198.559,208.524 197.540 C 209.801 192.862,201.102 192.472,199.184 197.121 C 198.845 197.942,198.576 198.029,196.702 197.921 L 194.600 197.800 194.660 195.955 C 194.730 193.814,196.141 191.304,197.471 190.956 C 197.950 190.830,198.439 190.474,198.559 190.164 C 198.691 189.818,199.360 189.598,200.287 189.594 C 201.119 189.591,202.070 189.405,202.400 189.182 C 203.004 188.773,205.388 188.881,208.905 189.477 M245.000 189.200 C 245.136 189.420,245.694 189.600,246.240 189.600 C 247.574 189.600,251.600 192.527,251.600 193.497 C 251.600 193.720,251.870 194.126,252.200 194.400 C 252.530 194.674,252.801 195.191,252.802 195.549 C 252.804 195.907,253.090 196.740,253.439 197.400 C 254.174 198.791,254.340 203.020,253.686 203.674 C 253.390 203.970,250.504 204.119,245.021 204.120 L 236.800 204.122 236.800 205.075 C 236.800 206.089,237.688 207.670,239.000 208.993 C 241.115 211.126,247.940 209.708,248.452 207.029 C 248.697 205.753,252.708 205.281,253.427 206.443 C 254.391 208.003,250.143 213.751,247.658 214.248 C 246.957 214.389,246.286 214.660,246.168 214.852 C 245.885 215.310,240.112 215.304,239.828 214.845 C 239.707 214.650,238.994 214.375,238.243 214.234 C 236.085 213.830,232.000 209.433,232.000 207.514 C 232.000 207.189,231.708 206.337,231.350 205.620 C 230.606 204.129,230.741 198.699,231.541 197.899 C 231.794 197.646,232.000 197.063,232.000 196.601 C 232.000 196.140,232.315 195.344,232.700 194.832 C 234.189 192.851,236.110 190.800,236.475 190.800 C 236.685 190.800,237.127 190.530,237.457 190.200 C 237.787 189.870,238.539 189.597,239.129 189.594 C 239.718 189.591,240.470 189.413,240.800 189.200 C 241.590 188.689,244.684 188.689,245.000 189.200 M239.900 194.276 C 239.515 194.376,239.200 194.625,239.200 194.829 C 239.200 195.033,238.930 195.200,238.600 195.200 C 238.270 195.200,238.000 195.538,238.000 195.951 C 238.000 196.364,237.730 196.926,237.400 197.200 C 235.932 198.419,236.697 198.747,241.300 198.875 C 247.373 199.044,248.400 198.908,248.400 197.936 C 248.400 195.540,243.363 193.371,239.900 194.276 M289.024 201.368 C 290.052 202.119,290.476 291.507,289.456 292.354 C 288.880 292.831,109.531 293.052,108.761 292.576 C 108.556 292.449,108.400 285.281,108.400 275.990 C 108.400 256.966,107.854 258.800,113.514 258.800 C 120.542 258.800,120.400 258.548,120.400 270.974 L 120.400 280.800 199.400 280.800 L 278.400 280.800 278.400 241.033 C 278.400 209.594,278.505 201.224,278.900 201.065 C 280.132 200.568,288.262 200.811,289.024 201.368 M207.600 203.079 C 207.270 203.178,206.640 203.411,206.200 203.598 C 205.760 203.785,204.320 204.048,203.000 204.183 C 201.680 204.317,200.540 204.601,200.467 204.814 C 200.393 205.026,200.097 205.200,199.809 205.200 C 199.292 205.200,198.859 207.523,199.121 208.884 C 199.378 210.218,207.200 210.292,207.200 208.961 C 207.200 208.652,207.444 208.400,207.743 208.400 C 208.114 208.400,208.368 207.615,208.545 205.922 C 208.813 203.354,208.621 202.774,207.600 203.079 " stroke="none" fill="#1b1b14" fill-rule="evenodd"></path><path id="path1" d="M109.200 157.200 L 109.200 202.000 113.800 202.000 L 118.400 202.000 118.400 162.480 C 118.400 132.276,118.513 122.847,118.880 122.480 C 119.810 121.550,278.270 121.810,278.769 122.742 C 279.009 123.191,279.084 125.839,278.958 129.442 C 278.843 132.719,278.868 137.245,279.013 139.500 L 279.277 143.600 283.838 143.600 L 288.400 143.600 288.400 128.000 L 288.400 112.400 198.800 112.400 L 109.200 112.400 109.200 157.200 M170.900 185.065 C 170.513 185.221,170.400 188.479,170.400 199.457 L 170.400 213.648 171.900 213.524 L 173.400 213.400 173.513 208.935 L 173.626 204.470 175.240 203.011 C 176.129 202.209,177.136 201.608,177.479 201.676 C 178.074 201.794,181.517 206.224,181.573 206.942 C 181.588 207.131,182.095 207.941,182.700 208.744 C 184.075 210.568,184.695 211.552,185.191 212.700 C 185.521 213.462,185.888 213.600,187.590 213.600 C 189.658 213.600,190.047 213.269,189.000 212.400 C 188.670 212.126,188.400 211.669,188.400 211.384 C 188.400 211.100,188.265 210.807,188.100 210.733 C 187.376 210.412,180.647 199.777,180.702 199.042 C 180.736 198.587,182.496 196.540,184.681 194.413 C 188.471 190.725,188.561 190.596,187.451 190.469 C 185.417 190.236,184.684 190.716,179.605 195.600 C 176.857 198.242,174.427 200.343,174.205 200.269 C 173.957 200.186,173.758 197.310,173.691 192.854 L 173.582 185.573 172.565 185.187 C 172.006 184.974,171.515 184.814,171.474 184.832 C 171.433 184.849,171.175 184.954,170.900 185.065 M222.100 185.456 C 221.714 185.619,221.600 188.801,221.600 199.443 L 221.600 213.220 222.669 213.626 C 224.867 214.462,224.819 214.794,224.705 199.511 L 224.600 185.400 223.600 185.323 C 223.050 185.280,222.375 185.340,222.100 185.456 M148.224 191.137 C 145.046 192.929,143.865 197.807,146.100 199.905 C 147.160 200.900,150.280 202.379,151.346 202.391 C 152.217 202.401,155.557 203.441,157.673 204.360 C 162.281 206.362,160.321 211.123,154.721 211.528 C 151.602 211.754,149.188 210.638,147.894 208.372 C 147.143 207.057,146.792 206.806,145.700 206.803 C 144.426 206.800,143.791 207.977,144.748 208.568 C 144.940 208.686,145.200 209.282,145.327 209.892 C 146.324 214.699,158.418 215.282,162.124 210.702 C 164.835 207.353,162.825 201.611,158.938 201.598 C 158.532 201.596,157.684 201.326,157.054 200.998 C 156.424 200.669,155.378 200.400,154.729 200.400 C 149.396 200.400,146.294 195.332,150.400 193.326 C 153.635 191.746,159.200 193.476,159.200 196.062 C 159.200 196.505,161.890 196.502,162.164 196.059 C 162.527 195.472,160.646 192.225,159.666 191.748 C 159.153 191.497,158.532 191.092,158.286 190.846 C 157.548 190.108,149.642 190.336,148.224 191.137 M199.272 191.212 C 197.576 192.124,196.400 193.189,196.400 193.813 C 196.400 194.082,196.130 194.526,195.800 194.800 C 194.500 195.879,195.050 197.200,196.800 197.200 C 198.088 197.200,198.400 197.056,198.400 196.462 C 198.400 193.904,203.303 191.861,206.685 193.011 C 211.814 194.755,211.268 199.835,205.901 200.299 C 204.745 200.399,203.029 200.733,202.086 201.040 C 201.143 201.348,199.916 201.600,199.359 201.600 C 197.066 201.600,194.407 204.878,194.342 207.786 C 194.206 213.806,202.596 215.949,208.893 211.502 C 209.483 211.086,209.750 211.209,210.693 212.336 C 211.689 213.526,211.980 213.646,213.600 213.529 C 215.619 213.384,216.495 211.927,214.826 211.491 C 213.482 211.139,213.200 209.498,213.200 202.012 C 213.200 194.035,212.799 192.503,210.343 191.093 C 208.618 190.103,201.186 190.183,199.272 191.212 M238.219 191.137 C 233.087 194.019,230.292 203.860,233.417 208.042 C 233.646 208.349,234.080 209.093,234.382 209.697 C 237.609 216.139,252.400 214.271,252.400 207.421 C 252.400 205.936,249.721 206.675,248.734 208.432 C 245.779 213.690,236.679 211.798,235.770 205.737 C 235.314 202.698,235.535 202.619,244.242 202.706 C 253.457 202.799,253.274 202.875,252.583 199.248 C 251.838 195.341,250.510 193.276,247.508 191.355 C 245.631 190.154,240.195 190.026,238.219 191.137 M244.849 193.200 C 248.522 194.877,250.867 198.894,248.815 199.992 C 247.633 200.624,236.600 200.523,236.062 199.875 C 235.044 198.648,237.480 193.600,239.090 193.600 C 239.320 193.600,240.024 193.331,240.654 193.002 C 242.161 192.217,242.758 192.245,244.849 193.200 M210.034 202.464 C 210.558 203.443,210.278 206.909,209.612 207.696 C 209.377 207.973,208.874 208.579,208.493 209.043 C 205.200 213.048,197.655 211.909,197.615 207.400 C 197.592 204.864,201.296 202.461,205.385 202.360 C 206.273 202.338,207.450 202.176,208.000 202.000 C 209.494 201.522,209.535 201.531,210.034 202.464 M280.500 202.325 L 279.200 202.451 279.200 241.745 C 279.200 271.775,279.087 281.153,278.720 281.520 C 278.213 282.027,121.585 282.253,119.707 281.750 C 118.814 281.510,118.813 281.495,118.707 271.055 L 118.600 260.600 113.900 260.487 L 109.200 260.375 109.200 275.987 L 109.200 291.600 198.800 291.600 L 288.400 291.600 288.400 247.029 L 288.400 202.459 285.100 202.329 C 283.285 202.258,281.215 202.256,280.500 202.325 " stroke="none" fill="#f1f1f1" fill-rule="evenodd"></path><path id="path2" d="M108.984 112.100 C 108.880 112.375,108.840 132.760,108.897 157.400 L 109.000 202.200 113.800 202.200 L 118.600 202.200 118.702 162.839 C 118.775 134.562,118.930 123.326,119.251 122.939 C 119.717 122.377,276.313 122.085,277.767 122.643 C 278.321 122.855,278.401 124.145,278.406 132.943 C 278.410 138.578,278.579 143.264,278.791 143.600 C 279.389 144.547,288.284 144.565,288.789 143.621 C 289.275 142.713,289.283 113.871,288.798 112.595 L 288.420 111.600 198.797 111.600 C 127.468 111.600,109.136 111.702,108.984 112.100 M288.400 128.000 L 288.400 143.600 283.838 143.600 L 279.277 143.600 279.013 139.500 C 278.868 137.245,278.843 132.719,278.958 129.442 C 279.084 125.839,279.009 123.191,278.769 122.742 C 278.270 121.810,119.810 121.550,118.880 122.480 C 118.513 122.847,118.400 132.276,118.400 162.480 L 118.400 202.000 113.800 202.000 L 109.200 202.000 109.200 157.200 L 109.200 112.400 198.800 112.400 L 288.400 112.400 288.400 128.000 M170.182 184.902 C 170.076 185.178,170.037 191.793,170.095 199.602 L 170.200 213.800 171.526 213.927 C 173.728 214.139,174.000 213.601,174.000 209.029 L 174.000 204.957 175.319 203.678 C 176.741 202.300,178.167 202.016,178.557 203.033 C 178.691 203.381,180.333 205.991,182.207 208.833 L 185.613 214.000 187.619 214.000 C 190.580 214.000,190.480 213.616,185.615 206.313 C 180.741 198.994,180.632 198.671,182.500 197.051 C 189.333 191.125,189.953 190.018,186.444 190.006 C 184.765 190.000,184.520 190.164,180.844 193.751 C 175.903 198.572,174.760 199.600,174.342 199.600 C 174.154 199.600,174.000 196.396,174.000 192.480 C 174.000 187.476,173.857 185.217,173.520 184.880 C 172.886 184.246,170.428 184.262,170.182 184.902 M172.565 185.187 L 173.582 185.573 173.691 192.854 C 173.758 197.310,173.957 200.186,174.205 200.269 C 174.427 200.343,176.857 198.242,179.605 195.600 C 184.684 190.716,185.417 190.236,187.451 190.469 C 188.561 190.596,188.471 190.725,184.681 194.413 C 182.496 196.540,180.736 198.587,180.702 199.042 C 180.647 199.777,187.376 210.412,188.100 210.733 C 188.265 210.807,188.400 211.100,188.400 211.384 C 188.400 211.669,188.670 212.126,189.000 212.400 C 190.047 213.269,189.658 213.600,187.590 213.600 C 185.888 213.600,185.521 213.462,185.191 212.700 C 184.695 211.552,184.075 210.568,182.700 208.744 C 182.095 207.941,181.588 207.131,181.573 206.942 C 181.517 206.224,178.074 201.794,177.479 201.676 C 177.136 201.608,176.129 202.209,175.240 203.011 L 173.626 204.470 173.513 208.935 L 173.400 213.400 171.900 213.524 L 170.400 213.648 170.400 199.457 C 170.400 188.479,170.513 185.221,170.900 185.065 C 171.175 184.954,171.433 184.849,171.474 184.832 C 171.515 184.814,172.006 184.974,172.565 185.187 M221.698 185.262 C 221.170 185.790,220.950 211.624,221.457 213.520 C 221.672 214.320,221.920 214.425,223.352 214.320 L 225.000 214.200 225.000 199.600 L 225.000 185.000 223.598 184.882 C 222.827 184.817,221.972 184.988,221.698 185.262 M224.705 199.511 C 224.819 214.794,224.867 214.462,222.669 213.626 L 221.600 213.220 221.600 199.443 C 221.600 184.734,221.539 185.164,223.600 185.323 L 224.600 185.400 224.705 199.511 M150.400 189.951 C 147.093 190.673,145.053 192.521,144.599 195.203 C 143.867 199.538,145.848 201.557,152.450 203.205 C 156.834 204.299,158.600 205.079,159.189 206.180 C 161.836 211.125,151.370 213.002,148.429 208.109 C 146.320 204.600,142.917 206.309,144.773 209.946 C 147.627 215.541,159.048 216.070,162.813 210.781 C 165.954 206.371,161.769 200.171,155.546 200.016 C 152.463 199.939,148.800 197.726,148.800 195.939 C 148.800 192.298,156.918 192.459,158.722 196.136 C 159.431 197.581,162.172 197.713,162.537 196.320 C 163.596 192.270,156.600 188.598,150.400 189.951 M201.600 189.962 C 199.288 190.338,197.044 191.711,196.013 193.379 C 195.051 194.936,194.968 195.491,195.800 194.800 C 196.130 194.526,196.400 194.082,196.400 193.813 C 196.400 191.063,206.767 189.041,210.343 191.093 C 212.799 192.503,213.200 194.035,213.200 202.012 C 213.200 209.498,213.482 211.139,214.826 211.491 C 216.495 211.927,215.619 213.384,213.600 213.529 C 211.980 213.646,211.689 213.526,210.693 212.336 C 209.750 211.209,209.483 211.086,208.893 211.502 C 202.596 215.949,194.206 213.806,194.342 207.786 C 194.407 204.878,197.066 201.600,199.359 201.600 C 199.916 201.600,201.143 201.348,202.086 201.040 C 203.029 200.733,204.745 200.399,205.901 200.299 C 211.268 199.835,211.814 194.755,206.685 193.011 C 203.303 191.861,198.400 193.904,198.400 196.462 C 198.400 197.592,195.330 197.529,195.075 196.394 C 194.924 195.723,194.903 195.740,194.947 196.494 C 195.037 198.026,198.248 198.051,198.829 196.524 C 200.558 191.977,209.906 192.360,209.502 196.960 C 209.358 198.603,207.800 199.600,204.763 199.994 C 195.481 201.199,191.358 205.839,194.731 211.286 C 196.982 214.921,205.285 215.458,208.562 212.181 C 209.146 211.597,209.314 211.664,210.547 212.971 C 211.968 214.478,213.632 214.839,215.226 213.986 C 216.396 213.360,216.274 211.355,215.048 211.048 C 213.722 210.715,213.612 209.992,213.604 201.600 C 213.594 190.810,211.122 188.414,201.600 189.962 M240.355 189.937 C 231.804 191.494,228.628 205.053,235.289 211.565 C 240.280 216.445,251.264 214.482,252.584 208.475 C 253.141 205.936,249.690 205.253,248.667 207.700 C 246.479 212.935,237.288 211.459,236.208 205.700 C 235.788 203.461,236.017 203.400,244.835 203.400 C 254.454 203.400,254.516 203.361,252.969 198.275 C 250.953 191.644,246.639 188.793,240.355 189.937 M158.286 190.846 C 158.532 191.092,159.153 191.497,159.666 191.748 C 160.646 192.225,162.527 195.472,162.164 196.059 C 161.890 196.502,159.200 196.505,159.200 196.062 C 159.200 193.476,153.635 191.746,150.400 193.326 C 146.294 195.332,149.396 200.400,154.729 200.400 C 155.378 200.400,156.424 200.669,157.054 200.998 C 157.684 201.326,158.532 201.596,158.938 201.598 C 162.825 201.611,164.835 207.353,162.124 210.702 C 158.418 215.282,146.324 214.699,145.327 209.892 C 145.200 209.282,144.940 208.686,144.748 208.568 C 143.791 207.977,144.426 206.800,145.700 206.803 C 146.792 206.806,147.143 207.057,147.894 208.372 C 149.188 210.638,151.602 211.754,154.721 211.528 C 160.321 211.123,162.281 206.362,157.673 204.360 C 155.557 203.441,152.217 202.401,151.346 202.391 C 150.280 202.379,147.160 200.900,146.100 199.905 C 143.865 197.807,145.046 192.929,148.224 191.137 C 149.642 190.336,157.548 190.108,158.286 190.846 M247.508 191.355 C 250.510 193.276,251.838 195.341,252.583 199.248 C 253.274 202.875,253.457 202.799,244.242 202.706 C 235.535 202.619,235.314 202.698,235.770 205.737 C 236.679 211.798,245.779 213.690,248.734 208.432 C 249.721 206.675,252.400 205.936,252.400 207.421 C 252.400 214.271,237.609 216.139,234.382 209.697 C 234.080 209.093,233.646 208.349,233.417 208.042 C 230.938 204.725,232.492 196.038,236.180 192.600 C 238.807 190.150,244.625 189.510,247.508 191.355 M240.654 193.002 C 240.024 193.331,239.320 193.600,239.090 193.600 C 238.270 193.600,236.084 196.524,235.857 197.926 C 235.477 200.267,235.821 200.400,242.275 200.400 C 248.922 200.400,249.685 200.172,249.340 198.292 C 248.617 194.355,243.748 191.389,240.654 193.002 M244.499 193.621 C 246.784 194.255,248.869 196.606,248.719 198.380 L 248.600 199.797 242.600 199.799 L 236.600 199.800 236.481 198.388 C 236.205 195.115,240.559 192.526,244.499 193.621 M208.000 202.000 C 207.450 202.176,206.273 202.338,205.385 202.360 C 201.296 202.461,197.592 204.864,197.615 207.400 C 197.655 211.909,205.200 213.048,208.493 209.043 C 208.874 208.579,209.377 207.973,209.612 207.696 C 210.278 206.909,210.558 203.443,210.034 202.464 C 209.535 201.531,209.494 201.522,208.000 202.000 M279.079 201.855 C 278.925 202.008,278.800 219.729,278.800 241.234 C 278.800 262.739,278.691 280.619,278.557 280.967 C 278.230 281.820,121.026 281.952,119.880 281.100 C 119.285 280.658,119.195 279.419,119.103 270.400 L 119.000 260.200 113.895 260.088 L 108.791 259.976 108.895 276.088 L 109.000 292.200 198.710 292.301 L 288.419 292.402 288.810 291.375 C 289.253 290.208,289.311 206.535,288.870 203.600 L 288.600 201.800 283.979 201.688 C 281.437 201.626,279.232 201.701,279.079 201.855 M288.400 247.029 L 288.400 291.600 198.800 291.600 L 109.200 291.600 109.200 275.987 L 109.200 260.375 113.900 260.487 L 118.600 260.600 118.707 271.055 C 118.813 281.495,118.814 281.510,119.707 281.750 C 121.585 282.253,278.213 282.027,278.720 281.520 C 279.087 281.153,279.200 271.775,279.200 241.745 L 279.200 202.451 280.500 202.325 C 281.215 202.256,283.285 202.258,285.100 202.329 L 288.400 202.459 288.400 247.029 M209.600 204.733 C 209.600 209.781,203.282 212.928,199.386 209.822 C 196.665 207.652,198.335 204.474,202.738 203.446 C 209.425 201.883,209.600 201.916,209.600 204.733 " stroke="none" fill="#94948c" fill-rule="evenodd"></path><path id="path3" d="M108.900 111.065 C 108.625 111.176,108.405 111.567,108.412 111.933 C 108.423 112.535,108.464 112.532,108.832 111.900 C 109.432 110.870,287.546 110.803,288.576 111.833 C 289.136 112.393,289.197 114.303,289.105 128.333 L 289.000 144.200 284.200 144.419 C 277.843 144.709,278.400 145.772,278.400 133.351 C 278.400 123.885,278.333 122.800,277.751 122.800 C 277.271 122.800,277.212 122.932,277.525 123.309 C 277.797 123.638,277.943 127.314,277.934 133.661 C 277.916 146.113,277.464 145.200,283.650 145.200 C 290.574 145.200,289.970 146.814,289.987 128.274 C 290.000 113.258,289.897 111.945,288.640 111.106 C 288.155 110.782,109.703 110.741,108.900 111.065 M169.843 184.233 C 169.709 184.581,169.611 185.076,169.625 185.333 C 169.639 185.590,169.813 185.395,170.012 184.900 C 170.463 183.780,173.351 183.574,173.757 184.633 C 173.891 184.981,174.003 188.266,174.006 191.933 C 174.012 198.195,174.327 200.610,174.932 199.034 C 175.065 198.685,175.001 198.400,174.787 198.400 C 174.553 198.400,174.400 195.731,174.400 191.633 C 174.400 183.423,174.453 183.600,172.000 183.600 C 170.623 183.600,170.017 183.778,169.843 184.233 M221.300 184.665 C 220.772 184.878,220.542 212.397,221.052 214.300 C 221.405 215.616,224.858 215.624,225.777 214.311 C 226.804 212.845,226.704 185.999,225.669 185.062 C 224.972 184.432,222.447 184.202,221.300 184.665 M225.505 199.117 C 225.622 214.821,225.625 214.800,223.229 214.800 C 221.122 214.800,221.200 215.393,221.200 199.434 C 221.200 183.868,221.061 184.717,223.585 184.882 L 225.400 185.000 225.505 199.117 M151.800 188.981 C 150.639 189.517,150.690 189.536,153.380 189.568 C 155.030 189.587,156.006 189.455,155.780 189.242 C 155.057 188.561,153.001 188.426,151.800 188.981 M202.400 189.200 C 201.983 189.469,202.717 189.588,204.800 189.588 C 206.883 189.588,207.617 189.469,207.200 189.200 C 206.870 188.987,205.790 188.812,204.800 188.812 C 203.810 188.812,202.730 188.987,202.400 189.200 M240.800 189.200 C 240.378 189.473,240.947 189.590,242.724 189.594 C 244.306 189.598,245.155 189.451,245.000 189.200 C 244.684 188.689,241.590 188.689,240.800 189.200 M146.576 191.101 C 145.684 191.925,145.324 192.318,145.776 191.974 C 147.164 190.919,148.595 190.101,149.417 189.892 C 150.050 189.731,150.009 189.684,149.200 189.647 C 148.558 189.618,147.619 190.139,146.576 191.101 M157.800 189.941 C 159.572 190.520,161.147 191.639,161.945 192.885 C 162.408 193.608,162.784 193.930,162.780 193.600 C 162.766 192.290,159.430 189.574,157.916 189.640 C 157.070 189.677,157.061 189.700,157.800 189.941 M179.855 193.824 C 177.466 196.145,175.582 198.115,175.669 198.202 C 175.756 198.290,177.711 196.483,180.014 194.189 L 184.200 190.017 186.676 190.008 C 190.483 189.996,190.364 190.218,182.800 197.211 C 182.030 197.923,181.670 198.358,182.000 198.178 C 182.622 197.838,184.093 196.545,188.103 192.814 C 190.910 190.203,190.631 189.598,186.624 189.602 L 184.200 189.605 179.855 193.824 M198.667 189.867 C 198.174 190.360,198.382 190.913,198.900 190.487 C 199.175 190.261,199.850 189.994,200.400 189.893 C 201.286 189.730,201.260 189.703,200.167 189.654 C 199.488 189.625,198.813 189.720,198.667 189.867 M209.383 189.892 C 210.696 190.225,212.011 191.259,213.030 192.759 C 213.576 193.562,214.000 193.910,214.000 193.555 C 214.000 192.478,210.769 189.594,209.621 189.646 C 208.809 189.683,208.760 189.734,209.383 189.892 M237.457 190.200 C 237.127 190.530,236.685 190.800,236.475 190.800 C 236.110 190.800,234.189 192.851,232.700 194.832 C 232.315 195.344,232.000 196.140,232.000 196.601 C 232.000 197.063,231.775 197.665,231.500 197.940 C 230.774 198.666,230.818 205.387,231.554 206.079 C 232.021 206.517,232.066 206.441,231.840 205.600 C 230.130 199.246,233.290 192.266,238.895 190.014 L 239.800 189.651 238.929 189.625 C 238.449 189.611,237.787 189.870,237.457 190.200 M247.058 190.179 C 247.750 190.480,249.055 191.394,249.958 192.210 C 250.861 193.025,251.600 193.558,251.600 193.392 C 251.600 192.625,247.520 189.594,246.516 189.616 C 246.074 189.625,246.281 189.840,247.058 190.179 M196.981 191.106 C 196.143 191.693,194.742 194.024,194.937 194.506 C 195.058 194.805,195.149 194.735,195.168 194.328 C 195.186 193.959,195.806 193.014,196.547 192.228 C 197.791 190.909,197.988 190.400,196.981 191.106 M144.085 194.013 C 143.408 195.097,143.467 198.192,144.176 198.780 C 144.672 199.192,144.688 199.087,144.292 198.037 C 143.946 197.120,143.944 196.390,144.285 195.111 C 144.808 193.154,144.766 192.922,144.085 194.013 M150.942 193.853 C 149.757 194.118,148.691 195.391,148.919 196.270 C 149.078 196.887,149.114 196.868,149.154 196.149 C 149.260 194.189,155.259 193.244,157.089 194.900 C 158.168 195.876,158.579 195.779,157.583 194.783 C 156.754 193.954,152.901 193.414,150.942 193.853 M203.700 193.887 C 204.305 193.978,205.295 193.978,205.900 193.887 C 206.505 193.795,206.010 193.720,204.800 193.720 C 203.590 193.720,203.095 193.795,203.700 193.887 M243.108 194.143 C 244.887 194.467,245.952 194.920,246.772 195.700 C 247.408 196.305,248.069 196.800,248.242 196.800 C 248.415 196.800,247.895 196.194,247.087 195.454 C 245.665 194.151,243.868 193.560,241.600 193.648 C 241.050 193.669,241.729 193.892,243.108 194.143 M200.001 194.998 C 199.486 195.548,199.170 196.103,199.300 196.233 C 199.430 196.363,199.834 196.015,200.198 195.459 C 200.563 194.903,201.252 194.371,201.730 194.278 C 202.565 194.116,202.567 194.107,201.770 194.054 C 201.313 194.025,200.517 194.449,200.001 194.998 M207.679 194.454 C 208.312 194.962,208.609 196.163,208.462 197.612 C 208.428 197.949,207.815 198.460,207.100 198.748 C 206.385 199.035,206.014 199.356,206.276 199.460 C 206.887 199.705,208.712 198.512,209.241 197.523 C 209.709 196.649,208.630 194.395,207.596 194.086 C 207.152 193.953,207.173 194.047,207.679 194.454 M238.800 194.600 C 238.456 195.015,238.441 195.200,238.751 195.200 C 238.998 195.200,239.200 195.033,239.200 194.829 C 239.200 194.625,239.515 194.376,239.900 194.276 C 240.491 194.121,240.498 194.086,239.949 194.046 C 239.591 194.021,239.074 194.270,238.800 194.600 M251.613 194.251 C 251.639 194.960,252.800 196.207,252.800 195.525 C 252.800 195.180,252.530 194.674,252.200 194.400 C 251.870 194.126,251.606 194.059,251.613 194.251 M162.779 195.800 C 162.567 197.696,160.019 198.434,158.880 196.929 C 158.353 196.233,158.335 196.237,158.468 197.000 C 158.880 199.363,163.376 197.935,163.106 195.526 C 162.959 194.206,162.958 194.207,162.779 195.800 M214.097 202.000 C 214.009 210.116,214.082 210.611,215.400 210.857 C 216.627 211.086,216.718 213.332,215.533 214.162 C 213.776 215.393,210.418 214.348,209.792 212.375 C 209.638 211.891,209.397 211.653,209.256 211.847 C 205.215 217.412,194.206 214.894,193.561 208.259 L 193.322 205.800 193.261 208.022 C 193.183 210.875,195.602 214.400,197.638 214.400 C 198.031 214.400,198.464 214.580,198.600 214.800 C 199.344 216.003,206.033 214.885,208.469 213.151 C 209.308 212.553,209.600 212.488,209.600 212.898 C 209.600 214.905,214.955 216.056,216.177 214.311 C 217.320 212.680,216.709 210.000,215.194 210.000 C 214.455 210.000,214.411 209.617,214.300 202.100 L 214.182 194.200 214.097 202.000 M194.544 196.369 C 194.578 197.212,194.831 197.800,195.200 197.900 C 195.605 198.009,195.649 197.953,195.336 197.729 C 195.081 197.547,194.786 196.858,194.680 196.199 C 194.503 195.101,194.492 195.115,194.544 196.369 M237.023 196.905 C 235.666 199.426,236.025 199.600,242.587 199.600 C 246.503 199.600,248.400 199.458,248.400 199.166 C 248.400 198.914,247.768 198.769,246.900 198.822 C 246.075 198.871,243.465 198.887,241.100 198.856 C 236.617 198.798,236.151 198.581,237.441 197.155 C 237.794 196.765,238.012 196.237,237.927 195.981 C 237.842 195.725,237.435 196.141,237.023 196.905 M252.814 196.800 C 252.819 197.130,253.170 198.390,253.594 199.600 L 254.365 201.800 254.119 200.024 C 253.879 198.287,252.796 195.613,252.814 196.800 M152.746 199.016 C 154.463 199.761,155.227 199.747,154.224 198.987 C 153.796 198.664,152.986 198.407,152.424 198.416 C 151.465 198.430,151.486 198.469,152.746 199.016 M181.689 200.017 C 183.724 202.919,186.220 206.650,186.360 207.000 C 186.669 207.775,188.000 209.302,188.000 208.883 C 188.000 208.649,187.730 208.187,187.400 207.857 C 187.070 207.527,186.800 207.166,186.800 207.055 C 186.800 206.657,181.957 199.621,181.483 199.330 C 181.218 199.167,181.310 199.476,181.689 200.017 M144.800 199.877 C 144.800 200.096,145.160 200.602,145.600 201.000 C 146.040 201.398,146.400 201.634,146.400 201.523 C 146.400 201.413,146.040 200.907,145.600 200.400 C 145.160 199.893,144.800 199.657,144.800 199.877 M156.564 199.893 C 157.204 199.988,158.104 200.299,158.564 200.585 C 159.600 201.229,162.106 201.831,161.200 201.218 C 160.870 200.995,160.307 200.809,159.949 200.806 C 159.591 200.803,159.074 200.530,158.800 200.200 C 158.503 199.842,157.716 199.624,156.851 199.660 C 155.544 199.714,155.515 199.737,156.564 199.893 M200.100 200.012 C 199.605 200.211,199.200 200.491,199.200 200.634 C 199.200 200.777,199.605 200.763,200.100 200.605 C 200.595 200.446,201.810 200.179,202.800 200.011 L 204.600 199.707 202.800 199.679 C 201.810 199.663,200.595 199.813,200.100 200.012 M196.154 201.697 C 194.451 203.020,193.626 204.100,193.631 205.000 C 193.634 205.579,193.845 205.403,194.397 204.360 C 195.155 202.925,196.680 201.634,198.200 201.140 C 198.974 200.888,198.972 200.878,198.154 200.840 C 197.689 200.818,196.789 201.203,196.154 201.697 M278.900 201.065 C 278.625 201.176,278.411 201.657,278.425 202.133 C 278.451 203.000,278.451 203.000,278.812 202.100 C 279.235 201.048,287.728 200.688,288.720 201.680 C 289.610 202.570,289.393 291.848,288.500 292.368 C 287.886 292.725,287.880 292.777,288.451 292.788 C 290.024 292.817,290.014 293.146,289.905 246.821 C 289.802 202.914,289.783 201.923,289.024 201.368 C 288.262 200.811,280.132 200.568,278.900 201.065 M147.200 202.200 C 147.474 202.530,147.980 202.800,148.325 202.800 C 148.828 202.800,148.798 202.683,148.176 202.213 C 147.161 201.444,146.566 201.437,147.200 202.200 M108.400 202.411 C 108.400 202.758,109.953 203.381,110.201 203.132 C 110.278 203.055,109.905 202.785,109.371 202.533 C 108.837 202.281,108.400 202.226,108.400 202.411 M162.715 203.188 C 163.288 203.842,163.826 204.307,163.911 204.223 C 164.202 203.932,162.707 202.000,162.190 202.000 C 161.884 202.000,162.098 202.486,162.715 203.188 M253.399 203.017 C 253.063 203.540,251.713 203.650,244.800 203.719 L 236.600 203.800 236.479 205.041 C 236.169 208.218,243.500 212.828,245.000 210.400 C 245.136 210.180,245.565 210.000,245.954 210.000 C 246.343 210.000,247.083 209.550,247.600 209.000 C 248.117 208.450,248.425 208.000,248.285 208.000 C 248.146 208.000,247.654 208.405,247.193 208.900 C 246.000 210.180,240.242 210.246,239.000 208.993 C 237.688 207.670,236.800 206.089,236.800 205.075 L 236.800 204.122 245.021 204.120 C 253.038 204.118,254.311 203.934,253.944 202.833 C 253.857 202.571,253.639 202.644,253.399 203.017 M150.400 203.400 C 150.950 203.714,151.850 203.970,152.400 203.968 C 153.193 203.966,153.068 203.845,151.800 203.388 C 149.767 202.656,149.108 202.661,150.400 203.400 M175.375 204.024 C 174.259 205.187,174.190 205.464,174.000 209.524 L 173.800 213.800 172.040 213.926 C 170.914 214.006,170.146 213.862,169.909 213.526 C 169.619 213.114,169.574 213.129,169.702 213.599 C 169.902 214.331,172.728 214.857,173.700 214.342 C 174.297 214.026,174.400 213.368,174.400 209.864 L 174.400 205.757 175.774 204.426 C 176.633 203.593,177.382 203.184,177.774 203.335 C 178.118 203.467,178.400 203.401,178.400 203.187 C 178.400 202.340,176.482 202.870,175.375 204.024 M204.400 203.400 L 202.600 203.921 204.220 203.961 C 205.111 203.982,206.011 203.837,206.220 203.639 C 206.429 203.440,206.960 203.191,207.400 203.085 C 208.036 202.932,207.996 202.891,207.200 202.886 C 206.650 202.882,205.390 203.113,204.400 203.400 M208.493 205.290 C 208.412 207.172,208.498 207.662,208.850 207.310 C 209.577 206.583,209.830 202.799,209.151 202.803 C 208.754 202.806,208.570 203.501,208.493 205.290 M154.400 204.288 C 154.950 204.387,155.571 204.632,155.780 204.834 C 155.989 205.035,156.439 205.194,156.780 205.186 C 157.173 205.177,157.035 204.963,156.400 204.600 C 155.850 204.286,154.950 204.046,154.400 204.069 L 153.400 204.109 154.400 204.288 M178.400 204.242 C 178.400 204.376,178.919 205.141,179.554 205.942 C 180.189 206.744,181.101 208.153,181.581 209.073 C 182.060 209.993,182.745 210.983,183.103 211.273 C 183.900 211.919,183.866 211.856,180.912 207.300 C 178.940 204.258,178.400 203.601,178.400 204.242 M199.824 204.613 C 199.146 205.125,199.134 205.200,199.724 205.200 C 200.096 205.200,200.400 205.032,200.400 204.827 C 200.400 204.621,200.895 204.378,201.500 204.287 C 202.545 204.128,202.550 204.118,201.600 204.073 C 201.050 204.047,200.251 204.290,199.824 204.613 M164.070 206.953 C 163.854 214.228,152.832 217.617,146.343 212.402 C 144.466 210.894,144.302 211.158,146.100 212.794 C 146.815 213.445,147.987 214.092,148.704 214.234 C 149.422 214.375,150.107 214.650,150.228 214.845 C 150.611 215.465,156.257 215.234,158.635 214.502 C 162.764 213.231,164.660 210.515,164.297 206.391 C 164.154 204.763,164.133 204.814,164.070 206.953 M157.991 205.586 C 158.581 205.959,158.841 208.892,158.330 209.404 C 156.792 210.941,149.504 209.666,149.030 207.777 C 148.788 206.814,146.972 205.295,146.557 205.709 C 146.438 205.829,146.688 206.037,147.113 206.172 C 147.539 206.307,148.192 207.095,148.565 207.923 C 149.927 210.943,158.160 211.847,158.729 209.039 C 158.800 208.687,159.025 208.400,159.229 208.400 C 159.433 208.400,159.600 208.124,159.600 207.786 C 159.600 206.951,158.414 205.199,157.854 205.206 C 157.604 205.209,157.666 205.380,157.991 205.586 M198.615 206.731 C 197.942 209.796,201.567 211.785,205.111 210.294 C 206.212 209.831,206.033 209.789,202.990 209.794 C 199.111 209.801,199.049 209.762,199.138 207.402 C 199.216 205.357,198.983 205.058,198.615 206.731 M143.360 207.019 C 143.219 207.579,143.216 208.149,143.352 208.285 C 143.488 208.422,143.600 208.179,143.600 207.747 C 143.600 207.314,143.816 206.744,144.080 206.480 C 144.445 206.115,144.447 206.000,144.088 206.000 C 143.828 206.000,143.500 206.458,143.360 207.019 M252.664 206.500 C 252.835 206.775,252.937 207.450,252.891 208.000 L 252.807 209.000 253.218 208.026 C 253.670 206.955,253.468 206.000,252.789 206.000 C 252.541 206.000,252.487 206.215,252.664 206.500 M232.040 207.353 C 231.935 209.342,235.959 213.806,238.243 214.234 C 238.994 214.375,239.707 214.650,239.828 214.845 C 240.112 215.304,245.885 215.310,246.168 214.852 C 246.286 214.660,246.936 214.393,247.612 214.258 C 248.288 214.122,249.507 213.357,250.320 212.558 L 251.800 211.103 250.195 212.342 C 244.066 217.073,234.651 214.467,232.341 207.400 C 232.099 206.658,232.077 206.655,232.040 207.353 M143.600 209.275 C 143.600 209.620,143.870 210.126,144.200 210.400 C 144.963 211.034,144.956 210.439,144.187 209.424 C 143.717 208.802,143.600 208.772,143.600 209.275 M188.686 210.700 C 189.817 212.467,190.400 212.983,190.400 212.216 C 190.400 211.863,190.148 211.478,189.839 211.360 C 189.531 211.241,189.188 210.797,189.077 210.372 C 188.966 209.948,188.674 209.600,188.428 209.600 C 188.162 209.600,188.266 210.044,188.686 210.700 M183.614 212.117 C 183.533 213.904,188.791 215.435,190.112 214.010 C 190.500 213.590,190.489 213.546,190.055 213.793 C 188.699 214.564,185.467 214.045,184.534 212.905 C 184.036 212.297,183.622 211.943,183.614 212.117 M108.977 259.367 C 108.550 259.679,108.336 260.069,108.501 260.234 C 108.665 260.399,108.800 260.323,108.800 260.067 C 108.800 259.358,118.553 259.421,119.144 260.133 C 119.434 260.483,119.623 264.150,119.693 270.833 L 119.800 281.000 199.200 281.001 L 278.600 281.003 199.500 280.901 L 120.400 280.798 120.400 270.973 C 120.400 260.414,120.315 259.927,118.349 259.242 C 116.459 258.583,109.930 258.671,108.977 259.367 M152.468 292.700 C 175.715 292.757,213.875 292.757,237.268 292.700 C 260.661 292.643,241.640 292.596,195.000 292.596 C 148.360 292.596,129.221 292.643,152.468 292.700 " stroke="none" fill="#524c4c" fill-rule="evenodd"></path><path id="path4" d="M109.062 111.500 C 108.894 111.771,169.371 111.770,255.800 111.497 C 273.620 111.441,247.936 111.351,198.724 111.298 C 149.512 111.244,109.164 111.335,109.062 111.500 M108.497 157.020 C 108.423 191.456,108.511 201.951,108.880 202.320 C 109.540 202.980,118.060 202.980,118.720 202.320 C 119.088 201.952,119.177 192.656,119.103 162.420 L 119.006 123.000 118.803 162.600 L 118.600 202.200 113.800 202.200 L 109.000 202.200 108.797 157.200 L 108.595 112.200 108.497 157.020 M159.132 122.700 C 180.984 122.757,216.624 122.757,238.332 122.700 C 260.039 122.643,242.160 122.596,198.600 122.596 C 155.040 122.596,137.279 122.643,159.132 122.700 M278.412 143.451 C 278.394 144.111,279.491 144.909,280.087 144.669 C 280.417 144.537,280.358 144.452,279.920 144.432 C 279.546 144.414,279.056 144.085,278.832 143.700 C 278.608 143.315,278.419 143.203,278.412 143.451 M170.252 184.316 C 170.144 184.490,170.676 184.560,171.434 184.472 C 172.191 184.384,173.083 184.537,173.415 184.812 C 173.917 185.229,173.976 185.203,173.766 184.657 C 173.502 183.969,170.638 183.692,170.252 184.316 M225.200 199.320 L 225.399 213.800 225.505 199.625 C 225.563 191.829,225.473 185.313,225.305 185.145 C 225.137 184.977,225.090 191.355,225.200 199.320 M169.734 188.400 C 169.734 190.050,169.805 190.725,169.891 189.900 C 169.978 189.075,169.978 187.725,169.891 186.900 C 169.805 186.075,169.734 186.750,169.734 188.400 M206.900 189.876 C 207.285 189.976,207.915 189.976,208.300 189.876 C 208.685 189.775,208.370 189.693,207.600 189.693 C 206.830 189.693,206.515 189.775,206.900 189.876 M158.033 190.146 C 158.587 190.632,161.600 192.375,161.600 192.210 C 161.600 191.965,158.524 190.000,158.141 190.000 C 157.990 190.000,157.942 190.066,158.033 190.146 M197.972 190.984 C 197.187 191.499,196.242 192.382,195.872 192.946 C 194.863 194.485,195.063 194.776,196.100 193.278 C 196.595 192.563,197.720 191.539,198.600 191.002 C 199.480 190.464,200.020 190.030,199.800 190.036 C 199.580 190.042,198.757 190.469,197.972 190.984 M209.633 190.116 C 209.725 190.180,210.520 190.733,211.400 191.345 L 213.000 192.458 211.615 191.229 C 210.853 190.553,210.058 190.000,209.848 190.000 C 209.638 190.000,209.542 190.052,209.633 190.116 M145.601 192.198 C 145.086 192.748,144.739 193.264,144.832 193.346 C 144.924 193.428,145.419 192.978,145.930 192.347 C 147.076 190.935,146.874 190.844,145.601 192.198 M179.791 194.500 L 176.600 197.800 179.900 194.609 C 181.715 192.855,183.200 191.370,183.200 191.309 C 183.200 191.018,182.754 191.435,179.791 194.500 M250.025 192.631 C 250.781 193.528,251.481 194.197,251.580 194.117 C 251.679 194.038,251.060 193.304,250.205 192.487 L 248.650 191.000 250.025 192.631 M185.665 194.265 L 183.400 196.530 185.800 194.389 C 187.120 193.211,188.275 192.192,188.367 192.124 C 188.458 192.056,188.398 192.000,188.231 192.000 C 188.065 192.000,186.910 193.019,185.665 194.265 M169.728 194.800 C 169.728 196.230,169.801 196.815,169.889 196.100 C 169.978 195.385,169.978 194.215,169.889 193.500 C 169.801 192.785,169.728 193.370,169.728 194.800 M161.924 193.400 C 162.126 193.840,162.392 194.470,162.514 194.800 C 162.707 195.318,162.741 195.315,162.768 194.776 C 162.786 194.434,162.520 193.804,162.178 193.376 C 161.566 192.612,161.562 192.613,161.924 193.400 M213.070 193.200 C 213.252 193.530,213.497 197.400,213.616 201.800 L 213.833 209.800 213.916 201.976 C 213.987 195.368,213.902 194.032,213.370 193.376 C 213.024 192.949,212.889 192.870,213.070 193.200 M152.705 193.483 C 153.202 193.579,153.922 193.575,154.305 193.475 C 154.687 193.375,154.280 193.296,153.400 193.301 C 152.520 193.305,152.207 193.387,152.705 193.483 M242.600 193.600 C 244.292 194.031,245.744 194.031,244.400 193.600 C 243.850 193.424,242.950 193.283,242.400 193.287 C 241.502 193.294,241.522 193.326,242.600 193.600 M144.252 194.900 C 143.924 196.123,143.950 197.702,144.306 198.260 C 144.468 198.513,144.606 197.658,144.614 196.360 C 144.630 193.733,144.598 193.608,144.252 194.900 M237.629 195.491 C 236.953 196.311,236.400 197.161,236.400 197.380 C 236.400 197.599,236.698 197.333,237.062 196.789 C 237.427 196.245,238.088 195.395,238.532 194.900 C 238.976 194.405,239.231 194.000,239.099 194.000 C 238.967 194.000,238.305 194.671,237.629 195.491 M162.400 196.574 C 162.400 197.164,162.109 197.257,160.638 197.140 C 159.669 197.063,158.960 197.135,159.062 197.300 C 159.426 197.889,162.415 197.626,162.662 196.983 C 162.792 196.643,162.787 196.253,162.649 196.116 C 162.512 195.979,162.400 196.185,162.400 196.574 M248.380 198.290 C 248.271 199.219,248.333 199.827,248.520 199.640 C 248.706 199.454,248.796 198.694,248.719 197.951 C 248.583 196.633,248.575 196.642,248.380 198.290 M197.000 197.600 L 195.400 197.886 196.876 197.943 C 197.688 197.974,198.464 197.820,198.600 197.600 C 198.736 197.380,198.792 197.226,198.724 197.257 C 198.656 197.288,197.880 197.442,197.000 197.600 M208.200 198.551 C 207.384 199.343,207.267 199.577,207.833 199.280 C 208.704 198.824,209.828 197.652,209.557 197.482 C 209.471 197.428,208.860 197.909,208.200 198.551 M169.701 200.200 C 169.705 201.080,169.787 201.393,169.883 200.895 C 169.979 200.398,169.975 199.678,169.875 199.295 C 169.775 198.913,169.696 199.320,169.701 200.200 M239.700 199.887 C 240.305 199.978,241.295 199.978,241.900 199.887 C 242.505 199.795,242.010 199.720,240.800 199.720 C 239.590 199.720,239.095 199.795,239.700 199.887 M244.500 199.876 C 244.885 199.976,245.515 199.976,245.900 199.876 C 246.285 199.775,245.970 199.693,245.200 199.693 C 244.430 199.693,244.115 199.775,244.500 199.876 M200.800 200.418 C 200.362 200.715,200.524 200.752,201.400 200.556 C 202.871 200.227,203.190 199.998,202.167 200.006 C 201.745 200.009,201.130 200.195,200.800 200.418 M231.314 201.800 C 231.317 202.900,231.395 203.303,231.487 202.695 C 231.579 202.086,231.577 201.186,231.482 200.695 C 231.387 200.203,231.311 200.700,231.314 201.800 M253.648 201.200 C 253.576 202.389,253.216 202.998,252.400 203.308 C 251.915 203.493,251.932 203.543,252.486 203.568 C 253.343 203.608,254.106 202.245,253.880 201.079 C 253.724 200.275,253.704 200.286,253.648 201.200 M279.061 201.500 C 278.959 201.665,281.063 201.800,283.738 201.800 L 288.600 201.800 288.843 203.400 L 289.086 205.000 289.143 203.580 C 289.174 202.799,288.984 201.944,288.720 201.680 C 288.186 201.146,279.382 200.982,279.061 201.500 M148.176 202.178 C 148.604 202.520,149.234 202.786,149.576 202.768 C 150.115 202.741,150.118 202.707,149.600 202.514 C 149.270 202.392,148.640 202.126,148.200 201.924 C 147.413 201.562,147.412 201.566,148.176 202.178 M169.731 204.600 C 169.733 206.140,169.805 206.721,169.892 205.891 C 169.979 205.061,169.977 203.801,169.889 203.091 C 169.800 202.381,169.729 203.060,169.731 204.600 M183.640 203.377 C 184.102 204.161,184.643 204.903,184.841 205.025 C 185.039 205.148,184.823 204.607,184.360 203.823 C 183.898 203.039,183.357 202.297,183.159 202.175 C 182.961 202.052,183.177 202.593,183.640 203.377 M175.278 203.719 C 174.575 204.445,174.000 205.171,174.000 205.333 C 174.000 205.495,174.549 205.003,175.220 204.239 C 175.891 203.474,176.926 202.775,177.520 202.685 L 178.600 202.520 177.578 202.460 C 176.897 202.420,176.131 202.839,175.278 203.719 M195.302 202.900 C 194.736 203.615,193.940 205.200,194.146 205.200 C 194.242 205.200,194.693 204.570,195.147 203.800 C 195.973 202.401,196.049 201.957,195.302 202.900 M207.700 202.676 C 208.085 202.776,208.715 202.776,209.100 202.676 C 209.485 202.575,209.170 202.493,208.400 202.493 C 207.630 202.493,207.315 202.575,207.700 202.676 M202.800 203.400 C 201.810 203.687,201.270 203.936,201.600 203.953 C 201.930 203.970,203.100 203.734,204.200 203.428 C 205.300 203.122,205.840 202.873,205.400 202.875 C 204.960 202.877,203.790 203.113,202.800 203.400 M278.592 241.800 C 278.592 263.360,278.641 272.121,278.700 261.270 C 278.759 250.418,278.759 232.778,278.700 222.070 C 278.641 211.361,278.592 220.240,278.592 241.800 M236.480 203.680 C 236.216 203.944,236.018 204.529,236.040 204.980 C 236.073 205.666,236.125 205.637,236.356 204.800 C 236.583 203.979,236.951 203.757,238.416 203.560 L 240.200 203.320 238.580 203.260 C 237.689 203.227,236.744 203.416,236.480 203.680 M156.400 204.600 C 156.950 204.914,157.580 205.172,157.800 205.172 C 158.020 205.172,157.750 204.914,157.200 204.600 C 156.650 204.286,156.020 204.028,155.800 204.028 C 155.580 204.028,155.850 204.286,156.400 204.600 M198.377 206.261 C 198.155 206.844,198.032 207.497,198.104 207.712 C 198.176 207.927,198.435 207.450,198.680 206.651 C 199.194 204.974,198.974 204.690,198.377 206.261 M193.693 206.800 C 193.693 207.570,193.775 207.885,193.876 207.500 C 193.976 207.115,193.976 206.485,193.876 206.100 C 193.775 205.715,193.693 206.030,193.693 206.800 M144.080 206.480 C 143.415 207.145,143.480 208.497,144.222 209.424 C 144.817 210.166,144.824 210.159,144.397 209.279 C 143.570 207.576,144.026 206.626,145.800 206.357 L 147.400 206.114 145.980 206.057 C 145.199 206.026,144.344 206.216,144.080 206.480 M209.232 206.472 C 209.214 206.841,208.584 207.796,207.831 208.594 C 207.078 209.393,206.663 209.979,206.908 209.897 C 207.710 209.630,209.693 206.877,209.476 206.332 C 209.329 205.964,209.253 206.007,209.232 206.472 M250.798 206.297 C 251.568 206.389,252.468 206.676,252.798 206.933 C 253.322 207.340,253.329 207.310,252.851 206.700 C 252.486 206.235,251.815 206.021,250.851 206.064 L 249.400 206.128 250.798 206.297 M236.400 206.644 C 236.400 206.877,236.985 207.692,237.700 208.457 C 238.415 209.221,238.713 209.476,238.362 209.023 C 238.012 208.570,237.427 207.755,237.062 207.211 C 236.698 206.667,236.400 206.412,236.400 206.644 M169.709 210.000 C 169.709 210.990,169.787 211.395,169.882 210.900 C 169.978 210.405,169.978 209.595,169.882 209.100 C 169.787 208.605,169.709 209.010,169.709 210.000 M193.641 209.256 C 193.618 209.836,193.915 210.655,194.300 211.075 C 194.685 211.494,194.842 211.603,194.649 211.316 C 194.456 211.030,194.159 210.211,193.990 209.498 C 193.707 208.308,193.678 208.288,193.641 209.256 M183.240 210.977 C 183.702 211.761,184.243 212.503,184.441 212.625 C 184.639 212.748,184.423 212.207,183.960 211.423 C 183.498 210.639,182.957 209.897,182.759 209.775 C 182.561 209.652,182.777 210.193,183.240 210.977 M144.800 210.664 C 144.800 210.882,145.295 211.497,145.900 212.030 L 147.000 213.000 146.000 211.800 C 145.450 211.140,144.955 210.525,144.900 210.433 C 144.845 210.342,144.800 210.445,144.800 210.664 M153.505 211.083 C 154.002 211.179,154.722 211.175,155.105 211.075 C 155.487 210.975,155.080 210.896,154.200 210.901 C 153.320 210.905,153.007 210.987,153.505 211.083 M215.300 211.052 C 217.191 211.610,216.018 213.960,213.614 214.431 C 212.224 214.703,212.220 214.709,213.411 214.754 C 215.960 214.851,217.871 211.174,215.400 210.926 C 214.776 210.864,214.754 210.891,215.300 211.052 M207.000 213.227 C 206.340 213.650,206.005 213.997,206.256 213.998 C 206.506 213.999,207.136 213.646,207.656 213.213 C 208.845 212.223,208.559 212.229,207.000 213.227 M150.876 214.460 C 152.105 214.806,156.024 214.814,156.883 214.472 C 157.258 214.322,155.852 214.200,153.759 214.200 C 151.665 214.200,150.368 214.317,150.876 214.460 M198.940 214.494 C 199.509 214.857,203.153 214.842,204.086 214.472 C 204.463 214.322,203.356 214.200,201.626 214.200 C 199.896 214.200,198.687 214.332,198.940 214.494 M223.200 214.400 L 221.400 214.680 223.076 214.740 C 223.998 214.773,224.864 214.620,225.000 214.400 C 225.136 214.180,225.192 214.027,225.124 214.060 C 225.056 214.093,224.190 214.246,223.200 214.400 M240.140 214.494 C 240.710 214.858,244.753 214.842,245.686 214.472 C 246.064 214.322,244.867 214.200,243.026 214.200 C 241.186 214.200,239.887 214.332,240.140 214.494 M113.800 259.982 L 119.000 260.200 119.107 270.387 C 119.166 275.990,119.346 280.706,119.507 280.868 C 119.997 281.359,119.629 260.717,119.138 260.125 C 118.813 259.734,117.412 259.621,113.651 259.682 L 108.600 259.763 113.800 259.982 M108.582 276.000 C 108.582 284.690,108.635 288.245,108.700 283.900 C 108.764 279.555,108.764 272.445,108.700 268.100 C 108.635 263.755,108.582 267.310,108.582 276.000 M159.932 281.500 C 181.784 281.557,217.424 281.557,239.132 281.500 C 260.839 281.443,242.960 281.396,199.400 281.396 C 155.840 281.396,138.079 281.443,159.932 281.500 M285.905 292.683 C 286.402 292.779,287.122 292.775,287.505 292.675 C 287.887 292.575,287.480 292.496,286.600 292.501 C 285.720 292.505,285.407 292.587,285.905 292.683 " stroke="none" fill="#6e6d69" fill-rule="evenodd"></path></g></svg>