<?xml version="1.0" encoding="iso-8859-1"?>
<!-- Generator: Adobe Illustrator 22.0.1, SVG Export Plug-In . SVG Version: 6.00 Build 0)  -->
<svg version="1.1" id="Layer_1" xmlns="http://www.w3.org/2000/svg" xmlns:xlink="http://www.w3.org/1999/xlink" x="0px" y="0px"
	 viewBox="0 0 438.53 438.53" style="enable-background:new 0 0 438.53 438.53;" xml:space="preserve">
<g id="_x34_">
	<g>
		<path style="fill:#F0F0F0;" d="M28.344,196.986l-7.216-22.31l18.892-13.788H16.669l-3.519-10.883
			c-4.047,12.095-7.016,24.477-8.902,36.994l5.206-3.8L28.344,196.986z"/>
		<path style="fill:#F0F0F0;" d="M25.011,121.457c-0.967,1.928-1.911,3.865-2.818,5.816l6.151,4.49L25.011,121.457z"/>
		<polygon style="fill:#F0F0F0;" points="96.611,160.887 89.396,138.577 82.18,160.887 58.829,160.887 77.721,174.675 
			70.505,196.986 89.396,183.197 108.287,196.986 101.07,174.675 119.962,160.887 		"/>
		<path style="fill:#F0F0F0;" d="M89.396,52.751l18.891,13.788l-7.216-22.31l18.892-13.788h-9.064
			c-13.246,7.631-25.863,16.763-37.587,27.422l-2.806,8.677L89.396,52.751z"/>
		<path style="fill:#F0F0F0;" d="M307.965,102.559h-88.68c0,16.389,0,34.755,0,58.408h30.541L307.965,102.559z"/>
		<path style="fill:#F0F0F0;" d="M348.275,44.15C310.09,15.801,264.693,1.606,219.285,1.574c0,16.351,0,30.077,0,42.576H348.275z"/>
		<polygon style="fill:#F0F0F0;" points="89.396,73.354 82.18,95.664 58.83,95.664 77.721,109.452 70.505,131.763 89.396,117.974 
			108.287,131.763 101.07,109.452 119.962,95.664 96.611,95.664 		"/>
		<path style="fill:#F0F0F0;" d="M52.16,359.545l23.245-23.353H34.983c8.498,13.584,18.62,26.429,30.378,38.243l0.404-0.406
			l-7.305-7.339C56.308,364.356,54.21,361.972,52.16,359.545z"/>
		<path style="fill:#F0F0F0;" d="M191.685,219.376H1.772c0,0.189-0.007,0.379-0.007,0.568c0,19.469,2.574,38.935,7.708,57.84
			h124.073L191.685,219.376z"/>
		<polygon style="fill:#F0F0F0;" points="150.448,66.54 169.338,52.751 188.229,66.54 181.013,44.229 199.905,30.441 
			176.554,30.441 169.338,8.131 162.123,30.441 138.772,30.441 157.664,44.229 		"/>
		<polygon style="fill:#F0F0F0;" points="150.448,131.763 169.338,117.974 188.229,131.763 181.013,109.452 199.905,95.664 
			176.554,95.664 169.338,73.354 162.123,95.664 138.772,95.664 157.664,109.452 		"/>
		<polygon style="fill:#F0F0F0;" points="181.013,174.675 199.905,160.887 176.554,160.887 169.338,138.577 162.123,160.887 
			138.772,160.887 157.664,174.675 150.448,196.986 169.338,183.197 188.229,196.986 		"/>
		<path style="fill:#D80027;" d="M249.826,160.967h-30.541c0,9.336,0,19.495,0,30.682L249.826,160.967z"/>
		<path style="fill:#D80027;" d="M219.285,102.559h88.68l50.296-50.528c-3.27-2.737-6.598-5.366-9.986-7.881h-128.99
			C219.285,64.826,219.285,82.171,219.285,102.559z"/>
		<path style="fill:#D80027;" d="M133.546,277.783H9.473c5.528,20.357,14.031,40.059,25.51,58.409h40.422L133.546,277.783z"/>
		<path style="fill:#0052B4;" d="M209.595,201.383v-40.416h9.69c0-23.653,0-42.018,0-58.408h-9.69V44.15h9.69
			c0-12.498,0-26.225,0-42.576c-37.477-0.026-74.952,9.605-108.387,28.867h9.064L101.07,44.229l7.216,22.31l-18.89-13.788
			L70.505,66.54l2.806-8.677c-2.7,2.455-5.354,4.987-7.956,7.602c-16.769,16.844-30.208,35.788-40.343,55.992l3.333,10.305
			l-6.151-4.49c-3.456,7.433-6.465,15.024-9.044,22.731l3.519,10.883H40.02l-18.892,13.788l7.216,22.31L9.453,183.197l-5.206,3.8
			c-1.616,10.727-2.446,21.551-2.475,32.378h189.913L209.595,201.383z M108.287,196.986l-18.891-13.788l-18.891,13.788l7.216-22.31
			l-18.892-13.788H82.18l7.215-22.31l7.215,22.31h23.351l-18.892,13.788L108.287,196.986z M101.07,109.452l7.216,22.31
			l-18.891-13.788l-18.891,13.788l7.216-22.31L58.83,95.664h23.35l7.215-22.31l7.215,22.31h23.351L101.07,109.452z M162.123,30.441
			l7.215-22.31l7.215,22.31h23.351l-18.892,13.788l7.216,22.31l-18.891-13.788L150.448,66.54l7.216-22.31l-18.892-13.788h23.351
			V30.441z M162.123,95.664l7.215-22.31l7.215,22.31h23.351l-18.892,13.788l7.216,22.31l-18.891-13.788l-18.891,13.788l7.216-22.31
			L138.77,95.664C138.77,95.664,162.123,95.664,162.123,95.664z M150.448,196.986l7.216-22.31l-18.892-13.788h23.351l7.215-22.31
			l7.215,22.31h23.351l-18.892,13.788l7.216,22.31l-18.891-13.788L150.448,196.986z"/>
		<path style="fill:#0052B4;" d="M219.285,160.967h-9.69v40.416l9.69-9.734C219.285,180.462,219.285,170.303,219.285,160.967z"/>
		<path style="fill:#0052B4;" d="M209.595,44.15v58.409h9.69c0-20.388,0-37.733,0-58.409C219.285,44.15,209.595,44.15,209.595,44.15
			z"/>
		<polygon style="fill:#F0F0F0;" points="231.522,234.635 231.427,234.731 231.459,234.731 		"/>
		<path style="fill:#F0F0F0;" d="M258.097,207.938l17.78,26.793h22.209l-22.209,44.624l44.419-22.312v22.312l22.208,11.155
			l-44.418,22.312l11.104,22.312h-44.419v33.467h-22.208v-33.467h-44.419l11.104-22.312l-37.036-18.604l-29.591,29.727V422.6
			c24.684,9.316,50.727,13.976,76.774,13.976c52.057-0.006,104.128-18.622,145.317-55.837v-279.91L258.097,207.938z"/>
		<polygon style="fill:#F0F0F0;" points="216.642,249.584 201.825,264.469 231.459,279.355 		"/>
		<polygon style="fill:#F0F0F0;" points="187.04,279.322 186.976,279.387 187.04,279.355 		"/>
		<path style="fill:#D80027;" d="M373.165,63.715l-0.491,0.493c4.799,4.73,9.384,9.675,13.733,14.826l-21.694,21.794v279.911
			c2.87-2.594,5.691-5.273,8.452-8.047C457.965,287.515,457.965,148.899,373.165,63.715z"/>
		<path style="fill:#D80027;" d="M80.529,386.325c18.958,15.825,39.975,27.927,62.093,36.274v-98.654L80.529,386.325z"/>
		<polygon style="fill:#D80027;" points="231.459,234.731 231.427,234.731 216.642,249.584 231.459,279.355 201.825,264.469 
			187.04,279.322 187.04,279.355 186.976,279.387 172.213,294.218 209.249,312.822 198.145,335.134 242.564,335.134 
			242.564,368.601 264.772,368.601 264.772,335.134 309.191,335.134 298.087,312.822 342.504,290.51 320.296,279.355 
			320.296,257.043 275.877,279.355 298.087,234.731 275.877,234.731 258.097,207.938 231.522,234.635 		"/>
		<path style="fill:#FFFFFF;" d="M372.675,64.208c-4.469-4.405-9.123-8.625-13.959-12.635l-0.455,0.457
			c4.771,3.993,9.409,8.225,13.9,12.694L372.675,64.208z"/>
		<path style="fill:#FFFFFF;" d="M65.765,374.03l4.56,4.581c3.097,2.884,6.272,5.685,9.533,8.388l0.671-0.674
			c-4.86-4.057-9.588-8.353-14.16-12.902L65.765,374.03z"/>
		<polygon style="fill:#FFFFFF;" points="276.361,160.967 334.5,102.559 307.965,102.559 249.826,160.967 		"/>
		<path style="fill:#FFFFFF;" d="M65.615,372.686l9.306-9.349l0,0l27.02-27.144H75.405L52.16,359.545
			c2.05,2.427,4.148,4.811,6.3,7.146l7.305,7.339l0.604-0.607C66.119,373.175,65.864,372.936,65.615,372.686z"/>
		<polygon style="fill:#FFFFFF;" points="218.22,219.376 209.595,219.376 191.685,219.376 133.546,277.783 160.081,277.783 		"/>
		<path style="fill:#FFFFFF;" d="M249.826,160.967l-30.541,30.682c0,8.29,0,17.153,0,26.658l57.076-57.339L249.826,160.967
			L249.826,160.967z"/>
		<path style="fill:#FFFFFF;" d="M334.5,102.559l29.372-29.508l0.841-0.845l7.447-7.482c-4.491-4.469-9.129-8.701-13.9-12.694
			l-50.296,50.528H334.5V102.559z"/>
		<polygon style="fill:#FFFFFF;" points="160.081,277.783 133.546,277.783 75.405,336.192 101.94,336.192 142.622,295.323 		"/>
		<polygon style="fill:#FFFFFF;" points="209.595,201.383 191.685,219.376 209.595,219.376 		"/>
		<path style="fill:#FFFFFF;" d="M218.22,219.376l1.065-1.07c0-9.505,0-18.367,0-26.658l-9.69,9.734v17.993h8.625V219.376z"/>
		<polygon style="fill:#FFFFFF;" points="363.619,74.801 335.989,102.559 277.849,160.967 219.709,219.376 161.57,277.783 
			142.622,296.818 142.622,323.945 172.213,294.218 164.832,290.51 186.976,279.387 187.04,279.322 187.04,257.043 201.825,264.469 
			216.642,249.584 209.249,234.731 231.427,234.731 231.522,234.635 253.668,201.264 258.097,207.938 364.714,100.829 
			364.714,73.702 		"/>
		<polygon style="fill:#FFFFFF;" points="277.849,160.967 335.989,102.559 334.5,102.559 276.361,160.967 		"/>
		<polygon style="fill:#FFFFFF;" points="218.22,219.376 160.081,277.783 161.57,277.783 219.709,219.376 219.285,219.376 		"/>
		<path style="fill:#FFFFFF;" d="M219.285,218.306c0,0.358,0,0.709,0,1.07h0.424l58.141-58.409h-1.489L219.285,218.306z"/>
		<polygon style="fill:#FFFFFF;" points="363.619,74.801 364.714,73.702 364.714,72.206 363.873,73.051 334.5,102.559 
			335.989,102.559 		"/>
		<polygon style="fill:#FFFFFF;" points="160.081,277.783 142.622,295.323 142.622,296.818 161.57,277.783 		"/>
		<path style="fill:#FFFFFF;" d="M219.285,218.306l-1.065,1.07h1.065C219.285,219.015,219.285,218.664,219.285,218.306z"/>
		<path style="fill:#FFFFFF;" d="M372.912,65.465l-8.198,8.236v27.127l21.694-21.794c-4.348-5.151-8.934-10.096-13.733-14.826
			l-0.514,0.516C372.41,64.973,372.663,65.215,372.912,65.465z"/>
		<path style="fill:#FFFFFF;" d="M372.912,65.465c-0.249-0.25-0.502-0.492-0.751-0.741l-7.447,7.482v1.495L372.912,65.465z"/>
		<path style="fill:#FFFFFF;" d="M142.622,296.818l-39.193,39.374l-28.762,28.895l0,0l-8.298,8.336
			c4.572,4.549,9.299,8.845,14.16,12.902l62.093-62.38V296.818z"/>
		<path style="fill:#FFFFFF;" d="M74.921,363.337L74.921,363.337l-9.306,9.349c0.249,0.25,0.505,0.489,0.754,0.737l8.298-8.336l0,0
			l28.762-28.895h-1.489L74.921,363.337z"/>
		<polygon style="fill:#FFFFFF;" points="101.94,336.192 103.429,336.192 142.622,296.818 142.622,295.323 		"/>
		<polygon style="fill:#FFFFFF;" points="231.522,234.635 258.097,207.938 253.668,201.264 		"/>
		<polygon style="fill:#FFFFFF;" points="164.832,290.51 172.213,294.218 186.976,279.387 		"/>
		<polygon style="fill:#FFFFFF;" points="187.04,257.043 187.04,279.322 201.825,264.469 		"/>
		<polygon style="fill:#FFFFFF;" points="209.249,234.731 216.642,249.584 231.427,234.731 		"/>
	</g>
</g>
</svg>
