<svg id="svg" version="1.1" xmlns="http://www.w3.org/2000/svg" xmlns:xlink="http://www.w3.org/1999/xlink" width="400" height="403.64741641337383" viewBox="0, 0, 400,403.64741641337383"><g id="svgg"><path id="path0" d="M207.599 36.201 C 131.302 40.776,76.044 111.371,89.855 186.626 C 93.687 207.502,98.436 214.748,109.171 216.096 C 122.608 217.783,131.280 205.300,126.651 190.933 C 120.399 171.530,121.178 149.251,128.778 130.091 C 153.165 68.612,232.381 51.946,279.029 98.480 C 327.322 146.656,308.255 228.592,243.617 250.655 C 234.747 253.682,229.086 254.636,213.222 255.775 C 194.484 257.120,186.728 258.126,182.970 259.698 C 180.625 260.678,181.347 256.672,192.882 204.703 C 202.112 163.121,202.034 163.549,201.059 159.714 C 197.320 145.006,178.017 141.650,169.667 154.257 C 167.768 157.124,169.161 151.097,152.279 229.483 C 127.334 345.305,126.580 348.944,126.902 351.952 C 128.940 370.982,158.037 372.685,161.049 353.951 C 161.542 350.885,166.550 326.744,167.197 324.316 C 171.436 308.403,183.996 296.002,199.977 291.951 C 203.268 291.117,207.992 290.567,218.237 289.824 C 265.044 286.431,303.598 261.581,324.342 221.437 C 364.786 143.166,314.779 47.745,227.660 36.952 C 219.668 35.962,214.699 35.776,207.599 36.201 " stroke="none" fill="#1c1c1c" fill-rule="evenodd"></path><path id="path1" d="M187.690 11.743 C 124.518 16.590,70.927 48.435,37.345 101.083 C 11.461 141.662,1.921 193.167,11.423 241.033 C 32.976 349.601,141.176 417.385,248.632 389.638 C 351.036 363.195,412.595 258.047,385.990 155.015 C 365.945 77.386,300.103 21.112,218.997 12.289 C 214.670 11.818,191.887 11.421,187.690 11.743 M222.340 36.186 C 317.966 44.400,370.477 152.096,318.039 232.456 C 295.302 267.298,261.333 286.669,216.913 290.121 C 195.617 291.775,188.140 294.624,178.368 304.805 C 169.751 313.782,168.211 318.125,161.525 352.280 C 160.568 357.171,159.291 359.871,156.725 362.431 C 145.945 373.185,126.775 365.691,126.751 350.714 C 126.746 347.286,130.111 331.324,161.980 183.593 C 168.288 154.354,167.980 155.342,172.006 151.366 C 182.015 141.480,198.445 146.584,201.399 160.497 C 202.131 163.945,202.158 163.802,193.044 204.791 C 188.370 225.811,183.930 246.360,183.176 250.456 C 182.423 254.552,181.722 258.120,181.619 258.386 C 181.237 259.370,182.231 259.700,183.970 259.168 C 189.295 257.537,195.298 256.844,218.575 255.174 C 261.660 252.083,295.202 223.689,303.923 182.925 C 318.407 115.221,255.490 56.510,188.855 75.548 C 140.052 89.491,111.238 142.535,126.586 190.180 C 129.762 200.039,128.550 206.304,122.343 212.110 C 114.343 219.594,100.676 216.920,95.386 206.835 C 93.235 202.734,90.272 191.341,88.896 181.877 C 79.470 117.038,120.898 55.381,184.526 39.552 C 191.487 37.820,196.860 36.963,206.383 36.064 C 208.940 35.823,219.007 35.900,222.340 36.186 M223.208 329.349 C 236.933 332.829,244.087 349.644,236.912 361.559 C 225.595 380.352,196.106 371.465,197.047 349.544 C 197.637 335.811,210.261 326.066,223.208 329.349 " stroke="none" fill="#f3f3f3" fill-rule="evenodd"></path><path id="path2" d="M213.830 329.321 C 197.488 332.886,191.375 353.456,203.161 365.224 C 218.568 380.608,244.208 366.542,238.949 345.593 C 236.069 334.118,224.927 326.901,213.830 329.321 " stroke="none" fill="#e4057c" fill-rule="evenodd"></path><path id="path3" d="M212.690 71.957 C 213.568 72.018,215.004 72.018,215.881 71.957 C 216.759 71.895,216.041 71.845,214.286 71.845 C 212.530 71.845,211.812 71.895,212.690 71.957 M87.615 157.599 C 87.618 158.267,87.680 158.505,87.753 158.127 C 87.826 157.749,87.823 157.202,87.747 156.911 C 87.671 156.621,87.611 156.930,87.615 157.599 M305.852 159.119 C 305.855 159.787,305.917 160.025,305.990 159.647 C 306.063 159.269,306.060 158.722,305.984 158.431 C 305.908 158.141,305.848 158.450,305.852 159.119 M122.563 160.182 C 122.563 160.767,122.625 161.007,122.702 160.714 C 122.778 160.422,122.778 159.943,122.702 159.650 C 122.625 159.358,122.563 159.597,122.563 160.182 M201.614 163.678 C 201.616 164.681,201.672 165.055,201.740 164.508 C 201.808 163.962,201.806 163.141,201.737 162.685 C 201.668 162.228,201.612 162.675,201.614 163.678 M305.846 168.085 C 305.846 168.670,305.908 168.910,305.985 168.617 C 306.061 168.324,306.061 167.846,305.985 167.553 C 305.908 167.261,305.846 167.500,305.846 168.085 M87.609 168.997 C 87.609 169.582,87.671 169.821,87.748 169.529 C 87.824 169.236,87.824 168.758,87.748 168.465 C 87.671 168.172,87.609 168.412,87.609 168.997 M122.563 168.997 C 122.563 169.582,122.625 169.821,122.702 169.529 C 122.778 169.236,122.778 168.758,122.702 168.465 C 122.625 168.172,122.563 168.412,122.563 168.997 M279.021 228.495 L 276.444 231.155 279.103 228.578 C 281.573 226.185,281.901 225.836,281.680 225.836 C 281.635 225.836,280.438 227.033,279.021 228.495 M301.054 253.267 L 299.240 255.167 301.140 253.353 C 302.185 252.355,303.040 251.500,303.040 251.453 C 303.040 251.229,302.740 251.503,301.054 253.267 M178.864 304.027 L 177.356 305.623 178.951 304.115 C 179.829 303.285,180.547 302.567,180.547 302.519 C 180.547 302.292,180.266 302.545,178.864 304.027 M203.040 335.106 C 202.301 335.859,201.766 336.474,201.849 336.474 C 201.933 336.474,202.605 335.859,203.343 335.106 C 204.082 334.354,204.617 333.739,204.534 333.739 C 204.450 333.739,203.778 334.354,203.040 335.106 M239.601 350.608 C 239.603 351.444,239.662 351.750,239.732 351.288 C 239.802 350.826,239.800 350.142,239.728 349.768 C 239.655 349.394,239.598 349.772,239.601 350.608 M239.280 354.711 C 239.280 355.296,239.343 355.536,239.419 355.243 C 239.496 354.951,239.496 354.472,239.419 354.179 C 239.343 353.887,239.280 354.126,239.280 354.711 M156.519 362.538 L 155.471 363.678 156.611 362.630 C 157.672 361.655,157.891 361.398,157.658 361.398 C 157.608 361.398,157.095 361.911,156.519 362.538 M203.040 365.502 C 203.607 366.087,204.139 366.565,204.223 366.565 C 204.306 366.565,203.911 366.087,203.343 365.502 C 202.776 364.916,202.244 364.438,202.160 364.438 C 202.077 364.438,202.472 364.916,203.040 365.502 M233.722 365.578 L 232.675 366.717 233.815 365.670 C 234.876 364.695,235.094 364.438,234.862 364.438 C 234.811 364.438,234.298 364.951,233.722 365.578 " stroke="none" fill="#a79ba2" fill-rule="evenodd"></path><path id="path4" d="M209.503 36.084 C 209.965 36.154,210.649 36.152,211.022 36.080 C 211.396 36.008,211.018 35.951,210.182 35.953 C 209.347 35.955,209.041 36.015,209.503 36.084 M216.949 36.081 C 217.327 36.154,217.874 36.151,218.165 36.075 C 218.455 35.999,218.146 35.940,217.477 35.943 C 216.809 35.946,216.571 36.009,216.949 36.081 M128.096 70.289 L 127.204 71.277 128.191 70.384 C 129.112 69.552,129.319 69.301,129.084 69.301 C 129.032 69.301,128.587 69.745,128.096 70.289 M298.784 70.669 C 299.351 71.254,299.884 71.733,299.967 71.733 C 300.051 71.733,299.655 71.254,299.088 70.669 C 298.521 70.084,297.989 69.605,297.905 69.605 C 297.821 69.605,298.217 70.084,298.784 70.669 M209.654 71.947 C 210.032 72.020,210.579 72.017,210.870 71.941 C 211.160 71.865,210.851 71.806,210.182 71.809 C 209.514 71.813,209.276 71.875,209.654 71.947 M217.857 71.947 C 218.233 72.019,218.849 72.019,219.225 71.947 C 219.601 71.875,219.293 71.815,218.541 71.815 C 217.789 71.815,217.481 71.875,217.857 71.947 M303.343 75.228 C 303.911 75.813,304.443 76.292,304.527 76.292 C 304.610 76.292,304.215 75.813,303.647 75.228 C 303.080 74.643,302.548 74.164,302.464 74.164 C 302.381 74.164,302.776 74.643,303.343 75.228 M279.027 98.632 C 280.104 99.719,281.054 100.608,281.137 100.608 C 281.221 100.608,280.408 99.719,279.331 98.632 C 278.254 97.546,277.305 96.657,277.221 96.657 C 277.138 96.657,277.950 97.546,279.027 98.632 M149.069 98.860 L 148.176 99.848 149.164 98.955 C 150.085 98.123,150.292 97.872,150.057 97.872 C 150.005 97.872,149.560 98.317,149.069 98.860 M183.359 146.418 C 183.818 146.488,184.571 146.488,185.030 146.418 C 185.490 146.349,185.114 146.292,184.195 146.292 C 183.275 146.292,182.899 146.349,183.359 146.418 M338.368 155.623 C 338.368 156.208,338.431 156.448,338.507 156.155 C 338.584 155.862,338.584 155.384,338.507 155.091 C 338.431 154.799,338.368 155.038,338.368 155.623 M122.563 158.359 C 122.563 158.944,122.625 159.183,122.702 158.891 C 122.778 158.598,122.778 158.119,122.702 157.827 C 122.625 157.534,122.563 157.774,122.563 158.359 M87.661 163.374 C 87.661 166.049,87.708 167.102,87.764 165.715 C 87.821 164.328,87.820 162.139,87.764 160.852 C 87.707 159.564,87.661 160.699,87.661 163.374 M338.368 170.517 C 338.368 171.102,338.431 171.341,338.507 171.049 C 338.584 170.756,338.584 170.277,338.507 169.985 C 338.431 169.692,338.368 169.932,338.368 170.517 M144.002 367.394 C 144.549 367.461,145.369 367.460,145.826 367.390 C 146.283 367.321,145.836 367.266,144.833 367.267 C 143.830 367.269,143.456 367.326,144.002 367.394 " stroke="none" fill="#7c7c7c" fill-rule="evenodd"></path></g></svg>