<svg id="svg" version="1.1" xmlns="http://www.w3.org/2000/svg" xmlns:xlink="http://www.w3.org/1999/xlink" width="400" height="400" viewBox="0, 0, 400,400"><g id="svgg"><path id="path0" d="M198.418 50.029 C 197.061 50.288,195.509 51.130,194.500 52.155 C 193.349 53.324,129.777 140.156,129.047 141.555 C 128.573 142.466,97.777 282.049,97.253 285.667 C 96.806 288.748,98.500 291.591,102.157 293.899 C 104.550 295.410,190.281 349.120,193.833 351.335 C 198.047 353.961,200.319 354.406,203.140 353.159 C 204.925 352.369,299.568 292.919,300.504 292.000 C 302.128 290.404,302.952 288.214,302.789 285.921 C 302.694 284.569,271.819 143.406,271.348 142.165 C 270.955 141.130,274.598 146.158,238.003 96.148 C 220.672 72.462,206.110 52.689,205.643 52.208 C 203.840 50.348,201.093 49.519,198.418 50.029 M192.167 99.613 L 192.167 117.059 174.145 148.863 C 161.783 170.679,156.038 180.666,155.853 180.666 C 155.558 180.665,144.762 147.112,144.864 146.515 C 144.939 146.081,191.708 82.187,191.958 82.176 C 192.124 82.169,192.167 85.762,192.167 99.613 M231.337 113.667 C 243.915 130.854,254.468 145.275,254.788 145.714 L 255.370 146.511 249.904 163.672 C 246.817 173.368,244.356 180.833,244.247 180.833 C 244.141 180.833,235.942 166.517,226.027 149.019 L 208.000 117.205 208.000 99.757 C 208.000 84.856,208.034 82.317,208.234 82.363 C 208.363 82.392,218.759 96.479,231.337 113.667 M219.066 168.332 L 237.859 201.497 225.613 239.957 L 213.366 278.417 200.055 278.459 L 186.744 278.502 174.532 240.126 C 167.815 219.019,162.323 201.650,162.326 201.527 C 162.332 201.351,198.690 136.994,199.605 135.542 C 199.735 135.335,199.938 135.167,200.057 135.167 C 200.175 135.167,208.729 150.091,219.066 168.332 M141.486 187.828 C 143.510 194.196,145.167 199.539,145.167 199.703 C 145.167 200.031,125.026 235.664,124.600 236.091 C 124.356 236.335,124.333 236.318,124.330 235.887 C 124.325 235.232,137.179 176.467,137.385 176.201 C 137.670 175.835,137.707 175.942,141.486 187.828 M269.309 205.920 C 272.910 222.375,275.833 235.948,275.803 236.082 C 275.688 236.606,275.034 235.500,265.079 217.935 L 254.794 199.786 258.091 189.435 C 259.904 183.741,261.604 178.390,261.868 177.542 C 262.135 176.687,262.441 176.000,262.555 176.000 C 262.694 176.000,264.903 185.786,269.309 205.920 M152.903 223.875 C 157.428 237.993,170.036 277.674,170.113 278.042 L 170.208 278.500 144.521 278.500 C 128.446 278.500,118.833 278.441,118.833 278.342 C 118.833 278.255,125.646 266.161,133.974 251.467 C 142.301 236.773,149.655 223.794,150.317 222.625 C 150.978 221.456,151.587 220.500,151.670 220.500 C 151.753 220.500,152.308 222.019,152.903 223.875 M264.833 249.190 C 273.771 264.966,281.137 278.015,281.203 278.187 C 281.320 278.492,280.699 278.500,255.560 278.500 C 235.024 278.500,229.812 278.458,229.868 278.292 C 229.906 278.177,234.058 265.127,239.094 249.292 C 244.130 233.456,248.325 220.501,248.417 220.503 C 248.508 220.504,255.896 233.413,264.833 249.190 M175.333 294.394 C 175.333 294.428,177.647 301.721,180.476 310.603 C 183.304 319.484,185.675 326.930,185.745 327.150 C 185.845 327.466,185.820 327.530,185.624 327.455 C 185.236 327.306,133.446 294.837,133.173 294.571 C 132.961 294.365,135.782 294.333,154.131 294.333 C 165.792 294.333,175.333 294.361,175.333 294.394 M208.118 294.542 C 208.076 294.656,206.255 300.356,204.070 307.208 C 201.886 314.060,200.052 319.610,199.995 319.541 C 199.885 319.411,192.000 294.668,192.000 294.456 C 192.000 294.388,195.644 294.333,200.097 294.333 C 206.505 294.333,208.178 294.377,208.118 294.542 M266.997 294.542 C 266.994 294.755,214.858 327.500,214.520 327.500 C 214.151 327.500,218.495 313.300,224.272 295.625 L 224.694 294.333 245.847 294.333 C 262.660 294.333,266.999 294.376,266.997 294.542 " stroke="none" fill="#fbfbfb" fill-rule="evenodd"></path><path id="path1" d="M189.500 0.186 C 90.340 5.417,9.570 83.081,0.762 181.667 C 0.213 187.805,0.138 189.490,0.050 197.549 C -1.097 302.622,78.052 390.075,182.667 399.324 C 188.648 399.853,190.502 399.917,200.000 399.917 C 209.819 399.917,211.292 399.862,218.250 399.238 C 321.065 390.017,400.004 303.483,400.000 200.000 C 399.995 85.371,303.896 -5.850,189.500 0.186 M202.051 50.082 C 203.506 50.461,204.638 51.109,205.658 52.148 C 206.948 53.463,270.258 140.005,271.046 141.531 C 271.882 143.151,302.864 284.293,302.859 286.460 C 302.852 289.482,301.558 291.598,298.500 293.585 C 297.308 294.360,237.910 331.594,206.596 351.197 C 201.683 354.272,199.372 354.599,195.981 352.701 C 191.567 350.231,100.315 292.812,99.501 291.993 C 97.997 290.480,97.175 288.505,97.169 286.386 C 97.165 284.993,128.351 142.761,128.901 141.668 C 129.257 140.959,190.432 57.167,193.442 53.265 C 195.645 50.409,198.812 49.238,202.051 50.082 M168.461 114.372 C 155.561 131.997,144.996 146.492,144.983 146.583 C 144.951 146.819,155.728 180.667,155.835 180.667 C 155.883 180.667,164.041 166.340,173.962 148.830 L 192.002 116.993 191.959 99.661 L 191.917 82.328 168.461 114.372 M208.000 99.546 L 208.000 116.834 226.013 148.625 C 235.920 166.110,244.088 180.482,244.166 180.562 C 244.243 180.641,244.759 179.291,245.311 177.562 C 252.290 155.721,255.145 146.598,255.052 146.440 C 254.792 145.997,208.595 82.887,208.311 82.588 C 208.007 82.267,208.000 82.660,208.000 99.546 M197.790 139.104 C 174.413 180.325,162.500 201.425,162.500 201.611 C 162.500 201.856,186.548 277.490,186.828 278.126 L 186.994 278.502 200.096 278.459 L 213.198 278.417 225.437 239.981 L 237.676 201.545 219.035 168.647 C 208.782 150.554,200.316 135.609,200.220 135.438 C 200.073 135.173,199.703 135.732,197.790 139.104 M137.423 176.351 C 137.239 176.855,124.333 236.055,124.394 236.116 C 124.467 236.189,145.095 199.825,145.063 199.678 C 144.989 199.340,137.622 176.237,137.571 176.184 C 137.536 176.148,137.470 176.223,137.423 176.351 M262.472 176.258 C 262.423 176.345,260.716 181.667,258.679 188.083 L 254.975 199.750 263.005 213.917 C 267.421 221.708,272.053 229.879,273.298 232.075 C 274.543 234.270,275.588 235.986,275.620 235.889 C 275.757 235.478,262.635 175.967,262.472 176.258 M248.192 221.025 C 243.858 234.564,230.000 278.227,230.000 278.341 C 230.000 278.441,239.422 278.500,255.601 278.500 C 276.861 278.500,281.188 278.462,281.117 278.278 C 281.039 278.073,249.609 222.558,248.750 221.108 L 248.370 220.466 248.192 221.025 M135.286 249.406 C 126.329 265.213,119.000 278.226,119.000 278.323 C 119.000 278.530,169.936 278.582,170.049 278.375 C 170.135 278.218,151.807 220.667,151.671 220.667 C 151.617 220.667,144.243 233.600,135.286 249.406 M133.172 294.458 C 133.178 294.629,185.509 327.380,185.612 327.277 C 185.657 327.232,183.344 319.820,180.471 310.806 L 175.249 294.417 154.208 294.374 C 142.635 294.351,133.169 294.389,133.172 294.458 M192.041 294.542 C 192.083 294.656,193.867 300.262,196.005 307.000 C 198.143 313.737,199.938 319.305,199.993 319.371 C 200.080 319.477,208.024 294.783,208.007 294.458 C 208.003 294.390,204.392 294.333,199.982 294.333 C 193.638 294.333,191.980 294.377,192.041 294.542 M224.355 295.875 C 222.772 300.696,214.324 327.379,214.366 327.422 C 214.425 327.481,266.033 295.168,266.667 294.675 C 267.080 294.355,266.903 294.352,245.972 294.343 L 224.861 294.333 224.355 295.875 " stroke="none" fill="#5c5c5c" fill-rule="evenodd"></path><path id="path2" d="M191.516 82.542 C 191.287 82.915,191.288 82.915,191.642 82.600 L 191.998 82.283 192.042 99.767 L 192.085 117.250 192.126 99.708 C 192.168 81.469,192.169 81.480,191.516 82.542 M208.333 82.369 C 208.333 82.426,218.810 96.785,231.615 114.278 C 244.420 131.771,254.999 146.271,255.125 146.500 C 255.262 146.750,255.333 146.799,255.302 146.624 C 255.237 146.254,208.333 82.089,208.333 82.369 M190.548 83.875 C 189.825 84.820,189.444 85.383,189.587 85.297 C 189.784 85.178,190.891 83.667,190.781 83.667 C 190.740 83.667,190.636 83.760,190.548 83.875 M188.905 86.125 C 188.647 86.469,188.255 87.013,188.033 87.333 L 187.630 87.917 188.065 87.417 C 188.625 86.772,189.543 85.500,189.447 85.500 C 189.406 85.500,189.162 85.781,188.905 86.125 M187.381 88.208 C 186.659 89.153,186.278 89.717,186.420 89.630 C 186.617 89.511,187.724 88.000,187.614 88.000 C 187.574 88.000,187.469 88.094,187.381 88.208 M185.548 90.708 C 184.825 91.653,184.444 92.217,184.587 92.130 C 184.784 92.011,185.891 90.500,185.781 90.500 C 185.740 90.500,185.636 90.594,185.548 90.708 M183.905 92.958 C 183.647 93.302,183.255 93.846,183.033 94.167 L 182.630 94.750 183.065 94.250 C 183.625 93.606,184.543 92.333,184.447 92.333 C 184.406 92.333,184.162 92.615,183.905 92.958 M182.071 95.458 C 181.814 95.802,181.422 96.346,181.200 96.667 L 180.796 97.250 181.231 96.750 C 181.792 96.106,182.709 94.833,182.613 94.833 C 182.573 94.833,182.329 95.115,182.071 95.458 M180.548 97.542 C 179.825 98.486,179.444 99.050,179.587 98.964 C 179.784 98.845,180.891 97.333,180.781 97.333 C 180.740 97.333,180.636 97.427,180.548 97.542 M178.715 100.042 C 177.992 100.986,177.611 101.550,177.754 101.464 C 177.950 101.345,179.057 99.833,178.947 99.833 C 178.907 99.833,178.802 99.927,178.715 100.042 M177.071 102.292 C 176.814 102.635,176.422 103.179,176.200 103.500 L 175.796 104.083 176.231 103.583 C 176.792 102.939,177.709 101.667,177.613 101.667 C 177.573 101.667,177.329 101.948,177.071 102.292 M175.548 104.375 C 174.825 105.320,174.444 105.883,174.587 105.797 C 174.784 105.678,175.891 104.167,175.781 104.167 C 175.740 104.167,175.636 104.260,175.548 104.375 M173.715 106.875 C 172.992 107.820,172.611 108.383,172.754 108.297 C 172.950 108.178,174.057 106.667,173.947 106.667 C 173.907 106.667,173.802 106.760,173.715 106.875 M172.071 109.125 C 171.814 109.469,171.422 110.013,171.200 110.333 L 170.796 110.917 171.231 110.417 C 171.792 109.772,172.709 108.500,172.613 108.500 C 172.573 108.500,172.329 108.781,172.071 109.125 M170.238 111.625 C 169.980 111.969,169.588 112.513,169.366 112.833 L 168.963 113.417 169.398 112.917 C 169.959 112.272,170.876 111.000,170.780 111.000 C 170.739 111.000,170.496 111.281,170.238 111.625 M168.715 113.708 C 167.992 114.653,167.611 115.217,167.754 115.130 C 167.950 115.011,169.057 113.500,168.947 113.500 C 168.907 113.500,168.802 113.594,168.715 113.708 M166.881 116.208 C 166.159 117.153,165.778 117.717,165.920 117.630 C 166.117 117.511,167.224 116.000,167.114 116.000 C 167.074 116.000,166.969 116.094,166.881 116.208 M208.000 117.064 C 208.000 117.243,208.496 118.167,208.592 118.167 C 208.638 118.167,208.551 117.923,208.400 117.625 C 208.090 117.017,208.000 116.890,208.000 117.064 M191.583 117.833 C 191.441 118.108,191.362 118.333,191.408 118.333 C 191.454 118.333,191.608 118.108,191.750 117.833 C 191.892 117.558,191.971 117.333,191.925 117.333 C 191.879 117.333,191.726 117.558,191.583 117.833 M165.238 118.458 C 164.980 118.802,164.588 119.346,164.366 119.667 L 163.963 120.250 164.398 119.750 C 164.959 119.106,165.876 117.833,165.780 117.833 C 165.739 117.833,165.496 118.115,165.238 118.458 M208.917 118.833 C 209.059 119.108,209.213 119.333,209.259 119.333 C 209.304 119.333,209.226 119.108,209.083 118.833 C 208.941 118.558,208.787 118.333,208.741 118.333 C 208.696 118.333,208.774 118.558,208.917 118.833 M190.917 119.000 C 190.774 119.275,190.696 119.500,190.741 119.500 C 190.787 119.500,190.941 119.275,191.083 119.000 C 191.226 118.725,191.304 118.500,191.259 118.500 C 191.213 118.500,191.059 118.725,190.917 119.000 M209.913 120.583 C 210.260 121.225,210.621 121.825,210.715 121.917 C 210.809 122.008,210.601 121.558,210.254 120.917 C 209.906 120.275,209.545 119.675,209.452 119.583 C 209.358 119.492,209.566 119.942,209.913 120.583 M163.715 120.542 C 162.992 121.486,162.611 122.050,162.754 121.964 C 162.950 121.845,164.057 120.333,163.947 120.333 C 163.907 120.333,163.802 120.427,163.715 120.542 M211.083 122.667 C 211.226 122.942,211.379 123.167,211.425 123.167 C 211.471 123.167,211.392 122.942,211.250 122.667 C 211.108 122.392,210.954 122.167,210.908 122.167 C 210.862 122.167,210.941 122.392,211.083 122.667 M188.750 122.833 C 188.608 123.108,188.529 123.333,188.575 123.333 C 188.621 123.333,188.774 123.108,188.917 122.833 C 189.059 122.558,189.138 122.333,189.092 122.333 C 189.046 122.333,188.892 122.558,188.750 122.833 M161.881 123.042 C 161.159 123.986,160.778 124.550,160.920 124.464 C 161.117 124.345,162.224 122.833,162.114 122.833 C 162.074 122.833,161.969 122.927,161.881 123.042 M211.750 123.833 C 211.892 124.108,212.046 124.333,212.092 124.333 C 212.138 124.333,212.059 124.108,211.917 123.833 C 211.774 123.558,211.621 123.333,211.575 123.333 C 211.529 123.333,211.608 123.558,211.750 123.833 M188.083 124.000 C 187.941 124.275,187.862 124.500,187.908 124.500 C 187.954 124.500,188.108 124.275,188.250 124.000 C 188.392 123.725,188.471 123.500,188.425 123.500 C 188.379 123.500,188.226 123.725,188.083 124.000 M212.216 124.625 C 213.145 126.321,214.220 128.167,214.277 128.167 C 214.319 128.167,214.322 128.110,214.284 128.042 C 213.355 126.345,212.280 124.500,212.223 124.500 C 212.181 124.500,212.178 124.556,212.216 124.625 M160.238 125.292 C 159.980 125.635,159.588 126.179,159.366 126.500 L 158.963 127.083 159.398 126.583 C 159.959 125.939,160.876 124.667,160.780 124.667 C 160.739 124.667,160.496 124.948,160.238 125.292 M158.405 127.792 C 158.147 128.135,157.755 128.679,157.533 129.000 L 157.130 129.583 157.565 129.083 C 158.125 128.439,159.043 127.167,158.947 127.167 C 158.906 127.167,158.662 127.448,158.405 127.792 M185.917 127.833 C 185.774 128.108,185.696 128.333,185.741 128.333 C 185.787 128.333,185.941 128.108,186.083 127.833 C 186.226 127.558,186.304 127.333,186.259 127.333 C 186.213 127.333,186.059 127.558,185.917 127.833 M214.583 128.833 C 214.726 129.108,214.879 129.333,214.925 129.333 C 214.971 129.333,214.892 129.108,214.750 128.833 C 214.608 128.558,214.454 128.333,214.408 128.333 C 214.362 128.333,214.441 128.558,214.583 128.833 M185.250 129.000 C 185.108 129.275,185.029 129.500,185.075 129.500 C 185.121 129.500,185.274 129.275,185.417 129.000 C 185.559 128.725,185.638 128.500,185.592 128.500 C 185.546 128.500,185.392 128.725,185.250 129.000 M215.049 129.625 C 215.979 131.321,217.053 133.167,217.111 133.167 C 217.152 133.167,217.156 133.110,217.118 133.042 C 216.188 131.345,215.114 129.500,215.056 129.500 C 215.014 129.500,215.011 129.556,215.049 129.625 M156.881 129.875 C 156.159 130.820,155.778 131.383,155.920 131.297 C 156.117 131.178,157.224 129.667,157.114 129.667 C 157.074 129.667,156.969 129.760,156.881 129.875 M155.048 132.375 C 154.325 133.320,153.944 133.883,154.087 133.797 C 154.284 133.678,155.391 132.167,155.281 132.167 C 155.240 132.167,155.136 132.260,155.048 132.375 M183.083 132.833 C 182.941 133.108,182.862 133.333,182.908 133.333 C 182.954 133.333,183.108 133.108,183.250 132.833 C 183.392 132.558,183.471 132.333,183.425 132.333 C 183.379 132.333,183.226 132.558,183.083 132.833 M217.417 133.833 C 217.559 134.108,217.713 134.333,217.759 134.333 C 217.804 134.333,217.726 134.108,217.583 133.833 C 217.441 133.558,217.287 133.333,217.241 133.333 C 217.196 133.333,217.274 133.558,217.417 133.833 M182.417 134.000 C 182.274 134.275,182.196 134.500,182.241 134.500 C 182.287 134.500,182.441 134.275,182.583 134.000 C 182.726 133.725,182.804 133.500,182.759 133.500 C 182.713 133.500,182.559 133.725,182.417 134.000 M153.405 134.625 C 153.147 134.969,152.755 135.512,152.533 135.833 L 152.130 136.417 152.565 135.917 C 153.125 135.272,154.043 134.000,153.947 134.000 C 153.906 134.000,153.662 134.281,153.405 134.625 M218.413 135.583 C 218.760 136.225,219.121 136.825,219.215 136.917 C 219.309 137.008,219.101 136.558,218.754 135.917 C 218.406 135.275,218.045 134.675,217.952 134.583 C 217.858 134.492,218.066 134.942,218.413 135.583 M199.617 135.458 C 198.797 136.938,198.317 137.882,198.452 137.750 C 198.686 137.521,199.883 135.333,199.774 135.333 C 199.726 135.333,199.655 135.390,199.617 135.458 M200.583 136.000 C 200.726 136.275,200.879 136.500,200.925 136.500 C 200.971 136.500,200.892 136.275,200.750 136.000 C 200.608 135.725,200.454 135.500,200.408 135.500 C 200.362 135.500,200.441 135.725,200.583 136.000 M151.881 136.708 C 151.159 137.653,150.778 138.217,150.920 138.130 C 151.117 138.011,152.224 136.500,152.114 136.500 C 152.074 136.500,151.969 136.594,151.881 136.708 M201.250 137.167 C 201.392 137.442,201.546 137.667,201.592 137.667 C 201.638 137.667,201.559 137.442,201.417 137.167 C 201.274 136.892,201.121 136.667,201.075 136.667 C 201.029 136.667,201.108 136.892,201.250 137.167 M219.583 137.667 C 219.726 137.942,219.879 138.167,219.925 138.167 C 219.971 138.167,219.892 137.942,219.750 137.667 C 219.608 137.392,219.454 137.167,219.408 137.167 C 219.362 137.167,219.441 137.392,219.583 137.667 M180.250 137.833 C 180.108 138.108,180.029 138.333,180.075 138.333 C 180.121 138.333,180.274 138.108,180.417 137.833 C 180.559 137.558,180.638 137.333,180.592 137.333 C 180.546 137.333,180.392 137.558,180.250 137.833 M202.246 138.917 C 202.594 139.558,202.955 140.158,203.048 140.250 C 203.142 140.342,202.934 139.892,202.587 139.250 C 202.240 138.608,201.879 138.008,201.785 137.917 C 201.691 137.825,201.899 138.275,202.246 138.917 M197.917 138.500 C 197.774 138.775,197.696 139.000,197.741 139.000 C 197.787 139.000,197.941 138.775,198.083 138.500 C 198.226 138.225,198.304 138.000,198.259 138.000 C 198.213 138.000,198.059 138.225,197.917 138.500 M220.250 138.833 C 220.392 139.108,220.546 139.333,220.592 139.333 C 220.638 139.333,220.559 139.108,220.417 138.833 C 220.274 138.558,220.121 138.333,220.075 138.333 C 220.029 138.333,220.108 138.558,220.250 138.833 M179.583 139.000 C 179.441 139.275,179.362 139.500,179.408 139.500 C 179.454 139.500,179.608 139.275,179.750 139.000 C 179.892 138.725,179.971 138.500,179.925 138.500 C 179.879 138.500,179.726 138.725,179.583 139.000 M150.048 139.208 C 149.325 140.153,148.944 140.717,149.087 140.630 C 149.284 140.511,150.391 139.000,150.281 139.000 C 150.240 139.000,150.136 139.094,150.048 139.208 M197.250 139.667 C 197.108 139.942,197.029 140.167,197.075 140.167 C 197.121 140.167,197.274 139.942,197.417 139.667 C 197.559 139.392,197.638 139.167,197.592 139.167 C 197.546 139.167,197.392 139.392,197.250 139.667 M220.716 139.625 C 221.645 141.321,222.720 143.167,222.777 143.167 C 222.819 143.167,222.822 143.110,222.784 143.042 C 221.855 141.345,220.780 139.500,220.723 139.500 C 220.681 139.500,220.678 139.556,220.716 139.625 M178.917 140.167 C 178.774 140.442,178.696 140.667,178.741 140.667 C 178.787 140.667,178.941 140.442,179.083 140.167 C 179.226 139.892,179.304 139.667,179.259 139.667 C 179.213 139.667,179.059 139.892,178.917 140.167 M196.784 140.458 C 195.964 141.938,195.484 142.882,195.618 142.750 C 195.853 142.521,197.050 140.333,196.941 140.333 C 196.893 140.333,196.822 140.390,196.784 140.458 M203.417 141.000 C 203.559 141.275,203.713 141.500,203.759 141.500 C 203.804 141.500,203.726 141.275,203.583 141.000 C 203.441 140.725,203.287 140.500,203.241 140.500 C 203.196 140.500,203.274 140.725,203.417 141.000 M148.405 141.458 C 148.147 141.802,147.755 142.346,147.533 142.667 L 147.130 143.250 147.565 142.750 C 148.125 142.106,149.043 140.833,148.947 140.833 C 148.906 140.833,148.662 141.115,148.405 141.458 M204.083 142.167 C 204.226 142.442,204.379 142.667,204.425 142.667 C 204.471 142.667,204.392 142.442,204.250 142.167 C 204.108 141.892,203.954 141.667,203.908 141.667 C 203.862 141.667,203.941 141.892,204.083 142.167 M177.417 142.833 C 177.274 143.108,177.196 143.333,177.241 143.333 C 177.287 143.333,177.441 143.108,177.583 142.833 C 177.726 142.558,177.804 142.333,177.759 142.333 C 177.713 142.333,177.559 142.558,177.417 142.833 M205.080 143.917 C 205.427 144.558,205.788 145.158,205.882 145.250 C 205.975 145.342,205.768 144.892,205.420 144.250 C 205.073 143.608,204.712 143.008,204.618 142.917 C 204.525 142.825,204.732 143.275,205.080 143.917 M195.083 143.500 C 194.941 143.775,194.862 144.000,194.908 144.000 C 194.954 144.000,195.108 143.775,195.250 143.500 C 195.392 143.225,195.471 143.000,195.425 143.000 C 195.379 143.000,195.226 143.225,195.083 143.500 M146.571 143.958 C 146.314 144.302,145.922 144.846,145.700 145.167 L 145.296 145.750 145.731 145.250 C 146.292 144.606,147.209 143.333,147.113 143.333 C 147.073 143.333,146.829 143.615,146.571 143.958 M223.083 143.833 C 223.226 144.108,223.379 144.333,223.425 144.333 C 223.471 144.333,223.392 144.108,223.250 143.833 C 223.108 143.558,222.954 143.333,222.908 143.333 C 222.862 143.333,222.941 143.558,223.083 143.833 M176.750 144.000 C 176.608 144.275,176.529 144.500,176.575 144.500 C 176.621 144.500,176.774 144.275,176.917 144.000 C 177.059 143.725,177.138 143.500,177.092 143.500 C 177.046 143.500,176.892 143.725,176.750 144.000 M194.417 144.667 C 194.274 144.942,194.196 145.167,194.241 145.167 C 194.287 145.167,194.441 144.942,194.583 144.667 C 194.726 144.392,194.804 144.167,194.759 144.167 C 194.713 144.167,194.559 144.392,194.417 144.667 M223.549 144.625 C 224.479 146.321,225.553 148.167,225.611 148.167 C 225.652 148.167,225.656 148.110,225.618 148.042 C 224.688 146.345,223.614 144.500,223.556 144.500 C 223.514 144.500,223.511 144.556,223.549 144.625 M193.950 145.458 C 193.130 146.938,192.650 147.882,192.785 147.750 C 193.019 147.521,194.216 145.333,194.108 145.333 C 194.059 145.333,193.988 145.390,193.950 145.458 M206.250 146.000 C 206.392 146.275,206.546 146.500,206.592 146.500 C 206.638 146.500,206.559 146.275,206.417 146.000 C 206.274 145.725,206.121 145.500,206.075 145.500 C 206.029 145.500,206.108 145.725,206.250 146.000 M206.917 147.167 C 207.059 147.442,207.213 147.667,207.259 147.667 C 207.304 147.667,207.226 147.442,207.083 147.167 C 206.941 146.892,206.787 146.667,206.741 146.667 C 206.696 146.667,206.774 146.892,206.917 147.167 M174.583 147.833 C 174.441 148.108,174.362 148.333,174.408 148.333 C 174.454 148.333,174.608 148.108,174.750 147.833 C 174.892 147.558,174.971 147.333,174.925 147.333 C 174.879 147.333,174.726 147.558,174.583 147.833 M254.762 147.929 C 254.701 148.173,254.683 148.405,254.722 148.444 C 254.761 148.483,254.843 148.316,254.905 148.071 C 254.966 147.827,254.984 147.595,254.945 147.556 C 254.906 147.517,254.823 147.684,254.762 147.929 M207.913 148.917 C 208.260 149.558,208.621 150.158,208.715 150.250 C 208.809 150.342,208.601 149.892,208.254 149.250 C 207.906 148.608,207.545 148.008,207.452 147.917 C 207.358 147.825,207.566 148.275,207.913 148.917 M192.250 148.500 C 192.108 148.775,192.029 149.000,192.075 149.000 C 192.121 149.000,192.274 148.775,192.417 148.500 C 192.559 148.225,192.638 148.000,192.592 148.000 C 192.546 148.000,192.392 148.225,192.250 148.500 M225.917 148.833 C 226.059 149.108,226.213 149.333,226.259 149.333 C 226.304 149.333,226.226 149.108,226.083 148.833 C 225.941 148.558,225.787 148.333,225.741 148.333 C 225.696 148.333,225.774 148.558,225.917 148.833 M173.917 149.000 C 173.774 149.275,173.696 149.500,173.741 149.500 C 173.787 149.500,173.941 149.275,174.083 149.000 C 174.226 148.725,174.304 148.500,174.259 148.500 C 174.213 148.500,174.059 148.725,173.917 149.000 M191.583 149.667 C 191.441 149.942,191.362 150.167,191.408 150.167 C 191.454 150.167,191.608 149.942,191.750 149.667 C 191.892 149.392,191.971 149.167,191.925 149.167 C 191.879 149.167,191.726 149.392,191.583 149.667 M226.382 149.625 C 227.312 151.321,228.386 153.167,228.444 153.167 C 228.486 153.167,228.489 153.110,228.451 153.042 C 227.521 151.345,226.447 149.500,226.389 149.500 C 226.348 149.500,226.344 149.556,226.382 149.625 M173.250 150.167 C 173.108 150.442,173.029 150.667,173.075 150.667 C 173.121 150.667,173.274 150.442,173.417 150.167 C 173.559 149.892,173.638 149.667,173.592 149.667 C 173.546 149.667,173.392 149.892,173.250 150.167 M191.117 150.458 C 190.297 151.938,189.817 152.882,189.952 152.750 C 190.186 152.521,191.383 150.333,191.274 150.333 C 191.226 150.333,191.155 150.390,191.117 150.458 M209.083 151.000 C 209.226 151.275,209.379 151.500,209.425 151.500 C 209.471 151.500,209.392 151.275,209.250 151.000 C 209.108 150.725,208.954 150.500,208.908 150.500 C 208.862 150.500,208.941 150.725,209.083 151.000 M253.595 151.595 C 253.534 151.839,253.516 152.071,253.555 152.111 C 253.594 152.150,253.677 151.982,253.738 151.738 C 253.799 151.494,253.817 151.262,253.778 151.223 C 253.739 151.183,253.657 151.351,253.595 151.595 M209.750 152.167 C 209.892 152.442,210.046 152.667,210.092 152.667 C 210.138 152.667,210.059 152.442,209.917 152.167 C 209.774 151.892,209.621 151.667,209.575 151.667 C 209.529 151.667,209.608 151.892,209.750 152.167 M171.750 152.833 C 171.608 153.108,171.529 153.333,171.575 153.333 C 171.621 153.333,171.774 153.108,171.917 152.833 C 172.059 152.558,172.138 152.333,172.092 152.333 C 172.046 152.333,171.892 152.558,171.750 152.833 M210.746 153.917 C 211.094 154.558,211.455 155.158,211.548 155.250 C 211.642 155.342,211.434 154.892,211.087 154.250 C 210.740 153.608,210.379 153.008,210.285 152.917 C 210.191 152.825,210.399 153.275,210.746 153.917 M189.417 153.500 C 189.274 153.775,189.196 154.000,189.241 154.000 C 189.287 154.000,189.441 153.775,189.583 153.500 C 189.726 153.225,189.804 153.000,189.759 153.000 C 189.713 153.000,189.559 153.225,189.417 153.500 M228.750 153.833 C 228.892 154.108,229.046 154.333,229.092 154.333 C 229.138 154.333,229.059 154.108,228.917 153.833 C 228.774 153.558,228.621 153.333,228.575 153.333 C 228.529 153.333,228.608 153.558,228.750 153.833 M171.083 154.000 C 170.941 154.275,170.862 154.500,170.908 154.500 C 170.954 154.500,171.108 154.275,171.250 154.000 C 171.392 153.725,171.471 153.500,171.425 153.500 C 171.379 153.500,171.226 153.725,171.083 154.000 M188.750 154.667 C 188.608 154.942,188.529 155.167,188.575 155.167 C 188.621 155.167,188.774 154.942,188.917 154.667 C 189.059 154.392,189.138 154.167,189.092 154.167 C 189.046 154.167,188.892 154.392,188.750 154.667 M229.216 154.625 C 230.145 156.321,231.220 158.167,231.277 158.167 C 231.319 158.167,231.322 158.110,231.284 158.042 C 230.355 156.345,229.280 154.500,229.223 154.500 C 229.181 154.500,229.178 154.556,229.216 154.625 M252.429 155.262 C 252.367 155.506,252.349 155.738,252.389 155.777 C 252.428 155.817,252.510 155.649,252.571 155.405 C 252.633 155.161,252.651 154.929,252.611 154.889 C 252.572 154.850,252.490 155.018,252.429 155.262 M188.284 155.458 C 187.464 156.938,186.984 157.882,187.118 157.750 C 187.353 157.521,188.550 155.333,188.441 155.333 C 188.393 155.333,188.322 155.390,188.284 155.458 M211.917 156.000 C 212.059 156.275,212.213 156.500,212.259 156.500 C 212.304 156.500,212.226 156.275,212.083 156.000 C 211.941 155.725,211.787 155.500,211.741 155.500 C 211.696 155.500,211.774 155.725,211.917 156.000 M212.583 157.167 C 212.726 157.442,212.879 157.667,212.925 157.667 C 212.971 157.667,212.892 157.442,212.750 157.167 C 212.608 156.892,212.454 156.667,212.408 156.667 C 212.362 156.667,212.441 156.892,212.583 157.167 M168.917 157.833 C 168.774 158.108,168.696 158.333,168.741 158.333 C 168.787 158.333,168.941 158.108,169.083 157.833 C 169.226 157.558,169.304 157.333,169.259 157.333 C 169.213 157.333,169.059 157.558,168.917 157.833 M213.580 158.917 C 213.927 159.558,214.288 160.158,214.382 160.250 C 214.475 160.342,214.268 159.892,213.920 159.250 C 213.573 158.608,213.212 158.008,213.118 157.917 C 213.025 157.825,213.232 158.275,213.580 158.917 M186.583 158.500 C 186.441 158.775,186.362 159.000,186.408 159.000 C 186.454 159.000,186.608 158.775,186.750 158.500 C 186.892 158.225,186.971 158.000,186.925 158.000 C 186.879 158.000,186.726 158.225,186.583 158.500 M231.583 158.833 C 231.726 159.108,231.879 159.333,231.925 159.333 C 231.971 159.333,231.892 159.108,231.750 158.833 C 231.608 158.558,231.454 158.333,231.408 158.333 C 231.362 158.333,231.441 158.558,231.583 158.833 M168.250 159.000 C 168.108 159.275,168.029 159.500,168.075 159.500 C 168.121 159.500,168.274 159.275,168.417 159.000 C 168.559 158.725,168.638 158.500,168.592 158.500 C 168.546 158.500,168.392 158.725,168.250 159.000 M251.262 158.929 C 251.201 159.173,251.183 159.405,251.222 159.444 C 251.261 159.483,251.343 159.316,251.405 159.071 C 251.466 158.827,251.484 158.595,251.445 158.556 C 251.406 158.517,251.323 158.684,251.262 158.929 M185.917 159.667 C 185.774 159.942,185.696 160.167,185.741 160.167 C 185.787 160.167,185.941 159.942,186.083 159.667 C 186.226 159.392,186.304 159.167,186.259 159.167 C 186.213 159.167,186.059 159.392,185.917 159.667 M232.049 159.625 C 232.979 161.321,234.053 163.167,234.111 163.167 C 234.152 163.167,234.156 163.110,234.118 163.042 C 233.188 161.345,232.114 159.500,232.056 159.500 C 232.014 159.500,232.011 159.556,232.049 159.625 M185.450 160.458 C 184.630 161.938,184.150 162.882,184.285 162.750 C 184.519 162.521,185.716 160.333,185.608 160.333 C 185.559 160.333,185.488 160.390,185.450 160.458 M214.750 161.000 C 214.892 161.275,215.046 161.500,215.092 161.500 C 215.138 161.500,215.059 161.275,214.917 161.000 C 214.774 160.725,214.621 160.500,214.575 160.500 C 214.529 160.500,214.608 160.725,214.750 161.000 M215.417 162.167 C 215.559 162.442,215.713 162.667,215.759 162.667 C 215.804 162.667,215.726 162.442,215.583 162.167 C 215.441 161.892,215.287 161.667,215.241 161.667 C 215.196 161.667,215.274 161.892,215.417 162.167 M250.095 162.595 C 250.034 162.839,250.016 163.071,250.055 163.111 C 250.094 163.150,250.177 162.982,250.238 162.738 C 250.299 162.494,250.317 162.262,250.278 162.223 C 250.239 162.183,250.157 162.351,250.095 162.595 M166.083 162.833 C 165.941 163.108,165.862 163.333,165.908 163.333 C 165.954 163.333,166.108 163.108,166.250 162.833 C 166.392 162.558,166.471 162.333,166.425 162.333 C 166.379 162.333,166.226 162.558,166.083 162.833 M216.413 163.917 C 216.760 164.558,217.121 165.158,217.215 165.250 C 217.309 165.342,217.101 164.892,216.754 164.250 C 216.406 163.608,216.045 163.008,215.952 162.917 C 215.858 162.825,216.066 163.275,216.413 163.917 M183.750 163.500 C 183.608 163.775,183.529 164.000,183.575 164.000 C 183.621 164.000,183.774 163.775,183.917 163.500 C 184.059 163.225,184.138 163.000,184.092 163.000 C 184.046 163.000,183.892 163.225,183.750 163.500 M234.417 163.833 C 234.559 164.108,234.713 164.333,234.759 164.333 C 234.804 164.333,234.726 164.108,234.583 163.833 C 234.441 163.558,234.287 163.333,234.241 163.333 C 234.196 163.333,234.274 163.558,234.417 163.833 M165.417 164.000 C 165.274 164.275,165.196 164.500,165.241 164.500 C 165.287 164.500,165.441 164.275,165.583 164.000 C 165.726 163.725,165.804 163.500,165.759 163.500 C 165.713 163.500,165.559 163.725,165.417 164.000 M183.083 164.667 C 182.941 164.942,182.862 165.167,182.908 165.167 C 182.954 165.167,183.108 164.942,183.250 164.667 C 183.392 164.392,183.471 164.167,183.425 164.167 C 183.379 164.167,183.226 164.392,183.083 164.667 M234.882 164.625 C 235.812 166.321,236.886 168.167,236.944 168.167 C 236.986 168.167,236.989 168.110,236.951 168.042 C 236.021 166.345,234.947 164.500,234.889 164.500 C 234.848 164.500,234.844 164.556,234.882 164.625 M182.617 165.458 C 181.797 166.938,181.317 167.882,181.452 167.750 C 181.686 167.521,182.883 165.333,182.774 165.333 C 182.726 165.333,182.655 165.390,182.617 165.458 M217.583 166.000 C 217.726 166.275,217.879 166.500,217.925 166.500 C 217.971 166.500,217.892 166.275,217.750 166.000 C 217.608 165.725,217.454 165.500,217.408 165.500 C 217.362 165.500,217.441 165.725,217.583 166.000 M248.848 166.515 C 248.736 166.891,248.674 167.230,248.712 167.267 C 248.749 167.305,248.872 167.028,248.985 166.652 C 249.098 166.275,249.159 165.937,249.122 165.899 C 249.084 165.862,248.961 166.139,248.848 166.515 M218.250 167.167 C 218.392 167.442,218.546 167.667,218.592 167.667 C 218.638 167.667,218.559 167.442,218.417 167.167 C 218.274 166.892,218.121 166.667,218.075 166.667 C 218.029 166.667,218.108 166.892,218.250 167.167 M163.250 167.833 C 163.108 168.108,163.029 168.333,163.075 168.333 C 163.121 168.333,163.274 168.108,163.417 167.833 C 163.559 167.558,163.638 167.333,163.592 167.333 C 163.546 167.333,163.392 167.558,163.250 167.833 M219.246 168.917 C 219.594 169.558,219.955 170.158,220.048 170.250 C 220.142 170.342,219.934 169.892,219.587 169.250 C 219.240 168.608,218.879 168.008,218.785 167.917 C 218.691 167.825,218.899 168.275,219.246 168.917 M180.917 168.500 C 180.774 168.775,180.696 169.000,180.741 169.000 C 180.787 169.000,180.941 168.775,181.083 168.500 C 181.226 168.225,181.304 168.000,181.259 168.000 C 181.213 168.000,181.059 168.225,180.917 168.500 M237.250 168.833 C 237.392 169.108,237.546 169.333,237.592 169.333 C 237.638 169.333,237.559 169.108,237.417 168.833 C 237.274 168.558,237.121 168.333,237.075 168.333 C 237.029 168.333,237.108 168.558,237.250 168.833 M162.583 169.000 C 162.441 169.275,162.362 169.500,162.408 169.500 C 162.454 169.500,162.608 169.275,162.750 169.000 C 162.892 168.725,162.971 168.500,162.925 168.500 C 162.879 168.500,162.726 168.725,162.583 169.000 M180.250 169.667 C 180.108 169.942,180.029 170.167,180.075 170.167 C 180.121 170.167,180.274 169.942,180.417 169.667 C 180.559 169.392,180.638 169.167,180.592 169.167 C 180.546 169.167,180.392 169.392,180.250 169.667 M237.716 169.625 C 238.645 171.321,239.720 173.167,239.777 173.167 C 239.819 173.167,239.822 173.110,239.784 173.042 C 238.855 171.345,237.780 169.500,237.723 169.500 C 237.681 169.500,237.678 169.556,237.716 169.625 M247.595 170.429 C 247.534 170.673,247.516 170.905,247.555 170.944 C 247.594 170.983,247.677 170.816,247.738 170.571 C 247.799 170.327,247.817 170.095,247.778 170.056 C 247.739 170.017,247.657 170.184,247.595 170.429 M179.784 170.458 C 178.964 171.938,178.484 172.882,178.618 172.750 C 178.853 172.521,180.050 170.333,179.941 170.333 C 179.893 170.333,179.822 170.390,179.784 170.458 M220.417 171.000 C 220.559 171.275,220.713 171.500,220.759 171.500 C 220.804 171.500,220.726 171.275,220.583 171.000 C 220.441 170.725,220.287 170.500,220.241 170.500 C 220.196 170.500,220.274 170.725,220.417 171.000 M221.083 172.167 C 221.226 172.442,221.379 172.667,221.425 172.667 C 221.471 172.667,221.392 172.442,221.250 172.167 C 221.108 171.892,220.954 171.667,220.908 171.667 C 220.862 171.667,220.941 171.892,221.083 172.167 M160.417 172.833 C 160.274 173.108,160.196 173.333,160.241 173.333 C 160.287 173.333,160.441 173.108,160.583 172.833 C 160.726 172.558,160.804 172.333,160.759 172.333 C 160.713 172.333,160.559 172.558,160.417 172.833 M222.080 173.917 C 222.427 174.558,222.788 175.158,222.882 175.250 C 222.975 175.342,222.768 174.892,222.420 174.250 C 222.073 173.608,221.712 173.008,221.618 172.917 C 221.525 172.825,221.732 173.275,222.080 173.917 M178.083 173.500 C 177.941 173.775,177.862 174.000,177.908 174.000 C 177.954 174.000,178.108 173.775,178.250 173.500 C 178.392 173.225,178.471 173.000,178.425 173.000 C 178.379 173.000,178.226 173.225,178.083 173.500 M240.083 173.833 C 240.226 174.108,240.379 174.333,240.425 174.333 C 240.471 174.333,240.392 174.108,240.250 173.833 C 240.108 173.558,239.954 173.333,239.908 173.333 C 239.862 173.333,239.941 173.558,240.083 173.833 M159.750 174.000 C 159.608 174.275,159.529 174.500,159.575 174.500 C 159.621 174.500,159.774 174.275,159.917 174.000 C 160.059 173.725,160.138 173.500,160.092 173.500 C 160.046 173.500,159.892 173.725,159.750 174.000 M246.429 174.095 C 246.367 174.339,246.349 174.571,246.389 174.611 C 246.428 174.650,246.510 174.482,246.571 174.238 C 246.633 173.994,246.651 173.762,246.611 173.723 C 246.572 173.683,246.490 173.851,246.429 174.095 M177.417 174.667 C 177.274 174.942,177.196 175.167,177.241 175.167 C 177.287 175.167,177.441 174.942,177.583 174.667 C 177.726 174.392,177.804 174.167,177.759 174.167 C 177.713 174.167,177.559 174.392,177.417 174.667 M240.549 174.625 C 241.479 176.321,242.553 178.167,242.611 178.167 C 242.652 178.167,242.656 178.110,242.618 178.042 C 241.688 176.345,240.614 174.500,240.556 174.500 C 240.514 174.500,240.511 174.556,240.549 174.625 M176.950 175.458 C 176.130 176.938,175.650 177.882,175.785 177.750 C 176.019 177.521,177.216 175.333,177.108 175.333 C 177.059 175.333,176.988 175.390,176.950 175.458 M223.250 176.000 C 223.392 176.275,223.546 176.500,223.592 176.500 C 223.638 176.500,223.559 176.275,223.417 176.000 C 223.274 175.725,223.121 175.500,223.075 175.500 C 223.029 175.500,223.108 175.725,223.250 176.000 M223.917 177.167 C 224.059 177.442,224.213 177.667,224.259 177.667 C 224.304 177.667,224.226 177.442,224.083 177.167 C 223.941 176.892,223.787 176.667,223.741 176.667 C 223.696 176.667,223.774 176.892,223.917 177.167 M261.929 177.262 C 261.867 177.506,261.849 177.738,261.889 177.777 C 261.928 177.817,262.010 177.649,262.071 177.405 C 262.133 177.161,262.151 176.929,262.111 176.889 C 262.072 176.850,261.990 177.018,261.929 177.262 M157.583 177.833 C 157.441 178.108,157.362 178.333,157.408 178.333 C 157.454 178.333,157.608 178.108,157.750 177.833 C 157.892 177.558,157.971 177.333,157.925 177.333 C 157.879 177.333,157.726 177.558,157.583 177.833 M245.262 177.762 C 245.201 178.006,245.183 178.238,245.222 178.277 C 245.261 178.317,245.343 178.149,245.405 177.905 C 245.466 177.661,245.484 177.429,245.445 177.389 C 245.406 177.350,245.323 177.518,245.262 177.762 M224.913 178.917 C 225.260 179.558,225.621 180.158,225.715 180.250 C 225.809 180.342,225.601 179.892,225.254 179.250 C 224.906 178.608,224.545 178.008,224.452 177.917 C 224.358 177.825,224.566 178.275,224.913 178.917 M175.250 178.500 C 175.108 178.775,175.029 179.000,175.075 179.000 C 175.121 179.000,175.274 178.775,175.417 178.500 C 175.559 178.225,175.638 178.000,175.592 178.000 C 175.546 178.000,175.392 178.225,175.250 178.500 M242.917 178.833 C 243.059 179.108,243.213 179.333,243.259 179.333 C 243.304 179.333,243.226 179.108,243.083 178.833 C 242.941 178.558,242.787 178.333,242.741 178.333 C 242.696 178.333,242.774 178.558,242.917 178.833 M156.917 179.000 C 156.774 179.275,156.696 179.500,156.741 179.500 C 156.787 179.500,156.941 179.275,157.083 179.000 C 157.226 178.725,157.304 178.500,157.259 178.500 C 157.213 178.500,157.059 178.725,156.917 179.000 M138.523 178.833 C 138.523 178.971,138.588 179.233,138.667 179.417 C 138.757 179.627,138.810 179.658,138.810 179.500 C 138.810 179.362,138.745 179.100,138.667 178.917 C 138.576 178.707,138.523 178.676,138.523 178.833 M174.583 179.667 C 174.441 179.942,174.362 180.167,174.408 180.167 C 174.454 180.167,174.608 179.942,174.750 179.667 C 174.892 179.392,174.971 179.167,174.925 179.167 C 174.879 179.167,174.726 179.392,174.583 179.667 M243.667 180.167 C 243.854 180.533,244.044 180.833,244.090 180.833 C 244.136 180.833,244.020 180.533,243.833 180.167 C 243.646 179.800,243.456 179.500,243.410 179.500 C 243.364 179.500,243.480 179.800,243.667 180.167 M174.117 180.458 C 173.297 181.938,172.817 182.882,172.952 182.750 C 173.186 182.521,174.383 180.333,174.274 180.333 C 174.226 180.333,174.155 180.390,174.117 180.458 M226.083 181.000 C 226.226 181.275,226.379 181.500,226.425 181.500 C 226.471 181.500,226.392 181.275,226.250 181.000 C 226.108 180.725,225.954 180.500,225.908 180.500 C 225.862 180.500,225.941 180.725,226.083 181.000 M260.762 180.929 C 260.701 181.173,260.683 181.405,260.722 181.444 C 260.761 181.483,260.843 181.316,260.905 181.071 C 260.966 180.827,260.984 180.595,260.945 180.556 C 260.906 180.517,260.823 180.684,260.762 180.929 M226.750 182.167 C 226.892 182.442,227.046 182.667,227.092 182.667 C 227.138 182.667,227.059 182.442,226.917 182.167 C 226.774 181.892,226.621 181.667,226.575 181.667 C 226.529 181.667,226.608 181.892,226.750 182.167 M139.690 182.500 C 139.690 182.637,139.755 182.900,139.833 183.083 C 139.924 183.293,139.977 183.324,139.977 183.167 C 139.977 183.029,139.912 182.767,139.833 182.583 C 139.743 182.373,139.690 182.342,139.690 182.500 M227.746 183.917 C 228.094 184.558,228.455 185.158,228.548 185.250 C 228.642 185.342,228.434 184.892,228.087 184.250 C 227.740 183.608,227.379 183.008,227.285 182.917 C 227.191 182.825,227.399 183.275,227.746 183.917 M172.417 183.500 C 172.274 183.775,172.196 184.000,172.241 184.000 C 172.287 184.000,172.441 183.775,172.583 183.500 C 172.726 183.225,172.804 183.000,172.759 183.000 C 172.713 183.000,172.559 183.225,172.417 183.500 M171.750 184.667 C 171.608 184.942,171.529 185.167,171.575 185.167 C 171.621 185.167,171.774 184.942,171.917 184.667 C 172.059 184.392,172.138 184.167,172.092 184.167 C 172.046 184.167,171.892 184.392,171.750 184.667 M259.595 184.595 C 259.534 184.839,259.516 185.071,259.555 185.111 C 259.594 185.150,259.677 184.982,259.738 184.738 C 259.799 184.494,259.817 184.262,259.778 184.223 C 259.739 184.183,259.657 184.351,259.595 184.595 M171.284 185.458 C 170.464 186.938,169.984 187.882,170.118 187.750 C 170.353 187.521,171.550 185.333,171.441 185.333 C 171.393 185.333,171.322 185.390,171.284 185.458 M228.917 186.000 C 229.059 186.275,229.213 186.500,229.259 186.500 C 229.304 186.500,229.226 186.275,229.083 186.000 C 228.941 185.725,228.787 185.500,228.741 185.500 C 228.696 185.500,228.774 185.725,228.917 186.000 M229.583 187.167 C 229.726 187.442,229.879 187.667,229.925 187.667 C 229.971 187.667,229.892 187.442,229.750 187.167 C 229.608 186.892,229.454 186.667,229.408 186.667 C 229.362 186.667,229.441 186.892,229.583 187.167 M230.580 188.917 C 230.927 189.558,231.288 190.158,231.382 190.250 C 231.475 190.342,231.268 189.892,230.920 189.250 C 230.573 188.608,230.212 188.008,230.118 187.917 C 230.025 187.825,230.232 188.275,230.580 188.917 M258.429 188.262 C 258.367 188.506,258.349 188.738,258.389 188.777 C 258.428 188.817,258.510 188.649,258.571 188.405 C 258.633 188.161,258.651 187.929,258.611 187.889 C 258.572 187.850,258.490 188.018,258.429 188.262 M169.583 188.500 C 169.441 188.775,169.362 189.000,169.408 189.000 C 169.454 189.000,169.608 188.775,169.750 188.500 C 169.892 188.225,169.971 188.000,169.925 188.000 C 169.879 188.000,169.726 188.225,169.583 188.500 M168.917 189.667 C 168.774 189.942,168.696 190.167,168.741 190.167 C 168.787 190.167,168.941 189.942,169.083 189.667 C 169.226 189.392,169.304 189.167,169.259 189.167 C 169.213 189.167,169.059 189.392,168.917 189.667 M168.450 190.458 C 167.630 191.938,167.150 192.882,167.285 192.750 C 167.519 192.521,168.716 190.333,168.608 190.333 C 168.559 190.333,168.488 190.390,168.450 190.458 M231.750 191.000 C 231.892 191.275,232.046 191.500,232.092 191.500 C 232.138 191.500,232.059 191.275,231.917 191.000 C 231.774 190.725,231.621 190.500,231.575 190.500 C 231.529 190.500,231.608 190.725,231.750 191.000 M232.417 192.167 C 232.559 192.442,232.713 192.667,232.759 192.667 C 232.804 192.667,232.726 192.442,232.583 192.167 C 232.441 191.892,232.287 191.667,232.241 191.667 C 232.196 191.667,232.274 191.892,232.417 192.167 M233.413 193.917 C 233.760 194.558,234.121 195.158,234.215 195.250 C 234.309 195.342,234.101 194.892,233.754 194.250 C 233.406 193.608,233.045 193.008,232.952 192.917 C 232.858 192.825,233.066 193.275,233.413 193.917 M166.750 193.500 C 166.608 193.775,166.529 194.000,166.575 194.000 C 166.621 194.000,166.774 193.775,166.917 193.500 C 167.059 193.225,167.138 193.000,167.092 193.000 C 167.046 193.000,166.892 193.225,166.750 193.500 M166.083 194.667 C 165.941 194.942,165.862 195.167,165.908 195.167 C 165.954 195.167,166.108 194.942,166.250 194.667 C 166.392 194.392,166.471 194.167,166.425 194.167 C 166.379 194.167,166.226 194.392,166.083 194.667 M165.617 195.458 C 164.797 196.938,164.317 197.882,164.452 197.750 C 164.686 197.521,165.883 195.333,165.774 195.333 C 165.726 195.333,165.655 195.390,165.617 195.458 M234.583 196.000 C 234.726 196.275,234.879 196.500,234.925 196.500 C 234.971 196.500,234.892 196.275,234.750 196.000 C 234.608 195.725,234.454 195.500,234.408 195.500 C 234.362 195.500,234.441 195.725,234.583 196.000 M235.250 197.167 C 235.392 197.442,235.546 197.667,235.592 197.667 C 235.638 197.667,235.559 197.442,235.417 197.167 C 235.274 196.892,235.121 196.667,235.075 196.667 C 235.029 196.667,235.108 196.892,235.250 197.167 M236.246 198.917 C 236.594 199.558,236.955 200.158,237.048 200.250 C 237.142 200.342,236.934 199.892,236.587 199.250 C 236.240 198.608,235.879 198.008,235.785 197.917 C 235.691 197.825,235.899 198.275,236.246 198.917 M163.917 198.500 C 163.774 198.775,163.696 199.000,163.741 199.000 C 163.787 199.000,163.941 198.775,164.083 198.500 C 164.226 198.225,164.304 198.000,164.259 198.000 C 164.213 198.000,164.059 198.225,163.917 198.500 M163.250 199.667 C 163.108 199.942,163.029 200.167,163.075 200.167 C 163.121 200.167,163.274 199.942,163.417 199.667 C 163.559 199.392,163.638 199.167,163.592 199.167 C 163.546 199.167,163.392 199.392,163.250 199.667 M254.853 199.556 C 254.834 199.851,255.942 202.000,256.112 202.000 C 256.158 202.000,255.934 201.531,255.616 200.958 C 255.297 200.385,254.999 199.767,254.954 199.583 C 254.882 199.290,254.870 199.286,254.853 199.556 M162.575 200.849 C 162.429 201.132,162.338 201.394,162.375 201.430 C 162.411 201.466,162.565 201.234,162.717 200.915 C 163.060 200.196,162.941 200.141,162.575 200.849 M237.471 201.159 C 237.624 201.521,237.773 201.751,237.802 201.670 C 237.854 201.520,237.380 200.500,237.258 200.500 C 237.221 200.500,237.317 200.797,237.471 201.159 M144.250 201.333 C 144.108 201.608,144.029 201.833,144.075 201.833 C 144.121 201.833,144.274 201.608,144.417 201.333 C 144.559 201.058,144.638 200.833,144.592 200.833 C 144.546 200.833,144.392 201.058,144.250 201.333 M162.357 201.833 C 162.357 201.971,162.421 202.233,162.500 202.417 C 162.590 202.627,162.643 202.658,162.643 202.500 C 162.643 202.362,162.579 202.100,162.500 201.917 C 162.410 201.707,162.357 201.676,162.357 201.833 M143.500 202.667 C 143.313 203.033,143.197 203.333,143.243 203.333 C 143.289 203.333,143.480 203.033,143.667 202.667 C 143.854 202.300,143.969 202.000,143.923 202.000 C 143.878 202.000,143.687 202.300,143.500 202.667 M256.417 202.667 C 256.559 202.942,256.713 203.167,256.759 203.167 C 256.804 203.167,256.726 202.942,256.583 202.667 C 256.441 202.392,256.287 202.167,256.241 202.167 C 256.196 202.167,256.274 202.392,256.417 202.667 M257.083 203.833 C 257.226 204.108,257.379 204.333,257.425 204.333 C 257.471 204.333,257.392 204.108,257.250 203.833 C 257.108 203.558,256.954 203.333,256.908 203.333 C 256.862 203.333,256.941 203.558,257.083 203.833 M142.750 204.000 C 142.608 204.275,142.529 204.500,142.575 204.500 C 142.621 204.500,142.774 204.275,142.917 204.000 C 143.059 203.725,143.138 203.500,143.092 203.500 C 143.046 203.500,142.892 203.725,142.750 204.000 M236.929 203.929 C 236.867 204.173,236.849 204.405,236.889 204.444 C 236.928 204.483,237.010 204.316,237.071 204.071 C 237.133 203.827,237.151 203.595,237.111 203.556 C 237.072 203.517,236.990 203.684,236.929 203.929 M258.080 205.583 C 258.427 206.225,258.788 206.825,258.882 206.917 C 258.975 207.008,258.768 206.558,258.420 205.917 C 258.073 205.275,257.712 204.675,257.618 204.583 C 257.525 204.492,257.732 204.942,258.080 205.583 M142.083 205.167 C 141.941 205.442,141.862 205.667,141.908 205.667 C 141.954 205.667,142.108 205.442,142.250 205.167 C 142.392 204.892,142.471 204.667,142.425 204.667 C 142.379 204.667,142.226 204.892,142.083 205.167 M163.523 205.500 C 163.523 205.637,163.588 205.900,163.667 206.083 C 163.757 206.293,163.810 206.324,163.810 206.167 C 163.810 206.029,163.745 205.767,163.667 205.583 C 163.576 205.373,163.523 205.342,163.523 205.500 M141.417 206.333 C 141.274 206.608,141.196 206.833,141.241 206.833 C 141.287 206.833,141.441 206.608,141.583 206.333 C 141.726 206.058,141.804 205.833,141.759 205.833 C 141.713 205.833,141.559 206.058,141.417 206.333 M140.667 207.667 C 140.480 208.033,140.364 208.333,140.410 208.333 C 140.456 208.333,140.646 208.033,140.833 207.667 C 141.020 207.300,141.136 207.000,141.090 207.000 C 141.044 207.000,140.854 207.300,140.667 207.667 M235.762 207.595 C 235.701 207.839,235.683 208.071,235.722 208.111 C 235.761 208.150,235.843 207.982,235.905 207.738 C 235.966 207.494,235.984 207.262,235.945 207.223 C 235.906 207.183,235.823 207.351,235.762 207.595 M259.250 207.667 C 259.392 207.942,259.546 208.167,259.592 208.167 C 259.638 208.167,259.559 207.942,259.417 207.667 C 259.274 207.392,259.121 207.167,259.075 207.167 C 259.029 207.167,259.108 207.392,259.250 207.667 M259.917 208.833 C 260.059 209.108,260.213 209.333,260.259 209.333 C 260.304 209.333,260.226 209.108,260.083 208.833 C 259.941 208.558,259.787 208.333,259.741 208.333 C 259.696 208.333,259.774 208.558,259.917 208.833 M139.917 209.000 C 139.774 209.275,139.696 209.500,139.741 209.500 C 139.787 209.500,139.941 209.275,140.083 209.000 C 140.226 208.725,140.304 208.500,140.259 208.500 C 140.213 208.500,140.059 208.725,139.917 209.000 M164.690 209.167 C 164.690 209.304,164.755 209.567,164.833 209.750 C 164.924 209.960,164.977 209.991,164.977 209.833 C 164.977 209.696,164.912 209.433,164.833 209.250 C 164.743 209.040,164.690 209.009,164.690 209.167 M260.913 210.583 C 261.260 211.225,261.621 211.825,261.715 211.917 C 261.809 212.008,261.601 211.558,261.254 210.917 C 260.906 210.275,260.545 209.675,260.452 209.583 C 260.358 209.492,260.566 209.942,260.913 210.583 M139.250 210.167 C 139.108 210.442,139.029 210.667,139.075 210.667 C 139.121 210.667,139.274 210.442,139.417 210.167 C 139.559 209.892,139.638 209.667,139.592 209.667 C 139.546 209.667,139.392 209.892,139.250 210.167 M138.583 211.333 C 138.441 211.608,138.362 211.833,138.408 211.833 C 138.454 211.833,138.608 211.608,138.750 211.333 C 138.892 211.058,138.971 210.833,138.925 210.833 C 138.879 210.833,138.726 211.058,138.583 211.333 M234.595 211.262 C 234.534 211.506,234.516 211.738,234.555 211.777 C 234.594 211.817,234.677 211.649,234.738 211.405 C 234.799 211.161,234.817 210.929,234.778 210.889 C 234.739 210.850,234.657 211.018,234.595 211.262 M137.833 212.667 C 137.646 213.033,137.531 213.333,137.577 213.333 C 137.622 213.333,137.813 213.033,138.000 212.667 C 138.187 212.300,138.303 212.000,138.257 212.000 C 138.211 212.000,138.020 212.300,137.833 212.667 M262.083 212.667 C 262.226 212.942,262.379 213.167,262.425 213.167 C 262.471 213.167,262.392 212.942,262.250 212.667 C 262.108 212.392,261.954 212.167,261.908 212.167 C 261.862 212.167,261.941 212.392,262.083 212.667 M165.857 212.833 C 165.857 212.971,165.921 213.233,166.000 213.417 C 166.090 213.627,166.143 213.658,166.143 213.500 C 166.143 213.362,166.079 213.100,166.000 212.917 C 165.910 212.707,165.857 212.676,165.857 212.833 M262.750 213.833 C 262.892 214.108,263.046 214.333,263.092 214.333 C 263.138 214.333,263.059 214.108,262.917 213.833 C 262.774 213.558,262.621 213.333,262.575 213.333 C 262.529 213.333,262.608 213.558,262.750 213.833 M137.083 214.000 C 136.941 214.275,136.862 214.500,136.908 214.500 C 136.954 214.500,137.108 214.275,137.250 214.000 C 137.392 213.725,137.471 213.500,137.425 213.500 C 137.379 213.500,137.226 213.725,137.083 214.000 M233.429 214.929 C 233.367 215.173,233.349 215.405,233.389 215.444 C 233.428 215.483,233.510 215.316,233.571 215.071 C 233.633 214.827,233.651 214.595,233.611 214.556 C 233.572 214.517,233.490 214.684,233.429 214.929 M263.746 215.583 C 264.094 216.225,264.455 216.825,264.548 216.917 C 264.642 217.008,264.434 216.558,264.087 215.917 C 263.740 215.275,263.379 214.675,263.285 214.583 C 263.191 214.492,263.399 214.942,263.746 215.583 M136.417 215.167 C 136.274 215.442,136.196 215.667,136.241 215.667 C 136.287 215.667,136.441 215.442,136.583 215.167 C 136.726 214.892,136.804 214.667,136.759 214.667 C 136.713 214.667,136.559 214.892,136.417 215.167 M135.750 216.333 C 135.608 216.608,135.529 216.833,135.575 216.833 C 135.621 216.833,135.774 216.608,135.917 216.333 C 136.059 216.058,136.138 215.833,136.092 215.833 C 136.046 215.833,135.892 216.058,135.750 216.333 M167.023 216.500 C 167.023 216.637,167.088 216.900,167.167 217.083 C 167.257 217.293,167.310 217.324,167.310 217.167 C 167.310 217.029,167.245 216.767,167.167 216.583 C 167.076 216.373,167.023 216.342,167.023 216.500 M135.000 217.667 C 134.813 218.033,134.697 218.333,134.743 218.333 C 134.789 218.333,134.980 218.033,135.167 217.667 C 135.354 217.300,135.469 217.000,135.423 217.000 C 135.378 217.000,135.187 217.300,135.000 217.667 M264.917 217.667 C 265.059 217.942,265.213 218.167,265.259 218.167 C 265.304 218.167,265.226 217.942,265.083 217.667 C 264.941 217.392,264.787 217.167,264.741 217.167 C 264.696 217.167,264.774 217.392,264.917 217.667 M232.262 218.595 C 232.201 218.839,232.183 219.071,232.222 219.111 C 232.261 219.150,232.343 218.982,232.405 218.738 C 232.466 218.494,232.484 218.262,232.445 218.223 C 232.406 218.183,232.323 218.351,232.262 218.595 M265.583 218.833 C 265.726 219.108,265.879 219.333,265.925 219.333 C 265.971 219.333,265.892 219.108,265.750 218.833 C 265.608 218.558,265.454 218.333,265.408 218.333 C 265.362 218.333,265.441 218.558,265.583 218.833 M134.250 219.000 C 134.108 219.275,134.029 219.500,134.075 219.500 C 134.121 219.500,134.274 219.275,134.417 219.000 C 134.559 218.725,134.638 218.500,134.592 218.500 C 134.546 218.500,134.392 218.725,134.250 219.000 M266.580 220.583 C 266.927 221.225,267.288 221.825,267.382 221.917 C 267.475 222.008,267.268 221.558,266.920 220.917 C 266.573 220.275,266.212 219.675,266.118 219.583 C 266.025 219.492,266.232 219.942,266.580 220.583 M133.583 220.167 C 133.441 220.442,133.362 220.667,133.408 220.667 C 133.454 220.667,133.608 220.442,133.750 220.167 C 133.892 219.892,133.971 219.667,133.925 219.667 C 133.879 219.667,133.726 219.892,133.583 220.167 M168.190 220.167 C 168.190 220.304,168.255 220.567,168.333 220.750 C 168.424 220.960,168.477 220.991,168.477 220.833 C 168.477 220.696,168.412 220.433,168.333 220.250 C 168.243 220.040,168.190 220.009,168.190 220.167 M132.917 221.333 C 132.774 221.608,132.696 221.833,132.741 221.833 C 132.787 221.833,132.941 221.608,133.083 221.333 C 133.226 221.058,133.304 220.833,133.259 220.833 C 133.213 220.833,133.059 221.058,132.917 221.333 M231.095 222.262 C 231.034 222.506,231.016 222.738,231.055 222.777 C 231.094 222.817,231.177 222.649,231.238 222.405 C 231.299 222.161,231.317 221.929,231.278 221.889 C 231.239 221.850,231.157 222.018,231.095 222.262 M132.167 222.667 C 131.980 223.033,131.864 223.333,131.910 223.333 C 131.956 223.333,132.146 223.033,132.333 222.667 C 132.520 222.300,132.636 222.000,132.590 222.000 C 132.544 222.000,132.354 222.300,132.167 222.667 M267.750 222.667 C 267.892 222.942,268.046 223.167,268.092 223.167 C 268.138 223.167,268.059 222.942,267.917 222.667 C 267.774 222.392,267.621 222.167,267.575 222.167 C 267.529 222.167,267.608 222.392,267.750 222.667 M268.417 223.833 C 268.559 224.108,268.713 224.333,268.759 224.333 C 268.804 224.333,268.726 224.108,268.583 223.833 C 268.441 223.558,268.287 223.333,268.241 223.333 C 268.196 223.333,268.274 223.558,268.417 223.833 M131.417 224.000 C 131.274 224.275,131.196 224.500,131.241 224.500 C 131.287 224.500,131.441 224.275,131.583 224.000 C 131.726 223.725,131.804 223.500,131.759 223.500 C 131.713 223.500,131.559 223.725,131.417 224.000 M169.357 223.833 C 169.357 223.971,169.421 224.233,169.500 224.417 C 169.590 224.627,169.643 224.658,169.643 224.500 C 169.643 224.362,169.579 224.100,169.500 223.917 C 169.410 223.707,169.357 223.676,169.357 223.833 M269.413 225.583 C 269.760 226.225,270.121 226.825,270.215 226.917 C 270.309 227.008,270.101 226.558,269.754 225.917 C 269.406 225.275,269.045 224.675,268.952 224.583 C 268.858 224.492,269.066 224.942,269.413 225.583 M130.750 225.167 C 130.608 225.442,130.529 225.667,130.575 225.667 C 130.621 225.667,130.774 225.442,130.917 225.167 C 131.059 224.892,131.138 224.667,131.092 224.667 C 131.046 224.667,130.892 224.892,130.750 225.167 M229.929 225.929 C 229.867 226.173,229.849 226.405,229.889 226.444 C 229.928 226.483,230.010 226.316,230.071 226.071 C 230.133 225.827,230.151 225.595,230.111 225.556 C 230.072 225.517,229.990 225.684,229.929 225.929 M130.083 226.333 C 129.941 226.608,129.862 226.833,129.908 226.833 C 129.954 226.833,130.108 226.608,130.250 226.333 C 130.392 226.058,130.471 225.833,130.425 225.833 C 130.379 225.833,130.226 226.058,130.083 226.333 M129.333 227.667 C 129.146 228.033,129.031 228.333,129.077 228.333 C 129.122 228.333,129.313 228.033,129.500 227.667 C 129.687 227.300,129.803 227.000,129.757 227.000 C 129.711 227.000,129.520 227.300,129.333 227.667 M270.583 227.667 C 270.726 227.942,270.879 228.167,270.925 228.167 C 270.971 228.167,270.892 227.942,270.750 227.667 C 270.608 227.392,270.454 227.167,270.408 227.167 C 270.362 227.167,270.441 227.392,270.583 227.667 M170.690 228.000 C 170.690 228.137,170.755 228.400,170.833 228.583 C 170.924 228.793,170.977 228.824,170.977 228.667 C 170.977 228.529,170.912 228.267,170.833 228.083 C 170.743 227.873,170.690 227.842,170.690 228.000 M271.250 228.833 C 271.392 229.108,271.546 229.333,271.592 229.333 C 271.638 229.333,271.559 229.108,271.417 228.833 C 271.274 228.558,271.121 228.333,271.075 228.333 C 271.029 228.333,271.108 228.558,271.250 228.833 M128.583 229.000 C 128.441 229.275,128.362 229.500,128.408 229.500 C 128.454 229.500,128.608 229.275,128.750 229.000 C 128.892 228.725,128.971 228.500,128.925 228.500 C 128.879 228.500,128.726 228.725,128.583 229.000 M272.246 230.583 C 272.594 231.225,272.955 231.825,273.048 231.917 C 273.142 232.008,272.934 231.558,272.587 230.917 C 272.240 230.275,271.879 229.675,271.785 229.583 C 271.691 229.492,271.899 229.942,272.246 230.583 M127.917 230.167 C 127.774 230.442,127.696 230.667,127.741 230.667 C 127.787 230.667,127.941 230.442,128.083 230.167 C 128.226 229.892,128.304 229.667,128.259 229.667 C 128.213 229.667,128.059 229.892,127.917 230.167 M127.250 231.333 C 127.108 231.608,127.029 231.833,127.075 231.833 C 127.121 231.833,127.274 231.608,127.417 231.333 C 127.559 231.058,127.638 230.833,127.592 230.833 C 127.546 230.833,127.392 231.058,127.250 231.333 M171.857 231.667 C 171.857 231.804,171.921 232.067,172.000 232.250 C 172.090 232.460,172.143 232.491,172.143 232.333 C 172.143 232.196,172.079 231.933,172.000 231.750 C 171.910 231.540,171.857 231.509,171.857 231.667 M126.500 232.667 C 126.313 233.033,126.197 233.333,126.243 233.333 C 126.289 233.333,126.480 233.033,126.667 232.667 C 126.854 232.300,126.969 232.000,126.923 232.000 C 126.878 232.000,126.687 232.300,126.500 232.667 M273.417 232.667 C 273.559 232.942,273.713 233.167,273.759 233.167 C 273.804 233.167,273.726 232.942,273.583 232.667 C 273.441 232.392,273.287 232.167,273.241 232.167 C 273.196 232.167,273.274 232.392,273.417 232.667 M227.429 233.762 C 227.367 234.006,227.349 234.238,227.389 234.277 C 227.428 234.317,227.510 234.149,227.571 233.905 C 227.633 233.661,227.651 233.429,227.611 233.389 C 227.572 233.350,227.490 233.518,227.429 233.762 M274.083 233.833 C 274.226 234.108,274.379 234.333,274.425 234.333 C 274.471 234.333,274.392 234.108,274.250 233.833 C 274.108 233.558,273.954 233.333,273.908 233.333 C 273.862 233.333,273.941 233.558,274.083 233.833 M125.750 234.000 C 125.608 234.275,125.529 234.500,125.575 234.500 C 125.621 234.500,125.774 234.275,125.917 234.000 C 126.059 233.725,126.138 233.500,126.092 233.500 C 126.046 233.500,125.892 233.725,125.750 234.000 M274.933 235.334 C 275.183 235.793,275.414 236.142,275.446 236.110 C 275.518 236.038,274.670 234.500,274.559 234.500 C 274.515 234.500,274.684 234.875,274.933 235.334 M125.083 235.167 C 124.941 235.442,124.862 235.667,124.908 235.667 C 124.954 235.667,125.108 235.442,125.250 235.167 C 125.392 234.892,125.471 234.667,125.425 234.667 C 125.379 234.667,125.226 234.892,125.083 235.167 M173.023 235.333 C 173.023 235.471,173.088 235.733,173.167 235.917 C 173.257 236.127,173.310 236.158,173.310 236.000 C 173.310 235.862,173.245 235.600,173.167 235.417 C 173.076 235.207,173.023 235.176,173.023 235.333 M226.262 237.429 C 226.201 237.673,226.183 237.905,226.222 237.944 C 226.261 237.983,226.343 237.816,226.405 237.571 C 226.466 237.327,226.484 237.095,226.445 237.056 C 226.406 237.017,226.323 237.184,226.262 237.429 M174.190 239.000 C 174.190 239.137,174.255 239.400,174.333 239.583 C 174.424 239.793,174.477 239.824,174.477 239.667 C 174.477 239.529,174.412 239.267,174.333 239.083 C 174.243 238.873,174.190 238.842,174.190 239.000 M225.095 241.095 C 225.034 241.339,225.016 241.571,225.055 241.611 C 225.094 241.650,225.177 241.482,225.238 241.238 C 225.299 240.994,225.317 240.762,225.278 240.723 C 225.239 240.683,225.157 240.851,225.095 241.095 M175.357 242.667 C 175.357 242.804,175.421 243.067,175.500 243.250 C 175.590 243.460,175.643 243.491,175.643 243.333 C 175.643 243.196,175.579 242.933,175.500 242.750 C 175.410 242.540,175.357 242.509,175.357 242.667 M223.929 244.762 C 223.867 245.006,223.849 245.238,223.889 245.277 C 223.928 245.317,224.010 245.149,224.071 244.905 C 224.133 244.661,224.151 244.429,224.111 244.389 C 224.072 244.350,223.990 244.518,223.929 244.762 M176.523 246.333 C 176.523 246.471,176.588 246.733,176.667 246.917 C 176.757 247.127,176.810 247.158,176.810 247.000 C 176.810 246.862,176.745 246.600,176.667 246.417 C 176.576 246.207,176.523 246.176,176.523 246.333 M222.762 248.429 C 222.701 248.673,222.683 248.905,222.722 248.944 C 222.761 248.983,222.843 248.816,222.905 248.571 C 222.966 248.327,222.984 248.095,222.945 248.056 C 222.906 248.017,222.823 248.184,222.762 248.429 M177.690 250.000 C 177.690 250.137,177.755 250.400,177.833 250.583 C 177.924 250.793,177.977 250.824,177.977 250.667 C 177.977 250.529,177.912 250.267,177.833 250.083 C 177.743 249.873,177.690 249.842,177.690 250.000 M221.595 252.095 C 221.534 252.339,221.516 252.571,221.555 252.611 C 221.594 252.650,221.677 252.482,221.738 252.238 C 221.799 251.994,221.817 251.762,221.778 251.723 C 221.739 251.683,221.657 251.851,221.595 252.095 M178.857 253.667 C 178.857 253.804,178.921 254.067,179.000 254.250 C 179.090 254.460,179.143 254.491,179.143 254.333 C 179.143 254.196,179.079 253.933,179.000 253.750 C 178.910 253.540,178.857 253.509,178.857 253.667 M220.429 255.762 C 220.367 256.006,220.349 256.238,220.389 256.277 C 220.428 256.317,220.510 256.149,220.571 255.905 C 220.633 255.661,220.651 255.429,220.611 255.389 C 220.572 255.350,220.490 255.518,220.429 255.762 M181.357 261.500 C 181.357 261.637,181.421 261.900,181.500 262.083 C 181.590 262.293,181.643 262.324,181.643 262.167 C 181.643 262.029,181.579 261.767,181.500 261.583 C 181.410 261.373,181.357 261.342,181.357 261.500 M217.929 263.595 C 217.867 263.839,217.849 264.071,217.889 264.111 C 217.928 264.150,218.010 263.982,218.071 263.738 C 218.133 263.494,218.151 263.262,218.111 263.223 C 218.072 263.183,217.990 263.351,217.929 263.595 M182.523 265.167 C 182.523 265.304,182.588 265.567,182.667 265.750 C 182.757 265.960,182.810 265.991,182.810 265.833 C 182.810 265.696,182.745 265.433,182.667 265.250 C 182.576 265.040,182.523 265.009,182.523 265.167 M216.762 267.262 C 216.701 267.506,216.683 267.738,216.722 267.777 C 216.761 267.817,216.843 267.649,216.905 267.405 C 216.966 267.161,216.984 266.929,216.945 266.889 C 216.906 266.850,216.823 267.018,216.762 267.262 M183.690 268.833 C 183.690 268.971,183.755 269.233,183.833 269.417 C 183.924 269.627,183.977 269.658,183.977 269.500 C 183.977 269.362,183.912 269.100,183.833 268.917 C 183.743 268.707,183.690 268.676,183.690 268.833 M215.595 270.929 C 215.534 271.173,215.516 271.405,215.555 271.444 C 215.594 271.483,215.677 271.316,215.738 271.071 C 215.799 270.827,215.817 270.595,215.778 270.556 C 215.739 270.517,215.657 270.684,215.595 270.929 M184.857 272.500 C 184.857 272.637,184.921 272.900,185.000 273.083 C 185.090 273.293,185.143 273.324,185.143 273.167 C 185.143 273.029,185.079 272.767,185.000 272.583 C 184.910 272.373,184.857 272.342,184.857 272.500 M214.429 274.595 C 214.367 274.839,214.349 275.071,214.389 275.111 C 214.428 275.150,214.510 274.982,214.571 274.738 C 214.633 274.494,214.651 274.262,214.611 274.223 C 214.572 274.183,214.490 274.351,214.429 274.595 M186.023 276.167 C 186.023 276.304,186.088 276.567,186.167 276.750 C 186.257 276.960,186.310 276.991,186.310 276.833 C 186.310 276.696,186.245 276.433,186.167 276.250 C 186.076 276.040,186.023 276.009,186.023 276.167 M240.647 311.053 C 226.291 320.053,214.568 327.444,214.596 327.477 C 214.637 327.524,265.353 295.832,266.745 294.889 C 266.926 294.767,267.001 294.672,266.912 294.678 C 266.823 294.685,255.004 302.053,240.647 311.053 M224.015 296.348 C 223.902 296.725,223.841 297.063,223.878 297.101 C 223.916 297.138,224.039 296.861,224.152 296.485 C 224.264 296.109,224.326 295.770,224.288 295.733 C 224.251 295.695,224.128 295.972,224.015 296.348 M222.848 300.015 C 222.736 300.391,222.674 300.730,222.712 300.767 C 222.749 300.805,222.872 300.528,222.985 300.152 C 223.098 299.775,223.159 299.437,223.122 299.399 C 223.084 299.362,222.961 299.639,222.848 300.015 M221.682 303.682 C 221.569 304.058,221.508 304.396,221.545 304.434 C 221.583 304.471,221.705 304.194,221.818 303.818 C 221.931 303.442,221.992 303.104,221.955 303.066 C 221.917 303.029,221.795 303.306,221.682 303.682 M220.429 307.595 C 220.367 307.839,220.349 308.071,220.389 308.111 C 220.428 308.150,220.510 307.982,220.571 307.738 C 220.633 307.494,220.651 307.262,220.611 307.223 C 220.572 307.183,220.490 307.351,220.429 307.595 M219.262 311.262 C 219.201 311.506,219.183 311.738,219.222 311.777 C 219.261 311.817,219.343 311.649,219.405 311.405 C 219.466 311.161,219.484 310.929,219.445 310.889 C 219.406 310.850,219.323 311.018,219.262 311.262 M218.095 314.929 C 218.034 315.173,218.016 315.405,218.055 315.444 C 218.094 315.483,218.177 315.316,218.238 315.071 C 218.299 314.827,218.317 314.595,218.278 314.556 C 218.239 314.517,218.157 314.684,218.095 314.929 M216.929 318.595 C 216.867 318.839,216.849 319.071,216.889 319.111 C 216.928 319.150,217.010 318.982,217.071 318.738 C 217.133 318.494,217.151 318.262,217.111 318.223 C 217.072 318.183,216.990 318.351,216.929 318.595 M215.682 322.515 C 215.569 322.891,215.508 323.230,215.545 323.267 C 215.583 323.305,215.705 323.028,215.818 322.652 C 215.931 322.275,215.992 321.937,215.955 321.899 C 215.917 321.862,215.795 322.139,215.682 322.515 M214.515 326.182 C 214.402 326.558,214.341 326.896,214.378 326.934 C 214.416 326.971,214.539 326.694,214.652 326.318 C 214.764 325.942,214.826 325.604,214.788 325.566 C 214.751 325.529,214.628 325.806,214.515 326.182 " stroke="none" fill="#b4b4b4" fill-rule="evenodd"></path><path id="path3" d="" stroke="none" fill="#acacac" fill-rule="evenodd"></path><path id="path4" d="" stroke="none" fill="#939393" fill-rule="evenodd"></path></g></svg>