<svg id="svg" version="1.1" xmlns="http://www.w3.org/2000/svg" xmlns:xlink="http://www.w3.org/1999/xlink" width="400" height="403.64741641337383" viewBox="0, 0, 400,403.64741641337383"><g id="svgg"><path id="path0" d="M148.580 160.106 C 160.003 160.150,178.604 160.150,189.917 160.106 C 201.230 160.062,191.884 160.026,169.149 160.026 C 146.413 160.026,137.157 160.062,148.580 160.106 M280.167 160.106 C 289.236 160.151,304.077 160.151,313.146 160.106 C 322.215 160.062,314.795 160.025,296.657 160.025 C 278.518 160.025,271.098 160.062,280.167 160.106 M333.815 160.106 C 336.113 160.157,339.875 160.157,342.173 160.106 C 344.472 160.054,342.591 160.012,337.994 160.012 C 333.397 160.012,331.516 160.054,333.815 160.106 M42.103 191.564 C 41.814 198.316,42.035 256.422,42.350 256.738 C 42.662 257.049,101.405 257.268,107.828 256.982 L 112.465 256.775 112.387 221.776 L 112.310 186.778 77.312 186.701 L 42.314 186.624 42.103 191.564 M128.166 186.829 C 128.055 186.940,127.964 202.716,127.964 221.886 L 127.964 256.741 136.220 256.942 C 146.967 257.203,266.407 257.203,277.154 256.942 L 285.410 256.741 285.410 221.684 L 285.410 186.626 206.890 186.626 C 163.703 186.626,128.278 186.717,128.166 186.829 " stroke="none" fill="#5bcbdb" fill-rule="evenodd"></path><path id="path1" d="M128.167 89.868 C 128.055 89.980,127.964 105.756,127.964 124.926 L 127.964 159.781 184.271 159.957 C 215.239 160.054,260.616 160.067,285.106 159.985 C 309.597 159.903,333.363 159.846,337.919 159.857 L 346.203 159.878 346.126 124.848 L 346.049 89.818 237.209 89.741 C 177.347 89.699,128.278 89.756,128.167 89.868 " stroke="none" fill="#04a4c4" fill-rule="evenodd"></path><path id="path2" d="M187.690 11.743 C 124.518 16.590,70.927 48.435,37.345 101.083 C 11.461 141.662,1.921 193.167,11.423 241.033 C 32.976 349.601,141.176 417.385,248.632 389.638 C 351.036 363.195,412.595 258.047,385.990 155.015 C 365.945 77.386,300.103 21.112,218.997 12.289 C 214.670 11.818,191.887 11.421,187.690 11.743 M346.201 124.924 L 346.201 160.182 237.082 160.182 L 127.964 160.182 127.964 124.924 L 127.964 89.666 237.082 89.666 L 346.201 89.666 346.201 124.924 M112.565 198.530 C 112.675 205.077,112.766 215.587,112.766 221.884 C 112.766 228.182,112.675 238.692,112.565 245.239 L 112.363 257.143 77.154 257.143 L 41.945 257.143 41.945 221.884 L 41.945 186.626 77.154 186.626 L 112.363 186.626 112.565 198.530 M285.714 221.884 L 285.714 257.143 206.839 257.143 L 127.964 257.143 127.964 221.884 L 127.964 186.626 206.839 186.626 L 285.714 186.626 285.714 221.884 M198.406 318.769 L 198.328 353.951 163.222 353.951 L 128.116 353.951 128.038 318.769 L 127.961 283.587 163.222 283.587 L 198.483 283.587 198.406 318.769 " stroke="none" fill="#f3f4f4" fill-rule="evenodd"></path><path id="path3" d="M42.051 189.058 C 42.051 190.479,42.104 191.060,42.168 190.350 C 42.232 189.639,42.232 188.476,42.168 187.766 C 42.104 187.055,42.051 187.637,42.051 189.058 M285.552 221.884 C 285.552 230.494,285.591 234.016,285.638 229.711 C 285.686 225.407,285.686 218.362,285.638 214.058 C 285.591 209.753,285.552 213.275,285.552 221.884 M42.077 254.634 L 42.097 256.991 43.465 257.016 L 44.833 257.041 43.554 256.924 L 42.274 256.807 42.165 254.542 L 42.056 252.278 42.077 254.634 M109.051 257.062 C 109.765 257.126,110.860 257.125,111.482 257.060 C 112.105 256.995,111.520 256.942,110.182 256.943 C 108.845 256.944,108.336 256.998,109.051 257.062 M130.623 257.065 C 132.169 257.121,134.700 257.121,136.246 257.065 C 137.793 257.010,136.527 256.965,133.435 256.965 C 130.342 256.965,129.077 257.010,130.623 257.065 M277.128 257.065 C 278.674 257.121,281.204 257.121,282.751 257.065 C 284.297 257.010,283.032 256.965,279.939 256.965 C 276.847 256.965,275.581 257.010,277.128 257.065 M134.610 283.792 L 128.339 283.903 128.108 298.410 C 127.890 312.053,128.122 353.451,128.418 353.747 C 128.653 353.982,197.869 353.904,198.105 353.668 C 198.395 353.378,198.398 284.315,198.108 284.025 C 197.877 283.794,145.445 283.602,134.610 283.792 " stroke="none" fill="#aaebf3" fill-rule="evenodd"></path><path id="path4" d="M285.546 196.049 C 285.546 201.315,285.587 203.469,285.638 200.836 C 285.688 198.203,285.688 193.894,285.638 191.261 C 285.587 188.628,285.546 190.783,285.546 196.049 M112.605 221.884 C 112.605 232.667,112.643 237.078,112.690 231.687 C 112.736 226.296,112.736 217.473,112.690 212.082 C 112.643 206.691,112.605 211.102,112.605 221.884 M285.546 247.720 C 285.546 252.986,285.587 255.141,285.638 252.508 C 285.688 249.875,285.688 245.566,285.638 242.933 C 285.587 240.300,285.546 242.454,285.546 247.720 M128.034 290.957 L 128.104 298.328 128.191 291.116 L 128.278 283.903 134.580 283.814 L 140.881 283.726 134.422 283.656 L 127.964 283.587 128.034 290.957 M191.863 283.814 L 198.164 283.903 198.253 290.508 L 198.341 297.112 198.411 290.350 L 198.480 283.587 192.021 283.656 L 185.562 283.726 191.863 283.814 M128.107 346.428 L 128.116 353.951 141.033 353.956 L 153.951 353.962 141.115 353.877 L 128.278 353.793 128.189 346.349 L 128.099 338.905 128.107 346.428 M198.245 347.641 L 198.176 353.792 185.942 353.875 L 173.708 353.958 185.952 354.031 C 195.669 354.088,198.226 354.023,198.345 353.714 C 198.427 353.501,198.453 350.662,198.404 347.407 L 198.314 341.489 198.245 347.641 " stroke="none" fill="#caecf3" fill-rule="evenodd"></path></g></svg>