<svg id="svg" version="1.1" xmlns="http://www.w3.org/2000/svg" xmlns:xlink="http://www.w3.org/1999/xlink" width="400" height="400" viewBox="0, 0, 400,400"><g id="svgg"><path id="path0" d="M70.400 91.937 C 70.400 92.122,73.955 95.755,78.300 100.011 C 82.645 104.268,100.600 122.004,118.200 139.426 C 153.632 174.499,153.280 174.168,159.200 178.099 C 183.993 194.561,216.138 194.566,240.800 178.112 C 246.732 174.154,246.613 174.266,279.556 141.656 C 295.922 125.455,313.877 107.723,319.456 102.252 C 325.035 96.781,329.600 92.146,329.600 91.952 C 329.600 91.754,321.546 91.600,311.250 91.600 L 292.900 91.600 290.350 94.051 C 288.948 95.400,278.795 105.435,267.789 116.351 C 225.922 157.878,227.378 156.556,219.496 160.192 C 207.743 165.612,190.967 165.278,179.000 159.384 C 172.136 156.004,170.081 154.095,125.165 109.362 L 107.330 91.600 88.865 91.600 C 78.709 91.600,70.400 91.751,70.400 91.937 M191.400 209.166 C 190.740 209.345,188.940 209.704,187.400 209.963 C 176.198 211.852,162.966 217.913,153.749 225.379 C 152.457 226.425,138.637 239.908,123.037 255.341 C 107.438 270.773,88.988 289.018,82.037 295.883 L 69.400 308.367 88.156 308.383 L 106.913 308.400 127.156 288.266 C 167.894 247.750,170.171 245.565,174.837 242.527 C 188.384 233.705,206.555 232.800,221.200 240.217 C 228.017 243.670,226.757 242.501,271.070 286.491 L 293.141 308.400 311.870 308.384 L 330.600 308.368 315.200 293.127 C 306.730 284.745,287.920 266.121,273.400 251.742 C 243.520 222.150,242.963 221.671,232.200 216.282 C 221.346 210.849,199.344 207.011,191.400 209.166 " stroke="none" fill="#fafafa" fill-rule="evenodd"></path><path id="path1" d="M184.400 0.214 C 183.850 0.289,180.610 0.558,177.200 0.813 C 173.790 1.068,170.820 1.422,170.600 1.598 C 170.380 1.775,168.805 2.049,167.100 2.207 C 165.395 2.365,164.000 2.614,164.000 2.761 C 164.000 2.908,162.245 3.263,160.100 3.550 C 157.955 3.837,156.020 4.218,155.800 4.395 C 155.580 4.573,154.005 4.941,152.300 5.214 C 150.595 5.487,149.200 5.840,149.200 5.998 C 149.200 6.157,147.850 6.518,146.200 6.800 C 144.550 7.082,143.200 7.448,143.200 7.612 C 143.200 7.776,142.525 8.036,141.700 8.189 C 139.990 8.505,135.698 9.847,134.800 10.345 C 134.470 10.528,133.255 10.919,132.100 11.215 C 130.945 11.510,130.000 11.875,130.000 12.026 C 130.000 12.177,129.460 12.408,128.800 12.540 C 127.595 12.781,124.667 13.967,122.800 14.970 C 122.250 15.266,121.215 15.633,120.500 15.786 C 119.785 15.938,119.200 16.229,119.200 16.432 C 119.200 16.634,118.987 16.800,118.726 16.800 C 117.753 16.800,104.000 23.554,104.000 24.032 C 104.000 24.199,103.489 24.449,102.864 24.586 C 102.239 24.723,100.783 25.457,99.629 26.218 C 98.475 26.978,97.464 27.600,97.383 27.600 C 97.236 27.600,94.560 29.314,93.800 29.894 C 93.580 30.062,92.860 30.470,92.200 30.799 C 91.540 31.129,90.910 31.490,90.800 31.600 C 90.690 31.711,89.790 32.342,88.800 33.001 C 87.810 33.661,86.774 34.413,86.498 34.674 C 86.221 34.934,85.636 35.262,85.198 35.401 C 84.759 35.540,84.400 35.800,84.400 35.978 C 84.400 36.157,83.873 36.521,83.229 36.788 C 82.585 37.055,81.960 37.527,81.841 37.837 C 81.722 38.146,81.389 38.400,81.101 38.400 C 80.813 38.400,80.280 38.715,79.917 39.100 C 79.131 39.932,78.686 40.296,76.572 41.834 C 74.988 42.987,74.183 43.631,72.867 44.800 C 72.496 45.130,71.706 45.780,71.112 46.245 C 65.456 50.671,50.671 65.456,46.245 71.112 C 45.780 71.706,45.130 72.496,44.800 72.867 C 43.631 74.183,42.987 74.988,41.834 76.572 C 40.296 78.686,39.932 79.131,39.100 79.917 C 38.715 80.280,38.400 80.813,38.400 81.101 C 38.400 81.389,38.146 81.722,37.837 81.841 C 37.527 81.960,37.055 82.585,36.788 83.229 C 36.521 83.873,36.157 84.400,35.978 84.400 C 35.800 84.400,35.540 84.759,35.401 85.198 C 35.262 85.636,34.934 86.221,34.674 86.498 C 34.413 86.774,33.661 87.810,33.001 88.800 C 32.342 89.790,31.711 90.690,31.600 90.800 C 31.490 90.910,31.129 91.540,30.799 92.200 C 30.470 92.860,30.062 93.580,29.894 93.800 C 29.314 94.560,27.600 97.236,27.600 97.383 C 27.600 97.464,26.978 98.475,26.218 99.629 C 25.457 100.783,24.723 102.239,24.586 102.864 C 24.449 103.489,24.199 104.000,24.032 104.000 C 23.554 104.000,16.800 117.753,16.800 118.726 C 16.800 118.987,16.634 119.200,16.432 119.200 C 16.229 119.200,15.938 119.785,15.786 120.500 C 15.633 121.215,15.266 122.250,14.970 122.800 C 13.967 124.667,12.781 127.595,12.540 128.800 C 12.408 129.460,12.177 130.000,12.026 130.000 C 11.875 130.000,11.510 130.945,11.215 132.100 C 10.919 133.255,10.528 134.470,10.345 134.800 C 9.847 135.698,8.505 139.990,8.189 141.700 C 8.036 142.525,7.776 143.200,7.612 143.200 C 7.448 143.200,7.082 144.550,6.800 146.200 C 6.518 147.850,6.157 149.200,5.998 149.200 C 5.840 149.200,5.487 150.595,5.214 152.300 C 4.941 154.005,4.573 155.580,4.395 155.800 C 4.218 156.020,3.837 157.955,3.550 160.100 C 3.263 162.245,2.908 164.000,2.761 164.000 C 2.614 164.000,2.365 165.395,2.207 167.100 C 2.049 168.805,1.776 170.380,1.601 170.600 C -0.261 172.934,-0.265 227.034,1.597 229.400 C 1.770 229.620,2.041 231.150,2.200 232.800 C 2.359 234.450,2.621 235.980,2.782 236.200 C 2.944 236.420,3.305 238.220,3.586 240.200 C 3.866 242.180,4.236 243.980,4.407 244.200 C 4.578 244.420,4.941 245.995,5.214 247.700 C 5.487 249.405,5.829 250.800,5.975 250.800 C 6.121 250.800,6.481 252.150,6.774 253.800 C 7.067 255.450,7.443 256.800,7.609 256.800 C 7.775 256.800,8.036 257.475,8.189 258.300 C 8.505 260.010,9.847 264.302,10.345 265.200 C 10.528 265.530,10.919 266.745,11.215 267.900 C 11.510 269.055,11.875 270.000,12.026 270.000 C 12.177 270.000,12.408 270.540,12.540 271.200 C 12.755 272.276,13.226 273.465,14.998 277.400 C 15.295 278.060,15.662 279.095,15.813 279.700 C 15.963 280.305,16.247 280.800,16.443 280.800 C 16.640 280.800,16.800 281.013,16.800 281.274 C 16.800 282.247,23.554 296.000,24.032 296.000 C 24.199 296.000,24.449 296.511,24.586 297.136 C 24.723 297.761,25.457 299.217,26.218 300.371 C 26.978 301.525,27.600 302.536,27.600 302.617 C 27.600 302.764,29.314 305.440,29.894 306.200 C 30.062 306.420,30.470 307.140,30.799 307.800 C 31.129 308.460,31.490 309.090,31.600 309.200 C 31.711 309.310,32.342 310.210,33.001 311.200 C 33.661 312.190,34.413 313.226,34.674 313.502 C 34.934 313.779,35.262 314.364,35.401 314.802 C 35.540 315.241,35.800 315.600,35.978 315.600 C 36.157 315.600,36.521 316.127,36.788 316.771 C 37.055 317.415,37.527 318.040,37.837 318.159 C 38.146 318.278,38.400 318.611,38.400 318.899 C 38.400 319.187,38.715 319.720,39.100 320.083 C 39.849 320.790,39.975 320.946,41.770 323.400 C 42.958 325.023,43.394 325.563,44.681 327.004 C 45.077 327.447,45.780 328.294,46.245 328.888 C 50.734 334.625,65.375 349.266,71.112 353.755 C 71.706 354.220,72.483 354.870,72.838 355.200 C 73.194 355.530,74.070 356.250,74.786 356.800 C 77.253 358.696,79.402 360.399,80.000 360.934 C 80.330 361.229,80.915 361.584,81.300 361.722 C 81.685 361.861,82.000 362.139,82.000 362.339 C 82.000 362.539,82.540 362.927,83.200 363.200 C 83.860 363.473,84.400 363.843,84.400 364.022 C 84.400 364.200,84.759 364.460,85.198 364.599 C 85.636 364.738,86.221 365.066,86.498 365.326 C 86.774 365.587,87.810 366.339,88.800 366.999 C 89.790 367.658,90.690 368.289,90.800 368.400 C 90.910 368.510,91.540 368.871,92.200 369.201 C 92.860 369.530,93.580 369.938,93.800 370.106 C 94.560 370.686,97.236 372.400,97.383 372.400 C 97.464 372.400,98.475 373.022,99.629 373.782 C 100.783 374.543,102.239 375.277,102.864 375.414 C 103.489 375.551,104.000 375.801,104.000 375.968 C 104.000 376.446,117.753 383.200,118.726 383.200 C 118.987 383.200,119.200 383.360,119.200 383.557 C 119.200 383.753,119.695 384.033,120.300 384.180 C 120.905 384.327,122.120 384.773,123.000 385.170 C 123.880 385.568,125.261 386.189,126.068 386.551 C 126.876 386.912,128.091 387.318,128.768 387.454 C 129.446 387.589,130.000 387.823,130.000 387.974 C 130.000 388.125,130.945 388.486,132.100 388.776 C 133.255 389.066,134.380 389.430,134.600 389.585 C 135.198 390.007,139.984 391.514,141.700 391.821 C 142.525 391.968,143.200 392.224,143.200 392.388 C 143.200 392.552,144.550 392.918,146.200 393.200 C 147.850 393.482,149.200 393.843,149.200 394.002 C 149.200 394.160,150.582 394.513,152.270 394.785 C 153.959 395.058,155.624 395.434,155.970 395.622 C 156.733 396.035,159.973 396.656,165.600 397.468 C 167.910 397.801,170.160 398.230,170.600 398.422 C 174.899 400.295,225.101 400.295,229.400 398.422 C 229.840 398.230,232.090 397.801,234.400 397.468 C 240.027 396.656,243.267 396.035,244.030 395.622 C 244.376 395.434,246.041 395.058,247.730 394.785 C 249.418 394.513,250.800 394.171,250.800 394.025 C 250.800 393.879,252.150 393.519,253.800 393.226 C 255.450 392.933,256.800 392.557,256.800 392.391 C 256.800 392.225,257.475 391.968,258.300 391.821 C 260.016 391.514,264.802 390.007,265.400 389.585 C 265.620 389.430,266.745 389.066,267.900 388.776 C 269.055 388.486,270.000 388.125,270.000 387.974 C 270.000 387.823,270.540 387.592,271.200 387.460 C 271.860 387.328,273.200 386.856,274.178 386.410 C 275.156 385.965,276.101 385.594,276.278 385.586 C 276.455 385.579,277.320 385.225,278.200 384.800 C 279.080 384.375,280.025 384.021,280.300 384.014 C 280.575 384.006,280.800 383.820,280.800 383.600 C 280.800 383.380,281.013 383.200,281.274 383.200 C 282.247 383.200,296.000 376.446,296.000 375.968 C 296.000 375.801,296.511 375.551,297.136 375.414 C 297.761 375.277,299.217 374.543,300.371 373.782 C 301.525 373.022,302.536 372.400,302.617 372.400 C 302.764 372.400,305.440 370.686,306.200 370.106 C 306.420 369.938,307.140 369.530,307.800 369.201 C 308.460 368.871,309.090 368.510,309.200 368.400 C 309.310 368.289,310.210 367.658,311.200 366.999 C 312.190 366.339,313.226 365.587,313.502 365.326 C 313.779 365.066,314.364 364.738,314.802 364.599 C 315.241 364.460,315.600 364.200,315.600 364.022 C 315.600 363.843,316.140 363.473,316.800 363.200 C 317.460 362.927,318.000 362.539,318.000 362.339 C 318.000 362.139,318.315 361.861,318.700 361.722 C 319.085 361.584,319.670 361.222,320.000 360.919 C 320.330 360.616,321.596 359.611,322.814 358.684 C 325.035 356.995,325.876 356.316,327.133 355.200 C 327.504 354.870,328.294 354.220,328.888 353.755 C 334.706 349.202,349.202 334.706,353.755 328.888 C 354.220 328.294,354.870 327.504,355.200 327.133 C 356.316 325.876,356.995 325.035,358.684 322.814 C 359.611 321.596,360.646 320.315,360.984 319.966 C 361.323 319.618,361.600 319.117,361.600 318.854 C 361.600 318.590,361.854 318.278,362.163 318.159 C 362.473 318.040,362.945 317.415,363.212 316.771 C 363.479 316.127,363.843 315.600,364.022 315.600 C 364.200 315.600,364.460 315.241,364.599 314.802 C 364.738 314.364,365.066 313.779,365.326 313.502 C 365.587 313.226,366.339 312.190,366.999 311.200 C 367.658 310.210,368.289 309.310,368.400 309.200 C 368.510 309.090,368.871 308.460,369.201 307.800 C 369.530 307.140,369.938 306.420,370.106 306.200 C 370.686 305.440,372.400 302.764,372.400 302.617 C 372.400 302.536,373.022 301.525,373.782 300.371 C 374.543 299.217,375.277 297.761,375.414 297.136 C 375.551 296.511,375.801 296.000,375.968 296.000 C 376.446 296.000,383.200 282.247,383.200 281.274 C 383.200 281.013,383.380 280.800,383.600 280.800 C 383.820 280.800,384.006 280.575,384.014 280.300 C 384.021 280.025,384.375 279.080,384.800 278.200 C 385.225 277.320,385.579 276.455,385.586 276.278 C 385.594 276.101,385.965 275.156,386.410 274.178 C 386.856 273.200,387.328 271.860,387.460 271.200 C 387.592 270.540,387.823 270.000,387.974 270.000 C 388.125 270.000,388.486 269.055,388.776 267.900 C 389.066 266.745,389.430 265.620,389.585 265.400 C 390.007 264.802,391.514 260.016,391.821 258.300 C 391.968 257.475,392.225 256.800,392.391 256.800 C 392.557 256.800,392.933 255.450,393.226 253.800 C 393.519 252.150,393.879 250.800,394.025 250.800 C 394.171 250.800,394.513 249.418,394.785 247.730 C 395.058 246.041,395.434 244.376,395.622 244.030 C 396.035 243.267,396.656 240.027,397.468 234.400 C 397.801 232.090,398.230 229.840,398.422 229.400 C 400.295 225.101,400.295 174.899,398.422 170.600 C 398.230 170.160,397.801 167.910,397.468 165.600 C 396.656 159.973,396.035 156.733,395.622 155.970 C 395.434 155.624,395.058 153.959,394.785 152.270 C 394.513 150.582,394.160 149.200,394.002 149.200 C 393.843 149.200,393.482 147.850,393.200 146.200 C 392.918 144.550,392.552 143.200,392.388 143.200 C 392.224 143.200,391.968 142.525,391.821 141.700 C 391.514 139.984,390.007 135.198,389.585 134.600 C 389.430 134.380,389.066 133.255,388.776 132.100 C 388.486 130.945,388.125 130.000,387.974 130.000 C 387.823 130.000,387.589 129.446,387.454 128.768 C 387.318 128.091,386.912 126.876,386.551 126.068 C 386.189 125.261,385.568 123.880,385.170 123.000 C 384.773 122.120,384.327 120.905,384.180 120.300 C 384.033 119.695,383.753 119.200,383.557 119.200 C 383.360 119.200,383.200 118.987,383.200 118.726 C 383.200 117.753,376.446 104.000,375.968 104.000 C 375.801 104.000,375.551 103.489,375.414 102.864 C 375.277 102.239,374.543 100.783,373.782 99.629 C 373.022 98.475,372.400 97.464,372.400 97.383 C 372.400 97.236,370.686 94.560,370.106 93.800 C 369.938 93.580,369.530 92.860,369.201 92.200 C 368.871 91.540,368.510 90.910,368.400 90.800 C 368.289 90.690,367.658 89.790,366.999 88.800 C 366.339 87.810,365.587 86.774,365.326 86.498 C 365.066 86.221,364.738 85.636,364.599 85.198 C 364.460 84.759,364.200 84.400,364.022 84.400 C 363.843 84.400,363.479 83.873,363.212 83.229 C 362.945 82.585,362.473 81.960,362.163 81.841 C 361.854 81.722,361.600 81.410,361.600 81.146 C 361.600 80.883,361.329 80.382,360.999 80.034 C 360.425 79.429,358.975 77.616,356.800 74.786 C 356.250 74.070,355.530 73.194,355.200 72.838 C 354.870 72.483,354.220 71.706,353.755 71.112 C 349.266 65.375,334.625 50.734,328.888 46.245 C 328.294 45.780,327.447 45.077,327.004 44.681 C 325.563 43.394,325.023 42.958,323.400 41.770 C 320.946 39.975,320.790 39.849,320.083 39.100 C 319.720 38.715,319.187 38.400,318.899 38.400 C 318.611 38.400,318.278 38.146,318.159 37.837 C 318.040 37.527,317.415 37.055,316.771 36.788 C 316.127 36.521,315.600 36.157,315.600 35.978 C 315.600 35.800,315.241 35.540,314.802 35.401 C 314.364 35.262,313.779 34.934,313.502 34.674 C 313.226 34.413,312.190 33.661,311.200 33.001 C 310.210 32.342,309.310 31.711,309.200 31.600 C 309.090 31.490,308.460 31.129,307.800 30.799 C 307.140 30.470,306.420 30.062,306.200 29.894 C 305.440 29.314,302.764 27.600,302.617 27.600 C 302.536 27.600,301.525 26.978,300.371 26.218 C 299.217 25.457,297.761 24.723,297.136 24.586 C 296.511 24.449,296.000 24.199,296.000 24.032 C 296.000 23.554,282.247 16.800,281.274 16.800 C 281.013 16.800,280.800 16.640,280.800 16.443 C 280.800 16.247,280.305 15.963,279.700 15.813 C 279.095 15.662,278.060 15.295,277.400 14.998 C 273.465 13.226,272.276 12.755,271.200 12.540 C 270.540 12.408,270.000 12.177,270.000 12.026 C 270.000 11.875,269.055 11.510,267.900 11.215 C 266.745 10.919,265.530 10.528,265.200 10.345 C 264.302 9.847,260.010 8.505,258.300 8.189 C 257.475 8.036,256.800 7.775,256.800 7.609 C 256.800 7.443,255.450 7.067,253.800 6.774 C 252.150 6.481,250.800 6.121,250.800 5.975 C 250.800 5.829,249.405 5.487,247.700 5.214 C 245.995 4.941,244.420 4.578,244.200 4.407 C 243.980 4.236,242.180 3.866,240.200 3.586 C 238.220 3.305,236.420 2.944,236.200 2.782 C 235.980 2.621,234.450 2.359,232.800 2.200 C 231.150 2.041,229.620 1.772,229.400 1.603 C 228.191 0.670,189.776 -0.515,184.400 0.214 M128.155 111.549 C 171.576 154.768,170.173 153.427,175.600 156.860 C 177.553 158.096,181.119 159.897,183.400 160.801 C 196.446 165.968,213.940 163.896,226.095 155.744 C 229.778 153.273,229.118 153.911,271.275 112.101 L 292.349 91.200 311.175 91.200 C 328.931 91.200,330.000 91.240,330.000 91.909 C 330.000 92.307,325.478 97.075,319.700 102.769 C 314.035 108.352,300.940 121.302,290.600 131.548 C 246.631 175.114,247.390 174.391,241.200 178.586 C 217.395 194.718,182.982 194.890,159.400 178.996 C 152.745 174.510,152.997 174.750,107.612 129.742 C 97.376 119.590,84.635 106.998,79.300 101.761 C 73.965 96.523,69.600 92.004,69.600 91.719 C 69.600 91.301,73.307 91.200,88.655 91.200 L 107.710 91.200 128.155 111.549 M207.600 208.824 C 219.672 210.364,228.707 213.266,237.200 218.331 C 237.970 218.791,239.140 219.447,239.800 219.789 C 243.275 221.594,249.828 227.457,262.853 240.418 C 270.692 248.218,289.193 266.563,303.966 281.183 C 328.664 305.627,331.940 309.109,330.095 308.960 C 329.823 308.938,321.365 308.893,311.300 308.859 L 293.000 308.798 287.800 303.727 C 284.940 300.938,273.857 290.004,263.171 279.428 C 225.767 242.412,227.262 243.770,220.226 240.412 C 204.731 233.018,185.849 234.807,172.282 244.955 C 169.815 246.801,158.721 257.634,128.146 288.052 L 107.292 308.800 88.469 308.800 C 74.434 308.800,69.573 308.680,69.355 308.328 C 69.171 308.029,74.814 302.184,84.708 292.428 C 93.312 283.943,111.567 265.911,125.276 252.358 C 153.116 224.834,153.086 224.861,159.189 220.786 C 169.048 214.202,182.361 209.480,194.400 208.298 C 196.478 208.094,204.332 208.407,207.600 208.824 " stroke="none" fill="#6c747c" fill-rule="evenodd"></path><path id="path2" d="M69.600 91.709 C 69.600 91.989,71.175 93.744,73.100 95.609 L 76.600 99.000 73.251 95.542 C 71.355 93.585,70.020 91.892,70.174 91.642 C 70.324 91.399,70.257 91.200,70.024 91.200 C 69.791 91.200,69.600 91.429,69.600 91.709 M325.792 96.500 L 321.800 100.600 325.900 96.608 C 329.708 92.899,330.182 92.400,329.892 92.400 C 329.833 92.400,327.988 94.245,325.792 96.500 M128.200 112.000 C 137.438 121.240,145.086 128.800,145.196 128.800 C 145.306 128.800,137.838 121.240,128.600 112.000 C 119.362 102.760,111.714 95.200,111.604 95.200 C 111.494 95.200,118.962 102.760,128.200 112.000 M271.198 112.300 L 254.200 129.400 271.384 112.400 C 280.836 103.050,288.651 95.355,288.751 95.300 C 288.851 95.245,288.768 95.200,288.565 95.200 C 288.362 95.200,280.547 102.895,271.198 112.300 M105.400 127.600 C 112.657 134.860,118.685 140.800,118.795 140.800 C 118.905 140.800,113.057 134.860,105.800 127.600 C 98.543 120.340,92.515 114.400,92.405 114.400 C 92.295 114.400,98.143 120.340,105.400 127.600 M290.398 131.500 L 276.200 145.800 290.500 131.602 C 298.365 123.793,304.800 117.358,304.800 117.302 C 304.800 117.020,303.593 118.210,290.398 131.500 M237.800 145.200 C 233.184 149.820,229.497 153.600,229.607 153.600 C 229.717 153.600,233.584 149.820,238.200 145.200 C 242.816 140.580,246.503 136.800,246.393 136.800 C 246.283 136.800,242.416 140.580,237.800 145.200 M140.400 162.200 C 145.566 167.370,149.884 171.600,149.994 171.600 C 150.104 171.600,145.966 167.370,140.800 162.200 C 135.634 157.030,131.316 152.800,131.206 152.800 C 131.096 152.800,135.234 157.030,140.400 162.200 M170.544 153.509 C 170.860 154.021,173.200 155.753,173.200 155.475 C 173.200 155.376,172.539 154.791,171.732 154.175 C 170.924 153.559,170.389 153.259,170.544 153.509 M258.397 163.100 L 249.800 171.800 258.500 163.203 C 266.584 155.216,267.380 154.400,267.097 154.400 C 267.040 154.400,263.125 158.315,258.397 163.100 M223.700 157.246 C 222.337 158.119,221.895 158.706,223.100 158.043 C 224.018 157.539,225.456 156.427,225.200 156.419 C 225.090 156.416,224.415 156.788,223.700 157.246 M185.000 161.600 C 185.440 161.789,186.070 161.944,186.400 161.944 C 186.778 161.944,186.704 161.817,186.200 161.600 C 185.760 161.411,185.130 161.256,184.800 161.256 C 184.422 161.256,184.496 161.383,185.000 161.600 M212.800 162.000 C 211.976 162.264,211.941 162.326,212.600 162.354 C 213.040 162.373,213.670 162.213,214.000 162.000 C 214.701 161.547,214.214 161.547,212.800 162.000 M194.100 163.487 C 194.705 163.578,195.695 163.578,196.300 163.487 C 196.905 163.395,196.410 163.320,195.200 163.320 C 193.990 163.320,193.495 163.395,194.100 163.487 M205.505 163.483 C 206.002 163.579,206.722 163.575,207.105 163.475 C 207.487 163.375,207.080 163.296,206.200 163.301 C 205.320 163.305,205.007 163.387,205.505 163.483 M199.107 163.890 C 199.826 163.979,200.906 163.977,201.507 163.886 C 202.108 163.795,201.520 163.722,200.200 163.724 C 198.880 163.726,198.388 163.801,199.107 163.890 M244.400 176.049 C 243.006 177.271,243.005 177.272,244.288 176.419 C 244.996 175.948,245.682 175.391,245.812 175.181 C 246.197 174.557,245.877 174.754,244.400 176.049 M192.305 190.683 C 192.802 190.779,193.522 190.775,193.905 190.675 C 194.287 190.575,193.880 190.496,193.000 190.501 C 192.120 190.505,191.807 190.587,192.305 190.683 M206.300 190.682 C 206.795 190.778,207.605 190.778,208.100 190.682 C 208.595 190.587,208.190 190.509,207.200 190.509 C 206.210 190.509,205.805 190.587,206.300 190.682 M192.100 208.676 C 192.485 208.776,193.115 208.776,193.500 208.676 C 193.885 208.575,193.570 208.493,192.800 208.493 C 192.030 208.493,191.715 208.575,192.100 208.676 M200.713 208.695 C 201.876 208.776,203.676 208.776,204.713 208.693 C 205.751 208.611,204.800 208.545,202.600 208.546 C 200.400 208.547,199.551 208.614,200.713 208.695 M184.400 210.000 C 183.596 210.257,183.557 210.323,184.200 210.332 C 184.640 210.338,185.360 210.189,185.800 210.000 C 186.819 209.562,185.768 209.562,184.400 210.000 M214.000 210.000 C 215.368 210.438,216.419 210.438,215.400 210.000 C 214.960 209.811,214.240 209.662,213.800 209.668 C 213.157 209.677,213.196 209.743,214.000 210.000 M179.000 211.414 C 177.385 212.154,178.351 212.155,180.054 211.416 C 180.794 211.094,181.130 210.839,180.800 210.848 C 180.470 210.857,179.660 211.112,179.000 211.414 M174.200 213.014 C 173.200 213.496,173.166 213.551,174.000 213.348 C 175.133 213.071,176.407 212.421,175.800 212.430 C 175.580 212.433,174.860 212.696,174.200 213.014 M239.600 220.020 C 240.987 220.961,241.778 221.235,240.800 220.436 C 240.250 219.986,239.620 219.617,239.400 219.615 C 239.180 219.613,239.270 219.796,239.600 220.020 M243.600 222.506 C 243.600 222.789,248.860 226.873,249.020 226.714 C 249.107 226.626,248.243 225.845,247.099 224.977 C 243.959 222.595,243.600 222.342,243.600 222.506 M153.076 225.300 C 151.830 226.533,151.825 226.549,152.981 225.603 C 153.652 225.055,154.371 224.470,154.580 224.303 C 154.789 224.136,154.831 224.000,154.674 224.000 C 154.517 224.000,153.798 224.585,153.076 225.300 M144.309 233.501 C 140.848 236.966,137.885 239.980,137.723 240.200 C 137.561 240.420,140.437 237.632,144.114 234.005 C 150.296 227.906,150.982 227.198,150.700 227.201 C 150.645 227.202,147.769 230.037,144.309 233.501 M255.085 233.192 C 257.331 235.487,259.222 237.282,259.286 237.182 C 259.350 237.082,257.512 235.204,255.201 233.009 L 251.000 229.019 255.085 233.192 M196.900 235.897 C 198.605 235.972,201.395 235.972,203.100 235.897 C 204.805 235.822,203.410 235.761,200.000 235.761 C 196.590 235.761,195.195 235.822,196.900 235.897 M206.433 236.149 C 206.525 236.231,207.500 236.401,208.600 236.528 C 209.949 236.684,210.274 236.649,209.600 236.420 C 208.601 236.080,206.118 235.868,206.433 236.149 M188.600 236.819 C 188.042 237.071,188.285 237.107,189.400 236.938 C 190.280 236.804,191.075 236.628,191.167 236.547 C 191.510 236.244,189.368 236.471,188.600 236.819 M185.400 237.786 C 183.855 238.493,184.574 238.503,186.400 237.800 C 187.170 237.503,187.530 237.255,187.200 237.248 C 186.870 237.242,186.060 237.483,185.400 237.786 M213.800 237.755 C 214.460 238.055,215.450 238.411,216.000 238.546 C 216.803 238.743,216.764 238.684,215.800 238.245 C 215.140 237.945,214.150 237.589,213.600 237.454 C 212.797 237.257,212.836 237.316,213.800 237.755 M181.200 239.400 C 180.650 239.714,180.380 239.972,180.600 239.972 C 180.820 239.972,181.450 239.714,182.000 239.400 C 182.550 239.086,182.820 238.828,182.600 238.828 C 182.380 238.828,181.750 239.086,181.200 239.400 M218.000 239.400 C 218.550 239.714,219.180 239.972,219.400 239.972 C 219.620 239.972,219.350 239.714,218.800 239.400 C 218.250 239.086,217.620 238.828,217.400 238.828 C 217.180 238.828,217.450 239.086,218.000 239.400 M177.500 241.227 C 176.675 241.663,176.000 242.108,176.000 242.218 C 176.000 242.327,176.720 242.049,177.600 241.600 C 178.480 241.151,179.200 240.697,179.200 240.592 C 179.200 240.330,179.197 240.331,177.500 241.227 M221.600 240.979 C 221.600 241.089,222.140 241.459,222.800 241.800 C 223.460 242.141,224.000 242.331,224.000 242.221 C 224.000 242.111,223.460 241.741,222.800 241.400 C 222.140 241.059,221.600 240.869,221.600 240.979 M162.996 253.300 L 156.200 260.200 163.100 253.404 C 166.895 249.667,170.000 246.562,170.000 246.504 C 170.000 246.219,169.309 246.890,162.996 253.300 M236.600 253.200 C 240.335 256.940,243.481 260.000,243.591 260.000 C 243.701 260.000,240.735 256.940,237.000 253.200 C 233.265 249.460,230.119 246.400,230.009 246.400 C 229.899 246.400,232.865 249.460,236.600 253.200 M286.684 264.387 C 292.230 269.985,296.820 274.483,296.884 274.383 C 296.948 274.282,292.410 269.702,286.800 264.204 L 276.600 254.208 286.684 264.387 M108.711 268.701 C 103.272 274.146,98.689 278.780,98.526 279.000 C 98.363 279.220,102.859 274.811,108.515 269.203 C 118.041 259.758,118.981 258.798,118.700 258.801 C 118.645 258.802,114.150 263.257,108.711 268.701 M269.499 285.700 C 276.840 293.015,282.971 299.083,283.123 299.184 C 283.275 299.286,277.371 293.301,270.002 285.884 C 262.633 278.468,256.502 272.400,256.378 272.400 C 256.253 272.400,262.158 278.385,269.499 285.700 M128.598 287.300 L 115.400 300.600 128.700 287.402 C 136.015 280.144,142.000 274.159,142.000 274.102 C 142.000 273.820,140.863 274.939,128.598 287.300 M317.193 294.500 C 319.499 296.865,321.434 298.800,321.493 298.800 C 321.782 298.800,321.294 298.287,317.300 294.393 L 313.000 290.200 317.193 294.500 M80.185 296.900 L 78.200 299.000 80.300 297.015 C 81.455 295.923,82.400 294.978,82.400 294.915 C 82.400 294.617,82.029 294.949,80.185 296.900 M73.407 303.593 C 69.778 307.234,69.120 308.074,69.572 308.493 C 70.015 308.905,70.059 308.898,69.808 308.457 C 69.595 308.082,70.845 306.564,73.843 303.557 C 76.232 301.161,78.096 299.200,77.986 299.200 C 77.876 299.200,75.815 301.177,73.407 303.593 M326.900 304.208 C 330.313 307.726,330.831 308.519,329.990 308.937 C 329.764 309.049,329.810 309.094,330.090 309.037 C 331.328 308.786,330.573 307.562,327.109 304.200 L 323.400 300.600 326.900 304.208 M79.500 308.700 C 84.615 308.763,92.985 308.763,98.100 308.700 C 103.215 308.636,99.030 308.585,88.800 308.585 C 78.570 308.585,74.385 308.636,79.500 308.700 M301.927 308.700 C 307.058 308.763,315.338 308.763,320.327 308.700 C 325.317 308.636,321.120 308.584,311.000 308.584 C 300.880 308.584,296.797 308.636,301.927 308.700 " stroke="none" fill="#9ea4a8" fill-rule="evenodd"></path><path id="path3" d="M79.500 91.500 C 84.615 91.563,92.985 91.563,98.100 91.500 C 103.215 91.436,99.030 91.385,88.800 91.385 C 78.570 91.385,74.385 91.436,79.500 91.500 M310.979 91.498 C 325.042 91.582,329.440 91.725,329.709 92.104 C 329.967 92.468,330.017 92.440,329.897 92.000 C 329.755 91.478,327.328 91.399,311.167 91.394 L 292.600 91.388 310.979 91.498 M83.000 105.200 C 85.412 107.620,87.476 109.600,87.586 109.600 C 87.696 109.600,85.812 107.620,83.400 105.200 C 80.988 102.780,78.924 100.800,78.814 100.800 C 78.704 100.800,80.588 102.780,83.000 105.200 M314.993 106.900 L 310.600 111.400 315.100 107.007 C 319.280 102.926,319.782 102.400,319.493 102.400 C 319.434 102.400,317.409 104.425,314.993 106.900 M153.600 137.400 C 157.445 141.250,160.681 144.400,160.791 144.400 C 160.901 144.400,157.845 141.250,154.000 137.400 C 150.155 133.550,146.919 130.400,146.809 130.400 C 146.699 130.400,149.755 133.550,153.600 137.400 M246.393 137.100 L 241.800 141.800 246.500 137.207 C 250.866 132.940,251.382 132.400,251.093 132.400 C 251.035 132.400,248.920 134.515,246.393 137.100 M120.200 142.000 C 122.171 143.980,123.873 145.600,123.983 145.600 C 124.093 145.600,122.571 143.980,120.600 142.000 C 118.629 140.020,116.927 138.400,116.817 138.400 C 116.707 138.400,118.229 140.020,120.200 142.000 M276.392 145.100 L 272.600 149.000 276.500 145.208 C 278.645 143.122,280.400 141.367,280.400 141.308 C 280.400 141.018,279.914 141.478,276.392 145.100 M195.100 208.689 C 195.815 208.778,196.985 208.778,197.700 208.689 C 198.415 208.601,197.830 208.528,196.400 208.528 C 194.970 208.528,194.385 208.601,195.100 208.689 M270.600 248.800 C 272.792 251.000,274.675 252.800,274.785 252.800 C 274.895 252.800,273.192 251.000,271.000 248.800 C 268.808 246.600,266.925 244.800,266.815 244.800 C 266.705 244.800,268.408 246.600,270.600 248.800 M126.591 251.300 L 123.400 254.600 126.700 251.409 C 129.765 248.446,130.182 248.000,129.891 248.000 C 129.830 248.000,128.345 249.485,126.591 251.300 M245.400 261.600 C 247.150 263.360,248.671 264.800,248.781 264.800 C 248.891 264.800,247.550 263.360,245.800 261.600 C 244.050 259.840,242.529 258.400,242.419 258.400 C 242.309 258.400,243.650 259.840,245.400 261.600 M152.992 262.900 L 149.000 267.000 153.100 263.008 C 155.355 260.812,157.200 258.967,157.200 258.908 C 157.200 258.618,156.701 259.092,152.992 262.900 M304.000 281.725 C 304.000 281.794,304.585 282.379,305.300 283.025 L 306.600 284.200 305.425 282.900 C 304.330 281.688,304.000 281.416,304.000 281.725 M87.992 289.500 L 84.200 293.400 88.100 289.608 C 90.245 287.522,92.000 285.767,92.000 285.708 C 92.000 285.418,91.514 285.878,87.992 289.500 M113.191 302.300 L 109.800 305.800 113.300 302.409 C 116.551 299.259,116.982 298.800,116.691 298.800 C 116.631 298.800,115.056 300.375,113.191 302.300 M108.175 307.300 L 107.000 308.600 108.300 307.425 C 109.512 306.330,109.784 306.000,109.475 306.000 C 109.406 306.000,108.821 306.585,108.175 307.300 " stroke="none" fill="#b4bcbc" fill-rule="evenodd"></path><path id="path4" d="M70.000 91.855 C 70.000 92.068,70.675 92.863,71.500 93.622 L 73.000 95.000 71.600 93.404 C 70.830 92.527,70.155 91.732,70.100 91.638 C 70.045 91.544,70.000 91.641,70.000 91.855 M328.175 93.700 L 327.000 95.000 328.300 93.825 C 329.015 93.179,329.600 92.594,329.600 92.525 C 329.600 92.216,329.270 92.488,328.175 93.700 M130.000 114.200 C 137.368 121.570,143.486 127.600,143.596 127.600 C 143.706 127.600,137.768 121.570,130.400 114.200 C 123.032 106.830,116.914 100.800,116.804 100.800 C 116.694 100.800,122.632 106.830,130.000 114.200 M267.398 116.500 L 254.600 129.400 267.500 116.602 C 274.595 109.564,280.400 103.759,280.400 103.702 C 280.400 103.420,279.291 104.511,267.398 116.500 M98.000 119.800 C 104.927 126.730,110.685 132.400,110.795 132.400 C 110.905 132.400,105.327 126.730,98.400 119.800 C 91.473 112.870,85.715 107.200,85.605 107.200 C 85.495 107.200,91.073 112.870,98.000 119.800 M311.178 110.300 L 309.800 111.800 311.300 110.422 C 312.696 109.138,312.984 108.800,312.678 108.800 C 312.612 108.800,311.937 109.475,311.178 110.300 M298.397 123.100 L 287.400 134.200 298.500 123.203 C 308.815 112.983,309.780 112.000,309.497 112.000 C 309.441 112.000,304.446 116.995,298.397 123.100 M234.793 148.700 L 230.200 153.400 234.900 148.807 C 239.266 144.540,239.782 144.000,239.493 144.000 C 239.435 144.000,237.320 146.115,234.793 148.700 M167.200 151.000 C 168.395 152.210,169.463 153.200,169.573 153.200 C 169.683 153.200,168.795 152.210,167.600 151.000 C 166.405 149.790,165.337 148.800,165.227 148.800 C 165.117 148.800,166.005 149.790,167.200 151.000 M138.800 160.200 C 144.847 166.250,149.885 171.200,149.995 171.200 C 150.105 171.200,145.247 166.250,139.200 160.200 C 133.153 154.150,128.115 149.200,128.005 149.200 C 127.895 149.200,132.753 154.150,138.800 160.200 M259.397 161.700 L 249.800 171.400 259.500 161.803 C 264.835 156.525,269.200 152.160,269.200 152.103 C 269.200 151.820,268.315 152.686,259.397 161.700 M150.800 171.725 C 150.800 171.794,151.385 172.379,152.100 173.025 L 153.400 174.200 152.225 172.900 C 151.130 171.688,150.800 171.416,150.800 171.725 M247.578 173.100 L 246.200 174.600 247.700 173.222 C 249.096 171.938,249.384 171.600,249.078 171.600 C 249.012 171.600,248.337 172.275,247.578 173.100 M191.900 190.282 C 192.395 190.378,193.205 190.378,193.700 190.282 C 194.195 190.187,193.790 190.109,192.800 190.109 C 191.810 190.109,191.405 190.187,191.900 190.282 M206.505 190.287 C 207.114 190.379,208.014 190.377,208.505 190.282 C 208.997 190.187,208.500 190.111,207.400 190.114 C 206.300 190.117,205.897 190.195,206.505 190.287 M197.300 190.697 C 198.785 190.774,201.215 190.774,202.700 190.697 C 204.185 190.620,202.970 190.557,200.000 190.557 C 197.030 190.557,195.815 190.620,197.300 190.697 M208.305 209.483 C 208.802 209.579,209.522 209.575,209.905 209.475 C 210.287 209.375,209.880 209.296,209.000 209.301 C 208.120 209.305,207.807 209.387,208.305 209.483 M165.900 217.029 C 164.349 217.870,164.525 218.161,166.100 217.359 C 167.608 216.593,167.875 216.394,167.367 216.416 C 167.165 216.425,166.505 216.701,165.900 217.029 M139.597 238.700 L 129.400 249.000 139.700 238.803 C 145.365 233.195,150.000 228.560,150.000 228.503 C 150.000 228.220,149.073 229.129,139.597 238.700 M258.800 237.400 C 263.306 241.910,267.083 245.600,267.193 245.600 C 267.303 245.600,263.706 241.910,259.200 237.400 C 254.694 232.890,250.917 229.200,250.807 229.200 C 250.697 229.200,254.294 232.890,258.800 237.400 M197.100 235.497 C 198.695 235.573,201.305 235.573,202.900 235.497 C 204.495 235.421,203.190 235.359,200.000 235.359 C 196.810 235.359,195.505 235.421,197.100 235.497 M171.585 244.829 L 170.200 246.058 171.700 244.981 C 173.026 244.030,173.457 243.600,173.085 243.600 C 173.022 243.600,172.347 244.153,171.585 244.829 M228.200 244.645 C 228.420 244.858,231.570 247.900,235.200 251.405 L 241.800 257.779 236.400 252.262 C 233.430 249.227,230.280 246.185,229.400 245.501 C 228.520 244.817,227.980 244.432,228.200 244.645 M163.195 252.700 L 157.000 259.000 163.300 252.805 C 166.765 249.398,169.600 246.563,169.600 246.505 C 169.600 246.219,168.951 246.847,163.195 252.700 M278.600 256.800 C 279.906 258.120,281.065 259.200,281.175 259.200 C 281.285 259.200,280.306 258.120,279.000 256.800 C 277.694 255.480,276.535 254.400,276.425 254.400 C 276.315 254.400,277.294 255.480,278.600 256.800 M291.400 269.600 C 296.897 275.100,301.484 279.600,301.594 279.600 C 301.704 279.600,297.297 275.100,291.800 269.600 C 286.303 264.100,281.716 259.600,281.606 259.600 C 281.496 259.600,285.903 264.100,291.400 269.600 M264.200 280.000 C 272.998 288.800,280.286 296.000,280.396 296.000 C 280.506 296.000,273.398 288.800,264.600 280.000 C 255.802 271.200,248.514 264.000,248.404 264.000 C 248.294 264.000,255.402 271.200,264.200 280.000 M101.797 276.100 L 91.800 286.200 101.900 276.203 C 111.285 266.913,112.180 266.000,111.897 266.000 C 111.840 266.000,107.295 270.545,101.797 276.100 M132.798 282.700 L 117.800 297.800 132.900 282.802 C 146.934 268.863,148.180 267.600,147.898 267.600 C 147.842 267.600,141.047 274.395,132.798 282.700 M324.000 301.800 C 327.405 305.210,330.280 308.000,330.390 308.000 C 330.500 308.000,327.805 305.210,324.400 301.800 C 320.995 298.390,318.120 295.600,318.010 295.600 C 317.900 295.600,320.595 298.390,324.000 301.800 M73.993 303.500 L 69.400 308.200 74.100 303.607 C 78.466 299.340,78.982 298.800,78.693 298.800 C 78.635 298.800,76.520 300.915,73.993 303.500 " stroke="none" fill="#bcbcc2" fill-rule="evenodd"></path></g></svg>