<svg id="Layer_1" data-name="Layer 1" xmlns="http://www.w3.org/2000/svg" viewBox="0 0 435 435"><defs><style>.cls-1{fill:#f4f4f4;}.cls-2{fill:#ee333e;}</style></defs><title>49</title><g id="ALL"><path class="cls-1" d="M407.6,110.09a216.63,216.63,0,0,0-79.15-79.16q-50-29.16-109.18-29.17T110.09,30.93a216.55,216.55,0,0,0-79.15,79.16q-29.18,50-29.18,109.18T30.93,328.44a216.73,216.73,0,0,0,79.16,79.16q50,29.16,109.18,29.17T328.45,407.6a216.63,216.63,0,0,0,79.15-79.16q29.16-50,29.17-109.17T407.6,110.09Z" transform="translate(-1.76 -1.76)"/><g id="_49" data-name="49"><path id="path5" class="cls-2" d="M152.46,200.78c-14.93,0-25.9,10.9-25.9,25.74s11,25.73,25.9,25.73,25.9-10.9,25.9-25.73-11-25.74-25.9-25.74m3.46,45.44c-7.57,1.35-13.41-5.78-15.53-17.65-2.1-11.71,1.05-20.61,8.46-21.93,7.56-1.35,13.43,5.93,15.53,17.64,2.12,11.87-.89,20.58-8.46,21.94" transform="translate(-1.76 -1.76)"/><path id="path7" class="cls-2" d="M380.87,200.78c-14.93,0-25.91,10.9-25.91,25.74s11,25.73,25.91,25.73,25.89-10.9,25.89-25.73-11-25.74-25.89-25.74m3.45,45.44c-7.56,1.35-13.4-5.78-15.52-17.65-2.1-11.71,1-20.61,8.45-21.93,7.57-1.35,13.44,5.93,15.54,17.64,2.11,11.87-.9,20.58-8.47,21.94" transform="translate(-1.76 -1.76)"/><path id="path9" class="cls-2" d="M302,213.71a17.73,17.73,0,0,1,.84,6v31.51h18.87v-3.47c-2.7,0-6.11-1.32-6.11-7.49V216.65c0-12.92-10.56-15.91-16.21-15.91-9.08,0-14,5.38-15.64,8.74,0,0-.17-6.4-.17-7.59H265.45v3.42c2.63,0,6.11,1.31,6.11,7.42V240.3c0,6.1-3.49,7.45-6.11,7.45v3.47h25v-3.47c-2.7,0-6.11-1.32-6.11-7.49V222.42a18.36,18.36,0,0,1,1.67-8.5,9.83,9.83,0,0,1,8.39-5.45,7.53,7.53,0,0,1,7.66,5.24" transform="translate(-1.76 -1.76)"/><path id="path11" class="cls-2" d="M349.29,251.22v-3.47c-2.69,0-6.11-1.32-6.11-7.49,0-1.23,0-33.13,0-33.13h7.12V202h-7.12V190.72h-6.65c0,7.47-7,12.9-12.68,12.9v3.46l6.56,0v33.38c0,7.67,2.92,10.73,11.29,10.73h7.58" transform="translate(-1.76 -1.76)"/><path id="path13" class="cls-2" d="M217.62,187.71v52c0,6.17,3.41,7.48,6.1,7.48v4H198.1v-4c2.63,0,6.11-1.31,6.11-7.49v-52H198c-7.44,0-10.17,1.91-10.17,7.54h-4.41V180.69H237.9v14.54h-4.2c0-5.7-2.64-7.53-10.08-7.53h-6" transform="translate(-1.76 -1.76)"/><path id="path15" class="cls-2" d="M51.28,187.69v52c0,6.17,3.42,7.49,6.11,7.49v4H31.76v-4c2.64,0,6.11-1.31,6.11-7.5V192.2c0-6.17-3.41-7.49-6.11-7.49v-4H63.64c19.47,0,24,10.3,24,18.34,0,9.14-6.55,15.24-15.67,16.92,9.68.62,15.33,25.32,22.39,34.38.95,1.22,3.41,3.43,6.08,3.43h.31v4.07H93.22c-5.56,0-11.19-2.45-13.69-5.84C71.24,240.74,68,217.54,57.94,216.81l-.9,0v-4.21h.86c12.57-.17,14.84-6.88,14.84-12.48,0-6.49-2.33-12.42-13.79-12.42l-7.67,0" transform="translate(-1.76 -1.76)"/><path id="path17" class="cls-2" d="M255.43,191.22c0,3.25-3.1,5.88-6.91,5.88s-6.91-2.63-6.91-5.88,3.1-5.89,6.91-5.89,6.91,2.64,6.91,5.89" transform="translate(-1.76 -1.76)"/><path id="path19" class="cls-2" d="M261.63,251.22v-3.47c-2.69,0-6.1-1.32-6.1-7.49V201.89H236.65v3.42c2.63,0,6.11,1.31,6.11,7.42v27.52c0,6.19-3.48,7.5-6.11,7.5v3.47h25" transform="translate(-1.76 -1.76)"/><path id="path21" class="cls-2" d="M102.3,251.22V212.73c0-6.11-3.47-7.42-6.11-7.42v-3.42h18.88v38.37c0,6.18,3.41,7.49,6.1,7.49v3.47H102.3" transform="translate(-1.76 -1.76)"/><path id="path23" class="cls-2" d="M115.2,191.22c0,3.25-3.09,5.88-6.91,5.88s-6.91-2.63-6.91-5.88,3.1-5.89,6.91-5.89,6.91,2.64,6.91,5.89" transform="translate(-1.76 -1.76)"/></g></g></svg>