<?xml version="1.0" encoding="iso-8859-1"?>
<!-- Generator: Adobe Illustrator 22.0.1, SVG Export Plug-In . SVG Version: 6.00 Build 0)  -->
<svg version="1.1" id="Layer_1" xmlns="http://www.w3.org/2000/svg" xmlns:xlink="http://www.w3.org/1999/xlink" x="0px" y="0px"
	 viewBox="0 0 438.53 438.53" style="enable-background:new 0 0 438.53 438.53;" xml:space="preserve">
<g id="_x35_">
	<g>
		<path style="fill:#D80027;" d="M386.295,79.163L283.437,182.259v27.404h80.944v81.131h-80.944v81.13h-80.945v-81.13h-27.34
			l-95.164,95.384c40.211,33.712,89.802,50.588,139.413,50.588c55.684-0.007,111.389-21.252,153.769-63.736
			C453.335,292.691,457.7,164.714,386.295,79.163z"/>
		<polygon style="fill:#F0F0F0;" points="202.492,290.794 202.492,371.924 283.437,371.924 283.437,290.794 364.38,290.794 
			364.38,209.663 283.437,209.663 283.437,182.259 175.152,290.794 		"/>
		<path style="fill:#F0F0F0;" d="M28.348,196.727l-7.216-22.259l18.892-13.757H16.673l-3.519-10.858
			c-4.047,12.068-7.016,24.42-8.902,36.909l5.206-3.791L28.348,196.727z"/>
		<polygon style="fill:#F0F0F0;" points="89.4,73.379 82.185,95.638 58.834,95.638 77.725,109.395 70.509,131.654 89.4,117.897 
			108.291,131.654 101.075,109.395 119.966,95.638 96.615,95.638 		"/>
		<path style="fill:#F0F0F0;" d="M25.015,121.372c-0.967,1.924-1.911,3.856-2.818,5.802l6.151,4.479L25.015,121.372z"/>
		<polygon style="fill:#F0F0F0;" points="96.615,160.711 89.4,138.452 82.185,160.711 58.834,160.711 77.725,174.468 
			70.509,196.727 89.4,182.97 108.291,196.727 101.075,174.468 119.966,160.711 		"/>
		<path style="fill:#F0F0F0;" d="M89.4,52.824l18.891,13.757l-7.216-22.259l18.892-13.756h-9.064
			C97.657,38.18,85.04,47.29,73.316,57.925l-2.806,8.657L89.4,52.824z"/>
		<path style="fill:#F0F0F0;" d="M307.969,102.517h-88.68c0,16.352,0,34.675,0,58.274h30.541L307.969,102.517z"/>
		<path style="fill:#F0F0F0;" d="M348.279,44.242c-38.185-28.284-83.582-42.446-128.99-42.478c0,16.313,0,30.008,0,42.478H348.279z"
			/>
		<polygon style="fill:#F0F0F0;" points="181.017,174.468 199.909,160.711 176.558,160.711 169.343,138.452 162.127,160.711 
			138.776,160.711 157.668,174.468 150.452,196.727 169.343,182.97 188.233,196.727 		"/>
		<polygon style="fill:#F0F0F0;" points="150.452,131.654 169.343,117.897 188.233,131.654 181.017,109.395 199.909,95.638 
			176.558,95.638 169.343,73.379 162.127,95.638 138.776,95.638 157.668,109.395 		"/>
		<path style="fill:#F0F0F0;" d="M52.164,358.912l23.245-23.299H34.987c8.498,13.553,18.62,26.368,30.378,38.155l0.404-0.405
			l-7.305-7.322C56.312,363.712,54.214,361.334,52.164,358.912z"/>
		<path style="fill:#F0F0F0;" d="M191.689,219.065H1.776c0,0.189-0.007,0.378-0.007,0.567c0,19.424,2.574,38.846,7.708,57.707
			H133.55L191.689,219.065z"/>
		<polygon style="fill:#F0F0F0;" points="150.452,66.581 169.343,52.824 188.233,66.581 181.017,44.322 199.909,30.565 
			176.558,30.565 169.343,8.306 162.127,30.565 138.776,30.565 157.668,44.322 		"/>
		<path style="fill:#D80027;" d="M249.83,160.79h-30.541c0,9.314,0,19.45,0,30.611L249.83,160.79z"/>
		<path style="fill:#D80027;" d="M219.289,102.517h88.68l50.296-50.412c-3.27-2.73-6.598-5.354-9.986-7.863h-128.99
			C219.289,64.871,219.289,82.176,219.289,102.517z"/>
		<path style="fill:#D80027;" d="M133.55,277.339H9.477c5.528,20.31,14.031,39.967,25.51,58.275h40.422L133.55,277.339z"/>
		<path style="fill:#0052B4;" d="M209.599,201.114V160.79h9.69c0-23.599,0-41.922,0-58.274h-9.69V44.242h9.69
			c0-12.47,0-26.165,0-42.478c-37.477-0.026-74.952,9.583-108.387,28.801h9.064l-18.892,13.756l7.216,22.259L89.4,52.824
			L70.509,66.581l2.806-8.657c-2.7,2.449-5.354,4.976-7.956,7.585c-16.769,16.805-30.208,35.706-40.343,55.863l3.333,10.282
			l-6.151-4.479c-3.456,7.416-6.465,14.99-9.044,22.679l3.519,10.858h23.351l-18.892,13.757l7.216,22.259L9.457,182.97l-5.206,3.791
			c-1.616,10.703-2.446,21.502-2.475,32.304h189.913L209.599,201.114z M108.291,196.727L89.4,182.97l-18.891,13.756l7.216-22.259
			l-18.892-13.756h23.351l7.215-22.259l7.215,22.259h23.351l-18.892,13.756L108.291,196.727z M101.075,109.395l7.216,22.259
			L89.4,117.897l-18.891,13.756l7.216-22.259L58.834,95.638h23.351L89.4,73.379l7.215,22.259h23.351L101.075,109.395z
			 M162.127,30.565l7.215-22.259l7.215,22.259h23.351l-18.892,13.756l7.216,22.259l-18.891-13.757L150.45,66.58l7.216-22.259
			l-18.892-13.756C138.774,30.565,162.127,30.565,162.127,30.565z M162.127,95.638l7.215-22.259l7.215,22.259h23.351l-18.892,13.757
			l7.216,22.259l-18.891-13.756l-18.891,13.756l7.216-22.259l-18.892-13.757H162.127z M150.452,196.727l7.216-22.259l-18.892-13.756
			h23.351l7.215-22.259l7.215,22.259h23.351l-18.892,13.756l7.216,22.259l-18.891-13.756L150.452,196.727z"/>
		<path style="fill:#0052B4;" d="M219.289,160.79h-9.69v40.323l9.69-9.712C219.289,180.241,219.289,170.105,219.289,160.79z"/>
		<path style="fill:#0052B4;" d="M209.599,44.242v58.275h9.69c0-20.341,0-37.646,0-58.275
			C219.289,44.242,209.599,44.242,209.599,44.242z"/>
		<path style="fill:#FFFFFF;" d="M65.77,373.364l4.56,4.571c3.097,2.877,6.272,5.672,9.533,8.368l0.125-0.125
			c-4.846-4.063-9.563-8.359-14.12-12.912L65.77,373.364z"/>
		<path style="fill:#FFFFFF;" d="M373.17,64.763c4.634,4.644,8.999,9.456,13.126,14.401l0.116-0.117
			c-8.398-9.926-17.664-19.102-27.691-27.398l-0.455,0.456c4.948,4.132,9.756,8.517,14.403,13.16L373.17,64.763z"/>
		<path style="fill:#FFFFFF;" d="M148.15,290.794l-44.716,44.82l-28.762,28.828l0,0l-8.804,8.824
			c4.557,4.553,9.274,8.849,14.12,12.912l95.164-95.384H148.15z"/>
		<path style="fill:#FFFFFF;" d="M372.668,65.265c0.082,0.082,0.166,0.161,0.248,0.244l-9.293,9.314l-27.63,27.694l-52.557,52.678
			v27.065L386.295,79.163c-4.127-4.945-8.492-9.757-13.126-14.401L372.668,65.265z"/>
		<polygon style="fill:#FFFFFF;" points="277.854,160.79 219.713,219.065 161.574,277.339 148.15,290.794 175.152,290.794 
			283.437,182.259 283.437,155.195 		"/>
		<polygon style="fill:#FFFFFF;" points="277.363,160.79 283.437,154.703 335.502,102.517 307.969,102.517 249.83,160.79 		"/>
		<polygon style="fill:#FFFFFF;" points="283.437,155.195 335.993,102.517 335.502,102.517 283.437,154.703 		"/>
		<polygon style="fill:#FFFFFF;" points="277.363,160.79 277.854,160.79 283.437,155.195 283.437,154.703 		"/>
		<path style="fill:#FFFFFF;" d="M65.619,373.023l9.306-9.327l0,0l28.017-28.082H75.409l-23.245,23.299
			c2.05,2.421,4.148,4.8,6.3,7.13l7.305,7.322l0.098-0.098C65.785,373.184,65.701,373.105,65.619,373.023z"/>
		<path style="fill:#FFFFFF;" d="M74.925,363.695L74.925,363.695l-9.306,9.327c0.082,0.082,0.166,0.161,0.248,0.243l8.804-8.824l0,0
			l28.762-28.828h-0.491L74.925,363.695z"/>
		<polygon style="fill:#FFFFFF;" points="219.222,219.065 209.599,219.065 191.689,219.065 133.55,277.339 161.083,277.339 		"/>
		<polygon style="fill:#FFFFFF;" points="219.222,219.065 161.083,277.339 161.574,277.339 219.713,219.065 219.289,219.065 		"/>
		<path style="fill:#FFFFFF;" d="M249.83,160.79l-30.541,30.611c0,8.564,0,17.731,0,27.596l58.074-58.208L249.83,160.79
			L249.83,160.79z"/>
		<path style="fill:#FFFFFF;" d="M219.289,218.998c0,0.023,0,0.044,0,0.067h0.424l58.141-58.275h-0.491L219.289,218.998z"/>
		<path style="fill:#FFFFFF;" d="M335.502,102.517l28.374-28.44l8.792-8.812c-4.647-4.643-9.455-9.028-14.403-13.16l-50.296,50.412
			H335.502z"/>
		<path style="fill:#FFFFFF;" d="M363.623,74.823l9.293-9.314c-0.082-0.082-0.166-0.162-0.248-0.244l-8.792,8.812l-28.374,28.44
			h0.491L363.623,74.823z"/>
		<polygon style="fill:#FFFFFF;" points="161.083,277.339 133.55,277.339 75.409,335.613 102.942,335.613 147.659,290.794 		"/>
		<polygon style="fill:#FFFFFF;" points="102.942,335.613 103.433,335.613 148.15,290.794 147.659,290.794 		"/>
		<polygon style="fill:#FFFFFF;" points="161.083,277.339 147.659,290.794 148.15,290.794 161.574,277.339 		"/>
		<polygon style="fill:#FFFFFF;" points="209.599,201.114 191.689,219.065 209.599,219.065 		"/>
		<path style="fill:#FFFFFF;" d="M219.222,219.065l0.067-0.067c0-9.866,0-19.033,0-27.596l-9.69,9.712v17.951L219.222,219.065
			L219.222,219.065z"/>
		<path style="fill:#FFFFFF;" d="M219.289,218.998l-0.067,0.067h0.067C219.289,219.043,219.289,219.021,219.289,218.998z"/>
	</g>
</g>
</svg>
