<?xml version="1.0" encoding="iso-8859-1"?>
<!-- Generator: Adobe Illustrator 22.0.1, SVG Export Plug-In . SVG Version: 6.00 Build 0)  -->
<svg version="1.1" id="Layer_1" xmlns="http://www.w3.org/2000/svg" xmlns:xlink="http://www.w3.org/1999/xlink" x="0px" y="0px"
	 viewBox="0 0 438.53 438.53" style="enable-background:new 0 0 438.53 438.53;" xml:space="preserve">
<g id="_x37_">
	<g>
		<path style="fill:#919394;" d="M407.603,110.087c-19.45-33.321-45.833-59.704-79.155-79.153
			c-33.328-19.448-69.711-29.17-109.176-29.17c-39.461,0-75.854,9.722-109.177,29.17C76.771,50.38,50.388,76.763,30.938,110.087
			c-19.451,33.326-29.173,69.72-29.173,109.178c0,39.46,9.725,75.847,29.17,109.175c19.449,33.321,45.832,59.704,79.156,79.155
			c33.326,19.447,69.717,29.17,109.177,29.17s75.854-9.723,109.179-29.17c33.322-19.444,59.704-45.834,79.152-79.155
			c19.445-33.325,29.166-69.718,29.166-109.175C436.766,179.803,427.044,143.409,407.603,110.087z M231.039,107.873
			c9.766-11.439,26.105-19.823,39.725-20.377c1.118-0.044,2.111,0.794,2.235,1.923c1.58,14.401-3.642,30.478-13.969,43.005
			c-9.812,11.864-24.179,19.232-37.496,19.232c-0.935-0.001-1.873-0.037-2.793-0.109c-1.017-0.079-1.84-0.859-1.974-1.87
			C214.632,133.518,222.74,117.487,231.039,107.873z M326.838,280.511l-0.074,0.234c-1.838,5.888-7.285,21.295-18.144,37.164
			c-10.406,15.198-22.201,32.426-41.411,32.784c-8.979,0.169-15.057-2.472-20.956-5.025c-5.986-2.591-12.177-5.27-21.877-5.27
			c-10.196,0-16.696,2.769-22.982,5.448c-5.598,2.384-11.388,4.851-19.401,5.171c-0.33,0.013-0.652,0.019-0.974,0.019
			c-17.054,0-29.506-15.965-41.804-33.752c-24.638-35.576-38.802-94.249-16.522-132.912c11.717-20.378,32.97-33.246,55.461-33.577
			c0.224-0.004,0.451-0.007,0.682-0.007c9.673,0,18.811,3.626,26.873,6.825c6.029,2.392,11.235,4.458,15.247,4.458
			c3.57,0,8.747-2.041,14.74-4.404c8.682-3.423,19.489-7.684,30.771-7.684c1.445,0,2.883,0.07,4.277,0.209
			c9.605,0.413,33.462,3.846,49.028,26.625c0.328,0.48,0.449,1.075,0.334,1.646c-0.116,0.572-0.457,1.072-0.947,1.388l-0.211,0.131
			c-4.523,2.798-27.073,18.235-26.784,47.385c0.312,35.88,29.986,49.044,33.369,50.427c0.029,0.012,0.13,0.054,0.158,0.067
			C326.694,278.323,327.188,279.465,326.838,280.511z"/>
		<path style="fill:#FFFFFF;" d="M325.691,277.862c-0.028-0.013-0.13-0.055-0.158-0.067c-3.383-1.383-33.057-14.548-33.369-50.427
			c-0.289-29.15,22.261-44.587,26.784-47.385l0.211-0.131c0.49-0.315,0.831-0.816,0.947-1.388c0.116-0.571-0.005-1.166-0.334-1.646
			c-15.565-22.779-39.422-26.212-49.028-26.625c-1.394-0.139-2.832-0.209-4.277-0.209c-11.281,0-22.088,4.261-30.771,7.684
			c-5.993,2.363-11.17,4.404-14.74,4.404c-4.012,0-9.218-2.066-15.247-4.458c-8.062-3.2-17.199-6.825-26.873-6.825
			c-0.231,0-0.458,0.003-0.682,0.007c-22.492,0.331-43.745,13.199-55.461,33.577c-22.28,38.663-8.116,97.336,16.522,132.912
			c12.298,17.786,24.75,33.752,41.804,33.752c0.321,0,0.644-0.006,0.974-0.019c8.013-0.32,13.803-2.787,19.401-5.171
			c6.285-2.679,12.786-5.448,22.982-5.448c9.7,0,15.89,2.68,21.877,5.27c5.9,2.552,11.977,5.193,20.956,5.025
			c19.21-0.358,31.005-17.586,41.411-32.784c10.859-15.869,16.306-31.276,18.144-37.164l0.074-0.234
			C327.188,279.465,326.694,278.323,325.691,277.862z"/>
		<path style="fill:#FFFFFF;" d="M218.742,151.546c0.919,0.072,1.858,0.108,2.793,0.109c13.318,0,27.685-7.368,37.496-19.232
			c10.327-12.527,15.548-28.604,13.969-43.005c-0.124-1.128-1.117-1.967-2.235-1.923c-13.62,0.555-29.959,8.939-39.725,20.377
			c-8.299,9.615-16.407,25.645-14.271,41.803C216.902,150.687,217.725,151.467,218.742,151.546z"/>
	</g>
</g>
</svg>
