<svg id="Layer_1" data-name="Layer 1" xmlns="http://www.w3.org/2000/svg" viewBox="0 0 435 435"><defs><style>.cls-1{fill:#f4f4f4;}.cls-2{fill:#f79410;}.cls-3{fill:#ff5f00;}.cls-4{fill:#eb001b;}.cls-5{fill:#f79e1b;}</style></defs><title>71</title><g id="ALL"><path class="cls-1" d="M407.6,110.09a216.63,216.63,0,0,0-79.15-79.16q-50-29.16-109.18-29.17T110.09,30.93a216.55,216.55,0,0,0-79.15,79.16q-29.18,50-29.18,109.18T30.93,328.44a216.73,216.73,0,0,0,79.16,79.16q50,29.16,109.18,29.17T328.45,407.6a216.63,216.63,0,0,0,79.15-79.16q29.16-50,29.17-109.17T407.6,110.09Z" transform="translate(-1.76 -1.76)"/><g id="_71" data-name="71"><path class="cls-2" d="M390.42,286.08V281.9h-1.09l-1.26,2.87-1.25-2.87h-1.1v4.18h.78v-3.15l1.18,2.72h.8l1.18-2.73v3.16Zm-6.91,0v-3.47h1.39v-.7h-3.56v.7h1.4v3.47Z" transform="translate(-1.76 -1.76)"/><path class="cls-3" d="M266.44,304.08H172.07V134.48h94.37Z" transform="translate(-1.76 -1.76)"/><path class="cls-4" d="M178.12,219.26a107.68,107.68,0,0,1,41.19-84.79,107.86,107.86,0,1,0,0,169.59,107.68,107.68,0,0,1-41.19-84.8" transform="translate(-1.76 -1.76)"/><path class="cls-5" d="M393.72,219.26a107.86,107.86,0,0,1-174.51,84.8,107.86,107.86,0,0,0,0-169.59,107.86,107.86,0,0,1,174.51,84.79" transform="translate(-1.76 -1.76)"/></g></g></svg>