<?xml version="1.0" encoding="iso-8859-1"?>
<!-- Generator: Adobe Illustrator 22.0.1, SVG Export Plug-In . SVG Version: 6.00 Build 0)  -->
<svg version="1.1" id="Layer_1" xmlns="http://www.w3.org/2000/svg" xmlns:xlink="http://www.w3.org/1999/xlink" x="0px" y="0px"
	 viewBox="0 0 438.53 438.53" style="enable-background:new 0 0 438.53 438.53;" xml:space="preserve">
<g id="_x38_">
	<g>
		<path style="fill:#F4F4F4;" d="M407.603,110.087c-19.45-33.321-45.833-59.704-79.155-79.153
			c-33.328-19.448-69.711-29.17-109.176-29.17c-39.461,0-75.854,9.722-109.177,29.17C76.771,50.38,50.388,76.763,30.938,110.087
			c-19.451,33.326-29.173,69.72-29.173,109.178c0,39.46,9.725,75.847,29.17,109.175c19.449,33.321,45.832,59.704,79.156,79.155
			c33.326,19.447,69.717,29.17,109.177,29.17s75.854-9.723,109.179-29.17c33.322-19.444,59.704-45.834,79.152-79.155
			c19.445-33.325,29.166-69.718,29.166-109.175C436.766,179.803,427.044,143.409,407.603,110.087z M346.875,246.505
			c-6.351,29.906-22.946,56.02-45.934,74.5l-0.007-0.007h-0.001l0,0l0.007,0.007c-22.358,17.971-50.759,28.723-81.675,28.723
			c-49.683,0-92.879-27.77-114.915-68.636l0.001-0.001h-0.001c-9.921-18.401-15.548-39.454-15.548-61.826
			c0-21.634,5.261-42.035,14.587-59.999c21.713-41.863,65.454-70.464,115.876-70.464c31.655,0,60.68,11.276,83.274,30.035
			l-42.264,34.601c-11.892-7.433-25.949-11.727-41.01-11.727c-34.007,0-62.902,21.892-73.368,52.35l-0.001-0.001v0.001
			c-2.71,7.9-4.187,16.38-4.187,25.204c0.001,9.577,1.736,18.753,4.918,27.218v0.001l0,0c11.017,29.404,39.383,50.336,72.636,50.336
			c14.293,0,27.684-3.864,39.175-10.609l0.001,0.001v-0.001c15.254-8.946,27.175-22.946,33.455-39.705h-69.762v-51.612h70.78h54.536
			c1.498,7.892,2.28,16.042,2.28,24.372C349.728,228.605,348.746,237.716,346.875,246.505z"/>
		<path style="fill:#FBBB00;" d="M146.629,246.483c-3.183-8.465-4.917-17.641-4.918-27.218c0-8.824,1.477-17.304,4.187-25.204
			v-0.001l-42.5-34.794h-0.007c-9.326,17.964-14.587,38.365-14.587,59.999c0,22.372,5.627,43.425,15.548,61.826h0.001
			L146.629,246.483L146.629,246.483z"/>
		<path style="fill:#518EF8;" d="M292.913,194.893h-70.78v51.612h69.762c-6.28,16.759-18.201,30.759-33.455,39.705v0.001
			l42.493,34.787h0.001l0.007,0.007c22.988-18.48,39.583-44.594,45.934-74.5c1.871-8.788,2.853-17.899,2.853-27.24
			c0-8.33-0.781-16.48-2.28-24.372H292.913z"/>
		<path style="fill:#28B446;" d="M258.441,286.211l-0.001-0.001c-11.49,6.745-24.881,10.609-39.175,10.609
			c-33.254,0-61.619-20.932-72.636-50.336l0,0l-9.082,33.906l-33.196,0.702l-0.001,0.001
			c22.036,40.867,65.232,68.636,114.915,68.636c30.917,0,59.318-10.753,81.675-28.723l-0.007-0.007l0,0l-37.224-1.899
			L258.441,286.211z"/>
		<polygon style="fill:#28B446;" points="146.629,246.483 104.351,281.091 137.546,280.389 		"/>
		<polygon style="fill:#28B446;" points="263.709,319.098 300.933,320.998 258.441,286.211 		"/>
		<path style="fill:#F14336;" d="M132.95,164.685l12.946,29.376l0.001,0.001c10.466-30.458,39.361-52.35,73.368-52.35
			c15.06,0,29.118,4.294,41.01,11.727l42.264-34.601c-22.595-18.759-51.619-30.035-83.274-30.035
			c-50.422,0-94.163,28.601-115.876,70.464h0.007L132.95,164.685z"/>
		<polygon style="fill:#F14336;" points="103.397,159.266 145.897,194.061 132.95,164.685 		"/>
	</g>
</g>
</svg>
