<?xml version="1.0" encoding="iso-8859-1"?>
<!-- Generator: Adobe Illustrator 22.0.1, SVG Export Plug-In . SVG Version: 6.00 Build 0)  -->
<svg version="1.1" id="Layer_1" xmlns="http://www.w3.org/2000/svg" xmlns:xlink="http://www.w3.org/1999/xlink" x="0px" y="0px"
	 viewBox="0 0 438.53 438.53" style="enable-background:new 0 0 438.53 438.53;" xml:space="preserve">
<g id="_x38_9">
	<g>
		<path style="fill:#F4F4F4;" d="M279.156,177.878c-2.269,3.453-10.034,20.126-9.896,39.463c0.533,20.126,6.156,33.051,9.777,39.858
			c3.739-6.906,10.172-22.198,9.629-41.535C287.867,195.834,281.178,181.331,279.156,177.878z"/>
		<path style="fill:#F4F4F4;" d="M407.603,110.087c-19.45-33.321-45.833-59.704-79.155-79.153
			c-33.328-19.448-69.711-29.17-109.176-29.17c-39.461,0-75.854,9.722-109.177,29.17C76.771,50.38,50.388,76.763,30.938,110.087
			c-19.451,33.326-29.173,69.72-29.173,109.178c0,39.46,9.725,75.847,29.17,109.175c19.449,33.321,45.832,59.704,79.156,79.155
			c33.326,19.447,69.717,29.17,109.177,29.17s75.854-9.723,109.179-29.17c33.322-19.444,59.704-45.834,79.152-79.155
			c19.445-33.325,29.166-69.718,29.166-109.175C436.766,179.803,427.044,143.409,407.603,110.087z M252.794,100.332
			c7.488-25.651,22.218-48.836,26.243-54.854c2.545,4.242,21.014,30.485,28.384,62.747c7.36,32.261,7.222,52.092,4.015,74.783
			c-5.762,40.647-24.24,71.823-32.281,82.281c-5.485-7.103-13.911-21.606-19.534-35.024c0,0-10.586-25.75-13.388-50.809
			C243.412,154.496,244.615,129.042,252.794,100.332z M323.276,354.97c-21.942,23.382-53.137,38.082-87.767,38.082
			c-66.417,0-120.255-53.868-120.255-120.265s53.838-120.166,120.255-120.166v90.371c-17.285,0-34.57,6.512-47.751,19.732
			c-3.137,3.157-5.89,6.511-8.278,10.063c-17.719,26.243-14.966,62.254,8.278,85.438c13.181,13.22,30.466,19.732,47.751,19.732
			c17.206,0,34.412-6.511,47.583-19.534c0.059-0.099,0.128-0.197,0.197-0.197c0.059-0.099,0.118-0.099,0.178-0.197
			c13.201-13.22,13.201-34.629,0-47.751c-13.21-13.22-34.619-13.22-47.82,0c-0.049,0-0.089,0.099-0.138,0.099v-37.589h56.028h31.738
			v82.182H323.276z"/>
		<path style="fill:#F4F4F4;" d="M260.42,148.971c4.144-18.449,12.056-39.759,18.479-50.612
			c6.955,11.346,15.667,36.01,18.745,50.711c3.078,14.799,4.686,33.643,4.015,47.06c1.875-7.794,3.345-20.817,3.621-33.149
			c0.257-12.234-0.957-33.149-6.965-54.953c-6.038-21.804-17.68-42.62-19.416-45.284c-1.736,2.664-10.981,19.534-19.15,45.876
			c-2.141,7.893-6.048,25.158-6.699,41.831c-0.779,20.225,1.983,40.45,3.088,46.074C256.139,189.815,256.257,167.42,260.42,148.971z
			"/>
		<path style="fill:#0079C2;" d="M259.621,230.265c5.624,13.418,14.049,27.92,19.534,35.024
			c8.041-10.458,26.519-41.634,32.281-82.281c3.206-22.691,3.344-42.522-4.015-74.783c-7.37-32.261-25.839-58.504-28.384-62.747
			c-4.025,6.018-18.755,29.203-26.243,54.854c-8.179,28.71-9.382,54.164-6.561,79.124
			C249.035,204.515,259.621,230.265,259.621,230.265z M279.037,257.199c-3.621-6.807-9.244-19.732-9.777-39.858
			c-0.138-19.337,7.626-36.01,9.896-39.463c2.022,3.453,8.711,17.956,9.511,37.786C289.209,235.001,282.776,250.293,279.037,257.199
			z M253.051,150.451c0.651-16.673,4.558-33.938,6.699-41.831c8.169-26.342,17.413-43.212,19.15-45.876
			c1.736,2.664,13.378,23.481,19.416,45.284c6.008,21.804,7.222,42.719,6.965,54.953c-0.276,12.332-1.746,25.355-3.621,33.149
			c0.671-13.418-0.937-32.261-4.015-47.06c-3.078-14.7-11.79-39.365-18.745-50.711c-6.423,10.852-14.335,32.163-18.479,50.612
			c-4.163,18.449-4.282,40.845-4.282,47.553C255.034,190.901,252.271,170.676,253.051,150.451z"/>
		<path style="fill:#0079C2;" d="M235.509,272.787v37.589c0.049,0,0.089-0.099,0.138-0.099c13.201-13.22,34.609-13.22,47.82,0
			c13.201,13.122,13.201,34.53,0,47.751c-0.059,0.099-0.118,0.099-0.178,0.197c-0.069,0-0.138,0.099-0.197,0.197
			c-13.171,13.023-30.377,19.534-47.583,19.534c-17.285,0-34.57-6.511-47.751-19.732c-23.244-23.185-25.997-59.195-8.278-85.438
			c2.388-3.552,5.14-6.906,8.278-10.063c13.181-13.22,30.466-19.732,47.751-19.732V152.62c-66.417,0-120.255,53.769-120.255,120.166
			s53.838,120.265,120.255,120.265c34.629,0,65.825-14.7,87.767-38.082v-82.183h-31.738h-56.029V272.787z"/>
	</g>
</g>
</svg>
