<svg xmlns="http://www.w3.org/2000/svg" width="20px" height="40px" viewBox="0 0 10 10.001" fill="#ffffff">
  <path d="M117.341.71a1.534,1.534,0,0,0-2.17,0L109.09,6.792a.341.341,0,0,0-.087.15l-.8,2.887a.341.341,0,0,0,.42.42l2.887-.8a.341.341,0,0,0,.15-.087l6.082-6.082a1.536,1.536,0,0,0,0-2.17Zm-7.509,6.3,4.978-4.978,1.605,1.605-4.978,4.978Zm-.321.643,1.283,1.283-1.774.492ZM117.259,2.8l-.362.362-1.605-1.605.362-.362a.852.852,0,0,1,1.205,0l.4.4A.853.853,0,0,1,117.259,2.8Zm0,0" transform="translate(-108.188 -0.261)"/>
</svg>