<?xml version="1.0" encoding="iso-8859-1"?>
<!-- Generator: Adobe Illustrator 22.0.1, SVG Export Plug-In . SVG Version: 6.00 Build 0)  -->
<svg version="1.1" id="Layer_1" xmlns="http://www.w3.org/2000/svg" xmlns:xlink="http://www.w3.org/1999/xlink" x="0px" y="0px"
	 viewBox="0 0 48 48" style="enable-background:new 0 0 48 48;" xml:space="preserve">
<g id="crypto">
	<g>
		<path d="M38.124,27.671c-0.671-1.315-1.862-2.356-3.572-3.122c2.5-0.734,3.874-2.519,4.124-5.357
			c0.098-1.028-0.016-1.956-0.343-2.786c-0.328-0.83-0.846-1.546-1.557-2.148s-1.511-1.109-2.4-1.522s-1.928-0.787-3.117-1.122
			l1.09-5.786l-3.535-0.666l-1.06,5.625c-0.612-0.115-1.549-0.276-2.81-0.482l1.069-5.671l-3.536-0.666l-1.09,5.786
			c-0.508-0.08-1.252-0.212-2.231-0.397l-4.863-0.94l-0.71,3.765l2.548,0.48c1.163,0.219,1.746,0.868,1.749,1.946l-1.242,6.59
			c0.153,0.029,0.274,0.06,0.363,0.092l-0.368-0.069l-1.739,9.229c-0.269,0.757-0.787,1.064-1.552,0.92l-2.548-0.48L9.29,34.958
			l4.592,0.865c0.291,0.055,0.711,0.138,1.261,0.249c0.549,0.112,0.962,0.193,1.237,0.245l-1.103,5.855l3.537,0.666l1.09-5.786
			c0.64,0.137,1.572,0.32,2.797,0.551l-1.086,5.763l3.536,0.666l1.103-5.855c1.267,0.175,2.402,0.271,3.405,0.285
			c1.004,0.014,1.984-0.074,2.939-0.267c0.955-0.192,1.782-0.5,2.48-0.924c0.698-0.423,1.32-1.011,1.866-1.764
			c0.545-0.753,0.975-1.663,1.286-2.73C38.831,30.689,38.795,28.986,38.124,27.671z M24.234,14.45
			c0.107,0.02,0.41,0.073,0.909,0.159s0.914,0.156,1.244,0.21c0.331,0.054,0.771,0.157,1.321,0.308s1.009,0.301,1.377,0.45
			s0.766,0.354,1.191,0.617c0.426,0.262,0.753,0.546,0.981,0.85s0.401,0.67,0.518,1.096c0.118,0.426,0.129,0.892,0.034,1.397
			c-0.081,0.429-0.223,0.806-0.427,1.132s-0.466,0.582-0.786,0.767s-0.643,0.339-0.967,0.46c-0.324,0.121-0.722,0.193-1.193,0.215
			c-0.472,0.022-0.881,0.032-1.23,0.03c-0.348-0.002-0.777-0.039-1.287-0.112c-0.51-0.072-0.895-0.129-1.157-0.17
			s-0.618-0.109-1.068-0.201c-0.45-0.093-0.713-0.146-0.79-0.161L24.234,14.45L24.234,14.45L24.234,14.45z M30.942,31.905
			c-0.212,0.325-0.457,0.596-0.736,0.813c-0.279,0.216-0.625,0.389-1.037,0.517c-0.412,0.129-0.806,0.221-1.181,0.277
			c-0.375,0.057-0.82,0.083-1.335,0.082c-0.515-0.002-0.964-0.019-1.346-0.052c-0.382-0.032-0.835-0.086-1.36-0.161
			c-0.524-0.076-0.933-0.14-1.223-0.195c-0.291-0.055-0.658-0.128-1.1-0.219c-0.443-0.091-0.725-0.148-0.848-0.171l1.462-7.761
			c0.122,0.023,0.487,0.084,1.095,0.182c0.608,0.099,1.102,0.184,1.485,0.256c0.383,0.072,0.907,0.194,1.572,0.367
			c0.665,0.172,1.218,0.348,1.66,0.526s0.916,0.414,1.424,0.708c0.507,0.294,0.903,0.61,1.188,0.949
			c0.285,0.339,0.502,0.744,0.65,1.216c0.149,0.472,0.172,0.983,0.068,1.535C31.3,31.204,31.154,31.58,30.942,31.905z"/>
	</g>
</g>
</svg>
