<svg version="1.1" id="Layer_1" xmlns="http://www.w3.org/2000/svg" xmlns:xlink="http://www.w3.org/1999/xlink" x="0px" y="0px" viewBox="0 0 48 48" style="enable-background:new 0 0 48 48;" xml:space="preserve" fit="" height="100%" width="100%" preserveAspectRatio="xMidYMid meet" focusable="false"><g id="indices"><g><g><path d="M6.763,33.751v6.465c0,0.393,0.32,0.721,0.721,0.721h4.998c0.393,0,0.721-0.32,0.721-0.721V28.843l-3.63,3.63 C8.803,33.234,7.82,33.677,6.763,33.751z"></path><path d="M15.694,28.761v11.455c0,0.393,0.32,0.721,0.721,0.721h4.998c0.393,0,0.721-0.32,0.721-0.721v-6.743 c-1.139-0.025-2.204-0.475-3.007-1.278L15.694,28.761z"></path><path d="M24.625,32.759v7.456c0,0.393,0.32,0.721,0.721,0.721h4.998c0.393,0,0.721-0.32,0.721-0.721V26.458l-5.727,5.727 C25.117,32.407,24.879,32.595,24.625,32.759z"></path><path d="M39.513,18.002l-5.957,5.957v16.256c0,0.393,0.32,0.721,0.721,0.721h4.998c0.393,0,0.721-0.32,0.721-0.721V18.453 c-0.164-0.139-0.287-0.262-0.377-0.344L39.513,18.002z"></path><path d="M43.602,7.449c-0.238-0.254-0.598-0.385-1.057-0.385c-0.041,0-0.09,0-0.131,0c-2.327,0.107-4.646,0.221-6.973,0.328 c-0.311,0.016-0.737,0.033-1.073,0.369c-0.107,0.107-0.188,0.229-0.254,0.377c-0.344,0.746,0.139,1.229,0.369,1.458l0.582,0.59 c0.401,0.41,0.811,0.819,1.221,1.221L22.224,25.475l-6.317-6.317c-0.377-0.377-0.885-0.59-1.426-0.59 c-0.541,0-1.041,0.213-1.418,0.59l-8.415,8.407c-0.787,0.787-0.787,2.057,0,2.843l0.377,0.377c0.377,0.377,0.885,0.59,1.426,0.59 s1.041-0.213,1.418-0.59l6.612-6.612l6.317,6.317c0.377,0.377,0.885,0.59,1.426,0.59s1.041-0.213,1.426-0.59l15.863-15.863 l1.794,1.786c0.213,0.213,0.508,0.508,0.959,0.508c0.188,0,0.377-0.049,0.574-0.156c0.131-0.074,0.246-0.156,0.344-0.254 c0.352-0.352,0.418-0.803,0.434-1.155c0.066-1.508,0.139-3.015,0.213-4.531l0.107-2.27C43.962,8.079,43.856,7.711,43.602,7.449z"></path></g></g></g></svg>