<svg version="1.1" id="Layer_1" xmlns="http://www.w3.org/2000/svg" xmlns:xlink="http://www.w3.org/1999/xlink" x="0px" y="0px" viewBox="0 0 48 48" style="enable-background:new 0 0 48 48;" xml:space="preserve" fit="" height="100%" width="100%" preserveAspectRatio="xMidYMid meet" focusable="false"><g id="stocks"><g><path d="M8.392,35.681h1.597v-7.322h1.465V11.32H9.989V3.999H8.392v7.322H6.928V28.36h1.464V35.681z M17.377,41.006h1.597v-7.054 h1.464v-17.04h-1.464V9.324h-1.597v7.588h-1.465V33.95h1.465V41.006z M27.56,44.001h1.598v-7.122h1.464V19.84h-1.464v-7.521H27.56 v7.522h-1.464V36.88h1.464V44.001z M38.011,35.749h1.597v-7.388h1.464V11.32h-1.464V4.066h-1.597v7.255h-1.465V28.36h1.465V35.749 z"></path></g></g></svg>