<svg version="1.1" id="Layer_1" xmlns="http://www.w3.org/2000/svg" xmlns:xlink="http://www.w3.org/1999/xlink" x="0px" y="0px" viewBox="0 0 32 32" enable-background="new 0 0 32 32" width="16" height="16" xml:space="preserve" fit="" height="100%" width="100%" preserveAspectRatio="xMidYMid meet" focusable="false">
  <g fill="#FFF">
    <g>
      <path d="M16.001,20.25c-2.344,0-4.25-1.906-4.25-4.25c0-2.343,1.906-4.25,4.25-4.25s4.25,1.907,4.25,4.25 C20.251,18.344,18.345,20.25,16.001,20.25z M16.001,13.25c-1.517,0-2.75,1.233-2.75,2.75s1.233,2.75,2.75,2.75 s2.75-1.233,2.75-2.75S17.518,13.25,16.001,13.25z"></path></g><g><path d="M16.001,23.238L16.001,23.238c-2.729-0.001-5.302-1.062-7.246-2.988L4.465,16l4.29-4.25 c1.945-1.926,4.519-2.987,7.246-2.987c2.729,0,5.302,1.061,7.246,2.987L27.537,16l-4.29,4.25 C21.302,22.177,18.729,23.238,16.001,23.238z M6.454,16l3.357,3.186c1.661,1.646,3.859,2.553,6.189,2.553s4.528-0.907,6.19-2.553 L25.548,16l-3.357-3.186c-1.661-1.646-3.859-2.553-6.189-2.553s-4.528,0.907-6.19,2.553L6.454,16z"></path>
    </g>
  </g>
</svg>