<svg xmlns="http://www.w3.org/2000/svg" width="16" height="16" viewBox="0 0 16 16">
    <defs>
        <filter id="a2hd3g8raa" width="107.3%" height="109.9%" x="-3.6%" y="-4.5%" filterUnits="objectBoundingBox">
            <feOffset dy="2" in="SourceAlpha" result="shadowOffsetOuter1"/>
            <feGaussianBlur in="shadowOffsetOuter1" result="shadowBlurOuter1" stdDeviation="2"/>
            <feColorMatrix in="shadowBlurOuter1" result="shadowMatrixOuter1" values="0 0 0 0 0 0 0 0 0 0 0 0 0 0 0 0 0 0 0.5 0"/>
            <feMerge>
                <feMergeNode in="shadowMatrixOuter1"/>
                <feMergeNode in="SourceGraphic"/>
            </feMerge>
        </filter>
        <filter id="16q37bprkb">
            <feColorMatrix in="SourceGraphic" values="0 0 0 0 0.604575 0 0 0 0 0.671332 0 0 0 0 0.757029 0 0 0 1.000000 0"/>
        </filter>
    </defs>
    <g fill="none" fill-rule="evenodd">
        <g>
            <g filter="url(#a2hd3g8raa)" transform="translate(-546 -471) translate(248 83)">
                <g filter="url(#16q37bprkb)">
                    <g fill="#FFF" fill-rule="nonzero">
                        <path d="M4.8 3.2V1.6C4.8.72 5.52 0 6.4 0h3.2c.884 0 1.6.716 1.6 1.6v1.6h4c.442 0 .8.358.8.8 0 .442-.358.8-.8.8h-.8v9.6c0 .884-.716 1.6-1.6 1.6H3.2c-.884 0-1.6-.716-1.6-1.6V4.8H.8C.358 4.8 0 4.442 0 4c0-.442.358-.8.8-.8h4zM3.2 4.8v9.6h9.6V4.8H3.2zm6.4-1.6V1.6H6.4v1.6h3.2zM6.4 6.4c.442 0 .8.358.8.8V12c0 .442-.358.8-.8.8-.442 0-.8-.358-.8-.8V7.2c0-.442.358-.8.8-.8zm3.2 0c.442 0 .8.358.8.8V12c0 .442-.358.8-.8.8-.442 0-.8-.358-.8-.8V7.2c0-.442.358-.8.8-.8z" transform="translate(298 388)"/>
                    </g>
                </g>
            </g>
        </g>
    </g>
</svg>
