<svg width="38" height="15" viewBox="0 0 38 15" fill="none" xmlns="http://www.w3.org/2000/svg">
<rect width="38" height="15" rx="2" fill="#3C78B5"/>
<mask id="mask0_534_45857" style="mask-type:luminance" maskUnits="userSpaceOnUse" x="0" y="0" width="38" height="15">
<rect width="38" height="15" rx="2" fill="white"/>
</mask>
<g mask="url(#mask0_534_45857)">
<path d="M7.79062 7.87988H5.96445L5.95469 6.87402H7.48789C7.75807 6.87402 7.97943 6.83984 8.15195 6.77148C8.32448 6.69987 8.45306 6.59733 8.53769 6.46387C8.62559 6.32715 8.66953 6.16113 8.66953 5.96582C8.66953 5.74447 8.62721 5.56543 8.54258 5.42871C8.4612 5.29199 8.33262 5.19271 8.15684 5.13086C7.98431 5.06901 7.76133 5.03809 7.48789 5.03809H6.47227V11H5.00742V3.89062H7.48789C7.9013 3.89062 8.27077 3.92969 8.59629 4.00781C8.92506 4.08594 9.20339 4.20475 9.43125 4.36426C9.65911 4.52376 9.83327 4.72559 9.95371 4.96973C10.0742 5.21061 10.1344 5.49707 10.1344 5.8291C10.1344 6.12207 10.0676 6.39225 9.93418 6.63965C9.80397 6.88704 9.59727 7.08887 9.31406 7.24512C9.03411 7.40137 8.6679 7.48763 8.21543 7.50391L7.79062 7.87988ZM7.72715 11H5.56406L6.13535 9.85742H7.72715C7.98431 9.85742 8.19427 9.81673 8.35703 9.73535C8.51979 9.65072 8.64023 9.53678 8.71836 9.39355C8.79648 9.25033 8.83555 9.08594 8.83555 8.90039C8.83555 8.69206 8.79974 8.51139 8.72812 8.3584C8.65977 8.2054 8.54909 8.08822 8.39609 8.00684C8.2431 7.9222 8.04128 7.87988 7.79062 7.87988H6.37949L6.38926 6.87402H8.14707L8.48398 7.26953C8.91693 7.26302 9.26523 7.33952 9.52891 7.49902C9.79583 7.65527 9.98952 7.85872 10.11 8.10938C10.2337 8.36003 10.2955 8.62858 10.2955 8.91504C10.2955 9.37077 10.1962 9.75488 9.99766 10.0674C9.79909 10.3766 9.50775 10.6094 9.12363 10.7656C8.74277 10.9219 8.27728 11 7.72715 11ZM14.0848 5.10645L12.1512 11H10.5936L13.2352 3.89062H14.2264L14.0848 5.10645ZM15.6912 11L13.7527 5.10645L13.5965 3.89062H14.5975L17.2537 11H15.6912ZM15.6033 8.35352V9.50098H11.8484V8.35352H15.6033ZM21.4141 9.13965C21.4141 9.0127 21.3945 8.89876 21.3555 8.79785C21.3197 8.69368 21.2513 8.59928 21.1504 8.51465C21.0495 8.42676 20.9079 8.34049 20.7256 8.25586C20.5433 8.17122 20.3073 8.08333 20.0176 7.99219C19.6953 7.88802 19.3893 7.77083 19.0996 7.64062C18.8132 7.51042 18.5592 7.35905 18.3379 7.18652C18.1198 7.01074 17.9473 6.80729 17.8203 6.57617C17.6966 6.34505 17.6348 6.0765 17.6348 5.77051C17.6348 5.47428 17.6999 5.20573 17.8301 4.96484C17.9603 4.7207 18.1426 4.51237 18.377 4.33984C18.6113 4.16406 18.888 4.02897 19.207 3.93457C19.5293 3.84017 19.8825 3.79297 20.2666 3.79297C20.7907 3.79297 21.248 3.88737 21.6387 4.07617C22.0293 4.26497 22.332 4.52376 22.5469 4.85254C22.765 5.18132 22.874 5.55729 22.874 5.98047H21.4189C21.4189 5.77214 21.375 5.58984 21.2871 5.43359C21.2025 5.27409 21.0723 5.14876 20.8965 5.05762C20.724 4.96647 20.5059 4.9209 20.2422 4.9209C19.9883 4.9209 19.7767 4.95996 19.6074 5.03809C19.4382 5.11296 19.3112 5.21549 19.2266 5.3457C19.1419 5.47266 19.0996 5.61589 19.0996 5.77539C19.0996 5.89583 19.1289 6.00488 19.1875 6.10254C19.2493 6.2002 19.3405 6.29134 19.4609 6.37598C19.5814 6.46061 19.7295 6.54036 19.9053 6.61523C20.0811 6.6901 20.2845 6.76335 20.5156 6.83496C20.903 6.95215 21.2432 7.08398 21.5361 7.23047C21.8324 7.37695 22.0798 7.54134 22.2783 7.72363C22.4769 7.90592 22.6266 8.11263 22.7275 8.34375C22.8285 8.57487 22.8789 8.83691 22.8789 9.12988C22.8789 9.43913 22.8187 9.71582 22.6982 9.95996C22.5778 10.2041 22.4036 10.4108 22.1758 10.5801C21.9479 10.7493 21.6761 10.8779 21.3604 10.9658C21.0446 11.0537 20.6914 11.0977 20.3008 11.0977C19.9492 11.0977 19.6025 11.0521 19.2607 10.9609C18.9189 10.8665 18.6081 10.7249 18.3281 10.5361C18.0514 10.3473 17.8301 10.1064 17.6641 9.81348C17.498 9.52051 17.415 9.17383 17.415 8.77344H18.8848C18.8848 8.99479 18.9189 9.18197 18.9873 9.33496C19.0557 9.48796 19.1517 9.61165 19.2754 9.70605C19.4023 9.80046 19.5521 9.86882 19.7246 9.91113C19.9004 9.95345 20.0924 9.97461 20.3008 9.97461C20.5547 9.97461 20.763 9.9388 20.9258 9.86719C21.0918 9.79557 21.2139 9.69629 21.292 9.56934C21.3734 9.44238 21.4141 9.29915 21.4141 9.13965ZM25.2326 3.89062V11H23.7727V3.89062H25.2326ZM30.5258 8.6416H31.9857C31.9564 9.12012 31.8246 9.54492 31.5902 9.91602C31.3591 10.2871 31.0352 10.5768 30.6186 10.7852C30.2051 10.9935 29.7071 11.0977 29.1244 11.0977C28.6687 11.0977 28.2602 11.0195 27.8988 10.8633C27.5375 10.7038 27.2283 10.4759 26.9711 10.1797C26.7172 9.88346 26.5235 9.52539 26.39 9.10547C26.2566 8.68555 26.1898 8.21517 26.1898 7.69434V7.20117C26.1898 6.68034 26.2582 6.20996 26.3949 5.79004C26.5349 5.36686 26.7335 5.00716 26.9906 4.71094C27.251 4.41471 27.5619 4.18685 27.9232 4.02734C28.2846 3.86784 28.6882 3.78809 29.1342 3.78809C29.7266 3.78809 30.2263 3.89551 30.6332 4.11035C31.0434 4.3252 31.3607 4.62142 31.5854 4.99902C31.8132 5.37663 31.9499 5.80632 31.9955 6.28809H30.5307C30.5144 6.00163 30.4574 5.75911 30.3598 5.56055C30.2621 5.35872 30.114 5.20736 29.9154 5.10645C29.7201 5.00228 29.4597 4.9502 29.1342 4.9502C28.89 4.9502 28.6768 4.99577 28.4945 5.08691C28.3122 5.17806 28.1592 5.31641 28.0355 5.50195C27.9118 5.6875 27.8191 5.92188 27.7572 6.20508C27.6986 6.48503 27.6693 6.8138 27.6693 7.19141V7.69434C27.6693 8.06217 27.697 8.38607 27.7523 8.66602C27.8077 8.94271 27.8923 9.17708 28.0063 9.36914C28.1234 9.55794 28.2732 9.70117 28.4555 9.79883C28.641 9.89323 28.864 9.94043 29.1244 9.94043C29.4304 9.94043 29.6827 9.8916 29.8813 9.79395C30.0798 9.69629 30.2312 9.55143 30.3354 9.35938C30.4428 9.16732 30.5063 8.92806 30.5258 8.6416Z" fill="#B9E5FF"/>
</g>
</svg>
