<svg xmlns="http://www.w3.org/2000/svg" width="14" height="14" viewBox="0 0 14 14">
  <g fill="none" fill-rule="evenodd">
    <g>
      <g transform="translate(-1335 -679) translate(1130 94) translate(10 10) translate(10 481) translate(72 94) translate(113)">
        <path fill="#7E91A7" fill-rule="nonzero" d="M3.293 4.08c.277 0 .514-.104.71-.313.197-.21.295-.462.295-.76 0-.296-.098-.55-.295-.76-.196-.212-.433-.317-.71-.317-.277 0-.514.105-.712.316-.199.211-.298.465-.298.762s.1.55.298.759c.198.209.435.313.712.313zm-.728 7.078c.267 0 .5-.04.703-.12.201-.08.471-.196.81-.349l.112-.527c-.058.031-.152.067-.282.109-.13.04-.246.061-.348.061-.219 0-.373-.041-.462-.123-.088-.082-.133-.236-.133-.463 0-.09.014-.223.041-.398.027-.176.058-.332.092-.47l.42-1.704c.042-.156.07-.328.085-.516.016-.187.023-.318.023-.392 0-.36-.11-.652-.33-.876-.22-.225-.534-.337-.941-.337-.226 0-.465.046-.718.137-.253.092-.518.203-.794.331L.73 6.05c.082-.035.18-.072.295-.112.114-.039.226-.058.335-.058.223 0 .373.043.452.129.078.086.117.238.117.457 0 .12-.012.255-.038.401-.026.147-.057.302-.095.466l-.42 1.711c-.038.18-.065.34-.082.483-.017.143-.026.283-.026.42 0 .35.114.64.341.87.227.228.546.342.956.342z" transform="translate(4.375)"/>
        <circle cx="7" cy="7" r="7" stroke="#8191A5"/>
      </g>
    </g>
  </g>
</svg>
