<svg
xmlns="http://www.w3.org/2000/svg"
width="16"
height="16"
viewBox="0 0 32 32"
>
<g className="nc-icon-wrapper" fill="current">
    <path
        d="M29.261 6.903c.062.033.09.117.049.178l-7.51 13.94c-.24.43-.508.184-.564.14l-6.853-5.677-10.27 10.4a.138.138 0 0 1-.19 0l-1.215-1.2a.138.138 0 0 1 0-.189l11.403-11.542c.045-.045.168-.128.307-.006l6.563 5.437L27.577 6.15a.132.132 0 0 1 .179-.056zM7.587 25.895c-.34 0-.641-.134-.869-.352l5.52-5.587v4.69c0 .685-.563 1.249-1.25 1.249h-3.4zm6.569-7.879l.591-.597 5.309 4.394v2.838c0 .686-.563 1.25-1.25 1.25h-3.4c-.687 0-1.25-.564-1.25-1.25v-6.635zm8.297 4.405c.463-.196.842-.82 1.076-1.26l4.439-8.225v11.715c0 .686-.563 1.25-1.25 1.25h-3.4c-.687 0-1.25-.564-1.25-1.25v-2.096c.15-.045.25-.068.385-.134z"
        fill="current"
    />
</g>
</svg>