<svg
xmlns="http://www.w3.org/2000/svg"
width="16"
height="16"
viewBox="0 0 32 32"
>
<g className="nc-icon-wrapper" fill="current">
<path
    d="M7.691 11.195c.82 0 1.482.668 1.477 1.482l-.03 8.285a1.48 1.48 0 0 1-1.487 1.476h-.244v3.073c0 .576-.47 1.046-1.046 1.046s-1.046-.47-1.046-1.046v-3.079h-.278a1.48 1.48 0 0 1-1.476-1.487l.03-8.286a1.48 1.48 0 0 1 1.486-1.476h.238V7.21c0-.575.47-1.046 1.046-1.046s1.046.471 1.046 1.046v3.986h.284zm9.622-3.318a1.48 1.48 0 0 1 1.482 1.482v13.828a1.48 1.48 0 0 1-1.482 1.48h-.261v3.621c0 .575-.47 1.046-1.046 1.046-.575 0-1.046-.47-1.046-1.046v-3.62h-.261a1.48 1.48 0 0 1-1.482-1.481V9.359A1.48 1.48 0 0 1 14.7 7.877h.261V3.711c0-.574.47-1.046 1.046-1.046.575 0 1.046.471 1.046 1.046v4.166h.261zm9.645 3.928c.82 0 1.481.662 1.481 1.482v4.241a1.48 1.48 0 0 1-1.481 1.481h-.261v8.1c0 .575-.471 1.046-1.046 1.046-.576 0-1.046-.471-1.046-1.046v-8.1h-.262a1.48 1.48 0 0 1-1.481-1.481v-4.241a1.48 1.48 0 0 1 1.481-1.482h.262V9.766c0-.575.47-1.046 1.046-1.046.575 0 1.046.47 1.046 1.046v2.04h.261z"
    fill="current"
/>
</g>
</svg>