<svg width="48" height="48" viewBox="0 0 48 48" fill="none"
  xmlns="http://www.w3.org/2000/svg">
  <path fill-rule="evenodd" clip-rule="evenodd" d="M47.2969 4C47.6852 4 48 4.31481 48 4.70312V41.8563C48 42.2446 47.6852 42.5594 47.2969 42.5594H0.703125C0.314813 42.5594 0 42.2446 0 41.8563V40.0609C0 39.154 1.40625 39.154 1.40625 40.0609V41.1531H46.5938V35.0375H1.40625V36.4047C1.40625 37.3116 0 37.3116 0 36.4047V4.70312C0 4.31481 0.314813 4 0.703125 4H47.2969ZM46.5938 5.40625H1.40625V33.6133H46.5938V5.40625Z" />
  <path d="M30.2316 18.1416L19.2216 11.7849C18.189 11.1887 16.8516 11.9694 16.8516 13.1533V25.8665C16.8516 27.0512 18.1891 27.831 19.2216 27.2348L25.8516 23.4069C26.637 22.9535 25.9339 21.7356 25.1484 22.1891L18.5184 26.0169C18.3736 26.0671 18.2868 26.0169 18.2578 25.8665V13.1533C18.2868 13.0029 18.3737 12.9526 18.5184 13.0029L29.5283 19.3595C29.6442 19.4598 29.6442 19.5602 29.5283 19.6605L28.5233 20.2407C27.7379 20.6942 28.4411 21.9122 29.2265 21.4585L30.2315 20.8783C31.2633 20.2825 31.2639 18.7375 30.2316 18.1416Z" />
  <path fill-rule="evenodd" clip-rule="evenodd" d="M9.23489 40.1113C8.37108 40.1113 7.63458 39.564 7.34836 38.7988H5.53177C4.62483 38.7988 4.62483 37.3926 5.53177 37.3926H7.34836C7.63458 36.6274 8.37108 36.0801 9.23489 36.0801C10.0987 36.0801 10.8352 36.6274 11.1214 37.3926H42.4693C43.3762 37.3926 43.3762 38.7988 42.4693 38.7988H11.1214C10.8352 39.564 10.0987 40.1113 9.23489 40.1113ZM9.84375 38.0957C9.84375 37.7597 9.57037 37.4863 9.23438 37.4863C8.89838 37.4863 8.625 37.7597 8.625 38.0957C8.625 38.4317 8.89838 38.7051 9.23438 38.7051C9.57037 38.7051 9.84375 38.4317 9.84375 38.0957Z" />
</svg>
