<svg width="48" height="48" viewBox="0 0 48 48" fill="none"
  xmlns="http://www.w3.org/2000/svg">
  <path d="M13.0313 35H23.9996C24.5996 35 25.0856 35.4477 25.0856 36C25.0856 36.5523 24.5994 37 23.9996 37H13.0313C12.4313 37 11.9453 36.5523 11.9453 36C11.9453 35.4477 12.4316 35 13.0313 35Z" />
  <path d="M13.0313 10H40.3978C40.9978 10 41.4838 10.4477 41.4838 11C41.4838 11.5523 40.9976 12 40.3978 12H13.0313C12.4313 12 11.9453 11.5523 11.9453 11C11.9453 10.4477 12.4316 10 13.0313 10Z" />
  <path d="M29.4298 35H40.3981C40.9981 35 41.4841 35.4477 41.4841 36C41.4841 36.5523 40.9979 37 40.3981 37H29.4298C28.8298 37 28.3438 36.5523 28.3438 36C28.3438 35.4477 28.83 35 29.4298 35Z" />
  <path d="M13.0313 15H23.9996C24.5996 15 25.0856 15.4477 25.0856 16C25.0856 16.5523 24.5994 17 23.9996 17H13.0313C12.4313 17 11.9453 16.5523 11.9453 16C11.9453 15.4477 12.4316 15 13.0313 15Z" />
  <path d="M13.0313 20H23.9996C24.5996 20 25.0856 20.4477 25.0856 21C25.0856 21.5523 24.5994 22 23.9996 22H13.0313C12.4313 22 11.9453 21.5523 11.9453 21C11.9453 20.4477 12.4316 20 13.0313 20Z" />
  <path d="M13.0313 25H23.9996C24.5996 25 25.0856 25.4477 25.0856 26C25.0856 26.5523 24.5994 27 23.9996 27H13.0313C12.4313 27 11.9453 26.5523 11.9453 26C11.9453 25.4477 12.4316 25 13.0313 25Z" />
  <path d="M13.0313 30H23.9996C24.5996 30 25.0856 30.4477 25.0856 31C25.0856 31.5523 24.5994 32 23.9996 32H13.0313C12.4313 32 11.9453 31.5523 11.9453 31C11.9453 30.4477 12.4316 30 13.0313 30Z" />
  <path d="M29.4298 30H40.3981C40.9981 30 41.4841 30.4477 41.4841 31C41.4841 31.5523 40.9979 32 40.3981 32H29.4298C28.8298 32 28.3438 31.5523 28.3438 31C28.3438 30.4477 28.83 30 29.4298 30Z" />
  <path fill-rule="evenodd" clip-rule="evenodd" d="M40.3981 15H29.4298C28.83 15 28.3438 15.4477 28.3438 16V26.1C28.3438 26.6523 28.8298 27.1 29.4298 27.1H40.3981C40.9979 27.1 41.4841 26.6523 41.4841 26.1V16C41.4841 15.4477 40.9981 15 40.3981 15ZM39.3122 25.1H30.5158L30.5157 17H39.3122V25.1Z" />
  <path fill-rule="evenodd" clip-rule="evenodd" d="M5.43 9H2.1719C0.9743 9 0 9.8972 0 11V38C0 40.757 2.4358 43 5.43 43H42.57C45.5642 43 48 40.757 48 38V6C48 4.8972 47.0257 4 45.8281 4H7.6019C6.4043 4 5.43 4.8972 5.43 6V9ZM5.4298 41C3.6334 41 2.1719 39.6542 2.1719 38V11H5.4299V36.5C5.41724 36.7877 5.17462 37.0111 4.8869 37C4.2872 37 3.8009 37.4477 3.8009 38C3.8009 38.5523 4.2869 39 4.8869 39C6.3839 39 7.6018 37.8785 7.6018 36.5V6H45.8279V38C45.8279 39.6542 44.3664 41 42.57 41H5.4298Z" />
</svg>
