<svg width="48" height="48" viewBox="0 0 48 48" fill="none"
  xmlns="http://www.w3.org/2000/svg">
  <path fill-rule="evenodd" clip-rule="evenodd" d="M6 3C4.35228 3 3 4.35228 3 6V21.2H21.2V3H6ZM1 6C1 3.24772 3.24772 1 6 1H23.2V23.2H1V6Z" />
  <path fill-rule="evenodd" clip-rule="evenodd" d="M24.7998 1H41.9998C44.7521 1 46.9998 3.24772 46.9998 6V23.2H24.7998V1ZM26.7998 3V21.2H44.9998V6C44.9998 4.35228 43.6475 3 41.9998 3H26.7998Z" />
  <path fill-rule="evenodd" clip-rule="evenodd" d="M24.7998 24.7998H46.9998V41.9998C46.9998 44.7521 44.7521 46.9998 41.9998 46.9998H24.7998V24.7998ZM26.7998 26.7998V44.9998H41.9998C43.6475 44.9998 44.9998 43.6475 44.9998 41.9998V26.7998H26.7998Z" />
  <path fill-rule="evenodd" clip-rule="evenodd" d="M1 24.7998H23.2V46.9998H6C3.24772 46.9998 1 44.7521 1 41.9998V24.7998ZM3 26.7998V41.9998C3 43.6475 4.35228 44.9998 6 44.9998H21.2V26.7998H3Z" />
</svg>
