<svg width="48" height="48" viewBox="0 0 48 48" fill="none" xmlns="http://www.w3.org/2000/svg">
<path fill-rule="evenodd" clip-rule="evenodd" d="M13.7647 6H6L6 12H13.7647L13.7647 6ZM6 4C4.89543 4 4 4.89543 4 6V12C4 13.1046 4.89543 14 6 14H13.7647C14.8693 14 15.7647 13.1046 15.7647 12V6C15.7647 4.89543 14.8693 4 13.7647 4H6ZM27.8819 6H20.1172V12H27.8819V6ZM20.1172 4C19.0126 4 18.1172 4.89543 18.1172 6V12C18.1172 13.1046 19.0126 14 20.1172 14H27.8819C28.9865 14 29.8819 13.1046 29.8819 12V6C29.8819 4.89543 28.9865 4 27.8819 4H20.1172ZM34.2344 6H41.9991V12H34.2344V6ZM32.2344 6C32.2344 4.89543 33.1298 4 34.2344 4H41.9991C43.1037 4 43.9991 4.89543 43.9991 6V12C43.9991 13.1046 43.1036 14 41.9991 14H34.2344C33.1298 14 32.2344 13.1046 32.2344 12V6ZM42 18H6V22H42V18ZM42 24H6V28H42V24ZM6 34V30H42V34H6ZM6 36V40H42V36H6ZM6 16C4.89543 16 4 16.8954 4 18V40C4 41.1046 4.89543 42 6 42H42C43.1046 42 44 41.1046 44 40V18C44 16.8954 43.1046 16 42 16H6Z" />
</svg>
