<svg width="48" height="48" viewBox="0 0 48 48" fill="none"
  xmlns="http://www.w3.org/2000/svg">
  <path fill-rule="evenodd" clip-rule="evenodd" d="M6 1C6 0.447715 6.44772 0 7 0C7.55228 0 8 0.447715 8 1V10H10C11.1046 10 12 10.8954 12 12V36C12 37.1046 11.1046 38 10 38H8V47C8 47.5523 7.55228 48 7 48C6.44772 48 6 47.5523 6 47V38H4C2.89543 38 2 37.1046 2 36V12C2 10.8954 2.89543 10 4 10H6V1ZM7 36H10V12H7H4V36H7Z" />
  <path fill-rule="evenodd" clip-rule="evenodd" d="M20 11C20 10.4477 20.4477 10 21 10C21.5523 10 22 10.4477 22 11V14H24C25.1046 14 26 14.8954 26 16V28C26 29.1046 25.1046 30 24 30H22V45C22 45.5523 21.5523 46 21 46C20.4477 46 20 45.5523 20 45V30H18C16.8954 30 16 29.1046 16 28V16C16 14.8954 16.8954 14 18 14H20V11ZM21 28H24V16H21H18V28H21Z" />
  <path fill-rule="evenodd" clip-rule="evenodd" d="M46.0666 1H47V1.90952C47.0052 1.96841 47.0052 2.02768 47 2.08658V12C47 12.5523 46.5523 13 46 13C45.4477 13 45 12.5523 45 12V4.41616L34.711 14.7052C34.3205 15.0957 33.6873 15.0957 33.2968 14.7052C32.9063 14.3146 32.9063 13.6815 33.2968 13.2909L43.5877 3H36C35.4477 3 35 2.55228 35 2C35 1.44772 35.4477 1 36 1H45.9412C45.983 0.997396 46.0248 0.997396 46.0666 1Z" />
  <path fill-rule="evenodd" clip-rule="evenodd" d="M47 36.0886V36.9961H46.0925C46.0336 37.0013 45.9743 37.0013 45.9153 36.9961H36C35.4477 36.9961 35 36.5484 35 35.9961C35 35.4438 35.4477 34.9961 36 34.9961H43.5858L33.2968 24.7071C32.9063 24.3166 32.9063 23.6834 33.2968 23.2929C33.6873 22.9024 34.3205 22.9024 34.711 23.2929L45 33.5819V25.9961C45 25.4438 45.4477 24.9961 46 24.9961C46.5523 24.9961 47 25.4438 47 25.9961V35.9114C47.0052 35.9704 47.0052 36.0296 47 36.0886Z" />
</svg>
