<svg width="16" height="16" viewBox="0 0 16 16" fill="none"
  xmlns="http://www.w3.org/2000/svg">
  <path fill-rule="evenodd" clip-rule="evenodd" d="M9.66954 5.33691C9.44923 5.5459 9.18391 5.65039 8.87356 5.65039C8.56322 5.65039 8.29693 5.5459 8.07471 5.33691C7.85249 5.12793 7.74138 4.875 7.74138 4.57812C7.74138 4.28125 7.85249 4.02734 8.07471 3.81641C8.29693 3.60547 8.56322 3.5 8.87356 3.5C9.18391 3.5 9.44923 3.60547 9.66954 3.81641C9.88985 4.02734 10 4.28125 10 4.57812C10 4.875 9.88985 5.12793 9.66954 5.33691ZM8.84483 12.6084C8.61877 12.6885 8.35632 12.7285 8.05747 12.7285C7.5977 12.7285 7.24042 12.6143 6.98563 12.3857C6.73084 12.1572 6.60345 11.8672 6.60345 11.5156C6.60345 11.3789 6.61303 11.2393 6.63218 11.0967C6.65134 10.9541 6.68199 10.793 6.72414 10.6133L7.1954 8.90234C7.23755 8.73828 7.27299 8.58301 7.30172 8.43652C7.33046 8.29004 7.34483 8.15625 7.34483 8.03516C7.34483 7.81641 7.30077 7.66406 7.21264 7.57812C7.12452 7.49219 6.95594 7.44922 6.7069 7.44922C6.58429 7.44922 6.45881 7.46875 6.33046 7.50781C6.20211 7.54688 6.09195 7.58398 6 7.61914L6.12644 7.0918C6.43678 6.96289 6.73372 6.85254 7.01724 6.76074C7.30077 6.66895 7.56897 6.62305 7.82184 6.62305C8.27778 6.62305 8.62931 6.73535 8.87644 6.95996C9.12356 7.18457 9.24713 7.47656 9.24713 7.83594C9.24713 7.91016 9.23851 8.04102 9.22126 8.22852C9.20402 8.41602 9.17241 8.58789 9.12644 8.74414L8.65517 10.4492C8.61686 10.5859 8.58238 10.7422 8.55172 10.918C8.52107 11.0938 8.50575 11.2266 8.50575 11.3164C8.50575 11.543 8.55556 11.6973 8.65517 11.7793C8.75479 11.8613 8.9272 11.9023 9.17241 11.9023C9.28736 11.9023 9.41762 11.8818 9.56322 11.8408C9.70881 11.7998 9.81418 11.7637 9.87931 11.7324L9.75287 12.2598C9.37356 12.4121 9.07088 12.5283 8.84483 12.6084Z" fill="current" stroke="none" />
  <circle cx="8" cy="8" r="7.5" stroke="current" fill="none"/>
</svg>
