<svg id="Layer_1" data-name="Layer 1" xmlns="http://www.w3.org/2000/svg" viewBox="0 0 435 435"><defs><style>.cls-1{fill:#f4f4f4;}.cls-2{fill:#8ec320;}.cls-3{fill:#0086d0;}</style></defs><title>106</title><g id="ALL"><path class="cls-1" d="M407.6,110.09a216.63,216.63,0,0,0-79.15-79.16q-50-29.16-109.18-29.17T110.09,30.93a216.55,216.55,0,0,0-79.15,79.16q-29.18,50-29.18,109.18T30.93,328.44a216.73,216.73,0,0,0,79.16,79.16q50,29.16,109.18,29.17T328.45,407.6a216.63,216.63,0,0,0,79.15-79.16q29.16-50,29.17-109.17T407.6,110.09Z" transform="translate(-1.76 -1.76)"/><g id="_106" data-name="106"><path class="cls-2" d="M89.12,174.42s28.48,37.79,60,62.73c0,0,11.84,10.08,24.7-1.26,12.85-11.59,65.51-59.46,65.51-59.46s19.9-19.65,42.07-.25c0,0,46.62,41.32,72.07,76.09,0,0,1.51,1.26.25,3.53s-3.78,8.31-3.78,8.31-28-36.28-60.22-63c0,0-12.6-9.57-23.43.51s-62,56.94-70.3,63c-8.06,6.05-21.67,12.09-40.82-4.79-14.87-13.35-53.92-50.14-69.29-73.32,0,0-1.51-1.26-.25-3.78,1.26-3,3.52-8.31,3.52-8.31" transform="translate(-1.76 -1.76)"/><path class="cls-3" d="M94.92,163.08,111.3,181s2,2.52,5.79-.76,53.92-52.16,73.07-65.76c10.84-7.81,22.68-12.85,35.78-13.86a61.61,61.61,0,0,1,31.75,5.54c12.35,5.55,31,20.66,48.38,38.81a443.26,443.26,0,0,1,35,40.81c7.06,9.33,13.61,18.65,18.9,27,0,0,0-11.33-5-20.91,0,0-20.41-39.31-60.47-76.09-4-3.53-38.05-37.8-71.06-37,0,0-31-1.77-59,21.42-4.78,3.52-54.17,46.1-69.54,63" transform="translate(-1.76 -1.76)"/><path class="cls-3" d="M129.94,200.87l18.4,17.89s4.28,3.28,9.07-1.26c0,0,17.63-17.38,33-31.24,14.37-13.1,28.73-26.71,34.27-30.49,0,0,23.18-24.19,52.92-.76,0,0,40.31,31.75,80.12,85.92l1.26-6.3a13.05,13.05,0,0,0-2-10.33s-31-45.85-69.29-78.86c0,0-19.15-20.16-43.33-25.2,0,0-20.16-4.78-39.31,10.33-9.32,7.31-29.73,26.46-46.61,42.59-15.88,14.61-28.48,27.71-28.48,27.71" transform="translate(-1.76 -1.76)"/><path class="cls-3" d="M343.61,275.45l-16.38-17.89s-2-2.52-5.79.76-53.92,52.16-73.07,65.76c-11.09,7.81-22.68,12.85-35.78,13.86a61.61,61.61,0,0,1-31.75-5.54c-12.35-5.55-31-20.66-48.38-38.81a443.26,443.26,0,0,1-35-40.81c-7.06-9.33-13.61-18.65-18.9-27,0,0,0,11.33,5,20.91,0,0,20.41,39.31,60.47,76.09,3.78,3.53,38,37.8,71.06,37,0,0,31,1.77,59-21.42,4.78-3.52,54.17-46.1,69.54-63" transform="translate(-1.76 -1.76)"/><path class="cls-3" d="M308.59,237.66l-18.4-17.89s-4.28-3.28-9.07,1.26c0,0-17.63,17.38-33,31.24-14.37,13.1-28.73,26.71-34.27,30.49,0,0-23.18,24.19-52.92.76,0,0-40.31-31.75-80.12-85.92l-1.26,6.3a13.05,13.05,0,0,0,2,10.33s31,45.85,69.29,78.86c0,0,19.15,20.16,43.59,25.2,0,0,20.15,4.78,39.3-10.33,9.33-7.31,29.74-26.46,46.87-42.59,15.62-14.61,28-27.71,28-27.71" transform="translate(-1.76 -1.76)"/></g></g></svg>