<?xml version="1.0" encoding="iso-8859-1"?>
<!-- Generator: Adobe Illustrator 22.0.1, SVG Export Plug-In . SVG Version: 6.00 Build 0)  -->
<svg version="1.1" id="Layer_1" xmlns="http://www.w3.org/2000/svg" xmlns:xlink="http://www.w3.org/1999/xlink" x="0px" y="0px"
	 viewBox="0 0 438.53 438.53" style="enable-background:new 0 0 438.53 438.53;" xml:space="preserve">
<g id="_x31_07">
	<g>
		<path style="fill:#1DA1F2;" d="M407.603,110.087c-19.45-33.321-45.833-59.704-79.155-79.153
			c-33.328-19.448-69.711-29.17-109.176-29.17c-39.461,0-75.854,9.722-109.177,29.17C76.771,50.38,50.388,76.763,30.938,110.087
			c-19.451,33.326-29.173,69.72-29.173,109.178c0,39.46,9.725,75.847,29.17,109.175c19.449,33.321,45.832,59.704,79.156,79.155
			c33.326,19.447,69.717,29.17,109.177,29.17s75.854-9.723,109.179-29.17c33.322-19.444,59.704-45.834,79.152-79.155
			c19.445-33.325,29.166-69.718,29.166-109.175C436.766,179.803,427.044,143.409,407.603,110.087z M342.306,156.086l0.213,8.223
			c0,83.93-63.867,180.707-180.707,180.707c-35.87,0-69.245-10.525-97.357-28.577c4.972,0.561,10.022,0.871,15.149,0.871
			c29.756,0,57.153-10.119,78.88-27.145c-27.783-0.503-51.233-18.864-59.32-44.113c3.889,0.774,7.855,1.18,11.957,1.18
			c5.804,0,11.415-0.793,16.736-2.225c-29.041-5.843-50.942-31.518-50.942-62.28v-0.793c8.571,4.76,18.361,7.623,28.77,7.971
			c-17.026-11.376-28.248-30.82-28.248-52.857c0-11.648,3.115-22.559,8.59-31.924c31.324,38.425,78.125,63.712,130.906,66.363
			c-1.084-4.644-1.645-9.5-1.645-14.472c0-35.058,28.441-63.499,63.518-63.499c18.284,0,34.768,7.701,46.357,20.064
			c14.472-2.864,28.055-8.146,40.359-15.42c-4.759,14.801-14.801,27.261-27.918,35.116c12.847-1.529,25.075-4.953,36.47-10.003
			C365.581,136.002,354.785,147.185,342.306,156.086z"/>
		<path style="fill:#FFFFFF;" d="M365.523,98.158c-12.305,7.275-25.887,12.557-40.359,15.42
			c-11.589-12.363-28.073-20.064-46.357-20.064c-35.077,0-63.518,28.441-63.518,63.499c0,4.972,0.561,9.828,1.645,14.472
			c-52.78-2.651-99.582-27.938-130.906-66.363c-5.476,9.365-8.59,20.276-8.59,31.924c0,22.037,11.222,41.481,28.248,52.857
			c-10.409-0.348-20.199-3.212-28.77-7.971v0.793c0,30.763,21.902,56.437,50.942,62.28c-5.321,1.432-10.931,2.225-16.736,2.225
			c-4.101,0-8.068-0.406-11.957-1.18c8.087,25.249,31.537,43.609,59.32,44.113c-21.728,17.026-49.124,27.145-78.88,27.145
			c-5.127,0-10.177-0.31-15.149-0.871c28.112,18.052,61.487,28.577,97.357,28.577c116.84,0,180.707-96.777,180.707-180.707
			l-0.213-8.223c12.479-8.901,23.275-20.083,31.768-32.814c-11.396,5.05-23.623,8.474-36.47,10.003
			C350.722,125.419,360.764,112.959,365.523,98.158z"/>
	</g>
</g>
</svg>
