<?xml version="1.0" encoding="iso-8859-1"?>
<!-- Generator: Adobe Illustrator 22.0.1, SVG Export Plug-In . SVG Version: 6.00 Build 0)  -->
<svg version="1.1" id="Layer_1" xmlns="http://www.w3.org/2000/svg" xmlns:xlink="http://www.w3.org/1999/xlink" x="0px" y="0px"
	 viewBox="0 0 438.53 438.53" style="enable-background:new 0 0 438.53 438.53;" xml:space="preserve">
<g id="_x31_12">
	<g>
		<path style="fill:#F4F4F4;" d="M407.603,110.087c-19.45-33.321-45.833-59.704-79.155-79.153
			c-33.328-19.448-69.711-29.17-109.176-29.17c-39.461,0-75.854,9.722-109.177,29.17C76.771,50.38,50.388,76.763,30.938,110.087
			c-19.451,33.326-29.173,69.72-29.173,109.178c0,39.46,9.725,75.847,29.17,109.175c19.449,33.321,45.832,59.704,79.156,79.155
			c33.326,19.447,69.717,29.17,109.177,29.17s75.854-9.723,109.179-29.17c33.322-19.444,59.704-45.834,79.152-79.155
			c19.445-33.325,29.166-69.718,29.166-109.175C436.766,179.803,427.044,143.409,407.603,110.087z M206.097,362.192
			c-8.302-0.778-112.459-40.989-65.893-120.761s84.493-127.142,59.148-158.377s52.896,54.349,43.583,90.59
			s-46.436,63.117-61.872,110.591S214.398,362.97,206.097,362.192z M220.374,330.638c6.242,9.775-27.955-18.654-10.396-47.466
			c17.558-28.812,25.303-37.633,33.958-51.142c8.654-13.509,12.588-21.759,15.393-32.843c2.806-11.085,1.624-20.476-0.902-25.614
			c-5.054-10.275,4.588,4.815,8.823,16.346c4.234,11.531,4.363,14.946,4.298,25.67c-0.065,10.723-8.182,30.094-16.722,42.429
			c-8.539,12.335-14.46,18.272-23.212,31.039C222.861,301.825,214.132,320.863,220.374,330.638z M276.18,316.903
			c-29.45,26.172-29.516,30.809-33.541,37.94s-5.174-15.014,1.99-34.183c7.164-19.17,29.78-36.031,39.503-54.164
			c9.724-18.134,15.865-45.557,8.069-60.146c-7.796-14.589,1.377,1.679,7.948,12.118c6.571,10.439,10.27,18.11,10.105,35.18
			C310.091,270.718,305.63,290.732,276.18,316.903z"/>
		<path style="fill:#007FFF;" d="M181.062,284.236c15.436-47.474,52.559-74.35,61.872-110.591
			c9.313-36.241-68.928-121.824-43.583-90.59s-12.582,78.605-59.148,158.377s57.591,119.982,65.893,120.761
			C214.398,362.97,165.627,331.71,181.062,284.236z"/>
		<path style="fill:#007FFF;" d="M254.825,258.018c8.539-12.335,16.657-31.706,16.722-42.429s-0.063-14.139-4.298-25.67
			c-4.235-11.531-13.876-26.621-8.823-16.346c2.527,5.138,3.708,14.529,0.902,25.614c-2.806,11.085-6.739,19.334-15.393,32.843
			s-16.4,22.33-33.958,51.142s16.639,57.241,10.396,47.466s2.487-28.813,11.239-41.581
			C240.365,276.29,246.286,270.353,254.825,258.018z"/>
		<path style="fill:#007FFF;" d="M292.202,206.35c7.796,14.589,1.655,42.012-8.069,60.146s-32.339,34.995-39.503,54.164
			c-7.164,19.17-6.016,41.314-1.99,34.183c4.025-7.131,4.091-11.769,33.541-37.94c29.45-26.172,33.911-46.186,34.075-63.256
			s-3.534-24.741-10.105-35.18C293.578,208.029,284.406,191.762,292.202,206.35z"/>
	</g>
</g>
</svg>
