<?xml version="1.0" encoding="iso-8859-1"?>
<!-- Generator: Adobe Illustrator 22.0.1, SVG Export Plug-In . SVG Version: 6.00 Build 0)  -->
<svg version="1.1" id="Layer_1" xmlns="http://www.w3.org/2000/svg" xmlns:xlink="http://www.w3.org/1999/xlink" x="0px" y="0px"
	 viewBox="0 0 438.53 438.53" style="enable-background:new 0 0 438.53 438.53;" xml:space="preserve">
<g id="_x31_13">
	<g>
		<path style="fill:#3C3E3D;" d="M289.24,314.557c-21.022-4.221-36.28-22.856-36.28-44.309c0-0.672,0.047-1.409,0.14-2.194
			c0.108-0.908-0.454-1.762-1.33-2.023c-0.876-0.261-1.813,0.145-2.22,0.965c-4.047,8.147-4.896,13.145-4.896,15.905
			c0,20.015,16.284,36.298,36.298,36.298c2.817,0,5.626-0.326,8.352-0.971c0.86-0.204,1.462-0.977,1.445-1.861
			C290.734,315.484,290.107,314.73,289.24,314.557z"/>
		<path style="fill:#3C3E3D;" d="M407.603,110.087c-19.45-33.321-45.833-59.704-79.155-79.153
			c-33.328-19.448-69.711-29.17-109.176-29.17c-39.461,0-75.854,9.722-109.177,29.17C76.771,50.38,50.388,76.763,30.938,110.087
			c-19.451,33.326-29.173,69.72-29.173,109.178c0,39.46,9.725,75.847,29.17,109.175c19.449,33.321,45.832,59.704,79.156,79.155
			c33.326,19.447,69.717,29.17,109.177,29.17s75.854-9.723,109.179-29.17c33.322-19.444,59.704-45.834,79.152-79.155
			c19.445-33.325,29.166-69.718,29.166-109.175C436.766,179.803,427.044,143.409,407.603,110.087z M116.276,335.331
			c-7.659,0-13.868-6.209-13.868-13.868s6.209-13.868,13.868-13.868h4.784v-58.89h24.612c4.289,0,7.766-3.477,7.766-7.766
			s-3.477-7.766-7.766-7.766l-29.396-0.04c-7.659,0-13.868-6.209-13.868-13.868c0-7.66,6.209-13.868,13.868-13.868h4.784V146.5
			h24.612c4.289,0,7.766-3.477,7.766-7.766s-3.477-7.766-7.766-7.766l-29.396-0.033c-7.659,0-13.868-6.208-13.868-13.868
			c0-7.659,6.209-13.868,13.868-13.868h162.246c7.659,0,13.868,6.209,13.868,13.868s-6.209,13.868-13.868,13.868h-4.784v52.517
			l-2.795,2.998c-0.57,0.61-14.097,15.166-27.812,33.666c-19.88,26.815-29.543,47.402-29.543,62.942
			c0,21.054,9.692,39.886,24.846,52.274L116.276,335.331L116.276,335.331z M284.112,335.06c-28.678,0-52.009-23.333-52.009-52.011
			c0-11.88,8.409-29.247,24.997-51.621c12.142-16.38,24.46-29.632,24.583-29.764c0.628-0.673,1.507-1.056,2.428-1.056
			c0.92,0,1.8,0.382,2.428,1.056c0.123,0.132,12.439,13.384,24.583,29.764c16.587,22.374,24.998,39.74,25,51.621
			C336.122,311.728,312.79,335.06,284.112,335.06z"/>
		<path style="fill:#F8FFFB;" d="M213.589,283.057c0-15.539,9.663-36.127,29.543-62.942c13.715-18.5,27.242-33.055,27.812-33.666
			l2.795-2.998v-52.517h4.784c7.659,0,13.868-6.208,13.868-13.868c-0.001-7.659-6.209-13.868-13.868-13.868H116.276
			c-7.659,0-13.868,6.209-13.868,13.868s6.209,13.868,13.868,13.868l29.396,0.033c4.289,0,7.766,3.477,7.766,7.766
			s-3.477,7.766-7.766,7.766H121.06v58.898h-4.784c-7.659,0-13.868,6.208-13.868,13.868c0,7.659,6.209,13.868,13.868,13.868
			l29.396,0.04c4.289,0,7.766,3.477,7.766,7.766s-3.477,7.766-7.766,7.766H121.06v58.89h-4.784c-7.659,0-13.868,6.209-13.868,13.868
			s6.209,13.868,13.868,13.868h122.158C223.281,322.943,213.589,304.111,213.589,283.057z"/>
		<path style="fill:#F8FFFB;" d="M286.539,201.664c-0.628-0.673-1.508-1.056-2.428-1.056c-0.921,0-1.8,0.382-2.428,1.056
			c-0.124,0.132-12.441,13.384-24.583,29.764c-16.587,22.374-24.997,39.741-24.997,51.621c0,28.678,23.331,52.011,52.009,52.011
			s52.01-23.332,52.01-52.011c-0.002-11.881-8.413-29.247-25-51.621C298.978,215.048,286.662,201.796,286.539,201.664z
			 M289.305,318.228c-2.726,0.645-5.536,0.971-8.352,0.971c-20.014,0-36.298-16.283-36.298-36.298c0-2.76,0.849-7.758,4.896-15.905
			c0.407-0.819,1.344-1.225,2.22-0.965c0.875,0.261,1.438,1.114,1.33,2.023c-0.093,0.784-0.14,1.522-0.14,2.194
			c0,21.453,15.258,40.088,36.28,44.309c0.866,0.173,1.494,0.927,1.509,1.811C290.766,317.251,290.165,318.025,289.305,318.228z"/>
	</g>
</g>
</svg>
