<?xml version="1.0" encoding="iso-8859-1"?>
<!-- Generator: Adobe Illustrator 22.0.1, SVG Export Plug-In . SVG Version: 6.00 Build 0)  -->
<svg version="1.1" id="Layer_1" xmlns="http://www.w3.org/2000/svg" xmlns:xlink="http://www.w3.org/1999/xlink" x="0px" y="0px"
	 viewBox="0 0 438.53 438.53" style="enable-background:new 0 0 438.53 438.53;" xml:space="preserve">
<g id="_x31_15">
	<g>
		<path style="fill:#F4F4F4;" d="M97.846,210.606c1.505-1.019,2.55-2.437,3.366-4.039c1.95-3.828,2.701-7.941,2.889-11.673
			c0.163-2.297,0.056-4.057-0.649-5.727c-0.914-2.164-2.84-3.15-5.124-2.649c-2.691,0.59-4.32,2.474-5.479,4.77
			c-2.516,4.985-3.482,10.304-2.847,15.844C90.489,211.382,94.298,213.01,97.846,210.606z"/>
		<path style="fill:#F4F4F4;" d="M216.844,186.576c-1.536,0.364-2.716,1.264-3.698,2.439c-1.211,1.449-2.078,3.101-2.711,4.877
			c-1.189,3.334-1.739,6.783-1.876,10.688c0.02,0.426,0.02,1.231,0.101,2.028c0.302,2.973,1.745,4.722,4.163,5.007
			c1.382,0.163,2.641-0.265,3.797-1.008c1.358-0.874,2.299-2.118,3.078-3.505c2.109-3.757,2.886-7.871,3.194-12.099
			c0.129-1.769,0.139-3.544-0.418-5.267C221.623,187.107,219.532,185.939,216.844,186.576z"/>
		<path style="fill:#F4F4F4;" d="M52.601,187.092c-0.687-0.118-1.405-0.044-2.1-0.128c-0.838-0.102-1.12,0.252-1.266,1.058
			c-0.813,4.503-1.685,8.995-2.54,13.49c-0.543,2.855-1.1,5.707-1.631,8.564c-0.068,0.368-0.333,0.864,0.458,0.895
			c4.087,0.16,7.573-1.038,10.162-4.36c2.48-3.182,3.215-6.906,3.409-11.02c-0.048-0.493-0.092-1.194-0.186-1.888
			C58.385,189.877,56.357,187.737,52.601,187.092z"/>
		<path style="fill:#F4F4F4;" d="M407.603,110.087c-19.45-33.321-45.833-59.704-79.155-79.153
			c-33.328-19.448-69.711-29.17-109.176-29.17c-39.461,0-75.854,9.722-109.177,29.17C76.771,50.38,50.388,76.763,30.938,110.087
			c-19.451,33.326-29.173,69.72-29.173,109.178c0,39.46,9.725,75.847,29.17,109.175c19.449,33.321,45.832,59.704,79.156,79.155
			c33.326,19.447,69.717,29.17,109.177,29.17s75.854-9.723,109.179-29.17c33.322-19.444,59.704-45.834,79.152-79.155
			c19.445-33.325,29.166-69.718,29.166-109.175C436.766,179.803,427.044,143.409,407.603,110.087z M120.849,176.768
			c3.781,0.018,7.562,0.028,11.342-0.006c0.7-0.006,0.635,0.406,0.654,0.827c0.166,3.509,0.334,7.017,0.489,10.526
			c0.202,4.545,0.392,9.091,0.589,13.636c0.007,0.16,0.03,0.319,0.072,0.751c1.188-2.909,2.287-5.577,3.369-8.252
			c2.24-5.538,4.481-11.075,6.693-16.624c0.241-0.603,0.497-0.871,1.209-0.862c3.579,0.042,7.16,0.024,10.74-0.006
			c0.605-0.005,0.847,0.101,0.883,0.791c0.365,6.981,0.77,13.96,1.171,20.94c0.066,1.153,0.162,2.304,0.249,3.519
			c0.483-0.232,0.509-0.668,0.645-1.013c3.052-7.728,6.107-15.455,9.12-23.198c0.3-0.772,0.655-1.047,1.498-1.034
			c3.312,0.05,6.624,0.012,9.937,0.007c0.322,0,0.645,0,1.091,0c-1.152,2.618-2.249,5.116-3.35,7.611
			c-5.31,12.03-10.625,24.057-15.919,36.093c-0.232,0.527-0.475,0.764-1.087,0.761c-3.814-0.02-7.628-0.022-11.442,0.037
			c-0.844,0.013-0.962-0.315-0.998-1.038c-0.38-7.717-0.793-15.432-1.203-23.26c-0.493,0.402-0.621,0.912-0.823,1.367
			c-3.268,7.349-6.54,14.698-9.781,22.059c-0.28,0.636-0.586,0.9-1.317,0.89c-3.546-0.05-7.093-0.062-10.639-0.017
			c-0.811,0.01-0.998-0.274-1.04-1.005c-0.275-4.742-0.58-9.481-0.886-14.221c-0.512-7.944-1.032-15.887-1.546-23.831
			c-0.104-1.602-0.184-3.206-0.306-4.807C120.229,176.937,120.344,176.765,120.849,176.768z M70.04,208.834
			c-3.236,5.995-8.424,9.512-14.891,11.285c-3.016,0.827-6.097,1.156-9.221,1.135c-2.073-0.014-4.146-0.003-6.22-0.003
			c0,0.006,0,0.013,0,0.019c-3.243,0-6.487-0.014-9.73,0.012c-0.656,0.005-0.832-0.096-0.689-0.826
			c2.797-14.282,5.565-28.57,8.317-42.862c0.126-0.654,0.37-0.844,1.032-0.841c5.25,0.031,10.5-0.019,15.749,0.038
			c3.26,0.035,6.467,0.509,9.455,1.911c5.373,2.521,8.389,6.87,9.18,12.639C73.86,197.44,72.994,203.361,70.04,208.834z
			 M75.593,208.074c-2.2-11.199,4.073-24.283,14.314-29.374c6.733-3.347,13.72-3.665,20.553-0.236
			c4.572,2.295,6.815,6.422,7.822,11.291c0.332,1.607,0.499,3.237,0.512,4.917c-0.662,10.44-4.727,19.043-14.125,24.301
			c-6.87,3.844-14.164,4.239-21.311,0.553C78.777,217.163,76.557,212.98,75.593,208.074z M407.199,227.076
			c-9.381-1.834-18.815-3.333-28.294-4.564c-9.784-1.271-19.598-2.243-29.438-2.94c-10.246-0.725-20.505-1.154-30.776-1.342
			c-13.755-0.251-27.496,0.097-41.231,0.836c-10.155,0.546-20.285,1.394-30.391,2.502c-9.901,1.085-19.759,2.49-29.586,4.128
			c-15.296,2.55-30.431,5.826-45.389,9.912c-18.119,4.949-35.831,11.061-52.986,18.741c-5.332,2.387-10.606,4.901-15.771,7.636
			c-0.564,0.299-1.143,0.519-1.807,0.518c-6.826-0.01-13.651-0.006-20.477-0.007c-0.123,0-0.245-0.012-0.428-0.179
			c1.269-0.687,2.531-1.386,3.807-2.059c15.972-8.428,32.597-15.335,49.624-21.307c8.698-3.05,17.513-5.7,26.489-7.804
			c0.674-0.158,0.955-0.48,1.155-1.133c0.812-2.647,1.719-5.265,2.55-7.906c0.18-0.572,0.432-0.772,1.043-0.763
			c1.568,0.024,3.143,0.14,4.705-0.14c2.349-0.421,3.91-1.775,4.745-3.983c0.94-2.486,1.256-5.12,1.761-7.705
			c2.067-10.589,4.105-21.183,6.122-31.781c0.139-0.728,0.372-0.97,1.135-0.963c3.747,0.036,7.494,0.01,11.242-0.009
			c0.533-0.003,0.826-0.039,0.675,0.727c-2.49,12.65-4.955,25.304-7.389,37.965c-0.663,3.448-1.574,6.769-3.857,9.551
			c-0.09,0.11-0.122,0.232-0.026,0.373c7.003-1.891,14.182-2.937,21.334-4.315c-0.608-0.21-1.228-0.391-1.822-0.636
			c-5.15-2.125-8.133-6.098-9.301-11.401c-1.928-8.755,0.42-16.586,5.817-23.507c5.213-6.684,12.195-9.751,20.696-9.332
			c9.092,0.448,15.481,6.431,16.208,15.465c0.902,11.205-3.407,20.045-12.481,26.611c-0.153,0.111-0.312,0.213-0.724,0.493
			c2.273-0.253,4.241-0.477,6.211-0.689c1.762-0.19,3.523-0.391,5.289-0.534c0.587-0.047,0.847-0.193,0.971-0.837
			c1.56-8.135,3.167-16.26,4.75-24.391c0.957-4.918,1.896-9.839,2.832-14.761c0.098-0.515,0.242-0.792,0.878-0.786
			c3.747,0.034,7.495,0.041,11.242-0.013c0.737-0.01,0.884,0.395,1.091,0.893c2.878,6.935,5.759,13.868,8.64,20.802
			c0.089,0.215,0.183,0.427,0.386,0.903c0.374-1.695,0.727-3.151,1.013-4.62c1.109-5.705,2.205-11.412,3.282-17.123
			c0.118-0.626,0.338-0.851,1.017-0.843c3.509,0.041,7.018,0.019,10.599,0.019c-0.648,3.36-1.281,6.635-1.912,9.91
			c-1.758,9.117-3.511,18.236-5.285,27.35c-0.125,0.642,0.027,0.833,0.675,0.802c1.336-0.063,2.675-0.091,4.013-0.078
			c0.54,0.005,0.64-0.236,0.727-0.699c1.174-6.203,2.369-12.401,3.563-18.6c1.149-5.969,2.304-11.938,3.454-17.907
			c0.092-0.475,0.181-0.809,0.851-0.807c9.234,0.032,18.469,0.025,27.704,0.03c0.163,0,0.326,0.032,0.538,0.054
			c-0.548,2.818-1.101,5.6-1.623,8.387c-0.118,0.628-0.568,0.456-0.929,0.459c-2.777,0.022-5.554,0.028-8.33,0.038
			c-2.041,0.007-4.082,0.029-6.122,0.008c-0.495-0.005-0.705,0.136-0.791,0.634c-0.394,2.267-0.823,4.529-1.256,6.879
			c1.311,0,2.579,0,3.846,0c3.513,0,7.027,0.042,10.539-0.028c0.945-0.019,0.995,0.275,0.832,1.043
			c-0.501,2.352-0.968,4.711-1.403,7.076c-0.128,0.696-0.369,0.964-1.143,0.957c-4.516-0.043-9.034,0.001-13.55-0.033
			c-0.78-0.006-1.081,0.171-1.195,1c-0.282,2.05-0.657,4.091-1.095,6.114c-0.189,0.873,0.083,0.985,0.857,0.979
			c4.617-0.037,9.234-0.018,13.852-0.047c0.67-0.004,0.967,0.052,0.745,0.857c-0.283,1.026-0.39,2.1-0.605,3.147
			c-0.081,0.395,0.002,0.552,0.423,0.548c1.425-0.013,2.85-0.005,4.381-0.005c-1.168-2.26-1.679-4.607-1.47-7.093
			c0.014-0.167,0.018-0.334,0.031-0.501c0.065-0.848,0.294-1.307,1.374-1.276c3.477,0.1,6.958,0.031,10.437,0.048
			c0.323,0.002,0.861-0.263,0.836,0.475c-0.106,3.1,1.935,4.37,4.215,4.892c2.018,0.461,4.054,0.465,6.055-0.102
			c1.342-0.381,2.325-1.179,2.52-2.668c0.194-1.481-0.658-2.394-1.786-3.104c-1.519-0.957-3.267-1.33-4.958-1.842
			c-2.53-0.765-4.997-1.673-7.286-3.024c-5.345-3.154-6.823-7.844-5.293-13.662c1.055-4.011,3.653-6.882,7.37-8.503
			c7.369-3.214,14.889-3.333,22.263-0.051c4.665,2.076,6.943,6.313,6.61,11.262c-0.046,0.678-0.24,0.909-0.944,0.902
			c-3.58-0.034-7.16-0.019-10.74-0.011c-0.461,0.001-0.77,0.02-0.853-0.63c-0.299-2.322-1.26-3.342-3.57-3.789
			c-1.724-0.334-3.456-0.381-5.099,0.434c-1.008,0.5-1.646,1.27-1.652,2.427c-0.006,1.097,0.539,1.877,1.485,2.438
			c1.501,0.889,3.182,1.179,4.841,1.549c2.588,0.576,5.072,1.442,7.415,2.686c7.634,4.052,7.674,12.049,4.664,17.505
			c-0.697,1.263-1.616,2.357-2.781,3.494c10.458,0.983,20.738,2.103,30.974,3.593c10.251,1.492,20.435,3.326,30.536,5.668
			C408.674,227.38,408.677,227.366,407.199,227.076z"/>
		<path style="fill:#F4F4F4;" d="M251.697,199.808c-1.023,5.271-2.039,10.543-3.074,15.812c-0.112,0.572,0.002,0.782,0.624,0.72
			c1.129-0.112,2.265-0.155,3.398-0.235c2.72-0.194,5.441-0.393,8.178-0.591c-0.657-2.312-7.794-18.952-8.369-19.536
			C252.201,197.257,251.945,198.532,251.697,199.808z"/>
		<path style="fill:#01478B;" d="M122.117,206.048c0.305,4.74,0.611,9.479,0.886,14.221c0.042,0.73,0.229,1.015,1.04,1.005
			c3.546-0.045,7.093-0.033,10.639,0.017c0.731,0.01,1.037-0.254,1.317-0.89c3.241-7.361,6.513-14.71,9.781-22.059
			c0.202-0.455,0.33-0.965,0.823-1.367c0.41,7.828,0.823,15.543,1.203,23.26c0.036,0.723,0.154,1.051,0.998,1.038
			c3.813-0.059,7.628-0.057,11.442-0.037c0.612,0.003,0.855-0.234,1.087-0.761c5.295-12.036,10.61-24.064,15.919-36.093
			c1.101-2.495,2.198-4.993,3.35-7.611c-0.447,0-0.769,0-1.091,0c-3.312,0.005-6.625,0.043-9.937-0.007
			c-0.843-0.013-1.198,0.262-1.498,1.034c-3.013,7.743-6.069,15.47-9.12,23.198c-0.136,0.346-0.162,0.781-0.645,1.013
			c-0.087-1.216-0.182-2.367-0.249-3.519c-0.4-6.979-0.806-13.958-1.171-20.94c-0.036-0.69-0.278-0.796-0.883-0.791
			c-3.58,0.03-7.16,0.048-10.74,0.006c-0.712-0.008-0.969,0.259-1.209,0.862c-2.213,5.548-4.453,11.086-6.693,16.624
			c-1.082,2.675-2.181,5.343-3.369,8.252c-0.042-0.432-0.065-0.591-0.072-0.751c-0.197-4.545-0.387-9.091-0.589-13.636
			c-0.156-3.509-0.323-7.018-0.489-10.526c-0.02-0.422,0.046-0.834-0.654-0.827c-3.781,0.034-7.562,0.024-11.342,0.006
			c-0.505-0.002-0.62,0.169-0.584,0.643c0.122,1.601,0.202,3.205,0.306,4.807C121.085,190.161,121.605,198.104,122.117,206.048z"/>
		<path style="fill:#01478B;" d="M378.751,220.296c-10.236-1.49-20.515-2.61-30.974-3.593c1.166-1.137,2.084-2.231,2.781-3.494
			c3.009-5.455,2.969-13.453-4.664-17.505c-2.343-1.244-4.827-2.11-7.415-2.686c-1.66-0.369-3.34-0.66-4.841-1.549
			c-0.947-0.561-1.492-1.341-1.485-2.438c0.007-1.157,0.645-1.927,1.652-2.427c1.643-0.816,3.375-0.768,5.099-0.434
			c2.311,0.448,3.271,1.467,3.57,3.789c0.084,0.65,0.392,0.631,0.853,0.63c3.58-0.008,7.16-0.023,10.74,0.011
			c0.704,0.007,0.898-0.224,0.944-0.902c0.333-4.95-1.945-9.187-6.61-11.262c-7.374-3.281-14.894-3.162-22.263,0.051
			c-3.718,1.621-6.315,4.492-7.37,8.503c-1.53,5.818-0.052,10.509,5.293,13.662c2.289,1.351,4.756,2.258,7.286,3.024
			c1.69,0.511,3.438,0.885,4.958,1.842c1.128,0.71,1.98,1.624,1.786,3.104c-0.195,1.489-1.178,2.288-2.52,2.668
			c-2,0.567-4.036,0.563-6.055,0.102c-2.28-0.521-4.321-1.792-4.215-4.892c0.025-0.738-0.513-0.473-0.836-0.475
			c-3.479-0.018-6.961,0.052-10.437-0.048c-1.081-0.031-1.309,0.428-1.374,1.276c-0.013,0.167-0.017,0.334-0.031,0.501
			c-0.209,2.486,0.302,4.833,1.47,7.093c-1.531,0-2.956-0.008-4.381,0.005c-0.421,0.004-0.504-0.153-0.423-0.548
			c0.215-1.047,0.322-2.121,0.605-3.147c0.222-0.805-0.075-0.861-0.745-0.857c-4.617,0.03-9.234,0.011-13.852,0.047
			c-0.774,0.006-1.046-0.106-0.857-0.979c0.438-2.023,0.812-4.064,1.095-6.114c0.114-0.83,0.415-1.006,1.195-1
			c4.517,0.034,9.034-0.01,13.55,0.033c0.774,0.007,1.015-0.261,1.143-0.957c0.435-2.365,0.902-4.724,1.403-7.076
			c0.164-0.769,0.114-1.062-0.832-1.043c-3.512,0.07-7.026,0.028-10.539,0.028c-1.267,0-2.534,0-3.846,0
			c0.433-2.35,0.862-4.612,1.256-6.879c0.086-0.498,0.296-0.64,0.791-0.634c2.041,0.021,4.082-0.001,6.122-0.008
			c2.777-0.01,5.554-0.016,8.33-0.038c0.361-0.003,0.811,0.169,0.929-0.459c0.523-2.787,1.075-5.569,1.623-8.387
			c-0.212-0.022-0.375-0.054-0.538-0.054c-9.235-0.005-18.469,0.003-27.704-0.03c-0.67-0.002-0.76,0.332-0.851,0.807
			c-1.151,5.969-2.305,11.937-3.454,17.907c-1.194,6.199-2.389,12.397-3.563,18.6c-0.088,0.462-0.187,0.704-0.727,0.699
			c-1.337-0.013-2.677,0.015-4.013,0.078c-0.648,0.031-0.8-0.161-0.675-0.802c1.774-9.114,3.527-18.233,5.285-27.35
			c0.632-3.275,1.264-6.551,1.912-9.91c-3.581,0-7.09,0.022-10.599-0.019c-0.679-0.008-0.899,0.217-1.017,0.843
			c-1.077,5.711-2.172,11.418-3.282,17.123c-0.286,1.469-0.639,2.925-1.013,4.62c-0.204-0.475-0.297-0.688-0.386-0.903
			c-2.881-6.934-5.762-13.867-8.64-20.802c-0.207-0.498-0.354-0.904-1.091-0.893c-3.747,0.054-7.495,0.047-11.242,0.013
			c-0.636-0.006-0.78,0.271-0.878,0.786c-0.936,4.922-1.875,9.843-2.832,14.761c-1.582,8.13-3.19,16.256-4.75,24.391
			c-0.124,0.645-0.384,0.79-0.971,0.837c-1.766,0.143-3.527,0.345-5.289,0.534c-1.97,0.212-3.938,0.436-6.211,0.689
			c0.412-0.28,0.571-0.382,0.724-0.493c9.073-6.566,13.383-15.405,12.481-26.611c-0.727-9.035-7.117-15.018-16.208-15.465
			c-8.501-0.419-15.484,2.648-20.696,9.332c-5.397,6.921-7.746,14.751-5.817,23.507c1.168,5.303,4.151,9.276,9.301,11.401
			c0.594,0.245,1.214,0.425,1.822,0.636c-7.152,1.378-14.331,2.425-21.334,4.315c-0.096-0.14-0.064-0.263,0.026-0.373
			c2.282-2.782,3.194-6.103,3.857-9.551c2.434-12.661,4.899-25.315,7.389-37.965c0.151-0.765-0.142-0.729-0.675-0.727
			c-3.747,0.02-7.495,0.046-11.242,0.009c-0.764-0.007-0.997,0.235-1.135,0.963c-2.017,10.598-4.054,21.193-6.122,31.781
			c-0.505,2.585-0.82,5.219-1.761,7.705c-0.836,2.208-2.397,3.562-4.745,3.983c-1.563,0.28-3.137,0.164-4.705,0.14
			c-0.611-0.009-0.863,0.192-1.043,0.763c-0.831,2.642-1.738,5.259-2.55,7.906c-0.2,0.654-0.482,0.976-1.155,1.133
			c-8.975,2.104-17.791,4.754-26.489,7.804c-17.027,5.971-33.652,12.879-49.624,21.307c-1.276,0.673-2.538,1.372-3.807,2.059
			c0.183,0.167,0.305,0.179,0.428,0.179c6.826,0.001,13.651-0.003,20.477,0.007c0.664,0.001,1.243-0.219,1.807-0.518
			c5.165-2.735,10.438-5.249,15.771-7.636c17.154-7.679,34.866-13.792,52.986-18.741c14.957-4.085,30.093-7.362,45.389-9.912
			c9.827-1.638,19.685-3.043,29.586-4.128c10.107-1.108,20.236-1.956,30.391-2.502c13.735-0.739,27.475-1.087,41.231-0.836
			c10.271,0.188,20.531,0.616,30.776,1.342c9.84,0.697,19.654,1.669,29.438,2.94c9.479,1.231,18.913,2.73,28.294,4.564
			c1.479,0.289,1.476,0.304,2.088-1.113C399.186,223.622,389.001,221.788,378.751,220.296z M222.891,195.002
			c-0.308,4.228-1.085,8.341-3.194,12.099c-0.778,1.387-1.719,2.63-3.078,3.505c-1.155,0.743-2.415,1.171-3.797,1.008
			c-2.418-0.284-3.862-2.034-4.163-5.007c-0.081-0.797-0.081-1.602-0.101-2.028c0.137-3.904,0.687-7.354,1.876-10.688
			c0.634-1.776,1.501-3.428,2.711-4.877c0.982-1.175,2.162-2.075,3.698-2.439c2.689-0.637,4.78,0.531,5.629,3.16
			C223.03,191.459,223.02,193.234,222.891,195.002z M252.644,216.105c-1.133,0.081-2.269,0.123-3.398,0.235
			c-0.622,0.062-0.736-0.148-0.624-0.72c1.035-5.269,2.05-10.541,3.074-15.812c0.248-1.276,0.504-2.551,0.757-3.83
			c0.575,0.584,7.712,17.224,8.369,19.536C258.085,215.712,255.365,215.911,252.644,216.105z"/>
		<path style="fill:#01478B;" d="M63.843,178.703c-2.989-1.402-6.195-1.876-9.455-1.911c-5.249-0.057-10.5-0.007-15.749-0.038
			c-0.661-0.004-0.906,0.187-1.032,0.841c-2.752,14.291-5.52,28.579-8.317,42.862c-0.143,0.731,0.033,0.832,0.689,0.826
			c3.243-0.026,6.487-0.012,9.73-0.012c0-0.006,0-0.013,0-0.019c2.073,0,4.146-0.011,6.22,0.003
			c3.124,0.021,6.205-0.308,9.221-1.135c6.467-1.773,11.655-5.29,14.891-11.285c2.954-5.473,3.821-11.394,2.984-17.492
			C72.232,185.573,69.217,181.224,63.843,178.703z M55.683,206.61c-2.588,3.322-6.075,4.52-10.162,4.36
			c-0.791-0.031-0.526-0.528-0.458-0.895c0.531-2.857,1.088-5.709,1.631-8.564c0.855-4.495,1.727-8.987,2.54-13.49
			c0.145-0.805,0.428-1.16,1.266-1.058c0.695,0.085,1.413,0.01,2.1,0.128c3.756,0.646,5.784,2.786,6.304,6.61
			c0.094,0.694,0.139,1.395,0.186,1.888C58.898,199.704,58.163,203.428,55.683,206.61z"/>
		<path style="fill:#01478B;" d="M104.67,218.973c9.397-5.258,13.463-13.862,14.125-24.301c-0.013-1.68-0.18-3.309-0.512-4.917
			c-1.007-4.869-3.25-8.996-7.822-11.291c-6.833-3.43-13.82-3.112-20.553,0.236c-10.241,5.091-16.514,18.175-14.314,29.374
			c0.964,4.906,3.184,9.089,7.766,11.452C90.506,223.212,97.799,222.818,104.67,218.973z M92.849,191.289
			c1.159-2.295,2.787-4.179,5.479-4.77c2.284-0.501,4.21,0.485,5.124,2.649c0.705,1.67,0.812,3.43,0.649,5.727
			c-0.188,3.732-0.939,7.845-2.889,11.673c-0.816,1.602-1.862,3.019-3.366,4.039c-3.548,2.404-7.357,0.776-7.844-3.473
			C89.367,201.593,90.332,196.273,92.849,191.289z"/>
	</g>
</g>
</svg>
