<?xml version="1.0" encoding="iso-8859-1"?>
<!-- Generator: Adobe Illustrator 22.0.1, SVG Export Plug-In . SVG Version: 6.00 Build 0)  -->
<svg version="1.1" id="Layer_1" xmlns="http://www.w3.org/2000/svg" xmlns:xlink="http://www.w3.org/1999/xlink" x="0px" y="0px"
	 viewBox="0 0 438.53 438.53" style="enable-background:new 0 0 438.53 438.53;" xml:space="preserve">
<g id="_x31_16">
	<g>
		<path style="fill:#F4F4F4;" d="M347.175,177.525c-8.492-2.31-17.859-0.162-26.726-0.949l-0.125,29.511h12.863
			c7.119-0.162,15.111,0.262,20.482-4.733c3.372-3.572,4.371-8.73,3.622-13.625C356.292,182.995,351.796,178.736,347.175,177.525z"
			/>
		<path style="fill:#F4F4F4;" d="M407.603,110.087c-19.45-33.321-45.833-59.704-79.155-79.153
			c-33.328-19.448-69.711-29.17-109.176-29.17c-39.461,0-75.854,9.722-109.177,29.17C76.771,50.38,50.388,76.763,30.938,110.087
			c-19.451,33.326-29.173,69.72-29.173,109.178c0,39.46,9.725,75.847,29.17,109.175c19.449,33.321,45.832,59.704,79.156,79.155
			c33.326,19.447,69.717,29.17,109.177,29.17s75.854-9.723,109.179-29.17c33.322-19.444,59.704-45.834,79.152-79.155
			c19.445-33.325,29.166-69.718,29.166-109.175C436.766,179.803,427.044,143.409,407.603,110.087z M90.781,244.315l-56.824,0.025
			l49.58-99.348l57.074-0.025L90.781,244.315z M240.896,287.738c-25.102,16.822-63.193,17.722-89.919,3.572
			c-12.988-7.731-23.978-21.368-26.976-35.768l42.587-11.003c0.999,6.319,5.12,12.314,10.491,16.31
			c10.241,4.421,24.603,6.632,33.969-1.149c1.873-2.223,2.872-5.483,1.873-8.168c-2.248-6.731-10.366-7.618-16.235-9.629
			c-19.233-4.458-39.215-7.406-54.076-21.98c-11.989-12.626-14.487-34.244-7.493-50.192c10.491-22.73,34.594-32.458,58.697-32.396
			c25.977-0.212,52.453,10.628,62.819,35.98l1.374,3.797l-39.34,10.041c-3.122-9.054-12.614-14.574-21.855-14.937
			c-6.869,0.25-14.487,0.737-17.859,7.568c-1.249,2.847-0.999,6.257,0.999,8.68c5.245,5.42,12.364,6.307,19.358,7.581
			c24.103,4.471,55.7,12.139,60.82,41.138C263.126,256.004,257.506,276.049,240.896,287.738z M398.504,214.604
			c-15.861,27.837-47.707,27.575-77.43,27.3v55.862l-46.333,0.037l-0.125-157.995l73.933,0.362
			c18.858,1.474,37.966,5.945,48.581,23.516C406.747,177.837,406.872,199.88,398.504,214.604z"/>
		<path style="fill:#231F20;" d="M199.308,196.046c-6.994-1.274-14.112-2.161-19.358-7.581c-1.998-2.423-2.248-5.832-0.999-8.68
			c3.372-6.831,10.99-7.318,17.859-7.568c9.242,0.362,18.733,5.882,21.855,14.937l39.34-10.041l-1.374-3.797
			c-10.366-25.352-36.842-36.193-62.819-35.98c-24.103-0.062-48.207,9.666-58.697,32.396c-6.994,15.948-4.496,37.566,7.493,50.192
			c14.862,14.574,34.844,17.522,54.076,21.98c5.87,2.011,13.987,2.897,16.235,9.629c0.999,2.685,0,5.945-1.873,8.168
			c-9.367,7.78-23.729,5.57-33.969,1.149c-5.37-3.996-9.491-9.991-10.491-16.31l-42.587,11.003
			c2.997,14.4,13.987,28.037,26.976,35.768c26.726,14.15,64.817,13.251,89.919-3.572c16.61-11.69,22.23-31.734,19.233-50.555
			C255.008,208.185,223.412,200.517,199.308,196.046z"/>
		<path style="fill:#231F20;" d="M348.549,140.171l-73.933-0.362l0.125,157.995l46.333-0.037v-55.862
			c29.723,0.275,61.57,0.537,77.43-27.3c8.367-14.724,8.243-36.767-1.374-50.917C386.515,146.116,367.407,141.645,348.549,140.171z
			 M353.67,201.354c-5.37,4.995-13.363,4.571-20.482,4.733h-12.863l0.125-29.511c8.867,0.787,18.234-1.361,26.726,0.949
			c4.621,1.211,9.117,5.47,10.116,10.203C358.041,192.624,357.042,197.782,353.67,201.354z"/>
		<polygon style="fill:#EE2C30;" points="83.537,144.992 33.957,244.34 90.781,244.315 140.611,144.967 		"/>
	</g>
</g>
</svg>
