<?xml version="1.0" encoding="iso-8859-1"?>
<!-- Generator: Adobe Illustrator 22.0.1, SVG Export Plug-In . SVG Version: 6.00 Build 0)  -->
<svg version="1.1" id="Layer_1" xmlns="http://www.w3.org/2000/svg" xmlns:xlink="http://www.w3.org/1999/xlink" x="0px" y="0px"
	 viewBox="0 0 438.53 438.53" style="enable-background:new 0 0 438.53 438.53;" xml:space="preserve">
<g id="_x31_17">
	<g>
		<path style="fill:#F4F4F4;" d="M150.475,193.951c-4.021-11.132-11.238-19.313-22.253-23.948
			c-7.341-3.089-15.069-4.215-22.962-4.272c-10.98-0.079-21.961-0.017-32.941-0.051c-0.799-0.003-0.966,0.201-0.965,0.978
			c0.024,17.547,0.019,35.094,0.019,52.641c0,17.52,0.007,35.04-0.021,52.559c-0.001,0.814,0.223,0.952,0.982,0.95
			c10.245-0.027,20.49-0.028,30.734-0.015c7.061,0.009,14.023-0.692,20.792-2.813c10.497-3.288,18.592-9.548,23.802-19.338
			c3.568-6.705,5.3-13.946,6.099-21.44c0.655-6.138,0.701-12.288,0.19-18.441C153.473,205.017,152.437,199.385,150.475,193.951z
			 M131.701,236.507c-1.557,5.295-4.151,9.929-8.682,13.279c-3.49,2.58-7.482,3.918-11.71,4.664
			c-4.103,0.724-8.243,0.683-12.384,0.667c-2.18-0.008-4.36-0.03-6.539,0.015c-0.679,0.014-0.85-0.167-0.848-0.85
			c0.023-11.662,0.016-23.323,0.016-34.985c0-11.607,0.009-23.214-0.019-34.821c-0.002-0.797,0.205-0.987,0.988-0.973
			c4.467,0.083,8.938-0.118,13.401,0.158c5.381,0.333,10.563,1.419,15.24,4.27c4.804,2.929,7.925,7.212,9.861,12.413
			c2.197,5.903,2.772,12.067,2.791,18.304C133.834,224.684,133.416,230.677,131.701,236.507z"/>
		<path style="fill:#F4F4F4;" d="M216.814,166.411c-0.181-0.602-0.456-0.722-1.023-0.721c-7.874,0.017-15.748,0.018-23.622-0.002
			c-0.585-0.001-0.819,0.156-0.995,0.74c-9.834,32.705-19.689,65.404-29.542,98.104c-0.821,2.726-1.636,5.454-2.477,8.258
			c0.318,0,0.56,0,0.802,0c5.858,0,11.716-0.009,17.573,0.014c0.596,0.002,0.823-0.172,0.988-0.751
			c2.085-7.288,4.21-14.565,6.298-21.853c0.175-0.61,0.383-0.842,1.074-0.841c11.77,0.029,23.54,0.028,35.31,0.001
			c0.686-0.002,0.907,0.218,1.081,0.84c2.043,7.301,4.125,14.59,6.169,21.891c0.153,0.548,0.361,0.715,0.931,0.713
			c6.212-0.023,12.424-0.014,18.636-0.014c0.24,0,0.48,0,0.696,0c0.097-0.302-0.036-0.496-0.097-0.7
			C238.012,236.865,227.403,201.641,216.814,166.411z M216.397,232.321c-8.583-0.021-17.165-0.017-25.748-0.005
			c-0.518,0.001-0.729-0.058-0.558-0.66c4.413-15.526,8.811-31.056,13.212-46.586c0.035-0.123,0.015-0.278,0.264-0.349
			c3.737,13.065,7.465,26.101,11.193,39.136c0.732,2.56,1.449,5.125,2.207,7.678C217.144,232.132,217.085,232.322,216.397,232.321z"
			/>
		<path style="fill:#F4F4F4;" d="M308.774,198.855c-7.866-10.841-15.731-21.681-23.597-32.521c-0.234-0.322-0.405-0.647-0.932-0.646
			c-8.691,0.02-17.382,0.014-26.247,0.014c0.247,0.363,0.404,0.607,0.574,0.842c12.581,17.341,25.16,34.683,37.757,52.013
			c0.38,0.523,0.404,0.838,0.01,1.38c-12.607,17.355-25.194,34.726-37.779,52.096c-0.163,0.226-0.418,0.414-0.421,0.799
			c0.413,0,0.793,0,1.174,0c8.174,0.007,16.348,0.008,24.522,0.035c0.63,0.002,1.025-0.169,1.408-0.698
			c12.606-17.423,25.227-34.836,37.869-52.234c0.406-0.559,0.345-0.875-0.032-1.391
			C318.295,211.992,313.538,205.421,308.774,198.855z"/>
		<path style="fill:#F4F4F4;" d="M407.603,110.087c-19.45-33.321-45.833-59.704-79.155-79.153
			c-33.328-19.448-69.711-29.17-109.176-29.17c-39.461,0-75.854,9.722-109.177,29.17C76.771,50.38,50.388,76.763,30.938,110.087
			c-19.451,33.326-29.173,69.72-29.173,109.178c0,39.46,9.725,75.847,29.17,109.175c19.449,33.321,45.832,59.704,79.156,79.155
			c33.326,19.447,69.717,29.17,109.177,29.17s75.854-9.723,109.179-29.17c33.322-19.444,59.704-45.834,79.152-79.155
			c19.445-33.325,29.166-69.718,29.166-109.175C436.766,179.803,427.044,143.409,407.603,110.087z M341.083,278.773
			c-0.558,0.001-0.76-0.31-1.012-0.658c-7.078-9.765-14.155-19.53-21.234-29.295c-1.677-2.313-3.355-4.625-5.075-6.994
			c-1.566,2.156-3.098,4.261-4.626,6.37c-7.221,9.964-14.445,19.925-21.65,29.9c-0.359,0.498-0.725,0.674-1.336,0.674
			c-73.3-0.015-146.599-0.016-219.899,0.006c-0.818,0-0.956-0.233-0.956-0.992c0.02-39.02,0.02-78.041-0.002-117.061
			c0-0.783,0.172-0.968,0.963-0.968c73.3,0.021,146.599,0.02,219.899,0.007c0.601,0,0.971,0.155,1.339,0.664
			c8.578,11.872,17.179,23.727,25.776,35.585c0.143,0.197,0.295,0.388,0.446,0.587c0.307-0.146,0.423-0.434,0.591-0.666
			c8.6-11.856,17.198-23.713,25.786-35.578c0.274-0.379,0.528-0.594,1.042-0.593c10.491,0.018,20.982,0.013,31.473,0.013
			c0.158,0,0.315,0,0.497,0c-0.042,0.37-0.285,0.565-0.451,0.794c-13.992,19.312-27.986,38.623-42,57.919
			c-0.421,0.58-0.447,0.925-0.015,1.519c13.999,19.272,27.975,38.561,41.955,57.847c0.187,0.258,0.37,0.518,0.644,0.902
			C362.391,278.755,351.737,278.749,341.083,278.773z"/>
		<path style="fill:#000198;" d="M330.638,220.007c-0.432-0.594-0.406-0.939,0.015-1.519c14.014-19.296,28.008-38.607,42-57.919
			c0.166-0.23,0.409-0.424,0.451-0.794c-0.181,0-0.339,0-0.497,0c-10.491,0-20.982,0.004-31.473-0.013
			c-0.514-0.001-0.768,0.215-1.042,0.593c-8.588,11.865-17.185,23.722-25.786,35.578c-0.168,0.232-0.284,0.52-0.591,0.666
			c-0.151-0.199-0.303-0.39-0.446-0.587c-8.597-11.858-17.198-23.713-25.776-35.585c-0.368-0.509-0.738-0.664-1.339-0.664
			c-73.3,0.013-146.599,0.014-219.899-0.007c-0.791,0-0.964,0.185-0.963,0.968c0.022,39.02,0.022,78.041,0.002,117.061
			c0,0.759,0.138,0.992,0.956,0.992c73.3-0.022,146.599-0.021,219.899-0.006c0.611,0,0.977-0.176,1.336-0.674
			c7.205-9.975,14.429-19.937,21.65-29.9c1.528-2.109,3.06-4.214,4.626-6.37c1.719,2.37,3.398,4.681,5.075,6.994
			c7.078,9.765,14.156,19.53,21.234,29.295c0.252,0.348,0.454,0.659,1.012,0.658c10.654-0.023,21.308-0.017,32.154-0.017
			c-0.274-0.384-0.458-0.644-0.644-0.902C358.613,258.567,344.636,239.279,330.638,220.007z M153.761,229.203
			c-0.799,7.493-2.531,14.734-6.099,21.44c-5.21,9.79-13.305,16.05-23.802,19.338c-6.769,2.12-13.731,2.821-20.792,2.813
			c-10.245-0.013-20.49-0.012-30.734,0.015c-0.759,0.002-0.984-0.136-0.982-0.95c0.028-17.52,0.021-35.04,0.021-52.559
			c0-17.547,0.006-35.094-0.019-52.641c-0.001-0.777,0.165-0.98,0.965-0.978c10.98,0.034,21.961-0.029,32.941,0.051
			c7.893,0.057,15.621,1.182,22.962,4.272c11.015,4.635,18.232,12.815,22.253,23.948c1.963,5.434,2.998,11.066,3.475,16.811
			C154.461,216.916,154.415,223.065,153.761,229.203z M248.715,272.79c-0.216,0-0.456,0-0.696,0c-6.212,0-12.424-0.009-18.636,0.014
			c-0.57,0.002-0.777-0.165-0.931-0.713c-2.044-7.3-4.126-14.59-6.169-21.891c-0.174-0.622-0.395-0.841-1.081-0.84
			c-11.77,0.027-23.54,0.028-35.31-0.001c-0.691-0.002-0.899,0.23-1.074,0.841c-2.088,7.288-4.213,14.564-6.298,21.853
			c-0.166,0.579-0.392,0.753-0.988,0.751c-5.858-0.024-11.716-0.014-17.573-0.014c-0.242,0-0.484,0-0.802,0
			c0.841-2.803,1.656-5.531,2.477-8.258c9.852-32.7,19.708-65.399,29.542-98.104c0.176-0.584,0.41-0.742,0.995-0.74
			c7.874,0.02,15.748,0.019,23.622,0.002c0.568-0.001,0.842,0.119,1.023,0.721c10.589,35.23,21.198,70.454,31.804,105.68
			C248.679,272.295,248.812,272.489,248.715,272.79z M323.11,219.935c-12.641,17.398-25.263,34.81-37.869,52.234
			c-0.382,0.528-0.778,0.7-1.408,0.698c-8.174-0.027-16.348-0.028-24.522-0.035c-0.38,0-0.76,0-1.174,0
			c0.003-0.384,0.258-0.573,0.421-0.799c12.586-17.371,25.172-34.741,37.779-52.096c0.394-0.542,0.37-0.857-0.01-1.38
			c-12.597-17.329-25.176-34.672-37.757-52.013c-0.17-0.235-0.327-0.479-0.574-0.842c8.865,0,17.556,0.006,26.247-0.014
			c0.527-0.001,0.699,0.324,0.932,0.646c7.866,10.84,15.732,21.68,23.597,32.521c4.764,6.566,9.521,13.137,14.304,19.689
			C323.455,219.06,323.516,219.376,323.11,219.935z"/>
		<path style="fill:#000198;" d="M121.163,187.932c-4.677-2.851-9.859-3.938-15.24-4.27c-4.463-0.276-8.935-0.074-13.401-0.158
			c-0.783-0.015-0.99,0.175-0.988,0.973c0.028,11.607,0.019,23.214,0.019,34.821c0,11.662,0.006,23.323-0.016,34.985
			c-0.001,0.683,0.17,0.864,0.848,0.85c2.179-0.045,4.359-0.023,6.539-0.015c4.141,0.016,8.281,0.057,12.384-0.667
			c4.229-0.746,8.22-2.084,11.71-4.664c4.531-3.35,7.125-7.983,8.682-13.279c1.715-5.831,2.133-11.823,2.114-17.859
			c-0.019-6.236-0.594-12.4-2.791-18.304C129.089,195.144,125.968,190.86,121.163,187.932z"/>
		<path style="fill:#000198;" d="M214.759,223.856c-3.728-13.035-7.456-26.07-11.193-39.136c-0.249,0.071-0.229,0.226-0.264,0.349
			c-4.401,15.53-8.799,31.06-13.212,46.586c-0.171,0.602,0.04,0.661,0.558,0.66c8.583-0.012,17.165-0.016,25.748,0.005
			c0.688,0.002,0.747-0.189,0.569-0.787C216.208,228.981,215.491,226.416,214.759,223.856z"/>
	</g>
</g>
</svg>
