<?xml version="1.0" encoding="iso-8859-1"?>
<!-- Generator: Adobe Illustrator 22.0.1, SVG Export Plug-In . SVG Version: 6.00 Build 0)  -->
<svg version="1.1" id="Layer_1" xmlns="http://www.w3.org/2000/svg" xmlns:xlink="http://www.w3.org/1999/xlink" x="0px" y="0px"
	 viewBox="0 0 438.53 438.53" style="enable-background:new 0 0 438.53 438.53;" xml:space="preserve">
<g id="_x31_22">
	<g>
		<path style="fill:#3480CB;" d="M211.876,191.357c-0.135-1.051-0.376-1.916-0.693-2.648
			C211.11,189.637,211.102,190.571,211.876,191.357z"/>
		<path style="fill:#3480CB;" d="M239.635,217.512c-1.034-1.266-0.69-2.827-0.921-4.267c-1.358-8.451-5.933-12.61-13.647-12.913
			c-4.903-0.193-8.837,2.192-13.001,4.08c0.022,13.304,0.043,26.607,0.067,39.911c0.001,0,0.001,0.001,0.002,0.001
			c14.4,3.917,25.945-0.707,27.02-16.293c0.02-0.294,0.32-0.569,0.49-0.853c-0.002-3.221-0.005-6.442-0.008-9.662
			C239.636,217.515,239.635,217.514,239.635,217.512z"/>
		<path style="fill:#3480CB;" d="M69.845,183.491c-0.264-0.522-0.475-1.048-0.656-1.577
			C69.272,182.458,69.453,182.989,69.845,183.491z"/>
		<path style="fill:#3480CB;" d="M407.603,110.087c-19.45-33.321-45.833-59.704-79.155-79.153
			c-33.328-19.448-69.711-29.17-109.176-29.17c-39.461,0-75.854,9.722-109.177,29.17C76.771,50.38,50.388,76.763,30.938,110.087
			c-19.451,33.326-29.173,69.72-29.173,109.178c0,39.46,9.725,75.847,29.17,109.175c19.449,33.321,45.832,59.704,79.156,79.155
			c33.326,19.447,69.717,29.17,109.177,29.17s75.854-9.723,109.179-29.17c33.322-19.444,59.704-45.834,79.152-79.155
			c19.445-33.325,29.166-69.718,29.166-109.175C436.766,179.803,427.044,143.409,407.603,110.087z M85.508,246.518
			c1.437-0.322,2.873-0.648,4.31-0.973l0,0l0,0c1.391-0.479,3.467-2.284,3.669,0.714c0.318,4.748,0.011,9.542-0.151,14.313
			c-0.013,0.392-0.941,0.754-1.444,1.13c-2.96,1.042-5.969,1.817-9.147,1.649c-0.001,0-0.002,0-0.002,0c0.001,0,0.002,0,0.003,0.001
			c-5.289,0.443-10.579,0.39-15.869,0.014c-11.841-0.894-18.882-7.159-21.081-18.841c-0.025-27.333-0.05-54.667-0.075-82
			c0-0.333-0.001-0.667-0.001-1c6.801-0.03,13.605,0.037,20.402-0.138c2.789-0.072,3.807,0.861,3.738,3.693
			c-0.15,6.134-0.026,12.275-0.013,18.413c6.461,0.038,12.925,0.202,19.383,0.059c3.193-0.071,4.315,1.017,4.413,4.275
			c0.384,12.806,0.484,12.81-12.049,12.81c-3.81,0-7.62-0.055-11.429-0.085c-0.001,0-0.002,0.001-0.003,0.002
			c-0.088,12.607-0.179,25.214-0.27,37.822C72.854,246.453,76.741,248.481,85.508,246.518z M178.909,229.563l-0.001,0.001
			c-0.088,1.259-0.177,2.517-0.265,3.775c-2.014,16.966-15.693,30.249-31.891,30.969c-0.001,0-0.001,0-0.002,0
			c0.001,0,0.002,0,0.002,0.001c-4.631,0.514-9.263,0.448-13.896,0.046c-17.941-0.757-32.838-16.53-32.987-34.926v-0.001v0.001
			c0.004-4.301,0.008-8.601,0.011-12.902c0.561-19.275,15.436-34.148,34.933-34.93h0.001h-0.001c3.285-0.004,6.57-0.009,9.854-0.014
			c17.823,0.602,32.003,13.906,33.976,31.876l0,0l0,0c0.074,0.917,0.149,1.833,0.223,2.749l0,0
			C180.203,220.656,180.199,225.107,178.909,229.563z M263.659,229.266c-0.629,16.345-12.048,30.742-26.917,33.938h-0.001
			c0,0,0.001,0,0.002,0c-3.621,0.463-7.243,0.356-10.865,0.009l0,0l0,0c-5.001-0.417-9.316-2.797-13.76-4.805
			c-0.001,0.001-0.001,0.001-0.002,0.002c-0.092,10.653-0.186,21.307-0.279,31.96c0.001,0.333,0.001,0.667,0.002,1
			c-8,0.007-16,0.015-24,0.022c-0.032-34.1,0.037-68.201-0.211-102.299c-0.035-4.76,1.448-6.193,5.904-5.665
			c6.012,0.712,12.177-1.204,18.122,0.977h0.001c0.073,2.317,0.147,4.634,0.221,6.951c3.921-2.415,7.782-4.936,11.794-7.19
			c1.538-0.864,3.419-1.118,5.143-1.649l0,0c0,0,0,0-0.001-0.001c0.929-0.077,1.857-0.154,2.785-0.232l0,0
			c8.797-2.364,19.814,1.925,24.979,9.684c4.726,7.1,7.085,14.89,7.085,23.407c0,0.001,0,0.001,0,0.002c0-0.001,0-0.002,0.001-0.002
			C264.038,220.007,264.162,224.637,263.659,229.266z M297.921,228.375c-0.012,10.97-0.08,21.941-0.124,32.911
			c-7.276,2.274-14.727,0.633-22.089,0.867c-2.822,0.09-1.821-2.731-1.827-4.323c-0.087-21.986-0.122-43.972-0.057-65.957
			c0.008-2.557-0.917-5.299,0.842-7.695c0.001,0,0.002,0,0.003,0c6.889-1.508,13.862-0.419,20.794-0.618
			c3.211-0.092,2.389,2.605,2.398,4.414C297.927,201.441,297.936,214.908,297.921,228.375z M287.24,172.194
			c-5.797,0.824-11.634-3.472-13.461-9.909c-0.551-9.669,3.657-14.849,14.091-15.147c6.983,1.173,10.9,6.505,10.7,12.257
			C298.365,165.309,292.995,171.375,287.24,172.194z M369.324,262.309c-3.711,0.143-5.82-1.308-7.627-4.302
			c-2.922-4.842-6.345-9.388-9.172-14.281c-2.359-4.084-3.75-3.289-5.855,0.188c-3.101,5.121-6.703,9.937-9.891,15.009
			c-1.477,2.351-3.139,3.437-6.04,3.361c-7.625-0.199-15.259-0.055-23.844-0.048c6.069-8.399,11.678-16.15,17.274-23.911
			c2.92-4.049,5.625-8.272,8.788-12.12c2.148-2.612,1.71-4.462-0.125-6.951c-7.307-9.912-14.432-19.958-21.62-29.958
			c-1.148-1.598-2.274-3.212-4.116-5.816c9.681-0.009,18.388-0.086,27.091,0.029c1.892,0.025,2.497,2.056,3.4,3.386
			c4.099,6.036,8.117,12.126,12.414,18.572c5.155-7.377,9.969-14.267,14.784-21.156l0,0l0,0c4.978-1.881,10.143-0.518,15.212-0.837
			c3.813-0.24,7.65-0.112,11.476-0.147c0.359,1.059-0.103,1.829-0.741,2.537c1.126,2.005-0.935,3.476-1.966,4.914
			c-6.475,9.023-12.987,18.027-19.684,26.882c-2.758,3.647-2.366,6.326,0.211,9.679c6.869,8.937,12.964,18.441,19.707,27.474
			c1.495,2.003,2.544,4.258,3.81,6.389c0,0.333,0.001,0.667,0.001,1C384.981,262.209,377.143,262.007,369.324,262.309z"/>
		<path style="fill:#3480CB;" d="M142.661,198.503c-1.927,0.012-3.853,0.023-5.779,0.035c0,0-0.001,0-0.001,0.001
			c-5.268,1.473-9.099,4.497-10.734,9.91c-0.709,2.347-1.451,4.683-2.179,7.025c-0.034,5.289-0.068,10.578-0.101,15.866
			c0,0.001,0,0.002,0,0.003c1.169,1.198,0.76,2.826,1.155,4.236c1.83,6.541,7.57,12.445,11.917,12.24
			c9.678-0.457,15.059-4.212,16.581-12.626c1.292-7.145,1.871-14.386,0.427-21.726C152.573,206.485,149.734,201,142.661,198.503z"/>
		<path style="fill:#FFFFFF;" d="M389,254.816c-6.743-9.034-12.837-18.537-19.707-27.474c-2.578-3.354-2.97-6.032-0.211-9.679
			c6.697-8.855,13.209-17.859,19.684-26.882c1.032-1.438,3.092-2.91,1.966-4.914c-0.079,0.088-0.16,0.175-0.244,0.262
			c-6.443-2.01-13.054-0.37-19.561-0.923c-2.058-0.175-4.299,0.782-6.142-0.892l0,0c-4.814,6.889-9.628,13.779-14.784,21.156
			c-4.297-6.446-8.315-12.537-12.414-18.572c-0.903-1.33-1.508-3.361-3.4-3.386c-8.704-0.115-17.41-0.038-27.091-0.029
			c1.842,2.604,2.968,4.218,4.116,5.816c7.188,10,14.313,20.046,21.62,29.958c1.835,2.489,2.273,4.339,0.125,6.951
			c-3.164,3.847-5.869,8.07-8.788,12.12c-5.596,7.761-11.205,15.512-17.274,23.911c8.585-0.008,16.219-0.151,23.844,0.048
			c2.901,0.076,4.562-1.01,6.04-3.361c3.188-5.072,6.79-9.887,9.891-15.009c2.105-3.477,3.496-4.272,5.855-0.188
			c2.827,4.893,6.25,9.439,9.172,14.281c1.806,2.993,3.916,4.445,7.627,4.302c7.819-0.302,15.657-0.1,23.487-0.104
			c0-0.333-0.001-0.667-0.001-1C391.544,259.073,390.495,256.819,389,254.816z"/>
		<path style="fill:#FFFFFF;" d="M68.788,237.568c-0.012-11.55-0.013-23.1-0.012-34.649c0-1.049,0.282-1.952,1.384-2.368v0.001
			c0.001,0,0.002-0.001,0.003-0.002c3.81,0.03,7.62,0.085,11.429,0.085c12.533,0.001,12.433-0.004,12.049-12.81
			c-0.098-3.257-1.22-4.345-4.413-4.275c-6.457,0.143-12.921-0.022-19.383-0.059c-0.392-0.502-0.574-1.033-0.656-1.577
			c-1.51-4.41-0.377-9.043-0.301-13.502c0.083-4.895-1.467-6.339-6.213-5.997c-5.625,0.404-11.302,0.104-16.956,0.109
			c0.025,27.333,0.05,54.667,0.075,82c2.199,11.682,9.24,17.947,21.081,18.841c5.288-1.377,10.576-1.384,15.866-0.014
			c0.001,0,0.002,0,0.002,0c3.178,0.169,6.187-0.606,9.147-1.649c-0.031-3.807-0.179-7.617-0.044-11.418
			c0.071-2.008-0.512-3.518-2.029-4.738l0,0c-1.437,0.324-2.873,0.651-4.31,0.973c-8.767,1.963-12.655-0.065-15.618-8.145
			C68.947,238.894,68.789,238.268,68.788,237.568z"/>
		<path style="fill:#BDBDBD;" d="M194.406,290.47c-4.256,0.273-5.707-0.868-5.683-5.434c0.177-33.216,0.059-66.433,0.034-99.65l0,0
			l0,0l0,0l0,0c4.719-2.059,9.675-0.551,14.508-0.935c2.78-0.221,5.591-0.043,8.388-0.044c-5.945-2.181-12.11-0.265-18.122-0.977
			c-4.456-0.528-5.939,0.905-5.904,5.665c0.248,34.098,0.179,68.199,0.211,102.299c8-0.007,16-0.015,24-0.022
			c0-0.333-0.001-0.667-0.002-1c-0.331,0.004-0.663-0.001-0.994-0.017C205.362,290.365,199.865,290.119,194.406,290.47z"/>
		<path style="fill:#A4A4A4;" d="M66.593,162.009c2.406-0.115,2.647,1.304,2.629,3.177c-0.043,4.495-0.065,8.991,0.028,13.484
			c0.022,1.065-0.222,2.181-0.06,3.244c0.181,0.529,0.392,1.055,0.656,1.577c-0.012-6.138-0.137-12.279,0.013-18.413
			c0.069-2.832-0.949-3.765-3.738-3.693c-6.797,0.175-13.601,0.108-20.402,0.138c0,0.333,0.001,0.667,0.001,1
			C52.655,161.421,59.64,162.342,66.593,162.009z"/>
		<path style="fill:#A4A4A4;" d="M62.675,162.414c4.746-0.341,6.296,1.102,6.213,5.997c-0.076,4.459-1.209,9.093,0.301,13.502
			c-0.162-1.064,0.082-2.18,0.06-3.244c-0.093-4.493-0.071-8.99-0.028-13.484c0.018-1.873-0.223-3.292-2.629-3.177
			c-6.953,0.334-13.938-0.587-20.873,0.515C51.374,162.518,57.05,162.818,62.675,162.414z"/>
		<path style="fill:#FFFFFF;" d="M296.841,255.608c-0.076-21.785-0.171-43.571-0.009-65.354c0.03-3.977-1.173-5.01-5.077-5.09
			c-5.688-0.116-11.531,1.516-17.087-0.984c0.001,0,0.002,0,0.003,0c-0.001,0-0.002,0-0.003,0c-1.758,2.396-0.834,5.137-0.842,7.695
			c-0.066,21.986-0.03,43.972,0.057,65.957c0.006,1.593-0.994,4.413,1.827,4.323c7.362-0.234,14.813,1.407,22.089-0.867
			C296.088,259.635,296.847,257.511,296.841,255.608z"/>
		<path style="fill:#FC7B04;" d="M287.87,147.137c-10.433,0.298-14.642,5.479-14.091,15.147c1.827,6.437,7.663,10.734,13.461,9.909
			c5.755-0.819,11.125-6.885,11.33-12.8C298.77,153.642,294.853,148.31,287.87,147.137z"/>
		<path style="fill:#A9A9A9;" d="M295.463,183.561c-6.931,0.199-13.904-0.89-20.794,0.618c5.303,0.288,10.61,0.081,15.915,0.117
			c6.635,0.045,6.639,0.025,6.645,6.44c0.022,21.728,0.028,43.456,0.085,65.183c0.005,1.788-0.467,3.652,0.483,5.367
			c0.043-10.97,0.112-21.941,0.124-32.911c0.014-13.467,0.006-26.934-0.06-40.401C297.853,186.166,298.674,183.469,295.463,183.561z
			"/>
		<path style="fill:#A9A9A9;" d="M297.315,255.919c-0.057-21.728-0.063-43.456-0.085-65.183c-0.006-6.416-0.01-6.395-6.645-6.44
			c-5.305-0.036-10.612,0.171-15.915-0.117c-0.001,0-0.002,0-0.003,0c5.556,2.501,11.399,0.869,17.087,0.984
			c3.905,0.079,5.107,1.113,5.077,5.09c-0.162,21.784-0.067,43.569,0.009,65.354c0.007,1.904-0.753,4.027,0.957,5.679
			C296.847,259.571,297.319,257.707,297.315,255.919z"/>
		<path style="fill:#A5A5A5;" d="M389.936,184.86c0.362,0.351,0.616,0.685,0.797,1.006c0.638-0.708,1.1-1.479,0.741-2.537
			c-3.826,0.036-7.663-0.093-11.476,0.147c-5.069,0.319-10.234-1.044-15.212,0.837l0,0
			C373.171,184.513,381.583,183.476,389.936,184.86z"/>
		<path style="fill:#A5A5A5;" d="M370.928,185.205c6.507,0.552,13.119-1.087,19.561,0.923c0.083-0.086,0.165-0.174,0.244-0.262
			c-0.18-0.321-0.435-0.655-0.797-1.006c-8.352-1.384-16.765-0.347-25.15-0.547C366.629,185.987,368.87,185.03,370.928,185.205z"/>
		<path style="fill:#A4A4A4;" d="M69.272,203.548c-0.042,11.046,0.003,22.091-0.016,33.137c-0.001,0.671-0.039,1.297,0.634,1.688
			c0.091-12.607,0.182-25.215,0.27-37.822C68.651,201.181,69.276,202.524,69.272,203.548z"/>
		<path style="fill:#A4A4A4;" d="M69.256,236.686c0.019-11.046-0.025-22.092,0.016-33.137c0.004-1.024-0.621-2.367,0.888-2.997
			v-0.001c-1.102,0.417-1.384,1.319-1.384,2.368c-0.001,11.55-0.001,23.1,0.012,34.649c0.001,0.7,0.159,1.326,1.102,0.805
			C69.217,237.983,69.255,237.356,69.256,236.686z"/>
		<path style="fill:#A9A9A9;" d="M92.681,248.429c-0.132,4.43,0.983,8.94-0.789,13.272c0.503-0.376,1.43-0.737,1.444-1.13
			c0.162-4.771,0.47-9.565,0.151-14.313c-0.201-2.998-2.278-1.193-3.669-0.714l0,0C91.399,245.888,92.736,246.594,92.681,248.429z"
			/>
		<path style="fill:#A9A9A9;" d="M91.848,250.283c-0.135,3.801,0.013,7.611,0.044,11.418c1.772-4.332,0.657-8.842,0.789-13.272
			c0.055-1.835-1.282-2.541-2.862-2.884C91.336,246.765,91.919,248.276,91.848,250.283z"/>
		<path style="fill:#A4A4A4;" d="M211.333,263.033c-0.346,8.888,0.519,17.798-0.432,26.677c0.327,0.196,0.642,0.411,0.935,0.661
			c0.094-10.654,0.187-21.307,0.279-31.96C210.516,259.715,211.393,261.49,211.333,263.033z"/>
		<path style="fill:#A4A4A4;" d="M210.843,290.354c0.331,0.015,0.662,0.021,0.994,0.017c-0.292-0.25-0.608-0.465-0.935-0.661
			C210.879,289.924,210.868,290.139,210.843,290.354z"/>
		<path style="fill:#A4A4A4;" d="M210.108,185.104c0.824,0.364,1.156,1.174,1.149,2.454c-0.002,0.375-0.043,0.763-0.074,1.151
			c0.317,0.733,0.558,1.597,0.693,2.648c-0.074-2.317-0.148-4.634-0.221-6.951h-0.001l0,0
			C211.143,184.691,210.627,184.914,210.108,185.104z"/>
		<path style="fill:#A4A4A4;" d="M188.757,185.386L188.757,185.386L188.757,185.386z"/>
		<path style="fill:#A4A4A4;" d="M203.266,184.451c-4.833,0.384-9.79-1.124-14.508,0.935c6.603-1.059,13.253-0.202,19.874-0.504
			c0.616-0.028,1.094,0.054,1.476,0.222c0.519-0.19,1.036-0.413,1.546-0.697l0,0C208.857,184.408,206.046,184.23,203.266,184.451z"
			/>
		<path style="fill:#A4A4A4;" d="M66.876,263.365c5.29,0.376,10.579,0.429,15.869-0.014c-0.001,0-0.002,0-0.003-0.001
			C77.453,262.735,72.164,262.741,66.876,263.365z"/>
		<path style="fill:#A4A4A4;" d="M66.876,263.365c5.288-0.624,10.577-0.629,15.866-0.014
			C77.452,261.98,72.164,261.987,66.876,263.365z"/>
		<path style="fill:#A4A4A4;" d="M263.662,215.379c-0.68,4.629-0.645,9.258-0.003,13.887c0.503-4.63,0.379-9.259,0.003-13.889
			C263.662,215.378,263.662,215.378,263.662,215.379z"/>
		<path style="fill:#A4A4A4;" d="M132.856,264.354c4.633,0.402,9.266,0.469,13.896-0.046c-0.001,0-0.002,0-0.002-0.001
			C142.117,263.686,137.485,263.626,132.856,264.354z"/>
		<path style="fill:#FFFFFF;" d="M99.88,216.527c-0.004,4.301-0.007,8.601-0.011,12.902v-0.001
			C100.567,225.128,100.522,220.828,99.88,216.527z"/>
		<path style="fill:#A4A4A4;" d="M225.878,263.214L225.878,263.214c3.622,0.346,7.243,0.454,10.865-0.009c0,0-0.001,0-0.002,0
			C233.12,262.613,229.499,262.617,225.878,263.214z"/>
		<path style="fill:#A4A4A4;" d="M144.668,181.583c-3.285,0.005-6.569,0.009-9.854,0.014h0.001
			C138.1,182.166,141.384,182.17,144.668,181.583z"/>
		<path style="fill:#FFFFFF;" d="M178.315,217.19c0.029-0.331,0.15-0.697,0.552-0.982l0,0l0,0c-0.075-0.916-0.149-1.833-0.223-2.749
			l0,0C177.978,214.72,178.271,216.046,178.315,217.19z"/>
		<path style="fill:#A4A4A4;" d="M178.643,233.34c0.089-1.258,0.177-2.517,0.265-3.775
			C177.634,230.739,178.338,232.053,178.643,233.34z"/>
		<path style="fill:#A4A4A4;" d="M231.181,182.835c0.056-0.001,1.719,0.676,0.417-0.549c-0.928,0.077-1.857,0.155-2.785,0.232
			c0,0,0,0,0.001,0.001C229.551,182.987,230.38,182.849,231.181,182.835z"/>
		<path style="fill:#FFFFFF;" d="M263.662,215.379c0-0.001,0-0.001,0-0.002c0-8.517-2.359-16.307-7.085-23.407
			c-5.165-7.759-16.182-12.049-24.979-9.684l0,0l0,0c0.299,0.072,0.661,0.061,0.883,0.232c0.479,0.37,0.33,0.76-0.229,0.781
			c-1.202,0.044-2.495,0.357-3.438-0.781l0,0c-1.725,0.532-3.605,0.785-5.143,1.649c-4.011,2.254-7.873,4.775-11.794,7.19
			c-0.774-0.786-0.766-1.72-0.693-2.648c-0.711-1.644-1.844-2.558-3.25-3.034c-3.707,0.611-7.556-0.318-11.282,0.094
			c-2.049,0.226-4.386-0.613-5.805,1.709c-0.598,1.786-0.514,3.622-0.512,5.446c0.023,29.391,0.039,58.781,0.086,88.172
			c0.012,7.546,0.186,7.621,7.903,7.726c3.968,0.054,7.972-0.483,11.903,0.523c0.214,0.097,0.413,0.215,0.614,0.333
			c-0.012-8.767-0.06-17.533,0.008-26.299c0.013-1.7-0.824-3.746,1.266-4.969c0,0,0,0.001,0,0.002
			c0.001-0.001,0.001-0.001,0.002-0.002c4.445,2.008,8.76,4.388,13.76,4.805l0,0c3.62-1.371,7.241-1.376,10.863-0.01h0.001
			c14.869-3.196,26.288-17.593,26.917-33.938C262.272,224.637,262.236,220.007,263.662,215.379z M240.46,227.316
			c0,0.037-0.27,0.125-0.396,0.1c-0.15-0.029-0.28-0.155-0.419-0.239c-0.169,0.284-0.469,0.559-0.49,0.853
			c-1.075,15.586-12.62,20.21-27.02,16.293c-0.001,0-0.001-0.001-0.002-0.001v0.001c-1.344-0.572-1.334-1.765-1.336-2.944
			c-0.013-11.332-0.024-22.665-0.032-33.997c-0.001-1.176-0.025-2.372,1.301-2.971c4.164-1.888,8.098-4.273,13.001-4.08
			c7.714,0.303,12.289,4.462,13.647,12.913c0.232,1.441-0.113,3.001,0.921,4.267c0,0.001,0.001,0.002,0.001,0.004
			c0-0.001,0-0.003,0-0.004C242.078,220.595,240.435,224.028,240.46,227.316z"/>
		<path style="fill:#FFFFFF;" d="M201.725,185.316c-4.302,0.309-8.644,0.068-12.967,0.07c0.025,33.217,0.143,66.434-0.034,99.65
			c-0.024,4.566,1.427,5.708,5.683,5.434c5.459-0.351,10.956-0.105,16.437-0.116c0-0.226-0.001-0.451-0.001-0.677
			c-0.2-0.117-0.4-0.236-0.614-0.333c-3.932-1.005-7.935-0.468-11.903-0.523c-7.717-0.106-7.891-0.18-7.903-7.726
			c-0.047-29.391-0.063-58.781-0.086-88.172c-0.001-1.824-0.086-3.66,0.512-5.446c1.419-2.322,3.755-1.482,5.805-1.709
			c3.726-0.411,7.574,0.517,11.282-0.094C206.181,185.082,204.015,185.152,201.725,185.316z"/>
		<polygon style="fill:#FFFFFF;" points="188.757,185.386 188.757,185.386 188.758,185.386 		"/>
		<path style="fill:#FFFFFF;" d="M210.85,263.377c-0.068,8.766-0.02,17.533-0.008,26.299c0.02,0.012,0.041,0.021,0.06,0.033
			c0.951-8.879,0.085-17.789,0.432-26.677c0.06-1.542-0.817-3.318,0.782-4.622c0,0,0-0.001,0-0.002
			C210.026,259.632,210.863,261.678,210.85,263.377z"/>
		<path style="fill:#FFFFFF;" d="M210.902,289.709c-0.02-0.012-0.041-0.021-0.06-0.033c0,0.226,0.001,0.451,0.001,0.677
			C210.868,290.139,210.879,289.924,210.902,289.709z"/>
		<path style="fill:#FFFFFF;" d="M210.108,185.104c-0.718,0.263-1.443,0.451-2.174,0.571c1.405,0.476,2.539,1.39,3.25,3.034
			c0.031-0.388,0.072-0.776,0.074-1.151C211.264,186.278,210.932,185.468,210.108,185.104z"/>
		<path style="fill:#FFFFFF;" d="M208.632,184.882c-6.621,0.302-13.272-0.556-19.874,0.504l0,0l0,0
			c4.324-0.002,8.665,0.239,12.967-0.07c2.291-0.164,4.456-0.234,6.209,0.359c0.731-0.12,1.456-0.309,2.174-0.571
			C209.726,184.935,209.248,184.854,208.632,184.882z"/>
		<path style="fill:#FFFFFF;" d="M263.662,215.379c-1.426,4.628-1.39,9.258-0.003,13.887
			C263.017,224.637,262.982,220.008,263.662,215.379z"/>
		<path style="fill:#FFFFFF;" d="M225.878,263.214c3.62-0.597,7.242-0.601,10.863-0.01
			C233.119,261.837,229.498,261.843,225.878,263.214z"/>
		<path style="fill:#FFFFFF;" d="M232.252,183.299c0.56-0.021,0.709-0.411,0.229-0.781c-0.222-0.171-0.584-0.161-0.883-0.232l0,0
			c1.302,1.225-0.361,0.548-0.417,0.549c-0.801,0.014-1.63,0.153-2.368-0.317C229.756,183.657,231.049,183.343,232.252,183.299z"/>
		<path style="fill:#A4A4A4;" d="M211.288,207.077c-0.009,11.54,0.001,23.08,0.033,34.62c0.003,0.93-0.337,2.025,0.811,2.627
			c-0.024-13.304-0.045-26.607-0.067-39.911C210.976,205.056,211.289,206.137,211.288,207.077z"/>
		<path style="fill:#A4A4A4;" d="M211.322,241.696c-0.032-11.54-0.042-23.08-0.033-34.62c0.001-0.94-0.312-2.021,0.777-2.665
			c-1.326,0.6-1.301,1.795-1.301,2.971c0.008,11.332,0.019,22.665,0.032,33.997c0.001,1.179-0.008,2.372,1.336,2.944v-0.001
			C210.985,243.722,211.324,242.627,211.322,241.696z"/>
		<path style="fill:#A4A4A4;" d="M239.636,217.516c0.003,3.22,0.006,6.441,0.008,9.662
			C240.656,223.956,240.653,220.736,239.636,217.516z"/>
		<path style="fill:#A4A4A4;" d="M239.636,217.516c1.017,3.22,1.02,6.44,0.008,9.662c0.139,0.084,0.27,0.209,0.419,0.239
			c0.127,0.025,0.396-0.063,0.396-0.1c-0.024-3.288,1.618-6.722-0.824-9.805C239.636,217.513,239.636,217.515,239.636,217.516z"/>
		<path style="fill:#FFFFFF;" d="M178.626,217.105c-0.338,0.482-0.766,0.425-0.797-0.177c-0.063-1.217-0.37-2.531,0.814-3.469l0,0
			c-1.972-17.97-16.152-31.274-33.976-31.876c-3.283,1.375-6.567,1.373-9.853,0.014h-0.001
			c-19.497,0.782-34.373,15.655-34.933,34.93c1.438,4.302,1.477,8.602-0.011,12.901v0.001c0.149,18.396,15.046,34.169,32.987,34.926
			c4.627-1.47,9.259-1.415,13.894-0.046c0.001,0,0.001,0,0.002,0c16.198-0.72,29.877-14.003,31.891-30.969
			c-1.061-1.34-1.63-2.645,0.265-3.777c0,0.001,0,0.001,0,0.002l0.001-0.001c1.29-4.456,1.293-8.908-0.042-13.355
			C178.792,216.511,178.793,216.867,178.626,217.105z M153.52,235.193c-1.522,8.414-6.903,12.169-16.581,12.626
			c-4.347,0.205-10.086-5.698-11.917-12.24c-0.394-1.409,0.014-3.038-1.155-4.236c0-0.001,0-0.002,0-0.003c0,0.001,0,0.002,0,0.004
			c-1.82-5.302-1.851-10.592,0.101-15.87c0.727-2.341,1.469-4.678,2.179-7.025c1.636-5.413,5.466-8.438,10.734-9.91
			c0,0,0.001,0,0.001-0.001c-0.001,0-0.001,0-0.002,0c1.647-2.393,3.9-0.648,5.868-0.841c0.038-0.004,0.155,0.262,0.138,0.389
			c-0.019,0.146-0.145,0.278-0.225,0.417l0,0c7.073,2.497,9.911,7.982,11.285,14.964C155.39,220.808,154.812,228.048,153.52,235.193
			z"/>
		<path style="fill:#FFFFFF;" d="M132.856,264.354c4.629-0.728,9.261-0.668,13.894-0.046
			C142.115,262.939,137.483,262.885,132.856,264.354z"/>
		<path style="fill:#FFFFFF;" d="M99.88,216.527c0.642,4.301,0.686,8.601-0.011,12.901
			C101.357,225.129,101.319,220.828,99.88,216.527z"/>
		<path style="fill:#FFFFFF;" d="M144.668,181.583c-3.284,0.587-6.568,0.583-9.853,0.014
			C138.101,182.956,141.385,182.958,144.668,181.583z"/>
		<path style="fill:#FFFFFF;" d="M177.83,216.928c0.031,0.602,0.458,0.659,0.797,0.177c0.167-0.238,0.166-0.594,0.241-0.897l0,0
			c-0.402,0.285-0.523,0.651-0.552,0.982c-0.044-1.145-0.338-2.47,0.328-3.731C177.46,214.397,177.767,215.711,177.83,216.928z"/>
		<path style="fill:#FFFFFF;" d="M178.643,233.34c-0.305-1.286-1.009-2.601,0.265-3.775c0-0.001,0-0.001,0-0.002
			C177.013,230.695,177.583,232,178.643,233.34z"/>
		<path style="fill:#FFFFFF;" d="M123.867,231.34c0.033-5.289,0.067-10.577,0.101-15.866
			C122.732,220.755,123.049,226.046,123.867,231.34z"/>
		<path style="fill:#FFFFFF;" d="M123.968,215.474c-1.952,5.278-1.921,10.568-0.101,15.87c0-0.001,0-0.002,0-0.004
			C123.049,226.046,122.732,220.755,123.968,215.474z"/>
		<path style="fill:#FFFFFF;" d="M142.661,198.503c-1.932-0.859-3.859-0.904-5.779,0.035
			C138.808,198.526,140.735,198.515,142.661,198.503L142.661,198.503z"/>
		<path style="fill:#FFFFFF;" d="M142.661,198.503L142.661,198.503L142.661,198.503c0.08-0.138,0.206-0.27,0.225-0.417
			c0.016-0.128-0.101-0.393-0.138-0.389c-1.968,0.193-4.221-1.552-5.868,0.841c0.001,0,0.001,0,0.002,0
			C138.803,197.599,140.729,197.644,142.661,198.503z"/>
	</g>
</g>
</svg>
