<?xml version="1.0" encoding="iso-8859-1"?>
<!-- Generator: Adobe Illustrator 22.0.1, SVG Export Plug-In . SVG Version: 6.00 Build 0)  -->
<svg version="1.1" id="Layer_1" xmlns="http://www.w3.org/2000/svg" xmlns:xlink="http://www.w3.org/1999/xlink" x="0px" y="0px"
	 viewBox="0 0 438.53 438.53" style="enable-background:new 0 0 438.53 438.53;" xml:space="preserve">
<g id="_x31_28">
	<g>
		<path style="fill:#F4F4F4;" d="M407.603,110.087c-19.45-33.321-45.833-59.704-79.155-79.153
			c-33.328-19.448-69.711-29.17-109.176-29.17c-39.461,0-75.854,9.722-109.177,29.17C76.771,50.38,50.388,76.763,30.938,110.087
			c-19.451,33.326-29.173,69.72-29.173,109.178c0,39.46,9.725,75.847,29.17,109.175c19.449,33.321,45.832,59.704,79.156,79.155
			c33.326,19.447,69.717,29.17,109.177,29.17s75.854-9.723,109.179-29.17c33.322-19.444,59.704-45.834,79.152-79.155
			c19.445-33.325,29.166-69.718,29.166-109.175C436.766,179.803,427.044,143.409,407.603,110.087z M91.035,88.353
			c40.49,0.084,80.98,0.061,121.47,0.061c0.044,0.922,0.126,1.844,0.126,2.766c0.006,39.385-0.024,78.769,0.07,118.154
			c0.006,2.705-0.63,3.398-3.371,3.391c-39.384-0.098-78.769-0.066-118.154-0.074c-0.921,0-1.841-0.096-2.762-0.147
			c0-40.49,0.023-80.98-0.061-121.47C88.349,88.81,88.81,88.349,91.035,88.353z M212.708,346.642
			c0.008,2.957-0.925,3.482-3.627,3.476c-38.99-0.082-77.98-0.057-116.971-0.052c-1.232,0-2.464,0.072-3.695,0.111
			c0-41.569,0-83.138,0-124.708c1.229,0.055,2.458,0.157,3.687,0.157c38.99,0.008,77.981,0.032,116.971-0.049
			c2.698-0.006,3.644,0.51,3.636,3.477C212.598,268.25,212.599,307.446,212.708,346.642z M346.631,350.122
			c-39.185-0.087-78.37-0.094-117.554,0.01c-2.916,0.008-3.531-0.866-3.525-3.618c0.085-39.082,0.093-78.164-0.011-117.246
			c-0.008-3.011,0.828-3.712,3.766-3.705c39.082,0.101,78.164,0.101,117.246-0.002c2.922-0.008,3.546,0.874,3.53,3.628
			c-0.112,19.54-0.06,39.082-0.06,58.622c0,19.644-0.06,39.288,0.068,58.931C350.109,349.53,349.297,350.128,346.631,350.122z
			 M350.023,92.102c-0.008,38.891-0.002,77.782-0.013,116.672c-0.001,4.382,0.502,3.878-4.012,3.88
			c-38.788,0.011-77.576,0.011-116.364,0c-4.522-0.001-4.011,0.5-4.012-3.877c-0.011-38.891-0.005-77.782-0.013-116.672
			c0-1.23-0.091-2.46-0.14-3.691c41.569,0,83.139,0,124.708,0C350.123,89.643,350.023,90.873,350.023,92.102z"/>
		<path style="fill:#7EB900;" d="M225.609,92.105c0.007,38.891,0.001,77.781,0.013,116.672c0.001,4.377-0.51,3.875,4.012,3.877
			c38.788,0.011,77.576,0.011,116.364,0c4.514-0.001,4.011,0.502,4.012-3.88c0.011-38.891,0.005-77.782,0.013-116.672
			c0-1.229,0.101-2.459,0.154-3.688c-41.569,0-83.138,0-124.708,0C225.518,89.644,225.609,90.874,225.609,92.105z"/>
		<path style="fill:#00A3EE;" d="M209.072,225.577c-38.99,0.081-77.98,0.057-116.971,0.049c-1.229,0-2.458-0.102-3.687-0.157
			c0,41.569,0,83.138,0,124.708c1.232-0.039,2.464-0.111,3.695-0.111c38.99-0.006,77.981-0.031,116.971,0.052
			c2.703,0.006,3.636-0.519,3.627-3.476c-0.109-39.196-0.109-78.392,0-117.588C212.716,226.087,211.77,225.572,209.072,225.577z"/>
		<path style="fill:#F15022;" d="M88.414,212.504c0.921,0.051,1.841,0.147,2.762,0.147c39.385,0.007,78.769-0.025,118.154,0.074
			c2.741,0.007,3.377-0.686,3.371-3.391c-0.094-39.384-0.064-78.769-0.07-118.154c0-0.922-0.082-1.844-0.126-2.766
			c-40.49,0-80.98,0.023-121.47-0.061c-2.224-0.005-2.686,0.457-2.682,2.682C88.437,131.525,88.414,172.015,88.414,212.504z"/>
		<path style="fill:#FEB800;" d="M350.022,287.812c0-19.541-0.053-39.082,0.06-58.622c0.016-2.754-0.609-3.636-3.53-3.628
			c-39.082,0.103-78.164,0.102-117.246,0.002c-2.938-0.008-3.774,0.693-3.766,3.705c0.105,39.082,0.097,78.164,0.011,117.246
			c-0.006,2.752,0.609,3.626,3.525,3.618c39.185-0.103,78.37-0.096,117.554-0.01c2.666,0.006,3.478-0.592,3.46-3.379
			C349.962,327.101,350.022,307.456,350.022,287.812z"/>
	</g>
</g>
</svg>
