<?xml version="1.0" encoding="iso-8859-1"?>
<!-- Generator: Adobe Illustrator 22.0.1, SVG Export Plug-In . SVG Version: 6.00 Build 0)  -->
<svg version="1.1" id="Layer_1" xmlns="http://www.w3.org/2000/svg" xmlns:xlink="http://www.w3.org/1999/xlink" x="0px" y="0px"
	 viewBox="0 0 438.53 438.53" style="enable-background:new 0 0 438.53 438.53;" xml:space="preserve">
<g id="_x31_31">
	<g>
		<path style="fill:#C7102E;" d="M407.603,110.087c-19.45-33.321-45.833-59.704-79.155-79.153
			c-33.328-19.448-69.711-29.17-109.176-29.17c-39.461,0-75.854,9.722-109.177,29.17C76.771,50.38,50.388,76.763,30.938,110.087
			c-19.451,33.326-29.173,69.72-29.173,109.178c0,39.46,9.725,75.847,29.17,109.175c19.449,33.321,45.832,59.704,79.156,79.155
			c33.326,19.447,69.717,29.17,109.177,29.17s75.854-9.723,109.179-29.17c33.322-19.444,59.704-45.834,79.152-79.155
			c19.445-33.325,29.166-69.718,29.166-109.175C436.766,179.803,427.044,143.409,407.603,110.087z M325.367,296.365
			c-10.555,6.597-20.996,13.377-31.41,20.194c-1.689,1.105-2.688,1.192-4.211-0.346c-16.084-16.238-32.252-32.392-48.396-48.57
			c-0.77-0.237-1.224-0.802-1.552-1.497c-0.264-0.259-0.528-0.519-0.791-0.778c-0.532-0.485-1.065-0.97-1.597-1.455
			c-0.488-0.023-0.745-0.283-0.786-0.765c-0.507-0.552-1.015-1.104-1.522-1.655c-0.519-0.514-1.039-1.029-1.558-1.543
			c-0.692-0.318-1.367-0.656-1.605-1.47c-0.509-0.541-1.018-1.082-1.527-1.622c-0.521-0.518-1.042-1.036-1.562-1.554
			c-0.523-0.515-1.045-1.031-1.568-1.546c-0.265-0.252-0.529-0.504-0.794-0.756c-1.019-0.537-1.777-1.338-2.348-2.327l0,0
			c-0.524-0.513-1.048-1.026-1.573-1.539l0,0c-0.262-0.248-0.524-0.495-0.787-0.743l0,0c-0.982-0.603-1.847-1.318-2.312-2.415
			c-6.95,6.795-13.953,13.536-20.839,20.395c-16.47,16.405-32.913,32.837-49.28,49.345c-1.776,1.791-2.931,2.062-5.138,0.595
			c-10.258-6.821-20.628-13.478-31.048-20.051c-1.983-1.251-2.811-2.543-2.808-4.936c0.07-48.83,0.066-97.66,0.005-146.49
			c-0.003-2.196,0.594-3.471,2.582-4.554c10.583-5.767,21.106-11.644,31.589-17.59c1.744-0.989,2.824-1.022,4.323,0.488
			c16.457,16.581,32.99,33.087,49.502,49.613c0.268,0.257,0.536,0.515,0.803,0.772c0.518,0.518,1.036,1.036,1.554,1.555
			c0.519,0.519,1.038,1.039,1.557,1.558c0.259,0.253,0.519,0.505,0.779,0.758c0.266,0.26,0.532,0.519,0.798,0.779
			c0.518,0.52,1.035,1.039,1.553,1.559l0,0c0.52,0.518,1.039,1.035,1.559,1.553c0.522,0.513,1.044,1.027,1.566,1.54
			c1.311,0.318,1.331,1.856,2.33,2.468c1.477,0.521,2.286,1.76,3.153,2.936c1.044,0.507,1.781,1.328,2.357,2.313l0,0
			c0.262,0.249,0.523,0.497,0.785,0.746c0.792,0.564,1.585,1.128,2.378,1.692c20.344-20.23,40.688-40.46,61.03-60.692
			c3.039-3.022,6.144-5.983,9.061-9.119c1.382-1.486,2.414-1.687,4.252-0.637c10.466,5.976,20.972,11.885,31.584,17.596
			c2.364,1.272,2.891,2.796,2.88,5.23c-0.081,17.013-0.044,34.026-0.044,51.039c0,31.429-0.027,62.857,0.054,94.285
			C328.352,293.324,327.677,294.922,325.367,296.365z"/>
		<path style="fill:#FEFEFE;" d="M328.292,196.437c0-17.013-0.038-34.026,0.044-51.039c0.012-2.434-0.516-3.958-2.88-5.23
			c-10.612-5.711-21.119-11.62-31.584-17.596c-1.838-1.05-2.87-0.849-4.252,0.637c-2.917,3.136-6.022,6.097-9.061,9.119
			c-20.342,20.232-40.687,40.462-61.03,60.692c-8.595,9.08-17.314,18.035-26.573,26.447l0,0l0,0
			c-11.929,12.084-23.861,24.163-35.783,36.253c-3.089,3.133-6.147,6.298-9.801,10.045c0-30.948,0-61.023,0-91.935
			c8.467,8.43,16.561,16.489,24.654,24.547c0.584-0.238,1.319-0.326,1.729-0.737c8.223-8.26,16.408-16.558,24.601-24.848
			c-16.512-16.526-33.045-33.032-49.502-49.613c-1.499-1.51-2.579-1.477-4.323-0.488c-10.483,5.946-21.006,11.823-31.589,17.59
			c-1.988,1.083-2.584,2.358-2.582,4.554c0.061,48.83,0.064,97.66-0.005,146.49c-0.003,2.393,0.824,3.685,2.808,4.936
			c10.42,6.572,20.789,13.23,31.048,20.051c2.207,1.467,3.362,1.196,5.138-0.595c16.367-16.508,32.81-32.94,49.28-49.345
			c6.886-6.859,13.889-13.6,20.839-20.395l0,0c8.404-9.27,17.359-17.992,26.454-26.575c15.174-14.829,30.349-29.659,45.376-44.344
			c0,29.543,0,59.664,0,90.538c-8.138-8.08-15.903-15.79-23.668-23.501l0,0c-0.671,0.344-1.485,0.544-1.991,1.052
			c-8.119,8.142-16.199,16.323-24.288,24.495c16.145,16.177,32.312,32.332,48.396,48.57c1.523,1.538,2.523,1.451,4.211,0.346
			c10.415-6.817,20.856-13.598,31.41-20.194c2.31-1.444,2.986-3.042,2.979-5.643C328.264,259.294,328.292,227.866,328.292,196.437z"
			/>
		<path style="fill:#E696A3;" d="M185.117,211.684L185.117,211.684c0.786,0.777,1.572,1.554,2.358,2.331l0,0
			c1.306,0.047,2.239-0.805,3.011-1.591c7.878-8.015,15.691-16.093,23.522-24.154c-0.867-1.176-1.676-2.415-3.153-2.936
			c-0.161,0.479-0.181,1.1-0.502,1.418C201.957,195.079,193.922,203.772,185.117,211.684z"/>
		<path style="fill:#EBADB7;" d="M185.237,206.048c-1.127,1.02-1.325,2.445-2.451,3.29c0.582,0.882,1.179,1.748,2.152,2.24
			c0.12-0.406,0.312-0.782,0.611-1.085c8.36-8.463,16.615-17.032,25.307-25.16c-1-0.612-1.02-2.149-2.33-2.468
			C201.097,190.93,193.361,198.693,185.237,206.048z"/>
		<path style="fill:#EBADB7;" d="M185.548,210.494c-0.299,0.303-0.491,0.679-0.611,1.085c0.063,0.032,0.113,0.077,0.179,0.105
			c8.806-7.912,16.841-16.605,25.237-24.932c0.321-0.318,0.342-0.938,0.502-1.418C202.163,193.462,193.908,202.031,185.548,210.494z
			"/>
		<path style="fill:#E28293;" d="M212.156,191.8c-6.72,6.932-13.769,13.538-20.352,20.607c-1.063,1.142-2.283,2.163-3.969,2.194
			c0.506,0.731,1.178,1.299,1.956,1.761l0,0c0.595-0.216,1.356-0.267,1.76-0.673c8.295-8.346,16.934-16.352,24.814-25.107l0,0l0,0
			c-0.576-0.985-1.312-1.806-2.357-2.313C214.471,190.009,213.091,190.835,212.156,191.8z"/>
		<path style="fill:#E28293;" d="M187.475,214.015c0.105,0.21,0.231,0.4,0.36,0.586c1.686-0.031,2.906-1.052,3.969-2.194
			c6.583-7.069,13.633-13.675,20.352-20.607c0.935-0.965,2.315-1.791,1.853-3.53c-7.831,8.061-15.645,16.139-23.522,24.154
			C189.714,213.21,188.781,214.062,187.475,214.015z"/>
		<path style="fill:#DD6D7F;" d="M222.447,246.627c8.36-8.305,16.36-16.976,25.155-24.842l0,0c-0.398-0.563-0.795-1.126-1.193-1.69
			c-7.81,7.489-15.311,15.293-23.033,22.873c-1.173,1.151-2.122,2.638-3.908,3.011l0,0c0.466,1.097,1.33,1.812,2.312,2.415l0,0l0,0
			C221.994,247.797,222.041,247.031,222.447,246.627z"/>
		<path style="fill:#DD6D7F;" d="M223.375,242.969c7.722-7.581,15.224-15.384,23.033-22.873c-0.163-0.23-0.325-0.46-0.488-0.69
			c-9.095,8.583-18.05,17.305-26.454,26.575l0,0l0,0C221.253,245.607,222.202,244.12,223.375,242.969z"/>
		<path style="fill:#E48D9B;" d="M252.049,226.502L252.049,226.502L252.049,226.502c-0.095-0.839-0.712-1.227-1.367-1.583
			c-9.796,7.608-17.988,16.869-26.543,25.756l0,0l0,0c0.571,0.989,1.328,1.79,2.348,2.327c-0.005-0.978,0.509-1.687,1.17-2.34
			C235.79,242.612,243.919,234.557,252.049,226.502z"/>
		<path style="fill:#E17F8F;" d="M225.196,247.979c6.922-6.954,13.709-14.046,20.9-20.725c1.206-1.12,2.485-2.339,4.228-2.701
			c-0.392-0.401-0.784-0.801-1.176-1.202l0,0c-0.595,0.216-1.357,0.266-1.761,0.672c-8.297,8.348-16.939,16.355-24.82,25.114l0,0
			l0,0c0.524,0.513,1.048,1.026,1.573,1.539C223.689,249.465,224.488,248.69,225.196,247.979z"/>
		<path style="fill:#E17F8F;" d="M250.682,224.92L250.682,224.92c-0.12-0.122-0.239-0.244-0.359-0.366
			c-1.743,0.362-3.022,1.581-4.228,2.701c-7.191,6.679-13.978,13.771-20.9,20.725c-0.707,0.711-1.507,1.486-1.057,2.697l0,0
			C232.694,241.789,240.886,232.528,250.682,224.92z"/>
		<path style="fill:#F2C9D0;" d="M261.496,235.87L261.496,235.87c-0.517-0.521-1.034-1.042-1.551-1.563l0,0l0,0
			c-0.618,0.123-1.456,0.028-1.82,0.4c-8.225,8.384-16.399,16.818-24.582,25.243c0.519,0.514,1.039,1.029,1.558,1.543
			c8.209-8.309,16.411-16.626,24.651-24.905C260.161,236.177,260.907,236.102,261.496,235.87z"/>
		<path style="fill:#DE7183;" d="M191.338,217.927L191.338,217.927c0.238,0.464,0.532,0.869,0.927,1.169
			c7.903-7.566,15.491-15.452,23.283-23.134c1.184-1.167,2.241-2.52,3.981-2.941c-0.792-0.564-1.585-1.128-2.378-1.692
			c-0.215,0.597-0.263,1.362-0.669,1.766C208.124,201.395,200.126,210.062,191.338,217.927z"/>
		<path style="fill:#DE7183;" d="M215.547,195.962c-7.792,7.682-15.38,15.568-23.283,23.134c0.202,0.154,0.422,0.288,0.691,0.372
			l0,0c9.259-8.413,17.978-17.367,26.573-26.447C217.788,193.441,216.731,194.794,215.547,195.962z"/>
		<path style="fill:#EEB8C1;" d="M180.543,206.968L180.543,206.968c0.52,0.849,1.089,1.65,1.946,2.18
			c0.133-1.103,0.488-2.149,1.322-2.891c8.027-7.151,15.205-15.167,23.01-22.543c0.475-0.449,1.031-0.778,1.705-0.848
			c-0.522-0.513-1.044-1.027-1.566-1.54c-8.22,8.322-16.433,16.651-24.684,24.942C181.871,206.674,181.128,206.742,180.543,206.968z
			"/>
		<path style="fill:#EEB8C1;" d="M183.81,206.257c-0.833,0.742-1.188,1.788-1.322,2.891c0.1,0.062,0.188,0.136,0.297,0.19l0,0
			c1.126-0.845,1.324-2.27,2.451-3.29c8.124-7.354,15.86-15.118,23.288-23.182c-0.674,0.069-1.229,0.398-1.705,0.848
			C199.015,191.09,191.837,199.106,183.81,206.257z"/>
		<path style="fill:#FAEAED;" d="M173.455,199.969c0.56,0.51,1.12,1.02,1.679,1.53c8.207-8.111,16.411-16.223,24.623-24.329
			c0.581-0.574,0.944-1.224,0.955-2.051c-0.518-0.518-1.036-1.036-1.554-1.555c-0.231,0.583-0.309,1.321-0.717,1.726
			C190.135,183.54,181.791,191.751,173.455,199.969z"/>
		<path style="fill:#EDB4BE;" d="M256.662,233.445c0.403-0.408,1.151-0.475,1.738-0.701l0,0c-0.517-0.521-1.033-1.042-1.55-1.563
			c-0.587,0.224-1.334,0.288-1.738,0.694c-8.258,8.304-16.476,16.647-24.703,24.982c0.509,0.541,1.018,1.082,1.527,1.622
			C239.785,249.747,248.416,241.785,256.662,233.445z"/>
		<path style="fill:#EBAAB5;" d="M232.313,253.307c6.762-6.833,13.565-13.626,20.385-20.401c1.031-1.024,2.02-2.201,3.565-2.324
			c-0.317-0.323-0.633-0.645-0.95-0.968c-0.589,0.221-1.339,0.282-1.743,0.688c-8.265,8.31-16.49,16.659-24.723,25.001
			c0.521,0.518,1.042,1.036,1.562,1.554C229.972,255.105,231.36,254.27,232.313,253.307z"/>
		<path style="fill:#EBAAB5;" d="M256.851,231.181c-0.196-0.199-0.392-0.399-0.587-0.598c-1.545,0.122-2.534,1.299-3.565,2.324
			c-6.82,6.775-13.623,13.567-20.385,20.401c-0.952,0.963-2.341,1.797-1.902,3.55c8.226-8.335,16.445-16.678,24.703-24.982
			C255.517,231.47,256.263,231.405,256.851,231.181z"/>
		<path style="fill:#E89FAB;" d="M230.994,251.509c6.606-6.684,13.257-13.324,19.928-19.944c1.105-1.096,2.13-2.419,3.811-2.534
			c-0.324-0.326-0.647-0.652-0.971-0.978l0,0l0,0c-0.59,0.221-1.341,0.281-1.745,0.687c-8.269,8.316-16.499,16.671-24.737,25.019
			c0.523,0.515,1.045,1.031,1.568,1.546C228.418,253.398,229.969,252.545,230.994,251.509z"/>
		<path style="fill:#E89FAB;" d="M255.313,229.616c-0.193-0.195-0.387-0.39-0.58-0.585c-1.681,0.115-2.707,1.437-3.811,2.534
			c-6.671,6.62-13.322,13.26-19.928,19.944c-1.025,1.037-2.575,1.889-2.146,3.796c8.233-8.341,16.458-16.691,24.723-25.001
			C253.974,229.898,254.724,229.837,255.313,229.616z"/>
		<path style="fill:#F8E5E9;" d="M265.369,239.774c-0.519-0.52-1.038-1.041-1.558-1.561c-2.345,0.029-3.043,2.258-4.348,3.512
			c-7.52,7.224-15.088,14.411-22.055,22.189c0.532,0.485,1.065,0.97,1.597,1.455c8.202-8.296,16.396-16.6,24.628-24.866
			C264.043,240.091,264.783,240.009,265.369,239.774z"/>
		<path style="fill:#EFBFC7;" d="M235.983,255.873c6.76-6.924,13.757-13.614,20.431-20.624c0.834-0.876,1.678-1.602,2.826-1.656
			c-0.256-0.259-0.511-0.517-0.767-0.776c-7.597,7.659-15.242,15.275-22.885,22.892c-1.082,1.078-1.984,2.442-3.65,2.771
			c0.238,0.814,0.913,1.152,1.605,1.47C233.163,257.884,234.877,257.005,235.983,255.873z"/>
		<path style="fill:#EFBFC7;" d="M259.945,234.307L259.945,234.307c-0.235-0.238-0.47-0.476-0.705-0.714
			c-1.148,0.053-1.992,0.78-2.826,1.656c-6.674,7.009-13.671,13.699-20.431,20.624c-1.106,1.132-2.82,2.011-2.44,4.077
			c8.183-8.425,16.356-16.86,24.582-25.243C258.489,234.336,259.327,234.43,259.945,234.307z"/>
		<path style="fill:#EFBFC7;" d="M235.588,255.709c7.643-7.617,15.288-15.233,22.885-22.892c-0.024-0.024-0.048-0.049-0.072-0.073
			l0,0l0,0c-0.587,0.226-1.335,0.293-1.738,0.701c-8.246,8.341-16.877,16.302-24.725,25.036
			C233.603,258.151,234.506,256.787,235.588,255.709z"/>
		<path style="fill:#F2CAD1;" d="M178.228,204.624c0.335,0.665,0.602,1.392,1.449,1.591c5.015-4.905,10.047-9.792,15.037-14.722
			c2.982-2.947,5.869-5.99,8.862-8.925c0.837-0.821,1.817-1.466,1.824-2.794c-0.518-0.52-1.035-1.039-1.553-1.559
			c-0.231,0.589-0.306,1.335-0.716,1.744C194.853,188.204,186.536,196.41,178.228,204.624z"/>
		<path style="fill:#FCF5F6;" d="M186.212,186.399c2.901-3.011,5.866-5.966,8.865-8.887c-4.9,4.591-9.327,9.666-14.363,14.112
			c-0.706,0.623-1.323,1.326-1.92,2.045C181.241,191.22,183.813,188.89,186.212,186.399z"/>
		<path style="fill:#FCF5F6;" d="M198.039,174.648c0.377-0.358,0.741-0.727,1.12-1.083c-0.268-0.257-0.536-0.515-0.803-0.772
			C198.564,173.545,198.38,174.139,198.039,174.648z"/>
		<path style="fill:#FCF5F6;" d="M173.326,199.934c0.624-0.865,1.289-1.692,1.974-2.499c-0.889,0.788-1.783,1.537-2.994,1.511
			C172.521,199.388,172.777,199.793,173.326,199.934z"/>
		<path style="fill:#FCF5F6;" d="M172.025,198.379c0.101,0.182,0.188,0.377,0.281,0.568c1.212,0.026,2.105-0.723,2.994-1.511
			c1.11-1.307,2.283-2.554,3.494-3.766c0.597-0.719,1.214-1.422,1.92-2.045c5.037-4.446,9.463-9.521,14.363-14.112
			c0.984-0.958,1.965-1.918,2.961-2.864c0.341-0.509,0.525-1.103,0.317-1.855c-8.193,8.29-16.378,16.588-24.601,24.848
			C173.344,198.053,172.609,198.141,172.025,198.379z"/>
		<path style="fill:#FCF5F6;" d="M196.985,175.77c-0.646,0.57-1.279,1.153-1.907,1.742c-2.999,2.921-5.964,5.876-8.865,8.887
			c-2.4,2.491-4.972,4.821-7.418,7.27c-0.965,1.162-1.878,2.369-3.032,3.361c-0.155,0.133-0.308,0.27-0.461,0.406
			c-0.686,0.807-1.35,1.634-1.974,2.499c0.044,0.011,0.081,0.028,0.129,0.035c8.336-8.219,16.68-16.429,24.987-24.678
			c0.408-0.405,0.486-1.143,0.717-1.726c-0.378,0.356-0.743,0.725-1.12,1.083C197.756,175.07,197.366,175.433,196.985,175.77z"/>
		<path style="fill:#FCF5F6;" d="M178.794,193.669c-1.211,1.212-2.384,2.459-3.494,3.766c0.153-0.136,0.306-0.272,0.461-0.406
			C176.916,196.038,177.829,194.831,178.794,193.669z"/>
		<path style="fill:#FCF5F6;" d="M198.039,174.648c-0.996,0.945-1.977,1.905-2.961,2.864c0.628-0.588,1.261-1.172,1.907-1.742
			C197.366,175.433,197.756,175.07,198.039,174.648z"/>
		<path style="fill:#F0C2CA;" d="M205.136,182.178c-0.105,0.105-0.209,0.211-0.314,0.315c0.588-0.561,1.244-1.033,2.138-1.168
			c-0.52-0.518-1.039-1.035-1.559-1.553l0,0l0,0C206.206,180.672,205.8,181.514,205.136,182.178z"/>
		<path style="fill:#F0C2CA;" d="M185.176,202.123c-1.33,1.305-2.657,2.614-3.999,3.907c-0.291,0.28-0.694,0.421-1.103,0.53
			c0.114,0.099,0.228,0.199,0.342,0.298C182.01,205.287,183.589,203.701,185.176,202.123z"/>
		<path style="fill:#F0C2CA;" d="M204.347,182.97c-2.226,2.228-4.448,4.461-6.668,6.695c1.966-1.965,3.929-3.933,5.901-5.891
			C203.841,183.516,204.091,183.24,204.347,182.97z"/>
		<path style="fill:#F0C2CA;" d="M204.347,182.97c-0.255,0.27-0.506,0.545-0.766,0.804c-1.972,1.959-3.935,3.927-5.901,5.891
			c-4.147,4.174-8.304,8.337-12.503,12.458c-1.587,1.578-3.167,3.163-4.76,4.735c0.042,0.037,0.084,0.073,0.126,0.11l0,0l0,0
			c0.585-0.226,1.328-0.295,1.732-0.701c8.251-8.291,16.464-16.62,24.684-24.942c-0.893,0.135-1.55,0.607-2.138,1.168
			C204.663,182.652,204.505,182.812,204.347,182.97z"/>
		<path style="fill:#F0C2CA;" d="M203.576,182.567c-2.993,2.935-5.88,5.979-8.862,8.925c-4.99,4.93-10.023,9.817-15.037,14.722
			c0.133,0.115,0.265,0.231,0.398,0.346c0.409-0.109,0.812-0.25,1.103-0.53c1.342-1.294,2.669-2.602,3.999-3.907
			c4.171-4.148,8.341-8.299,12.503-12.458c2.22-2.234,4.442-4.467,6.668-6.695c0.154-0.163,0.313-0.322,0.474-0.476
			c0.105-0.105,0.209-0.211,0.314-0.315c0.664-0.664,1.07-1.507,0.264-2.405l0,0C205.393,181.101,204.413,181.746,203.576,182.567z"
			/>
		<path style="fill:#F0C2CA;" d="M204.347,182.97c0.158-0.159,0.316-0.318,0.474-0.476
			C204.66,182.648,204.501,182.807,204.347,182.97z"/>
		<path style="fill:#F0C2CA;" d="M197.679,189.665c-4.162,4.159-8.332,8.31-12.503,12.458
			C189.376,198.003,193.532,193.839,197.679,189.665z"/>
		<path style="fill:#FCF6F6;" d="M243.072,264.382c6.944-6.996,13.902-13.979,20.913-20.907c0.986-0.974,2.005-2.007,3.44-1.821
			c-0.291-0.502-0.752-0.838-1.293-1.097c-6.073,5.975-12.131,11.967-18.227,17.918c-2.662,2.599-5.404,5.117-8.109,7.671
			c0.328,0.695,0.781,1.261,1.552,1.497C241.039,266.093,242.19,265.271,243.072,264.382z"/>
		<path style="fill:#FCF6F6;" d="M267.629,242.098c-0.051-0.164-0.124-0.307-0.203-0.443c-1.435-0.186-2.455,0.847-3.44,1.821
			c-7.012,6.928-13.969,13.911-20.913,20.907c-0.882,0.889-2.033,1.711-1.723,3.262c8.089-8.172,16.169-16.353,24.288-24.495
			C266.143,242.642,266.958,242.441,267.629,242.098z"/>
		<path style="fill:#F5D5DA;" d="M241.373,257.295c6.885-6.955,13.908-13.773,20.88-20.642c-0.228-0.236-0.456-0.472-0.685-0.708
			c-7.914,8.025-15.93,15.952-23.903,23.921c-0.726,0.726-1.436,1.517-2.564,1.627c0.507,0.552,1.015,1.104,1.522,1.655
			C237.413,260.56,239.619,259.067,241.373,257.295z"/>
		<path style="fill:#F5D5DA;" d="M237.665,259.866c7.973-7.97,15.989-15.896,23.903-23.921c-0.024-0.025-0.048-0.05-0.072-0.074l0,0
			l0,0c-0.589,0.232-1.335,0.307-1.744,0.718c-8.24,8.279-16.442,16.596-24.651,24.905
			C236.229,261.382,236.938,260.592,237.665,259.866z"/>
		<path style="fill:#F6DADE;" d="M177.007,201.997c-0.238,0.231-0.734,0.196-1.11,0.285c0.52,0.52,1.041,1.039,1.561,1.559
			c8.01-7.912,16.034-15.81,24.005-23.761c0.706-0.704,1.065-1.755,1.586-2.645c-0.26-0.253-0.519-0.505-0.779-0.758
			C194.169,185.437,185.575,193.704,177.007,201.997z"/>
		<path style="fill:#DF7688;" d="M246.262,223.904c0.645-0.606,1.355-1.101,2.31-1.135c-0.273-0.277-0.545-0.553-0.818-0.83
			C247.29,222.625,246.785,223.273,246.262,223.904z"/>
		<path style="fill:#DF7688;" d="M222.841,247.363c-0.355,0.343-0.705,0.69-1.062,1.031c0.262,0.247,0.524,0.495,0.787,0.743
			C222.376,248.394,222.535,247.836,222.841,247.363z"/>
		<path style="fill:#DF7688;" d="M224.511,245.679c6.895-6.953,13.821-13.875,20.759-20.784c0.33-0.328,0.653-0.673,0.992-0.991
			c0.523-0.631,1.028-1.279,1.492-1.964c-0.051-0.052-0.102-0.103-0.153-0.155c-8.794,7.866-16.794,16.537-25.155,24.842
			c-0.407,0.404-0.454,1.17-0.668,1.767l0,0c0.356-0.341,0.707-0.689,1.062-1.031C223.262,246.712,223.97,246.225,224.511,245.679z"
			/>
		<path style="fill:#DF7688;" d="M247.386,224.023c0.404-0.406,1.166-0.456,1.761-0.672c-0.191-0.194-0.383-0.388-0.574-0.582
			c-0.955,0.034-1.665,0.529-2.31,1.135c-2.344,2.827-5.182,5.193-7.754,7.803c-5.181,5.259-10.354,10.529-15.668,15.656
			c-0.306,0.473-0.465,1.031-0.275,1.774l0,0C230.447,240.379,239.089,232.371,247.386,224.023z"/>
		<path style="fill:#DF7688;" d="M245.27,224.895c-6.938,6.91-13.865,13.831-20.759,20.784c-0.541,0.546-1.249,1.032-1.67,1.683
			c5.314-5.127,10.487-10.397,15.668-15.656c2.571-2.61,5.41-4.975,7.754-7.803C245.923,224.222,245.6,224.567,245.27,224.895z"/>
		<path style="fill:#DF798A;" d="M192.914,215.708c-0.717,0.649-1.51,1.172-2.548,1.235c0.288,0.292,0.577,0.583,0.865,0.875
			C191.762,217.086,192.329,216.389,192.914,215.708z"/>
		<path style="fill:#DF798A;" d="M216.233,192.257c0.305-0.31,0.614-0.617,0.918-0.929c-0.262-0.249-0.523-0.498-0.785-0.746
			C216.564,191.262,216.471,191.798,216.233,192.257z"/>
		<path style="fill:#DF798A;" d="M191.551,215.689c-0.404,0.406-1.165,0.457-1.76,0.673c0.191,0.194,0.383,0.387,0.574,0.581
			c1.038-0.064,1.831-0.586,2.548-1.235c2.662-3.094,5.794-5.742,8.63-8.671c4.832-4.989,9.821-9.825,14.689-14.78
			c0.239-0.459,0.332-0.996,0.133-1.675l0,0C208.485,199.337,199.846,207.344,191.551,215.689z"/>
		<path style="fill:#DF798A;" d="M214.526,194.103c-6.798,6.882-13.663,13.696-20.511,20.529c-0.362,0.361-0.722,0.734-1.101,1.076
			c-0.585,0.68-1.153,1.378-1.683,2.11c0.036,0.036,0.071,0.072,0.107,0.108c8.789-7.864,16.786-16.531,25.144-24.832
			c0.406-0.404,0.454-1.169,0.669-1.766c-0.304,0.311-0.613,0.618-0.918,0.929C215.854,192.987,215.102,193.52,214.526,194.103z"/>
		<path style="fill:#DF798A;" d="M194.015,214.632c6.848-6.832,13.713-13.647,20.511-20.529c0.576-0.583,1.328-1.117,1.707-1.846
			c-4.868,4.955-9.857,9.791-14.689,14.78c-2.836,2.928-5.968,5.577-8.63,8.671C193.293,215.366,193.653,214.993,194.015,214.632z"
			/>
		<path style="fill:#F7E1E5;" d="M176.489,201.503c-0.293,0.186-0.611,0.326-0.959,0.402c0.089,0.092,0.179,0.183,0.268,0.275
			C176.029,201.955,176.258,201.728,176.489,201.503z"/>
		<path style="fill:#F7E1E5;" d="M200.654,177.435c0.45-0.371,0.961-0.662,1.617-0.758c-0.519-0.519-1.038-1.039-1.557-1.558
			C201.456,176.054,201.162,176.798,200.654,177.435z"/>
		<path style="fill:#F7E1E5;" d="M175.134,201.499c0.132,0.135,0.264,0.27,0.396,0.406c0.348-0.076,0.665-0.217,0.959-0.402
			c7.56-7.359,14.972-14.87,22.462-22.303c0.573-0.568,1.076-1.247,1.703-1.765c0.509-0.637,0.803-1.381,0.059-2.315
			c-0.011,0.827-0.374,1.477-0.955,2.051C191.546,185.276,183.341,193.389,175.134,201.499z"/>
		<path style="fill:#F7E1E5;" d="M200.001,178.148c-7.566,7.685-15.146,15.358-22.884,22.87c-0.192,0.187-0.405,0.344-0.628,0.485
			c-0.231,0.225-0.46,0.452-0.691,0.677c0.033,0.034,0.066,0.068,0.1,0.102c0.376-0.089,0.871-0.054,1.11-0.285
			c8.568-8.293,17.162-16.56,25.263-25.319c-0.655,0.096-1.167,0.386-1.617,0.758C200.452,177.688,200.221,177.925,200.001,178.148z
			"/>
		<path style="fill:#F7E1E5;" d="M200.001,178.148c0.22-0.223,0.451-0.46,0.653-0.713c-0.627,0.518-1.13,1.197-1.703,1.765
			c-7.49,7.432-14.902,14.943-22.462,22.303c0.222-0.141,0.435-0.298,0.628-0.485C184.855,193.506,192.434,185.833,200.001,178.148z
			"/>
		<path style="fill:#F6DCE1;" d="M237.598,262.172c-0.325,0.326-0.65,0.651-0.975,0.976c0.041,0.482,0.298,0.742,0.786,0.765
			C237.21,263.202,237.331,262.648,237.598,262.172z"/>
		<path style="fill:#F6DCE1;" d="M261.617,238.307c0.475-0.358,0.99-0.62,1.596-0.693c-0.251-0.251-0.502-0.502-0.753-0.754
			C262.229,237.387,261.95,237.871,261.617,238.307z"/>
		<path style="fill:#F6DCE1;" d="M259.464,241.725c1.305-1.254,2.003-3.482,4.348-3.512c-0.2-0.2-0.399-0.399-0.599-0.599
			c-0.606,0.074-1.121,0.336-1.596,0.693c-1.162,1.525-2.826,2.602-4.169,3.957c-6.597,6.655-13.23,13.275-19.85,19.908
			c-0.267,0.476-0.388,1.03-0.189,1.742C244.375,256.136,251.944,248.949,259.464,241.725z"/>
		<path style="fill:#F6DCE1;" d="M239.256,260.394c7.09-7.105,14.111-14.28,21.368-21.217c0.325-0.311,0.65-0.612,0.992-0.87
			c0.333-0.436,0.612-0.92,0.843-1.447c-0.069-0.069-0.138-0.138-0.207-0.208c-6.972,6.869-13.994,13.688-20.88,20.642
			c-1.754,1.772-3.96,3.265-4.75,5.853c0.325-0.326,0.65-0.651,0.975-0.976C237.987,261.479,238.696,260.956,239.256,260.394z"/>
		<path style="fill:#F6DCE1;" d="M239.256,260.394c-0.56,0.562-1.269,1.084-1.658,1.778c6.62-6.633,13.253-13.252,19.85-19.908
			c1.343-1.355,3.007-2.432,4.169-3.957c-0.343,0.258-0.667,0.559-0.992,0.87C253.368,246.115,246.347,253.29,239.256,260.394z"/>
		<polygon style="fill:#E697A4;" points="228.998,250.545 228.999,250.544 228.997,250.546 		"/>
		<path style="fill:#E697A4;" d="M227.741,251.775c-0.42,0.408-0.834,0.821-1.255,1.228c0.265,0.252,0.529,0.504,0.794,0.756
			C227.049,252.899,227.315,252.291,227.741,251.775z"/>
		<path style="fill:#E697A4;" d="M251.299,228.283c0.524-0.432,1.104-0.755,1.813-0.818c-0.251-0.227-0.502-0.454-0.753-0.682
			C252.135,227.365,251.738,227.843,251.299,228.283z"/>
		<path style="fill:#E697A4;" d="M228.997,250.546c0.001-0.001,0.001-0.001,0.002-0.002c7.053-7.098,14.128-14.173,21.215-21.236
			c0.355-0.354,0.707-0.714,1.085-1.025c0.439-0.44,0.836-0.918,1.06-1.5c-0.103-0.094-0.206-0.187-0.31-0.281l0,0
			c-8.13,8.054-16.259,16.11-24.393,24.16c-0.661,0.654-1.175,1.363-1.17,2.34c0.421-0.406,0.835-0.82,1.255-1.228
			C228.109,251.329,228.595,250.95,228.997,250.546z"/>
		<path style="fill:#E697A4;" d="M253.762,228.053L253.762,228.053c-0.217-0.196-0.433-0.392-0.65-0.588
			c-0.709,0.063-1.288,0.386-1.813,0.818c-0.004,0.004-0.008,0.009-0.013,0.014c-7.426,7.419-14.777,14.913-22.287,22.248
			l-0.001,0.001l-0.001,0.001c-0.419,0.409-0.836,0.821-1.256,1.229c-0.426,0.516-0.692,1.124-0.461,1.983
			c8.238-8.348,16.467-16.703,24.737-25.019C252.42,228.334,253.172,228.274,253.762,228.053z"/>
		<path style="fill:#E697A4;" d="M227.741,251.775c0.42-0.408,0.837-0.82,1.256-1.229
			C228.595,250.95,228.109,251.329,227.741,251.775z"/>
		<path style="fill:#E697A4;" d="M228.999,250.544c7.51-7.335,14.862-14.828,22.287-22.248c0.004-0.004,0.008-0.009,0.013-0.014
			c-0.378,0.311-0.73,0.672-1.085,1.025C243.127,236.371,236.052,243.446,228.999,250.544z"/>
		<path style="fill:#FAEEF0;" d="M264.23,241.087c0.464-0.386,0.968-0.706,1.568-0.873c-0.115-0.118-0.231-0.237-0.346-0.355
			C265.047,240.27,264.636,240.676,264.23,241.087z"/>
		<path style="fill:#FAEEF0;" d="M239.912,265.114c-0.273,0.131-0.57,0.226-0.906,0.255c0.264,0.259,0.528,0.519,0.791,0.778
			C239.656,265.753,239.724,265.411,239.912,265.114z"/>
		<path style="fill:#FAEEF0;" d="M240.2,264.765c7.921-7.278,15.26-15.145,22.946-22.661c0.356-0.348,0.708-0.703,1.084-1.017
			c0.406-0.411,0.817-0.817,1.222-1.228c-0.028-0.028-0.055-0.057-0.083-0.085c-0.586,0.235-1.326,0.317-1.736,0.729
			c-8.232,8.266-16.426,16.57-24.628,24.866c0.337-0.029,0.633-0.124,0.906-0.255C239.99,264.99,240.083,264.872,240.2,264.765z"/>
		<path style="fill:#FAEEF0;" d="M266.133,240.557c-0.112-0.114-0.223-0.229-0.335-0.343c-0.6,0.167-1.105,0.487-1.568,0.873
			c-7.509,7.597-15.102,15.114-22.656,22.669c-0.51,0.51-1.015,1.047-1.662,1.357c-0.188,0.297-0.256,0.639-0.115,1.033
			c2.705-2.555,5.447-5.072,8.109-7.671C254.002,252.524,260.06,246.533,266.133,240.557z"/>
		<path style="fill:#FAEEF0;" d="M240.2,264.765c-0.117,0.107-0.21,0.225-0.288,0.349c0.647-0.311,1.152-0.847,1.662-1.357
			c7.554-7.555,15.147-15.072,22.656-22.669c-0.377,0.314-0.728,0.668-1.084,1.017C255.46,249.62,248.121,257.487,240.2,264.765z"/>
		<path style="fill:#F4D2D8;" d="M178.159,204.009c-0.119,0.066-0.243,0.122-0.373,0.166c0.067,0.069,0.135,0.137,0.202,0.206
			C178.036,204.251,178.095,204.129,178.159,204.009z"/>
		<path style="fill:#F4D2D8;" d="M202.919,179.113c0.311-0.297,0.615-0.602,0.928-0.899c-0.266-0.26-0.532-0.519-0.798-0.779
			C203.232,178.082,203.147,178.626,202.919,179.113z"/>
		<path style="fill:#F4D2D8;" d="M201.841,180.512c-7.713,7.72-15.383,15.484-23.174,23.125c-0.154,0.151-0.326,0.271-0.508,0.372
			c-0.064,0.12-0.123,0.242-0.17,0.372c0.08,0.081,0.159,0.162,0.239,0.243c8.309-8.214,16.625-16.42,24.902-24.665
			c0.411-0.409,0.485-1.155,0.716-1.744c-0.312,0.296-0.616,0.601-0.928,0.899C202.677,179.629,202.273,180.08,201.841,180.512z"/>
		<path style="fill:#F4D2D8;" d="M177.458,203.841c0.109,0.111,0.219,0.222,0.328,0.333c0.13-0.044,0.254-0.1,0.373-0.166
			c0.225-0.419,0.534-0.789,0.875-1.129c7.962-7.921,15.763-16.005,23.885-23.767c0.228-0.487,0.313-1.031,0.13-1.677
			c-0.52,0.89-0.88,1.941-1.586,2.645C193.492,188.031,185.468,195.929,177.458,203.841z"/>
		<path style="fill:#F4D2D8;" d="M201.841,180.512c0.432-0.432,0.836-0.883,1.078-1.399c-8.121,7.761-15.922,15.845-23.885,23.767
			c-0.342,0.34-0.65,0.71-0.875,1.129c0.182-0.101,0.354-0.221,0.508-0.372C186.459,195.996,194.128,188.232,201.841,180.512z"/>
		<path style="fill:#C7102E;" d="M191.125,217.956c0.004-0.005,0.008-0.01,0.012-0.016c-0.858,0.062-1.319-0.269-1.37-1.005
			c-0.002,0-0.003,0-0.005,0c-1.22-0.435-2.315-0.969-2.333-2.345c-1.413-0.38-2.373-1.192-2.568-2.731
			c0.012-0.056,0.029-0.109,0.043-0.163c-1.605,0.147-2.157-0.928-2.454-2.303c0.001-0.014,0.005-0.027,0.006-0.041
			c-1.493,0.056-2.077-0.866-2.183-2.303c-0.407,0.087-0.589-0.083-0.618-0.43c-1.035-0.133-1.647-0.71-1.8-1.773
			c0.009-0.056,0.032-0.103,0.044-0.157c-0.376,0.056-0.569-0.069-0.543-0.409c-0.024,0.004-0.047,0.011-0.072,0.014
			c-1.058-0.191-1.702-0.757-1.716-1.891c0.023-0.022,0.046-0.045,0.069-0.068c-0.417,0.083-0.644-0.018-0.621-0.364
			c-1.067-0.159-1.714-0.739-1.84-1.843c0.036-0.051,0.077-0.099,0.114-0.15c-0.928,0.064-1.486-0.205-1.385-1.066
			c-0.173-0.028-0.347-0.056-0.534-0.117c-7.664-7.146-14.748-14.892-22.941-21.947c-0.462,28.605-0.452,57.12-0.457,86.457
			c15.081-14.949,29.45-29.473,43.94-43.869C191.426,219.216,191.22,218.654,191.125,217.956z"/>
		<path style="fill:#C7102E;" d="M191.915,219.437c-14.49,14.396-28.859,28.92-43.94,43.869c0.005-29.337-0.004-57.852,0.457-86.457
			c8.192,7.055,15.276,14.801,22.941,21.947c0.187,0.061,0.361,0.089,0.534,0.117c0.019-0.159,0.053-0.332,0.118-0.533
			c-8.094-8.058-16.187-16.117-24.654-24.547c0,30.911,0,60.987,0,91.935c3.654-3.747,6.712-6.912,9.801-10.045
			c11.922-12.09,23.854-24.17,35.783-36.253l0,0C192.507,219.579,192.174,219.553,191.915,219.437z"/>
		<path style="fill:#C7102E;" d="M184.906,211.697c-0.014,0.055-0.032,0.108-0.043,0.163c0.195,1.539,1.155,2.351,2.568,2.731
			c-0.002-0.179,0.009-0.368,0.045-0.576l0,0l0,0c-0.786-0.777-1.572-1.554-2.358-2.331l0,0l0,0
			C185.04,211.695,184.978,211.69,184.906,211.697z"/>
		<path style="fill:#C7102E;" d="M182.458,209.353c-0.001,0.014-0.005,0.027-0.006,0.041c0.297,1.375,0.849,2.45,2.454,2.303
			c0.01-0.04,0.02-0.079,0.031-0.118c-0.973-0.493-1.57-1.359-2.152-2.24l0,0C182.667,209.353,182.567,209.349,182.458,209.353z"/>
		<path style="fill:#C7102E;" d="M185.117,211.684L185.117,211.684c-0.066-0.029-0.116-0.073-0.179-0.105
			c-0.012,0.039-0.021,0.079-0.031,0.118C184.978,211.69,185.04,211.695,185.117,211.684z"/>
		<path style="fill:#C7102E;" d="M187.43,214.591c0.018,1.376,1.113,1.91,2.333,2.345c0.002,0,0.003,0,0.005,0
			c-0.012-0.172-0.009-0.358,0.024-0.574l0,0l0,0c-0.779-0.462-1.451-1.03-1.956-1.761c-0.119,0.002-0.234,0.013-0.358,0.005
			C187.461,214.601,187.446,214.595,187.43,214.591z"/>
		<path style="fill:#C7102E;" d="M187.43,214.591c0.016,0.004,0.03,0.01,0.047,0.015c0.124,0.008,0.239-0.003,0.358-0.005
			c-0.129-0.186-0.255-0.376-0.36-0.586l0,0C187.439,214.224,187.428,214.413,187.43,214.591z"/>
		<path style="fill:#C7102E;" d="M191.137,217.941c-0.004,0.005-0.008,0.01-0.012,0.016c0.095,0.698,0.301,1.26,0.79,1.48
			c0.019-0.018,0.037-0.037,0.056-0.055c0.099-0.094,0.195-0.191,0.294-0.286c-0.394-0.3-0.689-0.705-0.927-1.169l0,0l0,0
			C191.266,217.936,191.204,217.936,191.137,217.941z"/>
		<path style="fill:#C7102E;" d="M191.971,219.381c-0.019,0.018-0.037,0.037-0.056,0.055c0.259,0.117,0.592,0.143,1.04,0.031
			c-0.268-0.084-0.489-0.219-0.691-0.372C192.166,219.19,192.07,219.287,191.971,219.381z"/>
		<path style="fill:#C7102E;" d="M182.458,209.353c0.007-0.069,0.022-0.136,0.031-0.205c-0.856-0.53-1.426-1.331-1.946-2.18
			c-0.099,0.038-0.187,0.064-0.268,0.081C180.381,208.487,180.965,209.409,182.458,209.353z"/>
		<path style="fill:#C7102E;" d="M182.785,209.338L182.785,209.338L182.785,209.338c-0.109-0.054-0.196-0.128-0.297-0.19
			c-0.008,0.069-0.024,0.135-0.031,0.205C182.567,209.349,182.667,209.353,182.785,209.338z"/>
		<path style="fill:#C7102E;" d="M173.179,200.128c0.125,1.104,0.773,1.684,1.84,1.843c0.009-0.128,0.043-0.281,0.116-0.472
			c-0.56-0.51-1.12-1.02-1.679-1.53c-0.057,0.006-0.107,0.005-0.162,0.009C173.256,200.03,173.215,200.077,173.179,200.128z"/>
		<path style="fill:#C7102E;" d="M177.857,204.847c0.153,1.063,0.766,1.64,1.8,1.773c-0.01-0.117-0.004-0.25,0.019-0.405
			c-0.847-0.198-1.113-0.926-1.449-1.591c-0.13,0.043-0.224,0.051-0.326,0.066C177.889,204.743,177.866,204.791,177.857,204.847z"/>
		<path style="fill:#C7102E;" d="M171.907,198.912c-0.101,0.861,0.457,1.13,1.385,1.066c0.011-0.015,0.023-0.029,0.034-0.044
			c-0.549-0.141-0.805-0.546-1.02-0.987C172.177,198.944,172.045,198.934,171.907,198.912z"/>
		<path style="fill:#C7102E;" d="M172.306,198.947c-0.093-0.19-0.18-0.385-0.281-0.568c-0.065,0.201-0.099,0.374-0.118,0.533
			C172.045,198.934,172.177,198.944,172.306,198.947z"/>
		<path style="fill:#C7102E;" d="M173.455,199.969c-0.047-0.008-0.085-0.024-0.129-0.035c-0.011,0.015-0.023,0.029-0.034,0.044
			C173.348,199.975,173.397,199.975,173.455,199.969z"/>
		<path style="fill:#C7102E;" d="M179.658,206.619c0.028,0.347,0.211,0.518,0.618,0.43c-0.001-0.016-0.004-0.03-0.005-0.046
			c0.049-0.048,0.098-0.097,0.147-0.146c-0.114-0.099-0.228-0.199-0.342-0.298c-0.107,0.028-0.214,0.056-0.319,0.081
			C179.719,206.638,179.693,206.624,179.658,206.619z"/>
		<path style="fill:#C7102E;" d="M180.275,207.05c0.081-0.017,0.169-0.044,0.268-0.081l0,0c-0.042-0.037-0.084-0.073-0.126-0.11
			c-0.049,0.048-0.098,0.097-0.147,0.146C180.271,207.02,180.274,207.034,180.275,207.05z"/>
		<path style="fill:#C7102E;" d="M179.658,206.619c0.035,0.005,0.061,0.019,0.097,0.022c0.106-0.026,0.213-0.053,0.319-0.081
			c-0.133-0.115-0.265-0.231-0.398-0.346C179.653,206.369,179.648,206.502,179.658,206.619z"/>
		<path style="fill:#C7102E;" d="M175.57,202.403c0.014,1.135,0.659,1.7,1.716,1.891c0.025-0.003,0.047-0.011,0.072-0.014
			c0.01-0.123,0.035-0.262,0.1-0.438c-0.52-0.52-1.041-1.039-1.561-1.559c-0.103,0.034-0.173,0.036-0.258,0.053
			C175.616,202.358,175.593,202.38,175.57,202.403z"/>
		<path style="fill:#C7102E;" d="M191.137,217.941c0.03-0.042,0.063-0.081,0.093-0.122c-0.288-0.292-0.577-0.583-0.865-0.875
			c-0.192,0.012-0.388,0.015-0.598-0.007C189.818,217.672,190.279,218.003,191.137,217.941z"/>
		<path style="fill:#C7102E;" d="M189.768,216.936c0.21,0.022,0.406,0.019,0.598,0.007c-0.192-0.194-0.383-0.387-0.574-0.581l0,0
			C189.758,216.578,189.756,216.764,189.768,216.936z"/>
		<path style="fill:#C7102E;" d="M191.338,217.927L191.338,217.927c-0.036-0.036-0.071-0.072-0.107-0.108
			c-0.03,0.042-0.063,0.08-0.093,0.122C191.204,217.936,191.266,217.936,191.338,217.927z"/>
		<path style="fill:#C7102E;" d="M175.018,201.971c-0.023,0.346,0.204,0.447,0.621,0.364c0.053-0.052,0.105-0.104,0.159-0.155
			c-0.089-0.092-0.179-0.183-0.268-0.275c-0.16,0.035-0.323,0.065-0.495,0.071C175.029,201.975,175.024,201.972,175.018,201.971z"/>
		<path style="fill:#C7102E;" d="M175.035,201.976c0.172-0.006,0.334-0.036,0.495-0.071c-0.132-0.135-0.264-0.27-0.396-0.406
			c-0.074,0.191-0.108,0.344-0.116,0.472C175.024,201.972,175.029,201.975,175.035,201.976z"/>
		<path style="fill:#C7102E;" d="M175.898,202.282c-0.033-0.034-0.066-0.068-0.1-0.102c-0.053,0.052-0.105,0.104-0.159,0.155
			C175.725,202.318,175.795,202.316,175.898,202.282z"/>
		<path style="fill:#C7102E;" d="M177.902,204.689c0.024-0.106,0.051-0.21,0.087-0.309c-0.068-0.069-0.135-0.137-0.202-0.206
			c-0.137,0.047-0.279,0.083-0.428,0.105C177.332,204.62,177.525,204.745,177.902,204.689z"/>
		<path style="fill:#C7102E;" d="M178.228,204.624c-0.08-0.081-0.159-0.162-0.239-0.243c-0.036,0.099-0.063,0.203-0.087,0.309
			C178.004,204.674,178.098,204.666,178.228,204.624z"/>
		<path style="fill:#C7102E;" d="M177.786,204.175c-0.109-0.111-0.219-0.222-0.328-0.333c-0.064,0.177-0.09,0.316-0.1,0.438
			C177.507,204.258,177.649,204.221,177.786,204.175z"/>
		<path style="fill:#C7102E;" d="M247.795,221.772c0.867-0.06,1.332,0.278,1.376,1.03c0.001,0,0.001,0,0.002,0
			c0.872,0.318,1.612,0.732,1.567,1.703c1.022,0.182,1.646,0.757,1.757,1.838c-0.014,0.071-0.044,0.132-0.063,0.2
			c0.668,0.073,1.279,0.209,1.354,0.938c0.031,0.004,0.059,0.001,0.091,0.007c0.802,0.322,1.531,0.693,1.521,1.562
			c0.018,0.002,0.033-0.001,0.051,0.001c0.785,0.33,1.527,0.688,1.504,1.548c0.007,0.001,0.014,0,0.021,0.001
			c1.003,0.303,1.689,0.875,1.698,2.015c-0.035,0.036-0.071,0.071-0.107,0.107c0.936-0.14,1.426,0.162,1.443,0.93
			c0.031,0.006,0.058,0.006,0.089,0.013c0.979,0.34,1.675,0.916,1.698,2.047c-0.023,0.023-0.046,0.046-0.069,0.069
			c0.56-0.159,0.75,0.257,0.865,0.793c-0.003,0.009-0.008,0.016-0.012,0.025c0.889-0.116,1.328,0.217,1.306,1.01
			c0.029,0.003,0.055,0.001,0.084,0.005c1.008,0.292,1.694,0.863,1.725,1.997c-0.032,0.033-0.065,0.065-0.098,0.098
			c0.47-0.109,0.696,0.019,0.648,0.415c0.042-0.006,0.08-0.017,0.123-0.021c0.82,0.316,1.715,0.585,1.405,1.611
			c0.198,0.052,0.399,0.115,0.614,0.216c7.401,6.487,13.868,13.946,21.786,21.19c0-29.104,0-57.45,0-86.693
			c-14.81,14.643-28.943,28.957-43.214,43.126c-0.067,0.064-0.131,0.129-0.198,0.193C247.455,220.16,247.804,220.83,247.795,221.772
			z"/>
		<path style="fill:#C7102E;" d="M246.964,219.554c14.271-14.169,28.403-28.483,43.214-43.126c-0.001,29.243,0,57.589,0,86.693
			c-7.918-7.244-14.385-14.703-21.786-21.19c-0.214-0.101-0.416-0.165-0.614-0.216c-0.036,0.119-0.078,0.242-0.149,0.383l0,0l0,0
			c7.765,7.71,15.53,15.421,23.668,23.501c0-30.874,0-60.995,0-90.538c-15.027,14.685-30.201,29.515-45.376,44.344
			c0.322,0.083,0.604,0.197,0.845,0.342C246.833,219.683,246.897,219.618,246.964,219.554z"/>
		<path style="fill:#C7102E;" d="M247.795,221.772c0.009-0.942-0.34-1.613-1.028-2.025c-0.12,0.115-0.238,0.233-0.358,0.348
			c0.398,0.563,0.796,1.126,1.193,1.69l0,0l0,0C247.671,221.776,247.73,221.777,247.795,221.772z"/>
		<path style="fill:#C7102E;" d="M246.766,219.747c-0.241-0.145-0.523-0.259-0.845-0.342c0.163,0.23,0.325,0.46,0.488,0.69
			C246.529,219.98,246.646,219.862,246.766,219.747z"/>
		<path style="fill:#C7102E;" d="M252.497,226.344c-0.111-1.081-0.735-1.656-1.757-1.838c-0.006,0.129-0.023,0.265-0.058,0.414l0,0
			c0.655,0.356,1.272,0.743,1.367,1.583l0,0c0.128,0.014,0.257,0.027,0.385,0.041C252.454,226.475,252.483,226.414,252.497,226.344z
			"/>
		<path style="fill:#C7102E;" d="M250.74,224.505c0.045-0.971-0.694-1.385-1.567-1.703c-0.001,0-0.001,0-0.002,0
			c0.01,0.165,0.007,0.343-0.024,0.549l0,0l0,0c0.392,0.401,0.784,0.801,1.176,1.202c0.112-0.023,0.22-0.055,0.337-0.07
			C250.69,224.487,250.711,224.5,250.74,224.505z"/>
		<path style="fill:#C7102E;" d="M250.74,224.505c-0.029-0.005-0.05-0.018-0.08-0.023c-0.116,0.016-0.224,0.047-0.337,0.07
			c0.12,0.122,0.239,0.244,0.359,0.366l0,0l0,0C250.717,224.77,250.734,224.634,250.74,224.505z"/>
		<path style="fill:#C7102E;" d="M261.799,235.712c-0.023-1.132-0.72-1.708-1.698-2.047c-0.031-0.007-0.059-0.007-0.089-0.013
			c0.004,0.192-0.011,0.404-0.066,0.655l0,0c0.517,0.521,1.034,1.042,1.551,1.563c0.085-0.041,0.162-0.068,0.234-0.088
			C261.753,235.758,261.776,235.736,261.799,235.712z"/>
		<path style="fill:#C7102E;" d="M258.675,232.615c-0.009-1.14-0.695-1.712-1.698-2.015c-0.008-0.001-0.014,0-0.021-0.001
			c-0.005,0.174-0.03,0.362-0.104,0.582c0.517,0.521,1.033,1.042,1.55,1.563c0.06-0.012,0.111-0.014,0.168-0.022
			C258.603,232.686,258.639,232.651,258.675,232.615z"/>
		<path style="fill:#C7102E;" d="M256.955,230.599c0.023-0.86-0.719-1.219-1.504-1.548c-0.018-0.002-0.033,0.001-0.051-0.001
			c-0.002,0.17-0.022,0.353-0.087,0.566c0.317,0.323,0.634,0.645,0.95,0.968C256.482,230.566,256.712,230.571,256.955,230.599z"/>
		<path style="fill:#C7102E;" d="M256.955,230.599c-0.243-0.028-0.473-0.033-0.692-0.016c0.196,0.199,0.392,0.399,0.587,0.598
			C256.925,230.961,256.95,230.773,256.955,230.599z"/>
		<path style="fill:#C7102E;" d="M253.879,227.488c-0.032-0.005-0.059-0.002-0.091-0.007c0.017,0.162,0.016,0.344-0.027,0.572l0,0
			c0.324,0.326,0.647,0.652,0.971,0.978c0.211-0.014,0.434-0.008,0.668,0.019C255.411,228.181,254.681,227.81,253.879,227.488z"/>
		<path style="fill:#C7102E;" d="M255.4,229.05c-0.234-0.027-0.456-0.033-0.668-0.019c0.193,0.195,0.387,0.39,0.58,0.585
			C255.378,229.403,255.398,229.22,255.4,229.05z"/>
		<path style="fill:#C7102E;" d="M265.698,239.612c-0.031-1.134-0.717-1.706-1.725-1.997c-0.029-0.004-0.055-0.001-0.084-0.005
			c-0.005,0.18-0.025,0.376-0.078,0.604c0.519,0.52,1.038,1.041,1.558,1.561c0.084-0.028,0.159-0.047,0.232-0.064
			C265.633,239.677,265.666,239.645,265.698,239.612z"/>
		<path style="fill:#C7102E;" d="M260.011,233.652c-0.018-0.768-0.507-1.07-1.443-0.93c-0.032,0.032-0.063,0.063-0.095,0.095
			c0.256,0.259,0.511,0.517,0.767,0.776C259.483,233.582,259.738,233.597,260.011,233.652z"/>
		<path style="fill:#C7102E;" d="M260.011,233.652c-0.274-0.055-0.529-0.07-0.772-0.059c0.235,0.238,0.47,0.476,0.705,0.714
			C260,234.056,260.016,233.844,260.011,233.652z"/>
		<path style="fill:#C7102E;" d="M258.4,232.744L258.4,232.744c0.024,0.024,0.048,0.049,0.072,0.073
			c0.032-0.032,0.063-0.063,0.095-0.095C258.511,232.73,258.461,232.732,258.4,232.744z"/>
		<path style="fill:#C7102E;" d="M266.372,240.103c-0.043,0.004-0.081,0.016-0.123,0.021c-0.015,0.121-0.049,0.261-0.116,0.433
			c0.541,0.259,1.002,0.595,1.293,1.097c0.115,0.015,0.23,0.029,0.352,0.06C268.087,240.689,267.193,240.419,266.372,240.103z"/>
		<path style="fill:#C7102E;" d="M267.777,241.715c-0.121-0.032-0.236-0.045-0.352-0.06c0.079,0.137,0.152,0.279,0.203,0.443l0,0
			C267.699,241.957,267.741,241.834,267.777,241.715z"/>
		<path style="fill:#C7102E;" d="M262.595,236.575c-0.115-0.536-0.305-0.952-0.865-0.793c-0.054,0.055-0.108,0.108-0.162,0.163
			c0.228,0.236,0.456,0.472,0.685,0.708c0.119-0.027,0.224-0.039,0.33-0.053C262.587,236.591,262.592,236.583,262.595,236.575z"/>
		<path style="fill:#C7102E;" d="M261.496,235.87L261.496,235.87c0.024,0.025,0.048,0.05,0.072,0.074
			c0.054-0.055,0.108-0.108,0.162-0.163C261.658,235.802,261.581,235.83,261.496,235.87z"/>
		<path style="fill:#C7102E;" d="M247.795,221.772c0,0.037,0.004,0.07,0.003,0.107c-0.014,0.02-0.029,0.039-0.043,0.06
			c0.273,0.277,0.545,0.553,0.818,0.83c0.19-0.007,0.388,0,0.598,0.033C249.126,222.05,248.662,221.713,247.795,221.772z"/>
		<path style="fill:#C7102E;" d="M247.795,221.772c-0.065,0.004-0.123,0.003-0.193,0.012l0,0c0.051,0.052,0.102,0.103,0.153,0.155
			c0.014-0.02,0.029-0.039,0.043-0.06C247.799,221.842,247.794,221.809,247.795,221.772z"/>
		<path style="fill:#C7102E;" d="M249.171,222.802c-0.211-0.033-0.408-0.04-0.598-0.033c0.191,0.194,0.383,0.388,0.574,0.582l0,0
			C249.178,223.145,249.181,222.968,249.171,222.802z"/>
		<path style="fill:#C7102E;" d="M263.889,237.609c0.022-0.793-0.417-1.126-1.306-1.01c-0.035,0.092-0.084,0.172-0.123,0.261
			c0.251,0.251,0.502,0.502,0.753,0.754C263.427,237.588,263.65,237.582,263.889,237.609z"/>
		<path style="fill:#C7102E;" d="M263.889,237.609c-0.239-0.027-0.463-0.021-0.676,0.005c0.2,0.2,0.399,0.399,0.599,0.599
			C263.864,237.985,263.884,237.79,263.889,237.609z"/>
		<path style="fill:#C7102E;" d="M262.253,236.653c0.069,0.069,0.138,0.138,0.207,0.208c0.039-0.089,0.088-0.169,0.123-0.261
			C262.477,236.614,262.372,236.626,262.253,236.653z"/>
		<path style="fill:#C7102E;" d="M253.789,227.481c-0.075-0.729-0.686-0.865-1.354-0.938c-0.023,0.081-0.046,0.163-0.076,0.24
			c0.251,0.227,0.502,0.454,0.753,0.682C253.325,227.445,253.549,227.447,253.789,227.481z"/>
		<path style="fill:#C7102E;" d="M252.049,226.502c0.103,0.094,0.206,0.187,0.31,0.281c0.03-0.077,0.053-0.159,0.076-0.24
			C252.307,226.529,252.177,226.516,252.049,226.502z"/>
		<path style="fill:#C7102E;" d="M253.789,227.481c-0.24-0.034-0.463-0.036-0.677-0.017c0.217,0.196,0.433,0.392,0.65,0.588
			C253.804,227.825,253.805,227.643,253.789,227.481z"/>
		<path style="fill:#C7102E;" d="M265.601,239.71c-0.049,0.05-0.099,0.099-0.149,0.149c0.115,0.118,0.231,0.237,0.346,0.355
			c0.144-0.04,0.295-0.068,0.451-0.089C266.297,239.729,266.071,239.6,265.601,239.71z"/>
		<path style="fill:#C7102E;" d="M265.369,239.774c0.028,0.028,0.055,0.057,0.083,0.085c0.049-0.05,0.099-0.099,0.149-0.149
			C265.528,239.727,265.453,239.746,265.369,239.774z"/>
		<path style="fill:#C7102E;" d="M265.798,240.214c0.112,0.114,0.223,0.229,0.335,0.343c0.067-0.172,0.101-0.312,0.116-0.433
			C266.093,240.146,265.942,240.174,265.798,240.214z"/>
	</g>
</g>
</svg>
