<?xml version="1.0" encoding="iso-8859-1"?>
<!-- Generator: Adobe Illustrator 22.0.1, SVG Export Plug-In . SVG Version: 6.00 Build 0)  -->
<svg version="1.1" id="Layer_1" xmlns="http://www.w3.org/2000/svg" xmlns:xlink="http://www.w3.org/1999/xlink" x="0px" y="0px"
	 viewBox="0 0 438.53 438.53" style="enable-background:new 0 0 438.53 438.53;" xml:space="preserve">
<g id="_x31_32">
	<g>
		<path style="fill:#F4F4F4;" d="M407.603,110.087c-19.45-33.321-45.833-59.704-79.155-79.153
			c-33.328-19.448-69.711-29.17-109.176-29.17c-39.461,0-75.854,9.722-109.177,29.17C76.771,50.38,50.388,76.763,30.938,110.087
			c-19.451,33.326-29.173,69.72-29.173,109.178c0,39.46,9.725,75.847,29.17,109.175c19.449,33.321,45.832,59.704,79.156,79.155
			c33.326,19.447,69.717,29.17,109.177,29.17s75.854-9.723,109.179-29.17c33.322-19.444,59.704-45.834,79.152-79.155
			c19.445-33.325,29.166-69.718,29.166-109.175C436.766,179.803,427.044,143.409,407.603,110.087z M161,99.358
			c95.301-40.42,150.095,26.156,150.095,26.156c-94.505,11.094-94.505,29.325-94.505,29.325v25.363
			C174.501,215.867,89.526,198.43,89.526,198.43C84.76,134.232,161,99.358,161,99.358z M101.44,274.515
			c-10.325-9.51-11.121-37.25-11.121-37.25c103.241-0.791,124.684-19.022,124.684-19.022l3.97-34.872
			c29.383-24.572,118.331-22.191,118.331-22.191l0,0l11.912,38.042c-104.828-3.965-124.682,19.02-124.682,19.02l-3.179,28.534
			C219.769,268.175,101.44,274.515,101.44,274.515z M228.507,352.195c0,0-77.827-1.587-105.623-45.18
			c0,0,98.475-8.719,100.858-24.569l3.176-34.875c0,0,66.711-22.985,122.301-11.094
			C349.219,236.476,340.483,336.342,228.507,352.195z"/>
		<path style="fill:#C9322D;" d="M216.59,180.202v-25.363c0,0,0-18.231,94.505-29.325c0,0-54.794-66.576-150.095-26.156
			c0,0-76.24,34.875-71.474,99.072C89.526,198.43,174.501,215.867,216.59,180.202z"/>
		<path style="fill:#C9322D;stroke:#C9322D;stroke-width:0.1358;stroke-miterlimit:2.613;" d="M221.356,246.775l3.179-28.534
			c0,0,19.854-22.985,124.682-19.02l-11.912-38.042l0,0c0,0-88.948-2.38-118.331,22.191l-3.97,34.872
			c0,0-21.444,18.231-124.684,19.022c0,0,0.796,27.741,11.121,37.25C101.44,274.515,219.769,268.175,221.356,246.775z"/>
		<path style="fill:#C9322D;stroke:#C9322D;stroke-width:0.1358;stroke-miterlimit:2.613;" d="M226.918,247.571l-3.176,34.875
			c-2.383,15.85-100.858,24.569-100.858,24.569c27.796,43.594,105.623,45.18,105.623,45.18
			c111.976-15.853,120.712-115.719,120.712-115.719C293.629,224.586,226.918,247.571,226.918,247.571z"/>
	</g>
</g>
</svg>
