<?xml version="1.0" encoding="iso-8859-1"?>
<!-- Generator: Adobe Illustrator 22.0.1, SVG Export Plug-In . SVG Version: 6.00 Build 0)  -->
<svg version="1.1" id="Layer_1" xmlns="http://www.w3.org/2000/svg" xmlns:xlink="http://www.w3.org/1999/xlink" x="0px" y="0px"
	 viewBox="0 0 438.53 438.53" style="enable-background:new 0 0 438.53 438.53;" xml:space="preserve">
<g id="_x31_37">
	<g>
		<polygon style="fill:#F0F0F0;" points="89.598,73.376 82.366,95.636 58.96,95.636 77.896,109.392 70.663,131.652 89.598,117.895 
			108.533,131.652 101.3,109.392 120.235,95.636 96.83,95.636 		"/>
		<path style="fill:#F0F0F0;" d="M28.404,196.726l-7.233-22.259l18.936-13.757H16.702l-3.528-10.858
			c-4.057,12.068-7.033,24.421-8.923,36.909l5.218-3.792L28.404,196.726z"/>
		<polygon style="fill:#F0F0F0;" points="96.83,160.71 89.598,138.45 82.366,160.71 58.96,160.71 77.896,174.467 70.663,196.726 
			89.598,182.969 108.533,196.726 101.3,174.467 120.235,160.71 		"/>
		<path style="fill:#F0F0F0;" d="M89.598,52.821l18.935,13.757l-7.233-22.26l18.936-13.757h-9.085
			C97.874,38.175,85.228,47.286,73.477,57.92l-2.813,8.657L89.598,52.821z"/>
		<path style="fill:#F0F0F0;" d="M25.064,121.37c-0.97,1.924-1.916,3.856-2.825,5.802l6.165,4.479L25.064,121.37z"/>
		<polygon style="fill:#F0F0F0;" points="200.364,160.71 176.959,160.71 169.726,138.45 162.494,160.71 139.089,160.71 
			158.025,174.467 150.792,196.726 169.726,182.969 188.661,196.726 181.428,174.467 		"/>
		<path style="fill:#F0F0F0;" d="M192.125,219.065H1.77c0,0.189-0.007,0.378-0.007,0.567c0,19.425,2.58,38.847,7.726,57.708H133.85
			L192.125,219.065z"/>
		<path style="fill:#F0F0F0;" d="M65.507,373.772l0.01-0.01c-0.119-0.118-0.24-0.232-0.359-0.35
			C65.276,373.531,65.389,373.653,65.507,373.772z"/>
		<path style="fill:#F0F0F0;" d="M58.59,366.045c-2.157-2.33-4.26-4.708-6.315-7.13l23.299-23.299H35.058
			c8.337,13.266,18.245,25.819,29.714,37.4l0.394-0.394L58.59,366.045z"/>
		<polygon style="fill:#F0F0F0;" points="150.792,131.652 169.726,117.895 188.661,131.652 181.428,109.392 200.364,95.636 
			176.959,95.636 169.726,73.376 162.494,95.636 139.089,95.636 158.025,109.392 		"/>
		<path style="fill:#F0F0F0;" d="M349.079,44.239C310.805,15.955,265.303,1.792,219.789,1.76c0,16.314,0,30.009,0,42.479H349.079z"
			/>
		<path style="fill:#F0F0F0;" d="M308.676,102.515h-88.887c0,16.352,0,34.676,0,58.275h30.612L308.676,102.515z"/>
		<polygon style="fill:#F0F0F0;" points="150.792,66.578 169.726,52.821 188.661,66.578 181.428,44.318 200.364,30.561 
			176.959,30.561 169.726,8.302 162.494,30.561 139.089,30.561 158.025,44.318 		"/>
		<path style="fill:#D80027;" d="M250.401,160.789h-30.612c0,9.315,0,19.451,0,30.612L250.401,160.789z"/>
		<path style="fill:#D80027;" d="M219.789,102.515h88.887l50.413-50.413c-3.277-2.73-6.614-5.354-10.009-7.863H219.79
			C219.789,64.868,219.789,82.174,219.789,102.515z"/>
		<path style="fill:#D80027;" d="M133.85,277.34H9.489c5.541,20.311,14.064,39.968,25.57,58.276h40.516L133.85,277.34z"/>
		<path style="fill:#0052B4;" d="M210.077,201.113v-40.324h9.712c0-23.599,0-41.923,0-58.275h-9.712V44.239h9.712
			c0-12.47,0-26.165,0-42.479c-37.564-0.026-75.126,9.583-108.639,28.802h9.085L101.3,44.318l7.233,22.26L89.598,52.821
			L70.663,66.578l2.813-8.657c-2.706,2.449-5.366,4.976-7.975,7.585c-16.808,16.805-30.278,35.707-40.437,55.864l3.341,10.282
			l-6.165-4.479c-3.464,7.416-6.48,14.99-9.065,22.679l3.528,10.858h23.405l-18.936,13.757l7.233,22.259L9.469,182.969l-5.218,3.792
			c-1.62,10.703-2.452,21.502-2.481,32.304h190.355L210.077,201.113z M108.533,196.726l-18.935-13.757l-18.935,13.757l7.233-22.26
			L58.96,160.71h23.405l7.232-22.26l7.232,22.26h23.405L101.3,174.467L108.533,196.726z M101.3,109.392l7.233,22.259l-18.935-13.757
			l-18.935,13.757l7.233-22.259L58.96,95.636h23.405l7.232-22.259l7.232,22.259h23.405L101.3,109.392z M162.494,30.561l7.232-22.26
			l7.232,22.26h23.405l-18.936,13.757l7.233,22.26l-18.935-13.757L150.79,66.578l7.233-22.26l-18.936-13.757H162.494z
			 M162.494,95.636l7.232-22.259l7.232,22.259h23.405l-18.936,13.757l7.233,22.259l-18.935-13.757l-18.935,13.757l7.233-22.259
			l-18.936-13.757H162.494z M169.726,182.969l-18.935,13.757l7.233-22.26l-18.936-13.757h23.405l7.232-22.26l7.232,22.26h23.405
			l-18.936,13.757l7.233,22.26L169.726,182.969z"/>
		<path style="fill:#0052B4;" d="M219.789,160.789h-9.712v40.324l9.712-9.712C219.789,180.24,219.789,170.104,219.789,160.789z"/>
		<path style="fill:#0052B4;" d="M210.077,44.239v58.276h9.712c0-20.341,0-37.647,0-58.276H210.077z"/>
		<path style="fill:#F0F0F0;" d="M433.85,183.208c-6.116-37.147-21.855-72.999-47.207-103.507L283.137,183.208H433.85z"/>
		<path style="fill:#0052B4;" d="M433.85,183.208H283.137L124.04,342.305h274.551C431.074,295.052,442.83,237.743,433.85,183.208z"
			/>
		<path style="fill:#D80027;" d="M117.295,349.05l-37.256,37.256c-3.268-2.696-6.451-5.491-9.555-8.369l-4.571-4.571l-0.396,0.396
			c42.404,41.994,97.885,63.008,153.384,63.008c55.814-0.007,111.648-21.253,154.126-63.738c7.381-7.38,14.106-15.17,20.205-23.285
			l-134.206,12.444L117.295,349.05z"/>
		<path style="fill:#D80027;" d="M64.762,373.026c0.131,0.131,0.266,0.256,0.397,0.387c-0.131-0.131-0.256-0.266-0.386-0.397
			L64.762,373.026z"/>
		<path style="fill:#D80027;" d="M65.167,372.621l-0.394,0.394c0.13,0.132,0.255,0.266,0.386,0.397
			c0.119,0.118,0.24,0.232,0.359,0.35l0.396-0.396L65.167,372.621z"/>
		<path style="fill:#D80027;" d="M117.295,349.05l141.732,13.142l134.206-12.444c1.843-2.452,3.632-4.932,5.358-7.443H124.04
			L117.295,349.05z"/>
		<path style="fill:#FFFFFF;" d="M373.028,64.76c0.121,0.121,0.239,0.245,0.36,0.367c0.128,0.127,0.258,0.251,0.386,0.379
			l-0.007,0.007c4.539,4.582,8.83,9.317,12.877,14.188l0.657-0.657c-8.418-9.927-17.705-19.102-27.756-27.399l-0.456,0.456
			c4.782,3.984,9.431,8.206,13.932,12.665L373.028,64.76z"/>
		<polygon style="fill:#FFFFFF;" points="218.722,219.065 210.077,219.065 192.125,219.065 133.85,277.34 160.447,277.34 		"/>
		<path style="fill:#FFFFFF;" d="M74.089,363.698l17.072-17.072l4.322-4.322l6.689-6.689H75.575l-23.299,23.299
			c2.055,2.421,4.158,4.8,6.315,7.13l6.576,6.576L74.089,363.698L74.089,363.698z"/>
		<polygon style="fill:#FFFFFF;" points="276.998,160.789 335.273,102.515 308.676,102.515 250.401,160.789 		"/>
		<path style="fill:#FFFFFF;" d="M276.998,160.789h-26.597l-30.612,30.612c0,8.272,0,17.114,0,26.597l34.79-34.79L276.998,160.789z"
			/>
		<path style="fill:#FFFFFF;" d="M373.774,65.506c-0.128-0.128-0.258-0.252-0.386-0.379c0.128,0.128,0.252,0.258,0.379,0.386
			L373.774,65.506z"/>
		<path style="fill:#FFFFFF;" d="M335.273,102.515l28.44-28.44l9.307-9.307c-4.502-4.459-9.15-8.681-13.932-12.665l-50.413,50.413
			L335.273,102.515L335.273,102.515z"/>
		<polygon style="fill:#FFFFFF;" points="160.447,277.34 133.85,277.34 75.575,335.616 102.172,335.616 		"/>
		<polygon style="fill:#FFFFFF;" points="210.077,201.113 192.125,219.065 210.077,219.065 		"/>
		<path style="fill:#FFFFFF;" d="M218.722,219.065l1.067-1.067c0-9.484,0-18.326,0-26.597l-9.712,9.712v17.952H218.722z"/>
		<path style="fill:#FFFFFF;" d="M373.028,64.76l-0.007,0.007c0.122,0.121,0.245,0.239,0.367,0.36
			C373.266,65.005,373.149,64.881,373.028,64.76z"/>
		<path style="fill:#FFFFFF;" d="M364.459,74.82l-27.694,27.694l-58.275,58.275l-22.418,22.418h27.065L386.644,79.701
			c-4.048-4.871-8.339-9.606-12.877-14.188L364.459,74.82z"/>
		<polygon style="fill:#FFFFFF;" points="278.49,160.789 336.765,102.515 335.273,102.515 276.998,160.789 		"/>
		<polygon style="fill:#FFFFFF;" points="254.58,183.208 256.072,183.208 278.49,160.789 276.998,160.789 		"/>
		<path style="fill:#FFFFFF;" d="M364.459,74.82l9.307-9.307c-0.127-0.128-0.251-0.258-0.379-0.386
			c-0.122-0.121-0.245-0.239-0.367-0.36l-9.307,9.307l-28.44,28.44h1.492L364.459,74.82z"/>
		<polygon style="fill:#FFFFFF;" points="220.214,219.065 161.939,277.34 103.664,335.616 96.975,342.305 124.04,342.305 
			283.137,183.208 256.072,183.208 		"/>
		<polygon style="fill:#FFFFFF;" points="218.722,219.065 160.447,277.34 161.939,277.34 220.214,219.065 219.789,219.065 		"/>
		<polygon style="fill:#FFFFFF;" points="95.483,342.305 96.975,342.305 103.664,335.616 102.172,335.616 		"/>
		<path style="fill:#FFFFFF;" d="M219.789,217.998c0,0.357,0,0.708,0,1.067h0.425l35.857-35.857h-1.492L219.789,217.998z"/>
		<polygon style="fill:#FFFFFF;" points="102.172,335.616 103.664,335.616 161.939,277.34 160.447,277.34 		"/>
		<path style="fill:#FFFFFF;" d="M219.789,217.998l-1.067,1.067h1.067C219.789,218.706,219.789,218.356,219.789,217.998z"/>
		<path style="fill:#FFFFFF;" d="M74.835,364.444L74.835,364.444l-8.923,8.922l4.571,4.571c3.104,2.877,6.287,5.672,9.555,8.369
			l37.256-37.256l-24.769-2.297L74.835,364.444z"/>
		<polygon style="fill:#FFFFFF;" points="74.835,364.444 92.526,346.753 91.161,346.627 74.089,363.698 74.089,363.698 
			65.167,372.621 65.913,373.367 		"/>
		<polygon style="fill:#FFFFFF;" points="92.526,346.753 117.295,349.05 124.04,342.305 96.975,342.305 		"/>
		<polygon style="fill:#FFFFFF;" points="91.161,346.627 92.526,346.753 96.975,342.305 95.483,342.305 		"/>
	</g>
</g>
</svg>
