<?xml version="1.0" encoding="iso-8859-1"?>
<!-- Generator: Adobe Illustrator 22.0.1, SVG Export Plug-In . SVG Version: 6.00 Build 0)  -->
<svg version="1.1" id="Layer_1" xmlns="http://www.w3.org/2000/svg" xmlns:xlink="http://www.w3.org/1999/xlink" x="0px" y="0px"
	 viewBox="0 0 438.53 438.53" style="enable-background:new 0 0 438.53 438.53;" xml:space="preserve">
<g id="_x31_39">
	<g>
		<path style="fill:#F7931A;" d="M270.323,173.836c-1.474-2.104-3.622-4.089-6.448-5.952c-2.821-1.863-5.463-3.336-7.92-4.417
			c-2.456-1.081-5.526-2.191-9.211-3.328c-3.686-1.137-6.639-1.924-8.862-2.362c-2.222-0.436-5.008-0.998-8.363-1.683
			c-3.351-0.685-5.386-1.108-6.108-1.267l-10.454,47.346c0.515,0.114,2.281,0.532,5.304,1.253c3.023,0.721,5.413,1.248,7.172,1.584
			c1.758,0.335,4.352,0.798,7.78,1.394c3.427,0.596,6.317,0.936,8.67,1.024c2.351,0.089,5.124,0.108,8.314,0.057
			c3.191-0.049,5.896-0.45,8.109-1.201c2.215-0.75,4.427-1.718,6.628-2.904c2.2-1.185,4.029-2.858,5.474-5.018
			c1.447-2.162,2.488-4.682,3.123-7.562c0.749-3.392,0.77-6.541,0.062-9.447C272.891,178.447,271.801,175.941,270.323,173.836z"/>
		<path style="fill:#F7931A;" d="M264.003,247.892c-1.854-2.35-4.465-4.571-7.831-6.661c-3.369-2.093-6.524-3.786-9.47-5.085
			c-2.951-1.299-6.654-2.599-11.107-3.904c-4.457-1.31-7.972-2.245-10.542-2.813c-2.571-0.568-5.895-1.251-9.981-2.045
			c-4.085-0.792-6.538-1.281-7.36-1.463l-11.511,52.129c0.823,0.182,2.718,0.627,5.691,1.334c2.971,0.709,5.432,1.282,7.386,1.713
			c1.953,0.431,4.696,0.955,8.224,1.575c3.531,0.617,6.583,1.076,9.157,1.374c2.579,0.298,5.603,0.51,9.085,0.632
			c3.475,0.118,6.487,0.033,9.036-0.271c2.544-0.301,5.227-0.839,8.039-1.622c2.812-0.779,5.185-1.874,7.114-3.278
			c1.927-1.409,3.639-3.189,5.141-5.338c1.501-2.151,2.567-4.66,3.203-7.542c0.818-3.702,0.773-7.163-0.137-10.383
			C267.235,253.026,265.856,250.246,264.003,247.892z"/>
		<path style="fill:#F7931A;" d="M407.603,110.087c-19.45-33.321-45.833-59.704-79.155-79.153
			c-33.328-19.448-69.711-29.17-109.176-29.17c-39.461,0-75.854,9.722-109.177,29.17C76.771,50.38,50.388,76.763,30.938,110.087
			c-19.451,33.326-29.173,69.72-29.173,109.178c0,39.46,9.725,75.847,29.17,109.175c19.449,33.321,45.832,59.704,79.156,79.155
			c33.326,19.447,69.717,29.17,109.177,29.17s75.854-9.723,109.179-29.17c33.322-19.444,59.704-45.834,79.152-79.155
			c19.445-33.325,29.166-69.718,29.166-109.175C436.766,179.803,427.044,143.409,407.603,110.087z M319.994,189.898
			c-2.284,19.122-11.945,30.899-28.991,35.331c11.395,5.534,19.223,12.816,23.482,21.842c4.26,9.029,4.145,20.543-0.352,34.534
			c-2.33,7.143-5.421,13.2-9.265,18.175c-3.852,4.973-8.176,8.819-12.981,11.529c-4.804,2.713-10.454,4.622-16.949,5.72
			c-6.496,1.101-13.134,1.493-19.914,1.186c-6.776-0.306-14.425-1.19-22.948-2.642l-8.683,39.326l-23.749-5.244l8.547-38.708
			c-8.225-1.816-14.486-3.251-18.779-4.31l-8.581,38.864l-23.755-5.245l8.683-39.326c-1.851-0.409-4.62-1.047-8.31-1.916
			c-3.693-0.864-6.513-1.514-8.466-1.945l-30.845-6.811l11.014-27.168l17.116,3.779c5.141,1.135,8.702-0.83,10.681-5.891
			l13.689-61.995l2.469,0.545c-0.595-0.239-1.405-0.473-2.434-0.701l9.774-44.263c0.207-7.285-3.596-11.792-11.41-13.518
			l-17.118-3.78l5.585-25.293l32.66,7.375c6.58,1.453,11.577,2.501,14.994,3.148l8.581-38.864l23.751,5.245l-8.411,38.093
			c8.475,1.656,14.769,2.938,18.882,3.846l8.343-37.785l23.748,5.244l-8.582,38.864c7.964,2.512,14.907,5.259,20.826,8.237
			c5.917,2.978,11.22,6.573,15.896,10.789c4.68,4.214,8.032,9.158,10.07,14.837C320.298,176.68,320.874,182.976,319.994,189.898z"/>
		<path style="fill:#FFFFFF;" d="M308.191,156.165c-4.675-4.217-9.979-7.812-15.896-10.789c-5.918-2.978-12.862-5.725-20.826-8.237
			l8.582-38.864l-23.748-5.244l-8.343,37.785c-4.112-0.908-10.406-2.19-18.882-3.846l8.411-38.093l-23.751-5.245l-8.581,38.864
			c-3.417-0.646-8.414-1.695-14.994-3.148l-32.66-7.375l-5.585,25.293l17.118,3.78c7.814,1.725,11.617,6.232,11.41,13.518
			l-9.774,44.263c1.03,0.227,1.839,0.462,2.434,0.701l-2.469-0.545l-13.689,61.995c-1.979,5.061-5.54,7.026-10.681,5.891
			l-17.116-3.779l-11.014,27.168l30.845,6.811c1.954,0.431,4.774,1.081,8.466,1.945c3.689,0.869,6.458,1.508,8.31,1.916
			l-8.683,39.326l23.755,5.245l8.581-38.864c4.294,1.059,10.554,2.494,18.779,4.31l-8.547,38.708l23.749,5.244l8.683-39.326
			c8.523,1.451,16.172,2.336,22.948,2.642c6.78,0.307,13.418-0.084,19.914-1.186c6.495-1.098,12.145-3.007,16.949-5.72
			c4.805-2.71,9.129-6.556,12.981-11.529c3.844-4.975,6.936-11.031,9.265-18.175c4.497-13.991,4.612-25.505,0.352-34.534
			c-4.26-9.026-12.087-16.308-23.482-21.842c17.046-4.432,26.707-16.209,28.991-35.331c0.88-6.923,0.304-13.218-1.733-18.896
			C316.223,165.322,312.871,160.378,308.191,156.165z M268.278,266.629c-0.637,2.882-1.703,5.392-3.203,7.542
			c-1.502,2.15-3.214,3.93-5.141,5.338c-1.929,1.404-4.302,2.499-7.114,3.278c-2.813,0.783-5.495,1.321-8.039,1.622
			c-2.548,0.303-5.561,0.389-9.036,0.271c-3.482-0.121-6.506-0.334-9.085-0.632c-2.575-0.298-5.626-0.757-9.157-1.374
			c-3.528-0.62-6.271-1.144-8.224-1.575c-1.954-0.431-4.416-1.004-7.386-1.713c-2.973-0.707-4.867-1.152-5.691-1.334l11.511-52.129
			c0.822,0.181,3.275,0.67,7.36,1.463c4.086,0.793,7.41,1.477,9.981,2.045c2.57,0.568,6.085,1.503,10.542,2.813
			c4.454,1.305,8.156,2.605,11.107,3.904c2.947,1.299,6.102,2.991,9.47,5.085c3.365,2.09,5.977,4.311,7.831,6.661
			c1.853,2.353,3.232,5.134,4.138,8.354C269.051,259.466,269.095,262.927,268.278,266.629z M273.533,190.8
			c-0.636,2.879-1.677,5.4-3.123,7.562c-1.445,2.161-3.273,3.833-5.474,5.018c-2.201,1.186-4.414,2.154-6.628,2.904
			c-2.213,0.75-4.918,1.151-8.109,1.201c-3.19,0.051-5.963,0.032-8.314-0.057c-2.353-0.088-5.242-0.428-8.67-1.024
			c-3.428-0.596-6.022-1.059-7.78-1.394c-1.76-0.335-4.149-0.863-7.172-1.584s-4.789-1.139-5.304-1.253l10.454-47.346
			c0,0-0.001,0-0.002,0v-0.001h0.002v0.001c0.721,0.159,2.757,0.581,6.108,1.267c3.355,0.685,6.141,1.247,8.363,1.683
			c2.222,0.437,5.175,1.224,8.862,2.362c3.685,1.137,6.755,2.247,9.211,3.328c2.456,1.081,5.099,2.554,7.92,4.417
			c2.826,1.863,4.974,3.848,6.448,5.952c1.478,2.105,2.568,4.611,3.272,7.517C274.303,184.258,274.282,187.407,273.533,190.8z"/>
		<polygon style="fill:#FFFFFF;" points="223.411,154.826 223.411,154.827 223.413,154.827 223.413,154.827 		"/>
	</g>
</g>
</svg>
