<?xml version="1.0" encoding="iso-8859-1"?>
<!-- Generator: Adobe Illustrator 22.0.1, SVG Export Plug-In . SVG Version: 6.00 Build 0)  -->
<svg version="1.1" id="Layer_1" xmlns="http://www.w3.org/2000/svg" xmlns:xlink="http://www.w3.org/1999/xlink" x="0px" y="0px"
	 viewBox="0 0 438.53 438.53" style="enable-background:new 0 0 438.53 438.53;" xml:space="preserve">
<g id="_x31_4">
	<g>
		<polygon style="fill:#CCA237;" points="256.11,192.995 175.582,265.814 178.147,333.912 350.806,171.678 325.961,129.832 		"/>
		<path style="fill:#CCA237;" d="M407.603,110.087c-19.45-33.321-45.833-59.704-79.155-79.153
			c-33.328-19.448-69.711-29.17-109.176-29.17c-39.461,0-75.854,9.722-109.177,29.17C76.771,50.38,50.388,76.763,30.938,110.087
			c-19.451,33.326-29.173,69.72-29.173,109.178c0,39.46,9.725,75.847,29.17,109.175c19.449,33.321,45.832,59.704,79.156,79.155
			c33.326,19.447,69.717,29.17,109.177,29.17s75.854-9.723,109.179-29.17c33.322-19.444,59.704-45.834,79.152-79.155
			c19.445-33.325,29.166-69.718,29.166-109.175C436.766,179.803,427.044,143.409,407.603,110.087z M360.316,176.092L177.383,347.978
			c-0.521,0.584-1.158,1.037-1.908,1.319c-0.097,0.039-0.204,0.034-0.302,0.063c-0.448,0.136-0.9,0.282-1.392,0.282
			c-0.024,0-0.063,0.005-0.097,0c-0.56,0-1.105-0.131-1.64-0.321c-0.068-0.024-0.141-0.01-0.209-0.039s-0.117-0.078-0.18-0.107
			c-0.078-0.034-0.161-0.049-0.234-0.088L79.285,300.71c-2.278-1.192-3.232-3.952-2.176-6.298l26.676-59.493
			c0.029-0.063,0.088-0.102,0.122-0.165c0.229-0.453,0.521-0.871,0.886-1.241c0.058-0.063,0.107-0.131,0.17-0.19
			c0.034-0.029,0.058-0.073,0.092-0.102L271.811,90.06c1.543-1.319,3.733-1.548,5.505-0.579l52.115,28.481
			c0.097,0.054,0.17,0.127,0.258,0.185c0.088,0.058,0.165,0.117,0.248,0.18c0.516,0.375,0.954,0.827,1.285,1.363
			c0.015,0.024,0.044,0.039,0.058,0.063l29.883,50.319C362.336,172.033,361.976,174.54,360.316,176.092z"/>
		<polygon style="fill:#CCA237;" points="110.706,243.275 87.861,294.222 168.501,336.565 165.882,266.987 		"/>
		<path style="fill:#FFFFFF;" d="M331.28,119.753c-0.015-0.024-0.044-0.039-0.058-0.063c-0.331-0.535-0.769-0.988-1.285-1.363
			c-0.083-0.063-0.161-0.122-0.248-0.18c-0.088-0.058-0.161-0.131-0.258-0.185l-52.115-28.481c-1.772-0.969-3.962-0.74-5.505,0.579
			L105.056,233.22c-0.034,0.029-0.058,0.073-0.092,0.102c-0.063,0.058-0.112,0.127-0.17,0.19c-0.365,0.37-0.657,0.788-0.886,1.241
			c-0.034,0.063-0.092,0.102-0.122,0.165L77.11,294.412c-1.056,2.346-0.102,5.105,2.176,6.298l92.136,48.377
			c0.073,0.039,0.156,0.054,0.234,0.088c0.063,0.029,0.112,0.078,0.18,0.107s0.141,0.015,0.209,0.039
			c0.535,0.19,1.08,0.321,1.64,0.321c0.034,0.005,0.073,0,0.097,0c0.492,0,0.944-0.146,1.392-0.282
			c0.097-0.029,0.204-0.024,0.302-0.063c0.749-0.282,1.387-0.735,1.908-1.319l182.933-171.885c1.66-1.553,2.02-4.059,0.847-6.02
			L331.28,119.753z M87.861,294.222l22.845-50.947l55.176,23.712l2.618,69.578L87.861,294.222z M178.147,333.912l-2.565-68.098
			l80.528-72.819l69.85-63.163l24.846,41.846L178.147,333.912z"/>
	</g>
</g>
</svg>
