<?xml version="1.0" encoding="iso-8859-1"?>
<!-- Generator: Adobe Illustrator 22.0.1, SVG Export Plug-In . SVG Version: 6.00 Build 0)  -->
<svg version="1.1" id="Layer_1" xmlns="http://www.w3.org/2000/svg" xmlns:xlink="http://www.w3.org/1999/xlink" x="0px" y="0px"
	 viewBox="0 0 438.53 438.53" style="enable-background:new 0 0 438.53 438.53;" xml:space="preserve">
<g id="_x31_46">
	<g>
		<path style="fill:#0052B4;" d="M78.381,331.662l13.43-26.359l-20.915-20.917l29.217,4.63l13.428-26.358l4.629,29.217l0.823,0.13
			l162.781-162.781l-0.13-0.823l-29.216-4.629l26.356-13.429l-4.629-29.215l20.919,20.915l26.357-13.43l-0.99,1.944l38.541-38.541
			c-85.553-71.228-213.264-66.743-293.48,13.486C23.017,107.981,1.771,163.815,1.764,219.629c0,49.564,16.767,99.11,50.261,139.345
			l28.303-28.303L78.381,331.662z M190.764,66.411l9.142-28.134l9.142,28.134h29.58l-23.932,17.387l9.142,28.134l-23.932-17.388
			l-23.933,17.388l9.142-28.134l-23.932-17.387H190.764z M78.381,88.614l26.359,13.429l20.917-20.915l-4.629,29.216l26.358,13.43
			l-29.217,4.628l-4.628,29.218l-13.43-26.358l-29.216,4.629l20.917-20.917L78.381,88.614z M28.046,210.138l28.134-9.142v-29.581
			l17.386,23.933l28.135-9.142l-17.389,23.932l17.389,23.932l-28.135-9.141L56.18,248.861V219.28L28.046,210.138z"/>
		<polygon style="fill:#FFDA44;" points="175.973,111.932 199.906,94.544 223.838,111.932 214.696,83.799 238.628,66.411 
			209.048,66.411 199.906,38.278 190.764,66.411 161.184,66.411 185.115,83.799 		"/>
		<polygon style="fill:#FFDA44;" points="100.112,131.261 113.542,157.619 118.169,128.401 147.386,123.773 121.028,110.343 
			125.657,81.127 104.741,102.043 78.381,88.614 91.812,114.973 70.896,135.89 		"/>
		<polygon style="fill:#FFDA44;" points="73.566,224.929 101.701,234.07 84.311,210.138 101.701,186.206 73.566,195.348 
			56.18,171.415 56.18,200.996 28.046,210.138 56.18,219.28 56.18,248.861 		"/>
		<polygon style="fill:#FFDA44;" points="118.169,291.875 113.541,262.658 100.113,289.016 70.896,284.386 91.811,305.303 
			78.381,331.662 80.327,330.671 118.993,292.005 		"/>
		<polygon style="fill:#FFDA44;" points="321.431,88.614 295.073,102.044 274.155,81.128 278.784,110.343 252.428,123.772 
			281.643,128.401 281.774,129.224 320.44,90.558 		"/>
		<path style="fill:#0052B4;" d="M386.553,79.6l-53.219,53.219c0,2.544,0,5.029,0,7.45c0,21.9,0,39.046,0,57.029
			c0,9.051,0,18.316,0,28.515h-64.227l64.228,64.228c0,11.87,0,25.011,0,39.739l-0.001,0.001c0,0.197,0,0.386,0,0.584h-0.001h-0.583
			h-0.001h-39.741l-64.227-64.227v64.227h-28.514h-57.029h-7.45l-56.184,56.184c38.904,32.367,86.507,49.096,134.412,50.16
			l-14.193-3.199l21.788-17.278l-12.135-25.022l27.095,6.262l11.997-25.087l11.998,25.087l27.093-6.262l-12.133,25.022l11.996,9.513
			c31.283-10.32,60.677-27.884,85.506-52.716c32.45-32.445,52.496-72.662,60.168-114.715l-0.017,0.013l0.038-13.904l-13.563-3.058
			l10.893-8.639l-6.066-12.511l12.245,2.831C437.688,172.13,420.957,120.948,386.553,79.6z M399.067,334.365l-10.846-8.699
			l-10.847,8.699l0.037-13.904l-13.563-3.057l10.894-8.639l-6.066-12.511l13.547,3.132l5.999-12.544l5.998,12.544l13.547-3.132
			l-6.066,12.511l10.894,8.639l-13.563,3.057L399.067,334.365z"/>
		<path style="fill:#F0F0F0;" d="M332.749,330.365h0.583l-0.292-0.292C332.944,330.171,332.847,330.268,332.749,330.365z"/>
		<path style="fill:#F0F0F0;" d="M333.333,140.269c0-2.421,0-4.906,0-7.45l-7.45,7.45H333.333z"/>
		<polygon style="fill:#F0F0F0;" points="135.787,330.365 143.237,330.365 143.237,322.915 		"/>
		<path style="fill:#F0F0F0;" d="M240.339,225.814h15.326l77.669,77.668c0,7.476,0,23.109,0,26.298v0.001l0.001-0.001
			c0-14.728,0-27.869,0-39.739l-64.228-64.228h64.227c0-10.199,0-19.464,0-28.515h-64.479L240.339,225.814z"/>
		<path style="fill:#F0F0F0;" d="M234.56,231.592l-34.294,34.294v64.479h28.514v-64.227l64.227,64.227h39.741
			c0.098-0.097,0.195-0.195,0.292-0.292L234.56,231.592z"/>
		<path style="fill:#F0F0F0;" d="M333.041,330.073c-0.097,0.097-0.194,0.195-0.292,0.292h0.001
			C332.847,330.268,332.944,330.171,333.041,330.073L333.041,330.073z"/>
		<polygon style="fill:#D80027;" points="143.237,322.915 143.237,330.365 200.266,330.365 200.266,265.886 		"/>
		<path style="fill:#D80027;" d="M268.854,197.298h64.479c0-17.983,0-35.129,0-57.029h-7.45L268.854,197.298z"/>
		<path style="fill:#D80027;" d="M333.333,330.365L333.333,330.365c0.001-0.198,0.001-0.387,0.001-0.584
			c-0.097,0.098-0.195,0.195-0.292,0.292L333.333,330.365z"/>
		<path style="fill:#D80027;" d="M333.041,330.073c0.098-0.098,0.195-0.195,0.293-0.293c0-3.189,0-18.823,0-26.298l-77.669-77.668
			h-15.326l-5.779,5.779L333.041,330.073z"/>
		<path style="fill:#D80027;" d="M333.041,330.073L333.041,330.073c0.098-0.097,0.196-0.194,0.293-0.292v-0.001
			C333.236,329.878,333.138,329.975,333.041,330.073z"/>
		<path style="fill:#F0F0F0;" d="M287.659,391.21l-27.093,6.262l-11.998-25.087l-11.997,25.087l-27.095-6.262l12.135,25.022
			l-21.788,17.278l14.193,3.199c1.629,0.036,3.257,0.058,4.886,0.058c23.191-0.003,46.382-3.685,68.621-11.022l-11.996-9.513
			L287.659,391.21z"/>
		<polygon style="fill:#F0F0F0;" points="401.7,308.765 407.766,296.253 394.219,299.386 388.221,286.841 382.222,299.386 
			368.675,296.253 374.741,308.765 363.848,317.404 377.411,320.461 377.374,334.365 388.221,325.666 399.067,334.365 
			399.03,320.461 412.593,317.404 		"/>
		<path style="fill:#F0F0F0;" d="M430.548,232.727l-10.893,8.639l13.563,3.058l-0.038,13.904l0.017-0.013
			c2.127-11.658,3.307-23.454,3.53-35.268l-12.245-2.831L430.548,232.727z"/>
		<path style="fill:#FFFFFF;" d="M64.762,373.023l0.746,0.746c-0.123-0.123-0.24-0.249-0.363-0.372
			C65.019,373.27,64.889,373.149,64.762,373.023z"/>
		<path style="fill:#FFFFFF;" d="M65.508,373.769l4.476,4.476c3.104,2.877,6.287,5.672,9.555,8.369l0.064-0.064
			c-4.835-4.022-9.536-8.284-14.086-12.789L65.508,373.769z"/>
		<path style="fill:#FFFFFF;" d="M52.025,358.973l-0.248,0.248c2.055,2.421,4.158,4.8,6.315,7.13l6.671,6.671l0.01-0.01
			C60.281,368.478,56.035,363.791,52.025,358.973z"/>
		<path style="fill:#FFFFFF;" d="M373.029,64.757c0.123,0.123,0.241,0.25,0.363,0.373c0.127,0.126,0.256,0.247,0.382,0.373
			l-0.01,0.01c4.507,4.55,8.765,9.253,12.788,14.088l0.249-0.249c-8.418-9.927-17.705-19.102-27.756-27.399l-0.065,0.065
			c4.818,4.011,9.504,8.257,14.039,12.749L373.029,64.757z"/>
		<polygon style="fill:#FFFFFF;" points="305.592,132.193 299.699,131.26 292.61,145.175 297.516,140.269 		"/>
		<path style="fill:#FFFFFF;" d="M65.145,373.396c0.122,0.123,0.24,0.249,0.363,0.372l0.009-0.009
			C65.394,373.637,65.269,373.519,65.145,373.396z"/>
		<path style="fill:#FFFFFF;" d="M373.775,65.502c-0.126-0.126-0.256-0.247-0.382-0.373c0.126,0.126,0.247,0.256,0.373,0.383
			L373.775,65.502z"/>
		<path style="fill:#FFFFFF;" d="M74.09,363.695L74.09,363.695l38.057-38.057l-7.406-7.406L80.328,330.67l-28.303,28.303
			c4.011,4.818,8.256,9.505,12.747,14.04L74.09,363.695z"/>
		<path style="fill:#FFFFFF;" d="M308.001,114.973l7.406,7.406l10.483-10.484l37.824-37.824l9.305-9.305
			c-4.534-4.492-9.221-8.737-14.039-12.749l-38.54,38.541L308.001,114.973z"/>
		<polygon style="fill:#FFFFFF;" points="143.237,294.548 200.266,237.519 240.487,197.298 285.437,152.348 281.774,129.224 
			118.993,292.005 142.117,295.668 		"/>
		<polygon style="fill:#FFFFFF;" points="121.03,309.933 121.963,315.822 134.941,302.844 		"/>
		<polygon style="fill:#FFFFFF;" points="121.963,315.822 121.03,309.933 134.941,302.844 142.117,295.668 118.993,292.005 
			80.327,330.671 104.741,318.232 112.147,325.638 114.863,322.922 		"/>
		<polygon style="fill:#FFFFFF;" points="292.61,145.175 299.699,131.26 305.592,132.193 315.406,122.379 308.001,114.973 
			320.44,90.558 281.774,129.224 285.437,152.348 		"/>
		<path style="fill:#FFFFFF;" d="M373.029,64.757l-0.009,0.009c0.124,0.122,0.25,0.241,0.373,0.364
			C373.269,65.006,373.152,64.88,373.029,64.757z"/>
		<path style="fill:#FFFFFF;" d="M114.723,330.365c0-1.978,0.042-3.945,0.098-5.909l-1.929,1.929l-38.057,38.057l0,0l-9.318,9.318
			c4.55,4.506,9.251,8.767,14.086,12.789l56.184-56.184H114.723z"/>
		<path style="fill:#FFFFFF;" d="M64.772,373.013l-0.01,0.01c0.127,0.127,0.256,0.248,0.383,0.374
			C65.019,373.27,64.898,373.14,64.772,373.013z"/>
		<path style="fill:#FFFFFF;" d="M364.46,74.817l-37.037,37.037c1.952-0.056,3.908-0.098,5.873-0.098
			c0.012,0,0.025-0.001,0.037-0.001c-0.012,0-0.025,0.001-0.037,0.001h0.037c0,7.549,0,14.519,0,21.063l53.22-53.219
			c-4.023-4.835-8.281-9.538-12.788-14.088L364.46,74.817z"/>
		<path style="fill:#FFFFFF;" d="M74.09,363.695L74.09,363.695l-9.318,9.318c0.126,0.127,0.247,0.257,0.374,0.383
			c0.123,0.122,0.249,0.241,0.372,0.363l9.318-9.318l0,0l38.057-38.057l-0.746-0.746L74.09,363.695z"/>
		<path style="fill:#FFFFFF;" d="M364.46,74.817l9.305-9.305c-0.126-0.127-0.247-0.256-0.373-0.383
			c-0.123-0.123-0.249-0.241-0.373-0.364l-9.305,9.305l-37.824,37.824c0.51-0.017,1.023-0.027,1.534-0.042L364.46,74.817z"/>
		<path style="fill:#FFFFFF;" d="M112.147,325.638l0.746,0.746l1.929-1.929c0.015-0.511,0.025-1.023,0.042-1.534L112.147,325.638z"
			/>
		<path style="fill:#FFFFFF;" d="M333.297,111.756c-1.966,0-3.921,0.042-5.873,0.098l-11.271,11.271l-9.273,9.273l-7.871,7.871
			h26.875l7.45-7.45c0-6.544,0-13.515,0-21.063H333.297z"/>
		<polygon style="fill:#FFFFFF;" points="297.516,140.269 299.008,140.269 306.879,132.398 305.592,132.193 		"/>
		<path style="fill:#FFFFFF;" d="M327.423,111.854c-0.511,0.015-1.023,0.025-1.534,0.042l-10.483,10.484l0.746,0.746
			L327.423,111.854z"/>
		<polygon style="fill:#FFFFFF;" points="306.879,132.398 316.152,123.125 315.406,122.379 305.592,132.193 		"/>
		<path style="fill:#FFFFFF;" d="M143.237,296.04l-5.254,5.254l-15.816,15.816l-7.346,7.346c-0.056,1.964-0.098,3.932-0.098,5.909
			h21.064l7.45-7.45V296.04z"/>
		<polygon style="fill:#FFFFFF;" points="143.237,294.548 142.117,295.668 143.237,295.846 		"/>
		<polygon style="fill:#FFFFFF;" points="121.963,315.822 122.167,317.11 137.983,301.294 134.941,302.844 		"/>
		<polygon style="fill:#FFFFFF;" points="142.117,295.668 134.941,302.844 137.983,301.294 143.237,296.04 143.237,295.846 		"/>
		<path style="fill:#FFFFFF;" d="M121.963,315.822l-7.1,7.1c-0.017,0.51-0.027,1.023-0.042,1.534l7.346-7.346L121.963,315.822z"/>
		<polygon style="fill:#FFFFFF;" points="200.266,239.011 200.266,265.886 234.56,231.592 228.781,225.814 240.339,225.814 
			268.854,197.298 241.979,197.298 		"/>
		<polygon style="fill:#FFFFFF;" points="241.979,197.298 240.487,197.298 200.266,237.519 200.266,239.011 		"/>
		<polygon style="fill:#FFFFFF;" points="143.405,295.872 143.237,296.04 143.237,322.915 200.266,265.886 200.266,239.011 		"/>
		<polygon style="fill:#FFFFFF;" points="143.405,295.872 200.266,239.011 200.266,237.519 143.237,294.548 143.237,295.846 		"/>
		<polygon style="fill:#FFFFFF;" points="143.237,295.846 143.237,296.04 143.405,295.872 		"/>
		<polygon style="fill:#FFFFFF;" points="285.641,153.636 241.979,197.298 268.854,197.298 325.883,140.269 299.008,140.269 
			291.061,148.216 		"/>
		<polygon style="fill:#FFFFFF;" points="292.61,145.175 291.061,148.216 299.008,140.269 297.516,140.269 		"/>
		<polygon style="fill:#FFFFFF;" points="285.641,153.636 285.437,152.348 240.487,197.298 241.979,197.298 		"/>
		<polygon style="fill:#FFFFFF;" points="291.061,148.216 292.61,145.175 285.437,152.348 285.641,153.636 		"/>
		<polygon style="fill:#FFFFFF;" points="234.56,231.592 240.339,225.814 228.781,225.814 		"/>
	</g>
</g>
</svg>
