<?xml version="1.0" encoding="iso-8859-1"?>
<!-- Generator: Adobe Illustrator 22.0.1, SVG Export Plug-In . SVG Version: 6.00 Build 0)  -->
<svg version="1.1" id="Layer_1" xmlns="http://www.w3.org/2000/svg" xmlns:xlink="http://www.w3.org/1999/xlink" x="0px" y="0px"
	 viewBox="0 0 438.53 438.53" style="enable-background:new 0 0 438.53 438.53;" xml:space="preserve">
<g id="_x31_50">
	<g>
		<path style="fill:#F0F0F0;" d="M4.249,252.466c1.556,10.296,3.848,20.5,6.877,30.528h102.941l-68.21,68.213
			c1.989,2.624,4.051,5.211,6.173,7.764l106.501-106.505L4.249,252.466L4.249,252.466z"/>
		<path style="fill:#F0F0F0;" d="M358.973,52.019c-2.551-2.124-5.138-4.185-7.762-6.175l-71.871,71.873V10.043
			c-10.038-2.842-20.24-4.952-30.525-6.329V162.18L358.973,52.019z"/>
		<path style="fill:#F0F0F0;" d="M187.764,191.412V4.082c-10.292,1.509-20.496,3.75-30.526,6.729v106.904L86.526,47.002
			c-7.302,5.64-14.328,11.805-21.021,18.499c-0.61,0.61-1.2,1.232-1.802,1.848l93.534,93.538v0.001v0.001v-0.001h-28.779
			L50.142,82.569c-2.161,2.668-4.256,5.373-6.272,8.118l70.2,70.202H9.79c-2.792,10.041-4.853,20.244-6.185,30.525L187.764,191.412
			L187.764,191.412z"/>
		<path style="fill:#0052B4;" d="M43.87,90.686c-15.827,21.549-27.178,45.381-34.08,70.202h104.28L43.87,90.686z"/>
		<path style="fill:#0052B4;" d="M11.125,282.994c7.3,24.167,18.88,47.302,34.732,68.213l68.21-68.213L11.125,282.994
			L11.125,282.994z"/>
		<path style="fill:#0052B4;" d="M351.211,45.844c-21.963-16.653-46.382-28.586-71.871-35.801v107.674L351.211,45.844z"/>
		<path style="fill:#0052B4;" d="M157.237,10.811c-25.108,7.457-49.127,19.52-70.712,36.191l70.712,70.714V10.811z"/>
		<path style="fill:#D80027;" d="M248.815,162.179V3.714C228.558,1,207.992,1.116,187.764,4.082v187.33v0.001H3.605
			c-1.213,9.363-1.835,18.788-1.836,28.215c0,10.981,0.835,21.96,2.479,32.839h154.283L248.815,162.179z"/>
		<path style="fill:#D80027;" d="M157.237,160.887L157.237,160.887L63.703,67.349c-4.796,4.909-9.323,9.985-13.562,15.22
			l78.316,78.319h28.78V160.887z"/>
		<path style="fill:#F0F0F0;" d="M258.014,208.135l17.497,26.246h22.26l-22.26,44.522l44.521-22.261v22.261l22.259,11.13
			l-44.52,22.261l11.13,22.261H264.38v33.391h-22.259v-33.391H197.6l11.13-22.261l-36.581-18.292l-30.199,30.2v98.62
			c24.741,9.294,50.844,13.944,76.951,13.944c52.176-0.006,104.367-18.579,145.651-55.709V101.594L258.014,208.135z"/>
		<polygon style="fill:#F0F0F0;" points="216.41,249.74 201.829,264.322 230.991,278.903 		"/>
		<path style="fill:#D80027;" d="M386.548,79.597l-21.996,21.997v279.463c2.877-2.588,5.704-5.261,8.471-8.028
			C453.235,292.826,457.734,165.148,386.548,79.597z"/>
		<path style="fill:#D80027;" d="M79.61,386.544c19.028,15.831,40.13,27.934,62.34,36.278v-98.62L79.61,386.544z"/>
		<polygon style="fill:#D80027;" points="230.991,278.903 201.829,264.322 172.149,294.002 208.73,312.294 197.601,334.555 
			242.121,334.555 242.121,367.946 264.381,367.946 264.381,334.555 308.902,334.555 297.772,312.294 342.292,290.033 
			320.032,278.903 320.032,256.642 275.511,278.903 297.772,234.381 275.511,234.381 258.014,208.135 216.41,249.74 		"/>
		<path style="fill:#FFFFFF;" d="M373.014,64.764l0.009-0.009c0.12,0.12,0.234,0.243,0.354,0.363
			c0.13,0.129,0.263,0.253,0.392,0.383l-0.009,0.009c4.506,4.549,8.766,9.252,12.788,14.087l0.248-0.248
			c-8.418-9.927-17.705-19.102-27.755-27.399l-0.068,0.068c0.083,0.069,0.167,0.135,0.25,0.204
			C363.953,56.173,368.557,60.35,373.014,64.764z"/>
		<path style="fill:#FFFFFF;" d="M65.512,373.768l4.476,4.476c3.104,2.877,6.286,5.672,9.555,8.369l0.068-0.068
			c-4.835-4.023-9.539-8.28-14.088-12.787L65.512,373.768z"/>
		<path style="fill:#FFFFFF;" d="M64.766,373.022l0.746,0.746c-0.151-0.151-0.298-0.305-0.449-0.457
			C64.965,373.213,64.864,373.12,64.766,373.022z"/>
		<path style="fill:#FFFFFF;" d="M52.03,358.971l-0.25,0.25c2.054,2.421,4.158,4.8,6.315,7.13l6.671,6.671l0.007-0.007
			C60.281,368.479,56.037,363.792,52.03,358.971z"/>
		<path style="fill:#FFFFFF;" d="M74.093,363.694L74.093,363.694l67.857-67.859l43.367-43.368h-26.786L52.03,358.971
			c4.007,4.821,8.252,9.509,12.743,14.044L74.093,363.694z"/>
		<path style="fill:#FFFFFF;" d="M65.063,373.311c0.151,0.151,0.297,0.305,0.449,0.457l0.01-0.01
			C65.37,373.607,65.215,373.462,65.063,373.311z"/>
		<path style="fill:#FFFFFF;" d="M248.815,188.966l30.525-30.526v-26.333l79.882-79.885c-0.083-0.069-0.167-0.135-0.25-0.204
			L248.815,162.179V188.966z"/>
		<polygon style="fill:#FFFFFF;" points="248.815,162.179 158.531,252.466 185.317,252.466 248.815,188.966 		"/>
		<path style="fill:#FFFFFF;" d="M364.552,73.226l8.463-8.463c-4.457-4.413-9.061-8.591-13.792-12.541l-79.882,79.885v26.333
			l84.368-84.371L364.552,73.226z"/>
		<path style="fill:#FFFFFF;" d="M373.769,65.501c-0.13-0.13-0.262-0.254-0.392-0.383c0.129,0.13,0.254,0.262,0.383,0.392
			L373.769,65.501z"/>
		<polygon style="fill:#FFFFFF;" points="364.455,74.815 279.341,159.932 248.815,190.458 186.809,252.466 141.95,297.327 
			141.95,324.202 172.149,294.002 164.211,290.033 186.47,278.903 186.47,256.642 201.829,264.322 216.41,249.74 208.73,234.381 
			230.991,234.381 253.251,200.99 258.014,208.135 364.552,101.594 364.552,74.718 		"/>
		<polygon style="fill:#FFFFFF;" points="185.317,252.466 141.95,295.835 141.95,297.327 186.809,252.466 		"/>
		<polygon style="fill:#FFFFFF;" points="279.341,159.932 279.341,158.44 248.815,188.966 248.815,190.458 		"/>
		<polygon style="fill:#FFFFFF;" points="248.815,190.458 248.815,188.966 185.317,252.466 186.809,252.466 		"/>
		<polygon style="fill:#FFFFFF;" points="364.455,74.815 364.552,74.718 364.552,73.226 363.709,74.069 279.341,158.44 
			279.341,159.932 		"/>
		<path style="fill:#FFFFFF;" d="M364.552,74.718v26.875l21.996-21.997c-4.023-4.835-8.282-9.537-12.788-14.087L364.552,74.718z"/>
		<path style="fill:#FFFFFF;" d="M373.023,64.755l-0.009,0.009c0.12,0.119,0.243,0.235,0.363,0.354
			C373.258,64.998,373.143,64.875,373.023,64.755z"/>
		<path style="fill:#FFFFFF;" d="M364.552,74.718l9.208-9.208c-0.129-0.13-0.253-0.263-0.383-0.392
			c-0.12-0.119-0.242-0.235-0.363-0.354l-8.463,8.463v1.491H364.552z"/>
		<path style="fill:#FFFFFF;" d="M64.772,373.015l-0.007,0.007c0.098,0.098,0.199,0.192,0.297,0.289
			C64.965,373.213,64.87,373.113,64.772,373.015z"/>
		<path style="fill:#FFFFFF;" d="M141.95,297.327L74.839,364.44l0,0l-9.317,9.318c4.55,4.506,9.253,8.764,14.088,12.787
			l62.34-62.342V297.327z"/>
		<path style="fill:#FFFFFF;" d="M74.093,363.694L74.093,363.694l-9.321,9.321c0.097,0.098,0.193,0.198,0.291,0.296
			c0.152,0.151,0.307,0.296,0.459,0.446l9.317-9.318l0,0l67.111-67.113v-1.492L74.093,363.694z"/>
		<polygon style="fill:#FFFFFF;" points="186.47,256.642 186.47,278.903 164.211,290.033 172.149,294.002 201.829,264.322 		"/>
		<polygon style="fill:#FFFFFF;" points="230.991,234.381 208.73,234.381 216.41,249.74 258.014,208.135 253.251,200.99 		"/>
	</g>
</g>
</svg>
