<?xml version="1.0" encoding="iso-8859-1"?>
<!-- Generator: Adobe Illustrator 22.0.1, SVG Export Plug-In . SVG Version: 6.00 Build 0)  -->
<svg version="1.1" id="Layer_1" xmlns="http://www.w3.org/2000/svg" xmlns:xlink="http://www.w3.org/1999/xlink" x="0px" y="0px"
	 viewBox="0 0 438.53 438.53" style="enable-background:new 0 0 438.53 438.53;" xml:space="preserve">
<g id="_x31_53">
	<g>
		<polygon style="fill:#F0F0F0;" points="210.065,286.987 210.065,286.987 210.065,256.091 179.168,286.987 		"/>
		<path style="fill:#F0F0F0;" d="M253.766,330.691V433.97c7.343-1.181,14.637-2.727,21.85-4.658V352.54h115.497
			c5.47-7.037,10.442-14.338,14.929-21.851H253.766V330.691z"/>
		<path style="fill:#F0F0F0;" d="M210.064,330.689h-74.597l-21.851,21.851h74.599v82.07c7.251,1.023,14.545,1.674,21.85,1.968
			L210.064,330.689L210.064,330.689z"/>
		<path style="fill:#F0F0F0;" d="M275.617,190.539l-21.851,21.851v74.599h0.001h172.168c2.354-7.196,4.327-14.489,5.913-21.851
			H275.617V190.539z"/>
		<path style="fill:#D80027;" d="M64.763,373.025l0.003,0.003L64.763,373.025z"/>
		<path style="fill:#D80027;" d="M113.615,352.54l-34.007,34.007c31.896,26.539,69.639,42.567,108.606,48.063v-82.07L113.615,352.54
			L113.615,352.54z"/>
		<path style="fill:#D80027;" d="M275.617,429.312c35.713-9.562,69.455-28.32,97.411-56.28c6.532-6.531,12.557-13.379,18.085-20.492
			H275.617V429.312z"/>
		<path style="fill:#D80027;" d="M386.535,79.62L275.617,190.539v74.598h156.232C445.607,201.29,430.483,132.436,386.535,79.62z"/>
		<path style="fill:#0052B4;" d="M253.766,286.988v-74.599l-43.702,43.702v30.896v0.001h-30.896l-43.702,43.702h74.597h0.001
			v105.889c2.945,0.118,5.891,0.191,8.838,0.191c11.662-0.001,23.323-0.943,34.864-2.799v-103.28v-0.001h152.276
			c8.321-13.932,14.952-28.597,19.893-43.702H253.766L253.766,286.988z"/>
		<polygon style="fill:#F0F0F0;" points="89.599,73.377 82.367,95.636 58.962,95.636 77.898,109.393 70.665,131.652 89.599,117.896 
			108.534,131.652 101.301,109.393 120.237,95.636 96.832,95.636 		"/>
		<path style="fill:#F0F0F0;" d="M25.065,121.371c-0.969,1.924-1.916,3.856-2.825,5.802l6.165,4.479L25.065,121.371z"/>
		<polygon style="fill:#F0F0F0;" points="96.832,160.71 89.599,138.451 82.367,160.71 58.962,160.71 77.898,174.467 70.665,196.726 
			89.599,182.97 108.534,196.726 101.301,174.467 120.237,160.71 		"/>
		<path style="fill:#F0F0F0;" d="M28.406,196.726l-7.233-22.259l18.936-13.757H16.703l-3.528-10.858
			c-4.057,12.068-7.033,24.421-8.923,36.909l5.218-3.792L28.406,196.726z"/>
		<path style="fill:#F0F0F0;" d="M308.486,102.515H219.79c0,16.352,0,34.676,0,58.275h30.422L308.486,102.515z"/>
		<path style="fill:#F0F0F0;" d="M89.599,52.822l18.935,13.757l-7.233-22.259l18.936-13.757h-9.085
			c-13.277,7.614-25.923,16.725-37.674,27.359l-2.813,8.657L89.599,52.822z"/>
		<path style="fill:#F0F0F0;" d="M349.08,44.24C310.806,15.955,265.304,1.793,219.79,1.761c0,16.313,0,30.009,0,42.479H349.08z"/>
		<path style="fill:#F0F0F0;" d="M191.936,219.065H1.772c0,0.189-0.007,0.378-0.007,0.567c0,19.425,2.58,38.846,7.726,57.708
			h124.171L191.936,219.065z"/>
		<polygon style="fill:#F0F0F0;" points="200.365,160.71 176.96,160.71 169.728,138.451 162.495,160.71 139.09,160.71 
			158.026,174.467 150.793,196.726 169.728,182.97 188.662,196.726 181.429,174.467 		"/>
		<path style="fill:#F0F0F0;" d="M35.06,335.615c5.073,8.071,10.736,15.873,16.966,23.36l23.36-23.36H35.06z"/>
		<polygon style="fill:#F0F0F0;" points="65.509,373.771 65.509,373.771 65.507,373.769 		"/>
		<polygon style="fill:#F0F0F0;" points="150.793,66.578 169.728,52.822 188.662,66.578 181.429,44.319 200.365,30.562 
			176.96,30.562 169.728,8.303 162.495,30.562 139.09,30.562 158.026,44.319 		"/>
		<polygon style="fill:#F0F0F0;" points="150.793,131.652 169.728,117.896 188.662,131.652 181.429,109.393 200.365,95.636 
			176.96,95.636 169.728,73.377 162.495,95.636 139.09,95.636 158.026,109.393 		"/>
		<path style="fill:#D80027;" d="M250.212,160.79H219.79c0,9.262,0,19.335,0,30.422L250.212,160.79z"/>
		<path style="fill:#D80027;" d="M219.79,102.515h88.696l50.5-50.5c-3.244-2.699-6.546-5.293-9.906-7.776H219.79
			C219.79,64.868,219.79,82.174,219.79,102.515z"/>
		<path style="fill:#D80027;" d="M133.662,277.34H9.491c5.541,20.311,14.064,39.968,25.57,58.276h40.326L133.662,277.34z"/>
		<path style="fill:#0052B4;" d="M210.078,200.923V160.79h9.712c0-23.599,0-41.923,0-58.275h-9.712V44.24h9.712
			c0-12.47,0-26.165,0-42.479c-37.564-0.026-75.126,9.583-108.639,28.801h9.085L101.3,44.319l7.233,22.259L89.599,52.822
			L70.665,66.578l2.813-8.657c-2.706,2.449-5.366,4.976-7.975,7.585c-16.808,16.805-30.278,35.706-40.437,55.864l3.341,10.282
			l-6.165-4.479c-3.464,7.416-6.48,14.99-9.065,22.679l3.528,10.858H40.11l-18.936,13.757l7.233,22.259L9.471,182.97l-5.218,3.792
			c-1.62,10.703-2.452,21.502-2.481,32.304h190.165L210.078,200.923z M108.534,196.726L89.599,182.97l-18.935,13.757l7.233-22.259
			L58.962,160.71h23.405l7.232-22.259l7.232,22.259h23.405L101.3,174.467L108.534,196.726z M101.301,109.393l7.233,22.259
			l-18.935-13.757l-18.935,13.757l7.233-22.259L58.962,95.636h23.405l7.232-22.259l7.232,22.259h23.405L101.301,109.393z
			 M162.495,30.562l7.232-22.259l7.232,22.259h23.405l-18.936,13.757l7.233,22.259l-18.935-13.757l-18.935,13.757l7.233-22.259
			L139.09,30.562H162.495z M162.495,95.636l7.232-22.259l7.232,22.259h23.405l-18.936,13.757l7.233,22.259l-18.935-13.757
			l-18.935,13.757l7.233-22.259L139.09,95.636H162.495z M169.728,182.97l-18.935,13.757l7.233-22.259L139.09,160.71h23.405
			l7.232-22.259l7.232,22.259h23.405l-18.936,13.757l7.233,22.259L169.728,182.97z"/>
		<path style="fill:#0052B4;" d="M219.79,160.79h-9.712v40.134l9.712-9.712C219.79,180.125,219.79,170.052,219.79,160.79z"/>
		<path style="fill:#0052B4;" d="M210.078,44.24v58.275h9.712c0-20.341,0-37.647,0-58.275C219.79,44.24,210.078,44.24,210.078,44.24
			z"/>
		<path style="fill:#FFFFFF;" d="M64.766,373.028l0.741,0.741c-0.107-0.107-0.208-0.216-0.314-0.323
			C65.051,373.306,64.907,373.169,64.766,373.028z"/>
		<path style="fill:#FFFFFF;" d="M52.026,358.975l-0.249,0.249c2.054,2.421,4.158,4.8,6.315,7.13l6.671,6.671l0.011-0.011
			C60.283,368.48,56.036,363.794,52.026,358.975z"/>
		<path style="fill:#FFFFFF;" d="M65.517,373.763l-0.008,0.008l4.476,4.476c3.104,2.877,6.287,5.672,9.555,8.369l0.068-0.068
			c-3.199-2.661-6.34-5.426-9.417-8.299C68.618,376.779,67.059,375.285,65.517,373.763z"/>
		<path style="fill:#FFFFFF;" d="M373.028,64.76c0.106,0.106,0.209,0.214,0.314,0.321c0.143,0.143,0.289,0.281,0.432,0.424
			l-0.009,0.009c0.153,0.159,0.307,0.316,0.462,0.474c4.336,4.404,8.423,8.961,12.309,13.631l0.266-0.266
			c-8.418-9.927-17.705-19.102-27.756-27.398l-0.059,0.059c4.818,4.009,9.501,8.261,14.035,12.752L373.028,64.76z"/>
		<polygon style="fill:#FFFFFF;" points="188.214,251.066 188.214,265.137 174.144,265.137 161.941,277.34 152.293,286.987 
			179.168,286.987 210.065,256.091 210.065,229.216 		"/>
		<path style="fill:#FFFFFF;" d="M122.852,316.429l-19.186,19.186L86.74,352.54h26.875l21.851-21.851H124.08
			C123.468,325.995,123.066,321.236,122.852,316.429z"/>
		<polygon style="fill:#FFFFFF;" points="253.766,185.514 253.766,212.389 275.617,190.539 275.617,163.663 		"/>
		<path style="fill:#FFFFFF;" d="M70.192,378.249c-1.086-1.98-2.134-3.983-3.161-5.999l-1.513,1.513
			C67.059,375.285,68.618,376.779,70.192,378.249z"/>
		<path style="fill:#FFFFFF;" d="M64.774,373.015l-0.011,0.011l0.003,0.003c0.141,0.141,0.285,0.277,0.427,0.418
			C65.051,373.304,64.915,373.157,64.774,373.015z"/>
		<path style="fill:#FFFFFF;" d="M86.74,352.54l-11.904,11.904l0,0l-7.806,7.806c1.027,2.016,2.076,4.019,3.161,5.999
			c3.076,2.873,6.218,5.637,9.417,8.299l34.007-34.007H86.74V352.54z"/>
		<path style="fill:#FFFFFF;" d="M373.028,64.76l-0.007,0.007c0.106,0.105,0.214,0.209,0.32,0.315
			C373.237,64.975,373.134,64.867,373.028,64.76z"/>
		<path style="fill:#FFFFFF;" d="M374.227,65.99c-0.155-0.157-0.309-0.315-0.462-0.474l-0.161,0.161
			C373.811,65.781,374.02,65.883,374.227,65.99z"/>
		<path style="fill:#FFFFFF;" d="M373.604,65.677l-9.144,9.144l-27.694,27.694l-58.275,58.275l-2.874,2.874v26.875L386.535,79.62
			c-3.885-4.669-7.972-9.227-12.309-13.631C374.02,65.883,373.811,65.781,373.604,65.677z"/>
		<polygon style="fill:#FFFFFF;" points="188.214,265.137 188.214,251.066 174.144,265.137 		"/>
		<path style="fill:#FFFFFF;" d="M122.852,316.429c0.215,4.807,0.616,9.566,1.228,14.26h11.387l43.702-43.702h-26.875
			L122.852,316.429z"/>
		<polygon style="fill:#FFFFFF;" points="220.215,219.065 210.065,229.216 210.065,256.091 253.766,212.389 253.766,185.514 		"/>
		<polygon style="fill:#FFFFFF;" points="276.999,160.79 335.273,102.515 308.486,102.515 250.212,160.79 		"/>
		<polygon style="fill:#FFFFFF;" points="278.491,160.79 336.765,102.515 335.273,102.515 276.999,160.79 		"/>
		<polygon style="fill:#FFFFFF;" points="172.652,265.137 188.214,249.574 210.065,227.724 218.723,219.065 210.078,219.065 
			191.936,219.065 133.662,277.34 160.449,277.34 		"/>
		<polygon style="fill:#FFFFFF;" points="160.449,277.34 161.941,277.34 174.144,265.137 172.652,265.137 		"/>
		<polygon style="fill:#FFFFFF;" points="188.214,249.574 188.214,251.066 210.065,229.216 210.065,227.724 		"/>
		<polygon style="fill:#FFFFFF;" points="172.652,265.137 174.144,265.137 188.214,251.066 188.214,249.574 		"/>
		<polygon style="fill:#FFFFFF;" points="218.723,219.065 210.065,227.724 210.065,229.216 220.215,219.065 219.79,219.065 		"/>
		<path style="fill:#FFFFFF;" d="M65.193,373.446c0.106,0.107,0.207,0.216,0.314,0.323l0.002,0.002l0.008-0.008
			C65.409,373.657,65.3,373.553,65.193,373.446z"/>
		<path style="fill:#FFFFFF;" d="M66.524,371.265l7.567-7.567l0,0l11.158-11.158l16.925-16.925H75.386l-23.36,23.36
			c4.01,4.819,8.257,9.505,12.748,14.039L66.524,371.265z"/>
		<polygon style="fill:#FFFFFF;" points="102.173,335.615 85.248,352.54 86.74,352.54 103.665,335.615 		"/>
		<path style="fill:#FFFFFF;" d="M64.774,373.015c0.141,0.143,0.277,0.289,0.419,0.431c0.107,0.107,0.216,0.211,0.324,0.317
			l1.513-1.513c-0.168-0.329-0.34-0.655-0.507-0.985L64.774,373.015z"/>
		<path style="fill:#FFFFFF;" d="M74.091,363.698L74.091,363.698l-7.567,7.567c0.166,0.33,0.339,0.656,0.507,0.985l7.806-7.806l0,0
			L86.74,352.54h-1.492L74.091,363.698z"/>
		<path style="fill:#FFFFFF;" d="M275.617,162.171l1.382-1.382h-26.787l-30.422,30.422c0,8.326,0,17.231,0,26.787l33.976-33.976
			L275.617,162.171z"/>
		<polygon style="fill:#FFFFFF;" points="253.766,184.022 253.766,185.514 275.617,163.663 275.617,162.171 		"/>
		<polygon style="fill:#FFFFFF;" points="275.617,162.171 275.617,163.663 278.491,160.79 276.999,160.79 		"/>
		<path style="fill:#FFFFFF;" d="M219.79,217.998c0,0.357,0,0.708,0,1.067h0.425l33.551-33.551v-1.492L219.79,217.998z"/>
		<path style="fill:#FFFFFF;" d="M373.774,65.506c-0.143-0.143-0.289-0.282-0.432-0.424c0.141,0.145,0.283,0.289,0.423,0.434
			L373.774,65.506z"/>
		<path style="fill:#FFFFFF;" d="M335.273,102.515l28.44-28.44l8.897-8.897l0.411-0.411c-4.534-4.491-9.217-8.743-14.035-12.752
			l-50.5,50.5C308.486,102.515,335.273,102.515,335.273,102.515z"/>
		<path style="fill:#FFFFFF;" d="M373.765,65.516c-0.14-0.145-0.282-0.289-0.423-0.434c-0.106-0.106-0.214-0.209-0.32-0.315
			l-0.411,0.411c0.331,0.167,0.662,0.333,0.993,0.499L373.765,65.516z"/>
		<path style="fill:#FFFFFF;" d="M364.46,74.821l9.144-9.144c-0.331-0.166-0.662-0.332-0.993-0.499l-8.897,8.897l-28.44,28.44h1.492
			L364.46,74.821z"/>
		<polygon style="fill:#FFFFFF;" points="150.801,286.987 160.449,277.34 133.662,277.34 75.386,335.615 102.173,335.615 
			122.783,315.005 		"/>
		<polygon style="fill:#FFFFFF;" points="150.801,286.987 152.293,286.987 161.941,277.34 160.449,277.34 		"/>
		<path style="fill:#FFFFFF;" d="M122.852,316.429c-0.021-0.475-0.051-0.948-0.068-1.424l-20.61,20.61h1.492L122.852,316.429z"/>
		<path style="fill:#FFFFFF;" d="M122.783,315.005c0.017,0.476,0.047,0.949,0.068,1.424l29.442-29.442h-1.492L122.783,315.005z"/>
		<polygon style="fill:#FFFFFF;" points="210.078,200.923 191.936,219.065 210.078,219.065 		"/>
		<path style="fill:#FFFFFF;" d="M218.723,219.065l1.067-1.067c0-9.556,0-18.461,0-26.787l-9.712,9.712v18.142H218.723z"/>
		<path style="fill:#FFFFFF;" d="M219.79,217.998l-1.067,1.067h1.067C219.79,218.706,219.79,218.356,219.79,217.998z"/>
	</g>
</g>
</svg>
