<?xml version="1.0" encoding="iso-8859-1"?>
<!-- Generator: Adobe Illustrator 22.0.1, SVG Export Plug-In . SVG Version: 6.00 Build 0)  -->
<svg version="1.1" id="Layer_1" xmlns="http://www.w3.org/2000/svg" xmlns:xlink="http://www.w3.org/1999/xlink" x="0px" y="0px"
	 viewBox="0 0 438.53 438.53" style="enable-background:new 0 0 438.53 438.53;" xml:space="preserve">
<g id="_x31_54">
	<g>
		<path style="fill:#FFDA44;" d="M249.82,284.712v-68.374l-52.186,52.186v16.188v0.001h-16.188l-52.185,52.185h68.372l0.001,98.838
			c7.072,0.687,14.171,1.035,21.271,1.035c10.333-0.001,20.666-0.735,30.916-2.192v-97.68v-0.001h152.368
			c10.592-16.444,18.753-34.009,24.478-52.185H249.821h-0.001V284.712z"/>
		<path style="fill:#0052B4;" d="M429.982,164.747c-7.78-30.538-22.269-59.694-43.435-85.137l-38.693,38.693
			C378.976,127.106,407.015,143.247,429.982,164.747z"/>
		<path style="fill:#0052B4;" d="M429.982,164.747c-22.967-21.5-51.006-37.641-82.128-46.444l-98.034,98.034v68.374h0.001h176.845
			C438.916,245.817,440.02,204.146,429.982,164.747z"/>
		<polygon style="fill:#0052B4;" points="197.634,284.712 197.634,284.711 197.634,268.524 181.445,284.712 		"/>
		<path style="fill:#0052B4;" d="M79.607,386.551c13.237,11.015,27.477,20.226,42.399,27.616
			c-9.121-15.084-16.297-31.472-21.201-48.815L79.607,386.551z"/>
		<path style="fill:#0052B4;" d="M129.26,336.897l-28.455,28.455c4.903,17.343,12.08,33.731,21.201,48.815
			c23.925,11.848,49.589,19.037,75.627,21.568l-0.001-98.838L129.26,336.897L129.26,336.897z"/>
		<path style="fill:#0052B4;" d="M249.82,336.898v97.68c45.113-6.414,88.596-26.926,123.211-61.546
			c11.2-11.198,20.909-23.33,29.158-36.135L249.82,336.898L249.82,336.898z"/>
		<polygon style="fill:#F0F0F0;" points="89.601,73.376 82.368,95.636 58.963,95.636 77.899,109.392 70.666,131.652 89.601,117.895 
			108.535,131.652 101.302,109.392 120.238,95.636 96.833,95.636 		"/>
		<polygon style="fill:#F0F0F0;" points="96.833,160.71 89.601,138.45 82.368,160.71 58.963,160.71 77.899,174.467 70.666,196.726 
			89.601,182.969 108.535,196.726 101.302,174.467 120.238,160.71 		"/>
		<path style="fill:#F0F0F0;" d="M28.407,196.726l-7.233-22.26L40.11,160.71H16.704l-3.528-10.858
			c-4.057,12.068-7.033,24.421-8.923,36.909l5.218-3.792L28.407,196.726z"/>
		<path style="fill:#F0F0F0;" d="M308.489,102.514h-88.697c0,16.352,0,34.676,0,58.275h30.422L308.489,102.514z"/>
		<path style="fill:#F0F0F0;" d="M89.601,52.821l18.935,13.757l-7.233-22.259l18.936-13.757h-9.085
			C97.876,38.175,85.23,47.286,73.478,57.921l-2.813,8.657L89.601,52.821z"/>
		<path style="fill:#F0F0F0;" d="M25.066,121.37c-0.97,1.924-1.916,3.856-2.825,5.802l6.165,4.479L25.066,121.37z"/>
		<path style="fill:#F0F0F0;" d="M349.082,44.239C310.808,15.955,265.306,1.792,219.792,1.76c0,16.314,0,30.009,0,42.479H349.082z"
			/>
		<path style="fill:#F0F0F0;" d="M35.061,335.616c5.073,8.071,10.736,15.873,16.966,23.36l23.36-23.36L35.061,335.616
			L35.061,335.616z"/>
		<polygon style="fill:#F0F0F0;" points="181.431,174.467 200.367,160.71 176.961,160.71 169.729,138.45 162.497,160.71 
			139.092,160.71 158.027,174.467 150.794,196.726 169.729,182.969 188.664,196.726 		"/>
		<path style="fill:#F0F0F0;" d="M191.938,219.065H1.773c0,0.189-0.007,0.378-0.007,0.567c0,19.425,2.58,38.847,7.726,57.708
			h124.172L191.938,219.065z"/>
		<polygon style="fill:#F0F0F0;" points="150.794,131.652 169.729,117.895 188.664,131.652 181.431,109.392 200.367,95.636 
			176.961,95.636 169.729,73.376 162.497,95.636 139.092,95.636 158.027,109.392 		"/>
		<polygon style="fill:#F0F0F0;" points="150.794,66.578 169.729,52.821 188.664,66.578 181.431,44.318 200.367,30.561 
			176.961,30.561 169.729,8.302 162.497,30.561 139.092,30.561 158.027,44.318 		"/>
		<path style="fill:#D80027;" d="M250.214,160.789h-30.422c0,9.262,0,19.335,0,30.422L250.214,160.789z"/>
		<path style="fill:#D80027;" d="M219.792,102.514h88.697l50.5-50.5c-3.244-2.699-6.546-5.293-9.906-7.776h-129.29
			C219.792,64.868,219.792,82.173,219.792,102.514z"/>
		<path style="fill:#D80027;" d="M133.663,277.34H9.491c5.541,20.311,14.064,39.968,25.57,58.276h40.326L133.663,277.34z"/>
		<path style="fill:#0052B4;" d="M210.08,200.923v-40.134h9.712c0-23.599,0-41.923,0-58.275h-9.712V44.239h9.712
			c0-12.47,0-26.165,0-42.479c-37.564-0.026-75.126,9.583-108.639,28.802h9.085l-18.936,13.757l7.233,22.259L89.601,52.821
			L70.666,66.578l2.813-8.657c-2.706,2.449-5.366,4.976-7.975,7.585c-16.808,16.805-30.278,35.707-40.437,55.865l3.341,10.282
			l-6.165-4.479c-3.464,7.416-6.48,14.99-9.065,22.679l3.528,10.858H40.11l-18.936,13.757l7.233,22.26L9.472,182.969l-5.218,3.792
			c-1.62,10.703-2.452,21.502-2.481,32.304h190.165L210.08,200.923z M108.535,196.726L89.6,182.969l-18.935,13.757l7.233-22.259
			L58.963,160.71h23.405l7.232-22.259l7.232,22.259h23.405l-18.936,13.757L108.535,196.726z M101.302,109.392l7.233,22.26
			L89.6,117.895l-18.935,13.757l7.233-22.26L58.963,95.636h23.405l7.232-22.26l7.232,22.26h23.405L101.302,109.392z M162.497,30.561
			l7.232-22.26l7.232,22.26h23.405L181.43,44.318l7.233,22.259L169.728,52.82l-18.935,13.757l7.233-22.26L139.09,30.56
			L162.497,30.561L162.497,30.561z M162.497,95.636l7.232-22.26l7.232,22.26h23.405l-18.936,13.757l7.233,22.26l-18.935-13.757
			l-18.935,13.757l7.233-22.26L139.09,95.636H162.497z M150.794,196.726l7.233-22.259l-18.936-13.757h23.405l7.232-22.259
			l7.232,22.259h23.405l-18.936,13.757l7.233,22.259l-18.935-13.757L150.794,196.726z"/>
		<path style="fill:#0052B4;" d="M219.792,160.789h-9.712v40.134l9.712-9.712C219.792,180.125,219.792,170.052,219.792,160.789z"/>
		<path style="fill:#0052B4;" d="M210.08,44.239v58.276h9.712c0-20.341,0-37.647,0-58.276H210.08z"/>
		<path style="fill:#FFFFFF;" d="M65.522,373.76l-0.012,0.012l4.476,4.476c3.104,2.877,6.287,5.672,9.555,8.369l0.066-0.066
			c-1.864-1.551-3.708-3.137-5.532-4.759C71.17,379.206,68.318,376.527,65.522,373.76z"/>
		<path style="fill:#FFFFFF;" d="M373.03,64.76c0.088,0.088,0.171,0.18,0.26,0.269c0.161,0.16,0.325,0.316,0.486,0.477l-0.013,0.013
			c4.507,4.55,8.761,9.257,12.783,14.092l0.256-0.256c-8.418-9.927-17.705-19.102-27.756-27.399l-0.059,0.059
			c4.818,4.009,9.501,8.261,14.035,12.752L373.03,64.76z"/>
		<path style="fill:#FFFFFF;" d="M64.764,373.026l0.746,0.746c-0.131-0.131-0.255-0.266-0.386-0.397
			C65.005,373.257,64.883,373.145,64.764,373.026z"/>
		<path style="fill:#FFFFFF;" d="M52.027,358.976l-0.249,0.249c2.055,2.421,4.158,4.8,6.315,7.13l6.671,6.671l0.011-0.011
			C60.284,368.48,56.037,363.795,52.027,358.976z"/>
		<path style="fill:#FFFFFF;" d="M64.775,373.015l-0.011,0.011c0.119,0.119,0.241,0.231,0.36,0.349
			C65.006,373.256,64.893,373.134,64.775,373.015z"/>
		<path style="fill:#FFFFFF;" d="M74.075,381.792c-1.348-4.243-2.579-8.538-3.713-12.872l-4.84,4.84
			C68.318,376.527,71.17,379.206,74.075,381.792z"/>
		<polygon style="fill:#FFFFFF;" points="103.666,335.616 102.385,336.897 129.26,336.897 181.445,284.712 154.57,284.712 		"/>
		<polygon style="fill:#FFFFFF;" points="220.217,219.065 197.634,241.648 197.634,268.524 249.82,216.338 249.82,189.462 		"/>
		<path style="fill:#FFFFFF;" d="M373.03,64.76l-0.007,0.007c0.089,0.088,0.178,0.174,0.267,0.262
			C373.202,64.94,373.119,64.848,373.03,64.76z"/>
		<path style="fill:#FFFFFF;" d="M364.462,74.82l-27.694,27.694l-10.899,10.899c7.476,1.224,14.813,2.861,21.985,4.89l38.693-38.693
			c-4.023-4.836-8.276-9.542-12.783-14.092L364.462,74.82z"/>
		<path style="fill:#FFFFFF;" d="M278.493,160.789l-28.673,28.673v26.875l98.034-98.034c-7.173-2.029-14.509-3.666-21.985-4.89
			L278.493,160.789z"/>
		<polygon style="fill:#FFFFFF;" points="161.942,277.34 154.57,284.712 181.445,284.712 197.634,268.524 197.634,241.648 		"/>
		<path style="fill:#FFFFFF;" d="M95.92,343.362l-21.082,21.082l0,0l-4.475,4.475c1.133,4.334,2.365,8.629,3.713,12.872
			c1.823,1.623,3.668,3.208,5.532,4.759l21.199-21.199C98.777,358.178,97.144,350.839,95.92,343.362z"/>
		<path style="fill:#FFFFFF;" d="M95.92,343.362c1.224,7.477,2.857,14.816,4.886,21.99l28.455-28.455h-26.875L95.92,343.362z"/>
		<polygon style="fill:#FFFFFF;" points="277.001,160.789 324.59,113.2 335.276,102.514 308.489,102.514 250.214,160.789 		"/>
		<path style="fill:#FFFFFF;" d="M325.868,113.414l10.899-10.899h-1.492L324.59,113.2
			C325.017,113.267,325.442,113.344,325.868,113.414z"/>
		<path style="fill:#FFFFFF;" d="M277.001,160.789h1.492l47.376-47.376c-0.427-0.07-0.851-0.146-1.279-0.213L277.001,160.789z"/>
		<path style="fill:#FFFFFF;" d="M65.124,373.375c0.13,0.131,0.255,0.266,0.386,0.397l0.012-0.012
			C65.39,373.63,65.255,373.505,65.124,373.375z"/>
		<path style="fill:#FFFFFF;" d="M70.043,367.747l4.048-4.048l0,0l21.611-21.611l5.19-5.19l1.281-1.281H75.387l-23.36,23.36
			c4.01,4.819,8.257,9.505,12.748,14.039L70.043,367.747z"/>
		<path style="fill:#FFFFFF;" d="M64.775,373.015c0.118,0.119,0.231,0.241,0.349,0.359c0.131,0.131,0.266,0.255,0.398,0.385
			l4.84-4.84c-0.103-0.393-0.218-0.78-0.319-1.173L64.775,373.015z"/>
		<polygon style="fill:#FFFFFF;" points="103.666,335.616 102.174,335.616 100.893,336.897 102.385,336.897 		"/>
		<path style="fill:#FFFFFF;" d="M74.092,363.698L74.092,363.698l-4.048,4.048c0.101,0.393,0.216,0.78,0.319,1.173l4.475-4.475l0,0
			l21.082-21.082c-0.07-0.426-0.149-0.849-0.216-1.276L74.092,363.698z"/>
		<path style="fill:#FFFFFF;" d="M100.893,336.897l-5.19,5.19c0.067,0.427,0.147,0.85,0.216,1.276l6.465-6.465h-1.491V336.897z"/>
		<polygon style="fill:#FFFFFF;" points="197.634,240.156 218.725,219.065 210.08,219.065 191.938,219.065 133.663,277.34 
			160.45,277.34 		"/>
		<polygon style="fill:#FFFFFF;" points="218.725,219.065 197.634,240.156 197.634,241.648 220.217,219.065 219.792,219.065 		"/>
		<polygon style="fill:#FFFFFF;" points="160.45,277.34 161.942,277.34 197.634,241.648 197.634,240.156 		"/>
		<path style="fill:#FFFFFF;" d="M277.001,160.789h-26.787l-30.422,30.422c0,8.326,0,17.231,0,26.787l30.028-30.028L277.001,160.789
			z"/>
		<path style="fill:#FFFFFF;" d="M219.792,217.998c0,0.357,0,0.708,0,1.067h0.425l29.603-29.603v-1.492L219.792,217.998z"/>
		<polygon style="fill:#FFFFFF;" points="249.82,187.971 249.82,189.462 278.493,160.789 277.001,160.789 		"/>
		<path style="fill:#FFFFFF;" d="M335.276,102.514l28.44-28.44l9.307-9.307c-4.534-4.491-9.217-8.743-14.035-12.752l-50.5,50.5
			L335.276,102.514L335.276,102.514z"/>
		<path style="fill:#FFFFFF;" d="M373.776,65.506c-0.161-0.161-0.325-0.317-0.486-0.477c0.161,0.161,0.313,0.328,0.474,0.49
			L373.776,65.506z"/>
		<path style="fill:#FFFFFF;" d="M364.462,74.82l9.302-9.302c-0.16-0.162-0.313-0.329-0.474-0.49
			c-0.088-0.088-0.178-0.174-0.267-0.262l-9.307,9.307l-28.44,28.44h1.492L364.462,74.82z"/>
		<polygon style="fill:#FFFFFF;" points="160.45,277.34 133.663,277.34 75.387,335.616 102.174,335.616 153.078,284.712 		"/>
		<polygon style="fill:#FFFFFF;" points="154.57,284.712 153.078,284.712 102.174,335.616 103.666,335.616 		"/>
		<polygon style="fill:#FFFFFF;" points="153.078,284.712 154.57,284.712 161.942,277.34 160.45,277.34 		"/>
		<polygon style="fill:#FFFFFF;" points="210.08,200.923 191.938,219.065 210.08,219.065 		"/>
		<path style="fill:#FFFFFF;" d="M218.725,219.065l1.067-1.067c0-9.556,0-18.461,0-26.787l-9.712,9.712v18.142H218.725z"/>
		<path style="fill:#FFFFFF;" d="M219.792,217.998l-1.067,1.067h1.067C219.792,218.706,219.792,218.356,219.792,217.998z"/>
	</g>
</g>
</svg>
