<?xml version="1.0" encoding="iso-8859-1"?>
<!-- Generator: Adobe Illustrator 22.0.1, SVG Export Plug-In . SVG Version: 6.00 Build 0)  -->
<svg version="1.1" id="Layer_1" xmlns="http://www.w3.org/2000/svg" xmlns:xlink="http://www.w3.org/1999/xlink" x="0px" y="0px"
	 viewBox="0 0 435 435.002" style="enable-background:new 0 0 435 435.002;" xml:space="preserve">
<g id="_x31_55">
	<path style="fill:#F4F4F4;" d="M405.838,108.323c-19.45-33.321-45.833-59.704-79.155-79.153C293.354,9.722,256.971,0,217.507,0
		c-39.461,0-75.854,9.722-109.177,29.17c-33.324,19.446-59.707,45.829-79.157,79.153C9.722,141.65,0,178.043,0,217.501
		c0,39.46,9.725,75.847,29.17,109.175c19.449,33.321,45.832,59.704,79.156,79.155c33.326,19.447,69.717,29.17,109.177,29.17
		s75.854-9.723,109.179-29.17c33.322-19.444,59.704-45.834,79.152-79.155C425.279,293.351,435,256.959,435,217.501
		C435.001,178.039,425.279,141.645,405.838,108.323z"/>
	<g>
		<path style="fill:#141214;" d="M50.196,228.981c48.293-0.107,96.589-0.508,144.879-0.147c14.956,0.112,26.496,7.898,33.483,21.268
			c14.654,28.041,37.654,42.923,69.181,40.521c31.967-2.435,52.715-20.811,62.748-51.305c3.136-9.53,17.209-14.913,26.782-10.868
			c3.523,1.489,1.905,3.918,1.778,6.036c-5.462,90.664-88.716,164.017-179.371,158.08C124.991,387.02,62.09,330.858,47.129,247.185
			c-1.068-5.971-3.564-12.372,0.943-18.209c2.897,4.501,7.465,2.817,11.385,2.827c38.788,0.103,77.576,0.042,116.364,0.099
			c3.187,0.005,6.44-0.667,7.936-0.1c-40.199,0-82.043,0.071-123.886-0.141C56.685,231.645,52.165,234.23,50.196,228.981z"/>
		<path style="fill:#060606;" d="M50.196,228.981c3.245,3.029,7.265,1.744,10.939,1.753c40.241,0.091,80.482,0.028,120.723,0.112
			c3.321,0.007,6.836-1.011,11.856,2.03c-9.731,0-17.623-0.012-25.516,0.002c-38.502,0.066-77.005-0.002-115.503,0.411
			c-4.151,0.045-4.766-1.051-4.624-4.313C48.78,228.978,49.488,228.98,50.196,228.981z"/>
		<path style="fill:#FEA300;" d="M225.277,49.548"/>
		<path style="fill:#FEA300;" d="M216.109,48.513c-14.712,0-31.171,3.046-34.166,3.747C121.82,66.34,79.935,101.99,56.579,159.112
			C50.52,173.928,46.6,189.444,46,205.572c-0.1,2.688-1.744,6.198,2.908,7.675c11.125,3.532,22.303-2.111,26.255-13.399
			c9.713-27.749,28.926-44.919,58.213-48.351c31.442-3.684,55.822,9.041,70.87,37.004c8.664,16.1,21.466,24.737,39.051,24.943
			c46.529,0.545,93.068,0.145,139.601,0.359c5.851,0.027,6.84-2.038,6.311-7.398c-3.806-38.573-18.048-72.637-44.319-101.178
			c-27.173-29.52-60.205-48.669-100.559-53.862"/>
		<path style="fill:#FEA608;" d="M208.64,51.472c5.559,0,11.117-0.001,16.676-0.001C219.758,54.689,214.199,54.688,208.64,51.472z"
			/>
		<path style="fill:#060606;" d="M198.675,387.691c12.33,0,24.66,0,36.991,0c0,0.348,0,0.695,0,1.043c-12.316,0-24.631,0-36.947,0
			C198.705,388.386,198.69,388.039,198.675,387.691z"/>
	</g>
</g>
</svg>
