<?xml version="1.0" encoding="iso-8859-1"?>
<!-- Generator: Adobe Illustrator 22.0.1, SVG Export Plug-In . SVG Version: 6.00 Build 0)  -->
<svg version="1.1" id="Layer_1" xmlns="http://www.w3.org/2000/svg" xmlns:xlink="http://www.w3.org/1999/xlink" x="0px" y="0px"
	 viewBox="0 0 438.53 438.53" style="enable-background:new 0 0 438.53 438.53;" xml:space="preserve">
<g id="_x31_56">
	<g>
		<path style="fill:#0052B4;" d="M78.382,331.662l13.43-26.359l-20.915-20.917l29.217,4.63l13.428-26.358l4.629,29.217l0.823,0.13
			l162.781-162.781l-0.13-0.823l-29.216-4.629l26.356-13.429l-4.629-29.215l20.919,20.915l26.357-13.43l-0.99,1.944l38.541-38.541
			C273.43-19.212,145.719-14.727,65.503,65.502C23.018,107.981,1.772,163.815,1.765,219.629c0,49.564,16.767,99.11,50.261,139.345
			l28.303-28.303L78.382,331.662z M190.766,66.411l9.142-28.134l9.142,28.134h29.58l-23.932,17.387l9.142,28.134l-23.932-17.388
			l-23.933,17.388l9.142-28.134l-23.932-17.387H190.766z M78.382,88.614l26.359,13.429l20.917-20.915l-4.629,29.216l26.358,13.43
			l-29.217,4.628l-4.628,29.218l-13.43-26.358l-29.216,4.629l20.917-20.917L78.382,88.614z M28.047,210.138l28.134-9.142v-29.581
			l17.386,23.933l28.135-9.142l-17.389,23.932l17.389,23.932l-28.135-9.141l-17.386,23.932V219.28L28.047,210.138z"/>
		<polygon style="fill:#FFDA44;" points="175.974,111.932 199.907,94.544 223.839,111.932 214.697,83.799 238.629,66.411 
			209.049,66.411 199.907,38.278 190.766,66.411 161.185,66.411 185.116,83.799 		"/>
		<polygon style="fill:#FFDA44;" points="100.113,131.261 113.543,157.619 118.17,128.401 147.387,123.773 121.029,110.343 
			125.658,81.127 104.742,102.043 78.382,88.614 91.813,114.973 70.897,135.89 		"/>
		<polygon style="fill:#FFDA44;" points="73.567,224.929 101.702,234.07 84.313,210.138 101.702,186.206 73.567,195.348 
			56.181,171.415 56.181,200.996 28.047,210.138 56.181,219.28 56.181,248.861 		"/>
		<polygon style="fill:#FFDA44;" points="118.17,291.875 113.542,262.658 100.114,289.016 70.897,284.386 91.812,305.303 
			78.382,331.662 80.328,330.671 118.994,292.005 		"/>
		<polygon style="fill:#FFDA44;" points="321.432,88.614 295.074,102.044 274.156,81.128 278.785,110.343 252.429,123.772 
			281.644,128.401 281.775,129.224 320.441,90.558 		"/>
		<path style="fill:#F0F0F0;" d="M258.182,324.919H141.235l-31.259,31.259h72.746l-58.874,58.875
			c10.324,4.992,20.962,9.125,31.808,12.395l71.269-71.269h0.002v29.467L179.4,433.172c4.243,0.776,8.503,1.434,12.777,1.958
			l34.75-34.75v36.223c10.471-0.383,20.918-1.515,31.256-3.395L258.182,324.919L258.182,324.919z"/>
		<path style="fill:#F0F0F0;" d="M320.698,324.921v86.736c17.995-9.488,34.922-21.676,50.194-36.543l-18.936-18.936v-0.001h29.47
			l3.709,3.709c9.349-11.005,17.436-22.722,24.246-34.966L320.698,324.921L320.698,324.921z"/>
		<path style="fill:#F0F0F0;" d="M435.14,192.168c-1.51-12.328-4.074-24.549-7.683-36.521l-75.501,75.502v-29.47l67.693-67.694
			c-1.439-3.413-2.967-6.797-4.587-10.148l-63.107,63.107v-72.746l-31.256,31.256v116.95h0.001h111.712
			c2.088-10.326,3.424-20.773,4.01-31.256H396.16L435.14,192.168z"/>
		<polygon style="fill:#F0F0F0;" points="258.184,262.404 258.184,262.403 258.184,207.969 203.749,262.404 		"/>
		<path style="fill:#0052B4;" d="M435.14,192.168l-38.981,38.981h40.262C437.147,218.152,436.725,205.103,435.14,192.168z"/>
		<path style="fill:#0052B4;" d="M109.976,356.178L79.604,386.55c13.782,11.461,28.652,20.965,44.243,28.503l58.874-58.875H109.976z
			"/>
		<path style="fill:#0052B4;" d="M351.955,186.944l63.107-63.107c-7.538-15.59-17.047-30.456-28.512-44.234l-34.595,34.595V186.944z
			"/>
		<path style="fill:#0052B4;" d="M192.177,435.13c8.872,1.087,17.799,1.637,26.726,1.637c2.675,0,5.35-0.065,8.024-0.163v-36.223
			L192.177,435.13z"/>
		<path style="fill:#D80027;" d="M320.699,262.405v-116.95l-62.515,62.515v54.434v0.001h-54.435l-62.515,62.515h116.948h0.001
			v108.29c21.588-3.925,42.694-11.103,62.515-21.553v-86.736v-0.001h88.683c10.985-19.752,18.653-40.863,23.031-62.515
			L320.699,262.405L320.699,262.405z"/>
		<path style="fill:#D80027;" d="M351.956,356.177L351.956,356.177l18.936,18.937c0.713-0.694,1.432-1.379,2.138-2.084
			c4.251-4.25,8.279-8.64,12.105-13.143l-3.709-3.709L351.956,356.177L351.956,356.177z"/>
		<path style="fill:#D80027;" d="M226.926,356.178h-0.002l-71.269,71.269c7.821,2.358,15.749,4.263,23.745,5.725l47.527-47.528
			v-29.466H226.926z"/>
		<path style="fill:#D80027;" d="M351.956,231.149l75.501-75.502c-2.208-7.327-4.814-14.557-7.809-21.661l-67.693,67.694
			L351.956,231.149L351.956,231.149z"/>
		<path style="fill:#FFFFFF;" d="M373.03,64.757c0.127,0.127,0.248,0.257,0.374,0.384c0.123,0.122,0.249,0.24,0.371,0.362
			l-0.009,0.009c1.962,1.984,3.878,3.997,5.75,6.035c0.004,0.004,0.007,0.008,0.011,0.012c2.42,2.636,4.756,5.321,7.023,8.045
			l0.253-0.253c-8.418-9.927-17.705-19.102-27.756-27.399l-0.065,0.065c4.818,4.011,9.504,8.257,14.039,12.749L373.03,64.757z"/>
		<path style="fill:#FFFFFF;" d="M52.026,358.973l-0.248,0.248c2.055,2.421,4.158,4.8,6.315,7.13l6.671,6.671l0.01-0.01
			C60.282,368.478,56.037,363.791,52.026,358.973z"/>
		<path style="fill:#FFFFFF;" d="M65.509,373.769l4.476,4.476c3.104,2.877,6.287,5.672,9.555,8.369l0.064-0.064
			c-4.836-4.021-9.537-8.283-14.087-12.789L65.509,373.769z"/>
		<path style="fill:#FFFFFF;" d="M64.763,373.023l0.746,0.746c-0.114-0.114-0.222-0.23-0.335-0.344
			C65.038,373.289,64.899,373.158,64.763,373.023z"/>
		<polygon style="fill:#FFFFFF;" points="299.7,131.26 292.611,145.175 305.593,132.193 		"/>
		<polygon style="fill:#FFFFFF;" points="121.031,309.933 121.964,315.822 134.942,302.844 		"/>
		<path style="fill:#FFFFFF;" d="M65.174,373.425c0.113,0.114,0.222,0.231,0.335,0.344l0.008-0.008
			C65.403,373.648,65.288,373.538,65.174,373.425z"/>
		<path style="fill:#FFFFFF;" d="M308.002,114.973l7.406,7.406l5.292-5.292l31.256-31.256l11.76-11.76l6.177-6.177l0.01-0.01
			l3.117-3.117c-4.534-4.492-9.221-8.737-14.039-12.749L320.44,90.559L308.002,114.973z"/>
		<polygon style="fill:#FFFFFF;" points="175.382,262.404 206.638,231.148 216.783,221.003 258.184,179.602 285.438,152.348 
			281.775,129.224 118.994,292.005 142.118,295.668 		"/>
		<path style="fill:#FFFFFF;" d="M74.091,363.695L74.091,363.695l7.517-7.517l30.539-30.539l-7.406-7.406l-24.413,12.438
			l-28.303,28.303c4.011,4.818,8.256,9.505,12.747,14.04L74.091,363.695z"/>
		<path style="fill:#FFFFFF;" d="M373.776,65.502c-0.123-0.123-0.249-0.24-0.371-0.362c0.122,0.123,0.241,0.248,0.362,0.371
			L373.776,65.502z"/>
		<polygon style="fill:#FFFFFF;" points="121.964,315.822 121.031,309.933 134.942,302.844 142.118,295.668 118.994,292.005 
			80.328,330.671 104.742,318.232 112.148,325.638 112.867,324.919 		"/>
		<polygon style="fill:#FFFFFF;" points="292.611,145.175 299.7,131.26 305.593,132.193 315.407,122.379 308.002,114.973 
			320.441,90.558 281.775,129.224 285.438,152.348 		"/>
		<path style="fill:#FFFFFF;" d="M373.03,64.757l-0.009,0.009c0.127,0.126,0.257,0.248,0.384,0.374
			C373.278,65.013,373.156,64.883,373.03,64.757z"/>
		<path style="fill:#FFFFFF;" d="M379.516,71.547c-1.872-2.039-3.788-4.051-5.75-6.035l-2.774,2.774
			C373.858,69.323,376.702,70.405,379.516,71.547z"/>
		<path style="fill:#FFFFFF;" d="M373.766,65.512c-0.122-0.123-0.24-0.248-0.362-0.371c-0.127-0.126-0.257-0.248-0.384-0.374
			l-3.117,3.117c0.365,0.13,0.726,0.27,1.09,0.402L373.766,65.512z"/>
		<polygon style="fill:#FFFFFF;" points="112.894,326.384 83.1,356.178 109.976,356.178 141.235,324.919 114.359,324.919 		"/>
		<polygon style="fill:#FFFFFF;" points="112.148,325.638 81.608,356.178 83.1,356.178 112.894,326.384 		"/>
		<polygon style="fill:#FFFFFF;" points="114.359,324.919 112.867,324.919 112.148,325.638 112.894,326.384 		"/>
		<polygon style="fill:#FFFFFF;" points="320.699,118.579 320.699,145.455 351.955,114.199 351.955,87.323 		"/>
		<polygon style="fill:#FFFFFF;" points="351.955,87.323 351.955,85.831 320.699,117.087 320.699,118.579 		"/>
		<polygon style="fill:#FFFFFF;" points="217.529,221.749 226.926,231.147 226.926,231.148 226.926,231.149 226.926,231.148 
			208.13,231.148 176.874,262.404 203.749,262.404 258.184,207.969 258.184,181.094 		"/>
		<polygon style="fill:#FFFFFF;" points="216.783,221.003 217.529,221.749 258.184,181.094 258.184,179.602 		"/>
		<polygon style="fill:#FFFFFF;" points="175.382,262.404 176.874,262.404 208.13,231.148 206.638,231.148 		"/>
		<path style="fill:#FFFFFF;" d="M370.983,68.295c2.872,1.038,5.725,2.119,8.544,3.264c-0.004-0.004-0.007-0.008-0.011-0.012
			c-2.814-1.142-5.658-2.224-8.524-3.261L370.983,68.295z"/>
		<path style="fill:#FFFFFF;" d="M370.993,68.285c-0.364-0.132-0.725-0.272-1.09-0.402l-0.01,0.01
			c0.365,0.13,0.726,0.27,1.091,0.401L370.993,68.285z"/>
		<path style="fill:#FFFFFF;" d="M83.1,356.178l-8.263,8.263l0,0l-9.32,9.32c4.55,4.506,9.251,8.767,14.087,12.789l30.372-30.372
			H83.1z"/>
		<path style="fill:#FFFFFF;" d="M64.773,373.013l-0.01,0.01c0.136,0.136,0.274,0.267,0.41,0.402
			C65.038,373.288,64.908,373.15,64.773,373.013z"/>
		<path style="fill:#FFFFFF;" d="M74.091,363.695L74.091,363.695l-9.318,9.318c0.135,0.136,0.266,0.275,0.401,0.411
			c0.114,0.113,0.229,0.223,0.343,0.336l9.32-9.32l0,0l8.263-8.263h-1.492L74.091,363.695z"/>
		<path style="fill:#FFFFFF;" d="M370.983,68.295l-6.522,6.522l-12.506,12.506v26.875l34.595-34.595
			c-2.267-2.724-4.602-5.409-7.023-8.045C376.708,70.414,373.855,69.333,370.983,68.295z"/>
		<path style="fill:#FFFFFF;" d="M364.461,74.817l6.522-6.522c-0.365-0.132-0.725-0.271-1.091-0.401l-6.177,6.177l-11.76,11.76
			v1.492L364.461,74.817z"/>
		<polygon style="fill:#FFFFFF;" points="143.406,295.872 137.984,301.294 122.168,317.11 114.359,324.919 141.235,324.919 
			203.749,262.404 176.874,262.404 		"/>
		<polygon style="fill:#FFFFFF;" points="316.153,123.125 306.88,132.398 291.062,148.216 285.642,153.636 258.184,181.094 
			258.184,207.969 320.699,145.455 320.699,118.579 		"/>
		<polygon style="fill:#FFFFFF;" points="292.611,145.175 291.062,148.216 306.88,132.398 305.593,132.193 		"/>
		<polygon style="fill:#FFFFFF;" points="121.964,315.822 122.168,317.11 137.984,301.294 134.942,302.844 		"/>
		<polygon style="fill:#FFFFFF;" points="142.118,295.668 143.406,295.872 176.874,262.404 175.382,262.404 		"/>
		<polygon style="fill:#FFFFFF;" points="258.184,179.602 258.184,181.094 285.642,153.636 285.438,152.348 		"/>
		<polygon style="fill:#FFFFFF;" points="320.699,118.579 320.699,117.087 315.407,122.379 316.153,123.125 		"/>
		<polygon style="fill:#FFFFFF;" points="134.942,302.844 137.984,301.294 143.406,295.872 142.118,295.668 		"/>
		<polygon style="fill:#FFFFFF;" points="112.867,324.919 114.359,324.919 122.168,317.11 121.964,315.822 		"/>
		<polygon style="fill:#FFFFFF;" points="306.88,132.398 316.153,123.125 315.407,122.379 305.593,132.193 		"/>
		<polygon style="fill:#FFFFFF;" points="285.438,152.348 285.642,153.636 291.062,148.216 292.611,145.175 		"/>
		<polygon style="fill:#FFFFFF;" points="226.926,231.148 226.926,231.147 217.529,221.749 208.13,231.148 		"/>
		<polygon style="fill:#FFFFFF;" points="206.638,231.148 208.13,231.148 217.529,221.749 216.783,221.003 		"/>
	</g>
</g>
</svg>
