<?xml version="1.0" encoding="iso-8859-1"?>
<!-- Generator: Adobe Illustrator 22.0.1, SVG Export Plug-In . SVG Version: 6.00 Build 0)  -->
<svg version="1.1" id="Layer_1" xmlns="http://www.w3.org/2000/svg" xmlns:xlink="http://www.w3.org/1999/xlink" x="0px" y="0px"
	 viewBox="0 0 438.53 438.53" style="enable-background:new 0 0 438.53 438.53;" xml:space="preserve">
<g id="_x31_57">
	<g>
		<path style="fill:#F0F0F0;" d="M359.403,51.923c-2.555-2.12-5.144-4.177-7.771-6.163l-71.959,71.738V10.027
			c-10.051-2.836-20.265-4.942-30.562-6.318v158.169L359.403,51.923z"/>
		<path style="fill:#F0F0F0;" d="M187.986,191.055V4.076c-10.305,1.506-20.521,3.743-30.564,6.717v106.704L86.625,46.916
			C79.313,52.545,72.28,58.699,65.578,65.38c-0.611,0.609-1.202,1.23-1.804,1.844l93.648,93.362v0.001v0.001v-0.001h-28.814
			L50.196,82.416c-2.164,2.663-4.261,5.363-6.279,8.102l70.285,70.07H9.795C7,170.611,4.936,180.794,3.603,191.056L187.986,191.055
			L187.986,191.055z"/>
		<path style="fill:#F0F0F0;" d="M4.247,251.995c1.558,10.277,3.852,20.462,6.885,30.471h103.067l-68.293,68.085
			c1.992,2.619,4.056,5.201,6.18,7.749l106.631-106.305H4.247z"/>
		<path style="fill:#0052B4;" d="M43.917,90.518c-15.846,21.509-27.211,45.296-34.122,70.07h104.407L43.917,90.518z"/>
		<path style="fill:#0052B4;" d="M11.133,282.466c7.309,24.122,18.902,47.214,34.774,68.085l68.293-68.085H11.133z"/>
		<path style="fill:#0052B4;" d="M351.632,45.76c-21.989-16.621-46.438-28.532-71.959-35.734v107.472L351.632,45.76z"/>
		<path style="fill:#0052B4;" d="M157.422,10.793c-25.139,7.443-49.186,19.484-70.798,36.123l70.798,70.581V10.793z"/>
		<path style="fill:#D80027;" d="M249.112,161.877V3.709C228.83,1,208.239,1.116,187.986,4.076v186.979v0.001H3.603
			c-1.214,9.346-1.837,18.753-1.838,28.162c0,10.96,0.836,21.919,2.482,32.777h154.47L249.112,161.877z"/>
		<path style="fill:#D80027;" d="M157.422,160.588L157.422,160.588L63.774,67.225c-4.802,4.9-9.334,9.967-13.578,15.191
			l78.412,78.172H157.422z"/>
		<path style="fill:#F0F0F0;" d="M386.355,80.105l-80.695,80.448c15.443,19.066,24.694,43.324,24.694,69.739
			c0,61.356-49.892,111.095-111.436,111.095c-26.496,0-50.828-9.223-69.952-24.619l-69.333,69.121
			c-3.272-2.691-6.458-5.481-9.566-8.353l-4.481-4.468l-0.597-0.595l-0.671,0.669c42.549,42.412,98.429,63.625,154.323,63.625
			c55.88-0.007,111.781-21.213,154.31-63.618C453.311,293.046,457.769,165.496,386.355,80.105z"/>
		<path style="fill:#D80027;" d="M218.918,341.388c61.545,0,111.436-49.739,111.436-111.095c0-26.415-9.252-50.672-24.694-69.739
			L148.965,316.769C168.09,332.164,192.422,341.388,218.918,341.388z"/>
		<path style="fill:#FFFFFF;" d="M52.087,358.3l-0.25,0.249c2.057,2.417,4.163,4.791,6.323,7.116l6.829,6.808l0.005-0.005
			C60.442,367.895,56.143,363.165,52.087,358.3z"/>
		<path style="fill:#FFFFFF;" d="M374.217,65.38l-0.678,0.676c4.516,4.537,8.783,9.227,12.815,14.049l0.905-0.902
			c-8.428-9.908-17.727-19.066-27.789-27.347l-0.068,0.068c0.083,0.069,0.167,0.134,0.25,0.203
			C364.655,56.291,369.522,60.699,374.217,65.38z"/>
		<path style="fill:#FFFFFF;" d="M249.112,188.913l30.563-30.469v-26.583l79.979-79.735c-0.083-0.069-0.167-0.134-0.25-0.203
			L249.112,161.877V188.913z"/>
		<path style="fill:#FFFFFF;" d="M73.656,363.832L73.656,363.832l61.01-60.824l51.17-51.013h-27.119L52.087,358.3
			c4.056,4.865,8.355,9.595,12.907,14.169L73.656,363.832z"/>
		<polygon style="fill:#FFFFFF;" points="249.112,161.877 158.718,251.995 185.836,251.995 249.112,188.913 		"/>
		<path style="fill:#FFFFFF;" d="M363.625,74.751l9.326-9.297c0.2,0.199,0.391,0.403,0.589,0.602l0.678-0.676
			c-4.695-4.681-9.562-9.089-14.564-13.254l-79.979,79.735v26.583l12.183-12.145L363.625,74.751z"/>
		<path style="fill:#FFFFFF;" d="M64.993,372.468l-0.005,0.005l0.597,0.595C65.386,372.87,65.192,372.668,64.993,372.468z"/>
		<path style="fill:#FFFFFF;" d="M364.892,74.677l-72.403,72.182c4.769,4.183,9.177,8.764,13.171,13.695l80.695-80.448
			c-4.032-4.822-8.299-9.512-12.815-14.049L364.892,74.677z"/>
		<path style="fill:#FFFFFF;" d="M135.229,303.638l-60.305,60.121l0,0l-9.339,9.31l4.481,4.468c3.108,2.872,6.294,5.662,9.566,8.353
			l69.333-69.121C144.02,312.788,139.425,308.393,135.229,303.638z"/>
		<path style="fill:#FFFFFF;" d="M74.924,363.759l60.305-60.121c-0.186-0.211-0.377-0.417-0.562-0.63l-61.01,60.824l0,0
			l-8.663,8.636c0.198,0.199,0.392,0.401,0.591,0.6L74.924,363.759L74.924,363.759z"/>
		<path style="fill:#FFFFFF;" d="M363.625,74.751l-71.768,71.548c0.213,0.184,0.42,0.375,0.632,0.56l72.403-72.182l8.647-8.621
			c-0.199-0.199-0.39-0.404-0.589-0.602L363.625,74.751z"/>
		<path style="fill:#FFFFFF;" d="M292.489,146.859l-12.815,12.775l-30.563,30.469l-62.081,61.891l-51.802,51.643
			c4.196,4.755,8.791,9.149,13.737,13.13L305.66,160.554C301.666,155.623,297.258,151.042,292.489,146.859z"/>
		<polygon style="fill:#FFFFFF;" points="279.674,159.634 279.674,158.444 249.112,188.913 249.112,190.103 		"/>
		<path style="fill:#FFFFFF;" d="M187.03,251.995h-1.194l-51.17,51.013c0.185,0.212,0.376,0.419,0.562,0.63L187.03,251.995z"/>
		<polygon style="fill:#FFFFFF;" points="249.112,190.103 249.112,188.913 185.836,251.995 187.03,251.995 		"/>
		<path style="fill:#FFFFFF;" d="M292.489,146.859c-0.212-0.186-0.419-0.376-0.632-0.56l-12.183,12.145v1.19L292.489,146.859z"/>
	</g>
</g>
</svg>
