<?xml version="1.0" encoding="iso-8859-1"?>
<!-- Generator: Adobe Illustrator 22.0.1, SVG Export Plug-In . SVG Version: 6.00 Build 0)  -->
<svg version="1.1" id="Layer_1" xmlns="http://www.w3.org/2000/svg" xmlns:xlink="http://www.w3.org/1999/xlink" x="0px" y="0px"
	 viewBox="0 0 438.53 438.53" style="enable-background:new 0 0 438.53 438.53;" xml:space="preserve">
<g id="_x31_58">
	<g>
		<path style="fill:#CCA237;" d="M65.505,65.498C23.021,107.977,1.776,163.812,1.769,219.626c0,49.565,16.769,99.109,50.262,139.343
			L358.967,52.022C273.419-19.207,145.719-14.731,65.505,65.498z M121.759,251.581c-0.398,0.446-0.885,0.792-1.457,1.007
			c-0.074,0.03-0.156,0.026-0.23,0.048c-0.342,0.104-0.688,0.216-1.063,0.216c-0.019,0-0.048,0.004-0.074,0
			c-0.427,0-0.844-0.1-1.253-0.245c-0.052-0.019-0.108-0.007-0.16-0.03c-0.052-0.022-0.089-0.059-0.138-0.082
			c-0.06-0.026-0.123-0.037-0.178-0.067L46.84,215.481c-1.74-0.911-2.468-3.018-1.661-4.81l20.373-45.438
			c0.022-0.048,0.067-0.078,0.093-0.126c0.175-0.346,0.398-0.665,0.676-0.948c0.045-0.048,0.082-0.1,0.13-0.145
			c0.026-0.022,0.045-0.056,0.071-0.078L193.875,54.598c1.178-1.007,2.851-1.182,4.204-0.442l39.801,21.752
			c0.074,0.041,0.13,0.097,0.197,0.141c0.067,0.045,0.126,0.089,0.19,0.138c0.394,0.286,0.729,0.632,0.981,1.041
			c0.011,0.019,0.033,0.03,0.045,0.048l22.822,38.431c0.896,1.498,0.621,3.412-0.647,4.598L121.759,251.581z"/>
		<polygon style="fill:#CCA237;" points="181.884,133.214 120.384,188.829 122.343,240.839 254.205,116.933 235.23,84.974 		"/>
		<polygon style="fill:#CCA237;" points="70.837,171.615 53.39,210.526 114.976,242.864 112.976,189.725 		"/>
		<path style="fill:#FFFFFF;" d="M262.115,115.707l-22.822-38.431c-0.011-0.019-0.033-0.03-0.045-0.048
			c-0.253-0.409-0.587-0.755-0.981-1.041c-0.063-0.048-0.123-0.093-0.19-0.138s-0.123-0.1-0.197-0.141l-39.801-21.752
			c-1.353-0.74-3.026-0.565-4.204,0.442L66.522,163.936c-0.026,0.022-0.045,0.056-0.071,0.078c-0.048,0.045-0.086,0.097-0.13,0.145
			c-0.279,0.283-0.502,0.602-0.676,0.948c-0.026,0.048-0.071,0.078-0.093,0.126l-20.373,45.438c-0.807,1.792-0.078,3.899,1.661,4.81
			l70.365,36.948c0.056,0.03,0.119,0.041,0.178,0.067c0.048,0.022,0.085,0.06,0.138,0.082c0.052,0.022,0.108,0.011,0.16,0.03
			c0.409,0.145,0.825,0.245,1.253,0.245c0.026,0.004,0.056,0,0.074,0c0.375,0,0.721-0.112,1.063-0.216
			c0.074-0.022,0.156-0.019,0.23-0.048c0.572-0.216,1.059-0.561,1.457-1.007l139.709-131.276
			C262.735,119.119,263.01,117.205,262.115,115.707z M53.39,210.526l17.447-38.91l42.139,18.11l2,53.139L53.39,210.526z
			 M122.343,240.839l-1.959-52.009l61.501-55.615l53.346-48.24l18.975,31.959L122.343,240.839z"/>
		<path style="fill:#0052B4;" d="M386.548,79.595l-53.462,53.464l14.827,14.827l-25.597-4.056l-7.975,7.975l-9.073,17.81
			l-1.195-7.542L158.845,307.306l7.541,1.194l-17.812,9.077l-7.969,7.97l4.054,25.599l-14.826-14.827L79.61,386.544
			c40.225,33.467,89.749,50.221,139.292,50.221c55.812-0.007,111.645-21.253,154.122-63.738
			C453.235,292.825,457.734,165.146,386.548,79.595z M228.046,365.863l-9.141,28.134l-9.143-28.134h-29.579l23.932-17.387
			l-9.143-28.132l23.932,17.386l23.931-17.386l-9.142,28.132l23.931,17.387H228.046z M340.426,343.66l-26.357-13.429l-20.917,20.917
			l4.629-29.218l-26.355-13.429l29.215-4.628l4.628-29.217l13.429,26.358l29.215-4.63l-20.916,20.919L340.426,343.66z
			 M362.627,231.277v29.581l-17.387-23.933l-28.131,9.142l17.387-23.932l-17.387-23.932l28.132,9.142l17.386-23.933v29.582
			l28.133,9.141L362.627,231.277z"/>
		<polygon style="fill:#FFDA44;" points="166.386,308.501 158.845,307.306 148.574,317.578 		"/>
		<polygon style="fill:#FFDA44;" points="144.658,351.147 140.604,325.547 129.832,336.32 		"/>
		<polygon style="fill:#FFDA44;" points="242.837,320.344 218.905,337.73 194.973,320.344 204.116,348.476 180.184,365.863 
			209.763,365.863 218.905,393.997 228.046,365.863 257.626,365.863 233.695,348.476 		"/>
		<polygon style="fill:#FFDA44;" points="318.696,301.014 305.268,274.656 300.64,303.873 271.425,308.501 297.78,321.93 
			293.152,351.148 314.069,330.231 340.426,343.66 326.995,317.303 347.911,296.384 		"/>
		<polygon style="fill:#FFDA44;" points="362.627,212.994 362.627,183.412 345.241,207.345 317.109,198.203 334.496,222.135 
			317.109,246.067 345.24,236.925 362.627,260.858 362.627,231.277 390.76,222.135 		"/>
		<polygon style="fill:#FFDA44;" points="347.912,147.886 333.086,133.059 322.315,143.83 		"/>
		<polygon style="fill:#FFDA44;" points="305.268,169.615 314.34,151.805 304.073,162.073 		"/>
		<path style="fill:#FFFFFF;" d="M57.446,365.251c-1.856-2.065-3.652-4.164-5.415-6.282l-0.251,0.251
			c2.054,2.421,4.158,4.8,6.315,7.13l6.671,6.671l0.01-0.01C62.26,370.469,59.812,367.884,57.446,365.251z"/>
		<path style="fill:#FFFFFF;" d="M65.512,373.767l4.476,4.476c3.104,2.877,6.286,5.672,9.555,8.369l0.067-0.067
			c-4.835-4.023-9.538-8.282-14.088-12.788L65.512,373.767z"/>
		<path style="fill:#FFFFFF;" d="M373.015,64.761l0.008-0.008c0.115,0.115,0.225,0.234,0.34,0.349
			c0.134,0.133,0.271,0.263,0.405,0.397l-0.009,0.009c4.506,4.549,8.766,9.252,12.788,14.087l0.248-0.248
			c-8.418-9.927-17.705-19.102-27.755-27.399l-0.074,0.074c3.126,2.603,6.201,5.295,9.21,8.1
			C369.806,61.641,371.42,63.185,373.015,64.761z"/>
		<path style="fill:#FFFFFF;" d="M64.766,373.021l0.746,0.746c-0.12-0.12-0.233-0.243-0.352-0.362
			C65.029,373.275,64.896,373.151,64.766,373.021z"/>
		<path style="fill:#FFFFFF;" d="M57.446,365.251c2.366,2.633,4.814,5.218,7.33,7.76l1.293-1.293
			C63.134,369.623,60.256,367.471,57.446,365.251z"/>
		<path style="fill:#FFFFFF;" d="M65.159,373.405c0.119,0.12,0.233,0.243,0.352,0.362l0.01-0.01
			C65.401,373.639,65.279,373.524,65.159,373.405z"/>
		<path style="fill:#FFFFFF;" d="M368.177,60.122c1.365,1.794,2.696,3.622,4.011,5.466l0.827-0.827
			C371.42,63.185,369.806,61.641,368.177,60.122z"/>
		<path style="fill:#FFFFFF;" d="M373.769,65.498c-0.134-0.134-0.271-0.263-0.405-0.397c0.134,0.134,0.263,0.272,0.396,0.406
			L373.769,65.498z"/>
		<path style="fill:#FFFFFF;" d="M66.069,371.718l8.024-8.025l0,0l26.675-26.676l35.957-35.958l161.102-161.108l35.954-35.955
			l29.928-29.929l8.479-8.479c-1.314-1.845-2.646-3.672-4.011-5.466c-3.009-2.805-6.085-5.497-9.21-8.1L52.031,358.969
			c1.763,2.118,3.559,4.217,5.415,6.282C60.256,367.471,63.134,369.623,66.069,371.718z"/>
		<path style="fill:#FFFFFF;" d="M123.742,330.23l-26.359,13.43l1.835-3.601l-24.379,24.38l0,0l-7.907,7.907l-1.411,1.411
			c4.55,4.506,9.253,8.765,14.088,12.788l50.223-50.225L123.742,330.23z"/>
		<path style="fill:#FFFFFF;" d="M373.023,64.752l-0.008,0.008c0.116,0.114,0.233,0.226,0.349,0.341
			C373.249,64.986,373.139,64.868,373.023,64.752z"/>
		<path style="fill:#FFFFFF;" d="M372.811,66.456l-8.356,8.357l-27.632,27.633l3.604-1.836l-13.43,26.359l6.089,6.089l53.462-53.464
			c-4.023-4.835-8.282-9.537-12.788-14.087L372.811,66.456z"/>
		<polygon style="fill:#FFFFFF;" points="140.604,325.547 148.574,317.578 140.032,321.931 		"/>
		<polygon style="fill:#FFFFFF;" points="299.114,140.156 136.929,302.347 137.171,303.873 158.845,307.306 304.073,162.073 
			300.64,140.398 		"/>
		<path style="fill:#FFFFFF;" d="M64.776,373.011l-0.01,0.01c0.13,0.13,0.263,0.254,0.393,0.383
			C65.03,373.275,64.905,373.141,64.776,373.011z"/>
		<polygon style="fill:#FFFFFF;" points="314.34,151.805 322.315,143.83 318.695,143.256 		"/>
		<path style="fill:#FFFFFF;" d="M64.776,373.011c0.129,0.13,0.254,0.264,0.383,0.394c0.12,0.119,0.242,0.234,0.362,0.353
			l1.411-1.411c-0.291-0.206-0.573-0.421-0.864-0.628L64.776,373.011z"/>
		<path style="fill:#FFFFFF;" d="M373.76,65.508c-0.133-0.135-0.262-0.272-0.396-0.406c-0.116-0.115-0.233-0.227-0.349-0.341
			l-0.827,0.827c0.207,0.29,0.418,0.577,0.624,0.868L373.76,65.508z"/>
		<path style="fill:#FFFFFF;" d="M364.455,74.813l8.356-8.357c-0.206-0.291-0.417-0.578-0.624-0.868l-8.479,8.479l-29.928,29.929
			l3.042-1.55L364.455,74.813z"/>
		<polygon style="fill:#FFFFFF;" points="299.114,140.156 297.827,139.952 136.725,301.059 136.929,302.347 		"/>
		<path style="fill:#FFFFFF;" d="M74.093,363.694L74.093,363.694l-8.024,8.025c0.29,0.207,0.572,0.422,0.864,0.628l7.907-7.907l0,0
			l24.379-24.38l1.55-3.042L74.093,363.694z"/>
		<polygon style="fill:#FFFFFF;" points="136.929,302.347 99.218,340.059 97.384,343.66 123.742,330.23 129.832,336.32 
			140.604,325.547 140.032,321.931 148.574,317.578 158.845,307.306 137.171,303.873 		"/>
		<polygon style="fill:#FFFFFF;" points="136.725,301.059 100.768,337.017 99.218,340.059 136.929,302.347 		"/>
		<polygon style="fill:#FFFFFF;" points="340.426,100.61 336.823,102.446 299.114,140.156 300.64,140.398 304.073,162.073 
			314.34,151.805 318.695,143.256 322.315,143.83 333.086,133.059 326.996,126.97 		"/>
		<polygon style="fill:#FFFFFF;" points="336.823,102.446 333.781,103.996 297.827,139.952 299.114,140.156 		"/>
	</g>
</g>
</svg>
