<?xml version="1.0" encoding="iso-8859-1"?>
<!-- Generator: Adobe Illustrator 22.0.1, SVG Export Plug-In . SVG Version: 6.00 Build 0)  -->
<svg version="1.1" id="Layer_1" xmlns="http://www.w3.org/2000/svg" xmlns:xlink="http://www.w3.org/1999/xlink" x="0px" y="0px"
	 viewBox="0 0 438.53 438.53" style="enable-background:new 0 0 438.53 438.53;" xml:space="preserve">
<g id="_x31_68">
	<g>
		<path style="fill:#F4F4F4;" d="M407.603,110.087c-19.45-33.321-45.833-59.704-79.155-79.153
			c-33.328-19.448-69.711-29.17-109.176-29.17c-39.461,0-75.854,9.722-109.177,29.17C76.771,50.38,50.388,76.763,30.938,110.087
			c-19.451,33.326-29.173,69.72-29.173,109.178c0,39.46,9.725,75.847,29.17,109.175c19.449,33.321,45.832,59.704,79.156,79.155
			c33.326,19.447,69.717,29.17,109.177,29.17s75.854-9.723,109.179-29.17c33.322-19.444,59.704-45.834,79.152-79.155
			c19.445-33.325,29.166-69.718,29.166-109.175C436.766,179.803,427.044,143.409,407.603,110.087z M362.902,250.874
			c-4.167,14.665-10.503,26.33-18.998,34.994l-2.334,2.168c-1.606,1.477-3.333,2.815-5.164,4.001l-0.166,0.166l-4.982,2.822
			c-0.006,0.004-0.012,0.009-0.019,0.013c-11.239,5.833-25.399,9.35-42.569,10.465c-3.221,4.661-6.518,9.038-9.891,13.145
			c16.147-0.227,32.216-2.551,47.794-6.949c-10.168,8.999-19.663,16.165-28.498,21.498c-16.498,9.835-34.158,16.165-52.655,18.998
			c-2.18,0.331-4.377,0.608-6.586,0.84c-10.694,6.261-21.646,10.817-32.91,13.661c-15.163,3.832-29.661,4.497-43.828,1.833
			c-13.333-2.5-24.83-7.665-34.496-15.498c-9.833-7.662-16.498-16.996-20.164-27.994c6.499,9.498,15.332,15.83,26.831,19.164
			c10.401,3.06,20.803,3.023,31.335,0.031c-7.748-2.604-15.323-5.727-22.668-9.365c-16.331-8.166-30.163-17.996-41.496-29.83
			c-11.998-12.497-20.327-26.328-24.827-41.158l0,0c-4.5-14.33-6.167-27.662-5.33-40.164c0.836-12.663,4.5-22.994,10.832-31.159
			c1.648-2.162,3.488-4.171,5.499-6c-0.001,0.001-0.002,0.002-0.003,0.003c12.665-10.831,31.829-17.664,57.656-20.162
			c27.997-2.669,56.327,0.665,84.822,9.83c-7.166-0.166-16.999,1.332-29.833,4.333c-13.831,3.165-27.493,7.498-40.826,12.831
			c-34.657,13.663-55.653,29.156-63.154,46.484c0.001,0.001,0.001,0.001,0.002,0.002l1,1c22.664,25.663,50.825,45.326,84.654,58.991
			c9.417,3.817,19.039,7.054,28.809,9.724c2.866-3.622,5.677-7.495,8.433-11.618c-1.47-0.407-2.942-0.826-4.415-1.265
			c-35.493-10.666-67.821-29.83-96.818-57.659c12.496,7.665,29.996,14.833,52.326,21.665c21.163,6.167,39.162,9.833,53.995,10.998
			c3.27,0.252,6.536,0.41,9.8,0.492c2.044-4.06,4.052-8.275,6.023-12.656c7.733-17.321,14.14-35.204,19.167-53.494
			c4.063-14.598,6.76-27.148,8.104-37.79c-5.026-2.169-10.22-4.241-15.603-6.204c-20.662-7.335-41.493-12.333-62.491-15
			c-20.164-2.667-38.159-2.999-54.325-0.833c-15.163,2.168-27.496,5.668-36.828,10.832c-8.498,4.832-15,11.165-19.831,19.164
			c6-15.498,14.498-29.163,25.331-41.327c9.999-11.165,20.997-19.663,32.829-25.663c30.163-15.163,62.488-20.828,97.153-16.996
			c7.671,0.858,15.11,2.089,22.319,3.685c-0.54-0.745-1.084-1.486-1.659-2.184c-15.495-16.498-37.16-20.33-64.656-11.832
			c10.83-8.833,25.663-13.333,44.658-13.499c19.663-0.335,37.329,3.998,52.827,13.164c18.219,10.813,30.893,26.51,38.17,47.184
			c8.856,7.464,16.41,15.888,22.659,25.305c9.996,14.831,16.163,31.331,18.497,49.327
			C368.567,219.719,367.402,235.55,362.902,250.874z"/>
		<path style="fill:#F4F4F4;" d="M314.957,256.495c13.571-5.983,24.113-13.241,31.614-21.779l0,0l0.665,1.833
			c2.397,7.289,3.62,14.319,3.592,21.049c0.029-6.729-1.195-13.76-3.592-21.051l-0.665-1.833
			c-3.389-8.716-9.254-17.432-17.633-26.212c-0.227,1.236-0.451,2.471-0.701,3.719C325.182,227.408,320.75,242.154,314.957,256.495z
			"/>
		<path style="fill:#E19439;" d="M349.406,269.376c0.936-3.812,1.404-7.74,1.421-11.778c0.029-6.729-1.195-13.76-3.592-21.049
			l-0.665-1.833l0,0c-7.501,8.538-18.043,15.796-31.614,21.779c-4.314,10.681-9.381,21.138-15.213,31.38
			c-3.589,6.27-7.281,12.138-11.074,17.629c17.169-1.116,31.33-4.632,42.569-10.465c0.006-0.004,0.012-0.009,0.019-0.013
			l-0.019,0.011C340.57,288.703,346.571,280.205,349.406,269.376z"/>
		<path style="fill:#E19439;" d="M224.259,271.713c-14.833-1.166-32.832-4.832-53.995-10.998c-22.329-6.831-39.829-14-52.326-21.665
			c28.997,27.828,61.325,46.992,96.818,57.659c1.473,0.439,2.945,0.858,4.415,1.265c5.157-7.715,10.122-16.301,14.887-25.768
			C230.795,272.123,227.529,271.964,224.259,271.713z"/>
		<path style="fill:#2F489A;" d="M295.081,263.713c7.226-2.153,13.847-4.561,19.876-7.218c5.793-14.341,10.225-29.088,13.28-44.274
			c0.25-1.248,0.474-2.483,0.701-3.719c-3.155-3.306-6.655-6.621-10.531-9.949c-14.343-11.684-31.337-21.778-51.055-30.288
			c-1.344,10.642-4.041,23.192-8.104,37.79c-5.027,18.291-11.434,36.173-19.167,53.494c-1.971,4.381-3.979,8.597-6.023,12.656
			C254.574,272.721,274.952,269.896,295.081,263.713z"/>
		<path style="fill:#2F489A;" d="M193.426,351.197c-9.458-1.582-18.76-3.917-27.825-6.964c-10.532,2.992-20.933,3.03-31.335-0.031
			c-11.5-3.334-20.333-9.667-26.831-19.164c3.666,10.998,10.331,20.333,20.164,27.994c9.667,7.833,21.163,12.998,34.496,15.498
			c14.166,2.664,28.665,1.999,43.828-1.833c11.264-2.845,22.216-7.4,32.91-13.661C224.326,354.556,209.189,353.946,193.426,351.197z
			"/>
		<path style="fill:#2F489A;" d="M325.246,128.756c-7.278-20.674-19.952-36.372-38.17-47.184
			c-15.498-9.165-33.164-13.499-52.827-13.164c-18.995,0.166-33.829,4.666-44.658,13.499c27.496-8.498,49.161-4.666,64.656,11.832
			c0.575,0.698,1.119,1.439,1.659,2.184c16.592,3.674,31.949,9.31,46.003,16.977C310.497,117.598,318.275,122.88,325.246,128.756z"
			/>
		<path style="fill:#2F489A;" d="M219.171,297.973c-2.756,4.123-5.567,7.997-8.433,11.618c17.83,4.873,36.16,7.828,54.679,8.773
			c4.454,0.259,8.911,0.347,13.362,0.284c3.372-4.107,6.67-8.483,9.891-13.145c-2.945,0.191-5.969,0.321-9.092,0.37
			C259.53,306.184,239.489,303.594,219.171,297.973z"/>
		<path style="fill:#2F489A;" d="M314.957,256.495c-6.028,2.657-12.65,5.065-19.876,7.218c-20.13,6.183-40.507,9.008-61.023,8.492
			c-4.766,9.468-9.731,18.053-14.887,25.768c20.318,5.62,40.359,8.21,60.407,7.9c3.124-0.049,6.147-0.178,9.092-0.37
			c3.794-5.49,7.486-11.359,11.074-17.629C305.576,277.633,310.642,267.176,314.957,256.495z"/>
		<path style="fill:#E19439;" d="M88.944,230.38c1.166,1.999,3.665,5.163,7.33,9.495c7.501-17.328,28.497-32.821,63.154-46.484
			c13.333-5.333,26.995-9.667,40.826-12.831c12.834-3.002,22.667-4.5,29.833-4.333c-28.496-9.165-56.825-12.499-84.822-9.83
			c-25.828,2.497-44.991,9.331-57.656,20.162C77.447,198.055,77.78,212.552,88.944,230.38z"/>
		<path style="fill:#4FA6E0;" d="M253.585,343.2c-4.865,3.649-9.781,6.926-14.752,9.836c2.21-0.232,4.406-0.509,6.586-0.84
			c18.497-2.833,36.158-9.163,52.655-18.998c8.836-5.333,18.331-12.499,28.498-21.498c-15.578,4.398-31.647,6.722-47.794,6.949
			C270.815,328.348,262.427,336.526,253.585,343.2z"/>
		<path style="fill:#4FA6E0;" d="M210.738,309.592c-9.77-2.67-19.392-5.907-28.809-9.724
			c-33.829-13.665-61.989-33.328-84.654-58.991l-1-1c-0.001-0.001-0.001-0.001-0.002-0.002c-0.001,0.003-0.002,0.005-0.003,0.008
			c-3.666-4.333-6.164-7.498-7.332-9.498c-11.165-17.83-11.497-32.328-1.332-43.825c0.001-0.001,0.002-0.001,0.002-0.002
			c0.001-0.001,0.002-0.002,0.003-0.003c-2.011,1.83-3.852,3.838-5.499,6c-6.333,8.166-9.996,18.497-10.832,31.159
			c-0.836,12.502,0.831,25.835,5.33,40.164l0,0c4.5,14.831,12.829,28.662,24.827,41.158c11.333,11.835,25.165,21.665,41.496,29.83
			c7.345,3.638,14.92,6.76,22.668,9.365c0.941-0.267,1.883-0.55,2.826-0.864C183.619,337.292,197.74,326.017,210.738,309.592z"/>
		<path style="fill:#4FA6E0;" d="M265.417,318.365c-18.519-0.945-36.849-3.901-54.679-8.773
			c-12.998,16.425-27.119,27.701-42.31,33.777c-0.943,0.315-1.885,0.597-2.826,0.864c9.065,3.047,18.367,5.382,27.825,6.964
			c15.763,2.749,30.9,3.359,45.407,1.839c4.971-2.91,9.887-6.187,14.752-9.836c8.842-6.674,17.23-14.852,25.194-24.551
			C274.328,318.711,269.871,318.624,265.417,318.365z"/>
		<path style="fill:#4FA6E0;" d="M88.938,230.386c1.169,1.999,3.666,5.164,7.332,9.498c0.001-0.003,0.002-0.005,0.003-0.008
			c-3.665-4.332-6.165-7.497-7.33-9.495c-11.163-17.828-11.497-32.325-1.335-43.821c-0.001,0.001-0.002,0.001-0.002,0.002
			C77.441,198.058,77.774,212.556,88.938,230.386z"/>
		<path style="fill:#CD352C;" d="M347.905,154.061c-6.248-9.417-13.803-17.841-22.659-25.305c0.91,2.584,1.749,5.234,2.49,7.974
			c5.739,21.03,6.127,44.958,1.202,71.772c8.379,8.78,14.243,17.496,17.633,26.212l0.665,1.833
			c2.397,7.291,3.62,14.322,3.592,21.051c-0.017,4.038-0.485,7.968-1.421,11.78c-2.833,10.822-8.828,19.315-18.148,25.647
			l4.982-2.822l0.166-0.166c1.831-1.186,3.558-2.524,5.164-4.001l2.334-2.168c8.495-8.664,14.831-20.33,18.998-34.994
			c4.5-15.324,5.665-31.154,3.5-47.486C364.068,185.392,357.901,168.892,347.905,154.061z"/>
		<path style="fill:#CD352C;" d="M255.906,95.923c-7.209-1.596-14.647-2.827-22.319-3.685c-34.665-3.832-66.99,1.833-97.153,16.996
			c-11.832,6-22.83,14.498-32.829,25.663c-10.832,12.164-19.33,25.829-25.331,41.327c4.832-8,11.333-14.332,19.831-19.164
			c9.331-5.164,21.665-8.664,36.828-10.832c16.165-2.165,34.161-1.833,54.325,0.833c20.997,2.667,41.828,7.665,62.491,15
			c5.383,1.963,10.577,4.035,15.603,6.204c0.144-1.143,0.278-2.27,0.391-3.369C270.278,133.37,266.325,110.296,255.906,95.923z"/>
		<path style="fill:#CD352C;" d="M349.406,269.379c0.936-3.812,1.404-7.742,1.421-11.78c-0.017,4.037-0.485,7.966-1.421,11.778
			c-2.835,10.83-8.836,19.328-18.167,25.66l0.019-0.011C340.578,288.694,346.573,280.201,349.406,269.379z"/>
		<path style="fill:#CD352C;" d="M328.938,208.502c4.925-26.814,4.537-50.742-1.202-71.772c-0.741-2.74-1.58-5.39-2.49-7.974
			c-6.972-5.876-14.749-11.158-23.337-15.856c-14.055-7.667-29.412-13.303-46.003-16.977c10.419,14.373,14.372,37.447,11.837,68.973
			c-0.113,1.099-0.247,2.226-0.391,3.369c19.718,8.511,36.712,18.605,51.055,30.288
			C322.282,201.881,325.783,205.196,328.938,208.502z"/>
	</g>
</g>
</svg>
