<?xml version="1.0" encoding="iso-8859-1"?>
<!-- Generator: Adobe Illustrator 22.0.1, SVG Export Plug-In . SVG Version: 6.00 Build 0)  -->
<svg version="1.1" id="Layer_1" xmlns="http://www.w3.org/2000/svg" xmlns:xlink="http://www.w3.org/1999/xlink" x="0px" y="0px"
	 viewBox="0 0 438.53 438.53" style="enable-background:new 0 0 438.53 438.53;" xml:space="preserve">
<g id="_x31_72">
	<g>
		<path style="fill:#009898;" d="M407.603,110.087c-19.45-33.321-45.833-59.704-79.155-79.153
			c-33.328-19.448-69.711-29.17-109.176-29.17c-39.461,0-75.854,9.722-109.177,29.17C76.771,50.38,50.388,76.763,30.938,110.087
			c-19.451,33.326-29.173,69.72-29.173,109.178c0,39.46,9.725,75.847,29.17,109.175c19.449,33.321,45.832,59.704,79.156,79.155
			c33.326,19.447,69.717,29.17,109.177,29.17s75.854-9.723,109.179-29.17c33.322-19.444,59.704-45.834,79.152-79.155
			c19.445-33.325,29.166-69.718,29.166-109.175C436.766,179.803,427.044,143.409,407.603,110.087z M61.78,245.146
			c-3.909,3.042-8.413,4.628-13.263,5.208c-8.491,1.015-16.88,0.267-25.177-1.715c-0.647-0.155-0.907-0.404-0.898-1.125
			c0.044-3.505,0.033-7.011,0.008-10.517c-0.005-0.707,0.105-0.923,0.877-0.668c4.883,1.613,9.867,2.768,15.016,3.114
			c2.801,0.188,5.6,0.214,8.324-0.582c1.981-0.579,3.633-1.584,4.197-3.781c0.482-1.877-0.032-3.421-1.5-4.657
			c-0.902-0.76-1.953-1.265-3.028-1.729c-4.379-1.889-8.792-3.704-13.119-5.705c-3.912-1.81-7.309-4.33-9.59-8.103
			c-3.825-6.325-4.257-17.46,6.436-23.466c3.743-2.102,7.79-3.126,12.022-3.502c7.133-0.633,14.112,0.499,21.068,1.884
			c0.483,0.096,0.639,0.281,0.637,0.76c-0.015,3.681-0.008,7.362-0.008,11.17c-3.447-1.263-6.783-2.309-10.241-2.889
			c-3.398-0.57-6.812-0.917-10.224-0.09c-1.356,0.329-2.607,0.902-3.662,1.839c-1.938,1.721-1.973,3.945-0.082,5.706
			c1.023,0.952,2.256,1.573,3.505,2.166c4.853,2.302,9.738,4.546,14.46,7.107c3.787,2.054,7.081,4.718,9.139,8.617
			C70.346,231.145,68.223,240.133,61.78,245.146z M93.364,249.717c-5.273-0.045-10.547-0.041-15.82-0.002
			c-0.834,0.006-1.055-0.213-1.054-1.051c0.024-19.608,0.025-39.215-0.001-58.823c-0.001-0.859,0.251-1.047,1.066-1.041
			c5.309,0.035,10.618,0.04,15.927-0.003c0.883-0.007,1.113,0.23,1.11,1.109c-0.031,9.804-0.02,19.608-0.02,29.411
			c0,9.733-0.017,19.466,0.025,29.199C94.601,249.519,94.306,249.725,93.364,249.717z M153.307,248.801
			c0.007,0.682-0.169,0.91-0.885,0.909c-14.341-0.02-28.682-0.023-43.023,0.005c-0.879,0.002-0.85-0.428-0.85-1.043
			c0.009-9.808,0.007-19.617,0.007-29.425c0-9.773,0.011-19.546-0.019-29.319c-0.003-0.862,0.192-1.132,1.099-1.13
			c14.022,0.03,28.044,0.03,42.067,0.001c0.909-0.002,1.11,0.28,1.095,1.136c-0.05,3.009-0.054,6.02,0.002,9.029
			c0.016,0.874-0.208,1.123-1.1,1.119c-8.18-0.035-16.359,0-24.539-0.046c-1.037-0.006-1.295,0.271-1.277,1.289
			c0.063,3.682,0.054,7.365,0.005,11.047c-0.013,0.935,0.19,1.252,1.205,1.245c7.011-0.049,14.022-0.008,21.033-0.048
			c0.899-0.005,1.111,0.238,1.091,1.111c-0.06,2.69-0.057,5.383-0.001,8.072c0.017,0.818-0.231,0.994-1.009,0.99
			c-7.046-0.029-14.093,0.001-21.139-0.04c-0.932-0.005-1.196,0.223-1.183,1.17c0.055,4,0.045,8.002,0.005,12.003
			c-0.008,0.792,0.199,1.005,1.001,1.003c8.392-0.031,16.784-0.005,25.176-0.038c0.921-0.004,1.275,0.161,1.252,1.189
			C153.247,242.285,153.276,245.544,153.307,248.801z M235.993,249.718c-4.815-0.037-9.631-0.049-14.446,0.006
			c-1.035,0.012-1.364-0.193-1.36-1.313c0.047-12.357,0.029-24.714,0.029-37.072c0-0.388,0-0.775,0-1.29
			c-0.449,0.33-0.518,0.754-0.669,1.105c-5.453,12.655-10.907,25.309-16.317,37.982c-0.371,0.869-0.808,1.122-1.717,1.1
			c-2.689-0.065-5.382-0.057-8.072-0.003c-0.825,0.017-1.231-0.208-1.559-1.006c-5.222-12.713-10.481-25.41-15.734-38.11
			c-0.141-0.341-0.302-0.674-0.453-1.01c-0.062,0.013-0.123,0.025-0.185,0.038c0,0.369,0,0.737,0,1.106
			c0,12.428-0.009,24.856,0.02,37.284c0.002,0.896-0.159,1.213-1.141,1.192c-3.362-0.069-6.727-0.048-10.09-0.01
			c-0.76,0.009-1.039-0.147-1.038-0.981c0.024-19.651,0.022-39.302,0.005-58.954c-0.001-0.718,0.17-0.978,0.938-0.975
			c6.763,0.028,13.526,0.033,20.288-0.006c0.791-0.004,1.007,0.38,1.248,0.979c4.73,11.73,9.474,23.454,14.217,35.179
			c0.116,0.286,0.246,0.567,0.452,1.039c0.32-0.723,0.574-1.279,0.812-1.841c4.83-11.422,9.667-22.841,14.467-34.276
			c0.338-0.805,0.732-1.087,1.616-1.08c6.231,0.043,12.463,0.038,18.695,0.004c0.852-0.005,1.14,0.181,1.139,1.096
			c-0.027,19.58-0.028,39.161,0.001,58.741C237.142,249.572,236.828,249.724,235.993,249.718z M295.831,248.825
			c0.008,0.708-0.205,0.886-0.893,0.885c-14.338-0.018-28.677-0.023-43.015,0.007c-0.94,0.002-0.898-0.469-0.898-1.113
			c0.009-9.771,0.006-19.543,0.006-29.314s0.014-19.543-0.022-29.314c-0.003-0.935,0.231-1.181,1.174-1.179
			c13.984,0.032,27.969,0.032,41.953,0c0.936-0.002,1.2,0.229,1.18,1.173c-0.063,2.973-0.074,5.949,0.004,8.92
			c0.027,1.036-0.34,1.193-1.257,1.189c-8.107-0.032-16.215-0.003-24.322-0.041c-0.92-0.004-1.19,0.194-1.174,1.153
			c0.063,3.787,0.051,7.576,0.006,11.364c-0.01,0.828,0.202,1.059,1.046,1.055c7.045-0.036,14.091-0.004,21.136-0.041
			c0.875-0.005,1.137,0.205,1.116,1.102c-0.062,2.689-0.054,5.381-0.003,8.071c0.016,0.816-0.248,1.002-1.024,0.998
			c-7.01-0.028-14.02,0.01-21.029-0.044c-1.065-0.008-1.26,0.309-1.246,1.296c0.059,3.964,0.048,7.93,0.004,11.895
			c-0.009,0.797,0.199,0.994,0.993,0.991c8.355-0.031,16.71-0.001,25.065-0.043c0.982-0.005,1.225,0.259,1.207,1.219
			C295.776,242.31,295.793,245.568,295.831,248.825z M357.696,249.718c-5.701-0.035-11.402-0.04-17.102,0.005
			c-0.841,0.007-1.246-0.285-1.631-0.987c-6.719-12.242-13.463-24.47-20.202-36.701c-0.184-0.334-0.379-0.663-0.773-0.979
			c0,0.355,0,0.71,0,1.066c0,12.11-0.014,24.219,0.025,36.329c0.003,1.037-0.274,1.294-1.292,1.274
			c-3.327-0.068-6.657-0.047-9.984-0.009c-0.738,0.009-0.952-0.186-0.951-0.939c0.02-19.687,0.021-39.374-0.002-59.061
			c-0.001-0.801,0.295-0.909,0.985-0.906c5.913,0.023,11.826,0.03,17.739-0.007c0.793-0.005,1.172,0.274,1.537,0.945
			c6.555,12.049,13.135,24.085,19.718,36.119c0.174,0.318,0.249,0.725,0.727,0.975c0-0.41,0-0.747,0-1.085
			c0-11.897,0.014-23.794-0.024-35.692c-0.003-1.045,0.299-1.286,1.305-1.266c3.327,0.065,6.657,0.047,9.984,0.008
			c0.756-0.009,0.938,0.226,0.937,0.957c-0.019,19.652-0.02,39.303,0.003,58.955C358.697,249.516,358.491,249.723,357.696,249.718z
			 M410.777,245.059c-3.953,3.11-8.514,4.72-13.44,5.303c-8.454,1-16.805,0.258-25.062-1.728c-0.459-0.11-0.933-0.13-0.924-0.875
			c0.043-3.752,0.023-7.505,0.03-11.257c0-0.1,0.053-0.2,0.087-0.322c2.184,0.606,4.343,1.259,6.529,1.799
			c4.274,1.055,8.61,1.663,13.024,1.541c1.844-0.051,3.668-0.267,5.404-0.954c1.954-0.774,3.262-2.074,3.49-4.263
			c0.237-2.273-1.013-3.692-2.829-4.674c-2.706-1.464-5.616-2.488-8.43-3.721c-3.654-1.601-7.383-3.025-10.701-5.326
			c-7.804-5.412-9.106-13.813-6.94-20.138c1.667-4.868,5.321-7.904,9.846-9.983c5.171-2.376,10.678-2.926,16.28-2.684
			c4.99,0.216,9.919,0.972,14.805,2.009c0.479,0.102,0.75,0.2,0.747,0.776c-0.023,3.679-0.012,7.359-0.012,11.156
			c-2.442-0.856-4.804-1.677-7.24-2.247c-4.016-0.94-8.06-1.57-12.193-0.935c-1.738,0.267-3.355,0.874-4.696,2.06
			c-1.944,1.719-1.974,3.939-0.09,5.708c0.913,0.857,2.002,1.449,3.118,1.99c4.451,2.156,8.921,4.272,13.352,6.468
			c3.518,1.744,6.731,3.935,9.142,7.1C419.542,229.037,418.058,239.33,410.777,245.059z"/>
		<path style="fill:#FFFFFF;" d="M236.001,188.805c-6.232,0.034-12.464,0.038-18.695-0.004c-0.884-0.006-1.278,0.275-1.616,1.08
			c-4.8,11.435-9.637,22.854-14.467,34.276c-0.238,0.563-0.493,1.118-0.812,1.841c-0.206-0.472-0.337-0.752-0.452-1.039
			c-4.742-11.725-9.487-23.449-14.217-35.179c-0.242-0.599-0.458-0.983-1.248-0.979c-6.763,0.038-13.526,0.034-20.288,0.006
			c-0.768-0.003-0.939,0.257-0.938,0.975c0.017,19.651,0.019,39.302-0.005,58.954c-0.001,0.834,0.278,0.989,1.038,0.981
			c3.363-0.039,6.728-0.059,10.09,0.01c0.982,0.02,1.143-0.297,1.141-1.192c-0.029-12.428-0.02-24.856-0.02-37.284
			c0-0.369,0-0.737,0-1.106c0.062-0.013,0.123-0.025,0.185-0.038c0.151,0.337,0.312,0.669,0.453,1.01
			c5.253,12.7,10.512,25.397,15.734,38.11c0.328,0.798,0.734,1.023,1.559,1.006c2.69-0.055,5.383-0.062,8.072,0.003
			c0.909,0.022,1.345-0.231,1.717-1.1c5.41-12.673,10.864-25.327,16.317-37.982c0.151-0.351,0.22-0.774,0.669-1.105
			c0,0.515,0,0.902,0,1.29c0,12.357,0.017,24.715-0.029,37.072c-0.004,1.12,0.326,1.325,1.36,1.313
			c4.815-0.055,9.631-0.043,14.446-0.006c0.835,0.007,1.149-0.146,1.147-1.076c-0.028-19.58-0.028-39.161-0.001-58.741
			C237.142,188.985,236.854,188.8,236.001,188.805z"/>
		<path style="fill:#FFFFFF;" d="M357.757,188.806c-3.328,0.04-6.657,0.058-9.984-0.008c-1.005-0.02-1.308,0.221-1.305,1.266
			c0.038,11.897,0.024,23.794,0.024,35.692c0,0.337,0,0.675,0,1.085c-0.478-0.25-0.553-0.657-0.727-0.975
			c-6.584-12.034-13.164-24.069-19.718-36.119c-0.365-0.671-0.745-0.95-1.537-0.945c-5.913,0.038-11.826,0.03-17.739,0.007
			c-0.691-0.003-0.986,0.105-0.985,0.906c0.023,19.687,0.022,39.374,0.002,59.061c-0.001,0.753,0.213,0.948,0.951,0.939
			c3.328-0.038,6.657-0.059,9.984,0.009c1.017,0.021,1.295-0.236,1.292-1.274c-0.039-12.11-0.025-24.219-0.025-36.329
			c0-0.355,0-0.711,0-1.066c0.394,0.316,0.589,0.645,0.773,0.979c6.739,12.231,13.483,24.459,20.202,36.701
			c0.385,0.702,0.79,0.993,1.631,0.987c5.7-0.045,11.401-0.04,17.102-0.005c0.795,0.005,1.002-0.203,1.001-1
			c-0.023-19.652-0.022-39.303-0.003-58.955C358.694,189.032,358.513,188.797,357.757,188.806z"/>
		<path style="fill:#FFFFFF;" d="M294.63,237.835c-8.355,0.042-16.71,0.013-25.065,0.043c-0.794,0.003-1.002-0.194-0.993-0.991
			c0.044-3.965,0.054-7.931-0.004-11.895c-0.015-0.987,0.181-1.304,1.246-1.296c7.009,0.055,14.02,0.016,21.029,0.044
			c0.777,0.003,1.04-0.182,1.024-0.998c-0.051-2.69-0.059-5.382,0.003-8.071c0.021-0.897-0.241-1.106-1.116-1.102
			c-7.045,0.037-14.091,0.005-21.136,0.041c-0.844,0.004-1.056-0.226-1.046-1.055c0.045-3.788,0.056-7.577-0.006-11.364
			c-0.016-0.959,0.254-1.157,1.174-1.153c8.107,0.038,16.215,0.009,24.322,0.041c0.917,0.004,1.284-0.154,1.257-1.189
			c-0.078-2.972-0.068-5.948-0.004-8.92c0.02-0.945-0.245-1.175-1.18-1.173c-13.984,0.031-27.969,0.032-41.953,0
			c-0.943-0.002-1.177,0.244-1.174,1.179c0.035,9.771,0.022,19.543,0.022,29.314s0.003,19.543-0.006,29.314
			c-0.001,0.645-0.042,1.115,0.898,1.113c14.338-0.03,28.677-0.025,43.015-0.007c0.688,0.001,0.902-0.177,0.893-0.885
			c-0.037-3.257-0.054-6.515,0.007-9.771C295.855,238.094,295.612,237.83,294.63,237.835z"/>
		<path style="fill:#FFFFFF;" d="M152.068,237.84c-8.392,0.033-16.784,0.007-25.176,0.038c-0.802,0.003-1.009-0.21-1.001-1.003
			c0.04-4.001,0.05-8.003-0.005-12.003c-0.013-0.948,0.25-1.176,1.183-1.17c7.046,0.041,14.093,0.01,21.139,0.04
			c0.778,0.003,1.026-0.172,1.009-0.99c-0.057-2.69-0.06-5.383,0.001-8.072c0.02-0.873-0.192-1.116-1.091-1.111
			c-7.011,0.041-14.022-0.001-21.033,0.048c-1.014,0.007-1.217-0.31-1.205-1.245c0.049-3.682,0.059-7.366-0.005-11.047
			c-0.018-1.018,0.24-1.294,1.277-1.289c8.179,0.046,16.359,0.011,24.539,0.046c0.892,0.004,1.116-0.245,1.1-1.119
			c-0.056-3.009-0.052-6.02-0.002-9.029c0.014-0.856-0.186-1.138-1.095-1.136c-14.022,0.029-28.044,0.03-42.067-0.001
			c-0.907-0.002-1.102,0.268-1.099,1.13c0.03,9.773,0.019,19.546,0.019,29.319c0,9.808,0.003,19.617-0.007,29.425
			c-0.001,0.615-0.029,1.045,0.85,1.043c14.341-0.027,28.682-0.024,43.023-0.005c0.716,0.001,0.892-0.227,0.885-0.909
			c-0.031-3.257-0.06-6.516,0.013-9.772C153.344,238.001,152.989,237.837,152.068,237.84z"/>
		<path style="fill:#FFFFFF;" d="M414.076,221.861c-2.411-3.165-5.623-5.356-9.142-7.1c-4.431-2.196-8.901-4.312-13.352-6.468
			c-1.116-0.541-2.205-1.133-3.118-1.99c-1.885-1.769-1.854-3.989,0.09-5.708c1.341-1.186,2.958-1.793,4.696-2.06
			c4.133-0.635,8.177-0.005,12.193,0.935c2.435,0.57,4.797,1.392,7.24,2.247c0-3.797-0.011-7.477,0.012-11.156
			c0.004-0.576-0.268-0.674-0.747-0.776c-4.886-1.038-9.815-1.794-14.805-2.009c-5.602-0.242-11.109,0.307-16.28,2.684
			c-4.526,2.079-8.179,5.115-9.846,9.983c-2.166,6.326-0.864,14.727,6.94,20.138c3.318,2.301,7.047,3.725,10.701,5.326
			c2.814,1.233,5.724,2.257,8.43,3.721c1.816,0.982,3.066,2.401,2.829,4.674c-0.228,2.189-1.536,3.489-3.49,4.263
			c-1.736,0.688-3.561,0.904-5.404,0.954c-4.414,0.122-8.751-0.486-13.024-1.541c-2.187-0.54-4.345-1.193-6.529-1.799
			c-0.034,0.121-0.087,0.221-0.087,0.322c-0.007,3.752,0.013,7.505-0.03,11.257c-0.008,0.745,0.465,0.765,0.924,0.875
			c8.256,1.986,16.608,2.728,25.062,1.728c4.926-0.583,9.487-2.193,13.44-5.303C418.058,239.33,419.542,229.037,414.076,221.861z"/>
		<path style="fill:#FFFFFF;" d="M57.536,215.571c-4.722-2.561-9.607-4.805-14.46-7.107c-1.25-0.593-2.483-1.214-3.505-2.166
			c-1.89-1.76-1.855-3.985,0.082-5.706c1.055-0.937,2.306-1.51,3.662-1.839c3.412-0.827,6.826-0.481,10.224,0.09
			c3.458,0.58,6.794,1.627,10.241,2.889c0-3.808-0.007-7.489,0.008-11.17c0.002-0.48-0.154-0.664-0.637-0.76
			c-6.956-1.386-13.935-2.517-21.068-1.884c-4.232,0.376-8.279,1.4-12.022,3.502c-10.693,6.006-10.262,17.141-6.436,23.466
			c2.282,3.773,5.679,6.294,9.59,8.103c4.327,2.002,8.741,3.816,13.119,5.705c1.076,0.464,2.126,0.97,3.028,1.729
			c1.468,1.236,1.982,2.78,1.5,4.657c-0.564,2.196-2.216,3.202-4.197,3.781c-2.724,0.796-5.523,0.77-8.324,0.582
			c-5.148-0.346-10.132-1.5-15.016-3.114c-0.772-0.255-0.882-0.04-0.877,0.668c0.025,3.506,0.035,7.012-0.008,10.517
			c-0.009,0.721,0.251,0.97,0.898,1.125c8.298,1.983,16.687,2.731,25.177,1.715c4.851-0.58,9.354-2.166,13.263-5.208
			c6.444-5.013,8.567-14.002,4.895-20.958C64.617,220.29,61.322,217.625,57.536,215.571z"/>
		<path style="fill:#FFFFFF;" d="M94.572,219.318c0-9.804-0.012-19.608,0.02-29.411c0.003-0.879-0.227-1.116-1.11-1.109
			c-5.309,0.043-10.618,0.038-15.927,0.003c-0.815-0.005-1.068,0.182-1.066,1.041c0.026,19.608,0.025,39.215,0.001,58.823
			c-0.001,0.838,0.219,1.057,1.054,1.051c5.273-0.039,10.547-0.043,15.82,0.002c0.943,0.008,1.237-0.199,1.233-1.201
			C94.555,238.784,94.572,229.051,94.572,219.318z"/>
	</g>
</g>
</svg>
