<?xml version="1.0" encoding="iso-8859-1"?>
<!-- Generator: Adobe Illustrator 22.0.1, SVG Export Plug-In . SVG Version: 6.00 Build 0)  -->
<svg version="1.1" id="Layer_1" xmlns="http://www.w3.org/2000/svg" xmlns:xlink="http://www.w3.org/1999/xlink" x="0px" y="0px"
	 viewBox="0 0 438.53 438.53" style="enable-background:new 0 0 438.53 438.53;" xml:space="preserve">
<g id="_x31_74">
	<g>
		<path style="fill:#FE0000;" d="M407.603,110.087c-19.45-33.321-45.833-59.704-79.155-79.153
			c-33.328-19.448-69.711-29.17-109.176-29.17c-39.461,0-75.854,9.722-109.177,29.17C76.771,50.38,50.388,76.763,30.938,110.087
			c-19.451,33.326-29.173,69.72-29.173,109.178c0,39.46,9.725,75.847,29.17,109.175c19.449,33.321,45.832,59.704,79.156,79.155
			c33.326,19.447,69.717,29.17,109.177,29.17s75.854-9.723,109.179-29.17c33.322-19.444,59.704-45.834,79.152-79.155
			c19.445-33.325,29.166-69.718,29.166-109.175C436.766,179.803,427.044,143.409,407.603,110.087z M220.265,347.312
			c-77.639,0-140.961-31.515-140.961-70.123c0-28.92,35.549-53.87,86.033-64.557c-0.431,8.361,7.47,17.421,10.517,21.798
			c3.318,4.792,37.051,50.559,39.956,56.795c2.916,6.235,2.281,14.358,2.281,14.358s7.064-5.62,9.152-10.617
			c2.498-6.021,3.54-14.345,0.632-25.995c-2.912-11.662-17.672-32.825-26.167-43.391c-8.474-10.571-22.212-32.925-22.79-49.413
			c-0.611-16.492,10.667-30.628,15.944-33.846c-5.34,17.224,6.544,38.876,18.772,53.317c12.262,14.449,29.105,34.071,32.582,42.282
			c3.474,8.218,3.671,15.889,3.411,21.551c3.804-2.444,8.432-5.946,10.884-14.471c2.452-8.533,3.871-22.371-4.67-37.504
			c-8.545-15.106-36.24-44.148-43.676-70.457c-7.499-26.54,7.319-42.102,13.278-45.818c0.8,5.871-2.285,19.722,11.128,38.331
			c13.449,18.689,30.071,37.625,37.604,54.59c5.18,11.612,4.306,22.153,4.595,29.276c48.564,11.102,82.46,35.528,82.46,63.771
			C361.227,315.797,297.904,347.312,220.265,347.312z"/>
		<path style="fill:#FFFFFF;" d="M278.767,213.418c-0.289-7.123,0.585-17.664-4.595-29.276
			c-7.533-16.965-24.154-35.901-37.604-54.59c-13.412-18.609-10.328-32.461-11.128-38.331c-5.959,3.716-20.777,19.279-13.278,45.818
			c7.436,26.309,35.13,55.351,43.676,70.457c8.541,15.133,7.122,28.971,4.67,37.504c-2.452,8.525-7.081,12.027-10.884,14.471
			c0.26-5.661,0.063-13.333-3.411-21.551c-3.477-8.211-20.32-27.833-32.582-42.282c-12.228-14.442-24.112-36.094-18.772-53.317
			c-5.278,3.218-16.555,17.354-15.944,33.846c0.578,16.487,14.316,38.842,22.79,49.413c8.495,10.566,23.255,31.729,26.167,43.391
			c2.909,11.65,1.867,19.974-0.632,25.995c-2.089,4.996-9.152,10.617-9.152,10.617s0.636-8.123-2.281-14.358
			c-2.904-6.236-36.637-52.004-39.956-56.795c-3.047-4.377-10.948-13.437-10.517-21.798c-50.484,10.687-86.033,35.637-86.033,64.557
			c0,38.608,63.322,70.123,140.961,70.123s140.962-31.515,140.962-70.123C361.227,248.946,327.331,224.52,278.767,213.418z"/>
	</g>
</g>
</svg>
