<?xml version="1.0" encoding="iso-8859-1"?>
<!-- Generator: Adobe Illustrator 22.0.1, SVG Export Plug-In . SVG Version: 6.00 Build 0)  -->
<svg version="1.1" id="Layer_1" xmlns="http://www.w3.org/2000/svg" xmlns:xlink="http://www.w3.org/1999/xlink" x="0px" y="0px"
	 viewBox="0 0 438.53 438.53" style="enable-background:new 0 0 438.53 438.53;" xml:space="preserve">
<g id="_x31_75">
	<g>
		<polygon style="fill:#FCB415;" points="188.431,218.929 219.621,274.936 250.847,218.929 219.691,163.027 		"/>
		<path style="fill:#FCB415;" d="M189.463,89.644l-71.924,129.249l56.826,0.036l41.054,71.815l-20.509,46.395h3.275
			c2.421-4.203,67.758-118.21,67.758-118.21H252.84l-33.219,59.639l-33.185-59.639h-11.999l66.975-118.318h3.169
			c-6.516,15.489-13.601,30.799-20.367,46.145l41.73,72.173l55.118-0.036L249.209,89.644H189.463z"/>
		<path style="fill:#FCB415;" d="M407.603,110.087c-19.45-33.321-45.833-59.704-79.155-79.153
			c-33.328-19.448-69.711-29.17-109.176-29.17c-39.461,0-75.854,9.722-109.177,29.17C76.771,50.38,50.388,76.763,30.938,110.087
			c-19.451,33.326-29.173,69.72-29.173,109.178c0,39.46,9.725,75.847,29.17,109.175c19.449,33.321,45.832,59.704,79.156,79.155
			c33.326,19.447,69.717,29.17,109.177,29.17s75.854-9.723,109.179-29.17c33.322-19.444,59.704-45.834,79.152-79.155
			c19.445-33.325,29.166-69.718,29.166-109.175C436.766,179.803,427.044,143.409,407.603,110.087z M249.778,350.669h-4.699h-51.806
			h-4.451l-73.383-131.777l72.635-131.029h62.523l72.494,131.029L249.778,350.669z"/>
		<path style="fill:#FFFFF0;" d="M188.074,87.864l-72.635,131.029l73.383,131.777h4.451h51.806h4.699l73.313-131.777L250.597,87.864
			H188.074z M265.944,218.929c0,0-65.336,114.008-67.758,118.21h-3.275l20.509-46.395l-41.054-71.815l-56.826-0.036l71.924-129.249
			h59.746l71.853,129.249L265.944,218.929z"/>
		<path style="fill:#FFFFF0;" d="M244.581,100.61h-3.169l-66.975,118.318h11.999l33.185,59.639l33.219-59.639h13.103l-41.73-72.173
			C230.98,131.409,238.065,116.099,244.581,100.61z M250.847,218.929l-31.226,56.007l-31.191-56.007l31.261-55.902L250.847,218.929z
			"/>
	</g>
</g>
</svg>
