<?xml version="1.0" encoding="iso-8859-1"?>
<!-- Generator: Adobe Illustrator 22.0.1, SVG Export Plug-In . SVG Version: 6.00 Build 0)  -->
<svg version="1.1" id="Layer_1" xmlns="http://www.w3.org/2000/svg" xmlns:xlink="http://www.w3.org/1999/xlink" x="0px" y="0px"
	 viewBox="0 0 438.53 438.53" style="enable-background:new 0 0 438.53 438.53;" xml:space="preserve">
<g id="_x31_77">
	<g>
		<path style="fill:#3266BB;" d="M407.603,110.087c-19.45-33.321-45.833-59.704-79.155-79.153
			c-33.328-19.448-69.711-29.17-109.176-29.17c-39.461,0-75.854,9.722-109.177,29.17C76.771,50.38,50.388,76.763,30.938,110.087
			c-19.451,33.326-29.173,69.72-29.173,109.178c0,39.46,9.725,75.847,29.17,109.175c19.449,33.321,45.832,59.704,79.156,79.155
			c33.326,19.447,69.717,29.17,109.177,29.17s75.854-9.723,109.179-29.17c33.322-19.444,59.704-45.834,79.152-79.155
			c19.445-33.325,29.166-69.718,29.166-109.175C436.766,179.803,427.044,143.409,407.603,110.087z M218.82,370.751
			c-83.169-0.257-151.223-68.5-151.046-151.467c0.178-83.492,68.332-151.643,151.511-151.505
			c83.685,0.138,151.717,68.294,151.472,151.745C370.51,303.234,302.417,371.009,218.82,370.751z"/>
		<path style="fill:#3266BB;" d="M219.284,67.778C136.105,67.64,67.952,135.792,67.773,219.283
			c-0.177,82.967,67.877,151.21,151.046,151.467c83.597,0.258,151.69-67.517,151.936-151.227
			C371.001,136.072,302.969,67.917,219.284,67.778z M219.359,351.464c-72.731,0.001-132.324-59.587-132.21-132.199
			c0.115-72.842,59.479-132.198,132.215-132.195c72.8,0.003,132.235,59.51,132.189,132.347
			C351.507,292.074,292.052,351.462,219.359,351.464z"/>
		<path style="fill:#FEFEFE;" d="M219.364,87.07c-72.736-0.003-132.101,59.352-132.215,132.195
			c-0.114,72.613,59.479,132.201,132.21,132.199c72.693-0.001,132.148-59.39,132.194-132.047
			C351.6,146.579,292.164,87.073,219.364,87.07z M192.64,108.94c18.148-4.236,36.264-4.232,54.375,0.217
			c1.009,0.248,1.389,0.415,0.954,1.614c-9.275,25.543-18.497,51.106-27.74,76.661c-0.128,0.354-0.103,0.815-0.618,1.055
			c-2.283-6.295-4.563-12.579-6.841-18.863c-7.078-19.523-14.142-39.051-21.266-58.557
			C191.002,109.693,191.234,109.268,192.64,108.94z M112.308,181.817c17.527,45.671,34.973,91.132,52.523,136.867
			C112.098,289.773,94.995,228.732,112.308,181.817z M244.353,330.083c-12.551,2.765-25.213,3.372-37.975,2.009
			c-5.491-0.587-10.903-1.634-16.244-3.054c-0.872-0.232-1.26-0.54-1.149-1.488c0.081-0.693,0.134-1.372,0.389-2.032
			c9.52-24.649,19.035-49.3,28.553-73.95c0.104-0.27,0.232-0.531,0.473-1.079c5.797,15.029,11.5,29.809,17.201,44.591
			c3.842,9.964,7.684,19.927,11.521,29.893C248.654,328.949,248.489,329.172,244.353,330.083z M258.546,271.17
			c-3.746-9.692-7.364-19.053-10.982-28.415c-1.917-4.96-3.862-9.909-5.726-14.889c-0.418-1.117-0.926-1.567-2.209-1.562
			c-14.142,0.058-28.284,0.052-42.426,0.006c-1.177-0.004-1.724,0.316-2.153,1.435c-5.334,13.922-10.722,27.823-16.099,41.728
			c-0.174,0.449-0.365,0.891-0.556,1.359c-0.564-0.244-0.562-0.753-0.711-1.137c-15.439-40.012-30.862-80.031-46.315-120.037
			c-0.415-1.074-0.264-1.758,0.475-2.644c8.468-10.15,18.352-18.622,29.675-25.445c1.289-0.776,1.522-0.362,1.935,0.78
			c10.707,29.577,21.454,59.14,32.149,88.722c0.481,1.331,1.098,1.775,2.53,1.769c14.49-0.059,28.981-0.051,43.472-0.009
			c1.178,0.003,1.715-0.308,2.132-1.462c10.7-29.58,21.454-59.14,32.159-88.718c0.421-1.164,0.673-1.447,1.854-0.727
			c10.462,6.379,19.634,14.251,27.663,23.493c0.886,1.02,0.923,1.813,0.459,3.014c-15.563,40.338-31.088,80.69-46.621,121.039
			C259.075,269.925,258.878,270.37,258.546,271.17z M271.64,319.958c18.003-46.971,35.91-93.689,53.947-140.748
			C345.335,232.626,323.293,292.634,271.64,319.958z"/>
		<path style="fill:#3266BB;" d="M305.412,145.417c-8.03-9.242-17.202-17.115-27.663-23.493c-1.181-0.72-1.433-0.438-1.854,0.727
			c-10.704,29.578-21.459,59.138-32.159,88.718c-0.417,1.154-0.954,1.465-2.132,1.462c-14.491-0.042-28.981-0.051-43.472,0.009
			c-1.432,0.006-2.048-0.438-2.53-1.769c-10.695-29.582-21.442-59.145-32.149-88.722c-0.414-1.142-0.646-1.557-1.935-0.78
			c-11.323,6.823-21.207,15.295-29.675,25.445c-0.739,0.886-0.89,1.571-0.475,2.644c15.453,40.007,30.877,80.025,46.315,120.037
			c0.148,0.384,0.147,0.894,0.711,1.137c0.192-0.467,0.383-0.909,0.556-1.359c5.376-13.906,10.765-27.806,16.099-41.728
			c0.429-1.12,0.977-1.439,2.153-1.435c14.142,0.046,28.284,0.051,42.426-0.006c1.283-0.005,1.791,0.445,2.209,1.562
			c1.864,4.98,3.809,9.929,5.726,14.889c3.618,9.362,7.236,18.724,10.982,28.415c0.332-0.799,0.529-1.245,0.704-1.699
			c15.533-40.349,31.058-80.702,46.621-121.039C306.335,147.23,306.298,146.437,305.412,145.417z"/>
		<path style="fill:#3266BB;" d="M325.587,179.21c-18.037,47.059-35.944,93.777-53.947,140.748
			C323.293,292.634,345.335,232.626,325.587,179.21z"/>
		<path style="fill:#3266BB;" d="M164.831,318.684c-17.551-45.734-34.997-91.195-52.523-136.867
			C94.995,228.732,112.098,289.773,164.831,318.684z"/>
		<path style="fill:#3266BB;" d="M235.601,295.079c-5.701-14.781-11.403-29.562-17.201-44.591c-0.241,0.547-0.369,0.809-0.473,1.079
			c-9.518,24.65-19.033,49.301-28.553,73.95c-0.255,0.66-0.308,1.339-0.389,2.032c-0.111,0.949,0.277,1.256,1.149,1.488
			c5.341,1.42,10.753,2.468,16.244,3.054c12.762,1.363,25.424,0.756,37.975-2.009c4.136-0.911,4.3-1.134,2.769-5.111
			C243.286,315.007,239.444,305.043,235.601,295.079z"/>
		<path style="fill:#3266BB;" d="M212.77,169.623c2.279,6.284,4.558,12.568,6.841,18.863c0.515-0.24,0.49-0.701,0.618-1.055
			c9.243-25.555,18.465-51.118,27.74-76.661c0.435-1.198,0.055-1.366-0.954-1.614c-18.111-4.448-36.227-4.453-54.375-0.217
			c-1.406,0.328-1.638,0.753-1.136,2.127C198.628,130.572,205.691,150.1,212.77,169.623z"/>
	</g>
</g>
</svg>
