<?xml version="1.0" encoding="iso-8859-1"?>
<!-- Generator: Adobe Illustrator 22.0.1, SVG Export Plug-In . SVG Version: 6.00 Build 0)  -->
<svg version="1.1" id="Layer_1" xmlns="http://www.w3.org/2000/svg" xmlns:xlink="http://www.w3.org/1999/xlink" x="0px" y="0px"
	 viewBox="0 0 438.53 438.53" style="enable-background:new 0 0 438.53 438.53;" xml:space="preserve">
<g id="_x31_82">
	<g>
		<path style="fill:none;" d="M32.547,330.156c-19.602-33.598-29.406-70.28-29.406-110.059c0-39.777,9.801-76.465,29.409-110.061
			c19.607-33.594,46.204-60.19,79.798-79.794c6.664-3.889,13.451-7.386,20.358-10.503c-24.415,10.583-47.274,25.84-67.201,45.77
			c-42.484,42.477-63.729,98.31-63.736,154.122c0,49.563,16.766,99.107,50.259,139.341l0.256-0.256
			C45.065,349.837,38.481,340.322,32.547,330.156z"/>
		<path style="fill:#A60230;" d="M198.962,184.354c0.538,0.001,0.689-0.118,0.61-0.666c-0.457-3.171-0.875-6.346-1.367-9.512
			c-1.03-6.619-2.274-13.194-3.994-19.671c-1.692-6.37-3.863-12.562-6.965-18.4c-0.184-0.347-0.366-0.513-0.789-0.51
			c-3.985,0.019-7.969,0.019-11.954,0c-0.468-0.002-0.576,0.137-0.575,0.588c0.013,7.93,0.01,15.86,0.01,23.79
			c-0.081,0-0.163,0-0.244,0c0,7.891,0.006,15.782-0.013,23.673c-0.001,0.54,0.086,0.713,0.674,0.711
			C182.557,184.335,190.759,184.337,198.962,184.354z"/>
		<path style="fill:#A60230;" d="M200.05,202.078c-8.26,0.011-16.52,0.011-24.78,0c-0.42-0.001-0.558,0.083-0.558,0.538
			c-0.008,5.15-0.047,10.3-0.067,15.45c-0.024,6.119-0.045,12.239-0.068,18.358l26.95-26.95c-0.198-2.303-0.448-4.6-0.843-6.882
			C200.609,202.165,200.448,202.078,200.05,202.078z"/>
		<path style="fill:#A60230;" d="M32.55,110.036C12.942,143.633,3.141,180.32,3.141,220.097c0,39.779,9.804,76.461,29.406,110.059
			c5.934,10.166,12.518,19.68,19.737,28.56l100.271-100.271c0.047-4.375-0.116-8.748-0.146-13.122
			c-0.024-3.457-0.019-6.917-0.13-10.371c-0.088-2.74,0.036-5.481-0.102-8.214c-0.149-2.934,0.024-5.87-0.123-8.797
			c-0.137-2.74,0.03-5.481-0.112-8.214c-0.15-2.895,0.025-5.792-0.12-8.681c-0.139-2.76,0.029-5.52-0.114-8.273
			c-0.149-2.876,0.027-5.753-0.119-8.622c-0.143-2.818,0.029-5.636-0.115-8.448c-0.144-2.818,0.027-5.637-0.118-8.447
			c-0.146-2.837,0.03-5.675-0.116-8.506c-0.147-2.837,0.03-5.675-0.117-8.506c-0.145-2.798,0.028-5.598-0.116-8.389
			c-0.147-2.837,0.027-5.675-0.117-8.506c-0.145-2.857,0.02-5.714-0.119-8.564c-0.097-1.982-0.063-3.961-0.088-5.941
			c-0.004-0.324-0.05-0.673,0.253-0.918c17.382,0,34.764,0,52.146,0c0.33,0.158,0.541,0.427,0.717,0.739
			c2.46,4.35,4.66,8.825,6.577,13.443c3.091,7.448,5.397,15.141,7.251,22.976c1.242,5.251,2.223,10.556,3.06,15.885
			c0.487,3.103,0.919,6.216,1.28,9.336c0.272,2.349,0.531,4.7,0.748,7.056c0.026,0.283,0.051,0.565,0.077,0.848l16.395-16.395
			c-0.012-4.987-0.028-9.974,0.063-14.96c0.118-6.472,0.023-12.942,0.086-19.413c0.011-1.156-0.016-1.173-1.171-1.174
			c-5.268-0.002-10.536,0.001-15.804-0.002c-1.398-0.001-1.453-0.056-1.454-1.443c-0.002-5.268-0.004-10.536,0.004-15.804
			c0.001-0.377-0.097-0.791,0.254-1.093c21.154,0,42.308,0,63.462,0c0.174,0.222,0.114,0.485,0.114,0.732
			c0.004,2.535,0.009,5.069-0.002,7.604l74.242-74.242C294.685-1.515,206.573-12.28,132.706,19.74
			c-6.907,3.117-13.694,6.614-20.358,10.503C78.754,49.846,52.158,76.442,32.55,110.036z M103.344,136.27
			c-0.035,0.41-0.259,0.635-0.668,0.672c-0.349,0.032-0.699,0.023-1.049,0.023c-7.25,0.001-14.501,0-21.751,0.001
			c-1.24,0-1.248,0.002-1.241,1.222c0.079,13.721-0.194,27.441-0.118,41.162c0.005,0.933-0.003,1.866,0.002,2.799
			c0.005,0.88,0.081,0.959,0.977,0.96c5.404,0.004,10.808,0.001,16.211,0.002c0.33,0,0.661-0.01,0.991,0.017
			c0.54,0.046,0.766,0.269,0.817,0.799c0.02,0.213,0.017,0.427,0.017,0.641c0.001,5.404,0.002,10.807-0.001,16.211
			c-0.001,1.324-0.07,1.395-1.379,1.396c-5.404,0.004-10.808,0.001-16.211,0.002c-0.233,0-0.467-0.006-0.7,0.005
			c-0.588,0.028-0.707,0.138-0.717,0.743c-0.025,1.398,0.095,2.797,0.089,4.191c-0.04,8.318,0.121,16.634,0.17,24.951
			c0.031,5.187-0.029,10.377,0.117,15.562c0.092,3.264-0.007,6.527,0.114,9.788c-0.19,1.055-0.087,2.121-0.114,3.182
			c-0.006,0.249,0.037,0.505-0.074,0.744c-0.023,0.033-0.062,0.042-0.094,0.062c-0.001,0.003-0.001,0.007-0.001,0.01
			c0-0.003,0-0.006,0-0.01c-0.005,0.004-0.011,0.008-0.017,0.011c0.005,0,0.01,0,0.014,0c0.005,0.038,0.005,0.075-0.003,0.113
			c-7.505,0-15.01,0-22.515,0c0.001-0.028,0.002-0.057,0.003-0.085l0,0c-0.147-0.086-0.224-0.221-0.232-0.383
			c-0.024-0.466-0.157-0.92-0.142-1.39c0.062-1.983-0.099-3.961-0.145-5.941c-0.056-2.425-0.147-4.85-0.229-7.275
			c-0.079-2.347-0.149-4.695-0.229-7.042c-0.084-2.464-0.152-4.928-0.237-7.392c-0.081-2.367-0.149-4.734-0.23-7.1
			c-0.083-2.425-0.15-4.85-0.236-7.275c-0.083-2.347-0.149-4.695-0.23-7.042c-0.086-2.483-0.155-4.967-0.237-7.45
			c-0.077-2.328-0.154-4.656-0.229-6.983c-0.08-2.483-0.153-4.967-0.238-7.45c-0.08-2.328-0.143-4.656-0.229-6.984
			c-0.09-2.444-0.152-4.889-0.236-7.333c-0.082-2.386-0.15-4.773-0.232-7.159c-0.084-2.425-0.15-4.851-0.234-7.275
			c-0.084-2.406-0.149-4.812-0.233-7.217c-0.083-2.386-0.154-4.773-0.235-7.159s-0.143-4.773-0.233-7.159
			c-0.095-2.503-0.158-5.006-0.199-7.51c-0.037-2.291-0.095-4.582-0.114-6.874c-0.008-0.97-0.067-1.941-0.051-2.911
			c0-0.019,0-0.038,0-0.057l-0.01,0.001l-0.049-0.012c0-0.311,0-0.622,0-0.933c0-0.35,0-0.7,0-1.05c0-0.272,0-0.544,0-0.817
			c0.006-0.193-0.072-0.452,0.292-0.353c0.072,0.02,0.155,0.003,0.233,0.003c16.974,0,33.947,0,50.921,0
			c0.32,0.263,0.253,0.634,0.254,0.975c0.008,3.11,0.036,6.221-0.006,9.33c-0.032,2.411,0.148,4.815,0.127,7.224
			C103.364,135.726,103.368,135.999,103.344,136.27z M138.572,117.925c0.265,0.21,0.241,0.51,0.256,0.801
			c0.061,1.148-0.107,2.289-0.108,3.434c-0.009,10.693,0.094,21.387-0.032,32.079c-0.143,12.188,0.054,24.377-0.114,36.563
			c-0.157,11.313,0.05,22.627-0.113,33.938c-0.157,10.885-0.034,21.77-0.098,32.655c-0.001,0.253-0.003,0.506-0.019,0.758
			c-0.23,0.916-0.182,1.85-0.181,2.781c0,0.12-0.02,0.211-0.052,0.289c-0.002,0.103-0.004,0.206-0.006,0.31
			c-7.777,0-15.554,0-23.332,0c-0.007-0.037-0.008-0.075-0.003-0.113l-0.002-0.001c-0.247-0.422-0.117-0.871-0.092-1.312
			c-0.095-5.363-0.184-10.726-0.287-16.089c-0.144-7.501-0.297-15.001-0.449-22.502c-0.333-16.478-0.672-32.955-1.001-49.433
			c-0.216-10.804-0.416-21.608-0.631-32.412c-0.144-7.248-0.301-14.496-0.453-21.743
			C120.762,117.925,129.667,117.925,138.572,117.925z"/>
		<path style="fill:#A60230;" d="M267.62,136.267c-0.85,0.002-0.898,0.078-0.938,0.939c-0.103,2.23-0.175,4.46-0.255,6.691
			c-0.008,0.234-0.019,0.469-0.027,0.703l8.336-8.336c-0.176,0-0.351,0-0.527,0C272.013,136.266,269.817,136.261,267.62,136.267z"/>
		<path style="fill:#FFFFFF;" d="M103.245,118.901c-0.001-0.342,0.066-0.712-0.254-0.975c-16.974,0-33.948,0-50.921,0
			c-0.078,0-0.16,0.017-0.233-0.003c-0.365-0.099-0.287,0.16-0.292,0.353c0.189,0.259,0.113,0.551,0.101,0.834
			c0,0.347,0,0.694,0,1.04c-0.001,0.311-0.001,0.621-0.002,0.932l-0.04,0.004c0,0.019,0,0.038,0,0.057
			c-0.016,0.971,0.043,1.941,0.051,2.911c0.019,2.292,0.077,4.583,0.114,6.874c0.041,2.505,0.104,5.007,0.199,7.51
			c0.091,2.385,0.152,4.772,0.233,7.159c0.081,2.386,0.151,4.772,0.235,7.159c0.084,2.405,0.149,4.811,0.233,7.217
			c0.085,2.425,0.151,4.85,0.234,7.275c0.082,2.386,0.15,4.772,0.232,7.159c0.084,2.444,0.146,4.889,0.236,7.333
			c0.086,2.327,0.15,4.656,0.229,6.984c0.085,2.483,0.157,4.967,0.238,7.45c0.075,2.328,0.152,4.656,0.229,6.983
			c0.082,2.483,0.152,4.967,0.237,7.45c0.081,2.347,0.146,4.695,0.23,7.042c0.086,2.425,0.153,4.85,0.236,7.275
			c0.081,2.366,0.149,4.734,0.23,7.1c0.085,2.464,0.153,4.928,0.237,7.392c0.08,2.347,0.15,4.695,0.229,7.042
			c0.082,2.425,0.173,4.85,0.229,7.275c0.046,1.98,0.207,3.958,0.145,5.941c-0.015,0.47,0.118,0.924,0.142,1.39
			c0.008,0.162,0.085,0.297,0.232,0.383l0,0c0-0.013,0.001-0.025,0.001-0.038c7.5,0.003,14.999,0.007,22.499,0.01
			c0.006-0.003,0.011-0.007,0.017-0.011c0.005-1.321,0.01-2.643,0.015-3.964c0.12,1.322,0.215,2.643-0.014,3.963
			c0.031-0.021,0.071-0.029,0.094-0.062c0.111-0.239,0.068-0.495,0.074-0.744c0.027-1.061-0.076-2.127,0.114-3.182
			c-0.121-3.261-0.021-6.524-0.114-9.788c-0.147-5.184-0.087-10.375-0.117-15.562c-0.049-8.317-0.21-16.633-0.17-24.951
			c0.007-1.394-0.113-2.793-0.089-4.191c0.011-0.606,0.129-0.716,0.717-0.743c0.233-0.011,0.466-0.005,0.7-0.005
			c5.404-0.001,10.807,0.002,16.211-0.002c1.309-0.001,1.379-0.072,1.379-1.396c0.003-5.404,0.002-10.807,0.001-16.211
			c0-0.214,0.003-0.428-0.017-0.641c-0.051-0.529-0.277-0.753-0.817-0.799c-0.329-0.028-0.66-0.017-0.991-0.017
			c-5.404-0.001-10.807,0.002-16.211-0.002c-0.895-0.001-0.971-0.08-0.977-0.96c-0.006-0.933,0.003-1.866-0.002-2.799
			c-0.076-13.721,0.198-27.441,0.118-41.162c-0.007-1.22,0.001-1.222,1.241-1.222c7.25-0.001,14.501,0,21.751-0.001
			c0.35,0,0.7,0.009,1.049-0.023c0.408-0.037,0.632-0.262,0.668-0.672c0.023-0.271,0.019-0.544,0.022-0.816
			c0.021-2.409-0.159-4.813-0.127-7.224C103.281,125.121,103.254,122.011,103.245,118.901z"/>
		<path style="fill:#FFFFFF;" d="M266.427,143.897c0.08-2.23,0.152-4.461,0.255-6.691c0.04-0.862,0.088-0.937,0.938-0.939
			c2.197-0.006,4.393-0.001,6.59-0.002c0.176,0,0.351,0,0.527,0l10.003-10.003c0.011-2.534,0.005-5.069,0.002-7.604
			c0-0.247,0.06-0.51-0.114-0.732c-21.154,0-42.308,0-63.462,0c-0.351,0.302-0.253,0.716-0.254,1.093
			c-0.008,5.268-0.006,10.536-0.004,15.804c0.001,1.387,0.056,1.442,1.454,1.443c5.268,0.003,10.536,0,15.804,0.002
			c1.155,0,1.182,0.018,1.171,1.174c-0.063,6.471,0.031,12.941-0.086,19.413c-0.091,4.986-0.075,9.973-0.063,14.96L266.4,144.6
			C266.409,144.366,266.419,144.131,266.427,143.897z"/>
		<path style="fill:#FFFFFF;" d="M112.31,139.669c0.215,10.804,0.415,21.608,0.631,32.412c0.329,16.478,0.668,32.955,1.001,49.433
			c0.152,7.501,0.305,15.001,0.449,22.502c0.103,5.363,0.192,10.726,0.287,16.089c0.119,0.431,0.043,0.876,0.092,1.312l0.002,0.001
			c7.519-0.001,15.038-0.009,22.557,0.009c0.552,0.001,0.725-0.117,0.71-0.693c-0.022-0.869-0.07-1.745,0.046-2.614
			c0.086,1.033,0.049,2.067,0.027,3.101c0.031-0.078,0.052-0.169,0.052-0.289c-0.001-0.931-0.049-1.865,0.181-2.781
			c0.016-0.253,0.017-0.505,0.019-0.758c0.064-10.885-0.059-21.77,0.098-32.655c0.163-11.311-0.044-22.625,0.113-33.938
			c0.169-12.186-0.028-24.374,0.114-36.563c0.125-10.691,0.022-21.386,0.032-32.079c0.001-1.145,0.169-2.286,0.108-3.434
			c-0.015-0.291,0.009-0.591-0.256-0.801c-8.905,0-17.81,0-26.715,0C112.008,125.173,112.166,132.421,112.31,139.669z"/>
		<path style="fill:#FFFFFF;" d="M137.606,261.479c-7.518-0.009-15.036-0.006-22.555-0.007c-0.097,0-0.194,0.001-0.281-0.054
			c-0.005,0.038-0.005,0.075,0.003,0.113c7.777,0,15.554,0,23.332,0c0.002-0.103,0.004-0.206,0.006-0.31
			C138.041,261.396,137.89,261.48,137.606,261.479z"/>
		<path style="fill:#FFFFFF;" d="M138.084,258.121c-0.116,0.869-0.068,1.745-0.046,2.614c0.015,0.575-0.158,0.694-0.71,0.693
			c-7.519-0.018-15.038-0.011-22.557-0.009c0.086,0.055,0.183,0.054,0.281,0.054c7.518,0.001,15.036-0.002,22.555,0.007
			c0.283,0,0.434-0.083,0.504-0.258C138.133,260.188,138.17,259.154,138.084,258.121z"/>
		<path style="fill:#FFFFFF;" d="M56.502,261.473c-0.097,0-0.194,0-0.289-0.027c-0.001,0.028-0.002,0.057-0.003,0.085
			c7.505,0,15.01,0,22.515,0c0.007-0.037,0.008-0.075,0.003-0.113c-0.005,0-0.01,0-0.014,0c-0.026,0.014-0.043,0.042-0.074,0.049
			C71.261,261.48,63.882,261.47,56.502,261.473z"/>
		<path style="fill:#FFFFFF;" d="M56.214,261.446c0.095,0.027,0.192,0.027,0.289,0.027c7.379-0.003,14.758,0.007,22.138-0.005
			c0.031-0.007,0.048-0.035,0.074-0.049c-7.5-0.003-14.999-0.007-22.499-0.01C56.215,261.421,56.214,261.433,56.214,261.446z"/>
		<path style="fill:#FFFFFF;" d="M51.603,119.149c-0.002-0.016,0-0.032-0.001-0.048c-0.019-0.003-0.038-0.005-0.057-0.01
			c0,0.35,0,0.7,0,1.05c0.019,0.004,0.039,0.004,0.058,0.005C51.603,119.814,51.603,119.482,51.603,119.149z"/>
		<path style="fill:#FFFFFF;" d="M51.603,119.149c0,0.332,0,0.665,0,0.997c0.014,0.001,0.028,0.004,0.042,0.003
			c0-0.347,0-0.694,0-1.04c-0.015-0.002-0.029-0.005-0.043-0.008C51.603,119.118,51.601,119.134,51.603,119.149z"/>
		<path style="fill:#FFFFFF;" d="M51.545,120.142c0,0.311,0,0.622,0,0.933l0.049,0.012l0.01-0.001c0-0.301,0-0.602,0-0.902
			C51.582,120.19,51.562,120.182,51.545,120.142z"/>
		<path style="fill:#FFFFFF;" d="M51.645,120.15c-0.015,0.023-0.028,0.029-0.042,0.033c0,0.301,0,0.602,0,0.902l0.04-0.004
			C51.643,120.771,51.644,120.46,51.645,120.15z"/>
		<path style="fill:#FFFFFF;" d="M51.603,120.175c0-0.009,0-0.019,0-0.028c-0.02-0.001-0.039-0.001-0.058-0.005
			c0.017,0.04,0.037,0.049,0.058,0.042C51.603,120.18,51.603,120.178,51.603,120.175z"/>
		<path style="fill:#FFFFFF;" d="M51.603,120.175c0,0.003,0,0.006,0,0.009c0.013-0.004,0.027-0.01,0.042-0.033
			c-0.014,0.001-0.028-0.003-0.042-0.003C51.603,120.156,51.603,120.165,51.603,120.175z"/>
		<path style="fill:#FFFFFF;" d="M51.545,118.275c0,0.272,0,0.544,0,0.817c0.022-0.036,0.04-0.05,0.056-0.051
			C51.596,118.785,51.655,118.524,51.545,118.275z"/>
		<path style="fill:#FFFFFF;" d="M51.601,119.041c0.019-0.001,0.035,0.018,0.045,0.068c0.012-0.284,0.089-0.575-0.101-0.834
			C51.655,118.524,51.596,118.785,51.601,119.041z"/>
		<path style="fill:#FFFFFF;" d="M51.601,119.041c-0.016,0.001-0.034,0.014-0.056,0.051c0.019,0.005,0.038,0.007,0.057,0.01
			C51.601,119.082,51.601,119.061,51.601,119.041z"/>
		<path style="fill:#FFFFFF;" d="M51.602,119.102c0.014,0.002,0.029,0.006,0.043,0.008c-0.01-0.05-0.026-0.069-0.045-0.068
			C51.601,119.061,51.601,119.082,51.602,119.102z"/>
		<path style="fill:#FFFFFF;" d="M174.644,218.066c0.02-5.15,0.059-10.3,0.067-15.45c0.001-0.455,0.139-0.539,0.558-0.538
			c8.26,0.012,16.52,0.011,24.78,0c0.399-0.001,0.56,0.087,0.634,0.515c0.395,2.281,0.644,4.579,0.843,6.882l21.267-21.267
			c-0.026-0.283-0.051-0.565-0.077-0.848c-0.216-2.356-0.475-4.707-0.748-7.056c-0.362-3.12-0.793-6.233-1.28-9.336
			c-0.836-5.33-1.817-10.634-3.06-15.885c-1.854-7.835-4.16-15.528-7.251-22.976c-1.917-4.618-4.117-9.093-6.577-13.443
			c-0.176-0.312-0.386-0.581-0.717-0.739c-17.382,0-34.764,0-52.146,0c-0.303,0.245-0.257,0.593-0.253,0.918
			c0.025,1.98-0.009,3.959,0.088,5.941c0.139,2.85-0.026,5.708,0.119,8.564c0.144,2.831-0.03,5.669,0.117,8.506
			c0.144,2.792-0.029,5.591,0.116,8.389c0.146,2.83-0.03,5.669,0.117,8.506c0.147,2.83-0.03,5.669,0.116,8.506
			c0.145,2.811-0.027,5.63,0.118,8.447c0.144,2.811-0.028,5.63,0.115,8.448c0.146,2.869-0.03,5.747,0.119,8.622
			c0.143,2.753-0.026,5.513,0.114,8.273c0.146,2.889-0.03,5.786,0.12,8.681c0.142,2.733-0.025,5.474,0.112,8.214
			c0.146,2.927-0.026,5.863,0.123,8.797c0.138,2.734,0.014,5.474,0.102,8.214c0.111,3.454,0.107,6.914,0.13,10.371
			c0.03,4.374,0.193,8.747,0.146,13.122l22.021-22.021C174.599,230.305,174.62,224.185,174.644,218.066z M173.68,183.646
			c0.019-7.891,0.013-15.782,0.013-23.673c0.081,0,0.163,0,0.244,0c0-7.93,0.004-15.86-0.01-23.79
			c-0.001-0.451,0.107-0.59,0.575-0.588c3.985,0.019,7.969,0.018,11.954,0c0.424-0.002,0.605,0.164,0.789,0.51
			c3.102,5.839,5.273,12.03,6.965,18.4c1.721,6.477,2.964,13.052,3.994,19.671c0.493,3.166,0.91,6.342,1.367,9.512
			c0.079,0.547-0.072,0.667-0.61,0.666c-8.203-0.017-16.405-0.019-24.608,0.003C173.766,184.359,173.678,184.186,173.68,183.646z"/>
		<polygon style="fill:#FFFFFF;" points="78.731,261.417 78.732,261.407 78.731,261.407 		"/>
		<path style="fill:#FFFFFF;" d="M78.746,257.443c-0.005,1.321-0.01,2.643-0.015,3.964c0,0,0.001,0,0.001-0.001
			C78.961,260.086,78.865,258.765,78.746,257.443z"/>
		<path style="fill:#FFFFFF;" d="M114.677,260.105c-0.025,0.441-0.156,0.89,0.092,1.312
			C114.63,260.987,114.791,260.536,114.677,260.105z"/>
		<path style="fill:#FFFFFF;" d="M114.769,261.417c-0.049-0.436,0.027-0.881-0.092-1.312
			C114.791,260.536,114.63,260.987,114.769,261.417z"/>
		<path style="fill:#B7B8BC;" d="M240.442,225.712l-16.677,16.677c0.68,0.115,1.36,0.23,2.041,0.346
			c3.561,0.604,7.117,1.24,10.681,1.83c0.537,0.089,1.014,0.19,1.336,0.662c0.765-1.348,0.625-2.887,0.808-4.332
			C239.269,235.839,239.858,230.776,240.442,225.712z"/>
		<path style="fill:#B7B8BC;" d="M386.548,79.605L261.842,204.311c1.758,12.113,3.516,24.226,5.267,36.339
			c0.433,2.999,0.418,3.03,3.41,2.513c18.699-3.233,37.395-6.483,56.094-9.72c15.756-2.728,31.514-5.447,47.271-8.165
			c0.284-0.049,0.576-0.045,0.864-0.066c0.455-0.328,0.987-0.262,1.5-0.297c0.305-0.271,0.632-0.35,1.056-0.096
			c-0.388,0.139-0.731,0.261-1.074,0.384c-0.197,0.103-0.393,0.206-0.59,0.308c-0.487,0.929-1.531,0.937-2.319,1.296
			c-2.489,1.133-4.878,2.501-7.501,3.333c-7.315,3.682-14.84,6.913-22.254,10.382c-6.456,3.02-12.959,5.939-19.438,8.908
			c-13.704,6.28-27.406,12.563-41.109,18.847c-2.627,1.205-5.251,2.415-7.876,3.623c5.687,10.706,11.368,21.416,17.062,32.118
			c12.385,23.277,24.777,46.55,37.162,69.827c0.246,0.462,0.43,0.956,0.643,1.435c-0.4,0.745-0.777,0.319-1.119-0.042
			c-2.124-2.235-4.249-4.469-6.353-6.723c-0.852-0.912-1.65-1.874-2.472-2.814l0,0c-1.601-1.216-2.672-2.926-4.054-4.345
			c-1.513-1.112-2.542-2.673-3.766-4.053c-1.143-1.085-2.5-1.974-3.185-3.477l0,0c-0.977-0.76-1.849-1.626-2.599-2.613
			c-1.044-0.627-1.585-1.701-2.318-2.605c-0.121-0.077-0.256-0.138-0.36-0.233c-3.32-3.02-3.317-3.018,0.126-5.792
			c0.216-0.174,0.36-0.439,0.537-0.662c-0.695-1.089-1.413-2.159-2.348-3.064c-1.446,1.078-2.985,2.059-3.931,3.774
			c-1.174-0.736-1.806-1.997-2.71-3.001c-1.081-0.849-2.051-1.81-2.893-2.898l0,0l0,0c-0.774-0.868-1.547-1.735-2.321-2.603l0,0l0,0
			c-1.089-0.766-1.912-1.773-2.613-2.89c-1.162-0.961-2.238-2.006-3.168-3.197c-0.875-0.962-1.75-1.925-2.625-2.887l0,0
			c-0.932-0.726-1.785-1.525-2.338-2.593l0,0c-0.852-0.691-1.643-1.441-2.288-2.335c-0.936-0.724-1.783-1.53-2.353-2.587
			c-0.952-0.782-1.814-1.653-2.579-2.62l0,0c-0.982-0.68-1.588-1.701-2.346-2.585c-0.922-0.81-1.83-1.635-2.549-2.641
			c-1.807-1.865-3.635-3.71-5.416-5.599c-4.063-4.31-8.115-8.631-12.139-12.977c-0.656-0.709-0.997-0.833-1.746-0.015
			c-6.372,6.963-12.807,13.867-19.215,20.796c-3.596,3.888-7.179,7.789-10.768,11.685l0,0c-0.493,0.853-1.269,1.426-2.009,2.035l0,0
			l0,0c-0.493,0.75-1.062,1.435-1.739,2.028l0,0l0,0c-0.492,1.036-1.678,1.401-2.266,2.343l0,0c-0.479,0.949-1.207,1.677-2.05,2.302
			l0,0c-0.783,0.863-1.565,1.726-2.349,2.589l0,0c-0.866,0.967-1.731,1.934-2.597,2.901l0,0c-0.865,0.967-1.731,1.934-2.596,2.901
			l0,0c-0.964,1.062-1.929,2.124-2.893,3.186l0,0l0,0c-0.142,0.191-0.255,0.415-0.431,0.566c-0.607,0.519-1.239,1.739-1.753,1.479
			c-1.025-0.518-2.265-1.042-2.734-2.322c-0.785,1.036-1.569,2.072-2.354,3.107c0.104,0.159,0.211,0.317,0.311,0.478
			c0.477,0.771,2.089,0.667,1.8,1.853c-0.192,0.788-1.065,1.426-1.674,2.092c-0.383,0.419-0.844,0.767-1.27,1.147l0,0
			c-0.951,1.074-1.651,2.374-2.892,3.185l0,0c-1.188,1.23-2.056,2.754-3.472,3.773l0,0c-1.091,1.318-2.08,2.73-3.468,3.775l0,0
			c-1.026,1.19-1.894,2.525-3.183,3.474c-2.335,2.681-4.562,5.462-7.274,7.79c-0.281,0.295-0.562,0.59-0.843,0.885
			c-0.197,0.287-0.394,0.574-0.591,0.861c-0.191,0.257-0.382,0.513-0.582,0.782c-0.362-0.376-0.03-0.556,0.124-0.777
			c0.245-0.395,0.489-0.79,0.734-1.185c4.956-9.134,9.902-18.274,14.872-27.401c13.327-24.473,26.668-48.938,39.977-73.422
			c0.467-0.859,0.978-1.485,1.959-1.644c-2.16,0.219-3.844-1.077-5.648-1.879c-5.906-2.625-11.792-5.296-17.677-7.97L79.609,386.545
			c40.225,33.466,89.749,50.219,139.292,50.219c55.812-0.007,111.645-21.252,154.122-63.736
			C453.235,292.828,457.734,165.154,386.548,79.605z"/>
		<path d="M252.338,214.872c0.08,1.417-0.428,1.906-1.764,1.689c-0.012,0.307,0.052,0.635-0.244,0.861
			c-0.147,11.48-0.293,22.959-0.442,34.439c-0.06,4.679-0.12,9.358-0.197,14.037c-0.007,0.398,0.198,0.873-0.257,1.186
			c-0.095-0.045-0.217-0.062-0.251-0.126c-3.792-7.242-7.577-14.487-11.362-21.732c-0.322-0.472-0.799-0.573-1.336-0.662
			c-3.564-0.59-7.12-1.226-10.681-1.83c-0.68-0.115-1.36-0.23-2.041-0.346l-13.08,13.08c1.719,0.573,3.439,1.143,5.156,1.722
			c10.519,3.549,21.032,7.119,31.538,10.707c0.509,0.174,1.187,0.134,1.464,0.782c0.197,0.028,0.604-0.077,0.484,0.236
			c-0.177,0.462-0.678,0.361-1.092,0.309c-6.649,1.026-13.298,2.054-19.948,3.077c-0.474,0.073-0.953,0.112-1.43,0.167
			c-0.982,0.159-1.492,0.785-1.959,1.644c-13.308,24.483-26.65,48.948-39.977,73.422c-4.97,9.127-9.915,18.267-14.872,27.401
			c0.105,0.106,0.21,0.213,0.315,0.319c0.281-0.295,0.562-0.59,0.843-0.885c2.011-3.072,4.315-5.923,6.636-8.76l0,0
			c0.868-1.327,1.806-2.6,2.896-3.757l0,0c0.829-1.359,1.84-2.578,2.896-3.762c1.077-1.419,2.154-2.838,3.232-4.256l0,0
			c0.965-1.254,1.931-2.508,2.896-3.762c0.855-1.09,1.711-2.18,2.566-3.269c0.785-1.036,1.569-2.072,2.354-3.107
			c0.674-0.873,1.349-1.746,2.023-2.62c0.766-0.981,1.532-1.961,2.298-2.942c0.659-1.067,1.41-2.062,2.283-2.964
			c0.772-1.222,1.652-2.362,2.636-3.422c0.576-0.948,1.234-1.833,2.021-2.618c0.578-0.946,1.224-1.84,2.018-2.62
			c0.482-0.84,1.051-1.613,1.755-2.282c0.477-0.844,1.073-1.598,1.748-2.292c0.583-0.763,1.165-1.526,1.748-2.29
			c6.447-8.401,12.889-16.806,19.343-25.201c5.784-7.523,11.596-15.025,17.358-22.565c0.691-0.905,0.993-1.038,1.758-0.017
			c7.595,10.138,15.247,20.233,22.88,30.343c0.229,0.303,0.417,0.636,0.624,0.955c0.788,0.849,1.487,1.764,2.077,2.762
			c0.902,0.917,1.626,1.966,2.272,3.072c0.938,0.897,1.678,1.947,2.348,3.05c0.895,0.739,1.256,1.869,1.997,2.721
			c0.765,0.604,1.256,1.422,1.752,2.237c1.031,0.889,1.52,2.189,2.413,3.182c0.88,1.158,1.759,2.316,2.638,3.474l0,0
			c0.839,0.912,1.57,1.903,2.172,2.987c0.952,0.886,1.677,1.949,2.354,3.048c0.879,0.907,1.61,1.928,2.276,2.997
			c0.794,0.851,1.489,1.777,2.089,2.774c1.125,0.92,1.511,2.392,2.531,3.391c0.935,0.905,1.653,1.976,2.348,3.064
			c1.079,1.195,2.04,2.478,2.863,3.863c0.861,0.782,1.493,1.74,2.1,2.718c0.791,0.808,1.468,1.7,1.975,2.715
			c1.167,1.091,2.024,2.424,2.906,3.736c1.267,1.474,2.482,2.986,3.461,4.673c1.352,1.395,2.536,2.917,3.483,4.617
			c1.722,1.678,2.94,3.753,4.432,5.612c1.45,1.807,2.672,3.798,4.347,5.424c-0.213-0.479-0.397-0.974-0.643-1.435
			c-12.384-23.277-24.777-46.55-37.162-69.827c-5.694-10.702-11.375-21.412-17.062-32.118c-7.741-1.284-15.483-2.569-23.249-3.857
			c0.132-0.448,0.547-0.429,0.871-0.54c36.686-12.562,73.373-25.123,110.061-37.679c0.88-0.301,1.775-0.556,2.664-0.832
			c0.086-0.046,0.169-0.074,0.25-0.089c3.209-1.141,6.418-2.282,9.627-3.423c-0.206-0.089-0.412-0.178-0.618-0.268
			c-0.288,0.021-0.581,0.017-0.864,0.066c-15.758,2.719-31.515,5.437-47.271,8.165c-18.698,3.237-37.395,6.487-56.094,9.72
			c-2.992,0.517-2.976,0.486-3.41-2.513c-1.751-12.114-3.509-24.227-5.267-36.339l-9.54,9.54
			C252.312,214.191,252.319,214.532,252.338,214.872z"/>
		<path style="fill:#FDFDFD;" d="M274.727,304.02c0.173-0.144,0.305-0.312,0.38-0.51c-0.062-0.083-0.125-0.164-0.186-0.247
			c-7.653-10.167-15.376-20.282-23.006-30.466c-1.075-1.434-1.158-1.428-2.252-0.002c-10.528,13.732-21.129,27.407-31.662,41.134
			c-1.496,1.95-2.963,3.922-4.515,5.828c-0.027,0.034-0.052,0.07-0.079,0.105c1.345,1.54,3.235,2.421,4.694,3.823
			c3.589-3.895,7.171-7.796,10.768-11.685c6.409-6.929,12.844-13.833,19.215-20.796c0.749-0.818,1.089-0.694,1.746,0.015
			c4.024,4.346,8.076,8.667,12.139,12.977c1.781,1.889,3.609,3.734,5.416,5.599c1.47-0.54,2.381-1.831,3.603-2.708
			C272.293,306.149,273.486,305.051,274.727,304.02z"/>
		<path style="fill:#FDFDFD;" d="M213.485,319.758c1.552-1.906,3.02-3.879,4.515-5.828c10.533-13.728,21.135-27.402,31.662-41.134
			c1.093-1.426,1.177-1.432,2.252,0.002c7.63,10.184,15.353,20.299,23.006,30.466c0.061,0.083,0.125,0.164,0.186,0.247
			c0.041-0.106,0.07-0.219,0.07-0.346c-0.207-0.319-0.396-0.652-0.624-0.955c-7.633-10.11-15.285-20.205-22.88-30.343
			c-0.765-1.021-1.067-0.888-1.758,0.017c-5.762,7.54-11.574,15.042-17.358,22.565c-6.455,8.395-12.896,16.8-19.343,25.201
			c0.061,0.076,0.129,0.142,0.193,0.215C213.433,319.829,213.458,319.793,213.485,319.758z"/>
		<path style="fill:#FDFDFD;" d="M365.944,229.167c-0.125,0.05-0.255,0.088-0.379,0.141c-5.322,1.876-10.679,3.652-16.022,5.466
			c-13.156,4.467-26.289,9.003-39.442,13.481c-14.522,4.945-29.027,9.939-43.541,14.909c-4.497,1.54-9.038,2.956-13.448,4.679
			c6.705,1.096,13.449,2.273,20.214,3.329c0.657,0.102,1.367,0.096,1.816,0.728c2.625-1.208,5.25-2.419,7.876-3.623
			c13.702-6.283,27.405-12.567,41.109-18.847c6.48-2.969,12.983-5.888,19.438-8.908c7.414-3.469,14.94-6.699,22.254-10.382
			C365.771,229.842,366.167,229.415,365.944,229.167z"/>
		<path style="fill:#FDFDFD;" d="M273.326,271.171c-6.765-1.056-13.509-2.233-20.214-3.329c4.41-1.723,8.951-3.139,13.448-4.679
			c14.513-4.971,29.019-9.965,43.541-14.909c13.153-4.478,26.285-9.014,39.442-13.481c5.343-1.814,10.7-3.589,16.022-5.466
			c0.124-0.053,0.253-0.091,0.379-0.141c-0.073-0.081-0.212-0.144-0.456-0.176c-0.888,0.276-1.784,0.531-2.664,0.832
			c-36.688,12.557-73.374,25.118-110.061,37.679c-0.324,0.111-0.739,0.092-0.871,0.54c7.767,1.289,15.508,2.573,23.249,3.857
			C274.694,271.268,273.983,271.274,273.326,271.171z"/>
		<path style="fill:#FDFDFD;" d="M247.791,268.895c0.131-0.162,0.567,0.291,0.496-0.258c-0.448-0.215-0.905-0.369-1.363-0.518
			c-9.619-3.139-19.176-6.46-28.752-9.724c-2.596-0.885-5.2-1.746-7.804-2.609l-6.837,6.837c5.884,2.674,11.77,5.345,17.677,7.97
			c1.805,0.802,3.488,2.098,5.648,1.879c0.412-0.489,1.013-0.534,1.571-0.615C234.892,270.924,241.321,269.768,247.791,268.895z"/>
		<path style="fill:#FDFDFD;" d="M248.235,269.227c0.203-0.182,0.405-0.364,0.608-0.545c-0.277-0.648-0.955-0.608-1.464-0.782
			c-10.506-3.588-21.019-7.158-31.538-10.707c-1.717-0.579-3.437-1.15-5.156-1.722l-0.315,0.315
			c2.603,0.864,5.208,1.724,7.804,2.609c9.576,3.264,19.133,6.586,28.752,9.724c0.458,0.149,0.915,0.303,1.363,0.518
			c0.071,0.55-0.365,0.096-0.496,0.258c-6.47,0.873-12.9,2.029-19.364,2.961c-0.558,0.08-1.159,0.126-1.571,0.615
			c0.477-0.055,0.956-0.094,1.43-0.167C234.937,271.28,241.585,270.253,248.235,269.227z"/>
		<path style="fill:#FDFDFD;" d="M239.196,247.039c3.151,6.177,6.473,12.265,9.654,18.427c0.065,0.126,0.12,0.264,0.278,0.321
			c0.22-0.168,0.147-0.417,0.148-0.633c0.011-10.833,0.294-21.664,0.383-32.496c0.041-5.041-0.017-10.105,0.338-15.149
			c0.075-0.233,0.154-0.464,0.268-0.675c-0.01-0.092-0.021-0.183-0.031-0.275c-0.211-0.011-0.421-0.002-0.631-0.008l-9.161,9.161
			c-0.584,5.064-1.172,10.127-1.811,15.184c-0.183,1.445-0.043,2.983-0.808,4.332C238.545,245.63,238.847,246.356,239.196,247.039z"
			/>
		<path style="fill:#FDFDFD;" d="M249.996,217.508c-0.355,5.044-0.296,10.108-0.338,15.149c-0.089,10.833-0.371,21.663-0.383,32.496
			c0,0.216,0.073,0.465-0.148,0.633c-0.158-0.057-0.213-0.195-0.278-0.321c-3.182-6.161-6.503-12.249-9.654-18.427
			c-0.348-0.683-0.65-1.409-1.374-1.812c3.786,7.245,7.571,14.49,11.362,21.732c0.033,0.064,0.156,0.081,0.251,0.126
			c0.455-0.313,0.25-0.789,0.257-1.186c0.077-4.679,0.136-9.358,0.197-14.037c0.148-11.48,0.295-22.959,0.442-34.439
			c-0.022-0.196-0.044-0.393-0.066-0.589C250.15,217.044,250.071,217.275,249.996,217.508z"/>
		<path style="fill:#F8F8F8;" d="M249.881,216.272c0.108,0.037,0.216,0.077,0.32,0.14c0.016,0.015,0.019,0.031,0.033,0.046
			c0.001-0.181,0.003-0.362,0.004-0.543L249.881,216.272z"/>
		<path style="fill:#F8F8F8;" d="M250.201,216.412c-0.104-0.063-0.212-0.102-0.32-0.14l-0.279,0.279
			c0.21,0.005,0.42-0.004,0.631,0.008c0-0.033,0-0.067,0.001-0.1C250.221,216.443,250.217,216.427,250.201,216.412z"/>
		<path style="fill:#EDEDED;" d="M277.839,315.808c1.308-1.157,2.953-1.972,3.89-3.529c-0.016-0.018-0.028-0.04-0.045-0.058
			c-0.708-1.066-1.523-2.049-2.36-3.014c-1.362,1.547-3.113,2.65-4.652,3.994c-0.744,0.65-1.372,1.514-2.394,1.82l0,0
			c0.765,0.967,1.627,1.838,2.579,2.62C276.273,317.733,276.984,316.565,277.839,315.808z"/>
		<path style="fill:#EDEDED;" d="M281.684,312.222c0.017,0.018,0.029,0.039,0.045,0.058c0.047-0.078,0.101-0.15,0.145-0.232
			c-0.671-1.103-1.411-2.152-2.348-3.05c-0.063,0.075-0.137,0.137-0.202,0.21C280.162,310.173,280.976,311.156,281.684,312.222z"/>
		<path style="fill:#F8F8F8;" d="M277.167,306.293c-0.042-0.052-0.08-0.108-0.122-0.16c-0.554-0.818-1.161-1.596-1.756-2.383
			c-0.073,0.245-0.295,0.44-0.507,0.616c-2.087,1.735-4.14,3.51-6.267,5.196c-0.324,0.257-0.662,0.604-1.131,0.235
			c0.72,1.006,1.627,1.83,2.549,2.641c2.294-1.881,4.585-3.765,6.886-5.638C276.997,306.653,277.1,306.482,277.167,306.293z"/>
		<path style="fill:#F8F8F8;" d="M275.288,303.75c0.595,0.787,1.202,1.566,1.756,2.383c0.043,0.052,0.08,0.108,0.122,0.16
			c0.041-0.116,0.071-0.237,0.087-0.367c-0.59-0.997-1.289-1.913-2.077-2.762C275.321,303.391,275.338,303.582,275.288,303.75z"/>
		<path style="fill:#F8F8F8;" d="M268.514,309.562c2.127-1.686,4.181-3.461,6.267-5.196c0.212-0.176,0.433-0.371,0.507-0.616
			c-0.06-0.08-0.121-0.159-0.181-0.239c-0.076,0.198-0.207,0.366-0.38,0.51c-1.241,1.031-2.434,2.129-3.741,3.067
			c-1.222,0.877-2.133,2.168-3.603,2.708C267.852,310.165,268.19,309.818,268.514,309.562z"/>
		<path style="fill:#F8F8F8;" d="M275.288,303.75c0.05-0.168,0.033-0.358-0.111-0.586c0,0.127-0.029,0.24-0.07,0.346
			C275.167,303.591,275.228,303.67,275.288,303.75z"/>
		<path style="fill:#F3F3F3;" d="M279.273,309.147c-0.636-0.893-1.27-1.788-1.95-2.65c-0.044,0.216-0.168,0.411-0.373,0.584
			c-2.098,1.768-4.166,3.57-6.341,5.244c-0.197,0.152-0.428,0.213-0.677,0.112c0.757,0.884,1.363,1.905,2.346,2.585
			c2.156-2.171,4.479-4.139,7.011-5.856C279.283,309.16,279.278,309.153,279.273,309.147z"/>
		<path style="fill:#F3F3F3;" d="M277.323,306.497c0.68,0.861,1.313,1.757,1.95,2.65c0.005,0.006,0.011,0.013,0.016,0.019
			c0.08-0.054,0.156-0.114,0.237-0.168c-0.646-1.106-1.37-2.155-2.272-3.072C277.345,306.134,277.359,306.322,277.323,306.497z"/>
		<path style="fill:#F3F3F3;" d="M279.324,309.208c-0.012-0.014-0.023-0.028-0.035-0.042c-2.532,1.717-4.856,3.686-7.011,5.856
			c1.022-0.306,1.65-1.17,2.394-1.82C276.211,311.858,277.962,310.755,279.324,309.208z"/>
		<path style="fill:#F3F3F3;" d="M279.324,309.208c0.064-0.073,0.139-0.135,0.202-0.21c-0.081,0.054-0.157,0.113-0.237,0.168
			C279.301,309.18,279.312,309.194,279.324,309.208z"/>
		<path style="fill:#F3F3F3;" d="M270.608,312.325c2.175-1.673,4.244-3.476,6.341-5.244c0.205-0.173,0.329-0.368,0.373-0.584
			c-0.053-0.067-0.102-0.137-0.156-0.204c-0.066,0.189-0.169,0.36-0.349,0.506c-2.301,1.873-4.592,3.757-6.886,5.638
			C270.18,312.539,270.411,312.477,270.608,312.325z"/>
		<path style="fill:#F3F3F3;" d="M277.323,306.497c0.036-0.175,0.022-0.363-0.069-0.571c-0.016,0.13-0.046,0.251-0.087,0.367
			C277.221,306.36,277.27,306.43,277.323,306.497z"/>
		<path style="fill:#DADADA;" d="M290.358,323.784c-0.831-1.152-1.64-2.322-2.599-3.375c-1.974,1.583-3.949,3.165-5.923,4.748l0,0
			c0.875,0.962,1.75,1.925,2.625,2.887c1.426-0.143,2.05-1.465,3.124-2.13C288.576,325.3,289.255,324.251,290.358,323.784z"/>
		<path style="fill:#DADADA;" d="M290.358,323.784c0.103-0.044,0.205-0.09,0.316-0.122l0,0l0,0
			c-0.879-1.158-1.759-2.316-2.638-3.474c-0.092,0.074-0.185,0.148-0.277,0.222C288.719,321.462,289.527,322.632,290.358,323.784z"
			/>
		<path style="fill:#D3D3D3;" d="M292.678,326.873c-0.021-0.022-0.039-0.046-0.06-0.068c-0.673-1.011-1.36-2.013-2.177-2.917
			c-1.438,1.476-3.142,2.646-4.676,4.012c-0.381,0.339-0.823,0.516-1.304,0.144c0.93,1.191,2.006,2.236,3.168,3.197
			C289.417,329.905,291.337,328.718,292.678,326.873z"/>
		<path style="fill:#D3D3D3;" d="M292.618,326.805c0.021,0.022,0.039,0.046,0.06,0.068c0.055-0.076,0.116-0.146,0.169-0.224
			c-0.603-1.084-1.334-2.074-2.172-2.987c-0.074,0.08-0.158,0.149-0.234,0.227C291.258,324.792,291.944,325.794,292.618,326.805z"/>
		<path style="fill:#D3D3D3;" d="M285.765,327.9c1.534-1.366,3.238-2.535,4.676-4.012c-0.023-0.025-0.041-0.054-0.064-0.079
			c-0.006-0.009-0.012-0.017-0.018-0.026c-1.103,0.468-1.782,1.516-2.774,2.13c-1.074,0.665-1.698,1.987-3.124,2.13
			C284.941,328.416,285.384,328.239,285.765,327.9z"/>
		<path style="fill:#D3D3D3;" d="M290.358,323.784c0.006,0.009,0.012,0.017,0.018,0.026c0.023,0.025,0.041,0.054,0.064,0.079
			c0.076-0.078,0.159-0.147,0.234-0.227l0,0C290.563,323.694,290.462,323.74,290.358,323.784z"/>
		<path style="fill:#E8E8E8;" d="M279.518,318.734c1.414-1.215,3.114-2.133,4.187-3.726c-0.023-0.023-0.044-0.049-0.068-0.072
			c-0.69-0.688-1.087-1.585-1.669-2.35c-0.063,0.321-0.353,0.552-0.623,0.789c-1.52,1.335-3.11,2.588-4.649,3.901
			c-0.524,0.447-1.118,0.793-1.84,0.366c0.57,1.057,1.417,1.862,2.353,2.587C278.374,320.359,278.846,319.312,279.518,318.734z"/>
		<path style="fill:#E8E8E8;" d="M281.968,312.587c0.581,0.766,0.979,1.663,1.669,2.35c0.024,0.023,0.044,0.049,0.068,0.072
			c0.054-0.081,0.115-0.155,0.166-0.24c-0.741-0.852-1.102-1.982-1.997-2.721C281.981,312.257,281.999,312.432,281.968,312.587z"/>
		<path style="fill:#E8E8E8;" d="M276.696,317.277c1.539-1.313,3.129-2.566,4.649-3.901c0.27-0.237,0.56-0.468,0.623-0.789
			c-0.078-0.103-0.152-0.21-0.239-0.307c-0.937,1.556-2.582,2.372-3.89,3.529c-0.855,0.756-1.566,1.925-2.983,1.834
			C275.578,318.07,276.172,317.724,276.696,317.277z"/>
		<path style="fill:#E8E8E8;" d="M281.968,312.587c0.031-0.155,0.013-0.329-0.094-0.539c-0.043,0.082-0.097,0.154-0.145,0.232
			C281.816,312.377,281.89,312.483,281.968,312.587z"/>
		<path style="fill:#DFDFDF;" d="M287.243,320.344c0.098-0.086,0.208-0.151,0.325-0.188c-0.705-0.912-1.273-1.922-2.015-2.807
			c-0.144,0.446-0.518,0.743-0.862,1.027c-1.714,1.416-3.458,2.795-5.192,4.188l0,0l0,0c0.554,1.068,1.406,1.866,2.338,2.593
			C283.315,323.189,285.432,321.938,287.243,320.344z"/>
		<path style="fill:#DFDFDF;" d="M287.567,320.156c0.145-0.046,0.301-0.048,0.469,0.031c-0.893-0.993-1.383-2.293-2.413-3.182
			c-0.002,0.128-0.036,0.236-0.071,0.344C286.294,318.234,286.863,319.244,287.567,320.156z"/>
		<path style="fill:#DFDFDF;" d="M287.746,320.394c-0.063-0.077-0.118-0.16-0.179-0.238c-0.117,0.037-0.227,0.102-0.325,0.188
			c-1.811,1.594-3.928,2.846-5.406,4.813c1.974-1.583,3.949-3.165,5.923-4.748C287.755,320.404,287.751,320.399,287.746,320.394z"/>
		<path style="fill:#DFDFDF;" d="M287.567,320.156c0.061,0.079,0.115,0.161,0.179,0.238c0.005,0.005,0.009,0.01,0.013,0.015
			c0.092-0.074,0.185-0.148,0.277-0.222C287.868,320.108,287.712,320.11,287.567,320.156z"/>
		<path style="fill:#CECECE;" d="M295.108,330.017c-0.037-0.046-0.071-0.095-0.107-0.141c-0.653-0.907-1.29-1.827-2.027-2.669
			c-0.061,0.219-0.243,0.403-0.421,0.556c-1.306,1.127-2.624,2.242-3.976,3.314c-0.268,0.213-0.598,0.307-0.948,0.164
			c0.701,1.117,1.524,2.123,2.613,2.89l0,0c1.473-1.215,2.939-2.44,4.425-3.639C294.849,330.344,295.01,330.202,295.108,330.017z"/>
		<path style="fill:#CECECE;" d="M292.973,327.207c0.737,0.842,1.374,1.762,2.027,2.669c0.037,0.046,0.071,0.095,0.107,0.141
			c0.049-0.094,0.087-0.195,0.093-0.321c-0.677-1.099-1.402-2.161-2.354-3.048C292.999,326.858,293.019,327.043,292.973,327.207z"/>
		<path style="fill:#CECECE;" d="M288.576,331.077c1.353-1.072,2.67-2.187,3.976-3.314c0.178-0.153,0.359-0.337,0.421-0.556
			c-0.098-0.112-0.193-0.226-0.296-0.334c-1.341,1.845-3.261,3.032-5.049,4.368C287.978,331.384,288.308,331.29,288.576,331.077z"/>
		<path style="fill:#CECECE;" d="M292.973,327.207c0.046-0.165,0.026-0.349-0.126-0.559c-0.053,0.078-0.114,0.148-0.169,0.224
			C292.78,326.982,292.875,327.095,292.973,327.207z"/>
		<path style="fill:#E4E4E4;" d="M282.719,319.567c0.889-0.808,1.831-1.557,2.705-2.383c-0.457-0.641-0.906-1.289-1.436-1.874
			c-0.067,0.316-0.39,0.528-0.644,0.745c-1.525,1.302-3.079,2.568-4.611,3.861c-0.448,0.378-0.903,0.755-1.523,0.313
			c0.645,0.894,1.436,1.644,2.288,2.335C280.249,321.218,281.633,320.553,282.719,319.567z"/>
		<path style="fill:#E4E4E4;" d="M283.988,315.31c0.529,0.585,0.978,1.233,1.436,1.874c0.065-0.061,0.135-0.116,0.199-0.179
			c-0.497-0.814-0.987-1.633-1.752-2.237C283.998,314.984,284.021,315.158,283.988,315.31z"/>
		<path style="fill:#E4E4E4;" d="M278.732,319.916c1.532-1.293,3.087-2.56,4.611-3.861c0.254-0.217,0.577-0.429,0.644-0.745
			c-0.092-0.102-0.185-0.204-0.284-0.301c-1.072,1.592-2.773,2.51-4.187,3.726c-0.672,0.578-1.144,1.625-2.308,1.495
			C277.829,320.671,278.285,320.294,278.732,319.916z"/>
		<path style="fill:#E4E4E4;" d="M283.988,315.31c0.032-0.152,0.01-0.327-0.118-0.541c-0.051,0.085-0.112,0.159-0.166,0.24
			C283.803,315.106,283.896,315.208,283.988,315.31z"/>
		<path style="fill:#E4E4E4;" d="M284.69,318.376c0.344-0.284,0.718-0.581,0.862-1.027c-0.039-0.047-0.073-0.097-0.113-0.143
			c-0.005-0.007-0.01-0.015-0.016-0.022c-0.874,0.826-1.816,1.575-2.705,2.383c-1.085,0.986-2.47,1.652-3.221,2.997l0,0
			C281.232,321.171,282.976,319.791,284.69,318.376z"/>
		<path style="fill:#E4E4E4;" d="M285.439,317.206c0.04,0.046,0.074,0.096,0.113,0.143c0.035-0.107,0.068-0.216,0.071-0.344
			c-0.064,0.062-0.134,0.117-0.199,0.179C285.429,317.191,285.434,317.199,285.439,317.206z"/>
		<path style="fill:#C9C9C9;" d="M297.258,332.842c-0.654-0.876-1.312-1.75-1.987-2.61c-0.003,0.004-0.003,0.01-0.007,0.014
			c-1.512,1.502-2.887,3.189-5.023,3.885l0,0c0.774,0.868,1.547,1.735,2.321,2.603l0,0c1.765-1.053,3.286-2.404,4.724-3.854
			C297.277,332.867,297.268,332.855,297.258,332.842z"/>
		<path style="fill:#C9C9C9;" d="M295.271,330.232c0.675,0.861,1.333,1.734,1.987,2.61c0.009,0.013,0.019,0.025,0.028,0.038
			c0.063-0.063,0.128-0.123,0.19-0.186c-0.666-1.069-1.396-2.09-2.276-2.997C295.266,329.871,295.389,330.094,295.271,330.232z"/>
		<path style="fill:#C9C9C9;" d="M295.265,330.245c0.004-0.004,0.003-0.009,0.007-0.014c-0.056-0.071-0.108-0.144-0.164-0.215
			c-0.098,0.185-0.259,0.327-0.442,0.475c-1.486,1.199-2.952,2.423-4.425,3.639C292.378,333.434,293.752,331.748,295.265,330.245z"
			/>
		<path style="fill:#C9C9C9;" d="M295.271,330.232c0.118-0.137-0.005-0.361-0.07-0.536c-0.006,0.126-0.044,0.227-0.093,0.321
			C295.164,330.088,295.216,330.161,295.271,330.232z"/>
		<path style="fill:#BFBFBF;" d="M300.802,337.671c-0.418-0.697-0.94-1.321-1.436-1.962c-0.001-0.001-0.001-0.002-0.002-0.003
			c-0.706,0.885-1.681,1.472-2.518,2.212c-0.561,0.496-1.274,0.86-1.39,1.713c0.904,1.005,1.537,2.265,2.71,3.001
			c0.945-1.715,2.484-2.697,3.931-3.774C301.333,338.824,301.118,338.198,300.802,337.671z"/>
		<path style="fill:#BFBFBF;" d="M299.566,335.467c-0.06,0.087-0.136,0.157-0.202,0.239c0.001,0.001,0.001,0.002,0.002,0.003
			c0.496,0.641,1.018,1.265,1.436,1.962c0.316,0.527,0.531,1.153,1.294,1.187C301.077,337.859,300.691,336.388,299.566,335.467z"/>
		<path style="fill:#B2B2B2;" d="M307.099,345.96c-0.013-0.014-0.023-0.03-0.036-0.044c-0.813-1.37-2.085-2.44-2.619-3.993
			c-0.177,0.223-0.321,0.488-0.537,0.662c-3.443,2.774-3.446,2.772-0.126,5.792c0.104,0.095,0.239,0.156,0.36,0.233
			C304.952,347.529,306.098,346.825,307.099,345.96z"/>
		<path style="fill:#B2B2B2;" d="M307.099,345.96c0.068-0.059,0.141-0.113,0.208-0.174c-0.823-1.385-1.784-2.668-2.863-3.863
			c0.534,1.553,1.806,2.622,2.619,3.993C307.076,345.929,307.087,345.945,307.099,345.96z"/>
		<path style="fill:#C3C3C3;" d="M295.789,338.411c1.155-0.949,2.181-2.068,3.515-2.789c-0.577-0.857-1.218-1.666-1.832-2.496
			c-0.067,0.217-0.224,0.395-0.404,0.547c-1.157,0.978-2.331,1.937-3.49,2.912c-0.292,0.246-0.625,0.462-1.016,0.147l0,0
			c0.842,1.088,1.812,2.049,2.893,2.898C295.078,339.093,295.445,338.694,295.789,338.411z"/>
		<path style="fill:#C3C3C3;" d="M297.472,333.127c0.613,0.83,1.255,1.639,1.832,2.496c0.09-0.049,0.169-0.111,0.262-0.155
			c-0.6-0.997-1.295-1.923-2.089-2.774C297.528,332.858,297.512,332.998,297.472,333.127z"/>
		<path style="fill:#C3C3C3;" d="M293.578,336.586c1.159-0.975,2.333-1.934,3.49-2.912c0.18-0.152,0.337-0.331,0.404-0.547
			c-0.061-0.083-0.125-0.164-0.186-0.247c-1.439,1.45-2.959,2.801-4.724,3.854C292.953,337.049,293.286,336.832,293.578,336.586z"/>
		<path style="fill:#C3C3C3;" d="M297.472,333.127c0.04-0.129,0.056-0.269,0.004-0.434c-0.062,0.063-0.127,0.123-0.19,0.186
			C297.347,332.963,297.411,333.044,297.472,333.127z"/>
		<path style="fill:#C3C3C3;" d="M296.846,337.918c0.837-0.74,1.812-1.327,2.518-2.212c-0.019-0.029-0.041-0.055-0.06-0.083
			c-1.334,0.721-2.36,1.84-3.515,2.789c-0.344,0.283-0.711,0.682-0.334,1.22C295.572,338.778,296.285,338.414,296.846,337.918z"/>
		<path style="fill:#C3C3C3;" d="M299.364,335.706c0.065-0.082,0.142-0.151,0.202-0.239c-0.093,0.045-0.172,0.107-0.262,0.155
			C299.323,335.651,299.345,335.677,299.364,335.706z"/>
		<path style="fill:#D7D7D7;" d="M204.074,332.013c-0.929,1.06-1.736,2.212-2.558,3.353c1.107,0.957,2.247,1.87,3.574,2.519
			c0.866-0.967,1.731-1.934,2.597-2.901C206.44,334.044,204.893,333.453,204.074,332.013z"/>
		<path style="fill:#D7D7D7;" d="M204.074,332.013c-0.05-0.088-0.107-0.169-0.152-0.264c-0.983,1.06-1.863,2.199-2.636,3.422
			c0.076,0.066,0.153,0.13,0.229,0.196C202.338,334.225,203.146,333.073,204.074,332.013z"/>
		<path style="fill:#F7F7F7;" d="M213.368,319.914c-0.568,0.729-1.093,1.491-1.689,2.199c-0.027,0.032-0.051,0.066-0.077,0.098
			c0.591,1.122,1.861,1.502,2.731,2.32c0.509,0.479,1.167,0.8,1.758,1.192l0,0c0.74-0.609,1.516-1.183,2.009-2.035l0,0
			C216.27,322.734,214.424,321.802,213.368,319.914z"/>
		<path style="fill:#F7F7F7;" d="M211.679,322.112c0.596-0.707,1.121-1.469,1.689-2.199c-0.05-0.09-0.108-0.171-0.155-0.265
			c-0.583,0.763-1.165,1.526-1.748,2.29c0.038,0.099,0.089,0.183,0.136,0.272C211.628,322.178,211.652,322.144,211.679,322.112z"/>
		<path style="fill:#F7F7F7;" d="M213.406,319.863c-0.013,0.017-0.025,0.034-0.038,0.05c1.056,1.889,2.902,2.82,4.732,3.772
			C216.641,322.284,214.751,321.404,213.406,319.863z"/>
		<path style="fill:#F7F7F7;" d="M213.406,319.863c-0.063-0.073-0.132-0.139-0.193-0.215c0.047,0.094,0.104,0.175,0.155,0.265
			C213.381,319.897,213.393,319.88,213.406,319.863z"/>
		<path style="fill:#8A8A8A;" d="M328.604,374.267c-2.69-3.155-4.922-6.664-7.574-9.849c-0.005-0.008-0.011-0.016-0.016-0.024
			c-0.465,0.318-0.885,0.671-0.95,1.309l0,0l0,0c0.823,0.939,1.621,1.901,2.472,2.814c2.104,2.254,4.229,4.488,6.353,6.723
			c0.342,0.36,0.719,0.787,1.119,0.042C329.17,375.462,328.978,374.705,328.604,374.267z"/>
		<path style="fill:#8A8A8A;" d="M321.231,364.245c-0.073,0.048-0.144,0.099-0.217,0.149c0.005,0.008,0.011,0.016,0.016,0.024
			c2.652,3.185,4.884,6.694,7.574,9.849c0.374,0.439,0.565,1.196,1.405,1.014c-1.675-1.626-2.897-3.617-4.347-5.424
			C324.172,367.998,322.953,365.923,321.231,364.245z"/>
		<path style="fill:#CECECE;" d="M204.713,338.032c-1.194-0.732-2.577-1.243-3.275-2.569c-0.802,0.902-1.516,1.873-2.221,2.851
			c-0.014,0.018-0.028,0.035-0.042,0.053c0.803,1.206,1.904,2.02,3.32,2.418c0.865-0.967,1.73-1.934,2.596-2.901l0,0
			C204.978,337.976,204.818,338.097,204.713,338.032z"/>
		<path style="fill:#CECECE;" d="M199.217,338.314c0.704-0.979,1.419-1.949,2.221-2.851c-0.051-0.097-0.107-0.187-0.151-0.292
			c-0.873,0.902-1.625,1.897-2.283,2.964c0.051,0.085,0.117,0.152,0.171,0.233C199.189,338.35,199.203,338.333,199.217,338.314z"/>
		<path style="fill:#CECECE;" d="M201.51,335.375c-0.025,0.028-0.047,0.059-0.073,0.088c0.698,1.326,2.081,1.837,3.275,2.569
			c0.106,0.065,0.266-0.056,0.378-0.147c-1.327-0.649-2.467-1.562-3.574-2.519C201.514,335.369,201.512,335.372,201.51,335.375z"/>
		<path style="fill:#CECECE;" d="M201.51,335.375c0.002-0.003,0.004-0.006,0.006-0.009c-0.076-0.066-0.154-0.129-0.229-0.196
			c0.043,0.106,0.1,0.196,0.151,0.292C201.463,335.435,201.485,335.404,201.51,335.375z"/>
		<path style="fill:#E4E4E4;" d="M208.908,327.887c-0.375-0.272-0.726-0.586-0.871-1.036c-0.631,0.819-1.303,1.606-1.9,2.451
			c-0.02,0.025-0.038,0.05-0.058,0.075c0.849,1.596,2.384,2.331,3.958,3.019l0,0l0,0c0.843-0.625,1.571-1.353,2.05-2.302l0,0l0,0
			C211.025,329.361,209.951,328.644,208.908,327.887z"/>
		<path style="fill:#E4E4E4;" d="M206.137,329.302c0.598-0.845,1.269-1.632,1.9-2.451c-0.034-0.107-0.068-0.214-0.075-0.339
			c-0.794,0.779-1.441,1.673-2.018,2.62c0.04,0.088,0.091,0.162,0.135,0.245C206.098,329.352,206.117,329.326,206.137,329.302z"/>
		<path style="fill:#F1F1F1;" d="M211.363,322.511c-0.501,0.621-0.971,1.265-1.448,1.905c-0.042,0.045-0.076,0.096-0.117,0.142
			c0.165,0.509,0.603,0.792,1.073,1.033c1.22,0.626,1.981,1.991,3.482,2.159l0,0c0.677-0.593,1.246-1.278,1.739-2.028l0,0
			c-1.971-0.421-3.254-1.876-4.671-3.124C211.392,322.573,211.38,322.541,211.363,322.511z"/>
		<path style="fill:#F1F1F1;" d="M209.915,324.415c0.476-0.64,0.947-1.284,1.448-1.905c-0.094-0.165-0.035-0.393,0.102-0.573
			c-0.675,0.694-1.271,1.447-1.748,2.292c0.007,0.125,0.047,0.224,0.08,0.327C209.839,324.512,209.873,324.461,209.915,324.415z"/>
		<path style="fill:#F1F1F1;" d="M211.602,322.21c-0.083,0.098-0.158,0.201-0.239,0.301c0.017,0.03,0.029,0.062,0.057,0.087
			c1.416,1.248,2.7,2.703,4.671,3.124c-0.591-0.392-1.249-0.713-1.758-1.192C213.462,323.711,212.193,323.332,211.602,322.21z"/>
		<path style="fill:#F1F1F1;" d="M211.363,322.511c0.08-0.1,0.156-0.203,0.239-0.301c-0.047-0.089-0.099-0.173-0.136-0.272
			C211.328,322.117,211.269,322.345,211.363,322.511z"/>
		<path style="fill:#EAEAEA;" d="M213.84,327.94c-1.609-0.717-3.008-1.736-4.185-3.044c-0.027-0.03-0.039-0.067-0.053-0.103
			c-0.515,0.604-0.983,1.245-1.438,1.896c0.967,0.91,2.004,1.733,3.115,2.463c0.355,0.233,0.716,0.475,0.807,0.941
			c0.589-0.942,1.775-1.307,2.266-2.343l0,0C214.201,327.869,214.008,328.016,213.84,327.94z"/>
		<path style="fill:#EAEAEA;" d="M209.602,324.793c-0.066-0.17,0.001-0.387,0.115-0.563c-0.704,0.669-1.273,1.443-1.755,2.282
			c0.065,0.062,0.137,0.115,0.202,0.177C208.619,326.038,209.087,325.397,209.602,324.793z"/>
		<path style="fill:#EAEAEA;" d="M211.279,329.152c-1.111-0.73-2.148-1.553-3.115-2.463c-0.002,0.003-0.004,0.005-0.005,0.008
			c-0.04,0.052-0.082,0.102-0.122,0.154c0.144,0.451,0.496,0.765,0.871,1.036c1.044,0.757,2.117,1.473,3.178,2.206l0,0
			C211.996,329.626,211.634,329.385,211.279,329.152z"/>
		<path style="fill:#EAEAEA;" d="M208.159,326.697c0.002-0.003,0.004-0.005,0.005-0.008c-0.065-0.062-0.138-0.115-0.202-0.177
			c0.007,0.125,0.041,0.232,0.075,0.339C208.077,326.799,208.119,326.749,208.159,326.697z"/>
		<path style="fill:#EAEAEA;" d="M209.798,324.557c-0.068,0.076-0.129,0.158-0.195,0.236c0.014,0.036,0.026,0.072,0.053,0.103
			c1.177,1.309,2.576,2.327,4.185,3.044c0.168,0.075,0.361-0.071,0.512-0.191c-1.501-0.169-2.262-1.534-3.482-2.159
			C210.401,325.349,209.963,325.067,209.798,324.557z"/>
		<path style="fill:#EAEAEA;" d="M209.602,324.793c0.066-0.078,0.127-0.16,0.195-0.236c-0.034-0.104-0.073-0.202-0.08-0.327
			C209.603,324.406,209.536,324.623,209.602,324.793z"/>
		<path style="fill:#DEDEDE;" d="M205.993,329.487c-0.643,0.803-1.253,1.631-1.864,2.458c1.129,1.08,2.62,1.738,3.559,3.039l0,0
			c0.783-0.863,1.566-1.726,2.349-2.589C208.503,332.52,206.329,330.89,205.993,329.487z"/>
		<path style="fill:#DEDEDE;" d="M205.993,329.487c-0.029-0.12-0.049-0.239-0.049-0.355c-0.788,0.785-1.445,1.67-2.021,2.618
			c0.066,0.069,0.137,0.13,0.206,0.196C204.74,331.118,205.35,330.29,205.993,329.487z"/>
		<path style="fill:#DEDEDE;" d="M204.129,331.945c-0.003,0.003-0.005,0.007-0.008,0.01c-0.016,0.019-0.03,0.039-0.047,0.058
			c0.818,1.439,2.365,2.03,3.613,2.971C206.749,333.683,205.258,333.025,204.129,331.945z"/>
		<path style="fill:#DEDEDE;" d="M204.121,331.956c0.003-0.003,0.005-0.007,0.008-0.01c-0.068-0.065-0.14-0.127-0.206-0.196
			c0.044,0.095,0.102,0.176,0.152,0.264C204.091,331.995,204.104,331.974,204.121,331.956z"/>
		<path style="fill:#DEDEDE;" d="M206.079,329.377c-0.029,0.036-0.057,0.074-0.086,0.11c0.336,1.403,2.51,3.033,4.043,2.909l0,0
			C208.463,331.708,206.927,330.973,206.079,329.377z"/>
		<path style="fill:#DEDEDE;" d="M206.079,329.377c-0.044-0.083-0.095-0.157-0.135-0.245c0,0.116,0.02,0.235,0.049,0.355
			C206.022,329.45,206.049,329.413,206.079,329.377z"/>
		<path style="fill:#A2A2A2;" d="M314.208,355.286c-0.035-0.046-0.07-0.093-0.106-0.139c-0.878-1.252-1.813-2.46-2.841-3.594
			c-0.453,1.009-1.803,1.219-2.203,2.275l0,0l0,0c0.686,1.503,2.043,2.392,3.185,3.477
			C312.64,356.406,313.885,356.247,314.208,355.286z"/>
		<path style="fill:#A2A2A2;" d="M314.103,355.146c0.035,0.046,0.07,0.093,0.106,0.139c0.035-0.103,0.068-0.207,0.079-0.33
			c-0.882-1.313-1.739-2.645-2.906-3.736c-0.025,0.124-0.073,0.229-0.12,0.333C312.289,352.687,313.224,353.894,314.103,355.146z"/>
		<path style="fill:#9A9A9A;" d="M317.56,359.869c-0.011-0.013-0.022-0.025-0.033-0.038c-0.999-1.532-2.126-2.972-3.23-4.428
			c-0.084,1.156-1.232,1.386-2.053,1.901c1.224,1.38,2.253,2.941,3.766,4.053C316.296,360.629,317.071,360.392,317.56,359.869z"/>
		<path style="fill:#9A9A9A;" d="M317.527,359.831c0.011,0.013,0.022,0.025,0.033,0.038c0.069-0.074,0.133-0.153,0.188-0.241
			c-0.979-1.687-2.194-3.199-3.461-4.673c0.023,0.166,0.02,0.31,0.01,0.448C315.402,356.859,316.528,358.299,317.527,359.831z"/>
		<path style="fill:#9A9A9A;" d="M314.297,355.403c-0.03-0.039-0.059-0.078-0.089-0.117c-0.323,0.961-1.568,1.121-1.964,2.019
			C313.065,356.789,314.213,356.559,314.297,355.403z"/>
		<path style="fill:#9A9A9A;" d="M314.297,355.403c0.01-0.138,0.013-0.281-0.01-0.448c-0.011,0.124-0.045,0.227-0.079,0.33
			C314.238,355.325,314.268,355.364,314.297,355.403z"/>
		<path style="fill:#C6C6C6;" d="M199.075,338.494c-0.709,0.921-1.47,1.802-2.148,2.749c-0.054,0.057-0.102,0.119-0.152,0.18
			c0.149,0.383,0.548,0.553,0.885,0.756c0.776,0.466,1.409,1.073,1.942,1.794l0,0c0.964-1.062,1.929-2.124,2.893-3.186l0,0
			C201.21,341.024,199.407,339.747,199.075,338.494z"/>
		<path style="fill:#C6C6C6;" d="M196.927,341.243c0.678-0.946,1.439-1.827,2.148-2.749c-0.032-0.12-0.068-0.241-0.071-0.36
			c-0.766,0.981-1.532,1.961-2.298,2.942c-0.004,0.137,0.029,0.245,0.068,0.346C196.825,341.362,196.873,341.3,196.927,341.243z"/>
		<path style="fill:#C6C6C6;" d="M199.175,338.368c-0.033,0.043-0.067,0.084-0.1,0.126c0.332,1.253,2.135,2.53,3.42,2.292
			C201.079,340.387,199.978,339.574,199.175,338.368z"/>
		<path style="fill:#C6C6C6;" d="M199.175,338.368c-0.054-0.081-0.12-0.148-0.171-0.233c0.003,0.119,0.039,0.239,0.071,0.36
			C199.108,338.451,199.142,338.41,199.175,338.368z"/>
		<path style="fill:#ACACAC;" d="M307.161,346.035c-0.706,1.194-1.878,1.867-3.019,2.574c0.733,0.903,1.274,1.978,2.318,2.605
			c0.91-0.837,1.82-1.673,2.73-2.51C308.552,347.785,307.89,346.885,307.161,346.035z"/>
		<path style="fill:#ACACAC;" d="M309.19,348.704c0.073-0.067,0.145-0.133,0.218-0.2c-0.608-0.977-1.24-1.936-2.1-2.718
			c-0.044,0.088-0.097,0.167-0.147,0.25C307.89,346.885,308.552,347.785,309.19,348.704z"/>
		<path style="fill:#ACACAC;" d="M307.161,346.035c-0.021-0.025-0.04-0.051-0.061-0.076c-1.001,0.866-2.148,1.569-2.958,2.65
			C305.283,347.902,306.454,347.23,307.161,346.035z"/>
		<path style="fill:#ACACAC;" d="M307.161,346.035c0.049-0.083,0.102-0.161,0.147-0.25c-0.067,0.061-0.14,0.115-0.208,0.174
			C307.121,345.984,307.139,346.011,307.161,346.035z"/>
		<path style="fill:#AEAEAE;" d="M189.806,350.457c0.223,0.895,1.33,1.125,1.69,1.917l0,0l0,0c0.426-0.38,0.887-0.728,1.27-1.147
			c0.61-0.667,1.483-1.304,1.674-2.092c0.289-1.186-1.323-1.081-1.8-1.853c-0.1-0.162-0.207-0.319-0.311-0.478
			c-0.466,1.357-1.522,2.309-2.346,3.421C189.923,350.301,189.865,350.38,189.806,350.457z"/>
		<path style="fill:#AEAEAE;" d="M189.806,350.457c0.06-0.077,0.117-0.156,0.177-0.233c0.824-1.112,1.88-2.063,2.346-3.421
			c-0.855,1.09-1.711,2.18-2.566,3.269C189.759,350.215,189.777,350.34,189.806,350.457z"/>
		<path style="fill:#A7A7A7;" d="M311.165,351.437c-0.001-0.001-0.002-0.003-0.003-0.004c-0.608-0.888-1.201-1.787-1.888-2.619
			c-0.555,1.217-1.698,1.794-2.814,2.4c0.75,0.986,1.622,1.852,2.599,2.613C309.159,352.494,310.385,352.164,311.165,351.437z"/>
		<path style="fill:#A7A7A7;" d="M311.161,351.433c0.001,0.001,0.002,0.003,0.003,0.004c0.075-0.07,0.152-0.139,0.217-0.218
			c-0.507-1.015-1.183-1.907-1.975-2.715c-0.038,0.111-0.088,0.209-0.134,0.311C309.96,349.646,310.553,350.545,311.161,351.433z"/>
		<path style="fill:#A7A7A7;" d="M311.262,351.552c-0.034-0.037-0.063-0.078-0.098-0.115c-0.78,0.727-2.006,1.057-2.106,2.39l0,0
			C309.46,352.771,310.809,352.561,311.262,351.552z"/>
		<path style="fill:#A7A7A7;" d="M311.262,351.552c0.047-0.105,0.094-0.209,0.12-0.333c-0.065,0.079-0.142,0.148-0.217,0.218
			C311.199,351.474,311.228,351.515,311.262,351.552z"/>
		<path style="fill:#A7A7A7;" d="M309.273,348.814c-0.026-0.032-0.048-0.067-0.075-0.099c-0.003-0.004-0.006-0.008-0.008-0.012
			c-0.91,0.837-1.82,1.674-2.73,2.51C307.576,350.608,308.719,350.031,309.273,348.814z"/>
		<path style="fill:#A7A7A7;" d="M309.198,348.715c0.027,0.032,0.049,0.067,0.075,0.099c0.046-0.102,0.096-0.199,0.134-0.311
			c-0.073,0.067-0.145,0.133-0.218,0.2C309.193,348.708,309.196,348.711,309.198,348.715z"/>
		<path style="fill:#929292;" d="M320.939,364.278c-0.95-1.537-2.087-2.932-3.275-4.288c-0.265,0.743-1.019,0.996-1.654,1.368
			c1.382,1.42,2.453,3.13,4.054,4.345C319.845,364.818,320.204,364.397,320.939,364.278z"/>
		<path style="fill:#929292;" d="M320.939,364.278c0.092-0.015,0.188-0.027,0.292-0.033c-0.947-1.701-2.13-3.223-3.483-4.617
			c-0.016,0.133-0.045,0.252-0.084,0.362C318.852,361.346,319.989,362.741,320.939,364.278z"/>
		<path style="fill:#929292;" d="M321.015,364.393c-0.024-0.039-0.051-0.076-0.076-0.116c-0.735,0.12-1.094,0.54-0.874,1.425l0,0
			C320.13,365.065,320.55,364.711,321.015,364.393z"/>
		<path style="fill:#929292;" d="M321.015,364.393c0.072-0.049,0.143-0.1,0.217-0.149c-0.104,0.006-0.2,0.018-0.292,0.033
			C320.963,364.317,320.991,364.354,321.015,364.393z"/>
		<path style="fill:#929292;" d="M317.664,359.989c-0.035-0.04-0.069-0.081-0.104-0.121c-0.49,0.523-1.264,0.76-1.55,1.488
			C316.645,360.985,317.399,360.732,317.664,359.989z"/>
		<path style="fill:#929292;" d="M317.664,359.989c0.039-0.109,0.068-0.229,0.084-0.362c-0.056,0.088-0.119,0.167-0.188,0.241
			C317.595,359.909,317.629,359.949,317.664,359.989z"/>
		<path style="fill:#BFBFBF;" d="M196.601,341.639c-0.561,0.757-0.961,1.663-1.918,2.057c0.469,1.279,1.71,1.804,2.734,2.322
			c0.514,0.26,1.147-0.96,1.753-1.479c0.176-0.151,0.289-0.375,0.431-0.566l0,0c-1.133-0.468-1.925-1.399-2.862-2.132
			C196.673,341.788,196.631,341.717,196.601,341.639z"/>
		<path style="fill:#BFBFBF;" d="M196.601,341.639c-0.065-0.17-0.042-0.38,0.105-0.563c-0.674,0.873-1.349,1.746-2.023,2.62
			C195.641,343.302,196.041,342.397,196.601,341.639z"/>
		<path style="fill:#BFBFBF;" d="M197.66,342.178c-0.338-0.202-0.737-0.373-0.885-0.756c-0.059,0.071-0.118,0.142-0.173,0.217
			c0.03,0.077,0.072,0.149,0.139,0.201c0.937,0.733,1.729,1.664,2.862,2.132C199.069,343.251,198.436,342.644,197.66,342.178z"/>
		<path style="fill:#BFBFBF;" d="M196.601,341.639c0.055-0.075,0.114-0.146,0.173-0.217c-0.039-0.101-0.072-0.209-0.068-0.346
			C196.559,341.259,196.536,341.469,196.601,341.639z"/>
		<path style="fill:#A7A7A7;" d="M189.7,350.595c-0.868,1.134-1.676,2.313-2.611,3.395c-0.035,0.046-0.07,0.092-0.105,0.138
			c0.288,0.731,0.812,1.224,1.62,1.43l0,0c1.241-0.81,1.941-2.111,2.892-3.185C190.672,351.951,189.709,351.632,189.7,350.595z"/>
		<path style="fill:#A7A7A7;" d="M187.089,353.99c0.935-1.082,1.743-2.261,2.611-3.395c-0.001-0.157,0.017-0.329,0.063-0.523
			c-0.965,1.254-1.931,2.508-2.896,3.762c0.03,0.107,0.079,0.195,0.117,0.293C187.019,354.082,187.055,354.036,187.089,353.99z"/>
		<path style="fill:#A7A7A7;" d="M189.806,350.457c-0.035,0.046-0.07,0.092-0.105,0.138c0.009,1.037,0.972,1.355,1.796,1.778l0,0
			C191.136,351.582,190.029,351.352,189.806,350.457z"/>
		<path style="fill:#A7A7A7;" d="M189.806,350.457c-0.029-0.117-0.047-0.242-0.042-0.384c-0.047,0.193-0.064,0.365-0.063,0.523
			C189.736,350.549,189.77,350.503,189.806,350.457z"/>
		<path style="fill:#9C9C9C;" d="M186.89,354.252c-1.004,1.339-2.02,2.669-3.037,3.998c-0.003,0.004-0.007,0.009-0.01,0.013
			c0.43,0.356,0.859,0.712,1.289,1.068l0,0l0,0c1.416-1.02,2.284-2.544,3.472-3.773C187.496,355.59,186.995,355.222,186.89,354.252z
			"/>
		<path style="fill:#9C9C9C;" d="M183.853,358.25c1.017-1.329,2.033-2.659,3.037-3.998c-0.014-0.129-0.022-0.266-0.023-0.417l0,0
			c-1.077,1.419-2.154,2.838-3.232,4.256c0.069,0.057,0.138,0.115,0.208,0.172C183.847,358.259,183.85,358.255,183.853,358.25z"/>
		<path style="fill:#9C9C9C;" d="M186.985,354.128c-0.031,0.042-0.063,0.083-0.095,0.125c0.105,0.97,0.606,1.338,1.714,1.306
			C187.796,355.352,187.272,354.859,186.985,354.128z"/>
		<path style="fill:#9C9C9C;" d="M186.985,354.128c-0.039-0.098-0.088-0.185-0.117-0.293c0,0.151,0.009,0.288,0.023,0.417
			C186.921,354.211,186.953,354.17,186.985,354.128z"/>
		<path style="fill:#929292;" d="M183.699,358.451c-0.927,1.182-1.839,2.375-2.747,3.57c-0.015,0.02-0.03,0.04-0.046,0.06
			c0.252,0.342,0.504,0.684,0.757,1.026l0,0l0,0c1.388-1.045,2.377-2.457,3.468-3.775
			C184.505,359.218,183.894,359.086,183.699,358.451z"/>
		<path style="fill:#929292;" d="M180.907,362.081c0.015-0.02,0.03-0.04,0.046-0.06c0.908-1.196,1.82-2.389,2.747-3.57
			c-0.033-0.106-0.057-0.222-0.064-0.359c-1.056,1.184-2.067,2.403-2.896,3.762l0,0l0,0
			C180.795,361.93,180.851,362.005,180.907,362.081z"/>
		<path style="fill:#929292;" d="M183.843,358.264c-0.049,0.062-0.095,0.125-0.144,0.187c0.195,0.635,0.805,0.768,1.432,0.881l0,0
			C184.702,358.976,184.273,358.62,183.843,358.264z"/>
		<path style="fill:#929292;" d="M183.843,358.264c-0.069-0.057-0.138-0.115-0.208-0.172c0.007,0.137,0.031,0.253,0.064,0.359
			C183.748,358.389,183.795,358.325,183.843,358.264z"/>
		<path style="fill:#F5F5F5;" d="M375.434,225.497c-2.141,1.174-4.451,1.93-6.749,2.717c-0.844,0.289-1.696,0.558-2.531,0.875
			c0.015,0.023,0.033,0.036,0.046,0.064c0.195,0.433-0.117,0.709-0.379,0.988c2.623-0.832,5.012-2.2,7.501-3.333
			c0.788-0.359,1.832-0.367,2.319-1.296l-0.139,0.002L375.434,225.497z"/>
		<path style="fill:#F5F5F5;" d="M368.685,228.214c2.298-0.788,4.608-1.543,6.749-2.717l-0.068-0.017
			c-3.209,1.141-6.418,2.282-9.627,3.423c0.166-0.031,0.311,0.02,0.415,0.187C366.989,228.772,367.84,228.503,368.685,228.214z"/>
		<path style="fill:#F5F5F5;" d="M366.2,229.153c-0.013-0.028-0.031-0.04-0.046-0.064c-0.07,0.026-0.14,0.05-0.209,0.078
			c0.223,0.248-0.174,0.675-0.124,0.973C366.082,229.862,366.394,229.586,366.2,229.153z"/>
		<path style="fill:#F5F5F5;" d="M366.154,229.089c-0.104-0.167-0.25-0.218-0.415-0.187c-0.081,0.015-0.165,0.043-0.25,0.089
			c0.244,0.032,0.383,0.094,0.456,0.176C366.014,229.139,366.084,229.115,366.154,229.089z"/>
		<path style="fill:#7E7E7E;" d="M171.207,374.371c2.712-2.329,4.939-5.11,7.274-7.79c-0.156-0.227-0.417-0.385-0.551-0.627
			C175.677,368.75,173.627,371.708,171.207,374.371z"/>
		<path style="fill:#7E7E7E;" d="M177.843,365.611L177.843,365.611c-2.321,2.837-4.625,5.688-6.637,8.76
			c2.42-2.663,4.47-5.621,6.723-8.417C177.876,365.856,177.838,365.748,177.843,365.611z"/>
		<path style="fill:#888888;" d="M180.743,362.293c-0.894,1.146-1.782,2.297-2.656,3.459c0.279,0.179,0.48,0.409,0.394,0.828
			c1.289-0.949,2.157-2.284,3.183-3.474C181.201,362.95,180.831,362.726,180.743,362.293z"/>
		<path style="fill:#888888;" d="M180.743,362.293c-0.026-0.128-0.034-0.27-0.004-0.44c-1.09,1.157-2.028,2.43-2.896,3.757
			c0.085,0.044,0.167,0.091,0.244,0.141C178.961,364.59,179.849,363.44,180.743,362.293z"/>
		<path style="fill:#888888;" d="M180.907,362.081c-0.055,0.07-0.108,0.142-0.163,0.213c0.088,0.433,0.458,0.657,0.92,0.813l0,0
			C181.411,362.765,181.159,362.423,180.907,362.081z"/>
		<path style="fill:#888888;" d="M180.743,362.293c0.055-0.07,0.108-0.142,0.163-0.213c-0.056-0.076-0.112-0.151-0.167-0.227l0,0
			C180.709,362.024,180.717,362.165,180.743,362.293z"/>
		<path style="fill:#888888;" d="M178.087,365.752c-0.015,0.02-0.031,0.04-0.046,0.06c-0.038,0.047-0.074,0.095-0.112,0.142
			c0.134,0.242,0.395,0.4,0.551,0.627C178.568,366.161,178.366,365.931,178.087,365.752z"/>
		<path style="fill:#888888;" d="M178.041,365.812c0.015-0.02,0.031-0.04,0.046-0.06c-0.077-0.05-0.159-0.097-0.244-0.141
			c-0.005,0.137,0.033,0.245,0.087,0.343C177.968,365.907,178.004,365.859,178.041,365.812z"/>
		<path style="fill:#212121;" d="M375.437,225.453c0.073-0.027,0.142-0.018,0.203,0.058c0.197-0.103,0.393-0.206,0.59-0.308
			c0.006-0.096,0.012-0.192,0.018-0.289c-0.513,0.035-1.045-0.031-1.5,0.297C375.064,225.073,375.33,225.061,375.437,225.453z"/>
		<path style="fill:#212121;" d="M375.437,225.453c-0.107-0.392-0.373-0.38-0.689-0.241c0.206,0.089,0.412,0.178,0.618,0.268
			C375.391,225.459,375.413,225.462,375.437,225.453z"/>
		<path style="fill:#212121;" d="M375.437,225.453c0.004,0.014,0.011,0.019,0.015,0.035c-0.006,0.003-0.012,0.006-0.018,0.009
			l0.067,0.017l0.139-0.002C375.579,225.435,375.51,225.426,375.437,225.453z"/>
		<path style="fill:#212121;" d="M375.452,225.488c-0.003-0.015-0.011-0.02-0.015-0.035c-0.024,0.009-0.046,0.006-0.071,0.026
			l0.068,0.017C375.44,225.494,375.446,225.491,375.452,225.488z"/>
		<path style="fill:#282828;" d="M170.049,374.936c-0.245,0.395-0.489,0.79-0.734,1.185c0.153-0.002,0.306-0.003,0.458-0.005
			c0.197-0.287,0.394-0.574,0.591-0.861C170.084,375.321,169.944,375.25,170.049,374.936z"/>
		<path style="fill:#282828;" d="M170.364,375.255c-0.105-0.106-0.21-0.213-0.315-0.319
			C169.944,375.25,170.084,375.321,170.364,375.255z"/>
		<path style="fill:#585859;" d="M169.315,376.121c-0.154,0.221-0.486,0.402-0.124,0.777c0.2-0.269,0.391-0.525,0.582-0.782
			C169.622,376.231,169.469,376.233,169.315,376.121z"/>
		<path style="fill:#585859;" d="M169.773,376.116c-0.153,0.002-0.306,0.003-0.458,0.005
			C169.469,376.233,169.622,376.231,169.773,376.116z"/>
		<path style="fill:#525354;" d="M376.324,225.112c-0.032,0.06-0.063,0.091-0.093,0.091c0.343-0.123,0.686-0.245,1.074-0.384
			c-0.424-0.254-0.751-0.175-1.056,0.096C376.331,224.984,376.357,225.05,376.324,225.112z"/>
		<path style="fill:#525354;" d="M376.324,225.112c0.033-0.062,0.008-0.128-0.076-0.198c-0.006,0.096-0.012,0.192-0.018,0.289
			C376.261,225.203,376.292,225.173,376.324,225.112z"/>
		<path style="fill:#0F0F0F;" d="M250.508,215.645c-0.069,0.281-0.147,0.563-0.252,0.843c0.045,0.055,0.091,0.109,0.115,0.166
			c0.057-0.079,0.126-0.151,0.204-0.219c0.001-0.289,0.005-0.578,0.009-0.867L250.508,215.645z"/>
		<path style="fill:#0F0F0F;" d="M250.372,216.655c0.101,0.241,0.036,0.503-0.041,0.767c0.296-0.226,0.232-0.554,0.244-0.861
			c0-0.042,0.001-0.084,0.001-0.125C250.498,216.503,250.429,216.576,250.372,216.655z"/>
		<path style="fill:#0F0F0F;" d="M250.233,216.558c0.01,0.092,0.021,0.183,0.031,0.275c0.033-0.061,0.066-0.122,0.107-0.178
			c-0.024-0.057-0.071-0.112-0.115-0.166C250.248,216.512,250.242,216.535,250.233,216.558z"/>
		<path style="fill:#0F0F0F;" d="M250.372,216.655c-0.041,0.057-0.074,0.117-0.107,0.178c0.022,0.196,0.044,0.393,0.066,0.589
			C250.408,217.158,250.472,216.896,250.372,216.655z"/>
		<path style="fill:#0F0F0F;" d="M250.234,216.458c0.009,0.01,0.014,0.021,0.022,0.031c0.104-0.281,0.183-0.562,0.252-0.843
			l-0.27,0.27C250.237,216.096,250.236,216.277,250.234,216.458z"/>
		<path style="fill:#0F0F0F;" d="M250.234,216.458c0,0.033,0,0.067-0.001,0.1c0.009-0.023,0.014-0.046,0.023-0.07
			C250.248,216.479,250.243,216.468,250.234,216.458z"/>
		<path style="fill:#080808;" d="M250.657,216.383c1.015-0.314,1.259-1.058,1.231-2.06c-0.001-0.019,0-0.037-0.001-0.056
			l-0.872,0.872C250.962,215.559,250.86,215.976,250.657,216.383z"/>
		<path style="fill:#080808;" d="M251.888,214.322c0.028,1.002-0.216,1.747-1.231,2.06c-0.03,0.059-0.049,0.12-0.083,0.178
			c1.336,0.217,1.844-0.272,1.764-1.689c-0.019-0.34-0.026-0.681-0.036-1.022l-0.416,0.416
			C251.887,214.285,251.887,214.304,251.888,214.322z"/>
		<path style="fill:#080808;" d="M250.584,215.569c-0.004,0.289-0.008,0.578-0.009,0.867c0.013-0.011,0.02-0.024,0.034-0.035
			c0.018-0.005,0.031-0.013,0.048-0.018c0.203-0.406,0.305-0.823,0.358-1.245L250.584,215.569z"/>
		<path style="fill:#080808;" d="M250.609,216.401c-0.013,0.011-0.021,0.024-0.034,0.035c0,0.042-0.001,0.084-0.001,0.125
			c0.034-0.059,0.053-0.119,0.083-0.178C250.64,216.388,250.627,216.396,250.609,216.401z"/>
		<path style="fill:#979797;" d="M248.235,269.227c0.414,0.052,0.915,0.153,1.092-0.309c0.12-0.313-0.287-0.208-0.484-0.236
			C248.776,269.015,248.469,269.08,248.235,269.227z"/>
		<path style="fill:#979797;" d="M248.842,268.681c-0.203,0.182-0.405,0.364-0.608,0.545
			C248.469,269.08,248.776,269.015,248.842,268.681z"/>
		<path style="fill:#FFFFFF;" d="M64.766,373.021l0.746,0.746c-0.125-0.125-0.244-0.253-0.368-0.378
			C65.018,373.265,64.89,373.146,64.766,373.021z"/>
		<path style="fill:#FFFFFF;" d="M65.512,373.767l4.476,4.476c3.104,2.877,6.286,5.672,9.555,8.368l0.067-0.067
			c-4.835-4.023-9.538-8.281-14.088-12.787L65.512,373.767z"/>
		<path style="fill:#FFFFFF;" d="M373.023,64.764c0.108,0.108,0.211,0.219,0.319,0.327c0.142,0.141,0.286,0.277,0.427,0.419
			l-0.009,0.009c4.506,4.549,8.766,9.252,12.788,14.086l0.248-0.248c-8.418-9.926-17.705-19.101-27.755-27.398l-0.059,0.059
			c4.817,4.011,9.501,8.261,14.035,12.752L373.023,64.764z"/>
		<path style="fill:#FFFFFF;" d="M52.028,358.972l-0.248,0.248c2.054,2.421,4.158,4.8,6.315,7.129l6.671,6.671l0.01-0.01
			C60.284,368.477,56.039,363.79,52.028,358.972z"/>
		<path style="fill:#FFFFFF;" d="M64.891,372.896c-4.395-4.533-8.602-9.255-12.606-14.18l-0.256,0.256
			c4.011,4.818,8.256,9.505,12.747,14.039L64.891,372.896z"/>
		<path style="fill:#FFFFFF;" d="M65.143,373.389c0.124,0.125,0.243,0.253,0.368,0.378l0.01-0.01
			C65.396,373.634,65.268,373.514,65.143,373.389z"/>
		<path style="fill:#FFFFFF;" d="M373.769,65.509c-0.141-0.141-0.285-0.278-0.427-0.419c0.141,0.142,0.277,0.286,0.417,0.428
			L373.769,65.509z"/>
		<path style="fill:#FFFFFF;" d="M284.739,127.404c-0.02,2.682,0.096,5.362,0.064,8.043c-0.009,0.727-0.062,0.805-0.797,0.81
			c-3.09,0.018-6.18,0.007-9.27,0.008L266.4,144.6c-0.063,1.685-0.13,3.37-0.196,5.055c-0.084,2.153-0.155,4.305-0.24,6.458
			c-0.078,1.958-0.147,3.917-0.228,5.875c-0.087,2.094-0.158,4.189-0.24,6.283c-0.055,1.394-0.107,2.787-0.161,4.181l98.373-98.373
			l9.307-9.307c-4.534-4.491-9.217-8.741-14.035-12.752l-74.242,74.242C284.738,126.642,284.742,127.023,284.739,127.404z"/>
		<path style="fill:#FFFFFF;" d="M74.093,363.694l62.111-62.111l0.574-0.574l47.299-47.299l1.856-1.856l0.796-0.796l2.454-2.454
			l0.345-0.346l9.979-9.979l3.283-3.283c-0.211-7.973-0.515-15.943-1.13-23.899c-0.042-0.541-0.088-1.082-0.135-1.623l-26.95,26.95
			c-0.031,8.32-0.062,16.641-0.092,24.961c0.006,0.049,0.012,0.097,0.018,0.146c-7.194,0-14.388,0-21.582,0
			c0-0.03,0.001-0.059,0.001-0.089c-0.003-0.001-0.006,0-0.009-0.001c-0.163-0.105-0.229-0.266-0.227-0.448
			c0.009-0.643-0.142-1.276-0.132-1.916c0.003-0.211,0-0.421,0.002-0.632L52.284,358.716c4.004,4.925,8.211,9.647,12.606,14.18
			L74.093,363.694L74.093,363.694z"/>
		<path style="fill:#FFFFFF;" d="M223.885,202.784c0.125,2.343,0.255,4.685,0.352,7.03c0.05,1.2,0.091,2.4,0.135,3.6l14.693-14.693
			c-0.011-4.473-0.022-8.945,0.059-13.416c0.081-4.497,0.074-8.995,0.063-13.492l-16.395,16.395
			c0.227,2.478,0.454,4.955,0.627,7.438C223.585,198.025,223.758,200.402,223.885,202.784z"/>
		<path style="fill:#FFFFFF;" d="M284.006,136.257c0.735-0.004,0.788-0.083,0.797-0.81c0.032-2.681-0.084-5.361-0.064-8.043
			c0.003-0.381-0.001-0.762,0-1.143l-10.003,10.003C277.826,136.263,280.916,136.275,284.006,136.257z"/>
		<path style="fill:#FFFFFF;" d="M239.125,185.305c-0.081,4.471-0.07,8.944-0.059,13.416l5.007-5.007l4.668-4.668l0.409-0.409
			l1.42-1.42l0.449-0.449l0.539-0.539l0.45-0.45l6.234-6.234l7.092-7.092c0.054-1.393,0.106-2.787,0.161-4.181
			c0.082-2.094,0.153-4.189,0.24-6.283c0.081-1.958,0.15-3.917,0.228-5.875c0.085-2.152,0.156-4.305,0.24-6.458
			c0.066-1.685,0.134-3.37,0.196-5.055l-27.213,27.213C239.198,176.31,239.206,180.807,239.125,185.305z"/>
		<path style="fill:#FFFFFF;" d="M174.061,261.472c-6.895,0.001-13.791,0.001-20.686,0c-0.151,0-0.305,0.017-0.453-0.029
			c0,0.03-0.001,0.059-0.001,0.089c7.194,0,14.388,0,21.582,0c-0.006-0.049-0.012-0.097-0.018-0.146
			c-0.03,0.026-0.044,0.051-0.044,0.073C174.315,261.487,174.187,261.472,174.061,261.472z"/>
		<path style="fill:#FFFFFF;" d="M201.66,211.098c0.614,7.956,0.918,15.925,1.13,23.899l21.583-21.583
			c-0.044-1.2-0.085-2.4-0.135-3.6c-0.098-2.345-0.227-4.687-0.352-7.03c-0.127-2.382-0.301-4.759-0.466-7.138
			c-0.173-2.483-0.399-4.96-0.627-7.438l-21.267,21.267C201.572,210.015,201.619,210.556,201.66,211.098z"/>
		<path style="fill:#FFFFFF;" d="M152.685,260.993c-0.003,0.182,0.064,0.343,0.227,0.448c0.003,0.001,0.006,0,0.009,0.001
			c0-0.01,0-0.02,0-0.03c7.013,0.001,14.027,0.001,21.04,0.001c0.174,0,0.348-0.018,0.523-0.028
			c0.031-8.32,0.062-16.641,0.092-24.961l-22.021,22.021c-0.002,0.211,0.001,0.421-0.002,0.632
			C152.543,259.717,152.694,260.35,152.685,260.993z"/>
		<path style="fill:#FFFFFF;" d="M152.922,261.413c0,0.01,0,0.02,0,0.03c0.149,0.046,0.302,0.029,0.453,0.029
			c6.895,0.001,13.791,0.001,20.686,0c0.126,0,0.255,0.015,0.379-0.013c0-0.023,0.014-0.047,0.044-0.073
			c-0.174,0.01-0.348,0.028-0.523,0.028C166.948,261.414,159.935,261.413,152.922,261.413z"/>
		<path style="fill:#FFFFFF;" d="M241.333,217.994L241.333,217.994L241.333,217.994c0-0.001,0-0.003,0-0.004
			c0.002-0.196,0.026-0.364,0.06-0.52c0.271-2.331,0.542-4.661,0.813-6.991l0,0c0.19-1.645,0.379-3.289,0.569-4.934l0,0l0,0
			c0.016-0.499-0.164-1.032,0.255-1.46c-0.011-0.09-0.009-0.18,0.008-0.269c0.086-2.533,0.429-5.037,0.869-7.529
			c-0.011-0.314,0.007-0.625,0.022-0.937l-4.862,4.862l-14.641,14.641l-21.595,21.595l-2.049,2.049
			c7.66,1.297,15.321,2.594,22.981,3.894l16.677-16.677C240.738,223.139,241.034,220.566,241.333,217.994z"/>
		<path style="fill:#FFFFFF;" d="M202.832,236.447c-0.012-0.484-0.029-0.967-0.041-1.451l-3.283,3.283
			c0.425,0.072,0.851,0.144,1.276,0.216L202.832,236.447z"/>
		<path style="fill:#FFFFFF;" d="M239.068,200.211c-0.001-0.497-0.001-0.993-0.002-1.49l-14.693,14.693
			c0.017,0.479,0.035,0.959,0.054,1.438L239.068,200.211z"/>
		<path style="fill:#FFFFFF;" d="M243.93,195.349c0.026-0.547,0.073-1.093,0.143-1.635l-5.007,5.007
			c0.001,0.497,0.001,0.993,0.002,1.49L243.93,195.349z"/>
		<path style="fill:#FFFFFF;" d="M224.427,214.852c-0.019-0.479-0.037-0.959-0.054-1.438l-21.583,21.583
			c0.013,0.484,0.029,0.967,0.041,1.451L224.427,214.852z"/>
		<path style="fill:#FFFFFF;" d="M195.759,259.092c-0.173-0.079-0.328-0.198-0.492-0.298l0,0c-1.357-0.656-2.828-1.072-4.085-1.94
			l0,0c-1.273-0.22-2.312-0.977-3.45-1.506l0,0c-0.958-0.186-1.744-0.758-2.606-1.162c-0.008-0.003-0.015-0.007-0.023-0.01
			l-47.979,47.979c0.228,0.734,0.462,1.466,0.67,2.207c0.636,2.267,1.48,4.525,2.252,6.779c0.146,0.426,0.189,0.838,0.191,1.27
			c-0.46-0.38-0.316-1.123-0.869-1.448c-0.096-0.289-0.193-0.579-0.29-0.868c-0.562-1.201-1.065-2.42-1.159-3.765
			c-0.601-1.148-0.999-2.369-1.372-3.599l-61.71,61.71l0,0l-9.222,9.222l-0.096,0.096c4.55,4.506,9.253,8.765,14.088,12.787
			L203.53,262.623C200.941,261.445,198.35,260.267,195.759,259.092z"/>
		<path style="fill:#FFFFFF;" d="M364.455,74.824l-99.179,99.179l-6.843,6.843c0.446,3.056,0.893,6.112,1.337,9.169
			c0.693,4.765,1.38,9.531,2.072,14.297L386.548,79.605c-4.023-4.835-8.282-9.537-12.788-14.086L364.455,74.824z"/>
		<path style="fill:#FFFFFF;" d="M373.023,64.764l-0.007,0.007c0.108,0.107,0.218,0.212,0.326,0.32
			C373.234,64.983,373.131,64.872,373.023,64.764z"/>
		<path style="fill:#FFFFFF;" d="M64.775,373.012l-0.01,0.01c0.125,0.125,0.253,0.244,0.378,0.368
			C65.019,373.264,64.899,373.137,64.775,373.012z"/>
		<path style="fill:#FFFFFF;" d="M64.775,373.012c0.124,0.125,0.244,0.253,0.368,0.378c0.125,0.124,0.253,0.244,0.378,0.368
			l0.096-0.096c-0.246-0.251-0.482-0.513-0.726-0.765L64.775,373.012z"/>
		<path style="fill:#FFFFFF;" d="M364.455,74.824l9.305-9.305c-0.141-0.142-0.276-0.287-0.417-0.428
			c-0.108-0.108-0.218-0.213-0.326-0.32l-9.307,9.307l-98.373,98.373c-0.02,0.517-0.039,1.034-0.06,1.552L364.455,74.824z"/>
		<path style="fill:#FFFFFF;" d="M74.093,363.694L74.093,363.694l-9.202,9.202c0.245,0.253,0.48,0.514,0.726,0.765l9.222-9.222l0,0
			l61.71-61.71c-0.116-0.382-0.229-0.765-0.345-1.147L74.093,363.694z"/>
		<path style="fill:#FFFFFF;" d="M136.777,301.009c0.122,0.38,0.229,0.764,0.347,1.145l47.979-47.979
			c-0.342-0.155-0.685-0.31-1.027-0.465L136.777,301.009z"/>
		<path style="fill:#FFFFFF;" d="M258.433,180.846l6.843-6.843c0.021-0.517,0.04-1.034,0.06-1.552l-7.092,7.092
			C258.306,179.977,258.37,180.412,258.433,180.846z"/>
		<path style="fill:#FFFFFF;" d="M137.921,306.328c0.654,1.173,1.248,2.364,1.159,3.765c0.096,0.289,0.193,0.579,0.29,0.868
			c0.552,0.325,0.409,1.068,0.869,1.448c-0.003-0.432-0.045-0.844-0.191-1.27c-0.772-2.254-1.616-4.512-2.252-6.779
			c-0.208-0.741-0.442-1.473-0.67-2.207l-0.576,0.576C136.922,303.959,137.32,305.18,137.921,306.328z"/>
		<path style="fill:#FFFFFF;" d="M136.204,301.583c0.116,0.382,0.23,0.765,0.345,1.147l0.576-0.576
			c-0.118-0.381-0.226-0.765-0.347-1.145L136.204,301.583z"/>
		<path style="fill:#FFFFFF;" d="M139.08,310.094c-0.236-1.301-0.749-2.517-1.159-3.765
			C138.014,307.674,138.518,308.893,139.08,310.094z"/>
		<path style="fill:#FFFFFF;" d="M137.921,306.328c0.41,1.248,0.923,2.464,1.159,3.765
			C139.169,308.692,138.574,307.501,137.921,306.328z"/>
		<path style="fill:#FFFFFF;" d="M258.433,180.846l-6.423,6.423c0.001,1.847,0.004,3.694,0.005,5.541l0,0l0,0
			c0.004,0.19,0.007,0.381,0.011,0.571c0.452,0.435,0.27,0.996,0.271,1.504c0.014,4.521,0.008,9.042,0.008,13.563
			c0,1.801-0.055,3.605-0.003,5.403l9.54-9.54c-0.692-4.765-1.379-9.531-2.072-14.297
			C259.326,186.958,258.879,183.902,258.433,180.846z"/>
		<path style="fill:#FFFFFF;" d="M190.564,248.715c1.425,0.349,2.815,0.801,4.148,1.422c1.397,0.324,2.752,0.771,4.061,1.352
			c0.079,0.024,0.163,0.059,0.252,0.108c3.886,1.292,7.773,2.579,11.658,3.873l13.08-13.08c-7.66-1.299-15.321-2.596-22.981-3.894
			L190.564,248.715z"/>
		<path style="fill:#FFFFFF;" d="M190.564,248.715l10.219-10.219c-0.425-0.072-0.851-0.144-1.276-0.216l-9.979,9.979
			c0.294,0.074,0.575,0.183,0.82,0.401C190.421,248.676,190.492,248.697,190.564,248.715z"/>
		<path style="fill:#FFFFFF;" d="M252.009,185.778c0,0.497,0.001,0.994,0.001,1.491l6.423-6.423
			c-0.063-0.434-0.127-0.868-0.19-1.302L252.009,185.778z"/>
		<path style="fill:#FFFFFF;" d="M199.011,251.897c-0.173-0.074-0.35-0.137-0.525-0.206c-0.143,0.066-0.266,0.183-0.36,0.411
			c-0.923,2.243-1.901,4.464-2.859,6.692c0.164,0.1,0.318,0.22,0.492,0.298c2.591,1.175,5.182,2.352,7.773,3.53l6.837-6.837
			C206.571,254.525,202.775,253.258,199.011,251.897z"/>
		<path style="fill:#FFFFFF;" d="M198.486,251.692c0.175,0.068,0.352,0.131,0.525,0.206c3.764,1.361,7.56,2.627,11.358,3.887
			l0.315-0.315c-3.885-1.294-7.772-2.581-11.658-3.873C198.825,251.607,198.643,251.619,198.486,251.692z"/>
		<path style="fill:#FFFFFF;" d="M242.495,216.813c-0.961,0.014-0.771,0.803-1.161,1.181l0,0c-0.3,2.572-0.595,5.145-0.892,7.718
			l9.161-9.161C247.227,216.494,244.864,216.778,242.495,216.813z"/>
		<path style="fill:#FFFFFF;" d="M250.212,203.541C250.213,203.542,250.213,203.542,250.212,203.541
			C250.213,203.542,250.213,203.541,250.212,203.541c0.022-2.158,0.021-4.317,0.076-6.475c0.021-0.816-0.299-1.039-1.09-1.094
			c-1.784-0.122-3.52,0.35-5.291,0.313c-0.441,2.492-0.783,4.996-0.869,7.529C245.433,203.8,247.832,203.917,250.212,203.541z"/>
		<path style="fill:#FFFFFF;" d="M243.028,216.387c1.828-0.063,3.645-0.375,5.484-0.271c0.461,0.026,0.93,0.005,1.368,0.157
			l0.357-0.357c0.013-1.813,0.026-3.626,0.039-5.439c-2.69,0.001-5.38,0.002-8.07,0.003c-0.271,2.33-0.542,4.661-0.813,6.991
			C241.559,216.733,242.092,216.42,243.028,216.387z"/>
		<polygon style="fill:#FFFFFF;" points="241.333,217.994 241.333,217.994 241.334,217.99 		"/>
		<path style="fill:#FFFFFF;" d="M248.513,216.116c-1.839-0.103-3.656,0.208-5.484,0.271c-0.937,0.033-1.469,0.346-1.634,1.083
			c-0.035,0.156-0.059,0.324-0.06,0.52c0,0.001,0,0.002,0,0.004c0.391-0.378,0.2-1.167,1.161-1.181
			c2.369-0.035,4.733-0.319,7.108-0.262l0.279-0.279C249.443,216.12,248.974,216.142,248.513,216.116z"/>
		<path style="fill:#FFFFFF;" d="M249.405,210.066c0.318,0.014,0.617,0.113,0.88,0.302c0.11-1.284,0.174-2.569,0.041-3.857
			c-0.037-0.971-0.074-1.942-0.112-2.913c-2.356,0.977-4.752,0.961-7.177,0.217c-0.016,0.089-0.019,0.179-0.008,0.269
			c-0.047,0.493,0.192,1.036-0.254,1.46l0,0c-0.19,1.645-0.379,3.29-0.569,4.934l0,0c0.283-0.294,0.65-0.41,1.037-0.422
			C245.298,209.989,247.352,209.972,249.405,210.066z"/>
		<path style="fill:#FFFFFF;" d="M250.215,203.598c-0.001-0.019-0.001-0.038-0.002-0.056c0,0,0,0,0-0.001
			c-2.38,0.376-4.78,0.259-7.174,0.274C245.463,204.559,247.859,204.576,250.215,203.598z"/>
		<path style="fill:#FFFFFF;" d="M250.285,210.368c-0.263-0.19-0.562-0.288-0.88-0.302c-2.053-0.094-4.107-0.077-6.16-0.01
			c-0.387,0.013-0.754,0.129-1.037,0.422c2.69-0.001,5.38-0.002,8.07-0.003C250.28,210.44,250.282,210.404,250.285,210.368z"/>
		<path style="fill:#FFFFFF;" d="M250.543,202.838c-0.04,0.23-0.083,0.459-0.14,0.689c-0.052,0.023-0.104,0.038-0.156,0.06
			c0.095,0.105,0.173,0.213,0.233,0.324C250.501,203.553,250.522,203.195,250.543,202.838z"/>
		<path style="fill:#FFFFFF;" d="M249.697,195.665c0.527,0.054,0.898,0.43,0.909,0.958c0.006-0.982,0.012-1.965,0.018-2.947
			c-0.025-1.543-0.049-3.086-0.074-4.629c-0.106,0-0.212,0-0.318,0l-6.302,6.302c-0.015,0.312-0.032,0.623-0.022,0.937
			C245.759,195.353,247.727,195.464,249.697,195.665z"/>
		<path style="fill:#FFFFFF;" d="M250.232,189.047c-0.497-0.001-0.993-0.001-1.49-0.002l-4.668,4.668
			c-0.071,0.543-0.117,1.088-0.143,1.635L250.232,189.047z"/>
		<path style="fill:#FFFFFF;" d="M250.289,197.067c-0.056,2.157-0.055,4.316-0.076,6.475c0,0,0,0,0,0.001
			c0.014,0.014,0.021,0.03,0.034,0.044c0.052-0.022,0.104-0.037,0.156-0.06c0.058-0.229,0.1-0.459,0.14-0.689
			c0.009-0.157,0.018-0.313,0.028-0.47c0.012-1.915,0.023-3.83,0.035-5.745c-0.012-0.527-0.382-0.904-0.909-0.958
			c-1.969-0.201-3.938-0.313-5.789,0.621c1.77,0.037,3.506-0.435,5.291-0.313C249.99,196.027,250.31,196.251,250.289,197.067z"/>
		<path style="fill:#FFFFFF;" d="M250.247,203.586c-0.01,0.004-0.021,0.008-0.032,0.012c0.038,0.971,0.075,1.942,0.112,2.913
			c0.051-0.867,0.102-1.734,0.153-2.602C250.42,203.799,250.342,203.691,250.247,203.586z"/>
		<path style="fill:#FFFFFF;" d="M250.213,203.542c0.001,0.019,0.001,0.038,0.002,0.056c0.01-0.004,0.021-0.008,0.032-0.012
			C250.233,203.572,250.227,203.556,250.213,203.542z"/>
		<path style="fill:#FFFFFF;" d="M250.554,188.725l-0.174,0.174c0.057,0.015,0.114,0.021,0.171,0.037
			C250.552,188.865,250.553,188.795,250.554,188.725z"/>
		<path style="fill:#FFFFFF;" d="M250.554,188.725c0.006-0.503,0.011-1.006,0.017-1.509l-1.42,1.42
			c0.409,0.063,0.819,0.158,1.229,0.263L250.554,188.725z"/>
		<path style="fill:#FFFFFF;" d="M250.551,188.935c-0.057-0.015-0.114-0.022-0.171-0.037l-0.148,0.148c0.106,0,0.212,0,0.318,0
			C250.551,189.01,250.551,188.973,250.551,188.935z"/>
		<path style="fill:#FFFFFF;" d="M250.38,188.899c-0.41-0.105-0.82-0.2-1.229-0.263l-0.409,0.409
			c0.497,0.001,0.993,0.001,1.49,0.002L250.38,188.899z"/>
		<path style="fill:#FFFFFF;" d="M195.22,257.851c0.783-1.902,1.637-3.772,2.48-5.647c0.123-0.274,0.269-0.506,0.462-0.638
			c-1.15-0.428-2.332-0.764-3.495-1.156c-0.171-0.064-0.346-0.117-0.518-0.178c-0.244,0.109-0.431,0.309-0.547,0.62
			c-0.753,2.022-1.851,3.906-2.42,6.003l0,0l0,0c1.256,0.868,2.728,1.284,4.085,1.94l0,0l0,0
			C195.006,258.492,195.091,258.165,195.22,257.851z"/>
		<path style="fill:#FFFFFF;" d="M198.773,251.489c-1.309-0.581-2.664-1.028-4.061-1.352c-0.22-0.018-0.401,0.022-0.562,0.094
			c0.172,0.061,0.346,0.115,0.518,0.178c1.163,0.392,2.345,0.728,3.495,1.156C198.326,251.453,198.523,251.412,198.773,251.489z"/>
		<path style="fill:#FFFFFF;" d="M198.486,251.692c-0.108-0.042-0.215-0.086-0.323-0.127c-0.193,0.132-0.339,0.365-0.462,0.638
			c-0.843,1.875-1.697,3.746-2.48,5.647c-0.13,0.315-0.214,0.641,0.047,0.943l0,0c0.958-2.228,1.935-4.449,2.859-6.692
			C198.22,251.875,198.343,251.758,198.486,251.692z"/>
		<path style="fill:#FFFFFF;" d="M198.773,251.489c-0.25-0.077-0.447-0.036-0.611,0.076c0.109,0.04,0.216,0.085,0.323,0.127
			c0.158-0.073,0.339-0.085,0.54-0.095C198.936,251.548,198.852,251.513,198.773,251.489z"/>
		<path style="fill:#FFFFFF;" d="M191.27,255.364c0.608-1.443,1.217-2.886,1.849-4.319c0.17-0.386,0.364-0.762,0.676-0.937
			c-1.149-0.398-2.308-0.767-3.463-1.146c-0.004-0.002-0.007-0.003-0.011-0.004l-0.091,0.091c-0.642,2.173-1.859,4.122-2.497,6.297
			c1.138,0.53,2.177,1.286,3.45,1.506C190.839,256.336,191.07,255.836,191.27,255.364z"/>
		<path style="fill:#FFFFFF;" d="M190.229,249.05l0.091-0.091c-0.018-0.007-0.037-0.012-0.055-0.02
			C190.254,248.976,190.24,249.012,190.229,249.05z"/>
		<path style="fill:#FFFFFF;" d="M194.712,250.137c-1.333-0.621-2.723-1.073-4.148-1.422l-0.244,0.244
			c0.004,0.001,0.008,0.002,0.011,0.004c1.155,0.379,2.314,0.747,3.463,1.146C194.023,249.98,194.313,249.958,194.712,250.137z"/>
		<path style="fill:#FFFFFF;" d="M190.348,248.659c-0.024,0.095-0.057,0.186-0.083,0.28c0.018,0.008,0.037,0.013,0.055,0.02
			l0.244-0.244C190.492,248.697,190.421,248.676,190.348,248.659z"/>
		<path style="fill:#FFFFFF;" d="M193.603,250.851c0.116-0.312,0.303-0.511,0.547-0.62c-0.118-0.042-0.237-0.081-0.355-0.122
			c-0.311,0.175-0.505,0.551-0.676,0.937c-0.632,1.432-1.241,2.876-1.849,4.319c-0.199,0.472-0.431,0.972-0.087,1.49l0,0
			C191.752,254.757,192.85,252.873,193.603,250.851z"/>
		<path style="fill:#FFFFFF;" d="M193.794,250.108c0.118,0.041,0.237,0.08,0.355,0.122c0.161-0.072,0.343-0.112,0.562-0.094
			C194.313,249.958,194.023,249.98,193.794,250.108z"/>
		<path style="fill:#FFFFFF;" d="M185.104,254.175c0.008,0.003,0.015,0.007,0.023,0.01c0.005-0.016,0.011-0.032,0.015-0.048
			L185.104,254.175z"/>
		<path style="fill:#FFFFFF;" d="M185.933,251.854l-1.856,1.856c0.342,0.155,0.685,0.31,1.027,0.465l0.038-0.038
			C185.365,253.359,185.638,252.602,185.933,251.854z"/>
		<path style="fill:#FFFFFF;" d="M187.576,254.828c0.69-1.892,1.364-3.792,2.403-5.528l-4.811,4.811
			c-0.015,0.025-0.027,0.05-0.042,0.075c0.861,0.404,1.648,0.976,2.606,1.162l0,0C187.603,255.197,187.508,255.014,187.576,254.828z
			"/>
		<path style="fill:#FFFFFF;" d="M189.183,248.604l-2.454,2.454c-0.444,1.05-0.97,2.065-1.561,3.053l4.811-4.811
			c0.076-0.127,0.139-0.261,0.219-0.386C189.871,248.775,189.529,248.683,189.183,248.604z"/>
		<path style="fill:#FFFFFF;" d="M190.348,248.659c-0.245-0.217-0.526-0.327-0.82-0.401l-0.345,0.346
			c0.346,0.079,0.688,0.172,1.015,0.31C190.251,248.83,190.293,248.741,190.348,248.659z"/>
		<path style="fill:#FFFFFF;" d="M189.979,249.3c-1.038,1.736-1.713,3.636-2.403,5.528c-0.068,0.186,0.027,0.369,0.156,0.519
			c0.638-2.175,1.855-4.124,2.497-6.297L189.979,249.3z"/>
		<path style="fill:#FFFFFF;" d="M190.198,248.914c-0.08,0.125-0.143,0.259-0.219,0.386l0.25-0.25
			c0.011-0.037,0.025-0.074,0.036-0.111C190.243,248.929,190.22,248.923,190.198,248.914z"/>
		<path style="fill:#FFFFFF;" d="M190.265,248.938c0.027-0.094,0.059-0.185,0.083-0.28c-0.056,0.083-0.097,0.172-0.15,0.255
			C190.22,248.923,190.243,248.929,190.265,248.938z"/>
		<path style="fill:#FFFFFF;" d="M185.142,254.137c-0.005,0.016-0.011,0.032-0.015,0.048c0.015-0.024,0.027-0.05,0.042-0.075
			L185.142,254.137z"/>
		<path style="fill:#FFFFFF;" d="M185.933,251.854c-0.294,0.748-0.568,1.505-0.791,2.283l0.026-0.026
			c0.591-0.988,1.117-2.003,1.561-3.053L185.933,251.854z"/>
		<path style="fill:#FFFFFF;" d="M243.031,204.084c-0.418,0.429-0.239,0.961-0.255,1.46l0,0
			C243.076,205.095,242.723,204.532,243.031,204.084z"/>
		<path style="fill:#FFFFFF;" d="M243.031,204.084c-0.308,0.448,0.046,1.011-0.254,1.46
			C243.223,205.121,242.983,204.578,243.031,204.084z"/>
		<path style="fill:#FFFFFF;" d="M250.612,188.971c0.72,1.328,0.349,2.751,0.366,4.141c0.167-0.183,0.376-0.299,0.645-0.32
			c-0.003-0.035-0.006-0.071-0.009-0.106c-0.048-1.655-0.057-3.311-0.056-4.966l-0.619,0.619
			C250.887,188.567,250.793,188.783,250.612,188.971z"/>
		<path style="fill:#FFFFFF;" d="M250.94,188.339l0.619-0.619c0-0.497-0.003-0.994,0-1.492l-0.539,0.539
			c-0.004,0.276-0.005,0.553-0.01,0.829C251.004,187.846,250.995,188.099,250.94,188.339z"/>
		<path style="fill:#FFFFFF;" d="M251.614,192.686c0.003,0.035,0.006,0.07,0.009,0.106c0.121-0.009,0.244-0.015,0.391,0.018l0,0
			c-0.001-1.847-0.003-3.694-0.005-5.541l-0.451,0.451C251.558,189.375,251.566,191.031,251.614,192.686z"/>
		<path style="fill:#FFFFFF;" d="M251.559,186.228c-0.002,0.497,0.001,0.995,0,1.492l0.451-0.451c0-0.497-0.001-0.994-0.001-1.491
			L251.559,186.228z"/>
		<path style="fill:#FFFFFF;" d="M250.624,193.676c0.093-0.229,0.214-0.412,0.354-0.565c-0.018-1.39,0.354-2.812-0.366-4.141
			c-0.024,0.024-0.035,0.053-0.062,0.076C250.575,190.59,250.599,192.133,250.624,193.676z"/>
		<path style="fill:#FFFFFF;" d="M250.602,188.948c0.004,0.008,0.006,0.016,0.01,0.023c0.181-0.188,0.275-0.404,0.328-0.632
			l-0.386,0.386c-0.001,0.07-0.002,0.14-0.002,0.21C250.568,188.94,250.585,188.943,250.602,188.948z"/>
		<path style="fill:#FFFFFF;" d="M250.94,188.339c0.055-0.239,0.064-0.492,0.069-0.743c0.006-0.276,0.007-0.552,0.01-0.829
			l-0.449,0.449c-0.006,0.503-0.011,1.006-0.017,1.509L250.94,188.339z"/>
		<path style="fill:#FFFFFF;" d="M250.551,188.935c0,0.037-0.001,0.075-0.001,0.112c0.027-0.023,0.038-0.052,0.062-0.076
			c-0.004-0.008-0.006-0.016-0.01-0.023C250.585,188.943,250.568,188.94,250.551,188.935z"/>
		<path style="fill:#FFFFFF;" d="M250.584,215.569c0.001-0.083,0.001-0.167,0.003-0.25c-0.023,0.109-0.052,0.218-0.079,0.327
			L250.584,215.569z"/>
		<path style="fill:#FFFFFF;" d="M250.998,202.398c0.041,0.885,0.052,1.772-0.001,2.655c-0.025,0.428,0.004,0.903-0.3,1.22
			c0.007,0.055,0.009,0.11,0.02,0.164c-0.1,1.32,0.298,2.695-0.397,3.95c0.005,0.004,0.012,0.005,0.017,0.009
			c0.093,0.373,0.168,0.745,0.235,1.117c-0.008-0.193-0.011-0.386-0.023-0.578c-0.084-1.262,0.156-2.128,1.31-2.409
			c-0.001-0.066,0.001-0.131,0-0.197c-0.02-2.12,0-4.239,0.02-6.357C251.717,202.265,251.428,202.396,250.998,202.398z"/>
		<path style="fill:#FFFFFF;" d="M252.044,200.966c0.015,0.444-0.037,0.775-0.165,1.006c-0.02,2.119-0.04,4.238-0.02,6.357
			c0.001,0.066-0.001,0.131,0,0.197c0.138-0.033,0.281-0.063,0.446-0.079c0-4.521,0.006-9.042-0.008-13.563
			c-0.002-0.508,0.181-1.069-0.271-1.504C252.023,195.91,251.958,198.441,252.044,200.966z"/>
		<path style="fill:#FFFFFF;" d="M250.238,215.915l0.27-0.27c0.027-0.109,0.056-0.218,0.079-0.327
			c0.019-1.27,0.041-2.54-0.014-3.805c-0.066-0.372-0.142-0.745-0.235-1.117c-0.005-0.004-0.012-0.005-0.017-0.009
			c-0.016,0.029-0.025,0.06-0.043,0.089C250.264,212.289,250.251,214.102,250.238,215.915z"/>
		<path style="fill:#FFFFFF;" d="M250.285,210.368c0.011,0.008,0.024,0.011,0.035,0.019c0.695-1.255,0.296-2.63,0.397-3.95
			c-0.011-0.054-0.013-0.109-0.02-0.164c-0.091,0.095-0.208,0.178-0.37,0.239C250.459,207.799,250.396,209.084,250.285,210.368z"/>
		<path style="fill:#FFFFFF;" d="M250.277,210.476c0.018-0.029,0.027-0.059,0.043-0.089c-0.011-0.008-0.024-0.011-0.035-0.019
			C250.282,210.404,250.28,210.44,250.277,210.476z"/>
		<path style="fill:#FFFFFF;" d="M250.543,202.838c-0.021,0.357-0.042,0.715-0.063,1.072c0.396,0.731,0.119,1.58,0.217,2.363
			c0.304-0.317,0.275-0.793,0.3-1.22c0.052-0.883,0.042-1.77,0.001-2.655c-0.118,0.001-0.245-0.008-0.385-0.026
			C250.593,202.527,250.57,202.682,250.543,202.838z"/>
		<path style="fill:#FFFFFF;" d="M250.571,202.368c-0.009,0.157-0.018,0.313-0.028,0.47c0.027-0.155,0.05-0.311,0.07-0.466
			C250.598,202.369,250.586,202.37,250.571,202.368z"/>
		<path style="fill:#FFFFFF;" d="M250.48,203.91c-0.051,0.867-0.102,1.734-0.153,2.602c0.162-0.061,0.279-0.143,0.37-0.239
			C250.599,205.49,250.876,204.642,250.48,203.91z"/>
		<path style="fill:#FFFFFF;" d="M251.015,215.138l0.872-0.872c-0.049-1.808-0.01-3.619-0.027-5.429
			c-0.838,0.879-0.892,2.02-0.898,3.256C250.957,213.098,251.142,214.133,251.015,215.138z"/>
		<path style="fill:#FFFFFF;" d="M251.887,214.266l0.416-0.416c-0.052-1.798,0.003-3.602,0.003-5.403
			c-0.17,0.123-0.316,0.253-0.445,0.389C251.877,210.648,251.838,212.458,251.887,214.266z"/>
		<path style="fill:#FFFFFF;" d="M250.549,210.936c0.013,0.192,0.015,0.385,0.023,0.578c0.227,1.272,0.276,2.541,0.014,3.805
			c-0.001,0.083-0.001,0.167-0.003,0.25l0.431-0.431c0.127-1.005-0.058-2.04-0.053-3.045c0.006-1.236,0.059-2.377,0.898-3.256
			c-0.001-0.103,0.001-0.207-0.001-0.31C250.705,208.808,250.465,209.674,250.549,210.936z"/>
		<path style="fill:#FFFFFF;" d="M251.86,208.837c0.13-0.136,0.275-0.267,0.445-0.389c-0.165,0.016-0.308,0.046-0.446,0.079
			C251.861,208.63,251.859,208.734,251.86,208.837z"/>
		<path style="fill:#FFFFFF;" d="M250.587,215.319c0.261-1.264,0.212-2.533-0.014-3.805
			C250.628,212.779,250.606,214.049,250.587,215.319z"/>
		<path style="fill:#FFFFFF;" d="M251.009,193.673c0.022,2.773,0.047,5.546-0.011,8.319c0.45-0.49,0.606-1.108,0.589-1.842
			c-0.039-1.672-0.026-3.346-0.002-5.019c0.007-0.476-0.03-0.972,0.191-1.402c-0.018-0.072-0.029-0.144-0.054-0.215
			c-0.038-0.139-0.059-0.279-0.074-0.421c-0.205,0.168-0.41,0.335-0.646,0.452C251.006,193.587,251.005,193.63,251.009,193.673z"/>
		<path style="fill:#FFFFFF;" d="M251.723,193.514c0.024,0.071,0.036,0.143,0.054,0.215c0.063-0.122,0.137-0.24,0.25-0.348
			c-0.004-0.19-0.007-0.381-0.011-0.571l0,0c-0.126,0.088-0.247,0.185-0.366,0.284C251.664,193.235,251.685,193.375,251.723,193.514
			z"/>
		<path style="fill:#FFFFFF;" d="M250.606,196.623c0,0.005,0.003,0.009,0.003,0.014c0.017,1.896,0.249,3.799,0.01,5.689
			c0.147-0.103,0.271-0.215,0.38-0.334c0.057-2.773,0.033-5.546,0.011-8.319c-0.005-0.042-0.004-0.085-0.007-0.128
			c-0.117,0.058-0.241,0.105-0.378,0.131C250.618,194.659,250.612,195.641,250.606,196.623z"/>
		<path style="fill:#FFFFFF;" d="M250.609,196.637c0-0.005-0.003-0.009-0.003-0.014c-0.012,1.915-0.023,3.83-0.035,5.745
			c0.019-0.013,0.029-0.029,0.048-0.042C250.858,200.437,250.625,198.533,250.609,196.637z"/>
		<path style="fill:#FFFFFF;" d="M251.002,193.545c0.236-0.117,0.442-0.284,0.646-0.452c-0.011-0.1-0.018-0.201-0.025-0.301
			c-0.269,0.02-0.477,0.137-0.645,0.32C250.98,193.257,250.99,193.401,251.002,193.545z"/>
		<path style="fill:#FFFFFF;" d="M251.623,192.792c0.008,0.1,0.015,0.201,0.025,0.301c0.12-0.098,0.24-0.196,0.366-0.284
			C251.868,192.777,251.744,192.783,251.623,192.792z"/>
		<path style="fill:#FFFFFF;" d="M251.002,193.545c-0.012-0.144-0.022-0.288-0.024-0.433c-0.14,0.153-0.261,0.336-0.354,0.565
			C250.761,193.65,250.885,193.603,251.002,193.545z"/>
		<path style="fill:#FFFFFF;" d="M251.587,200.15c0.017,0.734-0.139,1.352-0.589,1.842c-0.002,0.106-0.001,0.211-0.003,0.317
			c0.001,0.03,0.001,0.059,0.002,0.089c0.43-0.002,0.719-0.132,0.881-0.425c0.021-2.202,0.042-4.403,0.021-6.605
			c-0.005-0.55,0.012-1.101-0.124-1.638c-0.221,0.429-0.184,0.926-0.191,1.402C251.561,196.804,251.548,198.478,251.587,200.15z"/>
		<path style="fill:#FFFFFF;" d="M251.9,195.368c0.021,2.202,0,4.403-0.021,6.605c0.128-0.232,0.18-0.562,0.165-1.006
			c-0.086-2.526-0.021-5.057-0.018-7.585c-0.113,0.108-0.187,0.227-0.25,0.348C251.912,194.266,251.895,194.818,251.9,195.368z"/>
		<path style="fill:#FFFFFF;" d="M250.613,202.371c0.14,0.019,0.267,0.027,0.385,0.026c-0.001-0.03-0.001-0.059-0.002-0.089
			c0.002-0.106,0.001-0.211,0.003-0.317c-0.109,0.119-0.233,0.231-0.38,0.334C250.617,202.341,250.615,202.356,250.613,202.371z"/>
		<path style="fill:#FFFFFF;" d="M250.619,202.326c-0.018,0.013-0.029,0.029-0.048,0.042c0.015,0.002,0.027,0.002,0.042,0.004
			C250.615,202.356,250.617,202.341,250.619,202.326z"/>
	</g>
</g>
</svg>
