<?xml version="1.0" encoding="iso-8859-1"?>
<!-- Generator: Adobe Illustrator 22.0.1, SVG Export Plug-In . SVG Version: 6.00 Build 0)  -->
<svg version="1.1" id="Layer_1" xmlns="http://www.w3.org/2000/svg" xmlns:xlink="http://www.w3.org/1999/xlink" x="0px" y="0px"
	 viewBox="0 0 438.53 438.53" style="enable-background:new 0 0 438.53 438.53;" xml:space="preserve">
<g id="_x31_84">
	<g>
		<path style="fill:#F4F4F4;" d="M407.603,110.087c-19.45-33.321-45.833-59.704-79.155-79.153
			c-33.328-19.448-69.711-29.17-109.176-29.17c-39.461,0-75.854,9.722-109.177,29.17C76.771,50.38,50.388,76.763,30.938,110.087
			c-19.451,33.326-29.173,69.72-29.173,109.178c0,39.46,9.725,75.847,29.17,109.175c19.449,33.321,45.832,59.704,79.156,79.155
			c33.326,19.447,69.717,29.17,109.177,29.17s75.854-9.723,109.179-29.17c33.322-19.444,59.704-45.834,79.152-79.155
			c19.445-33.325,29.166-69.718,29.166-109.175C436.766,179.803,427.044,143.409,407.603,110.087z M193.494,269.664
			c-2.369,5.652-6.035,10.653-10.996,15.006c-4.965,4.353-11.34,7.867-19.129,10.538c-7.789,2.67-17.031,4.009-27.72,4.009
			c-4.432,0-8.819-0.308-13.173-0.916c-4.353-0.612-8.555-1.414-12.6-2.405c-4.048-0.992-7.753-2.177-11.11-3.552
			c-3.361-1.374-6.265-2.749-8.705-4.123c-0.767-0.458-0.995-0.991-0.688-1.604l6.644-21.992c0.304-0.917,0.916-1.146,1.832-0.688
			c4.887,3.057,10.804,5.612,17.755,7.674c6.947,2.063,14.317,3.093,22.106,3.093c9.314,0,16.53-1.907,21.649-5.727
			c5.115-3.816,7.674-8.781,7.674-14.891c0-5.648-2.29-10.345-6.872-14.089c-4.582-3.741-11.991-7.217-22.222-10.424
			c-6.873-2.137-13.098-4.617-18.671-7.445c-5.576-2.824-10.348-6.106-14.317-9.851c-3.974-3.741-7.066-7.939-9.278-12.6
			c-2.216-4.657-3.322-9.965-3.322-15.921c0-6.415,1.336-12.332,4.01-17.754c2.67-5.419,6.489-10.116,11.454-14.089
			c4.961-3.97,10.917-7.063,17.869-9.278c6.947-2.212,14.775-3.322,23.481-3.322c9.313,0,17.296,0.802,23.939,2.405
			c6.644,1.604,12.178,3.551,16.608,5.842c0.763,0.308,0.992,0.841,0.688,1.604l-6.872,21.076c-0.154,0.458-0.459,0.766-0.917,0.917
			c-0.458,0.154-0.841,0.079-1.146-0.229c-2.599-1.375-6.758-2.978-12.485-4.811c-5.727-1.833-12.485-2.749-20.273-2.749
			c-4.89,0-9.014,0.537-12.371,1.604c-3.361,1.07-6.071,2.484-8.133,4.238c-2.062,1.758-3.59,3.744-4.582,5.957
			c-0.995,2.215-1.488,4.392-1.488,6.529c0,5.652,2.44,10.194,7.33,13.631c4.887,3.436,12.75,6.837,23.597,10.194
			c14.661,4.736,25.657,10.653,32.988,17.754s10.996,16.762,10.996,28.979C197.044,258.21,195.86,264.015,193.494,269.664z
			 M349.159,148.706l-6.186,20.847c-0.308,1.07-0.916,1.299-1.832,0.687c-4.124-1.833-9.128-3.397-15.006-4.696
			c-5.881-1.295-12.335-1.947-19.357-1.947c-9.164,0-17.45,1.299-24.856,3.895c-7.409,2.599-13.745,6.3-19.014,11.111
			c-5.27,4.811-9.317,10.731-12.142,17.754c-2.828,7.026-4.238,14.891-4.238,23.596c0,7.789,1.296,15.005,3.895,21.649
			c2.595,6.644,6.375,12.41,11.34,17.296c4.961,4.89,11.146,8.705,18.556,11.454c7.406,2.749,15.922,4.124,25.544,4.124
			c6.564,0,13.019-0.573,19.357-1.719c6.336-1.146,11.72-2.709,16.15-4.696c0.917-0.458,1.525-0.15,1.833,0.917l5.04,20.617
			c0.304,0.309,0.075,0.688-0.688,1.146c-3.819,1.987-9.736,3.895-17.754,5.728c-8.019,1.833-17.45,2.749-28.293,2.749
			c-13.137,0-24.97-1.833-35.508-5.498c-10.538-3.665-19.552-8.935-27.033-15.807c-7.484-6.873-13.251-15.12-17.296-24.742
			c-4.048-9.621-6.07-20.389-6.07-32.3c0-11.759,2.137-22.601,6.414-32.531c4.274-9.926,10.345-18.517,18.213-25.772
			c7.864-7.252,17.332-12.943,28.406-17.067c11.071-4.124,23.403-6.186,36.998-6.186c10.842,0,19.892,0.881,27.146,2.635
			c7.252,1.757,12.485,3.476,15.692,5.154C349.234,147.41,349.463,147.944,349.159,148.706z"/>
		<path style="fill:#F30009;" d="M153.06,205.52c-10.847-3.357-18.71-6.758-23.597-10.194c-4.89-3.437-7.33-7.979-7.33-13.631
			c0-2.137,0.493-4.313,1.488-6.529c0.992-2.212,2.521-4.199,4.582-5.957c2.062-1.754,4.771-3.168,8.133-4.238
			c3.357-1.066,7.481-1.604,12.371-1.604c7.788,0,14.547,0.917,20.273,2.749c5.728,1.833,9.887,3.437,12.485,4.811
			c0.305,0.308,0.688,0.383,1.146,0.229c0.458-0.15,0.763-0.458,0.917-0.917l6.872-21.076c0.305-0.763,0.075-1.296-0.688-1.604
			c-4.431-2.291-9.965-4.238-16.608-5.842c-6.644-1.604-14.626-2.405-23.939-2.405c-8.706,0-16.534,1.11-23.481,3.322
			c-6.952,2.216-12.908,5.309-17.869,9.278c-4.965,3.973-8.784,8.669-11.454,14.089c-2.674,5.423-4.01,11.34-4.01,17.754
			c0,5.956,1.106,11.265,3.322,15.921c2.212,4.661,5.305,8.859,9.278,12.6c3.97,3.744,8.741,7.026,14.317,9.851
			c5.573,2.828,11.798,5.308,18.671,7.445c10.23,3.207,17.64,6.683,22.222,10.424c4.582,3.744,6.872,8.44,6.872,14.089
			c0,6.109-2.559,11.074-7.674,14.891c-5.119,3.819-12.335,5.727-21.649,5.727c-7.789,0-15.159-1.03-22.106-3.093
			c-6.951-2.062-12.868-4.617-17.755-7.674c-0.916-0.458-1.528-0.229-1.832,0.688l-6.644,21.992
			c-0.308,0.612-0.079,1.146,0.688,1.604c2.44,1.374,5.344,2.749,8.705,4.123c3.357,1.375,7.063,2.56,11.11,3.552
			c4.045,0.991,8.247,1.793,12.6,2.405c4.354,0.608,8.741,0.916,13.173,0.916c10.688,0,19.931-1.339,27.72-4.009
			c7.789-2.671,14.164-6.186,19.129-10.538c4.961-4.353,8.627-9.354,10.996-15.006c2.366-5.648,3.551-11.454,3.551-17.41
			c0-12.217-3.665-21.878-10.996-28.979C178.717,216.173,167.721,210.256,153.06,205.52z"/>
		<path style="fill:#F30009;" d="M348.471,147.103c-3.207-1.679-8.44-3.397-15.692-5.154c-7.255-1.754-16.305-2.635-27.146-2.635
			c-13.595,0-25.927,2.062-36.998,6.186c-11.074,4.124-20.542,9.815-28.406,17.067c-7.868,7.256-13.938,15.847-18.213,25.772
			c-4.277,9.93-6.414,20.772-6.414,32.531c0,11.912,2.022,22.679,6.07,32.3c4.045,9.622,9.812,17.869,17.296,24.742
			c7.481,6.872,16.495,12.142,27.033,15.807s22.371,5.498,35.508,5.498c10.843,0,20.274-0.916,28.293-2.749
			c8.018-1.833,13.935-3.74,17.754-5.728c0.763-0.458,0.991-0.837,0.688-1.146l-5.04-20.617c-0.308-1.067-0.916-1.375-1.833-0.917
			c-4.431,1.987-9.814,3.551-16.15,4.696c-6.339,1.146-12.793,1.719-19.357,1.719c-9.622,0-18.138-1.375-25.544-4.124
			c-7.409-2.749-13.595-6.564-18.556-11.454c-4.965-4.886-8.745-10.652-11.34-17.296c-2.599-6.644-3.895-13.86-3.895-21.649
			c0-8.705,1.41-16.569,4.238-23.596c2.824-7.023,6.872-12.943,12.142-17.754c5.269-4.811,11.604-8.512,19.014-11.111
			c7.406-2.595,15.692-3.895,24.856-3.895c7.022,0,13.477,0.652,19.357,1.947c5.878,1.299,10.882,2.864,15.006,4.696
			c0.916,0.612,1.524,0.383,1.832-0.687l6.186-20.847C349.463,147.944,349.234,147.41,348.471,147.103z"/>
	</g>
</g>
</svg>
