<?xml version="1.0" encoding="iso-8859-1"?>
<!-- Generator: Adobe Illustrator 22.0.1, SVG Export Plug-In . SVG Version: 6.00 Build 0)  -->
<svg version="1.1" id="Layer_1" xmlns="http://www.w3.org/2000/svg" xmlns:xlink="http://www.w3.org/1999/xlink" x="0px" y="0px"
	 viewBox="0 0 438.53 438.53" style="enable-background:new 0 0 438.53 438.53;" xml:space="preserve">
<g id="_x31_89">
	<g>
		<path style="fill:#D80027;" d="M386.57,79.625l-84.031,84.032l18.246,7.401l13.672-16.201l-1.581,21.101l19.678,7.982
			l-20.627,5.058l-1.502,21.18l-11.143-18.019l-20.627,5.058l13.672-16.201l-10.447-16.702l-76.605,76.607h53.465l-45.679,33.272
			l17.465,53.741l-45.758-33.193l-45.758,33.193l10.057-30.805l-89.435,89.437c40.22,33.453,89.734,50.199,139.267,50.199
			c55.812-0.007,111.645-21.252,154.122-63.737C453.227,292.835,457.733,165.175,386.57,79.625z M365.99,228.593l-3.635-20.943
			l15.174,14.779l18.73-9.879l-9.326,19.046l15.174,14.779l-20.943-3.003l-9.325,18.967l-3.635-20.864l-21.022-3.003L365.99,228.593
			z M333.904,377.408l-13.356-16.438l-19.757,7.666l11.459-17.782l-13.356-16.517l20.469,5.453l11.538-17.782l1.106,21.18
			l20.548,5.453l-19.836,7.587L333.904,377.408z M377.449,316.475l-16.991,12.724l6.322-20.232l-17.307-12.25l21.18-0.316
			l6.243-20.232l6.875,20.074l21.18-0.237l-16.991,12.645l6.797,20.074L377.449,316.475z"/>
		<polygon style="fill:#FFDA44;" points="159.013,327.935 204.77,294.742 250.528,327.935 233.063,274.194 278.742,240.922 
			225.276,240.922 169.069,297.13 		"/>
		<polygon style="fill:#FFDA44;" points="332.007,343.188 330.901,322.008 319.363,339.79 298.894,334.336 312.25,350.854 
			300.791,368.636 320.548,360.97 333.904,377.408 332.718,356.228 352.555,348.641 		"/>
		<polygon style="fill:#FFDA44;" points="404.951,296.006 383.771,296.244 376.896,276.17 370.652,296.402 349.473,296.718 
			366.78,308.967 360.458,329.199 377.449,316.475 394.756,328.725 387.96,308.651 		"/>
		<polygon style="fill:#FFDA44;" points="371.838,262.339 381.163,243.372 402.106,246.375 386.932,231.596 396.258,212.55 
			377.528,222.429 362.354,207.65 365.99,228.593 347.181,238.472 368.203,241.475 		"/>
		<polygon style="fill:#FFDA44;" points="312.329,181.016 298.657,197.218 319.284,192.16 330.427,210.179 331.928,188.999 
			352.555,183.94 332.877,175.958 334.457,154.857 320.785,171.058 302.539,163.657 301.882,164.315 		"/>
		<path style="fill:#0052B4;" d="M78.384,331.662l13.43-26.359l-20.915-20.916l29.216,4.63l13.427-26.358l4.629,29.217l0.783,0.124
			l162.811-162.815l-0.124-0.783l-29.215-4.629l26.355-13.429l-4.629-29.215l20.918,20.915l26.356-13.43l-0.942,1.848l38.465-38.466
			C273.402-19.21,145.711-14.718,65.505,65.503C23.021,107.981,1.776,163.815,1.769,219.629c0,49.554,16.759,99.089,50.238,139.318
			l28.228-28.228L78.384,331.662z M190.764,66.412l9.142-28.134l9.142,28.134h29.579l-23.931,17.387l9.142,28.134l-23.931-17.388
			l-23.932,17.388l9.142-28.134l-23.931-17.387H190.764z M78.384,88.615l26.359,13.429l20.916-20.915l-4.629,29.216l26.357,13.43
			l-29.216,4.628l-4.628,29.218l-13.43-26.358l-29.215,4.629l20.916-20.916L78.384,88.615z M28.05,210.138l28.133-9.142v-29.581
			l17.386,23.933l28.134-9.142l-17.389,23.932l17.389,23.932l-28.134-9.141l-17.386,23.932V219.28L28.05,210.138z"/>
		<polygon style="fill:#FFDA44;" points="175.974,111.933 199.906,94.545 223.837,111.933 214.695,83.799 238.627,66.412 
			209.048,66.412 199.906,38.278 190.764,66.412 161.184,66.412 185.115,83.799 		"/>
		<polygon style="fill:#FFDA44;" points="100.114,131.261 113.544,157.619 118.171,128.401 147.387,123.774 121.03,110.344 
			125.659,81.128 104.743,102.043 78.384,88.615 91.815,114.974 70.899,135.89 		"/>
		<polygon style="fill:#FFDA44;" points="73.569,224.929 101.703,234.07 84.314,210.138 101.703,186.206 73.569,195.348 
			56.183,171.415 56.183,200.996 28.05,210.138 56.183,219.28 56.183,248.861 		"/>
		<polygon style="fill:#FFDA44;" points="118.171,291.875 113.542,262.658 100.115,289.016 70.899,284.386 91.814,305.302 
			78.384,331.662 80.235,330.719 118.954,291.999 		"/>
		<polygon style="fill:#FFDA44;" points="321.427,88.615 295.07,102.044 274.152,81.129 278.781,110.344 252.426,123.773 
			281.641,128.401 281.765,129.184 320.485,90.463 		"/>
		<path style="fill:#FFFFFF;" d="M65.512,373.768c-0.125-0.125-0.244-0.253-0.368-0.378c-0.125-0.124-0.253-0.243-0.378-0.368
			l0.01-0.01c-4.499-4.543-8.751-9.238-12.768-14.065l-0.512,0.512c2.058,2.426,4.165,4.808,6.326,7.142l11.913,11.913
			c3.109,2.882,6.297,5.682,9.571,8.383l0.33-0.33c-4.844-4.029-9.555-8.295-14.113-12.809L65.512,373.768z"/>
		<path style="fill:#FFFFFF;" d="M373.023,64.757c0.125,0.125,0.244,0.253,0.368,0.378c0.125,0.124,0.253,0.244,0.378,0.368
			l-0.009,0.009c4.514,4.557,8.781,9.268,12.81,14.112l0.511-0.511c-8.432-9.944-17.735-19.134-27.802-27.445l-0.328,0.328
			c4.827,4.017,9.521,8.27,14.064,12.77L373.023,64.757z"/>
		<path style="fill:#FFFFFF;" d="M373.023,64.757l-0.009,0.009c0.125,0.124,0.253,0.244,0.378,0.368
			C373.267,65.01,373.148,64.882,373.023,64.757z"/>
		<path style="fill:#FFFFFF;" d="M64.766,373.022c0.125,0.125,0.253,0.244,0.378,0.368c-0.124-0.125-0.244-0.253-0.368-0.378
			L64.766,373.022z"/>
		<path style="fill:#FFFFFF;" d="M176.557,274.194l-6.643-4.831l-26.508,26.509l-5.422,5.422l-15.816,15.816l-9.274,9.274
			l-38.056,38.057l0,0l-9.318,9.318c4.558,4.514,9.269,8.78,14.113,12.809l89.435-89.437L176.557,274.194z"/>
		<path style="fill:#FFFFFF;" d="M364.455,74.818l-48.307,48.308l-9.272,9.273l-15.818,15.819l-5.42,5.42l-69.26,69.261
			l5.858,18.024h3.04l76.605-76.607l-0.775-1.238l1.432,0.581l84.031-84.032c-4.029-4.844-8.296-9.555-12.81-14.112L364.455,74.818z
			"/>
		<polygon style="fill:#FFFFFF;" points="216.378,222.898 169.914,269.363 176.557,274.194 169.069,297.13 225.276,240.922 
			222.236,240.922 		"/>
		<polygon style="fill:#FFFFFF;" points="301.882,164.315 302.539,163.657 301.107,163.076 		"/>
		<polygon style="fill:#FFFFFF;" points="299.696,131.26 292.607,145.175 305.588,132.194 		"/>
		<polygon style="fill:#FFFFFF;" points="292.607,145.175 291.058,148.217 306.876,132.398 305.588,132.194 		"/>
		<path style="fill:#FFFFFF;" d="M373.769,65.503c-0.125-0.125-0.253-0.244-0.378-0.368c0.124,0.125,0.244,0.253,0.368,0.378
			L373.769,65.503z"/>
		<path style="fill:#FFFFFF;" d="M65.512,373.768l0.01-0.01c-0.125-0.124-0.253-0.244-0.378-0.368
			C65.268,373.515,65.387,373.643,65.512,373.768z"/>
		<path style="fill:#FFFFFF;" d="M74.093,363.694L74.093,363.694l38.056-38.057l-7.406-7.406l-24.508,12.487l-28.228,28.228
			c4.017,4.827,8.269,9.522,12.768,14.065L74.093,363.694z"/>
		<path style="fill:#FFFFFF;" d="M307.997,114.974l7.405,7.406l48.307-48.308l9.305-9.305c-4.542-4.499-9.237-8.752-14.064-12.77
			l-38.465,38.466L307.997,114.974z"/>
		<polygon style="fill:#FFFFFF;" points="169.05,268.735 216.012,221.772 285.434,152.349 281.765,129.184 118.954,291.999 
			142.118,295.668 		"/>
		<polygon style="fill:#FFFFFF;" points="142.118,295.668 143.406,295.872 169.914,269.363 169.05,268.735 		"/>
		<path style="fill:#FFFFFF;" d="M364.455,74.818l9.305-9.305c-0.124-0.125-0.244-0.253-0.368-0.378
			c-0.125-0.124-0.253-0.244-0.378-0.368l-9.305,9.305l-48.307,48.308l0.746,0.746L364.455,74.818z"/>
		<polygon style="fill:#FFFFFF;" points="216.012,221.772 216.378,222.898 285.638,153.637 285.434,152.349 		"/>
		<path style="fill:#FFFFFF;" d="M74.093,363.694L74.093,363.694l-9.318,9.318c0.124,0.125,0.244,0.253,0.368,0.378
			c0.125,0.124,0.253,0.244,0.378,0.368l9.318-9.318l0,0l38.056-38.057l-0.746-0.746L74.093,363.694z"/>
		<polygon style="fill:#FFFFFF;" points="216.012,221.772 169.05,268.735 169.914,269.363 216.378,222.898 		"/>
		<polygon style="fill:#FFFFFF;" points="121.965,315.822 134.942,302.844 121.032,309.932 		"/>
		<polygon style="fill:#FFFFFF;" points="121.965,315.822 122.169,317.11 137.984,301.294 134.942,302.844 		"/>
		<polygon style="fill:#FFFFFF;" points="121.032,309.932 134.942,302.844 142.118,295.668 118.954,291.999 80.235,330.719 
			104.743,318.232 112.149,325.638 121.965,315.822 		"/>
		<polygon style="fill:#FFFFFF;" points="134.942,302.844 137.984,301.294 143.406,295.872 142.118,295.668 		"/>
		<polygon style="fill:#FFFFFF;" points="112.149,325.638 112.895,326.384 122.169,317.11 121.965,315.822 		"/>
		<polygon style="fill:#FFFFFF;" points="292.607,145.175 299.696,131.26 305.588,132.194 315.402,122.379 307.997,114.974 
			320.485,90.463 281.765,129.184 285.434,152.349 		"/>
		<polygon style="fill:#FFFFFF;" points="285.434,152.349 285.638,153.637 291.058,148.217 292.607,145.175 		"/>
		<polygon style="fill:#FFFFFF;" points="306.876,132.398 316.148,123.125 315.402,122.379 305.588,132.194 		"/>
	</g>
</g>
</svg>
