<?xml version="1.0" encoding="iso-8859-1"?>
<!-- Generator: Adobe Illustrator 22.0.1, SVG Export Plug-In . SVG Version: 6.00 Build 0)  -->
<svg version="1.1" id="Layer_1" xmlns="http://www.w3.org/2000/svg" xmlns:xlink="http://www.w3.org/1999/xlink" x="0px" y="0px"
	 viewBox="0 0 438.53 438.53" style="enable-background:new 0 0 438.53 438.53;" xml:space="preserve">
<g id="_x31_90">
	<g>
		<path style="fill:#F30009;" d="M271.975,193.048c-0.891,1.884-1.556,3.867-1.552,5.996c0.006,2.862,2.208,4.378,4.916,3.398
			c1.141-0.413,2.164-1.049,3.148-1.743c5.776-4.077,10.199-9.349,13.558-15.527c2.99-5.499,4.722-11.387,5.163-17.638
			c0-0.293,0.007-0.586-0.002-0.879c-0.019-0.612-0.157-0.929-0.846-0.486c-1.093,0.702-2.265,1.283-3.344,2.005
			C283.629,174.453,276.776,182.892,271.975,193.048z"/>
		<path style="fill:#F30009;" d="M189.817,192.993c-1.023-0.408-2.001-0.135-2.928,0.286c-1.985,0.901-3.654,2.236-5.087,3.875
			c-2.766,3.165-5.349,6.478-7.901,9.814c-4.813,6.293-9.236,12.831-12.419,20.13c-1.053,2.416-2.038,4.86-2.367,7.505
			c-0.203,1.638,0.781,2.802,2.421,2.804c0.449,0.042,0.92-0.127,1.383-0.406c2-1.203,3.743-2.706,5.271-4.464
			c2.229-2.566,4.077-5.407,5.825-8.303c5.73-9.494,11.265-19.102,16.673-28.783C191.294,194.366,190.977,193.456,189.817,192.993z"
			/>
		<path style="fill:#F30009;" d="M105.079,193.418c-2.995,1.561-5.063,4.153-5.957,7.504c-0.654,2.452-0.096,4.632,1.702,6.46
			c1.802,1.831,4.011,2.825,6.536,3.176c0.558,0.078,0.814-0.193,1.017-0.675c0.665-1.585,1.436-3.13,2.038-4.738
			c0.89-2.379,1.531-4.83,1.624-7.392C111.92,192.748,109.341,191.196,105.079,193.418z"/>
		<path style="fill:#F30009;" d="M105.129,214.332c-4.532-1.422-8.257-3.904-10.657-8.327c-2.163,3.05-4.152,6.018-5.972,9.096
			c-2.536,4.29-4.782,8.712-6.058,13.567c-0.391,1.489-0.653,2.986-0.482,4.533c0.272,2.471,1.791,3.954,3.872,3.739
			c0.974-0.101,1.903-0.348,2.759-0.88c1.332-0.828,2.58-1.757,3.732-2.818c5.487-5.055,9.242-11.383,13.008-17.703
			c0.065-0.109,0.073-0.254,0.139-0.362C105.742,214.735,105.638,214.492,105.129,214.332z"/>
		<path style="fill:#F30009;" d="M295.815,246.093c-3.985-1.998-7.341-4.675-9.44-8.798c-0.099,0.064-0.169,0.088-0.206,0.136
			c-4.348,5.753-8.14,11.834-10.795,18.565c-0.992,2.515-1.793,5.096-1.624,7.863c0.19,3.101,2.436,4.599,5.352,3.549
			c1.489-0.536,2.781-1.42,3.952-2.461c5.676-5.046,9.83-11.221,13.272-17.926C296.678,246.333,296.198,246.285,295.815,246.093z"/>
		<path style="fill:#F30009;" d="M370.649,223.722c-1.004,0.032-1.959,0.43-2.844,1.003c-1.704,1.103-3.202,2.465-4.62,3.9
			c-8.231,8.329-14.469,18.035-19.549,28.522c-1.225,2.528-2.036,5.205-2.187,8.045c-0.111,2.082,1.173,3.097,3.18,2.503
			c0.927-0.275,1.651-0.88,2.407-1.447c2.173-1.629,3.729-3.8,5.289-5.968c7.658-10.642,13.386-22.445,20.207-33.592
			C373.398,225.273,372.396,223.75,370.649,223.722z"/>
		<path style="fill:#F30009;" d="M303.467,225.79c-0.465-2.163-1.594-3.029-3.779-2.896c-0.792,0.048-1.548,0.251-2.228,0.639
			c-1.586,0.906-3.068,1.955-4.279,3.348c-5.15,5.924-1.959,13.341,4.782,15.73c0.521,0.185,0.832,0.033,1.073-0.48
			c0.511-1.085,1.136-2.118,1.615-3.216c1.52-3.486,3.032-6.981,3.001-10.897C303.685,227.269,303.626,226.527,303.467,225.79z"/>
		<path style="fill:#F30009;" d="M407.603,110.087c-19.45-33.321-45.833-59.704-79.155-79.153
			c-33.328-19.448-69.711-29.17-109.176-29.17c-39.461,0-75.854,9.722-109.177,29.17C76.771,50.38,50.388,76.763,30.938,110.087
			c-19.451,33.326-29.173,69.72-29.173,109.178c0,39.46,9.725,75.847,29.17,109.175c19.449,33.321,45.832,59.704,79.156,79.155
			c33.326,19.447,69.717,29.17,109.177,29.17s75.854-9.723,109.179-29.17c33.322-19.444,59.704-45.834,79.152-79.155
			c19.445-33.325,29.166-69.718,29.166-109.175C436.766,179.803,427.044,143.409,407.603,110.087z M211.326,195.583
			c1.284-2.254,2.736-4.412,4.101-6.62c0.25-0.405,0.482-0.647,1.03-0.642c3.61,0.032,7.221,0.017,10.946,0.017
			c-0.311,0.902-0.887,1.59-1.335,2.335c-1.491,2.474-3.049,4.908-4.524,7.391c-0.407,0.686-0.836,0.975-1.666,0.962
			c-3.473-0.054-6.948-0.023-10.509-0.023C209.84,197.712,210.69,196.701,211.326,195.583z M192.943,282.505
			c-2.939-2.082-6.072-3.798-9.384-5.124c-3.374-1.351-6.817-2.523-10.443-3.097c-1.171-0.186-2.352-0.343-3.521-0.555
			c-0.387-0.2-0.825,0.017-1.216-0.149c-0.558-0.017-1.117-0.033-1.675-0.05c-0.776-0.132-1.552-0.132-2.327,0
			c-0.559,0.018-1.117,0.037-1.676,0.055c-0.529,0.166-1.092-0.064-1.617,0.142c-2.887,0.153-5.469,1.16-7.874,2.729
			c-2.032,1.326-3.718,2.976-5.013,5.026c-0.266,0.421-0.386,0.563-0.739-0.022c-2.897-4.799-7.005-8.229-12.172-10.337
			c-2.616-1.067-5.336-1.865-8.186-2.065c-0.323-0.023-0.555-0.36-0.906-0.216c-0.319-0.187-0.694,0.005-1.018-0.148
			c-0.364-0.018-0.729-0.035-1.093-0.053c-0.403-0.175-0.846,0.007-1.252-0.138c-2.154-0.136-4.307-0.145-6.461-0.003
			c-0.536,0.167-1.106-0.055-1.64,0.142c-0.431,0.019-0.862,0.038-1.293,0.057c-0.333,0.139-0.708-0.03-1.038,0.14
			c-2.22,0.045-4.398,0.462-6.573,0.827c-3.852,0.645-7.66,1.525-11.438,2.519c-2.797,0.736-5.567,1.581-8.377,2.259
			c-5.348,1.292-10.702,2.564-16.081,3.717c-2.933,0.628-5.921,0.995-8.885,1.48c-0.323,0.156-0.699-0.039-1.017,0.15
			c-0.313,0.017-0.625,0.034-0.938,0.05c-0.605,0.167-1.24-0.061-1.842,0.14c-0.726-0.083-1.452-0.073-2.178,0.001
			c-0.665-0.211-1.364,0.036-2.031-0.145c-0.307-0.017-0.614-0.033-0.922-0.05c-0.326-0.177-0.705,0.009-1.034-0.149
			c-4.963-0.622-9.528-2.284-13.654-5.142c-3.053-2.115-5.5-4.778-7.379-7.965c-1.706-2.893-2.662-6.052-3.36-9.323
			c-0.324-1.521-0.528-3.041-0.666-4.58c-0.164-0.47,0.046-0.977-0.143-1.444c0-1.898-0.001-3.796-0.001-5.694
			c0.188-0.471-0.016-0.981,0.142-1.455c0.141-2.932,0.586-5.834,1.25-8.678c0.891-3.819,1.94-7.601,3.325-11.288
			c0.937-2.494,1.87-4.993,3.034-7.378c1.085-2.224,2.214-4.435,3.397-6.616c3.096-5.712,6.696-11.088,10.648-16.226
			c1.656-2.153,3.451-4.204,5.217-6.274c2.832-3.317,5.904-6.388,9.055-9.375c4.629-4.388,9.525-8.498,14.885-11.959
			c5.983-3.864,12.282-7.16,19.258-8.922c1.528-0.386,3.098-0.607,4.649-0.903c0.329-0.146,0.704,0.034,1.029-0.144
			c0.439-0.018,0.878-0.036,1.317-0.054c1.039-0.094,2.079-0.096,3.118,0.001c2.146,0.462,4.094,1.29,5.688,2.873
			c2.269,2.253,2.948,5.072,2.669,8.086c-0.428,4.614-2.57,8.521-5.563,11.976c-1.187,1.37-2.789,2.047-4.553,2.357
			c-0.323,0.088-0.646,0.093-0.968-0.004c-1.678-0.222-2.284-0.87-2.776-2.969c-0.098-0.648-0.094-1.297-0.002-1.945
			c0.394-3.206,2.2-5.554,4.693-7.393c1.038-0.765,2.386-0.924,3.675-0.98c0.632-0.027,0.911-0.295,1.085-0.861
			c0.879-2.861-0.912-5.163-4.143-5.276c-1.811-0.063-3.488,0.502-5.139,1.119c-4.172,1.559-7.959,3.819-11.478,6.528
			c-2.624,2.02-5.079,4.234-7.447,6.551c-7.432,7.274-13.968,15.291-19.882,23.829c-4.13,5.962-7.822,12.185-10.918,18.746
			c-3.53,7.482-6.199,15.256-7.719,23.407c-0.12,0.644-0.176,1.276-0.179,1.922c-0.203,0.385,0.018,0.823-0.151,1.213
			c-0.017,0.365-0.034,0.73-0.051,1.096c-0.21,0.732,0.037,1.494-0.142,2.228c0,0.654,0,1.309,0,1.963
			c0.178,0.667-0.065,1.363,0.142,2.027c0.269,5.57,1.959,10.586,6.214,14.369c2.409,2.142,5.369,3.494,8.437,4.509
			c1.95,0.645,3.927,1.215,6.014,1.202c0.401,0.177,0.843-0.011,1.246,0.14c1.436,0.118,2.873,0.111,4.31,0.002
			c0.524-0.178,1.087,0.066,1.608-0.148c3.248-0.12,6.42-0.761,9.579-1.449c12.158-2.65,24.199-5.783,36.281-8.749
			c5.781-1.419,11.624-2.539,17.559-3.116c0.483-0.047,0.961-0.148,1.441-0.225c0.346-0.134,0.729,0.016,1.072-0.141
			c0.359-0.017,0.719-0.034,1.078-0.051c0.529-0.175,1.094,0.061,1.62-0.146c0.633-0.018,1.266-0.036,1.899-0.055
			c2.278-0.094,4.555-0.097,6.833,0.001c0.56,0.019,1.121,0.037,1.681,0.056c0.402,0.178,0.846-0.01,1.251,0.142
			c0.312,0.016,0.624,0.032,0.936,0.048c0.32,0.187,0.695-0.006,1.019,0.15c4.101,0.606,8.149,1.432,12.058,2.857
			c4.626,1.687,8.825,4.145,12.828,6.974c4.554,3.218,8.979,6.591,12.917,10.56c0.57,0.575,1.104,1.188,1.619,1.813
			C192.774,281.729,193.121,282.002,192.943,282.505z M184.506,242.419c-2.334,2.043-4.745,4.01-7.49,5.468
			c-1.455,0.773-3.033,1.379-4.737,1.458c-0.323,0.085-0.646,0.09-0.968-0.004c-3.133-0.039-4.466-2.389-4.993-4.414
			c-0.243-0.935-0.063-1.981-0.075-2.976c0.192-0.464-0.021-0.969,0.143-1.437c0.007-0.695-0.298-0.39-0.513-0.139
			c-0.969,1.134-2.038,2.166-3.157,3.149c-2.672,2.347-5.487,4.454-8.982,5.438c-0.463,0.13-0.929,0.249-1.394,0.373
			c-0.844,0.109-1.689,0.104-2.533,0.003c-3.206-0.398-5.046-2.287-5.783-5.344c-0.119-0.492-0.084-1.022-0.12-1.534
			c-0.098-0.518-0.098-1.037,0-1.555c0.086-2.259,0.661-4.427,1.225-6.598c0.054-0.224,0.236-0.517-0.243-0.457
			c-1.257,1.172-2.542,2.315-3.764,3.521c-3.552,3.504-7.294,6.78-11.651,9.246c-2.536,1.436-5.281,2.407-8.215,2.725
			c-0.603,0.17-1.237-0.062-1.837,0.141h-0.03c-0.601-0.203-1.235,0.03-1.838-0.142c-4.881-0.518-7.764-4.381-8.756-8.71
			c-0.29-1.266-0.313-2.561-0.475-3.84c-0.128-0.346,0.018-0.727-0.138-1.069c0-0.525,0-1.05,0.001-1.576
			c0.162-0.338,0.002-0.72,0.143-1.06c0.41-3.474,1.735-6.658,3.058-9.852c1.084-2.616,2.522-5.057,3.669-7.64
			c0.274-0.617,0.808-1.105,1.037-1.843c-1.919,0.312-3.656,0.976-5.493,1.188c-0.402,0.046-0.605,0.41-0.817,0.754
			c-2.563,4.166-4.968,8.43-7.752,12.456c-3.576,5.171-7.845,9.724-12.519,13.909c-2.448,2.192-5.05,4.17-8.026,5.604
			c-1.592,0.767-3.241,1.384-4.995,1.676c-0.844,0.108-1.688,0.096-2.532,0.008c-3.946-0.535-5.85-2.969-6.802-6.372
			c-0.317-1.133-0.368-2.289-0.469-3.445c-0.1-0.844-0.1-1.689,0-2.533c0.016-0.375,0.033-0.75,0.049-1.125
			c0.182-0.323-0.006-0.699,0.148-1.026c0.452-3.897,1.671-7.568,3.134-11.191c1.551-3.838,3.536-7.44,5.743-10.912
			c1.812-2.85,3.878-5.535,6.043-8.137c2.005-2.41,4.076-4.762,6.36-6.91c3.675-3.456,7.584-6.602,12.145-8.846
			c2.18-1.072,4.473-1.794,6.883-2.133c0.779-0.099,1.558-0.102,2.337,0.002c4.502,0.659,6.353,3.691,6.882,7.857
			c0.095,0.844,0.096,1.688,0,2.532c-0.474,4.214-1.795,8.187-3.432,12.07c-0.134,0.317-0.466,0.754-0.252,0.961
			c0.284,0.275,0.806,0.176,1.207,0.029c2.271-0.832,4.285-2.123,6.269-3.481c4.03-2.759,7.293-6.354,10.737-9.755
			c3.247-3.207,6.742-6.109,10.807-8.25c1.977-1.041,4.089-1.672,6.304-1.961c0.91-0.103,1.819-0.107,2.729,0.002
			c1.957,0.395,3.852,0.898,5.278,2.462c1.206,1.323,1.813,2.906,2.189,4.61c0.1,0.779,0.096,1.557,0.002,2.336
			c-0.756,4.391-2.538,8.269-5.717,11.451c-0.946,0.947-2.021,1.687-3.316,2.073c-0.452,0.109-0.905,0.09-1.358,0.012
			c-1.755-0.516-2.428-1.243-2.577-2.783c-0.109-0.518-0.095-1.036-0.01-1.555c0.237-3.02,3.432-7.307,6.34-7.712
			c0.224-0.031,0.458-0.042,0.667-0.118c0.576-0.209,1.391,0.209,1.744-0.483c0.472-0.924,0.477-1.918-0.021-2.873
			c-0.452-0.867-1.809-1.483-3.006-1.331c-1.794,0.228-3.37,0.974-4.768,2.1c-4.984,4.014-9.161,8.758-12.751,14.042
			c-4.282,6.303-7.696,13.033-10.107,20.266c-0.368,1.105-0.635,2.231-0.559,3.41c-0.131,0.691-0.137,1.382,0.001,2.072
			c0.053,2.305,0.895,4.147,3.057,5.218c0.32,0.159,0.648,0.269,1.012,0.218c0.687,0.134,1.375,0.135,2.062,0
			c2.131-0.257,3.904-1.351,5.632-2.494c1.7-1.124,3.242-2.451,4.702-3.883c3.153-3.093,6.079-6.38,8.884-9.795
			c3.885-4.73,7.204-9.869,10.898-14.735c1.815-2.39,3.726-4.7,5.671-6.988c2.06-2.424,4.228-4.734,6.538-6.902
			c3.055-2.867,6.291-5.515,10.155-7.274c1.519-0.692,3.109-1.102,4.751-1.347c0.453-0.104,0.906-0.099,1.36-0.003
			c2.688,0.477,3.281,0.85,5.896,3.713c0.201-0.22,0.513-0.409,0.587-0.666c0.408-1.431,1.453-1.469,2.684-1.447
			c3.418,0.062,6.838,0.021,10.44,0.021c-0.648,1.156-1.235,2.229-1.846,3.288c-3.312,5.737-6.632,11.47-9.947,17.206
			c-4.619,7.991-9.242,15.979-13.843,23.98c-0.311,0.54-0.721,1.084-0.63,1.784c-0.125,0.48-0.144,0.96,0.01,1.438
			c0.367,0.876,1.062,1.101,2.022,0.612c1.365-0.695,2.559-1.64,3.757-2.584c2.087-1.645,3.849-3.628,5.598-5.594
			c2.048-2.303,3.963-4.733,5.787-7.227c0.715-0.978,1.472-1.924,2.209-2.885c1.201-0.068,2.404-0.018,3.605-0.023
			c0.187-0.001,0.5-0.122,0.473,0.279c-2.355,3.263-4.651,6.57-7.078,9.778C193.428,233.445,189.291,238.231,184.506,242.419z
			 M245.781,267.759c-4.201,3.995-8.782,7.482-14.063,9.944c-2.656,1.238-5.504,1.84-8.414,2.138
			c-1.105,0.094-2.209,0.096-3.314-0.002c-4.565-0.265-8.229-2.329-11.211-5.69c-2.431-2.74-3.94-5.966-4.77-9.517
			c-0.308-1.315-0.643-2.628-0.673-3.991c-0.159-0.397,0.043-0.837-0.145-1.232c-0.017-0.632-0.034-1.264-0.052-1.896
			c-0.099-0.518-0.098-1.037,0-1.555c0.017-0.634,0.034-1.268,0.051-1.902c0.202-0.458-0.024-0.96,0.146-1.421
			c0.329-4.272,1.513-8.34,2.851-12.386c1.018-3.079,2.072-6.148,3.381-9.105c1.432-3.234,2.935-6.44,4.638-9.555
			c1.903-3.479,3.874-6.921,6.03-10.239c3.053-4.696,6.251-9.303,9.7-13.724c1.969-2.525,4.083-4.926,6.181-7.345
			c3.208-3.699,6.551-7.262,10.095-10.631c2.135-2.03,4.348-3.986,6.615-5.869c4.647-3.86,9.579-7.316,14.888-10.221
			c5.048-2.761,10.3-5.035,15.897-6.396c3.448-0.839,6.951-1.05,10.416,0.06c1.541,0.494,2.937,1.258,4.083,2.4
			c0.448,0.447,0.805,0.447,1.354,0.25c3.363-1.21,6.719-2.436,10.291-2.943c2.628-0.373,5.26-0.305,7.896-0.267
			c0.335,0.164,0.716-0.005,1.053,0.146c3.129,0.554,6.206,1.278,9.168,2.472c3.116,1.256,5.986,2.973,8.917,4.58
			c4.708,2.581,9.378,5.229,13.952,8.041c0.847,0.521,1.695,1.04,2.599,1.594c-2.003,2.016-3.985,3.934-5.809,6.004
			c-1.008,1.144-2.057,2.253-3.04,3.418c-0.404,0.479-0.764,0.529-1.29,0.248c-3.434-1.833-6.624-4.056-9.889-6.16
			c-4.546-2.929-9.008-5.995-13.796-8.534c-3.456-1.833-7.095-3.205-10.882-4.166c-0.962-0.244-1.955-0.456-2.967-0.448
			c-0.701-0.145-1.402-0.123-2.104-0.002c-0.878-0.021-1.714,0.117-2.449,0.641c-0.177,0.535-0.132,1.073-0.019,1.611
			c0,0.791,0,1.581,0,2.372c-0.188,0.47,0.014,0.977-0.14,1.45c-0.644,5.592-2.602,10.774-5.029,15.791
			c-1.832,3.787-4.318,7.166-6.91,10.457c-2.502,3.177-5.367,5.973-8.855,8.083c-1.631,0.987-3.389,1.661-5.196,2.227
			c-0.215,0.067-0.426,0.15-0.639,0.226c-0.713,0.115-1.427,0.097-2.142,0.01c-3.671-0.099-5.12-3.424-5.424-6.114
			c-0.022-0.192-0.058-0.383-0.087-0.574c-0.099-0.583-0.097-1.167-0.001-1.751c0.267-4.269,2.31-7.901,4.146-11.612
			c1.616-3.266,3.665-6.25,5.96-9.054c2.917-3.564,6.162-6.804,9.79-9.672c2.406-1.902,4.846-3.733,7.477-5.308
			c0.076-0.045,0.116-0.151,0.204-0.271c-0.71-0.161-1.342-0.504-2.068-0.467c-0.638-0.133-1.276-0.129-1.914-0.002
			c-1.525,0.04-2.986,0.406-4.349,1.05c-5.73,2.704-11.003,6.128-15.883,10.167c-3.057,2.53-6.006,5.178-8.759,8.031
			c-4.531,4.696-8.783,9.64-12.785,14.794c-3.006,3.872-6.082,7.691-8.767,11.805c-3.938,6.034-7.709,12.166-10.927,18.617
			c-3.317,6.649-5.975,13.556-7.573,20.83c-0.488,2.224-1.004,4.459-1.061,6.757c-0.186,0.32,0.006,0.695-0.149,1.02
			c-0.073,0.423-0.151,0.845-0.048,1.274c-0.13,0.58-0.134,1.161-0.003,1.742c0.105,5.048,1.784,9.23,6.611,11.532
			c2.766,1.319,5.564,0.904,8.324-0.207c3.035-1.222,5.607-3.14,8.121-5.178c1.87-1.516,3.569-3.224,5.152-5
			c2.416-2.71,4.632-5.604,6.574-8.696c2.321-3.696,4.351-7.517,5.767-11.666c0.758-2.221,1.439-4.442,1.698-6.778
			c0.031-0.283,0.343-0.489,0.212-0.811c0.191-0.392-0.016-0.831,0.146-1.226c0.198-1.316-0.02-2.607-0.322-3.873
			c-0.251-1.05-0.837-1.89-1.965-2.201c-0.693-0.167-1.387-0.119-2.082-0.012c-1.822,0.171-3.185,1.246-4.367,2.467
			c-3.63,3.749-6.117,8.195-7.644,13.175c-0.386,1.257-0.687,2.544-0.958,3.831c-0.078,0.372-0.214,0.548-0.537,0.701
			c-5.773,2.734-10.629,6.688-15.006,11.281c-0.163,0.171-0.319,0.539-0.599,0.372c-0.282-0.169,0.033-0.436,0.059-0.662
			c0.155-1.347,0.412-2.675,0.624-4.011c0.327-2.055,0.758-4.083,1.395-6.052c0.916-2.832,1.892-5.659,3.199-8.333
			c1.522-3.113,3.271-6.09,5.582-8.73c1.932-2.207,3.951-4.293,6.349-5.984c2.995-2.111,6.264-3.613,9.89-4.275
			c0.445-0.081,0.89-0.161,1.334-0.241c0.714-0.105,1.428-0.097,2.142-0.004c3.934,0.81,5.84,3.434,6.461,7.214
			c0.047,0.285,0.146,0.561,0.221,0.841c0.145,0.339-0.018,0.72,0.144,1.057c0.001,1.058,0.002,2.117,0.003,3.175
			c-0.187,0.395,0.013,0.835-0.144,1.233c-1.089,8.238-4.601,15.51-8.914,22.472C254.162,258.683,250.283,263.478,245.781,267.759z
			 M364.003,267.9c0.368,0.123,0.737,0.118,1.105,0.001c1.922-1.031,3.625-2.368,5.214-3.844
			c4.891-4.543,8.554-10.053,12.182-15.586c0.308-0.47,0.64-0.686,1.222-0.659c1.072,0.05,2.148,0.014,3.408,0.014
			c-0.772,1.248-1.453,2.421-2.202,3.548c-3.867,5.818-7.967,11.455-12.67,16.643c-2.866,3.162-5.888,6.143-9.5,8.424
			c-2.219,1.401-4.479,2.807-7.108,3.393c-0.779,0.104-1.558,0.106-2.337-0.001c-2.709-0.167-4.012-2.205-4.435-4.395
			c-0.33-1.709-0.252-3.409-0.037-5.319c-0.945,0.867-1.802,1.612-2.615,2.404c-2.617,2.551-5.525,4.713-8.775,6.369
			c-0.943,0.481-2.019,0.804-3.109,0.944c-0.648,0.103-1.297,0.096-1.946,0.004c-2.228-0.152-3.942-1.166-5.082-3.091
			c-0.832-1.405-1.109-2.97-1.212-4.574c-0.102-0.909-0.101-1.819-0.001-2.728c0.019-0.367,0.037-0.735,0.056-1.102
			c0.003-0.211,0.306-0.583-0.262-0.486c-1.724,1.891-3.402,3.821-5.239,5.61c-2.349,2.288-4.925,4.255-7.888,5.662
			c-0.818,0.388-1.776,0.483-2.67,0.712c-0.714,0.084-1.427,0.095-2.14-0.006c-2.504-0.276-4.023-1.908-5.284-3.871
			c-0.738-1.149-1.016-2.459-1.202-3.791c-0.163-0.403,0.035-0.849-0.147-1.25c0-0.791,0.001-1.583,0.001-2.374
			c0.159-0.338,0.006-0.717,0.138-1.058c0.574-5.671,2.454-11,4.264-16.349c0.507-1.497,0.963-3.012,1.482-4.641
			c-0.913,0.172-1.749,0.329-2.585,0.486c-0.323,0.162-0.7-0.037-1.018,0.153c-0.313,0.018-0.626,0.035-0.938,0.053
			c-0.406,0.143-0.847-0.038-1.249,0.137c-0.677-0.157-1.039,0.147-1.375,0.74c-3.452,6.084-7.217,11.962-11.695,17.352
			c-3.557,4.281-7.58,8.077-12.259,11.108c-2.396,1.552-4.946,2.849-7.827,3.305c-0.41,0.153-0.859-0.033-1.267,0.146
			c-0.068-0.083-0.138-0.076-0.208-0.002c-0.404-0.175-0.846,0.004-1.253-0.137c-3.629-0.369-5.671-3.615-6.252-6.477
			c-0.121-0.595-0.08-1.196-0.235-1.777c-0.109-1.17-0.1-2.34-0.004-3.51c0.164-3.31,0.984-6.499,2.055-9.597
			c1.156-3.346,2.727-6.529,4.34-9.686c2.487-4.869,5.707-9.242,9.005-13.569c2.128-2.791,4.435-5.429,6.955-7.864
			c3.44-3.323,7.218-6.188,11.605-8.196c1.792-0.82,3.632-1.431,5.57-1.759c0.975-0.099,1.949-0.102,2.924,0.002
			c3.932,0.608,5.458,3.349,6.096,6.878c0.174,0.538-0.054,1.111,0.146,1.646c-0.083,0.2-0.097,0.399,0.002,0.598
			c-0.209,0.605,0.03,1.246-0.149,1.853c-0.017,0.241-0.033,0.481-0.05,0.722c-0.173,0.328,0.006,0.706-0.146,1.038
			c-0.988,4.34-2.542,8.476-4.529,12.451c-0.334,0.669-0.239,0.929,0.538,0.883c1.85-0.111,3.608-0.542,5.273-1.377
			c0.445-0.223,0.691-0.558,0.867-0.965c1.403-3.232,3.037-6.348,4.708-9.447c1.837-3.406,3.544-6.888,5.506-10.22
			c4.315-7.33,8.762-14.578,13.754-21.482c2.523-3.489,5.081-6.95,7.815-10.27c2.242-2.722,4.509-5.425,6.94-7.995
			c2.18-2.305,4.27-4.698,6.567-6.888c2.26-2.155,4.544-4.29,6.895-6.345c3.461-3.025,7.043-5.899,11.068-8.166
			c2.395-1.349,4.893-2.456,7.671-2.631c2.617-0.165,4.319,0.445,5.102,2.543c0.251,0.673,0.294,1.384,0.416,2.081
			c0.102,0.518,0.097,1.036,0.004,1.555c-0.321,3.529-1.743,6.676-3.382,9.747c-0.106,0.198-0.203,0.36-0.461,0.445
			c-1.337,0.438-2.682,0.825-4.114,0.993c1.365-3.349,3.473-6.32,4.032-9.922c0.106-0.67,0.161-1.34-0.021-2.007
			c-0.369-0.681-0.942-0.775-1.611-0.539c-2.133,0.752-3.923,2.067-5.606,3.525c-2.927,2.535-5.687,5.25-8.422,7.989
			c-4.701,4.709-8.808,9.914-12.758,15.253c-6.406,8.658-12.185,17.728-17.672,26.984c-2.815,4.748-5.52,9.566-7.948,14.53
			c-0.276,0.563-0.514,1.144-0.839,1.872c1.124-0.297,1.869-0.929,2.6-1.485c2.689-2.046,5.243-4.254,7.768-6.504
			c3.948-3.52,7.68-7.264,11.369-11.039c2.09-2.139,4.172-4.312,6.103-6.615c1.26-1.502,2.682-2.867,3.936-4.374
			c2.572-3.091,5.173-6.162,7.562-9.401c0.416-0.565,0.832-1.129,1.249-1.694c0.404-0.207,0.866,0.019,1.273-0.171
			c0.963,0.166,1.898-0.258,2.948-0.177c-1.455,2.576-3.26,4.802-4.999,7.069c-2.621,3.416-5.412,6.695-8.235,9.943
			c-1.83,2.106-3.709,4.172-5.614,6.21c-3.777,4.04-7.64,7.998-11.724,11.731c-5.09,4.653-10.364,9.1-16.051,13
			c-1.941,1.331-2.918,3.064-3.787,5.078c-2.018,4.679-3.875,9.412-5.135,14.356c-0.403,1.58-0.874,3.161-0.895,4.818
			c-0.123,0.706-0.133,1.411,0,2.117c0.088,2.901,2.164,3.578,3.607,2.82c0.935-0.491,1.799-1.151,2.561-1.909
			c3.528-3.511,6.329-7.565,8.952-11.773c2.33-3.738,4.82-7.376,7.262-11.044c2.01-3.018,4.173-5.932,6.443-8.755
			c2.339-2.908,4.759-5.761,7.502-8.305c3.117-2.89,6.362-5.619,10.14-7.641c1.683-0.901,3.493-1.336,5.362-1.59
			c0.584-0.095,1.167-0.099,1.751,0.002c2.612,0.204,4.27,1.825,5.621,3.851c0.373,0.559,0.558,0.545,0.863-0.002
			c0.232-0.416,0.636-0.776,0.743-1.215c0.306-1.255,1.172-1.256,2.2-1.243c3.606,0.043,7.212,0.017,10.94,0.017
			c-1.508,2.698-2.954,5.304-4.419,7.899c-2.419,4.284-4.875,8.549-7.273,12.844c-3.197,5.726-6.454,11.415-9.828,17.04
			c-1.736,2.895-3.395,5.839-4.557,9.029C363.005,266.806,363.152,267.447,364.003,267.9z M407.695,164.853
			c-2.168,2.989-4.525,5.827-7.193,8.388c-3.896,3.74-8.129,7.038-12.838,9.714c-2.789,1.585-5.689,2.936-8.696,4.017
			c-3.741,1.345-7.601,2.255-11.585,2.548c-1.626,0.103-3.252,0.095-4.878,0.004c-1.679-0.048-3.321-0.384-4.975-0.628
			c-0.274-0.041-0.525-0.163-0.63-0.349c-0.135-0.239,0.198-0.363,0.33-0.53c1.706-2.154,3.395-4.323,5.141-6.445
			c1.04-1.264,2.174-2.452,3.265-3.674c0.322-0.056,0.644-0.078,0.964,0.017c0.494,0.047,0.986,0.157,1.485,0.056
			c1.356,0.133,2.712,0.133,4.068,0c4.415-0.037,8.634-1.082,12.738-2.599c6.687-2.472,12.753-6.081,18.411-10.379
			c3.092-2.349,5.915-5.018,8.656-7.769c0.179,0.085,0.323,0.187,0.211,0.419C410.924,160.2,409.358,162.56,407.695,164.853z"/>
		<path style="fill:#F9F9F9;" d="M190.926,279.637c-3.938-3.969-8.363-7.342-12.917-10.56c-4.004-2.829-8.203-5.287-12.828-6.974
			c-3.91-1.426-7.957-2.251-12.058-2.857c-0.324-0.155-0.7,0.038-1.019-0.15c-0.312-0.016-0.624-0.032-0.936-0.048
			c-0.405-0.152-0.849,0.036-1.251-0.142c-0.56-0.019-1.121-0.037-1.681-0.056c-2.278-0.098-4.555-0.096-6.833-0.001
			c-0.633,0.018-1.266,0.036-1.899,0.055c-0.526,0.207-1.091-0.029-1.62,0.146c-0.359,0.017-0.719,0.034-1.078,0.051
			c-0.343,0.157-0.726,0.008-1.072,0.141c-0.48,0.076-0.958,0.177-1.441,0.225c-5.935,0.578-11.778,1.697-17.559,3.116
			c-12.082,2.966-24.123,6.099-36.281,8.749c-3.158,0.688-6.331,1.329-9.579,1.449c-0.521,0.214-1.084-0.03-1.608,0.148
			c-1.437,0.109-2.873,0.116-4.31-0.002c-0.404-0.151-0.846,0.037-1.246-0.14c-2.087,0.013-4.064-0.557-6.014-1.202
			c-3.068-1.015-6.028-2.367-8.437-4.509c-4.255-3.783-5.945-8.798-6.214-14.369c-0.207-0.665,0.036-1.361-0.142-2.027
			c0-0.654,0-1.309,0-1.963c0.18-0.734-0.068-1.495,0.142-2.228c0.017-0.365,0.034-0.73,0.051-1.096
			c0.168-0.39-0.052-0.827,0.151-1.213c0.003-0.646,0.059-1.277,0.179-1.922c1.52-8.151,4.189-15.925,7.719-23.407
			c3.096-6.561,6.788-12.783,10.918-18.746c5.914-8.538,12.45-16.555,19.882-23.829c2.368-2.318,4.823-4.531,7.447-6.551
			c3.519-2.709,7.306-4.969,11.478-6.528c1.651-0.617,3.328-1.182,5.139-1.119c3.231,0.113,5.022,2.415,4.143,5.276
			c-0.174,0.566-0.454,0.834-1.085,0.861c-1.289,0.055-2.637,0.215-3.675,0.98c-2.494,1.839-4.299,4.187-4.693,7.393
			c-0.092,0.648-0.096,1.297,0.002,1.945c0.492,2.099,1.098,2.747,2.776,2.969c0.322,0.098,0.645,0.092,0.968,0.004
			c1.764-0.31,3.366-0.986,4.553-2.357c2.993-3.455,5.135-7.361,5.563-11.976c0.279-3.013-0.4-5.833-2.669-8.086
			c-1.594-1.583-3.542-2.411-5.688-2.873c-1.039-0.097-2.079-0.095-3.118-0.001c-0.439,0.018-0.878,0.036-1.317,0.054
			c-0.325,0.177-0.7-0.002-1.029,0.144c-1.551,0.297-3.121,0.517-4.649,0.903c-6.976,1.762-13.275,5.058-19.258,8.922
			c-5.36,3.462-10.255,7.572-14.885,11.959c-3.151,2.987-6.224,6.058-9.055,9.375c-1.767,2.07-3.562,4.121-5.217,6.274
			c-3.952,5.139-7.552,10.514-10.648,16.226c-1.183,2.182-2.312,4.392-3.397,6.616c-1.163,2.385-2.097,4.885-3.034,7.378
			c-1.385,3.688-2.434,7.469-3.325,11.288c-0.664,2.844-1.109,5.746-1.25,8.678c-0.158,0.474,0.046,0.984-0.142,1.455
			c0,1.898,0.001,3.796,0.001,5.694c0.19,0.467-0.021,0.974,0.143,1.444c0.138,1.539,0.342,3.06,0.666,4.58
			c0.697,3.27,1.654,6.43,3.36,9.323c1.879,3.187,4.326,5.851,7.379,7.965c4.127,2.858,8.692,4.52,13.654,5.142
			c0.329,0.158,0.707-0.028,1.034,0.149c0.307,0.017,0.614,0.033,0.922,0.05c0.668,0.182,1.366-0.066,2.031,0.145
			c0.726-0.073,1.452-0.084,2.178-0.001c0.602-0.201,1.237,0.027,1.842-0.14c0.313-0.017,0.625-0.034,0.938-0.05
			c0.319-0.189,0.694,0.006,1.017-0.15c2.963-0.485,5.952-0.852,8.885-1.48c5.379-1.153,10.733-2.425,16.081-3.717
			c2.81-0.679,5.58-1.523,8.377-2.259c3.778-0.994,7.585-1.874,11.438-2.519c2.176-0.364,4.354-0.782,6.573-0.827
			c0.329-0.169,0.704-0.001,1.038-0.14c0.431-0.019,0.862-0.038,1.293-0.057c0.534-0.196,1.104,0.025,1.64-0.142
			c2.154-0.142,4.307-0.133,6.461,0.003c0.406,0.145,0.849-0.037,1.252,0.138c0.364,0.018,0.729,0.035,1.093,0.053
			c0.324,0.153,0.699-0.039,1.018,0.148c0.351-0.144,0.583,0.193,0.906,0.216c2.85,0.199,5.57,0.998,8.186,2.065
			c5.167,2.107,9.275,5.537,12.172,10.337c0.353,0.585,0.473,0.443,0.739,0.022c1.295-2.05,2.981-3.7,5.013-5.026
			c2.404-1.569,4.987-2.576,7.874-2.729c0.525-0.206,1.088,0.025,1.617-0.142c0.559-0.018,1.117-0.037,1.676-0.055
			c0.776-0.132,1.552-0.132,2.327,0c0.558,0.017,1.117,0.034,1.675,0.05c0.391,0.166,0.829-0.05,1.216,0.149
			c1.169,0.211,2.35,0.369,3.521,0.555c3.626,0.575,7.069,1.746,10.443,3.097c3.313,1.327,6.445,3.042,9.384,5.124
			c0.177-0.503-0.17-0.776-0.399-1.055C192.03,280.824,191.496,280.211,190.926,279.637z"/>
		<path style="fill:#F9F9F9;" d="M411.959,157.225c-2.741,2.751-5.564,5.42-8.656,7.769c-5.657,4.298-11.724,7.907-18.411,10.379
			c-4.104,1.517-8.323,2.562-12.738,2.599c-1.356,0.133-2.712,0.133-4.068,0c-0.5,0.102-0.991-0.009-1.485-0.056
			c-0.32-0.095-0.642-0.073-0.964-0.017c-1.091,1.222-2.225,2.41-3.265,3.674c-1.746,2.122-3.434,4.291-5.141,6.445
			c-0.132,0.167-0.465,0.291-0.33,0.53c0.105,0.186,0.356,0.308,0.63,0.349c1.654,0.245,3.296,0.581,4.975,0.628
			c1.626,0.091,3.252,0.1,4.878-0.004c3.984-0.293,7.844-1.203,11.585-2.548c3.007-1.081,5.907-2.432,8.696-4.017
			c4.709-2.676,8.942-5.973,12.838-9.714c2.668-2.561,5.025-5.398,7.193-8.388c1.663-2.293,3.229-4.654,4.475-7.209
			C412.282,157.412,412.138,157.31,411.959,157.225z"/>
		<path style="fill:#F9F9F9;" d="M219.878,199.024c0.83,0.013,1.259-0.276,1.666-0.962c1.475-2.483,3.033-4.917,4.524-7.391
			c0.449-0.745,1.025-1.433,1.335-2.335c-3.726,0-7.336,0.016-10.946-0.017c-0.548-0.005-0.78,0.237-1.03,0.642
			c-1.364,2.209-2.817,4.366-4.101,6.62c-0.637,1.118-1.486,2.129-1.957,3.418C212.93,199.001,216.405,198.97,219.878,199.024z"/>
		<path style="fill:#F9F9F9;" d="M367.991,256.6c3.374-5.624,6.631-11.314,9.828-17.04c2.398-4.296,4.854-8.56,7.273-12.844
			c1.466-2.595,2.911-5.202,4.419-7.899c-3.728,0-7.334,0.027-10.94-0.017c-1.029-0.012-1.894-0.012-2.2,1.243
			c-0.107,0.439-0.511,0.799-0.743,1.215c-0.305,0.547-0.49,0.562-0.863,0.002c-1.351-2.025-3.009-3.647-5.621-3.851
			c-0.583-0.101-1.167-0.097-1.751-0.002c-1.869,0.254-3.679,0.689-5.362,1.59c-3.778,2.022-7.024,4.751-10.14,7.641
			c-2.743,2.544-5.163,5.398-7.502,8.305c-2.271,2.823-4.433,5.736-6.443,8.755c-2.442,3.667-4.932,7.306-7.262,11.044
			c-2.623,4.209-5.424,8.262-8.952,11.773c-0.762,0.759-1.626,1.418-2.561,1.909c-1.443,0.758-3.519,0.081-3.607-2.82
			c-0.134-0.706-0.123-1.411,0-2.117c0.021-1.657,0.492-3.238,0.895-4.818c1.26-4.944,3.117-9.677,5.135-14.356
			c0.868-2.014,1.846-3.747,3.787-5.078c5.686-3.9,10.961-8.347,16.051-13c4.083-3.733,7.947-7.69,11.724-11.731
			c1.905-2.038,3.784-4.104,5.614-6.21c2.823-3.249,5.614-6.527,8.235-9.943c1.739-2.267,3.544-4.493,4.999-7.069
			c-1.05-0.081-1.985,0.343-2.948,0.177c-0.406,0.191-0.869-0.035-1.273,0.171c-0.416,0.565-0.832,1.129-1.249,1.694
			c-2.389,3.24-4.99,6.31-7.562,9.401c-1.254,1.506-2.676,2.872-3.936,4.374c-1.931,2.302-4.012,4.476-6.103,6.615
			c-3.69,3.775-7.421,7.519-11.369,11.039c-2.524,2.251-5.079,4.458-7.768,6.504c-0.73,0.556-1.476,1.189-2.6,1.485
			c0.325-0.727,0.564-1.308,0.839-1.872c2.428-4.964,5.132-9.782,7.948-14.53c5.488-9.256,11.266-18.326,17.672-26.984
			c3.95-5.339,8.057-10.543,12.758-15.253c2.735-2.74,5.495-5.454,8.422-7.989c1.683-1.458,3.473-2.773,5.606-3.525
			c0.669-0.236,1.242-0.143,1.611,0.539c0.182,0.667,0.127,1.337,0.021,2.007c-0.559,3.602-2.667,6.573-4.032,9.922
			c1.432-0.168,2.777-0.555,4.114-0.993c0.258-0.085,0.355-0.246,0.461-0.445c1.639-3.072,3.061-6.218,3.382-9.747
			c0.093-0.519,0.098-1.037-0.004-1.555c-0.122-0.697-0.165-1.408-0.416-2.081c-0.783-2.097-2.485-2.707-5.102-2.543
			c-2.778,0.175-5.276,1.282-7.671,2.631c-4.024,2.267-7.607,5.141-11.068,8.166c-2.351,2.055-4.635,4.189-6.895,6.345
			c-2.297,2.19-4.387,4.583-6.567,6.888c-2.431,2.571-4.698,5.274-6.94,7.995c-2.734,3.32-5.292,6.781-7.815,10.27
			c-4.992,6.903-9.439,14.152-13.754,21.482c-1.962,3.332-3.669,6.814-5.506,10.22c-1.671,3.099-3.305,6.215-4.708,9.447
			c-0.177,0.407-0.423,0.742-0.867,0.965c-1.665,0.835-3.422,1.266-5.273,1.377c-0.776,0.047-0.872-0.214-0.538-0.883
			c1.986-3.975,3.541-8.111,4.529-12.451c0.153-0.331-0.026-0.709,0.146-1.038c0.017-0.241,0.033-0.481,0.05-0.722
			c0.179-0.607-0.06-1.248,0.149-1.853c-0.099-0.199-0.085-0.398-0.002-0.598c-0.2-0.535,0.028-1.108-0.146-1.646
			c-0.638-3.528-2.163-6.269-6.096-6.878c-0.975-0.104-1.949-0.101-2.924-0.002c-1.938,0.328-3.778,0.939-5.57,1.759
			c-4.387,2.008-8.165,4.873-11.605,8.196c-2.52,2.435-4.827,5.073-6.955,7.864c-3.298,4.327-6.518,8.7-9.005,13.569
			c-1.612,3.157-3.184,6.34-4.34,9.686c-1.07,3.099-1.891,6.287-2.055,9.597c-0.096,1.17-0.105,2.34,0.004,3.51
			c0.155,0.581,0.114,1.181,0.235,1.777c0.581,2.861,2.624,6.108,6.252,6.477c0.407,0.142,0.85-0.038,1.253,0.137
			c0.07-0.074,0.139-0.081,0.208,0.002c0.407-0.178,0.856,0.007,1.267-0.146c2.881-0.455,5.432-1.753,7.827-3.305
			c4.68-3.032,8.703-6.827,12.259-11.108c4.478-5.39,8.244-11.269,11.695-17.352c0.336-0.592,0.698-0.897,1.375-0.74
			c0.402-0.175,0.843,0.006,1.249-0.137c0.313-0.018,0.626-0.035,0.938-0.053c0.318-0.19,0.695,0.009,1.018-0.153
			c0.836-0.157,1.672-0.314,2.585-0.486c-0.519,1.629-0.975,3.143-1.482,4.641c-1.81,5.349-3.691,10.678-4.264,16.349
			c-0.132,0.342,0.021,0.72-0.138,1.058c0,0.791-0.001,1.583-0.001,2.374c0.182,0.401-0.016,0.847,0.147,1.25
			c0.185,1.332,0.464,2.642,1.202,3.791c1.261,1.963,2.779,3.595,5.284,3.871c0.713,0.101,1.427,0.09,2.14,0.006
			c0.894-0.229,1.851-0.324,2.67-0.712c2.963-1.407,5.539-3.374,7.888-5.662c1.837-1.789,3.515-3.72,5.239-5.61
			c0.568-0.097,0.265,0.275,0.262,0.486c-0.019,0.367-0.037,0.735-0.056,1.102c-0.1,0.909-0.102,1.819,0.001,2.728
			c0.102,1.605,0.38,3.17,1.212,4.574c1.14,1.925,2.854,2.939,5.082,3.091c0.649,0.092,1.297,0.099,1.946-0.004
			c1.09-0.14,2.166-0.463,3.109-0.944c3.25-1.656,6.158-3.818,8.775-6.369c0.812-0.792,1.669-1.538,2.615-2.404
			c-0.215,1.91-0.293,3.61,0.037,5.319c0.423,2.19,1.726,4.228,4.435,4.395c0.779,0.106,1.558,0.105,2.337,0.001
			c2.629-0.585,4.889-1.991,7.108-3.393c3.612-2.281,6.634-5.262,9.5-8.424c4.703-5.189,8.803-10.825,12.67-16.643
			c0.749-1.127,1.43-2.3,2.202-3.548c-1.26,0-2.336,0.036-3.408-0.014c-0.582-0.027-0.914,0.189-1.222,0.659
			c-3.628,5.533-7.292,11.043-12.182,15.586c-1.589,1.476-3.292,2.813-5.214,3.844c-0.369,0.117-0.737,0.122-1.105-0.001
			c-0.85-0.453-0.998-1.095-0.569-2.271C364.596,262.439,366.254,259.495,367.991,256.6z M296.325,247.021
			c-3.442,6.705-7.596,12.881-13.272,17.926c-1.171,1.041-2.463,1.925-3.952,2.461c-2.916,1.05-5.162-0.448-5.352-3.549
			c-0.169-2.767,0.632-5.349,1.624-7.863c2.655-6.731,6.448-12.813,10.795-18.565c0.037-0.049,0.107-0.072,0.206-0.136
			c2.1,4.122,5.456,6.799,9.44,8.798C296.198,246.285,296.678,246.333,296.325,247.021z M300.651,238.916
			c-0.479,1.098-1.104,2.131-1.615,3.216c-0.242,0.514-0.552,0.665-1.073,0.48c-6.741-2.39-9.932-9.806-4.782-15.73
			c1.211-1.393,2.693-2.442,4.279-3.348c0.68-0.389,1.436-0.591,2.228-0.639c2.185-0.133,3.314,0.733,3.779,2.896
			c0.158,0.736,0.218,1.478,0.184,2.228C303.682,231.934,302.17,235.43,300.651,238.916z M352.326,260.278
			c-1.56,2.168-3.116,4.338-5.289,5.968c-0.756,0.567-1.48,1.172-2.407,1.447c-2.007,0.595-3.291-0.421-3.18-2.503
			c0.151-2.84,0.963-5.517,2.187-8.045c5.08-10.487,11.319-20.193,19.549-28.522c1.417-1.434,2.915-2.797,4.62-3.9
			c0.885-0.573,1.84-0.97,2.844-1.003c1.747,0.028,2.749,1.551,1.884,2.964C365.712,237.833,359.983,249.637,352.326,260.278z"/>
		<path style="fill:#F9F9F9;" d="M203.858,218.331c-1.202,0.005-2.404-0.045-3.605,0.023c-0.738,0.961-1.495,1.908-2.209,2.885
			c-1.823,2.494-3.739,4.925-5.787,7.227c-1.749,1.966-3.511,3.949-5.598,5.594c-1.198,0.944-2.392,1.889-3.757,2.584
			c-0.96,0.489-1.655,0.264-2.022-0.612c-0.154-0.478-0.135-0.958-0.01-1.438c-0.091-0.699,0.319-1.244,0.63-1.784
			c4.601-8.001,9.224-15.99,13.843-23.98c3.315-5.736,6.635-11.469,9.947-17.206c0.611-1.059,1.198-2.131,1.846-3.288
			c-3.602,0-7.022,0.04-10.44-0.021c-1.231-0.022-2.275,0.016-2.684,1.447c-0.073,0.257-0.386,0.446-0.587,0.666
			c-2.615-2.863-3.208-3.236-5.896-3.713c-0.454-0.095-0.907-0.101-1.36,0.003c-1.642,0.244-3.232,0.655-4.751,1.347
			c-3.864,1.759-7.099,4.407-10.155,7.274c-2.31,2.168-4.478,4.478-6.538,6.902c-1.945,2.289-3.856,4.598-5.671,6.988
			c-3.694,4.865-7.013,10.005-10.898,14.735c-2.804,3.414-5.73,6.702-8.884,9.795c-1.46,1.432-3.002,2.759-4.702,3.883
			c-1.728,1.143-3.502,2.236-5.632,2.494c-0.687,0.135-1.375,0.134-2.062,0c-0.364,0.051-0.692-0.06-1.012-0.218
			c-2.161-1.071-3.004-2.913-3.057-5.218c-0.138-0.691-0.132-1.381-0.001-2.072c-0.077-1.18,0.19-2.306,0.559-3.41
			c2.411-7.233,5.825-13.963,10.107-20.266c3.59-5.284,7.767-10.028,12.751-14.042c1.397-1.125,2.974-1.872,4.768-2.1
			c1.197-0.152,2.555,0.465,3.006,1.331c0.497,0.954,0.492,1.948,0.021,2.873c-0.353,0.692-1.168,0.274-1.744,0.483
			c-0.209,0.076-0.443,0.087-0.667,0.118c-2.908,0.405-6.103,4.692-6.34,7.712c-0.085,0.519-0.099,1.037,0.01,1.555
			c0.149,1.54,0.822,2.267,2.577,2.783c0.453,0.078,0.906,0.097,1.358-0.012c1.296-0.387,2.37-1.126,3.316-2.073
			c3.179-3.182,4.961-7.06,5.717-11.451c0.094-0.779,0.098-1.558-0.002-2.336c-0.376-1.704-0.983-3.287-2.189-4.61
			c-1.426-1.564-3.321-2.067-5.278-2.462c-0.91-0.109-1.819-0.105-2.729-0.002c-2.215,0.29-4.327,0.92-6.304,1.961
			c-4.065,2.141-7.56,5.043-10.807,8.25c-3.444,3.402-6.707,6.996-10.737,9.755c-1.984,1.358-3.998,2.649-6.269,3.481
			c-0.401,0.147-0.922,0.246-1.207-0.029c-0.214-0.207,0.119-0.644,0.252-0.961c1.638-3.883,2.959-7.856,3.432-12.07
			c0.096-0.844,0.095-1.688,0-2.532c-0.53-4.166-2.381-7.198-6.882-7.857c-0.779-0.103-1.558-0.1-2.337-0.002
			c-2.409,0.339-4.702,1.061-6.883,2.133c-4.561,2.243-8.47,5.39-12.145,8.846c-2.284,2.148-4.355,4.499-6.36,6.91
			c-2.164,2.602-4.231,5.287-6.043,8.137c-2.207,3.472-4.193,7.074-5.743,10.912c-1.464,3.623-2.682,7.294-3.134,11.191
			c-0.154,0.327,0.034,0.703-0.148,1.026c-0.016,0.375-0.033,0.75-0.049,1.125c-0.1,0.844-0.1,1.689,0,2.533
			c0.101,1.156,0.152,2.312,0.469,3.445c0.952,3.403,2.856,5.837,6.802,6.372c0.844,0.088,1.688,0.1,2.532-0.008
			c1.754-0.293,3.403-0.909,4.995-1.676c2.976-1.434,5.578-3.411,8.026-5.604c4.673-4.185,8.943-8.738,12.519-13.909
			c2.784-4.026,5.19-8.291,7.752-12.456c0.211-0.344,0.415-0.707,0.817-0.754c1.837-0.212,3.575-0.876,5.493-1.188
			c-0.229,0.738-0.763,1.227-1.037,1.843c-1.148,2.583-2.585,5.024-3.669,7.64c-1.323,3.194-2.648,6.378-3.058,9.852
			c-0.141,0.341,0.019,0.722-0.143,1.06c0,0.525,0,1.05-0.001,1.576c0.156,0.342,0.01,0.723,0.138,1.069
			c0.161,1.28,0.184,2.574,0.475,3.84c0.992,4.329,3.876,8.192,8.756,8.71c0.603,0.173,1.238-0.06,1.838,0.142h0.03
			c0.6-0.203,1.234,0.029,1.837-0.141c2.934-0.318,5.679-1.289,8.215-2.725c4.356-2.466,8.099-5.743,11.651-9.246
			c1.223-1.206,2.508-2.349,3.764-3.521c0.479-0.059,0.297,0.233,0.243,0.457c-0.564,2.17-1.14,4.338-1.225,6.598
			c-0.098,0.518-0.098,1.037,0,1.555c0.036,0.512,0.001,1.042,0.12,1.534c0.737,3.057,2.577,4.946,5.783,5.344
			c0.845,0.1,1.689,0.106,2.533-0.003c0.465-0.124,0.931-0.242,1.394-0.373c3.495-0.984,6.31-3.092,8.982-5.438
			c1.12-0.983,2.188-2.015,3.157-3.149c0.215-0.251,0.52-0.556,0.513,0.139c-0.164,0.467,0.049,0.972-0.143,1.437
			c0.012,0.995-0.168,2.041,0.075,2.976c0.527,2.025,1.86,4.375,4.993,4.414c0.322,0.094,0.645,0.089,0.968,0.004
			c1.703-0.079,3.282-0.685,4.737-1.458c2.745-1.458,5.156-3.425,7.49-5.468c4.785-4.188,8.922-8.974,12.747-14.03
			c2.427-3.208,4.723-6.516,7.078-9.778C204.358,218.209,204.045,218.331,203.858,218.331z M105.47,215.178
			c-0.066,0.108-0.074,0.253-0.139,0.362c-3.766,6.32-7.52,12.648-13.008,17.703c-1.152,1.061-2.4,1.99-3.732,2.818
			c-0.856,0.532-1.785,0.779-2.759,0.88c-2.081,0.215-3.6-1.267-3.872-3.739c-0.17-1.547,0.091-3.044,0.482-4.533
			c1.276-4.855,3.523-9.277,6.058-13.567c1.819-3.078,3.809-6.047,5.972-9.096c2.399,4.423,6.124,6.904,10.657,8.327
			C105.638,214.492,105.742,214.735,105.47,215.178z M110.415,205.144c-0.602,1.608-1.373,3.153-2.038,4.738
			c-0.202,0.482-0.459,0.753-1.017,0.675c-2.524-0.351-4.734-1.345-6.536-3.176c-1.798-1.827-2.356-4.008-1.702-6.46
			c0.894-3.352,2.962-5.943,5.957-7.504c4.262-2.222,6.841-0.67,6.96,4.335C111.947,200.315,111.306,202.765,110.415,205.144z
			 M174.015,224.234c-1.748,2.896-3.596,5.737-5.825,8.303c-1.527,1.758-3.27,3.261-5.271,4.464
			c-0.463,0.279-0.935,0.448-1.383,0.406c-1.64-0.001-2.625-1.166-2.421-2.804c0.328-2.644,1.313-5.089,2.367-7.505
			c3.183-7.299,7.606-13.837,12.419-20.13c2.552-3.336,5.135-6.649,7.901-9.814c1.432-1.639,3.101-2.973,5.087-3.875
			c0.927-0.421,1.906-0.694,2.928-0.286c1.16,0.463,1.478,1.372,0.871,2.458C185.28,205.132,179.745,214.74,174.015,224.234z"/>
		<path style="fill:#F9F9F9;" d="M266.495,229.693c-0.001-1.058-0.002-2.117-0.003-3.175c-0.162-0.337,0.002-0.718-0.144-1.057
			c-0.075-0.28-0.174-0.556-0.221-0.841c-0.621-3.78-2.528-6.404-6.461-7.214c-0.714-0.093-1.428-0.101-2.142,0.004
			c-0.445,0.08-0.89,0.16-1.334,0.241c-3.627,0.661-6.895,2.164-9.89,4.275c-2.399,1.69-4.418,3.776-6.349,5.984
			c-2.311,2.64-4.061,5.617-5.582,8.73c-1.307,2.675-2.283,5.501-3.199,8.333c-0.637,1.969-1.069,3.997-1.395,6.052
			c-0.212,1.336-0.469,2.665-0.624,4.011c-0.026,0.226-0.341,0.493-0.059,0.662c0.28,0.167,0.436-0.201,0.599-0.372
			c4.377-4.593,9.234-8.548,15.006-11.281c0.323-0.153,0.458-0.329,0.537-0.701c0.271-1.287,0.573-2.574,0.958-3.831
			c1.527-4.98,4.014-9.426,7.644-13.175c1.182-1.221,2.545-2.296,4.367-2.467c0.695-0.107,1.389-0.155,2.082,0.012
			c1.128,0.311,1.714,1.151,1.965,2.201c0.302,1.266,0.52,2.557,0.322,3.873c-0.162,0.395,0.045,0.834-0.146,1.226
			c0.131,0.322-0.181,0.528-0.212,0.811c-0.259,2.336-0.94,4.557-1.698,6.778c-1.416,4.149-3.446,7.97-5.767,11.666
			c-1.942,3.092-4.157,5.985-6.574,8.696c-1.584,1.776-3.282,3.484-5.152,5c-2.514,2.038-5.086,3.957-8.121,5.178
			c-2.76,1.111-5.558,1.526-8.324,0.207c-4.828-2.302-6.507-6.483-6.611-11.532c-0.131-0.581-0.128-1.161,0.003-1.742
			c-0.103-0.429-0.025-0.852,0.048-1.274c0.155-0.325-0.037-0.7,0.149-1.02c0.058-2.299,0.573-4.534,1.061-6.757
			c1.598-7.274,4.256-14.181,7.573-20.83c3.218-6.451,6.989-12.583,10.927-18.617c2.685-4.114,5.761-7.933,8.767-11.805
			c4.002-5.154,8.253-10.098,12.785-14.794c2.753-2.853,5.702-5.502,8.759-8.031c4.881-4.039,10.154-7.463,15.883-10.167
			c1.363-0.643,2.825-1.01,4.349-1.05c0.638-0.128,1.276-0.131,1.914,0.002c0.726-0.037,1.358,0.306,2.068,0.467
			c-0.088,0.12-0.129,0.225-0.204,0.271c-2.631,1.575-5.071,3.406-7.477,5.308c-3.628,2.868-6.873,6.109-9.79,9.672
			c-2.295,2.804-4.345,5.789-5.96,9.054c-1.836,3.711-3.879,7.343-4.146,11.612c-0.096,0.584-0.098,1.167,0.001,1.751
			c0.029,0.191,0.065,0.382,0.087,0.574c0.304,2.69,1.753,6.015,5.424,6.114c0.714,0.087,1.428,0.105,2.142-0.01
			c0.213-0.076,0.424-0.158,0.639-0.226c1.808-0.566,3.565-1.241,5.196-2.227c3.488-2.11,6.353-4.906,8.855-8.083
			c2.592-3.291,5.078-6.67,6.91-10.457c2.427-5.017,4.384-10.199,5.029-15.791c0.154-0.473-0.049-0.98,0.14-1.45
			c0-0.791,0-1.581,0-2.372c-0.113-0.538-0.158-1.076,0.019-1.611c0.735-0.524,1.571-0.663,2.449-0.641
			c0.701-0.12,1.403-0.142,2.104,0.002c1.012-0.008,2.005,0.203,2.967,0.448c3.786,0.961,7.426,2.333,10.882,4.166
			c4.787,2.539,9.249,5.605,13.796,8.534c3.265,2.103,6.455,4.327,9.889,6.16c0.527,0.281,0.886,0.231,1.29-0.248
			c0.983-1.165,2.032-2.274,3.04-3.418c1.824-2.07,3.806-3.987,5.809-6.004c-0.904-0.554-1.752-1.073-2.599-1.594
			c-4.575-2.812-9.244-5.46-13.952-8.041c-2.931-1.607-5.801-3.323-8.917-4.58c-2.962-1.194-6.039-1.918-9.168-2.472
			c-0.337-0.151-0.718,0.018-1.053-0.146c-2.636-0.039-5.267-0.107-7.896,0.267c-3.572,0.507-6.928,1.733-10.291,2.943
			c-0.549,0.198-0.906,0.197-1.354-0.25c-1.146-1.142-2.542-1.906-4.083-2.4c-3.465-1.11-6.968-0.898-10.416-0.06
			c-5.597,1.361-10.849,3.635-15.897,6.396c-5.309,2.904-10.241,6.361-14.888,10.221c-2.267,1.883-4.479,3.839-6.615,5.869
			c-3.544,3.369-6.887,6.932-10.095,10.631c-2.098,2.419-4.211,4.821-6.181,7.345c-3.449,4.422-6.647,9.028-9.7,13.724
			c-2.157,3.318-4.127,6.759-6.03,10.239c-1.703,3.114-3.206,6.321-4.638,9.555c-1.309,2.956-2.362,6.026-3.381,9.105
			c-1.339,4.046-2.522,8.114-2.851,12.386c-0.17,0.461,0.056,0.963-0.146,1.421c-0.017,0.634-0.034,1.268-0.051,1.902
			c-0.098,0.518-0.098,1.037,0,1.555c0.017,0.632,0.034,1.264,0.052,1.896c0.188,0.394-0.015,0.834,0.145,1.232
			c0.03,1.363,0.365,2.676,0.673,3.991c0.831,3.551,2.339,6.776,4.77,9.517c2.982,3.361,6.646,5.425,11.211,5.69
			c1.105,0.098,2.209,0.096,3.314,0.002c2.91-0.299,5.758-0.9,8.414-2.138c5.282-2.461,9.863-5.949,14.063-9.944
			c4.502-4.281,8.38-9.076,11.655-14.361c4.313-6.961,7.826-14.234,8.914-22.472C266.508,230.528,266.308,230.088,266.495,229.693z
			 M297.206,166.656c0.009,0.293,0.002,0.586,0.002,0.879c-0.441,6.252-2.172,12.139-5.163,17.638
			c-3.359,6.178-7.783,11.45-13.558,15.527c-0.984,0.694-2.007,1.33-3.148,1.743c-2.708,0.98-4.911-0.535-4.916-3.398
			c-0.004-2.129,0.661-4.112,1.552-5.996c4.801-10.156,11.654-18.595,21.042-24.874c1.079-0.722,2.251-1.303,3.344-2.005
			C297.049,165.727,297.187,166.044,297.206,166.656z"/>
	</g>
</g>
</svg>
