<?xml version="1.0" encoding="iso-8859-1"?>
<!-- Generator: Adobe Illustrator 22.0.1, SVG Export Plug-In . SVG Version: 6.00 Build 0)  -->
<svg version="1.1" id="Layer_1" xmlns="http://www.w3.org/2000/svg" xmlns:xlink="http://www.w3.org/1999/xlink" x="0px" y="0px"
	 viewBox="0 0 438.53 438.53" style="enable-background:new 0 0 438.53 438.53;" xml:space="preserve">
<g id="_x31_91">
	<g>
		<path style="fill:#067655;" d="M407.603,110.087c-19.45-33.321-45.833-59.704-79.155-79.153
			c-33.328-19.448-69.711-29.17-109.176-29.17c-39.461,0-75.854,9.722-109.177,29.17C76.771,50.38,50.388,76.763,30.938,110.087
			c-19.451,33.326-29.173,69.72-29.173,109.178c0,39.46,9.725,75.847,29.17,109.175c19.449,33.321,45.832,59.704,79.156,79.155
			c33.326,19.447,69.717,29.17,109.177,29.17s75.854-9.723,109.179-29.17c33.322-19.444,59.704-45.834,79.152-79.155
			c19.445-33.325,29.166-69.718,29.166-109.175C436.766,179.803,427.044,143.409,407.603,110.087z M411.197,241.821
			c-0.299,1.275-0.754,2.109-1.686,2.631c-0.797,5.327-1.833,10.583-3.118,15.75c0.32,0.007,0.636,0.021,0.96,0.018
			c-0.434,3.374-0.768,6.611-1.284,9.818c-0.515,3.2-1.768,4.702-4.044,4.829c-1.343,3.873-2.82,7.688-4.431,11.441
			c0.861,0.226,1.735,0.423,2.625,0.583c-0.904,3.895-1.954,7.5-4.105,10.704c-1.233,1.836-2.59,2.496-4.771,1.737
			c-1.882,3.537-3.88,7.01-5.999,10.41c0.384,0.155,0.771,0.302,1.167,0.432c2.078,0.686,2.181,1.909,1.638,3.53
			c-0.994,2.966-3.016,5.35-4.631,7.966c-0.818,1.324-1.847,0.825-2.776,0.371c-0.927-0.453-1.85-0.917-2.773-1.378
			c-2.34,3.204-4.782,6.336-7.333,9.386c0.978,0.487,1.956,0.976,2.94,1.45c1.543,0.744,1.801,1.524,1.064,2.968
			c-1.534,3.004-3.756,5.442-6.055,7.857c-1.174,1.233-2.104,0.54-3.144,0.005c-1.349-0.693-2.705-1.37-4.079-2
			c-2.688,2.763-5.474,5.441-8.338,8.043c1.41,0.684,2.783,1.448,4.137,2.261c1.367,0.821,1.427,1.53,0.584,2.801
			c-2.139,3.225-5.148,5.555-7.965,8.094c-0.939,0.846-1.802,0.211-2.637-0.058c-1.913-0.617-3.784-1.362-5.679-2.036
			c-0.449-0.16-0.882-0.279-1.306-0.376c-2.698,2.048-5.456,4.028-8.273,5.938c-0.192,1.257,0.259,2.256,1.915,2.893
			c2.206,0.849,4.254,2.074,5.957,3.996c-4.968,5.442-11.281,8.97-17.421,12.742c-1.381,0.848-1.522-0.035-1.87-1.008
			c-1.132-3.173-2.604-6.157-4.241-9.048c-1.848,1.014-3.711,2.007-5.598,2.963c1.353,2.712,2.456,5.539,3.302,8.501
			c0.831,2.911,0.015,4.81-2.502,6.19c-2.391,1.311-4.908,2.289-7.776,2.996c-0.131-4.68-1.287-8.946-2.988-12.993
			c-3.21,1.408-6.467,2.737-9.771,3.981c1.164,3.957,1.539,7.985,1.237,12.133c-0.104,1.435-0.478,2.464-1.993,2.934
			c-3.697,1.147-7.369,2.377-11.482,3.713c1.409-5.232,1.373-10.104,0.415-14.752c-3.821,1.171-7.689,2.242-11.611,3.191
			c0.312,4.391-0.162,8.82-1.621,13.31c-0.534,1.643-1.267,2.507-3.082,2.82c-3.592,0.618-7.128,1.566-11.23,2.502
			c2.529-5.518,3.527-10.847,3.463-16.041c-11.577,2.038-23.515,3.117-35.724,3.117c-11.968,0-23.676-1.034-35.038-2.994
			c0.011,5.143,1.196,10.351,4.021,15.657c-3.61-0.26-6.871-0.358-10.093-0.766c-3.047-0.386-4.34-2.254-5.156-5.371
			c-1.089-4.158-1.367-8.15-1.038-12.027c-3.715-0.881-7.385-1.865-11.01-2.945c-0.923,4.8-0.842,9.842,0.782,15.273
			c-4.551-1.454-8.581-2.677-12.561-4.044c-1.681-0.578-1.472-2.287-1.627-3.647c-0.465-4.087-0.028-7.968,1.095-11.68
			c-3.245-1.201-6.441-2.49-9.597-3.85c-1.53,3.602-2.553,7.394-2.737,11.505c-0.066,1.485-0.485,1.99-1.885,1.261
			c-0.105-0.055-0.212-0.107-0.319-0.159c-9.965-4.824-10.397-4.21-6.58-15.021c0.299-0.848,0.64-1.673,1.007-2.484
			c-1.778-0.893-3.541-1.809-5.285-2.753c-1.538,2.834-2.909,5.76-3.971,8.858c-0.435,1.269-1.003,1.274-2.083,0.774
			c-6.441-2.98-11.903-7.292-16.943-12.213c-1.026-1.002-0.663-1.535,0.374-2.09c0.73-0.391,1.651-0.691,2.087-1.313
			c1.06-1.512,4.867-0.769,3.574-4.11c-0.047-0.121-0.097-0.232-0.145-0.349c-2.747-1.877-5.44-3.818-8.074-5.825
			c-0.106,0.022-0.211,0.039-0.317,0.066c-1.023,0.266-2.006,0.717-2.977,1.153c-5.957,2.674-5.956,2.683-10.727-1.886
			c-0.686-0.657-1.359-1.329-2.016-2.015c-3.903-4.077-3.368-5.856,2.27-7.353c0.44-0.117,0.884-0.216,1.331-0.308
			c-2.812-2.55-5.546-5.175-8.188-7.88c-1.335,0.694-2.652,1.42-3.942,2.187c-1.554,0.923-2.421,0.65-3.43-0.762
			c-1.654-2.315-3.427-4.557-5.296-6.701c-1.244-1.427-1.527-2.261,0.424-3.399c0.953-0.556,1.893-1.135,2.833-1.715
			c-2.485-2.964-4.863-6.01-7.149-9.119c-4.202,2.162-5.82,1.493-8.188-3.147c-2.601-5.098-2.913-5.731,0.664-7.933
			c-2.154-3.444-4.187-6.961-6.098-10.546c-4.502,0.988-7.023-1.568-8.037-7.924c-0.599-3.754-0.708-4.467,1.716-5.23
			c-1.733-4.036-3.313-8.143-4.736-12.318c-1.785-0.066-2.1-1.118-2.961-4.508c-0.807-3.179-1.594-6.362-2.457-9.812
			c0.415,0.028,0.823,0.037,1.231,0.046c-1.289-5.252-2.322-10.594-3.108-16.01c-0.79-1.082-1.007-2.918-1.211-6.025
			c-0.224-3.423-0.537-6.841-0.849-10.748c0.161,0.058,0.318,0.097,0.478,0.152c-0.119-2.596-0.192-5.202-0.192-7.825
			c0-2.606,0.073-5.195,0.19-7.773c-0.686-1.102-0.955-2.435-0.788-3.986c7.019-65.421,36.152-117.564,92.535-153.068
			c35.802-22.545,75.137-30.566,117.041-27.252c27.065,2.14,52.729,9.036,76.27,22.837c30.744,18.024,56.094,41.618,74.253,72.566
			c14.225,24.243,21.949,50.502,24.576,78.371c0.2,2.127,0.256,4.284,0.664,6.371c0.363,1.855,0.11,3.238-0.661,4.372
			c0.111,2.509,0.181,5.028,0.181,7.563c0,2.711-0.076,5.406-0.203,8.088c0.188-0.032,0.37-0.062,0.561-0.095
			C411.617,232.131,412.332,236.988,411.197,241.821z"/>
		<path style="fill:#F9F9F9;" d="M332.157,363.939c-0.134,0.372-0.222,0.723-0.273,1.059c2.816-1.911,5.574-3.891,8.273-5.938
			C336.372,358.194,333.639,359.834,332.157,363.939z"/>
		<path style="fill:#F9F9F9;" d="M298.28,332.962c0.021-0.371-0.387-0.766-0.65-1.251c-1.729,1.337-2.366,3.105-2.676,4.978
			c-1.166,7.04-1.216,13.936,2.852,20.254c3.464,5.381,6.915,10.77,10.334,16.179c0.908,1.437,1.734,2.908,2.485,4.413
			c1.887-0.957,3.75-1.95,5.598-2.963c-2.382-4.205-5.123-8.207-7.763-12.263C302.637,353.36,297.653,344.147,298.28,332.962z"/>
		<path style="fill:#F9F9F9;" d="M284.684,354.37c-6.089-12.175-4.763-20.936,3.85-31.482c5.688-6.964,11.156-14.169,15.639-22.021
			c5.777-10.118,5.773-20.267,0.039-30.441c-2.981-5.289-6.689-10.067-10.21-14.981c-4.649-6.488-8.81-13.154-9.946-21.35
			c-0.7-5.049,0.767-9.619,2.082-14.282c2.795-9.907,6.531-19.577,7.809-29.868c2.014-16.22-3.265-30.099-13.959-42.11
			c-1.604-1.801-3.502-3.422-6.21-4.386c0.08,1.845,1.326,2.729,2.029,3.832c10.683,16.763,13.66,34.691,7.667,53.737
			c-1.801,5.722-4.829,11.048-7.118,16.629c-4.442,10.829-4.201,21.052,3.206,30.869c5.125,6.792,9.941,13.89,13.679,21.603
			c3.979,8.21,6.094,16.663,3.301,25.786c-0.957,3.125-2.541,5.827-4.444,8.427c-5.18,7.077-10.784,13.845-15.182,21.488
			c-7.239,12.582-7.6,24.788,1.085,36.972c4.805,6.741,9.441,13.645,12.286,21.553c0.223,0.62,0.422,1.242,0.605,1.865
			c3.304-1.244,6.561-2.573,9.771-3.981c-1.616-3.844-3.724-7.489-5.93-11.096C291.334,365.575,287.607,360.215,284.684,354.37z"/>
		<path style="fill:#F9F9F9;" d="M357.918,312.694c-1.834-0.068-1.872-0.979-1.652-2.274c0.437-2.569,0.944-5.127,1.334-7.703
			c0.246-1.63-0.006-2.782-2.224-2.347c-5.294,1.038-9.841-0.946-13.9-4.056c-3.859-2.956-7.475-6.23-11.256-9.29
			c-0.935-0.757-1.245-1.613-1.332-2.738c-0.623-8.047-4.149-14.977-8.337-21.666c-4.147-6.623-8.883-12.875-12.283-19.972
			c-4.067-8.49-4.477-17.033-1.073-25.83c7.04-18.195,5.248-36.034-2.419-53.57c-2.162-4.945-6.135-8.098-11.32-11.221
			c2.399,5.713,4.479,10.536,6.458,15.401c5.726,14.076,3.889,28.14-0.195,42.171c-1.554,5.341-3.41,10.587-4.279,16.121
			c-0.957,6.098-0.148,11.861,3.057,17.129c3.696,6.073,7.633,11.999,11.427,18.013c4.379,6.942,8.298,14.062,9.543,22.376
			c1.06,7.078-0.184,13.667-3.49,19.943c-1.709,3.245-3.437,6.483-5.05,9.776c-0.85,1.735-0.663,3.12,1.146,4.517
			c4.787,3.695,9.267,7.783,14.291,11.183c5.272,3.568,10.967,6.021,17.297,7.052c2.544,0.414,4.136-0.287,4.982-2.702
			c0.781-2.231,1.503-4.487,2.382-6.679c1.414-3.531,3.332-4.383,6.673-2.771c4.346,2.097,8.621,4.34,12.94,6.492
			c2.55-3.05,4.993-6.182,7.333-9.386c-1.934-0.966-3.861-1.947-5.758-2.981C367.711,315.23,363.163,312.889,357.918,312.694z"/>
		<path style="fill:#F9F9F9;" d="M346.304,339.405c-2.865,4.466-2.645,5.598,2.208,7.143c1.558,0.496,3.053,1.118,4.51,1.825
			c2.865-2.602,5.651-5.279,8.338-8.043c-2.821-1.292-5.723-2.366-8.833-2.852C350.212,337.117,347.983,336.788,346.304,339.405z"/>
		<path style="fill:#F9F9F9;" d="M187.993,355.655c5.517-12.586,4.079-24.573-3.428-35.803c-3.485-5.213-7.546-10.058-11.532-14.916
			c-9.459-11.526-9.963-23.637-2.476-36.232c3.087-5.192,6.443-10.231,9.822-15.242c7.41-10.987,8.837-22.221,3.075-34.588
			c-4.885-10.485-9.854-21.016-12.516-32.408c-3.379-14.463-1.1-27.755,7.845-39.774c1.361-1.829,2.554-3.783,3.496-5.896
			c-8.507,4.922-13.904,12.305-16.932,21.412c-4.2,12.63-3.771,25.157,1.185,37.574c3.025,7.581,6.599,14.938,9.03,22.765
			c3.573,11.502,1.925,21.939-5.631,31.459c-4.052,5.106-7.883,10.393-11.021,16.142c-6.22,11.397-5.65,22.46,1.586,33.208
			c3.521,5.23,7.643,9.996,11.715,14.783c11.131,13.085,11.995,27.05,3.822,41.831c-2.866,5.182-5.966,10.234-8.922,15.367
			c-2.846,4.943-5.128,9.998-6.158,15.356c3.625,1.08,7.295,2.065,11.01,2.945c0.583-6.854,3.085-13.342,6.511-19.719
			C181.721,367.872,185.229,361.961,187.993,355.655z"/>
		<path style="fill:#F9F9F9;" d="M144.976,348.767c1.225-5.775,0.278-11.144-3.608-16.623c-0.565,3.469-1.277,6.214-1.41,8.986
			c-0.307,6.42-3.139,11.828-6.331,17.134c-3.396,5.646-7.241,11.042-10.382,16.829c1.744,0.944,3.507,1.859,5.285,2.753
			c2.418-5.337,6.17-9.954,9.435-14.817C140.946,358.592,143.847,354.091,144.976,348.767z"/>
		<path style="fill:#F9F9F9;" d="M163.249,360.315c7.242-13.754,6.867-27.068-3.371-39.432c-1.287-1.554-2.579-3.104-3.852-4.669
			c-2.771-3.405-5.663-6.722-8.272-10.247c-7.55-10.2-7.921-21.227-3.391-32.701c1.708-4.327,4.266-8.186,6.96-11.953
			c2.966-4.149,5.856-8.355,8.91-12.439c6.894-9.22,7.51-19.195,3.562-29.648c-1.628-4.311-3.536-8.533-5.567-12.672
			c-10.497-21.382-6.314-41.131,6.493-59.967c0.451-0.664,1.217-1.148,1.205-2.432c-3.617,1.335-6.474,3.587-8.521,6.513
			c-10.557,15.087-16.409,31.236-10.316,49.797c2.325,7.083,4.872,14.096,7.088,21.212c3.67,11.787,1.693,22.404-6.704,31.763
			c-5.154,5.745-9.691,11.961-12.988,19.032c-4.961,10.641-4.393,20.871,1.82,30.822c3.467,5.553,7.715,10.517,11.69,15.688
			c3.111,4.046,6.055,8.19,8.203,12.861c3.209,6.978,3.25,13.923,0.283,21.005c-3.053,7.286-7.728,13.576-12.018,20.103
			c-2.079,3.163-3.973,6.393-5.417,9.793c3.155,1.359,6.352,2.648,9.597,3.85c0.871-2.879,2.155-5.656,3.753-8.347
			C155.961,372.238,160,366.486,163.249,360.315z"/>
		<path style="fill:#F9F9F9;" d="M262.519,357.043c-6.818-12.662-6.01-24.725,3.082-36.131c4.877-6.118,9.84-12.174,14.071-18.794
			c7.759-12.139,7.658-24.075-0.688-35.83c-3.02-4.254-6.237-8.372-9.446-12.488c-7.061-9.056-9.18-18.852-5.65-30.048
			c3.383-10.73,7.849-21.077,10.818-31.945c5.359-19.615,0.758-36.302-14.426-49.943c-1.469-1.319-2.987-2.634-5.711-3.669
			c1.558,1.874,2.672,3.115,3.676,4.438c11.696,15.407,14.491,32.319,8.551,50.708c-3.07,9.504-8.357,18.034-11.947,27.313
			c-3.49,9.02-4.32,18.031,0.418,26.806c2.073,3.839,4.891,7.274,7.356,10.903c4.662,6.861,9.5,13.628,11.186,22.011
			c1.456,7.238,0.246,13.93-4.127,19.917c-4.688,6.417-9.688,12.615-14.192,19.156c-5.27,7.655-8.897,15.916-7.62,25.624
			c0.669,5.085,3.098,9.408,5.435,13.791c3.898,7.308,8.322,14.34,11.283,22.131c1.566,4.123,2.573,8.263,2.87,12.437
			c3.922-0.948,7.79-2.02,11.611-3.191c-1.149-5.573-3.629-10.823-6.598-15.964C269.154,368.531,265.662,362.881,262.519,357.043z"
			/>
		<path style="fill:#F9F9F9;" d="M378.371,292.835c-4.585-2.49-9.174-4.923-14.522-5.465c-1.951-0.198-2.769,0.463-3.078,2.307
			c-0.41,2.452-0.981,4.877-1.547,7.628c6.807,0.365,12.257,3.929,17.695,7.518c2.721,1.796,5.405,3.703,8.426,4.92
			c2.118-3.4,4.117-6.873,5.999-10.41c-0.102-0.035-0.195-0.057-0.3-0.098C386.61,297.482,382.531,295.094,378.371,292.835z"/>
		<path style="fill:#F9F9F9;" d="M247.744,370.505c-3.015-6.298-6.349-12.45-9.713-18.572c-5.384-9.797-4.692-19.278,1.059-28.635
			c3.243-5.277,7.264-9.964,11.079-14.809c3.379-4.292,6.644-8.658,8.972-13.638c3.965-8.482,3.703-16.814-1.322-24.752
			c-2.468-3.899-5.344-7.545-8.123-11.24c-2.998-3.986-5.951-7.987-7.759-12.694c-1.678-4.368-3.982-5.829-8.669-5.141
			c-2.212,0.325-4.405,0.941-6.532,1.649c-5.959,1.984-11.852,1.962-17.767-0.161c-1.663-0.597-3.38-1.102-5.113-1.433
			c-3.404-0.65-6.008,0.753-7.056,3.956c-2.558,7.816-7.407,14.251-11.986,20.873c-2.023,2.925-3.875,5.952-5.336,9.214
			c-3.19,7.121-2.805,14.029,1.058,20.785c3.135,5.485,7.174,10.31,11.036,15.269c2.185,2.806,4.333,5.648,6.362,8.568
			c6.982,10.05,8.164,20.614,3.188,31.97c-3.712,8.47-8.366,16.462-12.121,24.897c-2.872,6.451-4.789,12.939-4.774,19.534
			c11.362,1.96,23.07,2.994,35.038,2.994c12.209,0,24.148-1.079,35.724-3.117C254.881,387.22,251.718,378.804,247.744,370.505z"/>
		<path style="fill:#F9F9F9;" d="M54.166,252.569c7.039-3.897,13.905-8.233,22.246-8.898c1.962-0.156,2.307-1.861,2.748-3.294
			c0.835-2.711,2.506-6.225,0.952-8.148c-1.669-2.065-5.376-0.628-8.116-0.083c-5.155,1.026-9.818,3.406-14.461,5.786
			c-6.011,3.08-11.987,6.265-18.855,7.053c-0.942,0.108-1.889,0.235-2.834,0.239c-4.008,0.015-5.936-0.141-6.939-1.515
			c0.786,5.416,1.819,10.759,3.108,16.01C40.367,259.912,47.303,256.369,54.166,252.569z"/>
		<path style="fill:#F9F9F9;" d="M57.501,278.822c5.249-3.257,10.521-6.466,16.747-7.502c1.331-0.222,1.812-0.812,1.782-2.094
			c-0.027-1.185,0.087-2.373,0.124-3.56c0.18-5.814,0.186-5.763-5.466-4.862c-4.654,0.741-8.76,2.779-12.844,4.98
			c-5.821,3.137-11.429,6.778-18.169,7.827c-1.576,0.245-2.671,0.413-3.472,0.384c1.423,4.174,3.003,8.282,4.736,12.318
			c0.58-0.183,1.301-0.368,2.2-0.599C48.378,284.367,52.966,281.636,57.501,278.822z"/>
		<path style="fill:#F9F9F9;" d="M62.323,221.14c2.637-1.345,5.268-2.704,7.883-4.09c3.914-2.075,7.942-3.626,12.496-3.507
			c3.039,0.079,5.3-1.055,5.817-4.469c0.117-0.772,0.741-1.468,1.134-2.198c2.322-4.309,1.351-6.035-3.609-6.088
			c-6.573-0.07-12.558,2.149-18.334,5.038c-6.135,3.069-12.03,6.636-18.586,8.823c-6.341,2.115-12.574,1.968-18.745-0.689
			c-1.397-0.602-2.41-1.433-3.054-2.468c-0.117,2.579-0.19,5.168-0.19,7.773c0,2.623,0.073,5.229,0.192,7.825
			C40.27,231.541,51.367,226.726,62.323,221.14z"/>
		<path style="fill:#F9F9F9;" d="M398.724,274.365c-6.18-1.851-11.8-4.839-17.341-8.06c-4.823-2.803-9.794-5.254-15.461-5.998
			c-2.432-0.319-3.566,0.488-3.682,2.876c-0.017,0.355-0.07,0.709-0.093,1.064c-0.387,5.868-0.375,5.834,5.223,7.659
			c4.645,1.514,8.849,3.96,13.058,6.383c5.499,3.165,10.97,6.394,17.165,8.019c1.611-3.752,3.088-7.568,4.431-11.441
			C401.099,274.919,400.009,274.75,398.724,274.365z"/>
		<path style="fill:#F9F9F9;" d="M408.068,214.207c-7.049,3.595-13.887,3.076-20.893,0.075c-6.117-2.62-11.646-6.342-17.643-9.176
			c-5.984-2.827-12.073-4.742-18.881-3.474c-2.743,0.51-2.944,1.597-1.975,3.73c0.39,0.859,0.687,1.766,0.97,2.669
			c1.066,3.391,2.667,5.503,6.895,5.639c5.594,0.18,10.775,2.597,15.811,5.023c2.452,1.182,4.868,2.438,7.298,3.665
			c13.307,6.724,17.389,7.411,31.542,4.995c0.127-2.682,0.203-5.377,0.203-8.088c0-2.535-0.07-5.054-0.181-7.563
			C410.548,212.681,409.498,213.477,408.068,214.207z"/>
		<path style="fill:#F9F9F9;" d="M98.064,358.826c2.634,2.007,5.327,3.948,8.074,5.825
			C104.284,360.128,101.423,358.116,98.064,358.826z"/>
		<path style="fill:#F9F9F9;" d="M390.082,242.1c-4.856-2.185-9.582-4.657-14.423-6.875c-4.781-2.19-9.743-3.639-15.112-3.4
			c-1.92,0.086-3.022,0.426-2.2,2.621c0.081,0.216,0.072,0.468,0.094,0.704c0.471,5.056,1.532,8.753,8.193,9.164
			c5.844,0.36,10.92,4.285,16.052,7.255c7.346,4.251,14.73,8.436,23.708,8.633c1.285-5.167,2.32-10.423,3.118-15.75
			c-0.397,0.222-0.871,0.393-1.471,0.509C401.662,246.185,395.783,244.666,390.082,242.1z"/>
		<path style="fill:#F9F9F9;" d="M65.179,302.615c3.435-2.207,7.117-3.742,11.186-4.294c0.688-0.093,1.77-0.058,1.98-0.451
			c1.524-2.849-0.294-5.499-0.677-8.252c-0.217-1.561-1.035-2.168-2.527-2.434c-2.587-0.461-4.956,0.194-7.266,1.15
			c-3.96,1.639-7.476,4.084-11.104,6.321c-1.714,1.057-3.394,2.18-5.171,3.12c-1.62,0.857-3.056,1.411-4.341,1.693
			c1.911,3.585,3.944,7.102,6.098,10.546c0.545-0.335,1.173-0.704,1.904-1.134C58.632,306.901,61.89,304.729,65.179,302.615z"/>
		<path style="fill:#F9F9F9;" d="M94.409,344.475c-0.027-2.885-1.762-5.324-4.769-6.434c-2.865-1.057-5.641-0.586-8.282,0.639
			c-1.318,0.612-2.625,1.252-3.917,1.923c2.642,2.705,5.376,5.331,8.188,7.88c1.294-0.266,2.606-0.463,3.883-0.797
			C91.516,347.164,94.434,347.121,94.409,344.475z"/>
		<path style="fill:#F9F9F9;" d="M88.016,328.338c2.961,9.296,4.242,9.066,13.29,6.614c8.181-2.217,14.622-7.677,21.096-12.89
			c2.487-2.002,6.097-3.69,6.989-6.28c0.849-2.468-2.613-5.157-3.93-7.895c-4.793-9.97-7.823-20.186-4.239-31.225
			c1.799-5.541,4.645-10.616,7.891-15.464c3.628-5.417,7.445-10.713,10.555-16.465c4.845-8.963,5.563-18.051,1.849-27.716
			c-4.734-12.318-6.929-25.11-5.474-38.379c0.893-8.148,3.351-15.718,7.911-22.572c0.486-0.731,1.399-1.279,1.191-2.66
			c-4.308,1.61-6.985,4.813-9.232,8.431c-8.51,13.707-10.718,28.305-6.704,44.017c2.254,8.824,4.467,17.722,4.13,26.993
			c-0.149,4.101-0.892,7.935-3.035,11.523c-4.616,7.729-9.167,15.499-13.598,23.335c-3.167,5.601-5.378,11.59-6.315,17.996
			c-0.158,1.077-0.339,2.042-1.342,2.757c-4.152,2.957-8.164,6.119-12.409,8.933c-3.962,2.626-8.413,3.886-13.209,2.99
			c-1.984-0.371-2.423,0.273-2.359,2.151c0.11,3.223,1.026,6.292,1.627,9.689c-8.349-0.175-14.473,4.874-21.171,8.535
			c-0.224,0.122-0.434,0.231-0.645,0.339c2.286,3.11,4.664,6.155,7.149,9.119c4.287-2.647,8.542-5.316,13.807-5.905
			C85.147,323.939,86.927,324.918,88.016,328.338z"/>
		<path style="fill:#067655;" d="M26.848,226.938c0.312,3.907,0.625,7.325,0.849,10.748c0.204,3.107,0.421,4.943,1.211,6.025
			c-0.794-5.466-1.325-11.01-1.581-16.621C27.166,227.035,27.009,226.996,26.848,226.938z"/>
		<path style="fill:#067655;" d="M380.741,322.042c0.93,0.454,1.959,0.953,2.776-0.371c1.615-2.616,3.637-5.001,4.631-7.966
			c0.544-1.622,0.441-2.844-1.638-3.53c-0.396-0.131-0.783-0.278-1.167-0.432c-2.322,3.728-4.783,7.371-7.377,10.922
			C378.891,321.125,379.814,321.589,380.741,322.042z"/>
		<path style="fill:#067655;" d="M127.523,380.33c-3.817,10.811-3.385,10.197,6.58,15.021c0.107,0.052,0.213,0.104,0.319,0.159
			c1.4,0.729,1.819,0.224,1.885-1.261c0.184-4.111,1.207-7.903,2.737-11.505c-3.564-1.536-7.07-3.168-10.513-4.898
			C128.163,378.657,127.822,379.482,127.523,380.33z"/>
		<path style="fill:#067655;" d="M106.284,365.001c1.293,3.34-2.514,2.598-3.574,4.11c-0.436,0.621-1.357,0.922-2.087,1.313
			c-1.036,0.555-1.4,1.088-0.374,2.09c5.04,4.921,10.502,9.233,16.943,12.213c1.08,0.5,1.648,0.494,2.083-0.774
			c1.062-3.098,2.433-6.025,3.971-8.858c-5.91-3.199-11.616-6.69-17.107-10.442C106.187,364.769,106.237,364.88,106.284,365.001z"/>
		<path style="fill:#067655;" d="M30.785,259.675c0.863,3.45,1.65,6.633,2.457,9.812c0.861,3.391,1.176,4.442,2.961,4.508
			c-1.595-4.679-3-9.438-4.187-14.274C31.608,259.712,31.2,259.703,30.785,259.675z"/>
		<path style="fill:#067655;" d="M147.545,398.273c0.155,1.36-0.055,3.07,1.627,3.647c3.98,1.368,8.009,2.59,12.561,4.044
			c-1.624-5.432-1.704-10.473-0.782-15.273c-4.166-1.241-8.274-2.604-12.311-4.098C147.517,390.305,147.081,394.187,147.545,398.273
			z"/>
		<path style="fill:#067655;" d="M84.298,348.792c-5.638,1.497-6.173,3.276-2.27,7.353c0.657,0.686,1.33,1.358,2.016,2.015
			c4.771,4.568,4.77,4.56,10.727,1.886c0.97-0.436,1.953-0.886,2.977-1.153c0.107-0.028,0.212-0.044,0.317-0.066
			c-4.304-3.28-8.452-6.731-12.435-10.342C85.182,348.576,84.738,348.675,84.298,348.792z"/>
		<path style="fill:#067655;" d="M65.197,331.928c-1.951,1.138-1.669,1.972-0.424,3.399c1.869,2.145,3.643,4.386,5.296,6.701
			c1.008,1.411,1.876,1.685,3.43,0.762c1.29-0.767,2.608-1.493,3.942-2.187c-3.272-3.35-6.414-6.814-9.411-10.39
			C67.09,330.794,66.15,331.373,65.197,331.928z"/>
		<path style="fill:#067655;" d="M39.222,291.544c1.015,6.356,3.536,8.913,8.037,7.924c-2.287-4.291-4.398-8.677-6.321-13.155
			C38.514,287.077,38.623,287.79,39.222,291.544z"/>
		<path style="fill:#067655;" d="M52.693,317.947c2.367,4.64,3.985,5.309,8.188,3.147c-2.647-3.601-5.157-7.296-7.523-11.08
			C49.78,312.216,50.092,312.849,52.693,317.947z"/>
		<path style="fill:#067655;" d="M406.069,270.038c0.516-3.207,0.85-6.444,1.284-9.818c-0.324,0.003-0.64-0.011-0.96-0.018
			c-1.236,4.972-2.702,9.861-4.369,14.665C404.301,274.741,405.554,273.238,406.069,270.038z"/>
		<path style="fill:#067655;" d="M320.466,383.621c0.347,0.973,0.489,1.856,1.87,1.008c6.14-3.772,12.453-7.3,17.421-12.742
			c-1.703-1.922-3.751-3.147-5.957-3.996c-1.656-0.637-2.107-1.636-1.915-2.893c-5.041,3.42-10.266,6.617-15.659,9.575
			C317.862,377.464,319.334,380.447,320.466,383.621z"/>
		<path style="fill:#067655;" d="M251.526,412.062c4.102-0.936,7.637-1.884,11.23-2.502c1.815-0.312,2.548-1.177,3.082-2.82
			c1.459-4.49,1.933-8.919,1.621-13.31c-4.104,0.992-8.264,1.851-12.469,2.591C255.053,401.215,254.055,406.543,251.526,412.062z"/>
		<path style="fill:#067655;" d="M341.462,359.436c1.895,0.674,3.766,1.419,5.679,2.036c0.835,0.269,1.699,0.905,2.637,0.058
			c2.816-2.539,5.825-4.869,7.965-8.094c0.843-1.272,0.783-1.98-0.584-2.801c-1.354-0.813-2.728-1.577-4.137-2.261
			c-4.115,3.737-8.407,7.303-12.865,10.686C340.58,359.156,341.013,359.276,341.462,359.436z"/>
		<path style="fill:#067655;" d="M172.998,405.664c0.816,3.117,2.109,4.985,5.156,5.371c3.222,0.408,6.483,0.506,10.093,0.766
			c-2.824-5.306-4.009-10.514-4.021-15.657c-4.137-0.714-8.227-1.549-12.266-2.506C171.631,397.514,171.909,401.507,172.998,405.664
			z"/>
		<path style="fill:#067655;" d="M411.754,227.258c-0.191,0.033-0.373,0.063-0.561,0.095c-0.273,5.775-0.84,11.478-1.682,17.099
			c0.932-0.522,1.386-1.356,1.686-2.631C412.332,236.988,411.617,232.131,411.754,227.258z"/>
		<path style="fill:#067655;" d="M303.651,395.223c2.868-0.707,5.385-1.685,7.776-2.996c2.516-1.38,3.333-3.278,2.502-6.19
			c-0.846-2.962-1.949-5.789-3.302-8.501c-3.263,1.655-6.589,3.214-9.963,4.694C302.364,386.277,303.52,390.543,303.651,395.223z"/>
		<path style="fill:#067655;" d="M396.114,297.595c2.151-3.204,3.201-6.809,4.105-10.704c-0.891-0.159-1.765-0.357-2.625-0.583
			c-1.903,4.432-3.991,8.774-6.251,13.023C393.524,300.091,394.881,299.431,396.114,297.595z"/>
		<path style="fill:#067655;" d="M365.439,342.33c1.04,0.535,1.97,1.229,3.144-0.005c2.299-2.415,4.521-4.854,6.055-7.857
			c0.738-1.445,0.48-2.224-1.064-2.968c-0.984-0.475-1.962-0.963-2.94-1.45c-2.956,3.535-6.049,6.965-9.274,10.281
			C362.734,340.96,364.091,341.637,365.439,342.33z"/>
		<path style="fill:#067655;" d="M218.629,39.4c0.102-0.223,0.202-0.441,0.304-0.664c0.174,0.216,0.322,0.439,0.486,0.658
			c103.333,0.076,187.562,76.524,191.795,172.308c0.772-1.134,1.024-2.517,0.661-4.372c-0.408-2.087-0.464-4.244-0.664-6.371
			c-2.627-27.869-10.351-54.128-24.576-78.371c-18.159-30.948-43.509-54.542-74.253-72.566
			c-23.541-13.801-49.205-20.697-76.27-22.837c-41.904-3.314-81.239,4.707-117.041,27.252
			c-56.383,35.505-85.516,87.648-92.535,153.068c-0.166,1.551,0.102,2.884,0.788,3.986C31.665,115.955,115.592,39.713,218.629,39.4z
			"/>
		<path style="fill:#067655;" d="M278.654,404.992c4.113-1.336,7.785-2.566,11.482-3.713c1.515-0.47,1.889-1.499,1.993-2.934
			c0.302-4.148-0.074-8.177-1.237-12.133c-3.879,1.46-7.822,2.803-11.822,4.028C280.028,394.887,280.063,399.76,278.654,404.992z"/>
		<path style="fill:#067655;" d="M379.651,222.358c-2.43-1.228-4.846-2.484-7.298-3.665c-5.036-2.427-10.217-4.843-15.811-5.023
			c-4.228-0.136-5.829-2.249-6.895-5.639c-0.284-0.903-0.58-1.809-0.97-2.669c-0.969-2.133-0.768-3.219,1.975-3.73
			c6.808-1.267,12.897,0.647,18.881,3.474c5.997,2.833,11.526,6.556,17.643,9.176c7.006,3.001,13.843,3.52,20.893-0.075
			c1.43-0.729,2.479-1.525,3.146-2.505C406.98,115.918,322.751,39.47,219.419,39.394c3.09,4.121,4.561,8.734,6.349,13.165
			c3.415,8.461,3.367,8.471,12.523,8.924c4.032,0.199,8.064,0.41,12.089,0.707c0.848,0.063,2.071-0.522,2.504,0.627
			c0.439,1.163-0.478,1.947-1.275,2.7c-4.831,4.567-9.589,9.213-14.497,13.694c-1.454,1.327-1.747,2.372-0.935,4.218
			c2.525,5.74,4.952,11.531,7.149,17.403c0.91,2.434,1.773,2.296,3.707,1.113c8.678-5.312,17.167-11.001,26.917-14.311
			c3.932-1.335,7.933-2.278,12.424-2.62c-1.471,8.917-7.343,16.404-6.936,25.741c9.895-2.602,18.613-8.519,29.684-8.202
			c-3.764,6.692-7.42,12.972-10.859,19.369c-3.455,6.424-5.626,13.289-6.21,21.066c-23.225-10.027-46.768-17.667-72.241-17.128
			c-25.298,0.535-49.156,6.839-72.109,17.792c-2.71-14.834-9.708-27.48-18.442-39.883c8.05-1.052,14.659,1.882,21.328,4.421
			c2.317,0.882,4.522,2.053,6.805,3.033c1.676,0.719,2.288,0.129,2.237-1.708c-0.105-3.863-1.125-7.501-2.523-11.034
			c-1.174-2.968-2.628-5.824-3.861-8.771c-0.477-1.138-1.963-2.39-1.06-3.465c0.998-1.189,2.816-0.923,4.371-0.598
			c6.469,1.353,12.221,4.452,17.923,7.573c5.608,3.07,11.106,6.359,16.498,9.793c1.929,1.229,2.816,0.825,3.908-0.868
			c3.991-6.19,5.778-13.182,7.588-20.185c0.394-1.523-0.564-2.132-1.439-2.922c-4.844-4.375-9.678-8.762-14.516-13.144
			c-0.778-0.704-1.913-1.343-1.428-2.579c0.42-1.073,1.641-0.761,2.534-0.811c6.164-0.346,12.33-0.715,18.5-0.903
			c1.784-0.054,2.717-0.622,3.443-2.27c2.909-6.6,5.956-13.144,9.061-19.931C115.592,39.713,31.665,115.955,27.324,211.492
			c0.645,1.035,1.657,1.867,3.054,2.468c6.171,2.657,12.404,2.804,18.745,0.689c6.556-2.187,12.452-5.754,18.586-8.823
			c5.776-2.89,11.761-5.108,18.334-5.038c4.96,0.053,5.93,1.779,3.609,6.088c-0.393,0.73-1.017,1.426-1.134,2.198
			c-0.517,3.414-2.778,4.549-5.817,4.469c-4.554-0.119-8.582,1.432-12.496,3.507c-2.616,1.386-5.246,2.745-7.883,4.09
			c-10.956,5.586-22.053,10.402-34.997,5.95c0.257,5.611,0.788,11.154,1.581,16.621c1.003,1.374,2.931,1.53,6.939,1.515
			c0.945-0.004,1.892-0.131,2.834-0.239c6.868-0.789,12.845-3.973,18.855-7.053c4.643-2.38,9.306-4.76,14.461-5.786
			c2.74-0.545,6.447-1.983,8.116,0.083c1.554,1.923-0.117,5.437-0.952,8.148c-0.441,1.432-0.787,3.137-2.748,3.294
			c-8.341,0.665-15.207,5-22.246,8.898c-6.863,3.8-13.799,7.343-22.15,7.152c1.187,4.837,2.592,9.595,4.187,14.274
			c0.801,0.03,1.896-0.138,3.472-0.384c6.74-1.049,12.348-4.69,18.169-7.827c4.084-2.201,8.19-4.239,12.844-4.98
			c5.652-0.9,5.646-0.952,5.466,4.862c-0.037,1.187-0.151,2.375-0.124,3.56c0.03,1.282-0.451,1.872-1.782,2.094
			c-6.226,1.036-11.497,4.245-16.747,7.502c-4.535,2.814-9.123,5.545-14.363,6.892c-0.898,0.231-1.62,0.417-2.2,0.599
			c1.923,4.478,4.034,8.864,6.321,13.155c1.284-0.282,2.721-0.837,4.341-1.693c1.777-0.94,3.457-2.063,5.171-3.12
			c3.628-2.237,7.144-4.681,11.104-6.321c2.31-0.956,4.679-1.611,7.266-1.15c1.492,0.266,2.31,0.873,2.527,2.434
			c0.383,2.753,2.201,5.402,0.677,8.252c-0.21,0.393-1.292,0.358-1.98,0.451c-4.069,0.552-7.751,2.087-11.186,4.294
			c-3.29,2.114-6.547,4.286-9.917,6.265c-0.731,0.429-1.36,0.799-1.904,1.134c2.367,3.784,4.877,7.479,7.523,11.08
			c0.21-0.108,0.421-0.217,0.645-0.339c6.698-3.661,12.822-8.71,21.171-8.535c-0.601-3.397-1.517-6.466-1.627-9.689
			c-0.064-1.878,0.375-2.521,2.359-2.151c4.796,0.896,9.247-0.364,13.209-2.99c4.245-2.814,8.258-5.976,12.409-8.933
			c1.004-0.715,1.185-1.681,1.342-2.757c0.937-6.406,3.149-12.395,6.315-17.996c4.431-7.836,8.982-15.606,13.598-23.335
			c2.143-3.588,2.886-7.422,3.035-11.523c0.338-9.271-1.875-18.169-4.13-26.993c-4.014-15.711-1.806-30.31,6.704-44.017
			c2.246-3.618,4.924-6.82,9.232-8.431c0.208,1.381-0.705,1.929-1.191,2.66c-4.56,6.854-7.018,14.424-7.911,22.572
			c-1.455,13.269,0.741,26.061,5.474,38.379c3.714,9.665,2.997,18.754-1.849,27.716c-3.11,5.752-6.927,11.049-10.555,16.465
			c-3.247,4.848-6.093,9.922-7.891,15.464c-3.583,11.039-0.554,21.255,4.239,31.225c1.316,2.738,4.779,5.428,3.93,7.895
			c-0.892,2.591-4.502,4.278-6.989,6.28c-6.474,5.213-12.915,10.673-21.096,12.89c-9.048,2.452-10.329,2.683-13.29-6.614
			c-1.09-3.42-2.87-4.399-6.18-4.029c-5.265,0.589-9.52,3.258-13.807,5.905c2.997,3.576,6.139,7.04,9.411,10.39
			c1.291-0.671,2.599-1.312,3.917-1.923c2.641-1.225,5.417-1.697,8.282-0.639c3.007,1.11,4.742,3.549,4.769,6.434
			c0.025,2.645-2.892,2.688-4.897,3.212c-1.277,0.333-2.589,0.531-3.883,0.797c3.983,3.611,8.131,7.062,12.435,10.342
			c3.359-0.71,6.22,1.301,8.074,5.825c5.491,3.751,11.197,7.243,17.107,10.442c3.14-5.787,6.986-11.183,10.382-16.829
			c3.192-5.307,6.025-10.715,6.331-17.134c0.132-2.772,0.845-5.516,1.41-8.986c3.885,5.479,4.833,10.848,3.608,16.623
			c-1.129,5.324-4.03,9.824-7.01,14.262c-3.266,4.863-7.017,9.48-9.435,14.817c3.443,1.73,6.949,3.363,10.513,4.898
			c1.444-3.4,3.338-6.63,5.417-9.793c4.29-6.527,8.965-12.817,12.018-20.103c2.968-7.082,2.926-14.027-0.283-21.005
			c-2.148-4.671-5.092-8.815-8.203-12.861c-3.975-5.171-8.224-10.135-11.69-15.688c-6.213-9.952-6.781-20.181-1.82-30.822
			c3.297-7.071,7.834-13.287,12.988-19.032c8.397-9.359,10.374-19.976,6.704-31.763c-2.216-7.116-4.763-14.129-7.088-21.212
			c-6.092-18.561-0.24-34.709,10.316-49.797c2.047-2.926,4.904-5.178,8.521-6.513c0.012,1.284-0.754,1.768-1.205,2.432
			c-12.807,18.836-16.99,38.585-6.493,59.967c2.032,4.139,3.939,8.361,5.567,12.672c3.948,10.453,3.332,20.428-3.562,29.648
			c-3.054,4.084-5.943,8.29-8.91,12.439c-2.693,3.767-5.251,7.626-6.96,11.953c-4.53,11.473-4.159,22.5,3.391,32.701
			c2.609,3.525,5.501,6.842,8.272,10.247c1.274,1.565,2.565,3.115,3.852,4.669c10.238,12.364,10.613,25.678,3.371,39.432
			c-3.25,6.172-7.288,11.924-10.856,17.933c-1.598,2.691-2.882,5.467-3.753,8.347c4.037,1.495,8.145,2.857,12.311,4.098
			c1.03-5.358,3.312-10.413,6.158-15.356c2.956-5.133,6.056-10.185,8.922-15.367c8.173-14.78,7.309-28.746-3.822-41.831
			c-4.072-4.787-8.194-9.552-11.715-14.783c-7.236-10.747-7.805-21.811-1.586-33.208c3.137-5.749,6.968-11.036,11.021-16.142
			c7.556-9.52,9.204-19.958,5.631-31.459c-2.431-7.826-6.004-15.184-9.03-22.765c-4.955-12.417-5.384-24.944-1.185-37.574
			c3.029-9.107,8.426-16.49,16.932-21.412c-0.942,2.113-2.135,4.067-3.496,5.896c-8.945,12.018-11.224,25.311-7.845,39.774
			c2.662,11.392,7.631,21.923,12.516,32.408c5.762,12.367,4.335,23.602-3.075,34.588c-3.379,5.01-6.735,10.049-9.822,15.242
			c-7.487,12.594-6.983,24.705,2.476,36.232c3.987,4.858,8.047,9.703,11.532,14.916c7.507,11.23,8.945,23.216,3.428,35.803
			c-2.764,6.306-6.272,12.216-9.521,18.264c-3.426,6.376-5.928,12.865-6.511,19.719c4.039,0.957,8.13,1.793,12.266,2.506
			c-0.014-6.595,1.902-13.083,4.774-19.534c3.755-8.435,8.41-16.427,12.121-24.897c4.976-11.355,3.793-21.92-3.188-31.97
			c-2.029-2.92-4.177-5.762-6.362-8.568c-3.862-4.959-7.901-9.784-11.036-15.269c-3.862-6.757-4.248-13.665-1.058-20.785
			c1.461-3.261,3.313-6.288,5.336-9.214c4.579-6.622,9.428-13.057,11.986-20.873c1.048-3.203,3.652-4.606,7.056-3.956
			c1.733,0.331,3.45,0.836,5.113,1.433c5.915,2.123,11.808,2.145,17.767,0.161c2.127-0.708,4.32-1.324,6.532-1.649
			c4.687-0.689,6.99,0.772,8.669,5.141c1.808,4.707,4.761,8.707,7.759,12.694c2.779,3.695,5.655,7.341,8.123,11.24
			c5.025,7.938,5.287,16.27,1.322,24.752c-2.328,4.979-5.593,9.346-8.972,13.638c-3.814,4.845-7.835,9.532-11.079,14.809
			c-5.751,9.356-6.443,18.837-1.059,28.635c3.364,6.122,6.698,12.275,9.713,18.572c3.974,8.299,7.137,16.715,7.245,25.516
			c4.205-0.74,8.366-1.599,12.469-2.591c-0.297-4.174-1.304-8.313-2.87-12.437c-2.96-7.792-7.385-14.824-11.283-22.131
			c-2.337-4.382-4.767-8.706-5.435-13.791c-1.276-9.708,2.35-17.969,7.62-25.624c4.504-6.541,9.504-12.738,14.192-19.156
			c4.373-5.987,5.583-12.679,4.127-19.917c-1.686-8.383-6.524-15.149-11.186-22.011c-2.465-3.628-5.284-7.064-7.356-10.903
			c-4.738-8.775-3.908-17.786-0.418-26.806c3.59-9.279,8.877-17.808,11.947-27.313c5.94-18.39,3.145-35.301-8.551-50.708
			c-1.005-1.324-2.119-2.564-3.676-4.438c2.724,1.035,4.243,2.35,5.711,3.669c15.184,13.641,19.785,30.328,14.426,49.943
			c-2.969,10.867-7.435,21.215-10.818,31.945c-3.53,11.195-1.41,20.991,5.65,30.048c3.209,4.116,6.426,8.234,9.446,12.488
			c8.346,11.755,8.446,23.691,0.688,35.83c-4.231,6.62-9.194,12.676-14.071,18.794c-9.093,11.406-9.9,23.469-3.082,36.131
			c3.143,5.838,6.635,11.487,9.952,17.231c2.969,5.142,5.449,10.391,6.598,15.964c4-1.226,7.943-2.568,11.822-4.028
			c-0.183-0.623-0.382-1.245-0.605-1.865c-2.845-7.908-7.482-14.812-12.286-21.553c-8.685-12.184-8.324-24.391-1.085-36.972
			c4.397-7.643,10.002-14.411,15.182-21.488c1.903-2.599,3.487-5.301,4.444-8.427c2.793-9.123,0.679-17.576-3.301-25.786
			c-3.739-7.713-8.555-14.811-13.679-21.603c-7.407-9.817-7.647-20.04-3.206-30.869c2.289-5.58,5.317-10.906,7.118-16.629
			c5.993-19.046,3.017-36.975-7.667-53.737c-0.703-1.103-1.95-1.986-2.029-3.832c2.708,0.964,4.606,2.585,6.21,4.386
			c10.694,12.011,15.973,25.89,13.959,42.11c-1.278,10.291-5.014,19.961-7.809,29.868c-1.315,4.663-2.782,9.233-2.082,14.282
			c1.136,8.196,5.297,14.861,9.946,21.35c3.521,4.914,7.229,9.692,10.21,14.981c5.734,10.174,5.738,20.323-0.039,30.441
			c-4.483,7.851-9.951,15.056-15.639,22.021c-8.613,10.546-9.938,19.307-3.85,31.482c2.923,5.845,6.651,11.205,10.05,16.764
			c2.205,3.607,4.314,7.252,5.93,11.096c3.374-1.48,6.7-3.039,9.963-4.694c-0.751-1.506-1.577-2.977-2.485-4.413
			c-3.419-5.409-6.87-10.799-10.334-16.179c-4.068-6.319-4.019-13.214-2.852-20.254c0.31-1.872,0.947-3.641,2.676-4.978
			c0.263,0.484,0.671,0.88,0.65,1.251c-0.627,11.185,4.357,20.397,10.181,29.347c2.64,4.056,5.381,8.058,7.763,12.263
			c5.393-2.958,10.618-6.154,15.659-9.575c0.051-0.336,0.139-0.687,0.273-1.059c1.481-4.104,4.215-5.745,7.999-4.879
			c4.458-3.383,8.75-6.949,12.865-10.686c-1.457-0.707-2.952-1.329-4.51-1.825c-4.853-1.545-5.073-2.677-2.208-7.143
			c1.679-2.617,3.908-2.289,6.224-1.927c3.11,0.486,6.012,1.56,8.833,2.852c3.225-3.316,6.318-6.746,9.274-10.281
			c-4.319-2.152-8.594-4.395-12.94-6.492c-3.341-1.612-5.259-0.76-6.673,2.771c-0.878,2.193-1.6,4.448-2.382,6.679
			c-0.846,2.415-2.438,3.116-4.982,2.702c-6.33-1.031-12.025-3.483-17.297-7.052c-5.024-3.4-9.504-7.488-14.291-11.183
			c-1.809-1.397-1.996-2.782-1.146-4.517c1.613-3.293,3.34-6.531,5.05-9.776c3.306-6.276,4.551-12.865,3.49-19.943
			c-1.246-8.314-5.164-15.434-9.543-22.376c-3.794-6.014-7.731-11.94-11.427-18.013c-3.206-5.268-4.014-11.031-3.057-17.129
			c0.869-5.534,2.724-10.78,4.279-16.121c4.084-14.031,5.921-28.096,0.195-42.171c-1.979-4.865-4.059-9.689-6.458-15.401
			c5.185,3.123,9.158,6.276,11.32,11.221c7.667,17.536,9.459,35.375,2.419,53.57c-3.404,8.797-2.994,17.34,1.073,25.83
			c3.399,7.096,8.136,13.348,12.283,19.972c4.188,6.689,7.714,13.619,8.337,21.666c0.087,1.125,0.397,1.981,1.332,2.738
			c3.782,3.061,7.397,6.334,11.256,9.29c4.06,3.11,8.606,5.094,13.9,4.056c2.218-0.435,2.471,0.718,2.224,2.347
			c-0.389,2.576-0.897,5.134-1.334,7.703c-0.22,1.295-0.181,2.206,1.652,2.274c5.246,0.195,9.793,2.536,14.292,4.988
			c1.897,1.034,3.824,2.015,5.758,2.981c2.594-3.551,5.054-7.194,7.377-10.922c-3.02-1.217-5.705-3.124-8.426-4.92
			c-5.438-3.589-10.888-7.152-17.695-7.518c0.566-2.75,1.137-5.176,1.547-7.628c0.309-1.844,1.127-2.505,3.078-2.307
			c5.348,0.542,9.937,2.975,14.522,5.465c4.159,2.259,8.239,4.647,12.672,6.399c0.105,0.042,0.199,0.063,0.3,0.098
			c2.26-4.249,4.348-8.592,6.251-13.023c-6.195-1.626-11.666-4.854-17.165-8.019c-4.209-2.422-8.413-4.868-13.058-6.383
			c-5.599-1.825-5.61-1.791-5.223-7.659c0.023-0.355,0.076-0.709,0.093-1.064c0.116-2.387,1.25-3.195,3.682-2.876
			c5.667,0.744,10.638,3.195,15.461,5.998c5.541,3.22,11.16,6.209,17.341,8.06c1.285,0.385,2.375,0.554,3.3,0.503
			c1.667-4.804,3.133-9.693,4.369-14.665c-8.978-0.197-16.361-4.382-23.708-8.633c-5.132-2.97-10.208-6.894-16.052-7.255
			c-6.66-0.411-7.721-4.107-8.193-9.164c-0.022-0.236-0.013-0.488-0.094-0.704c-0.821-2.195,0.28-2.535,2.2-2.621
			c5.369-0.24,10.331,1.21,15.112,3.4c4.842,2.218,9.568,4.69,14.423,6.875c5.701,2.565,11.58,4.084,17.958,2.861
			c0.6-0.115,1.074-0.286,1.471-0.509c0.841-5.621,1.409-11.324,1.682-17.099C397.041,229.77,392.958,229.082,379.651,222.358z
			 M135.316,150.562c-1.545,1.289-3.024,2.697-4.71,3.772c-11.103,7.077-19.614,16.779-27.246,27.265
			c-1.918,2.635-3.596,4.03-6.798,3.189c-0.789-0.207-1.652-0.132-2.481-0.187c-8.916-0.294-16.982,2.753-24.906,6.341
			c-4.85,2.196-9.617,4.591-14.545,6.593c-5.68,2.307-11.525,2.331-17.374,0.398c-2.411-0.797-3.081-1.779-1.482-4.237
			c6.201-9.531,12.798-18.815,18.347-28.761c7.664-13.739,12.482-28.127,10.119-44.184c-0.38-2.585,0.957-3.499,3.404-2.429
			c1.389,0.607,2.724,1.462,3.887,2.44c9.22,7.75,14.465,17.741,16.042,29.59c0.409,3.077,1.254,3.266,3.894,2.204
			c8.998-3.618,17.968-7.415,27.88-7.866c5.436-0.247,10.607,0.6,15.494,3.103C136.426,148.605,136.715,149.396,135.316,150.562z
			 M256.022,153.89c0.75,2.542,0.335,3.469-2.676,2.83c-7.999-1.696-15.833-0.582-23.338,2.481c-3.894,1.589-5.346,5.265-6.156,9.03
			c-1.065,4.951-0.416,9.905,0.559,14.831c0.296,1.498,1.261,2.436,2.404,2.839c1.211,0.427,2.358-0.667,2.808-1.681
			c2.126-4.794,5.705-4.702,9.973-3.489c3.711,1.055,7.512,0.976,11.15-0.588c2.48-1.066,3.876,0.19,4.722,2.286
			c0.943,2.335,1.483,4.87,1.026,7.324c-2.215,11.893-5.981,23.171-14.008,32.567c-10.037,11.75-20.051,14.576-34.618,9.526
			c-6.372-2.209-10.953-6.99-15.077-12.083c-7.726-9.543-11.615-20.528-11.665-32.828c-0.007-1.652-0.057-3.377,0.837-4.855
			c1.368-2.263,3.235-3.663,5.881-2.075c3.119,1.872,6.32,1.592,9.637,0.898c3.471-0.727,6.992-1.76,10.248,0.709
			c1.218,0.923,2.02-0.011,2.768-0.686c2.345-2.119,2.692-4.921,2.375-7.846c-0.345-3.181-0.871-6.342-1.213-9.523
			c-0.206-1.917-1.661-2.803-2.926-3.795c-4.599-3.607-10.076-3.791-15.568-3.773c-1.896,0.006-3.79,0.278-5.687,0.3
			c-3.099,0.035-4.182-1.679-2.813-4.638c2.396-5.179,5.945-9.388,10.933-12.285c7.549-4.384,15.836-5.359,26.896-5.244
			c5.994-0.175,14.221,1.031,21.838,5.218C250.253,142.594,254.117,147.431,256.022,153.89z M255.358,171.189
			c-1.096,2.416-2.768,0.749-4.171,0.289c-4.882-1.603-9.77-3.197-14.753-0.487c-1.192,0.648-1.475,0.024-1.728-0.814
			c-0.552-1.822,0.326-3.18,1.921-3.66c3.368-1.012,6.702-2.302,10.301-2.31c2.404-0.029,4.744,0.228,6.862,1.466
			C256.057,166.998,256.337,169.031,255.358,171.189z M190.792,163.706c4.2,0.228,8.389,1.238,11.617,4.663
			c0.716,0.76,1.789,1.653,1.152,2.728c-0.549,0.925-1.763,0.265-2.635,0.094c-2.084-0.409-4.134-0.989-6.209-1.445
			c-2.961-0.65-5.547-0.081-7.874,2.051c-1.964,1.799-3.362,1.139-3.722-1.516C182.439,165.284,184.142,163.768,190.792,163.706z
			 M341.645,185.523c-2.299,0.149-3.593-0.433-4.902-2.379c-8.576-12.746-18.913-23.746-32.371-31.474
			c-2.923-1.678-1.03-2.887,0.269-3.917c2.845-2.257,6.444-2.175,9.814-2.681c1.508-0.226,3.079-0.038,4.621-0.038
			c10.163-0.19,19.214,3.611,27.966,8.201c2.499,1.31,3.511,0.949,4.117-1.67c0.721-3.114,1.485-6.223,2.376-9.292
			c2.869-9.885,8.748-17.491,17.584-22.767c1.159-0.692,2.437-1.675,3.92-0.514c1.304,1.02,1.439,2.417,1.165,3.869
			c-3.436,18.167,3.026,33.818,12.441,48.676c4.758,7.508,9.667,14.921,14.629,22.296c1.316,1.956,1.084,2.861-1.067,3.87
			c-5.117,2.4-10.248,2.47-15.583,0.917c-5.394-1.57-10.381-4.067-15.177-6.852C362.154,186.371,352.129,184.844,341.645,185.523z"
			/>
		<path style="fill:#FEFEFE;" d="M218.629,39.4c0.213-0.001,0.424-0.008,0.636-0.008c0.051,0,0.102,0.002,0.154,0.002
			c-0.164-0.219-0.312-0.442-0.486-0.658C218.831,38.959,218.73,39.177,218.629,39.4z"/>
		<path style="fill:#FEFEFE;" d="M218.629,39.4c-3.105,6.787-6.152,13.331-9.061,19.931c-0.727,1.648-1.659,2.216-3.443,2.27
			c-6.17,0.188-12.335,0.557-18.5,0.903c-0.893,0.05-2.114-0.262-2.534,0.811c-0.484,1.237,0.651,1.875,1.428,2.579
			c4.838,4.382,9.671,8.769,14.516,13.144c0.875,0.79,1.832,1.399,1.439,2.922c-1.81,7.003-3.597,13.995-7.588,20.185
			c-1.092,1.693-1.979,2.097-3.908,0.868c-5.392-3.435-10.891-6.723-16.498-9.793c-5.702-3.122-11.453-6.22-17.923-7.573
			c-1.555-0.325-3.373-0.591-4.371,0.598c-0.903,1.075,0.584,2.326,1.06,3.465c1.233,2.946,2.687,5.802,3.861,8.771
			c1.398,3.534,2.418,7.171,2.523,11.034c0.05,1.838-0.562,2.427-2.237,1.708c-2.282-0.979-4.488-2.15-6.805-3.033
			c-6.669-2.539-13.278-5.473-21.328-4.421c8.735,12.404,15.732,25.049,18.442,39.883c22.953-10.953,46.81-17.257,72.109-17.792
			c25.473-0.539,49.016,7.101,72.241,17.128c0.584-7.777,2.756-14.642,6.21-21.066c3.44-6.396,7.096-12.677,10.859-19.369
			c-11.071-0.317-19.789,5.601-29.684,8.202c-0.408-9.338,5.464-16.824,6.936-25.741c-4.491,0.342-8.492,1.285-12.424,2.62
			c-9.75,3.309-18.238,8.998-26.917,14.311c-1.934,1.184-2.796,1.321-3.707-1.113c-2.197-5.872-4.624-11.663-7.149-17.403
			c-0.812-1.847-0.519-2.892,0.935-4.218c4.909-4.481,9.667-9.127,14.497-13.694c0.797-0.753,1.713-1.538,1.275-2.7
			c-0.433-1.148-1.656-0.564-2.504-0.627c-4.025-0.297-8.057-0.508-12.089-0.707c-9.156-0.453-9.108-0.462-12.523-8.924
			c-1.788-4.432-3.26-9.044-6.349-13.165c-0.051,0-0.102-0.002-0.154-0.002C219.052,39.392,218.841,39.399,218.629,39.4z
			 M235.733,106.71c0.716,0.634,2.146,1.175,1.53,2.447c-0.584,1.204-1.746,1.72-3.258,1.607c-4.961-0.369-9.934-0.474-14.909-0.189
			c-4.613,0.227-9.231,0.373-13.835,0.718c-2.036,0.153-3.559-0.398-4.295-2.286c-0.725-1.857,1.044-2.419,2.086-3.227
			c4.394-3.407,8.864-6.718,13.246-10.141c1.223-0.955,2.112-1.38,3.684-0.402C225.518,98.684,230.851,102.386,235.733,106.71z"/>
		<path style="fill:#FEFEFE;" d="M244.33,139.339c-7.617-4.187-15.845-5.393-21.838-5.218c-11.059-0.115-19.347,0.859-26.896,5.244
			c-4.988,2.897-8.537,7.106-10.933,12.285c-1.369,2.959-0.286,4.672,2.813,4.638c1.897-0.021,3.791-0.293,5.687-0.3
			c5.491-0.018,10.969,0.166,15.568,3.773c1.265,0.992,2.72,1.878,2.926,3.795c0.342,3.181,0.869,6.342,1.213,9.523
			c0.317,2.925-0.03,5.727-2.375,7.846c-0.747,0.675-1.55,1.609-2.768,0.686c-3.256-2.469-6.777-1.436-10.248-0.709
			c-3.316,0.695-6.517,0.975-9.637-0.898c-2.645-1.588-4.513-0.187-5.881,2.075c-0.893,1.478-0.844,3.203-0.837,4.855
			c0.051,12.3,3.94,23.286,11.665,32.828c4.124,5.094,8.705,9.874,15.077,12.083c14.566,5.051,24.581,2.225,34.618-9.526
			c8.026-9.396,11.792-20.674,14.008-32.567c0.457-2.454-0.084-4.989-1.026-7.324c-0.846-2.096-2.242-3.353-4.722-2.286
			c-3.638,1.564-7.439,1.642-11.15,0.588c-4.268-1.213-7.847-1.306-9.973,3.489c-0.45,1.014-1.597,2.108-2.808,1.681
			c-1.143-0.403-2.107-1.341-2.404-2.839c-0.975-4.926-1.623-9.881-0.559-14.831c0.81-3.765,2.262-7.441,6.156-9.03
			c7.505-3.063,15.339-4.177,23.338-2.481c3.012,0.638,3.426-0.288,2.676-2.83C254.117,147.431,250.253,142.594,244.33,139.339z
			 M234.921,207.959c-4.199,5.687-7.753,10.732-14.655,11.476c-3.874,0.418-7.231-0.588-9.997-3.449
			c-1.806-1.869-3.675-3.685-5.612-5.416c-0.899-0.803-1.432-1.75-1.006-2.767c0.408-0.975,1.472-0.26,2.236-0.258
			c7.452,0.018,14.904,0.049,22.356,0.116C230.213,207.678,232.183,207.832,234.921,207.959z M225.839,194.276
			c2.612,1.266,1.735,2.663-0.105,3.762c-2.483,1.483-5.262,0.977-7.961,0.725c-1.413,0-2.832-0.082-4.237,0.026
			c-1.167,0.089-2.208,0.088-2.404-1.335c-0.147-1.065-0.086-2.117,1.116-2.712C216.714,192.528,221.245,192.05,225.839,194.276z"/>
		<path style="fill:#FEFEFE;" d="M386.624,198.619c5.335,1.552,10.466,1.483,15.583-0.917c2.151-1.009,2.383-1.913,1.067-3.87
			c-4.961-7.375-9.871-14.788-14.629-22.296c-9.415-14.858-15.877-30.509-12.441-48.676c0.275-1.452,0.139-2.848-1.165-3.869
			c-1.483-1.161-2.761-0.178-3.92,0.514c-8.837,5.275-14.715,12.882-17.584,22.767c-0.891,3.069-1.655,6.178-2.376,9.292
			c-0.606,2.619-1.619,2.98-4.117,1.67c-8.752-4.589-17.803-8.391-27.966-8.201c-1.542,0-3.113-0.188-4.621,0.038
			c-3.37,0.506-6.969,0.425-9.814,2.681c-1.299,1.03-3.191,2.239-0.269,3.917c13.458,7.728,23.796,18.728,32.371,31.474
			c1.309,1.945,2.604,2.528,4.902,2.379c10.484-0.679,20.509,0.847,29.803,6.244C376.243,194.552,381.229,197.049,386.624,198.619z"
			/>
		<path style="fill:#FEFEFE;" d="M134.841,147.793c-4.887-2.503-10.058-3.35-15.494-3.103c-9.911,0.451-18.882,4.248-27.88,7.866
			c-2.641,1.062-3.485,0.873-3.894-2.204c-1.577-11.849-6.822-21.84-16.042-29.59c-1.163-0.977-2.498-1.833-3.887-2.44
			c-2.447-1.07-3.785-0.156-3.404,2.429c2.363,16.057-2.454,30.445-10.119,44.184c-5.548,9.946-12.146,19.229-18.347,28.761
			c-1.599,2.458-0.929,3.44,1.482,4.237c5.849,1.933,11.694,1.91,17.374-0.398c4.928-2.002,9.695-4.398,14.545-6.593
			c7.924-3.587,15.99-6.635,24.906-6.341c0.829,0.055,1.692-0.021,2.481,0.187c3.201,0.841,4.88-0.554,6.798-3.189
			c7.632-10.486,16.143-20.188,27.246-27.265c1.687-1.075,3.165-2.483,4.71-3.772C136.715,149.396,136.426,148.605,134.841,147.793z
			"/>
		<path style="fill:#FCFCFC;" d="M186.841,171.797c2.327-2.132,4.914-2.701,7.874-2.051c2.076,0.456,4.125,1.036,6.209,1.445
			c0.872,0.171,2.086,0.832,2.635-0.094c0.638-1.075-0.435-1.967-1.152-2.728c-3.227-3.425-7.416-4.435-11.617-4.663
			c-6.65,0.062-8.352,1.578-7.673,6.575C183.48,172.936,184.878,173.596,186.841,171.797z"/>
		<path style="fill:#FBFBFB;" d="M253.79,165.673c-2.118-1.238-4.458-1.496-6.862-1.466c-3.6,0.009-6.933,1.299-10.301,2.31
			c-1.595,0.479-2.473,1.838-1.921,3.66c0.254,0.837,0.537,1.461,1.728,0.814c4.984-2.71,9.872-1.115,14.753,0.487
			c1.403,0.461,3.075,2.128,4.171-0.289C256.337,169.031,256.057,166.998,253.79,165.673z"/>
		<path style="fill:#067655;" d="M216.297,95.64c-4.382,3.423-8.852,6.733-13.246,10.141c-1.042,0.808-2.811,1.37-2.086,3.227
			c0.737,1.887,2.259,2.439,4.295,2.286c4.604-0.345,9.222-0.491,13.835-0.718c4.975-0.286,9.948-0.181,14.909,0.189
			c1.513,0.113,2.675-0.403,3.258-1.607c0.617-1.272-0.813-1.812-1.53-2.447c-4.882-4.324-10.215-8.027-15.751-11.472
			C218.409,94.26,217.52,94.685,216.297,95.64z"/>
		<path style="fill:#067655;" d="M203.651,207.802c-0.425,1.017,0.108,1.964,1.006,2.767c1.937,1.732,3.806,3.548,5.612,5.416
			c2.766,2.861,6.122,3.867,9.997,3.449c6.902-0.744,10.457-5.789,14.655-11.476c-2.739-0.127-4.708-0.281-6.678-0.298
			c-7.452-0.067-14.904-0.098-22.356-0.116C205.123,207.543,204.059,206.827,203.651,207.802z"/>
		<path style="fill:#067655;" d="M212.247,194.742c-1.202,0.596-1.263,1.647-1.116,2.712c0.196,1.423,1.237,1.424,2.404,1.335
			c1.405-0.108,2.824-0.026,4.237-0.026c2.7,0.251,5.478,0.758,7.961-0.725c1.84-1.099,2.717-2.496,0.105-3.762
			C221.245,192.05,216.714,192.528,212.247,194.742z"/>
	</g>
</g>
</svg>
