<?xml version="1.0" encoding="iso-8859-1"?>
<!-- Generator: Adobe Illustrator 22.0.1, SVG Export Plug-In . SVG Version: 6.00 Build 0)  -->
<svg version="1.1" id="Layer_1" xmlns="http://www.w3.org/2000/svg" xmlns:xlink="http://www.w3.org/1999/xlink" x="0px" y="0px"
	 viewBox="0 0 438.53 438.53" style="enable-background:new 0 0 438.53 438.53;" xml:space="preserve">
<g id="_x31_92">
	<g>
		<path style="fill:#22559D;" d="M407.603,110.087c-19.45-33.321-45.833-59.704-79.155-79.153
			c-33.328-19.448-69.711-29.17-109.176-29.17c-39.461,0-75.854,9.722-109.177,29.17C76.771,50.38,50.388,76.763,30.938,110.087
			c-19.451,33.326-29.173,69.72-29.173,109.178c0,39.46,9.725,75.847,29.17,109.175c19.449,33.321,45.832,59.704,79.156,79.155
			c33.326,19.447,69.717,29.17,109.177,29.17s75.854-9.723,109.179-29.17c33.322-19.444,59.704-45.834,79.152-79.155
			c19.445-33.325,29.166-69.718,29.166-109.175C436.766,179.803,427.044,143.409,407.603,110.087z M219.518,92.49
			c13.662,0.034,27.325,0.035,40.987-0.001c1.053-0.003,1.334,0.336,1.482,1.344c1.722,11.718,3.505,23.428,5.267,35.14
			c1.59,10.567,3.171,21.134,4.762,31.701c1.59,10.566,3.189,21.132,4.78,31.698c1.585,10.524,3.165,21.049,4.747,31.573
			c0.462,3.07,0.926,6.139,1.677,9.218c0.297-1.875,0.601-3.748,0.89-5.624c2.124-13.784,4.249-27.567,6.367-41.352
			c1.844-12.003,3.674-24.009,5.52-36.012c1.846-12.003,3.705-24.004,5.556-36.006c1.06-6.871,2.132-13.739,3.149-20.616
			c0.12-0.812,0.365-1.059,1.188-1.058c13.662,0.025,27.325,0.031,40.987-0.008c1.078-0.003,1.139,0.442,1.137,1.293
			c-0.022,10.612-0.014,21.224-0.014,31.836c0,52.931,0.001,105.862-0.003,158.793c0,1.956,0.222,1.701-1.718,1.703
			c-8.507,0.008-17.014-0.024-25.52,0.035c-1.247,0.009-1.551-0.306-1.55-1.552c0.034-47.001,0.029-94.003,0.029-141.004
			c0-0.554,0-1.108,0-1.662c-0.081-0.008-0.163-0.016-0.244-0.025c-1.054,6.339-2.108,12.678-3.161,19.017
			c-2.109,12.698-4.218,25.396-6.327,38.095c-2.101,12.656-4.202,25.312-6.302,37.969c-2.107,12.698-4.214,25.397-6.322,38.096
			c-0.548,3.302-1.138,6.597-1.631,9.907c-0.126,0.844-0.368,1.152-1.263,1.148c-7.561-0.034-15.123-0.052-22.684,0.017
			c-1.094,0.01-1.161-0.541-1.278-1.276c-1.229-7.712-2.457-15.424-3.691-23.136c-1.932-12.075-3.87-24.15-5.804-36.225
			c-1.846-11.524-3.691-23.048-5.537-34.573c-1.934-12.075-3.869-24.15-5.804-36.225c-0.67-4.184-1.341-8.368-2.062-12.867
			c-0.349,0.845-0.234,1.426-0.235,1.979c-0.007,46.744-0.005,93.488-0.009,140.233c0,2.045,0.184,1.756-1.808,1.758
			c-8.55,0.009-17.099-0.014-25.649,0.027c-1.019,0.005-1.286-0.272-1.285-1.288c0.024-63.586,0.025-127.172-0.004-190.757
			C218.14,92.687,218.489,92.488,219.518,92.49z M90.585,136.703c0.036-9.417,2.151-18.478,6.74-26.825
			c5.658-10.292,14.336-16.742,25.65-19.515c12.138-2.974,24.302-2.645,36.249,1.017c13.949,4.276,22.557,13.815,26.411,27.784
			c1.646,5.964,2.191,12.069,2.271,18.223c0.068,5.155-0.003,10.311,0.049,15.466c0.01,0.954-0.339,1.112-1.187,1.11
			c-9.065-0.026-18.13-0.03-27.195,0.005c-0.94,0.004-1.118-0.317-1.119-1.177c-0.006-5.799,0.144-11.601-0.128-17.397
			c-0.143-3.057-0.626-6.062-1.663-8.954c-2.358-6.576-7.046-10.28-13.943-11.171c-4.01-0.518-7.992-0.344-11.795,1.163
			c-5.828,2.31-8.641,7.022-9.982,12.847c-0.855,3.712-0.932,7.494-0.934,11.275c-0.011,31.362-0.018,62.724,0.005,94.086
			c0.004,5.382,0.383,10.726,2.444,15.804c2.775,6.839,7.871,10.388,15.212,10.742c4.977,0.24,9.698-0.502,13.643-3.873
			c3.643-3.113,5.264-7.319,6.224-11.85c0.769-3.632,0.922-7.324,0.93-11.02c0.02-9.495-0.02-18.989,0.039-28.483
			c0.008-1.282-0.368-1.547-1.58-1.528c-4.725,0.073-9.451,0-14.177,0.054c-0.977,0.011-1.205-0.259-1.199-1.214
			c0.042-6.96,0.043-13.92,0-20.879c-0.006-0.961,0.232-1.21,1.201-1.207c14.65,0.033,29.3,0.035,43.95-0.002
			c1.053-0.003,1.254,0.322,1.253,1.3c-0.024,34.112-0.026,68.223,0.005,102.335c0.001,1.109-0.334,1.336-1.375,1.321
			c-8.633-0.129-17.268-0.22-25.902-0.269c-1.005-0.006-1.328-0.251-1.296-1.285c0.076-2.446,0.032-4.897,0.017-7.346
			c-0.003-0.406,0.133-0.841-0.175-1.304c-3.489,4.301-7.858,7.395-12.763,9.775c-7.438,3.609-15.261,4.683-23.438,3.643
			c-5.567-0.708-10.824-2.254-15.561-5.326c-6.422-4.165-10.476-10.153-13.081-17.219c-2.674-7.253-3.808-14.812-3.824-22.484
			C90.484,208.449,90.45,172.576,90.585,136.703z M348.232,348.53c-0.001,1.815,0.204,1.616-1.687,1.616
			c-73.631,0.003-147.262,0.002-220.894,0.002c-11.341,0-22.682-0.014-34.023,0.023c-1.05,0.003-1.366-0.242-1.362-1.334
			c0.039-13.059,0.046-26.119-0.008-39.178c-0.005-1.217,0.396-1.363,1.451-1.362c42.529,0.025,85.058,0.021,127.587,0.021
			c42.443,0,84.886,0.005,127.33-0.027c1.236-0.001,1.653,0.205,1.646,1.575C348.209,322.755,348.237,335.643,348.232,348.53z"/>
		<path style="fill:#FEFEFE;" d="M219.429,285.848c8.549-0.04,17.099-0.018,25.649-0.027c1.991-0.002,1.808,0.287,1.808-1.758
			c0.003-46.744,0.002-93.488,0.009-140.233c0-0.554-0.114-1.134,0.235-1.979c0.721,4.499,1.391,8.683,2.062,12.867
			c1.935,12.075,3.87,24.15,5.804,36.225c1.846,11.524,3.691,23.048,5.537,34.573c1.935,12.075,3.872,24.149,5.804,36.225
			c1.234,7.711,2.461,15.424,3.691,23.136c0.117,0.735,0.184,1.286,1.278,1.276c7.561-0.069,15.123-0.051,22.684-0.017
			c0.895,0.004,1.137-0.304,1.263-1.148c0.493-3.31,1.082-6.605,1.631-9.907c2.108-12.698,4.215-25.397,6.322-38.096
			c2.1-12.656,4.201-25.313,6.302-37.969c2.108-12.698,4.217-25.397,6.327-38.095c1.053-6.339,2.107-12.678,3.161-19.017
			c0.081,0.008,0.163,0.016,0.244,0.025c0,0.554,0,1.108,0,1.662c0,47.001,0.005,94.003-0.029,141.004
			c-0.001,1.246,0.304,1.56,1.55,1.552c8.506-0.059,17.013-0.026,25.52-0.035c1.94-0.002,1.718,0.252,1.718-1.703
			c0.004-52.931,0.003-105.862,0.003-158.793c0-10.612-0.008-21.224,0.014-31.836c0.002-0.851-0.058-1.296-1.137-1.293
			c-13.662,0.04-27.325,0.033-40.987,0.008c-0.824-0.002-1.068,0.245-1.188,1.058c-1.017,6.877-2.09,13.746-3.149,20.616
			c-1.851,12.002-3.71,24.003-5.556,36.006s-3.676,24.009-5.52,36.012c-2.118,13.785-4.243,27.568-6.367,41.352
			c-0.289,1.876-0.593,3.749-0.89,5.624c-0.752-3.079-1.216-6.148-1.677-9.218c-1.583-10.524-3.163-21.049-4.747-31.573
			c-1.591-10.566-3.19-21.132-4.78-31.698c-1.59-10.567-3.172-21.134-4.762-31.701c-1.762-11.712-3.545-23.422-5.267-35.14
			c-0.148-1.008-0.43-1.347-1.482-1.344c-13.662,0.036-27.325,0.035-40.987,0.001c-1.029-0.003-1.378,0.197-1.377,1.312
			c0.028,63.586,0.028,127.172,0.004,190.757C218.143,285.577,218.41,285.853,219.429,285.848z"/>
		<path style="fill:#FEFEFE;" d="M94.385,266.806c2.605,7.067,6.659,13.054,13.081,17.219c4.737,3.072,9.994,4.618,15.561,5.326
			c8.177,1.04,15.999-0.034,23.438-3.643c4.905-2.38,9.274-5.474,12.763-9.775c0.308,0.463,0.172,0.898,0.175,1.304
			c0.015,2.449,0.06,4.899-0.017,7.346c-0.032,1.034,0.291,1.279,1.296,1.285c8.634,0.049,17.269,0.14,25.902,0.269
			c1.04,0.016,1.376-0.212,1.375-1.321c-0.031-34.112-0.029-68.223-0.005-102.335c0.001-0.978-0.2-1.303-1.253-1.3
			c-14.65,0.037-29.3,0.035-43.95,0.002c-0.969-0.002-1.207,0.247-1.201,1.207c0.043,6.96,0.043,13.92,0,20.879
			c-0.006,0.955,0.222,1.225,1.199,1.214c4.725-0.054,9.452,0.019,14.177-0.054c1.212-0.019,1.588,0.246,1.58,1.528
			c-0.059,9.494-0.019,18.989-0.039,28.483c-0.008,3.696-0.161,7.387-0.93,11.02c-0.96,4.532-2.581,8.737-6.224,11.85
			c-3.945,3.371-8.666,4.113-13.643,3.873c-7.341-0.354-12.436-3.903-15.212-10.742c-2.061-5.078-2.44-10.421-2.444-15.804
			c-0.023-31.362-0.016-62.724-0.005-94.086c0.001-3.78,0.079-7.562,0.934-11.275c1.341-5.825,4.154-10.536,9.982-12.847
			c3.803-1.508,7.785-1.681,11.795-1.163c6.897,0.891,11.585,4.596,13.943,11.171c1.037,2.893,1.52,5.898,1.663,8.954
			c0.272,5.796,0.122,11.598,0.128,17.397c0.001,0.86,0.18,1.18,1.119,1.177c9.065-0.035,18.13-0.031,27.195-0.005
			c0.848,0.003,1.196-0.156,1.187-1.11c-0.051-5.155,0.019-10.311-0.049-15.466c-0.081-6.153-0.626-12.258-2.271-18.223
			c-3.854-13.968-12.462-23.508-26.411-27.784c-11.947-3.662-24.11-3.992-36.249-1.017c-11.314,2.772-19.992,9.222-25.65,19.515
			c-4.589,8.347-6.704,17.408-6.74,26.825c-0.136,35.872-0.101,71.746-0.025,107.619C90.577,251.994,91.711,259.553,94.385,266.806z
			"/>
		<path style="fill:#FEFEFE;" d="M346.626,308.293c-42.443,0.032-84.886,0.027-127.33,0.027c-42.529,0-85.058,0.004-127.587-0.021
			c-1.054-0.001-1.456,0.145-1.451,1.362c0.054,13.059,0.047,26.119,0.008,39.178c-0.003,1.092,0.312,1.337,1.362,1.334
			c11.341-0.038,22.682-0.023,34.023-0.023c73.631,0,147.262,0,220.894-0.002c1.891,0,1.686,0.198,1.687-1.616
			c0.005-12.888-0.023-25.775,0.04-38.663C348.279,308.498,347.862,308.292,346.626,308.293z"/>
	</g>
</g>
</svg>
