<?xml version="1.0" encoding="iso-8859-1"?>
<!-- Generator: Adobe Illustrator 22.0.1, SVG Export Plug-In . SVG Version: 6.00 Build 0)  -->
<svg version="1.1" id="Layer_1" xmlns="http://www.w3.org/2000/svg" xmlns:xlink="http://www.w3.org/1999/xlink" x="0px" y="0px"
	 viewBox="0 0 438.53 438.53" style="enable-background:new 0 0 438.53 438.53;" xml:space="preserve">
<g id="_x31_93">
	<g>
		<path style="fill:#D52B1E;" d="M332.781,332.027c-0.006-0.277,0.056-0.561-0.062-0.83c0.03,0.289,0.044,0.578,0.062,0.867
			C332.781,332.051,332.781,332.039,332.781,332.027z"/>
		<path style="fill:#D52B1E;" d="M327.049,233.213c0.039,0.068,0.045,0.142,0.064,0.213
			C327.107,233.353,327.09,233.281,327.049,233.213z"/>
		<path style="fill:#D52B1E;" d="M199.862,315.795c-0.006-0.277,0.056-0.561-0.062-0.83c0.03,0.294,0.044,0.589,0.062,0.884
			C199.862,315.831,199.862,315.813,199.862,315.795z"/>
		<path style="fill:#D52B1E;" d="M194.436,226.323c0.039,0.069,0.046,0.142,0.065,0.213
			C194.494,226.463,194.477,226.391,194.436,226.323z"/>
		<path style="fill:#D52B1E;" d="M332.873,346.201c0.038,0.332,0.057,0.664,0.071,0.997
			C332.952,346.865,332.951,346.532,332.873,346.201z"/>
		<path style="fill:#D52B1E;" d="M407.603,110.087c-19.45-33.321-45.833-59.704-79.155-79.153
			c-33.328-19.448-69.711-29.17-109.176-29.17c-39.461,0-75.854,9.722-109.177,29.17C76.771,50.38,50.388,76.763,30.938,110.087
			c-19.451,33.326-29.173,69.72-29.173,109.178c0,39.46,9.725,75.847,29.17,109.175c19.449,33.321,45.832,59.704,79.156,79.155
			c33.326,19.447,69.717,29.17,109.177,29.17s75.854-9.723,109.179-29.17c33.322-19.444,59.704-45.834,79.152-79.155
			c19.445-33.325,29.166-69.718,29.166-109.175C436.766,179.803,427.044,143.409,407.603,110.087z M370.217,351.942
			c-12.404-0.026-24.808-0.018-37.213-0.018c-0.185-0.152-0.147-0.364-0.146-0.562c0.003-1.72,0.009-3.44,0.015-5.16
			c-0.014-3.148-0.027-6.296-0.041-9.444c-0.257-0.395-0.114-0.835-0.119-1.251c-0.016-1.436,0.002-2.873,0.007-4.31
			c-0.014-1.515-0.028-3.031-0.042-4.546c-0.271-1.132-0.072-2.279-0.111-3.418c-0.014-1.107-0.027-2.213-0.041-3.32
			c-0.269-0.927-0.076-1.873-0.112-2.809c-0.014-0.952-0.028-1.904-0.042-2.857c-0.268-0.821-0.073-1.663-0.113-2.494
			c-0.014-0.802-0.028-1.604-0.041-2.406c-0.263-0.719-0.078-1.461-0.111-2.191c-0.014-0.699-0.028-1.398-0.042-2.096
			c-0.269-0.668-0.073-1.362-0.111-2.042c-0.014-0.646-0.028-1.293-0.042-1.939c-0.266-0.613-0.074-1.254-0.112-1.881
			c-0.014-0.598-0.028-1.196-0.041-1.794c-0.258-0.564-0.081-1.156-0.111-1.735c-0.014-0.544-0.028-1.089-0.042-1.633
			c-0.268-0.559-0.073-1.149-0.113-1.723c-0.013-0.497-0.026-0.995-0.039-1.492c-0.266-0.51-0.077-1.053-0.113-1.579
			c-0.014-0.495-0.028-0.989-0.042-1.484l0,0c-0.249-0.46-0.083-0.952-0.11-1.43c-0.014-0.493-0.028-0.986-0.042-1.48
			c-0.25-0.458-0.083-0.948-0.112-1.423c-0.014-0.444-0.028-0.889-0.042-1.333c-0.254-0.454-0.08-0.942-0.113-1.414
			c-0.013-0.396-0.025-0.793-0.038-1.189c-0.259-0.455-0.082-0.945-0.115-1.419v0.001v-0.001c-0.014-0.395-0.028-0.79-0.041-1.185
			c-0.252-0.403-0.081-0.843-0.112-1.265c-0.014-0.395-0.028-0.79-0.041-1.185c-0.252-0.403-0.081-0.843-0.112-1.265
			c-0.013-0.344-0.025-0.688-0.038-1.032c-0.256-0.402-0.082-0.843-0.115-1.265c-0.013-0.344-0.026-0.688-0.039-1.033
			c-0.256-0.4-0.082-0.84-0.115-1.261c-0.013-0.346-0.026-0.691-0.039-1.037c-0.246-0.351-0.086-0.743-0.112-1.117
			c-0.014-0.342-0.028-0.685-0.042-1.027c-0.245-0.349-0.085-0.738-0.113-1.109c-0.014-0.345-0.028-0.69-0.042-1.035
			c-0.232-0.303-0.09-0.647-0.108-0.974c-0.014-0.339-0.028-0.677-0.042-1.016c-0.248-0.346-0.086-0.735-0.116-1.104
			c-0.013-0.296-0.026-0.591-0.039-0.887c-0.234-0.301-0.091-0.645-0.11-0.971c-0.015-0.34-0.03-0.68-0.045-1.021
			c-0.231-0.299-0.091-0.64-0.109-0.964c-0.014-0.291-0.027-0.582-0.041-0.874c-0.236-0.299-0.093-0.641-0.112-0.965
			c-0.014-0.291-0.028-0.582-0.042-0.873c-0.235-0.298-0.092-0.639-0.112-0.962c-0.014-0.292-0.028-0.584-0.042-0.876
			c-0.234-0.296-0.091-0.637-0.112-0.958c-0.015-0.293-0.029-0.587-0.043-0.88c-0.215-0.247-0.097-0.538-0.108-0.813
			c-0.015-0.291-0.03-0.581-0.044-0.872c-0.217-0.249-0.098-0.542-0.108-0.818c-0.015-0.289-0.029-0.578-0.044-0.866
			c-0.219-0.25-0.098-0.545-0.109-0.822c-0.015-0.287-0.029-0.575-0.044-0.862c-0.219-0.247-0.099-0.54-0.11-0.815l0,0l0,0
			c-0.013-0.239-0.027-0.477-0.04-0.716c-0.239-0.293-0.093-0.633-0.117-0.952c-0.013-0.244-0.026-0.489-0.04-0.733
			c-0.218-0.246-0.099-0.538-0.11-0.812c-0.013-0.24-0.027-0.479-0.04-0.719c-0.224-0.249-0.101-0.545-0.112-0.823l0,0
			c-0.014-0.236-0.027-0.472-0.041-0.708c-0.224-0.248-0.101-0.543-0.112-0.82c-0.014-0.237-0.028-0.475-0.041-0.712
			c-0.223-0.246-0.101-0.54-0.112-0.815c-0.014-0.239-0.028-0.477-0.042-0.716c-0.221-0.245-0.101-0.537-0.112-0.811
			c-0.014-0.24-0.029-0.48-0.043-0.721c-0.216-0.238-0.098-0.525-0.115-0.792c-0.012-0.195-0.024-0.39-0.036-0.585
			c-0.221-0.241-0.1-0.531-0.114-0.802c-0.156-1.182-0.201-2.374-0.415-3.553c-0.151-0.832-0.161-1.69-0.234-2.536l0,0
			c-0.224-0.241-0.102-0.531-0.116-0.802c-0.166-1.468-0.331-2.937-0.497-4.405c-0.221-0.235-0.101-0.523-0.119-0.789
			c-0.239-1.396-0.38-2.808-0.553-4.21c-0.166-1.351-0.379-2.7-0.497-4.061c-0.116-1.333-0.385-2.653-0.579-3.98
			c-0.176-1.202-0.347-2.406-0.511-3.61c-0.16-1.18-0.289-2.365-0.467-3.542c-0.177-1.172-0.426-2.333-0.594-3.506
			c-0.217-1.516-0.461-3.027-0.724-4.536c-0.225-1.288-0.407-2.583-0.653-3.868c-0.25-1.308-0.385-2.637-0.62-3.948
			c-0.326-1.825-0.681-3.644-1.053-5.46c-0.465-2.273-0.878-4.555-1.351-6.827c-0.699-3.354-1.393-6.708-2.169-10.045
			c-1.044-4.485-2.151-8.954-3.393-13.388c-0.727-2.596-1.422-5.206-2.282-7.758c-1.023-3.033-2.009-6.078-3.17-9.068
			c-1.118-2.88-2.258-5.748-3.58-8.537c-1.84-3.882-3.892-7.659-6.593-11.018c-1.996-2.482-4.241-4.735-7.243-6.037
			c-1.044-0.453-2.129-0.779-3.28-0.823h-0.001c0,0,0,0,0.001,0c-0.492,0-0.985,0-1.478,0.001c-2.454,0.067-4.56,1.081-6.485,2.49
			c-3.23,2.365-5.603,5.496-7.723,8.84c-2.553,4.025-4.59,8.313-6.408,12.706c-1.987,4.8-3.695,9.701-5.225,14.666
			c-2.115,6.863-3.899,13.813-5.511,20.809c-1.161,5.042-2.204,10.11-3.173,15.19c-0.865,4.54-1.642,9.098-2.363,13.666
			c-0.697,4.42-1.39,8.839-1.979,13.275c-0.493,3.709-1.008,7.416-1.504,11.125c-0.044,0.326-0.015,0.662-0.021,0.993v0.001v-0.001
			c-0.017,0.268,0.105,0.557-0.12,0.794c-0.141,0.594-0.226,1.194-0.187,1.807v0.001v-0.001c-0.016,0.269,0.105,0.558-0.118,0.796
			c-0.142,0.596-0.229,1.198-0.187,1.813c0,0,0,0,0,0.001l0,0c-0.018,0.266,0.101,0.553-0.116,0.79
			c-0.012,0.196-0.025,0.392-0.037,0.588c-0.042,0.069-0.058,0.141-0.065,0.215c0.019-0.072,0.026-0.146,0.066-0.215
			c-0.018,0.266,0.101,0.552-0.116,0.789c-0.164,1.155-0.366,2.307-0.349,3.48v0.001c0,0,0,0,0-0.001
			c-0.012,0.273,0.107,0.564-0.112,0.807c-0.125,0.698-0.236,1.398-0.191,2.112c0,0,0,0,0,0.001c0,0,0,0,0-0.001
			c-0.015,0.269,0.103,0.557-0.113,0.797c-0.014,0.242-0.028,0.484-0.042,0.726v0.001v-0.001c-0.012,0.272,0.106,0.561-0.11,0.805
			c-0.014,0.245-0.027,0.49-0.041,0.734v0.001v-0.001c-0.014,0.268,0.102,0.555-0.11,0.796l0,0
			c-0.016,0.288-0.032,0.576-0.048,0.864c0,0,0,0,0,0.001l0,0c-0.011,0.277,0.112,0.573-0.111,0.821
			c-0.014,0.24-0.027,0.479-0.041,0.719v0.001c0,0,0,0,0-0.001c-0.011,0.274,0.107,0.565-0.108,0.812l0,0l0,0
			c-0.015,0.29-0.03,0.58-0.045,0.869V241c0,0,0,0,0-0.001c-0.01,0.275,0.108,0.567-0.108,0.815c-0.015,0.29-0.03,0.579-0.045,0.869
			v0.001c0,0,0,0,0-0.001c-0.01,0.275,0.109,0.567-0.109,0.815c-0.015,0.289-0.03,0.578-0.044,0.868v0.001c0,0,0,0,0-0.001
			c-0.019,0.325,0.127,0.67-0.113,0.97c-0.012,0.244-0.024,0.487-0.036,0.731c0,0,0,0.001,0,0.002v-0.001
			c-0.022,0.319,0.119,0.658-0.113,0.952c-0.014,0.292-0.029,0.584-0.043,0.876v0.001c0,0,0,0,0-0.001
			c-0.02,0.322,0.123,0.664-0.113,0.962c-0.014,0.29-0.028,0.58-0.042,0.869v0.001c0,0,0,0,0-0.001
			c-0.018,0.324,0.124,0.667-0.11,0.968c-0.013,0.295-0.026,0.59-0.04,0.885v0.001c0,0,0,0,0-0.001
			c-0.03,0.369,0.133,0.759-0.116,1.106c-0.013,0.292-0.027,0.583-0.04,0.875v0.001c0,0,0,0,0-0.001
			c-0.019,0.322,0.121,0.663-0.109,0.962c-0.015,0.343-0.029,0.685-0.044,1.028v0.001v-0.001c-0.026,0.373,0.135,0.766-0.113,1.117
			c-0.014,0.339-0.028,0.677-0.042,1.016v0.001v-0.001c-0.018,0.326,0.125,0.671-0.108,0.974c-0.014,0.344-0.028,0.688-0.042,1.031
			c0,0.001,0,0.001,0,0.002v-0.001c-0.026,0.372,0.132,0.762-0.111,1.112c-0.015,0.391-0.029,0.783-0.044,1.174v0.001v-0.001
			c-0.025,0.375,0.135,0.769-0.11,1.123c-0.013,0.346-0.026,0.692-0.039,1.038v0.001c0,0,0,0,0-0.001
			c-0.034,0.42,0.14,0.859-0.115,1.259c-0.014,0.393-0.028,0.786-0.041,1.179c0,0.001,0,0.001,0,0.002c0-0.001,0-0.001,0-0.002
			c-0.029,0.424,0.143,0.867-0.112,1.271c-0.014,0.393-0.027,0.786-0.041,1.178c0,0.001,0,0.001,0,0.002c0-0.001,0-0.001,0-0.002
			c-0.029,0.424,0.143,0.867-0.112,1.271c-0.014,0.442-0.028,0.883-0.042,1.325v0.001v-0.001c-0.027,0.426,0.143,0.87-0.109,1.277
			c-0.014,0.446-0.028,0.893-0.042,1.339v0.001v-0.001c-0.032,0.473,0.142,0.962-0.113,1.417c-0.014,0.493-0.028,0.986-0.043,1.479
			v0.001v-0.001c-0.027,0.477,0.138,0.969-0.109,1.43c-0.014,0.497-0.028,0.993-0.042,1.49v0.001v-0.001
			c-0.037,0.524,0.152,1.065-0.112,1.573c-0.014,0.546-0.027,1.093-0.041,1.639c0,0.001,0,0.002,0,0.002c0-0.001,0-0.001,0-0.002
			c-0.031,0.577,0.147,1.167-0.112,1.729c-0.014,0.546-0.027,1.093-0.041,1.639v0.001v-0.001c-0.037,0.627,0.154,1.268-0.112,1.882
			l0,0l0,0c-0.014,0.646-0.028,1.293-0.042,1.939v0.001v-0.001c-0.036,0.63,0.155,1.273-0.111,1.889
			c-0.014,0.7-0.027,1.399-0.041,2.099v0.001v-0.001c-0.034,0.729,0.151,1.47-0.111,2.188c-0.014,0.8-0.029,1.601-0.043,2.401v0.001
			v-0.001c-0.043,0.884,0.167,1.779-0.112,2.653c-0.013,0.853-0.027,1.705-0.04,2.558v0.001v-0.001
			c-0.042,1.086,0.163,2.182-0.112,3.26c-0.014,1.208-0.028,2.416-0.042,3.623c0,0.001,0,0.002,0,0.003c0-0.001,0-0.002,0-0.002
			c-0.041,1.204,0.111,2.415-0.058,3.616c0.001,0.14-0.008,0.28-0.054,0.417c-0.013,1.873-0.027,3.746-0.04,5.619
			c0,0.001,0,0.002-0.001,0.003c0-0.001,0-0.002,0.001-0.003c0.005,3.879,0,7.758,0.026,11.636c0.004,0.562-0.211,0.676-0.718,0.675
			c-12.25-0.011-24.499-0.008-36.749-0.012c-0.236,0-0.528,0.102-0.663-0.224c0.004-2.614,0.014-5.228,0.009-7.842
			c-0.003-1.498-0.031-2.995-0.047-4.493c-0.257-0.395-0.115-0.835-0.119-1.251c-0.016-1.436,0.002-2.873,0.007-4.31
			c-0.014-1.413-0.028-2.827-0.042-4.24c-0.268-1.131-0.073-2.277-0.112-3.415c-0.014-1.057-0.027-2.113-0.041-3.17
			c-0.278-0.874-0.069-1.769-0.112-2.653c-0.014-0.902-0.028-1.805-0.042-2.707c-0.263-0.721-0.079-1.464-0.11-2.197
			c-0.014-0.748-0.028-1.496-0.042-2.244c-0.266-0.718-0.078-1.46-0.112-2.19c-0.014-0.648-0.028-1.296-0.042-1.945
			c-0.264-0.615-0.075-1.258-0.111-1.886c-0.014-0.596-0.027-1.192-0.041-1.789c-0.26-0.563-0.082-1.155-0.112-1.733
			c-0.014-0.545-0.027-1.091-0.041-1.636c-0.26-0.563-0.082-1.154-0.113-1.731c-0.014-0.495-0.028-0.99-0.042-1.485
			c-0.254-0.508-0.083-1.047-0.113-1.572c-0.014-0.497-0.028-0.994-0.042-1.491c-0.247-0.458-0.082-0.948-0.11-1.422
			c-0.014-0.445-0.028-0.889-0.042-1.334c-0.254-0.455-0.081-0.945-0.112-1.418c-0.014-0.446-0.028-0.893-0.042-1.339
			c-0.251-0.406-0.082-0.848-0.11-1.273c-0.013-0.392-0.027-0.784-0.041-1.177c-0.257-0.407-0.084-0.851-0.112-1.278
			c-0.015-0.442-0.03-0.884-0.045-1.327c-0.241-0.356-0.084-0.749-0.107-1.125c-0.015-0.39-0.029-0.781-0.044-1.171
			c-0.244-0.353-0.086-0.746-0.11-1.12c-0.015-0.392-0.03-0.785-0.044-1.177c-0.242-0.351-0.085-0.742-0.11-1.115
			c-0.013-0.343-0.027-0.686-0.04-1.029c-0.247-0.35-0.087-0.742-0.113-1.114c-0.014-0.343-0.028-0.687-0.042-1.03
			c-0.243-0.348-0.084-0.736-0.113-1.106c-0.012-0.295-0.025-0.589-0.037-0.884c-0.25-0.351-0.088-0.744-0.114-1.118
			c-0.013-0.291-0.026-0.582-0.039-0.873c-0.25-0.347-0.087-0.738-0.116-1.108c-0.013-0.294-0.026-0.589-0.039-0.883
			c-0.236-0.302-0.092-0.646-0.11-0.972c-0.015-0.34-0.03-0.679-0.046-1.019c-0.23-0.294-0.089-0.631-0.112-0.949
			c-0.014-0.296-0.028-0.593-0.043-0.889c-0.213-0.249-0.096-0.541-0.106-0.817c-0.014-0.289-0.028-0.577-0.042-0.866
			c-0.237-0.298-0.093-0.641-0.113-0.965c-0.014-0.291-0.029-0.582-0.043-0.873c-0.218-0.249-0.098-0.542-0.109-0.818
			c-0.015-0.289-0.03-0.577-0.045-0.866c-0.218-0.248-0.098-0.541-0.109-0.817c-0.015-0.289-0.03-0.578-0.045-0.868
			c-0.217-0.248-0.098-0.54-0.109-0.815c-0.015-0.29-0.031-0.58-0.046-0.869c-0.214-0.242-0.097-0.53-0.11-0.8
			c-0.013-0.243-0.027-0.487-0.04-0.73c-0.218-0.245-0.099-0.537-0.11-0.811c-0.013-0.24-0.027-0.48-0.04-0.72
			c-0.223-0.248-0.1-0.544-0.111-0.821c-0.065-0.747-0.13-1.495-0.195-2.242c-0.221-0.244-0.101-0.536-0.113-0.809
			c-0.014-0.241-0.029-0.482-0.043-0.723c-0.216-0.241-0.098-0.528-0.113-0.797c-0.115-1.163-0.231-2.327-0.346-3.49
			c-0.217-0.238-0.099-0.524-0.116-0.791c-0.012-0.196-0.024-0.391-0.036-0.587c-0.219-0.239-0.1-0.527-0.116-0.795
			c-0.114-1.062-0.228-2.124-0.342-3.186c-0.222-0.237-0.101-0.526-0.118-0.794c-0.234-1.52-0.402-3.051-0.578-4.575
			c-0.159-1.382-0.314-2.771-0.5-4.146c-0.284-2.09-0.563-4.184-0.876-6.272c-0.231-1.54-0.396-3.102-0.637-4.641
			c-0.291-1.856-0.605-3.715-0.887-5.571c-0.357-2.347-0.754-4.688-1.109-7.036c-0.324-2.147-0.872-4.26-1.193-6.407
			c-0.42-2.815-1.023-5.594-1.58-8.38c-0.551-2.756-1.171-5.502-1.799-8.244c-0.739-3.225-1.48-6.448-2.311-9.651
			c-0.81-3.123-1.672-6.229-2.575-9.327c-0.83-2.848-1.723-5.674-2.682-8.478c-1.428-4.173-3.006-8.292-4.832-12.311
			c-2.08-4.577-4.472-8.978-7.552-12.967c-1.963-2.543-4.248-4.749-7.149-6.231c-1.344-0.687-2.747-1.167-4.274-1.208h-0.001h0.001
			c-0.395,0-0.791,0-1.186,0c-2.439,0.102-4.529,1.103-6.408,2.573c-3.335,2.608-5.703,6.014-7.815,9.622
			c-2.931,5.008-5.149,10.341-7.142,15.773c-2.971,8.097-5.261,16.398-7.318,24.764c-1.318,5.362-2.471,10.763-3.545,16.178
			c-1.001,5.051-1.907,10.123-2.761,15.202c-0.742,4.41-1.37,8.841-2.019,13.266c-0.576,3.926-1.167,7.852-1.646,11.791
			c-0.241,1.984-0.61,3.959-0.656,5.966c0,0,0,0,0,0.001l0,0c-0.016,0.269,0.106,0.559-0.118,0.797
			c-0.298,1.921-0.547,3.848-0.646,5.791c0,0,0,0,0,0.001l0,0c-0.017,0.267,0.103,0.555-0.116,0.793
			c-0.416,3.904-0.864,7.805-1.241,11.713c-0.476,4.924-0.914,9.852-1.333,14.781c-0.302,3.558-0.573,7.119-0.811,10.682
			c-0.414,6.185-0.815,12.37-1.178,18.558c-0.248,4.228-0.451,8.458-0.627,12.69c-0.573,13.743-0.96,27.491-1.101,41.246
			c-0.045,4.415-0.051,8.831-0.041,13.246c0.002,0.642-0.115,0.866-0.824,0.865c-12.174-0.024-24.348-0.024-36.522-0.001
			c-0.698,0.001-0.829-0.205-0.826-0.857c0.038-6.661,0.071-13.322,0.247-19.981c0.232-8.774,0.567-17.546,1.094-26.307
			c0.388-6.467,0.843-12.931,1.37-19.388c0.61-7.471,1.368-14.929,2.219-22.379c1.235-10.816,2.717-21.597,4.508-32.333
			c3.481-20.877,7.968-41.525,14.196-61.772c4.23-13.752,9.2-27.22,15.646-40.107c4.507-9.011,9.641-17.631,16.232-25.306
			c4.18-4.868,8.831-9.2,14.44-12.411c5.035-2.882,10.413-4.522,16.255-4.376c5.219,0.131,10.093,1.578,14.685,4.026
			c5.936,3.164,10.884,7.54,15.316,12.536c7.336,8.271,12.957,17.662,17.843,27.52c6.535,13.186,11.535,26.967,15.778,41.037
			c0.602,1.998,1.178,4.004,1.782,6.062c0.306-0.229,0.288-0.558,0.363-0.822c3.803-13.315,8.263-26.396,13.919-39.05
			c4.096-9.165,8.771-18.011,14.564-26.234c4.385-6.224,9.309-11.96,15.352-16.654c4.705-3.655,9.851-6.428,15.723-7.712
			c7.737-1.692,14.984-0.329,21.827,3.521c5.473,3.078,10.045,7.234,14.153,11.927c6.957,7.947,12.313,16.936,16.996,26.348
			c6.829,13.727,12.012,28.092,16.396,42.759c4.074,13.629,7.365,27.451,10.139,41.4c1.984,9.974,3.683,19.998,5.148,30.06
			c1.073,7.366,2.007,14.75,2.823,22.149c0.901,8.162,1.674,16.336,2.304,24.524c0.484,6.283,0.889,12.569,1.224,18.861
			c0.45,8.46,0.79,16.924,0.927,25.395c0.09,5.588,0.139,11.177,0.243,16.764C371.134,351.738,370.975,351.943,370.217,351.942z"/>
		<path style="fill:#FCCA00;" d="M238.148,314.749c-0.02,0.139-0.025,0.278-0.054,0.417
			C238.14,315.029,238.15,314.889,238.148,314.749z"/>
		<path style="fill:#FCCA00;" d="M369.949,308.853c-0.334-6.292-0.74-12.579-1.224-18.861c-0.63-8.188-1.403-16.361-2.304-24.524
			c-0.817-7.399-1.751-14.784-2.823-22.149c-1.465-10.062-3.164-20.085-5.148-30.06c-2.774-13.949-6.066-27.771-10.139-41.4
			c-4.384-14.667-9.566-29.031-16.396-42.759c-4.683-9.412-10.039-18.401-16.996-26.348c-4.108-4.693-8.681-8.848-14.153-11.927
			c-6.843-3.849-14.089-5.212-21.827-3.521c-5.872,1.284-11.018,4.057-15.723,7.712c-6.043,4.695-10.967,10.43-15.352,16.654
			c-5.793,8.223-10.468,17.069-14.564,26.234c-5.656,12.654-10.115,25.735-13.919,39.05c-0.075,0.264-0.058,0.593-0.363,0.822
			c-0.604-2.059-1.18-4.065-1.782-6.062c-4.243-14.07-9.242-27.851-15.778-41.037c-4.886-9.858-10.507-19.249-17.843-27.52
			c-4.431-4.996-9.38-9.372-15.316-12.536c-4.592-2.447-9.466-3.895-14.685-4.026c-5.842-0.146-11.221,1.494-16.255,4.376
			c-5.609,3.21-10.26,7.543-14.44,12.411c-6.591,7.675-11.725,16.295-16.232,25.306c-6.445,12.887-11.416,26.354-15.646,40.107
			c-6.227,20.246-10.714,40.895-14.196,61.772c-1.79,10.737-3.272,21.518-4.508,32.333c-0.851,7.449-1.609,14.907-2.219,22.379
			c-0.527,6.457-0.982,12.921-1.37,19.388c-0.526,8.762-0.862,17.533-1.094,26.307c-0.176,6.659-0.208,13.32-0.247,19.981
			c-0.004,0.652,0.127,0.858,0.826,0.857c12.174-0.024,24.348-0.024,36.522,0.001c0.709,0.001,0.826-0.223,0.824-0.865
			c-0.01-4.415-0.004-8.831,0.041-13.246c0.14-13.754,0.527-27.503,1.101-41.246c0.177-4.231,0.379-8.462,0.627-12.69
			c0.363-6.188,0.764-12.373,1.178-18.558c0.238-3.563,0.509-7.124,0.811-10.682c0.419-4.929,0.857-9.857,1.333-14.781
			c0.378-3.908,0.825-7.809,1.241-11.713c-0.018-0.272-0.027-0.543,0.116-0.792c0,0,0,0,0-0.001c0.099-1.943,0.348-3.87,0.646-5.791
			c-0.018-0.274-0.029-0.547,0.118-0.797c0,0,0,0,0-0.001c0.046-2.007,0.415-3.982,0.656-5.966
			c0.479-3.939,1.069-7.865,1.646-11.791c0.65-4.426,1.277-8.856,2.019-13.266c0.855-5.078,1.76-10.15,2.761-15.202
			c1.073-5.415,2.227-10.817,3.545-16.178c2.057-8.366,4.347-16.667,7.318-24.764c1.993-5.432,4.21-10.765,7.142-15.773
			c2.112-3.608,4.48-7.014,7.815-9.622c1.879-1.47,3.969-2.47,6.408-2.573c0.395-0.141,0.79-0.137,1.185,0h0.001
			c1.527,0.042,2.93,0.522,4.274,1.208c2.901,1.482,5.186,3.688,7.149,6.231c3.08,3.989,5.472,8.39,7.552,12.967
			c1.826,4.019,3.404,8.138,4.832,12.311c0.959,2.804,1.852,5.63,2.682,8.478c0.903,3.097,1.765,6.204,2.575,9.327
			c0.831,3.203,1.571,6.426,2.311,9.651c0.628,2.742,1.249,5.487,1.799,8.244c0.557,2.786,1.16,5.565,1.58,8.38
			c0.32,2.147,0.868,4.26,1.193,6.407c0.355,2.348,0.752,4.689,1.109,7.036c0.283,1.856,0.597,3.714,0.887,5.571
			c0.241,1.54,0.406,3.101,0.637,4.641c0.313,2.087,0.593,4.182,0.876,6.272c0.187,1.375,0.342,2.765,0.5,4.146
			c0.175,1.525,0.343,3.056,0.578,4.575c0.145,0.249,0.136,0.521,0.118,0.794c0.114,1.062,0.228,2.124,0.342,3.186
			c0.144,0.25,0.133,0.522,0.116,0.795c0.012,0.196,0.024,0.391,0.036,0.587c0.041,0.068,0.057,0.14,0.065,0.213
			c0.051,0.188,0.064,0.381,0.051,0.578c0.115,1.163,0.231,2.327,0.346,3.49c0.143,0.251,0.131,0.524,0.113,0.797
			c0.014,0.241,0.029,0.482,0.043,0.723c0.147,0.254,0.13,0.532,0.113,0.809c0.065,0.747,0.13,1.495,0.195,2.242
			c0.151,0.258,0.127,0.54,0.111,0.821c0.013,0.24,0.027,0.48,0.04,0.72c0.146,0.255,0.128,0.533,0.11,0.811
			c0.013,0.243,0.027,0.487,0.04,0.73c0.143,0.252,0.128,0.526,0.11,0.8c0.015,0.29,0.031,0.58,0.046,0.869
			c0.148,0.257,0.125,0.537,0.109,0.815c0.015,0.289,0.03,0.578,0.045,0.868c0.148,0.257,0.125,0.537,0.109,0.817
			c0.015,0.289,0.03,0.577,0.045,0.866c0.149,0.258,0.125,0.539,0.109,0.818c0.014,0.291,0.029,0.582,0.043,0.873
			c0.156,0.308,0.127,0.637,0.113,0.965c0.014,0.289,0.028,0.577,0.042,0.866c0.146,0.258,0.123,0.538,0.106,0.817
			c0.014,0.296,0.028,0.593,0.043,0.889c0.149,0.303,0.128,0.626,0.112,0.949c0.015,0.34,0.03,0.679,0.046,1.019
			c0.158,0.31,0.124,0.643,0.11,0.972c0.013,0.294,0.026,0.589,0.039,0.883c0.16,0.357,0.129,0.734,0.116,1.108
			c0.013,0.291,0.026,0.582,0.039,0.873c0.165,0.36,0.126,0.74,0.114,1.118c0.012,0.295,0.025,0.589,0.037,0.884
			c0.156,0.357,0.126,0.732,0.113,1.106c0.014,0.343,0.028,0.687,0.042,1.03c0.16,0.359,0.125,0.738,0.113,1.114
			c0.013,0.343,0.027,0.686,0.04,1.029c0.158,0.36,0.122,0.738,0.11,1.115c0.015,0.392,0.03,0.785,0.044,1.177
			c0.161,0.361,0.122,0.742,0.11,1.12c0.015,0.39,0.029,0.781,0.044,1.171c0.163,0.363,0.119,0.746,0.107,1.125
			c0.015,0.442,0.03,0.884,0.045,1.327c0.168,0.414,0.121,0.848,0.112,1.278c0.013,0.392,0.027,0.785,0.041,1.177
			c0.167,0.413,0.12,0.844,0.11,1.273c0.014,0.446,0.028,0.893,0.042,1.339c0.167,0.462,0.121,0.941,0.112,1.418
			c0.014,0.445,0.028,0.889,0.042,1.334c0.169,0.464,0.121,0.945,0.11,1.422c0.014,0.497,0.028,0.994,0.042,1.491
			c0.17,0.514,0.121,1.045,0.113,1.572c0.014,0.495,0.028,0.99,0.042,1.485c0.175,0.568,0.12,1.151,0.113,1.731
			c0.014,0.545,0.027,1.091,0.041,1.636c0.173,0.569,0.12,1.152,0.112,1.733c0.014,0.596,0.027,1.192,0.041,1.789
			c0.172,0.621,0.116,1.255,0.111,1.886c0.014,0.648,0.028,1.296,0.042,1.945c0.179,0.723,0.118,1.458,0.112,2.19
			c0.014,0.748,0.028,1.496,0.042,2.244c0.177,0.725,0.118,1.462,0.11,2.197c0.014,0.902,0.028,1.805,0.042,2.707
			c0.183,0.878,0.115,1.767,0.112,2.653c0.014,1.057,0.027,2.113,0.041,3.17c0.182,1.134,0.118,2.275,0.112,3.415
			c0.014,1.413,0.028,2.827,0.042,4.24c0.118,0.269,0.056,0.553,0.062,0.83c0,0.018,0,0.036,0,0.054
			c0.095,1.557,0.048,3.117,0.05,4.677c0.017,1.498,0.044,2.995,0.047,4.493c0.005,2.614-0.005,5.228-0.009,7.842
			c0.29,0.143,0.602,0.09,0.904,0.09c12.068,0.002,24.136-0.004,36.204,0.017c0.686,0.001,0.887-0.157,0.882-0.867
			c-0.025-3.495,0.012-6.99,0.032-10.486c0.002-0.276-0.047-0.561,0.081-0.827c0-0.001,0-0.002,0.001-0.003
			c0.013-1.873,0.027-3.746,0.04-5.619c0-1.344-0.074-2.691,0.112-4.031c0-0.001,0-0.002,0-0.003
			c0.014-1.208,0.028-2.416,0.042-3.623c0-1.088-0.07-2.178,0.112-3.259v-0.001c0.013-0.853,0.027-1.705,0.04-2.558
			c-0.002-0.885-0.071-1.774,0.112-2.652v-0.001c0.014-0.8,0.029-1.601,0.043-2.401c-0.007-0.731-0.063-1.465,0.111-2.187v-0.001
			c0.014-0.7,0.027-1.399,0.041-2.099c-0.005-0.632-0.065-1.267,0.111-1.888v-0.001c0.014-0.646,0.028-1.293,0.042-1.939l0,0
			c-0.005-0.629-0.065-1.262,0.112-1.881v-0.001c0.014-0.546,0.027-1.093,0.041-1.639c-0.009-0.579-0.059-1.16,0.112-1.727
			c0-0.001,0-0.002,0-0.002c0.014-0.546,0.028-1.093,0.041-1.639c-0.008-0.527-0.058-1.057,0.112-1.572v-0.001
			c0.014-0.497,0.028-0.993,0.042-1.49c-0.008-0.48-0.062-0.963,0.109-1.429v-0.001c0.014-0.493,0.028-0.986,0.043-1.479
			c-0.009-0.476-0.054-0.954,0.112-1.416v-0.001c0.014-0.446,0.028-0.893,0.042-1.339c-0.01-0.429-0.059-0.862,0.109-1.277v-0.001
			c0.014-0.442,0.028-0.883,0.042-1.325c-0.011-0.427-0.054-0.857,0.111-1.27c0-0.001,0-0.001,0-0.002
			c0.014-0.393,0.027-0.786,0.041-1.178c-0.01-0.427-0.053-0.858,0.112-1.27c0-0.001,0-0.001,0-0.002
			c0.014-0.393,0.028-0.786,0.041-1.179c-0.012-0.424-0.048-0.85,0.114-1.258v-0.001c0.013-0.346,0.026-0.692,0.039-1.038
			c-0.012-0.379-0.052-0.76,0.11-1.122v-0.001c0.015-0.391,0.029-0.783,0.044-1.174c-0.012-0.375-0.05-0.753,0.11-1.111
			c0-0.001,0-0.001,0-0.002c0.014-0.344,0.028-0.688,0.042-1.031c-0.013-0.33-0.05-0.662,0.108-0.973v-0.001
			c0.014-0.339,0.028-0.677,0.042-1.016c-0.013-0.377-0.047-0.756,0.113-1.116v-0.001c0.015-0.342,0.029-0.685,0.044-1.028
			c-0.015-0.326-0.043-0.654,0.109-0.961v-0.001c0.013-0.292,0.027-0.583,0.04-0.875c-0.013-0.374-0.043-0.749,0.116-1.105v-0.001
			c0.013-0.295,0.026-0.59,0.04-0.885c-0.014-0.328-0.046-0.658,0.11-0.967v-0.001c0.014-0.29,0.028-0.58,0.042-0.869
			c-0.014-0.326-0.042-0.654,0.112-0.961V247.9c0.014-0.292,0.029-0.584,0.043-0.876c-0.015-0.323-0.038-0.647,0.112-0.951
			c0,0,0-0.001,0-0.002c0.012-0.244,0.024-0.487,0.036-0.731c-0.013-0.329-0.047-0.661,0.113-0.97v-0.001
			c0.015-0.289,0.03-0.578,0.044-0.868c-0.016-0.278-0.04-0.558,0.108-0.815v-0.001c0.015-0.29,0.03-0.579,0.045-0.869
			c-0.017-0.278-0.039-0.557,0.108-0.814v-0.001c0.015-0.29,0.03-0.58,0.045-0.869l0,0c-0.017-0.277-0.038-0.555,0.108-0.811v-0.001
			c0.013-0.24,0.027-0.479,0.041-0.719c-0.016-0.281-0.042-0.563,0.111-0.821c0,0,0,0,0-0.001c0.016-0.288,0.032-0.576,0.048-0.864
			l0,0l0,0c-0.018-0.272-0.031-0.544,0.11-0.795v-0.001c0.014-0.245,0.027-0.49,0.041-0.734c-0.018-0.275-0.033-0.55,0.11-0.804
			v-0.001c0.014-0.242,0.028-0.484,0.042-0.726c-0.018-0.273-0.03-0.546,0.113-0.797c0,0,0,0,0-0.001
			c-0.045-0.714,0.067-1.413,0.191-2.112c-0.018-0.277-0.035-0.553,0.112-0.807v-0.001c-0.017-1.174,0.185-2.325,0.349-3.48
			c-0.013-0.196,0-0.388,0.05-0.575c0.007-0.074,0.024-0.146,0.065-0.215c0.012-0.196,0.025-0.392,0.037-0.588
			c-0.018-0.271-0.027-0.541,0.116-0.789c0,0,0,0,0-0.001c-0.043-0.615,0.044-1.217,0.187-1.813
			c-0.018-0.273-0.028-0.546,0.117-0.795v-0.001c-0.039-0.613,0.046-1.213,0.187-1.807c-0.018-0.273-0.029-0.545,0.119-0.793v-0.001
			c0.005-0.331-0.023-0.667,0.021-0.993c0.496-3.709,1.012-7.415,1.504-11.125c0.589-4.436,1.281-8.855,1.979-13.275
			c0.72-4.567,1.497-9.126,2.363-13.666c0.968-5.08,2.011-10.148,3.173-15.19c1.612-6.997,3.396-13.946,5.511-20.809
			c1.53-4.965,3.238-9.866,5.225-14.666c1.818-4.393,3.855-8.681,6.408-12.706c2.121-3.344,4.493-6.475,7.723-8.84
			c1.925-1.409,4.031-2.423,6.485-2.49c0.492-0.144,0.984-0.147,1.477-0.001h0.001c1.151,0.043,2.236,0.37,3.28,0.823
			c3.002,1.302,5.247,3.555,7.243,6.037c2.701,3.359,4.754,7.136,6.593,11.018c1.322,2.789,2.461,5.657,3.58,8.537
			c1.161,2.99,2.147,6.035,3.17,9.068c0.861,2.552,1.556,5.162,2.282,7.758c1.241,4.434,2.349,8.904,3.393,13.388
			c0.777,3.337,1.47,6.691,2.169,10.045c0.474,2.272,0.886,4.555,1.351,6.827c0.372,1.816,0.727,3.636,1.053,5.46
			c0.234,1.311,0.37,2.64,0.62,3.948c0.246,1.286,0.428,2.581,0.653,3.868c0.263,1.509,0.507,3.02,0.724,4.536
			c0.168,1.173,0.417,2.334,0.594,3.506c0.178,1.177,0.307,2.362,0.467,3.542c0.164,1.204,0.335,2.407,0.511,3.61
			c0.194,1.327,0.463,2.647,0.579,3.98c0.118,1.361,0.331,2.71,0.497,4.061c0.172,1.402,0.314,2.814,0.553,4.21
			c0.145,0.247,0.137,0.517,0.119,0.789c0.166,1.468,0.331,2.937,0.497,4.405c0.148,0.251,0.134,0.526,0.116,0.802
			c0.073,0.846,0.083,1.704,0.234,2.536c0.215,1.178,0.259,2.371,0.415,3.553c0.146,0.252,0.132,0.527,0.114,0.802
			c0.012,0.195,0.024,0.39,0.036,0.585c0.041,0.068,0.057,0.14,0.064,0.213c0.05,0.188,0.063,0.382,0.05,0.579
			c0.014,0.24,0.029,0.48,0.043,0.721c0.147,0.255,0.129,0.533,0.112,0.811c0.014,0.239,0.028,0.477,0.042,0.716
			c0.149,0.256,0.129,0.536,0.112,0.815c0.014,0.237,0.028,0.475,0.041,0.712c0.151,0.258,0.129,0.539,0.112,0.82
			c0.014,0.236,0.027,0.472,0.041,0.708l0,0l0,0c0.154,0.259,0.129,0.542,0.112,0.823c0.013,0.24,0.027,0.479,0.04,0.719
			c0.147,0.256,0.127,0.534,0.11,0.812c0.013,0.244,0.026,0.489,0.04,0.733c0.155,0.303,0.132,0.628,0.117,0.952
			c0.013,0.239,0.027,0.477,0.04,0.716l0,0c0.148,0.257,0.126,0.536,0.11,0.814c0.015,0.287,0.029,0.575,0.044,0.862
			c0.151,0.259,0.125,0.541,0.109,0.822c0.015,0.289,0.029,0.578,0.044,0.866c0.147,0.258,0.125,0.538,0.108,0.818
			c0.015,0.291,0.03,0.581,0.044,0.872c0.146,0.256,0.125,0.535,0.108,0.813c0.014,0.293,0.029,0.587,0.043,0.88
			c0.152,0.306,0.127,0.633,0.112,0.958c0.014,0.292,0.028,0.584,0.042,0.876c0.154,0.307,0.126,0.635,0.112,0.962
			c0.014,0.291,0.028,0.582,0.042,0.873c0.156,0.308,0.126,0.637,0.112,0.965c0.014,0.291,0.027,0.582,0.041,0.874
			c0.152,0.308,0.124,0.637,0.109,0.964c0.015,0.34,0.03,0.68,0.045,1.021c0.156,0.31,0.124,0.641,0.11,0.971
			c0.013,0.296,0.026,0.591,0.039,0.887c0.157,0.356,0.128,0.731,0.116,1.104c0.014,0.339,0.028,0.677,0.042,1.016
			c0.157,0.311,0.121,0.644,0.108,0.974c0.014,0.345,0.028,0.69,0.042,1.035c0.158,0.357,0.125,0.734,0.113,1.109
			c0.014,0.342,0.028,0.685,0.042,1.027c0.161,0.36,0.125,0.739,0.112,1.117c0.013,0.346,0.026,0.691,0.039,1.037
			c0.163,0.409,0.126,0.836,0.115,1.261c0.013,0.344,0.026,0.688,0.039,1.033c0.165,0.41,0.126,0.839,0.115,1.265
			c0.013,0.344,0.026,0.688,0.038,1.032c0.162,0.411,0.123,0.839,0.112,1.265c0.014,0.395,0.028,0.79,0.041,1.185
			c0.162,0.411,0.122,0.839,0.112,1.265c0.014,0.395,0.028,0.79,0.041,1.185v0.001c0.17,0.462,0.123,0.941,0.114,1.418
			c0.013,0.396,0.025,0.793,0.038,1.189c0.165,0.461,0.123,0.939,0.113,1.414c0.014,0.444,0.028,0.889,0.042,1.333
			c0.169,0.464,0.122,0.945,0.112,1.423c0.014,0.493,0.028,0.986,0.042,1.48c0.171,0.466,0.118,0.95,0.11,1.43
			c0.014,0.495,0.028,0.989,0.042,1.484c0.175,0.517,0.121,1.049,0.113,1.579c0.013,0.497,0.026,0.995,0.039,1.492
			c0.171,0.566,0.12,1.146,0.113,1.723c0.014,0.544,0.028,1.089,0.042,1.633c0.176,0.57,0.119,1.154,0.111,1.735
			c0.014,0.598,0.028,1.196,0.041,1.794c0.173,0.619,0.119,1.252,0.112,1.881c0.014,0.646,0.028,1.293,0.042,1.939
			c0.179,0.673,0.114,1.359,0.111,2.042c0.014,0.699,0.028,1.398,0.042,2.096c0.177,0.723,0.118,1.459,0.111,2.191
			c0.014,0.802,0.028,1.604,0.041,2.406c0.176,0.825,0.118,1.661,0.113,2.494c0.014,0.952,0.028,1.904,0.042,2.857
			c0.182,0.931,0.114,1.871,0.112,2.809c0.014,1.107,0.027,2.213,0.041,3.32c0.181,1.135,0.114,2.277,0.111,3.418
			c0.014,1.515,0.028,3.031,0.042,4.546c0.118,0.269,0.056,0.553,0.062,0.83c0,0.012,0,0.024,0,0.037
			c0.098,1.563,0.051,3.129,0.05,4.694c0.014,3.148,0.027,6.296,0.041,9.444c0.078,0.33,0.079,0.664,0.071,0.997
			c0.049,1.193-0.022,2.388,0.019,3.582c0.013,0.381,0.028,0.763,0.042,1.144c12.404,0,24.808-0.008,37.213,0.018
			c0.758,0.002,0.916-0.204,0.903-0.929c-0.105-5.588-0.153-11.176-0.243-16.764C370.739,325.777,370.399,317.314,369.949,308.853z"
			/>
		<path style="fill:#FCFCFC;" d="M237.993,321.616c-0.004,3.548-0.017,7.095,0.011,10.643c0.005,0.601-0.154,0.765-0.762,0.764
			c-12.2-0.018-24.399-0.013-36.599-0.021c-0.23,0-0.513,0.144-0.693-0.142c0.135,0.327,0.427,0.224,0.663,0.224
			c12.25,0.004,24.499,0.002,36.749,0.012c0.507,0,0.722-0.113,0.718-0.675c-0.026-3.879-0.021-7.758-0.026-11.636
			c0,0.001,0,0.002-0.001,0.003C237.936,321.056,237.993,321.34,237.993,321.616z"/>
		<path style="fill:#FCFCFC;" d="M237.972,321.614c-0.02,3.495-0.056,6.991-0.032,10.486c0.005,0.71-0.195,0.868-0.882,0.867
			c-12.068-0.021-24.136-0.015-36.204-0.017c-0.303,0-0.614,0.053-0.904-0.09c0.18,0.286,0.463,0.142,0.693,0.142
			c12.2,0.008,24.399,0.002,36.599,0.021c0.608,0.001,0.766-0.163,0.762-0.764c-0.028-3.547-0.015-7.095-0.011-10.643
			c0-0.276-0.057-0.56,0.06-0.828C237.924,321.053,237.973,321.338,237.972,321.614z"/>
		<path style="fill:#FCFCFC;" d="M332.934,347.93c-0.008-0.243,0.003-0.487,0.009-0.731c-0.014-0.333-0.032-0.665-0.071-0.997
			c-0.005,1.72-0.011,3.44-0.015,5.16c0,0.198-0.039,0.411,0.146,0.562C332.855,350.595,332.98,349.261,332.934,347.93z"/>
		<path style="fill:#FCFCFC;" d="M332.943,347.198c-0.006,0.244-0.017,0.488-0.009,0.731c0.045,1.331-0.079,2.665,0.07,3.994
			c-0.014-0.381-0.029-0.763-0.042-1.144C332.921,349.587,332.992,348.391,332.943,347.198z"/>
		<path style="fill:#FCFCFC;" d="M332.781,332.064c-0.018-0.289-0.032-0.578-0.062-0.867c-0.005,1.437-0.023,2.873-0.007,4.31
			c0.005,0.416-0.138,0.856,0.119,1.251C332.722,335.194,332.814,333.628,332.781,332.064z"/>
		<path style="fill:#FCFCFC;" d="M332.781,332.064c0.033,1.564-0.059,3.13,0.05,4.694
			C332.832,335.193,332.88,333.626,332.781,332.064z"/>
		<path style="fill:#FCFCFC;" d="M199.862,315.849c-0.018-0.295-0.032-0.589-0.062-0.884c-0.005,1.437-0.023,2.873-0.007,4.31
			c0.005,0.416-0.138,0.856,0.119,1.251C199.804,318.967,199.894,317.408,199.862,315.849z"/>
		<path style="fill:#FCFCFC;" d="M199.862,315.849c0.032,1.559-0.059,3.119,0.05,4.677
			C199.911,318.966,199.957,317.406,199.862,315.849z"/>
		<path style="fill:#FCFCFC;" d="M238.142,314.332c-0.005,0.138,0.006,0.278,0.007,0.417c0.169-1.201,0.017-2.411,0.058-3.616
			c0,0.001,0,0.002,0,0.002C238.063,312.198,238.183,313.267,238.142,314.332z"/>
		<path style="fill:#FCFCFC;" d="M238.094,315.166c0.029-0.139,0.035-0.278,0.054-0.417c-0.001-0.139-0.012-0.278-0.007-0.417
			c0.041-1.065-0.078-2.133,0.064-3.197C238.02,312.475,238.094,313.821,238.094,315.166z"/>
		<path style="fill:#FCFCFC;" d="M332.566,323.233c0.039,1.139-0.159,2.286,0.111,3.418
			C332.532,325.515,332.739,324.368,332.566,323.233z"/>
		<path style="fill:#FCFCFC;" d="M332.566,323.233c0.172,1.135-0.035,2.282,0.111,3.418
			C332.68,325.51,332.747,324.367,332.566,323.233z"/>
		<path style="fill:#FCFCFC;" d="M199.647,307.31c0.039,1.138-0.157,2.284,0.112,3.415
			C199.612,309.59,199.821,308.444,199.647,307.31z"/>
		<path style="fill:#FCFCFC;" d="M199.647,307.31c0.174,1.134-0.034,2.28,0.112,3.415
			C199.765,309.585,199.828,308.443,199.647,307.31z"/>
		<path style="fill:#FCFCFC;" d="M238.248,307.509c0.276-1.079,0.07-2.174,0.112-3.26v0.001
			C238.183,305.331,238.399,306.427,238.248,307.509z"/>
		<path style="fill:#FCFCFC;" d="M238.248,307.509c0.151-1.083-0.065-2.178,0.112-3.259
			C238.178,305.331,238.248,306.421,238.248,307.509z"/>
		<path style="fill:#FCFCFC;" d="M332.414,317.104c0.036,0.937-0.158,1.882,0.112,2.809
			C332.377,318.981,332.587,318.035,332.414,317.104z"/>
		<path style="fill:#FCFCFC;" d="M332.414,317.104c0.173,0.931-0.037,1.877,0.112,2.809
			C332.528,318.975,332.596,318.034,332.414,317.104z"/>
		<path style="fill:#FCFCFC;" d="M199.494,301.487c0.043,0.884-0.167,1.779,0.112,2.653
			C199.459,303.26,199.667,302.366,199.494,301.487z"/>
		<path style="fill:#FCFCFC;" d="M199.494,301.487c0.172,0.879-0.036,1.773,0.112,2.653
			C199.61,303.254,199.677,302.365,199.494,301.487z"/>
		<path style="fill:#FCFCFC;" d="M238.4,301.69c0.28-0.874,0.069-1.769,0.112-2.653v0.001
			C238.34,299.917,238.549,300.811,238.4,301.69z"/>
		<path style="fill:#FCFCFC;" d="M238.4,301.69c0.149-0.879-0.06-1.774,0.112-2.652C238.329,299.917,238.398,300.805,238.4,301.69z"
			/>
		<path style="fill:#FCFCFC;" d="M332.26,311.753c0.039,0.831-0.155,1.673,0.113,2.494
			C332.228,313.42,332.429,312.578,332.26,311.753z"/>
		<path style="fill:#FCFCFC;" d="M332.26,311.753c0.169,0.825-0.031,1.668,0.113,2.494
			C332.378,313.414,332.435,312.578,332.26,311.753z"/>
		<path style="fill:#FCFCFC;" d="M199.188,292.149c0.034,0.73-0.154,1.472,0.112,2.19
			C199.153,293.615,199.358,292.873,199.188,292.149z"/>
		<path style="fill:#FCFCFC;" d="M199.188,292.149c0.171,0.723-0.034,1.466,0.112,2.19
			C199.306,293.607,199.367,292.872,199.188,292.149z"/>
		<path style="fill:#FCFCFC;" d="M238.555,296.636c0.263-0.718,0.078-1.459,0.111-2.188v0.001
			C238.496,295.171,238.698,295.913,238.555,296.636z"/>
		<path style="fill:#FCFCFC;" d="M238.555,296.636c0.142-0.724-0.059-1.465,0.111-2.187
			C238.493,295.172,238.549,295.905,238.555,296.636z"/>
		<path style="fill:#FCFCFC;" d="M199.342,296.584c0.032,0.732-0.153,1.476,0.11,2.197
			C199.308,298.053,199.51,297.309,199.342,296.584z"/>
		<path style="fill:#FCFCFC;" d="M199.342,296.584c0.168,0.726-0.033,1.47,0.11,2.197
			C199.46,298.046,199.519,297.309,199.342,296.584z"/>
		<path style="fill:#FCFCFC;" d="M332.107,307.155c0.033,0.731-0.152,1.472,0.111,2.191
			C332.075,308.621,332.277,307.879,332.107,307.155z"/>
		<path style="fill:#FCFCFC;" d="M332.107,307.155c0.17,0.724-0.033,1.466,0.111,2.191
			C332.225,308.614,332.285,307.879,332.107,307.155z"/>
		<path style="fill:#FCFCFC;" d="M331.955,303.016c0.038,0.681-0.158,1.374,0.111,2.042
			C331.927,304.383,332.117,303.69,331.955,303.016z"/>
		<path style="fill:#FCFCFC;" d="M331.955,303.016c0.163,0.674-0.028,1.367,0.111,2.042
			C332.069,304.376,332.133,303.689,331.955,303.016z"/>
		<path style="fill:#FCFCFC;" d="M331.8,299.196c0.038,0.627-0.154,1.268,0.112,1.881
			C331.768,300.457,331.971,299.815,331.8,299.196z"/>
		<path style="fill:#FCFCFC;" d="M331.8,299.196c0.17,0.619-0.032,1.261,0.112,1.881C331.919,300.448,331.973,299.815,331.8,299.196
			z"/>
		<path style="fill:#FCFCFC;" d="M199.035,288.318c0.036,0.629-0.154,1.271,0.111,1.886
			C199.005,289.582,199.202,288.94,199.035,288.318z"/>
		<path style="fill:#FCFCFC;" d="M199.035,288.318c0.167,0.621-0.03,1.264,0.111,1.886
			C199.151,289.574,199.207,288.939,199.035,288.318z"/>
		<path style="fill:#FCFCFC;" d="M238.707,292.349c0.266-0.616,0.076-1.26,0.111-1.889v0.001
			C238.652,291.082,238.85,291.726,238.707,292.349z"/>
		<path style="fill:#FCFCFC;" d="M238.707,292.349c0.143-0.623-0.056-1.266,0.111-1.888
			C238.642,291.082,238.702,291.717,238.707,292.349z"/>
		<path style="fill:#FCFCFC;" d="M238.861,288.52L238.861,288.52c0.266-0.614,0.075-1.255,0.112-1.882v0.001
			C238.804,287.258,239.004,287.899,238.861,288.52z"/>
		<path style="fill:#FCFCFC;" d="M238.861,288.52c0.143-0.621-0.057-1.262,0.112-1.881
			C238.796,287.258,238.856,287.891,238.861,288.52z"/>
		<path style="fill:#FCFCFC;" d="M331.648,295.667c0.029,0.579-0.147,1.171,0.111,1.735
			C331.619,296.83,331.813,296.237,331.648,295.667z"/>
		<path style="fill:#FCFCFC;" d="M331.648,295.667c0.165,0.57-0.029,1.164,0.111,1.735
			C331.767,296.821,331.824,296.236,331.648,295.667z"/>
		<path style="fill:#FCFCFC;" d="M331.493,292.31c0.04,0.574-0.155,1.164,0.113,1.723
			C331.463,293.466,331.663,292.876,331.493,292.31z"/>
		<path style="fill:#FCFCFC;" d="M331.493,292.31c0.17,0.566-0.03,1.156,0.113,1.723
			C331.613,293.456,331.664,292.876,331.493,292.31z"/>
		<path style="fill:#FCFCFC;" d="M198.882,284.797c0.03,0.578-0.148,1.17,0.112,1.733
			C198.851,285.959,199.049,285.366,198.882,284.797z"/>
		<path style="fill:#FCFCFC;" d="M198.882,284.797c0.167,0.569-0.031,1.162,0.112,1.733
			C199.002,285.949,199.055,285.366,198.882,284.797z"/>
		<path style="fill:#FCFCFC;" d="M239.014,284.999c0.259-0.562,0.081-1.153,0.112-1.729c0,0.001,0,0.001,0,0.002
			C238.958,283.838,239.156,284.43,239.014,284.999z"/>
		<path style="fill:#FCFCFC;" d="M239.014,284.999c0.142-0.569-0.055-1.16,0.112-1.727
			C238.955,283.839,239.005,284.42,239.014,284.999z"/>
		<path style="fill:#FCFCFC;" d="M198.729,281.43c0.031,0.578-0.147,1.169,0.113,1.731
			C198.697,282.591,198.896,281.999,198.729,281.43z"/>
		<path style="fill:#FCFCFC;" d="M198.729,281.43c0.168,0.569-0.031,1.161,0.113,1.731
			C198.848,282.581,198.903,281.998,198.729,281.43z"/>
		<path style="fill:#FCFCFC;" d="M239.167,281.63c0.264-0.508,0.076-1.049,0.112-1.573v0.001
			C239.112,280.572,239.307,281.113,239.167,281.63z"/>
		<path style="fill:#FCFCFC;" d="M239.167,281.63c0.14-0.517-0.055-1.057,0.112-1.572
			C239.109,280.572,239.159,281.102,239.167,281.63z"/>
		<path style="fill:#FCFCFC;" d="M331.342,289.239c0.036,0.526-0.154,1.069,0.113,1.579
			C331.312,290.299,331.506,289.756,331.342,289.239z"/>
		<path style="fill:#FCFCFC;" d="M331.342,289.239c0.165,0.517-0.029,1.06,0.113,1.579
			C331.462,290.288,331.516,289.755,331.342,289.239z"/>
		<path style="fill:#FCFCFC;" d="M198.574,278.373c0.03,0.524-0.141,1.063,0.113,1.572
			C198.546,279.429,198.742,278.888,198.574,278.373z"/>
		<path style="fill:#FCFCFC;" d="M198.574,278.373c0.168,0.515-0.028,1.055,0.113,1.572
			C198.695,279.418,198.744,278.888,198.574,278.373z"/>
		<path style="fill:#FCFCFC;" d="M284.726,105.518c0.493,0,0.985,0,1.478-0.001c0,0,0,0-0.001,0
			C285.711,105.416,285.219,105.415,284.726,105.518z"/>
		<path style="fill:#FCFCFC;" d="M284.726,105.518c0.492-0.103,0.985-0.102,1.477-0.001
			C285.711,105.371,285.219,105.374,284.726,105.518z"/>
		<path style="fill:#FCFCFC;" d="M331.189,286.325c0.028,0.477-0.138,0.969,0.11,1.43l0,0l0,0
			C331.165,287.286,331.348,286.792,331.189,286.325z"/>
		<path style="fill:#FCFCFC;" d="M331.189,286.325c0.158,0.467-0.024,0.961,0.11,1.43l0,0
			C331.307,287.275,331.36,286.791,331.189,286.325z"/>
		<path style="fill:#FCFCFC;" d="M331.035,283.422c0.029,0.475-0.138,0.966,0.112,1.423
			C331.009,284.379,331.197,283.887,331.035,283.422z"/>
		<path style="fill:#FCFCFC;" d="M331.035,283.422c0.162,0.465-0.026,0.957,0.112,1.423
			C331.157,284.367,331.204,283.886,331.035,283.422z"/>
		<path style="fill:#FCFCFC;" d="M330.88,280.675c0.033,0.472-0.141,0.96,0.113,1.414
			C330.855,281.626,331.048,281.136,330.88,280.675z"/>
		<path style="fill:#FCFCFC;" d="M330.88,280.675c0.168,0.461-0.025,0.951,0.113,1.414
			C331.003,281.614,331.045,281.136,330.88,280.675z"/>
		<path style="fill:#FCFCFC;" d="M330.728,278.069C330.728,278.068,330.728,278.068,330.728,278.069
			c0.032,0.472-0.144,0.963,0.114,1.418C330.7,279.022,330.894,278.531,330.728,278.069z"/>
		<path style="fill:#FCFCFC;" d="M330.728,278.069c0.166,0.462-0.028,0.953,0.114,1.418
			C330.851,279.01,330.898,278.53,330.728,278.069z"/>
		<path style="fill:#FCFCFC;" d="M239.322,278.566c0.247-0.461,0.082-0.953,0.109-1.43v0.001
			C239.274,277.604,239.453,278.097,239.322,278.566z"/>
		<path style="fill:#FCFCFC;" d="M239.322,278.566c0.132-0.469-0.048-0.962,0.109-1.429
			C239.259,277.604,239.313,278.087,239.322,278.566z"/>
		<path style="fill:#FCFCFC;" d="M198.422,275.46c0.029,0.475-0.137,0.965,0.11,1.422
			C198.398,276.416,198.584,275.924,198.422,275.46z"/>
		<path style="fill:#FCFCFC;" d="M198.422,275.46c0.162,0.464-0.024,0.956,0.11,1.422
			C198.543,276.404,198.591,275.924,198.422,275.46z"/>
		<path style="fill:#FCFCFC;" d="M239.473,275.657c0.255-0.455,0.081-0.945,0.113-1.417v0.001
			C239.421,274.703,239.611,275.193,239.473,275.657z"/>
		<path style="fill:#FCFCFC;" d="M239.473,275.657c0.138-0.464-0.052-0.954,0.112-1.416
			C239.419,274.703,239.464,275.182,239.473,275.657z"/>
		<path style="fill:#FCFCFC;" d="M198.268,272.708c0.032,0.473-0.142,0.962,0.112,1.418
			C198.243,273.661,198.433,273.171,198.268,272.708z"/>
		<path style="fill:#FCFCFC;" d="M198.268,272.708c0.165,0.462-0.025,0.953,0.112,1.418
			C198.389,273.65,198.434,273.171,198.268,272.708z"/>
		<path style="fill:#FCFCFC;" d="M198.116,270.097c0.027,0.425-0.142,0.867,0.11,1.273
			C198.097,270.953,198.272,270.511,198.116,270.097z"/>
		<path style="fill:#FCFCFC;" d="M198.116,270.097c0.155,0.414-0.02,0.856,0.11,1.273
			C198.236,270.941,198.283,270.51,198.116,270.097z"/>
		<path style="fill:#FCFCFC;" d="M239.779,270.298c0.255-0.405,0.083-0.847,0.112-1.271c0,0.001,0,0.001,0,0.002
			C239.734,269.441,239.912,269.883,239.779,270.298z"/>
		<path style="fill:#FCFCFC;" d="M239.779,270.298c0.133-0.415-0.045-0.857,0.111-1.27
			C239.725,269.44,239.769,269.871,239.779,270.298z"/>
		<path style="fill:#FCFCFC;" d="M240.085,265.397c0.254-0.4,0.081-0.839,0.115-1.259c0,0,0,0,0,0.001
			C240.035,264.547,240.222,264.987,240.085,265.397z"/>
		<path style="fill:#FCFCFC;" d="M240.085,265.397c0.137-0.41-0.051-0.85,0.114-1.258
			C240.038,264.548,240.073,264.974,240.085,265.397z"/>
		<path style="fill:#FCFCFC;" d="M197.964,267.642c0.028,0.427-0.145,0.871,0.112,1.278
			C197.941,268.503,198.119,268.058,197.964,267.642z"/>
		<path style="fill:#FCFCFC;" d="M197.964,267.642c0.155,0.416-0.023,0.86,0.112,1.278
			C198.085,268.49,198.132,268.057,197.964,267.642z"/>
		<path style="fill:#FCFCFC;" d="M330.114,268.578c0.033,0.421-0.141,0.86,0.115,1.261
			C330.091,269.427,330.279,268.987,330.114,268.578z"/>
		<path style="fill:#FCFCFC;" d="M330.114,268.578c0.165,0.409-0.023,0.85,0.115,1.261
			C330.24,269.414,330.277,268.987,330.114,268.578z"/>
		<path style="fill:#FCFCFC;" d="M330.575,275.618c0.031,0.422-0.14,0.862,0.112,1.265
			C330.554,276.469,330.735,276.028,330.575,275.618z"/>
		<path style="fill:#FCFCFC;" d="M330.575,275.618c0.161,0.411-0.021,0.852,0.112,1.265
			C330.697,276.456,330.737,276.028,330.575,275.618z"/>
		<path style="fill:#FCFCFC;" d="M239.932,267.848c0.255-0.405,0.083-0.847,0.112-1.271c0,0.001,0,0.001,0,0.002
			C239.887,266.991,240.066,267.433,239.932,267.848z"/>
		<path style="fill:#FCFCFC;" d="M239.932,267.848c0.134-0.415-0.045-0.857,0.112-1.27
			C239.879,266.99,239.922,267.42,239.932,267.848z"/>
		<path style="fill:#FCFCFC;" d="M330.421,273.167c0.031,0.422-0.14,0.862,0.112,1.265
			C330.401,274.019,330.582,273.578,330.421,273.167z"/>
		<path style="fill:#FCFCFC;" d="M330.421,273.167c0.161,0.411-0.021,0.852,0.112,1.265
			C330.544,274.006,330.583,273.578,330.421,273.167z"/>
		<path style="fill:#FCFCFC;" d="M239.628,272.901c0.251-0.408,0.082-0.851,0.109-1.277v0.001
			C239.584,272.04,239.756,272.483,239.628,272.901z"/>
		<path style="fill:#FCFCFC;" d="M239.628,272.901c0.128-0.418-0.044-0.861,0.109-1.277
			C239.569,272.039,239.618,272.471,239.628,272.901z"/>
		<path style="fill:#FCFCFC;" d="M330.268,270.871c0.033,0.422-0.141,0.863,0.115,1.265
			C330.244,271.723,330.431,271.281,330.268,270.871z"/>
		<path style="fill:#FCFCFC;" d="M330.268,270.871c0.163,0.41-0.024,0.852,0.115,1.265
			C330.394,271.71,330.433,271.281,330.268,270.871z"/>
		<path style="fill:#FCFCFC;" d="M152.103,105.517c0.396,0,0.791,0,1.186,0h-0.001C152.893,105.417,152.498,105.418,152.103,105.517
			z"/>
		<path style="fill:#FCFCFC;" d="M152.103,105.517c0.395-0.098,0.79-0.099,1.185,0C152.893,105.38,152.498,105.375,152.103,105.517z
			"/>
		<path style="fill:#FCFCFC;" d="M197.657,262.899c0.024,0.375-0.134,0.767,0.11,1.12
			C197.642,263.654,197.807,263.261,197.657,262.899z"/>
		<path style="fill:#FCFCFC;" d="M197.657,262.899c0.149,0.362-0.016,0.756,0.11,1.12
			C197.779,263.641,197.818,263.26,197.657,262.899z"/>
		<path style="fill:#FCFCFC;" d="M329.809,264.288c0.028,0.371-0.132,0.76,0.113,1.109
			C329.792,265.037,329.966,264.646,329.809,264.288z"/>
		<path style="fill:#FCFCFC;" d="M329.809,264.288c0.157,0.358-0.017,0.749,0.113,1.109
			C329.934,265.023,329.967,264.646,329.809,264.288z"/>
		<path style="fill:#FCFCFC;" d="M197.811,265.19c0.023,0.376-0.134,0.77,0.107,1.125
			C197.798,265.949,197.957,265.555,197.811,265.19z"/>
		<path style="fill:#FCFCFC;" d="M197.811,265.19c0.146,0.365-0.013,0.758,0.107,1.125
			C197.93,265.936,197.974,265.553,197.811,265.19z"/>
		<path style="fill:#FCFCFC;" d="M329.963,266.425c0.025,0.373-0.134,0.765,0.112,1.117
			C329.946,267.178,330.115,266.785,329.963,266.425z"/>
		<path style="fill:#FCFCFC;" d="M329.963,266.425c0.152,0.361-0.017,0.754,0.112,1.117
			C330.088,267.164,330.125,266.784,329.963,266.425z"/>
		<path style="fill:#FCFCFC;" d="M241.003,252.688c0.249-0.347,0.086-0.736,0.116-1.106c0,0,0,0,0,0.001
			C240.958,251.938,241.138,252.329,241.003,252.688z"/>
		<path style="fill:#FCFCFC;" d="M241.003,252.688c0.135-0.358-0.045-0.75,0.116-1.105
			C240.959,251.938,240.99,252.314,241.003,252.688z"/>
		<path style="fill:#FCFCFC;" d="M196.889,252.345c0.029,0.37-0.134,0.761,0.116,1.108
			C196.869,253.094,197.049,252.702,196.889,252.345z"/>
		<path style="fill:#FCFCFC;" d="M196.889,252.345c0.16,0.357-0.02,0.749,0.116,1.108
			C197.018,253.079,197.049,252.702,196.889,252.345z"/>
		<path style="fill:#FCFCFC;" d="M197.044,254.326c0.026,0.374-0.136,0.767,0.114,1.118
			C197.025,255.081,197.197,254.687,197.044,254.326z"/>
		<path style="fill:#FCFCFC;" d="M197.044,254.326c0.153,0.361-0.02,0.755,0.114,1.118
			C197.17,255.067,197.209,254.686,197.044,254.326z"/>
		<path style="fill:#FCFCFC;" d="M240.697,256.669c0.248-0.351,0.087-0.744,0.113-1.117v0.001
			C240.657,255.914,240.828,256.307,240.697,256.669z"/>
		<path style="fill:#FCFCFC;" d="M240.697,256.669c0.132-0.362-0.039-0.756,0.113-1.116
			C240.649,255.913,240.684,256.292,240.697,256.669z"/>
		<path style="fill:#FCFCFC;" d="M197.195,256.328c0.028,0.37-0.131,0.758,0.113,1.106
			C197.179,257.075,197.354,256.685,197.195,256.328z"/>
		<path style="fill:#FCFCFC;" d="M197.195,256.328c0.159,0.356-0.016,0.747,0.113,1.106
			C197.321,257.06,197.351,256.685,197.195,256.328z"/>
		<path style="fill:#FCFCFC;" d="M197.35,258.464c0.026,0.373-0.134,0.764,0.113,1.114
			C197.332,259.217,197.504,258.824,197.35,258.464z"/>
		<path style="fill:#FCFCFC;" d="M197.35,258.464c0.154,0.36-0.018,0.752,0.113,1.114
			C197.475,259.202,197.51,258.823,197.35,258.464z"/>
		<path style="fill:#FCFCFC;" d="M240.394,260.803c0.243-0.35,0.085-0.741,0.111-1.112v0.001
			C240.351,260.051,240.519,260.442,240.394,260.803z"/>
		<path style="fill:#FCFCFC;" d="M240.394,260.803c0.126-0.361-0.042-0.752,0.11-1.111
			C240.344,260.05,240.382,260.428,240.394,260.803z"/>
		<path style="fill:#FCFCFC;" d="M329.501,260.159c0.03,0.369-0.132,0.758,0.116,1.104
			C329.482,260.905,329.663,260.514,329.501,260.159z"/>
		<path style="fill:#FCFCFC;" d="M329.501,260.159c0.162,0.355-0.019,0.746,0.116,1.104
			C329.629,260.889,329.658,260.514,329.501,260.159z"/>
		<path style="fill:#FCFCFC;" d="M197.503,260.607c0.025,0.373-0.132,0.763,0.11,1.115
			C197.489,261.359,197.655,260.967,197.503,260.607z"/>
		<path style="fill:#FCFCFC;" d="M197.503,260.607c0.152,0.36-0.015,0.752,0.11,1.115
			C197.625,261.345,197.661,260.967,197.503,260.607z"/>
		<path style="fill:#FCFCFC;" d="M240.239,263.1c0.246-0.354,0.086-0.748,0.11-1.123v0.001
			C240.202,262.341,240.365,262.735,240.239,263.1z"/>
		<path style="fill:#FCFCFC;" d="M240.239,263.1c0.126-0.365-0.037-0.759,0.11-1.122C240.187,262.34,240.228,262.722,240.239,263.1z
			"/>
		<path style="fill:#FCFCFC;" d="M329.198,256.317c0.019,0.323-0.122,0.664,0.109,0.964
			C329.189,256.969,329.341,256.626,329.198,256.317z"/>
		<path style="fill:#FCFCFC;" d="M329.198,256.317c0.143,0.309-0.008,0.652,0.109,0.964
			C329.321,256.954,329.35,256.625,329.198,256.317z"/>
		<path style="fill:#FCFCFC;" d="M196.581,248.522c0.023,0.318-0.118,0.655,0.112,0.949
			C196.573,249.165,196.735,248.825,196.581,248.522z"/>
		<path style="fill:#FCFCFC;" d="M196.581,248.522c0.154,0.303-0.009,0.643,0.112,0.949
			C196.71,249.148,196.731,248.825,196.581,248.522z"/>
		<path style="fill:#FCFCFC;" d="M241.31,248.859c0.236-0.297,0.092-0.639,0.113-0.962c0,0,0,0,0,0.001
			C241.277,248.206,241.434,248.549,241.31,248.859z"/>
		<path style="fill:#FCFCFC;" d="M241.31,248.859c0.124-0.31-0.033-0.654,0.112-0.961
			C241.268,248.205,241.296,248.533,241.31,248.859z"/>
		<path style="fill:#FCFCFC;" d="M241.614,245.338c0.24-0.3,0.094-0.645,0.113-0.97c0,0,0,0,0,0.001
			C241.587,244.679,241.74,245.025,241.614,245.338z"/>
		<path style="fill:#FCFCFC;" d="M241.614,245.338c0.126-0.313-0.027-0.658,0.113-0.97
			C241.567,244.677,241.601,245.009,241.614,245.338z"/>
		<path style="fill:#FCFCFC;" d="M329.352,258.301c0.018,0.326-0.124,0.669,0.11,0.971
			C329.343,258.958,329.491,258.613,329.352,258.301z"/>
		<path style="fill:#FCFCFC;" d="M329.352,258.301c0.139,0.312-0.009,0.656,0.11,0.971
			C329.476,258.943,329.508,258.612,329.352,258.301z"/>
		<path style="fill:#FCFCFC;" d="M329.045,254.479c0.019,0.324-0.124,0.666,0.112,0.965
			C329.033,255.132,329.189,254.788,329.045,254.479z"/>
		<path style="fill:#FCFCFC;" d="M329.045,254.479c0.144,0.309-0.012,0.653,0.112,0.965
			C329.171,255.116,329.201,254.787,329.045,254.479z"/>
		<path style="fill:#FCFCFC;" d="M328.737,250.811c0.021,0.321-0.122,0.662,0.112,0.958
			C328.727,251.459,328.885,251.117,328.737,250.811z"/>
		<path style="fill:#FCFCFC;" d="M328.737,250.811c0.148,0.306-0.01,0.649,0.112,0.958
			C328.864,251.443,328.889,251.116,328.737,250.811z"/>
		<path style="fill:#FCFCFC;" d="M240.547,258.659c0.233-0.303,0.09-0.647,0.108-0.974v0.001
			C240.519,258,240.662,258.344,240.547,258.659z"/>
		<path style="fill:#FCFCFC;" d="M240.547,258.659c0.116-0.315-0.028-0.66,0.108-0.973
			C240.497,257.997,240.534,258.33,240.547,258.659z"/>
		<path style="fill:#FCFCFC;" d="M329.659,262.279c0.018,0.327-0.124,0.671,0.108,0.974
			C329.652,262.937,329.795,262.593,329.659,262.279z"/>
		<path style="fill:#FCFCFC;" d="M329.659,262.279c0.137,0.313-0.007,0.658,0.108,0.974
			C329.78,262.923,329.816,262.59,329.659,262.279z"/>
		<path style="fill:#FCFCFC;" d="M241.465,247.021c0.232-0.295,0.09-0.633,0.113-0.952v0.001
			C241.427,246.374,241.587,246.714,241.465,247.021z"/>
		<path style="fill:#FCFCFC;" d="M241.465,247.021c0.122-0.307-0.038-0.647,0.112-0.951
			C241.427,246.374,241.45,246.698,241.465,247.021z"/>
		<path style="fill:#FCFCFC;" d="M240.853,254.525c0.231-0.299,0.09-0.639,0.109-0.962c0,0,0,0,0,0.001
			C240.82,253.872,240.971,254.213,240.853,254.525z"/>
		<path style="fill:#FCFCFC;" d="M240.853,254.525c0.118-0.311-0.034-0.653,0.109-0.961
			C240.81,253.871,240.838,254.198,240.853,254.525z"/>
		<path style="fill:#FCFCFC;" d="M328.891,252.644c0.02,0.323-0.123,0.664,0.112,0.962
			C328.88,253.296,329.037,252.952,328.891,252.644z"/>
		<path style="fill:#FCFCFC;" d="M328.891,252.644c0.145,0.308-0.011,0.651,0.112,0.962
			C329.018,253.28,329.045,252.952,328.891,252.644z"/>
		<path style="fill:#FCFCFC;" d="M327.97,242.395c0.024,0.319-0.122,0.659,0.117,0.952
			C327.955,243.041,328.125,242.698,327.97,242.395z"/>
		<path style="fill:#FCFCFC;" d="M327.97,242.395c0.155,0.303-0.015,0.646,0.117,0.952
			C328.102,243.023,328.125,242.698,327.97,242.395z"/>
		<path style="fill:#FCFCFC;" d="M196.739,250.49c0.018,0.326-0.125,0.671,0.11,0.972
			C196.729,251.148,196.878,250.803,196.739,250.49z"/>
		<path style="fill:#FCFCFC;" d="M196.739,250.49c0.139,0.313-0.01,0.658,0.11,0.972
			C196.863,251.133,196.897,250.801,196.739,250.49z"/>
		<path style="fill:#FCFCFC;" d="M241.158,250.697c0.234-0.3,0.091-0.643,0.11-0.968c0,0,0,0,0,0.001
			C241.128,250.04,241.278,250.384,241.158,250.697z"/>
		<path style="fill:#FCFCFC;" d="M241.158,250.697c0.119-0.313-0.03-0.656,0.11-0.967
			C241.112,250.039,241.145,250.369,241.158,250.697z"/>
		<path style="fill:#FCFCFC;" d="M196.279,244.985c0.019,0.324-0.124,0.667,0.113,0.965
			C196.267,245.638,196.423,245.294,196.279,244.985z"/>
		<path style="fill:#FCFCFC;" d="M196.279,244.985c0.144,0.309-0.012,0.653,0.113,0.965
			C196.406,245.622,196.435,245.293,196.279,244.985z"/>
		<path style="fill:#FCFCFC;" d="M325.517,219.741c0.019,0.266-0.102,0.553,0.119,0.789
			C325.511,220.28,325.67,219.987,325.517,219.741z"/>
		<path style="fill:#FCFCFC;" d="M325.517,219.741c0.153,0.246-0.005,0.539,0.119,0.789
			C325.654,220.258,325.662,219.988,325.517,219.741z"/>
		<path style="fill:#FCFCFC;" d="M112.794,220.652L112.794,220.652c-0.145,0.25,0.007,0.545-0.118,0.797
			C112.9,221.211,112.778,220.921,112.794,220.652z"/>
		<path style="fill:#FCFCFC;" d="M112.675,221.449c0.125-0.253-0.027-0.547,0.118-0.797
			C112.646,220.902,112.658,221.175,112.675,221.449z"/>
		<path style="fill:#FCFCFC;" d="M193.942,221.755c-0.123-0.252,0.031-0.545-0.118-0.794
			C193.841,221.229,193.721,221.518,193.942,221.755z"/>
		<path style="fill:#FCFCFC;" d="M193.824,220.961c0.148,0.248-0.005,0.542,0.118,0.794
			C193.96,221.482,193.97,221.21,193.824,220.961z"/>
		<path style="fill:#FCFCFC;" d="M196.539,247.633c-0.102-0.264,0.02-0.556-0.106-0.817
			C196.443,247.092,196.326,247.384,196.539,247.633z"/>
		<path style="fill:#FCFCFC;" d="M196.433,246.816c0.126,0.261,0.003,0.553,0.106,0.817
			C196.557,247.354,196.579,247.074,196.433,246.816z"/>
		<path style="fill:#FCFCFC;" d="M244.336,219.277C244.335,219.277,244.335,219.277,244.336,219.277
			c-0.148,0.249,0.007,0.543-0.12,0.794C244.44,219.834,244.318,219.545,244.336,219.277z"/>
		<path style="fill:#FCFCFC;" d="M244.216,220.071c0.127-0.251-0.029-0.545,0.119-0.793
			C244.187,219.526,244.198,219.798,244.216,220.071z"/>
		<path style="fill:#FCFCFC;" d="M328.694,249.93c-0.106-0.261,0.022-0.554-0.108-0.813
			C328.597,249.392,328.479,249.683,328.694,249.93z"/>
		<path style="fill:#FCFCFC;" d="M328.586,249.118c0.13,0.258,0.001,0.551,0.108,0.813
			C328.711,249.652,328.732,249.374,328.586,249.118z"/>
		<path style="fill:#FCFCFC;" d="M328.542,248.246c-0.107-0.263,0.019-0.557-0.108-0.818
			C328.444,247.704,328.325,247.997,328.542,248.246z"/>
		<path style="fill:#FCFCFC;" d="M328.434,247.428c0.127,0.261,0.001,0.555,0.108,0.818
			C328.558,247.967,328.581,247.686,328.434,247.428z"/>
		<path style="fill:#FCFCFC;" d="M328.39,246.562c-0.108-0.265,0.016-0.56-0.109-0.822
			C328.292,246.017,328.17,246.312,328.39,246.562z"/>
		<path style="fill:#FCFCFC;" d="M328.281,245.74c0.125,0.262,0,0.558,0.109,0.822C328.406,246.281,328.432,245.999,328.281,245.74z
			"/>
		<path style="fill:#FCFCFC;" d="M328.127,244.063c0.011,0.275-0.109,0.568,0.11,0.815
			C328.126,244.616,328.256,244.322,328.127,244.063L328.127,244.063z"/>
		<path style="fill:#FCFCFC;" d="M328.127,244.063c0.129,0.259-0.001,0.553,0.11,0.814
			C328.254,244.599,328.275,244.32,328.127,244.063z"/>
		<path style="fill:#FCFCFC;" d="M196.236,244.112c-0.109-0.263,0.018-0.558-0.109-0.818
			C196.137,243.57,196.018,243.863,196.236,244.112z"/>
		<path style="fill:#FCFCFC;" d="M196.127,243.293c0.127,0.261,0,0.555,0.109,0.818
			C196.252,243.832,196.276,243.551,196.127,243.293z"/>
		<path style="fill:#FCFCFC;" d="M241.88,242.684L241.88,242.684c-0.128,0.26,0,0.553-0.109,0.815
			C241.989,243.251,241.87,242.959,241.88,242.684z"/>
		<path style="fill:#FCFCFC;" d="M241.772,243.499c0.108-0.262-0.019-0.555,0.108-0.815
			C241.732,242.942,241.755,243.221,241.772,243.499z"/>
		<path style="fill:#FCFCFC;" d="M196.082,242.427c-0.109-0.263,0.019-0.557-0.109-0.817
			C195.984,241.886,195.865,242.179,196.082,242.427z"/>
		<path style="fill:#FCFCFC;" d="M195.974,241.61c0.128,0.26,0,0.554,0.109,0.817C196.099,242.148,196.122,241.868,195.974,241.61z"
			/>
		<path style="fill:#FCFCFC;" d="M242.033,241L242.033,241c-0.128,0.26-0.001,0.553-0.108,0.815
			C242.142,241.567,242.023,241.275,242.033,241z"/>
		<path style="fill:#FCFCFC;" d="M241.925,241.815c0.107-0.262-0.02-0.555,0.108-0.814
			C241.887,241.257,241.908,241.536,241.925,241.815z"/>
		<path style="fill:#FCFCFC;" d="M327.93,241.662c-0.111-0.261,0.021-0.554-0.11-0.812
			C327.831,241.124,327.712,241.416,327.93,241.662z"/>
		<path style="fill:#FCFCFC;" d="M327.82,240.85c0.131,0.258-0.001,0.551,0.11,0.812C327.947,241.384,327.967,241.106,327.82,240.85
			z"/>
		<path style="fill:#FCFCFC;" d="M195.929,240.743c-0.108-0.262,0.02-0.556-0.109-0.815
			C195.831,240.202,195.712,240.495,195.929,240.743z"/>
		<path style="fill:#FCFCFC;" d="M195.82,239.927c0.128,0.26,0,0.553,0.109,0.815C195.946,240.464,195.968,240.184,195.82,239.927z"
			/>
		<path style="fill:#FCFCFC;" d="M327.78,240.131c-0.115-0.264,0.014-0.561-0.112-0.823
			C327.68,239.586,327.556,239.882,327.78,240.131z"/>
		<path style="fill:#FCFCFC;" d="M327.669,239.308L327.669,239.308c0.126,0.263-0.003,0.56,0.112,0.823
			C327.797,239.849,327.823,239.566,327.669,239.308z"/>
		<path style="fill:#FCFCFC;" d="M242.079,240.13c0.216-0.247,0.098-0.538,0.108-0.812c0,0,0,0,0,0.001
			C242.057,239.577,242.186,239.869,242.079,240.13L242.079,240.13z"/>
		<path style="fill:#FCFCFC;" d="M242.079,240.13c0.108-0.261-0.021-0.553,0.108-0.811
			C242.04,239.575,242.062,239.853,242.079,240.13z"/>
		<path style="fill:#FCFCFC;" d="M195.774,239.058c-0.11-0.257,0.029-0.548-0.11-0.8
			C195.677,238.528,195.56,238.816,195.774,239.058z"/>
		<path style="fill:#FCFCFC;" d="M195.664,238.257c0.139,0.253,0.001,0.544,0.11,0.8
			C195.792,238.784,195.807,238.51,195.664,238.257z"/>
		<path style="fill:#FCFCFC;" d="M327.628,238.6c-0.116-0.262,0.016-0.559-0.112-0.82
			C327.526,238.057,327.403,238.352,327.628,238.6z"/>
		<path style="fill:#FCFCFC;" d="M327.515,237.78c0.128,0.261-0.004,0.557,0.112,0.82
			C327.644,238.319,327.667,238.038,327.515,237.78z"/>
		<path style="fill:#FCFCFC;" d="M242.339,237.778L242.339,237.778c-0.126,0.262,0.002,0.558-0.111,0.821
			C242.451,238.351,242.328,238.055,242.339,237.778z"/>
		<path style="fill:#FCFCFC;" d="M242.228,238.6c0.114-0.263-0.015-0.559,0.111-0.821
			C242.186,238.037,242.211,238.319,242.228,238.6z"/>
		<path style="fill:#FCFCFC;" d="M195.624,237.527c-0.112-0.26,0.022-0.553-0.11-0.811
			C195.525,236.99,195.406,237.282,195.624,237.527z"/>
		<path style="fill:#FCFCFC;" d="M195.513,236.717c0.132,0.257-0.001,0.551,0.11,0.811
			C195.641,237.25,195.659,236.972,195.513,236.717z"/>
		<path style="fill:#FCFCFC;" d="M327.474,237.068c-0.116-0.261,0.018-0.556-0.112-0.815
			C327.373,236.528,327.251,236.822,327.474,237.068z"/>
		<path style="fill:#FCFCFC;" d="M327.361,236.253c0.13,0.259-0.004,0.554,0.112,0.815
			C327.49,236.789,327.51,236.509,327.361,236.253z"/>
		<path style="fill:#FCFCFC;" d="M242.387,236.914c0.212-0.241,0.096-0.528,0.11-0.796v0.001
			C242.356,236.369,242.495,236.659,242.387,236.914z"/>
		<path style="fill:#FCFCFC;" d="M242.387,236.914L242.387,236.914c0.108-0.255-0.031-0.544,0.11-0.795
			C242.356,236.369,242.369,236.641,242.387,236.914z"/>
		<path style="fill:#FCFCFC;" d="M111.913,228.033c0.219-0.238,0.099-0.525,0.116-0.793l0,0
			C111.882,227.489,112.033,227.781,111.913,228.033z"/>
		<path style="fill:#FCFCFC;" d="M111.913,228.033c0.12-0.252-0.031-0.544,0.116-0.792
			C111.885,227.49,111.895,227.761,111.913,228.033z"/>
		<path style="fill:#FCFCFC;" d="M195.473,235.996c-0.114-0.263,0.016-0.559-0.111-0.821
			C195.373,235.453,195.25,235.748,195.473,235.996z"/>
		<path style="fill:#FCFCFC;" d="M195.362,235.176c0.127,0.261-0.003,0.558,0.111,0.821
			C195.489,235.716,195.513,235.434,195.362,235.176z"/>
		<path style="fill:#FCFCFC;" d="M327.32,235.537c-0.115-0.26,0.021-0.554-0.112-0.811
			C327.219,234.999,327.099,235.292,327.32,235.537z"/>
		<path style="fill:#FCFCFC;" d="M327.208,234.725c0.133,0.257-0.003,0.552,0.112,0.811
			C327.337,235.259,327.355,234.981,327.208,234.725z"/>
		<path style="fill:#FCFCFC;" d="M242.648,234.578v0.001c-0.135,0.255,0.001,0.546-0.11,0.804
			C242.754,235.139,242.636,234.85,242.648,234.578z"/>
		<path style="fill:#FCFCFC;" d="M242.538,235.383c0.111-0.258-0.025-0.549,0.11-0.804
			C242.504,234.833,242.52,235.108,242.538,235.383z"/>
		<path style="fill:#FCFCFC;" d="M327.114,233.426c-0.019-0.071-0.025-0.144-0.064-0.213c0.017,0.267-0.102,0.554,0.115,0.792
			C327.08,233.822,327.133,233.618,327.114,233.426z"/>
		<path style="fill:#FCFCFC;" d="M327.114,233.426c0.02,0.193-0.034,0.396,0.05,0.579
			C327.177,233.808,327.164,233.614,327.114,233.426z"/>
		<path style="fill:#FCFCFC;" d="M242.803,233.055L242.803,233.055c-0.142,0.251,0.001,0.542-0.113,0.797
			C242.907,233.611,242.788,233.323,242.803,233.055z"/>
		<path style="fill:#FCFCFC;" d="M242.69,233.852c0.114-0.255-0.03-0.546,0.113-0.797
			C242.66,233.306,242.673,233.578,242.69,233.852z"/>
		<path style="fill:#FCFCFC;" d="M195.166,232.934c-0.117-0.259,0.022-0.553-0.113-0.809
			C195.065,232.398,194.945,232.689,195.166,232.934z"/>
		<path style="fill:#FCFCFC;" d="M195.054,232.124c0.135,0.256-0.004,0.55,0.113,0.809
			C195.183,232.656,195.201,232.379,195.054,232.124z"/>
		<path style="fill:#FCFCFC;" d="M327.014,232.627c-0.118-0.256,0.026-0.549-0.114-0.802
			C326.913,232.096,326.793,232.386,327.014,232.627z"/>
		<path style="fill:#FCFCFC;" d="M326.899,231.825c0.14,0.253-0.004,0.546,0.114,0.802
			C327.031,232.352,327.045,232.077,326.899,231.825z"/>
		<path style="fill:#FCFCFC;" d="M195.01,231.402c-0.114-0.255,0.03-0.547-0.113-0.797
			C194.912,230.873,194.794,231.161,195.01,231.402z"/>
		<path style="fill:#FCFCFC;" d="M194.898,230.604c0.143,0.251-0.001,0.542,0.113,0.797
			C195.028,231.128,195.04,230.855,194.898,230.604z"/>
		<path style="fill:#FCFCFC;" d="M243.107,230.135C243.107,230.135,243.107,230.136,243.107,230.135
			c-0.135,0.256,0.003,0.549-0.112,0.807C243.214,230.699,243.095,230.408,243.107,230.135z"/>
		<path style="fill:#FCFCFC;" d="M242.994,230.943c0.115-0.258-0.023-0.551,0.112-0.807
			C242.96,230.39,242.977,230.666,242.994,230.943z"/>
		<path style="fill:#FCFCFC;" d="M194.501,226.536c-0.019-0.071-0.026-0.145-0.065-0.213c0.017,0.267-0.101,0.553,0.116,0.791
			C194.466,226.931,194.52,226.728,194.501,226.536z"/>
		<path style="fill:#FCFCFC;" d="M194.501,226.536c0.019,0.192-0.035,0.395,0.051,0.578
			C194.565,226.917,194.552,226.724,194.501,226.536z"/>
		<path style="fill:#FCFCFC;" d="M243.455,226.655c0.216-0.237,0.098-0.523,0.116-0.789c-0.039,0.069-0.046,0.143-0.066,0.215
			C243.487,226.271,243.54,226.473,243.455,226.655z"/>
		<path style="fill:#FCFCFC;" d="M243.455,226.655c0.085-0.182,0.031-0.384,0.05-0.575
			C243.456,226.266,243.443,226.459,243.455,226.655z"/>
		<path style="fill:#FCFCFC;" d="M326.133,224.935c0.014,0.271-0.107,0.561,0.116,0.802l0,0l0,0
			C326.127,225.482,326.275,225.187,326.133,224.935z"/>
		<path style="fill:#FCFCFC;" d="M326.133,224.935c0.142,0.252-0.006,0.547,0.116,0.802l0,0
			C326.267,225.461,326.281,225.186,326.133,224.935z"/>
		<path style="fill:#FCFCFC;" d="M194.4,225.736c-0.119-0.253,0.03-0.546-0.116-0.795C194.3,225.209,194.181,225.497,194.4,225.736z
			"/>
		<path style="fill:#FCFCFC;" d="M194.284,224.941c0.146,0.25-0.004,0.542,0.116,0.795
			C194.417,225.463,194.428,225.191,194.284,224.941z"/>
		<path style="fill:#FCFCFC;" d="M243.608,225.277c0.217-0.237,0.098-0.523,0.116-0.79l0,0
			C243.574,224.734,243.727,225.025,243.608,225.277z"/>
		<path style="fill:#FCFCFC;" d="M243.608,225.277c0.119-0.251-0.034-0.542,0.116-0.789
			C243.581,224.735,243.59,225.005,243.608,225.277z"/>
		<path style="fill:#FCFCFC;" d="M244.029,221.878C244.029,221.878,244.029,221.879,244.029,221.878
			c-0.146,0.25,0.006,0.543-0.118,0.796C244.134,222.436,244.013,222.147,244.029,221.878z"/>
		<path style="fill:#FCFCFC;" d="M243.911,222.674c0.124-0.252-0.028-0.546,0.117-0.795
			C243.883,222.128,243.893,222.401,243.911,222.674z"/>
	</g>
</g>
</svg>
