<?xml version="1.0" encoding="iso-8859-1"?>
<!-- Generator: Adobe Illustrator 22.0.1, SVG Export Plug-In . SVG Version: 6.00 Build 0)  -->
<svg version="1.1" id="Layer_1" xmlns="http://www.w3.org/2000/svg" xmlns:xlink="http://www.w3.org/1999/xlink" x="0px" y="0px"
	 viewBox="0 0 438.53 438.53" style="enable-background:new 0 0 438.53 438.53;" xml:space="preserve">
<g id="_x31_94">
	<g>
		<path style="fill:#007AB9;" d="M233.891,201.346v-0.514c-0.105,0.175-0.253,0.347-0.347,0.514H233.891z"/>
		<path style="fill:#007AB9;" d="M407.603,110.087c-19.45-33.321-45.833-59.704-79.155-79.153
			c-33.328-19.448-69.711-29.17-109.176-29.17c-39.461,0-75.854,9.722-109.177,29.17C76.771,50.38,50.388,76.763,30.938,110.087
			c-19.451,33.326-29.173,69.72-29.173,109.178c0,39.46,9.725,75.847,29.17,109.175c19.449,33.321,45.832,59.704,79.156,79.155
			c33.326,19.447,69.717,29.17,109.177,29.17s75.854-9.723,109.179-29.17c33.322-19.444,59.704-45.834,79.152-79.155
			c19.445-33.325,29.166-69.718,29.166-109.175C436.766,179.803,427.044,143.409,407.603,110.087z M152.735,335.728h-52.24V178.56
			h52.24V335.728z M126.613,157.115h-0.339c-17.529,0-28.885-12.073-28.885-27.162c0-15.417,11.695-27.151,29.571-27.151
			c17.88,0,28.865,11.734,29.212,27.151C156.172,145.042,144.839,157.115,126.613,157.115z M341.141,335.728h-52.255v-84.09
			c0-21.114-7.545-35.533-26.465-35.533c-14.439,0-23.016,9.708-26.804,19.107c-1.376,3.359-1.73,8.024-1.73,12.736v87.777h-52.259
			c0,0,0.701-142.421,0-157.164h52.263v22.272c6.945-10.686,19.329-25.962,47.096-25.962c34.38,0,60.155,22.463,60.155,70.727v90.13
			H341.141z"/>
		<rect x="100.495" y="178.56" style="fill:#F1F2F2;" width="52.24" height="157.168"/>
		<path style="fill:#F1F2F2;" d="M280.986,174.87c-27.766,0-40.151,15.276-47.096,25.962v0.514h-0.347
			c0.094-0.168,0.242-0.339,0.347-0.514V178.56h-52.263c0.701,14.742,0,157.164,0,157.164h52.259v-87.777
			c0-4.712,0.355-9.376,1.73-12.736c3.788-9.4,12.365-19.107,26.804-19.107c18.92,0,26.465,14.419,26.465,35.533v84.09h52.255
			v-90.131C341.141,197.332,315.366,174.87,280.986,174.87z"/>
		<path style="fill:#F1F2F2;" d="M126.96,102.802c-17.876,0-29.571,11.734-29.571,27.151c0,15.089,11.356,27.162,28.885,27.162
			h0.339c18.226,0,29.559-12.073,29.559-27.162C155.825,114.536,144.839,102.802,126.96,102.802z"/>
	</g>
</g>
</svg>
