<?xml version="1.0" encoding="iso-8859-1"?>
<!-- Generator: Adobe Illustrator 22.0.1, SVG Export Plug-In . SVG Version: 6.00 Build 0)  -->
<svg version="1.1" id="Layer_1" xmlns="http://www.w3.org/2000/svg" xmlns:xlink="http://www.w3.org/1999/xlink" x="0px" y="0px"
	 viewBox="0 0 438.53 438.53" style="enable-background:new 0 0 438.53 438.53;" xml:space="preserve">
<g id="_x31_98">
	<g>
		<path style="fill:#F4F4F4;" d="M407.603,110.087c-19.45-33.321-45.833-59.704-79.155-79.153
			c-33.328-19.448-69.711-29.17-109.176-29.17c-39.461,0-75.854,9.722-109.177,29.17C76.771,50.38,50.388,76.763,30.938,110.087
			c-19.451,33.326-29.173,69.72-29.173,109.178c0,39.46,9.725,75.847,29.17,109.175c19.449,33.321,45.832,59.704,79.156,79.155
			c33.326,19.447,69.717,29.17,109.177,29.17s75.854-9.723,109.179-29.17c33.322-19.444,59.704-45.834,79.152-79.155
			c19.445-33.325,29.166-69.718,29.166-109.175C436.766,179.803,427.044,143.409,407.603,110.087z M207.67,116.265
			c33.271,9.073,65.872,20.498,97.129,34.276l0,0c-10.759,2.691-21.851,6.048-32.6,9.411
			c-30.924-14.788-63.181-26.885-96.114-36.634C186.501,120.632,196.916,118.279,207.67,116.265z M159.283,128.023
			c32.682,10.09,64.581,22.558,95.442,37.305l0,0l0,0l0,0c-10.759,3.696-21.17,7.386-31.59,11.42
			c-31.683-15.169-64.492-27.864-98.133-37.972C136.094,135.076,147.519,131.381,159.283,128.023z M15.443,199.267
			c35.937-19.514,73.631-35.603,112.583-48.054c10.421,3.024,20.498,6.72,30.581,10.421c-37.978,13.443-74.557,30.55-109.221,51.079
			C38.293,208.006,26.868,203.639,15.443,199.267z M64.179,219.093c34.948-20.16,71.244-37.634,108.882-52.088
			c12.097,4.705,24.194,9.749,35.958,15.459c-37.675,15.113-74.084,33.206-108.882,54.108
			C88.372,230.519,76.276,224.475,64.179,219.093z M102.484,254.718c69.567-46.373,146.521-81.326,228.524-102.834l0,0
			c14.45,5.715,28.233,12.435,42.006,19.15c-80.649,24.199-156.265,61.166-224.49,108.216
			C133.403,270.515,117.943,262.447,102.484,254.718z M214.39,322.265c-15.793-11.759-31.924-22.513-48.726-32.928
			c66.871-47.388,140.806-85.36,219.784-111.912l0,0c12.801,6.713,25.355,13.885,37.639,21.503
			C348.232,230.35,278.018,271.846,214.39,322.265z"/>
		<path style="fill:#2267AD;" d="M173.061,167.005c-37.639,14.455-73.935,31.929-108.882,52.088
			c12.097,5.382,24.194,11.425,35.958,17.479c34.798-20.902,71.208-38.995,108.882-54.108
			C197.255,176.754,185.158,171.71,173.061,167.005z"/>
		<path style="fill:#2267AD;" d="M128.026,151.212c-38.952,12.451-76.646,28.541-112.583,48.054
			c11.425,4.372,22.851,8.74,33.943,13.445c34.664-20.529,71.243-37.636,109.221-51.079
			C148.524,157.932,138.446,154.237,128.026,151.212z"/>
		<path style="fill:#CD2E29;" d="M254.725,165.329c-30.861-14.747-62.761-27.216-95.442-37.305
			c-11.764,3.357-23.189,7.053-34.281,10.754c33.641,10.108,66.45,22.803,98.133,37.972
			C233.556,172.715,243.966,169.024,254.725,165.329z"/>
		<path style="fill:#CD2E29;" d="M304.799,150.541L304.799,150.541c-31.257-13.778-63.857-25.204-97.129-34.276
			c-10.754,2.014-21.17,4.367-31.585,7.053c32.933,9.749,65.19,21.846,96.114,36.634
			C282.948,156.589,294.04,153.232,304.799,150.541z"/>
		<path style="fill:#CD2E29;" d="M254.725,165.329L254.725,165.329L254.725,165.329z"/>
		<path style="fill:#CD2E29;" d="M331.007,151.884L331.007,151.884c-82.003,21.508-158.956,56.461-228.524,102.834
			c15.459,7.73,30.919,15.798,46.04,24.532c68.224-47.05,143.84-84.017,224.49-108.216
			C359.24,164.319,345.457,157.599,331.007,151.884z"/>
		<path style="fill:#CD2E29;" d="M385.449,177.426L385.449,177.426c-78.978,26.552-152.913,64.524-219.784,111.912
			c16.802,10.416,32.933,21.17,48.726,32.928c63.628-50.42,133.842-91.915,208.697-123.337
			C410.804,191.31,398.249,184.138,385.449,177.426z"/>
	</g>
</g>
</svg>
