<?xml version="1.0" encoding="iso-8859-1"?>
<!-- Generator: Adobe Illustrator 22.0.1, SVG Export Plug-In . SVG Version: 6.00 Build 0)  -->
<svg version="1.1" id="Layer_1" xmlns="http://www.w3.org/2000/svg" xmlns:xlink="http://www.w3.org/1999/xlink" x="0px" y="0px"
	 viewBox="0 0 438.53 438.53" style="enable-background:new 0 0 438.53 438.53;" xml:space="preserve">
<g id="_x32_09">
	<g>
		<polygon style="fill:#F0F0F0;" points="89.598,73.38 82.366,95.639 58.961,95.639 77.896,109.395 70.663,131.654 89.598,117.897 
			108.532,131.654 101.299,109.395 120.234,95.639 96.83,95.639 		"/>
		<polygon style="fill:#F0F0F0;" points="96.83,160.711 89.598,138.452 82.366,160.711 58.961,160.711 77.896,174.468 
			70.663,196.727 89.598,182.97 108.532,196.727 101.299,174.468 120.234,160.711 		"/>
		<path style="fill:#F0F0F0;" d="M28.405,196.727l-7.233-22.259l18.935-13.756H16.703l-3.528-10.858
			c-4.056,12.068-7.032,24.42-8.923,36.908l5.218-3.791L28.405,196.727z"/>
		<polygon style="fill:#F0F0F0;" points="181.426,174.468 200.361,160.711 176.957,160.711 169.724,138.452 162.492,160.711 
			139.088,160.711 158.023,174.468 150.79,196.727 169.724,182.97 188.659,196.727 		"/>
		<path style="fill:#F0F0F0;" d="M25.065,121.372c-0.969,1.924-1.916,3.856-2.825,5.802l6.165,4.479L25.065,121.372z"/>
		<path style="fill:#F0F0F0;" d="M89.598,52.825l18.934,13.756l-7.233-22.259l18.935-13.756h-9.085
			C97.873,38.18,85.227,47.29,73.476,57.924l-2.813,8.657L89.598,52.825z"/>
		<path style="fill:#F0F0F0;" d="M191.933,219.065H1.772c0,0.189-0.007,0.378-0.007,0.567c0,19.424,2.58,38.846,7.725,57.706
			h124.169L191.933,219.065z"/>
		<polygon style="fill:#F0F0F0;" points="65.508,373.768 65.508,373.768 65.507,373.768 		"/>
		<path style="fill:#F0F0F0;" d="M35.06,335.613c5.072,8.071,10.736,15.873,16.966,23.36l23.36-23.36L35.06,335.613L35.06,335.613z"
			/>
		<path style="fill:#F0F0F0;" d="M349.073,44.243C310.8,15.959,265.299,1.797,219.786,1.765c0,16.313,0,30.008,0,42.478H349.073z"/>
		<polygon style="fill:#F0F0F0;" points="150.79,131.654 169.724,117.897 188.659,131.654 181.426,109.395 200.361,95.639 
			176.957,95.639 169.724,73.38 162.492,95.639 139.088,95.639 158.023,109.395 		"/>
		<polygon style="fill:#F0F0F0;" points="150.79,66.581 169.724,52.825 188.659,66.581 181.426,44.322 200.361,30.566 
			176.957,30.566 169.724,8.307 162.492,30.566 139.088,30.566 158.023,44.322 		"/>
		<path style="fill:#F0F0F0;" d="M308.481,102.517h-88.695c0,16.352,0,34.675,0,58.274h30.421L308.481,102.517z"/>
		<path style="fill:#D80027;" d="M250.207,160.791h-30.421c0,9.262,0,19.335,0,30.421L250.207,160.791z"/>
		<path style="fill:#D80027;" d="M219.786,102.517h88.695l50.499-50.499c-3.244-2.699-6.546-5.293-9.906-7.776H219.786
			C219.786,64.871,219.786,82.177,219.786,102.517z"/>
		<path style="fill:#D80027;" d="M133.659,277.339H9.49c5.541,20.31,14.064,39.967,25.569,58.274h40.325L133.659,277.339z"/>
		<path style="fill:#0052B4;" d="M210.074,200.924v-40.133h9.712c0-23.598,0-41.922,0-58.274h-9.712V44.243h9.712
			c0-12.47,0-26.165,0-42.478c-37.563-0.026-75.125,9.583-108.637,28.801h9.085l-18.935,13.756l7.233,22.259L89.598,52.825
			L70.663,66.581l2.813-8.657c-2.706,2.449-5.366,4.976-7.975,7.585c-16.808,16.805-30.277,35.706-40.436,55.863l3.341,10.282
			l-6.165-4.479c-3.464,7.416-6.48,14.99-9.065,22.679l3.528,10.858h23.405l-18.935,13.756l7.233,22.259L9.471,182.97l-5.218,3.791
			c-1.62,10.703-2.452,21.502-2.481,32.303h190.161L210.074,200.924z M108.532,196.727L89.598,182.97l-18.934,13.756l7.233-22.259
			l-18.935-13.756h23.405l7.232-22.259l7.232,22.259h23.405l-18.935,13.756L108.532,196.727z M101.299,109.395l7.233,22.259
			l-18.934-13.756l-18.934,13.756l7.233-22.259L58.961,95.639h23.405l7.232-22.259l7.232,22.259h23.405L101.299,109.395z
			 M162.492,30.566l7.232-22.259l7.232,22.259h23.405l-18.935,13.756l7.233,22.259l-18.934-13.756L150.79,66.581l7.233-22.259
			l-18.935-13.756C139.088,30.566,162.492,30.566,162.492,30.566z M162.492,95.639l7.232-22.259l7.232,22.259h23.405l-18.935,13.756
			l7.233,22.259l-18.934-13.756l-18.934,13.756l7.233-22.259l-18.935-13.756C139.089,95.639,162.492,95.639,162.492,95.639z
			 M150.79,196.727l7.233-22.259l-18.935-13.756h23.405l7.232-22.259l7.232,22.259h23.405l-18.935,13.756l7.233,22.259
			l-18.934-13.756L150.79,196.727z"/>
		<path style="fill:#0052B4;" d="M219.786,160.791h-9.712v40.133l9.712-9.712C219.786,180.125,219.786,170.053,219.786,160.791z"/>
		<path style="fill:#0052B4;" d="M210.074,44.243v58.274h9.712c0-20.341,0-37.646,0-58.274H210.074z"/>
		<path style="fill:none;" d="M386.087,80.274c0.701,0.43,1.399,0.864,2.095,1.301c-0.537-0.661-1.094-1.31-1.64-1.966l-0.586,0.586
			C386,80.221,386.044,80.247,386.087,80.274z"/>
		<path style="fill:#F0F0F0;" d="M155.12,311.031v116.251c20.751,6.313,42.262,9.484,63.778,9.484
			c52.14-0.006,104.294-18.554,145.564-55.631V101.689L155.12,311.031z M307.768,276.346h0.492c0,4.725-2.228,8.92-5.682,11.621
			v4.061c0,20.826-17.386,37.709-38.832,37.709s-38.832-16.883-38.832-37.709v-4.449c-3.178-2.707-5.199-6.731-5.199-11.233h0.491
			c-8.149,0-15.249-6.607-15.249-14.758h44.273c0-8.15,6.607-14.758,14.758-14.758c8.15,0,14.758,6.607,14.758,14.758h44.273
			C323.017,269.739,315.918,276.346,307.768,276.346z"/>
		<path style="fill:#D80027;" d="M388.192,81.588c-0.003-0.004-0.007-0.009-0.01-0.013c-0.696-0.437-1.394-0.871-2.095-1.301
			C386.792,80.706,387.492,81.148,388.192,81.588z"/>
		<path style="fill:#D80027;" d="M388.192,81.588c-0.701-0.44-1.4-0.881-2.105-1.314c-0.043-0.027-0.087-0.053-0.13-0.079
			l-21.495,21.495v279.445c2.907-2.612,5.764-5.31,8.559-8.105C452.614,293.448,457.669,167.116,388.192,81.588z"/>
		<path style="fill:#6DA544;" d="M64.762,373.022l0.001,0.001L64.762,373.022z"/>
		<path style="fill:#6DA544;" d="M79.599,386.552c22.757,18.93,48.491,32.506,75.521,40.729v-116.25L79.599,386.552z"/>
		<path style="fill:#6DA544;" d="M278.744,305.861h-29.515c-8.151,0-14.758-6.607-14.758-14.758c-3.649,0-6.982-1.331-9.558-3.525
			v4.449c0,20.826,17.386,37.709,38.832,37.709s38.832-16.883,38.832-37.709v-4.061c-2.504,1.959-5.649,3.137-9.075,3.137
			C293.502,299.254,286.895,305.861,278.744,305.861z"/>
		<path style="fill:#FF9811;" d="M263.987,246.831c-8.15,0-14.758,6.607-14.758,14.758h-44.273c0,8.151,7.099,14.758,15.249,14.758
			h-0.491c0,4.502,2.022,8.526,5.199,11.233v-8.121h77.664v8.509c3.454-2.701,5.682-6.896,5.682-11.621h-0.492
			c8.151,0,15.249-6.607,15.249-14.758h-44.273C278.744,253.438,272.137,246.831,263.987,246.831z"/>
		<path style="fill:#FF9811;" d="M224.914,279.458v8.121c2.576,2.194,5.909,3.525,9.558,3.525c0,8.151,6.607,14.758,14.758,14.758
			h29.515c8.151,0,14.758-6.607,14.758-14.758c3.426,0,6.571-1.178,9.075-3.137v-8.509H224.914z"/>
		<path style="fill:#FFFFFF;" d="M64.763,373.023l0.744,0.744c-0.131-0.131-0.255-0.265-0.385-0.396
			C65.003,373.253,64.881,373.142,64.763,373.023z"/>
		<path style="fill:#FFFFFF;" d="M52.025,358.973l-0.249,0.249c2.055,2.421,4.158,4.8,6.315,7.13l6.671,6.671l0.011-0.011
			C60.282,368.477,56.035,363.791,52.025,358.973z"/>
		<path style="fill:#FFFFFF;" d="M65.508,373.768l4.476,4.476c3.104,2.877,6.286,5.672,9.555,8.368l0.06-0.06
			c-4.834-4.021-9.53-8.29-14.079-12.796L65.508,373.768z"/>
		<path style="fill:#FFFFFF;" d="M373.021,64.763c0.105,0.105,0.204,0.212,0.309,0.317c0.145,0.144,0.292,0.284,0.437,0.429
			l-0.01,0.01c4.507,4.55,8.763,9.254,12.785,14.09l0.251-0.251c-8.418-9.926-17.705-19.101-27.755-27.398l-0.059,0.059
			c4.818,4.009,9.501,8.261,14.035,12.752L373.021,64.763z"/>
		<polygon style="fill:#FFFFFF;" points="218.719,219.065 210.074,219.065 191.933,219.065 133.659,277.339 160.446,277.339 		"/>
		<path style="fill:#FFFFFF;" d="M74.089,363.695L74.089,363.695l28.082-28.082H75.385l-23.36,23.36
			c4.01,4.819,8.256,9.504,12.747,14.039L74.089,363.695z"/>
		<path style="fill:#FFFFFF;" d="M65.122,373.371c0.13,0.131,0.254,0.266,0.385,0.396l0.001,0.001l0.012-0.012
			C65.388,373.626,65.253,373.502,65.122,373.371z"/>
		<polygon style="fill:#FFFFFF;" points="276.993,160.791 335.267,102.517 308.481,102.517 250.207,160.791 		"/>
		<path style="fill:#FFFFFF;" d="M250.207,160.791l-30.421,30.421c0,8.326,0,17.231,0,26.786l57.207-57.207H250.207z"/>
		<path style="fill:#FFFFFF;" d="M373.767,65.509c-0.145-0.145-0.292-0.285-0.437-0.429c0.144,0.145,0.284,0.293,0.427,0.439
			L373.767,65.509z"/>
		<path style="fill:#FFFFFF;" d="M335.267,102.517l28.44-28.44l0.755-0.755l3.262-3.262l0.006-0.006l5.285-5.285
			c-4.534-4.491-9.217-8.743-14.035-12.752l-50.499,50.499L335.267,102.517L335.267,102.517z"/>
		<polygon style="fill:#FFFFFF;" points="160.446,277.339 133.659,277.339 75.385,335.613 102.171,335.613 155.12,282.664 		"/>
		<polygon style="fill:#FFFFFF;" points="210.074,200.924 191.933,219.065 210.074,219.065 		"/>
		<path style="fill:#FFFFFF;" d="M218.719,219.065l1.067-1.067c0-9.555,0-18.461,0-26.786l-9.712,9.712v18.141L218.719,219.065
			L218.719,219.065z"/>
		<path style="fill:#FFFFFF;" d="M368.721,70.555c0.038,0.019,0.075,0.038,0.113,0.057c0.625,0.318,1.245,0.641,1.867,0.964
			c0.976,0.507,1.949,1.02,2.918,1.539c0.613,0.329,1.227,0.656,1.838,0.99c1.424,0.779,2.841,1.569,4.248,2.375
			c0.507,0.291,1.008,0.59,1.513,0.884c1.015,0.591,2.027,1.188,3.033,1.793c0.571,0.343,1.139,0.69,1.707,1.037l0.586-0.586
			c-4.022-4.835-8.279-9.54-12.785-14.09L368.721,70.555z"/>
		<path style="fill:#FFFFFF;" d="M373.021,64.763l-0.007,0.007c0.105,0.104,0.211,0.206,0.316,0.31
			C373.225,64.975,373.126,64.868,373.021,64.763z"/>
		<path style="fill:#FFFFFF;" d="M373.757,65.519c-0.144-0.145-0.283-0.294-0.427-0.439c-0.105-0.104-0.211-0.206-0.316-0.31
			l-5.285,5.285c0.331,0.166,0.661,0.333,0.992,0.5L373.757,65.519z"/>
		<polygon style="fill:#FFFFFF;" points="364.453,74.823 336.759,102.517 278.485,160.791 220.211,219.065 161.938,277.339 
			155.12,284.156 155.12,311.031 364.462,101.689 364.462,74.814 		"/>
		<polygon style="fill:#FFFFFF;" points="218.719,219.065 160.446,277.339 161.938,277.339 220.211,219.065 219.786,219.065 		"/>
		<polygon style="fill:#FFFFFF;" points="278.485,160.791 336.759,102.517 335.267,102.517 276.993,160.791 		"/>
		<path style="fill:#FFFFFF;" d="M219.786,217.998c0,0.357,0,0.708,0,1.067h0.425l58.274-58.274h-1.492L219.786,217.998z"/>
		<polygon style="fill:#FFFFFF;" points="364.453,74.823 364.462,74.814 364.462,73.322 363.707,74.077 335.267,102.517 
			336.759,102.517 		"/>
		<polygon style="fill:#FFFFFF;" points="160.446,277.339 155.12,282.664 155.12,284.156 161.938,277.339 		"/>
		<path style="fill:#FFFFFF;" d="M219.786,217.998l-1.067,1.067h1.067C219.786,218.706,219.786,218.356,219.786,217.998z"/>
		<path style="fill:#FFFFFF;" d="M368.834,70.612c-0.038-0.019-0.075-0.038-0.113-0.057l-0.001,0.001
			C368.758,70.575,368.796,70.593,368.834,70.612z"/>
		<path style="fill:#FFFFFF;" d="M368.721,70.555c-0.33-0.167-0.661-0.334-0.992-0.5l-0.006,0.006
			C368.055,70.227,368.389,70.389,368.721,70.555L368.721,70.555z"/>
		<path style="fill:#FFFFFF;" d="M381.217,77.364c-0.505-0.294-1.006-0.593-1.513-0.884c-1.407-0.806-2.824-1.596-4.248-2.375
			c-0.61-0.334-1.224-0.661-1.838-0.99c-0.969-0.519-1.941-1.033-2.918-1.539c-0.622-0.323-1.242-0.646-1.867-0.964
			c-0.038-0.019-0.076-0.037-0.113-0.056l-4.258,4.258v26.875l21.495-21.495c-0.568-0.348-1.136-0.694-1.707-1.037
			C383.244,78.552,382.232,77.955,381.217,77.364z"/>
		<path style="fill:#FFFFFF;" d="M368.72,70.556c-0.331-0.167-0.665-0.329-0.997-0.495l-3.262,3.262v1.492L368.72,70.556z"/>
		<path style="fill:#FFFFFF;" d="M64.772,373.012l-0.011,0.011l0.001,0.001c0.118,0.118,0.241,0.23,0.359,0.348
			C65.004,373.253,64.89,373.131,64.772,373.012z"/>
		<path style="fill:#FFFFFF;" d="M155.12,284.156l-51.457,51.457l-28.828,28.828l0,0l-9.316,9.316
			c4.549,4.505,9.245,8.774,14.079,12.796l75.521-75.521v-26.876H155.12z"/>
		<path style="fill:#FFFFFF;" d="M74.089,363.695L74.089,363.695l-9.317,9.317c0.118,0.119,0.231,0.241,0.349,0.359
			c0.131,0.131,0.266,0.255,0.398,0.385l9.316-9.316l0,0l28.828-28.828h-1.492L74.089,363.695z"/>
		<polygon style="fill:#FFFFFF;" points="102.171,335.613 103.663,335.613 155.12,284.156 155.12,282.664 		"/>
	</g>
</g>
</svg>
