<?xml version="1.0" encoding="iso-8859-1"?>
<!-- Generator: Adobe Illustrator 22.0.1, SVG Export Plug-In . SVG Version: 6.00 Build 0)  -->
<svg version="1.1" id="Layer_1" xmlns="http://www.w3.org/2000/svg" xmlns:xlink="http://www.w3.org/1999/xlink" x="0px" y="0px"
	 viewBox="0 0 438.53 438.53" style="enable-background:new 0 0 438.53 438.53;" xml:space="preserve">
<g id="_x32_10">
	<g>
		<path style="fill:#3C3E3D;" d="M407.603,110.087c-19.45-33.321-45.833-59.704-79.155-79.153
			c-33.328-19.448-69.711-29.17-109.176-29.17c-39.461,0-75.854,9.722-109.177,29.17C76.771,50.38,50.388,76.763,30.938,110.087
			c-19.451,33.326-29.173,69.72-29.173,109.178c0,39.46,9.725,75.847,29.17,109.175c19.449,33.321,45.832,59.704,79.156,79.155
			c33.326,19.447,69.717,29.17,109.177,29.17s75.854-9.723,109.179-29.17c33.322-19.444,59.704-45.834,79.152-79.155
			c19.445-33.325,29.166-69.718,29.166-109.175C436.766,179.803,427.044,143.409,407.603,110.087z M352.187,338.198H86.343V189.155
			l132.918-88.822l68.737,45.94V108.56h32.454v59.391l31.734,21.203v149.044H352.187z"/>
		<path style="fill:#3C3E3D;" d="M219.245,139.367l-100.462,67.141v99.234h77.924c-16.294-8.526-27.49-25.973-27.49-46.13
			c0-28.574,50.037-95.749,50.037-95.749s50.038,67.177,50.038,95.749c0,20.174-11.206,37.605-27.504,46.13h77.913v-99.234
			L219.245,139.367z"/>
		<path style="fill:#F8FFFB;" d="M320.453,108.56h-32.454v37.712l-68.737-45.94L86.343,189.155v149.043h265.844V189.155
			l-31.734-21.203V108.56z M319.701,305.742h-77.913c16.298-8.526,27.504-25.957,27.504-46.13c0-28.572-50.038-95.749-50.038-95.749
			s-50.037,67.175-50.037,95.749c0,20.158,11.196,37.605,27.49,46.13h-77.924v-99.234l100.462-67.141l100.456,67.141V305.742h0.015
			H319.701z"/>
	</g>
</g>
</svg>
