<?xml version="1.0" encoding="iso-8859-1"?>
<!-- Generator: Adobe Illustrator 22.0.1, SVG Export Plug-In . SVG Version: 6.00 Build 0)  -->
<svg version="1.1" id="Layer_1" xmlns="http://www.w3.org/2000/svg" xmlns:xlink="http://www.w3.org/1999/xlink" x="0px" y="0px"
	 viewBox="0 0 438.53 438.53" style="enable-background:new 0 0 438.53 438.53;" xml:space="preserve">
<g id="_x32_11">
	<g>
		<path style="fill:#0052B4;" d="M238.089,157.531l-19.603,14.242l7.489-23.045l-19.603-14.241h24.229l7.488-23.046l7.487,23.046
			h24.23l-19.603,14.241l2.958,9.103L358.984,52.005C310.707,11.809,249.003-4.264,189.982,3.774c0,21.701,0,39.06,0,57.227
			c0,9.575,0,19.376,0,30.165h-67.944l67.945,67.948c0,12.558,0,26.461,0,42.042l-0.001,0.001c0,0.208,0,0.41,0,0.618h-0.001h-0.617
			h-0.001h-42.041l-67.944-67.946v67.946H49.213H2.512c-0.484,5.941-0.742,11.896-0.743,17.853
			c0,49.565,16.766,99.111,50.259,139.345l194.965-194.971L238.089,157.531z M287.409,60.931l6.24-19.205l6.24,19.205h20.191
			l-16.337,11.866l6.24,19.205l-16.336-11.87l-16.335,11.87l6.24-19.205l-16.335-11.866
			C267.217,60.931,287.409,60.931,287.409,60.931z"/>
		<path style="fill:#F0F0F0;" d="M189.364,201.774h0.617l-0.308-0.309C189.57,201.568,189.467,201.671,189.364,201.774z"/>
		<path style="fill:#F0F0F0;" d="M99.516,61H70.149c-1.563,1.475-3.115,2.969-4.644,4.499c-5.836,5.836-11.257,11.931-16.292,18.236
			v27.572C65.742,94.778,82.988,77.531,99.516,61z"/>
		<path style="fill:#F0F0F0;" d="M49.213,111.308v90.466h30.164v-67.946l67.944,67.946h42.041c0.103-0.103,0.206-0.206,0.309-0.309
			L79.379,91.169v-0.002c0,0.002,28.439,0,28.439,0l82.164,82.167c0,7.907,0,24.448,0,27.821v0.001l0.001-0.001
			c0-15.581,0-29.483,0-42.042l-67.945-67.948h67.944c0-10.79,0-20.59,0-30.165H99.516C82.988,77.531,65.742,94.778,49.213,111.308z
			"/>
		<path style="fill:#F0F0F0;" d="M189.672,201.465c-0.103,0.103-0.206,0.206-0.309,0.309h0.001
			C189.467,201.671,189.57,201.568,189.672,201.465L189.672,201.465z"/>
		<path style="fill:#D80027;" d="M146.023,14.484C118.523,24.305,92.617,39.807,70.149,61h29.366
			C116.258,44.256,132.258,28.253,146.023,14.484z"/>
		<path style="fill:#D80027;" d="M49.213,83.735c-15.244,19.09-26.815,40.169-34.71,62.282c10.799-10.798,22.56-22.559,34.71-34.71
			V83.735z"/>
		<path style="fill:#D80027;" d="M49.213,111.308c-12.15,12.15-23.911,23.911-34.71,34.71C8.051,164.091,4.055,182.85,2.512,201.774
			h46.701V111.308z"/>
		<path style="fill:#D80027;" d="M189.982,61c0-18.166,0-35.526,0-57.227c-14.912,2.031-29.65,5.601-43.959,10.711
			C132.258,28.253,116.258,44.256,99.516,61H189.982z"/>
		<path style="fill:#D80027;" d="M189.981,201.774L189.981,201.774c0.001-0.207,0.001-0.41,0.001-0.618
			c-0.103,0.103-0.206,0.206-0.309,0.309L189.981,201.774z"/>
		<path style="fill:#D80027;" d="M189.982,173.334l-82.164-82.167c0,0-28.439,0.002-28.439,0v0.002l110.293,110.296
			c0.103-0.103,0.207-0.206,0.31-0.31C189.982,197.781,189.982,181.241,189.982,173.334z"/>
		<path style="fill:#D80027;" d="M189.672,201.465L189.672,201.465c0.104-0.103,0.207-0.206,0.31-0.309v-0.001
			C189.879,201.258,189.775,201.362,189.672,201.465z"/>
		<polygon style="fill:#D80027;" points="277.314,92.001 293.649,80.132 309.984,92.001 303.744,72.797 320.08,60.931 
			299.889,60.931 293.649,41.725 287.409,60.931 267.219,60.931 283.553,72.797 		"/>
		<polygon style="fill:#D80027;" points="269.806,134.487 245.576,134.487 238.089,111.442 230.601,134.487 206.371,134.487 
			225.974,148.729 218.486,171.774 238.089,157.531 246.993,164.001 253.161,157.832 250.203,148.729 		"/>
		<path style="fill:#D80027;" d="M386.548,79.595L284.084,182.063v27.595h81.13v81.133h-81.13v81.133h-81.131V290.79H175.36
			l-95.752,95.755c40.225,33.467,89.749,50.221,139.292,50.221c55.812-0.007,111.645-21.253,154.122-63.738
			C453.235,292.826,457.734,165.147,386.548,79.595z"/>
		<polygon style="fill:#F0F0F0;" points="202.953,290.79 202.953,371.923 284.084,371.923 284.084,290.79 365.214,290.79 
			365.214,209.658 284.084,209.658 284.084,182.063 175.361,290.79 		"/>
		<path style="fill:#FFFFFF;" d="M373.023,64.753c0.135,0.135,0.264,0.273,0.398,0.409c0.115,0.114,0.233,0.223,0.348,0.337
			l-0.009,0.009c4.506,4.549,8.766,9.252,12.788,14.087l0.248-0.248c-8.418-9.927-17.705-19.102-27.755-27.399l-0.056,0.056
			c4.817,4.01,9.495,8.268,14.028,12.759L373.023,64.753z"/>
		<path style="fill:#FFFFFF;" d="M52.028,358.972l-0.248,0.248c2.054,2.421,4.158,4.8,6.315,7.13l6.671,6.671l0.01-0.01
			C60.284,368.477,56.039,363.79,52.028,358.972z"/>
		<path style="fill:#FFFFFF;" d="M64.766,373.021l0.746,0.746c-0.125-0.125-0.244-0.253-0.368-0.378
			C65.018,373.265,64.89,373.146,64.766,373.021z"/>
		<path style="fill:#FFFFFF;" d="M65.512,373.767l4.476,4.476c3.104,2.877,6.286,5.672,9.555,8.369l0.067-0.067
			c-4.835-4.023-9.538-8.282-14.088-12.788L65.512,373.767z"/>
		<path style="fill:#FFFFFF;" d="M65.143,373.389c0.124,0.125,0.243,0.253,0.368,0.378l0.01-0.01
			C65.396,373.634,65.268,373.514,65.143,373.389z"/>
		<path style="fill:#FFFFFF;" d="M74.093,363.694L74.093,363.694l72.901-72.904l137.09-137.095l79.625-79.628l9.303-9.303
			c-4.533-4.491-9.211-8.749-14.028-12.759L253.161,157.832l4.531,13.942l-10.699-7.773L52.028,358.972
			c4.011,4.818,8.256,9.505,12.747,14.04L74.093,363.694z"/>
		<path style="fill:#FFFFFF;" d="M373.769,65.499c-0.115-0.115-0.233-0.223-0.348-0.337c0.114,0.115,0.224,0.232,0.338,0.347
			L373.769,65.499z"/>
		<polygon style="fill:#FFFFFF;" points="257.692,171.774 253.161,157.832 246.993,164.001 		"/>
		<path style="fill:#FFFFFF;" d="M373.023,64.753l-0.011,0.011c0.135,0.134,0.274,0.263,0.409,0.397
			C373.287,65.027,373.158,64.888,373.023,64.753z"/>
		<path style="fill:#FFFFFF;" d="M148.486,290.79l-73.647,73.65l0,0l-9.318,9.318c4.55,4.506,9.253,8.765,14.088,12.788
			l95.752-95.755L148.486,290.79L148.486,290.79z"/>
		<path style="fill:#FFFFFF;" d="M64.775,373.012l-0.01,0.01c0.125,0.125,0.253,0.244,0.378,0.368
			C65.019,373.265,64.899,373.137,64.775,373.012z"/>
		<path style="fill:#FFFFFF;" d="M364.455,74.814l-80.371,80.374v26.876L386.548,79.595c-4.023-4.835-8.282-9.537-12.788-14.087
			L364.455,74.814z"/>
		<path style="fill:#FFFFFF;" d="M364.455,74.814l9.305-9.305c-0.114-0.115-0.224-0.232-0.338-0.347
			c-0.135-0.135-0.274-0.263-0.409-0.397l-9.303,9.303l-79.625,79.628v1.492L364.455,74.814z"/>
		<path style="fill:#FFFFFF;" d="M74.093,363.694L74.093,363.694l-9.318,9.318c0.124,0.125,0.244,0.253,0.368,0.378
			c0.125,0.124,0.253,0.244,0.378,0.368l9.318-9.318l0,0l73.647-73.65h-1.492L74.093,363.694z"/>
		<polygon style="fill:#FFFFFF;" points="148.486,290.79 175.361,290.79 284.084,182.063 284.084,155.187 		"/>
		<polygon style="fill:#FFFFFF;" points="284.084,153.695 146.994,290.79 148.486,290.79 284.084,155.187 		"/>
	</g>
</g>
</svg>
