<?xml version="1.0" encoding="iso-8859-1"?>
<!-- Generator: Adobe Illustrator 22.0.1, SVG Export Plug-In . SVG Version: 6.00 Build 0)  -->
<svg version="1.1" id="Layer_1" xmlns="http://www.w3.org/2000/svg" xmlns:xlink="http://www.w3.org/1999/xlink" x="0px" y="0px"
	 viewBox="0 0 438.53 438.53" style="enable-background:new 0 0 438.53 438.53;" xml:space="preserve">
<g id="_x32_12">
	<g>
		<path style="fill:#F0F0F0;" d="M4.245,252.466c1.556,10.296,3.848,20.5,6.877,30.528h102.944l-68.212,68.213
			c1.99,2.624,4.051,5.211,6.173,7.764l106.504-106.504H4.245V252.466z"/>
		<path style="fill:#F0F0F0;" d="M187.765,191.412V4.082c-10.292,1.509-20.497,3.75-30.527,6.729v106.904L86.524,47.002
			c-7.303,5.64-14.328,11.805-21.021,18.499c-0.61,0.61-1.2,1.232-1.802,1.848l93.537,93.537v0.001v0.001v-0.001h-28.78
			L50.139,82.569c-2.161,2.668-4.256,5.373-6.272,8.118l70.202,70.202H9.786c-2.792,10.042-4.853,20.244-6.185,30.524
			L187.765,191.412L187.765,191.412z"/>
		<path style="fill:#F0F0F0;" d="M358.979,52.019c-2.551-2.124-5.138-4.185-7.762-6.175l-71.873,71.872V10.043
			c-10.039-2.842-20.241-4.952-30.525-6.329V162.18L358.979,52.019z"/>
		<path style="fill:#0052B4;" d="M43.867,90.686c-15.827,21.549-27.179,45.381-34.081,70.202h104.283L43.867,90.686z"/>
		<path style="fill:#0052B4;" d="M11.122,282.994c7.3,24.167,18.88,47.302,34.733,68.213l68.212-68.213L11.122,282.994
			L11.122,282.994z"/>
		<path style="fill:#0052B4;" d="M351.217,45.844c-21.963-16.653-46.383-28.586-71.873-35.801v107.673L351.217,45.844z"/>
		<path style="fill:#0052B4;" d="M157.238,10.812c-25.109,7.457-49.128,19.52-70.714,36.191l70.714,70.714V10.812z"/>
		<path style="fill:#D80027;" d="M248.819,162.179V3.714C228.561,1,207.994,1.117,187.765,4.082v187.33v0.001H3.601
			c-1.213,9.363-1.835,18.788-1.836,28.215c0,10.981,0.835,21.96,2.48,32.839h154.287L248.819,162.179z"/>
		<path style="fill:#D80027;" d="M157.238,160.887L157.238,160.887L63.701,67.349c-4.796,4.909-9.323,9.985-13.562,15.22
			l78.319,78.319h28.78V160.887z"/>
		<path style="fill:#0052B4;" d="M436.737,215.511c-0.745-48.407-17.474-96.606-50.181-135.915L281.848,184.305
			c0,15.385,0,28.982,0,43.041c0,9.819,0,19.869,0,30.933h-69.675l69.676,69.676c0,12.878,0,27.134,0,43.111l-0.001,0.001
			c0,0.214,0,0.421,0,0.634h-0.001h-0.633h-0.001h-43.112l-69.675-69.674v69.674h-30.933h-43.04l-14.846,14.846
			c40.226,33.467,89.752,50.22,139.296,50.22c55.814-0.007,111.648-21.253,154.126-63.738c3.286-3.285,6.429-6.659,9.461-10.098
			l-16.674,12.114l7.68-23.631l-20.102-14.603h24.846l7.679-23.632l7.679,23.632h8.643c19.453-30.231,30.685-64.251,33.696-98.865
			L431.73,241l4.923-15.151c0.008-0.242,0.019-0.484,0.026-0.726l-13.232-9.613h13.29V215.511z M343.603,237.305l7.68,23.631
			l-20.102-14.604l-20.102,14.604l7.68-23.631l-20.102-14.603h24.846l7.679-23.632l7.678,23.632h24.847L343.603,237.305z
			 M404.907,179.135l-16.752-12.172l-16.751,12.172l6.398-19.693l-16.751-12.168h20.705l6.399-19.694l6.399,19.694h20.706
			l-16.753,12.168L404.907,179.135z"/>
		<path style="fill:#F0F0F0;" d="M281.214,371.699h0.633l-0.316-0.316C281.425,371.488,281.319,371.594,281.214,371.699z"/>
		<path style="fill:#F0F0F0;" d="M188.15,278.003l-50.656,50.656V371.7h30.933v-69.674l69.675,69.674h43.112
			c0.106-0.105,0.211-0.211,0.317-0.317L188.15,278.003z"/>
		<path style="fill:#F0F0F0;" d="M202.732,263.42l79.116,79.116c0,8.108,0,25.069,0,28.529v0.001l0.001-0.001
			c0-15.977,0-30.233,0-43.111l-69.676-69.676h69.675c0-11.064,0-21.114,0-30.933h-43.041L202.732,263.42z"/>
		<path style="fill:#F0F0F0;" d="M281.53,371.383c-0.106,0.106-0.211,0.211-0.317,0.317h0.001
			C281.319,371.594,281.425,371.488,281.53,371.383L281.53,371.383z"/>
		<path style="fill:#D80027;" d="M281.848,227.345c0-14.059,0-27.655,0-43.041l-43.041,43.041H281.848z"/>
		<polygon style="fill:#D80027;" points="94.453,371.699 137.494,371.699 137.494,328.659 		"/>
		<path style="fill:#D80027;" d="M281.847,371.699L281.847,371.699c0.001-0.213,0.001-0.42,0.001-0.634
			c-0.106,0.106-0.211,0.212-0.317,0.317L281.847,371.699z"/>
		<path style="fill:#D80027;" d="M281.53,371.383c0.106-0.106,0.212-0.212,0.318-0.318c0-3.46,0-20.421,0-28.529l-79.116-79.116
			l-14.583,14.583L281.53,371.383z"/>
		<path style="fill:#D80027;" d="M281.53,371.383L281.53,371.383c0.106-0.105,0.212-0.211,0.318-0.317v-0.001
			C281.742,371.171,281.636,371.277,281.53,371.383z"/>
		<path style="fill:#D80027;" d="M435.936,237.945c0.35-4.026,0.59-8.059,0.717-12.095L431.73,241L435.936,237.945z"/>
		<path style="fill:#D80027;" d="M436.737,215.511h-13.29l13.232,9.613C436.77,221.92,436.787,218.715,436.737,215.511z"/>
		<path style="fill:#D80027;" d="M385.919,313.177l-7.679,23.632h-24.846l20.102,14.603l-7.68,23.631l16.674-12.114
			c7.325-8.307,13.908-17.042,19.75-26.121h-8.643L385.919,313.177z"/>
		<polygon style="fill:#D80027;" points="394.555,147.274 388.155,127.58 381.757,147.274 361.052,147.274 377.803,159.442 
			371.404,179.135 388.155,166.963 404.907,179.135 398.508,159.442 415.26,147.274 		"/>
		<polygon style="fill:#D80027;" points="331.18,199.07 323.501,222.702 298.655,222.702 318.757,237.305 311.078,260.936 
			331.18,246.332 351.283,260.936 343.603,237.305 363.705,222.702 338.858,222.702 		"/>
		<path style="fill:#FFFFFF;" d="M65.51,373.767l4.476,4.476c3.104,2.877,6.287,5.672,9.555,8.369l0.067-0.067
			c-4.835-4.023-9.538-8.281-14.088-12.788L65.51,373.767z"/>
		<path style="fill:#FFFFFF;" d="M52.027,358.971l-0.25,0.25c2.055,2.421,4.158,4.8,6.315,7.13l6.671,6.671l0.007-0.007
			C60.279,368.479,56.034,363.791,52.027,358.971z"/>
		<path style="fill:#FFFFFF;" d="M64.764,373.021l0.746,0.746c-0.147-0.147-0.291-0.297-0.437-0.445
			C64.97,373.221,64.866,373.123,64.764,373.021z"/>
		<path style="fill:#FFFFFF;" d="M373.021,64.764l0.009-0.009c0.121,0.121,0.237,0.246,0.358,0.367
			c0.128,0.128,0.26,0.251,0.388,0.379l-0.009,0.009c4.506,4.549,8.767,9.251,12.79,14.086l0.247-0.247
			c-8.418-9.927-17.705-19.102-27.756-27.399l-0.068,0.068c0.083,0.069,0.167,0.135,0.25,0.204
			C363.96,56.173,368.564,60.351,373.021,64.764z"/>
		<path style="fill:#FFFFFF;" d="M66.086,371.699l8.006-8.006l0,0l1.536-1.536l61.866-61.866l36.472-36.472l5.54-5.539l5.813-5.813
			h-26.787L52.027,358.971c4.007,4.821,8.252,9.509,12.743,14.044L66.086,371.699z"/>
		<path style="fill:#FFFFFF;" d="M65.072,373.322c0.147,0.148,0.29,0.298,0.437,0.445l0.01-0.01
			C65.371,373.611,65.22,373.469,65.072,373.322z"/>
		<path style="fill:#FFFFFF;" d="M248.819,188.966l23.488-23.488l7.039-7.039v-26.333l79.884-79.885
			c-0.083-0.069-0.167-0.135-0.25-0.204L248.819,162.179V188.966z"/>
		<polygon style="fill:#FFFFFF;" points="248.819,188.966 248.819,162.179 158.532,252.466 185.319,252.466 210.44,227.345 		"/>
		<path style="fill:#FFFFFF;" d="M373.776,65.501c-0.128-0.128-0.26-0.251-0.388-0.379c0.128,0.128,0.251,0.26,0.379,0.388
			L373.776,65.501z"/>
		<path style="fill:#FFFFFF;" d="M363.715,74.07l9.306-9.306c-4.458-4.413-9.062-8.591-13.792-12.541l-79.884,79.885v26.333
			l2.503-2.503L363.715,74.07z"/>
		<path style="fill:#FFFFFF;" d="M373.03,64.755l-0.009,0.009c0.122,0.12,0.245,0.237,0.367,0.358
			C373.267,65.001,373.151,64.876,373.03,64.755z"/>
		<path style="fill:#FFFFFF;" d="M64.77,373.015l-0.007,0.007c0.102,0.102,0.207,0.199,0.309,0.301
			C64.971,373.22,64.871,373.117,64.77,373.015z"/>
		<path style="fill:#FFFFFF;" d="M75.627,371.699h-8.05l-2.058,2.058c4.55,4.506,9.253,8.765,14.088,12.788l14.846-14.846H75.627z"
			/>
		<path style="fill:#FFFFFF;" d="M364.461,74.816l-82.614,82.614c0,2.746,0,5.438,0,8.05c0,6.637,0,12.862,0,18.826l104.709-104.71
			c-4.023-4.835-8.283-9.536-12.79-14.086L364.461,74.816z"/>
		<path style="fill:#FFFFFF;" d="M64.77,373.015c0.101,0.102,0.201,0.205,0.302,0.307c0.148,0.147,0.299,0.289,0.447,0.436
			l2.058-2.058h-1.492L64.77,373.015z"/>
		<path style="fill:#FFFFFF;" d="M281.848,155.937c0,0.505,0,0.992,0,1.492l82.614-82.614l9.305-9.305
			c-0.128-0.129-0.251-0.26-0.379-0.388c-0.121-0.121-0.245-0.238-0.367-0.358l-9.306,9.306L281.848,155.937z"/>
		<polygon style="fill:#FFFFFF;" points="137.494,301.783 137.494,328.659 188.15,278.003 174.712,264.565 		"/>
		<polygon style="fill:#FFFFFF;" points="174.712,264.565 173.966,263.819 137.494,300.291 137.494,301.783 		"/>
		<path style="fill:#FFFFFF;" d="M180.997,258.28c7.896,0,16.593-0.001,16.593-0.001l5.141,5.141l36.075-36.075h-26.875
			l-25.121,25.121L180.997,258.28z"/>
		<path style="fill:#FFFFFF;" d="M186.811,252.466h-1.492l-5.813,5.813c0.492,0,0.991,0,1.492,0L186.811,252.466z"/>
		<polygon style="fill:#FFFFFF;" points="211.932,227.345 210.44,227.345 185.319,252.466 186.811,252.466 		"/>
		<polygon style="fill:#FFFFFF;" points="74.837,364.44 74.837,364.44 67.578,371.699 75.627,371.699 75.627,363.65 		"/>
		<polygon style="fill:#FFFFFF;" points="74.837,364.44 75.627,363.65 75.627,362.158 74.091,363.694 74.091,363.694 
			66.086,371.699 67.578,371.699 		"/>
		<path style="fill:#FFFFFF;" d="M273.798,165.479c5.038,0,8.05,0,8.05,0c0-2.612,0-5.304,0-8.05l-2.503,2.503L273.798,165.479z"/>
		<path style="fill:#FFFFFF;" d="M279.345,159.932v-1.492l-7.039,7.039c0.518,0,1.011,0,1.492,0L279.345,159.932z"/>
		<path style="fill:#FFFFFF;" d="M281.848,157.429c0-0.5,0-0.987,0-1.492l-2.503,2.503v1.492L281.848,157.429z"/>
		<path style="fill:#FFFFFF;" d="M273.798,165.479l-24.98,24.98l-36.887,36.887h26.875l43.041-43.041c0-5.964,0-12.189,0-18.826
			C281.848,165.479,278.836,165.479,273.798,165.479z"/>
		<path style="fill:#FFFFFF;" d="M273.798,165.479c-0.481,0-0.974,0-1.492,0l-23.488,23.488v1.492L273.798,165.479z"/>
		<polygon style="fill:#FFFFFF;" points="211.932,227.345 248.819,190.458 248.819,188.966 210.44,227.345 		"/>
		<polygon style="fill:#FFFFFF;" points="137.494,301.783 75.627,363.65 75.627,371.699 94.453,371.699 137.494,328.659 		"/>
		<polygon style="fill:#FFFFFF;" points="137.494,301.783 137.494,300.291 75.627,362.158 75.627,363.65 		"/>
		<path style="fill:#FFFFFF;" d="M180.997,258.28l-6.286,6.286l13.438,13.438l14.583-14.583l-5.141-5.141
			C197.591,258.279,188.894,258.279,180.997,258.28z"/>
		<path style="fill:#FFFFFF;" d="M180.997,258.28c-0.501,0-1,0-1.492,0l-5.54,5.539l0.746,0.746L180.997,258.28z"/>
	</g>
</g>
</svg>
