<?xml version="1.0" encoding="iso-8859-1"?>
<!-- Generator: Adobe Illustrator 22.0.1, SVG Export Plug-In . SVG Version: 6.00 Build 0)  -->
<svg version="1.1" id="Layer_1" xmlns="http://www.w3.org/2000/svg" xmlns:xlink="http://www.w3.org/1999/xlink" x="0px" y="0px"
	 viewBox="0 0 438.53 438.53" style="enable-background:new 0 0 438.53 438.53;" xml:space="preserve">
<g id="_x32_15">
	<g>
		<path style="fill:#D80027;" d="M373.456,66.46l-0.386,0.387c4.561,4.519,8.923,9.237,13.071,14.14l-113.02,113.281
			c17.305,3.359,32.812,11.767,44.929,23.645c-10.164-5.52-21.805-8.656-34.177-8.656c-12.527,0-24.301,3.22-34.555,8.869
			l-28.447,28.513c-5.636,10.278-8.849,22.079-8.849,34.635c0,39.773,32.169,72.017,71.85,72.017
			c12.372,0,24.014-3.137,34.177-8.658c-15.944,15.629-37.749,25.276-61.812,25.276c-43.061,0-78.928-30.852-86.812-71.705
			L81.51,386.322c40.046,33.616,89.453,50.444,138.879,50.444c55.43-0.007,110.88-21.155,153.067-63.446
			C457.868,288.726,457.868,151.06,373.456,66.46z M361.639,299.085l-20.892,28.787l0.022-35.597l-33.772-11.021l33.784-10.98
			l0.022-35.6l20.861,28.812l33.783-10.98l-20.893,28.787l20.858,28.811L361.639,299.085z"/>
		<polygon style="fill:#F0F0F0;" points="395.446,252.507 361.663,263.487 340.803,234.674 340.781,270.274 306.997,281.254 
			340.769,292.275 340.747,327.872 361.639,299.085 395.411,310.106 374.553,281.295 		"/>
		<path style="fill:#F0F0F0;" d="M256.238,369.908c24.063,0,45.868-9.647,61.812-25.276c-10.164,5.522-21.805,8.658-34.177,8.658
			c-39.681,0-71.85-32.244-71.85-72.017c0-12.556,3.212-24.357,8.849-34.635l-51.445,51.564
			C177.311,339.055,213.177,369.908,256.238,369.908z"/>
		<path style="fill:#F0F0F0;" d="M283.873,209.257c12.372,0,24.014,3.137,34.177,8.656c-12.117-11.878-27.624-20.286-44.929-23.645
			l-23.803,23.858C259.572,212.477,271.346,209.257,283.873,209.257z"/>
		<path style="fill:#0052B4;" d="M65.071,372.066L65.071,372.066l-0.014-0.015C65.062,372.056,65.066,372.061,65.071,372.066z"/>
		<path style="fill:#0052B4;" d="M77.855,330.152l13.338-26.238l-20.772-20.821l29.016,4.609l13.335-26.237l4.597,29.083
			l4.247,0.674l158.776-159.143l-0.673-4.257l-29.015-4.608l26.175-13.367l-4.597-29.081l20.775,20.82l26.176-13.368l-5.11,10.053
			l44.453-44.556c2.288,1.893,4.531,3.837,6.737,5.82c-84.788-78.871-217.787-76.989-300.249,5.677
			c-42.193,42.284-63.293,97.862-63.299,153.42c0,50.229,17.247,100.445,51.724,140.874l34.398-34.478L77.855,330.152z
			 M189.466,66.116l9.079-28.005l9.079,28.005H237l-23.767,17.308l9.079,28.005L198.545,94.12l-23.768,17.309l9.079-28.005
			l-23.767-17.308C160.089,66.116,189.466,66.116,189.466,66.116z M77.855,88.217l26.178,13.367l20.773-20.82l-4.597,29.082
			l26.177,13.368l-29.016,4.607l-4.596,29.084l-13.338-26.237l-29.015,4.608l20.773-20.821L77.855,88.217z M27.866,209.185
			l27.94-9.1V170.64l17.267,23.823l27.942-9.1l-17.27,23.822l17.27,23.822l-27.942-9.099L55.807,247.73v-29.445L27.866,209.185z"/>
		<polygon style="fill:#FFDA44;" points="174.776,111.429 198.545,94.12 222.312,111.429 213.233,83.424 237,66.116 207.624,66.116 
			198.545,38.111 189.466,66.116 160.088,66.116 183.855,83.424 		"/>
		<polygon style="fill:#FFDA44;" points="99.436,130.669 112.774,156.906 117.37,127.822 146.386,123.215 120.209,109.847 
			124.806,80.765 104.033,101.585 77.855,88.217 91.194,114.456 70.421,135.276 		"/>
		<polygon style="fill:#FFDA44;" points="73.073,223.908 101.015,233.007 83.745,209.185 101.015,185.362 73.073,194.462 
			55.807,170.639 55.807,200.084 27.866,209.185 55.807,218.285 55.807,247.73 		"/>
		<polygon style="fill:#FFDA44;" points="117.37,290.547 112.773,261.464 99.437,287.702 70.421,283.093 91.193,303.913 
			77.855,330.152 87.887,325.029 121.617,291.221 		"/>
		<polygon style="fill:#FFDA44;" points="319.233,88.217 293.057,101.586 272.282,80.766 276.879,109.847 250.705,123.214 
			279.72,127.822 280.392,132.079 314.123,98.27 		"/>
		<path style="fill:#FFFFFF;" d="M53.42,359.576c2.04,2.41,4.129,4.778,6.272,7.097l5.366,5.378
			c-4.052-4.062-7.905-8.249-11.568-12.545L53.42,359.576z"/>
		<path style="fill:#FFFFFF;" d="M76.573,364.029L76.573,364.029l91.702-91.914l78.826-79.008L364.205,75.731l8.864-8.885
			c-2.524-2.501-5.112-4.936-7.756-7.312c1.992,1.853,3.966,3.735,5.904,5.677l-9.25,9.272l-47.976,48.087l-9.209,9.23
			l-15.71,15.746l-5.383,5.395L142.432,294.526l-5.384,5.397l-15.707,15.744l-9.21,9.232l-37.795,37.882l0,0l-9.263,9.285
			l6.431,6.446c3.083,2.864,6.243,5.646,9.489,8.33l0.518-0.52c-4.875-4.092-9.62-8.418-14.2-13.009L76.573,364.029z"/>
		<path style="fill:#FFFFFF;" d="M247.101,193.106c3.004-0.309,6.052-0.469,9.137-0.469c5.776,0,11.417,0.57,16.883,1.631
			l113.02-113.281c-4.148-4.903-8.511-9.621-13.071-14.14l-8.864,8.885L247.101,193.106z"/>
		<path style="fill:#FFFFFF;" d="M220.871,246.639l28.447-28.513C237.345,224.723,227.453,234.638,220.871,246.639z"/>
		<path style="fill:#FFFFFF;" d="M167.808,281.273c0-3.092,0.159-6.147,0.467-9.158l-91.702,91.914l0,0l-9.263,9.285
			c4.581,4.59,9.325,8.916,14.2,13.009l87.916-88.119C168.368,292.722,167.808,287.063,167.808,281.273z"/>
		<path style="fill:#FFFFFF;" d="M247.101,193.106l-78.826,79.008c-0.308,3.011-0.467,6.066-0.467,9.158
			c0,5.791,0.56,11.449,1.618,16.93l51.445-51.564c6.581-12.001,16.474-21.916,28.447-28.513l23.803-23.858
			c-5.466-1.061-11.107-1.631-16.883-1.631C253.153,192.638,250.105,192.797,247.101,193.106z"/>
		<polygon style="fill:#FFFFFF;" points="289.072,147.546 304.782,131.8 297.651,130.668 		"/>
		<polygon style="fill:#FFFFFF;" points="121.34,315.667 137.047,299.923 120.211,308.522 		"/>
		<path style="fill:#FFFFFF;" d="M74.334,362.781l37.795-37.882l-8.096-8.115l-16.146,8.245l-34.398,34.478
			c3.663,4.295,7.516,8.482,11.568,12.545l0.014,0.014L74.334,362.781L74.334,362.781z"/>
		<path style="fill:#FFFFFF;" d="M314.123,98.27l-8.228,16.186l8.096,8.114l47.976-48.087l9.25-9.272
			c-1.937-1.942-3.912-3.824-5.904-5.677c-2.207-1.983-4.45-3.928-6.737-5.82L314.123,98.27z"/>
		<polygon style="fill:#FFFFFF;" points="121.617,291.221 142.432,294.526 283.689,152.942 280.392,132.079 		"/>
		<polygon style="fill:#FFFFFF;" points="87.887,325.029 104.033,316.783 112.129,324.898 121.34,315.667 120.211,308.522 
			137.047,299.923 142.432,294.526 121.617,291.221 		"/>
		<polygon style="fill:#FFFFFF;" points="314.123,98.27 280.392,132.079 283.689,152.942 289.072,147.546 297.651,130.668 
			304.782,131.8 313.991,122.57 305.895,114.456 		"/>
	</g>
</g>
</svg>
