<?xml version="1.0" encoding="iso-8859-1"?>
<!-- Generator: Adobe Illustrator 22.0.1, SVG Export Plug-In . SVG Version: 6.00 Build 0)  -->
<svg version="1.1" id="Layer_1" xmlns="http://www.w3.org/2000/svg" xmlns:xlink="http://www.w3.org/1999/xlink" x="0px" y="0px"
	 viewBox="0 0 438.53 438.53" style="enable-background:new 0 0 438.53 438.53;" xml:space="preserve">
<g id="_x32_17">
	<g>
		<polygon style="fill:#676A6A;" points="172.524,155.526 172.524,263.413 189.521,235.084 189.521,114.037 172.524,143.781 		"/>
		<polygon style="fill:#676A6A;" points="236.262,327.151 253.258,298.822 253.258,283.002 236.262,283.002 		"/>
		<polygon style="fill:#676A6A;" points="249.009,235.084 266.006,263.413 266.006,155.526 266.006,143.781 249.009,114.037 		"/>
		<polygon style="fill:#676A6A;" points="108.786,327.151 125.783,298.822 125.783,173.526 108.786,207.519 		"/>
		<polygon style="fill:#676A6A;" points="202.268,283.002 185.271,283.002 185.271,298.822 202.268,327.151 		"/>
		<polygon style="fill:#676A6A;" points="312.747,219.264 312.747,236.261 312.747,298.822 329.744,327.151 329.744,207.519 
			312.747,173.526 		"/>
		<path style="fill:#676A6A;" d="M407.603,110.087c-19.45-33.321-45.833-59.704-79.155-79.153
			c-33.328-19.448-69.711-29.17-109.176-29.17c-39.461,0-75.854,9.722-109.177,29.17C76.771,50.38,50.388,76.763,30.938,110.087
			c-19.451,33.326-29.173,69.72-29.173,109.178c0,39.46,9.725,75.847,29.17,109.175c19.449,33.321,45.832,59.704,79.156,79.155
			c33.326,19.447,69.717,29.17,109.177,29.17s75.854-9.723,109.179-29.17c33.322-19.444,59.704-45.834,79.152-79.155
			c19.445-33.325,29.166-69.718,29.166-109.175C436.766,179.803,427.044,143.409,407.603,110.087z M189.521,346.74
			c-0.021,0-0.055,0.004-0.085,0h-67.902c-1.53,0-2.945-0.829-3.697-2.159s-0.735-2.966,0.055-4.279l16.997-29.744
			c0.765-1.279,2.146-2.061,3.642-2.061h33.993c1.496,0,2.877,0.782,3.646,2.061l16.529,29.111c0.667,0.752,1.071,1.738,1.071,2.821
			C193.77,344.836,191.87,346.74,189.521,346.74z M316.996,346.74c-0.021,0-0.055,0.004-0.085,0h-67.902
			c-1.53,0-2.945-0.829-3.697-2.159s-0.735-2.966,0.055-4.279l16.997-29.744c0.765-1.279,2.146-2.061,3.642-2.061H300
			c1.496,0,2.877,0.782,3.646,2.061l16.529,29.111c0.667,0.752,1.071,1.738,1.071,2.821
			C321.245,344.836,319.346,346.74,316.996,346.74z M338.242,342.49c0,1.912-1.275,3.586-3.115,4.096
			c-0.374,0.102-0.756,0.153-1.135,0.153c-1.466,0-2.864-0.761-3.642-2.061l-24.259-40.431h-46.18l-24.259,40.431
			c-0.778,1.3-2.176,2.061-3.642,2.061c-0.378,0-0.756-0.051-1.135-0.153c-1.84-0.51-3.115-2.184-3.115-4.096v-63.738
			c0-2.346,1.899-4.249,4.249-4.249h25.495h5.243l-20.396-33.993h-14.592c-2.35,0-14.647,0-16.997,0H196.17l-20.396,33.993h5.244
			h25.495c2.35,0,4.249,1.904,4.249,4.249v63.738c0,1.912-1.275,3.586-3.115,4.096c-0.374,0.102-0.756,0.153-1.135,0.153
			c-1.466,0-2.864-0.761-3.642-2.061l-24.259-40.431h-46.18l-24.259,40.431c-0.778,1.3-2.176,2.061-3.642,2.061
			c-0.378,0-0.756-0.051-1.135-0.153c-1.84-0.51-3.115-2.184-3.115-4.096V206.516c0-0.659,0.153-1.313,0.45-1.899l25.495-50.99
			c0.166-0.331,0.404-0.603,0.637-0.871c0.068-0.076,0.106-0.178,0.183-0.251c0.37-0.365,0.799-0.646,1.266-0.854
			c0.11-0.047,0.238-0.06,0.353-0.098c0.382-0.132,0.765-0.221,1.173-0.238c0.064-0.004,0.119-0.038,0.187-0.038h33.993v-8.498
			c0-0.659,0.153-1.313,0.446-1.904l25.495-46.741c0.166-0.336,0.404-0.608,0.642-0.88c0.068-0.072,0.106-0.17,0.178-0.242
			c0.365-0.361,0.795-0.642,1.262-0.85c0.119-0.055,0.255-0.064,0.378-0.106c0.37-0.123,0.748-0.212,1.143-0.229
			c0.072,0,0.127-0.038,0.2-0.038h50.99c0.072,0,0.132,0.038,0.204,0.042c0.382,0.021,0.744,0.106,1.105,0.225
			c0.136,0.042,0.285,0.055,0.416,0.115c0.459,0.204,0.884,0.484,1.249,0.841c0.085,0.081,0.132,0.191,0.208,0.28
			c0.225,0.263,0.459,0.523,0.62,0.846l25.495,46.741c0.293,0.586,0.446,1.241,0.446,1.899v8.498h33.993
			c0.068,0,0.127,0.034,0.195,0.042c0.387,0.017,0.752,0.106,1.117,0.225c0.136,0.043,0.285,0.055,0.412,0.115
			c0.459,0.204,0.884,0.484,1.249,0.841c0.085,0.085,0.132,0.195,0.212,0.289c0.225,0.259,0.459,0.518,0.616,0.837l25.495,50.99
			c0.293,0.586,0.446,1.241,0.446,1.899V342.49H338.242z M193.77,270.254c-1.53,0-2.945-0.829-3.697-2.159s-0.735-2.966,0.055-4.279
			l8.498-16.997c0.765-1.279,2.146-2.061,3.642-2.061h33.993c1.496,0,2.877,0.782,3.646,2.061l8.116,16.364
			c0.667,0.752,1.071,1.738,1.071,2.821c0,2.346-1.899,4.249-4.249,4.249c-0.021,0-0.055,0.004-0.085,0L193.77,270.254
			L193.77,270.254z"/>
		<path style="fill:#FFFFFF;" d="M303.645,310.558c-0.769-1.279-2.15-2.061-3.646-2.061h-33.994c-1.496,0-2.877,0.782-3.642,2.061
			l-16.997,29.744c-0.79,1.313-0.807,2.949-0.055,4.279c0.752,1.33,2.167,2.159,3.697,2.159h67.902c0.03,0.004,0.064,0,0.085,0
			c2.35,0,4.249-1.904,4.249-4.249c0-1.084-0.404-2.069-1.071-2.821L303.645,310.558z"/>
		<path style="fill:#FFFFFF;" d="M176.17,310.558c-0.769-1.279-2.15-2.061-3.646-2.061H138.53c-1.496,0-2.877,0.782-3.642,2.061
			l-16.997,29.744c-0.79,1.313-0.807,2.949-0.055,4.279s2.167,2.159,3.697,2.159h67.902c0.03,0.004,0.064,0,0.085,0
			c2.35,0,4.249-1.904,4.249-4.249c0-1.084-0.404-2.069-1.071-2.821L176.17,310.558z"/>
		<path style="fill:#FFFFFF;" d="M244.845,270.254c2.35,0,4.249-1.904,4.249-4.249c0-1.084-0.404-2.069-1.071-2.821l-8.116-16.364
			c-0.769-1.279-2.15-2.061-3.646-2.061h-33.993c-1.496,0-2.877,0.782-3.642,2.061l-8.498,16.997
			c-0.79,1.313-0.807,2.949-0.055,4.279c0.752,1.33,2.167,2.159,3.697,2.159h50.99C244.79,270.259,244.824,270.254,244.845,270.254z
			"/>
		<path style="fill:#FFFFFF;" d="M312.301,153.627c-0.157-0.319-0.391-0.578-0.616-0.837c-0.081-0.094-0.128-0.204-0.212-0.289
			c-0.365-0.357-0.79-0.637-1.249-0.841c-0.127-0.059-0.276-0.072-0.412-0.115c-0.365-0.119-0.731-0.208-1.117-0.225
			c-0.068-0.009-0.128-0.042-0.195-0.042h-33.993v-8.498c0-0.659-0.153-1.313-0.446-1.899L248.566,94.14
			c-0.161-0.323-0.395-0.582-0.62-0.846c-0.076-0.089-0.123-0.2-0.208-0.28c-0.365-0.357-0.79-0.637-1.249-0.841
			c-0.132-0.06-0.28-0.072-0.416-0.115c-0.361-0.119-0.722-0.204-1.105-0.225c-0.072-0.004-0.132-0.042-0.204-0.042h-50.99
			c-0.072,0-0.128,0.038-0.2,0.038c-0.395,0.017-0.773,0.106-1.143,0.229c-0.123,0.042-0.259,0.051-0.378,0.106
			c-0.467,0.208-0.897,0.489-1.262,0.85c-0.072,0.072-0.11,0.17-0.178,0.242c-0.238,0.272-0.476,0.544-0.642,0.88l-25.495,46.741
			c-0.293,0.591-0.446,1.245-0.446,1.904v8.498h-33.993c-0.068,0-0.123,0.034-0.187,0.038c-0.408,0.017-0.79,0.106-1.173,0.238
			c-0.115,0.038-0.242,0.051-0.353,0.098c-0.467,0.208-0.897,0.489-1.266,0.854c-0.076,0.072-0.115,0.174-0.183,0.251
			c-0.234,0.268-0.472,0.54-0.637,0.871l-25.495,50.99c-0.297,0.586-0.45,1.241-0.45,1.899V342.49c0,1.912,1.275,3.586,3.115,4.096
			c0.378,0.102,0.756,0.153,1.135,0.153c1.466,0,2.864-0.761,3.642-2.061l24.259-40.431h46.18l24.259,40.431
			c0.778,1.3,2.176,2.061,3.642,2.061c0.378,0,0.761-0.051,1.135-0.153c1.84-0.51,3.115-2.184,3.115-4.096v-63.738
			c0-2.346-1.899-4.249-4.249-4.249h-25.495h-5.244l20.396-33.993h14.592c2.35,0,14.647,0,16.997,0h14.592l20.396,33.993h-5.243
			h-25.495c-2.35,0-4.249,1.904-4.249,4.249v63.738c0,1.912,1.275,3.586,3.115,4.096c0.378,0.102,0.756,0.153,1.135,0.153
			c1.466,0,2.864-0.761,3.642-2.061l24.259-40.431h46.18l24.259,40.431c0.778,1.3,2.176,2.061,3.642,2.061
			c0.378,0,0.761-0.051,1.135-0.153c1.84-0.51,3.115-2.184,3.115-4.096V206.516c0-0.659-0.153-1.313-0.446-1.899L312.301,153.627z
			 M125.783,298.822l-16.997,28.329V207.519l16.997-33.993V298.822z M185.271,283.002h16.997v44.149l-16.997-28.329V283.002z
			 M189.521,235.084l-16.997,28.329V155.526v-11.745l16.997-29.744V235.084z M253.258,298.822l-16.997,28.329v-44.149h16.997
			V298.822z M266.006,155.526v107.887l-16.997-28.329V114.037l16.997,29.744V155.526z M329.744,327.151l-16.997-28.329v-62.561
			v-16.997v-45.738l16.997,33.993V327.151z"/>
	</g>
</g>
</svg>
