<?xml version="1.0" encoding="iso-8859-1"?>
<!-- Generator: Adobe Illustrator 22.0.1, SVG Export Plug-In . SVG Version: 6.00 Build 0)  -->
<svg version="1.1" id="Layer_1" xmlns="http://www.w3.org/2000/svg" xmlns:xlink="http://www.w3.org/1999/xlink" x="0px" y="0px"
	 viewBox="0 0 438.53 438.53" style="enable-background:new 0 0 438.53 438.53;" xml:space="preserve">
<g id="_x32_20">
	<g>
		<polygon style="fill:#F0F0F0;" points="333.718,295.076 326.371,307.8 341.063,307.8 		"/>
		<polygon style="fill:#F0F0F0;" points="281.849,205.235 274.505,217.959 289.195,217.959 		"/>
		<polygon style="fill:#F0F0F0;" points="281.849,341.988 289.195,329.264 274.504,329.264 		"/>
		<polygon style="fill:#F0F0F0;" points="341.063,239.424 326.371,239.424 333.717,252.148 		"/>
		<polygon style="fill:#F0F0F0;" points="222.635,307.8 237.328,307.8 229.982,295.076 		"/>
		<polygon style="fill:#F0F0F0;" points="242.374,273.612 262.113,307.8 301.588,307.8 321.324,273.612 301.587,239.424 
			262.112,239.424 		"/>
		<polygon style="fill:#F0F0F0;" points="252.211,213.645 247.897,217.96 249.72,217.96 		"/>
		<path style="fill:#F0F0F0;" d="M64.763,373.026c0.116,0.116,0.236,0.225,0.352,0.34c-0.115-0.116-0.226-0.235-0.341-0.351
			L64.763,373.026z"/>
		<path style="fill:#F0F0F0;" d="M422.095,140.047H325.81l-36.018,36.018l24.188,41.895h64.263l-32.134,55.652l32.134,55.652H313.98
			l-32.13,55.652l-32.129-55.652h-64.264l32.134-55.652l-9.278-16.068L80.059,385.797c-3.268-2.696-6.451-5.491-9.555-8.369
			l-4.326-4.326l-0.658,0.658c13.347,13.217,27.986,24.359,43.517,33.417h219.727c15.822-9.227,30.724-20.601,44.265-34.144
			C435.912,310.159,452.258,218.107,422.095,140.047z"/>
		<polygon style="fill:#F0F0F0;" points="229.981,252.148 237.327,239.424 226.432,239.424 224.025,241.831 		"/>
		<path style="fill:#0052B4;" d="M249.72,217.96h-1.824l-21.464,21.464h10.895l-7.346,12.724l-5.956-10.317l-15.713,15.713
			l9.278,16.068l-32.134,55.652h64.264l32.129,55.652l32.13-55.652h64.263l-32.134-55.652l32.134-55.652h-64.263l-24.188-41.895
			l-37.58,37.58L249.72,217.96z M222.635,307.8l7.347-12.724l7.346,12.724H222.635z M281.849,341.988l-7.345-12.724h14.691
			L281.849,341.988z M341.063,239.424l-7.346,12.724l-7.346-12.724H341.063z M333.718,295.076l7.345,12.724h-14.692L333.718,295.076
			z M321.324,273.612L301.588,307.8h-39.475l-19.739-34.188l19.738-34.188h39.475L321.324,273.612z M281.849,205.235l7.346,12.724
			h-14.69L281.849,205.235z"/>
		<path style="fill:#0052B4;" d="M422.095,140.047c-8.337-21.577-20.234-42.079-35.68-60.606l-60.606,60.606H422.095z"/>
		<path style="fill:#0052B4;" d="M218.902,436.77c38.022-0.005,76.05-9.876,109.862-29.594H109.038
			C142.851,426.898,180.871,436.77,218.902,436.77z"/>
		<path style="fill:#F0F0F0;" d="M28.405,196.726l-7.233-22.259l18.936-13.757H16.703l-3.528-10.858
			c-4.057,12.068-7.033,24.421-8.923,36.909l5.218-3.792L28.405,196.726z"/>
		<path style="fill:#F0F0F0;" d="M25.065,121.37c-0.97,1.924-1.916,3.856-2.825,5.802l6.165,4.479L25.065,121.37z"/>
		<polygon style="fill:#F0F0F0;" points="96.831,160.71 89.599,138.45 82.367,160.71 58.962,160.71 77.897,174.467 70.664,196.726 
			89.599,182.969 108.534,196.726 101.301,174.467 120.236,160.71 		"/>
		<path style="fill:#F0F0F0;" d="M89.599,52.821l18.935,13.757l-7.233-22.26l18.936-13.757h-9.085
			C97.875,38.175,85.229,47.286,73.478,57.92l-2.813,8.657L89.599,52.821z"/>
		<polygon style="fill:#F0F0F0;" points="89.599,73.376 82.367,95.636 58.962,95.636 77.897,109.392 70.664,131.652 89.599,117.895 
			108.534,131.652 101.301,109.392 120.236,95.636 96.831,95.636 		"/>
		<path style="fill:#F0F0F0;" d="M308.187,102.515H219.79c0,16.352,0,34.676,0,58.275h30.122L308.187,102.515z"/>
		<path style="fill:#F0F0F0;" d="M349.081,44.239C310.806,15.955,265.304,1.792,219.79,1.76c0,16.313,0,30.009,0,42.479H349.081z"/>
		<path style="fill:#F0F0F0;" d="M65.508,373.772l0.012-0.012c-0.134-0.133-0.272-0.26-0.406-0.393
			C65.248,373.5,65.375,373.638,65.508,373.772z"/>
		<path style="fill:#F0F0F0;" d="M58.611,365.535c-2.157-2.33-4.26-4.708-6.315-7.13l22.79-22.79H35.06
			c8.337,13.266,18.245,25.819,29.714,37.4l0.659-0.659L58.611,365.535z"/>
		<path style="fill:#F0F0F0;" d="M65.432,372.356l-0.659,0.659c0.115,0.116,0.226,0.235,0.341,0.351
			c0.134,0.133,0.272,0.26,0.406,0.393l0.658-0.658L65.432,372.356z"/>
		<polygon style="fill:#F0F0F0;" points="181.429,174.467 200.365,160.71 176.96,160.71 169.728,138.45 162.495,160.71 
			139.09,160.71 158.026,174.467 150.793,196.726 169.728,182.969 188.662,196.726 		"/>
		<path style="fill:#F0F0F0;" d="M191.637,219.065H1.771c0,0.189-0.007,0.378-0.007,0.567c0,19.425,2.58,38.847,7.726,57.708
			h123.872L191.637,219.065z"/>
		<polygon style="fill:#F0F0F0;" points="150.793,66.578 169.728,52.821 188.662,66.578 181.429,44.318 200.365,30.561 
			176.96,30.561 169.728,8.302 162.495,30.561 139.09,30.561 158.026,44.318 		"/>
		<polygon style="fill:#F0F0F0;" points="150.793,131.652 169.728,117.895 188.662,131.652 181.429,109.392 200.365,95.636 
			176.96,95.636 169.728,73.376 162.495,95.636 139.09,95.636 158.026,109.392 		"/>
		<path style="fill:#D80027;" d="M249.912,160.789H219.79c0,9.178,0,19.155,0,30.122L249.912,160.789z"/>
		<path style="fill:#D80027;" d="M219.79,102.515h88.397l50.637-50.637c-3.192-2.65-6.44-5.198-9.744-7.639H219.79
			C219.79,64.868,219.79,82.173,219.79,102.515z"/>
		<path style="fill:#D80027;" d="M133.362,277.34H9.49c5.541,20.311,14.064,39.968,25.57,58.276h40.027L133.362,277.34z"/>
		<path style="fill:#0052B4;" d="M210.078,200.624V160.79h9.712c0-23.599,0-41.923,0-58.275h-9.712V44.239h9.712
			c0-12.47,0-26.165,0-42.479c-37.564-0.026-75.126,9.583-108.639,28.802h9.085L101.3,44.319l7.233,22.26L89.599,52.821
			L70.664,66.578l2.813-8.657c-2.706,2.449-5.366,4.976-7.975,7.585c-16.808,16.805-30.278,35.707-40.437,55.865l3.341,10.282
			l-6.165-4.479c-3.464,7.416-6.48,14.99-9.065,22.679l3.528,10.858h23.405l-18.936,13.757l7.233,22.259L9.47,182.969l-5.218,3.792
			c-1.62,10.703-2.452,21.502-2.481,32.304h189.866L210.078,200.624z M108.534,196.726l-18.935-13.757l-18.935,13.757l7.233-22.259
			L58.962,160.71h23.405l7.232-22.259l7.232,22.259h23.405L101.3,174.467L108.534,196.726z M101.301,109.392l7.233,22.26
			l-18.935-13.757l-18.935,13.757l7.233-22.26L58.962,95.636h23.405l7.232-22.26l7.232,22.26h23.405L101.301,109.392z
			 M162.495,30.561l7.232-22.26l7.232,22.26h23.405l-18.936,13.757l7.233,22.26l-18.935-13.757l-18.935,13.757l7.233-22.26
			L139.09,30.561H162.495z M162.495,95.636l7.232-22.26l7.232,22.26h23.405l-18.936,13.757l7.233,22.26l-18.935-13.757
			l-18.935,13.757l7.233-22.26L139.09,95.636H162.495z M150.793,196.726l7.233-22.259L139.09,160.71h23.405l7.232-22.259
			l7.232,22.259h23.405l-18.936,13.757l7.233,22.259l-18.935-13.757L150.793,196.726z"/>
		<path style="fill:#0052B4;" d="M219.79,160.789h-9.712v39.834l9.712-9.712C219.79,179.944,219.79,169.967,219.79,160.789z"/>
		<path style="fill:#0052B4;" d="M210.078,44.239v58.276h9.712c0-20.341,0-37.647,0-58.276H210.078z"/>
		<path style="fill:#FFFFFF;" d="M373.029,64.76c0.102,0.102,0.198,0.206,0.3,0.308c0.148,0.147,0.299,0.29,0.446,0.438l-0.01,0.01
			c2.513,2.538,4.958,5.119,7.321,7.748c1.826,2.031,3.594,4.095,5.33,6.177l0.906-0.906c-8.418-9.927-17.705-19.102-27.756-27.399
			l-0.742,0.742c4.876,4.049,9.612,8.347,14.198,12.889L373.029,64.76z"/>
		<path style="fill:#FFFFFF;" d="M381.086,73.264c-2.363-2.629-4.808-5.21-7.321-7.748l-7.748,7.748H381.086z"/>
		<path style="fill:#FFFFFF;" d="M373.029,64.76l-0.007,0.007c0.102,0.101,0.205,0.2,0.307,0.301
			C373.227,64.966,373.13,64.861,373.029,64.76z"/>
		<polygon style="fill:#FFFFFF;" points="278.491,160.789 221.321,217.96 247.897,217.96 252.211,213.645 281.849,162.308 
			289.792,176.064 325.81,140.047 299.234,140.047 		"/>
		<path style="fill:#FFFFFF;" d="M161.941,277.34l-58.276,58.276l-28.829,28.829l0,0l-8.658,8.658l4.326,4.326
			c3.104,2.877,6.287,5.672,9.555,8.369l128.253-128.253l-9.728-16.848L161.941,277.34z"/>
		<polygon style="fill:#FFFFFF;" points="224.025,241.831 226.432,239.424 222.635,239.424 		"/>
		<polygon style="fill:#FFFFFF;" points="222.635,239.424 226.432,239.424 247.897,217.96 221.321,217.96 220.215,219.065 
			198.584,240.696 208.313,257.544 224.025,241.831 		"/>
		<polygon style="fill:#FFFFFF;" points="252.211,213.645 289.792,176.064 281.849,162.308 		"/>
		<path style="fill:#FFFFFF;" d="M366.017,73.264l-1.556,1.556l-27.694,27.694l-37.532,37.532h26.576l60.606-60.606
			c-1.736-2.082-3.504-4.146-5.33-6.177L366.017,73.264L366.017,73.264z"/>
		<polygon style="fill:#FFFFFF;" points="276.999,160.789 297.742,140.047 335.274,102.515 308.187,102.515 249.912,160.789 		"/>
		<polygon style="fill:#FFFFFF;" points="276.999,160.789 278.491,160.789 299.234,140.047 297.742,140.047 		"/>
		<polygon style="fill:#FFFFFF;" points="299.234,140.047 336.766,102.515 335.274,102.515 297.742,140.047 		"/>
		<path style="fill:#FFFFFF;" d="M74.09,363.698l28.083-28.083H75.086l-22.79,22.79c2.055,2.421,4.158,4.8,6.315,7.13l6.821,6.821
			L74.09,363.698L74.09,363.698z"/>
		<polygon style="fill:#FFFFFF;" points="74.836,364.444 103.665,335.616 102.173,335.616 74.09,363.698 74.09,363.698 
			65.432,372.356 66.178,373.102 		"/>
		<polygon style="fill:#FFFFFF;" points="198.038,239.75 218.723,219.065 210.078,219.065 191.637,219.065 133.362,277.34 
			160.448,277.34 		"/>
		<polygon style="fill:#FFFFFF;" points="160.448,277.34 161.941,277.34 198.584,240.696 198.038,239.75 		"/>
		<polygon style="fill:#FFFFFF;" points="218.723,219.065 198.038,239.75 198.584,240.696 220.215,219.065 219.79,219.065 		"/>
		<path style="fill:#FFFFFF;" d="M276.999,160.789h-27.087l-30.122,30.122c0,8.413,0,17.415,0,27.087l0.039-0.039L276.999,160.789z"
			/>
		<polygon style="fill:#FFFFFF;" points="219.829,217.96 221.321,217.96 278.491,160.789 276.999,160.789 		"/>
		<path style="fill:#FFFFFF;" d="M219.79,217.998c0,0.357,0,0.708,0,1.067h0.425l1.105-1.105h-1.492L219.79,217.998z"/>
		<path style="fill:#FFFFFF;" d="M335.274,102.515l28.44-28.44l0.81-0.81l8.497-8.497c-4.585-4.542-9.322-8.84-14.198-12.889
			l-50.637,50.637L335.274,102.515L335.274,102.515z"/>
		<path style="fill:#FFFFFF;" d="M373.775,65.506c-0.148-0.148-0.298-0.291-0.446-0.438c0.148,0.148,0.289,0.3,0.436,0.448
			L373.775,65.506z"/>
		<path style="fill:#FFFFFF;" d="M373.765,65.516c-0.147-0.148-0.289-0.3-0.436-0.448c-0.102-0.101-0.205-0.2-0.307-0.301
			l-8.497,8.497h1.492L373.765,65.516z"/>
		<polygon style="fill:#FFFFFF;" points="364.46,74.82 366.017,73.264 364.525,73.264 363.714,74.074 335.274,102.515 
			336.766,102.515 		"/>
		<polygon style="fill:#FFFFFF;" points="160.448,277.34 133.362,277.34 75.086,335.616 102.173,335.616 		"/>
		<polygon style="fill:#FFFFFF;" points="102.173,335.616 103.665,335.616 161.941,277.34 160.448,277.34 		"/>
		<polygon style="fill:#FFFFFF;" points="210.078,200.624 191.637,219.065 210.078,219.065 		"/>
		<path style="fill:#FFFFFF;" d="M218.723,219.065l1.067-1.067c0-9.671,0-18.674,0-27.087l-9.712,9.712v18.441h8.645V219.065z"/>
		<path style="fill:#FFFFFF;" d="M219.79,217.998l-1.067,1.067h1.067C219.79,218.706,219.79,218.356,219.79,217.998z"/>
	</g>
</g>
</svg>
