<?xml version="1.0" encoding="iso-8859-1"?>
<!-- Generator: Adobe Illustrator 22.0.1, SVG Export Plug-In . SVG Version: 6.00 Build 0)  -->
<svg version="1.1" id="Layer_1" xmlns="http://www.w3.org/2000/svg" xmlns:xlink="http://www.w3.org/1999/xlink" x="0px" y="0px"
	 viewBox="0 0 438.53 438.53" style="enable-background:new 0 0 438.53 438.53;" xml:space="preserve">
<g id="_x32_21">
	<g>
		<path style="fill:#0052B4;" d="M436.737,215.515c-0.745-48.475-17.521-96.739-50.317-136.078L281.847,184.009
			c0,15.509,0,29.19,0,43.34c0,9.818,0,19.868,0,30.932v0.001v-0.001h-69.674l69.676,69.676c0,12.878,0,27.134,0,43.111
			l-0.001,0.001c0,0.214,0,0.421,0,0.634v0.001h-0.001l-0.001-0.001h-0.632h-0.001h-43.112l-69.675-69.674v69.674H94.154
			l-14.093,14.093c-3.268-2.696-6.451-5.491-9.555-8.369l-4.326-4.326l-0.661,0.661c42.404,41.995,97.884,63.008,153.385,63.008
			c55.814-0.007,111.648-21.253,154.126-63.738c3.286-3.285,6.429-6.659,9.461-10.098l-16.674,12.114l7.68-23.631l-20.103-14.604
			h24.847l7.679-23.632l7.678,23.632h8.643c19.453-30.231,30.685-64.251,33.696-98.864l-4.206,3.055l4.923-15.15
			c0.008-0.242,0.019-0.484,0.026-0.726l-13.232-9.612h13.289V215.515z M343.602,237.309l7.68,23.631l-20.102-14.605l-20.103,14.605
			l7.68-23.631l-20.103-14.604h24.847l7.679-23.632l7.678,23.632h24.847L343.602,237.309z M404.907,179.139l-16.752-12.172
			l-16.751,12.172l6.399-19.693l-16.751-12.168h20.704l6.399-19.694l6.399,19.694h20.706l-16.753,12.168L404.907,179.139z"/>
		<path style="fill:#0052B4;" d="M64.763,373.026c0.125,0.125,0.253,0.244,0.378,0.368c-0.124-0.125-0.244-0.253-0.368-0.378
			L64.763,373.026z"/>
		<path style="fill:#F0F0F0;" d="M281.214,371.703h0.632l-0.316-0.316C281.425,371.492,281.319,371.598,281.214,371.703z"/>
		<path style="fill:#F0F0F0;" d="M281.849,371.703c0-0.213,0-0.42,0-0.634l0,0C281.848,371.471,281.848,371.701,281.849,371.703z"/>
		<path style="fill:#F0F0F0;" d="M202.582,263.275l79.265,79.265c0,8.107,0,25.066,0.001,28.528l0,0v0.001l0.001-0.001
			c0-15.977,0-30.233,0-43.111l-69.676-69.676h69.674c0-11.064,0-21.114,0-30.932h-43.34L202.582,263.275z"/>
		<path style="fill:#F0F0F0;" d="M188,277.857l-50.506,50.506v43.339H94.155l-0.001,0.001h74.273v-69.674l69.675,69.674h43.112
			c0.106-0.105,0.211-0.211,0.316-0.316L188,277.857z"/>
		<polygon style="fill:#F0F0F0;" points="281.851,371.077 281.851,371.076 281.851,371.077 281.85,371.078 		"/>
		<path style="fill:#F0F0F0;" d="M281.53,371.387c-0.105,0.105-0.211,0.211-0.316,0.316h0.001
			C281.319,371.598,281.425,371.492,281.53,371.387L281.53,371.387z"/>
		<path style="fill:#D80027;" d="M281.847,227.349c0-14.15,0-27.831,0-43.34l-43.34,43.34H281.847z"/>
		<polygon style="fill:#D80027;" points="137.493,371.702 137.493,328.363 94.155,371.702 		"/>
		<rect x="281.847" y="371.703" style="fill:#D80027;" width="0.002" height="0.001"/>
		<path style="fill:#D80027;" d="M281.53,371.387l0.316,0.316h0.002c0-0.002,0-0.232,0-0.634
			C281.742,371.176,281.636,371.281,281.53,371.387z"/>
		<path style="fill:#D80027;" d="M281.53,371.387c0.106-0.106,0.212-0.211,0.318-0.318c-0.001-3.462-0.001-20.421-0.001-28.528
			l-79.265-79.265L188,277.857L281.53,371.387z"/>
		<path style="fill:#D80027;" d="M281.53,371.387c0.106-0.106,0.212-0.211,0.318-0.318v-0.001
			C281.742,371.175,281.636,371.281,281.53,371.387L281.53,371.387z"/>
		<path style="fill:#D80027;" d="M435.936,237.949c0.35-4.026,0.59-8.059,0.717-12.095l-4.923,15.15L435.936,237.949z"/>
		<path style="fill:#D80027;" d="M436.737,215.515h-13.29l13.232,9.612C436.77,221.924,436.786,218.719,436.737,215.515z"/>
		<path style="fill:#D80027;" d="M385.919,313.181l-7.679,23.632h-24.847l20.103,14.604l-7.68,23.631l16.674-12.114
			c7.325-8.308,13.908-17.042,19.75-26.121h-8.643L385.919,313.181z"/>
		<polygon style="fill:#D80027;" points="394.555,147.278 388.155,127.584 381.756,147.278 361.052,147.278 377.803,159.446 
			371.404,179.139 388.155,166.967 404.907,179.139 398.507,159.446 415.26,147.278 		"/>
		<polygon style="fill:#D80027;" points="331.18,199.073 323.501,222.705 298.654,222.705 318.757,237.309 311.077,260.94 
			331.18,246.335 351.282,260.94 343.602,237.309 363.705,222.705 338.858,222.705 		"/>
		<path style="fill:#0052B4;" d="M65.509,373.772l0.01-0.01c-0.125-0.124-0.253-0.244-0.378-0.368
			C65.266,373.519,65.385,373.647,65.509,373.772z"/>
		<path style="fill:#0052B4;" d="M58.613,365.534c-2.157-2.33-4.26-4.708-6.315-7.13l34.616-34.616l0.039-14.161l-27.129-6.115
			l21.789-17.277l-12.135-25.023l27.095,6.262l11.997-25.087l11.998,25.087l27.093-6.262l-1.722,3.552l87.888-87.888l-5.149-10.62
			l12.809,2.961l1.572-1.572l5.166-10.801l1.823,3.813l43.166-43.166l0.008-3.065l-13.563-3.058l10.893-8.639l-6.066-12.511
			l13.546,3.131l5.999-12.544l5.999,12.544l9.528-2.202l39.267-39.267C311.482,12.542,251.267-3.644,193.334,3.338
			c0,2.368,0,4.672,0,6.933c0,21.9,0,39.046,0,57.029c0,9.051,0,18.316,0,28.515l-64.226,0.001l64.228,64.228
			c0,11.87,0,25.011,0,39.739c-0.001,0.001-0.001,0.001-0.002,0.002c0,0.196,0,0.385,0,0.582v0.001h-0.583h-0.002h-39.74
			l-64.227-64.227v64.227H2.626c-0.564,6.408-0.86,12.836-0.861,19.264c0,55.5,21.013,110.981,63.008,153.384l0.661-0.661
			L58.613,365.534z"/>
		<path style="fill:#0052B4;" d="M65.434,372.356l-0.661,0.661c0.124,0.125,0.244,0.253,0.368,0.378
			c0.125,0.124,0.253,0.244,0.378,0.368l0.661-0.661L65.434,372.356z"/>
		<path style="fill:#F0F0F0;" d="M193.043,200.076c-0.097,0.097-0.194,0.194-0.292,0.292h0.583v-0.001h-0.001L193.043,200.076z"/>
		<path style="fill:#F0F0F0;" d="M182.115,4.994c-7.73,1.34-15.4,3.102-22.976,5.277c7.66,0,13.12,0,17.701,0
			C178.667,8.443,180.426,6.683,182.115,4.994z"/>
		<path style="fill:#F0F0F0;" d="M90.045,97.079l-1.263-1.263h2.526c9.622-9.623,19.21-19.212,28.513-28.516H63.754
			c-1.179,1.206-2.342,2.42-3.487,3.646v55.912C70.029,117.097,80.049,107.077,90.045,97.079z"/>
		<path style="fill:#F0F0F0;" d="M193.334,10.271c0-2.26,0-4.564,0-6.933c-3.751,0.452-7.491,1.009-11.219,1.655
			c-1.689,1.689-3.448,3.449-5.275,5.277C181.108,10.271,193.334,10.271,193.334,10.271z"/>
		<path style="fill:#F0F0F0;" d="M91.308,95.816h24.357l77.669,77.668c0,7.477,0,23.112,0,26.299c0,0.001,0,0.001,0,0.002
			c0.001-0.001,0.001-0.001,0.002-0.002c0-14.728,0-27.869,0-39.739l-64.228-64.228l64.226-0.001c0-10.199,0-19.464,0-28.515
			h-73.513C110.518,76.604,100.931,86.193,91.308,95.816z"/>
		<path style="fill:#F0F0F0;" d="M88.782,136.141l64.227,64.227h39.74c0.098-0.097,0.195-0.195,0.292-0.292L90.045,97.079
			c-9.997,9.998-20.017,20.018-29.778,29.779v73.509H3.238v-6.051c-0.234,2.015-0.434,4.032-0.612,6.052h86.156V136.141z"/>
		<path style="fill:#F0F0F0;" d="M193.042,200.076c-0.097,0.097-0.195,0.195-0.292,0.292h0.002
			C192.849,200.271,192.946,200.174,193.042,200.076L193.042,200.076z"/>
		<path style="fill:#D80027;" d="M176.84,10.271c-4.581,0-10.041,0-17.701,0c-34.309,9.852-66.66,28.255-93.635,55.235
			c-0.592,0.592-1.165,1.197-1.749,1.794h56.067C141.425,45.694,161.485,25.63,176.84,10.271z"/>
		<path style="fill:#D80027;" d="M60.267,70.946c-29.83,31.942-48.254,70.749-55.263,111.17
			c15.556-15.553,34.839-34.834,55.263-55.258V70.946z"/>
		<path style="fill:#D80027;" d="M119.822,67.3h73.513c0-17.983,0-35.129,0-57.029c0,0-12.226,0-16.495,0
			C161.485,25.63,141.425,45.694,119.822,67.3z"/>
		<path style="fill:#D80027;" d="M60.267,200.367v-73.509c-20.424,20.424-39.707,39.705-55.263,55.258
			c-0.703,4.053-1.293,8.121-1.766,12.2v6.051L60.267,200.367L60.267,200.367z"/>
		<path style="fill:#D80027;" d="M193.333,200.367L193.333,200.367c0.001-0.197,0.001-0.386,0.001-0.582
			c-0.097,0.098-0.194,0.194-0.292,0.292L193.333,200.367z"/>
		<path style="fill:#D80027;" d="M88.782,95.816l1.263,1.263c0.421-0.421,0.842-0.842,1.263-1.263H88.782z"/>
		<path style="fill:#D80027;" d="M193.334,173.484l-77.669-77.668H91.308c-0.421,0.421-0.842,0.842-1.263,1.263l102.997,102.997
			c0.098-0.098,0.195-0.195,0.292-0.293C193.334,196.596,193.334,180.961,193.334,173.484z"/>
		<path style="fill:#D80027;" d="M193.042,200.076L193.042,200.076c0.098-0.096,0.195-0.193,0.292-0.291c0-0.001,0-0.001,0-0.002
			C193.237,199.88,193.14,199.978,193.042,200.076z"/>
		<polygon style="fill:#F0F0F0;" points="147.66,261.212 120.567,267.474 108.569,242.387 96.573,267.474 69.477,261.212 
			81.612,286.235 59.823,303.512 86.953,309.627 86.914,323.788 145.938,264.764 		"/>
		<polygon style="fill:#F0F0F0;" points="228.676,166.256 233.826,176.876 241.485,169.217 		"/>
		<polygon style="fill:#F0F0F0;" points="248.222,156.844 243.057,167.645 250.046,160.657 		"/>
		<polygon style="fill:#F0F0F0;" points="310.027,93.349 304.029,80.805 298.029,93.349 284.483,90.218 290.549,102.729 
			279.656,111.368 293.219,114.426 293.211,117.491 319.555,91.147 		"/>
		<path style="fill:#FFFFFF;" d="M373.03,64.759c0.141,0.141,0.277,0.286,0.417,0.428c0.108,0.108,0.22,0.21,0.328,0.318
			l-0.009,0.009c4.456,4.498,8.67,9.146,12.653,13.923l0.903-0.903c-8.418-9.927-17.705-19.102-27.756-27.399l-0.745,0.745
			c4.875,4.051,9.611,8.349,14.197,12.891L373.03,64.759z"/>
		<path style="fill:#FFFFFF;" d="M66.18,373.102l4.326,4.326c3.104,2.877,6.287,5.672,9.555,8.369l14.093-14.093H67.578
			L66.18,373.102z"/>
		<path style="fill:#FFFFFF;" d="M373.03,64.759l-0.011,0.011c0.142,0.141,0.287,0.276,0.429,0.417
			C373.307,65.045,373.172,64.9,373.03,64.759z"/>
		<path style="fill:#FFFFFF;" d="M364.461,74.819l-36.333,36.333l-0.359,0.359l-12.906,12.906l-2.167,2.167l-30.85,30.85
			c0,2.746,0,5.438,0,8.05c0,6.526,0,12.653,0,18.526L386.42,79.437c-3.983-4.777-8.197-9.425-12.653-13.923L364.461,74.819z"/>
		<path style="fill:#FFFFFF;" d="M281.847,165.483c0-2.612,0-5.304,0-8.05l-8.049,8.049
			C278.836,165.483,281.847,165.483,281.847,165.483z"/>
		<path style="fill:#FFFFFF;" d="M197.591,258.283l4.992,4.992l35.926-35.926h-26.576l-30.935,30.935
			C188.893,258.283,197.591,258.283,197.591,258.283z"/>
		<polygon style="fill:#FFFFFF;" points="75.627,371.702 75.627,363.654 74.837,364.444 67.578,371.703 94.154,371.703 
			94.155,371.702 		"/>
		<polygon style="fill:#FFFFFF;" points="145.298,293.983 137.493,301.788 137.493,328.363 188,277.857 174.712,264.569 		"/>
		<path style="fill:#FFFFFF;" d="M273.798,165.483l-10.979,10.979l-25.437,25.437l-25.45,25.45h26.576l43.34-43.34
			c0-5.873,0-12,0-18.526C281.847,165.483,278.836,165.483,273.798,165.483z"/>
		<polygon style="fill:#FFFFFF;" points="114.494,324.788 75.627,363.654 75.627,371.702 94.155,371.702 137.493,328.363 
			137.493,301.788 		"/>
		<path style="fill:#FFFFFF;" d="M180.997,258.284l-6.286,6.286L188,277.857l14.582-14.582l-4.992-4.992
			C197.591,258.283,188.893,258.283,180.997,258.284z"/>
		<polygon style="fill:#FFFFFF;" points="314.837,114.426 314.861,122.929 325.845,111.944 		"/>
		<polygon style="fill:#FFFFFF;" points="314.861,122.929 314.865,124.416 327.77,111.51 325.845,111.944 		"/>
		<polygon style="fill:#FFFFFF;" points="144.466,293.323 173.966,263.823 179.506,258.284 210.44,227.349 237.386,200.403 
			237.412,190.464 223.849,187.406 234.742,178.767 233.826,176.876 145.938,264.764 135.527,286.235 		"/>
		<path style="fill:#FFFFFF;" d="M373.775,65.505c-0.108-0.108-0.219-0.21-0.328-0.318c0.108,0.108,0.211,0.219,0.319,0.327
			L373.775,65.505z"/>
		<polygon style="fill:#FFFFFF;" points="243.057,167.645 241.485,169.217 242.224,169.388 		"/>
		<path style="fill:#FFFFFF;" d="M323.574,90.218l-6.066,12.511l9.789,7.763l36.419-36.419l9.302-9.303
			c-4.585-4.542-9.322-8.84-14.197-12.891l-39.267,39.267L323.574,90.218z"/>
		<polygon style="fill:#FFFFFF;" points="267.767,166.256 264.223,173.567 272.307,165.483 281.847,155.942 311.87,125.919 
			304.029,119.63 293.181,128.33 293.211,117.491 250.046,160.657 254.22,169.388 		"/>
		<path style="fill:#FFFFFF;" d="M74.091,363.698l1.536-1.536l38.038-38.038l-5.096-4.087l-21.693,17.398l0.037-13.647
			l-34.616,34.616c2.055,2.421,4.158,4.8,6.315,7.13l6.821,6.821l0.653-0.653L74.091,363.698z"/>
		<polygon style="fill:#FFFFFF;" points="66.086,371.703 65.434,372.356 66.18,373.102 67.578,371.703 		"/>
		<path style="fill:#FFFFFF;" d="M281.847,155.942c0,0.505,0,0.991,0,1.491l30.85-30.85l-0.827-0.664L281.847,155.942z"/>
		<path style="fill:#FFFFFF;" d="M364.461,74.819l9.305-9.305c-0.107-0.108-0.211-0.219-0.319-0.327
			c-0.142-0.141-0.287-0.276-0.429-0.417l-9.302,9.303l-36.419,36.419l0.832,0.659L364.461,74.819z"/>
		<path style="fill:#FFFFFF;" d="M272.307,165.483c0.517,0,1.01,0,1.491,0l8.049-8.049c0-0.5,0-0.987,0-1.491L272.307,165.483z"/>
		<path style="fill:#FFFFFF;" d="M179.506,258.284c0.492,0,0.99,0,1.492,0l30.935-30.935h-1.491L179.506,258.284z"/>
		<polygon style="fill:#FFFFFF;" points="174.712,264.569 173.966,263.823 144.466,293.323 145.298,293.983 		"/>
		<polygon style="fill:#FFFFFF;" points="74.091,363.698 66.086,371.703 67.578,371.703 74.837,364.444 75.627,363.654 
			75.627,362.162 		"/>
		<path style="fill:#FFFFFF;" d="M264.223,173.567l-1.404,2.895l10.979-10.979c-0.481,0-0.974,0-1.491,0L264.223,173.567z"/>
		<polygon style="fill:#FFFFFF;" points="210.44,227.349 211.932,227.349 237.382,201.899 237.386,200.403 		"/>
		<polygon style="fill:#FFFFFF;" points="113.666,324.124 75.627,362.162 75.627,363.654 114.494,324.788 		"/>
		<path style="fill:#FFFFFF;" d="M180.997,258.284c-0.501,0-0.999,0-1.492,0l-5.54,5.54l0.746,0.746L180.997,258.284z"/>
		<polygon style="fill:#FFFFFF;" points="108.569,320.037 113.666,324.124 137.493,300.296 144.466,293.323 135.527,286.235 
			145.938,264.764 86.914,323.788 86.876,337.435 		"/>
		<polygon style="fill:#FFFFFF;" points="145.298,293.983 144.466,293.323 137.493,300.296 137.493,301.788 		"/>
		<polygon style="fill:#FFFFFF;" points="137.493,301.788 137.493,300.296 113.666,324.124 114.494,324.788 		"/>
		<polygon style="fill:#FFFFFF;" points="223.849,187.406 237.412,190.464 237.386,200.403 264.223,173.567 267.767,166.256 
			254.22,169.388 250.046,160.657 243.057,167.645 242.224,169.388 241.485,169.217 233.826,176.876 234.742,178.767 		"/>
		<polygon style="fill:#FFFFFF;" points="237.386,200.403 237.382,201.899 262.819,176.462 264.223,173.567 		"/>
		<polygon style="fill:#FFFFFF;" points="304.029,119.63 311.87,125.919 314.861,122.929 314.837,114.426 325.845,111.944 
			327.297,110.492 317.508,102.729 323.574,90.218 319.555,91.147 293.211,117.491 293.181,128.33 		"/>
		<polygon style="fill:#FFFFFF;" points="311.87,125.919 312.698,126.583 314.865,124.416 314.861,122.929 		"/>
		<polygon style="fill:#FFFFFF;" points="327.77,111.51 328.129,111.152 327.297,110.492 325.845,111.944 		"/>
	</g>
</g>
</svg>
