<?xml version="1.0" encoding="iso-8859-1"?>
<!-- Generator: Adobe Illustrator 22.0.1, SVG Export Plug-In . SVG Version: 6.00 Build 0)  -->
<svg version="1.1" id="Layer_1" xmlns="http://www.w3.org/2000/svg" xmlns:xlink="http://www.w3.org/1999/xlink" x="0px" y="0px"
	 viewBox="0 0 438.53 438.53" style="enable-background:new 0 0 438.53 438.53;" xml:space="preserve">
<g id="_x32_23">
	<g>
		<path style="fill:none;" d="M64.773,373.015l-0.011,0.011c0.063,0.063,0.128,0.123,0.191,0.186c0-0.004,0-0.008,0-0.012
			C64.892,373.139,64.834,373.077,64.773,373.015z"/>
		<path style="fill:#F0F0F0;" d="M80.059,385.797c-3.268-2.696-6.451-5.491-9.555-8.369l-4.326-4.326l-0.66,0.66
			c42.404,41.995,97.884,63.008,153.384,63.008c55.814-0.007,111.648-21.253,154.126-63.738c3.019-3.018,5.918-6.111,8.723-9.26
			H102.083L80.059,385.797z"/>
		<path style="fill:#F0F0F0;" d="M64.954,373.212c0.065,0.065,0.132,0.127,0.197,0.192c-0.067-0.067-0.131-0.136-0.197-0.203
			C64.953,373.205,64.954,373.209,64.954,373.212z"/>
		<path style="fill:#D80027;" d="M416.169,126.157c-7.736-16.498-17.652-32.218-29.744-46.726l-30.737,30.737
			C376.772,113.044,397.044,118.471,416.169,126.157z"/>
		<path style="fill:#D80027;" d="M416.169,126.157c-19.125-7.686-39.397-13.114-60.481-15.989l-61.935,61.935
			c2.769-0.298,5.578-0.461,8.425-0.461c0.057,0,0.115,0,0.172,0c3.788,0.008,4.883,5.232,1.426,6.779
			c-27.179,12.161-46.119,39.429-46.119,71.133c0,31.706,18.941,58.974,46.121,71.135c3.457,1.547,2.362,6.77-1.426,6.779
			c-0.058,0-0.116,0-0.174,0c-43.031,0-77.913-34.882-77.913-77.913c0-2.848,0.163-5.657,0.461-8.425L102.083,363.773h279.668
			C440.868,297.411,452.342,203.297,416.169,126.157z M312.369,246.127l-3.537,2.569c-2.784,2.022-6.529-0.699-5.465-3.972
			l1.351-4.155c0.476-1.464-0.045-3.067-1.29-3.971l-3.535-2.568c-2.784-2.022-1.353-6.425,2.088-6.425h4.369
			c1.539,0,2.902-0.991,3.378-2.454l1.351-4.157c1.063-3.272,5.693-3.272,6.756,0l1.35,4.156c0.475,1.463,1.839,2.454,3.378,2.454
			h4.369c3.441,0,4.871,4.403,2.088,6.425l-3.535,2.568c-1.245,0.904-1.766,2.508-1.29,3.971l1.35,4.155
			c1.063,3.272-2.682,5.993-5.465,3.971l-3.535-2.568C315.299,245.223,313.613,245.223,312.369,246.127z M345.714,284.117
			l-3.535,2.568c-1.245,0.904-1.766,2.508-1.29,3.971l1.35,4.155c1.064,3.272-2.681,5.994-5.465,3.971l-3.535-2.568
			c-1.245-0.904-2.93-0.904-4.175,0l-3.536,2.569c-2.784,2.022-6.529-0.699-5.465-3.971l1.35-4.156
			c0.476-1.463-0.045-3.067-1.29-3.971l-3.535-2.568c-2.784-2.022-1.353-6.425,2.088-6.425h4.369c1.539,0,2.902-0.991,3.378-2.454
			l1.35-4.156c1.063-3.272,5.693-3.272,6.756,0l1.35,4.155c0.475,1.463,1.839,2.454,3.378,2.454h4.37
			C347.067,277.692,348.498,282.095,345.714,284.117z M363.454,215.304l-3.535-2.568c-1.245-0.904-2.93-0.904-4.175,0l-3.535,2.568
			c-2.784,2.022-6.529-0.699-5.465-3.971l1.35-4.155c0.476-1.463-0.045-3.067-1.29-3.971l-3.536-2.569
			c-2.783-2.022-1.353-6.425,2.088-6.425h4.369c1.539,0,2.902-0.991,3.378-2.454l1.351-4.156c1.063-3.272,5.692-3.272,6.756,0
			l1.351,4.156c0.476,1.463,1.839,2.454,3.378,2.454h4.37c3.441,0,4.871,4.403,2.088,6.425l-3.536,2.569
			c-1.245,0.904-1.766,2.508-1.29,3.971l1.35,4.155C369.982,214.605,366.237,217.326,363.454,215.304z M399.074,284.117
			l-3.535,2.568c-1.245,0.904-1.766,2.508-1.29,3.971l1.35,4.155c1.063,3.272-2.682,5.993-5.465,3.971l-3.535-2.568
			c-1.245-0.904-2.93-0.904-4.175,0l-3.535,2.568c-2.784,2.022-6.529-0.699-5.465-3.971l1.35-4.155
			c0.476-1.463-0.045-3.067-1.29-3.971l-3.535-2.568c-2.784-2.022-1.353-6.425,2.088-6.425h4.367c1.539,0,2.902-0.991,3.378-2.454
			l1.351-4.158c1.063-3.272,5.693-3.272,6.756,0l1.351,4.158c0.476,1.463,1.839,2.454,3.378,2.454h4.368
			C400.428,277.692,401.858,282.095,399.074,284.117z M415.77,234.03l-3.535,2.568c-1.245,0.904-1.766,2.508-1.29,3.971l1.35,4.155
			c1.064,3.272-2.682,5.994-5.465,3.971l-3.535-2.568c-1.245-0.904-2.93-0.904-4.175,0l-3.535,2.568
			c-2.784,2.022-6.529-0.699-5.465-3.971l1.35-4.155c0.476-1.463-0.045-3.067-1.29-3.971l-3.535-2.568
			c-2.784-2.022-1.353-6.425,2.088-6.425h4.368c1.539,0,2.902-0.991,3.378-2.454l1.351-4.158c1.063-3.272,5.692-3.272,6.756,0
			l1.351,4.158c0.476,1.463,1.839,2.454,3.378,2.454h4.368C417.123,227.605,418.553,232.008,415.77,234.03z"/>
		<path style="fill:#F0F0F0;" d="M224.265,249.556c0,43.031,34.882,77.913,77.913,77.913c0.058,0,0.116,0,0.174,0
			c3.788-0.009,4.883-5.232,1.426-6.779c-27.18-12.161-46.121-39.429-46.121-71.135c0-31.704,18.94-58.971,46.119-71.133
			c3.457-1.547,2.362-6.77-1.426-6.779c-0.057,0-0.115,0-0.172,0c-2.848,0-5.657,0.163-8.425,0.461l-69.027,69.027
			C224.428,243.899,224.265,246.708,224.265,249.556z"/>
		<path style="fill:#F0F0F0;" d="M368.919,211.333l-1.35-4.155c-0.476-1.463,0.045-3.067,1.29-3.971l3.536-2.569
			c2.784-2.022,1.353-6.425-2.088-6.425h-4.37c-1.539,0-2.902-0.991-3.378-2.454l-1.351-4.156c-1.063-3.272-5.692-3.272-6.756,0
			l-1.351,4.156c-0.476,1.463-1.839,2.454-3.378,2.454h-4.369c-3.441,0-4.871,4.403-2.088,6.425l3.536,2.569
			c1.245,0.904,1.766,2.508,1.29,3.971l-1.35,4.155c-1.063,3.272,2.682,5.993,5.465,3.971l3.535-2.568
			c1.245-0.904,2.93-0.904,4.175,0l3.535,2.568C366.237,217.326,369.982,214.605,368.919,211.333z"/>
		<path style="fill:#F0F0F0;" d="M320.079,248.695c2.784,2.022,6.529-0.699,5.465-3.971l-1.35-4.155
			c-0.476-1.463,0.045-3.067,1.29-3.971l3.535-2.568c2.784-2.022,1.353-6.425-2.088-6.425h-4.369c-1.539,0-2.903-0.991-3.378-2.454
			l-1.35-4.156c-1.063-3.272-5.692-3.272-6.756,0l-1.351,4.157c-0.476,1.463-1.839,2.454-3.378,2.454h-4.369
			c-3.441,0-4.871,4.403-2.088,6.425l3.535,2.568c1.245,0.904,1.766,2.508,1.29,3.971l-1.351,4.155
			c-1.064,3.272,2.681,5.994,5.465,3.972l3.537-2.569c1.245-0.904,2.93-0.904,4.175,0L320.079,248.695z"/>
		<path style="fill:#F0F0F0;" d="M413.682,227.605h-4.368c-1.539,0-2.902-0.991-3.378-2.454l-1.351-4.158
			c-1.063-3.272-5.692-3.272-6.756,0l-1.351,4.158c-0.476,1.463-1.839,2.454-3.378,2.454h-4.368c-3.441,0-4.871,4.403-2.088,6.425
			l3.535,2.568c1.245,0.904,1.766,2.508,1.29,3.971l-1.35,4.155c-1.063,3.272,2.682,5.993,5.465,3.971l3.535-2.568
			c1.245-0.904,2.93-0.904,4.175,0l3.535,2.568c2.784,2.022,6.529-0.699,5.465-3.971l-1.35-4.155
			c-0.476-1.464,0.045-3.067,1.29-3.971l3.535-2.568C418.553,232.008,417.123,227.605,413.682,227.605z"/>
		<path style="fill:#F0F0F0;" d="M396.987,277.692h-4.368c-1.539,0-2.902-0.991-3.378-2.454l-1.351-4.158
			c-1.063-3.272-5.692-3.272-6.756,0l-1.351,4.158c-0.476,1.463-1.839,2.454-3.378,2.454h-4.367c-3.441,0-4.871,4.403-2.088,6.425
			l3.535,2.568c1.245,0.904,1.766,2.508,1.29,3.971l-1.35,4.155c-1.063,3.272,2.682,5.993,5.465,3.971l3.535-2.568
			c1.245-0.904,2.93-0.904,4.175,0l3.535,2.568c2.784,2.022,6.529-0.699,5.465-3.971l-1.35-4.155
			c-0.476-1.463,0.045-3.067,1.29-3.971l3.535-2.568C401.858,282.095,400.428,277.692,396.987,277.692z"/>
		<path style="fill:#F0F0F0;" d="M343.626,277.692h-4.37c-1.539,0-2.903-0.991-3.378-2.454l-1.35-4.155
			c-1.063-3.272-5.693-3.272-6.756,0l-1.35,4.156c-0.476,1.463-1.839,2.454-3.378,2.454h-4.369c-3.441,0-4.871,4.403-2.088,6.425
			l3.535,2.568c1.245,0.904,1.766,2.508,1.29,3.971l-1.35,4.156c-1.063,3.272,2.682,5.993,5.465,3.971l3.536-2.569
			c1.245-0.904,2.93-0.904,4.175,0l3.535,2.568c2.784,2.022,6.529-0.699,5.465-3.971l-1.35-4.155
			c-0.476-1.464,0.045-3.067,1.29-3.971l3.535-2.568C348.498,282.095,347.067,277.692,343.626,277.692z"/>
		<path style="fill:#F0F0F0;" d="M28.405,196.726l-7.233-22.259l18.936-13.757H16.703l-3.528-10.858
			c-4.057,12.068-7.033,24.421-8.923,36.909l5.218-3.792L28.405,196.726z"/>
		<polygon style="fill:#F0F0F0;" points="89.599,73.376 82.367,95.636 58.961,95.636 77.897,109.392 70.664,131.652 89.599,117.895 
			108.534,131.652 101.301,109.392 120.236,95.636 96.831,95.636 		"/>
		<polygon style="fill:#F0F0F0;" points="96.831,160.71 89.599,138.45 82.367,160.71 58.961,160.71 77.897,174.467 70.664,196.726 
			89.599,182.969 108.534,196.726 101.301,174.467 120.236,160.71 		"/>
		<path style="fill:#F0F0F0;" d="M349.08,44.239C310.806,15.955,265.304,1.792,219.79,1.76c0,16.313,0,30.009,0,42.479H349.08z"/>
		<path style="fill:#F0F0F0;" d="M89.599,52.821l18.935,13.757l-7.233-22.26l18.936-13.757h-9.085
			C97.875,38.175,85.229,47.286,73.478,57.92l-2.813,8.657L89.599,52.821z"/>
		<path style="fill:#F0F0F0;" d="M25.064,121.37c-0.97,1.924-1.916,3.856-2.825,5.802l6.165,4.479L25.064,121.37z"/>
		<polygon style="fill:#F0F0F0;" points="150.793,66.578 169.728,52.821 188.662,66.578 181.429,44.318 200.365,30.561 
			176.96,30.561 169.728,8.302 162.495,30.561 139.09,30.561 158.026,44.318 		"/>
		<path style="fill:#F0F0F0;" d="M65.508,373.772l0.01-0.01c-0.122-0.121-0.246-0.237-0.368-0.358
			C65.272,373.525,65.387,373.651,65.508,373.772z"/>
		<path style="fill:#F0F0F0;" d="M65.432,372.356l-6.821-6.821c-2.157-2.33-4.26-4.708-6.315-7.13l22.79-22.79H35.059
			c8.337,13.266,18.245,25.819,29.714,37.4l0.167-0.167L65.432,372.356z"/>
		<path style="fill:#F0F0F0;" d="M64.94,372.848l-0.167,0.167c0.061,0.061,0.119,0.124,0.18,0.185
			C64.949,373.083,64.944,372.966,64.94,372.848z"/>
		<path style="fill:#F0F0F0;" d="M65.432,372.356l-0.492,0.492c0.004,0.118,0.009,0.235,0.013,0.352
			c0.067,0.067,0.131,0.136,0.197,0.203c0.122,0.121,0.246,0.237,0.368,0.358l0.66-0.66L65.432,372.356z"/>
		<path style="fill:#F0F0F0;" d="M191.637,219.065H1.771c0,0.189-0.007,0.378-0.007,0.567c0,19.425,2.58,38.847,7.726,57.708
			h123.872L191.637,219.065z"/>
		<polygon style="fill:#F0F0F0;" points="200.365,160.71 176.96,160.71 169.728,138.45 162.495,160.71 139.09,160.71 
			158.026,174.467 150.793,196.726 169.728,182.969 188.662,196.726 181.429,174.467 		"/>
		<path style="fill:#F0F0F0;" d="M308.187,102.515H219.79c0,16.352,0,34.676,0,58.275h30.122L308.187,102.515z"/>
		<polygon style="fill:#F0F0F0;" points="150.793,131.652 169.728,117.895 188.662,131.652 181.429,109.392 200.365,95.636 
			176.96,95.636 169.728,73.376 162.495,95.636 139.09,95.636 158.026,109.392 		"/>
		<path style="fill:#D80027;" d="M249.912,160.789H219.79c0,9.178,0,19.155,0,30.122L249.912,160.789z"/>
		<path style="fill:#D80027;" d="M219.79,102.515h88.397l50.637-50.637c-3.192-2.65-6.44-5.198-9.744-7.639H219.79
			C219.79,64.868,219.79,82.173,219.79,102.515z"/>
		<path style="fill:#D80027;" d="M133.362,277.34H9.49c5.541,20.311,14.064,39.968,25.57,58.276h40.027L133.362,277.34z"/>
		<path style="fill:#0052B4;" d="M210.078,200.624V160.79h9.712c0-23.599,0-41.923,0-58.275h-9.712V44.239h9.712
			c0-12.47,0-26.165,0-42.479c-37.564-0.026-75.126,9.583-108.639,28.802h9.085L101.3,44.319l7.233,22.26L89.599,52.821
			L70.664,66.578l2.813-8.657c-2.706,2.449-5.366,4.976-7.975,7.585c-16.808,16.805-30.278,35.707-40.437,55.865l3.341,10.282
			l-6.165-4.479c-3.464,7.416-6.48,14.99-9.065,22.679l3.528,10.858h23.405l-18.936,13.757l7.233,22.259L9.47,182.969l-5.218,3.792
			c-1.62,10.703-2.452,21.502-2.481,32.304h189.866L210.078,200.624z M108.534,196.726l-18.935-13.757l-18.935,13.757l7.233-22.259
			L58.961,160.71h23.405l7.232-22.259l7.232,22.259h23.405l-18.936,13.757L108.534,196.726z M101.301,109.392l7.233,22.26
			l-18.935-13.757l-18.935,13.757l7.233-22.26L58.961,95.636h23.405l7.232-22.26l7.232,22.26h23.405L101.301,109.392z
			 M162.495,30.561l7.232-22.26l7.232,22.26h23.405l-18.936,13.757l7.233,22.26l-18.935-13.757l-18.935,13.757l7.233-22.26
			L139.09,30.561H162.495z M162.495,95.636l7.232-22.26l7.232,22.26h23.405l-18.936,13.757l7.233,22.26l-18.935-13.757
			l-18.935,13.757l7.233-22.26L139.09,95.636H162.495z M169.728,182.969l-18.935,13.757l7.233-22.259L139.09,160.71h23.405
			l7.232-22.259l7.232,22.259h23.405l-18.936,13.757l7.233,22.259L169.728,182.969z"/>
		<path style="fill:#0052B4;" d="M219.79,160.789h-9.712v39.834l9.712-9.712C219.79,179.944,219.79,169.967,219.79,160.789z"/>
		<path style="fill:#0052B4;" d="M210.078,44.239v58.276h9.712c0-20.341,0-37.647,0-58.276H210.078z"/>
		<path style="fill:#FFFFFF;" d="M373.029,64.76c0.115,0.115,0.227,0.234,0.342,0.349c0.134,0.133,0.27,0.263,0.404,0.397
			l-0.008,0.008c4.455,4.498,8.676,9.141,12.658,13.918l0.897-0.897c-8.418-9.927-17.705-19.102-27.756-27.399l-0.742,0.742
			c4.876,4.049,9.612,8.347,14.198,12.889L373.029,64.76z"/>
		<path style="fill:#FFFFFF;" d="M74.836,364.444L74.836,364.444l-8.658,8.658l4.326,4.326c3.104,2.877,6.287,5.672,9.555,8.369
			l22.024-22.024H75.508L74.836,364.444z"/>
		<path style="fill:#FFFFFF;" d="M373.029,64.76l-0.007,0.007c0.116,0.115,0.233,0.227,0.349,0.342
			C373.255,64.993,373.144,64.875,373.029,64.76z"/>
		<path style="fill:#FFFFFF;" d="M364.46,74.82l-27.694,27.694l-5.5,5.5c8.248,0.333,16.394,1.059,24.422,2.153l30.737-30.737
			c-3.982-4.777-8.203-9.42-12.658-13.918L364.46,74.82z"/>
		<path style="fill:#FFFFFF;" d="M278.491,160.789l-58.276,58.276L161.94,277.34l-58.276,58.276l-28.157,28.157h26.576
			L224.726,241.13c3.904-36.298,32.729-65.123,69.027-69.027l61.935-61.935c-8.029-1.095-16.174-1.82-24.422-2.153L278.491,160.789z
			"/>
		<path style="fill:#FFFFFF;" d="M224.726,241.13l69.027-69.027C257.455,176.007,228.63,204.832,224.726,241.13z"/>
		<path style="fill:#FFFFFF;" d="M74.09,363.698L74.09,363.698l28.082-28.083H75.086l-22.79,22.79c2.055,2.421,4.158,4.8,6.315,7.13
			l6.821,6.821l8.583-8.583L74.09,363.698z"/>
		<polygon style="fill:#FFFFFF;" points="74.836,364.444 75.508,363.773 74.016,363.773 65.432,372.356 66.178,373.102 		"/>
		<polygon style="fill:#FFFFFF;" points="74.09,363.698 74.09,363.698 74.016,363.773 75.508,363.773 103.665,335.616 
			102.173,335.616 		"/>
		<polygon style="fill:#FFFFFF;" points="218.723,219.065 210.078,219.065 191.637,219.065 133.362,277.34 160.448,277.34 		"/>
		<polygon style="fill:#FFFFFF;" points="218.723,219.065 160.448,277.34 161.94,277.34 220.215,219.065 219.79,219.065 		"/>
		<polygon style="fill:#FFFFFF;" points="276.999,160.789 329.839,107.949 335.274,102.515 308.187,102.515 249.912,160.789 		"/>
		<path style="fill:#FFFFFF;" d="M331.266,108.015l5.5-5.5h-1.492l-5.435,5.435C330.316,107.966,330.789,107.996,331.266,108.015z"
			/>
		<path style="fill:#FFFFFF;" d="M276.999,160.789h1.492l52.775-52.775c-0.476-0.019-0.95-0.049-1.427-0.065L276.999,160.789z"/>
		<path style="fill:#FFFFFF;" d="M249.912,160.789l-30.122,30.122c0,8.413,0,17.415,0,27.087l57.209-57.209H249.912z"/>
		<path style="fill:#FFFFFF;" d="M219.79,217.998c0,0.357,0,0.708,0,1.067h0.425l58.276-58.276h-1.492L219.79,217.998z"/>
		<path style="fill:#FFFFFF;" d="M335.274,102.515l28.44-28.44l9.307-9.307c-4.585-4.542-9.322-8.84-14.198-12.889l-50.637,50.637
			L335.274,102.515L335.274,102.515z"/>
		<path style="fill:#FFFFFF;" d="M373.775,65.506c-0.134-0.134-0.27-0.263-0.404-0.397c0.133,0.134,0.263,0.27,0.396,0.405
			L373.775,65.506z"/>
		<path style="fill:#FFFFFF;" d="M364.46,74.82l9.306-9.306c-0.133-0.134-0.263-0.271-0.396-0.405
			c-0.116-0.115-0.233-0.228-0.349-0.342l-9.307,9.307l-28.44,28.44h1.492L364.46,74.82z"/>
		<polygon style="fill:#FFFFFF;" points="160.448,277.34 133.362,277.34 75.086,335.616 102.173,335.616 		"/>
		<polygon style="fill:#FFFFFF;" points="102.173,335.616 103.665,335.616 161.94,277.34 160.448,277.34 		"/>
		<polygon style="fill:#FFFFFF;" points="210.078,200.624 191.637,219.065 210.078,219.065 		"/>
		<path style="fill:#FFFFFF;" d="M218.723,219.065l1.067-1.067c0-9.671,0-18.674,0-27.087l-9.712,9.712v18.441h8.645V219.065z"/>
		<path style="fill:#FFFFFF;" d="M219.79,217.998l-1.067,1.067h1.067C219.79,218.706,219.79,218.356,219.79,217.998z"/>
	</g>
</g>
</svg>
