<?xml version="1.0" encoding="iso-8859-1"?>
<!-- Generator: Adobe Illustrator 22.0.1, SVG Export Plug-In . SVG Version: 6.00 Build 0)  -->
<svg version="1.1" id="Layer_1" xmlns="http://www.w3.org/2000/svg" xmlns:xlink="http://www.w3.org/1999/xlink" x="0px" y="0px"
	 viewBox="0 0 438.53 438.53" style="enable-background:new 0 0 438.53 438.53;" xml:space="preserve">
<g id="_x32_24">
	<g>
		<path style="fill:#F4F4F4;" d="M340.999,225.669c7.038,0.742,12.855-1.551,16.972-7.393c4.011-5.692,4.823-12.092,3.331-18.78
			c-2.002-8.98-9.166-15.705-19.355-15.009c-5.12,0.35-9.35,2.485-12.583,6.473c-3.32,4.097-4.629,8.892-4.679,14.088
			c-0.051,2.031,0.203,4.026,0.676,5.992C327.255,218.917,333.043,224.83,340.999,225.669z"/>
		<path style="fill:#F4F4F4;" d="M407.603,110.087c-19.45-33.321-45.833-59.704-79.155-79.153
			c-33.328-19.448-69.711-29.17-109.176-29.17c-39.461,0-75.854,9.722-109.177,29.17C76.771,50.38,50.388,76.763,30.938,110.087
			c-19.451,33.326-29.173,69.72-29.173,109.178c0,39.46,9.725,75.847,29.17,109.175c19.449,33.321,45.832,59.704,79.156,79.155
			c33.326,19.447,69.717,29.17,109.177,29.17s75.854-9.723,109.179-29.17c33.322-19.444,59.704-45.834,79.152-79.155
			c19.445-33.325,29.166-69.718,29.166-109.175C436.766,179.803,427.044,143.409,407.603,110.087z M245.864,204.173
			c0.012-0.143,0.023-0.287,0.035-0.43c0.165-0.382-0.034-0.804,0.131-1.186c0.038-0.043,0.045-0.091,0.021-0.143
			c0.191-0.308-0.041-0.682,0.152-0.99c0.088-1.401,0.581-2.702,1.016-4.012c1.053-3.171,2.73-5.984,4.961-8.468
			c0.185-0.187,0.339-0.399,0.502-0.604c2.96-3.211,6.538-5.555,10.459-7.405c3.539-1.67,7.278-2.71,11.112-3.435
			c0.129-0.024,0.25-0.091,0.375-0.137c0.257-0.183,0.583,0.019,0.843-0.15c0.05,0.023,0.093,0.014,0.13-0.027
			c0.264-0.15,0.579,0.025,0.842-0.134c0.048,0.026,0.089,0.018,0.126-0.022c0.312-0.177,0.681,0.041,0.991-0.144
			c0.052,0.024,0.099,0.016,0.141-0.023c0.368-0.173,0.784,0.052,1.15-0.139c0.051,0.026,0.098,0.02,0.141-0.018
			c0.426-0.185,0.897,0.051,1.322-0.141c0.098-0.009,0.196-0.017,0.294-0.026c0.548-0.174,1.126,0.049,1.673-0.13
			c0.196-0.011,0.392-0.022,0.588-0.033c1.357-0.14,2.718-0.055,4.077-0.054c1.653,0.001,3.307-0.08,4.959,0.051
			c0.202,0.011,0.403,0.022,0.605,0.033c0.704,0.193,1.436-0.049,2.141,0.132c0.14,0.011,0.281,0.022,0.421,0.033
			c0.495,0.173,1.022-0.041,1.517,0.129c0.093,0.01,0.185,0.02,0.278,0.03c0.433,0.177,0.904-0.039,1.337,0.132
			c0.045,0.038,0.094,0.045,0.147,0.021c0.363,0.196,0.779-0.034,1.145,0.142c0.044,0.038,0.092,0.045,0.145,0.02
			c0.309,0.185,0.672-0.022,0.984,0.137c0.043,0.039,0.091,0.048,0.145,0.025c0.308,0.193,0.682-0.042,0.989,0.154
			c0.028,0.041,0.062,0.047,0.102,0.018c0.27,0.154,0.602-0.042,0.865,0.154l-0.008-0.003c0.248,0.182,0.57-0.03,0.818,0.153
			c0.025,0.042,0.057,0.048,0.096,0.019c0.372,0.091,0.303,0.395,0.303,0.653c0.003,4.247,0.003,8.493-0.002,12.74
			c0,0.195,0.091,0.454-0.231,0.516c-0.07-0.066-0.14-0.133-0.21-0.199c-0.257-0.21-0.468-0.474-0.763-0.64
			c-2.935-2.603-6.368-4.27-10.109-5.345c-0.488-0.14-1.025-0.102-1.504-0.32c-0.251-0.176-0.561,0.008-0.818-0.133
			c-0.094-0.013-0.188-0.025-0.282-0.038c-0.377-0.171-0.795,0.031-1.172-0.13c-0.145-0.011-0.289-0.022-0.434-0.033
			c-1.38-0.109-2.76-0.111-4.141,0.001c-0.147,0.012-0.293,0.023-0.44,0.035c-0.381,0.152-0.798-0.039-1.178,0.125l-0.06-0.016
			l-0.051,0.035c-0.314,0.188-0.687-0.033-1.002,0.147c-3.949,0.649-7.506,2.198-10.666,4.655c-0.167,0.13-0.309,0.293-0.462,0.441
			c-0.147,0.259-0.41,0.39-0.631,0.566c-0.334,0.202-0.598,0.473-0.806,0.802c-0.172,0.225-0.306,0.484-0.564,0.634
			c-2.302,2.594-3.789,5.575-4.291,9.024c-0.16,0.263,0.021,0.58-0.137,0.843c-0.039,0.041-0.045,0.087-0.02,0.137
			c-0.19,0.423,0.032,0.888-0.133,1.314c-0.012,0.194-0.024,0.389-0.036,0.583c-0.104,0.686-0.112,1.372,0.001,2.057
			c0.011,0.145,0.021,0.291,0.032,0.436c0.164,0.435-0.045,0.905,0.129,1.339c0.012,0.092,0.024,0.185,0.037,0.277
			c0.146,0.253-0.043,0.562,0.136,0.81l-0.002-0.005c0.2,0.24-0.031,0.569,0.166,0.81c0.292,2.059,1.151,3.903,2.198,5.666
			c0.628,1.056,1.321,2.074,2.243,2.908c0.469,0.429,0.906,0.891,1.355,1.339c3.174,2.874,6.912,4.519,11.134,5.11
			c0.312,0.183,0.681-0.034,0.994,0.144c0.037,0.04,0.08,0.047,0.128,0.021c0.427,0.187,0.897-0.041,1.325,0.137
			c0.14,0.01,0.281,0.02,0.421,0.03c1.385,0.107,2.771,0.11,4.156-0.002c0.146-0.011,0.291-0.023,0.437-0.034
			c0.382-0.155,0.801,0.037,1.182-0.127c0.091-0.013,0.181-0.026,0.272-0.04c0.263-0.136,0.573,0.035,0.831-0.128
			c2.201-0.288,4.258-1.027,6.247-1.987c2.008-0.969,3.843-2.194,5.512-3.669c0.284-0.184,0.51-0.437,0.767-0.652
			c0.338-0.333,0.677-0.667,1.015-1c0.368,0.083,0.228,0.384,0.228,0.592c0.009,4.194,0.008,8.388,0.003,12.583
			c0,0.275,0.111,0.621-0.31,0.727c-1.108,0.249-2.206,0.565-3.327,0.728c-0.981,0.143-1.9,0.556-2.898,0.585
			c-0.257,0.177-0.58-0.023-0.838,0.147l-0.072-0.01l-0.062,0.037c-0.255,0.154-0.569-0.038-0.821,0.139l-0.078-0.011l-0.07,0.035
			c-0.272,0.137-0.587-0.017-0.859,0.126l-0.057-0.017l-0.048,0.035c-0.313,0.193-0.688-0.032-1.003,0.149l-0.069-0.013
			l-0.061,0.035c-0.371,0.178-0.791-0.044-1.162,0.14l-0.068-0.016l-0.061,0.033c-0.383,0.18-0.811-0.028-1.196,0.138
			c-0.087,0.011-0.173,0.022-0.26,0.033c-0.494,0.17-1.021-0.044-1.515,0.129c-0.141,0.012-0.282,0.024-0.423,0.036
			c-0.705,0.171-1.434-0.06-2.138,0.129c-0.202,0.011-0.405,0.021-0.607,0.032c-2.205,0.093-4.409,0.107-6.614-0.007
			c-0.195-0.01-0.39-0.019-0.585-0.029c-0.603-0.182-1.237,0.053-1.839-0.138c-0.088-0.008-0.176-0.016-0.263-0.023
			c-0.383-0.161-0.803,0.027-1.187-0.125c-0.092-0.011-0.185-0.023-0.277-0.034c-0.324-0.158-0.688,0.018-1.014-0.125
			c-0.085-0.013-0.171-0.026-0.256-0.039c-0.278-0.137-0.599,0.014-0.876-0.13l-0.063-0.036l-0.072,0.012
			c-0.258-0.168-0.575,0.02-0.834-0.139c-1.713-0.164-3.365-0.633-5.008-1.098c-1.975-0.559-3.913-1.248-5.769-2.14
			c-2.661-1.279-5.232-2.706-7.466-4.67c-0.241-0.212-0.466-0.442-0.698-0.663c-0.55-0.496-1.068-1.024-1.572-1.566
			c-1.469-1.485-2.648-3.168-3.652-5.005c-0.918-1.68-1.64-3.423-2.142-5.26c-0.17-0.62-0.241-1.266-0.357-1.9
			c-0.143-0.273,0.012-0.591-0.129-0.865c0.03-0.039,0.024-0.073-0.017-0.1c-0.208-0.427,0.042-0.905-0.149-1.334
			c-0.009-0.095-0.018-0.189-0.028-0.284C245.761,206.967,245.766,205.57,245.864,204.173z M131.383,177.941
			c0.214-0.024,0.43-0.011,0.645-0.011c15.253,0,30.506-0.001,45.76,0.008c0.311,0,0.73-0.195,0.898,0.295
			c-0.016,2.79-0.035,5.58-0.048,8.37c-0.006,1.315-0.006,2.631,0.002,3.946c0.003,0.434-0.082,0.643-0.541,0.332
			c-2.38-1.615-5.086-2.386-7.845-3.02c-0.719-0.165-1.437-0.336-2.156-0.504c-0.269-0.154-0.596,0.033-0.861-0.145l-0.044-0.036
			l-0.054,0.018c-0.275-0.143-0.597,0.022-0.87-0.135l-0.057-0.035l-0.066,0.014c-0.318-0.175-0.692,0.04-1.008-0.145l-0.056-0.034
			l-0.063,0.016c-0.375-0.177-0.797,0.041-1.172-0.139l-0.062-0.034l-0.069,0.015c-0.426-0.186-0.892,0.034-1.32-0.132
			c-0.095-0.011-0.19-0.021-0.285-0.032c-0.54-0.187-1.113,0.042-1.654-0.131c-0.195-0.011-0.39-0.023-0.585-0.034
			c-0.203-0.102-0.422-0.065-0.634-0.065c-3.144-0.002-6.288,0.016-9.432-0.016c-0.62-0.006-0.756,0.184-0.752,0.774
			c0.025,4.165,0.015,8.331,0.01,12.496c0,0.292,0.062,0.591-0.063,0.875c0.026,0.179,0.165,0.181,0.296,0.181
			c1.944-0.01,3.888-0.023,5.832-0.035c1.197-0.178,2.408,0.063,3.604-0.128c0.198-0.012,0.397-0.024,0.595-0.036
			c0.546-0.165,1.122,0.052,1.667-0.126c0.144-0.012,0.288-0.025,0.433-0.037c0.383-0.149,0.801,0.038,1.183-0.124
			c0.09-0.011,0.179-0.021,0.269-0.032c0.323-0.157,0.69,0.031,1.012-0.131c0.044,0.028,0.083,0.021,0.115-0.019
			c0.32-0.181,0.694,0.026,1.016-0.142c0.044,0.027,0.082,0.021,0.114-0.02c0.258-0.174,0.581,0.022,0.84-0.146
			c0.643-0.022,1.256-0.207,1.858-0.401c0.482-0.155,0.682-0.118,0.679,0.451c-0.015,3.31-0.01,6.621-0.005,9.932
			c0.001,0.58-0.149,0.759-0.773,0.533c-0.714-0.259-1.485-0.36-2.231-0.529c-0.267-0.151-0.583,0.017-0.851-0.132l-0.066-0.035
			l-0.074,0.012c-0.311-0.182-0.677,0.027-0.99-0.139l-0.067-0.035l-0.075,0.013c-0.421-0.2-0.891,0.046-1.313-0.146l-0.064-0.033
			l-0.07,0.016c-0.479-0.196-1,0.044-1.48-0.139c-0.093-0.009-0.185-0.018-0.278-0.028c-0.651-0.187-1.332,0.05-1.984-0.136
			c-0.142-0.009-0.283-0.018-0.425-0.027c-0.394-0.135-0.8-0.061-1.2-0.063c-2.286-0.008-4.573,0.007-6.859-0.013
			c-0.474-0.004-0.658,0.104-0.656,0.621c0.018,4.6,0.015,9.199,0.004,13.799c-0.001,0.424,0.076,0.625,0.568,0.623
			c4.465-0.02,8.93-0.003,13.396-0.014c0.085,0,0.156-0.037,0.231-0.064c0.144-0.009,0.288-0.018,0.432-0.027
			c0.653-0.184,1.335,0.05,1.988-0.135c0.091-0.008,0.182-0.017,0.273-0.025c0.48-0.19,1.002,0.055,1.481-0.142
			c0.049,0.027,0.093,0.021,0.134-0.018c0.384-0.176,0.811,0.028,1.196-0.136c0.087-0.013,0.174-0.026,0.26-0.039
			c0.279-0.129,0.595,0.011,0.873-0.122c0.086-0.013,0.171-0.026,0.257-0.039c0.252-0.148,0.562,0.044,0.808-0.138l-0.004,0.001
			c0.255-0.19,0.583,0.016,0.842-0.154c2.191-0.244,4.229-1.033,6.273-1.786c1.097-0.404,2.151-0.917,3.119-1.589
			c0.497-0.345,0.694-0.219,0.692,0.393c-0.013,3.875-0.021,7.75,0.007,11.624c0.005,0.713-0.377,0.682-0.869,0.682
			c-9.041-0.006-18.083-0.005-27.124-0.005c-7.211,0-14.423,0-21.634,0c-0.287,0-0.574,0-0.961,0
			c0.416-0.68,0.787-1.283,1.154-1.888c0.572-0.942,0.792-2.004,1.044-3.056c0.19-0.424-0.034-0.89,0.134-1.316
			c0.011-0.201,0.021-0.401,0.032-0.602c0.125-0.256,0.066-0.529,0.066-0.794c0.003-12.852,0.003-25.704,0-38.556
			c0-0.265,0.059-0.538-0.066-0.794c-0.009-0.147-0.017-0.293-0.026-0.44c-0.185-0.477,0.059-0.995-0.144-1.47
			c-0.31-1.314-0.675-2.608-1.444-3.744c-0.282-0.416-0.565-0.832-0.848-1.248C131.203,178.042,131.263,177.954,131.383,177.941z
			 M60.093,178.546c0-0.175-0.049-0.366,0.093-0.517c-0.004,0.003-0.008,0.003-0.011,0.006l0.023-0.023
			c-0.005,0.005-0.007,0.011-0.012,0.017c0.234-0.186,0.51-0.096,0.765-0.096c21.215-0.005,42.43-0.005,63.644-0.004
			c0.892,0,0.894,0.002,0.894,0.847c0.001,3.872,0.006,7.744-0.011,11.616c-0.001,0.261,0.249,0.756-0.387,0.709
			c-2.698-1.797-5.744-2.691-8.859-3.404c-0.704-0.161-1.407-0.326-2.11-0.489c-0.249-0.183-0.569,0.023-0.82-0.148l-0.051-0.037
			l-0.062,0.012c-0.269-0.147-0.585,0.016-0.855-0.13l-0.067-0.035l-0.074,0.011c-0.31-0.186-0.68,0.034-0.991-0.145l-0.06-0.035
			l-0.068,0.015c-0.371-0.187-0.795,0.047-1.165-0.146l-0.055-0.034l-0.063,0.017c-0.43-0.185-0.906,0.051-1.335-0.143l-0.061-0.033
			l-0.067,0.017c-0.536-0.199-1.112,0.056-1.648-0.144c-0.087-0.008-0.174-0.016-0.26-0.023c-0.657-0.184-1.342,0.052-1.999-0.132
			c-0.149-0.008-0.297-0.017-0.446-0.025c-0.96-0.154-1.926-0.026-2.888-0.073c-0.347-0.017-0.495,0.128-0.468,0.471
			c0.01,0.133,0.001,0.268,0.001,0.403c0,12.088,0,24.177,0.003,36.265c0,0.265-0.054,0.538,0.065,0.795
			c-0.084,0.307-0.04,0.61,0.027,0.912c0.188,0.644-0.063,1.319,0.141,1.961c-0.025,0.051-0.018,0.097,0.021,0.138
			c0.161,0.256-0.033,0.573,0.141,0.827c0.136,1.537,1.024,2.707,1.896,3.884c0.077,0.104,0.167,0.198,0.311,0.369
			c-6.959,0-13.83,0-20.834,0c0.94-1.145,1.671-2.295,2.085-3.613c0.166-0.529,0.273-1.077,0.406-1.616
			c0.205-0.529-0.04-1.097,0.141-1.628c0.009-0.149,0.018-0.298,0.027-0.447c0.129-0.255,0.068-0.529,0.068-0.793
			c0.003-12.224,0.003-24.447,0.003-36.67c0-0.933-0.001-0.949-0.969-0.93c-1.125,0.023-2.252-0.088-3.374,0.063
			c-0.196,0.011-0.392,0.021-0.588,0.032c-0.711,0.18-1.447-0.056-2.157,0.13c-0.142,0.01-0.284,0.02-0.426,0.031
			c-0.496,0.172-1.024-0.043-1.52,0.13c-0.14,0.012-0.279,0.024-0.419,0.036c-0.381,0.154-0.8-0.038-1.18,0.126
			c-0.091,0.011-0.182,0.022-0.273,0.033c-0.327,0.151-0.695-0.028-1.021,0.128l-0.057-0.018l-0.048,0.035
			c-0.322,0.188-0.701-0.02-1.026,0.145l-0.057-0.017l-0.048,0.035c-0.266,0.175-0.592-0.009-0.862,0.143l-0.059-0.016l-0.049,0.036
			c-0.256,0.177-0.579-0.024-0.837,0.148c-3.419,0.639-6.746,1.531-9.669,3.529c-0.116,0.102-0.232,0.137-0.331-0.016
			c-0.11-0.172-0.058-0.367-0.058-0.551C60.089,186.507,60.089,182.526,60.093,178.546z M120.726,248.583
			c-0.273,0.165-0.544,0.337-0.849,0.44l0.013-0.014c-0.203,0.289-0.545,0.358-0.827,0.52c-0.69,0.467-1.379,0.933-2.069,1.4
			c-0.176,0.232-0.381,0.426-0.665,0.518c-0.175,0.213-0.378,0.389-0.637,0.495c-0.188,0.195-0.388,0.373-0.636,0.491
			c-0.272,0.219-0.492,0.502-0.816,0.656c-0.105,0.083-0.21,0.166-0.315,0.25c-0.234,0.278-0.472,0.552-0.818,0.7
			c-0.387,0.321-0.67,0.762-1.143,0.983c-0.046,0.037-0.092,0.074-0.137,0.111c-0.433,0.402-0.777,0.903-1.323,1.178
			c-0.044,0.034-0.087,0.068-0.131,0.101c-0.293,0.331-0.586,0.66-0.983,0.873c-0.048,0.039-0.097,0.078-0.145,0.117
			c-0.257,0.245-0.476,0.538-0.822,0.676c-0.191,0.201-0.394,0.386-0.654,0.498c-0.633,0.437-1.266,0.873-1.898,1.31
			c-0.741,0.413-1.483,0.825-2.288,1.106l0.016-0.012c-0.285,0.21-0.633,0.252-0.958,0.357c-0.055,0.009-0.11,0.019-0.166,0.029
			c-0.305,0.152-0.606,0.316-0.963,0.307c-0.056,0.005-0.112,0.011-0.168,0.016c-0.392,0.258-0.853,0.221-1.287,0.298
			c-0.11,0.009-0.219,0.018-0.329,0.027c-0.274,0.004-0.497,0.305-0.8,0.141c-0.11,0.006-0.22,0.011-0.33,0.017
			c-0.316,0.136-0.671-0.043-0.984,0.12l0.014-0.011c-0.368,0.192-0.745,0.113-1.122,0.04c-0.295-0.009-0.59-0.026-0.884-0.026
			c-12.25-0.001-24.501-0.001-36.752-0.001c-0.282,0-0.565,0-1.066,0c0.381-0.248,0.566-0.368,0.752-0.489
			c0.283-0.154,0.558-0.325,0.857-0.449c0.306-0.226,0.613-0.452,0.919-0.678c0.394-0.244,0.744-0.554,1.16-0.766
			c0.187-0.197,0.388-0.376,0.638-0.493c0.255-0.225,0.499-0.461,0.772-0.666c0.058-0.053,0.116-0.106,0.174-0.159
			c0.295-0.181,0.514-0.458,0.801-0.649c0.056-0.053,0.112-0.106,0.168-0.159c0.364-0.22,0.608-0.584,0.967-0.81
			c0.108-0.104,0.216-0.208,0.324-0.312c0.417-0.276,0.708-0.695,1.117-0.98c0.22-0.21,0.439-0.42,0.659-0.63
			c0.876-0.684,1.542-1.592,2.419-2.276c0.056-0.053,0.111-0.105,0.167-0.158c0.309-0.167,0.494-0.502,0.836-0.625
			c0.201-0.193,0.395-0.394,0.667-0.491c0.577-0.39,1.153-0.78,1.73-1.17c0.398-0.203,0.78-0.438,1.198-0.602
			c0.085-0.064,0.17-0.129,0.255-0.193c0.555-0.17,1.032-0.534,1.612-0.641c0.109-0.058,0.218-0.116,0.327-0.174
			c0.377-0.099,0.72-0.32,1.125-0.32c0.324-0.09,0.677-0.084,0.966-0.289c0.374-0.088,0.736-0.24,1.132-0.202
			c0.057-0.004,0.113-0.008,0.17-0.011c0.274-0.004,0.497-0.302,0.8-0.142c0.11-0.005,0.22-0.009,0.33-0.014
			c1.17-0.129,2.339-0.224,3.52-0.223c12.224,0.013,24.448,0.006,36.671,0.023c0.315,0,0.847-0.297,0.934,0.372
			C121.555,248.14,121.141,248.362,120.726,248.583z M185,248.744c-0.276,0.174-0.56,0.334-0.862,0.461
			c-0.79,0.549-1.579,1.098-2.369,1.647c-0.251,0.118-0.413,0.37-0.684,0.457c-0.047,0.031-0.095,0.062-0.142,0.093
			c-0.163,0.248-0.385,0.425-0.658,0.539c-0.185,0.199-0.388,0.376-0.636,0.494c-0.344,0.254-0.577,0.645-0.994,0.81
			c-0.045,0.036-0.089,0.072-0.134,0.108c-0.247,0.268-0.483,0.549-0.828,0.702c-0.047,0.036-0.094,0.073-0.14,0.109
			c-0.3,0.318-0.588,0.649-0.978,0.865c-0.159,0.14-0.317,0.28-0.476,0.42c-0.418,0.409-0.768,0.893-1.302,1.173
			c-0.318,0.282-0.579,0.632-0.97,0.829c-0.05,0.037-0.099,0.074-0.149,0.112c-0.257,0.247-0.469,0.549-0.827,0.67
			c-0.184,0.216-0.388,0.405-0.663,0.502c-0.466,0.33-0.932,0.66-1.399,0.99c-0.281,0.176-0.562,0.351-0.878,0.461
			c-0.299,0.164-0.597,0.328-0.896,0.492c-0.424,0.185-0.836,0.404-1.295,0.499c-0.809,0.225-1.618,0.45-2.427,0.675
			c-0.218,0.026-0.404,0.195-0.64,0.141c-0.11,0.009-0.22,0.017-0.33,0.026c-0.275-0.001-0.497,0.299-0.799,0.14
			c-0.11,0.005-0.22,0.011-0.331,0.016c-0.647-0.007-1.266,0.367-1.93,0.147c-0.348-0.009-0.697-0.026-1.045-0.026
			c-12.517,0-25.033,0.001-37.55,0.002c-0.087-0.192,0.06-0.236,0.185-0.293l-0.015,0.011c0.235-0.235,0.538-0.352,0.835-0.479
			l-0.013,0.014c0.377-0.358,0.84-0.584,1.282-0.842c0.214-0.166,0.391-0.383,0.661-0.471c0.19-0.195,0.377-0.394,0.65-0.479
			c0.18-0.208,0.381-0.39,0.642-0.494c0.243-0.24,0.495-0.47,0.771-0.672c0.055-0.052,0.11-0.103,0.165-0.155
			c0.292-0.186,0.514-0.458,0.799-0.653c0.057-0.054,0.114-0.109,0.171-0.163c0.431-0.257,0.704-0.699,1.127-0.967
			c0.055-0.053,0.11-0.107,0.165-0.16c0.547-0.358,0.909-0.921,1.443-1.293c0.272-0.263,0.543-0.525,0.815-0.788
			c0.705-0.533,1.226-1.265,1.933-1.796c0.057-0.054,0.113-0.108,0.17-0.163c0.325-0.159,0.497-0.533,0.871-0.623
			c0.141-0.121,0.282-0.242,0.423-0.363c0.256-0.099,0.398-0.375,0.68-0.433c0.21-0.258,0.532-0.334,0.802-0.493l-0.015,0.012
			c0.243-0.248,0.553-0.377,0.869-0.498c0.511-0.271,1.022-0.542,1.532-0.812c0.262-0.157,0.557-0.225,0.844-0.314l-0.017,0.014
			c0.612-0.363,1.304-0.49,1.977-0.67c0.091-0.015,0.181-0.03,0.272-0.046c0.633-0.316,1.337-0.306,2.01-0.438
			c0.246-0.015,0.491-0.03,0.737-0.045c1.197-0.128,2.393-0.224,3.602-0.222c12.225,0.015,24.45,0.008,36.674,0.017
			c0.293,0,0.637-0.158,0.884,0.154C186.223,248.282,185.461,248.283,185,248.744z M186.953,193.24
			c0.182-0.599-0.044-1.227,0.134-1.826c0.038-0.041,0.046-0.086,0.023-0.137c0.167-0.257-0.014-0.571,0.134-0.831
			c0.391-2.784,1.646-5.136,3.57-7.156c0.288-0.328,0.595-0.638,0.926-0.923c1.131-1.096,2.486-1.852,3.844-2.625
			c1.959-1.116,4.13-1.651,6.239-2.329c0.854-0.274,1.819-0.311,2.718-0.538c0.266-0.174,0.591,0.011,0.86-0.143
			c0.092-0.013,0.184-0.027,0.275-0.04c0.278-0.123,0.592,0.014,0.869-0.119c0.087-0.012,0.174-0.023,0.26-0.035
			c0.375-0.163,0.792,0.044,1.166-0.132c0.096-0.01,0.192-0.02,0.287-0.03c0.545-0.172,1.121,0.052,1.665-0.129
			c0.145-0.01,0.289-0.02,0.434-0.031c2.474-0.105,4.948-0.104,7.422-0.001c0.196,0.011,0.392,0.022,0.588,0.032
			c0.602,0.178,1.23-0.038,1.833,0.123c0.142,0.013,0.285,0.026,0.427,0.039c0.438,0.166,0.909-0.028,1.349,0.123
			c0.099,0.011,0.197,0.022,0.296,0.033c0.425,0.193,0.897-0.047,1.322,0.143c0.039,0.039,0.083,0.045,0.131,0.018
			c0.37,0.185,0.789-0.038,1.16,0.14c0.04,0.039,0.085,0.046,0.135,0.021c0.313,0.178,0.68-0.027,0.995,0.137
			c0.042,0.039,0.088,0.047,0.14,0.023c0.31,0.185,0.68-0.034,0.992,0.145c0.034,0.04,0.074,0.048,0.12,0.022
			c0.266,0.152,0.579-0.012,0.846,0.128c0.043,0.039,0.092,0.047,0.146,0.026c0.253,0.176,0.569-0.018,0.824,0.141
			c0.036,0.04,0.079,0.049,0.128,0.026c0.261,0.167,0.586-0.033,0.844,0.149c1.646,0.377,3.296,0.741,4.938,1.136
			c1.26,0.303,2.51,0.645,3.765,0.969c0.24,0.106,0.258,0.314,0.258,0.539c-0.001,3.817,0.001,7.634-0.005,11.452
			c0,0.244,0.083,0.612-0.399,0.43c-3.303-2.835-7.188-4.544-11.301-5.788c-1.481-0.448-3-0.774-4.501-1.155
			c-0.253-0.181-0.581,0.036-0.831-0.158l-0.041-0.035l-0.049,0.02c-0.277-0.143-0.604,0.028-0.877-0.141l-0.047-0.036l-0.057,0.016
			c-0.273-0.14-0.588,0.01-0.862-0.124c-0.089-0.012-0.179-0.025-0.268-0.037c-0.328-0.152-0.696,0.021-1.024-0.126
			c-0.091-0.012-0.181-0.023-0.272-0.035c-0.49-0.176-1.014,0.041-1.505-0.129c-0.14-0.011-0.281-0.022-0.421-0.033
			c-2.086-0.109-4.172-0.11-6.257,0.001c-0.091,0.01-0.181,0.019-0.272,0.029c-0.365,0.178-0.781-0.054-1.144,0.143
			c-2.146,0.266-4.169,0.892-5.978,2.102c-1.001,0.67-1.893,1.45-2.08,2.749c-0.198,0.24,0.026,0.563-0.159,0.806
			c-0.32,1.082,0.043,2.042,0.587,2.939c0.614,1.013,1.554,1.674,2.607,2.169c2.104,0.987,4.319,1.587,6.628,1.846
			c0.255,0.175,0.578-0.029,0.833,0.149c0.325,0.284,0.722,0.129,1.085,0.18c0.266,0.159,0.592-0.032,0.854,0.146
			c0.026,0.041,0.058,0.048,0.097,0.019c0.275,0.141,0.596-0.019,0.869,0.132c0.037,0.04,0.08,0.047,0.128,0.023
			c0.316,0.181,0.692-0.046,1.005,0.151c0.027,0.041,0.059,0.047,0.098,0.017c0.275,0.14,0.593-0.014,0.867,0.128
			c0.041,0.039,0.087,0.047,0.139,0.024c0.311,0.183,0.68-0.032,0.993,0.143c0.041,0.039,0.086,0.045,0.136,0.019
			c0.307,0.189,0.683-0.046,0.988,0.157c0.302,0.2,0.676-0.044,0.977,0.158l0.042,0.035l0.051-0.019
			c0.274,0.148,0.606-0.036,0.874,0.15l-0.005-0.002c0.247,0.18,0.557-0.011,0.81,0.138c0.04,0.04,0.087,0.05,0.14,0.029
			c0.255,0.177,0.581-0.034,0.834,0.154c1.536,0.376,3.074,0.746,4.609,1.13c3.476,0.87,6.795,2.14,9.617,4.387
			c2.528,2.013,4.216,4.63,4.837,7.861c0.014,0.071,0.071,0.133,0.108,0.199c0.274,0.232,0.013,0.587,0.193,0.84
			c-0.027,0.044-0.021,0.084,0.019,0.117c0.196,0.428-0.044,0.903,0.144,1.332c0.009,0.095,0.018,0.19,0.026,0.285
			c0.106,0.805,0.104,1.611,0.001,2.416c-0.008,0.099-0.016,0.198-0.024,0.297c-0.193,0.424,0.042,0.893-0.14,1.318
			c-0.04,0.037-0.048,0.08-0.024,0.129c-0.164,0.261,0.024,0.58-0.141,0.841c-0.383,1.009-0.6,2.073-1.051,3.063
			c-1.541,3.381-4.116,5.71-7.359,7.407c-1.979,1.036-4.132,1.573-6.243,2.205c-0.669,0.2-1.414,0.392-2.154,0.419
			c-0.268,0.156-0.587-0.015-0.856,0.135l-0.06-0.016l-0.051,0.035c-0.325,0.18-0.701-0.02-1.028,0.141
			c-0.089,0.012-0.178,0.025-0.267,0.037c-0.373,0.159-0.788-0.049-1.159,0.131l-0.068-0.016l-0.062,0.033
			c-0.538,0.198-1.115-0.053-1.654,0.142c-0.149,0.011-0.299,0.021-0.448,0.032c-1.09,0.176-2.195-0.063-3.284,0.127
			c-1.414,0-2.829,0-4.243,0c-0.962-0.147-1.93-0.027-2.894-0.07c-0.292-0.013-0.592,0.062-0.876-0.064
			c-0.149-0.008-0.298-0.017-0.448-0.025c-0.703-0.191-1.431,0.042-2.135-0.131c-0.145-0.011-0.29-0.023-0.434-0.034
			c-0.544-0.182-1.121,0.046-1.666-0.131c-0.091-0.01-0.182-0.02-0.273-0.03c-0.434-0.174-0.906,0.037-1.341-0.13
			c-0.088-0.011-0.176-0.022-0.265-0.033c-0.383-0.164-0.807,0.037-1.19-0.133c-0.085-0.01-0.169-0.019-0.254-0.029
			c-0.279-0.132-0.594,0.003-0.874-0.12c-0.093-0.013-0.186-0.026-0.279-0.039c-0.322-0.17-0.699,0.044-1.018-0.146l-0.048-0.035
			l-0.057,0.018c-0.272-0.144-0.589,0.014-0.86-0.129l-0.067-0.035l-0.074,0.011c-0.255-0.175-0.574,0.024-0.83-0.145
			c-0.309-0.111-0.678,0.104-0.956-0.175c-0.251-0.177-0.563,0.011-0.819-0.136c-1.915-0.326-3.779-0.855-5.642-1.391
			c-0.335-0.096-0.442-0.271-0.441-0.624c0.014-3.577,0.017-7.154,0.001-10.73c-0.003-0.74,0.33-0.483,0.671-0.281
			c3.281,1.936,6.702,3.565,10.358,4.665c1.545,0.465,3.087,0.962,4.713,1.083c0.255,0.176,0.577-0.028,0.832,0.149
			c0.033,0.041,0.071,0.047,0.116,0.019c0.267,0.15,0.582-0.013,0.85,0.128c0.044,0.039,0.093,0.047,0.147,0.024
			c0.363,0.198,0.782-0.039,1.147,0.146c0.041,0.039,0.086,0.045,0.135,0.018c0.424,0.191,0.891-0.037,1.317,0.136
			c0.097,0.009,0.194,0.018,0.292,0.027c0.592,0.191,1.214-0.039,1.807,0.13c0.198,0.012,0.396,0.024,0.594,0.036
			c2.186,0.11,4.372,0.114,6.558-0.003c0.095-0.01,0.19-0.021,0.285-0.031c0.377-0.159,0.794,0.042,1.17-0.129
			c0.045,0.026,0.085,0.02,0.119-0.02c0.302-0.188,0.672,0.048,0.972-0.153l-0.003,0.001c0.247-0.193,0.574,0.027,0.821-0.16
			c1.191-0.257,2.348-0.622,3.459-1.122c1.887-0.849,3.385-2.074,3.969-4.167c0.101-0.56,0.126-1.121-0.008-1.68
			c-0.342-1.197-0.738-2.353-1.697-3.239c-1.161-1.074-2.532-1.738-3.998-2.281c-1.222-0.453-2.506-0.665-3.735-1.08
			c-0.216-0.202-0.53,0.03-0.746-0.169c-0.246-0.18-0.565,0.028-0.811-0.15c-0.312-0.102-0.678,0.1-0.961-0.169
			c-0.247-0.182-0.557,0.008-0.811-0.136c-0.051-0.009-0.103-0.018-0.154-0.027c-0.305-0.194-0.672,0.03-0.979-0.146l-0.061-0.036
			l-0.069,0.013c-0.315-0.182-0.69,0.044-1.003-0.15l-0.049-0.035l-0.057,0.018c-0.271-0.143-0.586,0.012-0.858-0.127l-0.07-0.035
			l-0.078,0.011c-0.307-0.191-0.675,0.032-0.984-0.146l-0.057-0.036l-0.067,0.014c-0.264-0.153-0.575,0.008-0.842-0.125
			c-0.088-0.014-0.176-0.028-0.264-0.041c-0.275-0.139-0.594,0.015-0.868-0.128l-0.066-0.035l-0.074,0.012
			c-0.31-0.187-0.682,0.037-0.992-0.148l-0.053-0.035l-0.062,0.015c-0.267-0.154-0.587,0.024-0.853-0.138l-0.053-0.036l-0.063,0.013
			c-0.266-0.154-0.587,0.024-0.852-0.138c-0.306-0.115-0.675,0.112-0.948-0.177c-0.253-0.18-0.579,0.033-0.83-0.156l0.002,0.001
			c-0.244-0.187-0.555,0.009-0.806-0.14c-2.215-0.361-4.354-1.015-6.438-1.815c-1.872-0.719-3.634-1.652-5.204-2.953
			c-1.89-1.566-3.228-3.467-3.981-5.794c-0.167-0.515-0.402-1.012-0.374-1.572c-0.167-0.263,0.017-0.585-0.141-0.85
			c0.027-0.045,0.02-0.085-0.021-0.119c-0.193-0.544,0.046-1.125-0.14-1.67C186.953,194.136,186.953,193.688,186.953,193.24z
			 M250.521,248.239c-0.201,0.116-0.402,0.231-0.603,0.347c-0.274,0.163-0.546,0.33-0.846,0.441l0.014-0.014
			c-0.208,0.28-0.547,0.351-0.826,0.517c-0.47,0.33-0.939,0.66-1.409,0.991c-0.248,0.118-0.398,0.385-0.684,0.443
			c-0.179,0.209-0.374,0.396-0.643,0.487c-0.181,0.207-0.383,0.385-0.639,0.495c-0.272,0.21-0.461,0.529-0.817,0.628
			c-0.25,0.25-0.471,0.536-0.817,0.67c-0.044,0.034-0.089,0.069-0.133,0.103c-0.165,0.249-0.401,0.411-0.659,0.548
			c-0.048,0.041-0.096,0.082-0.145,0.123c-0.386,0.334-0.681,0.771-1.154,1.005c-0.047,0.038-0.094,0.076-0.14,0.113
			c-0.433,0.399-0.78,0.896-1.318,1.177c-0.045,0.037-0.091,0.074-0.136,0.112c-0.366,0.352-0.67,0.773-1.139,1.008
			c-0.258,0.229-0.477,0.506-0.805,0.65c-0.198,0.191-0.4,0.377-0.652,0.497c-1.019,0.859-2.237,1.4-3.357,2.098
			c-0.424,0.185-0.837,0.399-1.294,0.5c-0.81,0.225-1.619,0.45-2.429,0.675c-0.219,0.022-0.405,0.19-0.639,0.142
			c-0.056,0.004-0.112,0.008-0.168,0.011c-0.33-0.006-0.614,0.276-0.962,0.153c-0.11,0.005-0.221,0.011-0.331,0.016
			c-0.648-0.011-1.266,0.366-1.929,0.145c-0.295-0.009-0.589-0.026-0.884-0.026c-12.302-0.001-24.605-0.001-36.907-0.001
			c-0.282,0-0.565,0-1.065,0c0.376-0.246,0.56-0.367,0.744-0.488c0.284-0.154,0.558-0.328,0.86-0.449
			c0.467-0.335,0.934-0.67,1.401-1.005c0.253-0.103,0.4-0.372,0.678-0.437c0.183-0.202,0.386-0.378,0.636-0.494
			c0.269-0.216,0.48-0.506,0.811-0.645c0.246-0.23,0.496-0.456,0.759-0.669c0.114-0.105,0.229-0.211,0.343-0.316
			c0.362-0.225,0.609-0.589,0.971-0.814c0.053-0.053,0.107-0.105,0.16-0.158c0.486-0.312,0.807-0.81,1.281-1.134
			c0.218-0.21,0.436-0.419,0.654-0.629c0.817-0.635,1.438-1.477,2.25-2.117c0.112-0.105,0.224-0.21,0.335-0.315
			c0.217-0.156,0.423-0.325,0.63-0.493c0.06-0.056,0.12-0.112,0.18-0.168c0.253-0.123,0.413-0.388,0.7-0.458
			c0.305-0.228,0.611-0.455,0.916-0.683c0.271-0.159,0.554-0.297,0.827-0.453l-0.012,0.01c0.345-0.287,0.763-0.443,1.161-0.634
			l-0.017,0.016c0.469-0.279,0.954-0.521,1.477-0.681c0.189-0.257,0.56-0.099,0.759-0.334c0.366-0.148,0.724-0.326,1.13-0.342
			c0.325-0.087,0.676-0.084,0.966-0.289c0.373-0.09,0.736-0.24,1.133-0.203c0.057-0.004,0.113-0.008,0.17-0.012
			c0.274-0.004,0.497-0.303,0.8-0.142c0.11-0.005,0.22-0.009,0.33-0.014c1.17-0.129,2.339-0.224,3.521-0.223
			c12.118,0.014,24.236,0.008,36.354,0.008c0.161,0,0.327-0.024,0.483,0.005c0.294,0.055,0.77-0.197,0.841,0.208
			C251.302,248.132,250.789,248.102,250.521,248.239z M315.104,248.306c-0.364,0.222-0.749,0.419-1.152,0.572
			c-0.082,0.063-0.163,0.127-0.245,0.19c-0.263,0.182-0.562,0.3-0.831,0.471c-0.052,0.029-0.105,0.058-0.157,0.087
			c-0.276,0.328-0.648,0.517-1.019,0.706c-0.3,0.227-0.6,0.453-0.9,0.68c-0.245,0.117-0.407,0.357-0.666,0.453
			c-0.276,0.207-0.473,0.517-0.82,0.633c-0.257,0.23-0.465,0.52-0.804,0.649c-0.258,0.238-0.482,0.518-0.817,0.661
			c-0.047,0.035-0.094,0.07-0.141,0.106c-0.248,0.268-0.483,0.552-0.832,0.701c-0.046,0.037-0.091,0.074-0.136,0.111
			c-0.303,0.315-0.586,0.653-0.982,0.862c-0.103,0.091-0.206,0.182-0.309,0.273c-0.372,0.352-0.682,0.773-1.149,1.017
			c-0.047,0.04-0.094,0.081-0.141,0.121c-0.382,0.331-0.667,0.774-1.147,0.992c-0.26,0.227-0.464,0.525-0.81,0.644
			c-0.187,0.21-0.39,0.399-0.661,0.499c-0.468,0.33-0.936,0.661-1.403,0.991c-0.281,0.172-0.561,0.345-0.873,0.459
			c-0.3,0.165-0.6,0.33-0.9,0.495c-0.425,0.182-0.837,0.399-1.294,0.497c-0.809,0.225-1.618,0.449-2.428,0.674
			c-0.218,0.024-0.404,0.194-0.64,0.141c-0.056,0.004-0.111,0.009-0.167,0.013c-0.33-0.004-0.614,0.279-0.963,0.153
			c-0.11,0.006-0.22,0.011-0.331,0.017c-0.647-0.008-1.266,0.367-1.93,0.146c-0.348-0.009-0.697-0.026-1.045-0.026
			c-12.516-0.001-25.032,0-37.549,0c-0.086-0.192,0.059-0.235,0.186-0.289l-0.015,0.012c0.233-0.238,0.535-0.357,0.836-0.478
			l-0.013,0.014c0.197-0.291,0.546-0.346,0.816-0.524c0.149-0.119,0.299-0.237,0.448-0.356c0.256-0.098,0.397-0.378,0.682-0.431
			c0.184-0.202,0.369-0.404,0.649-0.477c0.173-0.216,0.373-0.398,0.637-0.498c0.17-0.203,0.401-0.337,0.594-0.514
			c0.06-0.055,0.121-0.109,0.181-0.164c0.3-0.174,0.512-0.456,0.801-0.644c0.056-0.052,0.111-0.105,0.167-0.157
			c0.294-0.183,0.514-0.457,0.799-0.65c0.11-0.105,0.22-0.209,0.33-0.314c0.355-0.228,0.609-0.575,0.953-0.816
			c0.22-0.21,0.44-0.42,0.66-0.63c0.762-0.581,1.332-1.367,2.089-1.954c0.166-0.161,0.332-0.322,0.498-0.483
			c0.367-0.217,0.607-0.587,0.97-0.809c0.216-0.166,0.431-0.333,0.647-0.499c0.262-0.109,0.412-0.395,0.71-0.447
			c0.14-0.12,0.28-0.239,0.421-0.359c0.27-0.164,0.554-0.301,0.83-0.454l-0.013,0.01c0.343-0.292,0.761-0.447,1.161-0.635
			l-0.017,0.016c0.611-0.346,1.226-0.684,1.912-0.866c0.054-0.011,0.109-0.022,0.163-0.033c0.508-0.347,1.1-0.451,1.682-0.588
			c0.213,0.018,0.409-0.026,0.576-0.168c0.375-0.075,0.735-0.237,1.13-0.197c0.057-0.004,0.114-0.008,0.171-0.012
			c0.275,0,0.497-0.3,0.799-0.141c0.11-0.005,0.22-0.009,0.33-0.013c1.198-0.128,2.395-0.224,3.605-0.222
			c12.236,0.015,24.472,0.008,36.709,0.017c0.299,0,0.774-0.186,0.867,0.163C315.931,248.145,315.372,248.142,315.104,248.306z
			 M315.322,224.235c-2.037-2.125-3.636-4.526-4.814-7.237c-0.685-1.576-1.141-3.209-1.611-4.846
			c-0.05-0.175-0.031-0.37-0.044-0.556c-0.162-0.261,0.024-0.58-0.139-0.841c0.023-0.05,0.014-0.093-0.027-0.129
			c-0.16-0.321,0.033-0.688-0.133-1.008c0.027-0.045,0.021-0.085-0.018-0.12c-0.195-0.49,0.04-1.02-0.141-1.512
			c-0.011-0.143-0.023-0.286-0.034-0.429c-0.099-1.128-0.106-2.256,0.004-3.384c0.009-0.094,0.018-0.189,0.027-0.283
			c0.187-0.485-0.046-1.008,0.136-1.494c0.039-0.04,0.046-0.085,0.022-0.135c0.178-0.313-0.026-0.679,0.136-0.994
			c0.24-1.911,0.749-3.753,1.474-5.531c1.137-2.788,2.643-5.354,4.677-7.591c0.18-0.192,0.339-0.401,0.497-0.61
			c4.124-4.462,9.245-7.276,14.967-9.132c1.816-0.589,3.682-0.933,5.53-1.364c0.267-0.174,0.593,0.008,0.863-0.143
			c0.042,0.027,0.078,0.02,0.106-0.021c0.32-0.182,0.695,0.025,1.017-0.142c0.093-0.013,0.186-0.026,0.279-0.039
			c0.322-0.142,0.684,0.04,1.002-0.125c0.096-0.009,0.192-0.019,0.288-0.028c0.488-0.172,1.01,0.05,1.497-0.131
			c0.147-0.009,0.293-0.018,0.44-0.027c2.259-0.111,4.517-0.103,6.776-0.005c0.149,0.01,0.298,0.021,0.447,0.031
			c0.485,0.186,1.006-0.042,1.492,0.133c0.092,0.01,0.184,0.021,0.275,0.031c0.324,0.158,0.691-0.023,1.016,0.128
			c0.087,0.012,0.174,0.024,0.261,0.035c0.276,0.141,0.596-0.017,0.871,0.132c0.037,0.041,0.08,0.049,0.129,0.024
			c0.261,0.165,0.581-0.025,0.842,0.142c1.376,0.445,2.801,0.701,4.189,1.111c2.947,0.871,5.71,2.112,8.317,3.73
			c1.107,0.687,2.08,1.548,3.154,2.274c0.223,0.172,0.479,0.308,0.633,0.558c2.481,2.333,4.511,5.004,5.948,8.097
			c0.926,1.993,1.645,4.063,1.999,6.245c0.016,0.098,0.095,0.185,0.145,0.278c0.182,0.261-0.013,0.588,0.148,0.853
			c-0.028,0.044-0.021,0.083,0.018,0.117c0.193,0.37-0.04,0.794,0.146,1.165c-0.027,0.047-0.021,0.089,0.017,0.127
			c0.2,0.764-0.05,1.556,0.141,2.32c0,0.55,0,1.1,0,1.65c-0.184,0.712,0.049,1.449-0.131,2.161c-0.01,0.094-0.019,0.188-0.029,0.281
			c-0.166,0.321,0.029,0.69-0.135,1.011c-0.039,0.041-0.046,0.087-0.022,0.137c-0.17,0.256,0.018,0.573-0.139,0.831
			c-0.193,0.738-0.385,1.476-0.578,2.214c-0.826,3.152-2.227,6.054-4.155,8.649c-2.274,3.06-5.093,5.568-8.371,7.563
			c-2.228,1.356-4.587,2.435-7.022,3.298c-1.904,0.675-3.867,1.255-5.89,1.541c-0.255,0.172-0.576-0.029-0.831,0.146l-0.074-0.01
			l-0.066,0.036c-0.258,0.151-0.572-0.036-0.826,0.137l-0.076-0.01l-0.068,0.036c-0.323,0.15-0.688-0.035-1.009,0.128l-0.063-0.017
			l-0.055,0.034c-0.424,0.2-0.898-0.048-1.322,0.148l-0.068-0.018l-0.063,0.032c-0.598,0.199-1.23-0.045-1.829,0.142
			c-0.144,0.009-0.289,0.017-0.433,0.026c-1.99,0.111-3.981,0.117-5.971-0.004c-0.141-0.008-0.282-0.015-0.423-0.023
			c-0.493-0.173-1.019,0.04-1.513-0.128c-0.095-0.01-0.19-0.02-0.286-0.03c-0.374-0.178-0.794,0.036-1.168-0.136l-0.067-0.034
			l-0.074,0.013c-0.311-0.181-0.674,0.021-0.988-0.135l-0.069-0.036l-0.077,0.01c-0.254-0.173-0.566,0.012-0.824-0.135l-0.069-0.036
			l-0.077,0.01c-0.253-0.174-0.565,0.011-0.823-0.135c-2.101-0.349-4.125-0.963-6.117-1.707c-1.549-0.578-3.036-1.29-4.469-2.093
			c-2.238-1.254-4.336-2.718-6.095-4.617C315.707,224.655,315.505,224.454,315.322,224.235z M379.717,248.24
			c-0.094,0.059-0.189,0.118-0.283,0.177c-0.371,0.24-0.77,0.425-1.167,0.614l0.014-0.014c-0.211,0.273-0.55,0.341-0.822,0.516
			c-0.687,0.491-1.375,0.982-2.062,1.472c-0.242,0.125-0.406,0.364-0.67,0.457c-0.27,0.214-0.471,0.518-0.817,0.636
			c-0.255,0.232-0.466,0.518-0.802,0.65c-0.259,0.236-0.485,0.51-0.813,0.662c-0.048,0.039-0.097,0.078-0.145,0.117
			c-0.318,0.3-0.583,0.661-0.996,0.848c-0.045,0.037-0.091,0.074-0.136,0.112c-0.429,0.404-0.78,0.896-1.316,1.181
			c-0.099,0.091-0.199,0.182-0.299,0.274c-0.307,0.313-0.585,0.658-0.989,0.859c-0.101,0.087-0.203,0.174-0.304,0.261
			c-0.24,0.268-0.471,0.548-0.817,0.69c-0.187,0.207-0.396,0.384-0.65,0.505c-0.049,0.032-0.098,0.064-0.148,0.095
			c-0.298,0.397-0.738,0.606-1.145,0.859l0.015-0.013c-0.414,0.329-0.847,0.624-1.339,0.826c-0.193,0.117-0.386,0.234-0.58,0.351
			c-0.201,0.164-0.448,0.224-0.686,0.303c-0.369,0.143-0.738,0.286-1.108,0.429c-0.261,0.322-0.667,0.256-1.004,0.376
			c-0.15,0.031-0.299,0.063-0.448,0.094c-0.266,0.27-0.636,0.166-0.949,0.264c-0.325,0.056-0.651,0.113-0.976,0.169
			c-0.33-0.008-0.614,0.275-0.962,0.153c-0.11,0.005-0.221,0.011-0.331,0.016c-0.648-0.011-1.266,0.366-1.929,0.144
			c-0.295-0.009-0.591-0.026-0.886-0.026c-12.299-0.001-24.598-0.001-36.898-0.001c-0.283,0-0.567,0-1.066,0
			c0.371-0.245,0.554-0.366,0.737-0.487c0.285-0.155,0.559-0.334,0.865-0.449c0.465-0.335,0.931-0.67,1.396-1.005
			c0.253-0.104,0.399-0.376,0.68-0.436c0.18-0.206,0.382-0.383,0.637-0.493c0.264-0.223,0.478-0.509,0.81-0.647
			c0.244-0.233,0.496-0.458,0.758-0.67c0.061-0.057,0.122-0.113,0.183-0.17c0.372-0.204,0.605-0.575,0.96-0.799
			c0.11-0.104,0.219-0.209,0.329-0.313c0.421-0.273,0.708-0.699,1.122-0.978c0.218-0.21,0.435-0.421,0.653-0.631
			c0.875-0.684,1.543-1.587,2.414-2.276c0.058-0.055,0.115-0.111,0.173-0.166c0.299-0.171,0.511-0.448,0.792-0.641
			c0.059-0.056,0.118-0.111,0.177-0.167c0.252-0.125,0.413-0.389,0.701-0.459c0.305-0.227,0.61-0.455,0.915-0.682
			c0.271-0.16,0.554-0.299,0.828-0.452l-0.013,0.01c0.345-0.289,0.761-0.447,1.162-0.633l-0.017,0.016
			c0.468-0.282,0.953-0.527,1.479-0.682c0.415-0.174,0.829-0.347,1.244-0.521c0.215-0.046,0.405-0.195,0.641-0.155
			c0.056-0.008,0.112-0.016,0.169-0.023c0.266-0.181,0.58-0.202,0.881-0.267c0.137-0.019,0.274-0.038,0.411-0.058
			c0.211-0.053,0.379-0.298,0.637-0.144c0.057-0.004,0.113-0.007,0.17-0.011c0.274-0.005,0.497-0.303,0.8-0.143
			c0.108-0.005,0.217-0.009,0.325-0.014c13.707-0.21,27.413-0.01,41.14,0.068C380.148,247.956,379.932,248.098,379.717,248.24z"/>
		<polygon style="fill:#ED333E;" points="217.946,211.75 217.949,211.752 217.953,211.753 		"/>
		<path style="fill:#ED333E;" d="M187.093,196.254c0.04,0.034,0.047,0.073,0.021,0.119c0.158,0.265-0.026,0.587,0.141,0.85
			c-0.028,0.561,0.207,1.057,0.374,1.572c0.754,2.327,2.092,4.228,3.981,5.794c1.57,1.301,3.332,2.234,5.204,2.953
			c2.084,0.8,4.223,1.454,6.438,1.815c0.251,0.149,0.562-0.047,0.806,0.14l-0.002-0.001c0.251,0.189,0.577-0.024,0.83,0.156
			c0.273,0.289,0.643,0.063,0.948,0.177c0.265,0.163,0.586-0.016,0.852,0.138l0.063-0.013l0.053,0.036
			c0.266,0.162,0.586-0.016,0.853,0.138l0.062-0.015l0.053,0.035c0.311,0.185,0.682-0.039,0.992,0.148l0.074-0.012l0.066,0.035
			c0.275,0.143,0.593-0.011,0.868,0.128c0.088,0.014,0.176,0.028,0.264,0.041c0.267,0.133,0.578-0.028,0.842,0.125l0.067-0.014
			l0.057,0.036c0.309,0.178,0.677-0.045,0.984,0.146l0.078-0.011l0.07,0.035c0.272,0.138,0.587-0.017,0.858,0.127l0.057-0.018
			l0.049,0.035c0.313,0.193,0.688-0.032,1.003,0.15l0.069-0.013l0.061,0.036c0.307,0.176,0.674-0.048,0.979,0.146
			c0.051,0.009,0.103,0.018,0.154,0.027c0.254,0.144,0.564-0.046,0.811,0.136c0.283,0.269,0.649,0.066,0.961,0.169
			c0.247,0.178,0.565-0.029,0.811,0.15c-0.001-0.001-0.002,0-0.003-0.001l0.007,0.003c-0.001-0.001-0.003-0.001-0.004-0.002
			c0.216,0.199,0.531-0.033,0.746,0.169c1.229,0.415,2.513,0.627,3.735,1.08c1.465,0.543,2.836,1.208,3.998,2.281
			c0.959,0.886,1.355,2.043,1.697,3.239c0.134,0.559,0.109,1.119,0.008,1.68c-0.583,2.093-2.082,3.318-3.969,4.167
			c-1.111,0.5-2.268,0.865-3.459,1.122c-0.248,0.187-0.575-0.033-0.821,0.16l0.003-0.001c-0.3,0.201-0.669-0.035-0.972,0.153
			c-0.034,0.04-0.074,0.047-0.119,0.02c-0.376,0.171-0.793-0.03-1.17,0.129c-0.095,0.01-0.19,0.021-0.285,0.031
			c-2.186,0.117-4.372,0.113-6.558,0.003c-0.198-0.012-0.396-0.024-0.594-0.036c-0.593-0.169-1.215,0.061-1.807-0.13
			c-0.097-0.009-0.194-0.018-0.292-0.027c-0.426-0.173-0.893,0.055-1.317-0.136c-0.05,0.026-0.095,0.02-0.135-0.018
			c-0.365-0.185-0.783,0.051-1.147-0.146c-0.054,0.023-0.103,0.015-0.147-0.024c-0.268-0.141-0.583,0.021-0.85-0.128
			c-0.044,0.028-0.083,0.021-0.116-0.019c-0.254-0.177-0.577,0.027-0.832-0.149c-1.626-0.121-3.168-0.619-4.713-1.083
			c-3.656-1.1-7.077-2.729-10.358-4.665c-0.341-0.201-0.675-0.459-0.671,0.281c0.016,3.577,0.013,7.154-0.001,10.73
			c-0.001,0.354,0.106,0.528,0.441,0.624c1.863,0.536,3.727,1.065,5.642,1.391c0.256,0.147,0.568-0.041,0.819,0.136
			c0.278,0.279,0.647,0.064,0.956,0.175c0.256,0.168,0.575-0.03,0.83,0.145l0.074-0.011l0.067,0.035
			c0.272,0.143,0.589-0.015,0.86,0.129l0.057-0.018l0.048,0.035c0.319,0.19,0.696-0.024,1.018,0.146
			c0.093,0.013,0.186,0.026,0.279,0.039c0.28,0.123,0.595-0.013,0.874,0.12c0.085,0.01,0.169,0.02,0.254,0.029
			c0.383,0.169,0.807-0.032,1.19,0.133c0.088,0.011,0.176,0.022,0.265,0.033c0.435,0.168,0.907-0.044,1.341,0.13
			c0.091,0.01,0.182,0.02,0.273,0.03c0.545,0.177,1.121-0.051,1.666,0.131c0.145,0.011,0.29,0.023,0.434,0.034
			c0.704,0.173,1.432-0.061,2.135,0.131c0.149,0.008,0.298,0.016,0.448,0.025c0.284,0.125,0.584,0.051,0.876,0.064
			c0.964,0.043,1.932-0.078,2.894,0.07c1.414,0,2.829,0,4.243,0c1.089-0.19,2.195,0.05,3.284-0.127
			c0.149-0.011,0.299-0.021,0.448-0.032c0.539-0.195,1.116,0.056,1.654-0.142l0.062-0.033l0.068,0.016
			c0.371-0.18,0.785,0.028,1.159-0.131c0.089-0.012,0.178-0.025,0.267-0.037c0.327-0.161,0.704,0.039,1.028-0.141l0.051-0.035
			l0.06,0.016c0.268-0.151,0.588,0.021,0.856-0.135c0.739-0.027,1.485-0.219,2.154-0.419c2.11-0.632,4.263-1.169,6.243-2.205
			c3.242-1.697,5.818-4.026,7.359-7.407c0.451-0.99,0.668-2.053,1.051-3.063c0.164-0.26-0.023-0.58,0.141-0.841
			c-0.024-0.049-0.017-0.092,0.024-0.129c0.182-0.425-0.052-0.894,0.14-1.318c0.008-0.099,0.016-0.198,0.024-0.297
			c0.103-0.805,0.105-1.611-0.001-2.416c-0.009-0.095-0.018-0.19-0.026-0.285c-0.189-0.429,0.052-0.904-0.144-1.332
			c-0.04-0.034-0.046-0.073-0.019-0.117c-0.18-0.253,0.081-0.608-0.193-0.84c-0.037-0.066-0.095-0.128-0.108-0.199
			c-0.621-3.231-2.309-5.848-4.837-7.861c-2.821-2.247-6.141-3.517-9.617-4.387c-1.534-0.384-3.072-0.754-4.609-1.13
			c-0.253-0.187-0.579,0.024-0.834-0.154c-0.053,0.021-0.1,0.012-0.14-0.029c-0.253-0.149-0.563,0.042-0.81-0.138l0.005,0.002
			c-0.268-0.186-0.6-0.001-0.874-0.15l-0.051,0.019l-0.042-0.035c-0.301-0.203-0.675,0.041-0.977-0.158
			c0.002,0.001,0.004,0.001,0.006,0.002l-0.006-0.002l0,0c-0.305-0.203-0.681,0.032-0.988-0.157
			c-0.05,0.026-0.096,0.019-0.136-0.019c-0.313-0.174-0.681,0.04-0.993-0.143c-0.052,0.023-0.098,0.015-0.139-0.024
			c-0.274-0.143-0.592,0.011-0.867-0.128c-0.039,0.03-0.071,0.024-0.098-0.017c-0.313-0.197-0.69,0.03-1.005-0.151
			c-0.048,0.024-0.091,0.017-0.128-0.023c-0.273-0.151-0.594,0.009-0.869-0.132c-0.039,0.029-0.072,0.023-0.097-0.019
			c-0.262-0.178-0.588,0.013-0.854-0.146c-0.363-0.051-0.76,0.103-1.085-0.18c-0.255-0.177-0.578,0.026-0.833-0.149
			c-2.308-0.259-4.524-0.859-6.628-1.846c-1.053-0.494-1.993-1.156-2.607-2.169c-0.544-0.897-0.907-1.857-0.587-2.939
			c0.185-0.243-0.04-0.566,0.159-0.806c0.188-1.298,1.079-2.079,2.08-2.749c1.808-1.211,3.832-1.836,5.978-2.102
			c0.363-0.197,0.779,0.035,1.144-0.143c0.091-0.01,0.181-0.019,0.272-0.029c2.086-0.111,4.172-0.11,6.257-0.001
			c0.14,0.011,0.281,0.022,0.421,0.033c0.491,0.17,1.015-0.047,1.505,0.129c0.091,0.012,0.181,0.023,0.272,0.035
			c0.328,0.147,0.696-0.027,1.024,0.126c0.089,0.012,0.179,0.025,0.268,0.037c0.274,0.135,0.589-0.015,0.862,0.124l0.057-0.016
			l0.047,0.036c0.273,0.169,0.6-0.002,0.877,0.141l0.049-0.02l0.041,0.035c0.25,0.194,0.579-0.024,0.831,0.158
			c1.501,0.381,3.02,0.707,4.501,1.155c4.113,1.244,7.998,2.953,11.301,5.788c0.482,0.183,0.399-0.186,0.399-0.43
			c0.005-3.817,0.004-7.634,0.005-11.452c0-0.225-0.018-0.433-0.258-0.539c-1.255-0.324-2.505-0.666-3.765-0.969
			c-1.642-0.395-3.292-0.759-4.938-1.136c-0.258-0.183-0.583,0.018-0.844-0.149c-0.049,0.023-0.092,0.014-0.128-0.026
			c-0.256-0.159-0.572,0.035-0.824-0.141c-0.054,0.022-0.103,0.013-0.146-0.026c-0.267-0.141-0.581,0.024-0.846-0.128
			c-0.046,0.026-0.086,0.018-0.12-0.022c-0.311-0.179-0.681,0.04-0.992-0.145c-0.052,0.024-0.099,0.016-0.14-0.023
			c-0.315-0.164-0.682,0.041-0.995-0.137c-0.05,0.025-0.095,0.018-0.135-0.021c-0.371-0.178-0.79,0.045-1.16-0.14
			c-0.048,0.027-0.092,0.02-0.131-0.018c-0.425-0.19-0.897,0.049-1.322-0.143c-0.099-0.011-0.197-0.022-0.296-0.033
			c-0.44-0.151-0.911,0.043-1.349-0.123c-0.142-0.013-0.285-0.026-0.427-0.039c-0.603-0.161-1.231,0.055-1.833-0.123
			c-0.196-0.011-0.392-0.022-0.588-0.032c-2.474-0.103-4.948-0.104-7.422,0.001c-0.145,0.01-0.289,0.02-0.434,0.031
			c-0.544,0.181-1.12-0.043-1.665,0.129c-0.096,0.01-0.192,0.02-0.287,0.03c-0.374,0.176-0.791-0.031-1.166,0.132
			c-0.087,0.012-0.174,0.023-0.26,0.035c-0.277,0.134-0.591-0.004-0.869,0.119c-0.092,0.013-0.184,0.027-0.275,0.04
			c-0.269,0.154-0.594-0.031-0.86,0.143c-0.899,0.227-1.864,0.263-2.718,0.538c-2.109,0.678-4.28,1.214-6.239,2.329
			c-1.358,0.773-2.713,1.53-3.844,2.625c-0.331,0.285-0.638,0.595-0.926,0.923c-1.924,2.019-3.179,4.372-3.57,7.156
			c-0.148,0.26,0.033,0.574-0.134,0.831c0.023,0.051,0.016,0.096-0.023,0.137c-0.178,0.599,0.048,1.228-0.134,1.826
			c0,0.448,0,0.896,0.001,1.344C187.14,195.129,186.901,195.71,187.093,196.254z"/>
		<polygon style="fill:#ED333E;" points="218.588,198.524 218.582,198.521 218.582,198.521 		"/>
		<path style="fill:#ED333E;" d="M133.491,183.156c0.202,0.475-0.041,0.993,0.144,1.47c0.008,0.147,0.017,0.293,0.026,0.44
			c0.125,0.256,0.066,0.53,0.066,0.794c0.003,12.852,0.003,25.704,0,38.556c0,0.265,0.059,0.538-0.066,0.794
			c-0.011,0.201-0.021,0.401-0.032,0.602c-0.169,0.426,0.056,0.892-0.134,1.316c-0.252,1.051-0.472,2.114-1.044,3.056
			c-0.367,0.605-0.738,1.207-1.154,1.888c0.387,0,0.674,0,0.961,0c7.211,0,14.423,0,21.634,0c9.041,0,18.083-0.002,27.124,0.005
			c0.492,0,0.874,0.031,0.869-0.682c-0.028-3.875-0.02-7.75-0.007-11.624c0.002-0.612-0.195-0.738-0.692-0.393
			c-0.967,0.672-2.022,1.185-3.119,1.589c-2.044,0.753-4.082,1.542-6.273,1.786c-0.259,0.17-0.586-0.036-0.842,0.154l0.004-0.001
			c-0.246,0.183-0.556-0.01-0.808,0.138c-0.086,0.013-0.171,0.026-0.257,0.039c-0.278,0.133-0.594-0.007-0.873,0.122
			c-0.087,0.013-0.174,0.026-0.26,0.039c-0.385,0.164-0.812-0.04-1.196,0.136c-0.04,0.038-0.085,0.044-0.134,0.018
			c-0.479,0.197-1.001-0.048-1.481,0.142c-0.091,0.008-0.182,0.017-0.273,0.025c-0.653,0.184-1.335-0.05-1.988,0.135
			c-0.144,0.009-0.288,0.018-0.432,0.027c-0.075,0.027-0.146,0.064-0.231,0.064c-4.465,0.01-8.93-0.006-13.396,0.014
			c-0.492,0.002-0.569-0.199-0.568-0.623c0.011-4.6,0.015-9.2-0.004-13.799c-0.002-0.517,0.182-0.625,0.656-0.621
			c2.286,0.021,4.573,0.005,6.859,0.013c0.4,0.002,0.806-0.073,1.2,0.063c0.142,0.009,0.283,0.018,0.425,0.027
			c0.652,0.186,1.332-0.051,1.984,0.136c0.093,0.009,0.185,0.018,0.278,0.028c0.481,0.183,1.001-0.057,1.48,0.139l0.07-0.016
			l0.064,0.033c0.422,0.192,0.892-0.054,1.313,0.146l0.075-0.013l0.067,0.035c0.313,0.166,0.679-0.043,0.99,0.139l0.074-0.012
			l0.066,0.035c0.267,0.149,0.584-0.019,0.851,0.132c0.746,0.17,1.517,0.271,2.231,0.529c0.624,0.226,0.774,0.046,0.773-0.533
			c-0.006-3.311-0.011-6.621,0.005-9.932c0.003-0.569-0.197-0.606-0.679-0.451c-0.601,0.194-1.215,0.379-1.858,0.401
			c-0.259,0.168-0.582-0.029-0.84,0.146c-0.032,0.04-0.071,0.047-0.114,0.02c-0.322,0.168-0.696-0.039-1.016,0.142
			c-0.033,0.041-0.071,0.047-0.115,0.019c-0.322,0.162-0.69-0.026-1.012,0.131c-0.09,0.011-0.179,0.021-0.269,0.032
			c-0.382,0.161-0.8-0.025-1.183,0.124c-0.144,0.012-0.289,0.025-0.433,0.037c-0.545,0.178-1.121-0.039-1.667,0.126
			c-0.198,0.012-0.397,0.024-0.595,0.036c-1.196,0.19-2.408-0.05-3.604,0.128c-1.944,0.012-3.888,0.024-5.832,0.035
			c-0.132,0.001-0.27-0.001-0.296-0.181c0.125-0.284,0.063-0.584,0.063-0.875c0.005-4.165,0.015-8.331-0.01-12.496
			c-0.004-0.59,0.133-0.78,0.752-0.774c3.144,0.032,6.288,0.014,9.432,0.016c0.213,0,0.431-0.037,0.634,0.065
			c0.195,0.011,0.39,0.023,0.585,0.034c0.541,0.173,1.114-0.056,1.654,0.131c0.095,0.011,0.19,0.021,0.285,0.032
			c0.428,0.166,0.894-0.054,1.32,0.132l0.069-0.015l0.062,0.034c0.375,0.181,0.797-0.038,1.172,0.139l0.063-0.016l0.056,0.034
			c0.316,0.185,0.69-0.03,1.008,0.145l0.066-0.014l0.057,0.035c0.272,0.157,0.595-0.008,0.87,0.135l0.054-0.018l0.044,0.036
			c0.265,0.178,0.592-0.009,0.861,0.145c0.719,0.168,1.437,0.339,2.156,0.504c2.759,0.634,5.466,1.404,7.845,3.02
			c0.458,0.311,0.543,0.102,0.541-0.332c-0.008-1.315-0.008-2.631-0.002-3.946c0.013-2.79,0.032-5.58,0.048-8.37
			c-0.168-0.49-0.587-0.295-0.898-0.295c-15.253-0.01-30.506-0.008-45.76-0.008c-0.215,0-0.431-0.013-0.645,0.011
			c-0.12,0.013-0.18,0.101-0.184,0.223c0.283,0.416,0.566,0.832,0.848,1.248C132.817,180.549,133.181,181.842,133.491,183.156z"/>
		<path style="fill:#ED333E;" d="M245.895,208.648c0.191,0.429-0.058,0.907,0.149,1.334c0.041,0.027,0.047,0.061,0.017,0.1
			c0.141,0.274-0.015,0.591,0.129,0.865c0.116,0.634,0.187,1.281,0.357,1.9c0.503,1.837,1.224,3.58,2.142,5.26
			c1.004,1.837,2.183,3.52,3.652,5.005c0.504,0.542,1.022,1.07,1.572,1.566c0.232,0.221,0.457,0.451,0.698,0.663
			c2.233,1.964,4.804,3.391,7.466,4.67c1.856,0.892,3.794,1.581,5.769,2.14c1.643,0.465,3.295,0.934,5.008,1.098
			c0.259,0.159,0.576-0.029,0.834,0.139l0.072-0.012l0.063,0.036c0.277,0.144,0.598-0.007,0.876,0.13
			c0.085,0.013,0.171,0.026,0.256,0.039c0.326,0.143,0.69-0.033,1.014,0.125c0.092,0.012,0.185,0.023,0.277,0.034
			c0.384,0.152,0.804-0.035,1.187,0.125c0.088,0.008,0.176,0.016,0.263,0.023c0.602,0.191,1.236-0.043,1.839,0.138
			c0.195,0.01,0.39,0.02,0.585,0.029c2.205,0.113,4.409,0.1,6.614,0.007c0.202-0.011,0.405-0.021,0.607-0.032
			c0.704-0.189,1.433,0.042,2.138-0.129c0.141-0.012,0.282-0.024,0.423-0.036c0.494-0.173,1.021,0.041,1.515-0.129
			c0.087-0.011,0.173-0.022,0.26-0.033c0.385-0.166,0.813,0.042,1.196-0.138l0.061-0.033l0.068,0.016
			c0.371-0.184,0.79,0.039,1.162-0.14l0.061-0.035l0.069,0.013c0.315-0.181,0.69,0.043,1.003-0.149l0.048-0.035l0.057,0.017
			c0.272-0.143,0.587,0.011,0.859-0.126l0.07-0.035l0.078,0.011c0.251-0.177,0.565,0.015,0.821-0.139l0.062-0.037l0.072,0.01
			c0.258-0.17,0.581,0.03,0.838-0.147c0.998-0.029,1.917-0.442,2.898-0.585c1.12-0.163,2.219-0.479,3.327-0.728
			c0.422-0.105,0.31-0.452,0.31-0.727c0.005-4.194,0.006-8.388-0.003-12.583c0-0.208,0.14-0.51-0.228-0.592
			c-0.338,0.333-0.677,0.667-1.015,1c-0.257,0.216-0.483,0.468-0.767,0.652c-1.669,1.476-3.503,2.7-5.512,3.669
			c-1.989,0.96-4.046,1.699-6.247,1.987c-0.259,0.163-0.568-0.008-0.831,0.128c-0.091,0.013-0.181,0.026-0.272,0.04
			c-0.381,0.164-0.8-0.028-1.182,0.127c-0.146,0.011-0.291,0.023-0.437,0.034c-1.385,0.111-2.77,0.109-4.156,0.002
			c-0.14-0.01-0.281-0.02-0.421-0.03c-0.428-0.178-0.898,0.05-1.325-0.137c-0.048,0.026-0.09,0.019-0.128-0.021
			c-0.313-0.177-0.682,0.039-0.994-0.144c-4.222-0.591-7.96-2.236-11.134-5.11c-0.449-0.449-0.886-0.911-1.355-1.339
			c-0.922-0.834-1.616-1.852-2.243-2.908c-1.047-1.762-1.906-3.606-2.198-5.666c-0.197-0.241,0.034-0.57-0.166-0.81l0.002,0.005
			c-0.18-0.247,0.009-0.557-0.136-0.81c-0.012-0.092-0.024-0.185-0.037-0.277c-0.173-0.434,0.036-0.904-0.129-1.339
			c-0.011-0.145-0.021-0.291-0.032-0.436c-0.114-0.686-0.106-1.372-0.001-2.057c0.012-0.194,0.024-0.389,0.036-0.583
			c0.165-0.426-0.057-0.891,0.133-1.314c-0.025-0.05-0.018-0.096,0.02-0.137c0.158-0.263-0.023-0.581,0.137-0.843
			c0.502-3.45,1.99-6.431,4.291-9.024c0.257-0.15,0.391-0.409,0.564-0.634c0.207-0.329,0.472-0.6,0.806-0.802
			c0.221-0.177,0.484-0.307,0.631-0.566c0.153-0.148,0.295-0.311,0.462-0.441c3.16-2.457,6.717-4.006,10.666-4.655
			c0.315-0.18,0.689,0.041,1.002-0.147l0.051-0.035l0.06,0.016c0.379-0.165,0.797,0.027,1.178-0.125
			c0.147-0.012,0.293-0.023,0.44-0.035c1.38-0.112,2.76-0.11,4.141-0.001c0.145,0.011,0.289,0.022,0.434,0.033
			c0.378,0.16,0.796-0.041,1.172,0.13c0.094,0.013,0.188,0.025,0.282,0.038c0.257,0.141,0.567-0.043,0.818,0.133
			c0.479,0.218,1.015,0.179,1.504,0.32c3.74,1.075,7.174,2.741,10.109,5.345c0.295,0.165,0.506,0.43,0.763,0.64
			c0.07,0.066,0.14,0.133,0.21,0.199c0.321-0.062,0.23-0.321,0.231-0.516c0.005-4.247,0.004-8.493,0.002-12.74
			c0-0.258,0.069-0.562-0.303-0.653c-0.039,0.029-0.071,0.022-0.096-0.019c-0.248-0.182-0.57,0.03-0.818-0.153l0.008,0.003
			c-0.262-0.196-0.595,0-0.865-0.154c-0.04,0.029-0.074,0.023-0.102-0.018c-0.307-0.196-0.681,0.039-0.989-0.154
			c-0.054,0.023-0.102,0.015-0.145-0.025c-0.312-0.159-0.676,0.047-0.984-0.137c-0.053,0.025-0.101,0.018-0.145-0.02
			c-0.366-0.176-0.782,0.054-1.145-0.142c-0.053,0.024-0.103,0.017-0.147-0.021c-0.433-0.17-0.905,0.045-1.337-0.132
			c-0.093-0.01-0.185-0.02-0.278-0.03c-0.495-0.17-1.022,0.044-1.517-0.129c-0.14-0.011-0.281-0.022-0.421-0.033
			c-0.705-0.18-1.436,0.061-2.141-0.132c-0.202-0.011-0.403-0.022-0.605-0.033c-1.652-0.13-3.306-0.049-4.959-0.051
			c-1.359-0.001-2.72-0.086-4.077,0.054c-0.196,0.011-0.392,0.022-0.588,0.033c-0.547,0.179-1.126-0.044-1.673,0.13
			c-0.098,0.009-0.196,0.017-0.294,0.026c-0.425,0.192-0.896-0.044-1.322,0.141c-0.043,0.038-0.09,0.044-0.141,0.018
			c-0.366,0.191-0.782-0.033-1.15,0.139c-0.042,0.039-0.089,0.046-0.141,0.023c-0.31,0.185-0.679-0.033-0.991,0.144
			c-0.036,0.04-0.078,0.047-0.126,0.022c-0.263,0.159-0.578-0.016-0.842,0.134c-0.037,0.041-0.08,0.05-0.13,0.027
			c-0.26,0.169-0.586-0.033-0.843,0.15c-0.125,0.047-0.246,0.113-0.375,0.137c-3.834,0.725-7.573,1.765-11.112,3.435
			c-3.92,1.85-7.498,4.194-10.459,7.405c-0.163,0.205-0.317,0.417-0.502,0.604c-2.231,2.484-3.908,5.298-4.961,8.468
			c-0.435,1.31-0.928,2.612-1.016,4.012c-0.193,0.308,0.039,0.682-0.152,0.99c0.024,0.052,0.017,0.1-0.021,0.143
			c-0.165,0.382,0.034,0.804-0.131,1.186c-0.012,0.143-0.023,0.287-0.035,0.43c-0.098,1.397-0.103,2.794,0.004,4.191
			C245.877,208.459,245.886,208.553,245.895,208.648z"/>
		<path style="fill:#ED333E;" d="M60.151,191.037c0.099,0.154,0.215,0.118,0.331,0.016c2.923-1.998,6.25-2.89,9.669-3.529
			c0.257-0.171,0.58,0.029,0.837-0.148l0.049-0.036l0.059,0.016c0.27-0.153,0.596,0.031,0.862-0.143l0.048-0.035l0.057,0.017
			c0.326-0.165,0.704,0.044,1.026-0.145l0.048-0.035l0.057,0.018c0.326-0.155,0.694,0.023,1.021-0.128
			c0.091-0.011,0.182-0.022,0.273-0.033c0.38-0.164,0.799,0.028,1.18-0.126c0.14-0.012,0.279-0.024,0.419-0.036
			c0.495-0.173,1.024,0.042,1.52-0.13c0.142-0.01,0.284-0.02,0.426-0.031c0.711-0.186,1.446,0.05,2.157-0.13
			c0.196-0.011,0.392-0.021,0.588-0.032c1.122-0.151,2.25-0.04,3.374-0.063c0.968-0.019,0.969-0.004,0.969,0.93
			c0,12.224,0.001,24.447-0.003,36.67c0,0.264,0.062,0.538-0.068,0.793c-0.009,0.149-0.018,0.298-0.027,0.447
			c-0.181,0.531,0.063,1.099-0.141,1.628c-0.134,0.539-0.24,1.087-0.406,1.616c-0.413,1.318-1.144,2.468-2.085,3.613
			c7.004,0,13.875,0,20.834,0c-0.145-0.171-0.234-0.265-0.311-0.369c-0.872-1.177-1.76-2.347-1.896-3.884
			c-0.175-0.254,0.019-0.571-0.141-0.827c-0.039-0.041-0.046-0.087-0.021-0.138c-0.203-0.643,0.048-1.318-0.141-1.961
			c-0.067-0.302-0.112-0.605-0.027-0.912c-0.119-0.257-0.065-0.53-0.065-0.795c-0.003-12.088-0.003-24.176-0.003-36.265
			c0-0.134,0.009-0.269-0.001-0.403c-0.026-0.343,0.121-0.488,0.468-0.471c0.962,0.047,1.928-0.081,2.888,0.073
			c0.149,0.008,0.297,0.017,0.446,0.025c0.657,0.184,1.342-0.052,1.999,0.132c0.087,0.008,0.173,0.016,0.26,0.023
			c0.536,0.2,1.112-0.055,1.648,0.144l0.067-0.017l0.061,0.033c0.429,0.194,0.905-0.043,1.335,0.143l0.063-0.017l0.055,0.034
			c0.37,0.193,0.794-0.041,1.165,0.146l0.068-0.015l0.06,0.035c0.311,0.18,0.681-0.04,0.991,0.145l0.074-0.011l0.067,0.035
			c0.269,0.145,0.586-0.017,0.855,0.13l0.062-0.012l0.051,0.037c0.251,0.172,0.571-0.035,0.82,0.148
			c0.703,0.163,1.406,0.328,2.11,0.489c3.115,0.713,6.161,1.607,8.859,3.404c0.636,0.046,0.386-0.449,0.387-0.709
			c0.017-3.872,0.012-7.744,0.011-11.616c0-0.845-0.002-0.847-0.894-0.847c-21.215,0-42.43-0.001-63.644,0.004
			c-0.254,0-0.53-0.09-0.765,0.096c-0.142,0.151-0.093,0.342-0.093,0.517c-0.003,3.98-0.003,7.96,0,11.94
			C60.093,190.67,60.041,190.866,60.151,191.037z"/>
		<path style="fill:#ED333E;" d="M60.174,178.036c0.004-0.003,0.008-0.003,0.011-0.006c0.005-0.005,0.006-0.011,0.012-0.017
			L60.174,178.036z"/>
		<polygon style="fill:#1A5CA2;" points="124.947,260.704 124.943,260.706 124.935,260.713 		"/>
		<polygon style="fill:#1A5CA2;" points="126.257,259.755 126.254,259.757 126.243,259.767 		"/>
		<path style="fill:#1A5CA2;" d="M172.848,258.232c0.001,0,0.002-0.001,0.003-0.001c0.003-0.004,0.008-0.007,0.011-0.011
			L172.848,258.232z"/>
		<path style="fill:#1A5CA2;" d="M180.282,251.942c0.001,0,0.001-0.001,0.002-0.001c0.004-0.004,0.008-0.007,0.012-0.012
			L180.282,251.942z"/>
		<polygon style="fill:#1A5CA2;" points="174.79,256.624 174.796,256.619 174.805,256.612 		"/>
		<polygon style="fill:#1A5CA2;" points="179.646,252.436 179.648,252.434 179.659,252.426 		"/>
		<path style="fill:#1A5CA2;" d="M185.716,247.539c-12.225-0.01-24.45-0.002-36.674-0.017c-1.209-0.001-2.404,0.094-3.602,0.222
			c-0.246,0.015-0.491,0.03-0.737,0.045c-0.673,0.132-1.377,0.122-2.01,0.438c-0.091,0.015-0.181,0.03-0.272,0.046
			c-0.674,0.181-1.365,0.307-1.977,0.67l0.017-0.014c-0.287,0.089-0.582,0.157-0.844,0.314c-0.511,0.271-1.022,0.542-1.532,0.812
			c-0.315,0.121-0.626,0.25-0.869,0.498l0.015-0.012c-0.271,0.159-0.593,0.235-0.802,0.493c0.001,0,0.001,0,0.002-0.001
			l-0.015,0.013c0.004-0.005,0.009-0.008,0.013-0.013c-0.282,0.058-0.424,0.334-0.68,0.433c-0.141,0.121-0.282,0.242-0.423,0.363
			c-0.375,0.09-0.546,0.464-0.871,0.623c-0.057,0.054-0.113,0.108-0.17,0.163c-0.707,0.532-1.228,1.263-1.933,1.796
			c-0.272,0.263-0.543,0.525-0.815,0.788c-0.534,0.372-0.896,0.936-1.443,1.293c-0.055,0.053-0.11,0.107-0.165,0.16
			c-0.422,0.268-0.695,0.71-1.127,0.967c-0.057,0.054-0.114,0.109-0.171,0.163c-0.285,0.195-0.507,0.466-0.799,0.653
			c-0.055,0.052-0.11,0.103-0.165,0.155c-0.276,0.203-0.528,0.433-0.771,0.672h0.001l-0.014,0.012
			c0.004-0.004,0.009-0.007,0.013-0.011c-0.261,0.104-0.461,0.285-0.642,0.494c0.001,0,0.002-0.001,0.003-0.002l-0.014,0.013
			c0.003-0.004,0.007-0.007,0.011-0.011c-0.272,0.084-0.459,0.284-0.65,0.479c0.001,0,0.002-0.001,0.002-0.001l-0.014,0.013
			c0.004-0.004,0.008-0.007,0.012-0.011c-0.27,0.087-0.447,0.304-0.661,0.471c0.001-0.001,0.002-0.001,0.003-0.002l-0.011,0.009
			c0.003-0.002,0.005-0.005,0.008-0.007c-0.442,0.258-0.905,0.484-1.282,0.842l0.013-0.014c-0.297,0.128-0.6,0.245-0.835,0.479
			l0.015-0.011c-0.126,0.057-0.273,0.101-0.185,0.293c12.517-0.001,25.033-0.002,37.55-0.002c0.348,0,0.697,0.017,1.045,0.026
			c0.664,0.22,1.282-0.154,1.93-0.147c0.11-0.005,0.22-0.011,0.331-0.016c0.303,0.159,0.525-0.141,0.799-0.14
			c0.11-0.009,0.22-0.017,0.33-0.026c0.235,0.053,0.422-0.115,0.64-0.141c0.809-0.225,1.618-0.45,2.427-0.675
			c0.459-0.095,0.871-0.313,1.295-0.499c0.299-0.164,0.597-0.328,0.896-0.492c0.315-0.11,0.597-0.285,0.878-0.461
			c0.466-0.33,0.933-0.66,1.399-0.99c0.274-0.097,0.479-0.286,0.663-0.502c-0.001,0-0.002,0.001-0.003,0.001l0.014-0.013
			c-0.003,0.004-0.008,0.007-0.011,0.011c0.358-0.122,0.57-0.424,0.827-0.67c0.05-0.037,0.099-0.074,0.149-0.112
			c0.391-0.197,0.652-0.547,0.97-0.829c-0.002,0.001-0.004,0.003-0.006,0.004l0.014-0.012c-0.003,0.003-0.005,0.005-0.008,0.008
			c0.534-0.28,0.884-0.764,1.302-1.173c0.159-0.14,0.317-0.28,0.476-0.42c0.39-0.215,0.678-0.547,0.978-0.865
			c0.047-0.036,0.093-0.073,0.14-0.109c0.345-0.153,0.581-0.433,0.828-0.702c0.045-0.036,0.089-0.072,0.134-0.108
			c0.417-0.165,0.649-0.556,0.994-0.81c-0.001,0-0.002,0.001-0.003,0.002l0.013-0.01c-0.004,0.003-0.007,0.006-0.01,0.009
			c0.248-0.118,0.451-0.294,0.636-0.494c-0.001,0-0.001,0.001-0.002,0.001l0.014-0.013c-0.004,0.004-0.008,0.007-0.012,0.012
			c0.273-0.114,0.495-0.29,0.658-0.539c0.047-0.031,0.095-0.062,0.142-0.093c0.271-0.088,0.433-0.34,0.684-0.457
			c0.79-0.549,1.58-1.098,2.369-1.647c0.301-0.127,0.585-0.287,0.862-0.461c0.461-0.461,1.224-0.462,1.601-1.05
			C186.353,247.382,186.009,247.539,185.716,247.539z"/>
		<polygon style="fill:#1A5CA2;" points="125.607,260.234 125.604,260.235 125.593,260.247 		"/>
		<path style="fill:#1A5CA2;" d="M136.43,251.033c-0.001,0-0.001,0-0.002,0.001c-0.004,0.005-0.009,0.008-0.013,0.013
			L136.43,251.033z"/>
		<path style="fill:#1A5CA2;" d="M126.897,259.263C126.896,259.263,126.896,259.263,126.897,259.263
			c-0.005,0.005-0.01,0.008-0.014,0.012L126.897,259.263z"/>
		<polygon style="fill:#1A5CA2;" points="367.286,257.753 367.292,257.749 367.3,257.741 		"/>
		<polygon style="fill:#1A5CA2;" points="373.102,252.751 373.107,252.748 373.117,252.739 		"/>
		<polygon style="fill:#1A5CA2;" points="320.52,259.421 320.516,259.423 320.506,259.432 		"/>
		<path style="fill:#1A5CA2;" d="M319.882,259.915c-0.001,0-0.001,0.001-0.002,0.001c-0.004,0.004-0.008,0.007-0.012,0.012
			L319.882,259.915z"/>
		<path style="fill:#1A5CA2;" d="M339.223,247.746c-0.108,0.005-0.217,0.009-0.325,0.014c-0.304-0.16-0.526,0.138-0.8,0.143
			c-0.057,0.004-0.113,0.007-0.17,0.011c-0.258-0.154-0.426,0.091-0.637,0.144c-0.137,0.019-0.274,0.038-0.411,0.058
			c-0.301,0.065-0.615,0.086-0.881,0.267c-0.056,0.008-0.113,0.016-0.169,0.023c-0.236-0.039-0.426,0.109-0.641,0.155
			c-0.415,0.174-0.829,0.347-1.244,0.521c-0.526,0.156-1.011,0.4-1.479,0.682l0.017-0.016c-0.401,0.186-0.817,0.344-1.162,0.633
			l0.013-0.01c-0.274,0.154-0.557,0.292-0.828,0.452c-0.305,0.227-0.61,0.455-0.915,0.682c-0.288,0.07-0.449,0.334-0.701,0.459
			c-0.059,0.055-0.118,0.111-0.177,0.167c-0.281,0.193-0.493,0.471-0.792,0.641c-0.058,0.055-0.115,0.111-0.173,0.166
			c-0.87,0.689-1.539,1.591-2.414,2.276c-0.218,0.21-0.435,0.421-0.653,0.631c-0.415,0.28-0.702,0.705-1.122,0.978
			c-0.11,0.104-0.219,0.209-0.329,0.313c-0.355,0.224-0.588,0.595-0.96,0.799c-0.061,0.057-0.122,0.113-0.183,0.17
			c-0.263,0.212-0.514,0.437-0.758,0.67l0.001-0.001l-0.014,0.012c0.004-0.004,0.008-0.007,0.012-0.011
			c-0.332,0.138-0.546,0.424-0.81,0.647c0.001-0.001,0.002-0.002,0.004-0.002l-0.014,0.012c0.004-0.003,0.007-0.006,0.01-0.009
			c-0.254,0.11-0.456,0.287-0.637,0.493c0.001,0,0.001-0.001,0.002-0.001l-0.014,0.012c0.004-0.004,0.008-0.007,0.012-0.012
			c-0.281,0.06-0.427,0.332-0.68,0.436c-0.465,0.335-0.931,0.67-1.396,1.005c-0.306,0.115-0.579,0.294-0.865,0.449
			c-0.183,0.121-0.366,0.242-0.737,0.487c0.499,0,0.783,0,1.066,0c12.299,0,24.598,0,36.898,0.001c0.295,0,0.591,0.017,0.886,0.026
			c0.663,0.222,1.282-0.156,1.929-0.144c0.11-0.005,0.221-0.011,0.331-0.016c0.348,0.122,0.632-0.161,0.962-0.153
			c0.325-0.056,0.651-0.113,0.976-0.169c0.314-0.098,0.683,0.006,0.949-0.264c0.149-0.031,0.299-0.063,0.448-0.094
			c0.337-0.12,0.743-0.054,1.004-0.376c0.369-0.143,0.738-0.286,1.108-0.429c0.238-0.079,0.485-0.138,0.686-0.303
			c0.193-0.117,0.386-0.234,0.58-0.351c0.492-0.202,0.926-0.497,1.339-0.826l-0.015,0.013c0.406-0.253,0.846-0.461,1.145-0.859
			c0.049-0.032,0.098-0.064,0.148-0.095c0.254-0.121,0.463-0.298,0.65-0.505c-0.002,0.001-0.004,0.003-0.006,0.004l0.015-0.012
			c-0.003,0.003-0.006,0.005-0.008,0.008c0.347-0.142,0.577-0.421,0.817-0.69c0.101-0.087,0.203-0.174,0.304-0.261
			c0.404-0.2,0.682-0.546,0.989-0.859c0.099-0.091,0.199-0.182,0.299-0.274c0.537-0.285,0.887-0.777,1.316-1.181
			c0.045-0.037,0.091-0.074,0.136-0.112c0.413-0.187,0.678-0.549,0.996-0.848c0.048-0.039,0.097-0.078,0.145-0.117
			c0.328-0.151,0.554-0.426,0.813-0.662c-0.002,0.001-0.003,0.002-0.005,0.002l0.014-0.012c-0.003,0.003-0.007,0.006-0.01,0.009
			c0.336-0.133,0.547-0.419,0.802-0.65c-0.001,0-0.002,0.001-0.003,0.002l0.014-0.012c-0.004,0.003-0.007,0.007-0.011,0.011
			c0.346-0.118,0.546-0.421,0.817-0.636c-0.001,0-0.002,0.001-0.003,0.002l0.013-0.011c-0.004,0.003-0.007,0.006-0.01,0.009
			c0.264-0.093,0.428-0.332,0.67-0.457c0.687-0.491,1.375-0.982,2.062-1.472c0.272-0.174,0.611-0.243,0.822-0.516l-0.014,0.014
			c0.398-0.189,0.797-0.374,1.167-0.614c0.094-0.059,0.189-0.118,0.283-0.177c0.215-0.142,0.431-0.284,0.646-0.426
			C366.636,247.736,352.929,247.535,339.223,247.746z"/>
		<polygon style="fill:#1A5CA2;" points="373.906,252.099 373.909,252.098 373.92,252.087 		"/>
		<polygon style="fill:#1A5CA2;" points="374.723,251.464 374.726,251.462 374.736,251.453 		"/>
		<path style="fill:#1A5CA2;" d="M321.328,258.775l-0.001,0.001c-0.004,0.004-0.008,0.007-0.012,0.011L321.328,258.775z"/>
		<path style="fill:#1A5CA2;" d="M246.164,250.965c0.001,0,0.001,0,0.002-0.001c0.004-0.004,0.008-0.008,0.012-0.012
			L246.164,250.965z"/>
		<path style="fill:#1A5CA2;" d="M245.521,251.453c0.001,0,0.002-0.001,0.002-0.001c0.004-0.004,0.008-0.007,0.012-0.011
			L245.521,251.453z"/>
		<path style="fill:#1A5CA2;" d="M244.883,251.947C244.883,251.946,244.883,251.946,244.883,251.947
			c0.005-0.004,0.009-0.008,0.014-0.012L244.883,251.947z"/>
		<path style="fill:#1A5CA2;" d="M250.393,247.536c-0.156-0.029-0.321-0.005-0.483-0.005c-12.118,0-24.236,0.005-36.354-0.008
			c-1.182-0.001-2.351,0.094-3.521,0.223c-0.11,0.005-0.22,0.009-0.33,0.014c-0.304-0.161-0.526,0.138-0.8,0.142
			c-0.057,0.004-0.113,0.008-0.17,0.012c-0.396-0.038-0.759,0.112-1.133,0.203c-0.29,0.204-0.641,0.201-0.966,0.289
			c-0.406,0.017-0.763,0.195-1.13,0.342c-0.199,0.235-0.57,0.077-0.759,0.334c-0.523,0.161-1.009,0.402-1.477,0.681l0.017-0.016
			c-0.398,0.191-0.816,0.347-1.161,0.634l0.012-0.01c-0.273,0.156-0.556,0.293-0.827,0.453c-0.305,0.228-0.611,0.455-0.916,0.683
			c-0.287,0.07-0.447,0.335-0.7,0.458c-0.06,0.056-0.12,0.112-0.18,0.168c-0.207,0.168-0.413,0.337-0.63,0.493
			c-0.112,0.105-0.223,0.21-0.335,0.315c-0.812,0.64-1.434,1.482-2.25,2.117c-0.218,0.21-0.436,0.419-0.654,0.629
			c-0.474,0.325-0.796,0.822-1.281,1.134c-0.053,0.053-0.107,0.105-0.16,0.158c-0.363,0.225-0.609,0.589-0.971,0.814
			c-0.114,0.105-0.229,0.211-0.343,0.316c-0.262,0.212-0.512,0.438-0.759,0.669c0.001,0,0.001-0.001,0.001-0.001l-0.013,0.011
			c0.004-0.004,0.008-0.007,0.012-0.011c-0.331,0.139-0.542,0.429-0.811,0.645c0.001-0.001,0.002-0.002,0.003-0.002l-0.013,0.011
			c0.003-0.003,0.006-0.006,0.01-0.009c-0.25,0.116-0.453,0.292-0.636,0.494c0.001,0,0.001-0.001,0.002-0.001l-0.014,0.012
			c0.004-0.004,0.008-0.007,0.012-0.012c-0.278,0.065-0.424,0.334-0.678,0.437c-0.467,0.335-0.934,0.67-1.401,1.005
			c-0.302,0.12-0.576,0.295-0.86,0.449c-0.184,0.121-0.368,0.242-0.744,0.488c0.5,0,0.783,0,1.065,0c12.302,0,24.605,0,36.907,0.001
			c0.295,0,0.589,0.017,0.884,0.026c0.663,0.222,1.282-0.155,1.929-0.145c0.11-0.005,0.221-0.011,0.331-0.016
			c0.348,0.122,0.632-0.159,0.962-0.153c0.056-0.004,0.112-0.008,0.168-0.011c0.234,0.048,0.42-0.12,0.639-0.142
			c0.81-0.225,1.619-0.45,2.429-0.675c0.456-0.102,0.87-0.316,1.294-0.5c1.12-0.698,2.338-1.239,3.357-2.098
			c0.252-0.12,0.455-0.305,0.652-0.497c-0.001,0.001-0.002,0.002-0.003,0.002l0.014-0.012c-0.003,0.003-0.007,0.006-0.01,0.009
			c0.328-0.143,0.546-0.421,0.805-0.65c-0.001,0.001-0.003,0.002-0.004,0.003l0.014-0.012c-0.004,0.003-0.007,0.007-0.01,0.01
			c0.469-0.235,0.773-0.656,1.139-1.008c0.045-0.037,0.091-0.074,0.136-0.112c0.539-0.281,0.885-0.778,1.318-1.177
			c0.047-0.038,0.094-0.076,0.14-0.113c0.473-0.234,0.769-0.671,1.154-1.005c0.048-0.041,0.096-0.082,0.145-0.123
			c0.258-0.137,0.494-0.299,0.659-0.548c0.044-0.034,0.089-0.069,0.133-0.103c0.346-0.134,0.567-0.419,0.817-0.67
			c-0.002,0-0.003,0.002-0.004,0.002l0.013-0.011c-0.003,0.003-0.006,0.006-0.009,0.009c0.357-0.099,0.545-0.418,0.817-0.628
			c0,0-0.001,0-0.001,0.001l0.014-0.012c-0.005,0.003-0.008,0.008-0.013,0.011c0.256-0.11,0.459-0.288,0.639-0.495
			c-0.001,0-0.002,0.001-0.002,0.001l0.014-0.013c-0.004,0.004-0.008,0.007-0.012,0.011c0.269-0.091,0.464-0.278,0.643-0.487
			c-0.001,0-0.001,0-0.002,0.001l0.013-0.013c-0.004,0.004-0.008,0.008-0.012,0.012c0.286-0.059,0.436-0.326,0.684-0.443
			c0.47-0.33,0.939-0.66,1.409-0.991c0.279-0.166,0.618-0.237,0.826-0.517l-0.014,0.014c0.301-0.112,0.572-0.278,0.846-0.441
			c0.201-0.116,0.402-0.231,0.603-0.347c0.268-0.137,0.781-0.108,0.713-0.495C251.163,247.339,250.687,247.591,250.393,247.536z"/>
		<polygon style="fill:#1A5CA2;" points="238.421,257.435 238.425,257.433 238.435,257.423 		"/>
		<polygon style="fill:#1A5CA2;" points="191.325,259.418 191.322,259.42 191.312,259.428 		"/>
		<path style="fill:#1A5CA2;" d="M190.688,259.912c-0.001,0-0.001,0.001-0.002,0.001c-0.004,0.004-0.008,0.007-0.012,0.012
			L190.688,259.912z"/>
		<polygon style="fill:#1A5CA2;" points="192.135,258.774 192.133,258.775 192.121,258.785 		"/>
		<polygon style="fill:#1A5CA2;" points="244.062,252.576 244.066,252.574 244.075,252.564 		"/>
		<polygon style="fill:#1A5CA2;" points="237.617,258.084 237.62,258.082 237.631,258.073 		"/>
		<polygon style="fill:#1A5CA2;" points="308.505,252.749 308.509,252.747 308.519,252.737 		"/>
		<path style="fill:#1A5CA2;" d="M256.09,259.265c-0.001,0-0.001,0.001-0.002,0.001c-0.003,0.004-0.008,0.007-0.012,0.011
			L256.09,259.265z"/>
		<path style="fill:#1A5CA2;" d="M302.851,257.592c0.001,0,0.002-0.001,0.003-0.002c0.004-0.003,0.007-0.007,0.011-0.011
			L302.851,257.592z"/>
		<path style="fill:#1A5CA2;" d="M314.945,247.539c-12.236-0.009-24.472-0.002-36.709-0.017c-1.21-0.001-2.406,0.094-3.605,0.222
			c-0.11,0.004-0.22,0.009-0.33,0.013c-0.303-0.158-0.525,0.141-0.799,0.141c-0.057,0.004-0.114,0.008-0.171,0.012
			c-0.395-0.04-0.755,0.122-1.13,0.197c-0.167,0.142-0.362,0.185-0.576,0.168c-0.581,0.137-1.174,0.241-1.682,0.588
			c-0.054,0.011-0.109,0.022-0.163,0.033c-0.686,0.182-1.3,0.52-1.912,0.866l0.017-0.016c-0.4,0.188-0.818,0.343-1.161,0.635
			l0.013-0.01c-0.276,0.153-0.56,0.29-0.83,0.454c-0.14,0.12-0.28,0.239-0.421,0.359c-0.297,0.052-0.448,0.338-0.71,0.447
			c-0.216,0.166-0.431,0.333-0.647,0.499c-0.363,0.222-0.603,0.591-0.97,0.809c-0.166,0.161-0.332,0.322-0.498,0.483
			c-0.757,0.587-1.327,1.373-2.089,1.954c-0.22,0.21-0.44,0.42-0.66,0.63c-0.344,0.241-0.598,0.588-0.953,0.816
			c-0.11,0.105-0.22,0.209-0.33,0.314c-0.285,0.193-0.506,0.467-0.799,0.65c-0.056,0.052-0.111,0.105-0.167,0.157
			c-0.289,0.187-0.502,0.47-0.801,0.644c-0.06,0.055-0.121,0.109-0.181,0.164c-0.194,0.177-0.424,0.311-0.594,0.514
			c0.001,0,0.001-0.001,0.002-0.001l-0.014,0.012c0.003-0.004,0.008-0.007,0.012-0.011c-0.264,0.1-0.464,0.282-0.637,0.498
			c0.001,0,0.002-0.001,0.003-0.002l-0.013,0.012c0.003-0.004,0.007-0.006,0.01-0.01c-0.28,0.072-0.465,0.274-0.649,0.477
			c0.001,0,0.001-0.001,0.002-0.001l-0.014,0.013c0.004-0.004,0.008-0.008,0.012-0.012c-0.284,0.053-0.425,0.333-0.682,0.431
			c-0.149,0.119-0.299,0.237-0.448,0.356c-0.27,0.177-0.619,0.233-0.816,0.524l0.013-0.014c-0.3,0.121-0.602,0.24-0.836,0.478
			l0.015-0.012c-0.128,0.054-0.273,0.097-0.186,0.289c12.516,0,25.032-0.001,37.549,0c0.348,0,0.697,0.017,1.045,0.026
			c0.664,0.22,1.282-0.154,1.93-0.146c0.11-0.005,0.22-0.011,0.331-0.017c0.349,0.126,0.633-0.157,0.963-0.153
			c0.056-0.004,0.111-0.009,0.167-0.013c0.235,0.053,0.421-0.116,0.64-0.141c0.809-0.225,1.618-0.449,2.428-0.674
			c0.457-0.098,0.869-0.316,1.294-0.497c0.3-0.165,0.6-0.33,0.9-0.495c0.312-0.113,0.592-0.287,0.873-0.459
			c0.468-0.33,0.936-0.661,1.403-0.991c0.271-0.1,0.474-0.289,0.661-0.499c-0.001,0-0.001,0.001-0.002,0.001l0.014-0.013
			c-0.004,0.004-0.008,0.007-0.012,0.012c0.346-0.119,0.549-0.417,0.81-0.644c-0.001,0-0.002,0.001-0.003,0.002l0.014-0.013
			c-0.004,0.003-0.008,0.007-0.011,0.011c0.48-0.218,0.765-0.661,1.147-0.992c0.047-0.04,0.094-0.081,0.141-0.121
			c0.467-0.244,0.777-0.665,1.149-1.017c0.103-0.091,0.206-0.182,0.309-0.273c0.396-0.209,0.679-0.547,0.982-0.862
			c0.045-0.037,0.091-0.074,0.136-0.111c0.349-0.148,0.584-0.432,0.832-0.701c0.047-0.035,0.094-0.07,0.141-0.106
			c0.335-0.143,0.559-0.423,0.817-0.661c-0.002,0.001-0.003,0.002-0.004,0.002l0.015-0.012c-0.003,0.003-0.007,0.007-0.01,0.01
			c0.339-0.129,0.547-0.418,0.804-0.649c-0.001,0-0.002,0.001-0.003,0.002l0.014-0.012c-0.004,0.003-0.007,0.007-0.011,0.011
			c0.347-0.116,0.544-0.426,0.82-0.633c-0.001,0-0.002,0.002-0.003,0.002l0.013-0.01c-0.003,0.002-0.006,0.006-0.009,0.008
			c0.259-0.097,0.421-0.336,0.666-0.453c0.3-0.227,0.6-0.453,0.9-0.68c0.372-0.189,0.743-0.379,1.019-0.706
			c0.052-0.029,0.105-0.058,0.157-0.087c0.269-0.171,0.568-0.289,0.831-0.471c0.082-0.063,0.163-0.127,0.245-0.19
			c0.403-0.153,0.788-0.35,1.152-0.572c0.269-0.164,0.827-0.161,0.709-0.604C315.719,247.353,315.244,247.539,314.945,247.539z"/>
		<polygon style="fill:#1A5CA2;" points="309.31,252.1 309.313,252.098 309.324,252.088 		"/>
		<polygon style="fill:#1A5CA2;" points="310.13,251.467 310.133,251.465 310.143,251.457 		"/>
		<path style="fill:#1A5CA2;" d="M302.042,258.235c0.001,0,0.001-0.001,0.002-0.001c0.004-0.004,0.008-0.007,0.012-0.012
			L302.042,258.235z"/>
		<polygon style="fill:#1A5CA2;" points="255.454,259.762 255.451,259.764 255.441,259.774 		"/>
		<path style="fill:#1A5CA2;" d="M254.803,260.24c-0.001,0-0.001,0.001-0.002,0.001c-0.004,0.004-0.008,0.008-0.012,0.012
			L254.803,260.24z"/>
		<polygon style="fill:#1A5CA2;" points="62.132,259.417 62.13,259.418 62.119,259.427 		"/>
		<polygon style="fill:#1A5CA2;" points="70.535,251.993 70.532,251.994 70.52,252.005 		"/>
		<polygon style="fill:#1A5CA2;" points="61.494,259.909 61.492,259.911 61.48,259.922 		"/>
		<path style="fill:#1A5CA2;" d="M121.035,247.546c-12.224-0.018-24.448-0.01-36.671-0.023c-1.182-0.001-2.35,0.094-3.52,0.223
			c-0.11,0.005-0.22,0.009-0.33,0.014c-0.304-0.16-0.526,0.138-0.8,0.142c-0.057,0.004-0.113,0.008-0.17,0.011
			c-0.396-0.038-0.758,0.114-1.132,0.202c-0.289,0.205-0.642,0.199-0.966,0.289c-0.405,0-0.748,0.221-1.125,0.32
			c-0.109,0.058-0.218,0.116-0.327,0.174c-0.58,0.106-1.057,0.471-1.612,0.641c-0.085,0.064-0.17,0.129-0.255,0.193
			c-0.418,0.164-0.8,0.399-1.198,0.602c-0.577,0.39-1.153,0.78-1.73,1.17c-0.272,0.097-0.466,0.298-0.667,0.491
			c0.001,0,0.002-0.001,0.003-0.001l-0.014,0.012c0.004-0.004,0.008-0.007,0.012-0.011c-0.343,0.123-0.527,0.458-0.836,0.625
			c-0.056,0.053-0.111,0.105-0.167,0.158c-0.876,0.684-1.542,1.592-2.419,2.276c-0.22,0.21-0.439,0.42-0.659,0.63
			c-0.409,0.286-0.7,0.705-1.117,0.98c-0.108,0.104-0.216,0.208-0.324,0.312c-0.359,0.226-0.602,0.59-0.967,0.81
			c-0.056,0.053-0.112,0.106-0.168,0.159c-0.287,0.191-0.506,0.467-0.801,0.649c-0.058,0.053-0.116,0.106-0.174,0.159
			c-0.272,0.205-0.517,0.441-0.772,0.666c0.001,0,0.002-0.001,0.003-0.002l-0.013,0.011c0.003-0.003,0.007-0.006,0.01-0.009
			c-0.25,0.116-0.451,0.295-0.638,0.493c0.001,0,0.002-0.001,0.003-0.002l-0.014,0.013c0.004-0.004,0.008-0.007,0.012-0.011
			c-0.415,0.212-0.766,0.522-1.16,0.766c-0.306,0.226-0.613,0.452-0.919,0.678c-0.299,0.125-0.573,0.295-0.857,0.449
			c-0.185,0.12-0.371,0.241-0.752,0.489c0.501,0,0.784,0,1.066,0c12.25,0,24.501,0,36.752,0.001c0.295,0,0.59,0.017,0.884,0.026
			c0.377,0.073,0.754,0.152,1.122-0.04l-0.014,0.011c0.313-0.163,0.668,0.016,0.984-0.12c0.11-0.006,0.22-0.011,0.33-0.017
			c0.304,0.163,0.526-0.137,0.8-0.141c0.11-0.009,0.219-0.018,0.329-0.027c0.434-0.078,0.895-0.04,1.287-0.298
			c0.056-0.005,0.112-0.011,0.168-0.016c0.356,0.009,0.658-0.155,0.963-0.307c0.055-0.01,0.11-0.019,0.166-0.029
			c0.325-0.104,0.672-0.146,0.958-0.357l-0.016,0.012c0.805-0.282,1.547-0.693,2.288-1.106c0.633-0.437,1.266-0.873,1.898-1.31
			c0.26-0.111,0.463-0.297,0.654-0.498c-0.001,0-0.001,0.001-0.002,0.001l0.014-0.013c-0.004,0.004-0.008,0.008-0.012,0.012
			c0.346-0.138,0.564-0.43,0.822-0.676c0.048-0.039,0.097-0.078,0.145-0.117c0.397-0.213,0.69-0.543,0.983-0.873
			c0.044-0.034,0.087-0.068,0.131-0.101c0.546-0.275,0.891-0.776,1.323-1.178c0.046-0.037,0.092-0.074,0.137-0.111
			c0.473-0.221,0.756-0.662,1.143-0.983c-0.002,0.001-0.003,0.002-0.004,0.003l0.014-0.012c-0.004,0.003-0.007,0.007-0.01,0.01
			c0.345-0.148,0.584-0.421,0.818-0.7c0.105-0.083,0.21-0.166,0.315-0.25c0.324-0.154,0.544-0.437,0.816-0.656
			c-0.002,0.001-0.003,0.002-0.005,0.003l0.013-0.01c-0.003,0.002-0.005,0.005-0.008,0.008c0.248-0.117,0.448-0.296,0.636-0.491
			c-0.001,0-0.002,0.001-0.002,0.001l0.014-0.012c-0.004,0.004-0.008,0.007-0.012,0.011c0.258-0.106,0.462-0.282,0.637-0.495
			c-0.001,0-0.001,0.001-0.002,0.001l0.014-0.013c-0.003,0.004-0.008,0.007-0.011,0.012c0.284-0.092,0.49-0.286,0.665-0.518
			c0.69-0.467,1.379-0.933,2.069-1.4c0.283-0.162,0.624-0.231,0.827-0.52l-0.013,0.014c0.306-0.103,0.576-0.274,0.849-0.44
			c0.414-0.222,0.829-0.443,1.243-0.665C121.882,247.249,121.35,247.547,121.035,247.546z"/>
		<polygon style="fill:#1A5CA2;" points="115.688,251.944 115.691,251.942 115.702,251.932 		"/>
		<path style="fill:#1A5CA2;" d="M116.325,251.448c0.001,0,0.001-0.001,0.002-0.001c0.003-0.004,0.008-0.007,0.011-0.012
			L116.325,251.448z"/>
		<polygon style="fill:#1A5CA2;" points="115.05,252.436 115.054,252.433 115.063,252.426 		"/>
		<path style="fill:#1A5CA2;" d="M108.42,258.079c0.001,0,0.001-0.001,0.002-0.001c0.004-0.004,0.008-0.008,0.012-0.012
			L108.42,258.079z"/>
		<polygon style="fill:#1A5CA2;" points="113.102,254.041 113.106,254.038 113.117,254.029 		"/>
		<path style="fill:#ED333E;" d="M326.489,231.549c1.992,0.744,4.017,1.358,6.117,1.707c0.258,0.146,0.57-0.039,0.823,0.135
			l0.077-0.01l0.069,0.036c0.258,0.147,0.57-0.038,0.824,0.135l0.077-0.01l0.069,0.036c0.314,0.156,0.677-0.046,0.988,0.135
			l0.074-0.013l0.067,0.034c0.375,0.172,0.794-0.042,1.168,0.136c0.095,0.01,0.19,0.02,0.286,0.03
			c0.494,0.168,1.02-0.045,1.513,0.128c0.141,0.008,0.282,0.015,0.423,0.023c1.99,0.121,3.981,0.115,5.971,0.004
			c0.144-0.009,0.289-0.017,0.433-0.026c0.599-0.187,1.231,0.056,1.829-0.142l0.063-0.032l0.068,0.018
			c0.424-0.196,0.898,0.052,1.322-0.148l0.055-0.034l0.063,0.017c0.321-0.163,0.686,0.022,1.009-0.128l0.068-0.036l0.076,0.01
			c0.254-0.172,0.568,0.014,0.826-0.137l0.066-0.036l0.074,0.01c0.255-0.174,0.576,0.026,0.831-0.146
			c2.023-0.285,3.985-0.866,5.89-1.541c2.435-0.863,4.794-1.941,7.022-3.298c3.278-1.996,6.097-4.503,8.371-7.563
			c1.929-2.595,3.329-5.498,4.155-8.649c0.193-0.738,0.385-1.476,0.578-2.214c0.157-0.259-0.031-0.575,0.139-0.831
			c-0.025-0.051-0.017-0.097,0.022-0.137c0.164-0.321-0.031-0.69,0.135-1.011c0.01-0.094,0.019-0.188,0.029-0.281
			c0.18-0.712-0.053-1.449,0.131-2.161c0-0.55,0-1.1,0-1.65c-0.19-0.765,0.059-1.556-0.141-2.32
			c-0.038-0.038-0.044-0.08-0.017-0.127c-0.187-0.371,0.047-0.795-0.146-1.165c-0.04-0.034-0.046-0.073-0.018-0.117
			c-0.161-0.265,0.034-0.592-0.148-0.853c-0.05-0.092-0.129-0.18-0.145-0.278c-0.354-2.182-1.073-4.252-1.999-6.245
			c-1.437-3.093-3.466-5.764-5.948-8.097c-0.154-0.25-0.41-0.386-0.633-0.558c-1.074-0.726-2.047-1.587-3.154-2.274
			c-2.607-1.618-5.37-2.859-8.317-3.73c-1.388-0.41-2.813-0.666-4.189-1.111c-0.26-0.168-0.581,0.023-0.842-0.142
			c-0.049,0.025-0.092,0.017-0.129-0.024c-0.274-0.149-0.595,0.009-0.871-0.132c-0.087-0.012-0.174-0.024-0.261-0.035
			c-0.325-0.151-0.692,0.03-1.016-0.128c-0.092-0.01-0.184-0.021-0.275-0.031c-0.486-0.175-1.007,0.053-1.492-0.133
			c-0.149-0.01-0.298-0.021-0.447-0.031c-2.259-0.098-4.517-0.106-6.776,0.005c-0.147,0.009-0.293,0.018-0.44,0.027
			c-0.487,0.181-1.009-0.041-1.497,0.131c-0.096,0.009-0.192,0.019-0.288,0.028c-0.319,0.166-0.681-0.016-1.002,0.125
			c-0.093,0.013-0.186,0.026-0.279,0.039c-0.322,0.167-0.697-0.039-1.017,0.142c-0.029,0.041-0.064,0.048-0.106,0.021
			c-0.271,0.151-0.596-0.031-0.863,0.143c-1.849,0.431-3.714,0.774-5.53,1.364c-5.722,1.856-10.843,4.67-14.967,9.132
			c-0.158,0.21-0.317,0.419-0.497,0.61c-2.034,2.238-3.541,4.804-4.677,7.591c-0.725,1.778-1.234,3.62-1.474,5.531
			c-0.162,0.315,0.041,0.681-0.136,0.994c0.025,0.05,0.017,0.095-0.022,0.135c-0.183,0.485,0.051,1.009-0.136,1.494
			c-0.009,0.094-0.018,0.189-0.027,0.283c-0.11,1.128-0.103,2.256-0.004,3.384c0.011,0.143,0.023,0.286,0.034,0.429
			c0.181,0.492-0.054,1.022,0.141,1.512c0.04,0.035,0.046,0.075,0.018,0.12c0.167,0.32-0.027,0.687,0.133,1.008
			c0.041,0.036,0.05,0.08,0.027,0.129c0.163,0.261-0.022,0.58,0.139,0.841c0.013,0.186-0.007,0.381,0.044,0.556
			c0.47,1.637,0.926,3.27,1.611,4.846c1.179,2.711,2.777,5.112,4.814,7.237c0.183,0.219,0.385,0.42,0.602,0.605
			c1.759,1.898,3.857,3.362,6.095,4.617C323.452,230.26,324.94,230.971,326.489,231.549z M329.364,190.959
			c3.232-3.989,7.463-6.124,12.583-6.473c10.189-0.696,17.353,6.029,19.355,15.009c1.491,6.688,0.679,13.088-3.331,18.78
			c-4.117,5.843-9.934,8.135-16.972,7.393c-7.956-0.839-13.744-6.751-15.637-14.629c-0.473-1.966-0.726-3.961-0.676-5.992
			C324.735,199.852,326.044,195.056,329.364,190.959z"/>
	</g>
</g>
</svg>
