<?xml version="1.0" encoding="iso-8859-1"?>
<!-- Generator: Adobe Illustrator 22.0.1, SVG Export Plug-In . SVG Version: 6.00 Build 0)  -->
<svg version="1.1" id="Layer_1" xmlns="http://www.w3.org/2000/svg" xmlns:xlink="http://www.w3.org/1999/xlink" x="0px" y="0px"
	 viewBox="0 0 438.53 438.53" style="enable-background:new 0 0 438.53 438.53;" xml:space="preserve">
<g id="_x32_25">
	<g>
		<path style="fill:#F4F4F4;" d="M303.462,132.662c0.005-0.015,0.012-0.025,0.017-0.04c-0.024,0.022-0.05,0.04-0.074,0.06h0.073
			C303.472,132.674,303.466,132.67,303.462,132.662z"/>
		<path style="fill:#F4F4F4;" d="M144.843,212.832c-0.027,0.01-0.053,0.023-0.081,0.031c0.05,0.012,0.101,0.016,0.15,0.029h0.02
			c-0.015-0.021-0.034-0.037-0.045-0.06L144.843,212.832L144.843,212.832z"/>
		<path style="fill:#F4F4F4;" d="M142.452,213.472h-0.068c0.024,0.015,0.047,0.033,0.068,0.053
			C142.451,213.507,142.454,213.489,142.452,213.472L142.452,213.472z"/>
		<polygon style="fill:#F4F4F4;" points="152.972,212.473 152.976,212.473 152.972,212.468 		"/>
		<path style="fill:#F4F4F4;" d="M151.692,273.092h-0.032c0.034,0.022,0.068,0.036,0.102,0.06l0.021,0.002
			c-0.03-0.019-0.063-0.03-0.091-0.052C151.691,273.098,151.692,273.096,151.692,273.092z"/>
		<path style="fill:#F4F4F4;" d="M182.821,212.172c0.014,0.016,0.026,0.035,0.039,0.053c0.001-0.001,0.001-0.002,0.002-0.003
			c0.019,0,0.038,0,0.057,0c-0.028-0.018-0.06-0.031-0.087-0.05L182.821,212.172L182.821,212.172z"/>
		<polygon style="fill:#F4F4F4;" points="179.134,270.665 179.135,270.662 179.132,270.662 		"/>
		<path style="fill:#F4F4F4;" d="M106.426,248.945c0.006-0.004,0.01-0.009,0.016-0.013c0.003-0.005,0.005-0.011,0.008-0.015
			c-0.009,0.005-0.021,0.016-0.018,0.015C106.43,248.936,106.428,248.94,106.426,248.945z"/>
		<path style="fill:#F4F4F4;" d="M184.134,210.384c0.024-0.013,0.047-0.027,0.073-0.036c-0.031,0.002-0.062,0.006-0.092,0.011
			C184.121,210.369,184.128,210.374,184.134,210.384z"/>
		<path style="fill:#F4F4F4;" d="M141.903,212.878c0.078-0.02,0.158-0.03,0.237-0.046h-0.259
			C141.889,212.847,141.896,212.863,141.903,212.878z"/>
		<polygon style="fill:#F4F4F4;" points="107.089,248.043 107.092,248.041 107.091,248.035 		"/>
		<path style="fill:#F4F4F4;" d="M298.012,192.972h-0.072c0.003,0.008,0.007,0.017,0.009,0.025
			C297.969,192.988,297.991,192.982,298.012,192.972z"/>
		<path style="fill:#F4F4F4;" d="M107.122,248.022c0.014-0.025,0.031-0.048,0.045-0.072c-0.025,0.029-0.048,0.06-0.073,0.089
			C107.105,248.035,107.11,248.026,107.122,248.022z"/>
		<path style="fill:#F4F4F4;" d="M117.831,233.856c-0.064,0.058-0.15,0.185-0.109,0.167
			C117.756,233.965,117.797,233.912,117.831,233.856z"/>
		<path style="fill:#F4F4F4;" d="M149.303,272.472l0.009-0.009c-0.004-0.008-0.005-0.017-0.009-0.025
			C149.303,272.448,149.303,272.46,149.303,272.472z"/>
		<path style="fill:#F4F4F4;" d="M278.404,204.772c0.008,0.072,0.028,0.134,0.061,0.184c0.048-0.059,0.102-0.12,0.157-0.184
			c-0.01,0-0.02,0-0.03,0H278.404z"/>
		<path style="fill:#F4F4F4;" d="M260.602,258.912L260.602,258.912l-0.038-0.005c0.002,0.013,0.001,0.027,0.002,0.04
			c0.015-0.009,0.031-0.016,0.046-0.025c0.002-0.004,0.003-0.009,0.005-0.013C260.612,258.91,260.607,258.911,260.602,258.912
			L260.602,258.912z"/>
		<path style="fill:#F4F4F4;" d="M102.602,301.162c0.048,0.02,0.1,0.032,0.15,0.049c-0.031-0.03-0.071-0.047-0.1-0.078
			c-0.035-0.004-0.069-0.015-0.104-0.021C102.564,301.131,102.587,301.139,102.602,301.162z"/>
		<path style="fill:#F4F4F4;" d="M274.722,248.152c0.13-0.012,0.243-0.004,0.352,0.01c-0.013-0.081-0.029-0.161-0.029-0.253
			C274.944,247.99,274.842,248.072,274.722,248.152z"/>
		<path style="fill:#F4F4F4;" d="M211.42,98.751l0.021,0.001l0,0l0.054,0.001c-0.021-0.04-0.035-0.084-0.044-0.127
			c-0.001,0.029,0.002,0.057,0,0.086L211.42,98.751z"/>
		<path style="fill:#F4F4F4;" d="M280.2,105.238c-0.049,0.026-0.099,0.051-0.149,0.074c0.105,0,0.205,0,0.311,0
			C280.31,105.282,280.253,105.264,280.2,105.238z"/>
		<path style="fill:#F4F4F4;" d="M203.896,268.172c0.002-0.003,0.004-0.005,0.006-0.008c-0.004,0.003-0.008,0.005-0.013,0.008
			H203.896z"/>
		<path style="fill:#F4F4F4;" d="M189.082,270.062l0.005-0.01c-0.004-0.003-0.008-0.004-0.012-0.007
			C189.078,270.05,189.079,270.056,189.082,270.062z"/>
		<path style="fill:#F4F4F4;" d="M239.389,206.456c0-0.005,0.002-0.011,0.002-0.016c-0.008,0.006-0.017,0.008-0.025,0.014
			C239.374,206.455,239.382,206.455,239.389,206.456z"/>
		<path style="fill:#F4F4F4;" d="M184.515,210.355c0.019,0.007,0.038,0.008,0.056,0.017c-0.003-0.008-0.01-0.009-0.014-0.017
			C184.544,210.355,184.53,210.355,184.515,210.355z"/>
		<path style="fill:#F4F4F4;" d="M189.037,268.131c-0.004,0.012-0.01,0.02-0.016,0.03c0,0.053-0.004,0.094-0.005,0.143
			c0.018-0.045,0.039-0.083,0.055-0.132h0.005C189.064,268.157,189.05,268.146,189.037,268.131z"/>
		<path style="fill:#F4F4F4;" d="M210.18,209.627c-0.029,0.007-0.058,0.013-0.087,0.021
			C210.101,209.688,210.138,209.667,210.18,209.627z"/>
		<path style="fill:#F4F4F4;" d="M210.164,209.264c0.058-0.039,0.114-0.086,0.168-0.152c-0.046,0-0.09,0-0.135,0
			C210.193,209.153,210.173,209.216,210.164,209.264z"/>
		<path style="fill:#F4F4F4;" d="M187.398,142.684c0.009-0.01,0.017-0.021,0.026-0.03l-0.153-0.102l0.12,0.11
			C187.394,142.67,187.396,142.677,187.398,142.684z"/>
		<path style="fill:#F4F4F4;" d="M199.145,199.752h0.011c0-0.005-0.003-0.01-0.003-0.016
			C199.15,199.741,199.148,199.748,199.145,199.752z"/>
		<path style="fill:#F4F4F4;" d="M199.117,199.792h0.004l0.019,0.005c-0.003-0.008-0.006-0.012-0.009-0.021
			C199.127,199.783,199.122,199.786,199.117,199.792z"/>
		<path style="fill:#F4F4F4;" d="M304.151,188.372c-0.029,0.015-0.061,0.024-0.09,0.04c0.031,0.01,0.064,0.015,0.096,0.025
			C304.154,188.417,304.153,188.394,304.151,188.372z"/>
		<path style="fill:#F4F4F4;" d="M181.755,198.013c0.009-0.004,0.017-0.007,0.026-0.011c-0.011,0.001-0.019,0.001-0.03,0.003
			C181.753,198.007,181.754,198.01,181.755,198.013z"/>
		<path style="fill:#F4F4F4;" d="M224.762,198.6l0.079-0.058c-0.033,0-0.063-0.001-0.096-0.001
			C224.752,198.56,224.759,198.579,224.762,198.6z"/>
		<path style="fill:#F4F4F4;" d="M227.101,199.172c0.004-0.005,0.009-0.01,0.013-0.016c-0.009,0.003-0.019,0.002-0.028,0.005
			C227.091,199.166,227.097,199.168,227.101,199.172z"/>
		<path style="fill:#F4F4F4;" d="M221.612,199.169c0.003-0.009,0.002-0.019,0.005-0.027h-0.056L221.612,199.169z"/>
		<path style="fill:#F4F4F4;" d="M215.185,200.322c0.028,0.02,0.061,0.032,0.087,0.054c-0.003-0.036,0.001-0.065,0-0.099
			c-0.016,0.016-0.034,0.029-0.05,0.045H215.185z"/>
		<path style="fill:#F4F4F4;" d="M249.019,197.852h-0.177l-0.054,0.001c0.095,0.103,0.147,0.24,0.104,0.379v-0.31
			C248.931,197.891,248.978,197.88,249.019,197.852z"/>
		<path style="fill:#F4F4F4;" d="M272.367,103.445c-0.003-0.017-0.001-0.029-0.003-0.045c-0.027-0.002-0.053-0.009-0.08-0.012
			c0.026,0.018,0.052,0.036,0.078,0.055C272.363,103.443,272.365,103.444,272.367,103.445z"/>
		<path style="fill:#F4F4F4;" d="M149.452,192.992c0,0.001-0.001,0.002-0.002,0.003c0.022-0.017,0.04-0.037,0.062-0.053
			c0.007-0.015,0.015-0.028,0.022-0.043c-0.032,0.031-0.061,0.065-0.094,0.095C149.443,192.994,149.447,192.992,149.452,192.992z"/>
		<path style="fill:#F4F4F4;" d="M177.342,156.202l-0.058,0.067c0.021,0.001,0.041-0.001,0.063,0.001
			C177.346,156.246,177.343,156.226,177.342,156.202L177.342,156.202z"/>
		<path style="fill:#F4F4F4;" d="M153.058,204.038c-0.041,0.03-0.094,0.07-0.139,0.104h0.153c0.023-0.022,0.053-0.031,0.078-0.05
			h-0.058C153.084,204.073,153.07,204.056,153.058,204.038z"/>
		<path style="fill:#F4F4F4;" d="M179.188,200.416c0.022-0.019,0.042-0.041,0.063-0.061c0-0.008,0-0.016,0-0.024
			c-0.03,0.031-0.061,0.06-0.094,0.088L179.188,200.416z"/>
		<path style="fill:#F4F4F4;" d="M183.592,148.812c0.069-0.051,0.128-0.113,0.194-0.166c-0.066,0.011-0.133,0.018-0.2,0.024
			L183.592,148.812z"/>
		<path style="fill:#F4F4F4;" d="M288.612,133.272c-0.011,0.009-0.025,0.011-0.037,0.02h0.052c-0.006-0.009-0.011-0.019-0.016-0.029
			L288.612,133.272L288.612,133.272z"/>
		<path style="fill:#F4F4F4;" d="M268.779,135.156c0.006,0.004,0.013,0.006,0.019,0.01c-0.005-0.004-0.012-0.008-0.017-0.012
			C268.781,135.155,268.78,135.155,268.779,135.156z"/>
		<path style="fill:#F4F4F4;" d="M293.517,133.292h0.086l0.008-0.01h0.036c-0.011-0.008-0.025-0.012-0.036-0.02
			C293.581,133.275,293.548,133.28,293.517,133.292z"/>
		<path style="fill:#F4F4F4;" d="M268.747,134.468l0.004,0.042c0.007,0.001,0.013,0.001,0.02,0.002
			c0.003,0.003,0.003,0.007,0.006,0.01h0.009C268.776,134.502,268.754,134.49,268.747,134.468z"/>
		<path style="fill:#F4F4F4;" d="M354.788,140.144c-0.021-0.012-0.042-0.024-0.063-0.036c0.017,0.025,0.04,0.048,0.061,0.071
			C354.787,140.168,354.788,140.156,354.788,140.144z"/>
		<path style="fill:#F4F4F4;" d="M227.299,137.131c0.032-0.028,0.066-0.05,0.093-0.088l-0.088-0.003
			C227.303,137.071,227.301,137.102,227.299,137.131z"/>
		<path style="fill:#F4F4F4;" d="M321.074,131.422c-0.033-0.025-0.071-0.043-0.103-0.07h-0.014c0.03,0.023,0.063,0.043,0.091,0.07
			H321.074z"/>
		<path style="fill:#F4F4F4;" d="M228.872,137.042h0.053c-0.005-0.009-0.013-0.015-0.018-0.024
			C228.897,137.028,228.883,137.033,228.872,137.042z"/>
		<path style="fill:#F4F4F4;" d="M227.722,198.542h0.339c0.034-0.083,0.077-0.181,0.122-0.271
			C227.985,198.301,227.783,198.323,227.722,198.542z"/>
		<path style="fill:#F4F4F4;" d="M227.709,198.542h0.013C227.717,198.542,227.713,198.542,227.709,198.542L227.709,198.542z"/>
		<polygon style="fill:#F4F4F4;" points="257.593,192.965 257.595,192.962 257.591,192.962 		"/>
		<polygon style="fill:#F4F4F4;" points="256.255,197.274 256.255,197.272 256.251,197.272 		"/>
		<polygon style="fill:#F4F4F4;" points="248.831,137.662 248.837,137.662 248.835,137.66 		"/>
		<path style="fill:#F4F4F4;" d="M38.462,198.302c0-0.029,0-0.057,0-0.085c-0.004-0.003-0.01-0.008-0.015-0.011
			C38.453,198.237,38.462,198.264,38.462,198.302z"/>
		<path style="fill:#F4F4F4;" d="M273.262,286.112c0,0.006-0.005,0.013-0.006,0.019c0.001-0.003,0.005-0.005,0.006-0.009
			c0.03,0.005,0.061,0.003,0.091,0.007c-0.01-0.023-0.031-0.051-0.037-0.071L273.262,286.112z"/>
		<path style="fill:#F4F4F4;" d="M303.528,282.883c0.002-0.014,0.002-0.028,0.004-0.041c-0.01,0.008-0.019,0.012-0.029,0.019
			C303.511,282.869,303.52,282.876,303.528,282.883z"/>
		<polygon style="fill:#F4F4F4;" points="281.065,283.125 281.073,283.121 281.069,283.118 		"/>
		<path style="fill:#F4F4F4;" d="M268.642,291.748c0.013,0.013,0.026,0.027,0.038,0.04c0.008-0.005,0.017-0.008,0.025-0.013
			c-0.016-0.014-0.033-0.027-0.049-0.042C268.654,291.739,268.646,291.742,268.642,291.748z"/>
		<path style="fill:#F4F4F4;" d="M261.111,291.65c0.008-0.002,0.015-0.006,0.023-0.008c-0.001-0.004-0.001-0.008-0.002-0.012
			C261.126,291.638,261.118,291.642,261.111,291.65z"/>
		<path style="fill:#F4F4F4;" d="M308.369,266.069c0.023-0.013,0.044-0.027,0.067-0.04c-0.001-0.004-0.003-0.008-0.004-0.011
			C308.412,266.036,308.39,266.052,308.369,266.069z"/>
		<path style="fill:#F4F4F4;" d="M310.831,322.234c0.007,0,0.014,0,0.022-0.001c-0.002-0.003-0.005-0.004-0.007-0.007
			C310.841,322.229,310.835,322.231,310.831,322.234z"/>
		<path style="fill:#F4F4F4;" d="M309.003,322.755c-0.044,0.024-0.091,0.042-0.135,0.066c0.062-0.001,0.121-0.01,0.184-0.009
			l0.013,0.002c-0.001-0.001-0.002-0.001-0.003-0.002C309.038,322.794,309.025,322.773,309.003,322.755z"/>
		<path style="fill:#F4F4F4;" d="M252.459,296.152c0.01,0.004,0.02,0.007,0.03,0.011c-0.001-0.004-0.002-0.007-0.003-0.011H252.459z
			"/>
		<polygon style="fill:#F4F4F4;" points="259.154,292.502 259.154,292.501 259.152,292.502 		"/>
		<path style="fill:#F4F4F4;" d="M238.041,338.276c0.023-0.006,0.048-0.007,0.071-0.014c-0.018-0.013-0.036-0.019-0.054-0.031
			C238.055,338.249,238.045,338.259,238.041,338.276z"/>
		<path style="fill:#F4F4F4;" d="M212.701,308.283L212.701,308.283L212.701,308.283z"/>
		<path style="fill:#F4F4F4;" d="M228.22,314.192c0.007-0.004,0.015-0.006,0.022-0.01c-0.009,0-0.017,0-0.025,0
			C228.218,314.185,228.218,314.189,228.22,314.192z"/>
		<path style="fill:#F4F4F4;" d="M312.222,262.622c0.003-0.004,0.008-0.008,0.011-0.012c-0.007,0.004-0.014,0.008-0.021,0.012
			C312.216,262.623,312.218,262.622,312.222,262.622z"/>
		<path style="fill:#F4F4F4;" d="M251.212,336.562c0.01-0.01,0.021-0.015,0.031-0.025c0-0.037,0.004-0.071,0.005-0.108
			c-0.023,0.044-0.048,0.087-0.069,0.132h0.033V336.562z"/>
		<path style="fill:#F4F4F4;" d="M238.9,310.727c0.03-0.008,0.06-0.017,0.09-0.026c-0.041,0.008-0.081,0.019-0.122,0.028
			C238.879,310.728,238.889,310.728,238.9,310.727z"/>
		<path style="fill:#F4F4F4;" d="M338.654,308.193c0.02,0.017,0.045,0.034,0.064,0.051c0.02-0.006,0.04-0.008,0.06-0.013
			c-0.016-0.046-0.031-0.092-0.047-0.134L338.654,308.193z"/>
		<path style="fill:#F4F4F4;" d="M361.961,210.404c-0.052,0.113-0.118,0.216-0.172,0.327c0.066-0.089,0.127-0.181,0.193-0.269
			c0.017-0.055,0.042-0.106,0.06-0.16c-0.03,0.035-0.05,0.076-0.081,0.11C361.961,210.409,361.961,210.407,361.961,210.404z"/>
		<path style="fill:#F4F4F4;" d="M388.725,265.791c0.006-0.007,0.013-0.015,0.019-0.022c-0.008,0-0.013,0.003-0.021,0.003
			L388.725,265.791z"/>
		<path style="fill:#F4F4F4;" d="M373.662,207.795c-0.092,0.05-0.177,0.084-0.266,0.127c0.106,0,0.21,0,0.316,0l0.009,0.008
			c-0.005-0.02-0.003-0.038-0.009-0.058C373.692,207.847,373.681,207.82,373.662,207.795z"/>
		<path style="fill:#F4F4F4;" d="M354.771,223.391c0.003-0.002,0.004-0.005,0.006-0.007c-0.001-0.002-0.002-0.005-0.004-0.007
			C354.773,223.381,354.772,223.386,354.771,223.391z"/>
		<path style="fill:#F4F4F4;" d="M351.922,225.502l-0.221,0.252c0.085-0.037,0.169-0.076,0.261-0.106v-0.146
			c-0.005-0.02-0.002-0.034-0.006-0.053C351.945,225.467,351.933,225.485,351.922,225.502z"/>
		<path style="fill:#F4F4F4;" d="M407.602,110.086c-18.991-32.866-46.29-60.16-79.158-79.148
			C295.128,11.489,258.736,1.765,219.27,1.765s-75.858,9.724-109.174,29.173C77.228,49.926,49.93,77.22,30.938,110.086
			C11.489,143.416,1.765,179.81,1.765,219.27s9.724,75.851,29.173,109.174c18.991,32.868,46.289,60.166,79.158,79.158
			c33.323,19.442,69.714,29.163,109.174,29.163s75.851-9.721,109.174-29.163c32.866-18.994,60.164-46.291,79.158-79.158
			c19.442-33.33,29.163-69.721,29.163-109.174C436.765,179.817,427.044,143.422,407.602,110.086z M298.791,132.302
			c0.523-0.21,1.092-0.281,1.651-0.2l0,0c1.404-0.101,2.808-0.201,4.212-0.301c0.195-0.022,0.392-0.032,0.578-0.049
			c0.155-0.011,0.311-0.016,0.466-0.026c6.748-0.479,13.498-0.924,20.254-1.154c0.116,0.004,0.232,0.001,0.349,0.005
			c3.075-0.164,6.157-0.164,9.233,0c0.116-0.003,0.232-0.002,0.349-0.005c4.224,0.072,8.414,0.776,12.43,2.09l0.69,0.52
			l-0.108,0.144c0.006,0.017,0.017,0.031,0.023,0.048c0.007-0.025,0.006-0.046,0.015-0.072l0.08-0.11c1.05,0.18,1.78,1,2.71,1.4
			c1.56,1.16,3.31,2.22,3.47,4.48c0,0.073,0,0.145,0,0.218c1.261,0.169,0.853,1.337,1.15,2.112c0.543,1.16,0.576,2.495,0.09,3.68
			l-0.13,0.58c-0.351,2.83-1.635,5.462-3.65,7.48c-0.376,0.414-0.262,1.431-1.196,1.16c0.002,0.05,0.004,0.1,0.005,0.15l0,0
			c0,0,0,0,0,0.001c0,0.003,0,0.006,0,0.009c-0.003,0.001-0.005,0.003-0.007,0.004c-0.294,0.688-0.72,1.311-1.253,1.835
			c-0.003,0.007-0.006,0.014-0.009,0.021c-0.63,1-1.27,2-1.9,3l-1.1,1.33c-0.045-0.003-0.081,0.009-0.123,0.012
			c0.28,1.175-0.758,1.636-1.363,2.334l-0.004-0.006c-0.286,1.033-0.922,1.935-1.8,2.55c-0.837,1.798-2.035,3.405-3.52,4.72
			c-0.42,0.14-0.48,0.68-0.9,0.82l0.06,0.07l-0.06-0.06c-0.451,1.131-1.354,2.023-2.49,2.46c-1.406,1.832-3.181,3.348-5.21,4.45
			c0,0-8.394,5.573-8.395,5.576c0.005-0.001-4.512,3.207-6.495,3.874c-0.79,0.3-4.56,1.17-4.56,1.17l0,0c0,0-8.18,3-12.42,4
			l-1.3,0.39c-1.3,1.52-3.09,1.61-4.89,1.64c-0.16,0-2.442,0.784-3.49,0.69c-2.11-0.09-4.06,0.63-6.1,0.8
			c-0.768,0.054-1.471-0.119-2.196-0.118c-0.088,0.003-0.175,0.017-0.263,0.018c-6.42,0.48-12.84,1-19.25,1.45
			c-1.49,0.1-3,0.11-4.48,0.17c-0.38,0.038-0.784,0.223-1.149,0.158c-1.261,0.157-2.533,0.206-3.803,0.142
			c-0.021,0.005-0.043,0.007-0.064,0.011c-0.204,0.069-0.415,0.101-0.626,0.111c-1.125,0.184-2.269,0.239-3.407,0.147
			c-1.935,0.295-3.893,0.415-5.85,0.36c-0.251,0.089-0.512,0.131-0.775,0.14c-1.099,0.176-2.215,0.224-3.325,0.13
			c-3.284,0.413-6.59,0.627-9.9,0.64c-0.383,0.039-0.777,0.17-1.151,0.162c-1.425,0.177-2.862,0.249-4.299,0.208
			c-0.044,0.014-0.09,0.011-0.135,0.022l0.135,0.018c-1.494,0.236-3.009,0.313-4.52,0.23c-0.92,0.39-1.91,0.13-2.86,0.32
			c-1.89,0.83-3.91,0.49-5.87,0.6c-0.17,0.73-0.75,0.58-1.25,0.59c-2.928-0.106-5.859,0.078-8.75,0.55
			c-1.307,0.135-2.623,0.135-3.93,0c-5.1-0.07-10.15,0.92-15.25,0.72l-1.69-0.06c-0.001-0.004,0.002-0.007,0.001-0.011l-0.001,0.001
			l-19.38,1.15c-1.066,0.059-2.142,0.08-3.209,0.109l-0.001,0.001l-1.44,0.06c-0.277,0.106-0.575,0.144-0.87,0.11
			c-0.005-0.005-0.008-0.008-0.013-0.012c-2.65,0.326-5.317,0.493-7.987,0.482c0.003-0.004,0.007-0.006,0.01-0.01h-1.07
			c-0.043,0.016-0.086,0.021-0.129,0.034c0.03,0.004,0.059,0.014,0.089,0.016c-0.101,0.018-0.204,0.024-0.305,0.041
			c-0.003,0-0.006,0.001-0.009,0.001c-1.473,0.248-2.962,0.38-4.456,0.368c0.06-1,1-1.46,1.25-2.26
			c0.001-0.002,0.002-0.004,0.003-0.006c0.313-2.359,1.798-3.832,3.73-4.968c0.009-0.008,0.017-0.018,0.027-0.027l1.19-1.26
			c0.001,0.017-0.004,0.031-0.003,0.047c0.019-0.033,0.044-0.064,0.063-0.097l1.24-1.88c0.002-0.005,0.005-0.01,0.006-0.015
			c-0.023,0.021-0.043,0.044-0.066,0.065c-0.19-0.789,0.295-1.583,1.084-1.774c0.068-0.016,0.136-0.026,0.206-0.033
			c-0.156-1.435,0.762-2.024,1.89-2.473c-0.005,0.01-0.011,0.019-0.016,0.029c0.006-0.005,0.012-0.012,0.018-0.017
			c0.331-0.992,0.484-2.176,1.758-2.552c0.035,0.038,0.075,0.07,0.118,0.099l0.012-0.029l0.029-0.032l-0.159-0.088
			c-0.747-1.844,0.869-1.92,1.85-2.475c-0.291-1.482,1.023-1.687,1.785-2.259c0.025-0.061,0.067-0.119,0.155-0.166
			c0.011-0.03,0.027-0.057,0.039-0.087c0.05-1.395,0.964-2.609,2.295-3.037c0.012-0.016,0.024-0.03,0.036-0.046l0.68-0.94
			c0.019-0.015,0.032-0.032,0.048-0.048c0.096-0.358-0.45-1.18,0.632-0.832l-0.003,0.035c0.013-0.014,0.019-0.032,0.033-0.045
			l2.99-3.489c0.002-0.004,0.003-0.008,0.005-0.012c-0.001-0.003-0.004-0.005-0.005-0.009c0.066-0.369,0.298-0.686,0.63-0.86
			l0.1-0.49c-0.11-0.53,0.25-0.87,0.5-1.24c1.954-3.039,4.116-5.939,6.47-8.68c0.29-0.32,0.55-0.79,1.11-0.75
			c0.936-1.027,1.77-2.142,2.49-3.33c0.008-0.021,0.02-0.04,0.028-0.06c-0.26-0.978,0.325-1.346,1.184-1.554
			c0.006-0.005,0.012-0.011,0.018-0.016c0.017-0.025,0.03-0.055,0.045-0.082c-0.021-1.638,1.319-2.607,2.155-3.728
			c0.38-0.57,0.59-1.57,1.49-1.81c0.07-1,1-1.52,1.48-2.21c1.18-1.68,2.31-3.42,3.62-5c0.228-0.278,0.555-0.211,0.853-0.2
			c0.002-0.007,0.005-0.013,0.007-0.02c0.101,0.003,0.197-0.041,0.26-0.12l0,0l0,0c0-0.48-0.14-1.07,0.6-1.17
			c0.013-0.338,0.273-0.615,0.61-0.65c0-1.3,4.44-4.32,4.94-4.3c3.486,0.173,6.98,0.029,10.44-0.43
			c1.43-0.22,16.1-0.919,17.519-0.742c0.054-0.014,7.472-0.514,8.761-0.378c0,0.002,10.453-0.84,15.7-0.99
			c0.143-0.011,0.287-0.013,0.43-0.022c1.511-0.267,3.047-0.369,4.58-0.288c1.905-0.262,3.825-0.405,5.748-0.429
			c-0.003,0-0.006,0-0.008-0.001c1.119-0.193,2.258-0.243,3.39-0.15v0.011c0.007-0.003,0.013-0.011,0.02-0.011
			c2.08-0.29,4.177-0.439,6.277-0.449c-0.002,0-0.004,0-0.007-0.001c1.209-0.205,2.437-0.265,3.66-0.18l0.023,0.25
			c-0.017-0.082-0.014-0.17,0.027-0.25l1.53-0.32l4.381-0.089c-0.004,0-0.008-0.001-0.011-0.001c1.319-0.237,2.663-0.311,4-0.22
			c-0.028,0.013-0.056,0.02-0.084,0.033c0.045-0.012,0.09-0.019,0.134-0.033c1.709-0.302,3.447-0.409,5.18-0.32
			c0.126-0.028,0.255-0.028,0.382-0.047c1.424-0.249,2.871-0.34,4.315-0.253c0.001-0.003,0.001-0.006,0.002-0.01l0.1-0.07l0.11,0.06
			c0.243-0.094,0.491-0.12,0.741-0.129c0.442-0.078,0.893-0.097,1.342-0.058c0.072-0.013,0.146-0.012,0.217-0.033l2.5-0.07
			c1.693-0.326,3.42-0.434,5.14-0.32C298.764,132.307,298.778,132.307,298.791,132.302z M301.632,216.712
			c0.017,0.828-0.194,1.644-0.61,2.36c-0.033,0.068-0.065,0.136-0.098,0.204c0.056-0.063,0.101-0.133,0.158-0.194l-0.15,0.88
			c-0.002,0.019-0.084,0.937-0.49,1.23c-0.012,0.016-0.13,0.151-0.105,0.218c0.002,0.004,0.003,0.008,0.005,0.012
			c-0.011,0.037-12.966,18.801-12.95,18.99c-0.079,1.049-5.754,6.195-7.165,6.526c-0.046,0.02-0.088,0.047-0.135,0.064l-3,2.22
			c-0.027-0.001-0.047-0.004-0.073-0.005c0.008,0.001,0.014,0.005,0.023,0.005c-0.624,0.626-1.339,1.156-2.12,1.57
			c-0.031,0.006-0.06,0.018-0.09,0.025c-1.107,0.964-2.325,1.793-3.63,2.465c-1.865,1.327-3.854,2.469-5.94,3.41l-1.6,1
			c-0.002-0.006,0.002-0.013,0-0.02c-0.012-0.046-0.016-0.095,0-0.14c0-0.004,0-0.007-0.001-0.011l-0.108,0.05
			c0,0-2.031,1.691-3.161,2.301c-1.76,0.818-3.567,1.533-5.41,2.14c-0.422,0.203-8.4,2.74-9.08,2.94c-1.54,0.45-3.12,0.91-4.67,1.28
			c-1.778,0.597-6.243,1.318-6.28,1.31c-3.57-0.29-20.228,2.615-20.97,2.46c-4.16-0.25-8.28,0.41-12.34,0.85
			c-4.74,0.51-9.5,0.17-14.23,0.94c-3.33,0.54-6.82,0.09-10.23,0.09c-0.002-0.014,0.007-0.026,0.007-0.039
			c-0.002,0.003-0.005,0.006-0.007,0.009l-4.771,0.08c0,0-0.06,0.01-0.095,0.016c-0.24,0.063-4.847,0.31-4.859,0.307
			c0.001,0.002,0.003,0.004,0.005,0.006c-4.88,0.47-9.77,0.81-14.67,0.93c-0.036,0.02-0.076,0.027-0.114,0.042l0.084,0.008
			c-0.063,0.013-0.301,0.054-0.359,0.059c-1.211,0.214-7.564,0.581-9.521,0.51c-0.041,0.009-0.084,0.008-0.125,0.015
			c0,0-2.603,0.385-3.972,0.285c-0.011,0.01-0.024,0.017-0.033,0.029c-2.94,0.21-5.88,0.42-8.81,0.65c-0.62,0-1.23,0.15-1.84,0.22
			c-0.204,0.008-10.54,0.68-10.54,0.68c-0.078,0.01-0.157,0.016-0.236,0.025c-1.121,0.352-2.288,0.538-3.464,0.535
			c-1.717,0.019-3.472-0.017-5.21-0.028c-0.06,0.018-0.122,0.024-0.18,0.048c-6.52,0.24-21.941,1.571-23.05,1.75
			c-1,0.15,1.33-3.3,1.59-3.95c0.86-2.09,10.071-12.726,10.08-12.73c2.213-2.667,4.3-5.433,6.26-8.3c0-0.004,0.002-0.007,0.002-0.01
			c-0.004,0.003,1.145-1.62,1.141-1.605c0.008-0.016,0.019-0.029,0.027-0.045l0.39-0.59c0.002-0.004,0.004-0.008,0.006-0.012
			c-0.006,0.004,7.226-9.331,7.238-9.353c0,0,1.336-2.395,2.116-3.595c0.29-0.45,1.51-1.36,1.51-1.36v0.028
			c0.012-0.011,0.018-0.027,0.03-0.038c0.33-0.59,5.534-6.964,6.21-8.11c0.046-0.092,0.102-0.178,0.15-0.269
			c-0.083,0.093,1.244-3.216,2.98-4.001c-0.047,0.078-0.104,0.148-0.152,0.225c0.083-0.08,1.955-2.256,2.622-3.395
			c0.05-0.094,0.114-0.179,0.179-0.264l-0.239,0.284l0.53-0.63l-0.169,0.201c0.072-0.078,0.145-0.156,0.229-0.221l0.15-0.28
			c0.005-0.019-0.09,0.02-0.09,0.02c-0.44-0.43,4.93-6.51,4.93-6.51c0.016-0.024,0.444-0.921,0.925-0.934
			c0.038-0.001,0.077,0,0.115,0.004c3.053,0.048,6.101-0.288,9.07-1c0.894-0.189,1.334,0.597,2.065,0.687
			c0.002-0.002,0.003-0.005,0.005-0.007l1.46,0.04c-0.007,0.006-0.015,0.009-0.022,0.014c0.007-0.003,0.015-0.002,0.022-0.004
			l0.64-0.13l0.026-0.001c-0.005-0.004-0.011-0.005-0.016-0.009c0.46-0.423,1.078-0.63,1.7-0.57c4.984,0.149,25.77-2.32,29.14-1.94
			c1.311-0.043,2.612-0.235,3.88-0.57c2.28-0.35,4.53,0.18,6.79-0.06c1-0.1,13.7-1.34,15.86-1.1c4,0.38,14.02-0.48,14.67-0.76
			c1.47-0.63,13.492-0.921,15.47-1.47c0.54-0.12,1.08-0.17,1.62-0.27c1.419-0.126,2.848-0.093,4.26,0.1
			c4.92,0.19,9.75-0.91,14.65-0.72c0.006,0.021,0.005,0.034,0.009,0.054l0.111-0.104c4.063,0.089,8.126-0.185,12.14-0.82
			c4.175-0.394,8.372-0.484,12.56-0.27c2.077-0.03,15.837,1.852,16.33,3.6c1.08,0.74,2.36,1.23,3.14,2.37
			c0.017,0.02,0.025,0.044,0.039,0.066c0.929,0.761,1.54,1.836,1.723,3.022c0.018,0.041,0.041,0.08,0.058,0.122
			c0.084,0.059,0.106,0.174,0.05,0.26c0.009,0.06,0.012,0.121,0.02,0.182c0-0.047,0-0.095,0-0.142c0.43,1.161,0.43,2.439,0,3.6
			c0-0.074,0-0.148,0-0.222C301.644,216.591,301.641,216.652,301.632,216.712z M284.052,278.052c-0.135-0.012-0.259-0.081-0.34-0.19
			c-0.09-0.16,0.05-0.29,0.21-0.27c0.117,0.029,0.227,0.083,0.32,0.16C284.342,278.002,284.242,278.072,284.052,278.052z
			 M85.092,277.452l0.093-0.116c0.006,0.042,0.02,0.079,0.035,0.116H85.092z M43.172,262.422c-0.21-0.12-0.13-0.25-0.11-0.37
			s0.17-0.21,0.31-0.3c0.081,0.136,0.139,0.285,0.17,0.44C43.542,262.412,43.382,262.542,43.172,262.422z M262.692,336.522
			c0.167-0.109,0.293-0.191,0.412-0.251c0.094-0.011,0.187-0.023,0.281-0.024C263.201,336.302,262.993,336.39,262.692,336.522z
			 M274.874,334.366c0.003,0.003,0.005,0.003,0.008,0.006C274.879,334.369,274.877,334.369,274.874,334.366z M284.812,330.332
			c-0.006,0.001-0.012,0.003-0.018,0.004c-0.023-0.071-0.052-0.152-0.036-0.227c0.057,0.048,0.105,0.099,0.105,0.163
			c0.018,0.006,0.034,0.005,0.051,0.01C284.879,330.298,284.847,330.318,284.812,330.332z M286.682,329.752
			c-0.033-0.016-0.061-0.02-0.093-0.032c0.043-0.018,0.086-0.036,0.13-0.049c0.015,0.027,0.024,0.052,0.042,0.081L286.682,329.752
			L286.682,329.752z M293.425,330.3c0.005-0.005,0.009-0.008,0.014-0.013c0.023,0.018,0.051,0.025,0.073,0.045L293.425,330.3z
			 M307.122,324.032l-0.069-0.019l0.069-0.021l0.023-0.009C307.138,324.001,307.129,324.015,307.122,324.032z M404.815,219.49
			c0.007-0.213,0.012-0.426,0.013-0.64C404.865,219.063,404.857,219.279,404.815,219.49z M402.962,233.82c0,0.001,0,0.001,0,0.002
			c-0.26,2.7-1.4,5.18-1.94,7.81c-0.029,0.05,0,0.05,0,0.05c0.25,0.7,0.25,1.33-0.57,1.67c-0.008-0.007-0.012-0.016-0.019-0.023
			c-0.052,0.031-0.055,0.165-0.051,0.173l-0.002,0.004c0.005-0.001,0.008-0.003,0.012-0.004c0,1.1-1.113,2.909-1.115,2.903
			c0,0,0.444,2.186-0.305,2.837c-1.11,0.87-0.78,2.53-1.53,3c-1.19,0.76-1.955,2.857-1.97,2.846c0,0.018,0,0.036,0,0.054
			c-0.139,0.249-0.65,0.766-0.63,0.85c-0.012,0.024-0.017,0.052-0.026,0.077l0.026-0.037c0.746,1.84-1.75,3.48-1.75,3.48
			c0,0.72-1.069,1.462-1.069,1.462l-0.011,0.018l-0.009,0.011c0.003,0,0.099,0.079,0.099,0.079c-0.15,0.67-4.93,9.33-6.49,10.41
			c-0.28,0.2-1.77,2.62-2.72,3.26c-0.666,0.559-1.243,1.216-1.71,1.95c-0.33,0.44-8.895,8.452-13.09,12.05
			c-0.008-0.005-0.012-0.014-0.02-0.019c-1.184,1.274-3.951,3.383-3.95,3.389c-1.768,1.806-6.66,5.25-6.66,5.25
			c-0.022,0.005-0.042,0.014-0.064,0.019c-3.766,3.021-14.587,9.906-16.026,10.571c-0.047,0.071-8.069,4.323-8.069,4.319
			c-0.004,0.003-0.007,0.008-0.011,0.011c-1.26,1-4.336,2.247-4.419,2.257l-5.691,2.713c-0.093-0.038-1.862,0.972-2.82,1.3
			c-0.007,0.003-0.014,0.002-0.021,0.005l0.031,0.005c-1.58,1.06-3.5,1.41-5.13,2.36c-0.018,0.011-0.037,0.02-0.055,0.031
			c0.032-0.009,0.063-0.023,0.095-0.031c-0.767,0.954-3.161,1.267-3.147,1.26c-0.028,0.006-0.055,0.015-0.083,0.02h-0.1l-0.09,0.07
			l-60.45,16.13c-2.17,0.49-17.34,1.24-19.9,1.45c-1.12,0.09-2.16,0.05-3.23,0.07c-1.373-0.004-25.95,0.61-25.04,0.08
			c-1.234-0.318-13.39-0.24-12.91-0.26c0.518,0.007-9.37-0.3-8.75-1.11c-1.13,0.48-1.83-0.14-2.69-0.63
			c-1.11-0.62-2.51-0.35-3.78-0.69c-1.138-0.402-16.12-3.14-16.12-3.14c0.032-0.038,0.071-0.068,0.111-0.094l-0.191,0.014
			c-1.113,0.135-2.237,0.135-3.35,0c-1.74-0.48-3.45-1.1-5.19-1.55c-3.21-0.83-6.54-1.22-9.57-2.71
			c-0.492-0.203-1.055-0.123-1.47,0.21c-0.43,0.29-1.3,0.95-0.82-0.49c0.12-0.36-0.23-0.4-0.48-0.41c-2.36,0-4.16-1.69-6.38-2.18
			c-1.678-0.352-3.314-0.882-4.88-1.58c-0.294-0.105-0.477-0.4-0.44-0.71l0.118,0.033c-0.038-0.026-0.08-0.046-0.118-0.073
			c-5.36-2.22-10.82-4.21-16.06-6.72c-1.29-0.62-2.58-1.27-3.87-1.9c-0.005-0.005-0.01-0.008-0.015-0.012
			c0.001,0.004,0.004,0.008,0.005,0.012l-1.75-0.65c-0.857,0.227-1.74-0.263-2-1.11c-1.03-0.71-2.31-1.02-3.23-1.92
			c-1.77-0.56-3.18-1.79-4.87-2.5c-0.45-0.09-1.09,0.18-1.2-0.6c-1.267-0.953-2.604-1.808-4-2.56l0,0l0,0
			c-0.49,0.07-0.92,0.07-0.97-0.61c0,0-5.065-3.432-5.082-3.467c0,0-1.091-0.833-1.148-0.863c0,0-2.108-1.325-2.138-1.341
			c-1.745-0.306-4.815-3.632-4.854-3.655c-1.239-0.033-2.303-1.881-2.301-1.88c-0.348-0.464-0.784-0.856-1.288-1.144
			c-0.04-0.028-0.086-0.048-0.129-0.072c0.026,0.037-1.211,0.022-1.081-0.898c0.029,0.013,0.052,0.037,0.081,0.05
			c-0.011-0.03-0.172-0.17-0.238-0.214c0.039,0.055,0.083,0.106,0.118,0.164c-0.57-0.13-1.22-0.21-1.22-1
			c0.052,0.018-10.528-10.573-10.549-10.593c0.006,0.015-1.195-1.498-1.176-1.486c-0.004-0.007-7.454-9.631-7.454-9.631
			c-0.027-0.026-0.049-0.057-0.075-0.083c0.01,0.022,0.025,0.041,0.035,0.063c-1.162-0.472-1.908-1.617-1.87-2.87
			c0.028,0.032,0.049,0.069,0.076,0.101c-0.011-0.028-0.026-0.053-0.036-0.081c0-0.59-0.78-0.8-0.68-1.44
			c-0.017-0.017-0.02-0.033-0.032-0.05c-0.004,0.01-0.003,0.02-0.008,0.03l-2.43-3.77c-1.265-0.352-1.334-1.311-1.278-2.333
			c-0.017-0.036-0.029-0.075-0.052-0.107c-0.043-0.055-0.079-0.115-0.12-0.172c-0.724-0.479-1.135-1.307-1.077-2.174
			c-0.016-0.055-0.038-0.109-0.053-0.164c-1.8-4.031-3.35-8.169-4.64-12.39c-0.251-0.563-0.38-1.173-0.38-1.79
			c-0.018-0.137-0.05-0.272-0.069-0.408c-0.862-2.117-0.987-4.42-1.651-6.592c0-0.001,0-0.001-0.001-0.002
			c0,0.004,0.001,0.008,0.001,0.012c-1.24-1.2-0.48-2.71-0.64-4.07c0.003,0.008,0.004,0.017,0.007,0.026
			c-0.003-0.012-0.004-0.024-0.007-0.036l-0.07-0.88c-0.002-0.007-0.004-0.013-0.005-0.02c-0.414-0.449-0.624-1.05-0.575-1.66
			c0.082-1.925-0.012-3.852-0.28-5.76c-0.061-0.265,0.062-0.539,0.3-0.67v-2.7c0.003-0.011,0.003-0.022,0.006-0.033
			c-0.147-0.871,0.135-1.807-0.556-2.597c-0.16-0.314-0.16-0.686,0-1c0.486-0.899,0.685-1.925,0.57-2.94
			c-0.011-0.318,0.233-0.585,0.549-0.607c0.001-0.001,0.001-0.002,0.001-0.003c0.57-3.32,0.85-6.7,1.9-9.93
			c0.016-0.038,0.028-0.077,0.044-0.116c-0.022,0.028-0.041,0.058-0.064,0.086c0.172-1.539,0.588-3.041,1.23-4.45
			c0.005,0.03,0.005,0.06,0.009,0.091c0.003-0.02,0.008-0.04,0.011-0.06l0.09-0.52c0.025,0,0.044,0.005,0.067,0.007
			c-0.03-0.018-0.06-0.033-0.087-0.037c0.165-1.149,0.556-2.253,1.15-3.25c0.015,0.044,0.015,0.084,0.027,0.127
			c0.003-0.033,0.012-0.064,0.013-0.097c-0.006-0.635,0.205-1.253,0.6-1.75c0.037-0.007,0.064-0.03,0.099-0.039
			c-0.043,0-0.088-0.001-0.129-0.001c0.201-1.116,0.63-2.178,1.26-3.12c0.008,0.035,0.01,0.072,0.016,0.107
			c0.011-0.025,0.013-0.052,0.024-0.077c0.032-0.051,0.055-0.106,0.087-0.158c-0.053,0.042-0.099,0.088-0.157,0.128
			c0.271-1.083,0.713-2.116,1.31-3.06c0.009-0.01,0.016-0.022,0.024-0.032l-0.024,0.012c0.041-0.47,0.256-0.908,0.6-1.229
			c-0.01-0.003-0.021-0.009-0.03-0.011c0.264-0.911,0.695-1.766,1.27-2.52c0,0.004,0,0.008,0,0.012
			c0.002-0.002,0.003-0.005,0.005-0.007c0.002-0.002,0.004-0.004,0.005-0.005c0,0,3.915-7.112,3.994-7.257
			c-0.096,0.119-0.174,0.251-0.274,0.367c0-0.3,23.494-27.945,24.35-29.13c0.65-0.7,1.39-1.3,2.08-2
			c0.25-0.214,12.168-7.946,12.19-7.96c3.84-2.39,7.56-5,11.52-7.18c0.27-0.06,1.531-0.886,1.48-0.88
			c0.08-0.8,14.53-8.09,15.62-8.06c0,0,5.997-2.758,9.225-3.768c-0.011-0.001,3.217-1.51,4.966-1.902
			c-0.015,0.017-0.032,0.03-0.047,0.047c0.02-0.012,0.045-0.034,0.037-0.037c1.577-0.843,8.617-3.3,10.486-3.729
			c-0.002-0.001,5.012-1.809,5.67-1.827c0.001-0.001,0.003-0.003,0.004-0.004c0.069-0.048,0.293-0.037,0.27-0.03
			c0.672-0.417,9.969-2.936,13.93-3.71c0.038-0.006,0.077-0.014,0.115-0.02c-0.022-0.005-0.043-0.005-0.065-0.01
			c3-1,18.336-4.524,20.33-4.72c2.35-0.34,9.99-1.45,11.39-1.78c0.765-0.243,14.99-0.91,14.99-0.91l0.03,0.08v-0.1h2.46
			c0.001,0.019-0.001,0.037,0,0.056c0.005-0.009,0-0.019,0.006-0.028c0.004-0.006,0.009-0.012,0.014-0.018l2.46-0.01v0.001v-0.001
			h2.264c0.067-0.048,0.14-0.089,0.196-0.15h14.92c0.085,0.047,0.178,0.089,0.273,0.13h2.287c0.057,0.021,0.117,0.031,0.174,0.05
			h0.976c0.02,0.004,0.041,0.004,0.061,0.009c-0.01-0.007-0.021-0.011-0.031-0.019h2.52h2.17c0.02,0.021,0.018,0.05,0.03,0.075
			c0.001-0.018-0.001-0.037,0-0.055h1.56v0.226c0.942,0.174,1.93-0.085,2.842,0.328c0.019,0.007,0.039,0.009,0.058,0.017h2.08
			c5.46,0.41,10.92,0.93,16.35,1.64c0.337,0.058,0.671,0.135,1,0.23l0.022,0.022c3.962,0.39,7.9,0.989,11.798,1.797l4.64,0.66
			c4,0.92,8.027,1.847,12.08,2.78c0.242,0.07,0.477,0.164,0.7,0.28c0.008,0.009,0.018,0.016,0.026,0.024
			c1.702,0.24,3.371,0.675,4.974,1.296c0.007,0.006,0.01,0.015,0.016,0.021l1.447,0.293c0.009-0.009,0.019-0.014,0.027-0.025
			l1.55,0.33c-0.754,0.426-1.672,0.429-2.432,0.019c-0.015,0.005-0.033,0.004-0.047,0.011l-0.6-0.07c0-0.004,0-0.008,0-0.012
			c-7.287-0.417-14.593-0.318-21.89-0.268c-0.286,0.089-0.582,0.131-0.878,0.142c-0.789,0.135-1.593,0.17-2.392,0.098
			c0.019-0.021,0.043-0.025,0.063-0.042c-0.008,0.005-0.016,0.007-0.023,0.012l-2.51,0.1c0-0.003,0-0.006,0-0.009
			c-0.007,0.008-0.009,0.018-0.016,0.026c-0.005,0.005-0.009,0.009-0.014,0.014c-2.346,0.397-4.721,0.604-7.1,0.62l-10.23,1.49
			c-6.933,1.007-13.807,2.34-20.62,4c-0.12,0.02-0.241,0.022-0.362,0.035c-0.11,0.07-0.222,0.135-0.328,0.215
			c-0.607,0.384-1.289,0.633-2,0.73c-3.07,0.78-6.14,1.62-9.2,2.46c-1.39,0-2.54,1-3.94,0.9l-0.6,0.13
			c-0.007,0.007-0.015,0.009-0.022,0.016c-0.232,1.021-0.969,0.644-1.598,0.544c0.006-0.004,0.014-0.006,0.02-0.01l0,0l-2.72,0.65
			c-0.012,0.002-0.024,0.006-0.036,0.009c0.005,0,0.011,0.001,0.016,0.001l-1.94,0.84c-0.016,0.009-0.033,0.016-0.05,0.024
			c-0.663,0.796-1.707,1.163-2.722,0.958c-0.026,0.005-0.052,0.013-0.079,0.018c-0.078-0.032-0.167-0.002-0.21,0.07
			c-0.003,0.002-0.006,0.003-0.009,0.005c-0.161,1.082-1.248,0.77-1.871,1.115c-1.84,1-4,1.4-6,2.13
			c-0.682,0.272-1.41,0.403-2.144,0.396c-0.002,0.002-0.005,0.002-0.006,0.004c-1.687,0.48-3.324,1.12-4.89,1.91
			c-0.15,0.84-0.77,0.58-1.29,0.56l0,0c-0.011,0.006-0.022,0.014-0.033,0.02c-1.004,1.635-2.759,1.582-4.367,1.85l-2.23,0.68
			c-0.01,0.004-0.023,0.01-0.02,0.01l-11.842,5.606c-0.018,0.011-0.029,0.024-0.048,0.034c-0.026,0.006-5.65,3.09-5.65,3.09
			c-0.004,0.005-0.998,1.329-1.808,1.152c-0.041-0.009-0.133-0.024-0.137-0.02c-0.343,1.001-1.405,1.562-2.426,1.279
			c-0.003,0.006-1.818,1.128-2.191,1.23c-0.006,0.002-0.278,0.008-0.278,0.008c0-0.011-0.001-0.025-0.001-0.036
			c-0.006,0.006-0.013,0.01-0.019,0.016v0.115c0.01-0.004-1.69,1.812-3.086,1.785c-0.022,0.005-0.042,0.015-0.064,0.02
			c-0.46,0.26-0.84,0.7-1.44,0.67c0,0,0,0-0.001,0l-3.519,2.33c-0.005,0.007-0.012,0.011-0.017,0.018l0.017-0.008
			c-0.11,0.109-0.219,0.22-0.327,0.33c-0.009,0.007-0.015,0.017-0.024,0.024c-1.042,1.057-2.075,2.122-3.738,2.176
			c0,0-0.018,0.007-0.03,0.01c-0.364,0.05-2.693,2.12-2.99,2.52l-5.84,3.113c-0.022,0.02-0.047,0.037-0.07,0.057
			c-0.002,0,0.019,0.012,0.03,0.02c-1.626,1.376-12.399,9.311-12.8,9.82c-0.01,0.012-0.073,0.15-0.08,0.21
			c-0.07,0.68-1.23,1.49-1.3,1.61c-0.4,0.69-3.37,2.69-3.91,2.56c0,0,0.001-0.028-0.04,0c-2.434,1.876-4.724,3.932-6.85,6.15
			c0,0.002-0.002,0.003-0.002,0.004c0,0-0.988,1.876-1.608,2.456c-1.21,1.15-4.52,3.7-4.53,4.46l0,0c0,0-3.52,4.77-4.97,4.97
			c-0.004-0.004-0.63,0.62-0.63,0.62s-0.005,0.012,0,0.02c0,0.64-0.64,0.88-1,1.3c-0.79,1-3.585,4.514-4.583,4.893
			c-0.002,0.002-1.906,2.432-1.91,2.44c0.001-0.001-19.797,39.877-19.797,39.877c-0.019,0.028-0.046,0.047-0.07,0.068
			c-0.397,2.301-0.797,4.615-1.2,6.942c-0.01-0.128-0.006-0.257-0.014-0.385c-0.007,0.119-0.02,0.237-0.026,0.355
			c-0.609,6.777-0.191,13.608,1.24,20.26c0.004,0.073,0.016,0.144,0.023,0.216c0.008-0.082,0.005-0.163,0.017-0.246
			c0.618,1.893,1.226,3.786,1.843,5.689c0.008,0.008,0.019,0.012,0.027,0.021c0.002,0.016,0.007,0.032,0.009,0.048
			c0.401,0.811,2.451,3.842,2.481,4.852c0.821,0.464,1.286,1.373,1.18,2.31c0.68,1.7,2,3,2.83,4.61l0,0
			c0.425,0.307,0.736,0.745,0.889,1.247c0.007,0.005,4.051,4.373,4.051,4.373c0.96-0.13,1.18,0.49,1.25,1.24l1,1.2
			c-0.019,0.001-0.034-0.001-0.053,0c0.008,0.002,0.015,0.008,0.023,0.01c0.49,0.271,0.911,0.65,1.23,1.11
			c0.01,0.01,0.021,0.019,0.03,0.029c0.001-0.003-0.001-0.006,0-0.009l9.34,6.94c-0.034,0.005-0.067-0.004-0.1,0
			c0.024,0.013,0.046,0.028,0.07,0.04l2.69,1.3c0.043,0.015,0.082,0.039,0.124,0.056c-0.028-0.032-0.059-0.06-0.084-0.095
			c0.47-0.07,0.92-0.09,1,0.56c-0.045-0.003-0.088-0.016-0.132-0.023c0.029,0.023,0.063,0.039,0.092,0.063
			c0.055,0.045,0.12,0.069,0.183,0.1c-0.045-0.043-0.093-0.082-0.133-0.13c0.49,0.04,1.13-0.17,1.21,0.64
			c0.69-0.3,1.15-0.17,1.22,0.67c-0.036-0.006-0.066-0.028-0.101-0.036c0.015,0.025,0.038,0.038,0.051,0.066
			c3.669,1.801,7.431,3.406,11.27,4.81c0.01,0.014,0.022,0.022,0.032,0.035c-0.003-0.014-0.009-0.021-0.012-0.035
			c0.674,0.038,1.323,0.267,1.872,0.659c0-0.003-0.002-0.006-0.002-0.009c1.486,0.283,2.94,0.716,4.34,1.29
			c-0.03,0-0.06,0.001-0.09,0.001c0.03,0.007,0.06,0.011,0.09,0.019c6,1.53,12,2.7,18,3.69c0.01,0.014,0.022,0.022,0.032,0.034
			c-0.004-0.036-0.022-0.054-0.022-0.094l14.1,1.29c-0.077,0.028-0.154,0.041-0.232,0.062c0.064-0.005,0.128-0.004,0.192-0.012h6.36
			c8.017,0.095,16.032-0.306,24-1.2c0.56-0.07,1.09-0.03,1.6-0.04c0,0.014,0.011,0.031,0.017,0.046
			c0.01-0.013,0.025-0.022,0.033-0.036l6.25-0.86c0.005,0.001,0.01,0.002,0.014,0.003c-0.011-0.006-0.023-0.007-0.034-0.013
			c1.164-0.261,2.351-0.408,3.544-0.44c-0.005,0-0.009,0-0.014,0c3.74-0.71,7.48-1.41,11.22-2.14c2.52-0.5,5.04-1.03,7.57-1.54
			c0,0,0.006,0.034,0.01,0.03l9.4-2.5c0.29-0.07,1.026-0.211,1.114-0.194c-0.092-0.028-0.184-0.056-0.274-0.076l2.19-0.63
			c-0.005,0.023-0.014,0.034-0.019,0.056c0.009-0.01,8.098-2.302,8.137-2.309c-0.039-0.005-0.079-0.001-0.118-0.007l5-1.86
			c0.015-0.018,1.044-0.519,1.61-0.56l0,0c0.01-0.005,3.485-1.247,3.5-1.25l2.34-0.691c0.006-0.007,0.014-0.012,0.02-0.019
			c0.05-0.17,0.12-0.3,0.33-0.21c0.033,0.007,0.063,0.003,0.095,0.007l6.421-2.455c0.009-0.016,0.025-0.026,0.034-0.043
			c0.332-0.284,0.766-0.418,1.2-0.37c0.017-0.003,0.033-0.008,0.05-0.011c0.951-0.557,1.977-0.975,3.045-1.244
			c0.008-0.006,0.017-0.01,0.025-0.016c0.017-0.001,0.033-0.007,0.051-0.008l0.619-0.492c0,0,0.014-0.017-0.03-0.05
			c0.42-1.15,3.774-1.91,4.422-1.851l0.558-0.239c0.063-0.048,3.114-2.022,4.89-2.32v-0.04c0-1.14,0.91-0.28,1.27-0.6
			c0-1.09,0.82-0.45,1.26-0.62l0.1,0.12c0,0.007,0.011,0.013,0.018,0.012l-0.128-0.162c0.09-0.51,2.305-1.198,2.626-1.137
			c0.012-0.004,0.021-0.009,0.034-0.013c1.7-0.661,3.334-1.481,4.879-2.449c-0.135-0.567,3.831-2.651,5.371-3.301
			c0.14-0.05,0.38,0.11,0.57,0.17c0.094,0.026,0.193-0.015,0.24-0.1c0.018-0.022,0.042-0.039,0.06-0.061l-0.06,0.031
			c-0.206-0.391,0.481-1.145,0.56-1.16c2.44-0.94,4.5-2.58,6.83-3.73c0.89-0.39,6.02-3.18,7.45-4.61c0.6-0.6,2.315-2.741,2.33-2.74
			c1.415,0.128,2.802-0.448,3.71-1.54c0,0,4.589-3.722,6.52-3.49c0.23-1.73,0.23-1.73,2.53-1.87
			c-0.003,0.004-0.007,0.007-0.011,0.01c0.007-0.003,0.014-0.007,0.021-0.01l2.715-1.847c-0.002-0.001-0.003-0.002-0.005-0.003
			l0.95-0.92c0.001-0.002,0.002-0.002,0.002-0.004c0.005-0.855,0.513-1.025,1.197-0.969c0.016-0.01,0.034-0.017,0.05-0.027
			c0.006-0.013,0.017-0.02,0.023-0.033c0.628-1.571,1.991-2.734,3.647-3.097c0.009,0.005,0.012,0.011,0.02,0.016
			c0-0.005,0-0.011,0-0.016c-0.008-0.685,0.541-1.246,1.225-1.255c0.151-0.002,0.299,0.028,0.44,0.08l2.064-1.566
			c0.005,0.004,0.005,0.007,0.01,0.011c0-0.003,0-0.008,0-0.011c0.314-0.42,0.726-0.756,1.197-0.985
			c0.006-0.019,0.018-0.035,0.023-0.055c0.025-0.011,0.047-0.025,0.072-0.037l6.138-5.843c0.006,0.011,0.015,0.019,0.021,0.03
			c1.197-1.259,2.724-2.178,3.749-3.62c0.076-0.1-0.08-0.29-0.03-0.35c1.5-1.86,2.83-3.88,5-5.03l0.92-0.88
			c0-0.003,0.301-0.4,0.301-0.401c-0.47-1.256,3.778-4.234,3.781-4.242c0.128-0.665,1.169-1.365,1.177-1.38
			c-0.09-0.996,2.971-4.438,3.821-4.888c-0.078,0.12-0.022,0.138,0.04,0c1.152-1.325,4.6-7.28,4.96-8.15
			c0.915-1.668,1.958-3.263,3.12-4.77c0.08-0.12,1.657-1.924,1.636-1.868c0.032-0.037,0.061-0.077,0.094-0.112
			c0.82-1.507,5.83-11.84,7.14-15.68c2.741-7.659,4.128-15.736,4.1-23.87c-0.078-6.843-1.509-13.602-4.21-19.89
			c-0.29-0.66-0.54-1.34-0.82-2l0,0l0,0c-1.71-3.36-4-6.38-5.86-9.62c1.9,0.61,2.95,2.19,4.13,3.62
			c0.03,0.03,4.655,4.832,4.244,5.581c0.001,0.007,7.875,7.934,8.04,8.946c0.02,0.036,3.076,3.163,4.226,4.463
			c1.555,1.66,2.877,3.524,3.93,5.54c1.829,1.912,3.305,4.133,4.36,6.56c2.827,4.797,5.265,9.813,7.29,15
			c0.081,0.243,0.147,0.49,0.2,0.74c0.113,0.126,0.136,0.294,0.092,0.445c1.246,3.049,2.208,6.205,2.864,9.433
			c0.019,0.04,0.034,0.082,0.054,0.122c0.07,0.079,0.09,0.192,0.05,0.29c0.002,0.023,0.005,0.047,0.007,0.07
			c1.002,3.644,1.608,7.386,1.803,11.16C405.529,217.42,402.962,233.824,402.962,233.82z M76.532,272.852
			c-0.19,0.09-0.59-0.01-0.69-0.11c0.11-0.05,0.22-0.17,0.32-0.16S76.362,272.752,76.532,272.852z"/>
		<path style="fill:#F4F4F4;" d="M394.122,257.043c0.009-0.014,0.02-0.027,0.03-0.042c-0.003,0-0.006,0.001-0.009,0.001
			C394.135,257.016,394.128,257.03,394.122,257.043z"/>
		<path style="fill:#F4F4F4;" d="M392.922,259.456c0.013-0.004,0.022-0.013,0.035-0.016l-0.017-0.013L392.922,259.456z"/>
		<path style="fill:#F4F4F4;" d="M346.352,247.582c0.004-0.008,0.008-0.015,0.012-0.023c-0.005-0.007-0.007-0.015-0.012-0.022
			V247.582z"/>
		<path style="fill:#F4F4F4;" d="M209.393,318.598c0.03-0.01,0.061-0.018,0.092-0.029c-0.062-0.007-0.123-0.015-0.185-0.018
			C209.331,318.567,209.362,318.582,209.393,318.598z"/>
		<path style="fill:#F4F4F4;" d="M320.822,259.566c0.023-0.031,0.036-0.063,0.06-0.094c-0.035-0.009-0.063-0.006-0.095-0.011
			C320.797,259.496,320.81,259.531,320.822,259.566z"/>
		<path style="fill:#F4F4F4;" d="M333.269,259.794c0.012-0.003,0.022-0.009,0.033-0.012c0.001,0.008-0.002,0.013-0.001,0.021
			c0.01-0.011,0.021-0.021,0.03-0.033c-0.008-0.006-0.019-0.011-0.027-0.017C333.294,259.77,333.279,259.779,333.269,259.794z"/>
		<path style="fill:#F4F4F4;" d="M343.438,297.89c0.041-0.018,0.093-0.028,0.142-0.039c-0.06-0.022-0.116-0.052-0.178-0.068
			C343.416,297.819,343.424,297.853,343.438,297.89z"/>
		<path style="fill:#F4F4F4;" d="M344.493,248.902c0.002,0,0.004-0.001,0.007-0.002c-0.006-0.007-0.006-0.004-0.006-0.002
			S344.493,248.901,344.493,248.902z"/>
		<polygon style="fill:#F4F4F4;" points="344.489,248.905 344.492,248.907 344.492,248.902 344.49,248.902 		"/>
		<path style="fill:#F4F4F4;" d="M344.112,243.422c0.008-0.009,0.018-0.014,0.025-0.023c-0.018-0.002-0.037-0.003-0.055-0.005
			C344.093,243.402,344.101,243.414,344.112,243.422z"/>
		<path style="fill:#F4F4F4;" d="M42.982,185.652c0.019-0.04,0.036-0.081,0.064-0.119c-0.022-0.013-0.043-0.02-0.064-0.027V185.652z
			"/>
		<path style="fill:#F4F4F4;" d="M74.682,227.792c-0.004,0.007-0.005,0.015-0.008,0.021c0.01-0.014,0.017-0.03,0.028-0.044
			C74.694,227.777,74.689,227.785,74.682,227.792z"/>
		<path style="fill:#F4F4F4;" d="M271.604,107.981c-0.037,0.016-0.075,0.024-0.112,0.041c-0.012,0.013-0.025,0.019-0.037,0.03h0.077
			C271.554,108.026,271.581,108.006,271.604,107.981z"/>
		<path style="fill:#F4F4F4;" d="M62.303,283.116c0.001-0.01,0.001-0.021,0.001-0.031c-0.009,0.006-0.019,0.012-0.029,0.018
			C62.285,283.107,62.294,283.112,62.303,283.116z"/>
		<path style="fill:#F4F4F4;" d="M45.891,262.02c0.01-0.044,0.007-0.083,0.021-0.128c-0.037-0.003-0.062-0.015-0.096-0.021
			C45.841,261.921,45.866,261.971,45.891,262.02z"/>
		<path style="fill:#F4F4F4;" d="M58.325,273.928c0.025,0.026,0.048,0.058,0.072,0.09c0.037-0.055,0.067-0.112,0.117-0.164
			c-0.002-0.002-0.004-0.004-0.006-0.006C58.449,273.879,58.386,273.901,58.325,273.928z"/>
		<path style="fill:#F4F4F4;" d="M43.722,257.452c0.137,0,0.224-0.036,0.29-0.086c-0.171-0.075-0.318-0.151-0.421-0.233
			C43.617,257.239,43.655,257.345,43.722,257.452z"/>
		<path style="fill:#F4F4F4;" d="M250.322,100.218c0.181,0.032,0.361,0.08,0.54,0.127
			C250.725,100.251,250.53,100.214,250.322,100.218z"/>
		<path style="fill:#F4F4F4;" d="M269.404,102.755c-0.022,0.006-0.044,0.007-0.067,0.014c0.003,0.004,0.006,0.008,0.008,0.012
			C269.365,102.771,269.384,102.764,269.404,102.755z"/>
		<path style="fill:#F4F4F4;" d="M211.433,98.757c-0.009,0.006-0.019,0.009-0.028,0.015l-0.078,0.098
			c0.039-0.014,0.078-0.02,0.116-0.038L211.433,98.757z"/>
		<path style="fill:#F4F4F4;" d="M77.148,220.093c-0.049,0.103-0.103,0.203-0.151,0.307c0.013-0.005,0.021-0.013,0.035-0.018
			C77.096,220.382,77.128,220.25,77.148,220.093z"/>
		<polygon style="fill:#F4F4F4;" points="155.558,107.124 155.552,107.122 155.554,107.127 		"/>
		<path style="fill:#F4F4F4;" d="M174.32,315.574c0.008-0.004,0.015-0.007,0.023-0.01c-0.063-0.041-0.126-0.079-0.182-0.131
			C174.211,315.484,174.264,315.531,174.32,315.574z"/>
		<path style="fill:#F4F4F4;" d="M149.193,313.562h0.079c0.009,0.051,0.025,0.089,0.038,0.132c0.193-0.081,0.386-0.139,0.581-0.176
			c-0.206-0.009-0.413-0.012-0.619,0.005C149.247,313.538,149.218,313.547,149.193,313.562z"/>
		<path style="fill:#F4F4F4;" d="M159.245,316.37c0.066-0.018,0.13-0.027,0.197-0.048c-0.072-0.022-0.141-0.033-0.212-0.052
			C159.234,316.304,159.244,316.332,159.245,316.37z"/>
		<path style="fill:#F4F4F4;" d="M195.13,312.291c0.008,0.001,0.014,0,0.022,0.001c-0.006-0.005-0.012-0.008-0.018-0.013
			C195.133,312.283,195.13,312.288,195.13,312.291z"/>
		<polygon style="fill:#F4F4F4;" points="116.974,307.31 116.982,307.312 116.987,307.316 116.986,307.311 		"/>
		<path style="fill:#F4F4F4;" d="M198.95,320.433c0.027-0.011,0.055-0.019,0.082-0.031c-0.054-0.003-0.108-0.002-0.162-0.005
			C198.896,320.411,198.924,320.419,198.95,320.433z"/>
		<polygon style="fill:#F4F4F4;" points="174.111,315.382 174.115,315.386 174.112,315.382 		"/>
		<path style="fill:#F4F4F4;" d="M142.282,328.592c-0.115,0.048-0.228,0.071-0.341,0.105c0.185,0.057,0.369,0.118,0.552,0.181
			c-0.002-0.054-0.008-0.104,0-0.166C142.492,328.552,142.492,328.502,142.282,328.592z"/>
		<path style="fill:#F4F4F4;" d="M142.31,313.562c-0.004-0.001-0.009-0.002-0.013-0.003c0.001,0.001,0.001,0.002,0.002,0.003H142.31
			z"/>
		<path style="fill:#F4F4F4;" d="M141.822,320.661c0.013-0.008,0.026-0.01,0.039-0.019c-0.013-0.004-0.026-0.007-0.039-0.011
			C141.824,320.64,141.822,320.652,141.822,320.661z"/>
		<path style="fill:#005BA5;" d="M293.612,132.632l-2.5,0.07c-0.071,0.021-0.145,0.02-0.217,0.033
			c-0.449-0.039-0.899-0.02-1.342,0.058c-0.25,0.009-0.498,0.035-0.741,0.129l-0.11-0.06l-0.1,0.07
			c-0.001,0.003-0.001,0.006-0.002,0.01c-1.444-0.087-2.891,0.004-4.315,0.253c-0.127,0.02-0.256,0.02-0.382,0.047
			c-1.733-0.089-3.471,0.018-5.18,0.32c-0.045,0.014-0.09,0.021-0.134,0.033c0.028-0.013,0.056-0.02,0.084-0.033
			c-1.337-0.091-2.681-0.017-4,0.22c0.004,0,0.008,0.001,0.011,0.001l-4.381,0.089l-1.53,0.32c-0.041,0.08-0.044,0.168-0.027,0.25
			l-0.023-0.25c-1.223-0.085-2.451-0.025-3.66,0.18c0.002,0,0.004,0,0.007,0.001c-2.1,0.01-4.197,0.16-6.277,0.449
			c-0.007,0-0.013,0.008-0.02,0.011v-0.011c-1.132-0.093-2.271-0.042-3.39,0.15c0.003,0,0.006,0,0.008,0.001
			c-1.923,0.024-3.843,0.167-5.748,0.429c-1.533-0.081-3.069,0.021-4.58,0.288c-0.143,0.01-0.287,0.011-0.43,0.022
			c-5.247,0.15-15.7,0.992-15.7,0.99c-1.289-0.136-8.708,0.364-8.761,0.378c-1.419-0.177-16.089,0.522-17.519,0.742
			c-3.46,0.459-6.954,0.603-10.44,0.43c-0.5-0.02-4.94,3-4.94,4.3l0.153,0.102c-0.009,0.01-0.017,0.021-0.026,0.03
			c-0.003-0.008-0.004-0.015-0.007-0.022l-0.12-0.11c-0.337,0.035-0.597,0.312-0.61,0.65c-0.74,0.1-0.6,0.69-0.6,1.17l0,0l0,0
			c-0.063,0.079-0.159,0.123-0.26,0.12c-0.002,0.007-0.005,0.013-0.007,0.02c-0.298-0.011-0.625-0.077-0.853,0.2
			c-1.31,1.58-2.44,3.32-3.62,5c-0.48,0.69-1.41,1.21-1.48,2.21c-0.9,0.24-1.11,1.24-1.49,1.81c-0.836,1.12-2.176,2.09-2.155,3.728
			c-0.015,0.027-0.028,0.057-0.045,0.082c-0.006,0.005-0.012,0.011-0.018,0.016c-0.859,0.208-1.444,0.576-1.184,1.554
			c-0.008,0.021-0.02,0.039-0.028,0.06c-0.72,1.188-1.554,2.303-2.49,3.33c-0.56-0.04-0.82,0.43-1.11,0.75
			c-2.354,2.741-4.516,5.641-6.47,8.68c-0.25,0.37-0.61,0.71-0.5,1.24l-0.1,0.49c-0.332,0.174-0.564,0.491-0.63,0.86
			c0.001,0.003,0.004,0.005,0.005,0.009c-0.002,0.004-0.003,0.008-0.005,0.012l-2.99,3.489c-0.014,0.013-0.02,0.031-0.033,0.045
			l0.003-0.035c-1.081-0.348-0.535,0.474-0.632,0.832c-0.017,0.016-0.03,0.033-0.048,0.048l-0.68,0.94
			c-0.011,0.016-0.024,0.03-0.036,0.046c-1.331,0.429-2.245,1.643-2.295,3.037c-0.012,0.03-0.028,0.057-0.039,0.087
			c-0.088,0.048-0.13,0.105-0.155,0.166c-0.763,0.572-2.076,0.777-1.785,2.259c-0.981,0.555-2.597,0.631-1.85,2.475l0.159,0.088
			l-0.029,0.032l-0.012,0.029c-0.042-0.029-0.083-0.062-0.118-0.099c-1.274,0.375-1.427,1.559-1.758,2.552
			c-0.006,0.005-0.012,0.012-0.018,0.017c0.005-0.01,0.011-0.019,0.016-0.029c-1.128,0.449-2.046,1.038-1.89,2.473
			c-0.069,0.007-0.138,0.017-0.206,0.033c-0.789,0.19-1.275,0.985-1.084,1.774c0.023-0.02,0.043-0.044,0.066-0.065
			c-0.002,0.005-0.005,0.01-0.006,0.015l-1.24,1.88c-0.019,0.034-0.044,0.064-0.063,0.097c0-0.017,0.004-0.031,0.003-0.047
			l-1.19,1.26c-0.009,0.008-0.017,0.018-0.027,0.027c-1.932,1.135-3.417,2.608-3.73,4.968c-0.001,0.002-0.002,0.004-0.003,0.006
			c-0.25,0.8-1.19,1.26-1.25,2.26c1.494,0.012,2.983-0.12,4.456-0.368c0.003,0,0.006-0.001,0.009-0.001
			c0.101-0.017,0.204-0.022,0.305-0.041c-0.03-0.002-0.059-0.012-0.089-0.016c0.043-0.012,0.086-0.018,0.129-0.034h1.07
			c-0.003,0.004-0.007,0.006-0.01,0.01c2.67,0.011,5.337-0.156,7.987-0.482c0.005,0.005,0.008,0.008,0.013,0.012
			c0.295,0.034,0.593-0.004,0.87-0.11l1.44-0.06l0.001-0.001c1.067-0.029,2.143-0.05,3.209-0.109l19.38-1.15l0.001-0.001
			c0.001,0.004-0.002,0.007-0.001,0.011l1.69,0.06c5.1,0.2,10.15-0.79,15.25-0.72c1.307,0.135,2.623,0.135,3.93,0
			c2.891-0.472,5.822-0.656,8.75-0.55c0.5-0.01,1.08,0.14,1.25-0.59c1.96-0.11,3.98,0.23,5.87-0.6c0.95-0.19,1.94,0.07,2.86-0.32
			c1.511,0.083,3.026,0.006,4.52-0.23l-0.135-0.018c0.044-0.011,0.091-0.007,0.135-0.022c1.437,0.041,2.873-0.031,4.299-0.208
			c0.375,0.008,0.769-0.123,1.151-0.162c3.31-0.013,6.616-0.227,9.9-0.64c1.111,0.094,2.227,0.045,3.325-0.13
			c0.262-0.008,0.524-0.051,0.775-0.14c1.957,0.055,3.915-0.065,5.85-0.36c0.043-0.138-0.009-0.276-0.104-0.379l0.054-0.001h0.177
			c-0.041,0.028-0.088,0.039-0.127,0.07v0.31c1.138,0.092,2.282,0.037,3.407-0.147c0.212-0.01,0.422-0.042,0.626-0.111
			c0.021-0.004,0.043-0.007,0.064-0.011c1.27,0.064,2.543,0.015,3.803-0.142c0.365,0.064,0.769-0.12,1.149-0.158
			c1.48-0.06,2.99-0.07,4.48-0.17c6.41-0.45,12.83-0.97,19.25-1.45c0.089-0.001,0.175-0.015,0.263-0.018
			c0.725-0.001,1.429,0.172,2.196,0.118c2.04-0.17,3.99-0.89,6.1-0.8c1.048,0.094,3.33-0.69,3.49-0.69c1.8-0.03,3.59-0.12,4.89-1.64
			l1.3-0.39c4.24-1,12.42-4,12.42-4l0,0c0,0,3.77-0.87,4.56-1.17c1.983-0.668,6.5-3.876,6.495-3.874
			c0.001-0.002,8.395-5.576,8.395-5.576c2.029-1.102,3.804-2.618,5.21-4.45c1.136-0.437,2.039-1.329,2.49-2.46l0.06,0.06l-0.06-0.07
			c0.42-0.14,0.48-0.68,0.9-0.82c1.485-1.315,2.683-2.922,3.52-4.72c0.878-0.615,1.514-1.517,1.8-2.55l0.004,0.006
			c0.606-0.699,1.643-1.159,1.363-2.334c0.042-0.003,0.078-0.015,0.123-0.012l1.1-1.33c0.63-1,1.27-2,1.9-3
			c0.003-0.007,0.006-0.014,0.009-0.021c0.533-0.525,0.959-1.148,1.253-1.835c0.003-0.001,0.005-0.003,0.007-0.004
			c0-0.003,0-0.006,0-0.009c0,0,0,0,0-0.001l0,0c-0.001-0.05-0.003-0.1-0.005-0.15c0.934,0.271,0.819-0.746,1.196-1.16
			c2.015-2.018,3.299-4.65,3.65-7.48l0.13-0.58c0.486-1.185,0.453-2.52-0.09-3.68c-0.297-0.775,0.111-1.943-1.15-2.112
			c0-0.073,0-0.145,0-0.218c-0.16-2.26-1.91-3.32-3.47-4.48c-0.93-0.4-1.66-1.22-2.71-1.4l-0.08,0.11
			c-0.008,0.026-0.008,0.047-0.015,0.072c-0.006-0.017-0.017-0.031-0.023-0.048l0.108-0.144l-0.69-0.52
			c-4.016-1.314-8.206-2.018-12.43-2.09c-0.116,0.003-0.232,0.002-0.349,0.005c-3.075-0.164-6.157-0.164-9.233,0
			c-0.116-0.004-0.232-0.001-0.349-0.005c-6.756,0.23-13.506,0.676-20.254,1.154c-0.155,0.01-0.311,0.015-0.466,0.026
			c-0.186,0.017-0.384,0.027-0.578,0.049c-1.404,0.1-2.808,0.2-4.212,0.301l0,0c-0.558-0.081-1.128-0.01-1.651,0.2
			c-0.013,0.005-0.026,0.004-0.039,0.01C297.032,132.198,295.304,132.306,293.612,132.632z M149.512,192.942
			c-0.022,0.016-0.04,0.036-0.062,0.053c0-0.001,0.001-0.002,0.002-0.003c-0.004,0-0.008,0.002-0.012,0.002
			c0.033-0.03,0.062-0.064,0.094-0.095C149.527,192.914,149.518,192.927,149.512,192.942z M153.072,204.142h-0.153
			c0.046-0.034,0.098-0.074,0.139-0.104c0.012,0.018,0.026,0.035,0.033,0.054h0.058C153.124,204.111,153.095,204.12,153.072,204.142
			z M177.284,156.269l0.058-0.067c0,0,0,0,0.001-0.001c0.001,0.025,0.004,0.045,0.005,0.069
			C177.325,156.269,177.305,156.27,177.284,156.269z M179.252,200.356c-0.021,0.02-0.041,0.042-0.063,0.061l-0.03,0.004
			c0.032-0.029,0.064-0.057,0.094-0.088C179.252,200.34,179.252,200.347,179.252,200.356z M181.755,198.013
			c-0.001-0.003-0.002-0.006-0.004-0.009c0.011-0.001,0.019-0.001,0.03-0.003C181.772,198.006,181.764,198.009,181.755,198.013z
			 M183.592,148.812l-0.006-0.142c0.067-0.006,0.134-0.013,0.2-0.024C183.719,148.699,183.661,148.761,183.592,148.812z
			 M199.122,199.792h-0.004c0.004-0.006,0.01-0.01,0.014-0.016c0.002,0.008,0.006,0.013,0.009,0.021L199.122,199.792z
			 M199.145,199.752c0.003-0.005,0.005-0.011,0.008-0.016c0,0.005,0.003,0.01,0.003,0.016H199.145z M215.272,200.376
			c-0.026-0.022-0.059-0.034-0.087-0.054h0.037c0.016-0.016,0.034-0.03,0.05-0.045C215.273,200.311,215.269,200.34,215.272,200.376z
			 M221.612,199.169l-0.05-0.027h0.056C221.614,199.15,221.614,199.161,221.612,199.169z M224.762,198.6
			c-0.004-0.021-0.011-0.039-0.017-0.059c0.033,0,0.063,0.001,0.096,0.001L224.762,198.6z M227.101,199.172
			c-0.004-0.005-0.01-0.006-0.014-0.011c0.009-0.003,0.019-0.002,0.028-0.005C227.11,199.162,227.106,199.167,227.101,199.172z
			 M227.299,137.131c0.003-0.029,0.004-0.059,0.005-0.091l0.088,0.003C227.364,137.08,227.33,137.103,227.299,137.131z
			 M228.06,198.542h-0.339h-0.013l0,0c0.004,0,0.008,0.001,0.013,0c0.061-0.219,0.263-0.241,0.461-0.271
			C228.137,198.362,228.095,198.459,228.06,198.542z M228.872,137.042c0.011-0.01,0.025-0.014,0.035-0.024
			c0.004,0.009,0.013,0.015,0.018,0.024H228.872z M248.831,137.662c0.001-0.001,0.003-0.001,0.004-0.003
			c0.001,0.001,0.002,0.002,0.003,0.003H248.831z M256.255,197.274c-0.001-0.001-0.003-0.001-0.004-0.002c0.002,0,0.003,0,0.005,0
			C256.255,197.273,256.255,197.273,256.255,197.274z M257.593,192.965c-0.001-0.001-0.001-0.002-0.002-0.003
			c0.001,0,0.002,0,0.004,0C257.594,192.963,257.594,192.964,257.593,192.965z M268.772,134.512
			c-0.007-0.001-0.013-0.001-0.02-0.002l-0.004-0.042c0.006,0.021,0.029,0.034,0.039,0.054h-0.009
			C268.774,134.519,268.774,134.515,268.772,134.512z M268.779,135.156c0.001-0.001,0.002-0.001,0.003-0.002
			c0.004,0.004,0.012,0.008,0.017,0.012C268.792,135.162,268.786,135.16,268.779,135.156z M288.575,133.292
			c0.011-0.009,0.025-0.011,0.037-0.02v-0.009c0.005,0.01,0.01,0.02,0.016,0.029H288.575z M293.612,133.282l-0.008,0.01h-0.086
			c0.031-0.013,0.064-0.017,0.095-0.03c0.011,0.008,0.025,0.012,0.036,0.02H293.612z M354.788,140.144
			c-0.001,0.012-0.002,0.024-0.002,0.036c-0.021-0.024-0.044-0.046-0.061-0.071C354.746,140.121,354.768,140.132,354.788,140.144z
			 M345.606,162.998l0.046,0.074l-0.05-0.07C345.603,163.001,345.605,163,345.606,162.998z M320.972,131.352
			c0.032,0.027,0.069,0.045,0.103,0.07h-0.026c-0.028-0.027-0.061-0.047-0.091-0.07H320.972z M304.151,188.372
			c0.002,0.022,0.002,0.044,0.006,0.065c-0.032-0.009-0.064-0.015-0.096-0.025C304.09,188.396,304.122,188.387,304.151,188.372z
			 M303.479,132.622c-0.005,0.015-0.013,0.025-0.017,0.04c0.005,0.008,0.011,0.012,0.016,0.02h-0.073
			C303.429,132.662,303.455,132.644,303.479,132.622z M298.012,192.972c-0.021,0.009-0.043,0.016-0.063,0.025
			c-0.002-0.008-0.006-0.017-0.009-0.025H298.012z"/>
		<path style="fill:#005BA5;" d="M404.815,219.49c0.042-0.211,0.05-0.427,0.013-0.64
			C404.827,219.064,404.822,219.277,404.815,219.49z"/>
		<path style="fill:#005BA5;" d="M211.452,98.626c0.001-0.057,0.004-0.115,0-0.173C211.436,98.513,211.44,98.57,211.452,98.626z"/>
		<path style="fill:#005BA5;" d="M402.949,198.282c-0.002-0.023-0.005-0.047-0.007-0.07c0.04-0.098,0.02-0.211-0.05-0.29
			c-0.02-0.04-0.035-0.082-0.054-0.122c-0.656-3.228-1.618-6.384-2.864-9.433c0.045-0.151,0.021-0.319-0.092-0.445
			c-0.053-0.25-0.119-0.497-0.2-0.74c-2.025-5.187-4.463-10.203-7.29-15c-1.055-2.427-2.531-4.648-4.36-6.56
			c-1.053-2.016-2.375-3.88-3.93-5.54c-1.15-1.3-4.206-4.427-4.226-4.463c-0.165-1.012-8.039-8.939-8.04-8.946
			c0.411-0.749-4.214-5.551-4.244-5.581c-1.18-1.43-2.23-3.01-4.13-3.62c1.86,3.24,4.15,6.26,5.86,9.62l0,0l0,0
			c0.28,0.66,0.53,1.34,0.82,2c2.701,6.288,4.132,13.047,4.21,19.89c0.028,8.134-1.359,16.211-4.1,23.87
			c-1.31,3.84-6.32,14.173-7.14,15.68c-0.034,0.036-0.062,0.076-0.094,0.112c0.021-0.056-1.556,1.748-1.636,1.868
			c-1.162,1.507-2.205,3.102-3.12,4.77c-0.36,0.87-3.808,6.825-4.96,8.15c-0.062,0.138-0.118,0.12-0.04,0
			c-0.85,0.45-3.911,3.892-3.821,4.888c-0.008,0.014-1.048,0.714-1.177,1.38c-0.004,0.008-4.251,2.986-3.781,4.242
			c0,0-0.301,0.398-0.301,0.401l-0.92,0.88c-2.17,1.15-3.5,3.17-5,5.03c-0.05,0.06,0.105,0.25,0.03,0.35
			c-1.024,1.442-2.552,2.361-3.749,3.62c-0.006-0.011-0.016-0.019-0.021-0.03l-6.138,5.843c-0.025,0.011-0.047,0.026-0.072,0.037
			c-0.005,0.02-0.017,0.036-0.023,0.055c-0.471,0.229-0.883,0.565-1.197,0.985c0,0.003,0,0.008,0,0.011
			c-0.004-0.004-0.005-0.007-0.01-0.011l-2.064,1.566c-0.141-0.052-0.29-0.082-0.44-0.08c-0.685,0.008-1.233,0.57-1.225,1.255
			c0,0.005,0,0.011,0,0.016c-0.008-0.005-0.011-0.011-0.02-0.016c-1.656,0.363-3.019,1.526-3.647,3.097
			c-0.007,0.013-0.017,0.02-0.023,0.033c-0.016,0.01-0.034,0.017-0.05,0.027c-0.684-0.056-1.192,0.113-1.197,0.969
			c-0.001,0.002-0.002,0.002-0.002,0.004l-0.95,0.92c0.002,0.001,0.003,0.002,0.005,0.003l-2.715,1.847
			c-0.007,0.003-0.014,0.007-0.021,0.01c0.003-0.004,0.007-0.007,0.011-0.01c-2.3,0.14-2.3,0.14-2.53,1.87
			c-1.931-0.232-6.52,3.49-6.52,3.49c-0.908,1.092-2.295,1.668-3.71,1.54c-0.015-0.001-1.73,2.14-2.33,2.74
			c-1.43,1.43-6.56,4.22-7.45,4.61c-2.33,1.15-4.39,2.79-6.83,3.73c-0.079,0.015-0.766,0.769-0.56,1.16l0.06-0.031
			c-0.019,0.022-0.042,0.039-0.06,0.061c-0.047,0.085-0.146,0.126-0.24,0.1c-0.19-0.06-0.43-0.22-0.57-0.17
			c-1.54,0.65-5.506,2.734-5.371,3.301c-1.545,0.968-3.179,1.789-4.879,2.449c-0.013,0.004-0.021,0.009-0.034,0.013
			c-0.321-0.061-2.536,0.627-2.626,1.137l0.128,0.162c-0.007,0.001-0.018-0.006-0.018-0.012l-0.1-0.12
			c-0.44,0.17-1.26-0.47-1.26,0.62c-0.36,0.32-1.27-0.54-1.27,0.6v0.04c-1.776,0.298-4.827,2.272-4.89,2.32l-0.558,0.239
			c-0.649-0.059-4.002,0.701-4.422,1.851c0.044,0.033,0.03,0.05,0.03,0.05l-0.619,0.492c-0.017,0.001-0.033,0.008-0.051,0.008
			c-0.008,0.006-0.017,0.01-0.025,0.016c-1.069,0.269-2.095,0.687-3.045,1.244c-0.017,0.003-0.033,0.008-0.05,0.011
			c-0.434-0.048-0.868,0.086-1.2,0.37c-0.008,0.016-0.024,0.027-0.034,0.043l-6.421,2.455c-0.032-0.005-0.063-0.001-0.095-0.007
			c-0.21-0.09-0.28,0.04-0.33,0.21c-0.006,0.007-0.014,0.012-0.02,0.019l-2.34,0.691c-0.015,0.003-3.49,1.245-3.5,1.25l0,0
			c-0.565,0.041-1.594,0.542-1.61,0.56l-5,1.86c0.039,0.006,0.079,0.002,0.118,0.007c-0.04,0.007-8.129,2.299-8.137,2.309
			c0.005-0.022,0.014-0.033,0.019-0.056l-2.19,0.63c0.09,0.02,0.182,0.048,0.274,0.076c-0.088-0.017-0.824,0.124-1.114,0.194
			l-9.4,2.5c-0.004,0.004-0.01-0.03-0.01-0.03c-2.53,0.51-5.05,1.04-7.57,1.54c-3.74,0.73-7.48,1.43-11.22,2.14
			c0.005,0,0.009,0,0.014,0c-1.193,0.031-2.379,0.179-3.544,0.44c0.011,0.006,0.023,0.007,0.034,0.013
			c-0.005-0.001-0.01-0.002-0.014-0.003l-6.25,0.86c-0.008,0.015-0.023,0.023-0.033,0.036c-0.006-0.016-0.017-0.032-0.017-0.046
			c-0.51,0.01-1.04-0.03-1.6,0.04c-7.968,0.894-15.983,1.295-24,1.2h-6.36c-0.064,0.009-0.128,0.007-0.192,0.012
			c0.077-0.021,0.155-0.034,0.232-0.062l-14.1-1.29c0,0.04,0.018,0.059,0.022,0.094c-0.01-0.013-0.022-0.021-0.032-0.034
			c-6-0.99-12-2.16-18-3.69c-0.03-0.008-0.06-0.012-0.09-0.019c0.03,0,0.06-0.001,0.09-0.001c-1.4-0.574-2.854-1.007-4.34-1.29
			c0,0.003,0.002,0.006,0.002,0.009c-0.549-0.392-1.198-0.621-1.872-0.659c0.003,0.014,0.009,0.021,0.012,0.035
			c-0.01-0.013-0.022-0.021-0.032-0.035c-3.839-1.404-7.601-3.009-11.27-4.81c-0.013-0.028-0.036-0.041-0.051-0.066
			c0.035,0.008,0.065,0.029,0.101,0.036c-0.07-0.84-0.53-0.97-1.22-0.67c0.029,0.032,0.069,0.049,0.1,0.078
			c-0.05-0.016-0.102-0.029-0.15-0.049c-0.015-0.023-0.037-0.031-0.054-0.051c0.035,0.006,0.068,0.017,0.104,0.021
			c-0.08-0.81-0.72-0.6-1.21-0.64c0.04,0.048,0.088,0.087,0.133,0.13c-0.062-0.03-0.128-0.054-0.183-0.1
			c-0.029-0.024-0.062-0.04-0.092-0.063c0.044,0.007,0.087,0.02,0.132,0.023c-0.08-0.65-0.53-0.63-1-0.56
			c0.024,0.035,0.056,0.063,0.084,0.095c-0.042-0.017-0.081-0.041-0.124-0.056l-2.69-1.3c-0.024-0.012-0.046-0.028-0.07-0.04
			c0.034-0.004,0.067,0.006,0.1,0l-9.34-6.94c-0.001,0.003,0.001,0.006,0,0.009c-0.01-0.01-0.021-0.019-0.03-0.029
			c-0.319-0.46-0.74-0.839-1.23-1.11c-0.008-0.002-0.015-0.008-0.023-0.01c0.019-0.001,0.034,0.001,0.053,0l-1-1.2
			c-0.07-0.75-0.29-1.37-1.25-1.24c0,0-4.044-4.368-4.051-4.373c-0.152-0.502-0.464-0.94-0.889-1.247l0,0
			c-0.83-1.61-2.15-2.91-2.83-4.61c0.106-0.937-0.359-1.846-1.18-2.31l-0.087,0.087l0.087-0.087c-0.03-1.01-2.08-4.041-2.481-4.852
			c-0.002-0.016-0.008-0.032-0.009-0.048c-0.008-0.009-0.019-0.013-0.027-0.021c-0.618-1.903-1.225-3.796-1.843-5.689
			c-0.012,0.083-0.01,0.164-0.017,0.246c-0.006-0.072-0.019-0.143-0.023-0.216c-1.431-6.652-1.849-13.483-1.24-20.26
			c0.006-0.119,0.019-0.237,0.026-0.355c0.007,0.128,0.004,0.257,0.014,0.385c0.403-2.327,0.803-4.641,1.2-6.942
			c0.024-0.022,0.051-0.04,0.07-0.068c0,0,19.798-39.878,19.797-39.877c0.004-0.008,1.908-2.438,1.91-2.44
			c0.997-0.379,3.793-3.893,4.583-4.893c0.36-0.42,1-0.66,1-1.3c-0.005-0.008,0-0.02,0-0.02s0.626-0.624,0.63-0.62
			c1.45-0.2,4.97-4.97,4.97-4.97l0,0c0.01-0.76,3.32-3.31,4.53-4.46c0.62-0.58,1.608-2.456,1.608-2.456
			c0-0.002,0.002-0.003,0.002-0.004c2.126-2.218,4.416-4.274,6.85-6.15c0.041-0.028,0.04,0,0.04,0c0.54,0.13,3.51-1.87,3.91-2.56
			c0.07-0.12,1.23-0.93,1.3-1.61c0.007-0.06,0.07-0.198,0.08-0.21c0.401-0.509,11.174-8.444,12.8-9.82
			c-0.011-0.008-0.032-0.02-0.03-0.02c0.022-0.02,0.047-0.037,0.07-0.057l5.84-3.113c0.297-0.4,2.626-2.47,2.99-2.52
			c0.012-0.003,0.03-0.01,0.03-0.01c1.663-0.054,2.696-1.118,3.738-2.176c0.009-0.007,0.015-0.017,0.024-0.024
			c0.109-0.11,0.217-0.221,0.327-0.33l-0.017,0.008c0.005-0.007,0.012-0.011,0.017-0.018l3.519-2.33c0,0,0,0,0.001,0
			c0.6,0.03,0.98-0.41,1.44-0.67c0.022-0.005,0.042-0.015,0.064-0.02c1.397,0.026,3.097-1.789,3.086-1.785v-0.115
			c0.006-0.006,0.013-0.01,0.019-0.016c0,0.011,0.001,0.026,0.001,0.036c0,0,0.272-0.006,0.278-0.008
			c0.372-0.102,2.188-1.224,2.191-1.23c1.02,0.283,2.083-0.278,2.426-1.279c0.005-0.004,0.096,0.011,0.137,0.02
			c0.81,0.177,1.804-1.147,1.808-1.152c0,0,5.624-3.084,5.65-3.09c0.019-0.01,0.03-0.023,0.048-0.034l11.842-5.606
			c-0.003,0,0.01-0.006,0.02-0.01l2.23-0.68c1.609-0.268,3.364-0.215,4.367-1.85c0.011-0.006,0.022-0.014,0.033-0.02l0,0
			c0.52,0.02,1.14,0.28,1.29-0.56c1.566-0.79,3.203-1.43,4.89-1.91c0.002-0.002,0.005-0.002,0.006-0.004
			c0.734,0.007,1.462-0.125,2.144-0.396c2-0.73,4.16-1.13,6-2.13c0.622-0.346,1.71-0.033,1.871-1.115
			c0.003-0.002,0.006-0.003,0.009-0.005c0.043-0.072,0.132-0.102,0.21-0.07c0.027-0.005,0.052-0.013,0.079-0.018
			c1.015,0.205,2.059-0.162,2.722-0.958c0.016-0.009,0.033-0.016,0.05-0.024l1.94-0.84c-0.005,0-0.011-0.001-0.016-0.001
			c0.012-0.002,0.024-0.006,0.036-0.009l2.72-0.65l0,0c-0.006,0.004-0.014,0.006-0.02,0.01c0.629,0.1,1.366,0.477,1.598-0.544
			c0.007-0.007,0.015-0.009,0.022-0.016l0.6-0.13c1.4,0.1,2.55-0.9,3.94-0.9c3.06-0.84,6.13-1.68,9.2-2.46
			c0.711-0.097,1.393-0.346,2-0.73c0.107-0.08,0.219-0.144,0.328-0.215c0.12-0.014,0.242-0.015,0.362-0.035
			c6.813-1.66,13.687-2.993,20.62-4l10.23-1.49c2.379-0.016,4.754-0.223,7.1-0.62c0.005-0.005,0.009-0.009,0.014-0.014
			c0.007-0.008,0.01-0.018,0.016-0.026c0,0.003,0,0.006,0,0.009l2.51-0.1c0.007-0.006,0.016-0.007,0.023-0.012
			c-0.02,0.018-0.044,0.021-0.063,0.042c0.799,0.072,1.603,0.037,2.392-0.098c0.296-0.011,0.592-0.053,0.878-0.142
			c7.297-0.05,14.603-0.149,21.89,0.268c0,0.004,0,0.008,0,0.012l0.6,0.07c0.015-0.006,0.032-0.006,0.047-0.011
			c0.761,0.41,1.678,0.407,2.432-0.019l-1.55-0.33c-0.008,0.011-0.018,0.015-0.027,0.025l-1.447-0.293
			c-0.006-0.007-0.009-0.015-0.016-0.021c-1.603-0.621-3.272-1.055-4.974-1.296c-0.008-0.009-0.018-0.015-0.026-0.024
			c-0.223-0.116-0.458-0.21-0.7-0.28c-4.053-0.933-8.08-1.86-12.08-2.78l-4.64-0.66c-3.898-0.808-7.836-1.408-11.798-1.797
			l-0.022-0.022c-0.329-0.095-0.663-0.172-1-0.23c-5.43-0.71-10.89-1.23-16.35-1.64h-2.08c-0.019-0.008-0.039-0.01-0.058-0.017
			c-0.912-0.413-1.9-0.154-2.842-0.328v-0.226h-1.56c-0.001,0.018,0.001,0.037,0,0.055c-0.013-0.025-0.01-0.054-0.03-0.075h-2.17
			h-2.52c0.01,0.008,0.021,0.011,0.031,0.019c-0.02-0.004-0.041-0.004-0.061-0.009h-0.976c-0.057-0.019-0.117-0.029-0.174-0.05
			h-2.287c-0.095-0.041-0.188-0.083-0.273-0.13h-14.92c-0.056,0.061-0.129,0.102-0.196,0.15h-2.264v0.001
			c0.004,0.057,0.001,0.115,0,0.173c0.01,0.044,0.023,0.087,0.044,0.127l-0.054-0.001l0,0l-0.021-0.001l0.031-0.039
			c0.002-0.029-0.001-0.057,0-0.086c-0.012-0.056-0.015-0.113,0-0.173v-0.001l-2.46,0.01c-0.005,0.006-0.009,0.012-0.014,0.018
			c-0.006,0.008-0.001,0.019-0.006,0.028c-0.001-0.019,0.001-0.037,0-0.056h-2.46v0.1l-0.03-0.08c0,0-14.225,0.667-14.99,0.91
			c-1.4,0.33-9.04,1.44-11.39,1.78c-1.994,0.196-17.33,3.72-20.33,4.72c0.022,0.005,0.043,0.005,0.065,0.01
			c-0.038,0.006-0.077,0.014-0.115,0.02c-3.961,0.774-13.258,3.293-13.93,3.71c0.023-0.007-0.201-0.018-0.27,0.03
			c-0.001,0.001-0.003,0.003-0.004,0.004c-0.658,0.019-5.672,1.827-5.67,1.827c-1.869,0.429-8.909,2.886-10.486,3.729
			c0.008,0.003-0.017,0.025-0.037,0.037c0.015-0.016,0.032-0.03,0.047-0.047c-1.749,0.392-4.977,1.901-4.966,1.902
			c-3.228,1.01-9.225,3.768-9.225,3.768c-1.09-0.03-15.54,7.26-15.62,8.06c0.051-0.006-1.21,0.82-1.48,0.88
			c-3.96,2.18-7.68,4.79-11.52,7.18c-0.022,0.014-11.94,7.746-12.19,7.96c-0.69,0.7-1.43,1.3-2.08,2
			c-0.856,1.185-24.35,28.83-24.35,29.13c0.1-0.116,0.179-0.247,0.274-0.367c-0.08,0.144-3.994,7.257-3.994,7.257
			c-0.002,0.002-0.004,0.004-0.005,0.005c-0.002,0.002-0.003,0.005-0.005,0.007c0-0.004,0-0.008,0-0.012
			c-0.575,0.754-1.006,1.609-1.27,2.52c0.01,0.001,0.02,0.008,0.03,0.011c-0.345,0.322-0.559,0.759-0.6,1.229l0.024-0.012
			c-0.008,0.01-0.015,0.022-0.024,0.032c-0.597,0.944-1.039,1.977-1.31,3.06c0.058-0.039,0.103-0.086,0.157-0.128
			c-0.031,0.051-0.055,0.107-0.087,0.158c-0.011,0.025-0.013,0.052-0.024,0.077c-0.006-0.036-0.008-0.072-0.016-0.107
			c-0.63,0.942-1.059,2.004-1.26,3.12c0.041,0,0.086,0,0.129,0.001c-0.035,0.01-0.063,0.033-0.099,0.039
			c-0.395,0.497-0.607,1.115-0.6,1.75c-0.002,0.033-0.01,0.065-0.013,0.097c-0.012-0.043-0.011-0.084-0.027-0.127
			c-0.594,0.997-0.985,2.101-1.15,3.25c0.027,0.004,0.056,0.019,0.087,0.037c-0.023-0.002-0.042-0.007-0.067-0.007l-0.09,0.52
			c-0.003,0.02-0.008,0.04-0.011,0.06c-0.004-0.03-0.005-0.06-0.009-0.091c-0.642,1.409-1.058,2.911-1.23,4.45
			c0.023-0.028,0.042-0.058,0.064-0.086c-0.016,0.038-0.028,0.078-0.044,0.116c-1.05,3.23-1.33,6.61-1.9,9.93
			c-0.001,0.001-0.001,0.002-0.001,0.003c-0.316,0.022-0.56,0.289-0.549,0.607c0.115,1.015-0.084,2.041-0.57,2.94
			c-0.16,0.314-0.16,0.686,0,1c0.691,0.79,0.409,1.726,0.556,2.597c-0.003,0.011-0.003,0.022-0.006,0.033v2.7
			c-0.238,0.131-0.361,0.405-0.3,0.67c0.268,1.908,0.362,3.835,0.28,5.76c-0.049,0.61,0.161,1.211,0.575,1.66
			c0.002,0.007,0.004,0.013,0.005,0.02l0.07,0.88c0.003,0.012,0.004,0.024,0.007,0.036c-0.003-0.008-0.004-0.017-0.007-0.026
			c0.16,1.36-0.6,2.87,0.64,4.07c0-0.004-0.001-0.008-0.001-0.012c0,0.001,0,0.001,0.001,0.002c0.664,2.171,0.788,4.475,1.651,6.592
			c0.02,0.137,0.051,0.271,0.069,0.408c0,0.617,0.129,1.227,0.38,1.79c1.29,4.221,2.84,8.359,4.64,12.39
			c0.015,0.056,0.037,0.109,0.053,0.164c-0.058,0.867,0.352,1.695,1.077,2.174c0.041,0.056,0.077,0.116,0.12,0.172
			c0.023,0.031,0.035,0.071,0.052,0.107c-0.056,1.022,0.013,1.981,1.278,2.333l2.43,3.77c0.005-0.01,0.004-0.02,0.008-0.03
			c0.012,0.017,0.015,0.033,0.032,0.05c-0.1,0.64,0.68,0.85,0.68,1.44c0.011,0.028,0.025,0.053,0.036,0.081
			c-0.027-0.032-0.049-0.069-0.076-0.101c-0.038,1.253,0.708,2.398,1.87,2.87c-0.01-0.022-0.025-0.042-0.035-0.063
			c0.026,0.027,0.049,0.057,0.075,0.083c0,0,7.45,9.624,7.454,9.631c-0.019-0.013,1.182,1.501,1.176,1.486
			c0.021,0.02,10.602,10.612,10.549,10.593c0,0.79,0.65,0.87,1.22,1c-0.035-0.058-0.078-0.109-0.118-0.164
			c0.067,0.044,0.227,0.184,0.238,0.214c-0.029-0.014-0.051-0.038-0.081-0.05c-0.13,0.92,1.108,0.935,1.081,0.898
			c0.043,0.024,0.088,0.044,0.129,0.072c0.504,0.288,0.94,0.68,1.288,1.144c-0.003-0.001,1.062,1.846,2.301,1.88
			c0.039,0.023,3.109,3.349,4.854,3.655c0.03,0.016,2.138,1.341,2.138,1.341c0.058,0.03,1.148,0.863,1.148,0.863
			c0.016,0.035,5.082,3.467,5.082,3.467c0.05,0.68,0.48,0.68,0.97,0.61l0,0l0,0c1.396,0.752,2.733,1.607,4,2.56
			c0.11,0.78,0.75,0.51,1.2,0.6c1.69,0.71,3.1,1.94,4.87,2.5c0.92,0.9,2.2,1.21,3.23,1.92c0.26,0.847,1.143,1.337,2,1.11l1.75,0.65
			c-0.001-0.004-0.004-0.008-0.005-0.012c0.005,0.004,0.01,0.008,0.015,0.012c1.29,0.63,2.58,1.28,3.87,1.9
			c5.24,2.51,10.7,4.5,16.06,6.72c0.038,0.027,0.079,0.047,0.118,0.073l-0.118-0.033c-0.037,0.31,0.146,0.605,0.44,0.71
			c1.566,0.698,3.202,1.228,4.88,1.58c2.22,0.49,4.02,2.18,6.38,2.18c0.25,0.01,0.6,0.05,0.48,0.41c-0.48,1.44,0.39,0.78,0.82,0.49
			c0.415-0.333,0.978-0.413,1.47-0.21c3.03,1.49,6.36,1.88,9.57,2.71c1.74,0.45,3.45,1.07,5.19,1.55c1.113,0.135,2.237,0.135,3.35,0
			l0.191-0.014c-0.04,0.026-0.079,0.056-0.111,0.094c0,0,14.982,2.738,16.12,3.14c1.27,0.34,2.67,0.07,3.78,0.69
			c0.86,0.49,1.56,1.11,2.69,0.63c-0.62,0.81,9.268,1.117,8.75,1.11c-0.48,0.02,11.676-0.058,12.91,0.26
			c-0.91,0.53,23.667-0.084,25.04-0.08c1.07-0.02,2.11,0.02,3.23-0.07c2.56-0.21,17.73-0.96,19.9-1.45l60.45-16.13l0.09-0.07h0.1
			c0.028-0.005,0.055-0.015,0.083-0.02c-0.014,0.008,2.379-0.306,3.147-1.26c-0.032,0.009-0.063,0.023-0.095,0.031
			c0.018-0.011,0.037-0.02,0.055-0.031c1.63-0.95,3.55-1.3,5.13-2.36l-0.031-0.005c0.007-0.003,0.014-0.002,0.021-0.005
			c0.958-0.328,2.727-1.338,2.82-1.3l5.691-2.713c0.083-0.01,3.159-1.257,4.419-2.257c0.004-0.003,0.007-0.008,0.011-0.011
			c0,0.004,8.021-4.248,8.069-4.319c1.44-0.664,12.26-7.55,16.026-10.571c0.022-0.006,0.042-0.014,0.064-0.019
			c0,0,4.892-3.444,6.66-5.25c-0.001-0.006,2.766-2.116,3.95-3.389c0.008,0.005,0.012,0.015,0.02,0.019
			c4.195-3.598,12.76-11.61,13.09-12.05c0.467-0.734,1.044-1.391,1.71-1.95c0.95-0.64,2.44-3.06,2.72-3.26
			c1.56-1.08,6.34-9.74,6.49-10.41c0,0-0.096-0.079-0.099-0.079l0.009-0.011l0.011-0.018c0,0,1.069-0.742,1.069-1.462
			c0,0,2.496-1.64,1.75-3.48l-0.026,0.037c0.01-0.025,0.015-0.053,0.026-0.077c-0.02-0.084,0.491-0.601,0.63-0.85
			c0-0.018,0-0.036,0-0.054c0.015,0.011,0.78-2.086,1.97-2.846c0.75-0.47,0.42-2.13,1.53-3c0.749-0.651,0.305-2.837,0.305-2.837
			c0.002,0.006,1.115-1.803,1.115-2.903c-0.005,0.001-0.008,0.003-0.012,0.004l0.002-0.004c-0.005-0.008-0.001-0.143,0.051-0.173
			c0.008,0.007,0.011,0.017,0.019,0.023c0.82-0.34,0.82-0.97,0.57-1.67c0,0-0.029,0,0-0.05c0.54-2.63,1.68-5.11,1.94-7.81
			c0-0.001,0-0.001,0-0.002c0,0.004,2.566-16.4,1.79-24.378C404.557,205.668,403.952,201.926,402.949,198.282z M280.2,105.238
			c0.054,0.026,0.11,0.044,0.162,0.074c-0.107,0-0.206,0-0.311,0C280.101,105.289,280.15,105.264,280.2,105.238z M272.364,103.399
			c0.002,0.016,0,0.028,0.003,0.045c-0.002-0.001-0.003-0.002-0.005-0.003c-0.026-0.019-0.052-0.036-0.078-0.055
			C272.311,103.39,272.337,103.398,272.364,103.399z M271.492,108.022c0.037-0.017,0.075-0.026,0.112-0.041
			c-0.023,0.025-0.05,0.045-0.072,0.071h-0.077C271.467,108.041,271.48,108.035,271.492,108.022z M269.404,102.755
			c-0.02,0.009-0.039,0.016-0.058,0.026c-0.002-0.004-0.006-0.008-0.008-0.012C269.359,102.762,269.381,102.76,269.404,102.755z
			 M250.862,100.346c-0.18-0.048-0.359-0.095-0.54-0.127C250.53,100.214,250.725,100.251,250.862,100.346z M211.404,98.772
			c0.009-0.006,0.019-0.009,0.028-0.015l0.009,0.075c-0.038,0.017-0.078,0.024-0.116,0.038L211.404,98.772z M155.558,107.124
			c-0.001,0.001-0.002,0.002-0.003,0.003c-0.001-0.002-0.002-0.003-0.002-0.005C155.554,107.123,155.556,107.123,155.558,107.124z
			 M77.148,220.093c-0.02,0.158-0.051,0.289-0.116,0.289c-0.013,0.005-0.022,0.013-0.035,0.018
			C77.045,220.296,77.099,220.196,77.148,220.093z M74.682,227.792c0.007-0.007,0.012-0.015,0.019-0.023
			c-0.01,0.014-0.018,0.03-0.028,0.044C74.677,227.807,74.678,227.799,74.682,227.792z M38.462,198.302
			c0-0.038-0.009-0.065-0.015-0.096c0.005,0.003,0.01,0.008,0.015,0.011C38.462,198.246,38.462,198.273,38.462,198.302z
			 M42.982,185.652v-0.146c0.021,0.007,0.042,0.015,0.064,0.027C43.018,185.571,43.001,185.612,42.982,185.652z M43.722,257.452
			c-0.067-0.107-0.105-0.213-0.13-0.319c0.103,0.083,0.249,0.158,0.421,0.233C43.945,257.416,43.859,257.452,43.722,257.452z
			 M45.891,262.02c-0.025-0.05-0.05-0.099-0.076-0.149c0.034,0.005,0.06,0.018,0.096,0.021
			C45.898,261.937,45.901,261.976,45.891,262.02z M58.397,274.018c-0.023-0.032-0.046-0.064-0.072-0.09
			c0.061-0.027,0.124-0.048,0.183-0.079c0.002,0.002,0.004,0.004,0.006,0.006C58.463,273.906,58.434,273.963,58.397,274.018z
			 M62.303,283.116c-0.009-0.004-0.018-0.009-0.028-0.013c0.01-0.006,0.019-0.012,0.029-0.018
			C62.304,283.095,62.304,283.106,62.303,283.116z M116.982,307.312c-0.003-0.001-0.005-0.002-0.008-0.003
			c0.004,0.001,0.008,0,0.012,0.001c0,0.002,0.001,0.004,0.001,0.006C116.986,307.315,116.984,307.314,116.982,307.312z
			 M142.31,313.562h-0.011c-0.001-0.001-0.001-0.002-0.002-0.003C142.301,313.56,142.306,313.561,142.31,313.562z M141.822,320.661
			c-0.001-0.01,0.001-0.021,0-0.03c0.013,0.004,0.026,0.007,0.039,0.011C141.848,320.651,141.836,320.653,141.822,320.661z
			 M141.94,328.697c0.114-0.034,0.226-0.057,0.341-0.105c0.21-0.09,0.21-0.04,0.21,0.12c-0.008,0.062-0.002,0.112,0,0.166
			C142.309,328.815,142.125,328.754,141.94,328.697z M149.31,313.694c-0.013-0.043-0.029-0.081-0.038-0.132h-0.079
			c0.026-0.015,0.054-0.024,0.079-0.04c0.206-0.016,0.413-0.014,0.619-0.005C149.696,313.555,149.503,313.613,149.31,313.694z
			 M158.723,333.83l0.141,0.036L158.723,333.83z M159.245,316.37c-0.001-0.038-0.011-0.065-0.016-0.099
			c0.071,0.019,0.14,0.03,0.212,0.052C159.375,316.342,159.311,316.352,159.245,316.37z M174.111,315.382h0.001
			c0.001,0.001,0.002,0.003,0.003,0.004C174.113,315.384,174.112,315.383,174.111,315.382z M174.32,315.574
			c-0.056-0.043-0.109-0.09-0.16-0.142c0.056,0.052,0.12,0.091,0.182,0.131C174.335,315.567,174.327,315.57,174.32,315.574z
			 M195.13,312.291c0.001-0.004,0.003-0.008,0.004-0.012c0.006,0.005,0.012,0.007,0.018,0.013
			C195.144,312.291,195.138,312.292,195.13,312.291z M198.95,320.433c-0.026-0.014-0.054-0.023-0.081-0.036
			c0.054,0.003,0.108,0.002,0.162,0.005C199.005,320.414,198.977,320.422,198.95,320.433z M209.393,318.598
			c-0.031-0.016-0.062-0.031-0.093-0.047c0.062,0.002,0.123,0.011,0.185,0.018C209.455,318.579,209.424,318.587,209.393,318.598z
			 M212.701,308.283L212.701,308.283L212.701,308.283C212.702,308.283,212.702,308.283,212.701,308.283z M228.22,314.192
			c-0.001-0.003-0.002-0.007-0.003-0.01c0.009,0,0.017,0,0.025,0C228.235,314.186,228.227,314.188,228.22,314.192z M238.041,338.276
			c0.004-0.017,0.014-0.027,0.017-0.045c0.018,0.013,0.036,0.018,0.054,0.031C238.089,338.269,238.064,338.27,238.041,338.276z
			 M238.9,310.727c-0.011,0.001-0.021,0.001-0.032,0.002c0.041-0.009,0.081-0.019,0.122-0.028
			C238.96,310.71,238.93,310.718,238.9,310.727z M251.243,336.538c-0.01,0.01-0.021,0.015-0.031,0.025h-0.034
			c0.021-0.046,0.046-0.088,0.069-0.132C251.246,336.466,251.243,336.5,251.243,336.538z M252.459,296.152h0.027
			c0.001,0.004,0.002,0.007,0.003,0.011C252.479,296.16,252.469,296.156,252.459,296.152z M259.154,292.502h-0.002
			C259.153,292.502,259.154,292.502,259.154,292.502L259.154,292.502z M261.111,291.65c0.007-0.008,0.015-0.012,0.021-0.02
			c0.001,0.004,0.001,0.008,0.002,0.012C261.126,291.644,261.119,291.648,261.111,291.65z M268.68,291.788
			c-0.012-0.014-0.025-0.027-0.038-0.04c0.004-0.005,0.011-0.008,0.015-0.014c0.016,0.014,0.033,0.028,0.049,0.042
			C268.697,291.78,268.689,291.783,268.68,291.788z M273.262,286.122c-0.001,0.004-0.005,0.005-0.006,0.009
			c0.001-0.006,0.006-0.013,0.006-0.019l0.054-0.054c0.006,0.021,0.027,0.049,0.037,0.071
			C273.323,286.125,273.292,286.128,273.262,286.122z M281.065,283.125c0.001-0.002,0.003-0.004,0.004-0.007
			c0.001,0.001,0.003,0.002,0.004,0.002C281.07,283.123,281.068,283.124,281.065,283.125z M303.528,282.883
			c-0.008-0.008-0.017-0.014-0.025-0.022c0.01-0.007,0.019-0.012,0.029-0.019C303.529,282.856,303.53,282.87,303.528,282.883z
			 M308.369,266.069c0.021-0.018,0.043-0.034,0.063-0.051c0.001,0.004,0.003,0.008,0.004,0.011
			C308.413,266.042,308.391,266.057,308.369,266.069z M309.052,322.812c-0.063-0.001-0.122,0.008-0.184,0.009
			c0.044-0.024,0.091-0.042,0.135-0.066c0.022,0.019,0.035,0.039,0.059,0.057c0.001,0.001,0.002,0.001,0.003,0.002L309.052,322.812z
			 M310.831,322.234c0.005-0.003,0.01-0.005,0.015-0.008c0.002,0.003,0.005,0.004,0.007,0.007
			C310.845,322.233,310.838,322.234,310.831,322.234z M312.222,262.622c-0.004,0-0.006,0-0.01,0
			c0.007-0.004,0.014-0.008,0.021-0.012C312.23,262.614,312.225,262.618,312.222,262.622z M320.822,259.566
			c-0.012-0.035-0.024-0.07-0.035-0.104c0.032,0.004,0.06,0.001,0.095,0.011C320.858,259.503,320.844,259.535,320.822,259.566z
			 M333.301,259.804c0-0.008,0.002-0.013,0.001-0.021c-0.012,0.003-0.022,0.009-0.033,0.012c0.01-0.015,0.026-0.025,0.036-0.041
			c0.008,0.006,0.018,0.011,0.027,0.017C333.322,259.782,333.311,259.792,333.301,259.804z M338.718,308.244
			c-0.019-0.017-0.044-0.034-0.064-0.051l0.076-0.096c0.016,0.042,0.032,0.088,0.047,0.134
			C338.758,308.236,338.738,308.239,338.718,308.244z M343.438,297.89c-0.013-0.036-0.022-0.071-0.036-0.108
			c0.062,0.017,0.118,0.046,0.178,0.068C343.531,297.862,343.478,297.872,343.438,297.89z M344.112,243.422
			c-0.011-0.008-0.019-0.02-0.03-0.028c0.018,0.003,0.037,0.003,0.055,0.005C344.13,243.408,344.119,243.413,344.112,243.422z
			 M344.492,248.907c-0.001-0.001-0.002-0.002-0.003-0.003c0-0.001,0.001-0.001,0.001-0.002c0.001,0,0.001,0,0.002,0
			L344.492,248.907L344.492,248.907z M344.493,248.902c0-0.001,0-0.002,0-0.003c0-0.003,0-0.006,0.006,0.002
			C344.498,248.9,344.496,248.902,344.493,248.902z M346.352,247.582v-0.045c0.005,0.007,0.006,0.015,0.012,0.022
			C346.36,247.567,346.356,247.574,346.352,247.582z M351.962,225.648c-0.092,0.03-0.176,0.069-0.261,0.106l0.221-0.252
			c0.011-0.018,0.023-0.035,0.034-0.053c0.004,0.019,0.001,0.033,0.006,0.053L351.962,225.648L351.962,225.648z M354.771,223.391
			c0.001-0.005,0.002-0.009,0.002-0.014c0.001,0.002,0.002,0.005,0.004,0.007C354.775,223.386,354.774,223.389,354.771,223.391z
			 M361.982,210.462c-0.066,0.089-0.128,0.18-0.193,0.269c0.054-0.111,0.12-0.215,0.172-0.327c0,0.003,0.001,0.005,0.001,0.008
			c0.031-0.034,0.051-0.076,0.081-0.11C362.023,210.356,361.999,210.407,361.982,210.462z M373.712,207.922c-0.106,0-0.21,0-0.316,0
			c0.089-0.043,0.175-0.077,0.266-0.127c0.019,0.025,0.03,0.052,0.05,0.077c0.006,0.02,0.004,0.038,0.009,0.058L373.712,207.922z
			 M380.003,157.757c0.035,0.058,0.065,0.119,0.099,0.177C380.069,157.875,380.038,157.815,380.003,157.757z M384.445,205.624
			c0.013,0.253,0.022,0.507,0.025,0.762C384.466,206.131,384.458,205.877,384.445,205.624z M385.343,224.773
			c0.026,0.298,0.044,0.596,0.054,0.895C385.387,225.369,385.369,225.071,385.343,224.773z M388.725,265.791l-0.003-0.019
			c0.008,0,0.013-0.003,0.021-0.003C388.738,265.776,388.731,265.784,388.725,265.791z M392.922,259.456l0.017-0.029l0.017,0.013
			C392.944,259.443,392.935,259.452,392.922,259.456z M394.122,257.043c0.007-0.014,0.014-0.027,0.02-0.041
			c0.003,0,0.006-0.001,0.009-0.001C394.142,257.016,394.131,257.029,394.122,257.043z"/>
		<path style="fill:#005BA5;" d="M293.425,330.3l0.087,0.032c-0.022-0.02-0.05-0.027-0.073-0.045
			C293.435,330.292,293.43,330.295,293.425,330.3z"/>
		<path style="fill:#005BA5;" d="M307.053,324.013l0.069,0.019c0.007-0.018,0.016-0.032,0.023-0.049l-0.023,0.009L307.053,324.013z"
			/>
		<path style="fill:#005BA5;" d="M262.692,336.522c0.301-0.133,0.509-0.22,0.693-0.275c-0.094,0.001-0.188,0.013-0.281,0.024
			C262.985,336.331,262.858,336.413,262.692,336.522z"/>
		<path style="fill:#005BA5;" d="M284.757,330.109c-0.016,0.075,0.013,0.156,0.036,0.227c0.006-0.001,0.012-0.003,0.018-0.004
			c0.035-0.014,0.068-0.034,0.101-0.05c-0.018-0.005-0.033-0.004-0.051-0.01C284.862,330.208,284.815,330.157,284.757,330.109z"/>
		<path style="fill:#005BA5;" d="M286.589,329.72c0.031,0.013,0.06,0.016,0.093,0.032h0.08c-0.017-0.029-0.027-0.054-0.042-0.081
			C286.675,329.684,286.632,329.702,286.589,329.72z"/>
		<polygon style="fill:#005BA5;" points="345.606,162.998 345.602,163.002 345.652,163.072 		"/>
		<path style="fill:#005BA5;" d="M301.652,213.152c0,0.047,0,0.095,0,0.142c-0.008-0.061-0.011-0.122-0.02-0.182
			c0.056-0.086,0.034-0.201-0.05-0.26c-0.017-0.042-0.04-0.08-0.058-0.122c-0.183-1.186-0.794-2.261-1.723-3.022
			c-0.014-0.022-0.022-0.046-0.039-0.066c-0.78-1.14-2.06-1.63-3.14-2.37c-0.493-1.748-14.253-3.63-16.33-3.6
			c-4.188-0.214-8.385-0.124-12.56,0.27c-4.014,0.635-8.077,0.909-12.14,0.82l-0.111,0.104c-0.004-0.019-0.003-0.032-0.009-0.054
			c-4.9-0.19-9.73,0.91-14.65,0.72c-1.412-0.193-2.841-0.227-4.26-0.1c-0.54,0.1-1.08,0.15-1.62,0.27
			c-1.978,0.549-14,0.84-15.47,1.47c-0.65,0.28-10.67,1.14-14.67,0.76c-2.16-0.24-14.86,1-15.86,1.1c-2.26,0.24-4.51-0.29-6.79,0.06
			c-1.268,0.335-2.569,0.527-3.88,0.57c-3.37-0.38-24.157,2.089-29.14,1.94c-0.622-0.06-1.24,0.147-1.7,0.57
			c0.005,0.004,0.011,0.005,0.016,0.009l-0.026,0.001l-0.64,0.13c-0.007,0.003-0.015,0.002-0.022,0.004
			c0.007-0.006,0.015-0.008,0.022-0.014l-1.46-0.04c-0.002,0.002-0.003,0.005-0.005,0.007c-0.731-0.09-1.171-0.875-2.065-0.687
			c-2.969,0.712-6.017,1.048-9.07,1c-0.038-0.004-0.077-0.005-0.115-0.004c-0.481,0.013-0.91,0.91-0.925,0.934
			c0,0-5.37,6.08-4.93,6.51c0,0,0.095-0.039,0.09-0.02l-0.15,0.28c-0.084,0.066-0.157,0.143-0.229,0.221l0.169-0.201l-0.53,0.63
			l0.239-0.284c-0.065,0.084-0.128,0.17-0.179,0.264c-0.668,1.139-2.54,3.315-2.622,3.395c0.048-0.077,0.105-0.148,0.152-0.225
			c-1.737,0.785-3.064,4.095-2.98,4.001c-0.048,0.091-0.104,0.177-0.15,0.269c-0.676,1.146-5.88,7.52-6.21,8.11
			c-0.012,0.011-0.018,0.026-0.03,0.038v-0.028c0,0-1.22,0.91-1.51,1.36c-0.78,1.2-2.116,3.595-2.116,3.595
			c-0.011,0.022-7.243,9.356-7.238,9.353c-0.002,0.004-0.004,0.008-0.006,0.012l-0.39,0.59c-0.008,0.016-0.019,0.029-0.027,0.045
			c0.005-0.015-1.145,1.608-1.141,1.605c0,0.004-0.002,0.007-0.002,0.01c-1.96,2.867-4.047,5.633-6.26,8.3
			c-0.009,0.004-9.22,10.64-10.08,12.73c-0.26,0.65-2.59,4.1-1.59,3.95c1.109-0.179,16.53-1.51,23.05-1.75
			c0.058-0.025,0.12-0.031,0.18-0.048c1.738,0.011,3.492,0.048,5.21,0.028c1.176,0.003,2.343-0.183,3.464-0.535
			c0.078-0.009,0.157-0.016,0.236-0.025c0,0,10.336-0.672,10.54-0.68c0.61-0.07,1.22-0.22,1.84-0.22c2.93-0.23,5.87-0.44,8.81-0.65
			c0.009-0.012,0.022-0.019,0.033-0.029c1.369,0.099,3.972-0.285,3.972-0.285c0.041-0.008,0.084-0.007,0.125-0.015
			c1.957,0.07,8.31-0.296,9.521-0.51c0.057-0.005,0.296-0.047,0.359-0.059l-0.084-0.008c0.038-0.015,0.078-0.022,0.114-0.042
			c4.9-0.12,9.79-0.46,14.67-0.93c-0.001-0.002-0.003-0.004-0.005-0.006c0.012,0.002,4.619-0.244,4.859-0.307
			c0.035-0.006,0.095-0.016,0.095-0.016l4.771-0.08c0.002-0.003,0.005-0.006,0.007-0.009c0.001,0.014-0.009,0.026-0.007,0.039
			c3.41,0,6.9,0.45,10.23-0.09c4.73-0.77,9.49-0.43,14.23-0.94c4.06-0.44,8.18-1.1,12.34-0.85c0.742,0.155,17.4-2.75,20.97-2.46
			c0.037,0.008,4.502-0.713,6.28-1.31c1.55-0.37,3.13-0.83,4.67-1.28c0.68-0.2,8.658-2.737,9.08-2.94
			c1.843-0.607,3.65-1.322,5.41-2.14c1.13-0.61,3.161-2.301,3.161-2.301l0.108-0.05c0,0.004,0,0.007,0.001,0.011
			c-0.016,0.045-0.012,0.094,0,0.14c0.002,0.007-0.002,0.013,0,0.02l1.6-1c2.086-0.941,4.075-2.083,5.94-3.41
			c1.305-0.672,2.523-1.502,3.63-2.465c0.031-0.006,0.059-0.019,0.09-0.025c0.781-0.414,1.496-0.944,2.12-1.57
			c-0.008-0.001-0.015-0.004-0.023-0.005c0.026,0.001,0.046,0.005,0.073,0.005l3-2.22c0.048-0.017,0.089-0.044,0.135-0.064
			c1.411-0.331,7.086-5.477,7.165-6.526c-0.016-0.189,12.938-18.953,12.95-18.99c-0.002-0.004-0.004-0.008-0.005-0.012
			c-0.025-0.067,0.093-0.202,0.105-0.218c0.406-0.293,0.489-1.211,0.49-1.23l0.15-0.88c-0.057,0.061-0.102,0.132-0.158,0.194
			c0.033-0.068,0.065-0.136,0.098-0.204c0.416-0.716,0.627-1.532,0.61-2.36c0.009-0.06,0.012-0.121,0.02-0.182
			c0,0.074,0,0.148,0,0.222C302.082,215.591,302.082,214.314,301.652,213.152z M106.442,248.932
			c-0.006,0.004-0.01,0.009-0.016,0.013c0.002-0.004,0.004-0.008,0.006-0.013c-0.003,0,0.009-0.01,0.018-0.015
			C106.447,248.922,106.445,248.927,106.442,248.932z M107.089,248.043c0-0.003,0.002-0.005,0.002-0.007
			c0,0.002,0,0.004,0.001,0.005C107.09,248.041,107.09,248.042,107.089,248.043z M107.122,248.022
			c-0.012,0.004-0.017,0.013-0.028,0.017c0.025-0.029,0.048-0.06,0.073-0.089C107.153,247.974,107.136,247.998,107.122,248.022z
			 M108.782,276.189c0.094-0.012,0.189-0.021,0.284-0.033C108.971,276.168,108.876,276.177,108.782,276.189z M117.722,234.022
			c-0.041,0.018,0.045-0.109,0.109-0.167C117.797,233.912,117.756,233.965,117.722,234.022z M118.585,275.574
			c0.125-0.016,0.251-0.027,0.377-0.042C118.836,275.547,118.71,275.559,118.585,275.574z M132.629,214.93
			c0.001-0.001,0.001-0.002,0.002-0.003C132.631,214.928,132.63,214.929,132.629,214.93z M141.903,212.878
			c-0.007-0.016-0.014-0.031-0.022-0.046h0.259C142.061,212.848,141.981,212.859,141.903,212.878z M142.384,213.472h0.068l0,0
			c0.002,0.017-0.001,0.035,0,0.053C142.43,213.505,142.408,213.487,142.384,213.472z M144.912,212.892
			c-0.05-0.013-0.101-0.018-0.15-0.029c0.028-0.008,0.054-0.021,0.081-0.031h0.045c0.011,0.023,0.03,0.039,0.045,0.06
			L144.912,212.892L144.912,212.892z M149.303,272.472c0-0.012,0.001-0.023,0.001-0.035c0.003,0.008,0.005,0.017,0.009,0.025
			L149.303,272.472z M151.762,273.152c-0.034-0.024-0.068-0.038-0.102-0.06h0.032c0,0.004,0,0.006,0,0.01
			c0.028,0.022,0.061,0.033,0.091,0.052L151.762,273.152z M152.972,212.473c0-0.002,0-0.004,0-0.005
			c0.001,0.002,0.003,0.004,0.004,0.005C152.975,212.473,152.974,212.473,152.972,212.473z M179.134,270.665
			c-0.001-0.001-0.002-0.001-0.003-0.003h0.003C179.135,270.663,179.135,270.664,179.134,270.665z M182.862,212.222
			c-0.001,0.001-0.001,0.002-0.002,0.003c-0.013-0.018-0.026-0.037-0.039-0.053h0.011c0.028,0.019,0.059,0.032,0.087,0.05
			C182.9,212.222,182.881,212.222,182.862,212.222z M184.134,210.384c-0.006-0.01-0.013-0.015-0.019-0.025
			c0.03-0.005,0.061-0.01,0.092-0.011C184.182,210.357,184.158,210.371,184.134,210.384z M184.515,210.355c0.014,0,0.028,0,0.042,0
			c0.004,0.007,0.011,0.008,0.014,0.017C184.554,210.363,184.534,210.362,184.515,210.355z M189.017,268.304
			c0.001-0.05,0.005-0.09,0.005-0.143c0.005-0.01,0.011-0.018,0.016-0.03c0.013,0.014,0.026,0.026,0.039,0.041h-0.005
			C189.055,268.221,189.035,268.259,189.017,268.304z M189.082,270.062c-0.003-0.006-0.003-0.011-0.007-0.018
			c0.004,0.003,0.008,0.004,0.012,0.007L189.082,270.062z M203.896,268.172h-0.006c0.004-0.003,0.008-0.005,0.013-0.008
			C203.901,268.167,203.898,268.169,203.896,268.172z M210.092,209.648c0.029-0.007,0.058-0.014,0.087-0.021
			C210.138,209.667,210.101,209.688,210.092,209.648z M210.164,209.264c0.009-0.048,0.029-0.112,0.032-0.152c0.046,0,0.09,0,0.135,0
			C210.279,209.178,210.222,209.226,210.164,209.264z M239.389,206.456c-0.008-0.001-0.015-0.001-0.023-0.003
			c0.008-0.006,0.017-0.008,0.025-0.014C239.391,206.445,239.389,206.451,239.389,206.456z M260.612,258.922
			c-0.015,0.009-0.031,0.016-0.046,0.025c-0.001-0.013,0-0.027-0.002-0.04l0.038,0.005l0,0l0,0c0.005-0.001,0.01-0.003,0.015-0.003
			C260.615,258.913,260.614,258.918,260.612,258.922z M274.722,248.152c0.12-0.081,0.222-0.162,0.323-0.243
			c0,0.092,0.015,0.172,0.029,0.253C274.965,248.149,274.852,248.14,274.722,248.152z M278.465,204.957
			c-0.033-0.05-0.053-0.112-0.061-0.184h0.188c0.01,0,0.02,0,0.03,0C278.567,204.837,278.513,204.898,278.465,204.957z"/>
		<path style="fill:#005BA5;" d="M85.092,277.452h0.127c-0.014-0.037-0.029-0.075-0.035-0.116L85.092,277.452z"/>
		<path style="fill:#005BA5;" d="M43.062,262.052c-0.02,0.12-0.1,0.25,0.11,0.37s0.37-0.01,0.37-0.23
			c-0.031-0.155-0.089-0.304-0.17-0.44C43.232,261.842,43.082,261.932,43.062,262.052z"/>
		<path style="fill:#005BA5;" d="M76.532,272.852c-0.17-0.1-0.27-0.26-0.37-0.27s-0.21,0.11-0.32,0.16
			C75.942,272.842,76.342,272.942,76.532,272.852z"/>
		<path style="fill:#005BA5;" d="M283.712,277.862c0.081,0.109,0.205,0.178,0.34,0.19c0.19,0.02,0.29-0.05,0.19-0.3
			c-0.093-0.077-0.203-0.131-0.32-0.16C283.762,277.572,283.622,277.702,283.712,277.862z"/>
	</g>
</g>
</svg>
