<?xml version="1.0" encoding="iso-8859-1"?>
<!-- Generator: Adobe Illustrator 22.0.1, SVG Export Plug-In . SVG Version: 6.00 Build 0)  -->
<svg version="1.1" id="Layer_1" xmlns="http://www.w3.org/2000/svg" xmlns:xlink="http://www.w3.org/1999/xlink" x="0px" y="0px"
	 viewBox="0 0 438.53 438.53" style="enable-background:new 0 0 438.53 438.53;" xml:space="preserve">
<g id="_x32_26">
	<g>
		<path style="fill:#BD2A36;" d="M344.091,101.891c0.033-3.603-1.139-4.214-4.408-4.211c-48.073,0.037-96.146-0.056-144.219-0.116
			c-6.806-0.008-13.612-0.001-20.418-0.001c-0.007,0.282-0.014,0.564-0.022,0.846c0.375,0.201,0.733,0.448,1.127,0.597
			c54.64,20.666,109.291,41.302,163.905,62.036c3.74,1.42,4.097-0.067,4.078-3.212C344.02,139.184,343.92,120.536,344.091,101.891z"
			/>
		<path style="fill:#BD2A36;" d="M339.211,249.149c-16.316,6.603-32.639,13.19-48.95,19.807
			c-37.876,15.365-75.742,30.754-113.624,46.104c-5.153,2.088-5.309,2.008-5.314-3.287c-0.021-23.476,0.104-46.953-0.016-70.428
			c-0.017-3.296,1.369-4.449,4.169-5.5c22.878-8.583,45.7-17.315,68.533-26.017c3.894-1.484,7.761-3.038,11.685-4.578
			c-0.786-1.534-1.978-1.884-3.008-2.339c-28.886-12.742-57.805-25.408-86.664-38.21c-4.657-2.066-3.985,1.075-3.988,3.608
			c-0.066,56.14-0.083,112.28-0.216,168.42c-0.007,2.994,1.042,3.612,3.754,3.597c8.017-0.044,16.035,0.27,24.052,0.256
			c50.158-0.088,100.317-0.252,150.475-0.289c2.922-0.002,3.988-0.565,3.97-3.766c-0.156-28.142-0.117-56.286-0.169-84.429
			C343.893,247.46,343.646,247.354,339.211,249.149z"/>
		<path style="fill:#BD2A36;" d="M407.603,110.087c-19.45-33.321-45.833-59.704-79.155-79.153
			c-33.328-19.448-69.711-29.17-109.176-29.17c-39.461,0-75.854,9.722-109.177,29.17C76.771,50.38,50.388,76.763,30.938,110.087
			c-19.451,33.326-29.173,69.72-29.173,109.178c0,39.46,9.725,75.847,29.17,109.175c19.449,33.321,45.832,59.704,79.156,79.155
			c33.326,19.447,69.717,29.17,109.177,29.17s75.854-9.723,109.179-29.17c33.322-19.444,59.704-45.834,79.152-79.155
			c19.445-33.325,29.166-69.718,29.166-109.175C436.766,179.803,427.044,143.409,407.603,110.087z M353.811,345.472
			c0.006,4.1-1.167,4.982-5.09,4.978c-86.173-0.094-172.347-0.08-258.521,0.064c-4.141,0.007-5.361-0.907-5.356-5.209
			c0.089-84.424,0.043-168.849-0.133-253.273c-0.008-3.89,1.563-4.022,4.562-4.017c43.305,0.071,86.61,0.049,129.915,0.049
			c0,0.062,0,0.123,0,0.185c43.16,0,86.32,0.046,129.48-0.079c3.801-0.011,5.157,0.686,5.15,4.904
			C353.68,177.207,353.683,261.34,353.811,345.472z"/>
		<path style="fill:#FFFFFF;" d="M348.669,88.17c-43.16,0.125-86.32,0.079-129.48,0.079c0-0.062,0-0.123,0-0.185
			c-43.305,0-86.61,0.022-129.915-0.049c-2.999-0.005-4.57,0.127-4.562,4.017c0.176,84.424,0.223,168.849,0.133,253.273
			c-0.005,4.302,1.215,5.216,5.356,5.209c86.173-0.145,172.347-0.159,258.521-0.064c3.923,0.004,5.096-0.878,5.09-4.978
			c-0.128-84.133-0.131-168.266,0.008-252.398C353.826,88.857,352.47,88.159,348.669,88.17z M340.1,340.292
			c-50.158,0.037-100.317,0.201-150.475,0.289c-8.017,0.014-16.036-0.3-24.052-0.256c-2.712,0.015-3.761-0.602-3.754-3.597
			c0.133-56.14,0.151-112.28,0.216-168.42c0.003-2.533-0.669-5.674,3.988-3.608c28.859,12.802,57.779,25.467,86.664,38.21
			c1.03,0.454,2.222,0.804,3.008,2.339c-3.925,1.54-7.792,3.094-11.685,4.578c-22.833,8.702-45.655,17.434-68.533,26.017
			c-2.8,1.051-4.186,2.203-4.169,5.5c0.12,23.475-0.005,46.952,0.016,70.428c0.005,5.295,0.161,5.375,5.314,3.287
			c37.882-15.349,75.748-30.739,113.624-46.104c16.311-6.617,32.634-13.204,48.95-19.807c4.435-1.795,4.682-1.689,4.691,2.948
			c0.051,28.143,0.013,56.286,0.169,84.429C344.089,339.726,343.023,340.29,340.1,340.292z M340.056,161.042
			c-54.614-20.734-109.265-41.37-163.905-62.036c-0.395-0.149-0.752-0.396-1.127-0.597c0.007-0.282,0.014-0.564,0.022-0.846
			c6.806,0,13.612-0.007,20.418,0.001c48.073,0.06,96.146,0.153,144.219,0.116c3.269-0.003,4.441,0.608,4.408,4.211
			c-0.171,18.645-0.071,37.293,0.043,55.939C344.153,160.975,343.796,162.461,340.056,161.042z"/>
	</g>
</g>
</svg>
