<?xml version="1.0" encoding="iso-8859-1"?>
<!-- Generator: Adobe Illustrator 22.0.1, SVG Export Plug-In . SVG Version: 6.00 Build 0)  -->
<svg version="1.1" id="Layer_1" xmlns="http://www.w3.org/2000/svg" xmlns:xlink="http://www.w3.org/1999/xlink" x="0px" y="0px"
	 viewBox="0 0 438.53 438.53" style="enable-background:new 0 0 438.53 438.53;" xml:space="preserve">
<g id="_x32_27">
	<g>
		<path style="fill:#F4F4F4;" d="M407.603,110.087c-19.45-33.321-45.833-59.704-79.155-79.153
			c-33.328-19.448-69.711-29.17-109.176-29.17c-39.461,0-75.854,9.722-109.177,29.17C76.771,50.38,50.388,76.763,30.938,110.087
			c-19.451,33.326-29.173,69.72-29.173,109.178c0,39.46,9.725,75.847,29.17,109.175c19.449,33.321,45.832,59.704,79.156,79.155
			c33.326,19.447,69.717,29.17,109.177,29.17s75.854-9.723,109.179-29.17c33.322-19.444,59.704-45.834,79.152-79.155
			c19.445-33.325,29.166-69.718,29.166-109.175C436.766,179.803,427.044,143.409,407.603,110.087z M66.698,239.167
			c-0.207-1.413,0.353-3.279-1.751-3.878c0-1.05,0-2.101,0-3.151c0-8.928,0-17.856,0-26.784c0-0.525,0-1.05,0-1.576
			c1.206-17.369,5.05-34.043,12.667-49.805C99.5,108.685,134.64,79.651,183.496,67.389c5.548-1.393,11.416-0.602,16.946-2.257
			c12.604,0,25.208,0,37.813,0c8.209,2.074,16.476,3.948,24.617,6.261c23.354,6.635,43.771,18.503,61.962,35.281
			c-2.717,2.073-5.616,1.211-8.216,1.202c-34.905-0.128-69.681,1.945-104.36,5.829c-2.638,0.295-5.206,0.664-7.43,2.238
			c-5.372,3.803-5.547,9.899-0.065,13.473c6.798,4.432,13.789,8.581,20.812,12.653c4.459,2.584,5.98,5.359,2.433,9.975
			c-42.483,55.298-81.744,112.932-122.927,169.98c-13.025-13.984-22.388-29.783-29.22-47.185
			C71.341,263.323,68.491,251.384,66.698,239.167z M250.997,369.892c-42.552,8.904-82.335,0.795-118.424-23.679
			c-4.28-2.903-7.134-3.253-10.613,0.382c-1.074,1.122-2.474,1.935-3.745,2.863c-10.895,7.95-13.757,7.583-23.644-4.034
			c16.09,1.14,25.861-9.301,36.776-17.366c76.057-56.196,147.457-117.921,216.249-182.713c7.347-6.92,15.457-14.064,11.732-26.397
			c8.137,9.063,8.883,17.162,1.741,25.534c-3.716,4.357-2.834,7.463-0.902,11.855C399.966,246.83,347.592,349.68,250.997,369.892z"
			/>
		<path style="fill:#E41E26;" d="M228.009,152.043c3.546-4.616,2.025-7.391-2.433-9.975c-7.023-4.071-14.014-8.22-20.812-12.653
			c-5.482-3.574-5.307-9.67,0.065-13.473c2.224-1.574,4.792-1.943,7.43-2.238c34.679-3.883,69.455-5.957,104.36-5.829
			c2.6,0.01,5.499,0.871,8.216-1.202c-18.19-16.779-38.607-28.647-61.962-35.281c-8.141-2.313-16.408-4.187-24.617-6.261
			c-12.604,0-25.208,0-37.813,0c-5.53,1.655-11.398,0.864-16.946,2.257C134.64,79.65,99.5,108.685,77.615,153.972
			c-7.617,15.762-11.462,32.436-12.667,49.805c0,0.525,0,1.05,0,1.576c2.688,8.928,2.432,17.856,0,26.784c0,1.05,0,2.101,0,3.151
			c2.104,0.598,1.544,2.465,1.751,3.878c1.794,12.217,4.643,24.157,9.164,35.672c6.832,17.402,16.195,33.2,29.22,47.185
			C146.265,264.975,185.526,207.341,228.009,152.043z"/>
		<path style="fill:#F18F93;" d="M64.947,205.354c0,8.928,0,17.856,0,26.784C66.28,223.21,66.28,214.282,64.947,205.354z"/>
		<path style="fill:#F18F93;" d="M64.947,205.354c1.333,8.928,1.333,17.856,0,26.784C67.378,223.21,67.634,214.282,64.947,205.354z"
			/>
		<path style="fill:#E41E26;" d="M361.068,144.483c7.142-8.373,6.396-16.472-1.741-25.534c3.725,12.333-4.384,19.477-11.732,26.397
			c-68.792,64.792-140.192,126.516-216.249,182.713c-10.915,8.065-20.686,18.506-36.776,17.366
			c9.888,11.617,12.749,11.984,23.644,4.034c1.271-0.927,2.672-1.741,3.745-2.863c3.479-3.636,6.333-3.285,10.613-0.382
			c36.089,24.474,75.872,32.583,118.424,23.679c96.594-20.211,148.969-123.061,109.168-213.554
			C358.234,151.946,357.352,148.84,361.068,144.483z"/>
	</g>
</g>
</svg>
