<?xml version="1.0" encoding="iso-8859-1"?>
<!-- Generator: Adobe Illustrator 22.0.1, SVG Export Plug-In . SVG Version: 6.00 Build 0)  -->
<svg version="1.1" id="Layer_1" xmlns="http://www.w3.org/2000/svg" xmlns:xlink="http://www.w3.org/1999/xlink" x="0px" y="0px"
	 viewBox="0 0 438.53 438.53" style="enable-background:new 0 0 438.53 438.53;" xml:space="preserve">
<g id="_x32_29">
	<g>
		<path style="fill:#FFFC00;" d="M407.603,110.087c-19.45-33.321-45.833-59.704-79.155-79.153
			c-33.328-19.448-69.711-29.17-109.176-29.17c-39.461,0-75.854,9.722-109.177,29.17C76.771,50.38,50.388,76.763,30.938,110.087
			c-19.451,33.326-29.173,69.72-29.173,109.178c0,39.46,9.725,75.847,29.17,109.175c19.449,33.321,45.832,59.704,79.156,79.155
			c33.326,19.447,69.717,29.17,109.177,29.17s75.854-9.723,109.179-29.17c33.322-19.444,59.704-45.834,79.152-79.155
			c19.445-33.325,29.166-69.718,29.166-109.175C436.766,179.803,427.044,143.409,407.603,110.087z M362.597,296.714
			c-3.008,7.039-15.419,12.195-37.923,15.731c-0.602,1.228-1.33,4.563-1.66,6.073c-0.481,2.207-0.97,4.383-1.659,6.724
			c-1.048,3.578-3.794,5.633-7.534,5.633h-0.327c-1.68,0-3.855-0.268-6.654-0.817c-4.255-0.833-9.028-1.603-15.067-1.603
			c-3.5,0-7.128,0.307-10.784,0.911c-7.025,1.171-13.374,5.659-20.095,10.411c-10.557,7.464-22.801,14.375-40.744,14.375
			c-15.965,0-27.879-4.027-42.495-14.363c-6.739-4.761-13.1-9.257-20.125-10.426c-3.649-0.604-7.276-0.91-10.774-0.91
			c-6.304,0-11.364,0.99-15.06,1.712c-2.546,0.498-4.737,0.928-6.661,0.928c-5.379,0-7.236-3.603-7.865-5.75
			c-0.703-2.396-1.209-4.716-1.655-6.763c-0.389-1.779-1.078-4.938-1.671-6.112c-22.498-3.534-34.907-8.701-37.934-15.79
			c-0.936-2.214-0.825-4.832,0.285-6.843c1.005-1.821,2.698-3.011,4.766-3.348c38.36-6.317,55.705-45.801,56.425-47.479
			c1.819-4.294,2.652-7.318,1.506-10.019c-2.076-4.891-10.102-7.437-15.414-9.121c-1.567-0.495-2.999-0.949-4.21-1.426
			c-13.867-5.482-15.761-11.971-14.911-16.449c1.215-6.393,8.656-10.349,14.854-10.349c1.822,0,3.483,0.344,4.935,1.021
			c4.863,2.279,9.156,3.433,12.766,3.433c2.39,0,3.938-0.507,4.833-0.947c-0.338-18.115-0.436-56.737,3.043-64.536
			C163.9,87.76,204.414,84.43,216.376,84.43c1.167,0,2.336-0.015,3.504-0.029c0.706-0.009,1.414-0.017,2.119-0.024
			c12.019,0,52.617,3.333,71.742,46.213c6.456,14.475,4.919,38.81,3.683,58.363l-0.049,0.819c-0.118,1.877-0.232,3.71-0.337,5.493
			c0.813,0.356,2.056,0.724,3.817,0.808c3.435-0.159,7.448-1.305,11.931-3.405c2.133-0.995,4.379-1.203,5.889-1.203
			c2.199,0,4.452,0.433,6.347,1.22c5.57,2.006,9.221,6.261,9.31,10.861c0.111,5.89-4.96,10.901-15.073,14.896
			c-1.239,0.487-2.749,0.965-4.209,1.428c-5.312,1.685-13.341,4.234-15.414,9.119c-1.139,2.68-0.268,5.286,1.247,9.319l0.292,0.78
			c1.129,2.589,18.545,41.159,56.397,47.396c2.081,0.343,3.781,1.549,4.785,3.394C363.46,291.908,363.552,294.528,362.597,296.714z"
			/>
		<path style="fill:#FFFFFF;" d="M293.929,242.107c-0.026-0.06-0.05-0.122-0.074-0.183l-0.319-0.853
			c-1.582-4.207-3.548-9.443-1.125-15.147c3.481-8.208,13.582-11.413,20.265-13.534c1.339-0.424,2.721-0.863,3.707-1.25
			c7.502-2.963,10.131-5.862,10.102-7.442c-0.02-1.057-1.49-2.695-4.175-3.646c-0.057-0.02-0.114-0.042-0.169-0.064l-0.086-0.035
			c-1.826-0.761-4.555-0.82-5.945-0.173c-5.559,2.604-10.695,4.003-15.256,4.149c-6.537-0.207-9.816-3.049-10.661-3.91
			c-0.773-0.787-1.179-1.862-1.118-2.964c0.136-2.488,0.298-5.088,0.466-7.763l0.049-0.82c1.181-18.707,2.651-41.973-3.018-54.685
			c-17.199-38.564-53.749-41.561-64.541-41.561c-0.663,0.005-1.358,0.015-2.053,0.023c-1.2,0.016-2.402,0.03-3.602,0.03
			c-10.767,0-47.233,2.994-64.42,41.532c-3.086,6.917-2.673,47.575-2.32,63.318c0.005,0.23-0.083,0.436-0.218,0.602
			c-0.1,0.824-0.444,1.626-1.064,2.267c-0.896,0.926-4.366,3.947-11.442,3.947c-4.769,0-10.183-1.403-16.09-4.172
			c-0.393-0.183-0.953-0.282-1.611-0.282c-3.105,0-6.777,2.039-7.143,3.966c-0.226,1.19,1.59,4.326,10.083,7.683
			c0.956,0.376,2.263,0.79,3.647,1.228c6.736,2.136,16.834,5.339,20.32,13.554c2.465,5.807,0.512,11.388-1.512,16.163
			c-0.788,1.838-19.475,44.365-61.235,51.95c1.151,1.724,6.657,6.814,32.305,10.775c5.037,0.774,6.237,6.274,7.507,12.097
			c0.44,2.012,0.893,4.095,1.52,6.227c0.012,0.038,0.022,0.071,0.032,0.101c0.078,0.005,0.176,0.009,0.301,0.009
			c1.162,0,3.096-0.378,5.143-0.779c4.022-0.786,9.513-1.859,16.578-1.859c3.927,0,7.984,0.342,12.059,1.017
			c8.801,1.465,15.875,6.464,23.365,11.756c13.327,9.425,23.617,12.927,37.971,12.927c15.75,0,26.714-6.219,36.215-12.937
			c7.147-5.053,14.537-10.277,23.339-11.744c4.083-0.676,8.142-1.018,12.07-1.018c6.708,0,11.932,0.841,16.578,1.75
			c2.821,0.554,4.354,0.67,5.143,0.67h0.327c0.002,0,0.003,0,0.004,0c0.617-2.096,1.071-4.121,1.521-6.183
			c1.268-5.804,2.465-11.284,7.51-12.059c25.624-3.96,31.138-9.018,32.298-10.754C313.425,286.449,294.712,243.929,293.929,242.107z
			"/>
		<path d="M357.572,286.484c-37.852-6.238-55.269-44.808-56.397-47.396l-0.292-0.78c-1.515-4.033-2.386-6.639-1.247-9.319
			c2.072-4.885,10.102-7.434,15.414-9.119c1.46-0.463,2.971-0.941,4.209-1.428c10.113-3.995,15.184-9.007,15.073-14.896
			c-0.089-4.6-3.739-8.855-9.31-10.861c-1.896-0.786-4.148-1.22-6.347-1.22c-1.51,0-3.756,0.208-5.889,1.203
			c-4.483,2.1-8.496,3.246-11.931,3.405c-1.76-0.084-3.004-0.452-3.817-0.808c0.105-1.782,0.22-3.616,0.337-5.493l0.049-0.819
			c1.235-19.553,2.772-43.888-3.683-58.363c-19.125-42.881-59.723-46.213-71.742-46.213c-0.706,0.006-1.413,0.014-2.119,0.024
			c-1.168,0.014-2.337,0.029-3.504,0.029c-11.962,0-52.476,3.33-71.589,46.184c-3.478,7.798-3.381,46.42-3.043,64.536
			c-0.896,0.439-2.443,0.947-4.833,0.947c-3.61,0-7.903-1.155-12.766-3.433c-1.451-0.677-3.113-1.021-4.935-1.021
			c-6.198,0-13.639,3.957-14.854,10.349c-0.851,4.478,1.044,10.966,14.911,16.449c1.211,0.477,2.643,0.931,4.21,1.426
			c5.312,1.684,13.338,4.231,15.414,9.121c1.146,2.702,0.312,5.725-1.506,10.019c-0.72,1.678-18.065,41.163-56.425,47.479
			c-2.067,0.337-3.76,1.527-4.766,3.348c-1.11,2.012-1.221,4.629-0.285,6.843c3.027,7.088,15.436,12.255,37.934,15.79
			c0.593,1.174,1.283,4.333,1.671,6.112c0.446,2.046,0.952,4.366,1.655,6.763c0.629,2.147,2.486,5.75,7.865,5.75
			c1.924,0,4.114-0.429,6.661-0.928c3.696-0.722,8.756-1.712,15.06-1.712c3.498,0,7.125,0.306,10.774,0.91
			c7.026,1.169,13.386,5.665,20.125,10.426c14.616,10.335,26.531,14.363,42.495,14.363c17.943,0,30.188-6.911,40.744-14.375
			c6.721-4.752,13.07-9.24,20.095-10.411c3.656-0.604,7.284-0.911,10.784-0.911c6.04,0,10.813,0.77,15.067,1.603
			c2.798,0.549,4.974,0.817,6.654,0.817h0.327c3.74,0,6.486-2.055,7.534-5.633c0.689-2.341,1.178-4.517,1.659-6.724
			c0.33-1.51,1.058-4.845,1.66-6.073c22.504-3.536,34.916-8.692,37.923-15.731c0.954-2.187,0.863-4.807-0.241-6.836
			C361.352,288.033,359.653,286.827,357.572,286.484z M359.003,295.142c-1.67,3.908-9.203,9.448-35.551,13.52
			c-2.152,0.33-2.987,3.136-4.271,9.017c-0.467,2.14-0.94,4.243-1.591,6.454c-0.561,1.919-1.757,2.816-3.768,2.816h-0.327
			c-1.396,0-3.381-0.25-5.896-0.743c-4.461-0.873-9.462-1.676-15.825-1.676c-3.716,0-7.561,0.325-11.425,0.964
			c-7.905,1.318-14.615,6.056-21.719,11.078c-10.328,7.303-21.87,13.658-38.481,13.658c-16.128,0-27.276-4.484-40.229-13.642
			c-7.117-5.029-13.833-9.776-21.746-11.094c-3.861-0.639-7.704-0.964-11.419-0.964c-6.691,0-11.97,1.033-15.823,1.786
			c-2.342,0.458-4.362,0.852-5.898,0.852c-1.604,0-3.343-0.347-4.098-2.928c-0.657-2.236-1.131-4.402-1.588-6.497
			c-1.177-5.392-2.012-8.708-4.273-9.055c-26.338-4.068-33.877-9.616-35.558-13.552c-0.753-1.781-0.222-4.402,2.074-4.776
			c40.488-6.668,58.644-48.049,59.399-49.807c1.746-4.12,3.387-8.68,1.512-13.098c-2.779-6.548-11.84-9.427-17.839-11.329
			c-1.468-0.465-2.859-0.903-3.957-1.337c-11.969-4.732-12.966-9.59-12.495-12.065c0.802-4.218,6.44-7.158,10.999-7.158
			c1.25,0,2.351,0.221,3.276,0.654c5.384,2.523,10.237,3.801,14.425,3.801c5.785,0,8.311-2.432,8.62-2.75l1.073-0.297
			c-0.11-12.291-1.865-56.617,1.769-64.765c18.151-40.697,56.641-43.859,68.005-43.859c1.885,0,3.77-0.038,5.655-0.053
			c11.391,0,49.965,3.168,68.126,43.887c6.058,13.584,4.559,37.39,3.351,56.517l-0.05,0.832c-0.167,2.664-0.329,5.252-0.465,7.731
			c0.29,0.295,2.612,2.531,7.857,2.733h0.005c3.986-0.153,8.567-1.424,13.594-3.778c1.474-0.688,3.111-0.833,4.224-0.833
			c1.702,0,3.426,0.329,4.858,0.927l0.087,0.035c4.066,1.441,6.73,4.292,6.788,7.27c0.053,2.804-2.088,7.022-12.591,11.171
			c-1.089,0.428-2.48,0.87-3.953,1.337c-6.004,1.906-15.064,4.781-17.84,11.327c-1.941,4.567-0.073,8.832,1.512,13.1
			c0.753,1.756,18.894,43.126,59.4,49.8C359.225,290.732,359.779,293.362,359.003,295.142z"/>
		<path d="M356.936,290.355c-40.506-6.675-58.647-48.044-59.4-49.8c-1.585-4.268-3.453-8.533-1.512-13.1
			c2.777-6.547,11.836-9.422,17.84-11.327c1.473-0.467,2.865-0.909,3.953-1.337c10.503-4.149,12.644-8.366,12.591-11.171
			c-0.057-2.978-2.721-5.829-6.788-7.27l-0.087-0.035c-1.432-0.598-3.157-0.927-4.858-0.927c-1.114,0-2.75,0.145-4.224,0.833
			c-5.027,2.355-9.609,3.625-13.594,3.778h-0.005c-5.245-0.202-7.568-2.438-7.857-2.733c0.136-2.479,0.297-5.067,0.465-7.731
			l0.05-0.832c1.207-19.128,2.706-42.933-3.351-56.517c-18.161-40.719-56.735-43.887-68.126-43.887
			c-1.885,0.015-3.771,0.053-5.655,0.053c-11.364,0-49.854,3.161-68.005,43.859c-3.634,8.148-1.879,52.474-1.769,64.765
			l-1.073,0.297c-0.308,0.319-2.834,2.75-8.62,2.75c-4.187,0-9.04-1.279-14.425-3.801c-0.925-0.432-2.026-0.654-3.276-0.654
			c-4.559,0-10.196,2.94-10.999,7.158c-0.47,2.476,0.526,7.333,12.495,12.065c1.097,0.433,2.489,0.872,3.957,1.337
			c5.999,1.903,15.06,4.781,17.839,11.329c1.875,4.418,0.234,8.978-1.512,13.098c-0.754,1.757-18.91,43.139-59.399,49.807
			c-2.297,0.374-2.827,2.995-2.074,4.776c1.681,3.936,9.219,9.484,35.558,13.552c2.26,0.346,3.096,3.662,4.273,9.055
			c0.457,2.095,0.931,4.26,1.588,6.497c0.755,2.581,2.494,2.928,4.098,2.928c1.535,0,3.556-0.394,5.898-0.852
			c3.854-0.753,9.132-1.786,15.823-1.786c3.714,0,7.558,0.325,11.419,0.964c7.913,1.318,14.629,6.065,21.746,11.094
			c12.953,9.158,24.102,13.642,40.229,13.642c16.611,0,28.153-6.354,38.481-13.658c7.104-5.022,13.815-9.76,21.719-11.078
			c3.864-0.639,7.709-0.964,11.425-0.964c6.363,0,11.364,0.804,15.825,1.676c2.516,0.494,4.501,0.743,5.896,0.743h0.327
			c2.012,0,3.207-0.897,3.768-2.816c0.651-2.211,1.124-4.314,1.591-6.454c1.285-5.881,2.119-8.686,4.271-9.017
			c26.348-4.071,33.88-9.612,35.551-13.52C359.779,293.362,359.225,290.732,356.936,290.355z M322.857,304.786
			c-5.045,0.775-6.242,6.255-7.51,12.059c-0.45,2.062-0.904,4.086-1.521,6.183c-0.001,0-0.002,0-0.004,0h-0.327
			c-0.79,0-2.323-0.116-5.143-0.67c-4.646-0.909-9.869-1.75-16.578-1.75c-3.928,0-7.987,0.342-12.07,1.018
			c-8.802,1.467-16.192,6.691-23.339,11.744c-9.502,6.719-20.466,12.937-36.215,12.937c-14.353,0-24.643-3.502-37.971-12.927
			c-7.489-5.293-14.564-10.291-23.365-11.756c-4.075-0.675-8.132-1.017-12.059-1.017c-7.065,0-12.556,1.074-16.578,1.859
			c-2.047,0.401-3.981,0.779-5.143,0.779c-0.125,0-0.223-0.004-0.301-0.009c-0.01-0.03-0.02-0.064-0.032-0.101
			c-0.626-2.133-1.08-4.215-1.52-6.227c-1.27-5.823-2.47-11.324-7.507-12.097c-25.648-3.961-31.155-9.051-32.305-10.775
			c41.76-7.585,60.447-50.112,61.235-51.95c2.023-4.775,3.976-10.356,1.512-16.163c-3.486-8.215-13.584-11.418-20.32-13.554
			c-1.384-0.437-2.691-0.852-3.647-1.228c-8.492-3.358-10.309-6.493-10.083-7.683c0.367-1.927,4.038-3.966,7.143-3.966
			c0.658,0,1.217,0.099,1.611,0.282c5.907,2.768,11.321,4.172,16.09,4.172c7.077,0,10.547-3.021,11.442-3.947
			c0.62-0.641,0.964-1.443,1.064-2.267c0.135-0.166,0.223-0.372,0.218-0.602c-0.353-15.743-0.766-56.4,2.32-63.318
			c17.187-38.538,53.653-41.532,64.42-41.532c1.2,0,2.402-0.014,3.602-0.03c0.695-0.008,1.39-0.017,2.053-0.023
			c10.792,0,47.342,2.997,64.541,41.561c5.668,12.711,4.199,35.978,3.018,54.685l-0.049,0.82c-0.168,2.675-0.33,5.274-0.466,7.763
			c-0.06,1.101,0.345,2.176,1.118,2.964c0.845,0.861,4.124,3.704,10.661,3.91c4.561-0.146,9.696-1.545,15.256-4.149
			c1.39-0.648,4.119-0.588,5.945,0.173l0.086,0.035c0.055,0.023,0.112,0.045,0.169,0.064c2.684,0.951,4.154,2.589,4.175,3.646
			c0.03,1.58-2.599,4.479-10.102,7.442c-0.986,0.387-2.368,0.826-3.707,1.25c-6.683,2.121-16.784,5.326-20.265,13.534
			c-2.423,5.704-0.456,10.94,1.125,15.147l0.319,0.853c0.024,0.061,0.048,0.122,0.074,0.183
			c0.783,1.823,19.496,44.342,61.226,51.926C353.995,295.768,348.481,300.827,322.857,304.786z"/>
	</g>
</g>
</svg>
