<?xml version="1.0" encoding="iso-8859-1"?>
<!-- Generator: Adobe Illustrator 22.0.1, SVG Export Plug-In . SVG Version: 6.00 Build 0)  -->
<svg version="1.1" id="Layer_1" xmlns="http://www.w3.org/2000/svg" xmlns:xlink="http://www.w3.org/1999/xlink" x="0px" y="0px"
	 viewBox="0 0 438.53 438.53" style="enable-background:new 0 0 438.53 438.53;" xml:space="preserve">
<g id="_x31_">
	<g>
		<path style="fill:#0052B4;" d="M89.898,296.386l21.335,3.381l17.364-17.364l3.945-7.745l0.52,3.28l141.646-141.646l-3.279-0.519
			l7.744-3.946l17.364-17.364l-3.38-21.334l12.358,12.356l53.468-53.468C273.431-19.212,145.72-14.727,65.504,65.502
			C23.018,107.981,1.773,163.815,1.766,219.629c0,49.564,16.767,99.11,50.261,139.345l50.229-50.229L89.898,296.386z
			 M209.766,78.411l9.142-28.134l9.142,28.134h29.58l-23.932,17.387l9.142,28.134l-23.932-17.388l-23.933,17.388l9.142-28.134
			l-23.932-17.387H209.766z M97.383,100.614l26.359,13.429l20.917-20.915l-4.629,29.216l26.358,13.43l-29.217,4.628l-4.628,29.218
			l-13.43-26.358l-29.216,4.629l20.917-20.917L97.383,100.614z M47.048,222.138l28.134-9.142v-29.581l17.386,23.933l28.135-9.142
			l-17.389,23.932l17.389,23.932l-28.135-9.141l-17.386,23.932V231.28L47.048,222.138z"/>
		<polygon style="fill:#FFDA44;" points="194.975,123.932 218.908,106.544 242.84,123.932 233.698,95.799 257.63,78.411 
			228.05,78.411 218.908,50.278 209.766,78.411 180.186,78.411 204.117,95.799 		"/>
		<polygon style="fill:#FFDA44;" points="119.114,143.261 132.544,169.619 137.171,140.401 166.388,135.773 140.03,122.343 
			144.659,93.127 123.742,114.043 97.383,100.614 110.814,126.973 89.898,147.89 		"/>
		<polygon style="fill:#FFDA44;" points="92.568,236.929 120.703,246.07 103.313,222.138 120.703,198.206 92.568,207.348 
			75.182,183.415 75.182,212.996 47.048,222.138 75.182,231.28 75.182,260.861 		"/>
		<polygon style="fill:#FFDA44;" points="132.543,274.658 128.597,282.403 133.062,277.938 		"/>
		<polygon style="fill:#FFDA44;" points="89.898,296.386 102.255,308.745 111.233,299.767 		"/>
		<polygon style="fill:#FFDA44;" points="293.157,93.128 296.537,114.463 305.515,105.485 		"/>
		<polygon style="fill:#FFDA44;" points="271.43,135.772 274.708,136.292 279.173,131.827 		"/>
		<path style="fill:#F0F0F0;" d="M387.506,322.69H143.464l-36.42,36.42h278.741c13.642-16.211,24.554-33.952,32.72-52.619h-30.999
			V322.69z"/>
		<path style="fill:#F0F0F0;" d="M436.054,201.24h-48.548v52.632h46.459C436.772,236.466,437.467,218.785,436.054,201.24z"/>
		<path style="fill:#F0F0F0;" d="M387.506,96.003v52.619h37.7c-8.354-24.656-21.238-48.1-38.647-69.026l-16.408,16.408
			L387.506,96.003L387.506,96.003z"/>
		<path style="fill:#F0F0F0;" d="M218.904,436.767c34.977-0.004,69.96-8.352,101.66-25.038H117.24
			C148.94,428.418,183.919,436.767,218.904,436.767z"/>
		<path style="fill:#D80027;" d="M387.506,201.24h48.548c-1.436-17.831-5.052-35.514-10.848-52.619h-37.7V201.24z"/>
		<path style="fill:#D80027;" d="M387.506,306.491h30.999c7.409-16.936,12.559-34.629,15.46-52.619h-46.459L387.506,306.491
			L387.506,306.491z"/>
		<path style="fill:#D80027;" d="M79.625,386.529c11.818,9.835,24.423,18.256,37.614,25.2h203.325
			c18.886-9.941,36.607-22.838,52.466-38.7c4.494-4.493,8.735-9.144,12.754-13.919h-278.74L79.625,386.529z"/>
		<polygon style="fill:#2E52B2;" points="328.826,148.055 333.911,132.41 338.989,148.055 355.437,148.055 354.658,148.622 
			387.506,148.622 387.506,96.003 370.152,96.003 318.099,148.055 		"/>
		<polygon style="fill:#2E52B2;" points="143.464,322.69 387.506,322.69 387.506,306.491 159.663,306.491 		"/>
		<polygon style="fill:#2E52B2;" points="338.989,204.51 355.437,204.51 342.128,214.173 347.213,229.816 333.911,220.153 
			320.602,229.816 325.686,214.173 312.379,204.51 328.826,204.51 329.889,201.24 268.413,201.24 269.475,204.51 285.923,204.51 
			272.614,214.173 277.699,229.816 264.396,220.153 251.089,229.816 256.172,214.173 253.744,212.411 212.282,253.873 
			261.616,253.873 264.396,245.321 267.172,253.873 331.131,253.873 333.911,245.321 336.688,253.873 387.506,253.873 
			387.506,201.24 337.928,201.24 		"/>
		<polygon style="fill:#2E52B2;" points="354.658,148.622 342.128,157.72 347.213,173.363 333.911,163.698 320.602,173.363 
			325.686,157.72 315.693,150.462 267.555,198.599 268.413,201.24 329.889,201.24 333.911,188.866 337.928,201.24 387.506,201.24 
			387.506,148.622 		"/>
		<polygon style="fill:#2E52B2;" points="338.989,260.963 355.437,260.963 342.128,270.628 347.213,286.271 333.911,276.606 
			320.602,286.271 325.686,270.628 312.379,260.963 328.826,260.963 331.131,253.873 267.172,253.873 269.475,260.963 
			285.923,260.963 272.614,270.628 277.699,286.271 264.396,276.606 251.089,286.271 256.172,270.628 242.864,260.963 
			259.312,260.963 261.616,253.873 212.282,253.873 205.191,260.963 216.408,260.963 203.099,270.628 208.183,286.271 
			194.882,276.606 181.573,286.271 182.387,283.768 159.663,306.491 387.506,306.491 387.506,253.873 336.688,253.873 		"/>
		<polygon style="fill:#F0F0F0;" points="181.573,286.271 194.882,276.606 208.183,286.271 203.099,270.628 216.408,260.963 
			205.191,260.963 182.387,283.768 		"/>
		<polygon style="fill:#F0F0F0;" points="253.744,212.411 256.172,214.173 251.089,229.816 264.396,220.153 277.699,229.816 
			272.614,214.173 285.923,204.51 269.475,204.51 268.413,201.24 264.914,201.24 		"/>
		<polygon style="fill:#F0F0F0;" points="268.413,201.24 267.555,198.599 264.914,201.24 		"/>
		<polygon style="fill:#F0F0F0;" points="264.396,245.321 261.616,253.873 267.172,253.873 		"/>
		<polygon style="fill:#F0F0F0;" points="242.864,260.963 256.172,270.628 251.089,286.271 264.396,276.606 277.699,286.271 
			272.614,270.628 285.923,260.963 269.475,260.963 267.172,253.873 261.616,253.873 259.312,260.963 		"/>
		<polygon style="fill:#F0F0F0;" points="333.911,245.321 331.131,253.873 336.688,253.873 		"/>
		<polygon style="fill:#F0F0F0;" points="312.379,260.963 325.686,270.628 320.602,286.271 333.911,276.606 347.213,286.271 
			342.128,270.628 355.437,260.963 338.989,260.963 336.688,253.873 331.131,253.873 328.826,260.963 		"/>
		<polygon style="fill:#F0F0F0;" points="312.379,204.51 325.686,214.173 320.602,229.816 333.911,220.153 347.213,229.816 
			342.128,214.173 355.437,204.51 338.989,204.51 337.928,201.24 329.889,201.24 328.826,204.51 		"/>
		<polygon style="fill:#F0F0F0;" points="333.911,188.866 329.889,201.24 337.928,201.24 		"/>
		<polygon style="fill:#F0F0F0;" points="338.989,148.055 333.911,132.41 328.826,148.055 318.099,148.055 317.533,148.622 
			354.658,148.622 355.437,148.055 		"/>
		<polygon style="fill:#F0F0F0;" points="315.693,150.462 325.686,157.72 320.602,173.363 333.911,163.698 347.213,173.363 
			342.128,157.72 354.658,148.622 317.533,148.622 		"/>
		<path style="fill:#FFFFFF;" d="M373.031,64.757c0.116,0.116,0.226,0.236,0.342,0.352c0.134,0.133,0.271,0.261,0.404,0.394
			l-0.011,0.011c4.506,4.549,8.772,9.247,12.794,14.082l0.244-0.244c-8.418-9.927-17.705-19.102-27.756-27.399l-0.065,0.065
			c4.818,4.011,9.504,8.257,14.039,12.749L373.031,64.757z"/>
		<path style="fill:#FFFFFF;" d="M52.027,358.973l-0.248,0.248c2.055,2.421,4.158,4.8,6.315,7.13l6.671,6.671l0.01-0.01
			C60.283,368.478,56.037,363.791,52.027,358.973z"/>
		<path style="fill:#FFFFFF;" d="M64.764,373.023l0.746,0.746c-0.123-0.123-0.241-0.25-0.364-0.373
			C65.02,373.27,64.89,373.149,64.764,373.023z"/>
		<path style="fill:#FFFFFF;" d="M65.52,373.759l-0.009,0.009l4.476,4.476c3.104,2.877,6.287,5.672,9.555,8.369l0.084-0.084
			c-2.656-2.211-5.286-4.469-7.859-6.825C69.655,377.77,67.572,375.789,65.52,373.759z"/>
		<polygon style="fill:#FFFFFF;" points="128.597,282.403 111.233,299.767 119.115,301.016 		"/>
		<path style="fill:#FFFFFF;" d="M373.776,65.502c-0.133-0.133-0.27-0.261-0.404-0.394c0.133,0.134,0.261,0.271,0.393,0.405
			L373.776,65.502z"/>
		<path style="fill:#FFFFFF;" d="M65.146,373.395c0.123,0.124,0.241,0.25,0.364,0.373l0.009-0.009
			C65.396,373.637,65.27,373.518,65.146,373.395z"/>
		<path style="fill:#FFFFFF;" d="M314.075,114.044L333.787,104l7.997-7.997l21.932-21.932l9.305-9.305
			c-4.534-4.492-9.221-8.737-14.039-12.749l-53.468,53.468L314.075,114.044z"/>
		<polygon style="fill:#FFFFFF;" points="296.537,114.463 279.173,131.827 297.786,122.343 		"/>
		<path style="fill:#FFFFFF;" d="M71.766,366.021l2.326-2.326l0,0l4.585-4.585l22.091-22.091l10.045-19.716l-8.558-8.558
			l-50.229,50.229c4.011,4.818,8.256,9.505,12.747,14.04L71.766,366.021z"/>
		<polygon style="fill:#FFFFFF;" points="175.362,262.425 176.824,260.963 183.914,253.873 208.06,229.727 208.131,229.656 
			236.547,201.24 270.01,167.777 274.442,163.345 289.165,148.622 297.832,139.955 274.708,136.292 133.062,277.938 
			136.726,301.061 		"/>
		<polygon style="fill:#FFFFFF;" points="131.296,306.491 136.726,301.061 133.062,277.938 128.597,282.403 119.115,301.016 
			111.233,299.767 102.255,308.745 110.813,317.303 100.768,337.019 115.097,322.69 		"/>
		<polygon style="fill:#FFFFFF;" points="333.787,104 314.075,114.044 305.515,105.485 296.537,114.463 297.786,122.343 
			279.173,131.827 274.708,136.292 297.832,139.955 		"/>
		<polygon style="fill:#FFFFFF;" points="99.218,340.061 80.169,359.11 107.044,359.11 143.464,322.69 116.589,322.69 		"/>
		<polygon style="fill:#FFFFFF;" points="100.768,337.019 78.677,359.11 80.169,359.11 99.218,340.061 		"/>
		<polygon style="fill:#FFFFFF;" points="116.589,322.69 115.097,322.69 100.768,337.019 99.218,340.061 		"/>
		<path style="fill:#FFFFFF;" d="M364.462,74.817l-21.186,21.186h26.875l16.408-16.408c-4.022-4.835-8.287-9.533-12.794-14.082
			L364.462,74.817z"/>
		<path style="fill:#FFFFFF;" d="M373.031,64.757l-0.009,0.009c0.116,0.115,0.235,0.227,0.351,0.342
			C373.257,64.992,373.147,64.872,373.031,64.757z"/>
		<path style="fill:#FFFFFF;" d="M364.462,74.817l9.304-9.304c-0.133-0.134-0.26-0.271-0.393-0.405
			c-0.116-0.116-0.235-0.227-0.351-0.342l-9.305,9.305l-21.932,21.932h1.492L364.462,74.817z"/>
		<path style="fill:#FFFFFF;" d="M64.774,373.013l-0.01,0.01c0.126,0.126,0.255,0.247,0.382,0.372
			C65.02,373.269,64.899,373.14,64.774,373.013z"/>
		<path style="fill:#FFFFFF;" d="M71.766,379.704v-12.191l-6.246,6.246C67.572,375.789,69.655,377.77,71.766,379.704z"/>
		<path style="fill:#FFFFFF;" d="M64.774,373.013c0.125,0.127,0.247,0.256,0.372,0.382c0.124,0.123,0.25,0.242,0.373,0.364
			l6.246-6.246v-1.492L64.774,373.013z"/>
		<path style="fill:#FFFFFF;" d="M80.169,359.11l-5.331,5.331l0,0l-3.072,3.072v12.191c2.573,2.356,5.203,4.615,7.859,6.825
			l27.419-27.419H80.169z"/>
		<polygon style="fill:#FFFFFF;" points="74.092,363.695 74.092,363.695 71.766,366.021 71.766,367.513 74.838,364.441 
			74.838,364.441 80.169,359.11 78.677,359.11 		"/>
		<polygon style="fill:#FFFFFF;" points="299.12,140.159 290.657,148.622 313.159,148.622 312.379,148.055 318.099,148.055 
			370.152,96.003 343.276,96.003 336.829,102.45 		"/>
		<polygon style="fill:#FFFFFF;" points="343.276,96.003 341.784,96.003 333.787,104 336.829,102.45 		"/>
		<polygon style="fill:#FFFFFF;" points="299.12,140.159 297.832,139.955 289.165,148.622 290.657,148.622 		"/>
		<polygon style="fill:#FFFFFF;" points="299.12,140.159 336.829,102.45 333.787,104 297.832,139.955 		"/>
		<polygon style="fill:#FFFFFF;" points="132.788,306.491 116.589,322.69 143.464,322.69 159.663,306.491 		"/>
		<polygon style="fill:#FFFFFF;" points="115.097,322.69 116.589,322.69 132.788,306.491 131.296,306.491 		"/>
		<polygon style="fill:#FFFFFF;" points="259.312,204.51 260.374,201.24 238.039,201.24 185.406,253.873 192.102,253.873 
			194.882,245.321 197.658,253.873 212.282,253.873 253.744,212.411 242.864,204.51 		"/>
		<polygon style="fill:#FFFFFF;" points="238.039,201.24 236.547,201.24 208.131,229.656 208.183,229.816 208.06,229.727 
			183.914,253.873 185.406,253.873 		"/>
		<polygon style="fill:#FFFFFF;" points="290.657,148.622 274.808,164.471 277.699,173.363 270.874,168.405 238.039,201.24 
			260.374,201.24 264.396,188.866 267.555,198.599 315.693,150.462 313.159,148.622 		"/>
		<polygon style="fill:#FFFFFF;" points="270.874,168.405 270.01,167.777 236.547,201.24 238.039,201.24 		"/>
		<polygon style="fill:#FFFFFF;" points="290.657,148.622 289.165,148.622 274.442,163.345 274.808,164.471 		"/>
		<polygon style="fill:#FFFFFF;" points="189.797,260.963 192.102,253.873 185.406,253.873 178.316,260.963 		"/>
		<polygon style="fill:#FFFFFF;" points="185.406,253.873 183.914,253.873 176.824,260.963 178.316,260.963 		"/>
		<polygon style="fill:#FFFFFF;" points="176.226,263.053 136.93,302.349 132.788,306.491 159.663,306.491 182.387,283.768 
			186.658,270.628 		"/>
		<polygon style="fill:#FFFFFF;" points="199.959,260.963 205.191,260.963 212.282,253.873 197.658,253.873 		"/>
		<polygon style="fill:#FFFFFF;" points="176.226,263.053 175.362,262.425 136.726,301.061 136.93,302.349 		"/>
		<polygon style="fill:#FFFFFF;" points="136.726,301.061 131.296,306.491 132.788,306.491 136.93,302.349 		"/>
		<polygon style="fill:#FFFFFF;" points="208.131,229.656 208.06,229.727 208.183,229.816 		"/>
		<polygon style="fill:#FFFFFF;" points="194.882,245.321 192.102,253.873 197.658,253.873 		"/>
		<polygon style="fill:#FFFFFF;" points="197.658,253.873 192.102,253.873 189.797,260.963 178.316,260.963 176.226,263.053 
			186.658,270.628 182.387,283.768 205.191,260.963 199.959,260.963 		"/>
		<polygon style="fill:#FFFFFF;" points="178.316,260.963 176.824,260.963 175.362,262.425 176.226,263.053 		"/>
		<polygon style="fill:#FFFFFF;" points="260.374,201.24 259.312,204.51 242.864,204.51 253.744,212.411 264.914,201.24 		"/>
		<polygon style="fill:#FFFFFF;" points="260.374,201.24 264.914,201.24 267.555,198.599 264.396,188.866 		"/>
		<polygon style="fill:#FFFFFF;" points="277.699,173.363 274.808,164.471 270.874,168.405 		"/>
		<polygon style="fill:#FFFFFF;" points="274.808,164.471 274.442,163.345 270.01,167.777 270.874,168.405 		"/>
		<polygon style="fill:#FFFFFF;" points="318.099,148.055 312.379,148.055 313.159,148.622 317.533,148.622 		"/>
		<polygon style="fill:#FFFFFF;" points="313.159,148.622 315.693,150.462 317.533,148.622 		"/>
	</g>
</g>
</svg>
