<?xml version="1.0" encoding="iso-8859-1"?>
<!-- Generator: Adobe Illustrator 22.0.1, SVG Export Plug-In . SVG Version: 6.00 Build 0)  -->
<svg version="1.1" id="Layer_1" xmlns="http://www.w3.org/2000/svg" xmlns:xlink="http://www.w3.org/1999/xlink" x="0px" y="0px"
	 viewBox="0 0 438.53 438.53" style="enable-background:new 0 0 438.53 438.53;" xml:space="preserve">
<g id="_x32_35">
	<g>
		<path style="fill:#F0F0F0;" d="M274.87,191.283h160.154c-2.671-21.091-8.418-41.86-17.235-61.581h-81.338L274.87,191.283z"/>
		<path style="fill:#F0F0F0;" d="M79.604,386.548c2.943,2.445,5.935,4.804,8.973,7.073h260.65
			c8.302-6.2,16.266-13.056,23.802-20.593c12.607-12.605,23.329-26.39,32.196-40.993H134.118L79.604,386.548z"/>
		<path style="fill:#0052B4;" d="M435.024,191.283H274.87L134.118,332.035h271.108C431.189,289.276,441.124,239.453,435.024,191.283
			z"/>
		<path style="fill:#D80027;" d="M417.789,129.702c-7.927-17.729-18.346-34.602-31.24-50.099l-50.099,50.099H417.789z"/>
		<path style="fill:#D80027;" d="M218.904,436.766c45.912-0.005,91.83-14.396,130.324-43.144H88.577
			C127.077,422.373,172.982,436.766,218.904,436.766z"/>
		<path style="fill:#F0F0F0;" d="M4.245,252.466c1.556,10.296,3.848,20.5,6.877,30.528h102.944l-68.212,68.213
			c1.99,2.624,4.051,5.211,6.173,7.764l106.504-106.504H4.245V252.466z"/>
		<path style="fill:#F0F0F0;" d="M187.765,191.412V4.082c-10.292,1.509-20.497,3.75-30.527,6.729v106.904L86.524,47.002
			c-7.303,5.64-14.328,11.805-21.021,18.499c-0.61,0.61-1.2,1.232-1.802,1.848l93.537,93.537v0.001v0.001v-0.001h-28.78
			L50.139,82.569c-2.161,2.668-4.256,5.373-6.272,8.118l70.202,70.202H9.786c-2.792,10.042-4.853,20.244-6.185,30.524
			L187.765,191.412L187.765,191.412z"/>
		<path style="fill:#F0F0F0;" d="M358.979,52.019c-2.551-2.124-5.138-4.185-7.762-6.175l-71.873,71.872V10.043
			c-10.039-2.842-20.241-4.952-30.525-6.329V162.18L358.979,52.019z"/>
		<path style="fill:#0052B4;" d="M43.867,90.686c-15.827,21.549-27.179,45.381-34.081,70.202h104.283L43.867,90.686z"/>
		<path style="fill:#0052B4;" d="M11.122,282.994c7.3,24.167,18.88,47.302,34.733,68.213l68.212-68.213L11.122,282.994
			L11.122,282.994z"/>
		<path style="fill:#0052B4;" d="M351.217,45.844c-21.963-16.653-46.383-28.586-71.873-35.801v107.673L351.217,45.844z"/>
		<path style="fill:#0052B4;" d="M157.238,10.812c-25.109,7.457-49.128,19.52-70.714,36.191l70.714,70.714V10.812z"/>
		<path style="fill:#D80027;" d="M248.819,162.179V3.714C228.561,1,207.994,1.117,187.765,4.082v187.33v0.001H3.601
			c-1.213,9.363-1.835,18.788-1.836,28.215c0,10.981,0.835,21.96,2.48,32.839h154.287L248.819,162.179z"/>
		<path style="fill:#D80027;" d="M157.238,160.887L157.238,160.887L63.701,67.349c-4.796,4.909-9.323,9.985-13.562,15.22
			l78.319,78.319h28.78V160.887z"/>
		<path style="fill:#FFFFFF;" d="M52.027,358.971l-0.25,0.25c2.055,2.421,4.158,4.8,6.315,7.13l6.671,6.671l0.007-0.007
			C60.279,368.479,56.035,363.791,52.027,358.971z"/>
		<path style="fill:#FFFFFF;" d="M65.51,373.767l4.476,4.476c3.104,2.877,6.287,5.672,9.555,8.369l0.064-0.064
			c-4.837-4.019-9.537-8.282-14.088-12.788L65.51,373.767z"/>
		<path style="fill:#FFFFFF;" d="M64.764,373.021l0.746,0.746c-0.128-0.128-0.251-0.257-0.379-0.385
			C65.009,373.261,64.885,373.143,64.764,373.021z"/>
		<path style="fill:#FFFFFF;" d="M373.021,64.764l0.009-0.009c0.12,0.12,0.235,0.243,0.354,0.363
			c0.13,0.129,0.262,0.253,0.392,0.383l-0.009,0.009c0.733,0.746,1.465,1.493,2.189,2.245c3.704,3.847,7.229,7.803,10.594,11.848
			l0.254-0.254c-8.418-9.927-17.705-19.102-27.756-27.399l-0.068,0.068c0.083,0.069,0.167,0.135,0.25,0.204
			C363.96,56.173,368.564,60.351,373.021,64.764z"/>
		<path style="fill:#FFFFFF;" d="M375.955,67.755c-0.724-0.752-1.455-1.499-2.189-2.245l-2.245,2.245H375.955z"/>
		<path style="fill:#FFFFFF;" d="M373.03,64.755l-0.009,0.009c0.12,0.119,0.243,0.235,0.363,0.354
			C373.265,64.998,373.15,64.875,373.03,64.755z"/>
		<polygon style="fill:#FFFFFF;" points="309.575,129.702 279.345,159.932 248.819,190.458 247.994,191.283 274.87,191.283 
			336.451,129.702 		"/>
		<path style="fill:#FFFFFF;" d="M64.77,373.015l-0.007,0.007c0.122,0.122,0.246,0.239,0.367,0.361
			C65.01,373.26,64.891,373.137,64.77,373.015z"/>
		<path style="fill:#FFFFFF;" d="M107.242,332.035L74.837,364.44l0,0l-9.321,9.321c4.55,4.506,9.251,8.769,14.088,12.788
			l54.514-54.514H107.242z"/>
		<polygon style="fill:#FFFFFF;" points="186.811,252.466 107.242,332.035 134.118,332.035 274.87,191.283 247.994,191.283 		"/>
		<path style="fill:#FFFFFF;" d="M371.522,67.755l-7.06,7.06l-54.886,54.886h26.875l50.099-50.099
			c-3.365-4.045-6.89-8.001-10.594-11.848h-4.434V67.755z"/>
		<path style="fill:#FFFFFF;" d="M65.131,373.382c0.127,0.128,0.251,0.258,0.379,0.385l0.007-0.007
			C65.389,373.634,65.259,373.509,65.131,373.382z"/>
		<path style="fill:#FFFFFF;" d="M74.091,363.694L74.091,363.694l31.659-31.659l79.569-79.568h-26.787L52.027,358.971
			c4.007,4.821,8.252,9.509,12.743,14.044L74.091,363.694z"/>
		<path style="fill:#FFFFFF;" d="M74.091,363.694L74.091,363.694l-9.321,9.321c0.121,0.122,0.24,0.245,0.361,0.367
			c0.128,0.127,0.257,0.252,0.385,0.378l9.321-9.321l0,0l32.405-32.405h-1.492L74.091,363.694z"/>
		<polygon style="fill:#FFFFFF;" points="185.319,252.466 105.75,332.035 107.242,332.035 186.811,252.466 		"/>
		<path style="fill:#FFFFFF;" d="M248.819,188.966l30.526-30.526v-26.333l79.884-79.885c-0.083-0.069-0.167-0.135-0.25-0.204
			l-110.16,110.161V188.966z"/>
		<polygon style="fill:#FFFFFF;" points="279.345,159.932 279.345,158.44 248.819,188.966 248.819,190.458 		"/>
		<polygon style="fill:#FFFFFF;" points="248.819,188.966 248.819,162.179 158.532,252.466 185.319,252.466 246.502,191.283 		"/>
		<polygon style="fill:#FFFFFF;" points="247.994,191.283 248.819,190.458 248.819,188.966 246.502,191.283 		"/>
		<polygon style="fill:#FFFFFF;" points="247.994,191.283 246.502,191.283 185.319,252.466 186.811,252.466 		"/>
		<path style="fill:#FFFFFF;" d="M373.776,65.501c-0.129-0.129-0.262-0.254-0.392-0.383c0.129,0.13,0.254,0.262,0.382,0.392
			L373.776,65.501z"/>
		<path style="fill:#FFFFFF;" d="M363.716,74.07l6.314-6.314l2.991-2.991c-4.458-4.413-9.062-8.591-13.792-12.541l-79.884,79.885
			v26.333l28.738-28.738L363.716,74.07z"/>
		<path style="fill:#FFFFFF;" d="M371.522,67.755l2.245-2.245c-0.128-0.13-0.253-0.262-0.382-0.392
			c-0.12-0.12-0.243-0.235-0.363-0.354l-2.991,2.991H371.522z"/>
		<polygon style="fill:#FFFFFF;" points="309.575,129.702 308.083,129.702 279.345,158.44 279.345,159.932 		"/>
		<polygon style="fill:#FFFFFF;" points="363.716,74.07 308.083,129.702 309.575,129.702 364.462,74.816 371.522,67.755 
			370.03,67.755 		"/>
	</g>
</g>
</svg>
