<?xml version="1.0" encoding="iso-8859-1"?>
<!-- Generator: Adobe Illustrator 22.0.1, SVG Export Plug-In . SVG Version: 6.00 Build 0)  -->
<svg version="1.1" id="Layer_1" xmlns="http://www.w3.org/2000/svg" xmlns:xlink="http://www.w3.org/1999/xlink" x="0px" y="0px"
	 viewBox="0 0 438.53 438.53" style="enable-background:new 0 0 438.53 438.53;" xml:space="preserve">
<g id="_x32_36">
	<g>
		<path style="fill:#F0F0F0;" d="M386.548,79.603l-80.599,80.599c15.344,19.076,24.529,43.316,24.529,69.703
			c0,61.47-49.831,111.301-111.301,111.301c-26.387,0-50.626-9.186-69.703-24.529l-69.866,69.866
			c40.225,33.466,89.749,50.219,139.292,50.219c55.812-0.007,111.645-21.252,154.122-63.736
			C453.235,292.826,457.734,165.151,386.548,79.603z"/>
		<path style="fill:#D80027;" d="M219.178,341.205c61.47,0,111.301-49.831,111.301-111.301c0-26.387-9.186-50.626-24.529-69.703
			L149.475,316.676C168.552,332.02,192.791,341.205,219.178,341.205z"/>
		<path style="fill:#F0F0F0;" d="M158.508,252.49H4.252c3.243,21.44,9.68,42.481,19.309,62.355h72.592L158.508,252.49z"/>
		<path style="fill:#F0F0F0;" d="M358.98,52.018c-1.796-1.494-3.608-2.959-5.44-4.387H85.733
			c-7.017,5.472-13.778,11.425-20.228,17.876c-13.602,13.6-25.016,28.574-34.264,44.474h269.776L358.98,52.018z"/>
		<path style="fill:#0052B4;" d="M301.017,109.981H31.241C11.605,143.74,1.774,181.686,1.769,219.629
			c0,10.988,0.836,21.975,2.483,32.861h154.256L301.017,109.981z"/>
		<path style="fill:#D80027;" d="M85.733,47.631H353.54C275.11-13.519,164.158-13.519,85.733,47.631z"/>
		<path style="fill:#D80027;" d="M23.561,314.845c7.534,15.55,17.025,30.381,28.464,44.128l44.128-44.128H23.561z"/>
		<path style="fill:#FFFFFF;" d="M373.023,64.761c0.138,0.138,0.269,0.279,0.406,0.417c0.112,0.112,0.228,0.217,0.34,0.329
			l-0.009,0.009c4.506,4.549,8.766,9.252,12.788,14.086l0.248-0.248c-8.418-9.926-17.705-19.101-27.755-27.398l-0.061,0.061
			c4.818,4.009,9.498,8.264,14.032,12.754L373.023,64.761z"/>
		<path style="fill:#FFFFFF;" d="M52.025,358.973l-0.245,0.245c2.054,2.421,4.158,4.8,6.315,7.129l6.671,6.671l0.008-0.008
			C60.283,368.476,56.035,363.791,52.025,358.973z"/>
		<path style="fill:#FFFFFF;" d="M65.512,373.765l4.476,4.476c3.104,2.877,6.286,5.672,9.555,8.368l0.067-0.067
			c-4.835-4.023-9.538-8.281-14.088-12.787L65.512,373.765z"/>
		<path style="fill:#FFFFFF;" d="M64.766,373.019l0.746,0.746c-0.136-0.136-0.267-0.275-0.402-0.411
			C64.996,373.241,64.879,373.132,64.766,373.019z"/>
		<path style="fill:#FFFFFF;" d="M364.455,74.821l-35.159,35.159l-36.477,36.477c4.755,4.2,9.152,8.796,13.131,13.743l80.599-80.599
			c-4.023-4.835-8.282-9.537-12.788-14.086L364.455,74.821z"/>
		<path style="fill:#FFFFFF;" d="M64.774,373.011l-0.008,0.008c0.113,0.113,0.23,0.222,0.344,0.335
			C64.996,373.24,64.886,373.125,64.774,373.011z"/>
		<path style="fill:#FFFFFF;" d="M135.732,303.545l-11.301,11.301l-49.592,49.592l0,0l-9.318,9.318
			c4.55,4.506,9.253,8.765,14.088,12.787l69.866-69.866C144.528,312.696,139.931,308.3,135.732,303.545z"/>
		<path style="fill:#FFFFFF;" d="M373.023,64.761l-0.012,0.012c0.138,0.137,0.28,0.268,0.418,0.405
			C373.292,65.04,373.161,64.899,373.023,64.761z"/>
		<path style="fill:#FFFFFF;" d="M292.818,146.458L186.787,252.49l-51.055,51.055c4.2,4.755,8.796,9.152,13.743,13.131
			L305.95,160.201C301.97,155.254,297.574,150.658,292.818,146.458z"/>
		<polygon style="fill:#FFFFFF;" points="185.295,252.49 158.508,252.49 96.153,314.845 122.939,314.845 135.029,302.755 		"/>
		<path style="fill:#FFFFFF;" d="M122.939,314.845h1.492l11.301-11.301c-0.233-0.264-0.472-0.523-0.702-0.79L122.939,314.845z"/>
		<path style="fill:#FFFFFF;" d="M185.295,252.49l-50.265,50.265c0.231,0.266,0.469,0.526,0.702,0.79l51.055-51.055L185.295,252.49
			L185.295,252.49z"/>
		<path style="fill:#FFFFFF;" d="M373.769,65.507c-0.112-0.112-0.228-0.218-0.34-0.329c0.112,0.112,0.219,0.227,0.33,0.339
			L373.769,65.507z"/>
		<path style="fill:#FFFFFF;" d="M327.804,109.981l35.905-35.905l9.303-9.303c-4.534-4.49-9.214-8.746-14.032-12.754l-57.962,57.962
			H327.804z"/>
		<path style="fill:#FFFFFF;" d="M364.455,74.821l9.305-9.305c-0.111-0.112-0.219-0.227-0.33-0.339
			c-0.138-0.137-0.28-0.268-0.418-0.405l-9.303,9.303l-35.905,35.905h1.492L364.455,74.821z"/>
		<polygon style="fill:#FFFFFF;" points="292.029,145.756 327.804,109.981 301.017,109.981 158.508,252.49 185.295,252.49 		"/>
		<path style="fill:#FFFFFF;" d="M292.818,146.458l36.477-36.477h-1.492l-35.775,35.775
			C292.295,145.986,292.554,146.225,292.818,146.458z"/>
		<path style="fill:#FFFFFF;" d="M185.295,252.49h1.492l106.032-106.032c-0.264-0.233-0.523-0.472-0.789-0.702L185.295,252.49z"/>
		<path style="fill:#FFFFFF;" d="M65.109,373.354c0.135,0.136,0.266,0.275,0.402,0.411l0.01-0.01
			C65.385,373.62,65.245,373.489,65.109,373.354z"/>
		<path style="fill:#FFFFFF;" d="M74.093,363.691L74.093,363.691l48.846-48.846H96.153l-44.128,44.128
			c4.009,4.818,8.258,9.503,12.748,14.038L74.093,363.691z"/>
		<path style="fill:#FFFFFF;" d="M74.093,363.691L74.093,363.691l-9.319,9.319c0.113,0.114,0.223,0.229,0.336,0.343
			c0.136,0.136,0.275,0.266,0.412,0.401l9.318-9.318l0,0l49.592-49.592h-1.492L74.093,363.691z"/>
	</g>
</g>
</svg>
