<?xml version="1.0" encoding="iso-8859-1"?>
<!-- Generator: Adobe Illustrator 22.0.1, SVG Export Plug-In . SVG Version: 6.00 Build 0)  -->
<svg version="1.1" id="Layer_1" xmlns="http://www.w3.org/2000/svg" xmlns:xlink="http://www.w3.org/1999/xlink" x="0px" y="0px"
	 viewBox="0 0 438.53 438.53" style="enable-background:new 0 0 438.53 438.53;" xml:space="preserve">
<g id="_x32_37">
	<g>
		<path style="fill:#F0F0F0;" d="M79.604,386.55c2.943,2.445,5.935,4.804,8.973,7.073h260.65c8.302-6.2,16.266-13.056,23.802-20.593
			c12.607-12.605,23.329-26.39,32.196-40.993H134.118L79.604,386.55z"/>
		<path style="fill:#F0F0F0;" d="M274.87,191.284h160.154c-2.671-21.091-8.418-41.86-17.235-61.581h-81.338L274.87,191.284z"/>
		<path style="fill:#0052B4;" d="M435.024,191.284H274.87L134.118,332.036h271.108C431.189,289.278,441.124,239.454,435.024,191.284
			z"/>
		<path style="fill:#D80027;" d="M417.789,129.703c-7.927-17.729-18.346-34.602-31.24-50.099l-50.099,50.099H417.789z"/>
		<path style="fill:#D80027;" d="M218.904,436.767c45.912-0.005,91.83-14.396,130.324-43.144H88.577
			C127.077,422.374,172.982,436.767,218.904,436.767z"/>
		<path style="fill:#D80027;" d="M142.179,239.754H61.047v-81.132h81.132V77.489h81.133v81.133h29.065L358.982,52.017
			C273.431-19.212,145.72-14.727,65.503,65.502C23.018,107.981,1.772,163.815,1.765,219.629c0,49.564,16.767,99.11,50.261,139.345
			l90.153-90.153V239.754z"/>
		<polygon style="fill:#F0F0F0;" points="223.312,158.622 223.312,77.489 142.179,77.489 142.179,158.622 61.047,158.622 
			61.047,239.754 142.179,239.754 142.179,268.82 252.377,158.622 		"/>
		<path style="fill:#FFFFFF;" d="M373.03,64.757c0.125,0.125,0.244,0.253,0.368,0.378c0.125,0.124,0.253,0.243,0.378,0.368
			l-0.009,0.009c0.733,0.746,1.465,1.493,2.189,2.245c3.704,3.847,7.229,7.803,10.594,11.848l0.254-0.254
			c-8.418-9.927-17.705-19.102-27.756-27.399l-0.065,0.065c4.818,4.011,9.504,8.257,14.039,12.749L373.03,64.757z"/>
		<path style="fill:#FFFFFF;" d="M64.764,373.023l0.746,0.746c-0.105-0.105-0.205-0.212-0.309-0.317
			C65.056,373.307,64.908,373.167,64.764,373.023z"/>
		<path style="fill:#FFFFFF;" d="M52.026,358.973l-0.248,0.248c2.055,2.421,4.158,4.8,6.315,7.13l6.671,6.671l0.01-0.01
			C60.282,368.478,56.037,363.791,52.026,358.973z"/>
		<path style="fill:#FFFFFF;" d="M65.51,373.769l4.476,4.476c3.104,2.877,6.287,5.672,9.555,8.369l0.064-0.064
			c-4.837-4.019-9.537-8.282-14.088-12.788L65.51,373.769z"/>
		<path style="fill:#FFFFFF;" d="M373.03,64.757l-0.009,0.009c0.125,0.124,0.253,0.244,0.378,0.368
			C373.274,65.009,373.155,64.881,373.03,64.757z"/>
		<path style="fill:#FFFFFF;" d="M375.955,67.757c-0.724-0.752-1.455-1.499-2.189-2.245l-2.245,2.245H375.955z"/>
		<path style="fill:#FFFFFF;" d="M64.773,373.013l-0.01,0.01c0.145,0.145,0.292,0.285,0.437,0.429
			C65.056,373.306,64.917,373.158,64.773,373.013z"/>
		<path style="fill:#FFFFFF;" d="M107.242,332.036l-32.405,32.405l0,0l-9.321,9.321c4.55,4.506,9.251,8.769,14.088,12.788
			l54.514-54.514H107.242z"/>
		<polygon style="fill:#FFFFFF;" points="309.575,129.703 280.656,158.622 247.994,191.284 274.87,191.284 336.451,129.703 		"/>
		<polygon style="fill:#FFFFFF;" points="142.179,297.099 107.242,332.036 134.118,332.036 274.87,191.284 247.994,191.284 		"/>
		<path style="fill:#FFFFFF;" d="M371.522,67.757l-7.06,7.06l-54.886,54.886h26.875l50.099-50.099
			c-3.365-4.045-6.89-8.001-10.594-11.848L371.522,67.757L371.522,67.757z"/>
		<path style="fill:#FFFFFF;" d="M65.2,373.451c0.104,0.105,0.205,0.213,0.309,0.317l0.007-0.007
			C65.412,373.658,65.305,373.556,65.2,373.451z"/>
		<path style="fill:#FFFFFF;" d="M279.164,158.622l28.919-28.919l55.632-55.632l6.314-6.314l2.991-2.991
			c-4.534-4.492-9.221-8.737-14.039-12.749L252.377,158.622H279.164z"/>
		<path style="fill:#FFFFFF;" d="M373.776,65.502c-0.125-0.125-0.253-0.244-0.378-0.368c0.124,0.125,0.245,0.252,0.368,0.378
			L373.776,65.502z"/>
		<path style="fill:#FFFFFF;" d="M74.091,363.695L74.091,363.695l31.659-31.659l36.429-36.429V268.82l-90.153,90.153
			c4.011,4.818,8.256,9.505,12.747,14.04L74.091,363.695z"/>
		<path style="fill:#FFFFFF;" d="M373.766,65.512c-0.123-0.125-0.244-0.253-0.368-0.378c-0.125-0.124-0.253-0.244-0.378-0.368
			l-2.991,2.991h1.492L373.766,65.512z"/>
		<path style="fill:#FFFFFF;" d="M74.091,363.695L74.091,363.695l-9.318,9.318c0.144,0.145,0.283,0.293,0.427,0.438
			c0.105,0.104,0.211,0.206,0.316,0.31l9.321-9.321l0,0l32.405-32.405h-1.492L74.091,363.695z"/>
		<polygon style="fill:#FFFFFF;" points="309.575,129.703 308.083,129.703 279.164,158.622 280.656,158.622 		"/>
		<polygon style="fill:#FFFFFF;" points="142.179,295.607 105.75,332.036 107.242,332.036 142.179,297.099 		"/>
		<polygon style="fill:#FFFFFF;" points="364.462,74.817 371.522,67.757 370.03,67.757 363.716,74.071 308.083,129.703 
			309.575,129.703 		"/>
		<polygon style="fill:#FFFFFF;" points="279.164,158.622 252.377,158.622 142.179,268.82 142.179,295.607 246.502,191.284 		"/>
		<polygon style="fill:#FFFFFF;" points="247.994,191.284 280.656,158.622 279.164,158.622 246.502,191.284 		"/>
		<polygon style="fill:#FFFFFF;" points="247.994,191.284 246.502,191.284 142.179,295.607 142.179,297.099 		"/>
	</g>
</g>
</svg>
