<?xml version="1.0" encoding="iso-8859-1"?>
<!-- Generator: Adobe Illustrator 22.0.1, SVG Export Plug-In . SVG Version: 6.00 Build 0)  -->
<svg version="1.1" id="Layer_1" xmlns="http://www.w3.org/2000/svg" xmlns:xlink="http://www.w3.org/1999/xlink" x="0px" y="0px"
	 viewBox="0 0 438.53 438.53" style="enable-background:new 0 0 438.53 438.53;" xml:space="preserve">
<g id="_x32_42">
	<g>
		<path style="fill:#0052B4;" d="M386.548,79.599l-53.462,53.464l14.827,14.827l-25.597-4.056l-7.975,7.975l-9.073,17.809
			l-1.195-7.542L158.845,307.308l7.541,1.194l-17.812,9.077l-7.969,7.969l4.054,25.599l-14.826-14.827L79.61,386.544
			c40.225,33.467,89.749,50.22,139.292,50.22c55.812-0.007,111.645-21.252,154.122-63.737
			C453.235,292.827,457.734,165.15,386.548,79.599z M228.046,365.864l-9.141,28.134l-9.143-28.134h-29.579l23.932-17.387
			l-9.143-28.132l23.932,17.386l23.931-17.386l-9.142,28.132l23.931,17.387H228.046z M340.426,343.662l-26.357-13.429
			l-20.917,20.916l4.629-29.218l-26.355-13.429l29.215-4.628l4.628-29.217l13.429,26.358l29.215-4.63l-20.916,20.919
			L340.426,343.662z M362.627,231.28v29.581l-17.387-23.933l-28.131,9.142l17.387-23.932l-17.387-23.932l28.132,9.142l17.386-23.933
			v29.582l28.133,9.141L362.627,231.28z"/>
		<polygon style="fill:#FFDA44;" points="144.658,351.148 140.604,325.549 129.832,336.321 		"/>
		<polygon style="fill:#FFDA44;" points="166.386,308.502 158.845,307.308 148.574,317.579 		"/>
		<polygon style="fill:#FFDA44;" points="242.837,320.345 218.905,337.731 194.973,320.345 204.116,348.477 180.184,365.864 
			209.763,365.864 218.905,393.998 228.046,365.864 257.626,365.864 233.695,348.477 		"/>
		<polygon style="fill:#FFDA44;" points="318.696,301.016 305.268,274.658 300.64,303.875 271.425,308.502 297.78,321.931 
			293.152,351.149 314.069,330.233 340.426,343.662 326.995,317.305 347.911,296.386 		"/>
		<polygon style="fill:#FFDA44;" points="362.627,212.997 362.627,183.415 345.241,207.348 317.109,198.206 334.496,222.138 
			317.109,246.07 345.24,236.928 362.627,260.861 362.627,231.28 390.76,222.138 		"/>
		<polygon style="fill:#FFDA44;" points="305.268,169.618 314.34,151.809 304.073,162.076 		"/>
		<polygon style="fill:#FFDA44;" points="347.912,147.89 333.086,133.063 322.315,143.834 		"/>
		<path style="fill:#607BEF;" d="M96.498,158.517l67.963,40.381v47.64l3.412-3.412v-44.228l67.963-40.381l-40.18,56.825
			l163.32-163.324C273.427-19.211,145.72-14.726,65.505,65.503C23.021,107.981,1.776,163.815,1.769,219.629
			c0,49.564,16.766,99.11,50.259,139.344l109.079-109.081L96.498,158.517z M167.873,31.688l67.963,113.179l-67.963-31.565V31.688z
			 M167.873,118.705l67.963,30.428l-67.963,38.959V118.705z M164.461,31.688v81.614l-67.963,31.565L164.461,31.688z
			 M164.461,118.705v69.386l-67.963-38.959L164.461,118.705z"/>
		<polygon style="fill:#FFFFFF;" points="164.461,31.688 96.498,144.867 164.461,113.302 		"/>
		<polygon style="fill:#FFFFFF;" points="164.461,118.705 96.498,149.133 164.461,188.091 		"/>
		<polygon style="fill:#FFFFFF;" points="96.498,158.517 161.107,249.891 164.461,246.538 164.461,198.897 		"/>
		<polygon style="fill:#FFFFFF;" points="167.873,31.688 167.873,113.302 235.836,144.867 		"/>
		<polygon style="fill:#FFFFFF;" points="167.873,118.705 167.873,188.091 235.836,149.133 		"/>
		<polygon style="fill:#FFFFFF;" points="167.873,198.897 167.873,243.125 195.656,215.342 235.836,158.517 		"/>
		<path style="fill:#FFFFFF;" d="M65.512,373.768l4.476,4.476c3.104,2.877,6.286,5.672,9.555,8.369l0.067-0.067
			c-4.835-4.023-9.538-8.282-14.088-12.787L65.512,373.768z"/>
		<path style="fill:#FFFFFF;" d="M64.766,373.022l0.746,0.746c-0.125-0.125-0.244-0.253-0.368-0.378
			C65.018,373.266,64.89,373.147,64.766,373.022z"/>
		<path style="fill:#FFFFFF;" d="M373.023,64.757c0.125,0.125,0.244,0.253,0.368,0.378c0.125,0.124,0.253,0.244,0.378,0.368
			l-0.009,0.009c4.506,4.549,8.766,9.252,12.788,14.087l0.248-0.248c-8.418-9.927-17.705-19.102-27.755-27.398l-0.065,0.065
			c4.818,4.011,9.504,8.257,14.038,12.749L373.023,64.757z"/>
		<path style="fill:#FFFFFF;" d="M52.028,358.973l-0.248,0.248c2.054,2.421,4.158,4.8,6.315,7.13l6.671,6.671l0.01-0.01
			C60.284,368.478,56.039,363.791,52.028,358.973z"/>
		<polygon style="fill:#FFFFFF;" points="140.604,325.549 148.574,317.579 140.032,321.932 		"/>
		<path style="fill:#FFFFFF;" d="M123.742,330.232l-26.359,13.43l1.835-3.601l-24.379,24.38l0,0l-9.318,9.318
			c4.55,4.506,9.253,8.765,14.088,12.787l50.223-50.224L123.742,330.232z"/>
		<polygon style="fill:#FFFFFF;" points="299.114,140.16 136.929,302.349 137.171,303.875 158.845,307.308 304.073,162.076 
			300.64,140.401 		"/>
		<polygon style="fill:#FFFFFF;" points="314.34,151.809 322.315,143.834 318.695,143.26 		"/>
		<path style="fill:#FFFFFF;" d="M373.023,64.757l-0.009,0.009c0.125,0.124,0.253,0.244,0.378,0.368
			C373.267,65.01,373.148,64.882,373.023,64.757z"/>
		<path style="fill:#FFFFFF;" d="M364.455,74.818l-27.632,27.633l3.604-1.836l-13.43,26.359l6.089,6.089l53.462-53.464
			c-4.023-4.835-8.282-9.537-12.788-14.087L364.455,74.818z"/>
		<path style="fill:#FFFFFF;" d="M64.775,373.012l-0.01,0.01c0.125,0.125,0.253,0.244,0.378,0.368
			C65.019,373.265,64.899,373.138,64.775,373.012z"/>
		<polygon style="fill:#FFFFFF;" points="136.929,302.349 99.218,340.061 97.384,343.662 123.742,330.232 129.832,336.321 
			140.604,325.549 140.032,321.932 148.574,317.579 158.845,307.308 137.171,303.875 		"/>
		<polygon style="fill:#FFFFFF;" points="340.426,100.614 336.823,102.451 299.114,140.16 300.64,140.401 304.073,162.076 
			314.34,151.809 318.695,143.26 322.315,143.834 333.086,133.063 326.996,126.974 		"/>
		<path style="fill:#FFFFFF;" d="M74.093,363.694L74.093,363.694l26.675-26.676l35.957-35.958l161.102-161.105L333.781,104
			l29.928-29.929l9.305-9.305c-4.534-4.491-9.221-8.737-14.038-12.749l-163.32,163.324l-27.783,39.292v-11.509l-3.412,3.412v8.096
			l-3.353-4.743L52.028,358.973c4.011,4.818,8.256,9.505,12.747,14.04L74.093,363.694z"/>
		<path style="fill:#FFFFFF;" d="M373.769,65.503c-0.125-0.125-0.253-0.244-0.378-0.368c0.124,0.125,0.244,0.253,0.368,0.378
			L373.769,65.503z"/>
		<path style="fill:#FFFFFF;" d="M65.143,373.39c0.124,0.125,0.243,0.253,0.368,0.378l0.01-0.01
			C65.396,373.634,65.268,373.514,65.143,373.39z"/>
		<polygon style="fill:#FFFFFF;" points="299.114,140.16 297.827,139.956 136.725,301.061 136.929,302.349 		"/>
		<path style="fill:#FFFFFF;" d="M74.093,363.694L74.093,363.694l-9.318,9.318c0.124,0.125,0.244,0.253,0.368,0.378
			c0.125,0.124,0.253,0.244,0.378,0.368l9.318-9.318l0,0l24.379-24.38l1.55-3.042L74.093,363.694z"/>
		<path style="fill:#FFFFFF;" d="M364.455,74.818l9.305-9.305c-0.124-0.125-0.244-0.253-0.368-0.378
			c-0.125-0.124-0.253-0.244-0.378-0.368l-9.305,9.305l-29.928,29.929l3.042-1.55L364.455,74.818z"/>
		<polygon style="fill:#FFFFFF;" points="136.725,301.061 100.768,337.019 99.218,340.061 136.929,302.349 		"/>
		<polygon style="fill:#FFFFFF;" points="336.823,102.451 333.781,104.001 297.827,139.956 299.114,140.16 		"/>
		<polygon style="fill:#FFFFFF;" points="164.461,254.634 164.461,246.538 161.107,249.891 		"/>
		<polygon style="fill:#FFFFFF;" points="167.873,254.634 195.656,215.342 167.873,243.125 		"/>
	</g>
</g>
</svg>
