<?xml version="1.0" encoding="iso-8859-1"?>
<!-- Generator: Adobe Illustrator 22.0.1, SVG Export Plug-In . SVG Version: 6.00 Build 0)  -->
<svg version="1.1" id="Layer_1" xmlns="http://www.w3.org/2000/svg" xmlns:xlink="http://www.w3.org/1999/xlink" x="0px" y="0px"
	 viewBox="0 0 438.53 438.53" style="enable-background:new 0 0 438.53 438.53;" xml:space="preserve">
<g id="_x32_43">
	<g>
		<path style="fill:#607BEF;" d="M407.603,110.087c-19.45-33.321-45.833-59.704-79.155-79.153
			c-33.328-19.448-69.711-29.17-109.176-29.17c-39.461,0-75.854,9.722-109.177,29.17C76.771,50.38,50.388,76.763,30.938,110.087
			c-19.451,33.326-29.173,69.72-29.173,109.178c0,39.46,9.725,75.847,29.17,109.175c19.449,33.321,45.832,59.704,79.156,79.155
			c33.326,19.447,69.717,29.17,109.177,29.17s75.854-9.723,109.179-29.17c33.322-19.444,59.704-45.834,79.152-79.155
			c19.445-33.325,29.166-69.718,29.166-109.175C436.766,179.803,427.044,143.409,407.603,110.087z M217.293,348.094l-78.546-111.082
			l78.546,46.668V348.094z M217.293,271.191l-78.546-45.024l78.546-35.165V271.191z M217.293,184.757l-78.546,36.48l78.546-130.801
			V184.757z M221.237,348.094V283.68l78.546-46.668L221.237,348.094z M221.237,271.191v-80.189l78.546,35.165L221.237,271.191z
			 M221.237,184.757V90.436l78.546,130.801L221.237,184.757z"/>
		<polygon style="fill:#FFFFFF;" points="217.293,184.757 217.293,90.436 138.747,221.237 		"/>
		<polygon style="fill:#FFFFFF;" points="217.293,271.191 217.293,191.002 138.747,226.167 		"/>
		<polygon style="fill:#FFFFFF;" points="217.293,348.094 217.293,283.679 138.747,237.012 		"/>
		<polygon style="fill:#FFFFFF;" points="221.237,184.757 299.783,221.237 221.237,90.436 		"/>
		<polygon style="fill:#FFFFFF;" points="221.237,271.191 299.783,226.167 221.237,191.002 		"/>
		<polygon style="fill:#FFFFFF;" points="221.237,348.094 299.783,237.012 221.237,283.679 		"/>
	</g>
</g>
</svg>
