<?xml version="1.0" encoding="iso-8859-1"?>
<!-- Generator: Adobe Illustrator 22.0.1, SVG Export Plug-In . SVG Version: 6.00 Build 0)  -->
<svg version="1.1" id="Layer_1" xmlns="http://www.w3.org/2000/svg" xmlns:xlink="http://www.w3.org/1999/xlink" x="0px" y="0px"
	 viewBox="0 0 438.53 438.53" style="enable-background:new 0 0 438.53 438.53;" xml:space="preserve">
<g id="_x32_44">
	<g>
		<path style="fill:#F7931A;" d="M279.173,346.092c1.579,0.349,3.797,0.772,6.649,1.273c2.855,0.499,5.322,0.87,7.404,1.111
			c2.085,0.241,4.53,0.413,7.345,0.511c2.809,0.095,5.245,0.026,7.305-0.219c2.057-0.243,4.226-0.678,6.5-1.311
			c2.274-0.63,4.192-1.515,5.752-2.65c1.558-1.139,2.942-2.578,4.156-4.316c1.213-1.739,2.075-3.768,2.59-6.098
			c0.661-2.993,0.625-5.792-0.11-8.394c-0.732-2.603-1.848-4.852-3.346-6.754c-1.499-1.9-3.61-3.696-6.331-5.385
			c-2.723-1.692-5.274-3.061-7.657-4.111c-2.386-1.05-5.379-2.102-8.98-3.156c-3.603-1.059-6.445-1.815-8.523-2.274
			c-2.078-0.459-4.766-1.012-8.069-1.653c-3.303-0.64-5.286-1.036-5.95-1.183l-9.306,42.147c0.666,0.147,2.197,0.507,4.601,1.079
			C275.603,345.28,277.593,345.743,279.173,346.092z"/>
		<path style="fill:#F7931A;" d="M292.236,284.573c1.421,0.271,3.519,0.645,6.29,1.127c2.771,0.482,5.107,0.757,7.009,0.828
			c1.901,0.072,4.142,0.087,6.722,0.046c2.58-0.04,4.767-0.364,6.556-0.971c1.791-0.606,3.579-1.389,5.359-2.348
			c1.779-0.958,3.257-2.311,4.425-4.057c1.17-1.748,2.011-3.786,2.525-6.113c0.606-2.743,0.623-5.289,0.05-7.638
			c-0.569-2.349-1.451-4.375-2.646-6.077c-1.192-1.701-2.928-3.306-5.213-4.812c-2.28-1.506-4.417-2.697-6.403-3.571
			c-1.986-0.874-4.468-1.771-7.447-2.69c-2.98-0.92-5.368-1.556-7.164-1.909s-4.049-0.807-6.761-1.361
			c-2.709-0.554-4.355-0.896-4.938-1.024l-8.452,38.279c0.417,0.092,1.844,0.43,4.288,1.013
			C288.881,283.875,290.813,284.302,292.236,284.573z"/>
		<path style="fill:#F7931A;" d="M386.548,79.599l-133.34,133.343l10.511,2.373c5.32,1.175,9.36,2.022,12.122,2.545l6.938-31.422
			l19.203,4.24l-6.8,30.798c6.852,1.339,11.941,2.375,15.266,3.109l6.745-30.549l19.2,4.24l-6.938,31.422
			c6.439,2.031,12.052,4.252,16.837,6.66c4.784,2.407,9.071,5.314,12.851,8.723c3.784,3.407,6.493,7.404,8.141,11.996
			c1.647,4.591,2.113,9.681,1.401,15.277c-1.846,15.46-9.657,24.982-23.439,28.565c9.213,4.475,15.541,10.362,18.985,17.659
			c3.444,7.3,3.351,16.609-0.284,27.921c-1.883,5.775-4.383,10.672-7.491,14.694c-3.115,4.021-6.61,7.13-10.495,9.321
			c-3.884,2.194-8.452,3.737-13.703,4.625c-5.252,0.891-10.619,1.207-16.1,0.959c-5.479-0.247-11.662-0.962-18.553-2.136
			l-7.02,31.795l-19.2-4.24l6.91-31.296c-6.65-1.468-11.711-2.629-15.183-3.484l-6.938,31.421l-19.206-4.241l7.02-31.795
			c-1.497-0.33-3.735-0.847-6.718-1.549c-2.985-0.699-5.265-1.224-6.845-1.573l-24.938-5.507l8.904-21.965l13.838,3.056
			c4.157,0.918,7.035-0.671,8.635-4.763l11.067-50.123l1.996,0.441c-0.481-0.193-1.136-0.383-1.968-0.566l7.902-35.786
			c0.167-5.89-2.907-9.534-9.225-10.929l-10.931-2.414L79.609,386.546c40.225,33.467,89.749,50.22,139.292,50.22
			c55.812-0.007,111.645-21.252,154.122-63.737C453.235,292.827,457.734,165.15,386.548,79.599z"/>
		<polygon style="fill:#FFFFFF;" points="290.6,244 290.599,244.001 290.601,244.001 290.601,244.001 		"/>
		<path style="fill:#FFFFFF;" d="M246.637,232.859c6.318,1.395,9.392,5.039,9.225,10.929l-7.902,35.786
			c0.832,0.184,1.487,0.373,1.968,0.566l-1.996-0.441l-11.067,50.123c-1.6,4.092-4.479,5.681-8.635,4.763l-13.838-3.056
			l-8.904,21.965l24.938,5.507c1.58,0.349,3.859,0.874,6.845,1.573c2.983,0.703,5.221,1.219,6.718,1.549l-7.02,31.795l19.206,4.241
			l6.938-31.421c3.471,0.856,8.533,2.016,15.183,3.484l-6.91,31.296l19.2,4.24l7.02-31.795c6.891,1.173,13.075,1.889,18.553,2.136
			c5.481,0.248,10.848-0.068,16.1-0.959c5.251-0.888,9.819-2.431,13.703-4.625c3.885-2.191,7.38-5.3,10.495-9.321
			c3.108-4.022,5.607-8.919,7.491-14.694c3.636-11.312,3.729-20.62,0.284-27.921c-3.444-7.297-9.772-13.185-18.985-17.659
			c13.781-3.583,21.592-13.105,23.439-28.565c0.712-5.597,0.246-10.687-1.401-15.277c-1.648-4.592-4.358-8.589-8.141-11.996
			c-3.78-3.409-8.068-6.316-12.851-8.723c-4.785-2.408-10.399-4.628-16.837-6.66l6.938-31.422l-19.2-4.24l-6.745,30.549
			c-3.325-0.734-8.413-1.771-15.266-3.109l6.8-30.798l-19.203-4.24l-6.938,31.422c-2.762-0.522-6.803-1.37-12.122-2.545
			l-10.511-2.373l-17.502,17.502L246.637,232.859z M290.601,244.001H290.6l0,0H290.601L290.601,244.001
			c0.583,0.129,2.229,0.47,4.938,1.024c2.712,0.554,4.965,1.008,6.761,1.361c1.797,0.354,4.184,0.99,7.164,1.909
			c2.979,0.919,5.461,1.817,7.447,2.69c1.986,0.874,4.122,2.065,6.403,3.571c2.285,1.506,4.021,3.111,5.213,4.812
			c1.195,1.702,2.076,3.728,2.646,6.077c0.572,2.349,0.555,4.895-0.05,7.638c-0.514,2.328-1.356,4.366-2.525,6.113
			c-1.168,1.747-2.646,3.099-4.425,4.057c-1.779,0.959-3.568,1.742-5.359,2.348c-1.789,0.607-3.976,0.931-6.556,0.971
			c-2.579,0.041-4.821,0.026-6.722-0.046c-1.902-0.071-4.238-0.346-7.009-0.828s-4.869-0.856-6.29-1.127
			c-1.423-0.271-3.355-0.698-5.799-1.28c-2.444-0.583-3.872-0.921-4.288-1.013L290.601,244.001z M277.907,301.481
			c0.664,0.147,2.648,0.542,5.95,1.183c3.303,0.641,5.991,1.194,8.069,1.653s4.92,1.215,8.523,2.274
			c3.601,1.055,6.594,2.106,8.98,3.156c2.382,1.05,4.933,2.419,7.657,4.111c2.721,1.69,4.832,3.485,6.331,5.385
			c1.498,1.903,2.613,4.151,3.346,6.754c0.736,2.603,0.771,5.401,0.11,8.394c-0.515,2.33-1.377,4.359-2.59,6.098
			c-1.214,1.738-2.598,3.177-4.156,4.316c-1.56,1.135-3.478,2.02-5.752,2.65c-2.274,0.633-4.443,1.068-6.5,1.311
			c-2.06,0.245-4.496,0.315-7.305,0.219c-2.815-0.098-5.26-0.27-7.345-0.511c-2.082-0.241-4.548-0.612-7.404-1.111
			c-2.852-0.502-5.07-0.925-6.649-1.273c-1.58-0.349-3.57-0.812-5.972-1.385c-2.403-0.571-3.935-0.932-4.601-1.079L277.907,301.481z
			"/>
		<path style="fill:#BEBEBE;" d="M80.797,259.812L98.339,193.9l-24.832,9.071l8.211-30.923l24.851-9.079l29.764-111.84h64.546
			l-22.759,85.7l31.588-11.54l0.273,0.744l-7.982,29.995l-32.09,11.724l-13.554,51.038h35.853L358.976,52.018
			C273.427-19.211,145.72-14.726,65.505,65.503C23.021,107.981,1.776,163.815,1.769,219.629c0,49.564,16.766,99.11,50.259,139.344
			l99.158-99.161L80.797,259.812L80.797,259.812z"/>
		<polygon style="fill:#FFFFFF;" points="156.354,218.79 169.908,167.752 201.998,156.028 209.98,126.033 209.707,125.289 
			178.119,136.829 200.879,51.129 136.333,51.129 106.569,162.969 81.719,172.048 73.507,202.971 98.339,193.9 80.797,259.812 
			151.187,259.812 192.208,218.79 		"/>
		<path style="fill:#FFFFFF;" d="M373.023,64.757c0.125,0.125,0.244,0.253,0.368,0.378c0.125,0.124,0.253,0.244,0.378,0.368
			l-0.009,0.009c4.506,4.549,8.766,9.252,12.788,14.087l0.248-0.248c-8.418-9.927-17.705-19.102-27.755-27.398l-0.065,0.065
			c4.818,4.011,9.504,8.257,14.038,12.749L373.023,64.757z"/>
		<path style="fill:#FFFFFF;" d="M65.512,373.768l4.476,4.476c3.104,2.877,6.286,5.672,9.555,8.369l0.067-0.067
			c-4.835-4.023-9.538-8.282-14.088-12.787L65.512,373.768z"/>
		<path style="fill:#FFFFFF;" d="M64.766,373.022l0.746,0.746c-0.125-0.125-0.244-0.253-0.368-0.378
			C65.018,373.266,64.89,373.147,64.766,373.022z"/>
		<path style="fill:#FFFFFF;" d="M52.028,358.973l-0.248,0.248c2.054,2.421,4.158,4.8,6.315,7.13l6.671,6.671l0.01-0.01
			C60.284,368.478,56.039,363.791,52.028,358.973z"/>
		<path style="fill:#FFFFFF;" d="M373.023,64.757l-0.009,0.009c0.125,0.124,0.253,0.244,0.378,0.368
			C373.267,65.01,373.148,64.882,373.023,64.757z"/>
		<path style="fill:#FFFFFF;" d="M232.798,229.803l4.515-20.449l15.894,3.589L386.547,79.6c-4.023-4.835-8.282-9.537-12.788-14.087
			l-9.305,9.305L220.486,218.79l-41.021,41.022L74.839,364.44l0,0l-9.318,9.318c4.55,4.506,9.253,8.765,14.088,12.787
			l156.097-156.101L232.798,229.803z"/>
		<path style="fill:#FFFFFF;" d="M64.775,373.012l-0.01,0.01c0.125,0.125,0.253,0.244,0.378,0.368
			C65.019,373.265,64.899,373.138,64.775,373.012z"/>
		<polygon style="fill:#FFFFFF;" points="232.798,229.803 235.706,230.445 253.208,212.943 237.313,209.354 		"/>
		<path style="fill:#FFFFFF;" d="M65.143,373.39c0.124,0.125,0.243,0.253,0.368,0.378l0.01-0.01
			C65.396,373.634,65.268,373.514,65.143,373.39z"/>
		<path style="fill:#FFFFFF;" d="M218.994,218.79L363.709,74.072l9.305-9.305c-4.534-4.491-9.221-8.737-14.038-12.749
			L192.208,218.79H218.994z"/>
		<path style="fill:#FFFFFF;" d="M74.093,363.694L74.093,363.694l103.88-103.882h-26.786l-99.158,99.161
			c4.011,4.818,8.256,9.505,12.747,14.04L74.093,363.694z"/>
		<path style="fill:#FFFFFF;" d="M373.391,65.135c0.124,0.125,0.244,0.253,0.368,0.378l0.009-0.009
			C373.644,65.378,373.516,65.259,373.391,65.135z"/>
		<path style="fill:#FFFFFF;" d="M74.093,363.694L74.093,363.694l-9.318,9.318c0.124,0.125,0.244,0.253,0.368,0.378
			c0.125,0.124,0.253,0.244,0.378,0.368l9.318-9.318l0,0l104.626-104.628h-1.492L74.093,363.694z"/>
		<path style="fill:#FFFFFF;" d="M373.014,64.767l-9.305,9.305L218.994,218.79h1.492L364.455,74.818l9.305-9.305
			c-0.124-0.125-0.244-0.253-0.368-0.378C373.267,65.011,373.139,64.891,373.014,64.767z"/>
		<polygon style="fill:#FFFFFF;" points="192.208,218.79 151.187,259.812 177.973,259.812 218.994,218.79 		"/>
		<polygon style="fill:#FFFFFF;" points="177.973,259.812 179.465,259.812 220.486,218.79 218.994,218.79 		"/>
	</g>
</g>
</svg>
