<?xml version="1.0" encoding="iso-8859-1"?>
<!-- Generator: Adobe Illustrator 22.0.1, SVG Export Plug-In . SVG Version: 6.00 Build 0)  -->
<svg version="1.1" id="Layer_1" xmlns="http://www.w3.org/2000/svg" xmlns:xlink="http://www.w3.org/1999/xlink" x="0px" y="0px"
	 viewBox="0 0 438.53 438.53" style="enable-background:new 0 0 438.53 438.53;" xml:space="preserve">
<g id="_x32_45">
	<g>
		<path style="fill:#0052B4;" d="M386.552,79.599l-53.464,53.464l14.827,14.827l-25.598-4.056l-7.975,7.975l-9.073,17.809
			l-1.195-7.542L158.843,307.308l7.541,1.194l-17.813,9.077l-7.969,7.969l4.054,25.599l-14.827-14.827l-50.224,50.224
			c40.226,33.467,89.751,50.22,139.296,50.22c55.814-0.007,111.647-21.252,154.126-63.737
			C453.241,292.827,457.739,165.15,386.552,79.599z M228.046,365.864l-9.141,28.134l-9.143-28.134h-29.58l23.933-17.387
			l-9.143-28.132l23.933,17.386l23.932-17.386l-9.142,28.132l23.932,17.387H228.046z M340.429,343.662l-26.358-13.429
			l-20.917,20.916l4.629-29.218l-26.356-13.429l29.216-4.628l4.628-29.217l13.429,26.358l29.216-4.63L327,317.304L340.429,343.662z
			 M362.63,231.28v29.581l-17.387-23.933l-28.132,9.142l17.387-23.932l-17.387-23.932l28.133,9.142l17.386-23.933v29.582
			l28.134,9.141L362.63,231.28z"/>
		<polygon style="fill:#FFDA44;" points="166.384,308.502 158.843,307.308 148.572,317.579 		"/>
		<polygon style="fill:#FFDA44;" points="144.656,351.148 140.602,325.549 129.83,336.321 		"/>
		<polygon style="fill:#FFDA44;" points="242.837,320.345 218.905,337.731 194.973,320.345 204.116,348.477 180.183,365.864 
			209.762,365.864 218.905,393.998 228.046,365.864 257.627,365.864 233.695,348.477 		"/>
		<polygon style="fill:#FFDA44;" points="318.699,301.016 305.27,274.658 300.642,303.875 271.426,308.502 297.782,321.931 
			293.153,351.149 314.071,330.233 340.429,343.662 326.998,317.305 347.914,296.386 		"/>
		<polygon style="fill:#FFDA44;" points="362.63,212.997 362.63,183.415 345.244,207.348 317.112,198.206 334.499,222.138 
			317.112,246.07 345.243,236.928 362.63,260.861 362.63,231.28 390.764,222.138 		"/>
		<polygon style="fill:#FFDA44;" points="347.915,147.89 333.088,133.063 322.318,143.834 		"/>
		<polygon style="fill:#FFDA44;" points="305.27,169.618 314.342,151.809 304.075,162.076 		"/>
		<path style="fill:#BEBEBE;" d="M80.794,259.812L98.336,193.9l-24.832,9.071l8.211-30.923l24.851-9.079l29.764-111.84h64.547
			l-22.76,85.7l31.588-11.54l0.273,0.744l-7.982,29.995l-32.09,11.724l-13.554,51.038h35.854L358.979,52.018
			C273.428-19.211,145.718-14.726,65.501,65.503c-42.485,42.478-63.73,98.312-63.737,154.126c0,49.564,16.767,99.11,50.26,139.344
			l99.161-99.161L80.794,259.812L80.794,259.812z"/>
		<polygon style="fill:#FFFFFF;" points="156.353,218.79 169.907,167.752 201.997,156.028 209.979,126.033 209.707,125.289 
			178.119,136.829 200.878,51.129 136.331,51.129 106.567,162.969 81.715,172.048 73.504,202.971 98.336,193.9 80.794,259.812 
			151.185,259.812 192.207,218.79 		"/>
		<path style="fill:#FFFFFF;" d="M373.027,64.757c0.125,0.125,0.244,0.253,0.368,0.378c0.125,0.124,0.253,0.244,0.378,0.368
			l-0.009,0.009c4.506,4.549,8.766,9.252,12.789,14.087l0.248-0.248c-8.418-9.927-17.705-19.102-27.756-27.398l-0.065,0.065
			c4.818,4.011,9.504,8.257,14.038,12.749L373.027,64.757z"/>
		<path style="fill:#FFFFFF;" d="M65.508,373.768l4.476,4.476c3.104,2.877,6.287,5.672,9.555,8.369l0.067-0.067
			c-4.835-4.023-9.538-8.282-14.088-12.787L65.508,373.768z"/>
		<path style="fill:#FFFFFF;" d="M64.762,373.022l0.746,0.746c-0.125-0.125-0.244-0.253-0.368-0.378
			C65.015,373.266,64.887,373.147,64.762,373.022z"/>
		<path style="fill:#FFFFFF;" d="M52.024,358.973l-0.248,0.248c2.054,2.421,4.158,4.8,6.315,7.13l6.671,6.671l0.01-0.01
			C60.281,368.478,56.035,363.791,52.024,358.973z"/>
		<polygon style="fill:#FFFFFF;" points="140.602,325.549 148.572,317.579 140.03,321.932 		"/>
		<path style="fill:#FFFFFF;" d="M373.027,64.757l-0.009,0.009c0.125,0.124,0.253,0.244,0.378,0.368
			C373.271,65.01,373.152,64.882,373.027,64.757z"/>
		<polygon style="fill:#FFFFFF;" points="299.116,140.16 220.486,218.79 179.464,259.812 136.927,302.349 137.169,303.875 
			158.843,307.308 304.075,162.076 300.642,140.401 		"/>
		<polygon style="fill:#FFFFFF;" points="314.342,151.809 322.318,143.834 318.697,143.26 		"/>
		<path style="fill:#FFFFFF;" d="M364.458,74.818l-27.633,27.633l3.604-1.836l-13.43,26.359l6.089,6.089l53.464-53.464
			c-4.023-4.835-8.282-9.537-12.789-14.087L364.458,74.818z"/>
		<path style="fill:#FFFFFF;" d="M123.74,330.232l-26.359,13.43l1.835-3.601l-24.38,24.38l0,0l-9.318,9.318
			c4.55,4.506,9.253,8.765,14.088,12.787l50.224-50.224L123.74,330.232z"/>
		<path style="fill:#FFFFFF;" d="M64.772,373.012l-0.01,0.01c0.125,0.125,0.253,0.244,0.378,0.368
			C65.016,373.265,64.896,373.138,64.772,373.012z"/>
		<polygon style="fill:#FFFFFF;" points="136.927,302.349 99.215,340.061 97.381,343.662 123.74,330.232 129.83,336.321 
			140.602,325.549 140.03,321.932 148.572,317.579 158.843,307.308 137.169,303.875 		"/>
		<polygon style="fill:#FFFFFF;" points="340.429,100.614 336.825,102.451 299.116,140.16 300.642,140.401 304.075,162.076 
			314.342,151.809 318.697,143.26 322.318,143.834 333.088,133.063 326.999,126.974 		"/>
		<path style="fill:#FFFFFF;" d="M373.773,65.503c-0.125-0.125-0.253-0.244-0.378-0.368c0.124,0.125,0.244,0.253,0.368,0.378
			L373.773,65.503z"/>
		<path style="fill:#FFFFFF;" d="M65.14,373.39c0.124,0.125,0.243,0.253,0.368,0.378l0.01-0.01
			C65.392,373.634,65.265,373.514,65.14,373.39z"/>
		<path style="fill:#FFFFFF;" d="M74.09,363.694L74.09,363.694l26.676-26.676l35.958-35.958l41.249-41.249h-26.787l-99.161,99.161
			c4.011,4.818,8.256,9.505,12.747,14.04L74.09,363.694z"/>
		<path style="fill:#FFFFFF;" d="M218.994,218.79l78.835-78.835L333.784,104l29.929-29.929l9.305-9.305
			c-4.534-4.491-9.221-8.737-14.038-12.749L192.207,218.79H218.994z"/>
		<path style="fill:#FFFFFF;" d="M74.09,363.694L74.09,363.694l-9.318,9.318c0.124,0.125,0.244,0.253,0.368,0.378
			c0.125,0.124,0.253,0.244,0.378,0.368l9.318-9.318l0,0l24.38-24.38l1.55-3.042L74.09,363.694z"/>
		<polygon style="fill:#FFFFFF;" points="299.116,140.16 297.828,139.956 218.994,218.79 220.486,218.79 		"/>
		<path style="fill:#FFFFFF;" d="M364.458,74.818l9.305-9.305c-0.124-0.125-0.244-0.253-0.368-0.378
			c-0.125-0.124-0.253-0.244-0.378-0.368l-9.305,9.305l-29.929,29.929l3.042-1.55L364.458,74.818z"/>
		<polygon style="fill:#FFFFFF;" points="179.464,259.812 177.972,259.812 136.723,301.061 136.927,302.349 		"/>
		<polygon style="fill:#FFFFFF;" points="136.723,301.061 100.765,337.019 99.215,340.061 136.927,302.349 		"/>
		<polygon style="fill:#FFFFFF;" points="336.825,102.451 333.783,104.001 297.828,139.956 299.116,140.16 		"/>
		<polygon style="fill:#FFFFFF;" points="192.207,218.79 151.185,259.812 177.972,259.812 218.994,218.79 		"/>
		<polygon style="fill:#FFFFFF;" points="220.486,218.79 218.994,218.79 177.972,259.812 179.464,259.812 		"/>
	</g>
</g>
</svg>
