<?xml version="1.0" encoding="iso-8859-1"?>
<!-- Generator: Adobe Illustrator 22.0.1, SVG Export Plug-In . SVG Version: 6.00 Build 0)  -->
<svg version="1.1" id="Layer_1" xmlns="http://www.w3.org/2000/svg" xmlns:xlink="http://www.w3.org/1999/xlink" x="0px" y="0px"
	 viewBox="0 0 438.53 438.53" style="enable-background:new 0 0 438.53 438.53;" xml:space="preserve">
<g id="_x32_46">
	<g>
		<path style="fill:#BEBEBE;" d="M407.603,110.087c-19.45-33.321-45.833-59.704-79.155-79.153
			c-33.328-19.448-69.711-29.17-109.176-29.17c-39.461,0-75.854,9.722-109.177,29.17C76.771,50.38,50.388,76.763,30.938,110.087
			c-19.451,33.326-29.173,69.72-29.173,109.178c0,39.46,9.725,75.847,29.17,109.175c19.449,33.321,45.832,59.704,79.156,79.155
			c33.326,19.447,69.717,29.17,109.177,29.17s75.854-9.723,109.179-29.17c33.322-19.444,59.704-45.834,79.152-79.155
			c19.445-33.325,29.166-69.718,29.166-109.175C436.766,179.803,427.044,143.409,407.603,110.087z M316.225,339.661H118.009
			l20.241-76.053l-28.653,10.467l9.475-35.681l28.675-10.475l34.344-129.047h74.478l-26.261,98.885l36.449-13.316l0.314,0.859
			l-9.21,34.61l-37.028,13.528l-15.64,58.891h123.739L316.225,339.661z"/>
		<polygon style="fill:#FFFFFF;" points="220.833,233.437 257.861,219.909 267.071,185.299 266.756,184.44 230.308,197.756 
			256.569,98.871 182.091,98.871 147.747,227.918 119.072,238.394 109.598,274.074 138.25,263.608 118.009,339.661 316.225,339.661 
			328.932,292.328 205.193,292.328 		"/>
	</g>
</g>
</svg>
