<?xml version="1.0" encoding="iso-8859-1"?>
<!-- Generator: Adobe Illustrator 22.0.1, SVG Export Plug-In . SVG Version: 6.00 Build 0)  -->
<svg version="1.1" id="Layer_1" xmlns="http://www.w3.org/2000/svg" xmlns:xlink="http://www.w3.org/1999/xlink" x="0px" y="0px"
	 viewBox="0 0 438.53 438.53" style="enable-background:new 0 0 438.53 438.53;" xml:space="preserve">
<g id="_x32_47">
	<g>
		<path style="fill:#0052B4;" d="M386.548,79.598l-53.462,53.464l14.827,14.827l-25.597-4.056l-7.975,7.975l-9.073,17.809
			l-1.195-7.542L158.845,307.307l7.541,1.195l-17.812,9.077l-7.969,7.97l4.054,25.599l-14.826-14.827L79.61,386.546
			c40.225,33.467,89.749,50.22,139.292,50.22c55.812-0.007,111.645-21.252,154.122-63.738
			C453.235,292.827,457.734,165.149,386.548,79.598z M228.046,365.864l-9.141,28.134l-9.143-28.134h-29.579l23.932-17.387
			l-9.143-28.132l23.932,17.386l23.931-17.386l-9.142,28.132l23.931,17.387H228.046z M340.426,343.661l-26.357-13.429
			l-20.917,20.916l4.629-29.218l-26.355-13.429l29.215-4.628l4.628-29.217l13.429,26.358l29.215-4.63l-20.916,20.919
			L340.426,343.661z M362.627,231.279v29.581l-17.387-23.933l-28.131,9.142l17.387-23.932l-17.387-23.932l28.132,9.142
			l17.386-23.933v29.582l28.133,9.141L362.627,231.279z"/>
		<polygon style="fill:#FFDA44;" points="144.658,351.148 140.604,325.549 129.832,336.321 		"/>
		<polygon style="fill:#FFDA44;" points="166.386,308.502 158.845,307.307 148.574,317.579 		"/>
		<polygon style="fill:#FFDA44;" points="242.837,320.345 218.905,337.731 194.973,320.345 204.116,348.477 180.184,365.864 
			209.763,365.864 218.905,393.998 228.046,365.864 257.626,365.864 233.695,348.477 		"/>
		<polygon style="fill:#FFDA44;" points="318.696,301.016 305.268,274.657 300.64,303.874 271.425,308.502 297.78,321.931 
			293.152,351.149 314.069,330.232 340.426,343.661 326.995,317.304 347.911,296.386 		"/>
		<polygon style="fill:#FFDA44;" points="362.627,212.997 362.627,183.415 345.241,207.347 317.109,198.206 334.496,222.137 
			317.109,246.069 345.24,236.927 362.627,260.86 362.627,231.279 390.76,222.137 		"/>
		<polygon style="fill:#FFDA44;" points="305.268,169.617 314.34,151.808 304.073,162.075 		"/>
		<polygon style="fill:#FFDA44;" points="347.912,147.889 333.086,133.062 322.315,143.833 		"/>
		<path style="fill:none;" d="M48.498,354.62c1.155,1.462,2.339,2.908,3.535,4.348l0.875-0.875
			C51.423,356.95,49.949,355.797,48.498,354.62z"/>
		<path style="fill:#11AAE2;" d="M167.449,243.549c-0.006-0.322-0.029-0.642-0.029-0.965c0-9.58,2.879-19.186,7.694-27.848
			c4.766-9.58,1.887-22.115-7.694-27.848c-13.428-7.694-24.001,0.968-27.848,7.694c-4.768,8.663-11.492,16.307-20.155,21.122
			c-16.308,9.58-35.544,9.58-51.851,0c-16.354-9.606-25.935-26.9-25.935-45.148s9.631-35.591,25.938-45.171
			c16.308-9.58,35.544-9.58,51.851,0c8.663,5.734,15.388,13.428,21.122,21.122c5.733,9.605,18.267,13.427,27.848,7.694
			c13.427-6.726,11.54-20.154,7.694-27.848c-4.816-8.613-8.663-18.268-8.663-27.848c0-18.243,9.655-35.543,25.962-45.123h0.004
			c7.644-4.765,17.299-6.726,25.912-6.676c8.659,0,18.241,1.911,25.935,6.726c16.356,9.581,25.962,26.881,25.962,45.123
			s-9.655,35.542-25.962,45.121c-8.663,4.815-19.236,6.726-28.817,6.726c-11.492,0-20.155,8.613-20.155,20.154
			c0,14.421,11.492,20.154,20.155,20.154c1.274,0,2.532,0.032,3.778,0.09L358.973,52.02C273.425-19.21,145.719-14.727,65.505,65.502
			C23.021,107.98,1.776,163.814,1.769,219.628c0,47.791,15.589,95.565,46.729,134.992c1.45,1.177,2.925,2.33,4.41,3.473
			L167.449,243.549z"/>
		<path style="fill:#FFFFFF;" d="M216.418,190.71c-8.663,0-20.155-5.733-20.155-20.154c0-11.541,8.663-20.154,20.155-20.154
			c9.581,0,20.155-1.911,28.817-6.726c16.307-9.58,25.962-26.88,25.962-45.121s-9.606-35.541-25.962-45.123
			c-7.693-4.815-17.276-6.726-25.935-6.726c-8.613-0.05-18.268,1.911-25.912,6.676h-0.004c-16.307,9.58-25.962,26.88-25.962,45.123
			c0,9.58,3.847,19.234,8.663,27.848c3.847,7.694,5.733,21.122-7.694,27.848c-9.581,5.733-22.115,1.911-27.848-7.694
			c-5.734-7.694-12.46-15.387-21.122-21.122c-16.307-9.58-35.543-9.58-51.851,0s-25.938,26.923-25.938,45.171
			s9.581,35.541,25.935,45.148c16.307,9.58,35.543,9.58,51.851,0c8.663-4.815,15.387-12.459,20.155-21.122
			c3.847-6.726,14.42-15.388,27.848-7.694c9.581,5.733,12.46,18.268,7.694,27.848c-4.815,8.662-7.694,18.268-7.694,27.848
			c0,0.323,0.023,0.643,0.029,0.965l52.747-52.749C218.95,190.743,217.692,190.71,216.418,190.71z"/>
		<path style="fill:#FFFFFF;" d="M373.014,64.765l0.009-0.009c0.121,0.121,0.237,0.246,0.358,0.367
			c0.128,0.128,0.26,0.251,0.388,0.379l-0.009,0.009c4.506,4.549,8.766,9.252,12.788,14.087l0.248-0.248
			c-8.418-9.927-17.705-19.102-27.755-27.398l-0.068,0.068c2.834,2.36,5.624,4.8,8.363,7.327
			C369.252,61.114,371.146,62.919,373.014,64.765z"/>
		<path style="fill:#FFFFFF;" d="M64.766,373.022l0.746,0.746c-0.114-0.114-0.223-0.233-0.337-0.347
			C65.039,373.286,64.901,373.157,64.766,373.022z"/>
		<path style="fill:#FFFFFF;" d="M52.033,358.968l-0.253,0.253c2.054,2.421,4.158,4.8,6.315,7.13l6.671,6.671l0.011-0.011
			C60.286,368.475,56.04,363.788,52.033,358.968z"/>
		<path style="fill:#FFFFFF;" d="M65.512,373.768l4.476,4.476c3.104,2.877,6.286,5.672,9.555,8.369l0.067-0.067
			c-4.835-4.023-9.538-8.282-14.088-12.788L65.512,373.768z"/>
		<polygon style="fill:#FFFFFF;" points="140.604,325.549 148.574,317.579 140.032,321.932 		"/>
		<path style="fill:#FFFFFF;" d="M123.742,330.231l-26.359,13.43l1.835-3.601l-24.379,24.38l0,0l-5.302,5.302l-4.016,4.016
			c4.55,4.506,9.253,8.765,14.088,12.788l50.223-50.225L123.742,330.231z"/>
		<path style="fill:#FFFFFF;" d="M64.777,373.011l-0.011,0.011c0.135,0.135,0.274,0.264,0.409,0.399
			C65.04,373.285,64.911,373.146,64.777,373.011z"/>
		<path style="fill:#FFFFFF;" d="M372.364,66.907l-7.909,7.909l-27.632,27.633l3.604-1.836l-13.43,26.359l6.089,6.089l53.462-53.464
			c-4.023-4.835-8.282-9.537-12.788-14.087L372.364,66.907z"/>
		<polygon style="fill:#FFFFFF;" points="299.115,140.159 242.999,196.276 173.089,266.187 136.929,302.349 137.171,303.874 
			158.845,307.307 304.073,162.075 300.64,140.4 		"/>
		<polygon style="fill:#FFFFFF;" points="314.34,151.808 322.315,143.833 318.695,143.259 		"/>
		<path style="fill:#FFFFFF;" d="M373.023,64.756l-0.009,0.009c0.122,0.12,0.245,0.237,0.367,0.358
			C373.26,65.002,373.144,64.877,373.023,64.756z"/>
		<polygon style="fill:#FFFFFF;" points="136.929,302.349 99.218,340.06 97.384,343.661 123.742,330.231 129.832,336.321 
			140.604,325.549 140.032,321.932 148.574,317.579 158.845,307.307 137.171,303.874 		"/>
		<polygon style="fill:#FFFFFF;" points="340.426,100.613 336.823,102.45 299.115,140.159 300.64,140.4 304.073,162.075 
			314.34,151.808 318.695,143.259 322.315,143.833 333.086,133.062 326.996,126.973 		"/>
		<path style="fill:#FFFFFF;" d="M373.769,65.502c-0.128-0.128-0.26-0.251-0.388-0.379c0.128,0.128,0.251,0.26,0.379,0.388
			L373.769,65.502z"/>
		<path style="fill:#FFFFFF;" d="M367.336,59.346c1.514,2.185,2.992,4.406,4.44,6.657l1.239-1.239
			C371.146,62.919,369.252,61.114,367.336,59.346z"/>
		<path style="fill:#FFFFFF;" d="M373.76,65.512c-0.127-0.129-0.251-0.26-0.379-0.388c-0.121-0.121-0.245-0.238-0.367-0.358
			l-1.239,1.239c0.195,0.303,0.395,0.6,0.588,0.904L373.76,65.512z"/>
		<path style="fill:#FFFFFF;" d="M65.175,373.421c0.114,0.115,0.222,0.233,0.337,0.347l0.01-0.01
			C65.406,373.645,65.289,373.535,65.175,373.421z"/>
		<path style="fill:#FFFFFF;" d="M68.636,369.151c-5.439-3.491-10.683-7.175-15.728-11.059l-0.875,0.875
			c4.007,4.82,8.253,9.507,12.744,14.043L68.636,369.151z"/>
		<path style="fill:#FFFFFF;" d="M64.777,373.011c0.134,0.136,0.263,0.275,0.398,0.41c0.115,0.114,0.232,0.224,0.346,0.338
			l4.016-4.016c-0.304-0.193-0.598-0.396-0.901-0.591L64.777,373.011z"/>
		<path style="fill:#FFFFFF;" d="M241.969,195.814l55.857-55.859L333.781,104l29.928-29.929l8.067-8.067
			c-1.447-2.252-2.926-4.472-4.44-6.657c-2.739-2.526-5.529-4.967-8.363-7.327L220.196,190.8
			C227.995,191.161,235.247,192.706,241.969,195.814z"/>
		<path style="fill:#FFFFFF;" d="M74.093,363.694l26.675-26.676l35.957-35.958l35.886-35.887
			c-3.225-6.702-5.021-14.061-5.162-21.625L52.908,358.093c5.045,3.884,10.289,7.568,15.728,11.059L74.093,363.694L74.093,363.694z"
			/>
		<path style="fill:#FFFFFF;" d="M364.455,74.816l7.909-7.909c-0.193-0.304-0.393-0.601-0.588-0.904l-8.067,8.067L333.781,104
			l3.042-1.55L364.455,74.816z"/>
		<path style="fill:#FFFFFF;" d="M74.093,363.694L74.093,363.694l-5.457,5.457c0.303,0.194,0.597,0.397,0.901,0.591l5.302-5.302l0,0
			l24.379-24.38l1.55-3.042L74.093,363.694z"/>
		<path style="fill:#FFFFFF;" d="M136.725,301.061l0.204,1.288l36.16-36.161c-0.169-0.333-0.316-0.677-0.478-1.014L136.725,301.061z
			"/>
		<path style="fill:#FFFFFF;" d="M299.115,140.159l-1.288-0.204l-55.857,55.859c0.342,0.158,0.691,0.296,1.03,0.462L299.115,140.159
			z"/>
		<polygon style="fill:#FFFFFF;" points="136.725,301.061 100.768,337.018 99.218,340.06 136.929,302.349 		"/>
		<polygon style="fill:#FFFFFF;" points="336.823,102.45 333.781,104 297.827,139.955 299.115,140.159 		"/>
		<path style="fill:#FFFFFF;" d="M241.969,195.814c-6.722-3.108-13.974-4.652-21.773-5.013l-52.747,52.749
			c0.141,7.564,1.937,14.923,5.162,21.625L241.969,195.814z"/>
		<path style="fill:#FFFFFF;" d="M173.089,266.187l69.91-69.911c-0.339-0.166-0.688-0.304-1.03-0.462l-69.358,69.36
			C172.773,265.51,172.92,265.854,173.089,266.187z"/>
	</g>
</g>
</svg>
