<?xml version="1.0" encoding="iso-8859-1"?>
<!-- Generator: Adobe Illustrator 22.0.1, SVG Export Plug-In . SVG Version: 6.00 Build 0)  -->
<svg version="1.1" id="Layer_1" xmlns="http://www.w3.org/2000/svg" xmlns:xlink="http://www.w3.org/1999/xlink" x="0px" y="0px"
	 viewBox="0 0 438.53 438.53" style="enable-background:new 0 0 438.53 438.53;" xml:space="preserve">
<g id="_x32_48">
	<g>
		<path style="fill:#11AAE2;" d="M407.603,110.087c-19.45-33.321-45.833-59.704-79.155-79.153
			c-33.328-19.448-69.711-29.17-109.176-29.17c-39.461,0-75.854,9.722-109.177,29.17C76.771,50.38,50.388,76.763,30.938,110.087
			c-19.451,33.326-29.173,69.72-29.173,109.178c0,39.46,9.725,75.847,29.17,109.175c19.449,33.321,45.832,59.704,79.156,79.155
			c33.326,19.447,69.717,29.17,109.177,29.17s75.854-9.723,109.179-29.17c33.322-19.444,59.704-45.834,79.152-79.155
			c19.445-33.325,29.166-69.718,29.166-109.175C436.766,179.803,427.044,143.409,407.603,110.087z M286.089,241.44
			c11.748,0,22.446,2.128,32.093,7.49c18.216,10.698,28.913,29.962,28.913,50.278s-10.754,39.582-28.916,50.25
			c-18.162,10.669-39.585,10.669-57.745,0c-18.243-10.67-28.913-29.907-28.913-50.25c0-10.669,3.206-21.366,8.568-31.012
			c5.308-10.669,2.102-24.628-8.568-31.012c-14.954-8.568-26.73,1.078-31.014,8.568c-5.309,9.647-12.798,18.16-22.446,23.522
			c-18.162,10.669-39.585,10.669-57.745,0c-18.213-10.698-28.883-29.957-28.883-50.278c0-20.322,10.725-39.636,28.887-50.304
			c18.162-10.669,39.585-10.669,57.745,0c9.647,6.386,17.138,14.954,23.524,23.522c6.385,10.696,20.344,14.953,31.014,8.568
			c14.953-7.49,12.852-22.444,8.568-31.012c-5.363-9.592-9.647-20.344-9.647-31.012c0-20.316,10.753-39.582,28.913-50.25h0.004
			c8.513-5.307,19.266-7.49,28.858-7.435c9.643,0,20.315,2.128,28.883,7.49c18.216,10.67,28.913,29.936,28.913,50.25
			s-10.753,39.58-28.913,50.249c-9.647,5.362-21.423,7.49-32.093,7.49c-12.798,0-22.446,9.592-22.446,22.444
			C263.644,235.055,276.442,241.44,286.089,241.44z"/>
		<path style="fill:#FFFFFF;" d="M286.089,196.551c10.67,0,22.446-2.128,32.093-7.49c18.16-10.669,28.913-29.934,28.913-50.249
			s-10.698-39.58-28.913-50.25c-8.568-5.362-19.239-7.49-28.883-7.49c-9.592-0.055-20.345,2.128-28.858,7.435h-0.004
			c-18.16,10.669-28.913,29.934-28.913,50.25c0,10.669,4.284,21.42,9.647,31.012c4.284,8.568,6.385,23.522-8.568,31.012
			c-10.67,6.385-24.629,2.128-31.014-8.568c-6.386-8.568-13.876-17.136-23.524-23.522c-18.16-10.669-39.583-10.669-57.745,0
			s-28.887,29.983-28.887,50.304c0,20.322,10.67,39.58,28.883,50.278c18.16,10.669,39.583,10.669,57.745,0
			c9.647-5.362,17.136-13.875,22.446-23.522c4.284-7.49,16.06-17.136,31.014-8.568c10.67,6.385,13.876,20.344,8.568,31.012
			c-5.362,9.646-8.568,20.344-8.568,31.012c0,20.344,10.67,39.58,28.913,50.25c18.16,10.669,39.583,10.669,57.745,0
			s28.916-29.934,28.916-50.25s-10.698-39.58-28.913-50.278c-9.647-5.362-20.345-7.49-32.093-7.49
			c-9.647,0-22.446-6.385-22.446-22.444C263.644,206.143,273.291,196.551,286.089,196.551z"/>
	</g>
</g>
</svg>
