<?xml version="1.0" encoding="iso-8859-1"?>
<!-- Generator: Adobe Illustrator 22.0.1, SVG Export Plug-In . SVG Version: 6.00 Build 0)  -->
<svg version="1.1" id="Layer_1" xmlns="http://www.w3.org/2000/svg" xmlns:xlink="http://www.w3.org/1999/xlink" x="0px" y="0px"
	 viewBox="0 0 438.53 438.53" style="enable-background:new 0 0 438.53 438.53;" xml:space="preserve">
<g id="_x32_51">
	<g>
		<path style="fill:#D9912B;" d="M219.284,84.267c-36.052,0-69.957,14.052-95.461,39.518
			c-25.504,25.504-39.518,59.409-39.518,95.461s14.052,69.957,39.518,95.461c25.504,25.466,59.409,39.518,95.461,39.518
			s69.957-14.052,95.461-39.518c25.466-25.504,39.518-59.409,39.518-95.461s-14.052-69.957-39.518-95.461
			C289.241,98.318,255.336,84.267,219.284,84.267z M284.042,262.456v37.785h-46.299c0.753,10.812,1.168,20.833,1.921,31.607h-38.953
			v-31.23h-46.299c0-12.356-1.545-24.675,0.753-36.241c1.168-6.178,8.1-11.565,12.357-16.952
			c14.654-17.367,29.309-34.319,44.34-51.686c5.802-6.555,11.565-12.733,18.12-20.042h-72.105v-37.785h42.796v-31.607h37.409v30.854
			h46.676c0,12.733,1.545,25.052-0.753,36.655c-1.168,6.178-8.1,11.565-12.733,16.953c-14.654,17.367-29.309,34.319-44.34,51.686
			c-5.726,6.894-11.49,13.035-18.083,20.004h75.193V262.456z"/>
		<path style="fill:#D9912B;" d="M407.603,110.087c-19.45-33.321-45.833-59.704-79.155-79.153
			c-33.328-19.448-69.711-29.17-109.176-29.17c-39.461,0-75.854,9.722-109.177,29.17C76.771,50.38,50.388,76.763,30.938,110.087
			c-19.451,33.326-29.173,69.72-29.173,109.178c0,39.46,9.725,75.847,29.17,109.175c19.449,33.321,45.832,59.704,79.156,79.155
			c33.326,19.447,69.717,29.17,109.177,29.17s75.854-9.723,109.179-29.17c33.322-19.444,59.704-45.834,79.152-79.155
			c19.445-33.325,29.166-69.718,29.166-109.175C436.766,179.803,427.044,143.409,407.603,110.087z M379.165,286.755
			c-8.74,20.682-21.247,39.217-37.182,55.152s-34.508,28.443-55.152,37.182c-21.398,9.117-44.114,13.713-67.546,13.713
			s-46.148-4.596-67.546-13.637c-20.682-8.74-39.217-21.247-55.152-37.182s-28.443-34.508-37.182-55.152
			c-9.079-21.435-13.675-44.152-13.675-67.584s4.596-46.148,13.637-67.546c8.74-20.682,21.247-39.217,37.182-55.152
			s34.508-28.443,55.152-37.182c21.398-9.041,44.152-13.637,67.546-13.637s46.186,4.558,67.584,13.6
			c20.682,8.74,39.217,21.247,55.152,37.182s28.443,34.508,37.182,55.152c9.041,21.398,13.637,44.152,13.637,67.546
			C392.802,242.641,388.206,265.357,379.165,286.755z"/>
		<path style="fill:#FFFFFF;" d="M341.982,96.51c-15.935-15.935-34.47-28.443-55.152-37.182c-21.398-9.041-44.189-13.6-67.584-13.6
			c-23.394,0-46.148,4.596-67.546,13.637c-20.644,8.74-39.217,21.247-55.152,37.182s-28.443,34.47-37.182,55.152
			c-9.041,21.398-13.637,44.114-13.637,67.546s4.596,46.148,13.675,67.584c8.74,20.644,21.247,39.217,37.182,55.152
			s34.47,28.443,55.152,37.182c21.398,9.041,44.114,13.637,67.546,13.637s46.148-4.596,67.546-13.713
			c20.644-8.74,39.217-21.247,55.152-37.182s28.443-34.47,37.182-55.152c9.041-21.398,13.637-44.114,13.637-67.546
			c0-23.394-4.596-46.148-13.637-67.546C370.425,131.018,357.918,112.445,341.982,96.51z M314.745,314.707
			c-25.504,25.466-59.409,39.518-95.461,39.518s-69.957-14.052-95.461-39.518c-25.466-25.504-39.518-59.409-39.518-95.461
			s14.014-69.957,39.518-95.461c25.504-25.466,59.409-39.518,95.461-39.518s69.957,14.052,95.461,39.518
			c25.466,25.504,39.518,59.409,39.518,95.461S340.212,289.203,314.745,314.707z"/>
		<path style="fill:#FFFFFF;" d="M271.271,190.766c4.634-5.387,11.565-10.774,12.733-16.953c2.298-11.603,0.753-23.922,0.753-36.655
			h-46.676v-30.854h-37.409v31.607h-42.796v37.785h72.105c-6.555,7.308-12.319,13.487-18.12,20.042
			c-15.031,17.367-29.686,34.319-44.34,51.686c-4.257,5.387-11.189,10.774-12.357,16.952c-2.298,11.565-0.753,23.884-0.753,36.241
			h46.299v31.23h38.953c-0.753-10.774-1.168-20.795-1.921-31.607h46.299v-37.785h-75.194c6.593-6.969,12.357-13.11,18.083-20.004
			C241.963,225.085,256.617,208.133,271.271,190.766z"/>
	</g>
</g>
</svg>
