<?xml version="1.0" encoding="iso-8859-1"?>
<!-- Generator: Adobe Illustrator 22.0.1, SVG Export Plug-In . SVG Version: 6.00 Build 0)  -->
<svg version="1.1" id="Layer_1" xmlns="http://www.w3.org/2000/svg" xmlns:xlink="http://www.w3.org/1999/xlink" x="0px" y="0px"
	 viewBox="0 0 438.53 438.53" style="enable-background:new 0 0 438.53 438.53;" xml:space="preserve">
<g id="_x32_54">
	<g>
		<path style="fill:#3AB73A;" d="M407.603,110.087c-19.45-33.321-45.833-59.704-79.155-79.153
			c-33.328-19.448-69.711-29.17-109.176-29.17c-39.461,0-75.854,9.722-109.177,29.17C76.771,50.38,50.388,76.763,30.938,110.087
			c-19.451,33.326-29.173,69.72-29.173,109.178c0,39.46,9.725,75.847,29.17,109.175c19.449,33.321,45.832,59.704,79.156,79.155
			c33.326,19.447,69.717,29.17,109.177,29.17s75.854-9.723,109.179-29.17c33.322-19.444,59.704-45.834,79.152-79.155
			c19.445-33.325,29.166-69.718,29.166-109.175C436.766,179.803,427.044,143.409,407.603,110.087z M135.015,200.809
			c13.156-19.334,26.307-38.672,39.471-58.001c14.261-20.942,28.538-41.873,42.787-62.824c0.604-0.888,1-1.917,1.492-2.88
			c0.317,0,0.634,0,0.952,0c0.284,0.641,0.567,1.282,0.851,1.924l0,0l0,0c0.237,0.144,0.316,0.35,0.237,0.616
			c11.703,17.045,23.442,34.065,35.101,51.14c15.412,22.571,30.764,45.182,46.127,67.786c0.88,1.294,1.63,2.676,2.441,4.017l0,0
			c1.038,0.724,1.71,1.671,1.8,2.97c-1.51-0.104-2.651-0.919-3.696-1.919c-21.77-11.557-43.547-23.1-65.303-34.68
			c-5.577-2.968-11.09-6.056-16.633-9.089c-2.264-0.319-3.894,1.175-5.665,2.108c-24.939,13.13-49.846,26.319-74.771,39.475
			c-1.671,0.882-3.423,1.612-5.138,2.413l0,0c-0.749,1.103-1.788,0.959-2.861,0.667C133.195,203.33,133.247,201.422,135.015,200.809
			z M301.766,219.934c-19.671,10.786-39.327,21.602-59.023,32.343c-7.207,3.93-14.51,7.684-21.769,11.518
			c-1.496,1.634-2.642-0.001-3.704-0.564c-26.779-14.185-53.523-28.433-80.274-42.67c-0.731-0.34-2.16-0.406-1.012-1.682
			c0.599-0.665,1.624-0.949,2.461-1.397c26.239-14.05,52.476-28.102,78.724-42.136c0.814-0.435,1.731-0.677,2.6-1.009l0,0l0,0l0,0
			l0,0c9.299,3.917,17.863,9.248,26.746,13.961c17.977,9.538,35.878,19.217,53.727,28.991
			C300.714,217.549,304.657,217.229,301.766,219.934C301.766,219.933,301.766,219.934,301.766,219.934L301.766,219.934z
			 M297.696,246.635c-24.887,37.037-49.845,74.027-74.788,111.026c-0.704,1.044-1.487,2.035-2.233,3.051
			c-2.492,2.061-2.574-0.899-3.18-1.778c-10.319-14.982-20.518-30.046-30.754-45.085c-17.523-25.746-35.049-51.49-52.597-77.219
			c-0.534-0.784-1.304-1.404-1.017-2.494c3.102,0.551,5.763,2.173,8.472,3.614c24.615,13.082,49.203,26.215,73.809,39.313
			c1.647,0.877,3.165,2.186,5.244,1.9l0,0l0,0c28.097-15.168,56.193-30.338,84.298-45.492c0.402-0.217,0.912-0.234,1.371-0.345
			C304.093,238.039,300.674,242.203,297.696,246.635z"/>
		<path style="fill:#FFFFFF;" d="M135.068,203.863L135.068,203.863c1.714-0.801,3.466-1.531,5.138-2.413
			c24.925-13.156,49.833-26.345,74.771-39.475c1.772-0.933,3.401-2.427,5.665-2.108c-0.982-1.544-0.956-3.267-0.952-5.008
			c0.026-10.377,0.024-20.754,0.031-31.131l0,0l0,0c-0.029-13.579-0.068-27.157-0.07-40.736c0-1.366-0.429-2.886,0.915-3.964l0,0
			c-0.284-0.641-0.567-1.282-0.851-1.924c-0.317,0-0.634,0-0.952,0c-0.493,0.963-0.889,1.993-1.492,2.88
			c-14.249,20.95-28.526,41.882-42.787,62.824c-13.163,19.33-26.314,38.667-39.471,58.001
			C135.032,201.827,135.05,202.845,135.068,203.863L135.068,203.863z"/>
		<path style="fill:#FFFFFF;" d="M219.722,356.271c-0.031-24.091-0.018-48.181-0.03-72.272c-0.001-1.752-0.063-3.492,0.963-5.037
			l0,0c-2.079,0.285-3.598-1.024-5.244-1.9c-24.606-13.098-49.194-26.231-73.809-39.313c-2.71-1.44-5.371-3.062-8.472-3.614
			c-0.287,1.09,0.482,1.71,1.017,2.494c17.547,25.729,35.074,51.473,52.597,77.219c10.236,15.039,20.435,30.104,30.754,45.085
			c0.606,0.879,0.688,3.839,3.18,1.778C219.187,359.487,219.723,357.785,219.722,356.271z"/>
		<path style="fill:#FFFFFF;" d="M220.655,278.962L220.655,278.962c0.805,1.467,0.595,3.07,0.592,4.636
			c-0.035,23.195-0.022,46.39,0.016,69.585c0.004,2.54-0.396,5.02-0.588,7.529c0.746-1.016,1.529-2.007,2.233-3.051
			c24.943-36.999,49.901-73.989,74.788-111.026c2.978-4.431,6.397-8.596,8.627-13.51c-0.459,0.111-0.969,0.128-1.371,0.345
			C276.847,248.624,248.751,263.794,220.655,278.962z"/>
		<path style="fill:#FFFFFF;" d="M221.247,283.598c0.002-1.566,0.212-3.168-0.593-4.635c-1.026,1.545-0.964,3.285-0.963,5.037
			c0.012,24.091-0.001,48.181,0.03,72.272c0.002,1.514-0.535,3.216,0.954,4.44c0.192-2.509,0.592-4.989,0.588-7.529
			C221.225,329.988,221.212,306.793,221.247,283.598z"/>
		<path style="fill:#FFFFFF;" d="M135.068,203.863c-0.943-1.002-0.718-2.025-0.053-3.055c-1.768,0.613-1.819,2.521-2.808,3.722
			C133.28,204.822,134.319,204.966,135.068,203.863z"/>
		<path style="fill:#FFFFFF;" d="M135.068,203.863L135.068,203.863c-0.018-1.018-0.035-2.037-0.053-3.055
			C134.35,201.839,134.125,202.861,135.068,203.863z"/>
		<path style="fill:#FFFFFF;" d="M221.148,123.624c0.18,11.015-0.035,22.031,0.112,33.046c0.015,1.104-0.009,2.21-0.617,3.197
			c5.543,3.033,11.056,6.121,16.633,9.089c21.757,11.581,43.534,23.123,65.303,34.68c0.795-0.056,1.508-0.259,1.896-1.05l0,0l0,0
			c-0.811-1.341-1.561-2.723-2.441-4.017c-15.364-22.604-30.716-45.215-46.127-67.786c-11.659-17.075-23.398-34.095-35.101-51.14
			c-0.004,1.093-0.007,2.186-0.011,3.279C221.496,96.482,220.723,110.06,221.148,123.624z"/>
		<path style="fill:#FFFFFF;" d="M221.148,123.624c-0.424-13.563,0.348-27.142-0.354-40.702
			c-0.039,11.969-0.067,23.939-0.154,35.908c-0.012,1.654,0.626,3.503-0.918,4.898l0,0c-0.007,10.377-0.006,20.754-0.031,31.131
			c-0.004,1.742-0.03,3.465,0.952,5.008c0.609-0.988,0.632-2.093,0.617-3.197C221.113,145.655,221.328,134.638,221.148,123.624z"/>
		<path style="fill:#FFFFFF;" d="M220.805,79.643c0.079-0.266-0.001-0.472-0.237-0.616l0,0c0.023,0.302,0.032,0.605,0.053,0.908
			C220.68,79.838,220.73,79.739,220.805,79.643z"/>
		<path style="fill:#FFFFFF;" d="M219.652,82.992c0.002,13.579,0.041,27.157,0.07,40.736l0,0c1.043-4.653,0.379-9.368,0.449-14.051
			c0.127-8.491,0.006-16.985,0.063-25.478c0.01-1.416-0.438-2.93,0.386-4.264c-0.021-0.302-0.03-0.605-0.053-0.908
			C219.222,80.106,219.652,81.626,219.652,82.992z"/>
		<path style="fill:#FFFFFF;" d="M220.794,82.922c0.004-1.093,0.007-2.186,0.011-3.279c-0.075,0.095-0.124,0.194-0.185,0.292
			C220.689,80.93,220.742,81.926,220.794,82.922z"/>
		<path style="fill:#FFFFFF;" d="M220.64,118.829c0.087-11.969,0.114-23.938,0.154-35.908c-0.052-0.996-0.105-1.991-0.174-2.987
			c-0.824,1.334-0.376,2.848-0.386,4.264c-0.057,8.493,0.064,16.987-0.063,25.478c-0.07,4.683,0.595,9.398-0.449,14.051
			C221.267,122.332,220.628,120.484,220.64,118.829z"/>
		<path style="fill:#FFFFFF;" d="M302.578,203.636c1.045,1,2.186,1.815,3.696,1.919c-0.091-1.299-0.762-2.246-1.8-2.97
			C304.613,204.327,303.783,204.32,302.578,203.636z"/>
		<path style="fill:#FFFFFF;" d="M302.578,203.636c1.205,0.684,2.034,0.69,1.896-1.05l0,0
			C304.087,203.378,303.373,203.58,302.578,203.636z"/>
		<path style="fill:#FFFFFF;" d="M219.769,174.338L219.769,174.338L219.769,174.338z"/>
		<path style="fill:#FFFFFF;" d="M156.62,221.12c9.413,0.238,18.793,1.665,28.197,2.475c11.602,1,23.214,1.889,34.821,2.826
			c-0.001-0.001,0.104,0.108,0.104,0.108c0.005,0,0.011-0.001,0.017-0.001c-0.041-0.036-0.081-0.072-0.122-0.108
			c0.044-17.361,0.088-34.721,0.132-52.082c-0.869,0.332-1.786,0.574-2.6,1.009c-26.248,14.034-52.485,28.085-78.724,42.136
			c-0.837,0.448-1.863,0.732-2.461,1.397c-1.149,1.276,0.28,1.342,1.012,1.682C143.582,218.497,150.083,220.954,156.62,221.12z"/>
		<path style="fill:#FFFFFF;" d="M219.769,174.338L219.769,174.338L219.769,174.338z"/>
		<path style="fill:#FFFFFF;" d="M300.242,217.291c-17.849-9.774-35.75-19.454-53.727-28.991
			c-8.883-4.713-17.447-10.044-26.746-13.961c1.438,1.531,1.44,3.472,1.447,5.37c0.056,13.797,0.056,27.594,0.001,41.39
			c-0.007,1.744-0.06,3.501-1.013,5.064c-0.112,0.136-0.231,0.247-0.35,0.357c10.749-0.958,21.502-1.872,32.246-2.887
			c12.496-1.18,24.975-2.543,37.479-3.626c4.034-0.349,8.122-0.066,12.186-0.073l0,0
			C304.657,217.229,300.714,217.549,300.242,217.291z"/>
		<path style="fill:#FFFFFF;" d="M219.759,226.528c0.032-0.003,0.064-0.006,0.096-0.008c0.119-0.11,0.238-0.222,0.35-0.357
			c0.953-1.563,1.006-3.32,1.013-5.064c0.055-13.797,0.055-27.593-0.001-41.39c-0.008-1.898-0.009-3.839-1.447-5.37l0,0l0,0
			c-0.044,17.361-0.088,34.721-0.132,52.082C219.678,226.456,219.719,226.492,219.759,226.528z"/>
		<path style="fill:#FFFFFF;" d="M219.742,259.052c-0.036-10.807-0.008-21.614,0-32.42c-1.099,0.928-2.484,0.904-3.882,0.796
			c-15.6-1.198-31.185-2.582-46.778-3.872c-10.707-0.886-21.449-1.37-32.087-2.994c26.751,14.237,53.496,28.485,80.274,42.67
			c1.062,0.563,2.209,2.197,3.704,0.564C219.17,262.58,219.748,260.7,219.742,259.052z"/>
		<path style="fill:#FFFFFF;" d="M215.861,227.428c1.398,0.107,2.783,0.132,3.882-0.796c0-0.034,0-0.068,0-0.102l0,0
			c0,0-0.105-0.109-0.104-0.108c-11.607-0.936-23.219-1.825-34.821-2.826c-9.404-0.811-18.783-2.237-28.197-2.475
			c-6.538-0.166-13.038-2.623-19.625-0.558c10.638,1.625,21.38,2.108,32.087,2.994C184.675,224.845,200.26,226.229,215.861,227.428z
			"/>
		<path style="fill:#FFFFFF;" d="M224.492,227.176c-1.413,0.083-2.828,0.425-4.208-0.182c-0.16-0.14-0.319-0.282-0.478-0.424
			c-0.006,0.005-0.011,0.012-0.017,0.017c0.974,1.094,1.332,2.433,1.338,3.844c0.047,11.122,0.388,22.245-0.154,33.365
			c7.259-3.834,14.562-7.588,21.769-11.518c19.696-10.741,39.352-21.557,59.023-32.343l0,0c-8.633,2.148-17.526,2.263-26.303,2.984
			C258.471,224.312,241.517,226.179,224.492,227.176z"/>
		<path style="fill:#FFFFFF;" d="M219.743,226.529L219.743,226.529c0.017,0.019,0.03,0.039,0.047,0.057
			c0.006-0.005,0.011-0.012,0.017-0.017c-0.016-0.014-0.031-0.028-0.047-0.042C219.754,226.528,219.748,226.529,219.743,226.529z"/>
		<path style="fill:#FFFFFF;" d="M289.58,220.006c-12.504,1.083-24.983,2.446-37.479,3.626c-10.744,1.015-21.497,1.929-32.246,2.887
			c-0.017,0.016-0.032,0.035-0.049,0.05c0.159,0.142,0.318,0.284,0.478,0.424c1.38,0.607,2.795,0.265,4.208,0.182
			c17.025-0.996,33.979-2.864,50.97-4.258c8.778-0.72,17.67-0.835,26.303-2.984C297.702,219.94,293.614,219.657,289.58,220.006z"/>
		<path style="fill:#FFFFFF;" d="M219.806,226.569c0.017-0.015,0.032-0.035,0.049-0.05c-0.032,0.003-0.064,0.006-0.096,0.008
			C219.775,226.542,219.791,226.555,219.806,226.569z"/>
		<path style="fill:#FFFFFF;" d="M221.128,230.43c-0.006-1.411-0.364-2.75-1.338-3.844c-0.016,0.014-0.031,0.031-0.047,0.045
			c-0.008,10.807-0.036,21.613,0,32.42c0.005,1.648-0.572,3.529,1.232,4.743C221.516,252.676,221.174,241.552,221.128,230.43z"/>
		<path style="fill:#FFFFFF;" d="M219.743,226.529L219.743,226.529c0,0.034,0,0.068,0,0.102c0.016-0.014,0.031-0.031,0.047-0.045
			C219.773,226.568,219.76,226.548,219.743,226.529L219.743,226.529z"/>
	</g>
</g>
</svg>
