<?xml version="1.0" encoding="iso-8859-1"?>
<!-- Generator: Adobe Illustrator 22.0.1, SVG Export Plug-In . SVG Version: 6.00 Build 0)  -->
<svg version="1.1" id="Layer_1" xmlns="http://www.w3.org/2000/svg" xmlns:xlink="http://www.w3.org/1999/xlink" x="0px" y="0px"
	 viewBox="0 0 438.53 438.53" style="enable-background:new 0 0 438.53 438.53;" xml:space="preserve">
<g id="_x32_55">
	<g>
		<path style="fill:#464646;" d="M407.603,110.087c-19.45-33.321-45.833-59.704-79.155-79.153
			c-33.328-19.448-69.711-29.17-109.176-29.17c-39.461,0-75.854,9.722-109.177,29.17C76.771,50.38,50.388,76.763,30.938,110.087
			c-19.451,33.326-29.173,69.72-29.173,109.178c0,39.46,9.725,75.847,29.17,109.175c19.449,33.321,45.832,59.704,79.156,79.155
			c33.326,19.447,69.717,29.17,109.177,29.17s75.854-9.723,109.179-29.17c33.322-19.444,59.704-45.834,79.152-79.155
			c19.445-33.325,29.166-69.718,29.166-109.175C436.766,179.803,427.044,143.409,407.603,110.087z M318.42,138.977
			c7.214-0.038,13.224,5.987,13.179,13.209c-0.046,7.303-5.9,13.013-13.317,12.99c-7.107-0.022-12.899-5.8-12.958-12.925
			C305.265,144.965,311.134,139.015,318.42,138.977z M314.323,175.335c6.075,0.007,11.09,5.075,11.126,11.242
			c0.036,6.238-5,11.291-11.259,11.298c-6.131,0.007-11.093-5.007-11.101-11.217C303.081,180.367,308.081,175.327,314.323,175.335z
			 M304.141,204.804c5.364-0.052,9.575,4.243,9.566,9.754c-0.009,5.372-4.141,9.405-9.619,9.389
			c-5.331-0.016-9.519-4.222-9.524-9.565C294.56,209.106,298.811,204.855,304.141,204.804z M290.421,227.234
			c4.596-0.055,8.179,3.524,8.193,8.185c0.015,4.798-3.328,8.219-8.044,8.234c-4.647,0.015-8.247-3.494-8.307-8.097
			C282.205,231.03,285.873,227.288,290.421,227.234z M280.044,193.058c-6.289,0.073-11.285-4.875-11.301-11.19
			c-0.015-6.154,4.942-11.176,11.094-11.238c6.19-0.063,11.323,5.017,11.355,11.238
			C291.223,187.988,286.244,192.986,280.044,193.058z M302.596,253.721c3.869-0.072,7.058,3.083,7.059,6.982
			c0.001,4.146-3.007,7.228-7.028,7.198c-3.898-0.029-6.998-3.139-7.016-7.038C295.594,256.997,298.727,253.793,302.596,253.721z
			 M284.157,160.495c-7.18,0.046-13.018-5.74-13.073-12.954c-0.056-7.405,5.61-13.252,12.909-13.321
			c7.291-0.069,13.253,5.769,13.288,13.012C297.314,154.41,291.339,160.449,284.157,160.495z M276.7,91.718
			c0.17-0.037,0.308-0.22,0.461-0.335c1.817,0,3.634,0,5.451,0c2.597,0.912,5.188,1.794,7.314,3.687
			c5.4,4.81,6.82,12.437,3.439,18.849c-3.297,6.253-10.706,9.438-17.626,7.577c-6.799-1.828-11.366-8.056-11.225-15.307
			C264.653,99.111,269.59,93.254,276.7,91.718z M269.794,200.048c5.429-0.036,9.521,4.143,9.533,9.734
			c0.012,5.377-4.146,9.509-9.54,9.482c-5.303-0.026-9.458-4.247-9.466-9.615C260.314,204.268,264.442,200.084,269.794,200.048z
			 M264.366,230.661c0.072,4.594-3.546,8.29-8.134,8.31c-4.526,0.019-8.308-3.693-8.347-8.195c-0.04-4.559,3.607-8.205,8.228-8.225
			C260.839,222.531,264.292,225.923,264.366,230.661z M265.629,259.5c0.048,3.526-2.669,6.327-6.112,6.303
			c-3.292-0.023-5.882-2.666-5.904-6.024c-0.024-3.515,2.508-6.113,5.974-6.131C262.97,253.63,265.584,256.162,265.629,259.5z
			 M240.671,238.554c4.048-0.053,7.155,2.88,7.192,6.79c0.039,4.122-2.957,7.236-6.978,7.254c-4.005,0.018-7.035-2.923-7.115-6.906
			C233.693,241.809,236.792,238.604,240.671,238.554z M233.557,194.398c-0.046-4.052,2.99-7.055,7.145-7.067
			c3.946-0.011,7.043,3.065,7.039,6.992c-0.004,3.862-3.15,6.968-7.072,6.982C236.682,201.319,233.602,198.328,233.557,194.398z
			 M243.51,176.986c-3.505,0.019-6.111-2.54-6.111-6.002c0-3.433,2.672-6.055,6.131-6.016c3.401,0.039,5.956,2.573,5.983,5.933
			C249.541,174.412,247.019,176.968,243.51,176.986z M250.184,147.079c3.114-0.015,5.361,2.148,5.352,5.152
			c-0.008,2.863-2.28,5.151-5.15,5.187c-3.023,0.038-5.297-2.196-5.297-5.204C245.088,149.234,247.212,147.093,250.184,147.079z
			 M238.773,135.838c3.409-0.049,6.113,2.65,6.103,6.092c-0.01,3.413-2.726,6.089-6.143,6.056c-3.413-0.034-6.07-2.77-6.014-6.192
			C232.773,138.485,235.415,135.886,238.773,135.838z M234.602,162.27c-0.044,3.943-3.14,7.035-7.041,7.03
			c-3.987-0.005-7.037-3.169-7.003-7.263c0.033-3.908,3.119-6.864,7.153-6.853C231.656,155.195,234.647,158.27,234.602,162.27z
			 M175.035,240.441c3.987-0.016,6.995,2.965,7.017,6.957c0.022,3.884-3.316,7.444-6.981,7.443c-3.555,0-7.14-3.739-7.121-7.425
			C167.971,243.535,171.097,240.457,175.035,240.441z M168.637,229.201c0.042-3.275,2.805-5.996,6.043-5.95
			c3.448,0.049,6.115,2.705,6.11,6.086c-0.004,3.39-2.759,6.119-6.128,6.071C171.334,235.36,168.594,232.537,168.637,229.201z
			 M180.205,259.938c4.517-0.012,8.275,3.721,8.274,8.219c-0.002,4.632-3.594,8.226-8.197,8.201
			c-4.595-0.025-8.284-3.659-8.29-8.168C171.984,263.638,175.655,259.95,180.205,259.938z M195.076,196.693
			c-5.368,0.03-9.617-4.108-9.668-9.414c-0.051-5.292,4.377-9.752,9.661-9.73c5.287,0.022,9.553,4.3,9.555,9.582
			C204.625,192.431,200.4,196.663,195.076,196.693z M203.366,220.122c0.004,3.923-3.078,7.066-6.971,7.108
			c-3.825,0.042-7.288-3.424-7.206-7.213c0.083-3.846,3.343-7.009,7.184-6.971C200.285,213.085,203.362,216.198,203.366,220.122z
			 M191.539,280.971c5.409-0.037,9.749,4.256,9.73,9.627c-0.018,5.239-4.198,9.479-9.386,9.521c-5.48,0.043-9.822-4.158-9.829-9.511
			C182.046,285.252,186.225,281.007,191.539,280.971z M193.305,240.819c0.012-4.577,3.663-8.215,8.232-8.204
			c4.587,0.011,8.188,3.635,8.188,8.242c0.001,4.657-3.563,8.216-8.19,8.177C196.946,248.996,193.293,245.35,193.305,240.819z
			 M212.964,253.648c5.311,0.016,9.58,4.245,9.62,9.53c0.04,5.307-4.209,9.554-9.55,9.545c-5.565-0.009-9.696-4.11-9.665-9.596
			C203.398,257.779,207.596,253.632,212.964,253.648z M219.914,196.647c-4.584-0.044-8.171-3.742-8.091-8.343
			c0.079-4.514,3.796-8.053,8.438-8.032c4.491,0.02,8.022,3.589,8.05,8.135C228.34,193.079,224.658,196.692,219.914,196.647z
			 M223.066,126.119c3.845-0.001,6.856,2.987,6.922,6.869c0.068,3.97-3.155,7.256-7.081,7.219c-3.912-0.037-6.998-3.127-7.029-7.04
			C215.847,129.153,218.939,126.12,223.066,126.119z M215.308,156.269c0.045,4.535-3.61,8.232-8.184,8.277
			c-4.579,0.045-8.263-3.565-8.299-8.133c-0.036-4.52,3.855-8.392,8.394-8.354C211.589,148.096,215.264,151.825,215.308,156.269z
			 M202.864,119.057c4.369,0.1,7.765,3.825,7.7,8.443c-0.065,4.591-3.701,8.044-8.398,7.975c-4.484-0.066-8.121-3.894-8.021-8.443
			C194.244,122.5,198.127,118.948,202.864,119.057z M191.557,155.089c-0.031,5.271-4.349,9.6-9.575,9.599
			c-5.323-0.001-9.704-4.442-9.641-9.773c0.06-5.164,4.506-9.469,9.752-9.443C187.415,145.498,191.589,149.739,191.557,155.089z
			 M177.496,116.334c5.269,0.099,9.513,4.471,9.449,9.733c-0.065,5.311-4.305,9.425-9.698,9.41
			c-5.415-0.015-9.523-4.122-9.518-9.517C167.734,120.635,172.199,116.234,177.496,116.334z M177.082,192.36
			c-0.034,6.211-4.949,11.142-11.142,11.178c-6.249,0.036-11.225-4.982-11.209-11.304c0.016-6.318,4.954-11.161,11.341-11.123
			C172.236,181.148,177.115,186.133,177.082,192.36z M154.928,238.063c-2.787-0.054-5.13-2.453-5.155-5.279
			c-0.026-2.867,2.444-5.242,5.409-5.199c2.859,0.041,5.081,2.34,5.068,5.244C160.237,235.81,157.888,238.121,154.928,238.063z
			 M158.003,247.919c-0.03,3.367-2.833,6.123-6.179,6.077c-3.398-0.047-5.986-2.745-5.968-6.221c0.018-3.373,2.59-5.93,5.968-5.933
			C155.231,241.838,158.033,244.594,158.003,247.919z M164.023,160.234c-0.02,6.345-4.952,11.211-11.313,11.163
			c-6.182-0.047-11.079-5.024-11.047-11.23c0.033-6.351,4.948-11.18,11.329-11.13C159.246,149.085,164.043,153.955,164.023,160.234z
			 M148.116,119.896c6.256-0.06,11.317,4.992,11.295,11.274c-0.022,6.222-4.968,11.155-11.183,11.154
			c-6.253-0.001-11.162-4.889-11.176-11.129C137.036,124.975,141.951,119.955,148.116,119.896z M120.953,160.636
			c7.209,0.107,12.987,5.944,13.02,13.154c0.033,7.286-5.841,13.132-13.182,13.12c-7.22-0.012-13.013-5.825-13.021-13.067
			C107.763,166.575,113.796,160.53,120.953,160.636z M115.691,233.89c-1.568,6.32-7.357,11.073-13.901,11.414
			c-6.861,0.358-13.023-3.656-15.386-9.999c-0.229-0.615-0.136-1.401-0.857-1.784c0-2.236,0-4.472,0-6.709
			c1.243-3,2.428-5.995,4.992-8.24c5.138-4.499,12.364-5.227,18.272-1.7C114.564,220.307,117.351,227.2,115.691,233.89z
			 M133.977,219.052c-7.307,0.063-13.279-5.955-13.208-13.309c0.07-7.196,5.903-12.917,13.146-12.892
			c7.255,0.025,13.326,6.079,13.193,13.159C146.974,213.197,141.141,218.991,133.977,219.052z M145.088,265.904
			c0.061-3.886,3.191-6.884,7.181-6.875c3.903,0.008,7.029,3.152,7.002,7.045c-0.026,3.833-3.318,7.179-7.017,7.133
			C148.436,273.159,145.029,269.688,145.088,265.904z M149.21,286.775c-0.007-4.633,3.582-8.305,8.13-8.317
			c4.496-0.012,8.29,3.759,8.289,8.237c-0.001,4.601-3.656,8.284-8.187,8.249C152.818,294.91,149.217,291.336,149.21,286.775z
			 M168.849,318.68c-5.476-0.046-9.802-4.371-9.683-9.68c0.12-5.35,4.368-9.485,9.697-9.44c5.329,0.045,9.558,4.291,9.553,9.589
			C178.41,314.496,174.165,318.725,168.849,318.68z M187.863,342.954c-6.195,0.004-11.212-4.95-11.26-11.12
			c-0.049-6.28,4.987-11.33,11.276-11.308c6.215,0.022,11.078,4.951,11.084,11.235C198.969,338.061,194.121,342.95,187.863,342.954z
			 M210.69,324.436c-6.262,0.019-11.192-4.989-11.165-11.339c0.027-6.223,4.935-11.14,11.141-11.162
			c6.191-0.022,11.271,5.122,11.217,11.359C221.829,319.485,216.874,324.418,210.69,324.436z M220.769,285.95
			c-0.03-6.215,4.862-11.26,10.993-11.337c6.254-0.079,11.393,4.928,11.435,11.142c0.042,6.256-4.969,11.28-11.26,11.287
			C225.702,297.048,220.799,292.178,220.769,285.95z M238.386,347.147c-7.326-0.007-13.059-5.828-13.004-13.205
			c0.053-7.212,5.825-12.96,13.046-12.995c7.21-0.034,13.186,5.942,13.157,13.158C251.555,341.426,245.758,347.154,238.386,347.147z
			 M259.672,319.893c-7.219-0.049-13.132-6.077-13.047-13.301c0.084-7.168,5.958-13.009,13.114-13.041
			c7.129-0.031,13.19,6.06,13.16,13.225C272.868,314.011,266.887,319.942,259.672,319.893z M272.346,280.245
			c-2.766-0.04-5.177-2.49-5.174-5.258c0.003-2.941,2.391-5.247,5.38-5.198c3.02,0.05,5.189,2.349,5.098,5.404
			C277.565,278.034,275.201,280.286,272.346,280.245z M275.111,257.419c-3.886-0.015-6.977-3.166-6.962-7.095
			c0.016-3.975,3.071-7.085,6.966-7.089c3.948-0.005,7.066,3.07,7.078,6.979C282.204,254.266,279.09,257.435,275.111,257.419z
			 M287.31,264.13c3.308,0.055,5.897,2.744,5.853,6.08c-0.045,3.443-2.784,6.162-6.119,6.078c-3.356-0.085-6.129-2.95-6.036-6.235
			C281.104,266.662,283.858,264.073,287.31,264.13z M297.134,338.692c-8.457-0.001-15.301-6.792-15.359-15.239
			c-0.058-8.559,6.742-15.358,15.368-15.368c8.664-0.009,15.341,6.69,15.307,15.36C312.418,331.903,305.597,338.693,297.134,338.692
			z M318.073,254.411c-4.376,0.058-8.231-3.819-8.274-8.322c-0.044-4.626,3.52-8.262,8.14-8.305
			c4.688-0.044,8.195,3.447,8.209,8.171C326.162,250.599,322.578,254.351,318.073,254.411z M331.665,234.552
			c-5.274-0.012-9.559-4.31-9.57-9.598c-0.011-5.315,4.203-9.598,9.509-9.664c5.357-0.066,9.632,4.246,9.638,9.724
			C341.249,230.316,336.983,234.564,331.665,234.552z M341.794,208.363c-6.138,0.035-11.198-4.937-11.311-11.114
			c-0.113-6.142,5.072-11.32,11.33-11.315c6.155,0.004,11.173,5.042,11.17,11.214C352.98,203.299,347.963,208.327,341.794,208.363z"
			/>
		<path style="fill:#FFFFFF;" d="M275.74,121.497c6.92,1.861,14.33-1.325,17.626-7.577c3.381-6.412,1.961-14.039-3.439-18.849
			c-2.126-1.893-4.717-2.775-7.314-3.687c-1.817,0-3.634,0-5.451,0c-0.153,0.115-0.291,0.298-0.461,0.335
			c-7.11,1.536-12.048,7.393-12.185,14.472C264.374,113.441,268.941,119.668,275.74,121.497z"/>
		<path style="fill:#FFFFFF;" d="M108.812,216.872c-5.907-3.527-13.133-2.799-18.272,1.7c-2.564,2.245-3.749,5.24-4.992,8.24
			c0,2.236,0,4.472,0,6.709c0.721,0.383,0.628,1.169,0.857,1.784c2.364,6.343,8.526,10.357,15.386,9.999
			c6.544-0.341,12.333-5.095,13.901-11.414C117.351,227.2,114.564,220.307,108.812,216.872z"/>
		<path style="fill:#FFFFFF;" d="M297.143,308.085c-8.626,0.009-15.426,6.809-15.368,15.368c0.057,8.447,6.902,15.238,15.359,15.239
			c8.463,0.001,15.285-6.789,15.317-15.246C312.484,314.776,305.807,308.076,297.143,308.085z"/>
		<path style="fill:#FFFFFF;" d="M283.992,134.22c-7.299,0.069-12.965,5.916-12.909,13.321c0.055,7.214,5.894,13,13.073,12.954
			c7.182-0.046,13.157-6.085,13.123-13.263C297.245,139.99,291.284,134.152,283.992,134.22z"/>
		<path style="fill:#FFFFFF;" d="M318.282,165.176c7.417,0.023,13.27-5.687,13.317-12.99c0.046-7.223-5.965-13.247-13.179-13.209
			c-7.286,0.038-13.156,5.987-13.096,13.274C305.383,159.377,311.175,165.154,318.282,165.176z"/>
		<path style="fill:#FFFFFF;" d="M133.915,192.851c-7.243-0.024-13.076,5.696-13.146,12.892
			c-0.071,7.354,5.901,13.372,13.208,13.309c7.164-0.062,12.997-5.855,13.131-13.042C147.24,198.93,141.17,192.876,133.915,192.851z
			"/>
		<path style="fill:#FFFFFF;" d="M259.739,293.551c-7.156,0.031-13.03,5.872-13.114,13.041c-0.084,7.224,5.829,13.252,13.047,13.301
			c7.215,0.049,13.196-5.881,13.227-13.117C272.929,299.611,266.868,293.52,259.739,293.551z"/>
		<path style="fill:#FFFFFF;" d="M120.792,186.91c7.341,0.012,13.215-5.834,13.182-13.12c-0.033-7.21-5.811-13.047-13.02-13.154
			c-7.157-0.106-13.19,5.938-13.182,13.207C107.779,181.085,113.571,186.898,120.792,186.91z"/>
		<path style="fill:#FFFFFF;" d="M238.427,320.948c-7.221,0.034-12.992,5.783-13.046,12.995
			c-0.054,7.377,5.679,13.198,13.004,13.205c7.372,0.007,13.169-5.721,13.198-13.042
			C251.613,326.889,245.637,320.914,238.427,320.948z"/>
		<path style="fill:#FFFFFF;" d="M210.666,301.935c-6.206,0.022-11.115,4.939-11.141,11.162
			c-0.027,6.351,4.903,11.358,11.165,11.339c6.184-0.019,11.139-4.951,11.193-11.143
			C221.937,307.058,216.857,301.913,210.666,301.935z"/>
		<path style="fill:#FFFFFF;" d="M314.19,197.875c6.259-0.007,11.295-5.06,11.259-11.298c-0.036-6.167-5.051-11.235-11.126-11.242
			c-6.242-0.008-11.242,5.032-11.234,11.323C303.097,192.868,308.059,197.882,314.19,197.875z"/>
		<path style="fill:#FFFFFF;" d="M141.663,160.167c-0.032,6.206,4.864,11.183,11.047,11.23c6.361,0.048,11.293-4.818,11.313-11.163
			c0.02-6.279-4.778-11.149-11.031-11.197C146.611,148.987,141.696,153.816,141.663,160.167z"/>
		<path style="fill:#FFFFFF;" d="M154.731,192.235c-0.016,6.322,4.96,11.34,11.209,11.304c6.193-0.036,11.108-4.967,11.142-11.178
			c0.034-6.227-4.846-11.212-11.01-11.249C159.684,181.073,154.747,185.916,154.731,192.235z"/>
		<path style="fill:#FFFFFF;" d="M148.227,142.324c6.215,0.001,11.161-4.932,11.183-11.154c0.022-6.283-5.039-11.334-11.295-11.274
			c-6.165,0.059-11.08,5.078-11.065,11.299C137.066,137.436,141.974,142.323,148.227,142.324z"/>
		<path style="fill:#FFFFFF;" d="M291.192,181.867c-0.032-6.221-5.165-11.301-11.355-11.238
			c-6.152,0.063-11.109,5.085-11.094,11.238c0.016,6.315,5.012,11.263,11.301,11.19
			C286.244,192.986,291.223,187.988,291.192,181.867z"/>
		<path style="fill:#FFFFFF;" d="M243.197,285.755c-0.042-6.214-5.181-11.221-11.435-11.142
			c-6.131,0.077-11.023,5.122-10.993,11.337c0.03,6.228,4.933,11.099,11.168,11.092C238.228,297.035,243.24,292.011,243.197,285.755
			z"/>
		<path style="fill:#FFFFFF;" d="M187.879,320.526c-6.289-0.022-11.325,5.029-11.276,11.308c0.048,6.17,5.065,11.124,11.26,11.12
			c6.258-0.004,11.106-4.893,11.1-11.194C198.957,325.476,194.094,320.548,187.879,320.526z"/>
		<path style="fill:#FFFFFF;" d="M341.812,185.934c-6.258-0.004-11.442,5.173-11.33,11.315c0.113,6.177,5.174,11.149,11.311,11.114
			c6.169-0.036,11.186-5.064,11.189-11.215C352.985,190.976,347.968,185.938,341.812,185.934z"/>
		<path style="fill:#FFFFFF;" d="M191.883,300.118c5.188-0.041,9.368-4.281,9.386-9.521c0.018-5.37-4.322-9.664-9.73-9.627
			c-5.314,0.037-9.492,4.282-9.485,9.636C182.061,295.96,186.403,300.161,191.883,300.118z"/>
		<path style="fill:#FFFFFF;" d="M172.341,154.915c-0.062,5.331,4.319,9.772,9.641,9.773c5.226,0.001,9.543-4.327,9.575-9.599
			c0.032-5.349-4.142-9.59-9.464-9.617C176.847,145.446,172.402,149.751,172.341,154.915z"/>
		<path style="fill:#FFFFFF;" d="M213.033,272.723c5.341,0.008,9.59-4.238,9.55-9.545c-0.039-5.285-4.308-9.514-9.62-9.53
			c-5.368-0.016-9.566,4.131-9.596,9.479C203.338,268.613,207.468,272.714,213.033,272.723z"/>
		<path style="fill:#FFFFFF;" d="M269.787,219.264c5.394,0.027,9.552-4.105,9.54-9.482c-0.012-5.591-4.105-9.77-9.533-9.734
			c-5.352,0.035-9.48,4.219-9.472,9.6C260.329,215.017,264.484,219.238,269.787,219.264z"/>
		<path style="fill:#FFFFFF;" d="M168.863,299.561c-5.329-0.045-9.576,4.09-9.697,9.44c-0.119,5.309,4.206,9.633,9.683,9.68
			c5.316,0.045,9.561-4.184,9.567-9.53C178.422,303.852,174.192,299.606,168.863,299.561z"/>
		<path style="fill:#FFFFFF;" d="M177.246,135.477c5.394,0.015,9.634-4.099,9.698-9.41c0.064-5.263-4.18-9.634-9.449-9.733
			c-5.297-0.099-9.762,4.301-9.767,9.626C167.724,131.354,171.832,135.462,177.246,135.477z"/>
		<path style="fill:#FFFFFF;" d="M304.088,223.946c5.478,0.017,9.61-4.017,9.619-9.389c0.009-5.511-4.202-9.806-9.566-9.754
			c-5.33,0.051-9.581,4.302-9.577,9.578C294.569,219.724,298.757,223.93,304.088,223.946z"/>
		<path style="fill:#FFFFFF;" d="M195.069,177.549c-5.284-0.022-9.712,4.437-9.661,9.73c0.051,5.307,4.301,9.444,9.668,9.414
			c5.324-0.03,9.549-4.261,9.548-9.562C204.623,181.849,200.357,177.571,195.069,177.549z"/>
		<path style="fill:#FFFFFF;" d="M331.604,215.29c-5.305,0.066-9.52,4.349-9.509,9.664c0.011,5.288,4.296,9.586,9.57,9.598
			c5.318,0.012,9.584-4.236,9.577-9.538C341.236,219.536,336.962,215.224,331.604,215.29z"/>
		<path style="fill:#FFFFFF;" d="M228.312,188.408c-0.028-4.547-3.559-8.115-8.05-8.135c-4.642-0.021-8.359,3.518-8.438,8.032
			c-0.08,4.601,3.506,8.299,8.091,8.343C224.658,196.692,228.34,193.079,228.312,188.408z"/>
		<path style="fill:#FFFFFF;" d="M317.939,237.784c-4.621,0.044-8.184,3.679-8.14,8.305c0.043,4.503,3.898,8.38,8.274,8.322
			c4.505-0.06,8.089-3.812,8.075-8.456C326.135,241.231,322.628,237.74,317.939,237.784z"/>
		<path style="fill:#FFFFFF;" d="M202.166,135.476c4.697,0.069,8.334-3.384,8.398-7.975c0.065-4.618-3.331-8.343-7.7-8.443
			c-4.736-0.109-8.62,3.443-8.719,7.975C194.045,131.581,197.682,135.41,202.166,135.476z"/>
		<path style="fill:#FFFFFF;" d="M209.725,240.856c-0.001-4.606-3.602-8.231-8.188-8.242c-4.569-0.011-8.219,3.627-8.232,8.204
			c-0.012,4.53,3.641,8.177,8.23,8.215C206.163,249.072,209.726,245.514,209.725,240.856z"/>
		<path style="fill:#FFFFFF;" d="M180.281,276.357c4.603,0.026,8.195-3.568,8.197-8.201c0.002-4.498-3.756-8.232-8.274-8.219
			c-4.55,0.013-8.221,3.7-8.214,8.252C171.998,272.698,175.686,276.332,180.281,276.357z"/>
		<path style="fill:#FFFFFF;" d="M290.57,243.653c4.717-0.015,8.059-3.436,8.044-8.234c-0.014-4.661-3.597-8.24-8.193-8.185
			c-4.548,0.054-8.216,3.796-8.158,8.322C282.323,240.159,285.923,243.668,290.57,243.653z"/>
		<path style="fill:#FFFFFF;" d="M247.885,230.775c0.039,4.501,3.821,8.214,8.347,8.195c4.588-0.019,8.207-3.716,8.134-8.31
			c-0.074-4.737-3.527-8.13-8.253-8.11C251.492,222.571,247.845,226.216,247.885,230.775z"/>
		<path style="fill:#FFFFFF;" d="M165.63,286.696c0.001-4.479-3.793-8.249-8.289-8.237c-4.548,0.012-8.138,3.684-8.13,8.317
			c0.007,4.561,3.608,8.135,8.232,8.17C161.974,294.98,165.629,291.297,165.63,286.696z"/>
		<path style="fill:#FFFFFF;" d="M198.825,156.413c0.036,4.567,3.721,8.178,8.299,8.133c4.574-0.045,8.229-3.742,8.184-8.277
			c-0.044-4.443-3.719-8.172-8.089-8.209C202.68,148.021,198.789,151.893,198.825,156.413z"/>
		<path style="fill:#FFFFFF;" d="M275.115,243.235c-3.894,0.004-6.95,3.115-6.966,7.089c-0.015,3.929,3.076,7.079,6.962,7.095
			c3.979,0.015,7.094-3.153,7.082-7.205C282.181,246.306,279.062,243.231,275.115,243.235z"/>
		<path style="fill:#FFFFFF;" d="M196.374,213.046c-3.841-0.038-7.101,3.126-7.184,6.971c-0.082,3.788,3.381,7.255,7.206,7.213
			c3.893-0.043,6.975-3.186,6.971-7.108C203.362,216.198,200.285,213.085,196.374,213.046z"/>
		<path style="fill:#FFFFFF;" d="M159.272,266.074c0.027-3.892-3.099-7.037-7.002-7.045c-3.99-0.008-7.121,2.989-7.181,6.875
			c-0.059,3.783,3.347,7.254,7.166,7.302C155.954,273.253,159.246,269.907,159.272,266.074z"/>
		<path style="fill:#FFFFFF;" d="M220.559,162.037c-0.035,4.094,3.016,7.258,7.003,7.263c3.901,0.005,6.997-3.087,7.041-7.03
			c0.044-4-2.946-7.075-6.891-7.085C223.677,155.174,220.592,158.13,220.559,162.037z"/>
		<path style="fill:#FFFFFF;" d="M247.741,194.323c0.004-3.927-3.094-7.003-7.039-6.992c-4.155,0.012-7.191,3.014-7.145,7.067
			c0.044,3.93,3.125,6.922,7.112,6.907C244.591,201.291,247.738,198.184,247.741,194.323z"/>
		<path style="fill:#FFFFFF;" d="M175.072,254.841c3.664,0,7.002-3.559,6.981-7.443c-0.022-3.992-3.03-6.973-7.017-6.957
			c-3.939,0.016-7.064,3.094-7.084,6.975C167.932,251.103,171.517,254.841,175.072,254.841z"/>
		<path style="fill:#FFFFFF;" d="M302.627,267.902c4.021,0.03,7.029-3.052,7.028-7.198c-0.001-3.9-3.19-7.054-7.059-6.982
			c-3.868,0.072-7.001,3.276-6.984,7.143C295.629,264.763,298.729,267.873,302.627,267.902z"/>
		<path style="fill:#FFFFFF;" d="M240.885,252.597c4.021-0.018,7.017-3.132,6.978-7.254c-0.037-3.909-3.144-6.842-7.192-6.79
			c-3.88,0.051-6.978,3.256-6.9,7.137C233.851,249.674,236.881,252.615,240.885,252.597z"/>
		<path style="fill:#FFFFFF;" d="M222.907,140.207c3.926,0.037,7.149-3.249,7.081-7.219c-0.066-3.882-3.077-6.87-6.922-6.869
			c-4.126,0.001-7.219,3.034-7.188,7.048C215.909,137.08,218.995,140.171,222.907,140.207z"/>
		<path style="fill:#FFFFFF;" d="M238.733,147.985c3.417,0.034,6.133-2.643,6.143-6.056c0.01-3.442-2.693-6.141-6.103-6.092
			c-3.358,0.048-6,2.647-6.055,5.955C232.662,145.216,235.32,147.952,238.733,147.985z"/>
		<path style="fill:#FFFFFF;" d="M145.856,247.775c-0.018,3.477,2.569,6.174,5.968,6.221c3.346,0.046,6.149-2.711,6.179-6.077
			c0.03-3.325-2.772-6.081-6.179-6.077C148.446,241.845,145.874,244.402,145.856,247.775z"/>
		<path style="fill:#FFFFFF;" d="M174.662,235.407c3.369,0.048,6.123-2.681,6.128-6.071c0.004-3.381-2.662-6.037-6.11-6.086
			c-3.237-0.046-6.001,2.675-6.043,5.95C168.594,232.537,171.334,235.36,174.662,235.407z"/>
		<path style="fill:#FFFFFF;" d="M243.53,164.969c-3.458-0.039-6.13,2.583-6.131,6.016c0,3.461,2.605,6.02,6.111,6.002
			c3.509-0.019,6.031-2.575,6.003-6.084C249.486,167.542,246.931,165.008,243.53,164.969z"/>
		<path style="fill:#FFFFFF;" d="M287.044,276.287c3.336,0.085,6.074-2.635,6.119-6.078c0.044-3.336-2.545-6.025-5.853-6.08
			c-3.452-0.057-6.206,2.531-6.302,5.922C280.915,273.337,283.688,276.202,287.044,276.287z"/>
		<path style="fill:#FFFFFF;" d="M259.586,253.648c-3.466,0.018-5.997,2.616-5.974,6.131c0.023,3.359,2.612,6.001,5.904,6.024
			c3.443,0.024,6.16-2.777,6.112-6.303C265.584,256.162,262.97,253.63,259.586,253.648z"/>
		<path style="fill:#FFFFFF;" d="M272.552,269.789c-2.99-0.049-5.377,2.257-5.38,5.198c-0.003,2.767,2.409,5.217,5.174,5.258
			c2.855,0.041,5.219-2.211,5.304-5.052C277.741,272.138,275.572,269.839,272.552,269.789z"/>
		<path style="fill:#FFFFFF;" d="M160.249,232.829c0.012-2.904-2.209-5.202-5.068-5.244c-2.964-0.043-5.435,2.332-5.409,5.199
			c0.026,2.826,2.368,5.224,5.155,5.279C157.888,238.121,160.237,235.81,160.249,232.829z"/>
		<path style="fill:#FFFFFF;" d="M250.386,157.418c2.87-0.036,5.142-2.324,5.15-5.187c0.009-3.004-2.238-5.167-5.352-5.152
			c-2.972,0.014-5.096,2.154-5.095,5.135C245.089,155.222,247.363,157.456,250.386,157.418z"/>
	</g>
</g>
</svg>
