<?xml version="1.0" encoding="iso-8859-1"?>
<!-- Generator: Adobe Illustrator 22.1.0, SVG Export Plug-In . SVG Version: 6.00 Build 0)  -->
<svg version="1.1" id="Layer_1" xmlns="http://www.w3.org/2000/svg" xmlns:xlink="http://www.w3.org/1999/xlink" x="0px" y="0px"
	 viewBox="0 0 434.981 434.998" style="enable-background:new 0 0 434.981 434.998;" xml:space="preserve">
<g>
	<path style="fill:#D80027;" d="M286.864,423.603c-1.819,0.611-3.645,1.198-5.477,1.76
		C283.219,424.801,285.044,424.215,286.864,423.603z"/>
	<path style="fill:#D80027;" d="M422.018,291.431c-0.716,1.985-1.461,3.961-2.237,5.928
		C420.557,295.392,421.302,293.416,422.018,291.431z"/>
	<path style="fill:#D80027;" d="M292.745,322.577v98.959c-1.853,0.682-3.715,1.337-5.583,1.967
		c30.754-10.38,59.638-27.783,84.092-52.241c18.153-18.15,32.414-38.737,42.812-60.711c-1.92,4.058-3.967,8.07-6.152,12.026
		L292.745,322.577L292.745,322.577z"/>
	<path style="fill:#D80027;" d="M292.745,271.577h135.386c-0.538,2.099-1.112,4.19-1.713,6.275
		c19.527-67.749,5.654-143.176-41.64-200.012l-92.034,92.034v101.703H292.745z"/>
	<polygon style="fill:#D80027;" points="229.983,232.636 191.042,271.577 241.745,271.577 241.745,220.874 240.117,222.502 	"/>
	<path style="fill:#D80027;" d="M419.642,297.715c-1.634,4.123-3.4,8.205-5.295,12.241
		C416.242,305.92,418.008,301.839,419.642,297.715z"/>
	<path style="fill:#D80027;" d="M241.745,433.077v-110.5H140.041L77.84,384.779c40.225,33.466,89.749,50.219,139.292,50.219
		c21.606-0.003,43.211-3.203,64.046-9.571c-11.536,3.525-23.308,6.075-35.187,7.65L241.745,433.077L241.745,433.077z"/>
	<path style="fill:#D80027;" d="M426.263,278.395c-1.233,4.238-2.597,8.446-4.092,12.616
		C423.666,286.841,425.029,282.633,426.263,278.395z"/>
	<path style="fill:#F0F0F0;" d="M426.419,277.852c-0.052,0.181-0.104,0.362-0.156,0.544
		C426.315,278.214,426.367,278.033,426.419,277.852z"/>
	<path style="fill:#F0F0F0;" d="M422.171,291.012c-0.05,0.14-0.102,0.28-0.153,0.42
		C422.069,291.291,422.121,291.152,422.171,291.012z"/>
	<path style="fill:#F0F0F0;" d="M281.178,425.428c0.07-0.021,0.139-0.043,0.208-0.064
		C281.317,425.385,281.248,425.406,281.178,425.428z"/>
	<path style="fill:#F0F0F0;" d="M419.781,297.359c-0.047,0.119-0.092,0.238-0.139,0.356
		C419.689,297.597,419.735,297.478,419.781,297.359z"/>
	<path style="fill:#F0F0F0;" d="M287.163,423.503c-0.1,0.034-0.199,0.067-0.299,0.1C286.963,423.57,287.063,423.537,287.163,423.503
		z"/>
	<path style="fill:#F0F0F0;" d="M414.347,309.957c-0.093,0.198-0.187,0.396-0.281,0.594
		C414.16,310.353,414.254,310.155,414.347,309.957z"/>
	<path style="fill:#F0F0F0;" d="M286.864,423.603c0.1-0.033,0.199-0.067,0.299-0.1c1.868-0.63,3.729-1.285,5.583-1.967v-98.959
		h115.169c2.185-3.956,4.232-7.968,6.152-12.026c0.094-0.198,0.188-0.396,0.281-0.594c1.895-4.036,3.662-8.118,5.295-12.241
		c0.047-0.119,0.092-0.238,0.139-0.356c0.775-1.967,1.521-3.943,2.237-5.928c0.051-0.14,0.102-0.28,0.153-0.42
		c1.495-4.171,2.858-8.378,4.092-12.616c0.053-0.181,0.104-0.362,0.156-0.544c0.601-2.085,1.175-4.176,1.713-6.275H292.745V169.874
		l-1.737,1.737l-49.263,49.263v50.703h-50.703l-2.762,2.762l-48.238,48.238h101.703v110.5h4.246
		c11.879-1.574,23.651-4.125,35.187-7.65c0.07-0.021,0.139-0.043,0.208-0.064C283.219,424.801,285.044,424.214,286.864,423.603z"/>
	<path style="fill:#F0F0F0;" d="M26.64,194.961l-7.233-22.259l18.935-13.756H14.938l-3.528-10.858
		c-4.056,12.068-7.032,24.42-8.923,36.908l5.218-3.791L26.64,194.961z"/>
	<polygon style="fill:#F0F0F0;" points="95.064,158.946 87.832,136.687 80.6,158.946 57.196,158.946 76.131,172.702 68.898,194.961 
		87.832,181.205 106.767,194.961 99.534,172.702 118.469,158.946 	"/>
	<path style="fill:#F0F0F0;" d="M23.3,119.607c-0.969,1.924-1.916,3.856-2.825,5.802l6.165,4.479L23.3,119.607z"/>
	<polygon style="fill:#F0F0F0;" points="87.832,71.614 80.6,93.873 57.196,93.873 76.131,107.63 68.898,129.888 87.832,116.132 
		106.767,129.888 99.534,107.63 118.469,93.873 95.064,93.873 	"/>
	<path style="fill:#F0F0F0;" d="M306.714,100.752H218.02c0,16.352,0,34.675,0,58.273h30.421L306.714,100.752z"/>
	<path style="fill:#F0F0F0;" d="M87.832,51.06l18.934,13.756l-7.233-22.259l18.935-13.756h-9.085
		C96.106,36.415,83.461,45.525,71.71,56.16l-2.813,8.657L87.832,51.06z"/>
	<path style="fill:#F0F0F0;" d="M347.307,42.478C309.034,14.194,263.532,0.032,218.02,0c0,16.313,0,30.008,0,42.478H347.307z"/>
	<path style="fill:#F0F0F0;" d="M33.294,333.847c5.072,8.071,10.736,15.873,16.966,23.359l23.359-23.359H33.294z"/>
	<polygon style="fill:#F0F0F0;" points="149.024,64.816 167.959,51.06 186.893,64.816 179.66,42.557 198.595,28.801 175.191,28.801 
		167.959,6.542 160.727,28.801 137.322,28.801 156.257,42.557 	"/>
	<polygon style="fill:#F0F0F0;" points="198.595,158.946 175.191,158.946 167.959,136.687 160.727,158.946 137.322,158.946 
		156.257,172.702 149.024,194.961 167.959,181.205 186.893,194.961 179.66,172.702 	"/>
	<path style="fill:#F0F0F0;" d="M190.167,217.299H0.007c0,0.189-0.007,0.378-0.007,0.567c0,19.424,2.58,38.845,7.725,57.706h124.168
		L190.167,217.299z"/>
	<polygon style="fill:#F0F0F0;" points="149.024,129.888 167.959,116.132 186.893,129.888 179.66,107.63 198.595,93.873 
		175.191,93.873 167.959,71.614 160.727,93.873 137.322,93.873 156.257,107.63 	"/>
	<path style="fill:#D80027;" d="M248.441,159.025H218.02c0,9.262,0,19.335,0,30.421L248.441,159.025z"/>
	<path style="fill:#D80027;" d="M218.02,100.752h88.694l50.498-50.498c-3.244-2.699-6.546-5.293-9.906-7.776H218.02
		C218.02,63.106,218.02,80.411,218.02,100.752z"/>
	<path style="fill:#D80027;" d="M131.894,275.572H7.725c5.541,20.31,14.063,39.967,25.569,58.274h40.325L131.894,275.572z"/>
	<path style="fill:#0052B4;" d="M208.308,199.158v-40.133h9.712c0-23.598,0-41.922,0-58.273h-9.712V42.478h9.712
		c0-12.47,0-26.165,0-42.478c-37.563-0.026-75.124,9.583-108.636,28.801h9.085L99.534,42.557l7.233,22.259L87.832,51.06
		L68.898,64.816l2.813-8.657c-2.706,2.449-5.366,4.976-7.975,7.585C46.928,80.549,33.459,99.45,23.3,119.607l3.341,10.281
		l-6.165-4.479c-3.464,7.416-6.48,14.99-9.065,22.679l3.528,10.858h23.405l-18.935,13.756l7.233,22.259L7.706,181.205l-5.218,3.791
		c-1.62,10.703-2.452,21.502-2.481,32.303h190.16L208.308,199.158z M106.767,194.961l-18.934-13.756l-18.934,13.756l7.233-22.259
		l-18.935-13.756H80.6l7.232-22.259l7.232,22.259h23.405l-18.935,13.756L106.767,194.961z M99.534,107.63l7.233,22.259
		l-18.934-13.756l-18.934,13.756l7.233-22.259L57.196,93.873H80.6l7.232-22.259l7.232,22.259h23.405L99.534,107.63z M160.727,28.801
		l7.232-22.259l7.232,22.259h23.405L179.66,42.557l7.233,22.259L167.959,51.06l-18.934,13.756l7.233-22.259l-18.935-13.756
		C137.323,28.801,160.727,28.801,160.727,28.801z M160.727,93.873l7.232-22.259l7.232,22.259h23.405L179.66,107.63l7.233,22.259
		l-18.934-13.756l-18.934,13.756l7.233-22.259l-18.935-13.756L160.727,93.873L160.727,93.873z M167.959,181.205l-18.934,13.756
		l7.233-22.259l-18.935-13.756h23.405l7.232-22.259l7.232,22.259h23.405l-18.935,13.756l7.233,22.259L167.959,181.205z"/>
	<path style="fill:#0052B4;" d="M218.02,159.025h-9.712v40.133l9.712-9.712C218.02,178.36,218.02,168.287,218.02,159.025z"/>
	<path style="fill:#0052B4;" d="M208.308,42.478v58.274h9.712c0-20.34,0-37.646,0-58.274H208.308z"/>
	<path style="fill:#FFFFFF;" d="M371.254,62.998c0.106,0.106,0.207,0.215,0.313,0.321c0.144,0.143,0.29,0.282,0.433,0.425
		l-0.009,0.009c4.506,4.549,8.766,9.252,12.788,14.086l0.248-0.248c-8.418-9.926-17.705-19.101-27.755-27.398l-0.059,0.059
		c4.818,4.009,9.501,8.261,14.035,12.752L371.254,62.998z"/>
	<path style="fill:#FFFFFF;" d="M62.997,371.256l0.746,0.746c-0.118-0.118-0.23-0.24-0.348-0.358
		C63.263,371.513,63.128,371.387,62.997,371.256z"/>
	<path style="fill:#FFFFFF;" d="M63.742,372.002l4.476,4.476c3.104,2.877,6.286,5.672,9.555,8.368l0.067-0.067
		c-4.835-4.023-9.538-8.281-14.088-12.787L63.742,372.002z"/>
	<path style="fill:#FFFFFF;" d="M50.26,357.206l-0.249,0.249c2.054,2.421,4.158,4.8,6.315,7.129l6.671,6.671l0.011-0.011
		C58.516,366.71,54.27,362.025,50.26,357.206z"/>
	<path style="fill:#FFFFFF;" d="M362.686,73.058l-27.694,27.694l-50.418,50.418c3.277,0.099,6.59,0.506,9.904,1.302
		c-1.852,7.703-2.907,13.922-3.471,19.139l1.737-1.737l92.034-92.034c-4.023-4.835-8.282-9.537-12.788-14.086L362.686,73.058z"/>
	<path style="fill:#FFFFFF;" d="M63.007,371.245l-0.011,0.011c0.131,0.131,0.266,0.257,0.398,0.388
		C63.263,371.512,63.138,371.377,63.007,371.245z"/>
	<path style="fill:#FFFFFF;" d="M371.254,62.998l-0.007,0.007c0.106,0.105,0.214,0.209,0.32,0.314
		C371.461,63.213,371.36,63.104,371.254,62.998z"/>
	<path style="fill:#FFFFFF;" d="M213.042,222.702c2.912,0.976,5.949,2.32,9.468,4.478c3.138,1.924,5.543,3.731,7.472,5.456
		l10.134-10.134c-3.421-6.47-5.398-13.722-5.623-21.252l-16.049,16.049L213.042,222.702z"/>
	<path style="fill:#FFFFFF;" d="M188.28,274.339c-1.552-0.739-3.082-1.561-4.58-2.48c-4.126-2.53-7.727-5.586-10.8-9.015
		l-12.728,12.728l-58.274,58.274L73.07,362.674l0,0l-9.318,9.318c4.55,4.506,9.253,8.765,14.088,12.787l62.202-62.202
		L188.28,274.339z"/>
	<path style="fill:#FFFFFF;" d="M284.575,151.169l-7.856,7.856l-42.225,42.225c0.225,7.529,2.202,14.782,5.623,21.252l1.628-1.628
		l49.263-49.263c0.564-5.216,1.619-11.436,3.471-19.139C291.165,151.675,287.852,151.269,284.575,151.169z"/>
	<path style="fill:#FFFFFF;" d="M222.511,227.18c-3.519-2.158-6.556-3.502-9.468-4.478L172.9,262.844
		c3.072,3.429,6.674,6.485,10.8,9.015c1.498,0.919,3.028,1.741,4.58,2.48l2.762-2.762l38.941-38.941
		C228.054,230.911,225.649,229.104,222.511,227.18z"/>
	<polygon style="fill:#FFFFFF;" points="275.227,159.025 283.126,151.127 333.5,100.752 306.714,100.752 248.441,159.025 	"/>
	<path style="fill:#FFFFFF;" d="M284.575,151.169l50.418-50.418H333.5l-50.375,50.375
		C283.607,151.127,284.092,151.155,284.575,151.169z"/>
	<path style="fill:#FFFFFF;" d="M275.227,159.025h1.492l7.856-7.856c-0.483-0.015-0.968-0.042-1.449-0.043L275.227,159.025z"/>
	<path style="fill:#FFFFFF;" d="M72.324,361.928L72.324,361.928l28.082-28.082H73.619l-23.359,23.36
		c4.01,4.819,8.256,9.504,12.747,14.039L72.324,361.928z"/>
	<path style="fill:#FFFFFF;" d="M63.394,371.643c0.118,0.118,0.23,0.24,0.348,0.358l0.01-0.01
		C63.633,371.875,63.513,371.761,63.394,371.643z"/>
	<path style="fill:#FFFFFF;" d="M72.324,361.928L72.324,361.928l-9.317,9.317c0.131,0.132,0.256,0.267,0.387,0.398
		c0.118,0.118,0.239,0.231,0.358,0.349l9.318-9.318l0,0l28.828-28.828h-1.492L72.324,361.928z"/>
	<polygon style="fill:#FFFFFF;" points="172.197,262.055 211.914,222.338 216.953,217.299 208.308,217.299 190.167,217.299 
		131.894,275.572 158.68,275.572 	"/>
	<path style="fill:#FFFFFF;" d="M218.02,217.299h-1.067l-5.039,5.039c0.374,0.115,0.751,0.237,1.128,0.364l5.403-5.403H218.02z"/>
	<path style="fill:#FFFFFF;" d="M158.68,275.572h1.492l12.728-12.728c-0.235-0.262-0.474-0.522-0.703-0.789L158.68,275.572z"/>
	<path style="fill:#FFFFFF;" d="M211.914,222.338l-39.717,39.717c0.229,0.267,0.468,0.526,0.703,0.789l40.142-40.142
		C212.665,222.575,212.289,222.453,211.914,222.338z"/>
	<path style="fill:#FFFFFF;" d="M275.227,159.025h-26.786l-30.421,30.421c0,8.326,0,17.231,0,26.786l16.443-16.443L275.227,159.025z
		"/>
	<path style="fill:#FFFFFF;" d="M218.02,216.232c0,0.357,0,0.708,0,1.067h0.425l16.049-16.049c-0.015-0.487-0.031-0.973-0.03-1.461
		L218.02,216.232z"/>
	<path style="fill:#FFFFFF;" d="M234.463,199.789c0,0.489,0.016,0.975,0.03,1.461l42.225-42.225h-1.492L234.463,199.789z"/>
	<path style="fill:#FFFFFF;" d="M372,63.744c-0.143-0.143-0.289-0.282-0.433-0.425c0.143,0.144,0.281,0.29,0.423,0.434L372,63.744z"
		/>
	<path style="fill:#FFFFFF;" d="M333.5,100.752l28.44-28.44l9.307-9.307c-4.534-4.491-9.217-8.742-14.035-12.752l-50.498,50.498
		L333.5,100.752L333.5,100.752z"/>
	<path style="fill:#FFFFFF;" d="M362.686,73.058l9.305-9.305c-0.143-0.144-0.28-0.291-0.423-0.434
		c-0.106-0.106-0.214-0.209-0.32-0.314l-9.307,9.307l-28.44,28.44h1.492L362.686,73.058z"/>
	<polygon style="fill:#FFFFFF;" points="131.894,275.572 73.619,333.847 100.406,333.847 158.68,275.572 	"/>
	<polygon style="fill:#FFFFFF;" points="100.406,333.847 101.898,333.847 160.172,275.572 158.68,275.572 	"/>
	<polygon style="fill:#FFFFFF;" points="208.308,199.158 190.167,217.299 208.308,217.299 	"/>
	<path style="fill:#FFFFFF;" d="M216.953,217.299l1.067-1.067c0-9.555,0-18.461,0-26.786l-9.712,9.712v18.141L216.953,217.299
		L216.953,217.299z"/>
	<path style="fill:#FFFFFF;" d="M218.02,216.232l-1.067,1.067h1.067C218.02,216.94,218.02,216.59,218.02,216.232z"/>
</g>
</svg>
