<?xml version="1.0" encoding="iso-8859-1"?>
<!-- Generator: Adobe Illustrator 22.1.0, SVG Export Plug-In . SVG Version: 6.00 Build 0)  -->
<svg version="1.1" id="Layer_1" xmlns="http://www.w3.org/2000/svg" xmlns:xlink="http://www.w3.org/1999/xlink" x="0px" y="0px"
	 viewBox="0 0 435.94 436.77" style="enable-background:new 0 0 435.94 436.77;" xml:space="preserve">
<g id="Layer_2_1_">
	<g id="_261">
		<g>
			<path style="fill:#FFFFFF;" d="M405.68,108.76c-18.955-32.965-46.239-60.37-79.12-79.47C293.24,9.763,256.86,0,217.42,0
				s-75.817,9.763-109.13,29.29c-32.888,19.094-60.177,46.501-79.13,79.47C9.72,142.253,0,178.793,0,218.38S9.72,294.507,29.16,328
				c18.953,32.968,46.238,60.377,79.12,79.48c33.333,19.52,69.713,29.283,109.14,29.29s75.807-9.757,109.14-29.29
				c32.882-19.103,60.167-46.512,79.12-79.48c19.44-33.46,29.157-70,29.15-109.62C434.823,178.76,425.107,142.22,405.68,108.76z"/>
			<path style="fill:#35BAEB;" d="M138.57,202.4h-44.2c1.023,15.018,6.902,29.296,16.75,40.68l31.21-31.56
				C140.351,208.832,139.06,205.701,138.57,202.4z"/>
			<path style="fill:#35BAEB;" d="M142.33,183.27l-48-48V193h44.2C139.054,189.514,140.353,186.189,142.33,183.27z"/>
			<path style="fill:#35BAEB;" d="M117.79,249.63c11.269,10.027,25.608,15.932,40.67,16.75v-44.25
				c-3.381-0.547-6.604-1.815-9.45-3.72L117.79,249.63z"/>
			<path style="fill:#35BAEB;" d="M149.62,176.49c2.669-1.652,5.596-2.846,8.66-3.53v-72.17L94.49,43.71
				c-0.12,0-0.12,75.2-0.12,77.3C106.22,132.86,143.36,170.34,149.62,176.49z"/>
			<path style="fill:#35BAEB;" d="M167.62,222.11v44.2c15.067-1.011,29.374-6.99,40.68-17l-31-31
				C174.362,220.216,171.07,221.508,167.62,222.11z"/>
			<path style="fill:#35BAEB;" d="M184.37,211.06l31.21,31.21c9.67-11.235,15.426-25.309,16.4-40.1h-44.43
				C187.027,205.299,185.95,208.309,184.37,211.06z"/>
			<path style="fill:#35BAEB;" d="M187.56,193h44.2c-1.017-15.033-6.9-29.327-16.76-40.72l-31.21,31.32
				C185.766,186.395,187.057,189.615,187.56,193z"/>
			<path style="fill:#35BAEB;" d="M208.28,145.56c-11.266-10.027-25.601-15.935-40.66-16.76V173c3.384,0.541,6.611,1.807,9.46,3.71
				L208.28,145.56z"/>
		</g>
		<g>
			<path style="fill:#F7931A;" d="M291.42,284.57c1.42,0.27,3.51,0.65,6.29,1.13c2.313,0.429,4.651,0.706,7,0.83
				c1.91,0.07,4.15,0.09,6.73,0c2.222,0.007,4.431-0.33,6.55-1c1.849-0.63,3.641-1.413,5.36-2.34c1.788-0.969,3.309-2.363,4.43-4.06
				c1.217-1.864,2.072-3.94,2.52-6.12c0.606-2.505,0.623-5.117,0.05-7.63c-0.492-2.174-1.388-4.236-2.64-6.08
				c-1.422-1.917-3.193-3.549-5.22-4.81c-2.027-1.371-4.169-2.565-6.4-3.57c-2.43-1.038-4.918-1.936-7.45-2.69
				c-2.353-0.757-4.743-1.395-7.16-1.91l-6.76-1.32l-4.94-1l-8.45,38.28l4.29,1C288.06,283.88,290,284.3,291.42,284.57z"/>
			<path style="fill:#F7931A;" d="M278.35,346.09c1.58,0.35,3.8,0.77,6.65,1.28s5.32,0.86,7.4,1.11s4.53,0.41,7.35,0.51
				c2.439,0.104,4.882,0.03,7.31-0.22c2.193-0.275,4.362-0.713,6.49-1.31c2.063-0.532,4.014-1.43,5.76-2.65
				c1.612-1.201,3.015-2.661,4.15-4.32c1.262-1.84,2.143-3.914,2.59-6.1c0.665-2.762,0.627-5.646-0.11-8.39
				c-0.658-2.451-1.793-4.748-3.34-6.76c-1.785-2.144-3.926-3.964-6.33-5.38c-2.456-1.544-5.015-2.918-7.66-4.11
				c-2.931-1.24-5.937-2.295-9-3.16c-3.6-1.06-6.45-1.81-8.52-2.27s-4.77-1-8.07-1.66s-5.29-1-6-1.18l-9.31,42.15
				c0.67,0.14,2.2,0.51,4.6,1.08S276.77,345.74,278.35,346.09z"/>
			<path style="fill:#F7931A;" d="M385.73,79.6L252.39,212.94l10.51,2.38c5.333,1.173,9.373,2.02,12.12,2.54l6.98-31.42l19.2,4.24
				l-6.8,30.8c6.847,1.333,11.937,2.37,15.27,3.11l6.7-30.59l19.2,4.24l-6.94,31.42c5.782,1.767,11.414,3.994,16.84,6.66
				c4.654,2.319,8.976,5.252,12.85,8.72c3.678,3.253,6.477,7.38,8.14,12c1.683,4.908,2.163,10.148,1.4,15.28
				c-1.84,15.46-9.65,24.98-23.43,28.56c9.207,4.48,15.54,10.367,19,17.66c3.46,7.293,3.367,16.6-0.28,27.92
				c-1.64,5.288-4.173,10.257-7.49,14.69c-2.842,3.78-6.412,6.952-10.5,9.33c-4.265,2.32-8.901,3.883-13.7,4.62
				c-5.316,0.907-10.713,1.243-16.1,1c-6.231-0.319-12.436-1.02-18.58-2.1l-7,31.8l-19.2-4.24l6.91-31.3
				c-6.667-1.473-11.727-2.633-15.18-3.48l-6.94,31.42l-19.2-4.24l7-31.8c-1.5-0.33-3.74-0.84-6.72-1.55s-5.27-1.22-6.85-1.57
				l-24.93-5.5l8.9-22l13.84,3.06c4.16,0.913,7.037-0.677,8.63-4.77l11.07-50.12l2,0.44c-0.652-0.239-1.32-0.429-2-0.57l7.9-35.78
				c0.173-5.887-2.9-9.53-9.22-10.93l-10.93-2.42L78.79,386.55c86.662,71.827,213.736,65.958,293.41-13.55
				C452.41,292.83,456.91,165.15,385.73,79.6z"/>
			<polygon style="fill:#FFFFFF;" points="289.78,244 289.78,244 289.78,244 289.78,244 			"/>
			<path style="fill:#FFFFFF;" d="M245.82,232.86c6.313,1.387,9.387,5.03,9.22,10.93l-7.9,35.78c0.68,0.141,1.348,0.331,2,0.57
				l-2-0.44L236,329.82c-1.6,4.093-4.477,5.683-8.63,4.77l-13.84-3.06l-8.9,22L229.6,359c1.58,0.35,3.86,0.88,6.85,1.57
				s5.22,1.22,6.72,1.55l-7,31.8l19.2,4.24l6.94-31.42c3.467,0.847,8.527,2.007,15.18,3.48l-6.91,31.3l19.2,4.24l7-31.8
				c6.137,1.093,12.335,1.807,18.56,2.14c5.387,0.243,10.784-0.093,16.1-1c4.799-0.737,9.435-2.3,13.7-4.62
				c4.088-2.378,7.658-5.55,10.5-9.33c3.317-4.433,5.85-9.402,7.49-14.69c3.627-11.333,3.72-20.64,0.28-27.92
				s-9.773-13.167-19-17.66c13.78-3.58,21.59-13.1,23.43-28.56c0.763-5.132,0.283-10.372-1.4-15.28c-1.663-4.62-4.462-8.747-8.14-12
				c-3.874-3.468-8.196-6.401-12.85-8.72c-5.426-2.666-11.058-4.893-16.84-6.66l6.94-31.42L316.37,194l-6.74,30.55
				c-3.333-0.74-8.423-1.777-15.27-3.11l6.8-30.8l-19.16-4.2l-7,31.42c-2.76-0.52-6.8-1.367-12.12-2.54l-10.51-2.38l-17.5,17.5
				L245.82,232.86z M289.82,244L289.82,244l4.94,1l6.76,1.36c2.417,0.515,4.807,1.153,7.16,1.91c2.532,0.754,5.02,1.652,7.45,2.69
				c2.231,1.005,4.373,2.199,6.4,3.57c2.027,1.261,3.798,2.893,5.22,4.81c1.253,1.844,2.148,3.906,2.64,6.08
				c0.573,2.513,0.556,5.125-0.05,7.63c-0.448,2.18-1.303,4.256-2.52,6.12c-1.121,1.697-2.642,3.091-4.43,4.06
				c-1.727,0.939-3.53,1.732-5.39,2.37c-2.119,0.67-4.328,1.007-6.55,1c-2.58,0.05-4.82,0-6.73,0c-2.349-0.124-4.687-0.401-7-0.83
				c-2.78-0.48-4.87-0.86-6.29-1.13s-3.36-0.69-5.8-1.28l-4.29-1L289.82,244z M277.13,301.48c0.667,0.147,2.667,0.54,6,1.18
				c3.333,0.64,6.023,1.193,8.07,1.66c2.07,0.46,4.92,1.21,8.52,2.27c3.063,0.865,6.069,1.92,9,3.16
				c2.645,1.192,5.204,2.566,7.66,4.11c2.404,1.416,4.545,3.236,6.33,5.38c1.547,2.012,2.682,4.309,3.34,6.76
				c0.737,2.744,0.775,5.628,0.11,8.39c-0.447,2.186-1.328,4.26-2.59,6.1c-1.135,1.659-2.538,3.119-4.15,4.32
				c-1.746,1.22-3.697,2.118-5.76,2.65c-2.128,0.597-4.297,1.035-6.49,1.31c-2.428,0.25-4.871,0.324-7.31,0.22
				c-2.82-0.1-5.26-0.27-7.35-0.51s-4.54-0.62-7.4-1.11s-5.07-0.93-6.65-1.28s-3.57-0.81-6-1.38s-3.93-0.94-4.6-1.08L277.13,301.48z
				"/>
			<path style="fill:#FFFFFF;" d="M372.2,64.76c0.13,0.12,0.25,0.25,0.37,0.37l0.38,0.37l0,0c4.507,4.553,8.77,9.25,12.79,14.09
				l0.25-0.25c-8.431-9.915-17.724-19.064-27.77-27.34l-0.06,0.07c4.807,4,9.473,8.25,14,12.75L372.2,64.76z"/>
			<path style="fill:#FFFFFF;" d="M51.21,359l-0.25,0.25c2.047,2.42,4.15,4.797,6.31,7.13L64,373l0,0
				C59.48,368.48,55.217,363.813,51.21,359z"/>
			<path style="fill:#FFFFFF;" d="M64,373l0.74,0.75l-0.37-0.38L64,373z"/>
			<path style="fill:#FFFFFF;" d="M372.2,64.76L372.2,64.76l0.38,0.36C372.45,65,372.33,64.88,372.2,64.76z"/>
			<path style="fill:#FFFFFF;" d="M232,229.8l4.51-20.45l15.9,3.59L385.73,79.6c-4-4.84-8.263-9.537-12.79-14.09l-9.31,9.31
				L74,364.44l0,0l-9.32,9.32c4.553,4.5,9.25,8.763,14.09,12.79l156.1-156.11L232,229.8z"/>
			<path style="fill:#FFFFFF;" d="M64,373L64,373l0.37,0.37L64,373z"/>
			<polygon style="fill:#FFFFFF;" points="231.98,229.8 234.88,230.44 252.39,212.94 236.49,209.35 			"/>
			<path style="fill:#FFFFFF;" d="M64.32,373.39l0.37,0.38l0,0C64.58,373.63,64.45,373.51,64.32,373.39z"/>
			<path style="fill:#FFFFFF;" d="M73.27,363.69L73.27,363.69L362.89,74.07l9.3-9.3c-4.527-4.513-9.203-8.77-14.03-12.77
				L194.83,215.34l-27.78,39.29v-11.5l-3.41,3.41v8.09l-3.35-4.74L51.21,359c4,4.82,8.247,9.487,12.74,14L73.27,363.69z"/>
			<path style="fill:#FFFFFF;" d="M372.57,65.13l0.37,0.38l0,0L372.57,65.13z"/>
			<path style="fill:#FFFFFF;" d="M372.19,64.77l-9.3,9.3L73.27,363.69l0,0L64,373l0.37,0.38c0.13,0.12,0.26,0.24,0.38,0.37
				l9.25-9.31l0,0L363.63,74.82l9.31-9.31l-0.37-0.38L372.19,64.77z"/>
			<polygon style="fill:#FFFFFF;" points="163.64,254.63 163.64,246.54 160.29,249.89 			"/>
			<polygon style="fill:#FFFFFF;" points="167.05,254.63 194.84,215.34 167.05,243.13 			"/>
		</g>
	</g>
</g>
</svg>
