<?xml version="1.0" encoding="iso-8859-1"?>
<!-- Generator: Adobe Illustrator 22.1.0, SVG Export Plug-In . SVG Version: 6.00 Build 0)  -->
<svg version="1.1" id="Layer_1" xmlns="http://www.w3.org/2000/svg" xmlns:xlink="http://www.w3.org/1999/xlink" x="0px" y="0px"
	 viewBox="0 0 435.61 436.77" style="enable-background:new 0 0 435.61 436.77;" xml:space="preserve">
<g id="Layer_2_1_">
	<g id="_268">
		<g id="Layer_162_copy">
			<g>
				<path style="fill:#602A52;" d="M217.63,0C97.43,0,0,97.77,0,218.38s97.43,218.39,217.63,218.39S435.25,339,435.25,218.38
					S337.82,0,217.63,0z M256,201.38l-91.77,53.94c-2.917,1.701-6.523,1.701-9.44,0L63,201.34c-4.23-2.433-5.7-7.827-3.29-12.07
					l91.7-161.8c2.569-4.435,8.247-5.947,12.682-3.378c1.402,0.812,2.566,1.977,3.378,3.378l91.83,161.79l0,0v0.06
					C261.69,193.565,260.219,198.943,256,201.38z"/>
				<path style="fill:#602A52;" d="M177.28,116.32l0.28,0.11c0.84,0.35,1.67,0.73,2.5,1.11l0.24,0.13c0.81,0.37,1.6,0.78,2.37,1.22
					l0.21,0.13c0.78,0.46,1.56,0.94,2.32,1.44l0.14,0.1c0.77,0.51,1.53,1,2.27,1.61l0.07,0.08c6.956,5.312,12.233,12.516,15.2,20.75
					h0.08c0.802,2.279,1.414,4.62,1.83,7l1.13,4.41c1,3.76,5,14.25,10.81,17.22c10.2,5.19,23.27,11.51,30.71,15.09L164.15,39.91
					v63.83c0,12.45-18.37,20.86-20.46,21.78l-3.91,1.81c-2.829,1.779-5.403,3.936-7.65,6.41l-0.27,0.32c-0.48,0.55-1,1.11-1.42,1.7
					l-0.08,0.1c-0.48,0.66-0.93,1.26-1.36,1.89l-0.27,0.4c-0.37,0.55-0.72,1.12-1,1.7l-0.2,0.33c-0.38,0.67-0.74,1.34-1.07,2
					l-0.2,0.44c-0.26,0.59-0.52,1.17-0.75,1.76l-0.22,0.47c-0.27,0.72-0.54,1.43-0.75,2.16l-0.13,0.41
					c-0.2,0.62-0.36,1.24-0.52,1.88l-0.13,0.58c-0.189,0.755-0.336,1.519-0.44,2.29v0.29c-0.13,0.69-0.21,1.388-0.24,2.09v0.63
					c-0.074,0.818-0.104,1.639-0.09,2.46v0.6c0.052,3.362,0.588,6.7,1.59,9.91c-3.257-1.677-6.701-2.962-10.26-3.83
					c-0.339-2.211-0.51-4.444-0.51-6.68v-1c-0.04-0.282-0.04-0.568,0-0.85c0.049-0.448,0.072-0.899,0.07-1.35
					c0-0.453,0.04-0.903,0.12-1.35l0.11-1c0.269-2.201,0.711-4.378,1.32-6.51c0.07-0.27,0.15-0.51,0.23-0.77
					c0.13-0.46,0.28-0.92,0.44-1.38l0.22-0.64c0.22-0.57,0.44-1.21,0.69-1.8l0.26-0.64c0.25-0.57,0.5-1.14,0.78-1.7l0.14-0.29
					c0.3-0.55,0.61-1.19,0.92-1.78l0.24-0.44c0.34-0.63,0.71-1.23,1.08-1.84l0.13-0.18c0.367-0.593,0.747-1.173,1.14-1.74l0.15-0.21
					c0.44-0.607,0.89-1.207,1.35-1.8l0.12-0.16c0.936-1.211,1.937-2.369,3-3.47l0.1-0.11c2.84-2.903,6.051-5.418,9.55-7.48
					l0.21-0.11c1-0.61,2.12-1.19,3.23-1.72l0.78-0.42c11.36-5,14.76-10.93,14.76-13.19v-63.8L72.31,185.67
					c7.52-4.34,19.85-10.91,30.79-14.28c5.25-1.62,12.09-0.13,20.27,4.44c3.478,1.958,6.754,4.256,9.78,6.86l3.29,2.93
					c2.119,1.69,4.42,3.139,6.86,4.32l1,0.49l0.55,0.23l1.09,0.44l0.56,0.21c3.282,1.22,6.719,1.97,10.21,2.23
					c-2.616,2.34-4.826,5.097-6.54,8.16c-2.185-0.443-4.335-1.048-6.43-1.81l-0.43-0.17l-0.64-0.24c-1.45-0.56-2.88-1.2-4.27-1.9
					l-0.28-0.15l-1.44-0.78c-2.135-1.207-4.172-2.581-6.09-4.11l-0.3-0.26c-0.87-0.67-1.71-1.39-2.5-2.13l-0.36-0.32
					c-6-4.81-16.65-11.37-21.66-9.84C93,184,77.47,193,72.15,196.28l82.77,48.54V211.6c0-12.44,18.45-20.62,20.54-21.54l0.78-0.4
					c4.083-2.015,7.756-4.772,10.83-8.13l0.25-0.29c0.47-0.53,0.93-1.07,1.36-1.63l0.38-0.49c0.44-0.57,0.86-1.16,1.26-1.75
					l0.19-0.29c0.42-0.7,0.85-1.42,1.25-2.17c0.964-1.705,1.783-3.488,2.45-5.33c1.609,3.248,3.589,6.298,5.9,9.09
					c-0.61,1.08-1.2,2.11-1.86,3.14l-0.17,0.21c-0.48,0.74-1,1.46-1.5,2.16l-0.39,0.48c-0.43,0.57-0.88,1.13-1.35,1.69l-0.52,0.59
					c-0.554,0.707-1.155,1.375-1.8,2l-0.3,0.28c-0.57,0.57-1.16,1.12-1.75,1.66l-0.59,0.52l-0.51,0.46
					c-1.903,1.597-3.929,3.042-6.06,4.32l-0.41,0.22c-1,0.57-2,1.11-3,1.61l-0.29,0.16c-4.92,2.16-15.55,8.29-15.55,13.53v33.2
					l82.52-48.45c-6.25-3-22.13-10.61-34.13-16.76c-10.46-5.32-15-21.13-15.47-22.92l-1.16-4.29c-0.399-2.681-1.11-5.305-2.12-7.82
					c-0.18-0.48-0.42-1-0.58-1.42s-0.34-0.69-0.52-1.07s-0.36-0.77-0.57-1.12s-0.43-0.75-0.62-1.09l-0.61-1
					c-0.23-0.37-0.5-0.77-0.71-1.08s-0.4-0.59-0.66-0.94l-0.8-1.06L188,135l-0.88-1l-0.73-0.78l-1-1l-0.73-0.69
					c-0.36-0.33-0.71-0.64-1.09-1l-0.71-0.58c-0.44-0.32-0.83-0.63-1.26-0.95l-0.63-0.45l-1.41-1l-0.28-0.17
					c-5.074-3.171-10.836-5.075-16.8-5.55c2.538-2.345,4.682-5.084,6.35-8.11C171.723,114.315,174.553,115.185,177.28,116.32z"/>
				<path style="fill:#FFFFFF;" d="M259.32,189.26L259.32,189.26L167.49,27.47c-2.569-4.435-8.247-5.947-12.682-3.378
					c-1.402,0.812-2.566,1.977-3.378,3.378l-91.7,161.8c-2.414,4.238-0.953,9.63,3.27,12.07l91.77,54
					c2.917,1.701,6.523,1.701,9.44,0L256,201.38c4.219-2.437,5.69-7.815,3.3-12.06L259.32,189.26z M179.32,127.39l0.28,0.17l1.41,1
					l0.63,0.45c0.43,0.32,0.82,0.63,1.26,0.95l0.71,0.58c0.38,0.32,0.73,0.63,1.09,1l0.73,0.69l1,1l0.73,0.78l0.88,1l0.69,0.86
					l0.8,1.06c0.26,0.35,0.44,0.63,0.66,0.94s0.48,0.71,0.71,1.08l0.61,1c0.19,0.34,0.43,0.72,0.62,1.09s0.38,0.74,0.57,1.12
					s0.36,0.7,0.52,1.07s0.4,0.94,0.58,1.42c1.01,2.515,1.721,5.139,2.12,7.82l1.16,4.29c0.49,1.79,5,17.6,15.47,22.92
					c12,6.15,27.88,13.75,34.13,16.76l-82.52,48.45v-33.2c0-5.24,10.63-11.37,15.55-13.53L180,198c1-0.5,2-1,3-1.61l0.41-0.22
					c2.131-1.278,4.157-2.723,6.06-4.32l0.51-0.46l0.59-0.52c0.59-0.54,1.18-1.09,1.75-1.66l0.3-0.28c0.645-0.625,1.246-1.293,1.8-2
					l0.52-0.59c0.47-0.56,0.92-1.12,1.35-1.69l0.39-0.48c0.53-0.7,1-1.42,1.5-2.16l0.17-0.21c0.66-1,1.25-2.06,1.86-3.14
					c-2.311-2.792-4.291-5.842-5.9-9.09c-0.667,1.842-1.486,3.625-2.45,5.33c-0.4,0.75-0.83,1.47-1.25,2.17l-0.19,0.29
					c-0.4,0.59-0.82,1.18-1.26,1.75l-0.38,0.49c-0.43,0.56-0.89,1.1-1.36,1.63l-0.25,0.29c-3.074,3.358-6.747,6.115-10.83,8.13
					l-0.78,0.4c-2.09,0.92-20.54,9.1-20.54,21.54v33.22l-82.87-48.53C77.47,193,93,184,105.82,180c5-1.53,15.63,5,21.66,9.84
					l0.36,0.32c0.79,0.74,1.63,1.46,2.5,2.13l0.3,0.26c1.918,1.529,3.955,2.903,6.09,4.11l1.44,0.78l0.28,0.15
					c1.39,0.7,2.82,1.34,4.27,1.9l0.64,0.24l0.43,0.17c2.095,0.762,4.245,1.367,6.43,1.81c1.714-3.063,3.924-5.82,6.54-8.16
					c-3.491-0.26-6.928-1.01-10.21-2.23l-0.56-0.21l-1.09-0.44l-0.55-0.23l-1-0.49c-2.44-1.181-4.741-2.63-6.86-4.32l-3.29-2.93
					c-3.026-2.604-6.302-4.902-9.78-6.86c-8.18-4.57-15-6.06-20.27-4.44c-10.94,3.37-23.27,9.94-30.79,14.28L155,39.91v63.83
					c0,2.26-3.4,8.17-14.76,13.19l-0.78,0.42c-1.11,0.53-2.18,1.11-3.23,1.72l-0.21,0.11c-3.499,2.062-6.71,4.577-9.55,7.48
					l-0.1,0.11c-1.063,1.101-2.064,2.259-3,3.47l-0.12,0.16c-0.46,0.593-0.91,1.193-1.35,1.8l-0.15,0.21
					c-0.393,0.567-0.773,1.147-1.14,1.74l-0.13,0.18c-0.37,0.61-0.74,1.21-1.08,1.84l-0.24,0.44c-0.31,0.59-0.62,1.23-0.92,1.78
					l-0.14,0.29c-0.28,0.56-0.53,1.13-0.78,1.7L117,141c-0.25,0.59-0.47,1.23-0.69,1.8l-0.22,0.64c-0.16,0.46-0.31,0.92-0.44,1.38
					c-0.08,0.26-0.16,0.5-0.23,0.77c-0.609,2.132-1.051,4.309-1.32,6.51l-0.11,1c-0.053,0.447-0.093,0.897-0.12,1.35
					c0.002,0.451-0.021,0.902-0.07,1.35c-0.04,0.282-0.04,0.568,0,0.85v1c0,2.236,0.171,4.469,0.51,6.68
					c3.559,0.868,7.003,2.153,10.26,3.83c-1.002-3.21-1.538-6.548-1.59-9.91v-0.6c-0.014-0.821,0.016-1.642,0.09-2.46v-0.63
					c0.03-0.702,0.11-1.4,0.24-2.09v-0.29c0.104-0.771,0.251-1.535,0.44-2.29l0.13-0.58c0.16-0.64,0.32-1.26,0.52-1.88l0.13-0.41
					c0.21-0.73,0.48-1.44,0.75-2.16l0.22-0.47c0.23-0.59,0.49-1.17,0.75-1.76l0.2-0.44c0.33-0.69,0.69-1.36,1.07-2l0.2-0.33
					c0.33-0.58,0.68-1.15,1-1.7l0.27-0.4c0.43-0.63,0.88-1.23,1.36-1.89l0.08-0.1c0.46-0.59,0.94-1.15,1.42-1.7l0.27-0.32
					c2.247-2.474,4.821-4.631,7.65-6.41l3.91-1.81c2.09-0.92,20.46-9.33,20.46-21.78V39.91l83.29,146.85
					c-7.44-3.58-20.51-9.9-30.71-15.09c-5.82-3-9.79-13.46-10.81-17.22l-1.12-4.45c-0.416-2.38-1.028-4.721-1.83-7h-0.08
					c-2.96-8.249-8.238-15.468-15.2-20.79l-0.07-0.08c-0.74-0.56-1.5-1.1-2.27-1.61l-0.14-0.1c-0.76-0.5-1.54-1-2.32-1.44
					l-0.21-0.13c-0.77-0.44-1.56-0.85-2.37-1.22l-0.24-0.13c-0.83-0.38-1.66-0.76-2.5-1.11l-0.28-0.11
					c-2.731-1.132-5.564-1.999-8.46-2.59c-1.668,3.026-3.812,5.765-6.35,8.11c5.968,0.487,11.73,2.405,16.8,5.59H179.32z"/>
			</g>
		</g>
		<g>
			<path style="fill:#F7931A;" d="M291.08,284.57c1.42,0.267,3.517,0.643,6.29,1.13c2.313,0.429,4.651,0.706,7,0.83
				c1.9,0.07,4.14,0.09,6.72,0c2.225,0.007,4.438-0.33,6.56-1c1.849-0.63,3.641-1.413,5.36-2.34c1.785-0.969,3.303-2.364,4.42-4.06
				c1.216-1.865,2.074-3.94,2.53-6.12c0.584-2.51,0.584-5.12,0-7.63c-0.491-2.176-1.39-4.239-2.65-6.08
				c-1.419-1.916-3.187-3.548-5.21-4.81c-2.029-1.369-4.17-2.563-6.4-3.57c-2.43-1.038-4.918-1.936-7.45-2.69
				c-2.353-0.756-4.743-1.394-7.16-1.91l-6.71-1.32l-4.93-1L281,282.28l4.29,1C287.73,283.88,289.66,284.3,291.08,284.57z"/>
			<path style="fill:#F7931A;" d="M278,346.09c1.58,0.35,3.8,0.77,6.65,1.28s5.32,0.86,7.4,1.11s4.53,0.41,7.35,0.51
				c2.435,0.104,4.875,0.03,7.3-0.22c2.196-0.274,4.369-0.712,6.5-1.31c2.06-0.532,4.007-1.43,5.75-2.65
				c1.618-1.198,3.024-2.658,4.16-4.32c2.828-4.266,3.735-9.523,2.5-14.49c-0.657-2.453-1.796-4.751-3.35-6.76
				c-1.785-2.144-3.926-3.964-6.33-5.38c-2.451-1.546-5.008-2.92-7.65-4.11c-2.931-1.24-5.937-2.295-9-3.16
				c-3.61-1.06-6.45-1.81-8.53-2.27s-4.76-1-8.07-1.66s-5.28-1-5.95-1.18l-9.3,42.15c0.66,0.14,2.19,0.51,4.6,1.08
				S276.44,345.74,278,346.09z"/>
			<path style="fill:#F7931A;" d="M385.39,79.6L252.05,212.94l10.51,2.38c5.333,1.173,9.377,2.02,12.13,2.54l6.93-31.42l19.21,4.24
				l-6.8,30.8c6.853,1.333,11.94,2.37,15.26,3.11L316,194l19.2,4.24l-6.9,31.46c5.782,1.769,11.413,3.996,16.84,6.66
				c4.658,2.318,8.983,5.251,12.86,8.72c3.674,3.256,6.473,7.382,8.14,12c1.678,4.909,2.158,10.148,1.4,15.28
				c-1.847,15.46-9.66,24.98-23.44,28.56c9.213,4.48,15.547,10.367,19,17.66c3.453,7.293,3.357,16.6-0.29,27.92
				c-1.632,5.291-4.166,10.261-7.49,14.69c-2.836,3.781-6.403,6.954-10.49,9.33c-4.269,2.32-8.908,3.883-13.71,4.62
				c-5.316,0.908-10.713,1.243-16.1,1c-6.228-0.332-12.43-1.047-18.57-2.14l-7,31.8l-19.2-4.24l6.91-31.3
				c-6.667-1.473-11.727-2.633-15.18-3.48L255,398.16l-19.21-4.24l7-31.8c-1.49-0.33-3.73-0.84-6.71-1.55s-5.27-1.22-6.85-1.57
				l-24.94-5.5l8.91-22l13.84,3.06c4.147,0.913,7.023-0.677,8.63-4.77l11.07-50.12l2,0.44c-0.652-0.239-1.32-0.43-2-0.57l7.9-35.78
				c0.167-5.887-2.91-9.53-9.23-10.93l-10.93-2.42L78.45,386.55c86.667,71.823,213.741,65.955,293.42-13.55
				C452.08,292.83,456.58,165.15,385.39,79.6z"/>
			<polygon style="fill:#FFFFFF;" points="289.45,244 289.44,244 289.45,244 289.45,244 			"/>
			<path style="fill:#FFFFFF;" d="M245.48,232.86c6.32,1.387,9.397,5.03,9.23,10.93l-7.9,35.78c0.68,0.14,1.348,0.331,2,0.57
				l-2-0.44l-11.07,50.12c-1.6,4.093-4.477,5.683-8.63,4.77l-13.84-3.06l-8.91,22l24.94,5.5c1.58,0.35,3.86,0.88,6.85,1.57
				s5.22,1.22,6.71,1.55l-7,31.8l19.14,4.21l7-31.42c3.473,0.847,8.533,2.007,15.18,3.48l-6.91,31.3l19.2,4.24l7-31.8
				c6.127,1.091,12.315,1.806,18.53,2.14c5.387,0.243,10.784-0.092,16.1-1c4.802-0.737,9.441-2.3,13.71-4.62
				c4.087-2.376,7.654-5.548,10.49-9.33c3.324-4.429,5.858-9.399,7.49-14.69c3.64-11.333,3.737-20.64,0.29-27.92
				c-3.447-7.28-9.78-13.167-19-17.66c13.78-3.58,21.593-13.1,23.44-28.56c0.758-5.132,0.278-10.371-1.4-15.28
				c-1.667-4.618-4.466-8.744-8.14-12c-3.874-3.468-8.196-6.401-12.85-8.72c-5.427-2.664-11.058-4.891-16.84-6.66l6.94-31.42
				L316,194l-6.75,30.55c-3.333-0.74-8.42-1.777-15.26-3.11l6.8-30.8l-19.21-4.24l-6.93,31.42c-2.767-0.52-6.81-1.367-12.13-2.54
				l-10.51-2.38l-17.5,17.5L245.48,232.86z M289.48,244L289.48,244l4.93,1l6.77,1.36c2.417,0.516,4.807,1.154,7.16,1.91
				c2.532,0.754,5.02,1.652,7.45,2.69c2.23,1.007,4.371,2.201,6.4,3.57c2.023,1.262,3.791,2.894,5.21,4.81
				c1.26,1.841,2.159,3.904,2.65,6.08c0.584,2.51,0.584,5.12,0,7.63c-0.456,2.18-1.314,4.255-2.53,6.12
				c-1.117,1.696-2.635,3.091-4.42,4.06c-1.719,0.927-3.511,1.71-5.36,2.34c-2.122,0.67-4.335,1.007-6.56,1
				c-2.58,0.05-4.82,0-6.72,0c-2.349-0.124-4.687-0.401-7-0.83c-2.767-0.48-4.863-0.857-6.29-1.13c-1.42-0.27-3.35-0.69-5.8-1.28
				l-4.29-1L289.48,244z M276.78,301.48c0.667,0.147,2.65,0.54,5.95,1.18c3.31,0.65,6,1.2,8.07,1.66s4.92,1.21,8.53,2.27
				c3.063,0.865,6.069,1.92,9,3.16c2.642,1.19,5.199,2.564,7.65,4.11c2.404,1.416,4.545,3.236,6.33,5.38
				c1.554,2.009,2.693,4.307,3.35,6.76c1.241,4.964,0.341,10.221-2.48,14.49c-1.136,1.662-2.542,3.122-4.16,4.32
				c-1.743,1.22-3.69,2.118-5.75,2.65c-2.131,0.598-4.304,1.036-6.5,1.31c-2.425,0.25-4.865,0.324-7.3,0.22
				c-2.82-0.1-5.26-0.27-7.35-0.51s-4.55-0.62-7.4-1.11s-5.07-0.93-6.65-1.28s-3.57-0.81-6-1.38s-3.94-0.94-4.6-1.08L276.78,301.48z
				"/>
			<path style="fill:#FFFFFF;" d="M371.87,64.76c0.12,0.12,0.24,0.25,0.37,0.37s0.25,0.25,0.38,0.37l0,0
				c4.5,4.553,8.76,9.25,12.78,14.09l0.25-0.25c-8.428-9.915-17.717-19.064-27.76-27.34l-0.07,0.07c4.82,4,9.487,8.25,14,12.75
				L371.87,64.76z"/>
			<path style="fill:#FFFFFF;" d="M50.87,359l-0.24,0.25c2.047,2.42,4.15,4.797,6.31,7.13l6.67,6.62l0,0
				C59.13,368.48,54.883,363.813,50.87,359z"/>
			<path style="fill:#FFFFFF;" d="M63.61,373l0.75,0.75l-0.37-0.38L63.61,373z"/>
			<path style="fill:#FFFFFF;" d="M371.87,64.76L371.87,64.76l0.38,0.36C372.11,65,372,64.88,371.87,64.76z"/>
			<path style="fill:#FFFFFF;" d="M231.64,229.8l4.52-20.45l15.89,3.59L385.39,79.6c-4-4.84-8.26-9.537-12.78-14.09l-9.31,9.31
				L73.68,364.44l0,0l-9.31,9.32c4.547,4.5,9.24,8.763,14.08,12.79l156.1-156.11L231.64,229.8z"/>
			<path style="fill:#FFFFFF;" d="M63.62,373L63.62,373l0.38,0.37L63.62,373z"/>
			<polygon style="fill:#FFFFFF;" points="231.64,229.8 234.55,230.44 252.05,212.94 236.16,209.35 			"/>
			<path style="fill:#FFFFFF;" d="M64,373.39l0.37,0.38l0,0L64,373.39z"/>
			<path style="fill:#FFFFFF;" d="M72.94,363.69L72.94,363.69L362.56,74.07l9.3-9.3c-4.533-4.487-9.2-8.737-14-12.75L194.5,215.34
				l-27.78,39.29v-11.5l-3.41,3.41v8.09l-3.31-4.74L50.87,359c4,4.82,8.25,9.487,12.75,14L72.94,363.69z"/>
			<path style="fill:#FFFFFF;" d="M372.24,65.13c0.12,0.13,0.24,0.26,0.37,0.38l0,0C372.49,65.38,372.36,65.26,372.24,65.13z"/>
			<path style="fill:#FFFFFF;" d="M371.86,64.77l-9.3,9.3L72.94,363.69l0,0L63.62,373l0.37,0.38l0.38,0.37l9.31-9.32l0,0
				L363.3,74.82l9.31-9.31c-0.13-0.12-0.25-0.25-0.37-0.38L371.86,64.77z"/>
			<polygon style="fill:#FFFFFF;" points="163.31,254.63 163.31,246.54 159.95,249.89 			"/>
			<polygon style="fill:#FFFFFF;" points="166.72,254.63 194.5,215.34 166.72,243.13 			"/>
		</g>
	</g>
</g>
</svg>
