<?xml version="1.0" encoding="iso-8859-1"?>
<!-- Generator: Adobe Illustrator 22.1.0, SVG Export Plug-In . SVG Version: 6.00 Build 0)  -->
<svg version="1.1" id="Layer_1" xmlns="http://www.w3.org/2000/svg" xmlns:xlink="http://www.w3.org/1999/xlink" x="0px" y="0px"
	 viewBox="0 0 435.61 436.77" style="enable-background:new 0 0 435.61 436.77;" xml:space="preserve">
<g id="Layer_2_1_">
	<g id="_270">
		<g>
			<polygon style="fill:#1387C9;" points="255.84,95.7 161.19,39.63 67.5,95.7 161.19,150.79 			"/>
			<path style="fill:#1387C9;" d="M217.63,0C97.43,0,0,97.77,0,218.38s97.43,218.39,217.63,218.39S435.25,339,435.25,218.38
				S337.82,0,217.63,0z M66.19,128.47l95,55.32l96.53-57.1c3.492-2.005,7.947-0.8,9.952,2.692c0.632,1.101,0.966,2.348,0.968,3.618
				v25.9c-0.006,2.575-1.361,4.958-3.57,6.28L164.87,225c-2.267,1.34-5.083,1.34-7.35,0l-102.8-60.4
				c-2.466-1.458-3.296-4.631-1.86-7.11c1.412-2.452,4.541-3.302,7-1.9h0.05l101.25,59.51l97.14-58v-18.7l-93.45,55.28
				c-2.26,1.324-5.06,1.324-7.32,0L61,137.47c-5.491-3.215-8.858-9.107-8.84-15.47V97.59c0.003-0.315,0.026-0.629,0.07-0.94l0,0
				c-0.359-2.117,0.618-4.237,2.46-5.34l102.79-61.55c2.274-1.365,5.116-1.365,7.39,0l100.74,59.66
				c3.482,2.086,4.614,6.6,2.528,10.082c-0.632,1.055-1.518,1.934-2.578,2.558L164.82,160.7c-2.256,1.314-5.044,1.314-7.3,0
				l-95-55.88V122l0,0C62.514,124.654,63.91,127.113,66.19,128.47z"/>
			<path style="fill:#FFFFFF;" d="M62.3,98.82c-0.1,0.314-0.234,0.616-0.4,0.9c-1.138,1.945-3.637,2.599-5.582,1.461
				c-0.006-0.004-0.012-0.007-0.018-0.011l6.2,3.64V98.7L62.3,98.82z"/>
			<path style="fill:#FFFFFF;" d="M62.5,97.59c-0.011,0.414-0.079,0.824-0.2,1.22l0,0l0.2-0.12V97.59z"/>
			<path style="fill:#FFFFFF;" d="M62.5,104.81l-6.2-3.64c1.939,1.148,4.441,0.507,5.589-1.432c0.004-0.006,0.007-0.012,0.011-0.018
				c0.166-0.284,0.3-0.586,0.4-0.9l-2.3,1.39c-2.429,1.469-5.589,0.692-7.058-1.737c-0.001-0.001-0.001-0.002-0.002-0.003
				c-0.335-0.559-0.563-1.177-0.67-1.82c-0.044,0.312-0.067,0.625-0.07,0.94V122c-0.026,6.355,3.325,12.245,8.8,15.47l96.51,56.23
				c2.26,1.324,5.06,1.324,7.32,0l93.45-55.28v18.74l-97.14,58L59.92,155.62h-0.05c-2.459-1.402-5.588-0.552-7,1.9
				c-1.436,2.479-0.606,5.652,1.86,7.11L157.52,225c2.267,1.34,5.083,1.34,7.35,0l100.2-59.82c2.209-1.322,3.564-3.705,3.57-6.28
				V133c0.005-4.026-3.254-7.294-7.28-7.3c-1.285-0.002-2.547,0.336-3.66,0.98l-96.53,57.1l-95-55.32
				c-2.295-1.351-3.703-3.817-3.7-6.48l0,0L62.5,104.81z"/>
			<path style="fill:#FFFFFF;" d="M58.36,91.35c1.102-0.009,2.186,0.278,3.14,0.83l6,3.53l93.7-56.08l94.64,56.08l-94.64,55.08
				L67.5,95.71l-5,3v6.11l95,55.88c2.256,1.314,5.044,1.314,7.3,0l100.74-58.64c3.499-2.058,4.666-6.563,2.608-10.062
				c-0.624-1.06-1.503-1.946-2.558-2.578L164.87,29.74c-2.274-1.365-5.116-1.365-7.39,0L54.69,91.28
				c-1.842,1.103-2.819,3.223-2.46,5.34l0,0C52.702,93.596,55.3,91.363,58.36,91.35z"/>
			<path style="fill:#FFFFFF;" d="M60,100.21l2.34-1.39l0,0c0.121-0.396,0.189-0.806,0.2-1.22v1.1l5-3l-6-3.53
				c-2.981-1.717-6.791-0.693-8.508,2.289c-0.388,0.673-0.646,1.413-0.762,2.181c0.107,0.643,0.335,1.261,0.67,1.82
				c1.464,2.432,4.622,3.217,7.054,1.753C59.996,100.212,59.998,100.211,60,100.21z"/>
		</g>
		<g>
			<path style="fill:#F7931A;" d="M291.08,284.57c1.42,0.267,3.517,0.643,6.29,1.13c2.313,0.429,4.651,0.706,7,0.83
				c1.9,0.07,4.14,0.09,6.72,0c2.225,0.007,4.438-0.33,6.56-1c1.849-0.63,3.641-1.413,5.36-2.34c1.785-0.969,3.303-2.364,4.42-4.06
				c1.216-1.865,2.074-3.94,2.53-6.12c0.584-2.51,0.584-5.12,0-7.63c-0.491-2.176-1.39-4.239-2.65-6.08
				c-1.419-1.916-3.187-3.548-5.21-4.81c-2.029-1.369-4.17-2.563-6.4-3.57c-2.43-1.038-4.918-1.936-7.45-2.69
				c-2.353-0.756-4.743-1.394-7.16-1.91l-6.71-1.32l-4.93-1L281,282.28l4.29,1C287.73,283.88,289.66,284.3,291.08,284.57z"/>
			<path style="fill:#F7931A;" d="M278,346.09c1.58,0.35,3.8,0.77,6.65,1.28s5.32,0.86,7.4,1.11s4.53,0.41,7.35,0.51
				c2.435,0.104,4.875,0.03,7.3-0.22c2.196-0.274,4.369-0.712,6.5-1.31c2.06-0.532,4.007-1.43,5.75-2.65
				c1.618-1.198,3.024-2.658,4.16-4.32c2.828-4.266,3.735-9.523,2.5-14.49c-0.657-2.453-1.796-4.751-3.35-6.76
				c-1.785-2.144-3.926-3.964-6.33-5.38c-2.451-1.546-5.008-2.92-7.65-4.11c-2.931-1.24-5.937-2.295-9-3.16
				c-3.61-1.06-6.45-1.81-8.53-2.27s-4.76-1-8.07-1.66s-5.28-1-5.95-1.18l-9.3,42.15c0.66,0.14,2.19,0.51,4.6,1.08
				S276.44,345.74,278,346.09z"/>
			<path style="fill:#F7931A;" d="M385.39,79.6L252.05,212.94l10.51,2.38c5.333,1.173,9.377,2.02,12.13,2.54l6.93-31.42l19.21,4.24
				l-6.8,30.8c6.853,1.333,11.94,2.37,15.26,3.11L316,194l19.2,4.24l-6.9,31.46c5.782,1.769,11.413,3.996,16.84,6.66
				c4.658,2.318,8.983,5.251,12.86,8.72c3.674,3.256,6.473,7.382,8.14,12c1.678,4.909,2.158,10.148,1.4,15.28
				c-1.847,15.46-9.66,24.98-23.44,28.56c9.213,4.48,15.547,10.367,19,17.66c3.453,7.293,3.357,16.6-0.29,27.92
				c-1.632,5.291-4.166,10.261-7.49,14.69c-2.836,3.781-6.403,6.954-10.49,9.33c-4.269,2.32-8.908,3.883-13.71,4.62
				c-5.316,0.908-10.713,1.243-16.1,1c-6.228-0.332-12.43-1.047-18.57-2.14l-7,31.8l-19.2-4.24l6.91-31.3
				c-6.667-1.473-11.727-2.633-15.18-3.48L255,398.16l-19.21-4.24l7-31.8c-1.49-0.33-3.73-0.84-6.71-1.55s-5.27-1.22-6.85-1.57
				l-24.94-5.5l8.91-22l13.84,3.06c4.147,0.913,7.023-0.677,8.63-4.77l11.07-50.12l2,0.44c-0.652-0.239-1.32-0.43-2-0.57l7.9-35.78
				c0.167-5.887-2.91-9.53-9.23-10.93l-10.93-2.42L78.45,386.55c86.667,71.823,213.741,65.955,293.42-13.55
				C452.08,292.83,456.58,165.15,385.39,79.6z"/>
			<polygon style="fill:#FFFFFF;" points="289.45,244 289.44,244 289.45,244 289.45,244 			"/>
			<path style="fill:#FFFFFF;" d="M245.48,232.86c6.32,1.387,9.397,5.03,9.23,10.93l-7.9,35.78c0.68,0.14,1.348,0.331,2,0.57
				l-2-0.44l-11.07,50.12c-1.6,4.093-4.477,5.683-8.63,4.77l-13.84-3.06l-8.91,22l24.94,5.5c1.58,0.35,3.86,0.88,6.85,1.57
				s5.22,1.22,6.71,1.55l-7,31.8l19.14,4.21l7-31.42c3.473,0.847,8.533,2.007,15.18,3.48l-6.91,31.3l19.2,4.24l7-31.8
				c6.127,1.091,12.315,1.806,18.53,2.14c5.387,0.243,10.784-0.092,16.1-1c4.802-0.737,9.441-2.3,13.71-4.62
				c4.087-2.376,7.654-5.548,10.49-9.33c3.324-4.429,5.858-9.399,7.49-14.69c3.64-11.333,3.737-20.64,0.29-27.92
				c-3.447-7.28-9.78-13.167-19-17.66c13.78-3.58,21.593-13.1,23.44-28.56c0.758-5.132,0.278-10.371-1.4-15.28
				c-1.667-4.618-4.466-8.744-8.14-12c-3.874-3.468-8.196-6.401-12.85-8.72c-5.427-2.664-11.058-4.891-16.84-6.66l6.94-31.42
				L316,194l-6.75,30.55c-3.333-0.74-8.42-1.777-15.26-3.11l6.8-30.8l-19.21-4.24l-6.93,31.42c-2.767-0.52-6.81-1.367-12.13-2.54
				l-10.51-2.38l-17.5,17.5L245.48,232.86z M289.48,244L289.48,244l4.93,1l6.77,1.36c2.417,0.516,4.807,1.154,7.16,1.91
				c2.532,0.754,5.02,1.652,7.45,2.69c2.23,1.007,4.371,2.201,6.4,3.57c2.023,1.262,3.791,2.894,5.21,4.81
				c1.26,1.841,2.159,3.904,2.65,6.08c0.584,2.51,0.584,5.12,0,7.63c-0.456,2.18-1.314,4.255-2.53,6.12
				c-1.117,1.696-2.635,3.091-4.42,4.06c-1.719,0.927-3.511,1.71-5.36,2.34c-2.122,0.67-4.335,1.007-6.56,1
				c-2.58,0.05-4.82,0-6.72,0c-2.349-0.124-4.687-0.401-7-0.83c-2.767-0.48-4.863-0.857-6.29-1.13c-1.42-0.27-3.35-0.69-5.8-1.28
				l-4.29-1L289.48,244z M276.78,301.48c0.667,0.147,2.65,0.54,5.95,1.18c3.31,0.65,6,1.2,8.07,1.66s4.92,1.21,8.53,2.27
				c3.063,0.865,6.069,1.92,9,3.16c2.642,1.19,5.199,2.564,7.65,4.11c2.404,1.416,4.545,3.236,6.33,5.38
				c1.554,2.009,2.693,4.307,3.35,6.76c1.241,4.964,0.341,10.221-2.48,14.49c-1.136,1.662-2.542,3.122-4.16,4.32
				c-1.743,1.22-3.69,2.118-5.75,2.65c-2.131,0.598-4.304,1.036-6.5,1.31c-2.425,0.25-4.865,0.324-7.3,0.22
				c-2.82-0.1-5.26-0.27-7.35-0.51s-4.55-0.62-7.4-1.11s-5.07-0.93-6.65-1.28s-3.57-0.81-6-1.38s-3.94-0.94-4.6-1.08L276.78,301.48z
				"/>
			<path style="fill:#FFFFFF;" d="M371.87,64.76c0.12,0.12,0.24,0.25,0.37,0.37s0.25,0.25,0.38,0.37l0,0
				c4.5,4.553,8.76,9.25,12.78,14.09l0.25-0.25c-8.428-9.915-17.717-19.064-27.76-27.34l-0.07,0.07c4.82,4,9.487,8.25,14,12.75
				L371.87,64.76z"/>
			<path style="fill:#FFFFFF;" d="M50.87,359l-0.24,0.25c2.047,2.42,4.15,4.797,6.31,7.13l6.67,6.62l0,0
				C59.13,368.48,54.883,363.813,50.87,359z"/>
			<path style="fill:#FFFFFF;" d="M63.61,373l0.75,0.75l-0.37-0.38L63.61,373z"/>
			<path style="fill:#FFFFFF;" d="M371.87,64.76L371.87,64.76l0.38,0.36C372.11,65,372,64.88,371.87,64.76z"/>
			<path style="fill:#FFFFFF;" d="M231.64,229.8l4.52-20.45l15.89,3.59L385.39,79.6c-4-4.84-8.26-9.537-12.78-14.09l-9.31,9.31
				L73.68,364.44l0,0l-9.31,9.32c4.547,4.5,9.24,8.763,14.08,12.79l156.1-156.11L231.64,229.8z"/>
			<path style="fill:#FFFFFF;" d="M63.62,373L63.62,373l0.38,0.37L63.62,373z"/>
			<polygon style="fill:#FFFFFF;" points="231.64,229.8 234.55,230.44 252.05,212.94 236.16,209.35 			"/>
			<path style="fill:#FFFFFF;" d="M64,373.39l0.37,0.38l0,0L64,373.39z"/>
			<path style="fill:#FFFFFF;" d="M72.94,363.69L72.94,363.69L362.56,74.07l9.3-9.3c-4.533-4.487-9.2-8.737-14-12.75L194.5,215.34
				l-27.78,39.29v-11.5l-3.41,3.41v8.09l-3.31-4.74L50.87,359c4,4.82,8.25,9.487,12.75,14L72.94,363.69z"/>
			<path style="fill:#FFFFFF;" d="M372.24,65.13c0.12,0.13,0.24,0.26,0.37,0.38l0,0C372.49,65.38,372.36,65.26,372.24,65.13z"/>
			<path style="fill:#FFFFFF;" d="M371.86,64.77l-9.3,9.3L72.94,363.69l0,0L63.62,373l0.37,0.38l0.38,0.37l9.31-9.32l0,0
				L363.3,74.82l9.31-9.31c-0.13-0.12-0.25-0.25-0.37-0.38L371.86,64.77z"/>
			<polygon style="fill:#FFFFFF;" points="163.31,254.63 163.31,246.54 159.95,249.89 			"/>
			<polygon style="fill:#FFFFFF;" points="166.72,254.63 194.5,215.34 166.72,243.13 			"/>
		</g>
	</g>
</g>
</svg>
