<?xml version="1.0" encoding="iso-8859-1"?>
<!-- Generator: Adobe Illustrator 22.1.0, SVG Export Plug-In . SVG Version: 6.00 Build 0)  -->
<svg version="1.1" id="Layer_1" xmlns="http://www.w3.org/2000/svg" xmlns:xlink="http://www.w3.org/1999/xlink" x="0px" y="0px"
	 viewBox="0 0 435 435.002" style="enable-background:new 0 0 435 435.002;" xml:space="preserve">
<path style="fill:#0388E5;" d="M405.838,108.323c-19.45-33.321-45.833-59.704-79.155-79.153C293.354,9.722,256.971,0,217.507,0
	c-39.461,0-75.854,9.722-109.177,29.17c-33.324,19.446-59.707,45.829-79.157,79.153C9.722,141.65,0,178.043,0,217.501
	c0,39.46,9.725,75.847,29.17,109.175c19.449,33.321,45.832,59.704,79.156,79.155c33.326,19.447,69.717,29.17,109.177,29.17
	s75.854-9.723,109.179-29.17c33.322-19.444,59.704-45.834,79.152-79.155C425.279,293.351,435,256.959,435,217.501
	C435.001,178.039,425.279,141.645,405.838,108.323z M95.221,200.689h94.741h0.005l-12.224,33.623H82.997L95.221,200.689z
	 M321.378,261.82c-12.034,33.241-33.618,33.623-39.73,33.623H86.053l15.273-36.679h155.877c7.64,0,10.886-1.908,12.224-6.112
	s15.289-42.596,21.394-61.132c6.105-18.537-12.224-15.282-12.224-15.282H128.844l12.224-36.679h180.309
	c28.078,0,29.606,12.036,30.562,21.395C353.267,173.96,333.411,228.579,321.378,261.82z"/>
</svg>
