<?xml version="1.0" encoding="iso-8859-1"?>
<!-- Generator: Adobe Illustrator 23.0.0, SVG Export Plug-In . SVG Version: 6.00 Build 0)  -->
<svg version="1.1" xmlns="http://www.w3.org/2000/svg" xmlns:xlink="http://www.w3.org/1999/xlink" x="0px" y="0px"
	 viewBox="0 0 435 435.002" style="enable-background:new 0 0 435 435.002;" xml:space="preserve">
<g id="_x32_75">
	<g>
		<polygon style="fill:#464646;" points="214.536,141.921 214.536,96.141 162.866,166.764 176.396,209.278 		"/>
		<polygon style="fill:#464646;" points="160.184,177.378 138.606,275.936 172.547,216.101 		"/>
		<polygon style="fill:#464646;" points="174.938,223.624 136.682,291.099 196.399,291.099 		"/>
		<polygon style="fill:#464646;" points="272.096,166.764 220.427,96.141 220.427,141.921 258.567,209.278 		"/>
		<polygon style="fill:#464646;" points="202.465,291.099 232.557,291.099 256.176,216.801 217.511,148.452 178.787,216.801 		"/>
		<polygon style="fill:#464646;" points="296.357,275.936 274.779,177.378 262.474,216.101 		"/>
		<path style="fill:#464646;" d="M405.838,108.323c-19.45-33.321-45.833-59.704-79.155-79.153C293.354,9.722,256.971,0,217.507,0
			c-39.461,0-75.854,9.722-109.177,29.17c-33.324,19.446-59.707,45.829-79.157,79.153C9.722,141.65,0,178.043,0,217.501
			c0,39.46,9.725,75.847,29.17,109.175c19.449,33.321,45.832,59.704,79.156,79.155c33.326,19.447,69.717,29.17,109.177,29.17
			s75.854-9.723,109.179-29.17c33.322-19.444,59.704-45.834,79.152-79.155C425.279,293.351,435,256.959,435,217.501
			C435.001,178.039,425.279,141.645,405.838,108.323z M304.521,296.58l-85.436,53.536c-0.467,0.292-0.991,0.467-1.516,0.467
			c-0.641,0-1.225-0.175-1.75-0.525l-85.495-53.536c0,0,0,0-0.058-0.058c-1.108-0.641-1.633-1.866-1.341-3.091h-0.058
			l27.993-127.717c0.058-0.467,0.292-0.875,0.583-1.225l57.677-78.788c0.525-0.758,1.341-1.166,2.158-1.166
			c0.058-0.058,0.175-0.058,0.233-0.058c1.05,0,1.983,0.583,2.449,1.341l57.677,78.788c0.233,0.35,0.408,0.7,0.467,1.108h0.058
			l27.876,127.6c0.058,0.233,0.117,0.467,0.117,0.7C306.154,295.122,305.513,296.114,304.521,296.58z"/>
		<polygon style="fill:#464646;" points="238.563,291.099 298.281,291.099 260.083,223.624 		"/>
		<polygon style="fill:#464646;" points="141.755,296.872 212.32,341.077 198.266,296.872 		"/>
		<polygon style="fill:#464646;" points="222.643,341.077 293.208,296.872 236.756,296.872 		"/>
		<polygon style="fill:#464646;" points="204.272,296.872 217.511,338.336 230.691,296.872 		"/>
		<path style="fill:#FFFFFF;" d="M278.162,165.656h-0.058c-0.058-0.408-0.233-0.758-0.467-1.108L219.96,85.76
			c-0.467-0.758-1.4-1.341-2.449-1.341c-0.058,0-0.175,0-0.233,0.058c-0.816,0-1.633,0.408-2.158,1.166l-57.677,78.788
			c-0.292,0.35-0.525,0.758-0.583,1.225l-27.993,127.717h0.058c-0.292,1.225,0.233,2.449,1.341,3.091
			c0.058,0.058,0.058,0.058,0.058,0.058l85.495,53.536c0.525,0.35,1.108,0.525,1.75,0.525c0.525,0,1.05-0.175,1.516-0.467
			l85.436-53.536c0.991-0.467,1.633-1.458,1.633-2.624c0-0.233-0.058-0.467-0.117-0.7L278.162,165.656z M296.357,275.936
			l-33.883-59.834l12.305-38.723L296.357,275.936z M220.427,96.141l51.67,70.623l-13.53,42.514l-38.14-67.358V96.141z
			 M217.511,148.452l38.665,68.349l-23.619,74.297h-30.092l-23.677-74.297L217.511,148.452z M214.536,96.141v45.78l-38.14,67.358
			l-13.53-42.514L214.536,96.141z M160.184,177.378l12.363,38.723l-33.941,59.834L160.184,177.378z M174.938,223.624l21.461,67.474
			h-59.718L174.938,223.624z M141.755,296.872h56.51l14.055,44.205L141.755,296.872z M217.511,338.336l-13.238-41.464h26.418
			L217.511,338.336z M222.643,341.077l14.113-44.205h56.452L222.643,341.077z M238.563,291.099l21.519-67.474l38.198,67.474H238.563
			z"/>
	</g>
</g>
<g id="Layer_1">
</g>
</svg>
