<?xml version="1.0" encoding="iso-8859-1"?>
<!-- Generator: Adobe Illustrator 23.0.0, SVG Export Plug-In . SVG Version: 6.00 Build 0)  -->
<svg version="1.1" xmlns="http://www.w3.org/2000/svg" xmlns:xlink="http://www.w3.org/1999/xlink" x="0px" y="0px"
	 viewBox="0 0 435.61 436.77" style="enable-background:new 0 0 435.61 436.77;" xml:space="preserve">
<g id="_x32_77">
	<g>
		<g>
			<path style="fill:#FF6600;" d="M217.625,0C97.434,0,0,97.773,0,218.383s97.434,218.383,217.625,218.383
				S435.25,338.993,435.25,218.383S337.816,0,217.625,0z M273.255,203.596h-54.216v-68.122l-36.501,36.501l-19.231,19.229
				l-19.228-19.229h-0.002v0.001l-36.501-36.502v68.121H53.358v-26.224h26.311V69.11l83.637,83.637l83.635-83.637v108.261h26.314
				V203.596z"/>
			<polygon style="fill:#F4F4F4;" points="246.941,69.11 163.306,152.747 79.669,69.11 79.669,177.372 53.358,177.372 
				53.358,203.596 107.576,203.596 107.576,135.475 144.077,171.976 144.077,171.975 144.079,171.975 163.307,191.204 
				182.538,171.974 219.039,135.474 219.039,203.596 273.255,203.596 273.255,177.371 246.941,177.371 			"/>
		</g>
		<g>
			<path style="fill:#F0F0F0;" d="M191.597,200.368h0.583l-0.292-0.292C191.792,200.173,191.695,200.271,191.597,200.368z"/>
			<path style="fill:#F0F0F0;" d="M2.085,194.312c-0.234,2.016-0.435,4.035-0.612,6.056h0.612V194.312z"/>
			<path style="fill:#F0F0F0;" d="M191.889,200.076c-0.097,0.097-0.194,0.195-0.292,0.292h0.001
				C191.695,200.271,191.792,200.173,191.889,200.076L191.889,200.076z"/>
			<path style="fill:#D80027;" d="M192.181,200.368L192.181,200.368c0.001-0.198,0.001-0.387,0.001-0.584
				c-0.097,0.098-0.195,0.195-0.292,0.292L192.181,200.368z"/>
			<path style="fill:#D80027;" d="M191.889,200.076L191.889,200.076c0.098-0.097,0.196-0.194,0.293-0.292c0,0,0-0.001,0-0.001
				C192.084,199.881,191.986,199.978,191.889,200.076z"/>
			<polygon style="fill:#F0F0F0;" points="247.069,156.844 241.629,168.22 248.989,160.86 			"/>
			<path style="fill:#F0F0F0;" d="M386.352,322.693H142.31l-36.42,36.42h278.741c13.642-16.211,24.554-33.952,32.72-52.619h-30.999
				V322.693z"/>
			<path style="fill:#F0F0F0;" d="M386.352,96.006v52.619h37.7c-8.354-24.656-21.238-48.1-38.647-69.026l-16.408,16.408H386.352z"/>
			<path style="fill:#F0F0F0;" d="M434.9,201.243h-48.548v52.632h46.459C435.618,236.469,436.313,218.788,434.9,201.243z"/>
			<path style="fill:#F0F0F0;" d="M217.75,436.77c34.977-0.004,69.96-8.352,101.66-25.038H116.086
				C147.786,428.421,182.765,436.77,217.75,436.77z"/>
			<path style="fill:#D80027;" d="M386.352,201.243H434.9c-1.436-17.831-5.052-35.514-10.848-52.619h-37.7V201.243z"/>
			<path style="fill:#D80027;" d="M386.352,306.494h30.999c7.409-16.936,12.559-34.629,15.46-52.619h-46.459V306.494z"/>
			<path style="fill:#D80027;" d="M78.471,386.532c11.818,9.835,24.423,18.256,37.614,25.2H319.41
				c18.886-9.941,36.607-22.838,52.466-38.7c4.494-4.493,8.735-9.144,12.754-13.919H105.89L78.471,386.532z"/>
			<polygon style="fill:#2E52B2;" points="142.31,322.693 386.352,322.693 386.352,306.494 158.509,306.494 			"/>
			<polygon style="fill:#2E52B2;" points="327.672,148.058 332.757,132.413 337.835,148.058 354.283,148.058 353.504,148.624 
				386.352,148.624 386.352,96.006 368.998,96.006 316.945,148.058 			"/>
			<polygon style="fill:#2E52B2;" points="337.835,204.513 354.283,204.513 340.974,214.176 346.059,229.819 332.757,220.156 
				319.448,229.819 324.532,214.176 311.225,204.513 327.672,204.513 328.735,201.243 267.259,201.243 268.321,204.513 
				284.769,204.513 271.46,214.176 276.545,229.819 263.242,220.156 249.935,229.819 255.018,214.176 252.59,212.413 
				211.128,253.876 260.462,253.876 263.242,245.323 266.018,253.876 329.977,253.876 332.757,245.323 335.534,253.876 
				386.352,253.876 386.352,201.243 336.774,201.243 			"/>
			<polygon style="fill:#2E52B2;" points="353.504,148.624 340.974,157.723 346.059,173.366 332.757,163.701 319.448,173.366 
				324.532,157.723 314.539,150.465 266.401,198.602 267.259,201.243 328.735,201.243 332.757,188.869 336.774,201.243 
				386.352,201.243 386.352,148.624 			"/>
			<polygon style="fill:#2E52B2;" points="337.835,260.966 354.283,260.966 340.974,270.631 346.059,286.273 332.757,276.609 
				319.448,286.273 324.532,270.631 311.225,260.966 327.672,260.966 329.977,253.876 266.018,253.876 268.321,260.966 
				284.769,260.966 271.46,270.631 276.545,286.273 263.242,276.609 249.935,286.273 255.018,270.631 241.71,260.966 
				258.158,260.966 260.462,253.876 211.128,253.876 204.037,260.966 215.254,260.966 201.945,270.631 207.029,286.273 
				193.728,276.609 180.419,286.273 181.233,283.77 158.509,306.494 386.352,306.494 386.352,253.876 335.534,253.876 			"/>
			<polygon style="fill:#F0F0F0;" points="180.419,286.273 193.728,276.609 207.029,286.273 201.945,270.631 215.254,260.966 
				204.037,260.966 181.233,283.77 			"/>
			<polygon style="fill:#F0F0F0;" points="252.59,212.413 255.018,214.176 249.935,229.819 263.242,220.156 276.545,229.819 
				271.46,214.176 284.769,204.513 268.321,204.513 267.259,201.243 263.76,201.243 			"/>
			<polygon style="fill:#F0F0F0;" points="267.259,201.243 266.401,198.602 263.76,201.243 			"/>
			<polygon style="fill:#F0F0F0;" points="263.242,245.323 260.462,253.876 266.018,253.876 			"/>
			<polygon style="fill:#F0F0F0;" points="241.71,260.966 255.018,270.631 249.935,286.273 263.242,276.609 276.545,286.273 
				271.46,270.631 284.769,260.966 268.321,260.966 266.018,253.876 260.462,253.876 258.158,260.966 			"/>
			<polygon style="fill:#F0F0F0;" points="332.757,245.323 329.977,253.876 335.534,253.876 			"/>
			<polygon style="fill:#F0F0F0;" points="311.225,260.966 324.532,270.631 319.448,286.273 332.757,276.609 346.059,286.273 
				340.974,270.631 354.283,260.966 337.835,260.966 335.534,253.876 329.977,253.876 327.672,260.966 			"/>
			<polygon style="fill:#F0F0F0;" points="311.225,204.513 324.532,214.176 319.448,229.819 332.757,220.156 346.059,229.819 
				340.974,214.176 354.283,204.513 337.835,204.513 336.774,201.243 328.735,201.243 327.672,204.513 			"/>
			<polygon style="fill:#F0F0F0;" points="332.757,188.869 328.735,201.243 336.774,201.243 			"/>
			<polygon style="fill:#F0F0F0;" points="337.835,148.058 332.757,132.413 327.672,148.058 316.945,148.058 316.379,148.624 
				353.504,148.624 354.283,148.058 			"/>
			<polygon style="fill:#F0F0F0;" points="314.539,150.465 324.532,157.723 319.448,173.366 332.757,163.701 346.059,173.366 
				340.974,157.723 353.504,148.624 316.379,148.624 			"/>
			<path style="fill:#FFFFFF;" d="M50.873,358.976l-0.248,0.248c2.055,2.421,4.158,4.8,6.315,7.13l6.671,6.671l0.01-0.01
				C59.129,368.481,54.883,363.794,50.873,358.976z"/>
			<path style="fill:#FFFFFF;" d="M371.877,64.759c0.125,0.125,0.244,0.254,0.369,0.38c0.125,0.124,0.253,0.242,0.377,0.366
				l-0.011,0.011c4.506,4.549,8.772,9.247,12.794,14.082l0.244-0.244c-8.418-9.927-17.705-19.102-27.756-27.399l-0.059,0.059
				c4.817,4.011,9.498,8.265,14.031,12.756L371.877,64.759z"/>
			<path style="fill:#FFFFFF;" d="M63.61,373.026l0.746,0.746c-0.123-0.123-0.241-0.25-0.364-0.373
				C63.866,373.272,63.736,373.152,63.61,373.026z"/>
			<path style="fill:#FFFFFF;" d="M64.366,373.762l-0.009,0.009l4.476,4.476c3.104,2.877,6.287,5.672,9.555,8.369l0.084-0.084
				c-2.656-2.211-5.286-4.469-7.859-6.825C68.501,377.773,66.418,375.792,64.366,373.762z"/>
			<polygon style="fill:#FFFFFF;" points="313.684,114.426 313.707,122.928 324.692,111.944 			"/>
			<path style="fill:#FFFFFF;" d="M63.992,373.398c0.123,0.124,0.241,0.25,0.364,0.373l0.009-0.009
				C64.242,373.64,64.116,373.521,63.992,373.398z"/>
			<path style="fill:#FFFFFF;" d="M70.612,366.024l2.326-2.326h0l4.585-4.585l34.989-34.989l-5.096-4.086l-21.694,17.397
				l0.036-13.345l-34.886,34.886c4.011,4.818,8.256,9.505,12.747,14.04L70.612,366.024z"/>
			<path style="fill:#FFFFFF;" d="M372.622,65.505c-0.124-0.124-0.253-0.242-0.377-0.366c0.124,0.125,0.243,0.252,0.366,0.377
				L372.622,65.505z"/>
			<path style="fill:#FFFFFF;" d="M322.421,90.218l-6.066,12.511l9.789,7.763l14.487-14.487l21.932-21.932l9.304-9.303
				c-4.534-4.491-9.214-8.745-14.031-12.756l-39.043,39.043L322.421,90.218z"/>
			<polygon style="fill:#FFFFFF;" points="143.313,293.323 174.208,262.428 175.67,260.966 182.76,253.876 206.906,229.73 
				206.977,229.659 235.393,201.243 236.233,200.403 236.259,190.464 222.696,187.407 233.589,178.767 232.77,177.078 
				144.503,265.346 134.374,286.235 			"/>
			<polygon style="fill:#FFFFFF;" points="241.629,168.22 240.575,169.274 241.07,169.389 			"/>
			<polygon style="fill:#FFFFFF;" points="266.614,166.256 263.07,173.566 268.856,167.78 273.288,163.348 288.011,148.624 
				310.716,125.92 302.875,119.631 292.028,128.33 292.057,117.792 248.989,160.86 253.067,169.389 			"/>
			<polygon style="fill:#FFFFFF;" points="130.142,306.494 143.313,293.323 134.374,286.235 144.503,265.346 85.759,324.09 
				85.723,337.435 107.416,320.038 112.512,324.124 113.943,322.693 			"/>
			<polygon style="fill:#FFFFFF;" points="222.696,187.407 236.259,190.464 236.233,200.403 263.07,173.566 266.614,166.256 
				253.067,169.389 248.989,160.86 241.629,168.22 241.07,169.389 240.575,169.274 232.77,177.078 233.589,178.767 			"/>
			<polygon style="fill:#FFFFFF;" points="302.875,119.631 310.716,125.92 313.707,122.928 313.684,114.426 324.692,111.944 
				326.143,110.492 316.355,102.73 322.421,90.218 318.792,91.057 292.057,117.792 292.028,128.33 			"/>
			<polygon style="fill:#FFFFFF;" points="113.34,324.788 79.015,359.113 105.89,359.113 142.31,322.693 115.435,322.693 			"/>
			<polygon style="fill:#FFFFFF;" points="112.512,324.124 77.523,359.113 79.015,359.113 113.34,324.788 			"/>
			<polygon style="fill:#FFFFFF;" points="115.435,322.693 113.943,322.693 112.512,324.124 113.34,324.788 			"/>
			<path style="fill:#FFFFFF;" d="M371.877,64.759l-0.011,0.011c0.126,0.124,0.254,0.244,0.38,0.369
				C372.121,65.014,372.002,64.884,371.877,64.759z"/>
			<path style="fill:#FFFFFF;" d="M363.308,74.82l-21.186,21.186h26.875l16.408-16.408c-4.022-4.835-8.287-9.533-12.794-14.082
				L363.308,74.82z"/>
			<path style="fill:#FFFFFF;" d="M363.308,74.82l9.304-9.304c-0.124-0.125-0.242-0.253-0.366-0.377
				c-0.125-0.125-0.254-0.244-0.38-0.369l-9.304,9.303L340.63,96.006h1.492L363.308,74.82z"/>
			<path style="fill:#FFFFFF;" d="M63.62,373.016l-0.01,0.01c0.126,0.126,0.255,0.247,0.382,0.372
				C63.867,373.272,63.745,373.143,63.62,373.016z"/>
			<path style="fill:#FFFFFF;" d="M70.612,379.707v-12.191l-6.246,6.246C66.418,375.792,68.501,377.773,70.612,379.707z"/>
			<path style="fill:#FFFFFF;" d="M63.62,373.016c0.125,0.127,0.247,0.256,0.372,0.382c0.124,0.123,0.25,0.242,0.373,0.364
				l6.246-6.246v-1.492L63.62,373.016z"/>
			<path style="fill:#FFFFFF;" d="M79.015,359.113l-5.331,5.331v0l-3.072,3.072v12.191c2.573,2.356,5.203,4.615,7.859,6.825
				l27.419-27.419H79.015z"/>
			<polygon style="fill:#FFFFFF;" points="72.938,363.698 72.938,363.698 70.612,366.024 70.612,367.516 73.684,364.444 
				73.684,364.444 79.015,359.113 77.523,359.113 			"/>
			<polygon style="fill:#FFFFFF;" points="131.634,306.494 115.435,322.693 142.31,322.693 158.509,306.494 			"/>
			<polygon style="fill:#FFFFFF;" points="113.943,322.693 115.435,322.693 131.634,306.494 130.142,306.494 			"/>
			<polygon style="fill:#FFFFFF;" points="326.618,111.51 313.711,124.416 311.544,126.584 289.503,148.624 312.005,148.624 
				311.225,148.058 316.945,148.058 368.998,96.006 342.122,96.006 326.976,111.152 			"/>
			<polygon style="fill:#FFFFFF;" points="326.618,111.51 324.692,111.944 313.707,122.928 313.711,124.416 			"/>
			<polygon style="fill:#FFFFFF;" points="311.544,126.584 310.716,125.92 288.011,148.624 289.503,148.624 			"/>
			<polygon style="fill:#FFFFFF;" points="342.122,96.006 340.63,96.006 326.143,110.492 326.976,111.152 			"/>
			<polygon style="fill:#FFFFFF;" points="313.711,124.416 313.707,122.928 310.716,125.92 311.544,126.584 			"/>
			<polygon style="fill:#FFFFFF;" points="326.618,111.51 326.976,111.152 326.143,110.492 324.692,111.944 			"/>
			<polygon style="fill:#FFFFFF;" points="258.158,204.513 259.22,201.243 236.885,201.243 236.229,201.899 184.252,253.876 
				190.948,253.876 193.728,245.323 196.504,253.876 211.128,253.876 252.59,212.413 241.71,204.513 			"/>
			<polygon style="fill:#FFFFFF;" points="236.229,201.899 236.23,201.243 235.393,201.243 206.977,229.659 207.029,229.819 
				206.906,229.73 182.76,253.876 184.252,253.876 			"/>
			<polygon style="fill:#FFFFFF;" points="236.229,201.899 236.885,201.243 236.23,201.243 			"/>
			<polygon style="fill:#FFFFFF;" points="289.503,148.624 273.654,164.474 276.545,173.366 269.72,168.408 261.665,176.463 
				236.885,201.243 259.22,201.243 263.242,188.869 266.401,198.602 314.539,150.465 312.005,148.624 			"/>
			<polygon style="fill:#FFFFFF;" points="236.233,200.403 235.393,201.243 236.23,201.243 			"/>
			<polygon style="fill:#FFFFFF;" points="269.72,168.408 268.856,167.78 263.07,173.566 261.665,176.463 			"/>
			<polygon style="fill:#FFFFFF;" points="289.503,148.624 288.011,148.624 273.288,163.348 273.654,164.474 			"/>
			<polygon style="fill:#FFFFFF;" points="236.885,201.243 261.665,176.463 263.07,173.566 236.233,200.403 236.23,201.243 			"/>
			<polygon style="fill:#FFFFFF;" points="188.643,260.966 190.948,253.876 184.252,253.876 177.162,260.966 			"/>
			<polygon style="fill:#FFFFFF;" points="184.252,253.876 182.76,253.876 175.67,260.966 177.162,260.966 			"/>
			<polygon style="fill:#FFFFFF;" points="198.805,260.966 204.037,260.966 211.128,253.876 196.504,253.876 			"/>
			<polygon style="fill:#FFFFFF;" points="175.072,263.056 144.145,293.983 131.634,306.494 158.509,306.494 181.233,283.77 
				185.504,270.631 			"/>
			<polygon style="fill:#FFFFFF;" points="175.072,263.056 174.208,262.428 143.313,293.323 144.145,293.983 			"/>
			<polygon style="fill:#FFFFFF;" points="143.313,293.323 130.142,306.494 131.634,306.494 144.145,293.983 			"/>
			<polygon style="fill:#FFFFFF;" points="206.977,229.659 206.906,229.73 207.029,229.819 			"/>
			<polygon style="fill:#FFFFFF;" points="193.728,245.323 190.948,253.876 196.504,253.876 			"/>
			<polygon style="fill:#FFFFFF;" points="196.504,253.876 190.948,253.876 188.643,260.966 177.162,260.966 175.072,263.056 
				185.504,270.631 181.233,283.77 204.037,260.966 198.805,260.966 			"/>
			<polygon style="fill:#FFFFFF;" points="177.162,260.966 175.67,260.966 174.208,262.428 175.072,263.056 			"/>
			<polygon style="fill:#FFFFFF;" points="259.22,201.243 258.158,204.513 241.71,204.513 252.59,212.413 263.76,201.243 			"/>
			<polygon style="fill:#FFFFFF;" points="259.22,201.243 263.76,201.243 266.401,198.602 263.242,188.869 			"/>
			<polygon style="fill:#FFFFFF;" points="276.545,173.366 273.654,164.474 269.72,168.408 			"/>
			<polygon style="fill:#FFFFFF;" points="273.654,164.474 273.288,163.348 268.856,167.78 269.72,168.408 			"/>
			<polygon style="fill:#FFFFFF;" points="316.945,148.058 311.225,148.058 312.005,148.624 316.379,148.624 			"/>
			<polygon style="fill:#FFFFFF;" points="312.005,148.624 314.539,150.465 316.379,148.624 			"/>
		</g>
	</g>
</g>
<g id="Layer_1">
</g>
</svg>
