<?xml version="1.0" encoding="utf-8"?>
<!-- Generator: Adobe Illustrator 23.0.1, SVG Export Plug-In . SVG Version: 6.00 Build 0)  -->
<svg version="1.1" id="Layer_1" xmlns="http://www.w3.org/2000/svg" xmlns:xlink="http://www.w3.org/1999/xlink" x="0px" y="0px"
	 viewBox="0 0 435 435" style="enable-background:new 0 0 435 435;" xml:space="preserve">
<style type="text/css">
	.st0{fill:#B31E30;}
	.st1{fill:#FFCC02;}
</style>
<path class="st0" d="M351.7,240.2c-14.8,0-19.1,12.2-19.1,25.5s4.4,25.6,19.1,25.6s19.1-12.2,19.1-25.6S366.3,240.2,351.7,240.2z"/>
<polygon class="st0" points="141.4,247.4 133.1,270 150.1,270 141.7,247.4 "/>
<path class="st0" d="M222.2,251.2c0-5.4-3.9-9.6-12.6-9.6h-11.5v19.1h11.5C217.7,260.8,222.2,257.2,222.2,251.2z"/>
<path class="st0" d="M405.8,108.3c-19-32.9-46.3-60.2-79.2-79.2C293.4,9.7,257,0,217.5,0s-75.8,9.7-109.2,29.2
	c-32.9,19-60.2,46.3-79.2,79.2C9.7,141.7,0,178,0,217.5s9.7,75.8,29.2,109.2c19,32.9,46.3,60.2,79.2,79.1
	C141.7,425.3,178,435,217.5,435s75.9-9.7,109.2-29.2c32.9-19,60.2-46.3,79.1-79.1C425.3,293.4,435,257,435,217.5
	S425.3,141.6,405.8,108.3z M272,193.2h6c2.6,0,4.4-0.9,4.4-4.1v-39.9c0-2.8-1.3-4-5-4H272v-6.9h34.3v6.9H301c-4.1,0-5.5,0.9-5.5,4.3
	v43.8h14.1c9.6,0,11.6-5.7,12.5-16.4h7.2v23.3H272V193.2z M208.5,193.2h6c2.6,0,4.4-0.9,4.4-4.1v-39.9c0-2.8-1.3-4-5-4h-5.4v-6.9
	h34.2v6.9h-5.2c-4.1,0-5.5,0.9-5.5,4.3v43.8h14.1c9.7,0,11.6-5.7,12.6-16.4h7.1v23.3h-57.3L208.5,193.2z M47.8,145.1h-1.3v-6.9h27.1
	v6.9h-3.9c-2.1,0-2.9,1.2-2.9,2.4c0.1,1.2,0.4,2.3,0.8,3.4l11.7,34.6h0.2L90.7,153l-1.6-4.4c-1-2.8-2.8-3.5-5.6-3.5h-2.2v-6.9h28
	v6.9h-5c-1.9,0-2.6,0.8-2.6,2c0.1,1.1,0.4,2.2,0.8,3.2l10.3,34.6h0.2l11.9-33.8c0.4-1,0.7-2.1,0.7-3.2c0-1.5-0.7-2.8-4-2.8H117v-6.9
	h85v21.2h-7c-1.4-9-2.2-14.3-14.6-14.3H164v19.5h4.4c5.6,0,8.2-2.7,8.2-10.4V153h6.5v30.2h-6.5v-1.3c0-7.6-2.6-10.5-8.2-10.5H164
	v21.8h18.7c8.5,0,11.6-5.6,12.6-16.4h6.8v23.3h-61.3v-6.9h5.2c3.2,0,5-0.9,5-6.5v-36.3c0-4.1-1.8-5.3-6.2-5.3h-1.9
	c-4.4,0-6.6,1-8.1,5.7l-17,49.4h-12.9L95,168h-0.2L84,200.1H71l-17.6-51.7C52.6,145.9,51.3,145.1,47.8,145.1z M86,261.2
	c6,0,7.8-4.4,7.8-9.3v-1.2h6.5v28.5h-6.5v-2.1c0-6.6-2.5-9.1-8.3-9.1h-3.8V285c0,3.5,1.6,4.8,5.9,4.8h4.7v7H57.9v-7h5.8
	c3.3,0,4.7-2,4.7-4.6v-40c0-2.2-1.6-3.5-4.4-3.5h-6.2v-6.9h58.6v21.1h-6.7c-0.9-7.3-2.4-14.3-16.1-14.3H81.6v19.5H86z M243,283.9
	c0,10.7-5.1,14.8-12.8,14.8c-9,0-12.1-4.4-12.1-12.8v-3.2c0-10.7-4.6-15-14.9-15h-4.9v18.7c0,2.5,1.1,3.4,3.8,3.4h6.8v7H147v-7h6.9
	c1.9,0,2.6-0.5,2.6-1.6c-0.1-0.9-0.2-1.7-0.6-2.5c-0.3-0.8-3.3-8.8-3.3-8.8h-22.2c0,0-2.7,7.4-3.2,8.6c-0.3,0.8-0.5,1.7-0.6,2.6
	c0,1.3,1.1,1.8,2.9,1.8h6.6v7h-29.2v-7c4.9,0,8.1-0.7,9.8-5l19.8-50h11.9l20.3,50c1.7,4.4,4.9,5,9.8,5h2.5c2.7,0,3.9-0.9,3.9-3.4
	V245c0-2.5-0.9-3.4-3.9-3.4h-6.5v-6.9h40.7c13.5,0,19.9,6.4,19.9,16.1c0,12-11.9,14.4-17.5,14.7v0.2c6.5,0.5,12.1,3.2,12.1,12.7v3.7
	c0,6.4,1.4,7.8,3.6,7.8s3.4-1.8,3.4-5.9v-1.7h6.2L243,283.9z M311.9,270.6h-1.7c-3.6,0-5,1-5,4.6v21.5h-6.4l-3.5-4.7
	c-1.5,1.3-7.8,6.7-19.4,6.7c-18.1,0-29.8-13.9-29.8-32.9c0-18.9,11.5-32.9,29.8-32.9c11.5,0,17.3,5.7,18.6,6.9l2.3-5.1h6.5v21.2
	h-7.7c-1.4-3.8-5.5-15-17.5-15c-11.5,0-17.5,10.8-17.5,24.8c0,14.3,6,24.9,17.8,24.9c9.5,0,13.9-4.9,13.9-12V275
	c0-3-1.9-4.4-4.9-4.4h-4.2v-6.9h28.6L311.9,270.6z M351.7,298.7c-20.3,0-33.8-14.3-33.8-32.9s13.5-32.9,33.8-32.9
	s33.7,14.2,33.7,32.9S371.9,298.7,351.7,298.7L351.7,298.7z M363.2,202c-7,0.1-13.8-2.5-18.8-7.4l-2.1,5.6H336v-23.3h7.2
	c1.5,10.4,8.8,17.2,21,17.2c8.8,0,13.2-4.5,13.2-8.7c0-5.5-5.3-7.9-13.2-9.6c-3.2-0.7-5.3-1.1-8.8-1.8c-10.6-2.3-19.7-7.5-19.7-19
	c0-12.7,11.8-18.6,23.5-18.6c11.1,0,16.9,5.9,17.4,6.5l3.1-4.7h5v21.2h-7c-2.4-7.8-6.8-15.1-18.2-15.1c-7.6,0-12.7,3.3-12.7,8.1
	c0,5.5,4.9,7.4,12.6,9.1c2.3,0.5,4.3,0.9,6.5,1.4c12.4,2.5,22.6,7.8,22.6,20C388.5,195.6,377.6,202,363.2,202z"/>
<path class="st1" d="M84,200.1L94.9,168H95l9.8,32.2h12.9l16.9-49.4c1.6-4.6,3.7-5.7,8.1-5.7h1.9c4.3,0,6.2,1.2,6.2,5.3v36.3
	c0,5.6-1.7,6.5-5,6.5h-5.1v6.9H202v-23.4h-6.8c-1,10.8-4.1,16.4-12.6,16.4H164v-21.8h4.4c5.6,0,8.2,2.9,8.2,10.5v1.3h6.5V153h-6.5
	v1.2c0,7.6-2.6,10.4-8.2,10.4H164v-19.5h16.4c12.4,0,13.2,5.3,14.6,14.3h7v-21.2h-85v6.9h4.5c3.3,0,4,1.4,4,2.8
	c-0.1,1.1-0.3,2.2-0.7,3.2l-11.9,33.8h-0.2l-10.3-34.6c-0.4-1-0.7-2.1-0.8-3.2c0-1.2,0.7-2,2.6-2h5v-6.9h-28v6.9h2.2
	c2.7,0,4.6,0.7,5.6,3.5l1.6,4.4l-11.2,32.5h-0.2l-11.7-34.6c-0.5-1.1-0.7-2.2-0.8-3.4c0-1.2,0.8-2.4,2.9-2.4h3.9v-6.9H46.5v6.9h1.3
	c3.6,0,4.9,0.8,5.7,3.3L71,200.1H84z"/>
<path class="st1" d="M265.8,176.8h-7.1c-1,10.7-2.9,16.4-12.6,16.4H232v-43.8c0-3.4,1.4-4.3,5.5-4.3h5.3v-6.9h-34.3v6.9h5.4
	c3.8,0,5,1.2,5,4V189c0,3.3-1.8,4.1-4.4,4.1h-6v6.9h57.3L265.8,176.8z"/>
<path class="st1" d="M93.8,241.6c13.7,0,15.2,6.9,16.1,14.3h6.7v-21.2H57.9v6.9h6.2c2.8,0,4.4,1.3,4.4,3.5v40c0,2.6-1.4,4.6-4.7,4.6
	h-5.8v7h34.3v-7h-4.7c-4.3,0-5.9-1.3-5.9-4.8v-16.9h3.8c5.8,0,8.3,2.5,8.3,9.1v2.1h6.5v-28.5h-6.5v1.2c0,4.8-1.8,9.2-7.8,9.2h-4.4
	v-19.5H93.8z"/>
<path class="st1" d="M329.4,176.8h-7.2c-1,10.7-2.9,16.4-12.5,16.4h-14.1v-43.8c0-3.4,1.4-4.3,5.5-4.3h5.2v-6.9H272v6.9h5.4
	c3.8,0,5,1.2,5,4V189c0,3.3-1.8,4.1-4.4,4.1h-6v6.9h57.4V176.8z"/>
<path class="st1" d="M351.7,232.9c-20.3,0-33.8,14.2-33.8,32.9s13.5,32.9,33.8,32.9s33.7-14.3,33.7-32.9S371.9,232.9,351.7,232.9z
	 M351.7,291.3c-14.8,0-19.1-12.2-19.1-25.6s4.4-25.5,19.1-25.5s19.1,12.2,19.1,25.5S366.3,291.3,351.7,291.3z"/>
<path class="st1" d="M283.2,270.6h4.2c3.1,0,4.9,1.4,4.9,4.4v3.6c0,7.1-4.4,12-13.9,12c-11.9,0-17.8-10.7-17.8-24.9
	c0-14,6-24.8,17.5-24.8c12,0,16.1,11.2,17.5,15h7.7v-21.2h-6.5l-2.3,5.1c-1.4-1.2-7.2-6.9-18.6-6.9c-18.3,0-29.8,14-29.8,32.8
	c0,19,11.7,32.9,29.8,32.9c11.7,0,18-5.3,19.4-6.7l3.5,4.7h6.4v-21.5c0-3.7,1.4-4.6,5-4.6h1.7v-6.9h-28.6V270.6z"/>
<path class="st1" d="M236.8,283.9c0,4.1-1.2,5.9-3.4,5.9s-3.6-1.4-3.6-7.8v-3.6c0-9.5-5.5-12.3-12.1-12.7v-0.2
	c5.6-0.3,17.5-2.7,17.5-14.7c0-9.7-6.4-16.1-19.9-16.1h-40.7v6.9h6.5c2.9,0,3.9,0.9,3.9,3.4v41.4c0,2.5-1.2,3.4-3.9,3.4h-2.5
	c-5,0-8.1-0.6-9.8-5l-20.3-50h-11.9l-19.8,50c-1.8,4.3-4.9,5-9.8,5v7h29.2v-7h-6.6c-1.8,0-2.9-0.4-2.9-1.8c0-0.9,0.2-1.8,0.6-2.6
	c0.5-1.2,3.2-8.6,3.2-8.6h22.1c0,0,2.9,8,3.3,8.8c0.3,0.8,0.5,1.7,0.6,2.5c0,1.1-0.7,1.6-2.6,1.6h-6.9v7h61.9v-7H202
	c-2.7,0-3.8-0.9-3.8-3.4v-18.7h4.9c10.4,0,14.9,4.3,14.9,15v3.2c0,8.4,3,12.8,12.1,12.8c7.7,0,12.8-4.1,12.8-14.8v-1.7h-6.2
	L236.8,283.9z M133.1,270l8.4-22.6h0.3l8.3,22.6H133.1z M209.7,260.8h-11.5v-19.2h11.5c8.6,0,12.6,4.1,12.6,9.6
	C222.2,257.2,217.7,260.8,209.7,260.8L209.7,260.8z"/>
<path class="st1" d="M366,162.8c-2.2-0.6-4.2-0.9-6.5-1.4c-7.7-1.7-12.6-3.6-12.6-9.1c0-4.8,5.1-8.1,12.7-8.1
	c11.5,0,15.9,7.3,18.2,15.1h7v-21.2h-5l-3.1,4.7c-0.6-0.6-6.3-6.5-17.4-6.5c-11.7,0-23.5,5.9-23.5,18.6c0,11.5,9.2,16.8,19.7,19
	c3.5,0.7,5.6,1.1,8.8,1.8c7.9,1.7,13.2,4.1,13.2,9.6c0,4.2-4.4,8.7-13.2,8.7c-12.2,0-19.5-6.8-21-17.2H336v23.3h6.4l2.1-5.6
	c5,4.9,11.8,7.6,18.8,7.5c14.4,0,25.3-6.4,25.3-19.1C388.5,170.6,378.4,165.3,366,162.8z"/>
</svg>
