<?xml version="1.0" encoding="utf-8"?>
<!-- Generator: Adobe Illustrator 23.0.1, SVG Export Plug-In . SVG Version: 6.00 Build 0)  -->
<svg version="1.1" id="Layer_1" xmlns="http://www.w3.org/2000/svg" xmlns:xlink="http://www.w3.org/1999/xlink" x="0px" y="0px"
	 viewBox="0 0 435 435" style="enable-background:new 0 0 435 435;" xml:space="preserve">
<style type="text/css">
	.st0{fill:#F4F4F4;}
	.st1{fill:#EB9C47;}
	.st2{fill:#1F4576;}
</style>
<path class="st0" d="M405.8,108.3c-19-32.9-46.3-60.2-79.2-79.2C293.4,9.7,257,0,217.5,0s-75.8,9.7-109.2,29.2
	c-32.9,19-60.2,46.3-79.2,79.2C9.7,141.7,0,178,0,217.5s9.7,75.8,29.2,109.2c19,32.9,46.3,60.2,79.2,79.1
	C141.7,425.3,178,435,217.5,435s75.9-9.7,109.2-29.2c32.9-19,60.2-46.3,79.1-79.1C425.3,293.4,435,257,435,217.5
	S425.3,141.6,405.8,108.3z M337,272.1l-112.5-23l0,0c0.4-1.6,0.6-3.2,0.8-4.9L306,231L337,272.1z M300.4,223.5l-76.6,9.5
	c-0.5-1.5-1.1-3-1.9-4.4l53.9-37.6L300.4,223.5z M270.8,184.3l-56.4,35.3c-1.2-1-2.4-1.8-3.8-2.6l35.5-65.4L270.8,184.3z
	 M85.3,289.5l124.9-143.9h31.3c0,0-28.9,44.6-44.7,69.5c-4.7,7.4-8.8,12.1-8.8,20.1c0,15.1,9.9,22.5,27.3,25.7
	c17.1,3.1,92.4,14,127.1,19l7.2,9.6L85.3,289.5z"/>
<path class="st1" d="M214.4,219.6l56.4-35.3l-24.6-32.7L210.7,217C212,217.8,213.2,218.6,214.4,219.6z"/>
<path class="st1" d="M223.8,233l76.6-9.5L275.8,191l-53.9,37.6C222.7,230,223.3,231.5,223.8,233z"/>
<path class="st1" d="M224.5,249.1L224.5,249.1l112.5,23L306,231l-80.8,13.3C225.1,245.9,224.9,247.5,224.5,249.1z"/>
<path class="st2" d="M215.3,260.8c-17.4-3.2-27.3-10.6-27.3-25.7c0-8,4.1-12.7,8.8-20.1c15.8-24.9,44.7-69.5,44.7-69.5h-31.3
	L85.3,289.5h264.3l-7.2-9.6C307.7,274.9,232.4,264,215.3,260.8z"/>
</svg>
