<?xml version="1.0" encoding="utf-8"?>
<!-- Generator: Adobe Illustrator 23.0.1, SVG Export Plug-In . SVG Version: 6.00 Build 0)  -->
<svg version="1.1" id="Layer_1" xmlns="http://www.w3.org/2000/svg" xmlns:xlink="http://www.w3.org/1999/xlink" x="0px" y="0px"
	 viewBox="0 0 435 435" style="enable-background:new 0 0 435 435;" xml:space="preserve">
<style type="text/css">
	.st0{fill:#F4F4F4;}
	.st1{fill:#0FBDF2;}
	.st2{fill:#0DBDF2;}
	.st3{fill:#37C8F4;}
	.st4{fill:#00B9F1;}
	.st5{fill:#05BBF1;}
	.st6{fill:#03BAF1;}
	.st7{fill:#0BBCF2;}
	.st8{fill:#0ABCF2;}
	.st9{fill:#0CBCF2;}
	.st10{fill:#04BAF1;}
</style>
<path class="st0" d="M405.8,108.3c-19-32.9-46.3-60.2-79.2-79.2C293.4,9.7,257,0,217.5,0s-75.8,9.7-109.2,29.2
	c-32.9,19-60.2,46.3-79.2,79.2C9.7,141.7,0,178,0,217.5s9.7,75.8,29.2,109.2c19,32.9,46.3,60.2,79.2,79.1
	C141.7,425.3,178,435,217.5,435s75.9-9.7,109.2-29.2c32.9-19,60.2-46.3,79.1-79.1C425.3,293.4,435,257,435,217.5
	S425.3,141.6,405.8,108.3z"/>
<path class="st1" d="M201.7,84.4v-0.9h31.6v0.9c-1.1,1-2.6,1.5-4.1,1.4c-7.8,0.1-15.5,0.1-23.3,0C204.3,85.8,202.8,85.6,201.7,84.4z
	"/>
<path class="st2" d="M83.5,201.7h0.9c1,1.1,1.5,2.6,1.4,4.1c0.1,7.8,0.1,15.5,0,23.3c0.1,1.5-0.4,3-1.4,4.1l-0.9,0.1L83.5,201.7z"/>
<path class="st3" d="M201.7,351.5v-0.9c1.1-1,2.6-1.5,4.1-1.4c7.6-0.1,15.2-0.2,22.8,0c1.5,0,3,0.2,4,1.5c0,0.3-0.1,0.5-0.3,0.7
	L201.7,351.5z"/>
<path class="st1" d="M350.8,202.3c0.3-0.1,0.6,0,0.7,0.2c0,0,0,0.1,0,0.1v29.8c-0.2,0.2-0.5,0.3-0.8,0.3c-1.4-1.2-1.5-2.9-1.5-4.5
	c-0.1-7.1-0.1-14.3,0-21.4C349.2,205.1,349.3,203.4,350.8,202.3z"/>
<path class="st4" d="M350.8,202.3c0,10.1,0,20.2,0,30.4c-1.2,3.9-4.4,4-7.6,4c-32.3,0-64.7,0-97,0c-1.8-0.1-3.6,0-5.4,0.4
	c-3.6,1.2-4,4.3-4,7.7c0.1,32.6,0.1,65.3,0.1,97.9c0,3.4-0.2,6.7-4.1,8.1l-30.9-0.2c-3.4-1.5-3.5-4.4-3.5-7.6c0-32.1,0-64.3,0-96.4
	c0-8.7-1.3-10-9.9-10H92c-3.1,0-6.1,0-7.6-3.4v-31.6c1.4-3.5,4.5-3.4,7.6-3.4h95.9c9.1,0,10.4-1.3,10.4-10.4c0-32,0-64,0-95.9
	c0-3.1-0.1-6.1,3.4-7.6h31.6c3.7,1.6,3.5,4.8,3.5,8v96c0,8.6,1.3,9.8,10,9.8c32.2,0,64.3,0,96.5,0
	C346.5,198.2,349.6,198.4,350.8,202.3z"/>
<path class="st4" d="M296.9,326.2c-8.6,0-17.1,0-25.7,0c-10.9,0-19.3-7.1-21.3-17.7c-1.8-9.8,4.3-19.7,14.5-23.1
	c2.1-0.6,3.8-2.3,4.3-4.5c2.6-7.7,8.1-12.6,16.1-14.1s15.2,1,20.5,7.6c1.8,2.2,3,2.8,5.9,1.7c6.4-2.4,13.5,1.2,15.5,7.1
	c0.5,1.4,1,3.2-0.7,4s-3.7,1-5.3-0.9c-4.6-5.9-6.3-5.9-11,0c-1.2,1.5-2.5,1.3-4,1.3c-2.3,0-2.4-1.8-2.9-3.4
	c-3.2-11-15.7-14.8-23.9-7.3c-2.9,2.7-4.6,6.4-4.8,10.4c-0.1,2.6-1.1,3.5-3.8,3.7c-8.6,0.7-14.2,6.7-14,14.6s6.3,13.9,15.2,14
	c17.3,0.2,34.6,0.1,51.9,0.1c1.7,0,3.9-0.7,4.4,1.9s0.1,4.7-3.5,4.6C315.3,326.1,306.1,326.2,296.9,326.2z"/>
<path class="st5" d="M314.5,293.9c9.1,0,18.3,0,27.4,0c2.6,0,4.4,0.5,4.3,3.6c-0.1,3-2,3.3-4.3,3.3c-18.1,0-36.3,0-54.4,0
	c-2.6,0-4.4-0.6-4.4-3.7s2-3.2,4.3-3.2C296.5,294,305.5,293.9,314.5,293.9z"/>
<path class="st6" d="M305,313.5c-8.9,0-17.7,0-26.6,0c-2.6,0-4.5-0.3-4.4-3.5s2.2-3,4.4-3c18.2,0,36.3,0,54.5,0
	c2.3,0,4.1,0.1,4.1,3.3s-1.7,3.3-4.1,3.3C323.7,313.5,314.4,313.5,305,313.5z"/>
<path class="st4" d="M319.4,151.1c-0.4,9.3-5.4,17.5-15.4,21.9s-20.1,3.4-28.7-3.8s-11-16.8-8.3-27.7c2-7.7,6.3-14.2,10.5-20.8
	c4.5-7.1,9.3-14,12.7-21.7c0.5-1.1,1-2.3,2.5-2.3s2,1.2,2.5,2.3c4.5,9.9,11,18.6,16.6,27.8C316,133.8,319.5,141,319.4,151.1z"/>
<path class="st4" d="M160.2,297.4c0,12.9-10.4,23.3-23.3,23.4c-12.9,0-23.3-10.4-23.4-23.3s10.4-23.3,23.3-23.4
	C149.7,274.1,160.2,284.5,160.2,297.4z"/>
<path class="st7" d="M133.5,259.2c0-1.9,0-3.9,0-5.8c-0.1-2.4,0.9-3.6,3.4-3.6s3.4,1.4,3.4,3.7c0,4.2,0,8.4,0,12.6
	c0,2.2-1,3.2-3.3,3.3c-2.5,0.1-3.6-1-3.6-3.4C133.5,263.7,133.5,261.4,133.5,259.2z"/>
<path class="st8" d="M98.8,300.9c-2.1,0-4.2,0-6.3,0c-2.3,0-3.3-1.1-3.4-3.2c-0.1-2.4,1.1-3.6,3.5-3.6h12.6c2.3,0,3.6,1,3.6,3.5
	s-1.3,3.4-3.7,3.3C103,300.8,100.9,300.9,98.8,300.9z"/>
<path class="st9" d="M174.8,300.8c-2.1,0-4.2,0-6.3,0c-2.4,0.1-3.6-1-3.6-3.5c0-2.2,1.1-3.3,3.3-3.3c4.4,0,8.7,0,13,0
	c2.2,0,3.3,0.9,3.3,3.2s-1,3.6-3.5,3.5C179,300.8,176.9,300.8,174.8,300.8z"/>
<path class="st8" d="M140.3,335.3c0,2.1,0,4.2,0,6.3s-0.6,3.4-3,3.5s-3.8-0.8-3.8-3.2c0-4.3,0-8.7,0-13c0-2.5,1.4-3.5,3.7-3.3
	s3.1,1.3,3,3.5S140.3,333.2,140.3,335.3z"/>
<path class="st6" d="M124.6,270c-0.2,2.3-1.4,2.9-2.6,3.5s-2.7,0.8-3.5-0.6c-2.6-4.2-5.1-8.5-7.6-12.7c-0.6-1-0.4-2.3,0.6-3
	c0.1,0,0.1-0.1,0.2-0.1c1.2-0.8,3-2.3,4-0.9C119.1,260.8,121.9,265.7,124.6,270z"/>
<path class="st10" d="M99.2,271.5c4.3,2.6,9.1,5.3,13.6,8.4c1.5,1,0.1,2.8-0.7,4c-0.6,1.2-1.9,1.7-3.1,1.1c-0.1-0.1-0.2-0.1-0.3-0.2
	c-4.1-2.4-8.3-4.8-12.4-7.2c-1.2-0.6-1.6-2-1.1-3.2c0.1-0.1,0.1-0.2,0.2-0.3C96.1,272.8,96.7,271.3,99.2,271.5z"/>
<path class="st6" d="M162.9,259.6c-0.8,1.4-1.8,3.2-2.9,5c-1.5,2.6-3,5.2-4.5,7.7c-1,1.7-2.4,2.1-4.1,1c-1.5-0.9-2.9-2-1.8-3.9
	c2.4-4.3,4.9-8.5,7.5-12.7c0.9-1.4,2.2-1.3,3.6-0.5C161.7,256.8,163,257.4,162.9,259.6z"/>
<path class="st6" d="M164.8,284.9c-2.9,0.1-3.4-1.5-4.2-2.7c-0.6-1-0.4-2.3,0.6-2.9c0.1-0.1,0.2-0.1,0.3-0.2
	c4.2-2.6,8.4-5.1,12.7-7.5c1.5-0.9,2.6-0.1,3.4,1.2c0.7,1.1,2,2.7,0.7,3.6C173.6,279.5,168.8,282.4,164.8,284.9z"/>
<path class="st10" d="M115.4,339.4c-3,0.2-5.1-2.8-3.9-5.1c2.2-3.9,4.5-7.8,6.8-11.6c1-1.8,2.4-2.1,4.1-1c1.4,0.9,3.1,1.7,1.9,3.8
	c-2.4,4.3-5,8.5-7.5,12.8C116.4,338.8,115.7,339.1,115.4,339.4z"/>
<path class="st6" d="M113.4,314c-0.1,1.2-0.9,1.8-1.8,2.3c-3.7,2.2-7.4,4.4-11.2,6.6c-1.9,1.1-3.3,0.9-4.5-1.1s-1.2-3.3,0.8-4.5
	c3.9-2.3,7.7-4.6,11.6-6.8c1.7-0.9,3.8-0.2,4.7,1.6C113.4,312.7,113.5,313.4,113.4,314z"/>
<path class="st6" d="M164.4,309.8c0.9,0.5,2.2,1.2,3.4,1.9c2.8,1.6,5.6,3.4,8.5,4.9c2.2,1.2,3.1,2.6,1.6,5c-1.4,2.2-2.9,2.1-4.9,0.9
	c-3.7-2.3-7.5-4.4-11.2-6.6c-1.2-0.7-2.1-1.8-1.2-3.3C161.4,311.3,161.9,309.8,164.4,309.8z"/>
<path class="st6" d="M163.1,335.9c0,1.7-1.4,2.2-2.5,2.8s-2.5,0.7-3.2-0.5c-2.7-4.3-5.3-8.6-7.8-13c-0.6-1-0.3-2.3,0.8-2.9
	c0.1,0,0.2-0.1,0.2-0.1c1.1-0.7,2.2-1.7,3.7-1.1C155.2,321.5,163.1,334.7,163.1,335.9z"/>
<path class="st4" d="M181,168.5c-10.5-22.9-21.1-45.8-31.6-68.7c-0.6-1.3-1-3-2.9-3.2c-2.1-0.2-2.6,1.7-3.4,3.1c-3,6-6,12.1-9,18.2
	c-2.4,4.8-3.2,4.9-7,1c-1.3-1.3-2.4-2.6-3.7-3.9c-3.5-3.6-4.6-3.4-6.5,1.3c-7,17.4-14.1,34.8-21.1,52.2c-1.9,4.8-1.2,5.9,4,5.9
	c12.9,0,25.8,0,38.8,0s25.8,0,38.8,0C182.1,174.3,183,172.9,181,168.5z M152.3,134.8c-2.3,1.5-4.6,4.5-7.9,1.6
	c-2.7-2.3-4.3-1-5.6,1.5c-1.7,3.2-3.4,5.8-7.3,2.1c-2-1.9-3.4,0.4-4.8,1.7s-2.2,4.1-5,2.5c-2.6-1.5-5.3-3-5.5-6.6
	c0.9-3.8,2.1-7.5,3.8-11c0.8-1.8,2.3-1.6,3.7-0.4c2.1,1.9,4.1,4,6.2,5.9s3.9,1.8,5.2-1c2.6-5.6,5.4-11.1,8.1-16.6
	c0.6-1.3,1.2-3,3.1-2.8c1.5,0.2,2,1.6,2.5,2.9c1.8,4.6,3.5,9.2,5.5,13.8C155.1,131.2,154.5,133.3,152.3,134.8L152.3,134.8z"/>
</svg>
