<svg id="Layer_1" data-name="Layer 1" xmlns="http://www.w3.org/2000/svg" viewBox="0 0 435 435"><defs><style>.cls-1{fill:#f4f4f4;}.cls-2{fill:#28458e;}.cls-2,.cls-3,.cls-4,.cls-5,.cls-6{fill-rule:evenodd;}.cls-3{fill:#0096d6;}.cls-4{fill:#eb7b30;}.cls-5{fill:#00984a;}.cls-6{fill:#df002c;}</style></defs><title>295</title><g id="ALL"><path class="cls-1" d="M407.6,110.09a216.63,216.63,0,0,0-79.15-79.16q-50-29.16-109.18-29.17T110.09,30.93a216.55,216.55,0,0,0-79.15,79.16q-29.18,50-29.18,109.18T30.93,328.44a216.73,216.73,0,0,0,79.16,79.16q50,29.16,109.18,29.17T328.45,407.6a216.63,216.63,0,0,0,79.15-79.16q29.16-50,29.17-109.17T407.6,110.09Z" transform="translate(-1.76 -1.76)"/><g id="_295" data-name="295"><path class="cls-2" d="M329.7,278.08c3.47-72.55-59.1-154.25-144.39-164.35l.14-1C269.54,112.74,334,190.58,334,252c-.09,12.78-1.09,20.7-2.9,26.45l-1.41-.37Zm-5.09,9.22a136.54,136.54,0,0,1-20.88,20.25c-15.16-87.22-79.26-163.48-124.57-185.75l-1,.68c45.57,37.4,99.92,110,121.06,188.5a176.86,176.86,0,0,1-34.71,19.88c-43-49-83.1-143.62-96-203.64l-1.31.4c.29,58.26,41.65,157.15,92.09,205.41a173.32,173.32,0,0,1-35.87,9.91c-48.35-19.15-82.77-80.5-82.77-143.35,0-41,12.51-66.4,14.93-71.59l-1-.41c-2.93,4.43-21.25,29.79-21.25,74.08,0,71,35,125.34,81.54,142.43A160,160,0,0,1,165,341.76l-.35,1.09a126.88,126.88,0,0,0,47.61,8.91c58.24,0,97.61-36.18,113.46-63.69l-1.13-.77Z" transform="translate(-1.76 -1.76)"/><path class="cls-3" d="M206.45,87.1c-44.15,0-95.92,31.87-95.92,61,0,11.27,10.3,20.78,31.64,20.78,49.52,0,95.53-34,95.53-60.47,0-13.93-13.37-21.31-31.25-21.31Zm17.63,20.48c0,22.3-42.82,49.56-78.62,49.56-15.82,0-24.36-6.22-24.36-16.49,0-22.62,43.31-49.42,76.88-49.42,21.9,0,26.1,11.14,26.1,16.35Z" transform="translate(-1.76 -1.76)"/><path class="cls-4" d="M92.94,161.59c-1.25,2.14-6.22,11.87-6.22,21.85,0,18.49,18.69,35.66,53.06,35.66,66.12,0,142.51-48.67,142.51-93.85,0-20.27-19.2-31.3-32.53-33.58l-.25.79c4.15,1.31,19.33,8.37,19.33,26.44,0,36-67.44,85-134.62,85-25.72,0-41.93-12.7-41.93-31.19a36.62,36.62,0,0,1,1.54-10.82l-.89-.34Z" transform="translate(-1.76 -1.76)"/><path class="cls-5" d="M309.55,128.63a35.1,35.1,0,0,1,12.7,27.62c0,58.52-91.69,116.07-172.76,116.07-48.34,0-70.38-23.87-69.4-45.07H81c1.9,11,17.59,30.71,59.9,30.71,81.17,0,171.79-59.55,171.79-111.72,0-9-2.43-14.52-3.8-17l.71-.61Z" transform="translate(-1.76 -1.76)"/><path class="cls-6" d="M340.19,183.27a49,49,0,0,1,2.36,15.62c0,65.1-92.8,120.83-173.5,120.83-41.54,0-63.23-20.17-67.81-28.37l.74-.55c11.49,10.06,34.13,17.69,60.55,17.69,71.28,0,177.63-54.22,176.69-125l1-.23Z" transform="translate(-1.76 -1.76)"/></g></g></svg>