<svg id="Layer_1" data-name="Layer 1" xmlns="http://www.w3.org/2000/svg" viewBox="0 0 435 435"><defs><style>.cls-1{fill:#f4f4f4;}</style></defs><title>297</title><g id="ALL"><path class="cls-1" d="M407.6,110.09a216.63,216.63,0,0,0-79.15-79.16q-50-29.16-109.18-29.17T110.09,30.93a216.55,216.55,0,0,0-79.15,79.16q-29.18,50-29.18,109.18T30.93,328.44a216.73,216.73,0,0,0,79.16,79.16q50,29.16,109.18,29.17T328.45,407.6a216.63,216.63,0,0,0,79.15-79.16q29.16-50,29.17-109.17T407.6,110.09Z" transform="translate(-1.76 -1.76)"/><g id="_297" data-name="297"><path d="M47.73,197.6q9.44-14.53,36.05-44.52A102,102,0,0,0,76.66,167a152.48,152.48,0,0,0-6.24,18.4,39.31,39.31,0,0,0,0,21.37A30.13,30.13,0,0,0,82.89,224q8.91,6.54,24,6.53,12.16,0,27.9-4.15l86.36-22.85,24-6.53,162.94-42.74L131.56,270.91q-34.73,14.54-57.87,14.54-26.25,0-38-19a41.92,41.92,0,0,1-5.3-20.77,52.64,52.64,0,0,1,1.18-11Q35.07,216.9,47.73,197.6Z" transform="translate(-1.76 -1.76)"/></g></g></svg>