<?xml version="1.0" encoding="iso-8859-1"?>
<!-- Generator: Adobe Illustrator 22.0.1, SVG Export Plug-In . SVG Version: 6.00 Build 0)  -->
<svg version="1.1" id="Layer_1" xmlns="http://www.w3.org/2000/svg" xmlns:xlink="http://www.w3.org/1999/xlink" x="0px" y="0px"
	 viewBox="0 0 438.53 438.53" style="enable-background:new 0 0 438.53 438.53;" xml:space="preserve">
<g id="_x33_">
	<g>
		<path style="fill:#F0F0F0;" d="M358.881,51.938c-2.52-2.096-5.073-4.13-7.663-6.094l-71.873,71.872V10.043
			c-10.039-2.842-20.241-4.952-30.525-6.329V162L358.881,51.938z"/>
		<path style="fill:#F0F0F0;" d="M65.51,373.767l0.009-0.009c-0.147-0.145-0.296-0.286-0.443-0.432
			C65.222,373.473,65.364,373.621,65.51,373.767z"/>
		<path style="fill:#F0F0F0;" d="M60.409,368.487c1.426,1.526,2.883,3.034,4.362,4.528l0.083-0.083L60.409,368.487z"/>
		<path style="fill:#F0F0F0;" d="M4.246,252.466c1.556,10.296,3.848,20.5,6.877,30.528h102.944l-68.212,68.213
			c1.964,2.591,3.999,5.145,6.092,7.666l106.406-106.406H4.246V252.466z"/>
		<path style="fill:#F0F0F0;" d="M187.766,191.412V4.082c-10.292,1.509-20.497,3.75-30.527,6.729v106.904L86.525,47.002
			c-7.303,5.64-14.328,11.805-21.021,18.499c-0.61,0.61-1.2,1.232-1.802,1.848l93.537,93.537v0.001v0.001v-0.001h-28.78
			L50.14,82.569c-2.161,2.668-4.256,5.373-6.272,8.118l70.202,70.202H9.787c-2.792,10.042-4.853,20.244-6.185,30.524
			L187.766,191.412L187.766,191.412z"/>
		<path style="fill:#0052B4;" d="M43.868,90.687c-15.827,21.549-27.179,45.381-34.081,70.202H114.07L43.868,90.687z"/>
		<path style="fill:#0052B4;" d="M11.123,282.994c7.3,24.167,18.88,47.302,34.733,68.213l68.212-68.213L11.123,282.994
			L11.123,282.994z"/>
		<path style="fill:#0052B4;" d="M351.218,45.844c-21.963-16.653-46.383-28.586-71.873-35.801v107.673L351.218,45.844z"/>
		<path style="fill:#0052B4;" d="M157.239,10.812c-25.109,7.457-49.128,19.52-70.714,36.191l70.714,70.714V10.812z"/>
		<path style="fill:#D80027;" d="M248.819,162V3.714C228.561,1,207.995,1.117,187.766,4.082v187.33v0.001H3.602
			c-1.213,9.363-1.835,18.788-1.836,28.215c0,10.981,0.835,21.96,2.48,32.839h154.108L248.819,162z"/>
		<path style="fill:#D80027;" d="M157.239,160.887L157.239,160.887L63.702,67.349c-4.796,4.909-9.323,9.985-13.562,15.22
			l78.319,78.319h28.78V160.887z"/>
		<path style="fill:#F0F0F0;" d="M387.506,322.689H143.285l-36.42,36.42h278.92c13.642-16.211,24.554-33.952,32.72-52.619h-30.999
			L387.506,322.689L387.506,322.689z"/>
		<path style="fill:#F0F0F0;" d="M387.506,96.001v52.619h37.7c-8.367-24.694-21.277-48.174-38.727-69.125l-16.506,16.506
			C369.973,96.001,387.506,96.001,387.506,96.001z"/>
		<path style="fill:#F0F0F0;" d="M436.054,201.239h-48.548v52.632h46.459C436.772,236.465,437.467,218.783,436.054,201.239z"/>
		<path style="fill:#F0F0F0;" d="M64.764,373.021c0.103,0.103,0.209,0.202,0.313,0.305c-0.103-0.103-0.203-0.208-0.306-0.311
			L64.764,373.021z"/>
		<path style="fill:#F0F0F0;" d="M65.52,373.758c1.359,1.344,2.734,2.661,4.12,3.96l-4.04-4.04L65.52,373.758z"/>
		<path style="fill:#F0F0F0;" d="M70.712,378.719c0.352,0.326,0.7,0.66,1.054,0.984v-0.034
			C71.416,379.351,71.06,379.039,70.712,378.719z"/>
		<path style="fill:#F0F0F0;" d="M64.854,372.932l-0.083,0.083c0.102,0.104,0.203,0.208,0.306,0.311
			c0.146,0.146,0.296,0.287,0.443,0.432l0.08-0.08L64.854,372.932z"/>
		<path style="fill:#F0F0F0;" d="M218.904,436.766c34.977-0.004,69.96-8.352,101.66-25.038H117.24
			C148.94,428.417,183.919,436.766,218.904,436.766z"/>
		<path style="fill:#D80027;" d="M387.506,201.239h48.548c-1.436-17.831-5.052-35.514-10.848-52.619h-37.7V201.239z"/>
		<path style="fill:#D80027;" d="M387.506,306.49h30.999c7.409-16.936,12.559-34.629,15.46-52.619h-46.459L387.506,306.49
			L387.506,306.49z"/>
		<path style="fill:#D80027;" d="M71.766,379.703c0.733,0.671,1.483,1.311,2.223,1.971c-0.748-0.661-1.484-1.334-2.223-2.004
			V379.703z"/>
		<path style="fill:#D80027;" d="M79.541,386.433c-1.533-1.265-3.043-2.555-4.539-3.861c13.13,11.558,27.311,21.298,42.237,29.156
			h203.325c18.886-9.941,36.607-22.838,52.466-38.7c4.494-4.493,8.735-9.144,12.754-13.919h-278.92L79.541,386.433z"/>
		<polygon style="fill:#2E52B2;" points="328.826,148.054 333.911,132.409 338.989,148.054 355.437,148.054 354.658,148.62 
			387.506,148.62 387.506,96.001 369.973,96.001 317.92,148.054 		"/>
		<polygon style="fill:#2E52B2;" points="143.285,322.689 387.506,322.689 387.506,306.49 159.484,306.49 		"/>
		<polygon style="fill:#2E52B2;" points="338.989,204.509 355.437,204.509 342.128,214.172 347.213,229.815 333.911,220.151 
			320.602,229.815 325.686,214.172 312.379,204.509 328.826,204.509 329.889,201.239 268.413,201.239 269.475,204.509 
			285.923,204.509 272.614,214.172 277.699,229.815 264.396,220.151 251.089,229.815 256.172,214.172 253.64,212.334 
			212.103,253.871 261.616,253.871 264.396,245.319 267.172,253.871 331.131,253.871 333.911,245.319 336.688,253.871 
			387.506,253.871 387.506,201.239 337.928,201.239 		"/>
		<polygon style="fill:#2E52B2;" points="354.658,148.62 342.128,157.719 347.213,173.361 333.911,163.697 320.602,173.361 
			325.686,157.719 315.589,150.385 267.512,198.462 268.413,201.239 329.889,201.239 333.911,188.865 337.928,201.239 
			387.506,201.239 387.506,148.62 		"/>
		<polygon style="fill:#2E52B2;" points="338.989,260.962 355.437,260.962 342.128,270.627 347.213,286.269 333.911,276.605 
			320.602,286.269 325.686,270.627 312.379,260.962 328.826,260.962 331.131,253.871 267.172,253.871 269.475,260.962 
			285.923,260.962 272.614,270.627 277.699,286.269 264.396,276.605 251.089,286.269 256.172,270.627 242.864,260.962 
			259.312,260.962 261.616,253.871 212.103,253.871 205.012,260.962 216.408,260.962 203.099,270.627 208.183,286.269 
			194.882,276.605 181.573,286.269 182.473,283.501 159.484,306.49 387.506,306.49 387.506,253.871 336.688,253.871 		"/>
		<polygon style="fill:#F0F0F0;" points="181.573,286.269 194.882,276.605 208.183,286.269 203.099,270.627 216.408,260.962 
			205.012,260.962 182.473,283.501 		"/>
		<polygon style="fill:#F0F0F0;" points="253.64,212.334 256.172,214.172 251.089,229.815 264.396,220.151 277.699,229.815 
			272.614,214.172 285.923,204.509 269.475,204.509 268.413,201.239 264.735,201.239 		"/>
		<polygon style="fill:#F0F0F0;" points="268.413,201.239 267.512,198.462 264.735,201.239 		"/>
		<polygon style="fill:#F0F0F0;" points="264.396,245.319 261.616,253.871 267.172,253.871 		"/>
		<polygon style="fill:#F0F0F0;" points="242.864,260.962 256.172,270.627 251.089,286.269 264.396,276.605 277.699,286.269 
			272.614,270.627 285.923,260.962 269.475,260.962 267.172,253.871 261.616,253.871 259.312,260.962 		"/>
		<polygon style="fill:#F0F0F0;" points="333.911,245.319 331.131,253.871 336.688,253.871 		"/>
		<polygon style="fill:#F0F0F0;" points="312.379,260.962 325.686,270.627 320.602,286.269 333.911,276.605 347.213,286.269 
			342.128,270.627 355.437,260.962 338.989,260.962 336.688,253.871 331.131,253.871 328.826,260.962 		"/>
		<polygon style="fill:#F0F0F0;" points="312.379,204.509 325.686,214.172 320.602,229.815 333.911,220.151 347.213,229.815 
			342.128,214.172 355.437,204.509 338.989,204.509 337.928,201.239 329.889,201.239 328.826,204.509 		"/>
		<polygon style="fill:#F0F0F0;" points="333.911,188.865 329.889,201.239 337.928,201.239 		"/>
		<polygon style="fill:#F0F0F0;" points="338.989,148.054 333.911,132.409 328.826,148.054 317.92,148.054 317.354,148.62 
			354.658,148.62 355.437,148.054 		"/>
		<polygon style="fill:#F0F0F0;" points="315.589,150.385 325.686,157.719 320.602,173.361 333.911,163.697 347.213,173.361 
			342.128,157.719 354.658,148.62 317.354,148.62 		"/>
		<path style="fill:#FFFFFF;" d="M51.778,359.042c2.055,2.421,4.158,4.8,6.315,7.13l2.316,2.316
			c-2.933-3.139-5.75-6.347-8.462-9.614L51.778,359.042z"/>
		<path style="fill:#FFFFFF;" d="M373.022,64.764l0.009-0.009c0.111,0.111,0.217,0.226,0.328,0.337
			c0.138,0.138,0.28,0.27,0.418,0.409l-0.011,0.011c4.476,4.518,8.715,9.183,12.713,13.983l0.325-0.325
			c-8.418-9.927-17.705-19.102-27.756-27.399l-0.167,0.167c0.115,0.096,0.233,0.188,0.348,0.284
			C363.96,56.173,368.564,60.351,373.022,64.764z"/>
		<path style="fill:#FFFFFF;" d="M75.002,382.572c-0.339-0.298-0.676-0.598-1.013-0.898
			C74.327,381.972,74.662,382.275,75.002,382.572z"/>
		<path style="fill:#FFFFFF;" d="M69.986,378.064c0.239,0.221,0.486,0.434,0.726,0.654c-0.358-0.332-0.715-0.666-1.072-1.001
			L69.986,378.064z"/>
		<path style="fill:#FFFFFF;" d="M248.819,188.966l21.191-21.191l4.432-4.432l4.903-4.903v-26.333l79.884-79.885
			c-0.115-0.096-0.233-0.188-0.348-0.284L248.819,162V188.966z"/>
		<path style="fill:#FFFFFF;" d="M71.766,366.02l2.326-2.326l0,0l4.585-4.585l36.42-36.42l16.199-16.199l44.067-44.067l1.462-1.462
			l7.091-7.091l1.405-1.405h-26.966L51.947,358.873c2.712,3.267,5.529,6.475,8.462,9.614l4.445,4.445L71.766,366.02z"/>
		<polygon style="fill:#FFFFFF;" points="208.131,229.655 236.547,201.239 248.819,188.966 248.819,162 158.353,252.466 
			185.319,252.466 208.06,229.726 		"/>
		<path style="fill:#FFFFFF;" d="M373.776,65.501c-0.138-0.138-0.28-0.271-0.418-0.409c0.138,0.138,0.27,0.281,0.407,0.419
			L373.776,65.501z"/>
		<path style="fill:#FFFFFF;" d="M341.784,96.001l21.932-21.932l9.306-9.306c-4.458-4.413-9.062-8.591-13.792-12.541l-79.884,79.885
			v26.333l9.82-9.82L341.784,96.001z"/>
		<polygon style="fill:#FFFFFF;" points="80.169,359.109 106.865,359.109 143.285,322.689 116.589,322.689 		"/>
		<polygon style="fill:#FFFFFF;" points="115.097,322.689 78.677,359.109 80.169,359.109 116.589,322.689 		"/>
		<path style="fill:#FFFFFF;" d="M364.462,74.816l-21.186,21.186h26.696l16.506-16.506c-3.998-4.8-8.238-9.465-12.713-13.983
			L364.462,74.816z"/>
		<path style="fill:#FFFFFF;" d="M373.031,64.755l-0.009,0.009c0.112,0.11,0.225,0.218,0.336,0.329
			C373.247,64.981,373.142,64.866,373.031,64.755z"/>
		<path style="fill:#FFFFFF;" d="M341.784,96.001h1.492l21.186-21.186l9.304-9.304c-0.137-0.139-0.269-0.281-0.407-0.419
			c-0.111-0.111-0.225-0.218-0.336-0.329l-9.306,9.306L341.784,96.001z"/>
		<path style="fill:#FFFFFF;" d="M71.766,367.512l-6.166,6.166l4.04,4.04c0.357,0.334,0.714,0.669,1.072,1.001
			c0.348,0.32,0.704,0.633,1.054,0.951V367.512z"/>
		<polygon style="fill:#FFFFFF;" points="64.854,372.932 65.6,373.678 71.766,367.512 71.766,366.02 		"/>
		<path style="fill:#FFFFFF;" d="M106.865,359.109H80.169l-5.331,5.331l0,0l-3.072,3.072v12.157
			c0.739,0.671,1.475,1.343,2.223,2.004c0.337,0.3,0.675,0.6,1.013,0.898c1.496,1.306,3.006,2.597,4.539,3.861L106.865,359.109z"/>
		<polygon style="fill:#FFFFFF;" points="74.092,363.694 74.092,363.694 71.766,366.02 71.766,367.512 74.838,364.44 74.838,364.44 
			80.169,359.109 78.677,359.109 		"/>
		<polygon style="fill:#FFFFFF;" points="313.159,148.62 312.379,148.054 317.92,148.054 369.973,96.001 343.276,96.001 
			290.657,148.62 		"/>
		<polygon style="fill:#FFFFFF;" points="289.165,148.62 290.657,148.62 343.276,96.001 341.784,96.001 		"/>
		<polygon style="fill:#FFFFFF;" points="132.788,306.49 116.589,322.689 143.285,322.689 159.484,306.49 		"/>
		<polygon style="fill:#FFFFFF;" points="132.788,306.49 131.295,306.49 115.097,322.689 116.589,322.689 		"/>
		<polygon style="fill:#FFFFFF;" points="259.312,204.509 260.374,201.239 238.039,201.239 186.811,252.466 185.406,253.871 
			192.102,253.871 194.882,245.319 197.658,253.871 212.103,253.871 253.64,212.334 242.864,204.509 		"/>
		<polygon style="fill:#FFFFFF;" points="186.811,252.466 185.319,252.466 183.914,253.871 185.406,253.871 		"/>
		<polygon style="fill:#FFFFFF;" points="238.039,201.239 236.547,201.239 208.131,229.655 208.183,229.815 208.06,229.726 
			185.319,252.466 186.811,252.466 		"/>
		<polygon style="fill:#FFFFFF;" points="290.657,148.62 279.346,159.932 274.808,164.47 277.699,173.361 270.874,168.404 
			248.819,190.458 238.039,201.239 260.374,201.239 264.396,188.865 267.512,198.462 315.589,150.385 313.159,148.62 		"/>
		<polygon style="fill:#FFFFFF;" points="270.874,168.404 270.01,167.776 248.819,188.966 248.819,190.458 		"/>
		<polygon style="fill:#FFFFFF;" points="279.346,159.932 279.346,158.44 274.442,163.344 274.808,164.47 		"/>
		<polygon style="fill:#FFFFFF;" points="238.039,201.239 248.819,190.458 248.819,188.966 236.547,201.239 		"/>
		<polygon style="fill:#FFFFFF;" points="290.657,148.62 289.165,148.62 279.346,158.44 279.346,159.932 		"/>
		<polygon style="fill:#FFFFFF;" points="192.102,253.871 185.406,253.871 178.316,260.962 189.797,260.962 		"/>
		<polygon style="fill:#FFFFFF;" points="185.406,253.871 183.914,253.871 176.824,260.962 178.316,260.962 		"/>
		<polygon style="fill:#FFFFFF;" points="176.226,263.051 132.788,306.49 159.484,306.49 182.473,283.501 186.658,270.627 		"/>
		<polygon style="fill:#FFFFFF;" points="199.959,260.962 205.012,260.962 212.103,253.871 197.658,253.871 		"/>
		<polygon style="fill:#FFFFFF;" points="176.226,263.051 175.362,262.424 131.295,306.49 132.788,306.49 		"/>
		<polygon style="fill:#FFFFFF;" points="208.183,229.815 208.131,229.655 208.06,229.726 		"/>
		<polygon style="fill:#FFFFFF;" points="194.882,245.319 192.102,253.871 197.658,253.871 		"/>
		<polygon style="fill:#FFFFFF;" points="197.658,253.871 192.102,253.871 189.797,260.962 178.316,260.962 176.226,263.051 
			186.658,270.627 182.473,283.501 205.012,260.962 199.959,260.962 		"/>
		<polygon style="fill:#FFFFFF;" points="178.316,260.962 176.824,260.962 175.362,262.424 176.226,263.051 		"/>
		<polygon style="fill:#FFFFFF;" points="260.374,201.239 259.312,204.509 242.864,204.509 253.64,212.334 264.735,201.239 		"/>
		<polygon style="fill:#FFFFFF;" points="260.374,201.239 264.735,201.239 267.512,198.462 264.396,188.865 		"/>
		<polygon style="fill:#FFFFFF;" points="274.808,164.47 270.874,168.404 277.699,173.361 		"/>
		<polygon style="fill:#FFFFFF;" points="274.808,164.47 274.442,163.344 270.01,167.776 270.874,168.404 		"/>
		<polygon style="fill:#FFFFFF;" points="317.92,148.054 312.379,148.054 313.159,148.62 317.354,148.62 		"/>
		<polygon style="fill:#FFFFFF;" points="313.159,148.62 315.589,150.385 317.354,148.62 		"/>
	</g>
</g>
</svg>
