<svg id="Layer_1" data-name="Layer 1" xmlns="http://www.w3.org/2000/svg" viewBox="0 0 435 435"><defs><style>.cls-1{fill:#f4f4f4;}.cls-2{fill:#004a93;fill-rule:evenodd;}</style></defs><title>303</title><g id="ALL"><path class="cls-1" d="M407.6,110.09a216.63,216.63,0,0,0-79.15-79.16q-50-29.16-109.18-29.17T110.09,30.93a216.55,216.55,0,0,0-79.15,79.16q-29.18,50-29.18,109.18T30.93,328.44a216.73,216.73,0,0,0,79.16,79.16q50,29.16,109.18,29.17T328.45,407.6a216.63,216.63,0,0,0,79.15-79.16q29.16-50,29.17-109.17T407.6,110.09Z" transform="translate(-1.76 -1.76)"/><g id="_303" data-name="303"><path id="path37647" class="cls-2" d="M238,293.94v-147c0-11.86-5-15.73-16.22-15.73h-33.7v16.23h3.75c6.24,0,8.73,2.37,8.73,9.61V293.94Zm20,0h36.2V183c0-11.23-5-15.73-16.23-15.73H258Zm-77.37,0V167.26h-20c-11.24,0-16.23,4.5-16.23,15.73v111Zm156-73.88c0,68.76-49.92,118.93-117.32,118.93S102,288.82,102,220.06s49.92-118.94,117.31-118.94,117.32,50.17,117.32,118.94m23.71,0c0-80.5-59.9-140.91-141-140.91-79.87,0-141,60.41-141,140.91,0,80.74,61.15,141.15,141,141.15,81.13,0,141-60.41,141-141.15" transform="translate(-1.76 -1.76)"/></g></g></svg>