<svg id="Layer_1" data-name="Layer 1" xmlns="http://www.w3.org/2000/svg" viewBox="0 0 435 435"><defs><style>.cls-1{fill:#f4f4f4;}.cls-2{fill:#d52b1e;}</style></defs><title>304</title><g id="ALL"><path class="cls-1" d="M407.6,110.09a216.63,216.63,0,0,0-79.15-79.16q-50-29.16-109.18-29.17T110.09,30.93a216.55,216.55,0,0,0-79.15,79.16q-29.18,50-29.18,109.18T30.93,328.44a216.73,216.73,0,0,0,79.16,79.16q50,29.16,109.18,29.17T328.45,407.6a216.63,216.63,0,0,0,79.15-79.16q29.16-50,29.17-109.17T407.6,110.09Z" transform="translate(-1.76 -1.76)"/><g id="_304" data-name="304"><polygon class="cls-2" points="393.55 168.64 372.63 213.4 364.76 196.44 356.25 196.44 369.19 224.18 376.07 224.18 402 168.64 393.55 168.64"/><path d="M305.57,253.51h16.84V222.68c0-7.05,4.08-12,10.14-12,5.83,0,8.86,4.08,8.86,10v32.87h16.84V217.44c0-12.24-7.34-20.87-19.23-20.87-7.58,0-12.88,3.27-16.84,9.21h-.35v-7.57H305.51l.06,55.3Zm-33.1-56.82c-17.6,0-29.38,12.65-29.38,29.31s11.78,29.32,29.38,29.32,29.37-12.76,29.37-29.32S290.07,196.69,272.47,196.69Zm-.12,46.16c-8,0-12.24-6.71-12.24-16.85s4.2-16.84,12.24-16.84,12.41,6.59,12.41,16.84S280.39,242.85,272.35,242.85Zm-77.28,10.66h47.32V240.22h-26.8v-.35l25.64-28.73v-13H195.07v13.34H221v.35l-25.94,29v12.7Zm-21.62,0h17v-55.3h-17Zm-39.34,0H151V228.1c0-11.54,6.93-16.67,17.48-15.21h.35V198.32a9.22,9.22,0,0,0-3.44-.41c-6.59,0-11,3-14.8,9.5h-.35v-9.2H134.11v55.3Zm-31-10.61c-7.46,0-12-4.83-12.88-12.29h39.86c.12-11.89-3-21.39-9.61-27.33-4.66-4.32-10.78-6.71-18.59-6.71-16.67,0-28.21,12.65-28.21,29.2s11,29.37,29.31,29.37a29.18,29.18,0,0,0,17-4.95c4.84-3.32,8.34-8.22,9.27-13.05H113C111.44,240.75,108.06,242.9,103.11,242.9Zm-.87-34.26c5.94,0,10,4.43,10.72,10.9H90.35C91.69,213,95.24,208.64,102.24,208.64ZM40,253.51H57.71l19.23-55.3H60L49.2,233.76H49L38.19,198.21H20.76Zm133.45-75h17v15h-17Z" transform="translate(-1.76 -1.76)"/></g></g></svg>