<svg id="Layer_1" data-name="Layer 1" xmlns="http://www.w3.org/2000/svg" viewBox="0 0 435 435"><defs><style>.cls-1{fill:#f4f4f4;}.cls-2{fill:#010202;}</style></defs><title>309</title><g id="ALL"><path class="cls-1" d="M407.6,110.09a216.63,216.63,0,0,0-79.15-79.16q-50-29.16-109.18-29.17T110.09,30.93a216.55,216.55,0,0,0-79.15,79.16q-29.18,50-29.18,109.18T30.93,328.44a216.73,216.73,0,0,0,79.16,79.16q50,29.16,109.18,29.17T328.45,407.6a216.63,216.63,0,0,0,79.15-79.16q29.16-50,29.17-109.17T407.6,110.09Z" transform="translate(-1.76 -1.76)"/><g id="_309" data-name="309"><path class="cls-2" d="M60.39,246a30.47,30.47,0,0,0,6.3,10.33,27.08,27.08,0,0,0,9.54,6.57,31.07,31.07,0,0,0,12,2.27A29.6,29.6,0,0,0,100,262.77a28.91,28.91,0,0,0,9.63-6.65,30.22,30.22,0,0,0,6.39-10.24,37,37,0,0,0,2.28-13.31V156.94h18.38V279.49H118.51V268.11a42.09,42.09,0,0,1-14.44,10,45.89,45.89,0,0,1-17.95,3.5,48.69,48.69,0,0,1-18.29-3.41,42.92,42.92,0,0,1-14.71-9.72,45.84,45.84,0,0,1-9.8-15.14,51.81,51.81,0,0,1-3.59-19.7V156.94H58.11v75.63A37.62,37.62,0,0,0,60.39,246Z" transform="translate(-1.76 -1.76)"/><path class="cls-2" d="M168.41,156.94v44.64a46.77,46.77,0,0,1,14.18-9.71,42.39,42.39,0,0,1,17.51-3.59A46.19,46.19,0,0,1,218.48,192a46.32,46.32,0,0,1,24.86,24.86A45.77,45.77,0,0,1,247,235a45.12,45.12,0,0,1-3.68,18.12,46.53,46.53,0,0,1-24.86,24.78,46.19,46.19,0,0,1-18.38,3.67A43,43,0,0,1,182.5,278a46.57,46.57,0,0,1-14.27-9.71v11.2H150.72V156.94Zm2,90.16a30.36,30.36,0,0,0,6.57,9.81,31.53,31.53,0,0,0,9.8,6.65A29.85,29.85,0,0,0,198.87,266a29.41,29.41,0,0,0,11.9-2.45,30.5,30.5,0,0,0,9.72-6.65,32.6,32.6,0,0,0,6.57-9.81A29.85,29.85,0,0,0,229.51,235a30.52,30.52,0,0,0-2.45-12.17,32.37,32.37,0,0,0-6.57-9.89,29.32,29.32,0,0,0-9.72-6.56A30.78,30.78,0,0,0,177.16,213a31.36,31.36,0,0,0-6.65,9.89,31.77,31.77,0,0,0-.09,24.25Z" transform="translate(-1.76 -1.76)"/><path class="cls-2" d="M257,217a47.83,47.83,0,0,1,9.63-14.79A46.32,46.32,0,0,1,317.22,192a42.56,42.56,0,0,1,14.18,9.72,44.43,44.43,0,0,1,9.28,14.71A50.12,50.12,0,0,1,344,234.85v5.78H271.35a29.88,29.88,0,0,0,3.5,10.06,30.21,30.21,0,0,0,6.57,8.05,29.82,29.82,0,0,0,8.92,5.34,29.07,29.07,0,0,0,10.6,1.93q15.93,0,25.73-13.13l12.78,9.45a46.62,46.62,0,0,1-38.51,19.09,49.39,49.39,0,0,1-18.65-3.5,45.49,45.49,0,0,1-15.05-9.81,46.47,46.47,0,0,1-10.07-14.79A47.76,47.76,0,0,1,257,217Zm24.6-6.92a29.84,29.84,0,0,0-9.89,16.55h54.45a29,29,0,0,0-9.72-16.55,27.54,27.54,0,0,0-34.84,0Z" transform="translate(-1.76 -1.76)"/><path class="cls-2" d="M377.09,212.09q-5.59,6.12-5.6,16.63v50.77H353.81V190.2h17.51v11a24.78,24.78,0,0,1,8.66-8.58,24.53,24.53,0,0,1,12.69-3.15h6.13V206h-7.35A18.58,18.58,0,0,0,377.09,212.09Z" transform="translate(-1.76 -1.76)"/></g></g></svg>