<svg id="Layer_1" data-name="Layer 1" xmlns="http://www.w3.org/2000/svg" viewBox="0 0 435 435"><defs><style>.cls-1{fill:#f4f4f4;}</style></defs><title>310</title><g id="ALL"><path class="cls-1" d="M407.6,110.09a216.63,216.63,0,0,0-79.15-79.16q-50-29.16-109.18-29.17T110.09,30.93a216.55,216.55,0,0,0-79.15,79.16q-29.18,50-29.18,109.18T30.93,328.44a216.73,216.73,0,0,0,79.16,79.16q50,29.16,109.18,29.17T328.45,407.6a216.63,216.63,0,0,0,79.15-79.16q29.16-50,29.17-109.17T407.6,110.09Z" transform="translate(-1.76 -1.76)"/><g id="_310" data-name="310"><polygon id="polygon5" points="276.2 236.67 277.83 236.67 277.83 248.84 284.7 248.84 284.7 250.26 276.2 250.26 276.2 236.67"/><rect id="rect7" x="296.69" y="236.67" width="1.62" height="13.59"/><polygon id="polygon9" points="313.44 236.22 318.45 247.37 323.38 236.22 323.63 236.22 326.49 250.26 324.87 250.26 323.04 240.58 323 240.58 318.56 250.73 318.27 250.73 313.77 240.58 313.74 240.58 311.86 250.26 310.31 250.26 313.19 236.22 313.44 236.22"/><rect id="rect11" x="338.52" y="236.67" width="1.62" height="13.59"/><polygon id="polygon13" points="363.88 236.67 363.88 238.11 358.73 238.11 358.73 250.26 357.11 250.26 357.11 238.11 351.95 238.11 351.95 236.67 363.88 236.67"/><polygon id="polygon15" points="375.54 236.67 383.49 236.67 383.49 238.11 377.16 238.11 377.16 242.47 382.68 242.47 382.68 243.89 377.16 243.89 377.16 248.84 383.57 248.84 383.57 250.26 375.54 250.26 375.54 236.67"/><path id="path17" d="M401.79,238.44c4.64,0,7.66,2.66,7.66,6.79s-3,6.79-7.66,6.79h-4V238.44Zm-2.42,12.17h2.22c3.76,0,6.23-2.13,6.23-5.37s-2.47-5.37-6.23-5.37h-2.22v10.74Z" transform="translate(-1.76 -1.76)"/><polygon id="polygon19" points="92.18 185.45 96.33 185.45 96.33 216.53 113.89 216.53 113.89 220.19 92.18 220.19 92.18 185.45"/><path id="path21" d="M149.74,187.22v20.23c0,7.84,3.75,12,10.76,12,7.19,0,10.85-4.69,10.85-13.81V187.22h3.55v19.83c0,10.5-5.13,16.08-14.75,16.08-9.37,0-14.56-5.72-14.56-16.08V187.22Z" transform="translate(-1.76 -1.76)"/><polygon id="polygon23" points="211.07 184.27 223.85 212.78 236.47 184.27 237.11 184.27 244.42 220.19 240.27 220.19 235.59 195.42 235.49 195.42 224.14 221.37 223.4 221.37 211.91 195.42 211.81 195.42 207.02 220.19 203.08 220.19 210.43 184.27 211.07 184.27"/><rect id="rect25" x="275.15" y="185.45" width="4.14" height="34.74"/><polygon id="polygon27" points="312.94 184.27 313.83 184.27 339.18 212.34 339.18 185.45 342.93 185.45 342.93 221.37 342.04 221.37 316.69 193.3 316.69 220.19 312.94 220.19 312.94 184.27"/><polygon id="polygon29" points="45.57 184.27 44.83 184.27 27.32 220.19 31.61 220.19 45.03 191.92 56.71 216.54 41.02 216.54 39.32 220.19 63.03 220.19 45.57 184.27"/><polygon id="polygon31" points="390 184.27 389.26 184.27 371.74 220.19 376.03 220.19 389.45 191.92 401.14 216.54 385.44 216.54 383.75 220.19 407.46 220.19 390 184.27"/></g></g></svg>