<svg xmlns="http://www.w3.org/2000/svg" viewBox="0 0 435 435"><defs><style>.a{fill:#f4f4f4;}.b{fill:#4ac7f4;}.c{fill:#bfd635;}.d{fill:#d6822a;}.e{fill:#949698;}</style></defs><title>311</title><path class="a" d="M405.8,108.3a217.4,217.4,0,0,0-79.1-79.1Q276.8-.1,217.5,0T108.3,29.2a217.4,217.4,0,0,0-79.1,79.1Q-.1,158.4,0,217.5C0,257,9.7,293.3,29.2,326.7a217.4,217.4,0,0,0,79.1,79.1q50.1,29.3,109.2,29.2t109.2-29.2a217.4,217.4,0,0,0,79.1-79.1C425.3,293.3,435,257,435,217.5S425.3,141.7,405.8,108.3Z" transform="translate(0 0)"/><path class="b" d="M269.1,97c1.3,26.5-1.7,47.6-9.8,68.4-18.9,48.2-77.4,49.9-106.8,27.6-17.9-13.6-30-31.4-38.1-51.8-1.8-4.7-.3-13.1,3-17.1,30-36.3,68.3-57.8,115.7-62.1,7.3-.7,14.7-1.7,22-2.5,8.8-1,14.5,1.4,14.1,11.8S269.1,91.5,269.1,97Z" transform="translate(0 0)"/><path class="c" d="M149.3,201.5c55.7,24.7,108.3,12.3,125.5-61.4l49,22.7c-17.5,37.6-36.1,72.1-71.6,94.2-32.4,20.1-79.1-1.5-93.7-31.9C155.3,218.6,153.2,211.5,149.3,201.5Z" transform="translate(0 0)"/><path class="d" d="M253.8,325.2c1.3,19.5,2.5,36.2,3.7,54.4-39.8,3.4-77.2,4.6-112.8-12.3-43.5-20.5-46.6-87-6.5-116.6.4,29.6,12,53.2,34.9,70C197.5,338.7,224.4,333.8,253.8,325.2Z" transform="translate(0 0)"/><path class="e" d="M289.1,235.8c10.5,15.1,19.8,28.5,30.7,44-11.3,7.4-21.1,14.2-31.2,20.4-19.7,11.9-40.5,20.7-63.4,24.4-45,7.2-85.6-32.5-78.5-77.5.8-4.6,1.4-9.3,2.4-16.8,4.4,3.8,7.8,5.8,10,8.8,23.8,31.4,76.5,50.6,118,8.2C280.4,243.9,283.8,240.8,289.1,235.8Z" transform="translate(0 0)"/></svg>