<svg id="Layer_1" data-name="Layer 1" xmlns="http://www.w3.org/2000/svg" viewBox="0 0 435 435"><defs><style>.cls-1{fill:#f4f4f4;}.cls-2{fill:#004f7f;}.cls-3{fill:#0084c3;}.cls-4{fill:#76cccd;}.cls-5{fill:#75c043;}.cls-6{fill:#00aa4f;}.cls-7{fill:#c4d92d;}.cls-8{fill:#d7a96f;}.cls-9{fill:#eee1c5;}.cls-10{fill:#e2c197;}.cls-11{fill:#00b3c2;}.cls-12{fill:#df9d88;}.cls-13{fill:#ed1c24;}.cls-14{fill:#68c3ee;}.cls-15{fill:#f58020;}.cls-16{fill:#c3262d;}.cls-17{fill:#faa61a;}.cls-18{fill:#8e181b;}</style></defs><title>312</title><g id="ALL"><path class="cls-1" d="M407.6,110.09a216.63,216.63,0,0,0-79.15-79.16q-50-29.16-109.18-29.17T110.09,30.93a216.55,216.55,0,0,0-79.15,79.16q-29.18,50-29.18,109.18T30.93,328.44a216.73,216.73,0,0,0,79.16,79.16q50,29.16,109.18,29.17T328.45,407.6a216.63,216.63,0,0,0,79.15-79.16q29.16-50,29.17-109.17T407.6,110.09Z" transform="translate(-1.76 -1.76)"/><g id="_312" data-name="312"><polygon class="cls-2" points="87.5 139.5 139.5 139.5 139.5 87.5 87.5 87.5 87.5 139.5"/><polygon class="cls-3" points="87.5 191.5 139.5 191.5 139.5 139.5 87.5 139.5 87.5 191.5"/><polygon class="cls-4" points="87.5 243.5 139.5 243.5 139.5 191.5 87.5 191.5 87.5 243.5"/><polygon class="cls-5" points="87.5 295.5 139.5 295.5 139.5 243.5 87.5 243.5 87.5 295.5"/><polygon class="cls-6" points="87.5 347.5 139.5 347.5 139.5 295.5 87.5 295.5 87.5 347.5"/><polygon class="cls-5" points="139.5 347.5 191.5 347.5 191.5 295.5 139.5 295.5 139.5 347.5"/><polygon class="cls-7" points="191.5 347.5 243.5 347.5 243.5 295.5 191.5 295.5 191.5 347.5"/><polygon class="cls-8" points="243.5 347.5 295.5 347.5 295.5 295.5 243.5 295.5 243.5 347.5"/><polygon class="cls-9" points="295.5 347.5 347.5 347.5 347.5 295.5 295.5 295.5 295.5 347.5"/><polygon class="cls-7" points="139.5 295.5 191.5 295.5 191.5 243.5 139.5 243.5 139.5 295.5"/><polygon class="cls-9" points="191.5 295.5 243.5 295.5 243.5 243.5 191.5 243.5 191.5 295.5"/><polygon class="cls-10" points="243.5 295.5 295.5 295.5 295.5 243.5 243.5 243.5 243.5 295.5"/><polygon class="cls-8" points="295.5 295.5 347.5 295.5 347.5 243.5 295.5 243.5 295.5 295.5"/><polygon class="cls-11" points="139.5 243.5 191.5 243.5 191.5 191.5 139.5 191.5 139.5 243.5"/><polygon class="cls-10" points="191.5 243.5 243.5 243.5 243.5 191.5 191.5 191.5 191.5 243.5"/><polygon class="cls-12" points="243.5 243.5 295.5 243.5 295.5 191.5 243.5 191.5 243.5 243.5"/><polygon class="cls-13" points="295.5 243.5 347.5 243.5 347.5 191.5 295.5 191.5 295.5 243.5"/><polygon class="cls-14" points="139.5 191.5 191.5 191.5 191.5 139.5 139.5 139.5 139.5 191.5"/><polygon class="cls-15" points="191.5 191.5 243.5 191.5 243.5 139.5 191.5 139.5 191.5 191.5"/><polygon class="cls-13" points="243.5 191.5 295.5 191.5 295.5 139.5 243.5 139.5 243.5 191.5"/><polygon class="cls-16" points="295.5 191.5 347.5 191.5 347.5 139.5 295.5 139.5 295.5 191.5"/><polygon class="cls-3" points="139.5 139.5 191.5 139.5 191.5 87.5 139.5 87.5 139.5 139.5"/><polygon class="cls-17" points="191.5 139.5 243.5 139.5 243.5 87.5 191.5 87.5 191.5 139.5"/><polygon class="cls-16" points="243.5 139.5 295.5 139.5 295.5 87.5 243.5 87.5 243.5 139.5"/><polygon class="cls-18" points="295.5 139.5 347.5 139.5 347.5 87.5 295.5 87.5 295.5 139.5"/></g></g></svg>