<?xml version="1.0" encoding="UTF-8"?>
<svg width="436px" height="436px" viewBox="0 0 436 436" version="1.1" xmlns="http://www.w3.org/2000/svg" xmlns:xlink="http://www.w3.org/1999/xlink">
    <!-- Generator: Sketch 64 (93537) - https://sketch.com -->
    <title>GBP_ZAR</title>
    <desc>Created with Sketch.</desc>
    <g id="Page-1" stroke="none" stroke-width="1" fill="none" fill-rule="evenodd">
        <g id="GBP_ZAR">
            <g id="USD_ZAR-Copy" transform="translate(21.000000, 50.000000)">
                <path d="M86.493,355.866 C87.283,356.33 88.079,356.778 88.873,357.23 L108.308,337.192 L86.493,355.866 Z" id="Path"></path>
                <path d="M400.308,246.198 C396.677,255.671 392.373,264.942 387.374,273.929 L387.374,273.929 L325.107,273.929 L238.838,360.197 L238.836,360.197 L213.939,385.095 C208.897222,385.487 203.845963,385.714654 198.792948,385.761107 L196.898,385.77 C194.094,385.77 191.29,385.701 188.488,385.594 L188.488,385.594 L211.287,360.197 L211.288,360.196 L313.621,246.198 Z" id="Combined-Shape" fill="#F0F0F0"></path>
                <path d="M414.715,163.008 L325.107,163.008 L277.476,115.377 L257.868,134.985 L313.621,190.738 L413.569,190.738 C414.532,181.525 414.921,172.262 414.715,163.008 Z" id="Path" fill="#F0F0F0" fill-rule="nonzero"></path>
                <path d="M128.76,316.104 L88.873,357.23 C78.7854976,351.307516 66.6985482,343.136836 57.4806855,335.452805 C54.2863804,332.790025 54.4784853,332.57109 58.057,334.796 L58.057,334.796 L128.76,264.093 L128.76,264.094 L198.923,193.93 L223.452,218.47 L128.76,316.104 L128.76,316.104 Z" id="Combined-Shape" fill="#000000" fill-rule="nonzero"></path>
                <path d="M42.76,322.026 C42.877,322.143 42.997,322.253 43.114,322.369 C42.998,322.252 42.886,322.132 42.77,322.015 L42.76,322.026 Z" id="Path" fill="#000000" fill-rule="nonzero"></path>
                <path d="M128.76,316.104 L223.452,218.47 L198.923,193.93 L208.037,184.817 L218.518,174.335 L262.623,218.469 L128.76,352.367 L112.69,368.442 L112.648,368.917 C104.541,365.531 96.601,361.636 88.873,357.23 L88.873,357.23 L108.308,337.192 L128.76,319.684 L128.76,316.104 Z" id="Combined-Shape" fill="#FFDA44" fill-rule="nonzero"></path>
                <polygon id="Path" fill="#FFDA44" fill-rule="nonzero" points="108.307 337.192 128.76 319.684 128.76 316.104"></polygon>
                <path d="M188.489,385.595 C163.399,384.635 138.447,379.392 114.842,369.837 L114.842,369.837 L128.76,355.581 L262.622,218.469 L218.518,174.335 L257.867,134.986 L313.622,190.739 L413.57,190.739 C411.598,209.611 407.18,228.27 400.308,246.199 L400.308,246.199 L313.621,246.199 L211.288,360.197 Z" id="Combined-Shape" fill="#6DA544" fill-rule="nonzero"></path>
                <path d="M128.76,352.367 L112.689,368.442 L112.647,368.917 C113.379,369.223 114.107,369.539 114.841,369.837 L128.759,355.581 L128.759,352.367 L128.76,352.367 Z" id="Path" fill="#6DA544" fill-rule="nonzero"></path>
                <polygon id="Path" fill="#6DA544" fill-rule="nonzero" points="128.76 355.581 262.623 218.469 128.76 352.367"></polygon>
                <path d="M238.838,360.197 L325.106,273.929 L387.373,273.929 C377.777,291.181 365.662,307.397 351.025,322.032 C335.445,337.615 318.063,350.329 299.549,360.197 L299.549,360.197 C272.728,374.493 243.526,382.792 213.94,385.095 L213.94,385.095 L238.838,360.197 L238.838,360.197 Z" id="Combined-Shape" fill="#0052B4" fill-rule="nonzero"></path>
                <path d="M394.904,76.741 C387.064,59.665 376.901,43.403 364.42,28.434 L316.113,76.741 L394.904,76.741 Z" id="Path" fill="#D80027" fill-rule="nonzero"></path>
                <path d="M277.476,115.378 L325.107,163.009 L414.715,163.009 C414.059,133.486 407.452,104.074 394.903,76.741 L316.112,76.741 L277.476,115.378 Z" id="Path" fill="#D80027" fill-rule="nonzero"></path>
                <path d="M3.062,70.37 C2.092,72.294 1.146,74.226 0.237,76.172 L6.402,80.651 L3.062,70.37 Z" id="Path" fill="#F0F0F0" fill-rule="nonzero"></path>
                <path d="M43.505,322.772 L43.517,322.76 C43.384,322.628 43.246,322.502 43.113,322.369 C43.246,322.502 43.373,322.639 43.505,322.772 Z" id="Path" fill="#F0F0F0" fill-rule="nonzero"></path>
                <path d="M43.429,321.356 L42.77,322.015 C42.886,322.132 42.997,322.252 43.114,322.369 C43.247,322.502 43.384,322.628 43.518,322.76 L44.176,322.102 L43.429,321.356 Z" id="Path" fill="#F0F0F0" fill-rule="nonzero"></path>
                <path d="M351.026,13.76 C351.133,13.867 351.237,13.976 351.342,14.084 C351.485,14.226 351.63,14.364 351.772,14.506 L351.762,14.516 C356.217,19.014 360.437,23.657 364.42,28.434 L365.319,27.535 C356.901,17.608 347.614,8.433 337.563,0.136 L336.821,0.878 C341.697,4.927 346.433,9.225 351.019,13.767 L351.026,13.76 Z" id="Path" fill="#FFFFFF" fill-rule="nonzero"></path>
                <path d="M351.026,13.76 L351.019,13.767 C351.126,13.873 351.235,13.977 351.342,14.084 C351.237,13.975 351.133,13.867 351.026,13.76 Z" id="Path" fill="#FFFFFF" fill-rule="nonzero"></path>
                <polygon id="Path" fill="#FFFFFF" fill-rule="nonzero" points="256.488 109.789 244.58 121.698 257.867 134.986 277.476 115.378 264.188 102.09"></polygon>
                <path d="M81.662,284.616 L52.833,313.445 L52.833,313.445 L44.175,322.103 L48.501,326.429 C51.605,329.306 54.788,332.101 58.056,334.798 L128.759,264.095 L128.759,237.519 L81.662,284.616 Z" id="Path" fill="#FFFFFF" fill-rule="nonzero"></path>
                <polygon id="Path" fill="#FFFFFF" fill-rule="nonzero" points="185.638 180.639 139.938 226.34 128.76 237.518 128.76 264.094 198.923 193.93"></polygon>
                <polygon id="Path" fill="#FFFFFF" fill-rule="nonzero" points="198.212 168.065 193.717 172.561 208.037 184.817 218.518 174.335 205.235 161.043"></polygon>
                <polygon id="Path" fill="#FFFFFF" fill-rule="nonzero" points="198.923 193.93 208.037 184.817 193.717 172.561 185.638 180.639"></polygon>
                <rect id="Rectangle" fill="#FFFFFF" fill-rule="nonzero" transform="translate(231.541271, 148.000646) rotate(-44.983794) translate(-231.541271, -148.000646) " x="203.719537" y="138.604736" width="55.6434686" height="18.7918205"></rect>
                <path d="M342.457,23.82 L314.763,51.514 L289.537,76.74 L316.113,76.74 L364.42,28.433 C360.438,23.657 356.217,19.013 351.762,14.515 L342.457,23.82 Z" id="Path" fill="#FFFFFF" fill-rule="nonzero"></path>
                <polygon id="Path" fill="#FFFFFF" fill-rule="nonzero" points="289.537 76.741 264.188 102.09 277.476 115.378 316.113 76.741"></polygon>
                <polygon id="Path" fill="#FFFFFF" fill-rule="nonzero" points="254.996 109.789 263.442 101.344 288.045 76.741 313.271 51.515 286.184 51.515 227.909 109.789"></polygon>
                <polygon id="Path" fill="#FFFFFF" fill-rule="nonzero" points="254.996 109.789 256.488 109.789 264.188 102.09 263.442 101.344"></polygon>
                <polygon id="Path" fill="#FFFFFF" fill-rule="nonzero" points="289.537 76.741 314.763 51.515 313.271 51.515 288.045 76.741"></polygon>
                <polygon id="Path" fill="#FFFFFF" fill-rule="nonzero" points="263.442 101.344 264.188 102.09 289.537 76.741 288.045 76.741"></polygon>
                <path d="M52.087,312.698 L80.17,284.615 L53.083,284.615 L30.293,307.405 C32.348,309.826 34.451,312.205 36.608,314.535 L43.429,321.356 L52.087,312.698 L52.087,312.698 Z" id="Path" fill="#FFFFFF" fill-rule="nonzero"></path>
                <polygon id="Path" fill="#FFFFFF" fill-rule="nonzero" points="52.833 313.444 81.662 284.616 80.17 284.616 52.087 312.698 52.087 312.698 43.429 321.356 44.175 322.102"></polygon>
                <polygon id="Path" fill="#FFFFFF" fill-rule="nonzero" points="184.892 179.893 192.913 171.873 196.72 168.065 188.075 168.065 169.634 168.065 111.359 226.34 138.445 226.34"></polygon>
                <polygon id="Path" fill="#FFFFFF" fill-rule="nonzero" points="138.445 226.34 139.938 226.34 185.638 180.639 184.892 179.893"></polygon>
                <polygon id="Path" fill="#FFFFFF" fill-rule="nonzero" points="196.72 168.065 192.913 171.873 193.717 172.561 198.212 168.065 197.787 168.065"></polygon>
                <polygon id="Path" fill="#FFFFFF" fill-rule="nonzero" points="184.892 179.893 185.638 180.639 193.717 172.561 192.913 171.873"></polygon>
                <path d="M243.834,120.952 L254.996,109.79 L227.909,109.79 L197.787,139.912 C197.787,148.325 197.787,157.327 197.787,166.999 L204.489,160.297 L243.834,120.952 Z" id="Path" fill="#FFFFFF" fill-rule="nonzero"></path>
                <polygon id="Path" fill="#FFFFFF" fill-rule="nonzero" points="243.834 120.952 244.58 121.698 256.488 109.789 254.996 109.789"></polygon>
                <path d="M197.787,166.998 C197.787,167.355 197.787,167.706 197.787,168.065 L198.212,168.065 L205.234,161.043 L204.488,160.297 L197.787,166.998 Z" id="Path" fill="#FFFFFF" fill-rule="nonzero"></path>
                <rect id="Rectangle" fill="#FFFFFF" fill-rule="nonzero" transform="translate(224.530653, 141.015787) rotate(-44.975691) translate(-224.530653, -141.015787) " x="196.710418" y="140.488292" width="55.6404714" height="1.05498998"></rect>
                <path d="M313.271,51.515 L341.711,23.075 L349.536,15.25 L351.019,13.767 C346.434,9.225 341.697,4.927 336.821,0.878 L286.184,51.515 L313.271,51.515 Z" id="Path" fill="#FFFFFF" fill-rule="nonzero"></path>
                <path d="M351.762,14.515 L351.772,14.505 C351.63,14.363 351.484,14.225 351.342,14.083 C351.376,14.118 351.41,14.154 351.445,14.189 C351.552,14.297 351.655,14.407 351.762,14.515 Z" id="Path" fill="#FFFFFF" fill-rule="nonzero"></path>
                <path d="M351.341,14.083 C351.234,13.977 351.125,13.873 351.018,13.766 L349.535,15.249 L351.444,14.189 C351.41,14.154 351.376,14.119 351.341,14.083 Z" id="Path" fill="#FFFFFF" fill-rule="nonzero"></path>
                <path d="M342.457,23.82 L351.762,14.515 C351.655,14.407 351.552,14.297 351.445,14.189 L349.536,15.249 L341.711,23.074 L313.271,51.514 L314.763,51.514 L342.457,23.82 Z" id="Path" fill="#FFFFFF" fill-rule="nonzero"></path>
                <polygon id="Path" fill="#FFFFFF" fill-rule="nonzero" points="128.76 236.026 138.445 226.34 111.359 226.34 53.083 284.616 80.17 284.616"></polygon>
                <polygon id="Path" fill="#FFFFFF" fill-rule="nonzero" points="80.17 284.616 81.662 284.616 128.76 237.518 128.76 236.026"></polygon>
                <polygon id="Path" fill="#FFFFFF" fill-rule="nonzero" points="128.76 236.026 128.76 237.518 139.938 226.34 138.445 226.34"></polygon>
                <polygon id="Path" fill="#FFFFFF" fill-rule="nonzero" points="188.075 149.624 169.634 168.065 188.075 168.065"></polygon>
                <path d="M196.72,168.065 L197.787,166.998 C197.787,157.327 197.787,148.324 197.787,139.911 L188.075,149.623 L188.075,168.064 L196.72,168.064 L196.72,168.065 L196.72,168.065 Z" id="Path" fill="#FFFFFF" fill-rule="nonzero"></path>
                <path d="M197.787,166.998 L196.72,168.065 L197.787,168.065 C197.787,167.706 197.787,167.356 197.787,166.998 Z" id="Path" fill="#FFFFFF" fill-rule="nonzero"></path>
            </g>
            <g id="Group" fill-rule="nonzero">
                <path d="M357.115,50.1735083 C354.595,48.0775083 352.042,46.0435083 349.452,44.0795083 L277.579,115.951508 L277.579,8.2785083 C267.54,5.4365083 257.338,3.3265083 247.054,1.9495083 L247.054,160.235508 L357.115,50.1735083 Z" id="Path" fill="#F0F0F0"></path>
                <path d="M2.48,250.701508 C4.036,260.997508 6.328,271.201508 9.357,281.229508 L112.301,281.229508 L44.089,349.442508 C46.053,352.033508 48.088,354.587508 50.181,357.108508 L156.587,250.701508 L2.48,250.701508 L2.48,250.701508 Z" id="Path" fill="#F0F0F0"></path>
                <path d="M186,189.648508 L186,2.3175083 C175.708,3.8265083 165.503,6.0675083 155.473,9.0465083 L155.473,115.950508 L84.759,45.2375083 C77.456,50.8775083 70.431,57.0425083 63.738,63.7365083 C63.128,64.3465083 62.538,64.9685083 61.936,65.5845083 L155.473,159.121508 L155.473,159.122508 L155.473,159.123508 L155.473,159.122508 L126.693,159.122508 L48.374,80.8045083 C46.213,83.4725083 44.118,86.1775083 42.102,88.9225083 L112.304,159.124508 L8.021,159.124508 C5.229,169.166508 3.168,179.368508 1.836,189.648508 L186,189.648508 L186,189.648508 Z" id="Path" fill="#F0F0F0"></path>
                <path d="M42.102,88.9225083 C26.275,110.471508 14.923,134.303508 8.021,159.124508 L112.304,159.124508 L42.102,88.9225083 Z" id="Path" fill="#0052B4"></path>
                <path d="M9.357,281.229508 C16.657,305.396508 28.237,328.531508 44.09,349.442508 L112.302,281.229508 L9.357,281.229508 L9.357,281.229508 Z" id="Path" fill="#0052B4"></path>
                <path d="M349.452,44.0795083 C327.489,27.4265083 303.069,15.4935083 277.579,8.2785083 L277.579,115.951508 L349.452,44.0795083 Z" id="Path" fill="#0052B4"></path>
                <path d="M155.473,9.0475083 C130.364,16.5045083 106.345,28.5675083 84.759,45.2385083 L155.473,115.952508 L155.473,9.0475083 Z" id="Path" fill="#0052B4"></path>
                <path d="M247.053,160.235508 L247.053,1.9495083 C226.795,-0.764491696 206.229,-0.647491696 186,2.3175083 L186,189.647508 L186,189.648508 L1.836,189.648508 C0.623,199.011508 -5.68434189e-14,208.436508 -5.68434189e-14,217.863508 C-5.68434189e-14,228.844508 0.835,239.823508 2.48,250.702508 L156.588,250.702508 L247.053,160.235508 Z" id="Path" fill="#D80027"></path>
                <path d="M155.473,159.122508 L155.473,159.122508 L61.936,65.5845083 C57.14,70.4935083 52.613,75.5695083 48.374,80.8045083 L126.693,159.123508 L155.473,159.123508 L155.473,159.122508 Z" id="Path" fill="#D80027"></path>
            </g>
        </g>
    </g>
</svg>