<svg width="124" height="124" viewBox="0 0 124 124" fill="none" xmlns="http://www.w3.org/2000/svg">
<circle cx="62" cy="62" r="60.5" fill="#06141F" stroke="#29353E" stroke-width="3"/>
<path d="M44.3632 61.7427C44.197 64.631 46.4204 67.1036 49.3086 67.2699C49.4125 67.2699 49.5164 67.2699 49.6203 67.2699C52.5294 67.2699 54.8774 64.9219 54.8566 62.0128C54.8566 59.1037 52.5086 56.7557 49.5995 56.7765C46.8152 56.7765 44.5087 58.9583 44.3632 61.7427Z" fill="white"/>
<path d="M24.7887 60.3919C23.8537 60.3296 23.0433 61.0568 23.0017 61.9919C22.9602 62.9269 23.6667 63.7373 24.6017 63.7789C25.5368 63.8412 26.3264 63.114 26.3887 62.1789C26.4511 61.2438 25.7238 60.4542 24.7887 60.3919Z" fill="white"/>
<path d="M44.03 31.2805C44.8612 30.8649 45.1937 29.826 44.7781 28.9948C44.3625 28.1637 43.3235 27.8312 42.4924 28.2468C41.6612 28.6624 41.3288 29.6805 41.7443 30.5117C42.1599 31.3636 43.1781 31.7169 44.03 31.2805C44.03 31.2805 44.0092 31.2805 44.03 31.2805Z" fill="white"/>
<path d="M49.3496 40.5689C50.6379 39.9248 51.1574 38.3456 50.5133 37.0573C49.8691 35.769 48.2899 35.2495 47.0016 35.8936C45.7133 36.5378 45.1938 38.117 45.838 39.4053C46.4821 40.6936 48.0613 41.2131 49.3496 40.5689Z" fill="white"/>
<path d="M31.4376 46.948C32.435 47.5921 33.7649 47.322 34.4298 46.3246C35.0739 45.3272 34.8038 43.9974 33.8064 43.3324C32.809 42.6883 31.4792 42.9584 30.8143 43.9558C30.1493 44.9532 30.4402 46.3038 31.4376 46.948Z" fill="white"/>
<path d="M34.6166 59.457C33.1621 59.3739 31.9362 60.4752 31.853 61.9297C31.7699 63.3843 32.8712 64.6102 34.3257 64.6934C35.7803 64.7765 37.0062 63.6752 37.0893 62.2207C37.1725 60.7869 36.0712 59.5402 34.6166 59.457Z" fill="white"/>
<path d="M31.7291 77.057C30.6694 77.5972 30.233 78.8855 30.7733 79.966C31.3135 81.0257 32.6018 81.4621 33.6823 80.9218C34.742 80.3816 35.1784 79.0933 34.6381 78.0128C34.0979 76.9531 32.7888 76.5167 31.7291 77.057Z" fill="white"/>
<path d="M41.9108 54.0342C43.3445 54.9693 45.2562 54.5745 46.1705 53.1407C47.1055 51.707 46.7107 49.7953 45.277 48.881C43.8432 47.946 41.9315 48.3408 41.0173 49.7745C40.0822 51.1875 40.477 53.0992 41.9108 54.0342Z" fill="white"/>
<path d="M74.2221 40.3615C75.4273 41.1511 77.0688 40.8186 77.8584 39.6134C78.648 38.4083 78.3155 36.7667 77.1104 35.9771C75.9052 35.1875 74.2636 35.52 73.474 36.7252C72.6637 37.9511 72.9961 39.5719 74.2221 40.3615Z" fill="white"/>
<path d="M79.5826 31.1145C80.3722 31.6339 81.4111 31.4054 81.9306 30.6158C82.4501 29.8262 82.2215 28.7872 81.4319 28.2677C80.6423 27.7483 79.6034 27.9768 79.0839 28.7457C78.5852 29.5353 78.8138 30.595 79.5826 31.1145Z" fill="white"/>
<path d="M74.616 56.7353C71.7278 56.5691 69.2343 58.7924 69.0888 61.6807C68.9226 64.569 71.1459 67.0625 74.0342 67.2079C74.1381 67.2079 74.242 67.2079 74.3251 67.2079C77.2134 67.2079 79.5614 64.8599 79.5614 61.9508C79.5822 59.1872 77.4004 56.8808 74.616 56.7353Z" fill="white"/>
<path d="M51.0746 53.66C51.9681 55.4262 53.7759 56.5482 55.7706 56.5482C58.6589 56.5482 61.0069 54.2002 61.0069 51.2911C61.0069 50.4808 60.8199 49.6704 60.4459 48.9224C59.1368 46.325 55.9784 45.286 53.4018 46.5951C50.8045 47.925 49.7655 51.0834 51.0746 53.66Z" fill="white"/>
<path d="M92.1959 46.9479C93.2557 46.4076 93.6712 45.0986 93.131 44.0388C92.5907 42.9791 91.2817 42.5635 90.2219 43.1038C89.1622 43.644 88.7466 44.9323 89.2661 45.9921C89.8271 47.0518 91.1154 47.4881 92.1959 46.9479Z" fill="white"/>
<path d="M78.8975 48.6107C77.3806 49.3795 76.7573 51.2289 77.5261 52.7457C78.2949 54.2626 80.1442 54.886 81.6611 54.1171C83.178 53.3483 83.8013 51.499 83.0325 49.9821C82.2637 48.4653 80.4144 47.8627 78.8975 48.6107Z" fill="white"/>
<path d="M61.7552 30.3251C62.9396 30.3874 63.9577 29.4732 64.0408 28.2888C64.124 27.1044 63.1889 26.0862 62.0045 26.0031C60.8201 25.9407 59.8019 26.8342 59.7188 28.0186C59.6565 29.2238 60.5708 30.242 61.7552 30.3251Z" fill="white"/>
<path d="M61.7341 43.8937C63.438 43.9976 64.8925 42.6885 64.9757 40.9846C65.0796 39.2807 63.7705 37.8262 62.0666 37.7431C60.3627 37.6392 58.9082 38.9483 58.8251 40.6521C58.742 42.356 60.0303 43.8105 61.7341 43.8937Z" fill="white"/>
<path d="M45.0273 75.3948C46.5442 74.626 47.1675 72.7767 46.3987 71.2598C45.6299 69.7429 43.7806 69.1196 42.2637 69.8884C40.7468 70.6572 40.1235 72.5065 40.8923 74.0234C41.6611 75.5403 43.5104 76.1636 45.0273 75.3948Z" fill="white"/>
<path d="M63.7286 48.4025C62.1494 50.8336 62.8143 54.0751 65.2455 55.6543C67.6766 57.2335 70.9181 56.5686 72.4973 54.1375C74.0765 51.7063 73.4116 48.4648 70.9805 46.8856C70.1285 46.3246 69.1311 46.0337 68.113 46.0337C66.3467 46.0337 64.7052 46.9272 63.7286 48.4025Z" fill="white"/>
<path d="M72.8502 70.3452C71.5411 67.7478 68.3827 66.7089 65.8061 68.018C63.2088 69.327 62.1698 72.4854 63.4789 75.062C64.788 77.6594 67.9464 78.6984 70.523 77.3893C73.0996 76.101 74.1593 72.9841 72.871 70.3868C72.871 70.366 72.871 70.366 72.8502 70.3452Z" fill="white"/>
<path d="M82.0143 69.9714C80.5805 69.0363 78.6688 69.4311 77.7546 70.8649C76.8195 72.2986 77.2143 74.2103 78.6481 75.1245C80.0818 76.0596 81.9935 75.6648 82.9078 74.231C83.8428 72.8181 83.448 70.9064 82.0143 69.9714Z" fill="white"/>
<path d="M92.0708 62.0961C92.1539 60.6416 91.0526 59.4157 89.5981 59.3325C88.1436 59.2494 86.9176 60.3507 86.8345 61.8052C86.7514 63.2598 87.8527 64.4857 89.3072 64.5688C90.7409 64.652 91.9877 63.5299 92.0708 62.0961Z" fill="white"/>
<path d="M99.3229 60.2259C98.3879 60.1636 97.5775 60.8908 97.5359 61.8259C97.4944 62.7609 98.2008 63.5713 99.1359 63.6129C100.071 63.6752 100.861 62.9479 100.923 62.0129C100.964 61.0778 100.258 60.2882 99.3229 60.2259Z" fill="white"/>
<path d="M92.4867 77.057C91.4893 76.4129 90.1595 76.683 89.4945 77.6804C88.8504 78.6778 89.1205 80.0076 90.1179 80.6726C91.1153 81.3167 92.4451 81.0466 93.1101 80.0492C93.775 79.0518 93.4841 77.7012 92.4867 77.057Z" fill="white"/>
<path d="M44.3204 92.8903C43.5308 92.3708 42.4918 92.5994 41.9723 93.3682C41.4529 94.1578 41.6814 95.1968 42.4503 95.7162C43.2399 96.2357 44.2788 96.0071 44.7983 95.2383C45.3385 94.4695 45.11 93.4098 44.3204 92.8903Z" fill="white"/>
<path d="M79.8947 92.7246C79.0636 93.1402 78.7311 94.1792 79.1467 95.0103C79.5623 95.8415 80.6012 96.1739 81.4324 95.7583C82.2635 95.3428 82.596 94.3246 82.1804 93.4934C81.7648 92.6415 80.7467 92.2883 79.8947 92.7246C79.8947 92.7246 79.9155 92.7246 79.8947 92.7246Z" fill="white"/>
<path d="M60.1962 75.6028C61.7754 73.1717 61.1105 69.9301 58.6794 68.3302C56.2482 66.751 53.0067 67.4159 51.4067 69.847C49.8067 72.2782 50.4924 75.5197 52.9236 77.1197C53.7755 77.6807 54.7729 77.9716 55.7911 77.9716C57.5781 77.9924 59.2196 77.0989 60.1962 75.6028Z" fill="white"/>
<path d="M49.7033 83.6441C48.4981 82.8545 46.8566 83.187 46.067 84.3921C45.2774 85.5973 45.6098 87.2389 46.815 88.0285C48.0202 88.8181 49.6617 88.4856 50.4513 87.2804C51.2617 86.0752 50.9292 84.4337 49.7033 83.6441Z" fill="white"/>
<path d="M61.9412 93.6803C60.7568 93.6179 59.7386 94.5322 59.6555 95.7166C59.5724 96.901 60.5075 97.9192 61.6919 98.0023C62.8763 98.0646 63.8944 97.1711 63.9776 95.9867C64.0399 94.7815 63.1256 93.7634 61.9412 93.6803Z" fill="white"/>
<path d="M61.9621 80.1117C60.2583 80.0078 58.8037 81.3169 58.7206 83.0208C58.6167 84.7247 59.9258 86.1792 61.6297 86.2623C63.3336 86.3454 64.7881 85.0571 64.8712 83.3533C64.9751 81.6702 63.666 80.1949 61.9621 80.1117Z" fill="white"/>
<path d="M74.5744 83.436C73.2861 84.1009 72.7666 85.6801 73.4315 86.9684C74.0964 88.2567 75.6756 88.7762 76.9639 88.1112C78.2522 87.4671 78.7717 85.8879 78.1276 84.5996C77.4626 83.3113 75.8834 82.771 74.5744 83.436Z" fill="white"/>
</svg>
