<svg width="124" height="124" viewBox="0 0 124 124" fill="none" xmlns="http://www.w3.org/2000/svg">
<path d="M62.0004 122.14C95.2148 122.14 122.14 95.2143 122.14 61.9999C122.14 28.7855 95.2148 1.85986 62.0004 1.85986C28.7859 1.85986 1.86035 28.7855 1.86035 61.9999C1.86035 95.2143 28.7859 122.14 62.0004 122.14Z" fill="url(#paint0_linear)"/>
<path d="M88.3198 85.9627L67.9838 36.7966C66.8368 34.2546 65.1318 33.0146 62.8843 33.0146H61.0863C58.8388 33.0146 57.1338 34.2546 55.9868 36.7966L47.1363 58.2177H40.4403C38.4408 58.2332 36.8133 59.8452 36.7978 61.8602V61.9067C36.8133 63.9062 38.4408 65.5337 40.4403 65.5492H44.0363L35.5888 85.9627C35.4338 86.4122 35.3408 86.8772 35.3408 87.3577C35.3408 88.5047 35.6973 89.4037 36.3328 90.1012C36.9683 90.7987 37.8828 91.1397 39.0298 91.1397C39.7893 91.1242 40.5178 90.8917 41.1223 90.4422C41.7733 89.9927 42.2228 89.3417 42.5793 88.5977L51.8793 65.5337H58.3273C60.3268 65.5182 61.9543 63.9062 61.9698 61.8912V61.7982C61.9543 59.7987 60.3268 58.1712 58.3273 58.1557H54.8863L61.9853 40.4702L81.3293 88.5822C81.6858 89.3262 82.1353 89.9772 82.7863 90.4267C83.3908 90.8762 84.1348 91.1087 84.8788 91.1242C86.0258 91.1242 86.9248 90.7832 87.5758 90.0857C88.2268 89.3882 88.5678 88.4892 88.5678 87.3422C88.5833 86.8772 88.5058 86.3967 88.3198 85.9627Z" fill="white"/>
<defs>
<linearGradient id="paint0_linear" x1="106.84" y1="24.2708" x2="17.3515" y2="99.566" gradientUnits="userSpaceOnUse">
<stop stop-color="#B6509E"/>
<stop offset="1" stop-color="#2EBAC6"/>
</linearGradient>
</defs>
</svg>
