<svg width="124" height="124" viewBox="0 0 124 124" fill="none" xmlns="http://www.w3.org/2000/svg">
<path d="M62 124C96.2417 124 124 96.2417 124 62C124 27.7583 96.2417 0 62 0C27.7583 0 0 27.7583 0 62C0 96.2417 27.7583 124 62 124Z" fill="#8DC351"/>
<path d="M82.15 40.6875C79.05 32.9375 71.6875 32.55 62.775 34.1L59.675 23.25L53.0875 25.1875L56.1875 35.65C54.6375 36.0375 52.7 36.8125 50.7625 37.2L47.6625 26.35L41.075 28.2875L44.175 39.1375C42.625 39.525 41.4625 39.9125 39.9125 40.3L31 43.4L32.9375 50.375C32.9375 50.375 37.975 48.825 37.5875 48.825C40.3 48.05 41.4625 49.2125 42.2375 50.7625L45.725 63.1625C45.725 63.1625 46.1125 63.1625 46.5 63.1625L45.725 63.55L50.7625 80.9875C50.7625 81.7625 50.7625 83.3125 48.825 84.0875L44.175 85.6375L44.95 93.775L53.475 91.45C55.025 91.0625 56.575 90.675 58.125 90.2875L61.225 101.138L67.8125 99.2L64.7125 88.35C66.65 87.9625 68.2 87.575 70.1375 86.8L73.2375 97.65L79.825 95.7125L76.725 84.8625C87.575 80.9875 94.55 75.95 92.6125 65.1C91.0625 56.575 86.025 53.8625 79.05 54.25C82.925 50.375 84.475 46.5 82.15 40.6875ZM79.825 67.0375C82.15 75.175 67.8125 78.275 63.1625 79.825L58.9 65.1C63.55 63.9375 77.1125 58.5125 79.825 67.0375ZM70.525 47.275C72.85 54.6375 60.8375 57.35 56.9625 58.5125L53.0875 45.3375C56.9625 44.175 68.5875 39.525 70.525 47.275Z" fill="white"/>
</svg>
