<svg width="124" height="124" viewBox="0 0 124 124" fill="none" xmlns="http://www.w3.org/2000/svg">
<g clip-path="url(#clip0)">
<path d="M123.98 62C123.98 96.2339 96.224 123.99 61.9752 123.995C27.7512 123.995 -0.00495734 96.2339 2.65821e-06 61.995C-0.00991734 27.7562 27.7462 0 61.9851 0C96.224 0 123.98 27.7611 123.98 62Z" fill="#EAB300"/>
<path d="M86.3781 46.8124C85.5795 38.5094 78.4123 35.7268 69.3553 34.9332V23.4111H62.3469V34.6257C60.5067 34.6257 58.6219 34.6604 56.752 34.7001V23.4111H49.7435L49.7385 34.9233C48.2208 34.9531 46.7278 34.9828 45.2745 34.9828V34.9481L35.6075 34.9431V42.4327C35.6075 42.4327 40.7857 42.3335 40.6965 42.4278C43.5385 42.4278 44.4611 44.0745 44.7289 45.498V58.6222C44.9273 58.6222 45.1803 58.6321 45.468 58.6718H44.7289L44.724 77.0585C44.6 77.9513 44.0742 79.3748 42.0902 79.3798C42.1795 79.4592 36.9963 79.3798 36.9963 79.3798L35.6025 87.7523H44.7289C46.4253 87.7523 48.0968 87.782 49.7336 87.792L49.7385 99.443H56.7421V87.916C58.6616 87.9556 60.5216 87.9705 62.3419 87.9705L62.3369 99.443H69.3454V87.8168C81.1304 87.1422 89.3888 84.1712 90.4105 73.1004C91.2389 64.1873 87.0477 60.2044 80.3566 58.5974C84.4288 56.534 86.9733 52.8884 86.3781 46.8124ZM76.5672 71.7215C76.5672 80.4264 61.6624 79.4393 56.9057 79.4393V63.9988C61.6624 64.0087 76.5672 62.6447 76.5672 71.7215ZM73.3035 49.9422C73.3035 57.8633 60.8638 56.9358 56.9057 56.9407V42.9436C60.8688 42.9436 73.3085 41.6838 73.3035 49.9422Z" fill="white"/>
<path d="M44.7393 58.3145H45.7809V59.0832H44.7393V58.3145Z" fill="white"/>
</g>
<defs>
<clipPath id="clip0">
<rect width="123.98" height="124" fill="white"/>
</clipPath>
</defs>
</svg>
