<svg width="124" height="124" viewBox="0 0 124 124" fill="none" xmlns="http://www.w3.org/2000/svg">
<circle cx="62" cy="62" r="60.5" fill="#06141F" stroke="#29353E" stroke-width="3"/>
<path d="M61.8426 28C47.594 28.0569 36.0572 39.5358 36 53.713C36 56.5522 36.4606 59.3724 37.3627 62.0652C38.0359 63.8983 40.0336 64.8854 41.9087 64.3187C43.7212 63.6272 44.6832 61.6557 44.1055 59.8117C43.3396 57.7128 42.9989 55.4864 43.0998 53.2574C43.4105 43.0178 52.0038 34.9665 62.295 35.2757C72.5863 35.5848 80.6781 44.135 80.3674 54.3746C80.0758 63.9607 72.4882 71.7462 62.8646 72.3292C62.8646 72.3292 59.2371 72.5489 57.4328 72.7685C56.7678 72.8634 56.1083 72.9936 55.4569 73.159C55.3642 73.2539 55.2143 73.2539 55.1189 73.1617L55.1162 73.159C55.0508 73.075 55.0508 72.9556 55.1162 72.8716L55.6777 69.8235L59.0845 54.578C59.4933 52.6743 58.275 50.8005 56.3617 50.3938C54.4485 49.987 52.5652 51.1991 52.1564 53.1028C52.1564 53.1028 44.0537 90.4194 44.0537 90.7584C43.5903 92.5725 44.6914 94.4165 46.5147 94.8775C46.5338 94.883 46.5556 94.8884 46.5747 94.8911H46.7628C48.5833 95.3602 50.4421 94.2701 50.9109 92.4586C50.919 92.4288 50.9272 92.399 50.9327 92.3665C50.9272 92.3095 50.9272 92.2526 50.9327 92.1983C51.0335 91.759 52.0556 86.7938 52.0556 86.7938C52.8296 83.0461 55.8657 80.1744 59.665 79.594C60.4472 79.4747 63.7341 79.2551 63.7341 79.2551C77.9281 77.8477 88.2875 65.2569 86.8703 51.1341C85.5784 38.2532 74.8538 28.3363 61.8426 28Z" fill="white"/>
<path d="M63.3997 87.0942C60.9831 86.5936 58.6202 88.1376 58.1171 90.5394C58.1114 90.5618 58.1086 90.5843 58.1029 90.6068C57.58 92.9945 59.1007 95.3541 61.5031 95.8744C61.506 95.8744 61.5088 95.8744 61.5116 95.8772H61.636C63.9876 96.4425 66.3533 95.0025 66.9186 92.6655C66.9242 92.6486 66.9271 92.6289 66.9327 92.612V92.3674C67.3482 89.9544 65.7993 87.6398 63.3997 87.0942Z" fill="#E6007A"/>
</svg>
