<svg width="124" height="124" viewBox="0 0 124 124" fill="none" xmlns="http://www.w3.org/2000/svg">
<circle cx="62" cy="62" r="60.5" fill="#06141F" stroke="#29353E" stroke-width="3"/>
<path d="M92.8739 53.883C89.7802 51.0265 85.5006 46.6644 82.015 43.5707L81.8088 43.4263C81.4656 43.1508 81.0787 42.9347 80.6641 42.787V42.787C72.2596 41.2195 33.145 33.9081 32.3819 34.0009C32.168 34.0308 31.9636 34.1083 31.7837 34.2277L31.5878 34.3824C31.3465 34.6275 31.1633 34.9235 31.0516 35.2487L31 35.3827V36.1149V36.2283C35.4034 48.4897 52.7899 88.6561 56.2136 98.0816C56.4199 98.721 56.8117 99.9378 57.5439 99.9997H57.7089C58.1008 99.9997 59.7714 97.7929 59.7714 97.7929C59.7714 97.7929 89.6358 61.576 92.6573 57.7192C93.0484 57.2441 93.3937 56.7331 93.6886 56.193C93.7638 55.7704 93.7283 55.3355 93.5856 54.9307C93.4428 54.5258 93.1976 54.1649 92.8739 53.883V53.883ZM67.4334 58.1008L80.1794 47.5306L87.6559 54.4193L67.4334 58.1008ZM62.4835 57.4098L40.5389 39.4252L76.0442 45.9735L62.4835 57.4098ZM64.4635 62.1226L86.9237 58.5029L61.246 89.4399L64.4635 62.1226ZM37.5586 41.2195L60.6479 60.8129L57.3067 89.4605L37.5586 41.2195Z" fill="#FF060A"/>
</svg>
