<svg width="124" height="124" viewBox="0 0 124 124" fill="none" xmlns="http://www.w3.org/2000/svg">
<circle cx="62" cy="62" r="60.5" fill="#06141F" stroke="#29353E" stroke-width="3"/>
<path d="M55.3085 42.1481C54.5352 42.0383 54.4983 42.0017 54.8666 41.9651C55.5663 41.8552 57.1868 42.0017 58.3285 42.258C60.9801 42.8805 63.3739 44.4916 65.9151 47.3111L66.578 48.0801L67.5355 47.9336C71.6234 47.2745 75.8218 47.7871 79.3205 49.3983C80.278 49.8377 81.788 50.7165 81.9721 50.9362C82.0458 51.0094 82.1563 51.4855 82.2299 51.9615C82.4877 53.6825 82.3772 54.9641 81.8248 55.9527C81.5302 56.502 81.5302 56.6484 81.7143 57.1244C81.8616 57.4906 82.3036 57.7469 82.7087 57.7469C83.5926 57.7469 84.5133 56.3555 84.9552 54.4148L85.1393 53.6458L85.4708 54.012C87.349 56.0992 88.8222 58.9919 89.0431 61.0425L89.1168 61.5917L88.7853 61.1157C88.2329 60.2735 87.7173 59.7242 87.0176 59.2482C85.7654 58.406 84.4396 58.1497 80.9409 57.9666C77.7737 57.7836 75.9691 57.5272 74.2014 56.9414C71.1815 55.9527 69.6347 54.6711 66.0624 49.9475C64.4788 47.8604 63.4844 46.7253 62.49 45.7732C60.3172 43.6861 58.1443 42.5876 55.3085 42.1481Z" fill="#FF007A"/>
<path d="M82.7453 46.7984C82.819 45.4069 83.0031 44.4915 83.4082 43.6493C83.5555 43.3198 83.7028 43.0268 83.7397 43.0268C83.7765 43.0268 83.7029 43.2832 83.5924 43.5761C83.2977 44.3817 83.2609 45.5168 83.4451 46.7984C83.7029 48.4461 83.8133 48.6658 85.5811 50.4601C86.3913 51.3022 87.3488 52.3641 87.7171 52.8035L88.3432 53.6091L87.7171 53.0232C86.9437 52.2909 85.176 50.8995 84.7709 50.7164C84.5131 50.5699 84.4762 50.5699 84.2921 50.753C84.1448 50.8995 84.108 51.1192 84.108 52.1811C84.0711 53.8288 83.8502 54.8541 83.2977 55.916C83.0031 56.4652 82.9663 56.3554 83.2241 55.7329C83.4082 55.2569 83.4451 55.0372 83.4451 53.4626C83.4451 50.277 83.0768 49.508 80.8303 48.2264C80.2778 47.8969 79.3203 47.4209 78.7679 47.1645C78.1786 46.9082 77.7367 46.6885 77.7735 46.6885C77.8472 46.6153 80.02 47.2378 80.8671 47.6039C82.1561 48.1166 82.377 48.1532 82.5243 48.1166C82.6348 48.0067 82.7085 47.7138 82.7453 46.7984Z" fill="#FF007A"/>
<path d="M56.8183 52.2544C55.2715 50.1306 54.2771 46.8351 54.4981 44.3817L54.5718 43.6128L54.94 43.686C55.603 43.7959 56.7446 44.2353 57.2971 44.5648C58.7702 45.4436 59.4331 46.652 60.0592 49.6546C60.2433 50.5334 60.5011 51.5586 60.6116 51.8882C60.7957 52.4375 61.4955 53.719 62.0847 54.5246C62.4898 55.1105 62.232 55.4034 61.3113 55.3302C59.9118 55.1837 58.0336 53.9021 56.8183 52.2544Z" fill="#FF007A"/>
<path d="M80.8672 68.1826C73.5752 65.2533 70.9972 62.7267 70.9972 58.4425C70.9972 57.82 71.034 57.3074 71.034 57.3074C71.0709 57.3074 71.3287 57.5271 71.6601 57.7834C73.1332 58.9552 74.7905 59.4678 79.394 60.1269C82.0825 60.5297 83.6293 60.8226 85.0287 61.2987C89.4849 62.7633 92.2471 65.7659 92.91 69.8304C93.0941 71.0021 92.9836 73.2357 92.689 74.4075C92.4312 75.3229 91.6946 77.0073 91.5105 77.0439C91.4737 77.0439 91.4 76.8608 91.4 76.5679C91.3264 75.03 90.553 73.5653 89.264 72.4302C87.7172 71.112 85.7285 70.1233 80.8672 68.1826Z" fill="#FF007A"/>
<path d="M75.7112 69.391C75.6375 68.8418 75.4534 68.146 75.3429 67.8531L75.1587 67.3039L75.4902 67.7066C75.969 68.2559 76.3372 68.915 76.6687 69.8304C76.9265 70.5261 76.9265 70.7458 76.9265 71.881C76.9265 72.9795 76.8897 73.2358 76.6687 73.8583C76.3004 74.8469 75.8585 75.5427 75.1219 76.3116C73.7961 77.6664 72.0652 78.3988 69.5977 78.7283C69.1558 78.7649 67.9036 78.8748 66.7988 78.948C64.0366 79.0945 62.1952 79.3874 60.538 79.9733C60.317 80.0465 60.096 80.1198 60.0592 80.0831C59.9855 80.0099 61.1272 79.3508 62.0479 78.9114C63.3369 78.2889 64.6627 77.9594 67.5721 77.4467C69.0084 77.227 70.4816 76.9341 70.8499 76.7876C74.4958 75.6525 76.3004 72.833 75.7112 69.391Z" fill="#FF007A"/>
<path d="M79.0625 75.2862C78.105 73.1991 77.884 71.2217 78.3996 69.3543C78.4733 69.1712 78.5469 68.9881 78.6206 68.9881C78.6942 68.9881 78.9152 69.098 79.1362 69.2444C79.5781 69.5374 80.4988 70.05 82.8558 71.3316C85.8389 72.9427 87.533 74.1877 88.7115 75.6158C89.7427 76.8607 90.3688 78.2888 90.6634 80.0464C90.8475 81.0351 90.7371 83.4152 90.4793 84.4038C89.669 87.5162 87.8276 90.0062 85.1392 91.4342C84.7341 91.6539 84.4026 91.8004 84.3658 91.8004C84.329 91.8004 84.4763 91.4342 84.6972 90.9948C85.5811 89.1274 85.6916 87.3332 85.0287 85.3192C84.6236 84.0743 83.7765 82.573 82.0824 80.0464C80.0569 77.1171 79.5781 76.3481 79.0625 75.2862Z" fill="#FF007A"/>
<path d="M51.6254 86.491C54.3507 84.2207 57.7021 82.6096 60.7956 82.0969C62.1215 81.8772 64.3312 81.9505 65.5465 82.28C67.4984 82.7927 69.2661 83.8912 70.1868 85.246C71.0707 86.5642 71.4758 87.6993 71.8809 90.2259C72.0282 91.2145 72.2124 92.2398 72.2492 92.4595C72.5438 93.7777 73.1331 94.803 73.8696 95.3522C75.0113 96.1944 77 96.231 78.9519 95.4987C79.2834 95.3889 79.578 95.279 79.578 95.3156C79.6517 95.3889 78.6573 96.048 77.9944 96.3775C77.0737 96.8535 76.3371 97 75.3428 97C73.575 97 72.0651 96.0846 70.8497 94.2537C70.5919 93.8876 70.0763 92.8257 69.6344 91.837C68.3454 88.8711 67.6825 87.9923 66.1726 87.0036C64.8467 86.1614 63.1527 85.9783 61.8637 86.6008C60.1696 87.4064 59.7276 89.5668 60.9061 90.885C61.3849 91.4342 62.2688 91.8736 63.0053 91.9835C64.368 92.1666 65.5465 91.1047 65.5465 89.7499C65.5465 88.8711 65.215 88.3584 64.3312 87.9556C63.1526 87.443 61.8637 88.0289 61.9005 89.164C61.9005 89.64 62.1215 89.9329 62.6002 90.1526C62.8949 90.2991 62.8949 90.2991 62.6739 90.2625C61.6059 90.0428 61.3481 88.7246 62.1951 87.8824C63.2263 86.8571 65.3992 87.2965 66.1357 88.7246C66.4304 89.3105 66.4672 90.4822 66.2094 91.2145C65.5833 92.8257 63.8156 93.6679 62.011 93.1918C60.7956 92.8623 60.2801 92.5327 58.8069 91.0315C56.229 88.395 55.2346 87.8824 51.5518 87.3332L50.852 87.2233L51.6254 86.491Z" fill="#FF007A"/>
<path fill-rule="evenodd" clip-rule="evenodd" d="M32.2538 27.5745C40.8348 37.9371 54.0561 54.0485 54.719 54.9273C55.2714 55.6597 55.0504 56.3554 54.1297 56.868C53.6141 57.1609 52.5461 57.4539 52.0305 57.4539C51.4413 57.4539 50.7415 57.1609 50.2628 56.6849C49.9313 56.3554 48.495 54.2682 45.2541 49.2517C42.7866 45.4069 40.6874 42.2213 40.6506 42.1847C40.5033 42.1114 40.5033 42.1114 44.9963 50.0939C47.8321 55.1104 48.7528 56.9046 48.7528 57.1243C48.7528 57.6003 48.6055 57.8567 48.0162 58.5158C47.0219 59.6143 46.5799 60.8592 46.2485 63.459C45.8802 66.3518 44.8859 68.4023 42.0501 71.8809C40.3928 73.9315 40.135 74.2976 39.7299 75.1398C39.2143 76.1651 39.067 76.751 38.9933 78.0692C38.9197 79.4606 39.067 80.3394 39.4721 81.6576C39.8404 82.8294 40.2455 83.5983 41.2399 85.0996C42.0869 86.4178 42.6025 87.4065 42.6025 87.7726C42.6025 88.0656 42.6762 88.0656 44.002 87.7726C47.1692 87.0403 49.784 85.7953 51.2203 84.2574C52.1042 83.3054 52.3251 82.7927 52.3251 81.4745C52.3251 80.6324 52.2883 80.4493 52.0673 79.9366C51.6991 79.1311 50.9993 78.472 49.4894 77.4467C47.5007 76.0919 46.6536 74.9934 46.4326 73.5287C46.2485 72.2837 46.4695 71.4415 47.5743 69.1347C48.716 66.7546 49.0106 65.7659 49.1947 63.3492C49.3052 61.8113 49.4894 61.1888 49.9313 60.7128C50.4101 60.2001 50.8152 60.0171 51.9569 59.8706C53.8351 59.6143 55.0504 59.1383 56.008 58.2228C56.855 57.4539 57.2233 56.6849 57.2601 55.5498L57.2969 54.7076L56.8182 54.195C55.0873 52.2177 31.1121 26 31.0016 26C30.9648 26 31.5541 26.6957 32.2538 27.5745ZM43.56 79.6437C43.9651 78.948 43.7442 78.0692 43.0813 77.6298C42.4552 77.227 41.4977 77.4101 41.4977 77.9593C41.4977 78.1058 41.5713 78.2523 41.7923 78.3255C42.1237 78.5086 42.1606 78.6917 41.9028 79.0944C41.645 79.4972 41.645 79.8634 41.9764 80.1197C42.492 80.5225 43.1918 80.3028 43.56 79.6437Z" fill="#FF007A"/>
<path fill-rule="evenodd" clip-rule="evenodd" d="M58.4756 60.3833C57.5917 60.6396 56.7446 61.5916 56.4868 62.5437C56.3395 63.1296 56.4132 64.1914 56.671 64.521C57.0761 65.0336 57.4444 65.1801 58.4756 65.1801C60.5011 65.1801 62.232 64.3013 62.4162 63.2394C62.6003 62.3606 61.8269 61.1522 60.7589 60.603C60.2065 60.3101 59.0648 60.2002 58.4756 60.3833ZM60.8326 62.2141C61.1272 61.7747 61.0167 61.2987 60.4643 60.9692C59.4699 60.3467 57.96 60.8593 57.96 61.8113C57.96 62.2874 58.7334 62.8 59.4699 62.8C59.9487 62.8 60.6116 62.5071 60.8326 62.2141Z" fill="#FF007A"/>
</svg>
