<?xml version="1.0" encoding="iso-8859-1"?>
<!-- Generator: Adobe Illustrator 22.0.1, SVG Export Plug-In . SVG Version: 6.00 Build 0)  -->
<svg version="1.1" id="Layer_1" xmlns="http://www.w3.org/2000/svg" xmlns:xlink="http://www.w3.org/1999/xlink" x="0px" y="0px"
	 viewBox="0 0 438.53 438.53" style="enable-background:new 0 0 438.53 438.53;" xml:space="preserve">
<g id="_x33_3">
	<g>
		<path style="fill:#F4F4F4;" d="M407.603,110.087c-19.45-33.321-45.833-59.704-79.155-79.153
			c-33.328-19.448-69.711-29.17-109.176-29.17c-39.461,0-75.854,9.722-109.177,29.17C76.771,50.38,50.388,76.763,30.938,110.087
			c-19.451,33.326-29.173,69.72-29.173,109.178c0,39.46,9.725,75.847,29.17,109.175c19.449,33.321,45.832,59.704,79.156,79.155
			c33.326,19.447,69.717,29.17,109.177,29.17s75.854-9.723,109.179-29.17c33.322-19.444,59.704-45.834,79.152-79.155
			c19.445-33.325,29.166-69.718,29.166-109.175C436.766,179.803,427.044,143.409,407.603,110.087z M371.778,274.773
			c16.082,21.278,25.899,41.708,29.936,49.914c-9.102,0.556-31.69,2.257-58.141-1.05v0.002h-0.003c0,0.001,0.001,0.003,0.001,0.004
			h-0.001c7.842,25.476,10.136,48.04,11.097,57.091c-8.742-2.552-30.563-8.693-54.262-20.829c0,0.001,0,0.003,0,0.004l0,0
			c-1.341,26.596-6.927,48.58-9.075,57.437c-7.332-5.406-25.77-18.626-43.866-38.154c-10.39,24.556-23.161,43.291-28.195,50.864
			c-5.061-7.575-17.81-26.327-28.192-50.863l-0.001,0.001c-0.001-0.001-0.001-0.003-0.002-0.004l0,0
			c-18.122,19.53-36.53,32.748-43.852,38.154c-2.172-8.855-7.744-30.84-9.087-57.439h-0.002
			c-23.707,12.135-45.534,18.278-54.262,20.829c0.975-9.053,3.242-31.617,11.084-57.094c-26.445,3.305-49.028,1.602-58.133,1.048
			c4.025-8.206,13.875-28.632,29.924-49.911c-25.956-5.928-46.605-15.242-54.944-18.909c6.584-6.284,22.811-22.153,45.183-36.605
			c-22.372-14.482-38.599-30.325-45.183-36.611c8.339-3.669,28.988-12.989,54.944-18.921c-16.049-21.276-25.901-41.7-29.924-49.863
			c9.104-0.591,31.688-2.286,58.131,1.032l0.002,0.002V114.9c-7.842-25.481-10.109-48.049-11.084-57.122
			c8.73,2.573,30.557,8.725,54.264,20.873c1.343-26.638,6.915-48.623,9.087-57.46c7.322,5.38,25.731,18.616,43.852,38.162
			c10.384-24.556,23.132-43.294,28.195-50.878c5.034,7.583,17.805,26.324,28.193,50.88c18.098-19.546,36.536-32.782,43.868-38.164
			c2.148,8.835,7.734,30.822,9.075,57.439c23.697-12.15,45.52-18.304,54.262-20.849c-0.961,9.073-3.256,31.641-11.098,57.122
			c26.455-3.319,49.04-1.624,58.143-1.064c-4.037,8.194-13.853,28.618-29.936,49.895c25.98,5.932,46.639,15.254,54.952,18.921
			c-6.585,6.286-22.813,22.129-45.203,36.609c22.392,14.455,38.621,30.323,45.203,36.607
			C418.415,259.539,397.754,268.849,371.778,274.773z"/>
		<path style="fill:#00A330;" d="M426.728,182.654c-8.313-3.667-28.972-12.989-54.952-18.921
			c16.082-21.276,25.899-41.7,29.936-49.895c-9.102-0.56-31.688-2.255-58.143,1.064c7.842-25.481,10.137-48.049,11.098-57.122
			c-8.742,2.546-30.565,8.699-54.262,20.849c-1.341-26.617-6.927-48.603-9.075-57.439c-7.332,5.382-25.77,18.618-43.868,38.164
			c-10.388-24.556-23.159-43.297-28.193-50.88c-5.063,7.583-17.811,26.322-28.195,50.878c-18.122-19.546-36.53-32.782-43.852-38.162
			c-2.172,8.837-7.744,30.822-9.087,57.46c-23.707-12.148-45.533-18.3-54.264-20.873c0.975,9.073,3.242,31.641,11.084,57.122v0.002
			l-0.002-0.002c-26.443-3.319-49.026-1.624-58.131-1.032c4.023,8.163,13.875,28.587,29.924,49.863
			c-25.956,5.932-46.606,15.252-54.944,18.921c6.584,6.286,22.811,22.129,45.183,36.611c-22.372,14.453-38.599,30.321-45.183,36.605
			c8.339,3.667,28.988,12.981,54.944,18.909c-16.049,21.278-25.899,41.704-29.924,49.911c9.104,0.554,31.688,2.257,58.133-1.048
			c-7.842,25.477-10.109,48.041-11.084,57.094c8.729-2.552,30.555-8.695,54.262-20.829h0.002
			c1.343,26.599,6.915,48.583,9.087,57.439c7.322-5.406,25.731-18.624,43.852-38.154l0,0c-5.787-13.765-10.808-29.316-13.32-45.789
			c-12.49,10.983-26.356,19.698-39.617,26.508c-0.765-14.921-0.182-31.253,3.109-47.624c-15.511,6.078-31.496,9.504-46.287,11.359
			c4.395-14.237,10.55-29.415,19.194-43.648c-16.642,0.384-32.849-1.871-47.403-5.214c9.023-11.873,19.977-24.008,32.98-34.418
			c0,0,0.002,0,0.002,0.002v-0.002c-15.782-5.325-30.238-12.991-42.739-21.096c12.498-8.082,26.953-15.772,42.735-21.088
			c-13.001-10.428-23.953-22.56-32.978-34.441c14.555-3.337,30.758-5.576,47.403-5.182l0.001-0.001
			c-0.002-0.003-0.003-0.005-0.005-0.007c0.001,0,0.002,0,0.003,0c-8.643-14.235-14.796-29.404-19.192-43.641
			c14.79,1.822,30.771,5.259,46.285,11.325c-0.001-0.003-0.001-0.006-0.002-0.009c0.001,0,0.002,0.001,0.002,0.001
			c-3.29-16.325-3.873-32.679-3.108-47.566c13.26,6.805,27.124,15.489,39.613,26.469c0-0.001,0-0.003,0.001-0.004
			c0.002,0.001,0.003,0.003,0.005,0.004c2.51-16.465,7.532-32.022,13.321-45.765c10.177,10.939,20.196,23.825,28.19,38.444
			c0,0,0-0.001,0.001-0.001c0.001,0.002,0.002,0.003,0.003,0.005c7.971-14.618,18.034-27.506,28.193-38.448
			c5.777,13.721,10.815,29.303,13.315,45.769c12.5-10.981,26.37-19.692,39.631-26.496c0.754,14.911,0.166,31.229-3.133,47.596
			c15.521-6.076,31.506-9.506,46.291-11.326c-4.361,14.239-10.522,29.41-19.203,43.649c16.686-0.394,32.867,1.843,47.413,5.182
			c-9.002,11.881-19.989,24.014-32.98,34.439c15.778,5.319,30.23,13.011,42.731,21.09c-12.502,8.105-26.953,15.772-42.731,21.096
			c12.993,10.408,23.978,22.534,32.98,34.414c-14.546,3.347-30.727,5.599-47.413,5.216c8.678,14.234,14.841,29.411,19.206,43.649
			h0.003v-0.002c26.451,3.307,49.038,1.606,58.141,1.05c-4.037-8.206-13.853-28.636-29.936-49.914
			c25.976-5.924,46.637-15.234,54.95-18.903c-6.583-6.284-22.811-22.153-45.203-36.607
			C403.915,204.783,420.143,188.94,426.728,182.654z"/>
		<path style="fill:#00A330;" d="M300.405,359.904c23.699,12.136,45.519,18.278,54.262,20.829
			c-0.961-9.05-3.255-31.615-11.097-57.091c-14.787-1.847-30.772-5.281-46.294-11.359
			C300.575,328.652,301.162,344.984,300.405,359.904z"/>
		<path style="fill:#00A330;" d="M247.462,379.193c-10.159-10.971-20.222-23.856-28.193-38.476
			c-7.992,14.618-18.014,27.504-28.192,38.475c10.382,24.537,23.131,43.288,28.192,50.863c5.034-7.573,17.805-26.308,28.195-50.864
			c18.096,19.528,36.534,32.748,43.866,38.154c2.148-8.857,7.733-30.84,9.075-57.437c-13.258-6.81-27.127-15.523-39.627-26.508
			C258.277,349.874,253.24,365.427,247.462,379.193z"/>
		<polygon style="fill:#3BBD00;" points="300.405,359.906 300.405,359.908 300.405,359.908 300.405,359.904 300.405,359.904 		"/>
		<polygon style="fill:#3BBD00;" points="191.074,379.189 191.076,379.193 191.077,379.192 191.076,379.189 		"/>
		<polygon style="fill:#3BBD00;" points="343.57,323.643 343.571,323.643 343.57,323.639 343.569,323.639 		"/>
		<path style="fill:#3BBD00;" d="M155.572,165.77c-7.127-12.614-11.618-26.069-14.328-39.539
			c-15.514-6.066-31.495-9.503-46.285-11.325c4.396,14.237,10.549,29.405,19.192,43.641c13.704,0.295,27.768,2.427,41.421,7.225
			V165.77z"/>
		<path style="fill:#3BBD00;" d="M177.75,105.126c-12.489-10.979-26.353-19.663-39.613-26.469
			c-0.765,14.887-0.182,31.241,3.108,47.566c12.784,4.986,25.25,11.776,36.429,20.971
			C175.328,132.909,175.666,118.721,177.75,105.126z"/>
		<path style="fill:#3BBD00;" d="M204.818,137.326c2.666-14.256,7.85-27.468,14.448-39.521
			c-7.994-14.619-18.013-27.505-28.19-38.444c-5.789,13.743-10.81,29.3-13.321,45.765
			C188.072,114.212,197.473,124.851,204.818,137.326z"/>
		<path style="fill:#3BBD00;" d="M371.776,274.775c-9.001-11.879-19.987-24.006-32.98-34.414
			c15.778-5.324,30.228-12.991,42.731-21.096c-12.5-8.08-26.953-15.772-42.731-21.09c12.991-10.426,23.978-22.558,32.98-34.439
			c-14.546-3.339-30.727-5.576-47.413-5.182c8.681-14.239,14.842-29.41,19.203-43.649c-14.785,1.82-30.77,5.249-46.291,11.326
			c3.299-16.367,3.887-32.685,3.133-47.596c-13.262,6.804-27.131,15.515-39.631,26.496c-2.5-16.466-7.538-32.048-13.315-45.769
			c-10.158,10.942-20.222,23.829-28.193,38.448c6.605,12.052,11.764,25.263,14.448,39.518h0.002
			c7.336-12.475,16.755-23.134,27.056-32.204c2.071,13.596,2.453,27.786,0.085,42.072c11.179-9.193,23.634-15.984,36.413-20.97
			c-2.684,13.472-7.208,26.931-14.308,39.548v0.002c13.654-4.796,27.687-6.931,41.398-7.225
			c-7.105,11.727-15.952,22.817-26.957,32.254c14.482,0.15,28.371,2.961,41.39,7.37c-10.712,8.572-22.809,16.007-36.376,21.09v0.002
			c13.568,5.081,25.663,12.492,36.376,21.094c-13.018,4.385-26.906,7.213-41.392,7.354l0,0c-0.001,0-0.001,0-0.002,0v0.002
			c11.007,9.413,19.856,20.531,26.961,32.273c-13.711-0.313-27.742-2.429-41.398-7.247c7.099,12.611,11.624,26.075,14.308,39.536
			c-12.779-4.965-25.234-11.767-36.413-20.942c2.368,14.277,1.99,28.45-0.085,42.058c-10.301-9.081-19.72-19.728-27.058-32.19
			c-2.682,14.249-7.842,27.455-14.451,39.509c-6.596-12.053-11.782-25.262-14.447-39.509h-0.002
			c-7.346,12.463-16.749,23.108-27.068,32.19c-2.085-13.606-2.423-27.788-0.077-42.056c-11.179,9.174-23.646,15.978-36.429,20.94
			c2.708-13.46,7.2-26.925,14.328-39.536c0.001,0,0.002-0.001,0.003-0.001c0.04-0.072,0.083-0.143,0.124-0.216
			c-0.042,0.071-0.086,0.143-0.126,0.214c-13.654,4.818-27.718,6.937-41.423,7.249c7.115-11.741,15.98-22.859,26.983-32.273v-0.002
			v-0.002c-14.486-0.142-28.403-2.955-41.404-7.354c10.724-8.602,22.825-16.013,36.366-21.096
			c-13.541-5.083-25.642-12.518-36.368-21.09c13.005-4.411,26.921-7.221,41.406-7.37V190.8
			c-11.003-9.433-19.864-20.522-26.978-32.244l-0.001,0.001c-16.644-0.394-32.847,1.845-47.403,5.182
			c9.025,11.881,19.977,24.014,32.978,34.441c-15.782,5.317-30.236,13.007-42.735,21.088c12.5,8.105,26.957,15.772,42.739,21.096
			v0.002c0-0.002-0.002-0.002-0.002-0.002c-13.003,10.41-23.956,22.544-32.98,34.418c14.553,3.343,30.76,5.597,47.403,5.214
			c-8.643,14.233-14.799,29.411-19.194,43.648c14.791-1.855,30.776-5.281,46.287-11.359c-3.291,16.371-3.875,32.703-3.109,47.624
			c13.262-6.81,27.127-15.525,39.617-26.508c2.512,16.473,7.533,32.023,13.32,45.789h0.002c0,0.001,0.001,0.002,0.001,0.003
			c10.178-10.971,20.2-23.857,28.192-38.475c7.971,14.621,18.035,27.505,28.193,38.476c5.777-13.766,10.815-29.319,13.315-45.793
			c12.5,10.985,26.369,19.698,39.627,26.508c0-0.001,0-0.001,0-0.002v-0.002l0,0c0.757-14.92,0.17-31.252-3.129-47.62
			c15.522,6.078,31.508,9.512,46.294,11.359c0-0.001-0.001-0.003-0.001-0.004h0.001c-4.365-14.238-10.528-29.415-19.206-43.649
			C341.049,280.374,357.23,278.122,371.776,274.775z"/>
		<polygon style="fill:#FFE400;" points="114.151,158.547 114.149,158.547 114.154,158.554 114.155,158.553 		"/>
		<polygon style="fill:#FFE400;" points="177.755,105.126 177.751,105.122 177.75,105.126 177.755,105.13 		"/>
		<polygon style="fill:#FFE400;" points="219.27,97.809 219.267,97.804 219.266,97.805 219.269,97.81 		"/>
		<polygon style="fill:#FFE400;" points="141.245,126.223 141.242,126.222 141.244,126.231 141.246,126.232 		"/>
		<path style="fill:#FFE400;" d="M255.663,240.286c11.761,9.638,20.687,20.657,27.305,32.455
			c-12.744-4.494-25.161-11.357-36.704-21.249c7.773,13.07,12.398,26.48,14.595,39.847c-10.443-8.616-19.781-19.289-27.214-32.55
			c2.83,14.923,2.559,29.111,0.075,42.414c-6.893-11.668-11.97-24.874-14.451-39.873c-2.466,14.999-7.55,28.205-14.449,39.873
			c-2.47-13.301-2.763-27.491,0.059-42.414c-7.423,13.262-16.743,23.935-27.204,32.55c2.219-13.369,6.818-26.779,14.573-39.847
			c-11.523,9.892-23.927,16.755-36.674,21.249c0,0,0-0.001,0.001-0.001c-0.001,0-0.002,0.001-0.003,0.001
			c-7.128,12.611-11.62,26.077-14.328,39.536c12.783-4.963,25.25-11.767,36.429-20.94c-2.346,14.269-2.008,28.45,0.077,42.056
			c10.319-9.083,19.722-19.728,27.068-32.19h0.002c2.664,14.247,7.85,27.455,14.447,39.509c6.608-12.053,11.769-25.26,14.451-39.509
			c7.338,12.463,16.757,23.11,27.058,32.19c2.075-13.608,2.453-27.782,0.085-42.058v-0.002v0.002
			c11.179,9.176,23.634,15.978,36.413,20.942c-2.684-13.462-7.209-26.925-14.308-39.536c13.656,4.818,27.687,6.935,41.398,7.247
			c-7.105-11.743-15.954-22.861-26.961-32.273v-0.002C283.892,247.871,269.905,245.68,255.663,240.286z"/>
		<path style="fill:#FFE400;" d="M141.132,190.799v0.002c-14.484,0.148-28.401,2.959-41.406,7.37
			c10.726,8.572,22.827,16.007,36.368,21.09c-13.541,5.083-25.642,12.494-36.366,21.096c13.001,4.399,26.917,7.211,41.404,7.354
			v0.002v0.002c-11.003,9.415-19.868,20.533-26.983,32.273c13.705-0.313,27.77-2.431,41.423-7.249
			c0.041-0.072,0.084-0.143,0.126-0.214c6.584-11.716,15.467-22.66,27.173-32.239c-14.235,5.394-28.25,7.585-41.74,7.427
			c10.246-8.798,22.372-16.12,36.738-21.152c-15.194,0.186-29.101-2.544-41.775-7.298c12.674-4.763,26.581-7.496,41.775-7.297
			c-14.364-5.044-26.49-12.348-36.738-21.162c13.491-0.16,27.509,2.047,41.74,7.421c-11.778-9.625-20.701-20.665-27.297-32.45
			c12.748,4.476,25.151,11.345,36.667,21.247c-7.746-13.064-12.346-26.47-14.565-39.825c10.463,8.596,19.783,19.271,27.204,32.556
			c-2.822-14.967-2.528-29.143-0.055-42.426c6.899,11.622,11.982,24.86,14.447,39.871c2.482-15.01,7.56-28.248,14.451-39.871
			c2.484,13.28,2.755,27.459-0.075,42.422c7.433-13.282,16.771-23.958,27.218-32.554c-2.201,13.355-6.822,26.761-14.597,39.835
			c11.541-9.911,23.962-16.757,36.702-21.257c-6.614,11.784-15.546,22.825-27.313,32.45c14.251-5.374,28.239-7.581,41.748-7.421
			c-10.255,8.814-22.394,16.116-36.734,21.162c15.192-0.2,29.093,2.534,41.752,7.297c-12.659,4.755-26.557,7.484-41.752,7.269
			c14.34,5.063,26.476,12.386,36.734,21.183c14.486-0.141,28.374-2.969,41.392-7.354c-10.712-8.602-22.807-16.013-36.376-21.094
			v-0.002c13.567-5.083,25.663-12.518,36.376-21.09c-13.019-4.409-26.907-7.219-41.39-7.37
			c11.005-9.437,19.852-20.527,26.957-32.254c-13.711,0.295-27.744,2.429-41.398,7.225v-0.002
			c7.101-12.617,11.624-26.077,14.308-39.548c-12.779,4.986-25.234,11.776-36.413,20.97c2.368-14.286,1.986-28.476-0.085-42.072
			c-10.301,9.071-19.72,19.73-27.056,32.204h-0.002c-2.684-14.255-7.843-27.466-14.448-39.518c0,0,0,0.001-0.001,0.001
			c-0.001-0.002-0.002-0.003-0.003-0.005c-6.598,12.053-11.782,25.265-14.448,39.521c-7.345-12.475-16.746-23.115-27.063-32.2
			c0,0.001,0,0.003-0.001,0.004c-0.002-0.001-0.003-0.003-0.005-0.004c-2.084,13.595-2.422,27.783-0.077,42.068
			c-11.178-9.195-23.645-15.985-36.429-20.971c0.001,0.003,0.001,0.006,0.002,0.009c-0.001,0-0.001-0.001-0.002-0.001
			c2.71,13.47,7.201,26.925,14.328,39.539v0.002c-13.653-4.798-27.717-6.93-41.421-7.225c0.001,0.002,0.002,0.004,0.004,0.006
			l-0.001,0.001C121.267,170.277,130.129,181.366,141.132,190.799z"/>
		<polygon style="fill:#FFFFFF;" points="297.402,247.713 297.404,247.713 297.404,247.713 		"/>
		<path style="fill:#FFFFFF;" d="M156.059,271.913c-0.117,0.205-0.24,0.408-0.36,0.612c-0.04,0.072-0.083,0.143-0.124,0.216
			c0.272-0.095,0.542-0.197,0.81-0.296L156.059,271.913z"/>
		<path style="fill:#FFFFFF;" d="M201.951,206.62c-9.071,0-9.071,10.587-9.071,12.604c0,2.077,0,11.975,8.815,11.975
			c7.309,0,9.135-7.124,9.135-12.289C210.831,215.757,210.2,206.621,201.951,206.62z"/>
		<path style="fill:#FFFFFF;" d="M236.714,207.314c-9.445,0-9.445,10.017-9.445,12.857c0,3.844,0.57,11.722,8.883,11.722
			c1.505,0,4.657-0.316,6.671-3.091c2.272-3.084,2.583-7.623,2.583-9.892C245.406,213.238,243.7,207.314,236.714,207.314z"/>
		<path style="fill:#FFFFFF;" d="M302.422,219.261c-12.659-4.763-26.559-7.496-41.752-7.297
			c14.34-5.046,26.478-12.348,36.734-21.162c-13.509-0.16-27.497,2.047-41.748,7.421c11.767-9.625,20.699-20.665,27.313-32.45
			c-12.74,4.5-25.161,11.345-36.702,21.257c7.775-13.074,12.396-26.48,14.597-39.835c-10.447,8.596-19.785,19.273-27.218,32.554
			c2.83-14.963,2.559-29.143,0.075-42.422c-6.891,11.622-11.968,24.86-14.451,39.871c-2.464-15.01-7.548-28.249-14.447-39.871
			c-2.472,13.284-2.767,27.459,0.055,42.426c-7.421-13.286-16.741-23.96-27.204-32.556c2.219,13.355,6.82,26.761,14.565,39.825
			c-11.515-9.901-23.919-16.771-36.667-21.247c6.596,11.784,15.519,22.825,27.297,32.45c-14.231-5.374-28.248-7.581-41.74-7.421
			c10.248,8.814,22.374,16.118,36.738,21.162c-15.194-0.2-29.101,2.534-41.775,7.297c12.674,4.755,26.581,7.484,41.775,7.298
			c-14.366,5.032-26.492,12.354-36.738,21.152c13.489,0.158,27.505-2.033,41.74-7.427c-11.706,9.579-20.589,20.523-27.173,32.239
			c0.12-0.204,0.243-0.407,0.36-0.612l0.326,0.532c-0.268,0.099-0.538,0.201-0.81,0.296c0,0,0,0.001-0.001,0.001
			c12.748-4.494,25.151-11.357,36.674-21.249c-7.755,13.068-12.354,26.478-14.573,39.847c10.461-8.616,19.781-19.289,27.204-32.55
			c-2.823,14.923-2.53,29.113-0.059,42.414c6.899-11.668,11.982-24.874,14.449-39.873c2.48,14.999,7.558,28.205,14.451,39.873
			c2.484-13.303,2.755-27.491-0.075-42.414c7.433,13.262,16.771,23.935,27.214,32.55c-2.197-13.367-6.822-26.777-14.595-39.847
			c11.543,9.892,23.96,16.755,36.704,21.249c-6.618-11.798-15.544-22.817-27.305-32.455c14.242,5.393,28.229,7.585,41.74,7.427l0,0
			c0.001,0,0.001,0,0.002,0c-10.257-8.798-22.394-16.12-36.734-21.183C275.865,226.746,289.764,224.016,302.422,219.261z
			 M214.041,230.063c-2.52,3.592-6.74,5.422-11.084,5.422c-1.514,0-4.343-0.191-7.051-2.019c-1.767-1.195-2.459-2.267-3.094-3.214
			l-0.129,4.789h-5.726l0.129-5.67v-38.057h5.921h0.001v16.693c0.814-1.448,3.147-5.422,10.327-5.422
			c3.152,0,7.123,0.757,10.014,4.035c1.576,1.83,3.715,4.979,3.715,11.908C217.064,224.641,215.623,227.984,214.041,230.063z
			 M237.151,236.239c-4.597,0-7.993-1.953-9.692-4.726v15.689h-5.855h-0.001h0.001v-38.629c0-1.384-0.069-2.143-0.194-5.166h5.985
			l0.126,5.227c2.956-4.974,8.193-5.731,10.771-5.731c6.8,0,13.281,4.66,13.281,16.385
			C251.573,231.075,244.716,236.239,237.151,236.239z"/>
		<path style="fill:#00A330;" d="M203.334,202.585c-7.18,0-9.513,3.974-10.327,5.422v-16.693h-0.001h-5.921v38.057l-0.129,5.67
			h5.726l0.129-4.789c0.635,0.946,1.327,2.019,3.094,3.214c2.709,1.828,5.537,2.019,7.051,2.019c4.344,0,8.563-1.829,11.084-5.422
			c1.581-2.08,3.023-5.423,3.023-11.536c0-6.929-2.139-10.078-3.715-11.908C210.457,203.342,206.486,202.585,203.334,202.585z
			 M201.695,231.199c-8.815,0-8.815-9.898-8.815-11.975c0-2.017,0-12.604,9.071-12.604c8.249,0.001,8.88,9.137,8.88,12.29
			C210.831,224.075,209.004,231.199,201.695,231.199z"/>
		<path style="fill:#00A330;" d="M238.292,202.904c-2.578,0-7.815,0.756-10.771,5.731l-0.126-5.227h-5.985
			c0.126,3.024,0.194,3.782,0.194,5.166v38.629h5.855v-15.689c1.699,2.773,5.095,4.726,9.692,4.726
			c7.565,0,14.422-5.164,14.422-16.951C251.573,207.564,245.092,202.904,238.292,202.904z M242.823,228.802
			c-2.014,2.775-5.166,3.091-6.671,3.091c-8.313,0-8.883-7.878-8.883-11.722c0-2.839,0-12.857,9.445-12.857
			c6.986,0,8.692,5.924,8.692,11.596C245.406,221.179,245.095,225.718,242.823,228.802z"/>
	</g>
</g>
</svg>
