<svg width="124" height="124" viewBox="0 0 124 124" fill="none" xmlns="http://www.w3.org/2000/svg">
<circle cx="62" cy="62" r="60.5" fill="#06141F" stroke="#29353E" stroke-width="3"/>
<path d="M93.0828 35.5506L82.6966 40.8422L32.5429 66.388C32.3733 65.0945 32.288 63.7914 32.2875 62.4868C32.2943 57.2817 33.6609 52.1686 36.2519 47.6541C38.8428 43.1396 42.5683 39.3803 47.0592 36.7486C51.55 34.1169 56.6505 32.7041 61.8554 32.6502C67.0603 32.5962 72.189 33.903 76.7335 36.4411L82.6784 33.4121L83.5652 32.9595C78.1193 29.0068 71.6866 26.6368 64.9779 26.1114C58.2693 25.586 51.5461 26.9257 45.5513 29.9824C39.5564 33.0391 34.5235 37.6938 31.0086 43.4321C27.4938 49.1703 25.6339 55.7686 25.6346 62.4978C25.6346 63.4272 25.6699 64.3529 25.7404 65.275C25.8393 66.5808 25.5497 67.8866 24.9081 69.0282C24.2665 70.1698 23.3016 71.0961 22.1348 71.6906L19 73.289V80.7448L28.2293 76.0407L31.2182 74.5152L34.1633 73.0153L87.0357 46.0755L92.977 43.0501L105.257 36.7914V29.3393L93.0828 35.5506Z" fill="#6ADF7C"/>
<path d="M105.257 44.2505L37.1667 78.9198L31.2255 81.9524L19 88.182V95.6304L31.1415 89.4446L41.5277 84.153L91.7325 58.5707C91.9022 59.8728 91.9876 61.1844 91.988 62.4975C91.9847 67.7087 90.6186 72.8284 88.0251 77.3484C85.4316 81.8684 81.701 85.6314 77.2036 88.264C72.7062 90.8965 67.5985 92.307 62.3876 92.3553C57.1766 92.4037 52.0436 91.0882 47.4982 88.5396L47.1332 88.733L40.6884 92.0175C46.133 95.9703 52.5644 98.341 59.272 98.8677C65.9795 99.3943 72.7021 98.0564 78.697 95.0018C84.6918 91.9472 89.7255 87.2947 93.2419 81.5585C96.7582 75.8223 98.6204 69.2257 98.6226 62.4975C98.6226 61.5596 98.5861 60.6217 98.5167 59.6947C98.4181 58.3894 98.7074 57.0841 99.3482 55.9426C99.9891 54.8011 100.953 53.8745 102.119 53.2791L105.257 51.6807V44.2505Z" fill="#6ADF7C"/>
</svg>
