<svg width="124" height="124" viewBox="0 0 124 124" fill="none" xmlns="http://www.w3.org/2000/svg">
<g clip-path="url(#clip0)">
<path d="M123.998 61.9939C123.998 96.2311 96.2426 123.987 61.9995 123.987C27.7564 123.987 0.000976562 96.2311 0.000976562 61.9939C0.000976562 27.7567 27.757 0 61.9995 0C96.2419 0 123.998 27.7541 123.998 61.9939Z" fill="white"/>
<path d="M61.9998 0C27.7689 0 -0.0357136 27.796 0.00786365 61.9919C0.016447 68.8335 1.10753 75.4146 3.15533 81.5705H21.7047V29.4198L61.9998 69.7102L102.293 29.4198V81.5715H120.846C122.897 75.4159 123.982 68.8348 123.995 61.9929C124.053 27.7614 96.2343 0.00825239 61.9998 0.00825239V0Z" fill="#F26822"/>
<path d="M52.7318 78.9729L35.1468 61.3887V94.2048H21.7022L9.01562 94.2071C19.8977 112.059 39.5642 124 61.9986 124C84.4329 124 104.1 112.056 114.985 94.2045H88.8465V61.3887L71.2604 78.9729L61.9966 88.2357L52.7325 78.9729H52.7318Z" fill="#4D4D4D"/>
</g>
<defs>
<clipPath id="clip0">
<rect width="124" height="124" fill="white"/>
</clipPath>
</defs>
</svg>
