<svg width="124" height="124" viewBox="0 0 124 124" fill="none" xmlns="http://www.w3.org/2000/svg">
<circle cx="62" cy="62" r="60.5" fill="#06141F" stroke="#29353E" stroke-width="3"/>
<path d="M70.0013 101C64.4354 101 60.3728 99.6593 57.8136 96.9781C55.4429 94.7084 54.0671 91.5925 53.9871 88.3114C53.9582 87.3146 54.1892 86.3275 54.6574 85.447C55.094 84.6862 55.7248 84.0549 56.4852 83.6177C57.3691 83.1769 58.3433 82.9474 59.331 82.9474C60.3187 82.9474 61.2929 83.1769 62.1768 83.6177C62.9359 84.0532 63.5637 84.6851 63.9944 85.447C64.476 86.3232 64.7157 87.3119 64.6887 88.3114C64.7384 89.5051 64.396 90.6822 63.7138 91.663C63.1451 92.4636 62.3324 93.0583 61.3973 93.3581C62.3117 94.5224 63.6056 95.3289 65.0535 95.6374C66.6734 96.1079 68.3511 96.3499 70.038 96.3562C72.2713 96.3757 74.4587 95.7217 76.3147 94.4794C78.2402 93.1191 79.6761 91.1747 80.4096 88.9342C81.3395 86.2677 81.7933 83.4585 81.7503 80.6348C81.8253 77.691 81.3286 74.7605 80.2877 72.0058C79.5048 69.8026 78.0187 67.9182 76.0587 66.6433C74.2368 65.4904 72.122 64.8855 69.966 64.9006C68.0874 65.0598 66.2759 65.6748 64.6887 66.6922L60.7755 68.6542V66.6922L78.3619 43.0998H53.9871V67.5819C53.9182 69.3486 54.3855 71.0948 55.3277 72.591C55.7835 73.2429 56.4 73.7661 57.1174 74.1098C57.8348 74.4536 58.6288 74.6062 59.4226 74.5529C60.8891 74.5233 62.3074 74.0235 63.4685 73.1271C64.7847 72.1626 65.93 70.9843 66.8568 69.6413C66.9402 69.4059 67.0941 69.2018 67.2975 69.0567C67.4608 68.9156 67.6693 68.8377 67.8851 68.8374C68.3085 68.876 68.7092 69.0464 69.0308 69.3246C69.4382 69.7797 69.6599 70.3712 69.6522 70.982C69.6051 71.3925 69.5319 71.7996 69.4328 72.2007C68.5669 74.2965 67.1155 76.0985 65.2523 77.3909C63.5217 78.5619 61.4778 79.1828 59.3883 79.1722C54.1109 79.1722 50.4549 78.1322 48.4203 76.0522C47.3745 74.9026 46.5685 73.5559 46.0495 72.091C45.5305 70.626 45.3089 69.0723 45.3977 67.5207V43.0998H33V38.551H45.4555V28.1794L42.6038 25.3258V23H50.8788L53.9871 24.609V38.551L86.1859 38.4531L89.3916 41.6705L69.6478 61.5104C70.8406 61.0306 72.0967 60.7268 73.3769 60.6084C75.9106 60.7194 78.3827 61.4251 80.5932 62.6684C83.153 63.8851 85.3102 65.8102 86.8092 68.2155C88.1524 70.2517 89.1031 72.521 89.6124 74.9065C90.0312 76.7881 90.2558 78.7078 90.2828 80.6353C90.2958 84.3138 89.4618 87.9459 87.8453 91.2502C86.3123 94.45 83.7323 97.03 80.5325 98.563C77.2572 100.177 73.6527 101.011 70.0013 101V101Z" fill="#2C7DF7"/>
</svg>
