<svg width="124" height="124" viewBox="0 0 124 124" fill="none" xmlns="http://www.w3.org/2000/svg">
<circle cx="62" cy="62" r="60.5" fill="#06141F" stroke="#29353E" stroke-width="3"/>
<path d="M45.9922 54.7177L62.4998 38.21L79.0153 54.7248L88.6202 45.1198L62.4998 19L36.3879 45.112L45.9926 54.717L45.9922 54.7177ZM20 61.5L29.6053 51.8933L39.2099 61.498L29.6046 71.1033L20 61.5ZM45.9922 68.2833L62.4998 84.79L79.0149 68.2755L88.625 77.8754L88.6202 77.8805L62.4998 104L36.3879 77.888L36.3743 77.8744L45.9932 68.2823L45.9922 68.2833ZM85.7897 61.5041L95.395 51.8987L105 61.5034L95.3947 71.1087L85.7897 61.5041Z" fill="#F3BA2F"/>
<path d="M72.2393 61.4945H72.2433L62.4976 51.748L55.294 58.9496L54.4665 59.7775L52.7597 61.4846L52.7461 61.4979L52.7597 61.5118L62.4976 71.2511L72.244 61.5047L72.2488 61.4992L72.2399 61.4945" fill="#F3BA2F"/>
</svg>
