<?xml version="1.0" encoding="iso-8859-1"?>
<!-- Generator: Adobe Illustrator 22.0.1, SVG Export Plug-In . SVG Version: 6.00 Build 0)  -->
<svg version="1.1" id="Layer_1" xmlns="http://www.w3.org/2000/svg" xmlns:xlink="http://www.w3.org/1999/xlink" x="0px" y="0px"
	 viewBox="0 0 438.53 438.53" style="enable-background:new 0 0 438.53 438.53;" xml:space="preserve">
<g id="_x33_4">
	<g>
		<path style="fill:#EDEDED;" d="M407.603,110.087c-19.45-33.321-45.833-59.704-79.155-79.153
			c-33.328-19.448-69.711-29.17-109.176-29.17c-39.461,0-75.854,9.722-109.177,29.17C76.771,50.38,50.388,76.763,30.938,110.087
			c-19.451,33.326-29.173,69.72-29.173,109.178c0,39.46,9.725,75.847,29.17,109.175c19.449,33.321,45.832,59.704,79.156,79.155
			c33.326,19.447,69.717,29.17,109.177,29.17s75.854-9.723,109.179-29.17c33.322-19.444,59.704-45.834,79.152-79.155
			c19.445-33.325,29.166-69.718,29.166-109.175C436.766,179.803,427.044,143.409,407.603,110.087z M93.155,123.706
			c-8.366-8.363-8.366-21.746,0-30.11c8.366-8.363,21.744-8.363,30.11,0l48.512,48.512v-33.456c0-11.661,9.37-21.412,21.412-21.412
			c11.709,0,21.079,9.702,21.079,21.412v42.537c0.006,8.986-5.344,17.303-13.378,20.026c-22.415,8.029-30.11,29.775-30.11,29.775
			c-3.01,8.029-11.038,14.052-20.076,14.052h-42.491c-11.709,0-21.412-9.702-21.412-21.412s8.028-21.078,21.412-21.078l34.124,0.334
			L93.155,123.706z M214.752,330.129c0,11.709-9.37,21.078-21.412,21.078h-0.146c-11.709,0-21.079-7.695-20.741-21.078l0.478-34.124
			l-49.182,49.18c-8.366,8.363-22.083,8.363-30.11,0c-8.366-8.363-8.366-22.081,0-30.11l48.179-48.512h-33.121
			c-12.042,0-21.412-9.702-21.412-21.412c0-11.709,9.37-21.412,21.412-21.412h42.491c9.031,0,17.065,5.353,20.076,13.382
			c7.695,22.751,29.439,30.444,29.439,30.444c8.366,3.01,14.049,10.706,14.049,20.074L214.752,330.129L214.752,330.129z
			 M345.135,315.074c8.366,8.363,8.366,21.746,0,30.11c-8.366,8.363-21.744,8.363-30.11,0l-48.558-48.512v33.456
			c0,12.713-9.702,21.412-21.412,21.412c-11.709,0-21.412-9.702-21.412-21.412V287.64c0-9.033,5.688-17.398,13.716-20.074
			c22.415-7.695,30.11-29.728,30.11-29.728c3.01-8.029,11.038-14.052,20.076-14.052h42.491c11.709,0,21.412,9.702,21.412,21.412
			c-0.006,11.616-8.705,21.031-21.417,21.031l-34.124-0.334L345.135,315.074z M330.316,214.705h0.193v0.001h-42.491
			c-9.031,0-17.398-5.353-20.076-13.382c-7.695-22.415-29.778-30.444-29.778-30.444c-8.028-3.01-14.049-10.706-14.049-20.074
			v-42.489c0-11.709,9.702-21.078,21.412-21.078c11.709,0,21.079,8.699,21.079,21.078l-0.478,34.124l49.182-49.18
			c8.366-8.363,21.744-8.363,30.11,0s8.366,22.081,0,30.444l-48.558,48.176h33.453c11.709,0,21.412,9.702,21.412,21.412
			C351.728,205.003,342.026,214.705,330.316,214.705z"/>
		<path style="fill:#003B7A;" d="M86.802,193.629c0,11.709,9.702,21.412,21.412,21.412h42.491c9.037,0,17.065-6.022,20.076-14.052
			c0,0,7.695-21.746,30.11-29.775c8.034-2.723,13.384-11.04,13.378-20.026v-42.537c0-11.709-9.37-21.412-21.079-21.412
			c-12.042,0-21.412,9.75-21.412,21.412v33.456l-48.512-48.512c-8.366-8.363-21.744-8.363-30.11,0
			c-8.366,8.365-8.366,21.747,0,30.11l49.182,49.18l-34.124-0.334C94.83,172.551,86.802,181.92,86.802,193.629z"/>
		<path style="fill:#003B7A;" d="M200.703,267.566c0,0-21.744-7.694-29.439-30.444c-3.01-8.029-11.044-13.382-20.076-13.382h-42.491
			c-12.042,0-21.412,9.702-21.412,21.412c0,11.709,9.37,21.412,21.412,21.412h33.121l-48.178,48.51
			c-8.366,8.029-8.366,21.747,0,30.11c8.028,8.363,21.744,8.363,30.11,0l49.182-49.18l-0.478,34.124
			c-0.338,13.382,9.031,21.078,20.741,21.078h0.146c12.042,0,21.412-9.368,21.412-21.078V287.64
			C214.752,278.272,209.07,270.577,200.703,267.566z"/>
		<path style="fill:#003B7A;" d="M330.316,171.882h-33.453l48.558-48.176c8.366-8.363,8.366-22.081,0-30.444s-21.744-8.363-30.11,0
			l-49.182,49.18l0.478-34.124c0-12.379-9.37-21.078-21.079-21.078s-21.412,9.368-21.412,21.078v42.489
			c0,9.368,6.021,17.064,14.049,20.074c0,0,22.082,8.029,29.778,30.444c2.678,8.029,11.044,13.382,20.076,13.382h42.491v-0.001
			h-0.193c11.709,0,21.412-9.702,21.412-21.412C351.728,181.584,342.026,171.882,330.316,171.882z"/>
		<path style="fill:#003B7A;" d="M351.448,245.198c0-11.709-9.702-21.412-21.412-21.412h-42.491
			c-9.037,0-17.065,6.022-20.076,14.052c0,0-7.695,22.033-30.11,29.728c-8.028,2.676-13.716,11.041-13.716,20.074v42.489
			c0,11.709,9.702,21.412,21.412,21.412c11.709,0,21.412-8.699,21.412-21.412v-33.456l48.558,48.512
			c8.366,8.363,21.744,8.363,30.11,0c8.366-8.365,8.366-21.747,0-30.11l-49.229-49.18l34.124,0.334
			C342.743,266.229,351.442,256.814,351.448,245.198z"/>
	</g>
</g>
</svg>
