<svg id="Layer_1" data-name="Layer 1" xmlns="http://www.w3.org/2000/svg" viewBox="0 0 435 435"><defs><style>.cls-1{fill:#f4f4f4;}.cls-2{fill:#00008f;}.cls-3{fill:#ff1721;}.cls-4{fill:#fff;}</style></defs><title>62</title><g id="ALL"><path class="cls-1" d="M407.6,110.09a216.63,216.63,0,0,0-79.15-79.16q-50-29.16-109.18-29.17T110.09,30.93a216.55,216.55,0,0,0-79.15,79.16q-29.18,50-29.18,109.18T30.93,328.44a216.73,216.73,0,0,0,79.16,79.16q50,29.16,109.18,29.17T328.45,407.6a216.63,216.63,0,0,0,79.15-79.16q29.16-50,29.17-109.17T407.6,110.09Z" transform="translate(-1.76 -1.76)"/><g id="_62" data-name="62"><g id="g76"><rect id="base-2" class="cls-2" x="87" y="87" width="261" height="261"/><polygon id="switch" class="cls-3" points="233.75 215.9 248.74 215.9 348 87 333.34 87 233.75 215.9"/><path id="axa" class="cls-4" d="M288.19,275.18c4.55,12.73,13.93,45.85,17.66,48.49H281.24a41.76,41.76,0,0,0-1.16-8.69c-1.06-3.78-10-32.42-10-32.42H231l-6.15,8.71s7.38,23.11,7.84,24.24c.8,2,4.32,8.16,4.32,8.16H213.46s-.61-3.53-.84-5c-.19-1.19-2.24-7.69-2.24-7.69s-5.34,5.86-6.8,8.57-2.12,4.12-2.12,4.12H183s-.62-3.53-.85-5c-.18-1.19-2.44-8.21-2.44-8.21s-5.16,6.27-6.63,9-2.09,4.23-2.09,4.23H152.75s5.16-4.91,7-7c3-3.58,14.36-18.38,14.36-18.38l-4.54-15.71H130.74s-22.12,29.06-23,30-7.33,10.14-7.48,11.15H88.76v-7.32a6.33,6.33,0,0,1,.46-.44c.35-.26,16.77-20.64,31.85-40.73,13.55-17.52,26.26-34.56,27.38-36.18,2.7-3.93,6.59-12.4,6.59-12.4H175.1s.62,7.79,1.2,9.69c.52,1.67,12.74,41.76,13,42.19l6.76-8.64-11.55-35.55s-2.71-6.69-3.59-7.69h23.43a20.46,20.46,0,0,0,.76,6.37c1,2.93,6,21.05,6,21.05s16-20,16.91-21.47a13,13,0,0,0,2-6h19.52s-3.58,2.61-9.84,10.53L217,266s1.8,6.14,2.68,9.19c.24.88.4,1.47.4,1.53s.46-.53,1.24-1.53c5.32-6.74,29.51-38.46,31-41.18a59.41,59.41,0,0,0,3.95-7.4h19s.44,5.68,1,7.26Zm-29-30c-2.79,6-19.25,26-19.25,26H266s-5.06-15.56-5.94-19.06a27.84,27.84,0,0,1-.51-6.82C259.58,245,259.52,244.49,259.21,245.15Zm-100.15,0c-2.79,6-19.25,26-19.25,26h26.06s-5.05-15.56-5.93-19.06a27.84,27.84,0,0,1-.51-6.82C159.43,245,159.37,244.49,159.06,245.15Zm39.25,60.76,7.17-9.86c-.66-.71-4.7-13-4.7-13l-6.94,9Z" transform="translate(-1.76 -1.76)"/></g></g></g></svg>