<svg id="Layer_1" data-name="Layer 1" xmlns="http://www.w3.org/2000/svg" viewBox="0 0 435 435"><defs><style>.cls-1{fill:#f4f4f4;}.cls-2,.cls-4{fill:#fff;}.cls-2{fill-opacity:0;}.cls-3{fill:#2319dc;}.cls-5{fill:#e10601;}</style></defs><title>69</title><g id="ALL"><path class="cls-1" d="M407.6,110.09a216.63,216.63,0,0,0-79.15-79.16q-50-29.16-109.18-29.17T110.09,30.93a216.55,216.55,0,0,0-79.15,79.16q-29.18,50-29.18,109.18T30.93,328.44a216.73,216.73,0,0,0,79.16,79.16q50,29.16,109.18,29.17T328.45,407.6a216.63,216.63,0,0,0,79.15-79.16q29.16-50,29.17-109.17T407.6,110.09Z" transform="translate(-1.76 -1.76)"/><g id="_69" data-name="69"><rect id="rect2223" class="cls-2" x="25.09" y="124.92" width="382.91" height="129.86"/><g id="g2225"><path id="path2227" class="cls-3" d="M177.16,196.08c12.94-2.77,11.17-18.26,10.79-21.64-.64-5.22-6.77-14.33-15.09-13.6-10.48.93-12,16.07-12,16.07-1.41,7,3.39,22,16.31,19.17m24-26c7.14,0,12.91-8.23,12.91-18.39s-5.77-18.39-12.91-18.39-12.94,8.22-12.94,18.39,5.79,18.39,12.94,18.39M232,171.34c9.56,1.26,15.69-8.94,16.91-16.67S244,138,237.22,136.43s-15.26,9.3-16,16.39c-.93,8.66,1.23,17.3,10.78,18.52m37.87,13c0-3.7-3.06-14.84-14.46-14.84S242.46,180,242.46,187.43c0,7.1.59,17,14.77,16.68s12.62-16.06,12.62-19.78m-14.46,32.45S240.61,205.35,232,193c-11.71-18.22-28.33-10.8-33.89-1.54s-14.15,15.14-15.38,16.69-17.85,10.5-14.17,26.89,16.65,16.06,16.65,16.06a72.48,72.48,0,0,0,20.61-1.54,43.41,43.41,0,0,1,20.64.61s25.87,8.67,32.94-8-4-25.35-4-25.35" transform="translate(-1.76 -1.76)"/><path id="path2229" class="cls-4" d="M203.48,200.84v11h-9s-9,.74-12.09,10.9c-1.1,6.77,1,10.77,1.32,11.62s3.26,5.81,10.53,7.27H211.1V201ZM203.35,235h-6.78a7.15,7.15,0,0,1-6.16-5.68c-.74-2.41.11-5.19.49-6.28a7.9,7.9,0,0,1,5.19-4.6h7.26V235Z" transform="translate(-1.76 -1.76)"/><path id="path2231" class="cls-4" d="M215.22,212.83v21.41s.35,5.32,7.86,7.27h19.36V212.82h-8.36v21.54h-8s-2.55-.37-3-2.42V212.7Z" transform="translate(-1.76 -1.76)"/><path id="path2233" class="cls-5" d="M334.65,198.77v-9H275.19l-.07,9.16h25.56l-2.4,5.48H276.54v45.29h51.64c5.4,0,4.92-5.45,4.92-5.45V204.38H311.33l1.91-5.61ZM323.1,240s-.62,1.51-1.51,1.51H287.33V230.94h35.78V240Zm-.05-17.78H287.32v-9.91h35.73v9.91Z" transform="translate(-1.76 -1.76)"/><path id="path2235" class="cls-5" d="M402.59,190H379.26v-4.57H368.32v4.35H341.56v59.82h9.63v-52.1h51.4Zm-6.29,12.39V198.9h-9.41v3.47H367.55V199h-8.91v3.34h-6l.12,6.77h5.9v12.73h32.54c4.52,0,5.11-4.76,5.11-4.76v-8h6.89v-6.78H396.3Zm-9.41,11.4s-.84,1.54-1.91,1.54H367.44V209h19.45v4.76Zm-33,17.38,15,8.68c-1.18,1.31-6.3,3-6.3,3h-10v6.68h13.56c4.05-.83,11.54-4.63,11.54-4.63,3.1,2.84,9.06,4,9.06,4h15.45v-6.66H390.58a17.58,17.58,0,0,1-6-2.26l17.62-10.12v-5.47h-48.3v6.78ZM385.1,231l-8.57,4.52L368.68,231Z" transform="translate(-1.76 -1.76)"/><path id="path2237" class="cls-5" d="M142.9,199.51h13V188.08h-13Zm0,49.83h13V204.49h-13Z" transform="translate(-1.76 -1.76)"/><path id="path2239" class="cls-5" d="M121.79,204.53l-27.68-.07v9.42h24.27s5.78,1.43,5.78,5.1v3.32h-22s-8.64.8-11.41,11.12c-.48,4.83.16,7.21.48,8.09a13.64,13.64,0,0,0,10.38,8h35V217.38s-1.66-11-14.83-12.85m2.37,36.1H106.48a5.81,5.81,0,0,1-3.33-2.94,4.15,4.15,0,0,1-.08-3.25,6.75,6.75,0,0,1,3.81-3.4h17.28Z" transform="translate(-1.76 -1.76)"/><path id="path2241" class="cls-5" d="M87.92,233.61c.39-10.92-9.41-14.7-9.41-14.7,8.29-4.34,7.24-15.27,7.24-15.27-.9-16.73-21.34-15.95-21.34-15.95H32.82v62.36H68.49c20.94-.09,19.43-16.44,19.43-16.44m-20.15,4.85v0H46.4V225H67.67l.71.15s4.05.74,5.52,4.37c0,0,.84,3.42-1,6a7.16,7.16,0,0,1-5.14,3m4.53-28.91a7.25,7.25,0,0,1-5.25,3.2H46.4v-12.9H67s4.46-.21,5.94,3.34c0,0,.89,3.77-.61,6.36" transform="translate(-1.76 -1.76)"/></g></g></g></svg>