<?xml version="1.0" encoding="iso-8859-1"?>
<!-- Generator: Adobe Illustrator 22.0.1, SVG Export Plug-In . SVG Version: 6.00 Build 0)  -->
<svg version="1.1" id="Layer_1" xmlns="http://www.w3.org/2000/svg" xmlns:xlink="http://www.w3.org/1999/xlink" x="0px" y="0px"
	 viewBox="0 0 438.53 438.53" style="enable-background:new 0 0 438.53 438.53;" xml:space="preserve">
<g id="_x38_1">
	<g>
		<path style="fill:#F9F9F9;" d="M407.603,110.087c-19.45-33.321-45.833-59.704-79.155-79.153
			c-33.328-19.448-69.711-29.17-109.176-29.17c-39.461,0-75.854,9.722-109.177,29.17C76.771,50.38,50.388,76.763,30.938,110.087
			c-19.451,33.326-29.173,69.72-29.173,109.178c0,39.46,9.725,75.847,29.17,109.175c19.449,33.321,45.832,59.704,79.156,79.155
			c33.326,19.447,69.717,29.17,109.177,29.17s75.854-9.723,109.179-29.17c33.322-19.444,59.704-45.834,79.152-79.155
			c19.445-33.325,29.166-69.718,29.166-109.175C436.766,179.803,427.044,143.409,407.603,110.087z M354.4,227.245
			c-2.487,40.874-19.473,74.441-51.314,100.044c-28.721,23.094-61.946,32.52-98.561,29.106
			c-56.845-5.3-105.463-47.858-118.687-103.368C70.27,187.679,103.393,121.749,165.184,95.27
			c14.673-6.288,30.031-9.733,46.006-10.548c2.895-0.148,3.68,0.395,3.657,3.356c-0.121,15.479-0.012,30.96,0.017,46.44l0,0
			c0.02,2.38,0.04,4.762,0.06,7.143l0,0c-0.001,1.447-0.001,2.895-0.002,4.342l0,0l0,0c0.339,2.246-0.961,3.154-2.894,3.546
			c0.042,0.233,0.117,0.456,0.19,0.68c-13.761,1.39-26.383,5.908-37.198,14.607c-19.681,15.83-29.128,36.563-27.28,61.753
			c2.396,32.669,27.458,59.068,59.996,64.17c29.762,4.667,59.799-10.804,73.447-37.634c4.457-8.761,6.977-17.959,7.671-27.7
			c0.244-0.06,0.489-0.125,0.734-0.201c0.062-0.429,0.124-0.857,0.185-1.286l0,0c4.57-0.124,9.14-0.247,13.711-0.371l0,0
			c15.722,0.027,31.444,0.125,47.165,0.015C353.515,223.561,354.597,224.002,354.4,227.245z M295.352,209.683
			c-35.375,0-64.052-28.677-64.052-64.052s28.677-64.052,64.052-64.052s64.052,28.677,64.052,64.052
			S330.727,209.683,295.352,209.683z"/>
		<path style="fill:#00A76D;" d="M350.65,223.581c-15.721,0.11-31.443,0.012-47.165-0.015l0,0
			c-4.571,0.124-9.141,0.247-13.711,0.371l0,0c-0.062,0.429-0.123,0.858-0.185,1.286c-0.245,0.076-0.489,0.141-0.734,0.201
			c-0.694,9.741-3.215,18.938-7.671,27.7c-13.648,26.83-43.684,42.301-73.447,37.634c-32.538-5.103-57.6-31.501-59.996-64.17
			c-1.847-25.189,7.6-45.923,27.28-61.753c10.815-8.699,23.437-13.217,37.198-14.607c-0.073-0.224-0.149-0.447-0.19-0.68
			c1.933-0.392,3.232-1.3,2.894-3.546l0,0l0,0c0.001-1.448,0.001-2.895,0.002-4.342l0,0c-0.02-2.382-0.04-4.763-0.06-7.143l0,0
			c-0.029-15.48-0.137-30.961-0.017-46.44c0.023-2.961-0.762-3.503-3.657-3.356c-15.976,0.816-31.334,4.261-46.006,10.548
			c-61.791,26.479-94.915,92.409-79.346,157.757c13.225,55.51,61.842,98.068,118.687,103.368
			c36.615,3.414,69.839-6.012,98.561-29.106c31.842-25.603,48.828-59.17,51.314-100.044
			C354.597,224.002,353.515,223.561,350.65,223.581z"/>
		<ellipse style="fill:#9B9B9C;" cx="295.358" cy="145.627" rx="64.053" ry="64.053"/>
	</g>
</g>
</svg>
