<svg id="Layer_1" data-name="Layer 1" xmlns="http://www.w3.org/2000/svg" viewBox="0 0 435 435"><defs><style>.cls-1{fill:#f4f4f4;}.cls-2{fill:#049fd9;}</style></defs><title>09</title><g id="ALL"><path class="cls-1" d="M407.6,110.09a216.63,216.63,0,0,0-79.15-79.16q-50-29.16-109.18-29.17T110.09,30.93a216.55,216.55,0,0,0-79.15,79.16q-29.18,50-29.18,109.18T30.93,328.44a216.73,216.73,0,0,0,79.16,79.16q50,29.16,109.18,29.17T328.45,407.6a216.63,216.63,0,0,0,79.15-79.16q29.16-50,29.17-109.17T407.6,110.09Z" transform="translate(-1.76 -1.76)"/><g id="_09" data-name="09"><g id="g53688"><path id="path53690" class="cls-2" d="M394.26,184.24a7.6,7.6,0,0,0-15.2,0v16a7.6,7.6,0,1,0,15.2,0Zm-41.78-21a7.65,7.65,0,0,0-15.29,0v36.92a7.65,7.65,0,0,0,15.29,0Zm-41.87-28.67a7.6,7.6,0,0,0-15.19,0v80.76a7.6,7.6,0,1,0,15.19,0Zm-41.88,28.67a7.6,7.6,0,1,0-15.19,0v36.92a7.6,7.6,0,1,0,15.19,0Zm-41.87,21a7.6,7.6,0,0,0-15.19,0v16a7.6,7.6,0,1,0,15.19,0Zm-41.8-21a7.62,7.62,0,0,0-15.24,0v36.92a7.62,7.62,0,0,0,15.24,0Zm-41.85-28.67a7.62,7.62,0,0,0-15.24,0v80.76a7.62,7.62,0,0,0,15.24,0Zm-41.86,28.67a7.62,7.62,0,0,0-15.23,0v36.92a7.62,7.62,0,0,0,15.23,0Zm-41.85,21a7.62,7.62,0,0,0-15.24,0v16a7.62,7.62,0,0,0,15.24,0v-16Zm157.3,66.2a65.9,65.9,0,0,0-15-1.93c-14.14,0-22.66,7.63-22.66,19,0,10.07,7.13,15.09,15.68,17.79l3.27,1.06c3.81,1.2,6.84,3,6.84,6.06,0,3.44-3.51,5.67-11.14,5.67a57,57,0,0,1-14.49-2.26v14a91.56,91.56,0,0,0,16.56,1.66c11.74,0,25.18-5.13,25.18-20.41,0-7.41-4.54-14.23-14.5-17.4l-4.23-1.34c-2.53-.8-7-2.09-7-5.8,0-2.92,3.34-5,9.49-5a52.05,52.05,0,0,1,12,1.86v-13ZM346.5,280a15.87,15.87,0,1,1-15.88-16,15.73,15.73,0,0,1,15.88,16m-15.88-31.48c-18.7,0-32.12,14.11-32.12,31.48s13.42,31.5,32.12,31.5,32.14-14.1,32.14-31.5-13.43-31.48-32.14-31.48M122.16,250.7a47.08,47.08,0,0,0-14-2.18c-18.67,0-32.38,13.32-32.38,31.48,0,19.6,15.13,31.5,32.38,31.5a48.82,48.82,0,0,0,14-2.16V293a26.88,26.88,0,0,1-12.9,3.23C99,296.24,92.44,289,92.44,280c0-9.31,6.88-16.22,16.82-16.22a26.71,26.71,0,0,1,12.9,3.25Zm160.19,0a47.2,47.2,0,0,0-14-2.18c-18.7,0-32.41,13.32-32.41,31.48,0,19.6,15.15,31.5,32.41,31.5a49.16,49.16,0,0,0,14-2.16V293a27.09,27.09,0,0,1-12.92,3.23c-10.21,0-16.8-7.2-16.8-16.24,0-9.31,6.88-16.22,16.8-16.22A26.88,26.88,0,0,1,282.35,267ZM158.6,310.42H143.25V249.6H158.6Z" transform="translate(-1.76 -1.76)"/></g></g></g></svg>