<svg id="Layer_1" data-name="Layer 1" xmlns="http://www.w3.org/2000/svg" viewBox="0 0 435 435"><defs><style>.cls-1{fill:#f4f4f4;}.cls-2{fill:#2f9a41;}</style></defs><title>90</title><g id="ALL"><path class="cls-1" d="M407.6,110.09a216.63,216.63,0,0,0-79.15-79.16q-50-29.16-109.18-29.17T110.09,30.93a216.55,216.55,0,0,0-79.15,79.16q-29.18,50-29.18,109.18T30.93,328.44a216.73,216.73,0,0,0,79.16,79.16q50,29.16,109.18,29.17T328.45,407.6a216.63,216.63,0,0,0,79.15-79.16q29.16-50,29.17-109.17T407.6,110.09Z" transform="translate(-1.76 -1.76)"/><g id="_90" data-name="90"><path class="cls-2" d="M334.13,138.61c-3-4.08-5.95-8.16-8.56-12.28L165.74,218.15,88.58,173.91a53.71,53.71,0,0,0-3.21,14.86l81.11,47Z" transform="translate(-1.76 -1.76)"/><path class="cls-2" d="M165.74,252.71,82.86,205.13a36.43,36.43,0,0,0-.74,8.9,137.16,137.16,0,0,0,274.32,0,134.7,134.7,0,0,0-14.86-62.43Z" transform="translate(-1.76 -1.76)"/><path class="cls-2" d="M314.42,114.83a152.21,152.21,0,0,0-12.28-10.42l-136.4,79.18L100,146c-2.22,4.08-4.47,8.55-7.07,13.37L165,201.05Z" transform="translate(-1.76 -1.76)"/><path class="cls-2" d="M288.77,95.51a129.83,129.83,0,0,0-16.08-8.17L165.74,148.93l-47.94-27a134.76,134.76,0,0,0-9.64,11.51l57.22,32.72Z" transform="translate(-1.76 -1.76)"/></g></g></svg>