<?xml version="1.0" encoding="iso-8859-1"?>
<!-- Generator: Adobe Illustrator 22.0.1, SVG Export Plug-In . SVG Version: 6.00 Build 0)  -->
<svg version="1.1" xmlns="http://www.w3.org/2000/svg" xmlns:xlink="http://www.w3.org/1999/xlink" x="0px" y="0px"
	 viewBox="0 0 435 435.002" style="enable-background:new 0 0 435 435.002;" xml:space="preserve">
<g id="_x39_5">
	<g>
		<path style="fill:#F4F4F4;" d="M405.838,108.323c-19.45-33.321-45.833-59.704-79.155-79.153C293.354,9.722,256.971,0,217.507,0
			c-39.461,0-75.854,9.722-109.177,29.17c-33.324,19.446-59.707,45.829-79.157,79.153C9.722,141.65,0,178.043,0,217.501
			c0,39.46,9.725,75.847,29.17,109.175c19.449,33.321,45.832,59.704,79.156,79.155c33.326,19.447,69.717,29.17,109.177,29.17
			s75.854-9.723,109.179-29.17c33.322-19.444,59.704-45.834,79.152-79.155C425.279,293.351,435,256.959,435,217.501
			C435.001,178.039,425.279,141.645,405.838,108.323z"/>
		<g>
			<polygon style="fill:#111111;" points="118.862,168.678 46.306,168.678 46.306,183.361 73.675,183.361 73.675,264.756 
				91.208,264.756 91.208,183.361 118.862,183.361 			"/>
			<path style="fill:#111111;" d="M143.378,168.678l-30.79,96.078h18.104l8.268-27.227h30.505l8.695,27.227h18.816l-31.218-96.078
				H143.378z M141.811,224.271l7.413-23.663c1.71-5.702,3.136-12.401,4.562-17.961h0.285c1.426,5.56,2.994,12.116,4.847,17.961
				l7.555,23.663H141.811z"/>
			<rect x="203.672" y="220.708" style="fill:#111111;" width="36.35" height="12.116"/>
			<path style="fill:#111111;" d="M275.229,249.929l8.125-6.984c16.108-14.967,27.797-28.082,27.797-44.333
				c0-15.109-9.978-28.081-30.505-28.081c-11.688,0-21.81,4.134-28.51,9.551l5.132,12.401c4.704-3.563,11.689-7.697,19.814-7.697
				c12.116,0,16.535,7.27,16.535,15.537c-0.143,12.259-10.406,23.377-32.216,43.62l-10.976,10.121v10.691h62.863v-14.541h-38.061
				V249.929z"/>
			<path style="fill:#111111;" d="M376.578,210.73c-6.272-4.134-14.397-5.987-22.522-5.987c-2.709,0-4.562,0.143-6.7,0.428
				l2.709-18.531h35.637v-14.54h-47.896l-6.129,46.756c3.706-0.57,7.555-0.855,12.687-0.855c18.531,0,26.371,6.985,26.371,17.534
				c0,11.119-9.836,16.963-20.1,16.963c-8.41,0-16.393-2.709-20.384-4.846l-3.563,13.256c4.847,2.709,13.827,5.418,24.518,5.418
				c22.808,0,37.49-14.398,37.49-32.074C388.694,222.989,383.563,215.149,376.578,210.73z"/>
		</g>
	</g>
</g>
<g id="Layer_1">
</g>
</svg>
