<?xml version="1.0" encoding="iso-8859-1"?>
<!-- Generator: Adobe Illustrator 22.0.1, SVG Export Plug-In . SVG Version: 6.00 Build 0)  -->
<svg version="1.1" id="Layer_1" xmlns="http://www.w3.org/2000/svg" xmlns:xlink="http://www.w3.org/1999/xlink" x="0px" y="0px"
	 viewBox="0 0 438.53 438.53" style="enable-background:new 0 0 438.53 438.53;" xml:space="preserve">
<g id="_x39_6">
	<g>
		<path style="fill:#F4F4F4;" d="M175.458,144.531c3.957,0.612,6.483-0.898,9.083-3.626c6.542-6.864,13.28-13.547,20.098-20.139
			c3.283-3.175,6.923-5.98,10.402-8.953c-0.421-0.413-0.842-0.826-1.263-1.239c-18.55-0.216-41.659,15.587-48.73,33.855
			C168.833,144.429,172.215,144.03,175.458,144.531z"/>
		<path style="fill:#F4F4F4;" d="M260.246,144.952c4.273-0.263,8.551-0.458,12.866-0.682c-5.55-16.931-29.23-33.569-49.043-33.64
			c11.656,11.546,22.412,22.197,33.162,32.855C258.076,144.322,258.914,145.034,260.246,144.952z"/>
		<path style="fill:#F4F4F4;" d="M111.768,213.547c7.881-7.874,15.475-16.065,23.734-23.52c6.373-5.753,10.533-11.542,8.885-20.836
			c-0.738-4.159-1.157-4.28-4.351-2.33c-16.442,10.042-26.409,24.414-29.471,43.494
			C110.357,211.648,109.346,213.244,111.768,213.547z"/>
		<path style="fill:#F4F4F4;" d="M110.487,223.422c0.259,20.974,18.588,47.044,34.312,49.571c0-4.205-0.029-8.353,0.017-12.5
			c0.015-1.33,0.216-2.603-0.887-3.701C133.022,245.937,122.14,235.058,110.487,223.422z"/>
		<path style="fill:#F4F4F4;" d="M182.051,294.94c-0.871-0.876-1.788-1.347-3.083-1.248c-4.451,0.34-8.909,0.591-13.364,0.879
			c4.713,16.634,31.468,35.027,48.626,33.431c-0.058-0.305-0.008-0.717-0.19-0.9C203.387,316.372,192.71,305.664,182.051,294.94z"/>
		<path style="fill:#F4F4F4;" d="M259.486,294.074c-1.315-0.016-2.169,0.632-3.008,1.472c-10.666,10.677-21.336,21.349-32.67,32.686
			c19.661,0.215,43.834-16.406,49.676-34.137C268.665,294.096,264.075,294.131,259.486,294.074z"/>
		<path style="fill:#F4F4F4;" d="M299.564,167.775c-1.488-0.933-3.175-2.85-4.793-1.992c-1.739,0.922-0.663,3.35-0.55,5.02
			c0.23,3.383-2.114,7.287,0.58,10.083c10.681,11.085,21.644,21.899,32.503,32.813c0.376-0.23,0.751-0.46,1.127-0.69
			C325.902,193.459,316.366,178.31,299.564,167.775z"/>
		<path style="fill:#F4F4F4;" d="M292.231,223.943c-3.259,0.124-3.968-1.096-3.768-4.039c0.175-2.578-0.33-4.811,3.718-4.602
			c7.04,0.364,14.113,0.101,21.074,0.101c-7.62-7.625-14.969-14.977-22.36-22.372c-1.073,2.651-2.337,5.771-3.749,9.258
			c-5.822-11.564-10.802-22.69-6.883-35.847c-0.834-0.267-1.669-0.534-2.504-0.802c-0.997,1.537-1.872,3.173-3.02,4.587
			c-1.857,2.288-3.339,4.019-6.49,0.666c-2.797-2.976-2.283-4.358,0.308-6.608c1.489-1.293,3.456-2.451,4.056-5.949
			c-13.46,4.265-24.585-1.127-36.153-6.704c3.427-1.449,6.566-2.777,9.005-3.808c-7.375-7.376-14.704-14.707-22.067-22.07
			c0,6.431-0.235,13.227,0.091,19.995c0.186,3.873-1.154,4.594-4.789,4.702c-4.203,0.124-4.019-2.029-3.971-4.9
			c0.105-6.323,0.033-12.649,0.033-18.998c-7.201,7.149-14.199,14.097-21.277,21.122c2.513,1.69,6.294,1.758,9.105,4.489
			c-5.819,1.668-11.19,3.5-16.089,6.381c-2.165,1.273-4.193,1.375-6.625,1.077c-4.593-0.563-9.274-1.714-15.497,0.238
			c2.708,2.201,4.455,3.741,6.324,5.112c2.657,1.949,1.891,3.33-0.087,5.481c-2.443,2.657-4.106,3.308-6.52,0.129
			c-1.222-1.61-2.639-3.293-5.151-4.327c-0.417,4.731-0.23,8.956,0.489,13.197c0.299,1.763,0.943,3.592-0.094,5.366
			c-3.165,5.416-5.411,11.24-7.557,18.694c-1.812-4.317-3.063-7.299-3.865-9.21c-6.96,6.988-14.113,14.168-21.017,21.1
			c5.922,0,12.718,0.271,19.479-0.101c4.102-0.225,3.479,2.097,3.69,4.634c0.252,3.026-0.626,4.118-3.807,4.001
			c-6.425-0.235-12.865-0.07-18.64-0.07c6.871,6.866,13.78,13.769,20.645,20.628c1.397-1.841,1.179-5.431,3.964-7.763
			c1.71,6.3,4.561,11.75,6.977,17.39c2.481,5.795-1.993,12.258,0.541,18.741c1.124-0.996,1.881-1.914,2.846-2.471
			c2.39-1.378,3.164-6.834,7.938-2.166c4.589,4.487-0.07,5.611-1.742,8.013c-0.683,0.98-2.433,1.405-1.609,3.485
			c3.732-0.17,7.55-0.31,11.363-0.533c1.938-0.113,3.815-1.247,5.812-0.02c5.415,3.326,11.394,5.406,17.59,7.484
			c-2.557,2.527-6.021,2.525-7.962,3.888c6.917,6.899,13.874,13.838,20.774,20.719c0-5.592,0.129-11.71-0.052-17.819
			c-0.096-3.247,0.093-5.083,4.361-5.053c4.229,0.029,4.59,1.83,4.368,5.097c-0.191,2.819-0.154,5.668-0.011,8.493
			c0.184,3.648-0.671,7.401,0.116,9.644c6.916-6.885,14.03-13.968,21.01-20.918c-2.128-1.233-5.65-1.426-8.344-3.988
			c5.63-1.8,11.037-3.532,15.924-6.433c2.139-1.27,4.142-1.427,6.603-1.131c4.445,0.535,8.993,1.693,14.357-0.083
			c-2.21-2.054-3.796-3.777-5.628-5.176c-2.962-2.261-1.305-3.756,0.581-5.434c1.656-1.474,2.98-4.027,5.376-0.794
			c1.534,2.069,3.291,3.972,4.947,5.949c0.84-0.217,1.68-0.434,2.52-0.651c-4.744-13.576,0.692-24.889,6.309-36.747
			c1.499,3.473,2.771,6.419,3.555,8.235c6.922-6.955,13.837-13.903,20.489-20.587C305.48,223.868,298.847,223.691,292.231,223.943z
			 M176.697,174.286c20.634-19.645,52.126-22.51,76.105-6.96c0.537,2.008-1.497,1.264-2.144,2.004
			c-1.484,0.208-2.992,0.31-4.448,0.641c-8.89,2.02-17.676,3.502-27.002,2.532c-9.717-1.011-18.593,2.76-26.787,8.059
			c-3.189,2.062-5.124,4.509-3.669,8.189c3.353,8.48,0.721,15.298-5.244,21.423c-0.898,0.922-1.527,2.105-2.64,3.673
			c-5.189-11.379-7.487-22.81-7.417-34.772C173.464,176.726,175.293,175.623,176.697,174.286z M198.378,232.207
			c4.403-8.795,4.194-8.878,10.965-2.2c9.061,8.935,19.714,15.126,31.988,18.544c1.636,0.456,3.853,0.29,4.132,2.824
			c0.265,2.405-1.799,2.975-3.234,3.936c-3.473,2.327-7.283,3.949-11.456,5.14c-1.171-0.416-2.436-0.801-3.649-1.308
			c-10.074-4.213-18.928-10.235-27.042-17.544C196.755,238.603,196.422,236.114,198.378,232.207z M190.223,241.25
			c-0.449,1.568-0.004,3.877-2.634,4.245c-2.692,0.376-3.314-1.837-4.312-3.426c-2.213-3.524-4.032-7.245-4.844-11.558
			c0.479-1.304,0.927-2.728,1.513-4.092c4.312-10.031,10.365-18.874,17.853-26.826c2.423-2.573,4.414-3.048,7.688-1.532
			c9.942,4.603,9.991,4.442,2.703,11.979C199.59,218.934,193.634,229.347,190.223,241.25z M241.088,239.054
			c-2.775,3.048-5.048,3.187-8.549,1.505c-9.313-4.475-9.372-4.322-2.397-11.436c8.921-9.097,14.988-19.836,18.401-32.095
			c0.425-1.526,0.264-3.424,2.606-3.677c2.14-0.231,2.87,1.349,3.756,2.713c2.368,3.646,4.238,7.522,5.356,12.021
			c-0.448,1.224-0.903,2.642-1.477,4.01C254.555,222.177,248.443,230.978,241.088,239.054z M240.37,206.267
			c-1.671,2.843-2.72,6.053-5.292,8.883c-3.193-3.266-6.122-6.649-9.445-9.586c-8.223-7.267-17.711-12.29-28.306-15.225
			c-1.639-0.454-3.825-0.281-4.126-2.824c-0.288-2.434,1.793-2.937,3.185-3.968c6.753-5.007,13.445-5.885,21.097-1.232
			c7.564,4.6,14.834,9.414,21.438,15.339C242.004,200.42,242.353,202.894,240.37,206.267z M180.311,265.438
			c-1.986,0.049-3.408-0.617-4.852-1.971c-20.419-19.155-24.235-54.401-8.325-77.587c0.259-0.377,0.676-0.646,1.585-1.491
			c0.925,8.027,2.04,15.261,4.34,22.237c0.518,1.572-0.006,2.951-0.243,4.403c-2.139,13.123,0.713,25.06,8.151,36.069
			c2.008,2.972,4.392,4.133,7.534,2.955c7.896-2.961,14.691-1.683,20.524,4.514c1.218,1.294,3.334,1.563,4.23,3.574
			C202.731,262.841,191.76,265.156,180.311,265.438z M263.337,263.256c-18.714,20.285-54.47,24.273-77.211,8.621
			c-0.531-0.366-1.186-0.553-1.511-1.463c10.861-0.212,20.414-5.927,31.457-4.146c11.053,1.782,21.358-1.995,30.636-8.351
			c2.753-1.886,4.567-3.884,3.205-7.372c-3.316-8.497-1.153-15.655,5.211-21.841c0.908-0.882,1.05-2.444,2.875-3.062
			c5.046,10.885,7.092,22.357,7.265,34.246C265.287,261.369,264.241,262.275,263.337,263.256z M271.194,253.388
			c-0.171,0.241-0.506,0.366-1.331,0.937c-0.869-7.513-1.886-14.585-4.128-21.406c-0.717-2.182-0.115-4.296,0.214-6.411
			c1.972-12.649-1.156-24.032-8.21-34.566c-1.913-2.857-4.227-4.484-7.434-3.158c-8.397,3.471-15.256,1.123-21.398-4.914
			c-1.02-1.002-2.311-1.729-3.967-2.943c11.392-4.98,22.65-7.298,34.398-7.474c1.715-0.026,2.712,0.976,3.815,2.01
			C283.724,194.729,287.422,230.437,271.194,253.388z"/>
		<path style="fill:#F4F4F4;" d="M407.603,110.087c-19.45-33.321-45.833-59.704-79.155-79.153
			c-33.328-19.448-69.711-29.17-109.176-29.17c-39.461,0-75.854,9.722-109.177,29.17C76.771,50.38,50.388,76.763,30.938,110.087
			c-19.451,33.326-29.173,69.72-29.173,109.178c0,39.46,9.725,75.847,29.17,109.175c19.449,33.321,45.832,59.704,79.156,79.155
			c33.326,19.447,69.717,29.17,109.177,29.17s75.854-9.723,109.179-29.17c33.322-19.444,59.704-45.834,79.152-79.155
			c19.445-33.325,29.166-69.718,29.166-109.175C436.766,179.803,427.044,143.409,407.603,110.087z M357.269,223.948
			c-4.46-0.204-9.905-1.342-13.146,0.72c-3.125,1.988-1.67,7.984-2.753,12.139c-6.085,23.345-19.847,40.34-41.611,50.814
			c-1.048,0.504-2.111,0.981-3.138,1.524c-0.265,0.14-0.421,0.484-0.587,0.685c0.547,2.507,5.859,3.148,1.862,7.579
			c-3.919,4.345-5.685,1.155-8.485-1.34c-0.843,1.734-1.512,3.163-2.225,4.571c-12.082,23.844-31.211,38.105-57.747,41.905
			c-4.554,0.652-7.027,1.707-6.109,6.831c0.405,2.26-0.224,4.699,0.129,6.977c0.724,4.667-1.346,5.754-5.566,5.369
			c-2.296-0.209-3.282-0.71-3.175-3.163c0.166-3.825-0.089-7.669,0.089-11.494c0.118-2.551-0.423-3.804-3.329-4.182
			c-28.803-3.739-49.151-18.988-61.207-45.377c-0.199-0.435-0.585-0.784-1.054-1.395c-2.439,2.579-4.366,4.16-7.778,0.477
			c-3.434-3.705,0.304-4.681,1.328-6.634c-0.59-1.685-2.132-1.718-3.268-2.265c-25.219-12.159-39.833-32.106-43.608-59.814
			c-0.45-3.303-1.478-4.281-4.56-4.047c-2.651,0.202-5.334,0.144-7.994,0.014c-2.962-0.145-6.673,1.555-6.613-4.35
			c0.057-5.642,3.589-3.915,6.349-4.053c3.158-0.158,6.333-0.117,9.495-0.011c2.068,0.07,2.864-0.655,3.107-2.806
			c3.33-29.508,18.693-50.285,45.648-62.591c0.285-0.13,0.488-0.436,1.039-0.948c-4.261-3.034-3.257-5.812,0.457-8.556
			c1.287-0.951,2.245-1.459,3.328-0.059c2.546,3.291,3.448,1.604,4.792-1.173c12-24.8,31.642-39.386,58.967-43.216
			c3.998-0.56,5.46-1.815,4.921-5.814c-0.353-2.618-0.072-5.323-0.065-7.99c0.012-4.665,2.807-6.556,7.182-5.012
			c1.81,0.639,1.421,2.028,1.436,3.275c0.047,3.999,0.088,8-0.008,11.997c-0.048,1.997,0.486,2.889,2.707,3.155
			c30.076,3.597,50.842,19.763,63.291,47.407c0.737-0.562,1.417-1.002,2.004-1.541c3.3-3.031,6.529-2.342,8.575,1.661
			c0.953,1.865-0.574,2.467-1.416,3.185c-2.556,2.181-2.793,3.243,0.755,4.912c23.661,11.131,37.938,29.695,42.928,55.364
			c1.694,8.713,1.643,8.723,10.84,8.723c1.333,0,2.68,0.122,3.997-0.024c3.141-0.348,4.832,0.253,4.755,4.134
			C361.736,223.025,360.744,224.107,357.269,223.948z"/>
		<path style="fill:#F4F4F4;" d="M295.141,256.87c-0.88,0.878-1.337,1.799-1.236,3.091c0.345,4.415,0.605,8.837,0.9,13.3
			c17.149-5.735,34.822-31.757,33.015-49.05C316.765,235.265,305.962,246.077,295.141,256.87z"/>
		<path style="fill:#3B3B3B;" d="M357.051,215.379c-1.317,0.146-2.664,0.024-3.997,0.024c-9.197,0-9.146-0.01-10.84-8.723
			c-4.99-25.669-19.267-44.233-42.928-55.364c-3.548-1.669-3.311-2.731-0.755-4.912c0.842-0.718,2.369-1.32,1.416-3.185
			c-2.046-4.003-5.275-4.692-8.575-1.661c-0.587,0.54-1.267,0.979-2.004,1.541c-12.449-27.643-33.215-43.81-63.291-47.407
			c-2.221-0.266-2.755-1.158-2.707-3.155c0.096-3.997,0.055-7.998,0.008-11.997c-0.015-1.247,0.374-2.636-1.436-3.275
			c-4.375-1.545-7.169,0.346-7.182,5.012c-0.007,2.666-0.288,5.371,0.065,7.99c0.54,3.999-0.922,5.254-4.921,5.814
			c-27.326,3.83-46.968,18.416-58.967,43.216c-1.344,2.777-2.246,4.463-4.792,1.173c-1.083-1.4-2.042-0.892-3.328,0.059
			c-3.714,2.743-4.719,5.521-0.457,8.556c-0.551,0.511-0.754,0.818-1.039,0.948c-26.955,12.306-42.319,33.083-45.648,62.591
			c-0.243,2.151-1.038,2.875-3.107,2.806c-3.162-0.107-6.337-0.148-9.495,0.011c-2.761,0.138-6.292-1.589-6.349,4.053
			c-0.06,5.905,3.651,4.205,6.613,4.35c2.66,0.13,5.343,0.188,7.994-0.014c3.082-0.235,4.11,0.743,4.56,4.047
			c3.775,27.708,18.389,47.655,43.608,59.814c1.136,0.548,2.678,0.581,3.268,2.265c-1.024,1.953-4.762,2.929-1.328,6.634
			c3.413,3.682,5.339,2.102,7.778-0.477c0.469,0.611,0.855,0.96,1.054,1.395c12.056,26.389,32.404,41.638,61.207,45.377
			c2.907,0.377,3.448,1.631,3.329,4.182c-0.178,3.824,0.077,7.668-0.089,11.494c-0.106,2.453,0.88,2.953,3.175,3.163
			c4.22,0.385,6.29-0.701,5.566-5.369c-0.354-2.278,0.276-4.717-0.129-6.977c-0.919-5.124,1.554-6.178,6.109-6.831
			c26.535-3.799,45.665-18.061,57.747-41.905c0.713-1.407,1.382-2.837,2.225-4.571c2.801,2.495,4.566,5.684,8.485,1.34
			c3.997-4.431-1.315-5.072-1.862-7.579c0.166-0.201,0.323-0.545,0.587-0.685c1.028-0.543,2.09-1.019,3.138-1.524
			c21.764-10.474,35.526-27.469,41.611-50.814c1.083-4.155-0.371-10.152,2.753-12.139c3.241-2.062,8.686-0.924,13.146-0.72
			c3.475,0.159,4.467-0.924,4.537-4.436C361.883,215.631,360.192,215.031,357.051,215.379z M273.112,144.27
			c-4.315,0.224-8.593,0.419-12.866,0.682c-1.332,0.082-2.17-0.63-3.015-1.468c-10.75-10.657-21.506-21.308-33.162-32.855
			C243.882,110.701,267.562,127.338,273.112,144.27z M213.777,110.574c0.421,0.413,0.842,0.826,1.263,1.239
			c-3.479,2.973-7.119,5.778-10.402,8.953c-6.818,6.592-13.555,13.276-20.098,20.139c-2.6,2.728-5.126,4.238-9.083,3.626
			c-3.243-0.502-6.626-0.102-10.411-0.102C172.118,126.161,195.228,110.358,213.777,110.574z M110.566,210.354
			c3.062-19.08,13.029-33.452,29.471-43.494c3.194-1.951,3.613-1.829,4.351,2.33c1.648,9.294-2.512,15.083-8.885,20.836
			c-8.259,7.455-15.854,15.646-23.734,23.52C109.346,213.244,110.357,211.648,110.566,210.354z M144.816,260.493
			c-0.046,4.147-0.017,8.295-0.017,12.5c-15.724-2.527-34.052-28.597-34.312-49.571c11.653,11.636,22.535,22.515,33.441,33.37
			C145.031,257.89,144.83,259.163,144.816,260.493z M165.604,294.571c4.455-0.288,8.913-0.539,13.364-0.879
			c1.295-0.099,2.212,0.372,3.083,1.248c10.66,10.724,21.336,21.431,31.99,32.161c0.182,0.183,0.132,0.595,0.19,0.9
			C197.073,329.598,170.318,311.205,165.604,294.571z M223.808,328.233c11.334-11.338,22.004-22.009,32.67-32.686
			c0.84-0.84,1.693-1.489,3.008-1.472c4.589,0.057,9.179,0.022,13.998,0.022C267.642,311.826,243.469,328.447,223.808,328.233z
			 M287.195,236.22c-5.617,11.858-11.052,23.171-6.309,36.747c-0.84,0.217-1.68,0.434-2.52,0.651
			c-1.657-1.977-3.414-3.88-4.947-5.949c-2.396-3.232-3.72-0.679-5.376,0.794c-1.886,1.678-3.542,3.173-0.581,5.434
			c1.833,1.399,3.418,3.121,5.628,5.176c-5.364,1.775-9.912,0.617-14.357,0.083c-2.461-0.296-4.464-0.139-6.603,1.131
			c-4.887,2.901-10.294,4.633-15.924,6.433c2.694,2.562,6.216,2.755,8.344,3.988c-6.98,6.95-14.094,14.032-21.01,20.918
			c-0.787-2.243,0.068-5.996-0.116-9.644c-0.143-2.825-0.18-5.674,0.011-8.493c0.222-3.267-0.139-5.068-4.368-5.097
			c-4.268-0.03-4.457,1.806-4.361,5.053c0.181,6.109,0.052,12.227,0.052,17.819c-6.899-6.881-13.857-13.82-20.774-20.719
			c1.941-1.363,5.405-1.362,7.962-3.888c-6.196-2.079-12.175-4.158-17.59-7.484c-1.997-1.227-3.874-0.093-5.812,0.02
			c-3.813,0.223-7.631,0.363-11.363,0.533c-0.824-2.08,0.927-2.504,1.609-3.485c1.672-2.402,6.332-3.525,1.742-8.013
			c-4.774-4.668-5.548,0.788-7.938,2.166c-0.965,0.557-1.722,1.476-2.846,2.471c-2.534-6.484,1.94-12.946-0.541-18.741
			c-2.415-5.64-5.266-11.09-6.977-17.39c-2.785,2.332-2.568,5.922-3.964,7.763c-6.864-6.859-13.773-13.762-20.645-20.628
			c5.775,0,12.214-0.165,18.64,0.07c3.181,0.116,4.059-0.975,3.807-4.001c-0.211-2.537,0.412-4.859-3.69-4.634
			c-6.761,0.371-13.557,0.101-19.479,0.101c6.904-6.931,14.057-14.112,21.017-21.1c0.802,1.91,2.053,4.893,3.865,9.21
			c2.146-7.454,4.392-13.278,7.557-18.694c1.036-1.774,0.392-3.603,0.094-5.366c-0.719-4.241-0.905-8.466-0.489-13.197
			c2.512,1.034,3.929,2.718,5.151,4.327c2.414,3.179,4.077,2.528,6.52-0.129c1.978-2.151,2.744-3.532,0.087-5.481
			c-1.869-1.372-3.616-2.911-6.324-5.112c6.223-1.952,10.903-0.801,15.497-0.238c2.432,0.298,4.461,0.195,6.625-1.077
			c4.9-2.881,10.271-4.713,16.089-6.381c-2.811-2.732-6.593-2.799-9.105-4.489c7.077-7.026,14.076-13.974,21.277-21.122
			c0,6.349,0.073,12.675-0.033,18.998c-0.048,2.871-0.232,5.024,3.971,4.9c3.635-0.107,4.975-0.829,4.789-4.702
			c-0.325-6.768-0.091-13.564-0.091-19.995c7.362,7.364,14.692,14.694,22.067,22.07c-2.439,1.031-5.577,2.359-9.005,3.808
			c11.568,5.577,22.694,10.969,36.153,6.704c-0.6,3.498-2.567,4.656-4.056,5.949c-2.591,2.25-3.104,3.633-0.308,6.608
			c3.152,3.353,4.633,1.621,6.49-0.666c1.148-1.414,2.023-3.051,3.02-4.587c0.835,0.267,1.669,0.534,2.504,0.802
			c-3.919,13.157,1.061,24.283,6.883,35.847c1.412-3.487,2.676-6.607,3.749-9.258c7.391,7.395,14.739,14.747,22.36,22.372
			c-6.961,0-14.033,0.263-21.074-0.101c-4.048-0.209-3.543,2.023-3.718,4.602c-0.199,2.943,0.509,4.163,3.768,4.039
			c6.616-0.252,13.249-0.075,19.007-0.075c-6.652,6.684-13.566,13.631-20.489,20.587
			C289.966,242.639,288.694,239.693,287.195,236.22z M294.804,273.261c-0.295-4.463-0.555-8.885-0.9-13.3
			c-0.101-1.292,0.355-2.213,1.236-3.091c10.821-10.794,21.624-21.606,32.678-32.659
			C329.627,241.504,311.954,267.526,294.804,273.261z M327.304,213.699c-10.859-10.914-21.822-21.728-32.503-32.813
			c-2.694-2.796-0.349-6.7-0.58-10.083c-0.114-1.67-1.189-4.098,0.55-5.02c1.618-0.858,3.305,1.06,4.793,1.992
			c16.802,10.535,26.339,25.683,28.867,45.234C328.055,213.239,327.68,213.469,327.304,213.699z"/>
		<path style="fill:#0054C8;" d="M209.026,254.568c-5.833-6.197-12.628-7.475-20.524-4.514c-3.142,1.178-5.526,0.017-7.534-2.955
			c-7.438-11.009-10.29-22.946-8.151-36.069c0.237-1.452,0.761-2.832,0.243-4.403c-2.3-6.976-3.416-14.21-4.34-22.237
			c-0.909,0.846-1.326,1.114-1.585,1.491c-15.91,23.186-12.094,58.432,8.325,77.587c1.443,1.354,2.866,2.02,4.852,1.971
			c11.449-0.282,22.42-2.597,32.945-7.297C212.36,256.13,210.244,255.861,209.026,254.568z"/>
		<path style="fill:#0054C8;" d="M255.125,228.703c-6.363,6.187-8.527,13.345-5.211,21.841c1.362,3.488-0.452,5.486-3.205,7.372
			c-9.278,6.356-19.584,10.133-30.636,8.351c-11.043-1.781-20.596,3.934-31.457,4.146c0.325,0.91,0.979,1.098,1.511,1.463
			c22.741,15.652,58.497,11.664,77.211-8.621c0.905-0.981,1.95-1.887,1.929-3.368c-0.173-11.889-2.219-23.361-7.265-34.246
			C256.175,226.26,256.033,227.821,255.125,228.703z"/>
		<path style="fill:#0054C8;" d="M263.153,175.462c-1.104-1.034-2.101-2.036-3.815-2.01c-11.748,0.176-23.006,2.493-34.398,7.474
			c1.657,1.214,2.948,1.941,3.967,2.943c6.142,6.037,13.001,8.386,21.398,4.914c3.207-1.326,5.521,0.302,7.434,3.158
			c7.054,10.534,10.182,21.917,8.21,34.566c-0.33,2.115-0.932,4.229-0.214,6.411c2.242,6.822,3.259,13.893,4.128,21.406
			c0.825-0.571,1.16-0.695,1.331-0.937C287.422,230.437,283.724,194.729,263.153,175.462z"/>
		<path style="fill:#0054C8;" d="M183.507,210.174c5.965-6.125,8.597-12.943,5.244-21.423c-1.455-3.68,0.481-6.127,3.669-8.189
			c8.195-5.299,17.071-9.07,26.787-8.059c9.327,0.97,18.113-0.513,27.002-2.532c1.456-0.331,2.964-0.433,4.448-0.641
			c0.647-0.74,2.681,0.003,2.144-2.004c-23.979-15.55-55.471-12.685-76.105,6.96c-1.405,1.337-3.234,2.44-3.247,4.789
			c-0.07,11.963,2.228,23.393,7.417,34.772C181.979,212.279,182.609,211.096,183.507,210.174z"/>
		<path style="fill:#0154C8;" d="M205.486,198.06c-3.274-1.516-5.265-1.041-7.688,1.532c-7.488,7.952-13.541,16.796-17.853,26.826
			c-0.586,1.364-1.034,2.788-1.513,4.092c0.812,4.313,2.631,8.034,4.844,11.558c0.998,1.59,1.621,3.802,4.312,3.426
			c2.631-0.368,2.185-2.677,2.634-4.245c3.411-11.903,9.367-22.316,17.966-31.21C215.477,202.502,215.428,202.663,205.486,198.06z"
			/>
		<path style="fill:#0154C8;" d="M200.081,241.599c8.114,7.309,16.968,13.332,27.042,17.544c1.213,0.507,2.478,0.892,3.649,1.308
			c4.173-1.191,7.984-2.813,11.456-5.14c1.435-0.961,3.499-1.531,3.234-3.936c-0.279-2.534-2.496-2.368-4.132-2.824
			c-12.274-3.418-22.927-9.608-31.988-18.544c-6.771-6.677-6.562-6.595-10.965,2.2C196.422,236.114,196.755,238.603,200.081,241.599
			z"/>
		<path style="fill:#0154C8;" d="M238.921,197.654c-6.604-5.925-13.875-10.739-21.438-15.339
			c-7.652-4.653-14.345-3.775-21.097,1.232c-1.391,1.032-3.473,1.535-3.185,3.968c0.301,2.543,2.487,2.37,4.126,2.824
			c10.595,2.935,20.083,7.958,28.306,15.225c3.323,2.937,6.252,6.319,9.445,9.586c2.572-2.83,3.621-6.04,5.292-8.883
			C242.353,202.894,242.004,200.42,238.921,197.654z"/>
		<path style="fill:#0154C8;" d="M260.261,208.086c-1.118-4.499-2.989-8.376-5.356-12.021c-0.886-1.364-1.615-2.944-3.756-2.713
			c-2.342,0.253-2.181,2.151-2.606,3.677c-3.412,12.26-9.48,22.998-18.401,32.095c-6.975,7.113-6.916,6.96,2.397,11.436
			c3.501,1.682,5.773,1.543,8.549-1.505c7.354-8.076,13.467-16.878,17.696-26.958C259.358,210.728,259.813,209.31,260.261,208.086z"
			/>
	</g>
</g>
</svg>
