<?xml version="1.0" encoding="iso-8859-1"?>
<!-- Generator: Adobe Illustrator 22.0.1, SVG Export Plug-In . SVG Version: 6.00 Build 0)  -->
<svg version="1.1" id="Layer_1" xmlns="http://www.w3.org/2000/svg" xmlns:xlink="http://www.w3.org/1999/xlink" x="0px" y="0px"
	 viewBox="0 0 438.53 438.53" style="enable-background:new 0 0 438.53 438.53;" xml:space="preserve">
<g id="_x39_8">
	<g>
		<path style="fill:#F4F4F4;" d="M392.649,241.33h-1.735v2.149h1.137c0.855,0,2.177,0.141,2.177-1.097
			C394.228,241.444,393.403,241.33,392.649,241.33z"/>
		<path style="fill:#F4F4F4;" d="M169.994,195.655c-15.319,0-24.284,8.625-24.284,23.174c0,14.897,8.592,23.522,23.538,23.522
			c15.319,0,24.035-8.276,24.035-22.911C193.282,204.456,184.689,195.655,169.994,195.655z"/>
		<path style="fill:#F4F4F4;" d="M407.603,110.087c-19.45-33.321-45.833-59.704-79.155-79.153
			c-33.328-19.448-69.711-29.17-109.176-29.17c-39.461,0-75.854,9.722-109.177,29.17C76.771,50.38,50.388,76.763,30.938,110.087
			c-19.451,33.326-29.173,69.72-29.173,109.178c0,39.46,9.725,75.847,29.17,109.175c19.449,33.321,45.832,59.704,79.156,79.155
			c33.326,19.447,69.717,29.17,109.177,29.17s75.854-9.723,109.179-29.17c33.322-19.444,59.704-45.834,79.152-79.155
			c19.445-33.325,29.166-69.718,29.166-109.175C436.766,179.803,427.044,143.409,407.603,110.087z M80.369,250.37
			c-7.705,0-19.364-2.391-26.243-6.044c-2.157-1.247-3.072,1.177-3.475,4.215H41.14v-21.606h8.601
			c1.896,5.489,4.511,6.619,6.915,8.799c4.172,3.832,14.101,6.623,23.207,6.532c13.729-0.134,18.451-3.136,18.451-7.492
			c0-4.355-4.67-5.399-19.716-7.753l-12.773-2.089c-14.415-2.178-24.911-5.403-24.911-16.902c0-11.936,13.277-19.428,34.27-19.428
			c8.846,0,16.25,1.182,23.351,5.199c1.971,1.276,3.817,1.431,3.793-3.368h9.274v20.908h-8.566c-0.759-4.18-3.373-5.805-5.761-7.998
			c-4.304-3.955-13.622-7.248-21.461-7.248c-10.115,0-18.654,3.137-18.654,7.753c0,12.808,57.856,2.615,57.856,26.834
			C115.018,243.313,102.625,250.37,80.369,250.37z M169.039,249.93c-26.413,0-43.08-11.847-43.08-30.666
			c0-19.165,16.901-31.102,43.903-31.102c25.94,0,43.549,12.198,43.549,30.144C213.411,238.258,197.093,249.93,169.039,249.93z
			 M305.969,198.106h-4.417c-4.536,0-6.122,1.045-6.122,4.093v46.782l-13.264-0.102l-42.941-40.667v29.531
			c0,2.964,1.588,4.094,6.118,4.094h5.893v7.144h-35.183v-7.144h5.83c4.532,0,6.118-1.13,6.118-4.094V202.2
			c0-3.048-1.587-4.093-6.118-4.093h-5.83v-7.231h30.424l36.87,34.562l0.184-23.238c0-3.048-1.585-4.093-6.118-4.093h-5.325v-7.231
			h33.881L305.969,198.106L305.969,198.106z M380.975,206.726l-17.588,18.99v11.589c0,2.964,1.499,4.007,5.785,4.007h6.64v7.23
			h-42.519v-7.23h6.641c4.282,0,5.783-1.043,5.783-4.007v-11.589l-20.712-22.911c-3.426-4.006-2.951-4.878-12.48-4.878v-7.492
			h38.454v7.492h-2.739c-2.785,0-3.964,0.523-3.964,1.569c0,0.871,0.856,1.569,1.393,2.263l10.479,11.42
			c1.24,1.295,2.758,1.464,4.176-0.159l11.118-11.869c0.644-0.87,0.964-1.481,0.964-2.003c0-0.872-0.75-1.221-3.106-1.221h-2.806
			v-7.492h30.359v7.492h-3.99C388.257,197.927,387.398,198.623,380.975,206.726z M392.193,249.271c-3.016,0-5.45-2.434-5.45-5.452
			c0-2.988,2.433-5.422,5.45-5.422c3.003,0,5.422,2.434,5.422,5.422C397.615,246.838,395.196,249.271,392.193,249.271z"/>
		<path style="fill:#F4F4F4;" d="M392.193,239.053c-2.648,0-4.782,2.134-4.782,4.767c0,2.663,2.134,4.796,4.782,4.796
			c2.633,0,4.768-2.134,4.768-4.796C396.961,241.187,394.826,239.053,392.193,239.053z M394.898,246.866h-0.883l-1.737-2.804h-1.365
			v2.804h-0.741v-6.077h2.648c0.512,0,1.024,0.03,1.48,0.3c0.454,0.255,0.681,0.797,0.681,1.309c0,1.195-0.84,1.637-1.92,1.665
			L394.898,246.866z"/>
		<path style="fill:#1D1D1B;" d="M392.193,238.398c-3.016,0-5.45,2.434-5.45,5.422c0,3.018,2.433,5.452,5.45,5.452
			c3.003,0,5.422-2.434,5.422-5.452C397.615,240.831,395.196,238.398,392.193,238.398z M392.193,248.616
			c-2.648,0-4.782-2.134-4.782-4.796c0-2.633,2.134-4.767,4.782-4.767c2.633,0,4.768,2.134,4.768,4.767
			C396.961,246.482,394.826,248.616,392.193,248.616z"/>
		<path style="fill:#1D1D1B;" d="M394.982,242.397c0-0.512-0.227-1.054-0.681-1.309c-0.456-0.27-0.968-0.3-1.48-0.3h-2.648v6.077
			h0.741v-2.804h1.365l1.737,2.804h0.883l-1.836-2.804C394.142,244.033,394.982,243.592,394.982,242.397z M392.051,243.479h-1.137
			v-2.149h1.735c0.754,0,1.579,0.113,1.579,1.052C394.228,243.62,392.906,243.479,392.051,243.479z"/>
		<path style="fill:#1D1D1B;" d="M396.853,197.927v-7.492h-30.359v7.492h2.806c2.355,0,3.106,0.349,3.106,1.221
			c0,0.522-0.32,1.133-0.964,2.003l-11.118,11.869c-1.419,1.623-2.936,1.454-4.176,0.159l-10.479-11.42
			c-0.536-0.695-1.393-1.392-1.393-2.263c0-1.046,1.179-1.569,3.964-1.569h2.739v-7.492h-38.454v7.492
			c9.529,0,9.055,0.872,12.48,4.878l20.712,22.911v11.589c0,2.964-1.501,4.007-5.783,4.007h-6.641v7.23h42.519v-7.23h-6.64
			c-4.286,0-5.785-1.043-5.785-4.007v-11.589l17.588-18.99c6.424-8.103,7.282-8.8,11.888-8.8h3.99V197.927z"/>
		<path style="fill:#1D1D1B;" d="M57.162,203.848c0-4.616,8.539-7.753,18.654-7.753c7.839,0,17.157,3.293,21.461,7.248
			c2.388,2.192,5.002,3.818,5.761,7.998h8.566v-20.908h-9.274c0.024,4.799-1.822,4.645-3.793,3.368
			c-7.101-4.016-14.505-5.199-23.351-5.199c-20.992,0-34.27,7.492-34.27,19.428c0,11.498,10.496,14.723,24.911,16.902l12.773,2.089
			c15.046,2.354,19.716,3.398,19.716,7.753c0,4.357-4.722,7.358-18.451,7.492c-9.106,0.091-19.035-2.7-23.207-6.532
			c-2.404-2.18-5.019-3.31-6.915-8.799H41.14v21.606h9.511c0.403-3.039,1.318-5.463,3.475-4.215
			c6.879,3.653,18.538,6.044,26.243,6.044c22.256,0,34.649-7.057,34.649-19.688C115.018,206.463,57.162,216.656,57.162,203.848z"/>
		<path style="fill:#1D1D1B;" d="M272.088,198.106h5.325c4.534,0,6.118,1.045,6.118,4.093l-0.184,23.238l-36.87-34.562h-30.424
			v7.231h5.83c4.532,0,6.118,1.045,6.118,4.093v35.543c0,2.964-1.587,4.094-6.118,4.094h-5.83v7.144h35.183v-7.144h-5.893
			c-4.53,0-6.118-1.13-6.118-4.094v-29.531l42.941,40.667l13.264,0.102v-46.782c0-3.048,1.586-4.093,6.122-4.093h4.417v-7.231
			h-33.881L272.088,198.106L272.088,198.106z"/>
		<path style="fill:#1D1D1B;" d="M169.862,188.163c-27.002,0-43.903,11.937-43.903,31.102c0,18.818,16.667,30.666,43.08,30.666
			c28.054,0,44.372-11.672,44.372-31.624C213.411,200.361,195.802,188.163,169.862,188.163z M169.247,242.35
			c-14.946,0-23.538-8.624-23.538-23.522c0-14.548,8.965-23.174,24.284-23.174c14.695,0,23.288,8.8,23.288,23.784
			C193.282,234.074,184.566,242.35,169.247,242.35z"/>
	</g>
</g>
</svg>
