<?xml version="1.0" encoding="iso-8859-1"?>
<!-- Generator: Adobe Illustrator 22.0.1, SVG Export Plug-In . SVG Version: 6.00 Build 0)  -->
<svg version="1.1" id="Layer_1" xmlns="http://www.w3.org/2000/svg" xmlns:xlink="http://www.w3.org/1999/xlink" x="0px" y="0px"
	 viewBox="0 0 438.53 438.53" style="enable-background:new 0 0 438.53 438.53;" xml:space="preserve">
<g id="_x39_9">
	<g>
		<path style="fill:#FFE443;" d="M133.06,212.331c-0.571-1.323-1.141-2.647-1.769-4.103c-2.674,6.265-5.286,12.388-7.946,18.62
			c0.359,0,0.589,0,0.82,0c4.748,0,9.495-0.021,14.243,0.018c0.901,0.007,0.82-0.274,0.542-0.913
			C136.972,221.419,135.02,216.873,133.06,212.331z"/>
		<path style="fill:#FFE443;" d="M407.603,110.087c-19.45-33.321-45.833-59.704-79.155-79.153
			c-33.328-19.448-69.711-29.17-109.176-29.17c-39.461,0-75.854,9.722-109.177,29.17C76.771,50.38,50.388,76.763,30.938,110.087
			c-19.451,33.326-29.173,69.72-29.173,109.178c0,39.46,9.725,75.847,29.17,109.175c19.449,33.321,45.832,59.704,79.156,79.155
			c33.326,19.447,69.717,29.17,109.177,29.17s75.854-9.723,109.179-29.17c33.322-19.444,59.704-45.834,79.152-79.155
			c19.445-33.325,29.166-69.718,29.166-109.175C436.766,179.803,427.044,143.409,407.603,110.087z M94.94,221.554
			c0.012,0.76-0.208,0.944-0.956,0.943c-9.983-0.026-19.967-0.017-29.95-0.017c-1.36,0-1.36,0-1.36,1.406
			c0,7.23-0.013,14.461,0.018,21.691c0.003,0.794-0.187,1.015-0.999,1.008c-4.659-0.042-9.318-0.047-13.976,0.004
			c-0.851,0.009-0.962-0.269-0.96-1.017c0.025-8.803,0.016-17.607,0.016-26.41c0-8.804,0.01-17.607-0.019-26.411
			c-0.003-0.756,0.182-0.936,0.936-0.935c17.274,0.024,34.548,0.026,51.823-0.004c0.842-0.001,0.982,0.251,0.971,1.014
			c-0.043,2.994-0.054,5.99,0.006,8.984c0.017,0.846-0.261,0.974-1.021,0.973c-11.889-0.023-23.779-0.005-35.668-0.038
			c-0.903-0.002-1.181,0.191-1.152,1.13c0.074,2.418,0.065,4.841,0.003,7.259c-0.021,0.836,0.255,0.985,1.024,0.983
			c10.074-0.025,20.148-0.007,30.222-0.035c0.815-0.002,1.064,0.188,1.046,1.032C94.886,215.926,94.895,218.741,94.94,221.554z
			 M162.74,246.578c-4.75-0.03-9.5-0.026-14.25-0.001c-0.588,0.003-0.841-0.212-1.056-0.727c-1.326-3.175-2.703-6.329-4.017-9.509
			c-0.237-0.574-0.52-0.741-1.124-0.739c-7.291,0.022-14.583,0.022-21.874,0c-0.633-0.002-0.954,0.167-1.204,0.777
			c-1.307,3.183-2.673,6.341-4.005,9.514c-0.177,0.421-0.354,0.686-0.898,0.683c-4.931-0.024-9.863-0.014-14.794-0.017
			c-0.118,0-0.236-0.031-0.444-0.059c0.76-1.717,1.499-3.393,2.243-5.067c7.19-16.194,14.386-32.385,21.556-48.587
			c0.338-0.763,0.73-1.047,1.591-1.037c4.659,0.05,9.318,0.036,13.977,0.008c0.605-0.004,0.886,0.172,1.136,0.735
			c7.887,17.734,15.792,35.46,23.71,53.18C163.588,246.408,163.515,246.583,162.74,246.578z M236.316,245.713
			c0.001,0.669-0.154,0.871-0.848,0.867c-5.326-0.03-10.651-0.038-15.977,0.008c-0.759,0.007-1.07-0.417-1.445-0.879
			c-8.892-10.976-17.784-21.953-26.677-32.929c-0.281-0.346-0.569-0.687-1.011-1.22c0,0.523,0,0.836,0,1.149
			c0,10.954-0.008,21.908,0.018,32.862c0.002,0.781-0.165,1.021-0.986,1.013c-4.508-0.044-9.017-0.035-13.526-0.006
			c-0.677,0.004-0.865-0.178-0.865-0.861c0.019-17.702,0.018-35.404,0-53.106c-0.001-0.653,0.202-0.795,0.818-0.792
			c4.539,0.025,9.078,0.029,13.617-0.004c0.68-0.005,1.093,0.214,1.515,0.729c9.751,11.877,19.519,23.74,29.285,35.606
			c0.183,0.223,0.372,0.441,0.586,0.695c0.235-0.387,0.138-0.722,0.138-1.038c0.006-11.65,0.014-23.3-0.013-34.95
			c-0.002-0.815,0.185-1.054,1.03-1.046c4.508,0.046,9.017,0.033,13.526,0.008c0.616-0.003,0.815,0.133,0.815,0.788
			C236.298,210.309,236.298,228.011,236.316,245.713z M302.855,241.655c-4.036,3.015-8.647,4.667-13.519,5.626
			c-9.14,1.8-18.165,1.356-27.005-1.691c-4.324-1.49-8.158-3.76-11.198-7.268c-2.319-2.677-3.529-5.782-3.548-9.282
			c-0.059-10.408-0.036-20.817-0.044-31.225c-0.001-1.755,0.017-3.51-0.01-5.265c-0.008-0.519,0.081-0.737,0.68-0.733
			c4.841,0.026,9.682,0.036,14.523-0.006c0.831-0.007,0.665,0.467,0.665,0.921c0.002,10.953,0.113,21.908-0.046,32.859
			c-0.077,5.297,2.171,8.776,6.987,10.686c6.096,2.419,12.172,2.309,18.105-0.512c3.93-1.869,5.792-5.072,5.773-9.464
			c-0.047-11.165-0.007-22.33-0.034-33.494c-0.002-0.777,0.156-1.006,0.976-0.998c4.689,0.046,9.38,0.037,14.069,0.006
			c0.673-0.004,0.853,0.157,0.85,0.842c-0.029,6.142-0.017,12.284-0.017,18.427c0,5.416-0.133,10.836,0.035,16.247
			C310.288,233.493,307.646,238.077,302.855,241.655z M372.356,246.481c-5.956,1.758-12.077,2.03-18.242,1.709
			c-5.191-0.27-10.259-1.154-15.153-2.952c-2.675-0.983-5.218-2.229-7.617-3.767c-4.008-2.57-6.678-6.192-8.112-10.685
			c-2.212-6.932-2.558-13.982-0.491-20.985c2.553-8.649,8.293-14.361,16.821-17.238c6.667-2.249,13.561-2.602,20.518-2.266
			c4.603,0.222,9.147,0.853,13.546,2.284c10.011,3.256,16.061,10.011,17.989,20.405c0.097,0.523,0.045,0.672-0.515,0.673
			c-5.809,0.011-11.617,0.034-17.425,0.09c-0.654,0.006-0.711-0.36-0.819-0.81c-0.708-2.934-1.915-5.643-3.549-8.185
			c-1.654-2.572-3.93-4.214-6.873-4.972c-4.03-1.039-8.079-1.113-12.109-0.079c-4.498,1.154-7.51,4.109-9.197,8.312
			c-2.86,7.122-3.085,14.419-0.359,21.596c2.366,6.229,7.157,9.454,13.827,9.824c3.142,0.174,6.232-0.091,9.162-1.333
			c5.111-2.167,7.612-6.381,8.899-11.513c0.476-1.898,0.459-1.902,2.432-1.902c5.204,0,10.408,0,15.612,0c0.327,0,0.655,0,1.076,0
			C389.604,235.895,383.273,243.259,372.356,246.481z"/>
		<path style="fill:#D81433;" d="M235.501,191.819c-4.509,0.025-9.018,0.038-13.526-0.008c-0.845-0.009-1.032,0.231-1.03,1.046
			c0.027,11.65,0.019,23.3,0.013,34.95c0,0.315,0.096,0.651-0.138,1.038c-0.214-0.254-0.402-0.473-0.586-0.695
			c-9.766-11.865-19.534-23.728-29.285-35.606c-0.422-0.515-0.835-0.734-1.515-0.729c-4.539,0.034-9.078,0.029-13.617,0.004
			c-0.616-0.003-0.819,0.139-0.818,0.792c0.018,17.702,0.018,35.404,0,53.106c-0.001,0.683,0.187,0.866,0.865,0.861
			c4.508-0.029,9.018-0.038,13.526,0.006c0.821,0.008,0.988-0.232,0.986-1.013c-0.026-10.954-0.018-21.908-0.018-32.862
			c0-0.313,0-0.627,0-1.149c0.442,0.533,0.73,0.874,1.011,1.22c8.893,10.976,17.784,21.953,26.677,32.929
			c0.375,0.463,0.686,0.886,1.445,0.879c5.325-0.046,10.651-0.038,15.977-0.008c0.694,0.004,0.849-0.198,0.848-0.867
			c-0.018-17.702-0.018-35.404,0-53.106C236.317,191.953,236.117,191.816,235.501,191.819z"/>
		<path style="fill:#D81433;" d="M375.089,224.688c-1.973,0-1.956,0.004-2.432,1.902c-1.288,5.132-3.788,9.346-8.899,11.513
			c-2.93,1.242-6.02,1.507-9.162,1.333c-6.67-0.37-11.461-3.595-13.827-9.824c-2.726-7.178-2.501-14.474,0.359-21.596
			c1.688-4.203,4.7-7.158,9.197-8.312c4.03-1.034,8.079-0.96,12.109,0.079c2.943,0.758,5.219,2.4,6.873,4.972
			c1.635,2.542,2.841,5.251,3.549,8.185c0.109,0.45,0.165,0.816,0.819,0.81c5.808-0.056,11.617-0.079,17.425-0.09
			c0.56-0.001,0.612-0.151,0.515-0.673c-1.928-10.395-7.978-17.15-17.989-20.405c-4.399-1.431-8.943-2.062-13.546-2.284
			c-6.957-0.336-13.852,0.017-20.518,2.266c-8.529,2.877-14.268,8.589-16.821,17.238c-2.067,7.003-1.721,14.052,0.491,20.985
			c1.434,4.493,4.103,8.115,8.112,10.685c2.399,1.538,4.942,2.784,7.617,3.767c4.893,1.798,9.961,2.682,15.153,2.952
			c6.166,0.321,12.287,0.049,18.242-1.709c10.917-3.222,17.248-10.586,19.421-21.793c-0.422,0-0.749,0-1.076,0
			C385.497,224.688,380.293,224.688,375.089,224.688z"/>
		<path style="fill:#D81433;" d="M310.061,211.085c0-6.142-0.012-12.284,0.017-18.427c0.003-0.686-0.177-0.847-0.85-0.842
			c-4.69,0.031-9.38,0.04-14.069-0.006c-0.82-0.008-0.977,0.22-0.976,0.998c0.027,11.165-0.013,22.33,0.034,33.494
			c0.018,4.392-1.843,7.595-5.773,9.464c-5.933,2.821-12.009,2.931-18.105,0.512c-4.815-1.911-7.063-5.389-6.987-10.686
			c0.158-10.951,0.048-21.905,0.046-32.859c0-0.454,0.166-0.928-0.665-0.921c-4.841,0.041-9.682,0.031-14.523,0.006
			c-0.599-0.003-0.688,0.215-0.68,0.733c0.027,1.754,0.009,3.51,0.01,5.265c0.008,10.408-0.015,20.817,0.044,31.225
			c0.02,3.5,1.229,6.605,3.548,9.282c3.04,3.508,6.874,5.777,11.198,7.268c8.84,3.046,17.865,3.49,27.005,1.691
			c4.872-0.959,9.483-2.611,13.519-5.626c4.791-3.579,7.433-8.163,7.242-14.323C309.928,221.922,310.061,216.501,310.061,211.085z"
			/>
		<path style="fill:#D81433;" d="M93.897,212.082c-10.074,0.028-20.148,0.01-30.222,0.035c-0.768,0.002-1.045-0.147-1.024-0.983
			c0.062-2.419,0.071-4.841-0.003-7.259c-0.029-0.94,0.249-1.133,1.152-1.13c11.889,0.033,23.779,0.015,35.668,0.038
			c0.759,0.001,1.038-0.127,1.021-0.973c-0.06-2.994-0.049-5.99-0.006-8.984c0.011-0.762-0.129-1.015-0.971-1.014
			c-17.274,0.029-34.548,0.028-51.823,0.004c-0.755-0.001-0.939,0.179-0.936,0.935c0.029,8.803,0.019,17.607,0.019,26.411
			c0,8.803,0.009,17.607-0.016,26.41c-0.002,0.748,0.109,1.026,0.96,1.017c4.658-0.05,9.318-0.046,13.976-0.004
			c0.812,0.007,1.002-0.214,0.999-1.008c-0.031-7.23-0.019-14.461-0.018-21.691c0-1.406,0-1.406,1.36-1.406
			c9.983,0,19.967-0.009,29.95,0.017c0.748,0.002,0.969-0.183,0.956-0.943c-0.045-2.813-0.053-5.627,0.004-8.44
			C94.96,212.269,94.712,212.079,93.897,212.082z"/>
		<path style="fill:#D81433;" d="M139.576,192.553c-0.25-0.563-0.531-0.738-1.136-0.735c-4.659,0.028-9.319,0.041-13.977-0.008
			c-0.861-0.009-1.253,0.274-1.591,1.037c-7.17,16.203-14.366,32.394-21.556,48.587c-0.743,1.674-1.483,3.35-2.243,5.067
			c0.208,0.029,0.326,0.059,0.444,0.059c4.931,0.003,9.863-0.007,14.794,0.017c0.544,0.003,0.721-0.262,0.898-0.683
			c1.332-3.172,2.698-6.331,4.005-9.514c0.25-0.609,0.571-0.779,1.204-0.777c7.291,0.022,14.583,0.022,21.874,0
			c0.604-0.002,0.888,0.166,1.124,0.739c1.313,3.18,2.691,6.334,4.017,9.509c0.215,0.515,0.468,0.73,1.056,0.727
			c4.75-0.026,9.5-0.029,14.25,0.001c0.776,0.005,0.849-0.17,0.547-0.846C155.369,228.012,147.463,210.287,139.576,192.553z
			 M138.408,226.867c-4.747-0.039-9.495-0.018-14.243-0.018c-0.231,0-0.461,0-0.82,0c2.66-6.233,5.272-12.355,7.946-18.62
			c0.628,1.456,1.198,2.779,1.769,4.103c1.96,4.542,3.912,9.088,5.89,13.623C139.228,226.592,139.309,226.874,138.408,226.867z"/>
	</g>
</g>
</svg>
