<svg width="16" height="16" viewBox="0 0 16 16" fill="none" xmlns="http://www.w3.org/2000/svg">
    <circle cx="8" cy="8" r="7.5" stroke="#8191A5"/>
    <path style="transform: translate(6px, 3px);" fill-rule="evenodd" clip-rule="evenodd" d="M3.66954 2.33691C3.44923 2.5459 3.18391 2.65039 2.87356 2.65039C2.56322 2.65039 2.29693 2.5459 2.07471 2.33691C1.85249 2.12793 1.74138 1.875 1.74138 1.57812C1.74138 1.28125 1.85249 1.02734 2.07471 0.816406C2.29693 0.605469 2.56322 0.5 2.87356 0.5C3.18391 0.5 3.44923 0.605469 3.66954 0.816406C3.88985 1.02734 4 1.28125 4 1.57812C4 1.875 3.88985 2.12793 3.66954 2.33691ZM2.84483 9.6084C2.61877 9.68848 2.35632 9.72852 2.05747 9.72852C1.5977 9.72852 1.24042 9.61426 0.985632 9.38574C0.730843 9.15723 0.603448 8.86719 0.603448 8.51562C0.603448 8.37891 0.613027 8.23926 0.632184 8.09668C0.651341 7.9541 0.681992 7.79297 0.724138 7.61328L1.1954 5.90234C1.23755 5.73828 1.27299 5.58301 1.30172 5.43652C1.33046 5.29004 1.34483 5.15625 1.34483 5.03516C1.34483 4.81641 1.30077 4.66406 1.21264 4.57812C1.12452 4.49219 0.955939 4.44922 0.706897 4.44922C0.584291 4.44922 0.458812 4.46875 0.33046 4.50781C0.202107 4.54688 0.091954 4.58398 0 4.61914L0.126437 4.0918C0.436782 3.96289 0.733716 3.85254 1.01724 3.76074C1.30077 3.66895 1.56897 3.62305 1.82184 3.62305C2.27778 3.62305 2.62931 3.73535 2.87644 3.95996C3.12356 4.18457 3.24713 4.47656 3.24713 4.83594C3.24713 4.91016 3.23851 5.04102 3.22126 5.22852C3.20402 5.41602 3.17241 5.58789 3.12644 5.74414L2.65517 7.44922C2.61686 7.58594 2.58238 7.74219 2.55172 7.91797C2.52107 8.09375 2.50575 8.22656 2.50575 8.31641C2.50575 8.54297 2.55556 8.69727 2.65517 8.7793C2.75479 8.86133 2.9272 8.90234 3.17241 8.90234C3.28736 8.90234 3.41762 8.88184 3.56322 8.84082C3.70881 8.7998 3.81418 8.76367 3.87931 8.73242L3.75287 9.25977C3.37356 9.41211 3.07088 9.52832 2.84483 9.6084Z" fill="#8191A5"/>
</svg>
