<?xml version="1.0" encoding="iso-8859-1"?>
<!-- Generator: Adobe Illustrator 22.1.0, SVG Export Plug-In . SVG Version: 6.00 Build 0)  -->
<svg version="1.1" id="Layer_1"
	xmlns="http://www.w3.org/2000/svg"
	xmlns:xlink="http://www.w3.org/1999/xlink" x="0px" y="0px" viewBox="0 0 48 48" style="height: 100%; enable-background:new 0 0 48 48;" xml:space="preserve">
	<g id="zoom-out" fill="#FFFFFF">
		<g id="dp_dp001_1_" transform="matrix(1,0,0,1,-1173.56,-653.872)">
			<g id="dp_path002_1_">
				<path d="M1187.324,677.391c-0.846,0-1.535-0.681-1.544-1.528c-0.009-0.853,0.675-1.552,1.528-1.561l12.91-0.134
				c0.005,0,0.011,0,0.016,0c0.846,0,1.535,0.681,1.544,1.528c0.009,0.853-0.675,1.552-1.528,1.561l-12.91,0.134
				C1187.334,677.391,1187.329,677.391,1187.324,677.391z"/>
			</g>
			<g id="dp_path003_1_">
				<path d="M1193.779,691.829c-8.842,0-16.034-7.199-16.034-16.049s7.192-16.049,16.034-16.049c8.841,0,16.033,7.199,16.033,16.049
				S1202.62,691.829,1193.779,691.829z M1193.779,662.362c-7.391,0-13.403,6.02-13.403,13.418s6.013,13.418,13.403,13.418
				s13.402-6.02,13.402-13.418S1201.168,662.362,1193.779,662.362z"/>
			</g>
			<g id="dp_path004_1_">
				<path d="M1216.06,696.013c-0.315,0-0.631-0.112-0.883-0.34l-10.526-9.529c-0.539-0.488-0.58-1.32-0.093-1.858
				c0.488-0.54,1.319-0.579,1.858-0.093l10.526,9.529c0.539,0.488,0.58,1.32,0.093,1.858
				C1216.776,695.868,1216.418,696.013,1216.06,696.013z"/>
			</g>
		</g>
	</g>
</svg>
