<?xml version="1.0" encoding="iso-8859-1"?>
<!-- Generator: Adobe Illustrator 22.1.0, SVG Export Plug-In . SVG Version: 6.00 Build 0)  -->
<svg version="1.1" id="Layer_1"
	xmlns="http://www.w3.org/2000/svg"
	xmlns:xlink="http://www.w3.org/1999/xlink" x="0px" y="0px" viewBox="0 0 48 48" style="height: 100%; enable-background:new 0 0 48 48;" xml:space="preserve">
	<g id="zoom-in" fill="#FFFFFF">
		<g id="dp_dp001" transform="matrix(1,0,0,1,-641.855,-654.873)">
			<g id="dp_path002">
				<path d="M662.074,692.83c-8.842,0-16.034-7.199-16.034-16.049s7.192-16.049,16.034-16.049s16.034,7.199,16.034,16.049
				S670.916,692.83,662.074,692.83z M662.074,663.363c-7.391,0-13.403,6.02-13.403,13.418s6.013,13.418,13.403,13.418
				s13.403-6.02,13.403-13.418S669.464,663.363,662.074,663.363z"/>
			</g>
			<g id="dp_path003">
				<path d="M684.355,697.013c-0.315,0-0.631-0.112-0.883-0.34l-10.526-9.528c-0.539-0.488-0.58-1.319-0.093-1.858
				c0.488-0.54,1.319-0.579,1.858-0.093l10.526,9.528c0.539,0.488,0.58,1.319,0.093,1.858
				C685.071,696.868,684.713,697.013,684.355,697.013z"/>
			</g>
			<g id="dp_path005">
				<path d="M662.108,685.689c-0.85,0-1.54-0.687-1.544-1.537l-0.069-14.729c-0.005-0.853,0.684-1.548,1.537-1.552
				c0.846-0.035,1.547,0.685,1.551,1.537l0.069,14.73c0.005,0.853-0.684,1.547-1.537,1.551
				C662.113,685.689,662.11,685.689,662.108,685.689z"/>
			</g>
			<g id="dp_path004">
				<path d="M654.708,678.36c-0.85,0-1.54-0.687-1.544-1.537c-0.005-0.853,0.684-1.548,1.536-1.552l14.73-0.07
				c0.002,0,0.005,0,0.007,0c0.85,0,1.54,0.687,1.544,1.537c0.005,0.853-0.684,1.548-1.537,1.552l-14.729,0.07
				C654.713,678.36,654.71,678.36,654.708,678.36z"/>
			</g>
		</g>
	</g>
</svg>
