<svg width="24" height="24" viewBox="0 0 24 24"
  xmlns="http://www.w3.org/2000/svg">
  <path fill-rule="evenodd" clip-rule="evenodd" d="M21 3H3V20H21V3ZM3 2C2.44772 2 2 2.44772 2 3V20C2 20.5523 2.44772 21 3 21H21C21.5523 21 22 20.5523 22 20V3C22 2.44772 21.5523 2 21 2H3Z" fill="#75F986"/>
  <rect x="3" y="11" width="18" height="1"/>
  <rect x="3" y="8" width="18" height="1"/>
  <rect x="3" y="5" width="18" height="1"/>
  <rect x="12" y="21" width="18" height="1" transform="rotate(-90 12 21)"/>
  <rect x="11" y="21" width="18" height="1" transform="rotate(-90 11 21)"/>
  <rect x="3" y="14" width="18" height="1"/>
  <rect x="3" y="17" width="18" height="1"/>
</svg>
