<svg xmlns="http://www.w3.org/2000/svg" width="24" height="24" viewBox="0 0 24 24">
    <path d="M24 .368c0-.194-.157-.352-.352-.352H.352C.157.016 0 .174 0 .368v15.85c0 .454.703.454.703 0v-.683h22.594v3.058H.703v-.546c0-.454-.703-.454-.703 0v.898c0 .194.157.351.352.351h23.296c.195 0 .352-.157.352-.351V.368zM.703.72h22.594v14.103H.703V.72z" transform="translate(-204 -292) translate(185 94) translate(19 198) translate(0 2)"/>
    <path d="M15.116 7.087L9.61 3.91c-.517-.298-1.185.092-1.185.684v6.357c0 .592.669.982 1.185.684l3.315-1.914c.393-.227.04-.836-.352-.61L9.26 11.026c-.072.025-.116 0-.13-.075V4.593c.014-.075.058-.1.13-.075l5.505 3.178c.058.05.058.1 0 .15l-.502.29c-.393.227-.041.836.351.61l.503-.29c.516-.298.516-1.07 0-1.369zM3.674 17.416c.143.382.511.656.943.656.432 0 .8-.274.943-.656h15.674c.454 0 .454-.704 0-.704H5.56c-.143-.382-.51-.656-.943-.656-.432 0-.8.274-.943.656h-.908c-.454 0-.454.704 0 .704h.908zm.943-.657c.168 0 .305.137.305.305 0 .168-.137.305-.305.305-.168 0-.304-.137-.304-.305 0-.168.136-.305.304-.305z" transform="translate(-204 -292) translate(185 94) translate(19 198) translate(0 2)"/>
</svg>
