<svg width="24" height="24" viewBox="0 0 24 24" fill="none"
    xmlns="http://www.w3.org/2000/svg">
    <path fill-rule="evenodd" clip-rule="evenodd" d="M3 1.5C2.17614 1.5 1.5 2.17614 1.5 3V10.6H10.6V1.5H3ZM0.5 3C0.5 1.62386 1.62386 0.5 3 0.5H11.6V11.6H0.5V3Z" />
    <path fill-rule="evenodd" clip-rule="evenodd" d="M12.4004 0.5H21.0004C22.3765 0.5 23.5004 1.62386 23.5004 3V11.6H12.4004V0.5ZM13.4004 1.5V10.6H22.5004V3C22.5004 2.17614 21.8242 1.5 21.0004 1.5H13.4004Z" />
    <path fill-rule="evenodd" clip-rule="evenodd" d="M12.4004 12.3999H23.5004V20.9999C23.5004 22.376 22.3765 23.4999 21.0004 23.4999H12.4004V12.3999ZM13.4004 13.3999V22.4999H21.0004C21.8242 22.4999 22.5004 21.8238 22.5004 20.9999V13.3999H13.4004Z" />
    <path fill-rule="evenodd" clip-rule="evenodd" d="M0.5 12.3999H11.6V23.4999H3C1.62386 23.4999 0.5 22.376 0.5 20.9999V12.3999ZM1.5 13.3999V20.9999C1.5 21.8238 2.17614 22.4999 3 22.4999H10.6V13.3999H1.5Z" />
</svg>
