<svg width="24" height="25" viewBox="0 0 24 25" fill="none"
  xmlns="http://www.w3.org/2000/svg">
  <path fill-rule="evenodd" clip-rule="evenodd" d="M6.88235 4H3L3 7H6.88235L6.88235 4ZM3 3C2.44772 3 2 3.44772 2 4V7C2 7.55228 2.44771 8 3 8H6.88235C7.43464 8 7.88235 7.55228 7.88235 7V4C7.88235 3.44772 7.43464 3 6.88235 3H3ZM13.9409 4H10.0586V7H13.9409V4ZM10.0586 3C9.50631 3 9.05859 3.44772 9.05859 4V7C9.05859 7.55228 9.50631 8 10.0586 8H13.9409C14.4932 8 14.9409 7.55228 14.9409 7V4C14.9409 3.44772 14.4932 3 13.9409 3H10.0586ZM17.1172 4H20.9995V7H17.1172V4ZM16.1172 4C16.1172 3.44772 16.5649 3 17.1172 3H20.9995C21.5518 3 21.9995 3.44772 21.9995 4V7C21.9995 7.55228 21.5518 8 20.9995 8H17.1172C16.5649 8 16.1172 7.55228 16.1172 7V4ZM21 10H3V12H21V10ZM21 13H3V15H21V13ZM3 18V16H21V18H3ZM3 19V21H21V19H3ZM3 9C2.44772 9 2 9.44772 2 10V21C2 21.5523 2.44772 22 3 22H21C21.5523 22 22 21.5523 22 21V10C22 9.44772 21.5523 9 21 9H3Z" />
</svg>
