<svg xmlns="http://www.w3.org/2000/svg" width="28" height="28" viewBox="0 0 28 28">
    <g fill="none" fill-rule="evenodd">
        <g>
            <g>
                <g>
                    <g transform="translate(-500 -360) translate(185 94) translate(73 255) translate(242 11)">
                        <circle cx="14" cy="14" r="13.5" stroke="#75F986"/>
                        <g fill="#75F986" fill-rule="nonzero">
                            <g>
                                <path d="M13.306 1.33c-.227-.102-.493-.063-.68.102l-.866.77C10.574.805 8.833 0 7 0 3.763-.003 1.04 2.425.672 5.641c-.368 3.216 1.738 6.196 4.892 6.924 3.155.727 6.353-1.03 7.43-4.082.117-.332-.059-.696-.39-.812-.333-.116-.696.06-.812.392-.864 2.44-3.424 3.844-5.947 3.26-2.523-.583-4.205-2.968-3.91-5.54C2.231 3.21 4.41 1.269 7 1.273c1.47 0 2.867.646 3.818 1.769l-1.056.935c-.2.177-.268.458-.172.707.094.244.33.406.592.407h2.863c.352 0 .637-.285.637-.636V1.909c0-.25-.148-.476-.376-.579z" transform="translate(6 6) translate(1 1.5)"/>
                            </g>
                        </g>
                    </g>
                </g>
            </g>
        </g>
    </g>
</svg>
