<svg class="svg-icon" width="24" height="24" viewBox="0 0 1024 1024"
  xmlns="http://www.w3.org/2000/svg">
  <path d="M64 896m32 0l832 0q32 0 32 32l0 0q0 32-32 32l-832 0q-32 0-32-32l0 0q0-32 32-32Z" />
  <path d="M448 960H192V606a62.07 62.07 0 0 1 62-62h132a62.07 62.07 0 0 1 62 62z m-192-64h128V608H256zM832 960H576V670a62.07 62.07 0 0 1 62-62h132a62.07 62.07 0 0 1 62 62z m-192-64h128V672H640z" />
  <path d="M640 960H384V414a62.07 62.07 0 0 1 62-62h132a62.07 62.07 0 0 1 62 62z m-192-64h128V416H448zM576 320H448a32 32 0 0 1-27.39-15.46l-64-106A32 32 0 0 1 384 150h56.31l44.59-71a32 32 0 0 1 54.2 0l44.59 71H640a32 32 0 0 1 27.39 48.54l-64 106A32 32 0 0 1 576 320z m-109.94-64h91.88l25.36-42H566a32 32 0 0 1-27.1-15L512 156.18 485.1 199a32 32 0 0 1-27.1 15h-17.3z" />
</svg>