<svg xmlns="http://www.w3.org/2000/svg"
    xmlns:xlink="http://www.w3.org/1999/xlink" width="24" height="24" viewBox="0 0 24 24">
    <defs>
        <path id="fowu6jzo7a" d="M0 0H24V18.634H0z"/>
    </defs>
    <g fill="none" fill-rule="evenodd">
        <g>
            <g>
                <g>
                    <g transform="translate(-204 -376) translate(185 94) translate(19 282) translate(0 3)">
                        <mask id="3uafn2ycab">
                            <use xlink:href="#fowu6jzo7a"/>
                        </mask>
                        <g mask="url(#3uafn2ycab)">
                            <g>
                                <g fill-rule="nonzero">
                                    <path d="M22.93 5.202c-.04-.087-.108-.156-.195-.194L11.638.034c-.1-.045-.214-.045-.313 0L.227 5.009C.089 5.07 0 5.207 0 5.358c0 .151.089.288.227.35l3.6 1.612v6.84c0 .112.05.22.137.292 4.34 3.668 10.694 3.668 15.035 0 .086-.073.136-.18.136-.293V7.32l1.53-.685v6.644l-.573.86c-.126.188-.192.41-.192.636v.444c0 .633.514 1.147 1.148 1.147.634 0 1.148-.514 1.148-1.147v-.445c0-.227-.066-.448-.191-.637l-.574-.858V6.292l1.304-.585c.193-.086.28-.312.194-.505zm-4.56 8.778c-4.008 3.277-9.77 3.277-13.777 0V7.666l6.732 3.017c.1.045.213.045.313 0l6.732-3.019v6.316zm3.061 1.237c0 .212-.171.383-.382.383-.212 0-.383-.171-.383-.383v-.443c0-.076.022-.15.064-.212l.319-.479.318.477c.042.063.064.137.064.212v.445zm-.6-9.495l-9.32-.747c-.21-.017-.396.141-.413.352-.016.212.141.397.353.414l7.928.634-7.898 3.537L1.32 5.358 11.48.804l10.163 4.554-.813.364z" transform="translate(.447 .717) translate(0 .029)"/>
                                </g>
                            </g>
                        </g>
                    </g>
                </g>
            </g>
        </g>
    </g>
</svg>
