<svg xmlns="http://www.w3.org/2000/svg" viewBox="0 0 29.047 30.044" fit="" height="100%" width="100%" preserveAspectRatio="xMidYMid meet" focusable="false">
  <g transform="translate(29.047 15.732) rotate(135)">
    <path d="M20.234,5.167a.564.564,0,0,0-.526-.6H1.789l3.15-3.561a.645.645,0,0,0,0-.837.48.48,0,0,0-.74,0L.154,4.746a.645.645,0,0,0,0,.837L4.2,10.155a.485.485,0,0,0,.745,0,.645.645,0,0,0,0-.837L1.793,5.757H19.716A.558.558,0,0,0,20.234,5.167Z" transform="translate(-0.702 11.217)"></path>
    <path d="M20.085,4.741,16.041.174a.481.481,0,0,0-.74,0,.645.645,0,0,0,0,.837l3.15,3.561H.526a.564.564,0,0,0-.526.6.564.564,0,0,0,.526.6H18.45L15.3,9.313a.645.645,0,0,0,0,.837.485.485,0,0,0,.745,0l4.044-4.572A.651.651,0,0,0,20.085,4.741Z"></path>
  </g>
</svg>