<svg width="24" height="24" viewBox="0 0 24 24" fill="none"
  xmlns="http://www.w3.org/2000/svg">
  <path fill-rule="evenodd" clip-rule="evenodd" d="M3 0.5C3 0.223858 3.22386 0 3.5 0C3.77614 0 4 0.223858 4 0.5V5H5C5.55228 5 6 5.44772 6 6V18C6 18.5523 5.55228 19 5 19H4V23.5C4 23.7761 3.77614 24 3.5 24C3.22386 24 3 23.7761 3 23.5V19H2C1.44772 19 1 18.5523 1 18V6C1 5.44772 1.44772 5 2 5H3V0.5ZM3.5 18H5V6H3.5H2L2 18H3.5Z" />
  <path fill-rule="evenodd" clip-rule="evenodd" d="M10 5.5C10 5.22386 10.2239 5 10.5 5C10.7761 5 11 5.22386 11 5.5V7H12C12.5523 7 13 7.44772 13 8V14C13 14.5523 12.5523 15 12 15H11V22.5C11 22.7761 10.7761 23 10.5 23C10.2239 23 10 22.7761 10 22.5V15H9C8.44772 15 8 14.5523 8 14V8C8 7.44772 8.44772 7 9 7H10V5.5ZM10.5 14H12V8H10.5H9L9 14H10.5Z" />
  <path fill-rule="evenodd" clip-rule="evenodd" d="M23.0333 0.5H23.5V0.954741C23.5026 0.9842 23.5026 1.01385 23.5 1.04331V6C23.5 6.27614 23.2761 6.5 23 6.5C22.7239 6.5 22.5 6.27614 22.5 6V2.20808L17.3555 7.35258C17.1602 7.54784 16.8437 7.54784 16.6484 7.35258C16.4531 7.15731 16.4531 6.84073 16.6484 6.64547L21.7939 1.5H18C17.7239 1.5 17.5 1.27614 17.5 1C17.5 0.723858 17.7239 0.5 18 0.5H22.9706C22.9915 0.498698 23.0124 0.498698 23.0333 0.5Z" />
  <path fill-rule="evenodd" clip-rule="evenodd" d="M23.5 18.0443V18.498H23.0462C23.0168 18.5007 22.9871 18.5007 22.9577 18.498H18C17.7239 18.498 17.5 18.2742 17.5 17.998C17.5 17.7219 17.7239 17.498 18 17.498H21.7929L16.6484 12.3536C16.4531 12.1583 16.4531 11.8417 16.6484 11.6464C16.8437 11.4512 17.1602 11.4512 17.3555 11.6464L22.5 16.7909V12.998C22.5 12.7219 22.7239 12.498 23 12.498C23.2761 12.498 23.5 12.7219 23.5 12.998L23.5 17.9557C23.5026 17.9852 23.5026 18.0148 23.5 18.0443Z" />
</svg>
