<svg xmlns="http://www.w3.org/2000/svg" width="24" height="24" viewBox="0 0 24 24">
    <path d="M6.516 15.5H12c.3 0 .543.224.543.5s-.243.5-.543.5H6.516c-.3 0-.543-.224-.543-.5s.243-.5.543-.5zM6.516 3h13.683c.3 0 .543.224.543.5S20.5 4 20.2 4H6.516c-.3 0-.543-.224-.543-.5s.243-.5.543-.5zM14.715 15.5h5.484c.3 0 .543.224.543.5s-.243.5-.543.5h-5.484c-.3 0-.543-.224-.543-.5s.243-.5.543-.5zM6.516 5.5H12c.3 0 .543.224.543.5s-.243.5-.543.5H6.516c-.3 0-.543-.224-.543-.5s.243-.5.543-.5zM6.516 8H12c.3 0 .543.224.543.5S12.3 9 12 9H6.516c-.3 0-.543-.224-.543-.5s.243-.5.543-.5zM6.516 10.5H12c.3 0 .543.224.543.5s-.243.5-.543.5H6.516c-.3 0-.543-.224-.543-.5s.243-.5.543-.5zM6.516 13H12c.3 0 .543.224.543.5S12.3 14 12 14H6.516c-.3 0-.543-.224-.543-.5s.243-.5.543-.5zM14.715 13h5.484c.3 0 .543.224.543.5s-.243.5-.543.5h-5.484c-.3 0-.543-.224-.543-.5s.243-.5.543-.5zM14.715 5.5h5.484c.3 0 .543.224.543.5v5.05c0 .276-.243.5-.543.5h-5.484c-.3 0-.543-.224-.543-.5V6c0-.276.243-.5.543-.5zm.543 5.05h4.398V6.5h-4.398v4.05z" transform="translate(-204 -208) translate(185 94) translate(19 114) translate(0 2)"/>
    <path d="M1.086 2.5h1.629V1c0-.551.487-1 1.086-1h19.113C23.513 0 24 .449 24 1v16c0 1.378-1.218 2.5-2.715 2.5H2.715C1.218 19.5 0 18.378 0 17V3.5c0-.551.487-1 1.086-1zm0 14.5c0 .827.73 1.5 1.629 1.5h18.57c.898 0 1.629-.673 1.629-1.5V1H3.801v15.25c0 .69-.61 1.25-1.358 1.25-.3 0-.543-.224-.543-.5s.244-.5.543-.5c.144.006.266-.106.272-.25V3.5H1.086V17z" transform="translate(-204 -208) translate(185 94) translate(19 114) translate(0 2)"/>
</svg>
