<svg width="0px" height="0px" viewBox="0 0 512 512" fill="none" xmlns="http://www.w3.org/2000/svg">
<g clip-path="url(#clip0_623_60088)">
<mask id="mask0_623_60088" style="mask-type:luminance" maskUnits="userSpaceOnUse" x="0" y="0" width="512" height="512">
<path d="M256 512C397.385 512 512 397.385 512 256C512 114.615 397.385 0 256 0C114.615 0 0 114.615 0 256C0 397.385 114.615 512 256 512Z" fill="white"/>
</mask>
<g mask="url(#mask0_623_60088)">
<path d="M0 0H512V512H0V0Z" fill="#6DA544"/>
<path d="M256 100.2L467.5 256L256 411.8L44.5 256L256 100.2Z" fill="#FFDA44"/>
<path d="M174.2 221C169.224 232.444 166.769 244.824 167 257.3L329 307.1C336.137 296.905 341.044 285.32 343.4 273.1C302.8 207.8 223.7 192.8 174.3 221.1L174.2 221Z" fill="#EEEEEE"/>
<path d="M255.7 167C241.075 167.037 226.684 170.677 213.8 177.6C196.068 187.167 182.107 202.468 174.2 221C204.499 214.566 235.939 215.985 265.535 225.121C295.131 234.257 321.9 250.807 343.3 273.2C347.275 252.955 344.094 231.958 334.3 213.8C326.661 199.616 315.315 187.771 301.473 179.529C287.631 171.286 271.81 166.956 255.7 167ZM212 250.5C196.74 250.449 181.563 252.742 167 257.3C167.168 271.578 170.77 285.606 177.5 298.2C183.038 308.499 190.552 317.606 199.611 324.999C208.671 332.393 219.098 337.929 230.298 341.291C241.498 344.653 253.251 345.775 264.885 344.592C276.519 343.41 287.805 339.946 298.1 334.4C310.322 327.819 320.836 318.469 328.8 307.1C314.764 289.575 296.997 275.402 276.791 265.61C256.586 255.819 234.452 250.657 212 250.5Z" fill="#0052B4"/>
</g>
</g>
<defs>
<clipPath id="clip0_623_60088">
<rect width="512" height="512" fill="white"/>
</clipPath>
</defs>
</svg>
